  0
SECTION
  2
HEADER
  9
$ANGBASE
  50
0.0
  9
$ANGDIR
  70
1
  9
$MEASUREMENT
  70
1
  0
ENDSEC
  0
SECTION
  2
TABLES
  0
TABLE
  2
LTYPE
  70
4
  0
LTYPE
  5
40F
  2
CONTINUOUS
  70
0
  3
Solid line
  72
65
  73
0
  40
0.0
  0
LTYPE
  5
410
  2
DASHDOT
 70
0
  3
Dash Dot ____ _ ____ _
 72
65
 73
4
 40
2.0
 49
1.25
 49
-0.25
 49
0.25
 49
-0.25
  0
LTYPE
  5
411
  2
DASHED
 70
0
  3
Dashed __ __ __ __ __
 72
65
 73
2
 40
0.75
 49
0.5
 49
-0.25
  0
LTYPE
  5
43B
  2
DOTTED
 70
0
  3
Dotted .  .  .  .
 72
65
 73
2
 40
0.2
 49
0.0
 49
-0.2
  0
ENDTAB
  0
TABLE
  2
STYLE
  70
4
  0
STYLE
  2
KICAD
  70
0
  40
0
  41
1
  42
1
  50
0
  71
0
  3
isocp.shx
  0
STYLE
  2
KICADB
  70
0
  40
0
  41
1
  42
1
  50
0
  71
0
  3
isocp.shx
  0
STYLE
  2
KICADI
  70
0
  40
0
  41
1
  42
1
  50
15
  71
0
  3
isocp.shx
  0
STYLE
  2
KICADBI
  70
0
  40
0
  41
1
  42
1
  50
15
  71
0
  3
isocp.shx
  0
ENDTAB
  0
TABLE
  2
LAYER
  70
1
  0
LAYER
  2
BLACK
  70
0
  62
7
  6
CONTINUOUS
  0
ENDTAB
  0
ENDSEC
  0
SECTION
  2
ENTITIES
0
LINE
8
BLACK
6
CONTINUOUS
10
200.329
20
-53.6738
11
200.377
21
-53.5786
0
LINE
8
BLACK
6
CONTINUOUS
10
200.377
20
-53.5786
11
200.424
21
-53.531
0
LINE
8
BLACK
6
CONTINUOUS
10
200.424
20
-53.531
11
200.52
21
-53.4833
0
LINE
8
BLACK
6
CONTINUOUS
10
200.52
20
-53.4833
11
200.567
21
-53.4833
0
LINE
8
BLACK
6
CONTINUOUS
10
200.567
20
-53.4833
11
200.662
21
-53.531
0
LINE
8
BLACK
6
CONTINUOUS
10
200.662
20
-53.531
11
200.71
21
-53.5786
0
LINE
8
BLACK
6
CONTINUOUS
10
200.71
20
-53.5786
11
200.758
21
-53.6738
0
LINE
8
BLACK
6
CONTINUOUS
10
200.758
20
-53.6738
11
200.758
21
-53.8643
0
LINE
8
BLACK
6
CONTINUOUS
10
200.758
20
-53.8643
11
200.71
21
-53.9595
0
LINE
8
BLACK
6
CONTINUOUS
10
200.71
20
-53.9595
11
200.662
21
-54.0071
0
LINE
8
BLACK
6
CONTINUOUS
10
200.662
20
-54.0071
11
200.567
21
-54.0548
0
LINE
8
BLACK
6
CONTINUOUS
10
200.567
20
-54.0548
11
200.52
21
-54.0548
0
LINE
8
BLACK
6
CONTINUOUS
10
200.52
20
-54.0548
11
200.424
21
-54.0071
0
LINE
8
BLACK
6
CONTINUOUS
10
200.424
20
-54.0071
11
200.377
21
-53.9595
0
LINE
8
BLACK
6
CONTINUOUS
10
200.377
20
-53.9595
11
200.329
21
-53.8643
0
LINE
8
BLACK
6
CONTINUOUS
10
200.329
20
-53.8643
11
200.329
21
-53.6738
0
LINE
8
BLACK
6
CONTINUOUS
10
200.329
20
-53.6738
11
200.281
21
-53.5786
0
LINE
8
BLACK
6
CONTINUOUS
10
200.281
20
-53.5786
11
200.234
21
-53.531
0
LINE
8
BLACK
6
CONTINUOUS
10
200.234
20
-53.531
11
200.139
21
-53.4833
0
LINE
8
BLACK
6
CONTINUOUS
10
200.139
20
-53.4833
11
199.948
21
-53.4833
0
LINE
8
BLACK
6
CONTINUOUS
10
199.948
20
-53.4833
11
199.853
21
-53.531
0
LINE
8
BLACK
6
CONTINUOUS
10
199.853
20
-53.531
11
199.805
21
-53.5786
0
LINE
8
BLACK
6
CONTINUOUS
10
199.805
20
-53.5786
11
199.758
21
-53.6738
0
LINE
8
BLACK
6
CONTINUOUS
10
199.758
20
-53.6738
11
199.758
21
-53.8643
0
LINE
8
BLACK
6
CONTINUOUS
10
199.758
20
-53.8643
11
199.805
21
-53.9595
0
LINE
8
BLACK
6
CONTINUOUS
10
199.805
20
-53.9595
11
199.853
21
-54.0071
0
LINE
8
BLACK
6
CONTINUOUS
10
199.853
20
-54.0071
11
199.948
21
-54.0548
0
LINE
8
BLACK
6
CONTINUOUS
10
199.948
20
-54.0548
11
200.139
21
-54.0548
0
LINE
8
BLACK
6
CONTINUOUS
10
200.139
20
-54.0548
11
200.234
21
-54.0071
0
LINE
8
BLACK
6
CONTINUOUS
10
200.234
20
-54.0071
11
200.281
21
-53.9595
0
LINE
8
BLACK
6
CONTINUOUS
10
200.281
20
-53.9595
11
200.329
21
-53.8643
0
LINE
8
BLACK
6
CONTINUOUS
10
199.853
20
-54.4833
11
199.805
21
-54.531
0
LINE
8
BLACK
6
CONTINUOUS
10
199.805
20
-54.531
11
199.758
21
-54.4833
0
LINE
8
BLACK
6
CONTINUOUS
10
199.758
20
-54.4833
11
199.805
21
-54.4357
0
LINE
8
BLACK
6
CONTINUOUS
10
199.805
20
-54.4357
11
199.853
21
-54.4833
0
LINE
8
BLACK
6
CONTINUOUS
10
199.853
20
-54.4833
11
199.758
21
-54.4833
0
LINE
8
BLACK
6
CONTINUOUS
10
200.758
20
-55.4357
11
200.758
21
-54.9595
0
LINE
8
BLACK
6
CONTINUOUS
10
200.758
20
-54.9595
11
200.281
21
-54.9119
0
LINE
8
BLACK
6
CONTINUOUS
10
200.281
20
-54.9119
11
200.329
21
-54.9595
0
LINE
8
BLACK
6
CONTINUOUS
10
200.329
20
-54.9595
11
200.377
21
-55.0548
0
LINE
8
BLACK
6
CONTINUOUS
10
200.377
20
-55.0548
11
200.377
21
-55.2929
0
LINE
8
BLACK
6
CONTINUOUS
10
200.377
20
-55.2929
11
200.329
21
-55.3881
0
LINE
8
BLACK
6
CONTINUOUS
10
200.329
20
-55.3881
11
200.281
21
-55.4357
0
LINE
8
BLACK
6
CONTINUOUS
10
200.281
20
-55.4357
11
200.186
21
-55.4833
0
LINE
8
BLACK
6
CONTINUOUS
10
200.186
20
-55.4833
11
199.948
21
-55.4833
0
LINE
8
BLACK
6
CONTINUOUS
10
199.948
20
-55.4833
11
199.853
21
-55.4357
0
LINE
8
BLACK
6
CONTINUOUS
10
199.853
20
-55.4357
11
199.805
21
-55.3881
0
LINE
8
BLACK
6
CONTINUOUS
10
199.805
20
-55.3881
11
199.758
21
-55.2929
0
LINE
8
BLACK
6
CONTINUOUS
10
199.758
20
-55.2929
11
199.758
21
-55.0548
0
LINE
8
BLACK
6
CONTINUOUS
10
199.758
20
-55.0548
11
199.805
21
-54.9595
0
LINE
8
BLACK
6
CONTINUOUS
10
199.805
20
-54.9595
11
199.853
21
-54.9119
0
LINE
8
BLACK
6
CONTINUOUS
10
200.758
20
-56.3881
11
200.758
21
-55.9119
0
LINE
8
BLACK
6
CONTINUOUS
10
200.758
20
-55.9119
11
200.281
21
-55.8643
0
LINE
8
BLACK
6
CONTINUOUS
10
200.281
20
-55.8643
11
200.329
21
-55.9119
0
LINE
8
BLACK
6
CONTINUOUS
10
200.329
20
-55.9119
11
200.377
21
-56.0071
0
LINE
8
BLACK
6
CONTINUOUS
10
200.377
20
-56.0071
11
200.377
21
-56.2452
0
LINE
8
BLACK
6
CONTINUOUS
10
200.377
20
-56.2452
11
200.329
21
-56.3405
0
LINE
8
BLACK
6
CONTINUOUS
10
200.329
20
-56.3405
11
200.281
21
-56.3881
0
LINE
8
BLACK
6
CONTINUOUS
10
200.281
20
-56.3881
11
200.186
21
-56.4357
0
LINE
8
BLACK
6
CONTINUOUS
10
200.186
20
-56.4357
11
199.948
21
-56.4357
0
LINE
8
BLACK
6
CONTINUOUS
10
199.948
20
-56.4357
11
199.853
21
-56.3881
0
LINE
8
BLACK
6
CONTINUOUS
10
199.853
20
-56.3881
11
199.805
21
-56.3405
0
LINE
8
BLACK
6
CONTINUOUS
10
199.805
20
-56.3405
11
199.758
21
-56.2452
0
LINE
8
BLACK
6
CONTINUOUS
10
199.758
20
-56.2452
11
199.758
21
-56.0071
0
LINE
8
BLACK
6
CONTINUOUS
10
199.758
20
-56.0071
11
199.805
21
-55.9119
0
LINE
8
BLACK
6
CONTINUOUS
10
199.805
20
-55.9119
11
199.853
21
-55.8643
0
LINE
8
BLACK
6
CONTINUOUS
10
200.758
20
-57.3405
11
200.758
21
-56.8643
0
LINE
8
BLACK
6
CONTINUOUS
10
200.758
20
-56.8643
11
200.281
21
-56.8167
0
LINE
8
BLACK
6
CONTINUOUS
10
200.281
20
-56.8167
11
200.329
21
-56.8643
0
LINE
8
BLACK
6
CONTINUOUS
10
200.329
20
-56.8643
11
200.377
21
-56.9595
0
LINE
8
BLACK
6
CONTINUOUS
10
200.377
20
-56.9595
11
200.377
21
-57.1976
0
LINE
8
BLACK
6
CONTINUOUS
10
200.377
20
-57.1976
11
200.329
21
-57.2929
0
LINE
8
BLACK
6
CONTINUOUS
10
200.329
20
-57.2929
11
200.281
21
-57.3405
0
LINE
8
BLACK
6
CONTINUOUS
10
200.281
20
-57.3405
11
200.186
21
-57.3881
0
LINE
8
BLACK
6
CONTINUOUS
10
200.186
20
-57.3881
11
199.948
21
-57.3881
0
LINE
8
BLACK
6
CONTINUOUS
10
199.948
20
-57.3881
11
199.853
21
-57.3405
0
LINE
8
BLACK
6
CONTINUOUS
10
199.853
20
-57.3405
11
199.805
21
-57.2929
0
LINE
8
BLACK
6
CONTINUOUS
10
199.805
20
-57.2929
11
199.758
21
-57.1976
0
LINE
8
BLACK
6
CONTINUOUS
10
199.758
20
-57.1976
11
199.758
21
-56.9595
0
LINE
8
BLACK
6
CONTINUOUS
10
199.758
20
-56.9595
11
199.805
21
-56.8643
0
LINE
8
BLACK
6
CONTINUOUS
10
199.805
20
-56.8643
11
199.853
21
-56.8167
0
LINE
8
BLACK
6
CONTINUOUS
10
199.758
20
-58.5786
11
200.424
21
-58.5786
0
LINE
8
BLACK
6
CONTINUOUS
10
200.329
20
-58.5786
11
200.377
21
-58.6262
0
LINE
8
BLACK
6
CONTINUOUS
10
200.377
20
-58.6262
11
200.424
21
-58.7214
0
LINE
8
BLACK
6
CONTINUOUS
10
200.424
20
-58.7214
11
200.424
21
-58.8643
0
LINE
8
BLACK
6
CONTINUOUS
10
200.424
20
-58.8643
11
200.377
21
-58.9595
0
LINE
8
BLACK
6
CONTINUOUS
10
200.377
20
-58.9595
11
200.281
21
-59.0071
0
LINE
8
BLACK
6
CONTINUOUS
10
200.281
20
-59.0071
11
199.758
21
-59.0071
0
LINE
8
BLACK
6
CONTINUOUS
10
200.281
20
-59.0071
11
200.377
21
-59.0548
0
LINE
8
BLACK
6
CONTINUOUS
10
200.377
20
-59.0548
11
200.424
21
-59.15
0
LINE
8
BLACK
6
CONTINUOUS
10
200.424
20
-59.15
11
200.424
21
-59.2929
0
LINE
8
BLACK
6
CONTINUOUS
10
200.424
20
-59.2929
11
200.377
21
-59.3881
0
LINE
8
BLACK
6
CONTINUOUS
10
200.377
20
-59.3881
11
200.281
21
-59.4357
0
LINE
8
BLACK
6
CONTINUOUS
10
200.281
20
-59.4357
11
199.758
21
-59.4357
0
LINE
8
BLACK
6
CONTINUOUS
10
199.758
20
-59.9119
11
200.424
21
-59.9119
0
LINE
8
BLACK
6
CONTINUOUS
10
200.329
20
-59.9119
11
200.377
21
-59.9595
0
LINE
8
BLACK
6
CONTINUOUS
10
200.377
20
-59.9595
11
200.424
21
-60.0548
0
LINE
8
BLACK
6
CONTINUOUS
10
200.424
20
-60.0548
11
200.424
21
-60.1976
0
LINE
8
BLACK
6
CONTINUOUS
10
200.424
20
-60.1976
11
200.377
21
-60.2929
0
LINE
8
BLACK
6
CONTINUOUS
10
200.377
20
-60.2929
11
200.281
21
-60.3405
0
LINE
8
BLACK
6
CONTINUOUS
10
200.281
20
-60.3405
11
199.758
21
-60.3405
0
LINE
8
BLACK
6
CONTINUOUS
10
200.281
20
-60.3405
11
200.377
21
-60.3881
0
LINE
8
BLACK
6
CONTINUOUS
10
200.377
20
-60.3881
11
200.424
21
-60.4833
0
LINE
8
BLACK
6
CONTINUOUS
10
200.424
20
-60.4833
11
200.424
21
-60.6262
0
LINE
8
BLACK
6
CONTINUOUS
10
200.424
20
-60.6262
11
200.377
21
-60.7214
0
LINE
8
BLACK
6
CONTINUOUS
10
200.377
20
-60.7214
11
200.281
21
-60.769
0
LINE
8
BLACK
6
CONTINUOUS
10
200.281
20
-60.769
11
199.758
21
-60.769
0
LINE
8
BLACK
6
CONTINUOUS
10
199.01
20
-52.8725
11
199.01
21
-61.4275
0
LINE
8
BLACK
6
CONTINUOUS
10
197.525
20
-52.8725
11
199.596
21
-52.8725
0
LINE
8
BLACK
6
CONTINUOUS
10
197.525
20
-61.4275
11
199.596
21
-61.4275
0
LINE
8
BLACK
6
CONTINUOUS
10
199.01
20
-61.4275
11
198.424
21
-60.301
0
LINE
8
BLACK
6
CONTINUOUS
10
199.01
20
-61.4275
11
199.596
21
-60.301
0
LINE
8
BLACK
6
CONTINUOUS
10
199.01
20
-52.8725
11
198.424
21
-53.999
0
LINE
8
BLACK
6
CONTINUOUS
10
199.01
20
-52.8725
11
199.596
21
-53.999
0
LINE
8
BLACK
6
CONTINUOUS
10
177.912
20
-63.8776
11
177.96
21
-63.83
0
LINE
8
BLACK
6
CONTINUOUS
10
177.96
20
-63.83
11
178.055
21
-63.7824
0
LINE
8
BLACK
6
CONTINUOUS
10
178.055
20
-63.7824
11
178.293
21
-63.7824
0
LINE
8
BLACK
6
CONTINUOUS
10
178.293
20
-63.7824
11
178.388
21
-63.83
0
LINE
8
BLACK
6
CONTINUOUS
10
178.388
20
-63.83
11
178.436
21
-63.8776
0
LINE
8
BLACK
6
CONTINUOUS
10
178.436
20
-63.8776
11
178.484
21
-63.9729
0
LINE
8
BLACK
6
CONTINUOUS
10
178.484
20
-63.9729
11
178.484
21
-64.0681
0
LINE
8
BLACK
6
CONTINUOUS
10
178.484
20
-64.0681
11
178.436
21
-64.211
0
LINE
8
BLACK
6
CONTINUOUS
10
178.436
20
-64.211
11
177.865
21
-64.7824
0
LINE
8
BLACK
6
CONTINUOUS
10
177.865
20
-64.7824
11
178.484
21
-64.7824
0
LINE
8
BLACK
6
CONTINUOUS
10
179.388
20
-63.7824
11
178.912
21
-63.7824
0
LINE
8
BLACK
6
CONTINUOUS
10
178.912
20
-63.7824
11
178.865
21
-64.2586
0
LINE
8
BLACK
6
CONTINUOUS
10
178.865
20
-64.2586
11
178.912
21
-64.211
0
LINE
8
BLACK
6
CONTINUOUS
10
178.912
20
-64.211
11
179.007
21
-64.1633
0
LINE
8
BLACK
6
CONTINUOUS
10
179.007
20
-64.1633
11
179.245
21
-64.1633
0
LINE
8
BLACK
6
CONTINUOUS
10
179.245
20
-64.1633
11
179.341
21
-64.211
0
LINE
8
BLACK
6
CONTINUOUS
10
179.341
20
-64.211
11
179.388
21
-64.2586
0
LINE
8
BLACK
6
CONTINUOUS
10
179.388
20
-64.2586
11
179.436
21
-64.3538
0
LINE
8
BLACK
6
CONTINUOUS
10
179.436
20
-64.3538
11
179.436
21
-64.5919
0
LINE
8
BLACK
6
CONTINUOUS
10
179.436
20
-64.5919
11
179.388
21
-64.6871
0
LINE
8
BLACK
6
CONTINUOUS
10
179.388
20
-64.6871
11
179.341
21
-64.7348
0
LINE
8
BLACK
6
CONTINUOUS
10
179.341
20
-64.7348
11
179.245
21
-64.7824
0
LINE
8
BLACK
6
CONTINUOUS
10
179.245
20
-64.7824
11
179.007
21
-64.7824
0
LINE
8
BLACK
6
CONTINUOUS
10
179.007
20
-64.7824
11
178.912
21
-64.7348
0
LINE
8
BLACK
6
CONTINUOUS
10
178.912
20
-64.7348
11
178.865
21
-64.6871
0
LINE
8
BLACK
6
CONTINUOUS
10
179.865
20
-64.6871
11
179.912
21
-64.7348
0
LINE
8
BLACK
6
CONTINUOUS
10
179.912
20
-64.7348
11
179.865
21
-64.7824
0
LINE
8
BLACK
6
CONTINUOUS
10
179.865
20
-64.7824
11
179.817
21
-64.7348
0
LINE
8
BLACK
6
CONTINUOUS
10
179.817
20
-64.7348
11
179.865
21
-64.6871
0
LINE
8
BLACK
6
CONTINUOUS
10
179.865
20
-64.6871
11
179.865
21
-64.7824
0
LINE
8
BLACK
6
CONTINUOUS
10
180.388
20
-64.7824
11
180.579
21
-64.7824
0
LINE
8
BLACK
6
CONTINUOUS
10
180.579
20
-64.7824
11
180.674
21
-64.7348
0
LINE
8
BLACK
6
CONTINUOUS
10
180.674
20
-64.7348
11
180.722
21
-64.6871
0
LINE
8
BLACK
6
CONTINUOUS
10
180.722
20
-64.6871
11
180.817
21
-64.5443
0
LINE
8
BLACK
6
CONTINUOUS
10
180.817
20
-64.5443
11
180.865
21
-64.3538
0
LINE
8
BLACK
6
CONTINUOUS
10
180.865
20
-64.3538
11
180.865
21
-63.9729
0
LINE
8
BLACK
6
CONTINUOUS
10
180.865
20
-63.9729
11
180.817
21
-63.8776
0
LINE
8
BLACK
6
CONTINUOUS
10
180.817
20
-63.8776
11
180.769
21
-63.83
0
LINE
8
BLACK
6
CONTINUOUS
10
180.769
20
-63.83
11
180.674
21
-63.7824
0
LINE
8
BLACK
6
CONTINUOUS
10
180.674
20
-63.7824
11
180.484
21
-63.7824
0
LINE
8
BLACK
6
CONTINUOUS
10
180.484
20
-63.7824
11
180.388
21
-63.83
0
LINE
8
BLACK
6
CONTINUOUS
10
180.388
20
-63.83
11
180.341
21
-63.8776
0
LINE
8
BLACK
6
CONTINUOUS
10
180.341
20
-63.8776
11
180.293
21
-63.9729
0
LINE
8
BLACK
6
CONTINUOUS
10
180.293
20
-63.9729
11
180.293
21
-64.211
0
LINE
8
BLACK
6
CONTINUOUS
10
180.293
20
-64.211
11
180.341
21
-64.3062
0
LINE
8
BLACK
6
CONTINUOUS
10
180.341
20
-64.3062
11
180.388
21
-64.3538
0
LINE
8
BLACK
6
CONTINUOUS
10
180.388
20
-64.3538
11
180.484
21
-64.4014
0
LINE
8
BLACK
6
CONTINUOUS
10
180.484
20
-64.4014
11
180.674
21
-64.4014
0
LINE
8
BLACK
6
CONTINUOUS
10
180.674
20
-64.4014
11
180.769
21
-64.3538
0
LINE
8
BLACK
6
CONTINUOUS
10
180.769
20
-64.3538
11
180.817
21
-64.3062
0
LINE
8
BLACK
6
CONTINUOUS
10
180.817
20
-64.3062
11
180.865
21
-64.211
0
LINE
8
BLACK
6
CONTINUOUS
10
181.769
20
-63.7824
11
181.293
21
-63.7824
0
LINE
8
BLACK
6
CONTINUOUS
10
181.293
20
-63.7824
11
181.245
21
-64.2586
0
LINE
8
BLACK
6
CONTINUOUS
10
181.245
20
-64.2586
11
181.293
21
-64.211
0
LINE
8
BLACK
6
CONTINUOUS
10
181.293
20
-64.211
11
181.388
21
-64.1633
0
LINE
8
BLACK
6
CONTINUOUS
10
181.388
20
-64.1633
11
181.626
21
-64.1633
0
LINE
8
BLACK
6
CONTINUOUS
10
181.626
20
-64.1633
11
181.722
21
-64.211
0
LINE
8
BLACK
6
CONTINUOUS
10
181.722
20
-64.211
11
181.769
21
-64.2586
0
LINE
8
BLACK
6
CONTINUOUS
10
181.769
20
-64.2586
11
181.817
21
-64.3538
0
LINE
8
BLACK
6
CONTINUOUS
10
181.817
20
-64.3538
11
181.817
21
-64.5919
0
LINE
8
BLACK
6
CONTINUOUS
10
181.817
20
-64.5919
11
181.769
21
-64.6871
0
LINE
8
BLACK
6
CONTINUOUS
10
181.769
20
-64.6871
11
181.722
21
-64.7348
0
LINE
8
BLACK
6
CONTINUOUS
10
181.722
20
-64.7348
11
181.626
21
-64.7824
0
LINE
8
BLACK
6
CONTINUOUS
10
181.626
20
-64.7824
11
181.388
21
-64.7824
0
LINE
8
BLACK
6
CONTINUOUS
10
181.388
20
-64.7824
11
181.293
21
-64.7348
0
LINE
8
BLACK
6
CONTINUOUS
10
181.293
20
-64.7348
11
181.245
21
-64.6871
0
LINE
8
BLACK
6
CONTINUOUS
10
182.436
20
-63.7824
11
182.531
21
-63.7824
0
LINE
8
BLACK
6
CONTINUOUS
10
182.531
20
-63.7824
11
182.626
21
-63.83
0
LINE
8
BLACK
6
CONTINUOUS
10
182.626
20
-63.83
11
182.674
21
-63.8776
0
LINE
8
BLACK
6
CONTINUOUS
10
182.674
20
-63.8776
11
182.722
21
-63.9729
0
LINE
8
BLACK
6
CONTINUOUS
10
182.722
20
-63.9729
11
182.769
21
-64.1633
0
LINE
8
BLACK
6
CONTINUOUS
10
182.769
20
-64.1633
11
182.769
21
-64.4014
0
LINE
8
BLACK
6
CONTINUOUS
10
182.769
20
-64.4014
11
182.722
21
-64.5919
0
LINE
8
BLACK
6
CONTINUOUS
10
182.722
20
-64.5919
11
182.674
21
-64.6871
0
LINE
8
BLACK
6
CONTINUOUS
10
182.674
20
-64.6871
11
182.626
21
-64.7348
0
LINE
8
BLACK
6
CONTINUOUS
10
182.626
20
-64.7348
11
182.531
21
-64.7824
0
LINE
8
BLACK
6
CONTINUOUS
10
182.531
20
-64.7824
11
182.436
21
-64.7824
0
LINE
8
BLACK
6
CONTINUOUS
10
182.436
20
-64.7824
11
182.341
21
-64.7348
0
LINE
8
BLACK
6
CONTINUOUS
10
182.341
20
-64.7348
11
182.293
21
-64.6871
0
LINE
8
BLACK
6
CONTINUOUS
10
182.293
20
-64.6871
11
182.245
21
-64.5919
0
LINE
8
BLACK
6
CONTINUOUS
10
182.245
20
-64.5919
11
182.198
21
-64.4014
0
LINE
8
BLACK
6
CONTINUOUS
10
182.198
20
-64.4014
11
182.198
21
-64.1633
0
LINE
8
BLACK
6
CONTINUOUS
10
182.198
20
-64.1633
11
182.245
21
-63.9729
0
LINE
8
BLACK
6
CONTINUOUS
10
182.245
20
-63.9729
11
182.293
21
-63.8776
0
LINE
8
BLACK
6
CONTINUOUS
10
182.293
20
-63.8776
11
182.341
21
-63.83
0
LINE
8
BLACK
6
CONTINUOUS
10
182.341
20
-63.83
11
182.436
21
-63.7824
0
LINE
8
BLACK
6
CONTINUOUS
10
183.96
20
-64.7824
11
183.96
21
-64.1157
0
LINE
8
BLACK
6
CONTINUOUS
10
183.96
20
-64.211
11
184.007
21
-64.1633
0
LINE
8
BLACK
6
CONTINUOUS
10
184.007
20
-64.1633
11
184.103
21
-64.1157
0
LINE
8
BLACK
6
CONTINUOUS
10
184.103
20
-64.1157
11
184.245
21
-64.1157
0
LINE
8
BLACK
6
CONTINUOUS
10
184.245
20
-64.1157
11
184.341
21
-64.1633
0
LINE
8
BLACK
6
CONTINUOUS
10
184.341
20
-64.1633
11
184.388
21
-64.2586
0
LINE
8
BLACK
6
CONTINUOUS
10
184.388
20
-64.2586
11
184.388
21
-64.7824
0
LINE
8
BLACK
6
CONTINUOUS
10
184.388
20
-64.2586
11
184.436
21
-64.1633
0
LINE
8
BLACK
6
CONTINUOUS
10
184.436
20
-64.1633
11
184.531
21
-64.1157
0
LINE
8
BLACK
6
CONTINUOUS
10
184.531
20
-64.1157
11
184.674
21
-64.1157
0
LINE
8
BLACK
6
CONTINUOUS
10
184.674
20
-64.1157
11
184.769
21
-64.1633
0
LINE
8
BLACK
6
CONTINUOUS
10
184.769
20
-64.1633
11
184.817
21
-64.2586
0
LINE
8
BLACK
6
CONTINUOUS
10
184.817
20
-64.2586
11
184.817
21
-64.7824
0
LINE
8
BLACK
6
CONTINUOUS
10
185.293
20
-64.7824
11
185.293
21
-64.1157
0
LINE
8
BLACK
6
CONTINUOUS
10
185.293
20
-64.211
11
185.341
21
-64.1633
0
LINE
8
BLACK
6
CONTINUOUS
10
185.341
20
-64.1633
11
185.436
21
-64.1157
0
LINE
8
BLACK
6
CONTINUOUS
10
185.436
20
-64.1157
11
185.579
21
-64.1157
0
LINE
8
BLACK
6
CONTINUOUS
10
185.579
20
-64.1157
11
185.674
21
-64.1633
0
LINE
8
BLACK
6
CONTINUOUS
10
185.674
20
-64.1633
11
185.722
21
-64.2586
0
LINE
8
BLACK
6
CONTINUOUS
10
185.722
20
-64.2586
11
185.722
21
-64.7824
0
LINE
8
BLACK
6
CONTINUOUS
10
185.722
20
-64.2586
11
185.769
21
-64.1633
0
LINE
8
BLACK
6
CONTINUOUS
10
185.769
20
-64.1633
11
185.865
21
-64.1157
0
LINE
8
BLACK
6
CONTINUOUS
10
185.865
20
-64.1157
11
186.007
21
-64.1157
0
LINE
8
BLACK
6
CONTINUOUS
10
186.007
20
-64.1157
11
186.103
21
-64.1633
0
LINE
8
BLACK
6
CONTINUOUS
10
186.103
20
-64.1633
11
186.15
21
-64.2586
0
LINE
8
BLACK
6
CONTINUOUS
10
186.15
20
-64.2586
11
186.15
21
-64.7824
0
LINE
8
BLACK
6
CONTINUOUS
10
169.08
20
-63.13
11
195.03
21
-63.13
0
LINE
8
BLACK
6
CONTINUOUS
10
169.08
20
-61.9325
11
169.08
21
-63.7164
0
LINE
8
BLACK
6
CONTINUOUS
10
195.03
20
-61.9325
11
195.03
21
-63.7164
0
LINE
8
BLACK
6
CONTINUOUS
10
195.03
20
-63.13
11
193.903
21
-63.7164
0
LINE
8
BLACK
6
CONTINUOUS
10
195.03
20
-63.13
11
193.903
21
-62.5436
0
LINE
8
BLACK
6
CONTINUOUS
10
169.08
20
-63.13
11
170.207
21
-63.7164
0
LINE
8
BLACK
6
CONTINUOUS
10
169.08
20
-63.13
11
170.207
21
-62.5436
0
LINE
8
BLACK
6
CONTINUOUS
10
15.9421
20
-64.1976
11
15.9898
21
-64.15
0
LINE
8
BLACK
6
CONTINUOUS
10
15.9898
20
-64.15
11
16.085
21
-64.1024
0
LINE
8
BLACK
6
CONTINUOUS
10
16.085
20
-64.1024
11
16.3231
21
-64.1024
0
LINE
8
BLACK
6
CONTINUOUS
10
16.3231
20
-64.1024
11
16.4183
21
-64.15
0
LINE
8
BLACK
6
CONTINUOUS
10
16.4183
20
-64.15
11
16.466
21
-64.1976
0
LINE
8
BLACK
6
CONTINUOUS
10
16.466
20
-64.1976
11
16.5136
21
-64.2929
0
LINE
8
BLACK
6
CONTINUOUS
10
16.5136
20
-64.2929
11
16.5136
21
-64.3881
0
LINE
8
BLACK
6
CONTINUOUS
10
16.5136
20
-64.3881
11
16.466
21
-64.531
0
LINE
8
BLACK
6
CONTINUOUS
10
16.466
20
-64.531
11
15.8945
21
-65.1024
0
LINE
8
BLACK
6
CONTINUOUS
10
15.8945
20
-65.1024
11
16.5136
21
-65.1024
0
LINE
8
BLACK
6
CONTINUOUS
10
17.4183
20
-64.1024
11
16.9421
21
-64.1024
0
LINE
8
BLACK
6
CONTINUOUS
10
16.9421
20
-64.1024
11
16.8945
21
-64.5786
0
LINE
8
BLACK
6
CONTINUOUS
10
16.8945
20
-64.5786
11
16.9421
21
-64.531
0
LINE
8
BLACK
6
CONTINUOUS
10
16.9421
20
-64.531
11
17.0374
21
-64.4833
0
LINE
8
BLACK
6
CONTINUOUS
10
17.0374
20
-64.4833
11
17.2755
21
-64.4833
0
LINE
8
BLACK
6
CONTINUOUS
10
17.2755
20
-64.4833
11
17.3707
21
-64.531
0
LINE
8
BLACK
6
CONTINUOUS
10
17.3707
20
-64.531
11
17.4183
21
-64.5786
0
LINE
8
BLACK
6
CONTINUOUS
10
17.4183
20
-64.5786
11
17.466
21
-64.6738
0
LINE
8
BLACK
6
CONTINUOUS
10
17.466
20
-64.6738
11
17.466
21
-64.9119
0
LINE
8
BLACK
6
CONTINUOUS
10
17.466
20
-64.9119
11
17.4183
21
-65.0071
0
LINE
8
BLACK
6
CONTINUOUS
10
17.4183
20
-65.0071
11
17.3707
21
-65.0548
0
LINE
8
BLACK
6
CONTINUOUS
10
17.3707
20
-65.0548
11
17.2755
21
-65.1024
0
LINE
8
BLACK
6
CONTINUOUS
10
17.2755
20
-65.1024
11
17.0374
21
-65.1024
0
LINE
8
BLACK
6
CONTINUOUS
10
17.0374
20
-65.1024
11
16.9421
21
-65.0548
0
LINE
8
BLACK
6
CONTINUOUS
10
16.9421
20
-65.0548
11
16.8945
21
-65.0071
0
LINE
8
BLACK
6
CONTINUOUS
10
17.8945
20
-65.0071
11
17.9421
21
-65.0548
0
LINE
8
BLACK
6
CONTINUOUS
10
17.9421
20
-65.0548
11
17.8945
21
-65.1024
0
LINE
8
BLACK
6
CONTINUOUS
10
17.8945
20
-65.1024
11
17.8469
21
-65.0548
0
LINE
8
BLACK
6
CONTINUOUS
10
17.8469
20
-65.0548
11
17.8945
21
-65.0071
0
LINE
8
BLACK
6
CONTINUOUS
10
17.8945
20
-65.0071
11
17.8945
21
-65.1024
0
LINE
8
BLACK
6
CONTINUOUS
10
18.4183
20
-65.1024
11
18.6088
21
-65.1024
0
LINE
8
BLACK
6
CONTINUOUS
10
18.6088
20
-65.1024
11
18.704
21
-65.0548
0
LINE
8
BLACK
6
CONTINUOUS
10
18.704
20
-65.0548
11
18.7517
21
-65.0071
0
LINE
8
BLACK
6
CONTINUOUS
10
18.7517
20
-65.0071
11
18.8469
21
-64.8643
0
LINE
8
BLACK
6
CONTINUOUS
10
18.8469
20
-64.8643
11
18.8945
21
-64.6738
0
LINE
8
BLACK
6
CONTINUOUS
10
18.8945
20
-64.6738
11
18.8945
21
-64.2929
0
LINE
8
BLACK
6
CONTINUOUS
10
18.8945
20
-64.2929
11
18.8469
21
-64.1976
0
LINE
8
BLACK
6
CONTINUOUS
10
18.8469
20
-64.1976
11
18.7993
21
-64.15
0
LINE
8
BLACK
6
CONTINUOUS
10
18.7993
20
-64.15
11
18.704
21
-64.1024
0
LINE
8
BLACK
6
CONTINUOUS
10
18.704
20
-64.1024
11
18.5136
21
-64.1024
0
LINE
8
BLACK
6
CONTINUOUS
10
18.5136
20
-64.1024
11
18.4183
21
-64.15
0
LINE
8
BLACK
6
CONTINUOUS
10
18.4183
20
-64.15
11
18.3707
21
-64.1976
0
LINE
8
BLACK
6
CONTINUOUS
10
18.3707
20
-64.1976
11
18.3231
21
-64.2929
0
LINE
8
BLACK
6
CONTINUOUS
10
18.3231
20
-64.2929
11
18.3231
21
-64.531
0
LINE
8
BLACK
6
CONTINUOUS
10
18.3231
20
-64.531
11
18.3707
21
-64.6262
0
LINE
8
BLACK
6
CONTINUOUS
10
18.3707
20
-64.6262
11
18.4183
21
-64.6738
0
LINE
8
BLACK
6
CONTINUOUS
10
18.4183
20
-64.6738
11
18.5136
21
-64.7214
0
LINE
8
BLACK
6
CONTINUOUS
10
18.5136
20
-64.7214
11
18.704
21
-64.7214
0
LINE
8
BLACK
6
CONTINUOUS
10
18.704
20
-64.7214
11
18.7993
21
-64.6738
0
LINE
8
BLACK
6
CONTINUOUS
10
18.7993
20
-64.6738
11
18.8469
21
-64.6262
0
LINE
8
BLACK
6
CONTINUOUS
10
18.8469
20
-64.6262
11
18.8945
21
-64.531
0
LINE
8
BLACK
6
CONTINUOUS
10
19.7993
20
-64.1024
11
19.3231
21
-64.1024
0
LINE
8
BLACK
6
CONTINUOUS
10
19.3231
20
-64.1024
11
19.2755
21
-64.5786
0
LINE
8
BLACK
6
CONTINUOUS
10
19.2755
20
-64.5786
11
19.3231
21
-64.531
0
LINE
8
BLACK
6
CONTINUOUS
10
19.3231
20
-64.531
11
19.4183
21
-64.4833
0
LINE
8
BLACK
6
CONTINUOUS
10
19.4183
20
-64.4833
11
19.6564
21
-64.4833
0
LINE
8
BLACK
6
CONTINUOUS
10
19.6564
20
-64.4833
11
19.7517
21
-64.531
0
LINE
8
BLACK
6
CONTINUOUS
10
19.7517
20
-64.531
11
19.7993
21
-64.5786
0
LINE
8
BLACK
6
CONTINUOUS
10
19.7993
20
-64.5786
11
19.8469
21
-64.6738
0
LINE
8
BLACK
6
CONTINUOUS
10
19.8469
20
-64.6738
11
19.8469
21
-64.9119
0
LINE
8
BLACK
6
CONTINUOUS
10
19.8469
20
-64.9119
11
19.7993
21
-65.0071
0
LINE
8
BLACK
6
CONTINUOUS
10
19.7993
20
-65.0071
11
19.7517
21
-65.0548
0
LINE
8
BLACK
6
CONTINUOUS
10
19.7517
20
-65.0548
11
19.6564
21
-65.1024
0
LINE
8
BLACK
6
CONTINUOUS
10
19.6564
20
-65.1024
11
19.4183
21
-65.1024
0
LINE
8
BLACK
6
CONTINUOUS
10
19.4183
20
-65.1024
11
19.3231
21
-65.0548
0
LINE
8
BLACK
6
CONTINUOUS
10
19.3231
20
-65.0548
11
19.2755
21
-65.0071
0
LINE
8
BLACK
6
CONTINUOUS
10
20.466
20
-64.1024
11
20.5612
21
-64.1024
0
LINE
8
BLACK
6
CONTINUOUS
10
20.5612
20
-64.1024
11
20.6564
21
-64.15
0
LINE
8
BLACK
6
CONTINUOUS
10
20.6564
20
-64.15
11
20.704
21
-64.1976
0
LINE
8
BLACK
6
CONTINUOUS
10
20.704
20
-64.1976
11
20.7517
21
-64.2929
0
LINE
8
BLACK
6
CONTINUOUS
10
20.7517
20
-64.2929
11
20.7993
21
-64.4833
0
LINE
8
BLACK
6
CONTINUOUS
10
20.7993
20
-64.4833
11
20.7993
21
-64.7214
0
LINE
8
BLACK
6
CONTINUOUS
10
20.7993
20
-64.7214
11
20.7517
21
-64.9119
0
LINE
8
BLACK
6
CONTINUOUS
10
20.7517
20
-64.9119
11
20.704
21
-65.0071
0
LINE
8
BLACK
6
CONTINUOUS
10
20.704
20
-65.0071
11
20.6564
21
-65.0548
0
LINE
8
BLACK
6
CONTINUOUS
10
20.6564
20
-65.0548
11
20.5612
21
-65.1024
0
LINE
8
BLACK
6
CONTINUOUS
10
20.5612
20
-65.1024
11
20.466
21
-65.1024
0
LINE
8
BLACK
6
CONTINUOUS
10
20.466
20
-65.1024
11
20.3707
21
-65.0548
0
LINE
8
BLACK
6
CONTINUOUS
10
20.3707
20
-65.0548
11
20.3231
21
-65.0071
0
LINE
8
BLACK
6
CONTINUOUS
10
20.3231
20
-65.0071
11
20.2755
21
-64.9119
0
LINE
8
BLACK
6
CONTINUOUS
10
20.2755
20
-64.9119
11
20.2279
21
-64.7214
0
LINE
8
BLACK
6
CONTINUOUS
10
20.2279
20
-64.7214
11
20.2279
21
-64.4833
0
LINE
8
BLACK
6
CONTINUOUS
10
20.2279
20
-64.4833
11
20.2755
21
-64.2929
0
LINE
8
BLACK
6
CONTINUOUS
10
20.2755
20
-64.2929
11
20.3231
21
-64.1976
0
LINE
8
BLACK
6
CONTINUOUS
10
20.3231
20
-64.1976
11
20.3707
21
-64.15
0
LINE
8
BLACK
6
CONTINUOUS
10
20.3707
20
-64.15
11
20.466
21
-64.1024
0
LINE
8
BLACK
6
CONTINUOUS
10
21.9898
20
-65.1024
11
21.9898
21
-64.4357
0
LINE
8
BLACK
6
CONTINUOUS
10
21.9898
20
-64.531
11
22.0374
21
-64.4833
0
LINE
8
BLACK
6
CONTINUOUS
10
22.0374
20
-64.4833
11
22.1326
21
-64.4357
0
LINE
8
BLACK
6
CONTINUOUS
10
22.1326
20
-64.4357
11
22.2755
21
-64.4357
0
LINE
8
BLACK
6
CONTINUOUS
10
22.2755
20
-64.4357
11
22.3707
21
-64.4833
0
LINE
8
BLACK
6
CONTINUOUS
10
22.3707
20
-64.4833
11
22.4183
21
-64.5786
0
LINE
8
BLACK
6
CONTINUOUS
10
22.4183
20
-64.5786
11
22.4183
21
-65.1024
0
LINE
8
BLACK
6
CONTINUOUS
10
22.4183
20
-64.5786
11
22.466
21
-64.4833
0
LINE
8
BLACK
6
CONTINUOUS
10
22.466
20
-64.4833
11
22.5612
21
-64.4357
0
LINE
8
BLACK
6
CONTINUOUS
10
22.5612
20
-64.4357
11
22.704
21
-64.4357
0
LINE
8
BLACK
6
CONTINUOUS
10
22.704
20
-64.4357
11
22.7993
21
-64.4833
0
LINE
8
BLACK
6
CONTINUOUS
10
22.7993
20
-64.4833
11
22.8469
21
-64.5786
0
LINE
8
BLACK
6
CONTINUOUS
10
22.8469
20
-64.5786
11
22.8469
21
-65.1024
0
LINE
8
BLACK
6
CONTINUOUS
10
23.3231
20
-65.1024
11
23.3231
21
-64.4357
0
LINE
8
BLACK
6
CONTINUOUS
10
23.3231
20
-64.531
11
23.3707
21
-64.4833
0
LINE
8
BLACK
6
CONTINUOUS
10
23.3707
20
-64.4833
11
23.466
21
-64.4357
0
LINE
8
BLACK
6
CONTINUOUS
10
23.466
20
-64.4357
11
23.6088
21
-64.4357
0
LINE
8
BLACK
6
CONTINUOUS
10
23.6088
20
-64.4357
11
23.704
21
-64.4833
0
LINE
8
BLACK
6
CONTINUOUS
10
23.704
20
-64.4833
11
23.7517
21
-64.5786
0
LINE
8
BLACK
6
CONTINUOUS
10
23.7517
20
-64.5786
11
23.7517
21
-65.1024
0
LINE
8
BLACK
6
CONTINUOUS
10
23.7517
20
-64.5786
11
23.7993
21
-64.4833
0
LINE
8
BLACK
6
CONTINUOUS
10
23.7993
20
-64.4833
11
23.8945
21
-64.4357
0
LINE
8
BLACK
6
CONTINUOUS
10
23.8945
20
-64.4357
11
24.0374
21
-64.4357
0
LINE
8
BLACK
6
CONTINUOUS
10
24.0374
20
-64.4357
11
24.1326
21
-64.4833
0
LINE
8
BLACK
6
CONTINUOUS
10
24.1326
20
-64.4833
11
24.1802
21
-64.5786
0
LINE
8
BLACK
6
CONTINUOUS
10
24.1802
20
-64.5786
11
24.1802
21
-65.1024
0
LINE
8
BLACK
6
CONTINUOUS
10
7.11
20
-63.45
11
33.06
21
-63.45
0
LINE
8
BLACK
6
CONTINUOUS
10
7.11
20
-61.8725
11
7.11
21
-64.0364
0
LINE
8
BLACK
6
CONTINUOUS
10
33.06
20
-61.8725
11
33.06
21
-64.0364
0
LINE
8
BLACK
6
CONTINUOUS
10
33.06
20
-63.45
11
31.9335
21
-64.0364
0
LINE
8
BLACK
6
CONTINUOUS
10
33.06
20
-63.45
11
31.9335
21
-62.8636
0
LINE
8
BLACK
6
CONTINUOUS
10
7.11
20
-63.45
11
8.2365
21
-64.0364
0
LINE
8
BLACK
6
CONTINUOUS
10
7.11
20
-63.45
11
8.2365
21
-62.8636
0
LINE
8
BLACK
6
CONTINUOUS
10
2.22762
20
-49.0811
11
2.22762
21
-48.5096
0
LINE
8
BLACK
6
CONTINUOUS
10
2.22762
20
-48.7954
11
3.22762
21
-48.7954
0
LINE
8
BLACK
6
CONTINUOUS
10
3.22762
20
-48.7954
11
3.08476
21
-48.7001
0
LINE
8
BLACK
6
CONTINUOUS
10
3.08476
20
-48.7001
11
2.98952
21
-48.6049
0
LINE
8
BLACK
6
CONTINUOUS
10
2.98952
20
-48.6049
11
2.9419
21
-48.5096
0
LINE
8
BLACK
6
CONTINUOUS
10
3.22762
20
-49.4144
11
3.22762
21
-50.0811
0
LINE
8
BLACK
6
CONTINUOUS
10
3.22762
20
-50.0811
11
2.22762
21
-49.6525
0
LINE
8
BLACK
6
CONTINUOUS
10
2.32286
20
-50.462
11
2.27524
21
-50.5096
0
LINE
8
BLACK
6
CONTINUOUS
10
2.27524
20
-50.5096
11
2.22762
21
-50.462
0
LINE
8
BLACK
6
CONTINUOUS
10
2.22762
20
-50.462
11
2.27524
21
-50.4144
0
LINE
8
BLACK
6
CONTINUOUS
10
2.27524
20
-50.4144
11
2.32286
21
-50.462
0
LINE
8
BLACK
6
CONTINUOUS
10
2.32286
20
-50.462
11
2.22762
21
-50.462
0
LINE
8
BLACK
6
CONTINUOUS
10
3.22762
20
-51.4144
11
3.22762
21
-50.9382
0
LINE
8
BLACK
6
CONTINUOUS
10
3.22762
20
-50.9382
11
2.75143
21
-50.8906
0
LINE
8
BLACK
6
CONTINUOUS
10
2.75143
20
-50.8906
11
2.79905
21
-50.9382
0
LINE
8
BLACK
6
CONTINUOUS
10
2.79905
20
-50.9382
11
2.84667
21
-51.0335
0
LINE
8
BLACK
6
CONTINUOUS
10
2.84667
20
-51.0335
11
2.84667
21
-51.2715
0
LINE
8
BLACK
6
CONTINUOUS
10
2.84667
20
-51.2715
11
2.79905
21
-51.3668
0
LINE
8
BLACK
6
CONTINUOUS
10
2.79905
20
-51.3668
11
2.75143
21
-51.4144
0
LINE
8
BLACK
6
CONTINUOUS
10
2.75143
20
-51.4144
11
2.65619
21
-51.462
0
LINE
8
BLACK
6
CONTINUOUS
10
2.65619
20
-51.462
11
2.4181
21
-51.462
0
LINE
8
BLACK
6
CONTINUOUS
10
2.4181
20
-51.462
11
2.32286
21
-51.4144
0
LINE
8
BLACK
6
CONTINUOUS
10
2.32286
20
-51.4144
11
2.27524
21
-51.3668
0
LINE
8
BLACK
6
CONTINUOUS
10
2.27524
20
-51.3668
11
2.22762
21
-51.2715
0
LINE
8
BLACK
6
CONTINUOUS
10
2.22762
20
-51.2715
11
2.22762
21
-51.0335
0
LINE
8
BLACK
6
CONTINUOUS
10
2.22762
20
-51.0335
11
2.27524
21
-50.9382
0
LINE
8
BLACK
6
CONTINUOUS
10
2.27524
20
-50.9382
11
2.32286
21
-50.8906
0
LINE
8
BLACK
6
CONTINUOUS
10
3.22762
20
-52.3668
11
3.22762
21
-51.8906
0
LINE
8
BLACK
6
CONTINUOUS
10
3.22762
20
-51.8906
11
2.75143
21
-51.843
0
LINE
8
BLACK
6
CONTINUOUS
10
2.75143
20
-51.843
11
2.79905
21
-51.8906
0
LINE
8
BLACK
6
CONTINUOUS
10
2.79905
20
-51.8906
11
2.84667
21
-51.9858
0
LINE
8
BLACK
6
CONTINUOUS
10
2.84667
20
-51.9858
11
2.84667
21
-52.2239
0
LINE
8
BLACK
6
CONTINUOUS
10
2.84667
20
-52.2239
11
2.79905
21
-52.3192
0
LINE
8
BLACK
6
CONTINUOUS
10
2.79905
20
-52.3192
11
2.75143
21
-52.3668
0
LINE
8
BLACK
6
CONTINUOUS
10
2.75143
20
-52.3668
11
2.65619
21
-52.4144
0
LINE
8
BLACK
6
CONTINUOUS
10
2.65619
20
-52.4144
11
2.4181
21
-52.4144
0
LINE
8
BLACK
6
CONTINUOUS
10
2.4181
20
-52.4144
11
2.32286
21
-52.3668
0
LINE
8
BLACK
6
CONTINUOUS
10
2.32286
20
-52.3668
11
2.27524
21
-52.3192
0
LINE
8
BLACK
6
CONTINUOUS
10
2.27524
20
-52.3192
11
2.22762
21
-52.2239
0
LINE
8
BLACK
6
CONTINUOUS
10
2.22762
20
-52.2239
11
2.22762
21
-51.9858
0
LINE
8
BLACK
6
CONTINUOUS
10
2.22762
20
-51.9858
11
2.27524
21
-51.8906
0
LINE
8
BLACK
6
CONTINUOUS
10
2.27524
20
-51.8906
11
2.32286
21
-51.843
0
LINE
8
BLACK
6
CONTINUOUS
10
3.22762
20
-53.0335
11
3.22762
21
-53.1287
0
LINE
8
BLACK
6
CONTINUOUS
10
3.22762
20
-53.1287
11
3.18
21
-53.2239
0
LINE
8
BLACK
6
CONTINUOUS
10
3.18
20
-53.2239
11
3.13238
21
-53.2715
0
LINE
8
BLACK
6
CONTINUOUS
10
3.13238
20
-53.2715
11
3.03714
21
-53.3192
0
LINE
8
BLACK
6
CONTINUOUS
10
3.03714
20
-53.3192
11
2.84667
21
-53.3668
0
LINE
8
BLACK
6
CONTINUOUS
10
2.84667
20
-53.3668
11
2.60857
21
-53.3668
0
LINE
8
BLACK
6
CONTINUOUS
10
2.60857
20
-53.3668
11
2.4181
21
-53.3192
0
LINE
8
BLACK
6
CONTINUOUS
10
2.4181
20
-53.3192
11
2.32286
21
-53.2715
0
LINE
8
BLACK
6
CONTINUOUS
10
2.32286
20
-53.2715
11
2.27524
21
-53.2239
0
LINE
8
BLACK
6
CONTINUOUS
10
2.27524
20
-53.2239
11
2.22762
21
-53.1287
0
LINE
8
BLACK
6
CONTINUOUS
10
2.22762
20
-53.1287
11
2.22762
21
-53.0335
0
LINE
8
BLACK
6
CONTINUOUS
10
2.22762
20
-53.0335
11
2.27524
21
-52.9382
0
LINE
8
BLACK
6
CONTINUOUS
10
2.27524
20
-52.9382
11
2.32286
21
-52.8906
0
LINE
8
BLACK
6
CONTINUOUS
10
2.32286
20
-52.8906
11
2.4181
21
-52.843
0
LINE
8
BLACK
6
CONTINUOUS
10
2.4181
20
-52.843
11
2.60857
21
-52.7954
0
LINE
8
BLACK
6
CONTINUOUS
10
2.60857
20
-52.7954
11
2.84667
21
-52.7954
0
LINE
8
BLACK
6
CONTINUOUS
10
2.84667
20
-52.7954
11
3.03714
21
-52.843
0
LINE
8
BLACK
6
CONTINUOUS
10
3.03714
20
-52.843
11
3.13238
21
-52.8906
0
LINE
8
BLACK
6
CONTINUOUS
10
3.13238
20
-52.8906
11
3.18
21
-52.9382
0
LINE
8
BLACK
6
CONTINUOUS
10
3.18
20
-52.9382
11
3.22762
21
-53.0335
0
LINE
8
BLACK
6
CONTINUOUS
10
2.22762
20
-54.5573
11
2.89428
21
-54.5573
0
LINE
8
BLACK
6
CONTINUOUS
10
2.79905
20
-54.5573
11
2.84667
21
-54.6049
0
LINE
8
BLACK
6
CONTINUOUS
10
2.84667
20
-54.6049
11
2.89428
21
-54.7001
0
LINE
8
BLACK
6
CONTINUOUS
10
2.89428
20
-54.7001
11
2.89428
21
-54.843
0
LINE
8
BLACK
6
CONTINUOUS
10
2.89428
20
-54.843
11
2.84667
21
-54.9382
0
LINE
8
BLACK
6
CONTINUOUS
10
2.84667
20
-54.9382
11
2.75143
21
-54.9858
0
LINE
8
BLACK
6
CONTINUOUS
10
2.75143
20
-54.9858
11
2.22762
21
-54.9858
0
LINE
8
BLACK
6
CONTINUOUS
10
2.75143
20
-54.9858
11
2.84667
21
-55.0335
0
LINE
8
BLACK
6
CONTINUOUS
10
2.84667
20
-55.0335
11
2.89428
21
-55.1287
0
LINE
8
BLACK
6
CONTINUOUS
10
2.89428
20
-55.1287
11
2.89428
21
-55.2715
0
LINE
8
BLACK
6
CONTINUOUS
10
2.89428
20
-55.2715
11
2.84667
21
-55.3668
0
LINE
8
BLACK
6
CONTINUOUS
10
2.84667
20
-55.3668
11
2.75143
21
-55.4144
0
LINE
8
BLACK
6
CONTINUOUS
10
2.75143
20
-55.4144
11
2.22762
21
-55.4144
0
LINE
8
BLACK
6
CONTINUOUS
10
2.22762
20
-55.8906
11
2.89428
21
-55.8906
0
LINE
8
BLACK
6
CONTINUOUS
10
2.79905
20
-55.8906
11
2.84667
21
-55.9382
0
LINE
8
BLACK
6
CONTINUOUS
10
2.84667
20
-55.9382
11
2.89428
21
-56.0335
0
LINE
8
BLACK
6
CONTINUOUS
10
2.89428
20
-56.0335
11
2.89428
21
-56.1763
0
LINE
8
BLACK
6
CONTINUOUS
10
2.89428
20
-56.1763
11
2.84667
21
-56.2715
0
LINE
8
BLACK
6
CONTINUOUS
10
2.84667
20
-56.2715
11
2.75143
21
-56.3192
0
LINE
8
BLACK
6
CONTINUOUS
10
2.75143
20
-56.3192
11
2.22762
21
-56.3192
0
LINE
8
BLACK
6
CONTINUOUS
10
2.75143
20
-56.3192
11
2.84667
21
-56.3668
0
LINE
8
BLACK
6
CONTINUOUS
10
2.84667
20
-56.3668
11
2.89428
21
-56.462
0
LINE
8
BLACK
6
CONTINUOUS
10
2.89428
20
-56.462
11
2.89428
21
-56.6049
0
LINE
8
BLACK
6
CONTINUOUS
10
2.89428
20
-56.6049
11
2.84667
21
-56.7001
0
LINE
8
BLACK
6
CONTINUOUS
10
2.84667
20
-56.7001
11
2.75143
21
-56.7477
0
LINE
8
BLACK
6
CONTINUOUS
10
2.75143
20
-56.7477
11
2.22762
21
-56.7477
0
LINE
8
BLACK
6
CONTINUOUS
10
3.88
20
-43.8775
11
3.88
21
-61.4275
0
LINE
8
BLACK
6
CONTINUOUS
10
5.11
20
-43.8775
11
3.29358
21
-43.8775
0
LINE
8
BLACK
6
CONTINUOUS
10
5.11
20
-61.4275
11
3.29358
21
-61.4275
0
LINE
8
BLACK
6
CONTINUOUS
10
3.88
20
-61.4275
11
3.29358
21
-60.301
0
LINE
8
BLACK
6
CONTINUOUS
10
3.88
20
-61.4275
11
4.46642
21
-60.301
0
LINE
8
BLACK
6
CONTINUOUS
10
3.88
20
-43.8775
11
3.29358
21
-45.004
0
LINE
8
BLACK
6
CONTINUOUS
10
3.88
20
-43.8775
11
4.46642
21
-45.004
0
LINE
8
BLACK
6
CONTINUOUS
10
0.37238
20
-13.5726
11
0.37238
21
-14.144
0
LINE
8
BLACK
6
CONTINUOUS
10
0.37238
20
-13.8583
11
-0.627619
21
-13.8583
0
LINE
8
BLACK
6
CONTINUOUS
10
-0.627619
20
-13.8583
11
-0.484761
21
-13.9536
0
LINE
8
BLACK
6
CONTINUOUS
10
-0.484761
20
-13.9536
11
-0.389523
21
-14.0488
0
LINE
8
BLACK
6
CONTINUOUS
10
-0.389523
20
-14.0488
11
-0.341904
21
-14.144
0
LINE
8
BLACK
6
CONTINUOUS
10
-0.627619
20
-12.9536
11
-0.627619
21
-12.8583
0
LINE
8
BLACK
6
CONTINUOUS
10
-0.627619
20
-12.8583
11
-0.58
21
-12.7631
0
LINE
8
BLACK
6
CONTINUOUS
10
-0.58
20
-12.7631
11
-0.53238
21
-12.7155
0
LINE
8
BLACK
6
CONTINUOUS
10
-0.53238
20
-12.7155
11
-0.437142
21
-12.6679
0
LINE
8
BLACK
6
CONTINUOUS
10
-0.437142
20
-12.6679
11
-0.246666
21
-12.6202
0
LINE
8
BLACK
6
CONTINUOUS
10
-0.246666
20
-12.6202
11
-0.008571
21
-12.6202
0
LINE
8
BLACK
6
CONTINUOUS
10
-0.008571
20
-12.6202
11
0.181904
21
-12.6679
0
LINE
8
BLACK
6
CONTINUOUS
10
0.181904
20
-12.6679
11
0.277142
21
-12.7155
0
LINE
8
BLACK
6
CONTINUOUS
10
0.277142
20
-12.7155
11
0.324761
21
-12.7631
0
LINE
8
BLACK
6
CONTINUOUS
10
0.324761
20
-12.7631
11
0.37238
21
-12.8583
0
LINE
8
BLACK
6
CONTINUOUS
10
0.37238
20
-12.8583
11
0.37238
21
-12.9536
0
LINE
8
BLACK
6
CONTINUOUS
10
0.37238
20
-12.9536
11
0.324761
21
-13.0488
0
LINE
8
BLACK
6
CONTINUOUS
10
0.324761
20
-13.0488
11
0.277142
21
-13.0964
0
LINE
8
BLACK
6
CONTINUOUS
10
0.277142
20
-13.0964
11
0.181904
21
-13.144
0
LINE
8
BLACK
6
CONTINUOUS
10
0.181904
20
-13.144
11
-0.008571
21
-13.1917
0
LINE
8
BLACK
6
CONTINUOUS
10
-0.008571
20
-13.1917
11
-0.246666
21
-13.1917
0
LINE
8
BLACK
6
CONTINUOUS
10
-0.246666
20
-13.1917
11
-0.437142
21
-13.144
0
LINE
8
BLACK
6
CONTINUOUS
10
-0.437142
20
-13.144
11
-0.53238
21
-13.0964
0
LINE
8
BLACK
6
CONTINUOUS
10
-0.53238
20
-13.0964
11
-0.58
21
-13.0488
0
LINE
8
BLACK
6
CONTINUOUS
10
-0.58
20
-13.0488
11
-0.627619
21
-12.9536
0
LINE
8
BLACK
6
CONTINUOUS
10
-0.627619
20
-12.2869
11
-0.627619
21
-11.6679
0
LINE
8
BLACK
6
CONTINUOUS
10
-0.627619
20
-11.6679
11
-0.246666
21
-12.0012
0
LINE
8
BLACK
6
CONTINUOUS
10
-0.246666
20
-12.0012
11
-0.246666
21
-11.8583
0
LINE
8
BLACK
6
CONTINUOUS
10
-0.246666
20
-11.8583
11
-0.199047
21
-11.7631
0
LINE
8
BLACK
6
CONTINUOUS
10
-0.199047
20
-11.7631
11
-0.151428
21
-11.7155
0
LINE
8
BLACK
6
CONTINUOUS
10
-0.151428
20
-11.7155
11
-0.05619
21
-11.6679
0
LINE
8
BLACK
6
CONTINUOUS
10
-0.05619
20
-11.6679
11
0.181904
21
-11.6679
0
LINE
8
BLACK
6
CONTINUOUS
10
0.181904
20
-11.6679
11
0.277142
21
-11.7155
0
LINE
8
BLACK
6
CONTINUOUS
10
0.277142
20
-11.7155
11
0.324761
21
-11.7631
0
LINE
8
BLACK
6
CONTINUOUS
10
0.324761
20
-11.7631
11
0.37238
21
-11.8583
0
LINE
8
BLACK
6
CONTINUOUS
10
0.37238
20
-11.8583
11
0.37238
21
-12.144
0
LINE
8
BLACK
6
CONTINUOUS
10
0.37238
20
-12.144
11
0.324761
21
-12.2393
0
LINE
8
BLACK
6
CONTINUOUS
10
0.324761
20
-12.2393
11
0.277142
21
-12.2869
0
LINE
8
BLACK
6
CONTINUOUS
10
0.277142
20
-11.2393
11
0.324761
21
-11.1917
0
LINE
8
BLACK
6
CONTINUOUS
10
0.324761
20
-11.1917
11
0.37238
21
-11.2393
0
LINE
8
BLACK
6
CONTINUOUS
10
0.37238
20
-11.2393
11
0.324761
21
-11.2869
0
LINE
8
BLACK
6
CONTINUOUS
10
0.324761
20
-11.2869
11
0.277142
21
-11.2393
0
LINE
8
BLACK
6
CONTINUOUS
10
0.277142
20
-11.2393
11
0.37238
21
-11.2393
0
LINE
8
BLACK
6
CONTINUOUS
10
-0.199047
20
-10.6202
11
-0.246666
21
-10.7155
0
LINE
8
BLACK
6
CONTINUOUS
10
-0.246666
20
-10.7155
11
-0.294285
21
-10.7631
0
LINE
8
BLACK
6
CONTINUOUS
10
-0.294285
20
-10.7631
11
-0.389523
21
-10.8107
0
LINE
8
BLACK
6
CONTINUOUS
10
-0.389523
20
-10.8107
11
-0.437142
21
-10.8107
0
LINE
8
BLACK
6
CONTINUOUS
10
-0.437142
20
-10.8107
11
-0.53238
21
-10.7631
0
LINE
8
BLACK
6
CONTINUOUS
10
-0.53238
20
-10.7631
11
-0.58
21
-10.7155
0
LINE
8
BLACK
6
CONTINUOUS
10
-0.58
20
-10.7155
11
-0.627619
21
-10.6202
0
LINE
8
BLACK
6
CONTINUOUS
10
-0.627619
20
-10.6202
11
-0.627619
21
-10.4298
0
LINE
8
BLACK
6
CONTINUOUS
10
-0.627619
20
-10.4298
11
-0.58
21
-10.3345
0
LINE
8
BLACK
6
CONTINUOUS
10
-0.58
20
-10.3345
11
-0.53238
21
-10.2869
0
LINE
8
BLACK
6
CONTINUOUS
10
-0.53238
20
-10.2869
11
-0.437142
21
-10.2393
0
LINE
8
BLACK
6
CONTINUOUS
10
-0.437142
20
-10.2393
11
-0.389523
21
-10.2393
0
LINE
8
BLACK
6
CONTINUOUS
10
-0.389523
20
-10.2393
11
-0.294285
21
-10.2869
0
LINE
8
BLACK
6
CONTINUOUS
10
-0.294285
20
-10.2869
11
-0.246666
21
-10.3345
0
LINE
8
BLACK
6
CONTINUOUS
10
-0.246666
20
-10.3345
11
-0.199047
21
-10.4298
0
LINE
8
BLACK
6
CONTINUOUS
10
-0.199047
20
-10.4298
11
-0.199047
21
-10.6202
0
LINE
8
BLACK
6
CONTINUOUS
10
-0.199047
20
-10.6202
11
-0.151428
21
-10.7155
0
LINE
8
BLACK
6
CONTINUOUS
10
-0.151428
20
-10.7155
11
-0.103809
21
-10.7631
0
LINE
8
BLACK
6
CONTINUOUS
10
-0.103809
20
-10.7631
11
-0.008571
21
-10.8107
0
LINE
8
BLACK
6
CONTINUOUS
10
-0.008571
20
-10.8107
11
0.181904
21
-10.8107
0
LINE
8
BLACK
6
CONTINUOUS
10
0.181904
20
-10.8107
11
0.277142
21
-10.7631
0
LINE
8
BLACK
6
CONTINUOUS
10
0.277142
20
-10.7631
11
0.324761
21
-10.7155
0
LINE
8
BLACK
6
CONTINUOUS
10
0.324761
20
-10.7155
11
0.37238
21
-10.6202
0
LINE
8
BLACK
6
CONTINUOUS
10
0.37238
20
-10.6202
11
0.37238
21
-10.4298
0
LINE
8
BLACK
6
CONTINUOUS
10
0.37238
20
-10.4298
11
0.324761
21
-10.3345
0
LINE
8
BLACK
6
CONTINUOUS
10
0.324761
20
-10.3345
11
0.277142
21
-10.2869
0
LINE
8
BLACK
6
CONTINUOUS
10
0.277142
20
-10.2869
11
0.181904
21
-10.2393
0
LINE
8
BLACK
6
CONTINUOUS
10
0.181904
20
-10.2393
11
-0.008571
21
-10.2393
0
LINE
8
BLACK
6
CONTINUOUS
10
-0.008571
20
-10.2393
11
-0.103809
21
-10.2869
0
LINE
8
BLACK
6
CONTINUOUS
10
-0.103809
20
-10.2869
11
-0.151428
21
-10.3345
0
LINE
8
BLACK
6
CONTINUOUS
10
-0.151428
20
-10.3345
11
-0.199047
21
-10.4298
0
LINE
8
BLACK
6
CONTINUOUS
10
-0.627619
20
-9.62024
11
-0.627619
21
-9.525
0
LINE
8
BLACK
6
CONTINUOUS
10
-0.627619
20
-9.525
11
-0.58
21
-9.42976
0
LINE
8
BLACK
6
CONTINUOUS
10
-0.58
20
-9.42976
11
-0.53238
21
-9.38214
0
LINE
8
BLACK
6
CONTINUOUS
10
-0.53238
20
-9.38214
11
-0.437142
21
-9.33452
0
LINE
8
BLACK
6
CONTINUOUS
10
-0.437142
20
-9.33452
11
-0.246666
21
-9.2869
0
LINE
8
BLACK
6
CONTINUOUS
10
-0.246666
20
-9.2869
11
-0.008571
21
-9.2869
0
LINE
8
BLACK
6
CONTINUOUS
10
-0.008571
20
-9.2869
11
0.181904
21
-9.33452
0
LINE
8
BLACK
6
CONTINUOUS
10
0.181904
20
-9.33452
11
0.277142
21
-9.38214
0
LINE
8
BLACK
6
CONTINUOUS
10
0.277142
20
-9.38214
11
0.324761
21
-9.42976
0
LINE
8
BLACK
6
CONTINUOUS
10
0.324761
20
-9.42976
11
0.37238
21
-9.525
0
LINE
8
BLACK
6
CONTINUOUS
10
0.37238
20
-9.525
11
0.37238
21
-9.62024
0
LINE
8
BLACK
6
CONTINUOUS
10
0.37238
20
-9.62024
11
0.324761
21
-9.71548
0
LINE
8
BLACK
6
CONTINUOUS
10
0.324761
20
-9.71548
11
0.277142
21
-9.76309
0
LINE
8
BLACK
6
CONTINUOUS
10
0.277142
20
-9.76309
11
0.181904
21
-9.81071
0
LINE
8
BLACK
6
CONTINUOUS
10
0.181904
20
-9.81071
11
-0.008571
21
-9.85833
0
LINE
8
BLACK
6
CONTINUOUS
10
-0.008571
20
-9.85833
11
-0.246666
21
-9.85833
0
LINE
8
BLACK
6
CONTINUOUS
10
-0.246666
20
-9.85833
11
-0.437142
21
-9.81071
0
LINE
8
BLACK
6
CONTINUOUS
10
-0.437142
20
-9.81071
11
-0.53238
21
-9.76309
0
LINE
8
BLACK
6
CONTINUOUS
10
-0.53238
20
-9.76309
11
-0.58
21
-9.71548
0
LINE
8
BLACK
6
CONTINUOUS
10
-0.58
20
-9.71548
11
-0.627619
21
-9.62024
0
LINE
8
BLACK
6
CONTINUOUS
10
-0.627619
20
-8.38214
11
-0.627619
21
-8.85833
0
LINE
8
BLACK
6
CONTINUOUS
10
-0.627619
20
-8.85833
11
-0.151428
21
-8.90595
0
LINE
8
BLACK
6
CONTINUOUS
10
-0.151428
20
-8.90595
11
-0.199047
21
-8.85833
0
LINE
8
BLACK
6
CONTINUOUS
10
-0.199047
20
-8.85833
11
-0.246666
21
-8.76309
0
LINE
8
BLACK
6
CONTINUOUS
10
-0.246666
20
-8.76309
11
-0.246666
21
-8.525
0
LINE
8
BLACK
6
CONTINUOUS
10
-0.246666
20
-8.525
11
-0.199047
21
-8.42976
0
LINE
8
BLACK
6
CONTINUOUS
10
-0.199047
20
-8.42976
11
-0.151428
21
-8.38214
0
LINE
8
BLACK
6
CONTINUOUS
10
-0.151428
20
-8.38214
11
-0.05619
21
-8.33452
0
LINE
8
BLACK
6
CONTINUOUS
10
-0.05619
20
-8.33452
11
0.181904
21
-8.33452
0
LINE
8
BLACK
6
CONTINUOUS
10
0.181904
20
-8.33452
11
0.277142
21
-8.38214
0
LINE
8
BLACK
6
CONTINUOUS
10
0.277142
20
-8.38214
11
0.324761
21
-8.42976
0
LINE
8
BLACK
6
CONTINUOUS
10
0.324761
20
-8.42976
11
0.37238
21
-8.525
0
LINE
8
BLACK
6
CONTINUOUS
10
0.37238
20
-8.525
11
0.37238
21
-8.76309
0
LINE
8
BLACK
6
CONTINUOUS
10
0.37238
20
-8.76309
11
0.324761
21
-8.85833
0
LINE
8
BLACK
6
CONTINUOUS
10
0.324761
20
-8.85833
11
0.277142
21
-8.90595
0
LINE
8
BLACK
6
CONTINUOUS
10
0.37238
20
-7.14405
11
-0.294285
21
-7.14405
0
LINE
8
BLACK
6
CONTINUOUS
10
-0.199047
20
-7.14405
11
-0.246666
21
-7.09643
0
LINE
8
BLACK
6
CONTINUOUS
10
-0.246666
20
-7.09643
11
-0.294285
21
-7.00119
0
LINE
8
BLACK
6
CONTINUOUS
10
-0.294285
20
-7.00119
11
-0.294285
21
-6.85833
0
LINE
8
BLACK
6
CONTINUOUS
10
-0.294285
20
-6.85833
11
-0.246666
21
-6.76309
0
LINE
8
BLACK
6
CONTINUOUS
10
-0.246666
20
-6.76309
11
-0.151428
21
-6.71548
0
LINE
8
BLACK
6
CONTINUOUS
10
-0.151428
20
-6.71548
11
0.37238
21
-6.71548
0
LINE
8
BLACK
6
CONTINUOUS
10
-0.151428
20
-6.71548
11
-0.246666
21
-6.66786
0
LINE
8
BLACK
6
CONTINUOUS
10
-0.246666
20
-6.66786
11
-0.294285
21
-6.57262
0
LINE
8
BLACK
6
CONTINUOUS
10
-0.294285
20
-6.57262
11
-0.294285
21
-6.42976
0
LINE
8
BLACK
6
CONTINUOUS
10
-0.294285
20
-6.42976
11
-0.246666
21
-6.33452
0
LINE
8
BLACK
6
CONTINUOUS
10
-0.246666
20
-6.33452
11
-0.151428
21
-6.2869
0
LINE
8
BLACK
6
CONTINUOUS
10
-0.151428
20
-6.2869
11
0.37238
21
-6.2869
0
LINE
8
BLACK
6
CONTINUOUS
10
0.37238
20
-5.81071
11
-0.294285
21
-5.81071
0
LINE
8
BLACK
6
CONTINUOUS
10
-0.199047
20
-5.81071
11
-0.246666
21
-5.76309
0
LINE
8
BLACK
6
CONTINUOUS
10
-0.246666
20
-5.76309
11
-0.294285
21
-5.66786
0
LINE
8
BLACK
6
CONTINUOUS
10
-0.294285
20
-5.66786
11
-0.294285
21
-5.525
0
LINE
8
BLACK
6
CONTINUOUS
10
-0.294285
20
-5.525
11
-0.246666
21
-5.42976
0
LINE
8
BLACK
6
CONTINUOUS
10
-0.246666
20
-5.42976
11
-0.151428
21
-5.38214
0
LINE
8
BLACK
6
CONTINUOUS
10
-0.151428
20
-5.38214
11
0.37238
21
-5.38214
0
LINE
8
BLACK
6
CONTINUOUS
10
-0.151428
20
-5.38214
11
-0.246666
21
-5.33452
0
LINE
8
BLACK
6
CONTINUOUS
10
-0.246666
20
-5.33452
11
-0.294285
21
-5.23928
0
LINE
8
BLACK
6
CONTINUOUS
10
-0.294285
20
-5.23928
11
-0.294285
21
-5.09643
0
LINE
8
BLACK
6
CONTINUOUS
10
-0.294285
20
-5.09643
11
-0.246666
21
-5.00119
0
LINE
8
BLACK
6
CONTINUOUS
10
-0.246666
20
-5.00119
11
-0.151428
21
-4.95357
0
LINE
8
BLACK
6
CONTINUOUS
10
-0.151428
20
-4.95357
11
0.37238
21
-4.95357
0
LINE
8
BLACK
6
CONTINUOUS
10
1.12
20
-61.4275
11
1.12
21
42.3775
0
LINE
8
BLACK
6
CONTINUOUS
10
5.665
20
-61.4275
11
0.533579
21
-61.4275
0
LINE
8
BLACK
6
CONTINUOUS
10
5.665
20
42.3775
11
0.533579
21
42.3775
0
LINE
8
BLACK
6
CONTINUOUS
10
1.12
20
42.3775
11
1.70642
21
41.251
0
LINE
8
BLACK
6
CONTINUOUS
10
1.12
20
42.3775
11
0.533579
21
41.251
0
LINE
8
BLACK
6
CONTINUOUS
10
1.12
20
-61.4275
11
1.70642
21
-60.301
0
LINE
8
BLACK
6
CONTINUOUS
10
1.12
20
-61.4275
11
0.533579
21
-60.301
0
LINE
8
BLACK
6
CONTINUOUS
10
97.0224
20
45.8476
11
96.451
21
45.8476
0
LINE
8
BLACK
6
CONTINUOUS
10
96.7367
20
45.8476
11
96.7367
21
46.8476
0
LINE
8
BLACK
6
CONTINUOUS
10
96.7367
20
46.8476
11
96.6414
21
46.7048
0
LINE
8
BLACK
6
CONTINUOUS
10
96.6414
20
46.7048
11
96.5462
21
46.6095
0
LINE
8
BLACK
6
CONTINUOUS
10
96.5462
20
46.6095
11
96.451
21
46.5619
0
LINE
8
BLACK
6
CONTINUOUS
10
97.5938
20
46.419
11
97.4986
21
46.4667
0
LINE
8
BLACK
6
CONTINUOUS
10
97.4986
20
46.4667
11
97.451
21
46.5143
0
LINE
8
BLACK
6
CONTINUOUS
10
97.451
20
46.5143
11
97.4033
21
46.6095
0
LINE
8
BLACK
6
CONTINUOUS
10
97.4033
20
46.6095
11
97.4033
21
46.6571
0
LINE
8
BLACK
6
CONTINUOUS
10
97.4033
20
46.6571
11
97.451
21
46.7524
0
LINE
8
BLACK
6
CONTINUOUS
10
97.451
20
46.7524
11
97.4986
21
46.8
0
LINE
8
BLACK
6
CONTINUOUS
10
97.4986
20
46.8
11
97.5938
21
46.8476
0
LINE
8
BLACK
6
CONTINUOUS
10
97.5938
20
46.8476
11
97.7843
21
46.8476
0
LINE
8
BLACK
6
CONTINUOUS
10
97.7843
20
46.8476
11
97.8795
21
46.8
0
LINE
8
BLACK
6
CONTINUOUS
10
97.8795
20
46.8
11
97.9271
21
46.7524
0
LINE
8
BLACK
6
CONTINUOUS
10
97.9271
20
46.7524
11
97.9748
21
46.6571
0
LINE
8
BLACK
6
CONTINUOUS
10
97.9748
20
46.6571
11
97.9748
21
46.6095
0
LINE
8
BLACK
6
CONTINUOUS
10
97.9748
20
46.6095
11
97.9271
21
46.5143
0
LINE
8
BLACK
6
CONTINUOUS
10
97.9271
20
46.5143
11
97.8795
21
46.4667
0
LINE
8
BLACK
6
CONTINUOUS
10
97.8795
20
46.4667
11
97.7843
21
46.419
0
LINE
8
BLACK
6
CONTINUOUS
10
97.7843
20
46.419
11
97.5938
21
46.419
0
LINE
8
BLACK
6
CONTINUOUS
10
97.5938
20
46.419
11
97.4986
21
46.3714
0
LINE
8
BLACK
6
CONTINUOUS
10
97.4986
20
46.3714
11
97.451
21
46.3238
0
LINE
8
BLACK
6
CONTINUOUS
10
97.451
20
46.3238
11
97.4033
21
46.2286
0
LINE
8
BLACK
6
CONTINUOUS
10
97.4033
20
46.2286
11
97.4033
21
46.0381
0
LINE
8
BLACK
6
CONTINUOUS
10
97.4033
20
46.0381
11
97.451
21
45.9429
0
LINE
8
BLACK
6
CONTINUOUS
10
97.451
20
45.9429
11
97.4986
21
45.8952
0
LINE
8
BLACK
6
CONTINUOUS
10
97.4986
20
45.8952
11
97.5938
21
45.8476
0
LINE
8
BLACK
6
CONTINUOUS
10
97.5938
20
45.8476
11
97.7843
21
45.8476
0
LINE
8
BLACK
6
CONTINUOUS
10
97.7843
20
45.8476
11
97.8795
21
45.8952
0
LINE
8
BLACK
6
CONTINUOUS
10
97.8795
20
45.8952
11
97.9271
21
45.9429
0
LINE
8
BLACK
6
CONTINUOUS
10
97.9271
20
45.9429
11
97.9748
21
46.0381
0
LINE
8
BLACK
6
CONTINUOUS
10
97.9748
20
46.0381
11
97.9748
21
46.2286
0
LINE
8
BLACK
6
CONTINUOUS
10
97.9748
20
46.2286
11
97.9271
21
46.3238
0
LINE
8
BLACK
6
CONTINUOUS
10
97.9271
20
46.3238
11
97.8795
21
46.3714
0
LINE
8
BLACK
6
CONTINUOUS
10
97.8795
20
46.3714
11
97.7843
21
46.419
0
LINE
8
BLACK
6
CONTINUOUS
10
98.3081
20
46.8476
11
98.9748
21
46.8476
0
LINE
8
BLACK
6
CONTINUOUS
10
98.9748
20
46.8476
11
98.5462
21
45.8476
0
LINE
8
BLACK
6
CONTINUOUS
10
99.3557
20
45.9429
11
99.4033
21
45.8952
0
LINE
8
BLACK
6
CONTINUOUS
10
99.4033
20
45.8952
11
99.3557
21
45.8476
0
LINE
8
BLACK
6
CONTINUOUS
10
99.3557
20
45.8476
11
99.3081
21
45.8952
0
LINE
8
BLACK
6
CONTINUOUS
10
99.3081
20
45.8952
11
99.3557
21
45.9429
0
LINE
8
BLACK
6
CONTINUOUS
10
99.3557
20
45.9429
11
99.3557
21
45.8476
0
LINE
8
BLACK
6
CONTINUOUS
10
99.8795
20
45.8476
11
100.07
21
45.8476
0
LINE
8
BLACK
6
CONTINUOUS
10
100.07
20
45.8476
11
100.165
21
45.8952
0
LINE
8
BLACK
6
CONTINUOUS
10
100.165
20
45.8952
11
100.213
21
45.9429
0
LINE
8
BLACK
6
CONTINUOUS
10
100.213
20
45.9429
11
100.308
21
46.0857
0
LINE
8
BLACK
6
CONTINUOUS
10
100.308
20
46.0857
11
100.356
21
46.2762
0
LINE
8
BLACK
6
CONTINUOUS
10
100.356
20
46.2762
11
100.356
21
46.6571
0
LINE
8
BLACK
6
CONTINUOUS
10
100.356
20
46.6571
11
100.308
21
46.7524
0
LINE
8
BLACK
6
CONTINUOUS
10
100.308
20
46.7524
11
100.26
21
46.8
0
LINE
8
BLACK
6
CONTINUOUS
10
100.26
20
46.8
11
100.165
21
46.8476
0
LINE
8
BLACK
6
CONTINUOUS
10
100.165
20
46.8476
11
99.9748
21
46.8476
0
LINE
8
BLACK
6
CONTINUOUS
10
99.9748
20
46.8476
11
99.8795
21
46.8
0
LINE
8
BLACK
6
CONTINUOUS
10
99.8795
20
46.8
11
99.8319
21
46.7524
0
LINE
8
BLACK
6
CONTINUOUS
10
99.8319
20
46.7524
11
99.7843
21
46.6571
0
LINE
8
BLACK
6
CONTINUOUS
10
99.7843
20
46.6571
11
99.7843
21
46.419
0
LINE
8
BLACK
6
CONTINUOUS
10
99.7843
20
46.419
11
99.8319
21
46.3238
0
LINE
8
BLACK
6
CONTINUOUS
10
99.8319
20
46.3238
11
99.8795
21
46.2762
0
LINE
8
BLACK
6
CONTINUOUS
10
99.8795
20
46.2762
11
99.9748
21
46.2286
0
LINE
8
BLACK
6
CONTINUOUS
10
99.9748
20
46.2286
11
100.165
21
46.2286
0
LINE
8
BLACK
6
CONTINUOUS
10
100.165
20
46.2286
11
100.26
21
46.2762
0
LINE
8
BLACK
6
CONTINUOUS
10
100.26
20
46.2762
11
100.308
21
46.3238
0
LINE
8
BLACK
6
CONTINUOUS
10
100.308
20
46.3238
11
100.356
21
46.419
0
LINE
8
BLACK
6
CONTINUOUS
10
100.737
20
46.7524
11
100.784
21
46.8
0
LINE
8
BLACK
6
CONTINUOUS
10
100.784
20
46.8
11
100.88
21
46.8476
0
LINE
8
BLACK
6
CONTINUOUS
10
100.88
20
46.8476
11
101.118
21
46.8476
0
LINE
8
BLACK
6
CONTINUOUS
10
101.118
20
46.8476
11
101.213
21
46.8
0
LINE
8
BLACK
6
CONTINUOUS
10
101.213
20
46.8
11
101.26
21
46.7524
0
LINE
8
BLACK
6
CONTINUOUS
10
101.26
20
46.7524
11
101.308
21
46.6571
0
LINE
8
BLACK
6
CONTINUOUS
10
101.308
20
46.6571
11
101.308
21
46.5619
0
LINE
8
BLACK
6
CONTINUOUS
10
101.308
20
46.5619
11
101.26
21
46.419
0
LINE
8
BLACK
6
CONTINUOUS
10
101.26
20
46.419
11
100.689
21
45.8476
0
LINE
8
BLACK
6
CONTINUOUS
10
100.689
20
45.8476
11
101.308
21
45.8476
0
LINE
8
BLACK
6
CONTINUOUS
10
101.927
20
46.8476
11
102.022
21
46.8476
0
LINE
8
BLACK
6
CONTINUOUS
10
102.022
20
46.8476
11
102.118
21
46.8
0
LINE
8
BLACK
6
CONTINUOUS
10
102.118
20
46.8
11
102.165
21
46.7524
0
LINE
8
BLACK
6
CONTINUOUS
10
102.165
20
46.7524
11
102.213
21
46.6571
0
LINE
8
BLACK
6
CONTINUOUS
10
102.213
20
46.6571
11
102.26
21
46.4667
0
LINE
8
BLACK
6
CONTINUOUS
10
102.26
20
46.4667
11
102.26
21
46.2286
0
LINE
8
BLACK
6
CONTINUOUS
10
102.26
20
46.2286
11
102.213
21
46.0381
0
LINE
8
BLACK
6
CONTINUOUS
10
102.213
20
46.0381
11
102.165
21
45.9429
0
LINE
8
BLACK
6
CONTINUOUS
10
102.165
20
45.9429
11
102.118
21
45.8952
0
LINE
8
BLACK
6
CONTINUOUS
10
102.118
20
45.8952
11
102.022
21
45.8476
0
LINE
8
BLACK
6
CONTINUOUS
10
102.022
20
45.8476
11
101.927
21
45.8476
0
LINE
8
BLACK
6
CONTINUOUS
10
101.927
20
45.8476
11
101.832
21
45.8952
0
LINE
8
BLACK
6
CONTINUOUS
10
101.832
20
45.8952
11
101.784
21
45.9429
0
LINE
8
BLACK
6
CONTINUOUS
10
101.784
20
45.9429
11
101.737
21
46.0381
0
LINE
8
BLACK
6
CONTINUOUS
10
101.737
20
46.0381
11
101.689
21
46.2286
0
LINE
8
BLACK
6
CONTINUOUS
10
101.689
20
46.2286
11
101.689
21
46.4667
0
LINE
8
BLACK
6
CONTINUOUS
10
101.689
20
46.4667
11
101.737
21
46.6571
0
LINE
8
BLACK
6
CONTINUOUS
10
101.737
20
46.6571
11
101.784
21
46.7524
0
LINE
8
BLACK
6
CONTINUOUS
10
101.784
20
46.7524
11
101.832
21
46.8
0
LINE
8
BLACK
6
CONTINUOUS
10
101.832
20
46.8
11
101.927
21
46.8476
0
LINE
8
BLACK
6
CONTINUOUS
10
103.451
20
45.8476
11
103.451
21
46.5143
0
LINE
8
BLACK
6
CONTINUOUS
10
103.451
20
46.419
11
103.499
21
46.4667
0
LINE
8
BLACK
6
CONTINUOUS
10
103.499
20
46.4667
11
103.594
21
46.5143
0
LINE
8
BLACK
6
CONTINUOUS
10
103.594
20
46.5143
11
103.737
21
46.5143
0
LINE
8
BLACK
6
CONTINUOUS
10
103.737
20
46.5143
11
103.832
21
46.4667
0
LINE
8
BLACK
6
CONTINUOUS
10
103.832
20
46.4667
11
103.88
21
46.3714
0
LINE
8
BLACK
6
CONTINUOUS
10
103.88
20
46.3714
11
103.88
21
45.8476
0
LINE
8
BLACK
6
CONTINUOUS
10
103.88
20
46.3714
11
103.927
21
46.4667
0
LINE
8
BLACK
6
CONTINUOUS
10
103.927
20
46.4667
11
104.022
21
46.5143
0
LINE
8
BLACK
6
CONTINUOUS
10
104.022
20
46.5143
11
104.165
21
46.5143
0
LINE
8
BLACK
6
CONTINUOUS
10
104.165
20
46.5143
11
104.26
21
46.4667
0
LINE
8
BLACK
6
CONTINUOUS
10
104.26
20
46.4667
11
104.308
21
46.3714
0
LINE
8
BLACK
6
CONTINUOUS
10
104.308
20
46.3714
11
104.308
21
45.8476
0
LINE
8
BLACK
6
CONTINUOUS
10
104.784
20
45.8476
11
104.784
21
46.5143
0
LINE
8
BLACK
6
CONTINUOUS
10
104.784
20
46.419
11
104.832
21
46.4667
0
LINE
8
BLACK
6
CONTINUOUS
10
104.832
20
46.4667
11
104.927
21
46.5143
0
LINE
8
BLACK
6
CONTINUOUS
10
104.927
20
46.5143
11
105.07
21
46.5143
0
LINE
8
BLACK
6
CONTINUOUS
10
105.07
20
46.5143
11
105.165
21
46.4667
0
LINE
8
BLACK
6
CONTINUOUS
10
105.165
20
46.4667
11
105.213
21
46.3714
0
LINE
8
BLACK
6
CONTINUOUS
10
105.213
20
46.3714
11
105.213
21
45.8476
0
LINE
8
BLACK
6
CONTINUOUS
10
105.213
20
46.3714
11
105.26
21
46.4667
0
LINE
8
BLACK
6
CONTINUOUS
10
105.26
20
46.4667
11
105.356
21
46.5143
0
LINE
8
BLACK
6
CONTINUOUS
10
105.356
20
46.5143
11
105.499
21
46.5143
0
LINE
8
BLACK
6
CONTINUOUS
10
105.499
20
46.5143
11
105.594
21
46.4667
0
LINE
8
BLACK
6
CONTINUOUS
10
105.594
20
46.4667
11
105.641
21
46.3714
0
LINE
8
BLACK
6
CONTINUOUS
10
105.641
20
46.3714
11
105.641
21
45.8476
0
LINE
8
BLACK
6
CONTINUOUS
10
7.11
20
45.1
11
195.03
21
45.1
0
LINE
8
BLACK
6
CONTINUOUS
10
7.11
20
44.2325
11
7.11
21
45.6864
0
LINE
8
BLACK
6
CONTINUOUS
10
195.03
20
44.2325
11
195.03
21
45.6864
0
LINE
8
BLACK
6
CONTINUOUS
10
195.03
20
45.1
11
193.903
21
44.5136
0
LINE
8
BLACK
6
CONTINUOUS
10
195.03
20
45.1
11
193.903
21
45.6864
0
LINE
8
BLACK
6
CONTINUOUS
10
7.11
20
45.1
11
8.2365
21
44.5136
0
LINE
8
BLACK
6
CONTINUOUS
10
7.11
20
45.1
11
8.2365
21
45.6864
0
LINE
8
BLACK
6
CONTINUOUS
10
61.7725
20
-52.8725
11
168.525
21
-52.8725
0
LINE
8
BLACK
6
CONTINUOUS
10
61.7725
20
-52.8725
11
37.8675
21
-52.8725
0
LINE
8
BLACK
6
CONTINUOUS
10
14.025
20
-30.5975
11
7.11
21
-43.8775
0
ARC
8
BLACK
10
33.585
20
-53.3975
40
0.525856
50
93.2705
51
183.27
0
ARC
8
BLACK
10
32.535
20
-60.9025
40
0.525856
50
-86.7295
51
3.27049
0
ARC
8
BLACK
10
7.635
20
-60.9025
40
0.525856
50
-176.73
51
-86.7295
0
ARC
8
BLACK
10
168.555
20
-53.3975
40
0.525856
50
3.27049
51
93.2705
0
ARC
8
BLACK
10
169.605
20
-60.9025
40
0.525856
50
-176.73
51
-86.7295
0
ARC
8
BLACK
10
194.505
20
-60.9025
40
0.525856
50
-86.7295
51
3.27049
0
ARC
8
BLACK
10
194.505
20
41.8525
40
0.525
50
-0
51
90
0
LINE
8
BLACK
6
CONTINUOUS
10
195.03
20
-14.77
11
195.03
21
-60.8725
0
LINE
8
BLACK
6
CONTINUOUS
10
169.635
20
-61.4275
11
194.535
21
-61.4275
0
LINE
8
BLACK
6
CONTINUOUS
10
169.08
20
-60.9325
11
169.08
21
-53.3675
0
LINE
8
BLACK
6
CONTINUOUS
10
33.555
20
-52.8725
11
37.8675
21
-52.8725
0
LINE
8
BLACK
6
CONTINUOUS
10
33.06
20
-60.8725
11
33.06
21
-53.4275
0
LINE
8
BLACK
6
CONTINUOUS
10
7.665
20
-61.4275
11
32.565
21
-61.4275
0
LINE
8
BLACK
6
CONTINUOUS
10
7.11
20
-60.9325
11
7.11
21
-43.8775
0
LINE
8
BLACK
6
CONTINUOUS
10
195.03
20
41.8525
11
195.03
21
-14.77
0
LINE
8
BLACK
6
CONTINUOUS
10
194.505
20
42.3775
11
14.52
21
42.3775
0
ARC
8
BLACK
10
14.55
20
41.8525
40
0.525856
50
93.2705
51
183.27
0
LINE
8
BLACK
6
CONTINUOUS
10
14.025
20
41.8225
11
14.025
21
-30.5975
0
LINE
8
BLACK
6
CONTINUOUS
10
20.2545
20
-38.4686
11
20.3657
21
-38.4907
0
LINE
8
BLACK
6
CONTINUOUS
10
20.3657
20
-38.4907
11
20.5752
21
-38.5775
0
LINE
8
BLACK
6
CONTINUOUS
10
20.5752
20
-38.5775
11
20.7637
21
-38.7035
0
LINE
8
BLACK
6
CONTINUOUS
10
20.7637
20
-38.7035
11
20.924
21
-38.8638
0
LINE
8
BLACK
6
CONTINUOUS
10
20.924
20
-38.8638
11
21.05
21
-39.0523
0
LINE
8
BLACK
6
CONTINUOUS
10
21.05
20
-39.0523
11
21.1368
21
-39.2618
0
LINE
8
BLACK
6
CONTINUOUS
10
21.1368
20
-39.2618
11
21.181
21
-39.4841
0
LINE
8
BLACK
6
CONTINUOUS
10
21.181
20
-39.4841
11
21.181
21
-39.7109
0
LINE
8
BLACK
6
CONTINUOUS
10
21.181
20
-39.7109
11
21.1368
21
-39.9332
0
LINE
8
BLACK
6
CONTINUOUS
10
21.1368
20
-39.9332
11
21.05
21
-40.1427
0
LINE
8
BLACK
6
CONTINUOUS
10
21.05
20
-40.1427
11
20.924
21
-40.3312
0
LINE
8
BLACK
6
CONTINUOUS
10
20.924
20
-40.3312
11
20.7637
21
-40.4915
0
LINE
8
BLACK
6
CONTINUOUS
10
20.7637
20
-40.4915
11
20.5752
21
-40.6175
0
LINE
8
BLACK
6
CONTINUOUS
10
20.5752
20
-40.6175
11
20.3657
21
-40.7043
0
LINE
8
BLACK
6
CONTINUOUS
10
20.3657
20
-40.7043
11
20.2545
21
-40.7264
0
LINE
8
BLACK
6
CONTINUOUS
10
20.2545
20
-40.7264
11
20.1434
21
-40.7485
0
LINE
8
BLACK
6
CONTINUOUS
10
20.1434
20
-40.7485
11
19.9166
21
-40.7485
0
LINE
8
BLACK
6
CONTINUOUS
10
19.9166
20
-40.7485
11
19.8055
21
-40.7264
0
LINE
8
BLACK
6
CONTINUOUS
10
19.8055
20
-40.7264
11
19.6943
21
-40.7043
0
LINE
8
BLACK
6
CONTINUOUS
10
19.6943
20
-40.7043
11
19.4848
21
-40.6175
0
LINE
8
BLACK
6
CONTINUOUS
10
19.4848
20
-40.6175
11
19.2963
21
-40.4915
0
LINE
8
BLACK
6
CONTINUOUS
10
19.2963
20
-40.4915
11
19.136
21
-40.3312
0
LINE
8
BLACK
6
CONTINUOUS
10
19.136
20
-40.3312
11
19.01
21
-40.1427
0
LINE
8
BLACK
6
CONTINUOUS
10
19.01
20
-40.1427
11
18.9232
21
-39.9332
0
LINE
8
BLACK
6
CONTINUOUS
10
18.9232
20
-39.9332
11
18.879
21
-39.7109
0
LINE
8
BLACK
6
CONTINUOUS
10
18.879
20
-39.7109
11
18.879
21
-39.4841
0
LINE
8
BLACK
6
CONTINUOUS
10
18.879
20
-39.4841
11
18.9232
21
-39.2618
0
LINE
8
BLACK
6
CONTINUOUS
10
18.9232
20
-39.2618
11
19.01
21
-39.0523
0
LINE
8
BLACK
6
CONTINUOUS
10
19.01
20
-39.0523
11
19.136
21
-38.8638
0
LINE
8
BLACK
6
CONTINUOUS
10
19.136
20
-38.8638
11
19.2963
21
-38.7035
0
LINE
8
BLACK
6
CONTINUOUS
10
19.2963
20
-38.7035
11
19.4848
21
-38.5775
0
LINE
8
BLACK
6
CONTINUOUS
10
19.4848
20
-38.5775
11
19.6943
21
-38.4907
0
LINE
8
BLACK
6
CONTINUOUS
10
19.6943
20
-38.4907
11
19.8055
21
-38.4686
0
LINE
8
BLACK
6
CONTINUOUS
10
19.8055
20
-38.4686
11
19.9166
21
-38.4465
0
LINE
8
BLACK
6
CONTINUOUS
10
19.9166
20
-38.4465
11
20.1434
21
-38.4465
0
LINE
8
BLACK
6
CONTINUOUS
10
20.1434
20
-38.4465
11
20.2545
21
-38.4686
0
LINE
8
BLACK
6
CONTINUOUS
10
173.235
20
-32.2686
11
173.346
21
-32.2907
0
LINE
8
BLACK
6
CONTINUOUS
10
173.346
20
-32.2907
11
173.555
21
-32.3775
0
LINE
8
BLACK
6
CONTINUOUS
10
173.555
20
-32.3775
11
173.744
21
-32.5035
0
LINE
8
BLACK
6
CONTINUOUS
10
173.744
20
-32.5035
11
173.904
21
-32.6638
0
LINE
8
BLACK
6
CONTINUOUS
10
173.904
20
-32.6638
11
174.03
21
-32.8523
0
LINE
8
BLACK
6
CONTINUOUS
10
174.03
20
-32.8523
11
174.117
21
-33.0618
0
LINE
8
BLACK
6
CONTINUOUS
10
174.117
20
-33.0618
11
174.161
21
-33.2841
0
LINE
8
BLACK
6
CONTINUOUS
10
174.161
20
-33.2841
11
174.161
21
-33.5109
0
LINE
8
BLACK
6
CONTINUOUS
10
174.161
20
-33.5109
11
174.117
21
-33.7332
0
LINE
8
BLACK
6
CONTINUOUS
10
174.117
20
-33.7332
11
174.03
21
-33.9427
0
LINE
8
BLACK
6
CONTINUOUS
10
174.03
20
-33.9427
11
173.904
21
-34.1312
0
LINE
8
BLACK
6
CONTINUOUS
10
173.904
20
-34.1312
11
173.744
21
-34.2915
0
LINE
8
BLACK
6
CONTINUOUS
10
173.744
20
-34.2915
11
173.555
21
-34.4175
0
LINE
8
BLACK
6
CONTINUOUS
10
173.555
20
-34.4175
11
173.346
21
-34.5043
0
LINE
8
BLACK
6
CONTINUOUS
10
173.346
20
-34.5043
11
173.235
21
-34.5264
0
LINE
8
BLACK
6
CONTINUOUS
10
173.235
20
-34.5264
11
173.123
21
-34.5485
0
LINE
8
BLACK
6
CONTINUOUS
10
173.123
20
-34.5485
11
172.897
21
-34.5485
0
LINE
8
BLACK
6
CONTINUOUS
10
172.897
20
-34.5485
11
172.785
21
-34.5264
0
LINE
8
BLACK
6
CONTINUOUS
10
172.785
20
-34.5264
11
172.674
21
-34.5043
0
LINE
8
BLACK
6
CONTINUOUS
10
172.674
20
-34.5043
11
172.465
21
-34.4175
0
LINE
8
BLACK
6
CONTINUOUS
10
172.465
20
-34.4175
11
172.276
21
-34.2915
0
LINE
8
BLACK
6
CONTINUOUS
10
172.276
20
-34.2915
11
172.116
21
-34.1312
0
LINE
8
BLACK
6
CONTINUOUS
10
172.116
20
-34.1312
11
171.99
21
-33.9427
0
LINE
8
BLACK
6
CONTINUOUS
10
171.99
20
-33.9427
11
171.903
21
-33.7332
0
LINE
8
BLACK
6
CONTINUOUS
10
171.903
20
-33.7332
11
171.859
21
-33.5109
0
LINE
8
BLACK
6
CONTINUOUS
10
171.859
20
-33.5109
11
171.859
21
-33.2841
0
LINE
8
BLACK
6
CONTINUOUS
10
171.859
20
-33.2841
11
171.903
21
-33.0618
0
LINE
8
BLACK
6
CONTINUOUS
10
171.903
20
-33.0618
11
171.99
21
-32.8523
0
LINE
8
BLACK
6
CONTINUOUS
10
171.99
20
-32.8523
11
172.116
21
-32.6638
0
LINE
8
BLACK
6
CONTINUOUS
10
172.116
20
-32.6638
11
172.276
21
-32.5035
0
LINE
8
BLACK
6
CONTINUOUS
10
172.276
20
-32.5035
11
172.465
21
-32.3775
0
LINE
8
BLACK
6
CONTINUOUS
10
172.465
20
-32.3775
11
172.674
21
-32.2907
0
LINE
8
BLACK
6
CONTINUOUS
10
172.674
20
-32.2907
11
172.785
21
-32.2686
0
LINE
8
BLACK
6
CONTINUOUS
10
172.785
20
-32.2686
11
172.897
21
-32.2465
0
LINE
8
BLACK
6
CONTINUOUS
10
172.897
20
-32.2465
11
173.123
21
-32.2465
0
LINE
8
BLACK
6
CONTINUOUS
10
173.123
20
-32.2465
11
173.235
21
-32.2686
0
LINE
8
BLACK
6
CONTINUOUS
10
47.642
20
-32.2686
11
47.7532
21
-32.2907
0
LINE
8
BLACK
6
CONTINUOUS
10
47.7532
20
-32.2907
11
47.9627
21
-32.3775
0
LINE
8
BLACK
6
CONTINUOUS
10
47.9627
20
-32.3775
11
48.1512
21
-32.5035
0
LINE
8
BLACK
6
CONTINUOUS
10
48.1512
20
-32.5035
11
48.3115
21
-32.6638
0
LINE
8
BLACK
6
CONTINUOUS
10
48.3115
20
-32.6638
11
48.4375
21
-32.8523
0
LINE
8
BLACK
6
CONTINUOUS
10
48.4375
20
-32.8523
11
48.5243
21
-33.0618
0
LINE
8
BLACK
6
CONTINUOUS
10
48.5243
20
-33.0618
11
48.5685
21
-33.2841
0
LINE
8
BLACK
6
CONTINUOUS
10
48.5685
20
-33.2841
11
48.5685
21
-33.5109
0
LINE
8
BLACK
6
CONTINUOUS
10
48.5685
20
-33.5109
11
48.5243
21
-33.7332
0
LINE
8
BLACK
6
CONTINUOUS
10
48.5243
20
-33.7332
11
48.4375
21
-33.9427
0
LINE
8
BLACK
6
CONTINUOUS
10
48.4375
20
-33.9427
11
48.3115
21
-34.1312
0
LINE
8
BLACK
6
CONTINUOUS
10
48.3115
20
-34.1312
11
48.1512
21
-34.2915
0
LINE
8
BLACK
6
CONTINUOUS
10
48.1512
20
-34.2915
11
47.9627
21
-34.4175
0
LINE
8
BLACK
6
CONTINUOUS
10
47.9627
20
-34.4175
11
47.7532
21
-34.5043
0
LINE
8
BLACK
6
CONTINUOUS
10
47.7532
20
-34.5043
11
47.642
21
-34.5264
0
LINE
8
BLACK
6
CONTINUOUS
10
47.642
20
-34.5264
11
47.5309
21
-34.5485
0
LINE
8
BLACK
6
CONTINUOUS
10
47.5309
20
-34.5485
11
47.3041
21
-34.5485
0
LINE
8
BLACK
6
CONTINUOUS
10
47.3041
20
-34.5485
11
47.193
21
-34.5264
0
LINE
8
BLACK
6
CONTINUOUS
10
47.193
20
-34.5264
11
47.0818
21
-34.5043
0
LINE
8
BLACK
6
CONTINUOUS
10
47.0818
20
-34.5043
11
46.8723
21
-34.4175
0
LINE
8
BLACK
6
CONTINUOUS
10
46.8723
20
-34.4175
11
46.6838
21
-34.2915
0
LINE
8
BLACK
6
CONTINUOUS
10
46.6838
20
-34.2915
11
46.5235
21
-34.1312
0
LINE
8
BLACK
6
CONTINUOUS
10
46.5235
20
-34.1312
11
46.3975
21
-33.9427
0
LINE
8
BLACK
6
CONTINUOUS
10
46.3975
20
-33.9427
11
46.3107
21
-33.7332
0
LINE
8
BLACK
6
CONTINUOUS
10
46.3107
20
-33.7332
11
46.2665
21
-33.5109
0
LINE
8
BLACK
6
CONTINUOUS
10
46.2665
20
-33.5109
11
46.2665
21
-33.2841
0
LINE
8
BLACK
6
CONTINUOUS
10
46.2665
20
-33.2841
11
46.3107
21
-33.0618
0
LINE
8
BLACK
6
CONTINUOUS
10
46.3107
20
-33.0618
11
46.3975
21
-32.8523
0
LINE
8
BLACK
6
CONTINUOUS
10
46.3975
20
-32.8523
11
46.5235
21
-32.6638
0
LINE
8
BLACK
6
CONTINUOUS
10
46.5235
20
-32.6638
11
46.6838
21
-32.5035
0
LINE
8
BLACK
6
CONTINUOUS
10
46.6838
20
-32.5035
11
46.8723
21
-32.3775
0
LINE
8
BLACK
6
CONTINUOUS
10
46.8723
20
-32.3775
11
47.0818
21
-32.2907
0
LINE
8
BLACK
6
CONTINUOUS
10
47.0818
20
-32.2907
11
47.193
21
-32.2686
0
LINE
8
BLACK
6
CONTINUOUS
10
47.193
20
-32.2686
11
47.3041
21
-32.2465
0
LINE
8
BLACK
6
CONTINUOUS
10
47.3041
20
-32.2465
11
47.5309
21
-32.2465
0
LINE
8
BLACK
6
CONTINUOUS
10
47.5309
20
-32.2465
11
47.642
21
-32.2686
0
LINE
8
BLACK
6
CONTINUOUS
10
109.555
20
5.83138
11
109.666
21
5.80927
0
LINE
8
BLACK
6
CONTINUOUS
10
109.666
20
5.80927
11
109.875
21
5.7225
0
LINE
8
BLACK
6
CONTINUOUS
10
109.875
20
5.7225
11
110.064
21
5.59654
0
LINE
8
BLACK
6
CONTINUOUS
10
110.064
20
5.59654
11
110.224
21
5.43622
0
LINE
8
BLACK
6
CONTINUOUS
10
110.224
20
5.43622
11
110.35
21
5.2477
0
LINE
8
BLACK
6
CONTINUOUS
10
110.35
20
5.2477
11
110.437
21
5.03823
0
LINE
8
BLACK
6
CONTINUOUS
10
110.437
20
5.03823
11
110.481
21
4.81586
0
LINE
8
BLACK
6
CONTINUOUS
10
110.481
20
4.81586
11
110.481
21
4.58914
0
LINE
8
BLACK
6
CONTINUOUS
10
110.481
20
4.58914
11
110.437
21
4.36677
0
LINE
8
BLACK
6
CONTINUOUS
10
110.437
20
4.36677
11
110.35
21
4.1573
0
LINE
8
BLACK
6
CONTINUOUS
10
110.35
20
4.1573
11
110.224
21
3.96878
0
LINE
8
BLACK
6
CONTINUOUS
10
110.224
20
3.96878
11
110.064
21
3.80846
0
LINE
8
BLACK
6
CONTINUOUS
10
110.064
20
3.80846
11
109.875
21
3.6825
0
LINE
8
BLACK
6
CONTINUOUS
10
109.875
20
3.6825
11
109.666
21
3.59573
0
LINE
8
BLACK
6
CONTINUOUS
10
109.666
20
3.59573
11
109.555
21
3.57362
0
LINE
8
BLACK
6
CONTINUOUS
10
109.555
20
3.57362
11
109.443
21
3.5515
0
LINE
8
BLACK
6
CONTINUOUS
10
109.443
20
3.5515
11
109.217
21
3.5515
0
LINE
8
BLACK
6
CONTINUOUS
10
109.217
20
3.5515
11
109.105
21
3.57362
0
LINE
8
BLACK
6
CONTINUOUS
10
109.105
20
3.57362
11
108.994
21
3.59573
0
LINE
8
BLACK
6
CONTINUOUS
10
108.994
20
3.59573
11
108.785
21
3.6825
0
LINE
8
BLACK
6
CONTINUOUS
10
108.785
20
3.6825
11
108.596
21
3.80846
0
LINE
8
BLACK
6
CONTINUOUS
10
108.596
20
3.80846
11
108.436
21
3.96878
0
LINE
8
BLACK
6
CONTINUOUS
10
108.436
20
3.96878
11
108.31
21
4.1573
0
LINE
8
BLACK
6
CONTINUOUS
10
108.31
20
4.1573
11
108.223
21
4.36677
0
LINE
8
BLACK
6
CONTINUOUS
10
108.223
20
4.36677
11
108.179
21
4.58914
0
LINE
8
BLACK
6
CONTINUOUS
10
108.179
20
4.58914
11
108.179
21
4.81586
0
LINE
8
BLACK
6
CONTINUOUS
10
108.179
20
4.81586
11
108.223
21
5.03823
0
LINE
8
BLACK
6
CONTINUOUS
10
108.223
20
5.03823
11
108.31
21
5.2477
0
LINE
8
BLACK
6
CONTINUOUS
10
108.31
20
5.2477
11
108.436
21
5.43622
0
LINE
8
BLACK
6
CONTINUOUS
10
108.436
20
5.43622
11
108.596
21
5.59654
0
LINE
8
BLACK
6
CONTINUOUS
10
108.596
20
5.59654
11
108.785
21
5.7225
0
LINE
8
BLACK
6
CONTINUOUS
10
108.785
20
5.7225
11
108.994
21
5.80927
0
LINE
8
BLACK
6
CONTINUOUS
10
108.994
20
5.80927
11
109.105
21
5.83138
0
LINE
8
BLACK
6
CONTINUOUS
10
109.105
20
5.83138
11
109.217
21
5.8535
0
LINE
8
BLACK
6
CONTINUOUS
10
109.217
20
5.8535
11
109.443
21
5.8535
0
LINE
8
BLACK
6
CONTINUOUS
10
109.443
20
5.8535
11
109.555
21
5.83138
0
LINE
8
BLACK
6
CONTINUOUS
10
42.8795
20
24.4814
11
42.9907
21
24.4593
0
LINE
8
BLACK
6
CONTINUOUS
10
42.9907
20
24.4593
11
43.2002
21
24.3725
0
LINE
8
BLACK
6
CONTINUOUS
10
43.2002
20
24.3725
11
43.3887
21
24.2465
0
LINE
8
BLACK
6
CONTINUOUS
10
43.3887
20
24.2465
11
43.549
21
24.0862
0
LINE
8
BLACK
6
CONTINUOUS
10
43.549
20
24.0862
11
43.675
21
23.8977
0
LINE
8
BLACK
6
CONTINUOUS
10
43.675
20
23.8977
11
43.7618
21
23.6882
0
LINE
8
BLACK
6
CONTINUOUS
10
43.7618
20
23.6882
11
43.7839
21
23.577
0
LINE
8
BLACK
6
CONTINUOUS
10
43.7839
20
23.577
11
43.806
21
23.4659
0
LINE
8
BLACK
6
CONTINUOUS
10
43.806
20
23.4659
11
43.806
21
23.2391
0
LINE
8
BLACK
6
CONTINUOUS
10
43.806
20
23.2391
11
43.7839
21
23.128
0
LINE
8
BLACK
6
CONTINUOUS
10
43.7839
20
23.128
11
43.7618
21
23.0168
0
LINE
8
BLACK
6
CONTINUOUS
10
43.7618
20
23.0168
11
43.7004
21
22.8686
0
LINE
8
BLACK
6
CONTINUOUS
10
43.7004
20
22.8686
11
43.6798
21
22.8188
0
LINE
8
BLACK
6
CONTINUOUS
10
43.6798
20
22.8188
11
43.675
21
22.8073
0
LINE
8
BLACK
6
CONTINUOUS
10
43.675
20
22.8073
11
43.549
21
22.6188
0
LINE
8
BLACK
6
CONTINUOUS
10
43.549
20
22.6188
11
43.3887
21
22.4585
0
LINE
8
BLACK
6
CONTINUOUS
10
43.3887
20
22.4585
11
43.2002
21
22.3325
0
LINE
8
BLACK
6
CONTINUOUS
10
43.2002
20
22.3325
11
42.9907
21
22.2457
0
LINE
8
BLACK
6
CONTINUOUS
10
42.9907
20
22.2457
11
42.8795
21
22.2236
0
LINE
8
BLACK
6
CONTINUOUS
10
42.8795
20
22.2236
11
42.7684
21
22.2015
0
LINE
8
BLACK
6
CONTINUOUS
10
42.7684
20
22.2015
11
42.5416
21
22.2015
0
LINE
8
BLACK
6
CONTINUOUS
10
42.5416
20
22.2015
11
42.4305
21
22.2236
0
LINE
8
BLACK
6
CONTINUOUS
10
42.4305
20
22.2236
11
42.3193
21
22.2457
0
LINE
8
BLACK
6
CONTINUOUS
10
42.3193
20
22.2457
11
42.1098
21
22.3325
0
LINE
8
BLACK
6
CONTINUOUS
10
42.1098
20
22.3325
11
41.9213
21
22.4585
0
LINE
8
BLACK
6
CONTINUOUS
10
41.9213
20
22.4585
11
41.761
21
22.6188
0
LINE
8
BLACK
6
CONTINUOUS
10
41.761
20
22.6188
11
41.635
21
22.8073
0
LINE
8
BLACK
6
CONTINUOUS
10
41.635
20
22.8073
11
41.6302
21
22.8188
0
LINE
8
BLACK
6
CONTINUOUS
10
41.6302
20
22.8188
11
41.6096
21
22.8686
0
LINE
8
BLACK
6
CONTINUOUS
10
41.6096
20
22.8686
11
41.5482
21
23.0168
0
LINE
8
BLACK
6
CONTINUOUS
10
41.5482
20
23.0168
11
41.5261
21
23.128
0
LINE
8
BLACK
6
CONTINUOUS
10
41.5261
20
23.128
11
41.504
21
23.2391
0
LINE
8
BLACK
6
CONTINUOUS
10
41.504
20
23.2391
11
41.504
21
23.4659
0
LINE
8
BLACK
6
CONTINUOUS
10
41.504
20
23.4659
11
41.5261
21
23.577
0
LINE
8
BLACK
6
CONTINUOUS
10
41.5261
20
23.577
11
41.5482
21
23.6882
0
LINE
8
BLACK
6
CONTINUOUS
10
41.5482
20
23.6882
11
41.635
21
23.8977
0
LINE
8
BLACK
6
CONTINUOUS
10
41.635
20
23.8977
11
41.761
21
24.0862
0
LINE
8
BLACK
6
CONTINUOUS
10
41.761
20
24.0862
11
41.9213
21
24.2465
0
LINE
8
BLACK
6
CONTINUOUS
10
41.9213
20
24.2465
11
42.1098
21
24.3725
0
LINE
8
BLACK
6
CONTINUOUS
10
42.1098
20
24.3725
11
42.3193
21
24.4593
0
LINE
8
BLACK
6
CONTINUOUS
10
42.3193
20
24.4593
11
42.4305
21
24.4814
0
LINE
8
BLACK
6
CONTINUOUS
10
42.4305
20
24.4814
11
42.5416
21
24.5035
0
LINE
8
BLACK
6
CONTINUOUS
10
42.5416
20
24.5035
11
42.7684
21
24.5035
0
LINE
8
BLACK
6
CONTINUOUS
10
42.7684
20
24.5035
11
42.8795
21
24.4814
0
LINE
8
BLACK
6
CONTINUOUS
10
176.205
20
24.6814
11
176.316
21
24.6593
0
LINE
8
BLACK
6
CONTINUOUS
10
176.316
20
24.6593
11
176.525
21
24.5725
0
LINE
8
BLACK
6
CONTINUOUS
10
176.525
20
24.5725
11
176.714
21
24.4465
0
LINE
8
BLACK
6
CONTINUOUS
10
176.714
20
24.4465
11
176.874
21
24.2862
0
LINE
8
BLACK
6
CONTINUOUS
10
176.874
20
24.2862
11
176.901
21
24.2465
0
LINE
8
BLACK
6
CONTINUOUS
10
176.901
20
24.2465
11
177
21
24.0977
0
LINE
8
BLACK
6
CONTINUOUS
10
177
20
24.0977
11
177.005
21
24.0862
0
LINE
8
BLACK
6
CONTINUOUS
10
177.005
20
24.0862
11
177.083
21
23.8977
0
LINE
8
BLACK
6
CONTINUOUS
10
177.083
20
23.8977
11
177.087
21
23.8882
0
LINE
8
BLACK
6
CONTINUOUS
10
177.087
20
23.8882
11
177.127
21
23.6882
0
LINE
8
BLACK
6
CONTINUOUS
10
177.127
20
23.6882
11
177.131
21
23.6659
0
LINE
8
BLACK
6
CONTINUOUS
10
177.131
20
23.6659
11
177.131
21
23.4391
0
LINE
8
BLACK
6
CONTINUOUS
10
177.131
20
23.4391
11
177.087
21
23.2168
0
LINE
8
BLACK
6
CONTINUOUS
10
177.087
20
23.2168
11
177
21
23.0073
0
LINE
8
BLACK
6
CONTINUOUS
10
177
20
23.0073
11
176.874
21
22.8188
0
LINE
8
BLACK
6
CONTINUOUS
10
176.874
20
22.8188
11
176.714
21
22.6585
0
LINE
8
BLACK
6
CONTINUOUS
10
176.714
20
22.6585
11
176.525
21
22.5325
0
LINE
8
BLACK
6
CONTINUOUS
10
176.525
20
22.5325
11
176.316
21
22.4457
0
LINE
8
BLACK
6
CONTINUOUS
10
176.316
20
22.4457
11
176.205
21
22.4236
0
LINE
8
BLACK
6
CONTINUOUS
10
176.205
20
22.4236
11
176.093
21
22.4015
0
LINE
8
BLACK
6
CONTINUOUS
10
176.093
20
22.4015
11
175.867
21
22.4015
0
LINE
8
BLACK
6
CONTINUOUS
10
175.867
20
22.4015
11
175.755
21
22.4236
0
LINE
8
BLACK
6
CONTINUOUS
10
175.755
20
22.4236
11
175.644
21
22.4457
0
LINE
8
BLACK
6
CONTINUOUS
10
175.644
20
22.4457
11
175.435
21
22.5325
0
LINE
8
BLACK
6
CONTINUOUS
10
175.435
20
22.5325
11
175.246
21
22.6585
0
LINE
8
BLACK
6
CONTINUOUS
10
175.246
20
22.6585
11
175.086
21
22.8188
0
LINE
8
BLACK
6
CONTINUOUS
10
175.086
20
22.8188
11
174.96
21
23.0073
0
LINE
8
BLACK
6
CONTINUOUS
10
174.96
20
23.0073
11
174.873
21
23.2168
0
LINE
8
BLACK
6
CONTINUOUS
10
174.873
20
23.2168
11
174.829
21
23.4391
0
LINE
8
BLACK
6
CONTINUOUS
10
174.829
20
23.4391
11
174.829
21
23.6659
0
LINE
8
BLACK
6
CONTINUOUS
10
174.829
20
23.6659
11
174.833
21
23.6882
0
LINE
8
BLACK
6
CONTINUOUS
10
174.833
20
23.6882
11
174.873
21
23.8882
0
LINE
8
BLACK
6
CONTINUOUS
10
174.873
20
23.8882
11
174.877
21
23.8977
0
LINE
8
BLACK
6
CONTINUOUS
10
174.877
20
23.8977
11
174.955
21
24.0862
0
LINE
8
BLACK
6
CONTINUOUS
10
174.955
20
24.0862
11
174.96
21
24.0977
0
LINE
8
BLACK
6
CONTINUOUS
10
174.96
20
24.0977
11
175.059
21
24.2465
0
LINE
8
BLACK
6
CONTINUOUS
10
175.059
20
24.2465
11
175.086
21
24.2862
0
LINE
8
BLACK
6
CONTINUOUS
10
175.086
20
24.2862
11
175.246
21
24.4465
0
LINE
8
BLACK
6
CONTINUOUS
10
175.246
20
24.4465
11
175.435
21
24.5725
0
LINE
8
BLACK
6
CONTINUOUS
10
175.435
20
24.5725
11
175.644
21
24.6593
0
LINE
8
BLACK
6
CONTINUOUS
10
175.644
20
24.6593
11
175.755
21
24.6814
0
LINE
8
BLACK
6
CONTINUOUS
10
175.755
20
24.6814
11
175.867
21
24.7035
0
LINE
8
BLACK
6
CONTINUOUS
10
175.867
20
24.7035
11
176.093
21
24.7035
0
LINE
8
BLACK
6
CONTINUOUS
10
176.093
20
24.7035
11
176.205
21
24.6814
  0
ENDSEC
  0
EOF
