  0
SECTION
  2
HEADER
  9
$ANGBASE
  50
0.0
  9
$ANGDIR
  70
1
  9
$MEASUREMENT
  70
1
  0
ENDSEC
  0
SECTION
  2
TABLES
  0
TABLE
  2
LTYPE
  70
4
  0
LTYPE
  5
40F
  2
CONTINUOUS
  70
0
  3
Solid line
  72
65
  73
0
  40
0.0
  0
LTYPE
  5
410
  2
DASHDOT
 70
0
  3
Dash Dot ____ _ ____ _
 72
65
 73
4
 40
2.0
 49
1.25
 49
-0.25
 49
0.25
 49
-0.25
  0
LTYPE
  5
411
  2
DASHED
 70
0
  3
Dashed __ __ __ __ __
 72
65
 73
2
 40
0.75
 49
0.5
 49
-0.25
  0
LTYPE
  5
43B
  2
DOTTED
 70
0
  3
Dotted .  .  .  .
 72
65
 73
2
 40
0.2
 49
0.0
 49
-0.2
  0
ENDTAB
  0
TABLE
  2
STYLE
  70
4
  0
STYLE
  2
KICAD
  70
0
  40
0
  41
1
  42
1
  50
0
  71
0
  3
isocp.shx
  0
STYLE
  2
KICADB
  70
0
  40
0
  41
1
  42
1
  50
0
  71
0
  3
isocp.shx
  0
STYLE
  2
KICADI
  70
0
  40
0
  41
1
  42
1
  50
15
  71
0
  3
isocp.shx
  0
STYLE
  2
KICADBI
  70
0
  40
0
  41
1
  42
1
  50
15
  71
0
  3
isocp.shx
  0
ENDTAB
  0
TABLE
  2
LAYER
  70
1
  0
LAYER
  2
BLACK
  70
0
  62
7
  6
CONTINUOUS
  0
ENDTAB
  0
ENDSEC
  0
SECTION
  2
ENTITIES
0
LINE
8
BLACK
6
CONTINUOUS
10
42.3599
20
-6.26238
11
41.7885
21
-6.26238
0
LINE
8
BLACK
6
CONTINUOUS
10
42.0742
20
-6.26238
11
42.0742
21
-5.26238
0
LINE
8
BLACK
6
CONTINUOUS
10
42.0742
20
-5.26238
11
41.9789
21
-5.40524
0
LINE
8
BLACK
6
CONTINUOUS
10
41.9789
20
-5.40524
11
41.8837
21
-5.50048
0
LINE
8
BLACK
6
CONTINUOUS
10
41.8837
20
-5.50048
11
41.7885
21
-5.54809
0
LINE
8
BLACK
6
CONTINUOUS
10
43.2646
20
-5.26238
11
42.7885
21
-5.26238
0
LINE
8
BLACK
6
CONTINUOUS
10
42.7885
20
-5.26238
11
42.7408
21
-5.73857
0
LINE
8
BLACK
6
CONTINUOUS
10
42.7408
20
-5.73857
11
42.7885
21
-5.69095
0
LINE
8
BLACK
6
CONTINUOUS
10
42.7885
20
-5.69095
11
42.8837
21
-5.64333
0
LINE
8
BLACK
6
CONTINUOUS
10
42.8837
20
-5.64333
11
43.1218
21
-5.64333
0
LINE
8
BLACK
6
CONTINUOUS
10
43.1218
20
-5.64333
11
43.217
21
-5.69095
0
LINE
8
BLACK
6
CONTINUOUS
10
43.217
20
-5.69095
11
43.2646
21
-5.73857
0
LINE
8
BLACK
6
CONTINUOUS
10
43.2646
20
-5.73857
11
43.3123
21
-5.83381
0
LINE
8
BLACK
6
CONTINUOUS
10
43.3123
20
-5.83381
11
43.3123
21
-6.0719
0
LINE
8
BLACK
6
CONTINUOUS
10
43.3123
20
-6.0719
11
43.2646
21
-6.16714
0
LINE
8
BLACK
6
CONTINUOUS
10
43.2646
20
-6.16714
11
43.217
21
-6.21476
0
LINE
8
BLACK
6
CONTINUOUS
10
43.217
20
-6.21476
11
43.1218
21
-6.26238
0
LINE
8
BLACK
6
CONTINUOUS
10
43.1218
20
-6.26238
11
42.8837
21
-6.26238
0
LINE
8
BLACK
6
CONTINUOUS
10
42.8837
20
-6.26238
11
42.7885
21
-6.21476
0
LINE
8
BLACK
6
CONTINUOUS
10
42.7885
20
-6.21476
11
42.7408
21
-6.16714
0
LINE
8
BLACK
6
CONTINUOUS
10
43.6456
20
-5.26238
11
44.3123
21
-5.26238
0
LINE
8
BLACK
6
CONTINUOUS
10
44.3123
20
-5.26238
11
43.8837
21
-6.26238
0
LINE
8
BLACK
6
CONTINUOUS
10
44.6932
20
-6.16714
11
44.7408
21
-6.21476
0
LINE
8
BLACK
6
CONTINUOUS
10
44.7408
20
-6.21476
11
44.6932
21
-6.26238
0
LINE
8
BLACK
6
CONTINUOUS
10
44.6932
20
-6.26238
11
44.6456
21
-6.21476
0
LINE
8
BLACK
6
CONTINUOUS
10
44.6456
20
-6.21476
11
44.6932
21
-6.16714
0
LINE
8
BLACK
6
CONTINUOUS
10
44.6932
20
-6.16714
11
44.6932
21
-6.26238
0
LINE
8
BLACK
6
CONTINUOUS
10
45.6932
20
-6.26238
11
45.1218
21
-6.26238
0
LINE
8
BLACK
6
CONTINUOUS
10
45.4075
20
-6.26238
11
45.4075
21
-5.26238
0
LINE
8
BLACK
6
CONTINUOUS
10
45.4075
20
-5.26238
11
45.3123
21
-5.40524
0
LINE
8
BLACK
6
CONTINUOUS
10
45.3123
20
-5.40524
11
45.217
21
-5.50048
0
LINE
8
BLACK
6
CONTINUOUS
10
45.217
20
-5.50048
11
45.1218
21
-5.54809
0
LINE
8
BLACK
6
CONTINUOUS
10
46.1694
20
-6.26238
11
46.3599
21
-6.26238
0
LINE
8
BLACK
6
CONTINUOUS
10
46.3599
20
-6.26238
11
46.4551
21
-6.21476
0
LINE
8
BLACK
6
CONTINUOUS
10
46.4551
20
-6.21476
11
46.5027
21
-6.16714
0
LINE
8
BLACK
6
CONTINUOUS
10
46.5027
20
-6.16714
11
46.598
21
-6.02428
0
LINE
8
BLACK
6
CONTINUOUS
10
46.598
20
-6.02428
11
46.6456
21
-5.83381
0
LINE
8
BLACK
6
CONTINUOUS
10
46.6456
20
-5.83381
11
46.6456
21
-5.45286
0
LINE
8
BLACK
6
CONTINUOUS
10
46.6456
20
-5.45286
11
46.598
21
-5.35762
0
LINE
8
BLACK
6
CONTINUOUS
10
46.598
20
-5.35762
11
46.5504
21
-5.31
0
LINE
8
BLACK
6
CONTINUOUS
10
46.5504
20
-5.31
11
46.4551
21
-5.26238
0
LINE
8
BLACK
6
CONTINUOUS
10
46.4551
20
-5.26238
11
46.2646
21
-5.26238
0
LINE
8
BLACK
6
CONTINUOUS
10
46.2646
20
-5.26238
11
46.1694
21
-5.31
0
LINE
8
BLACK
6
CONTINUOUS
10
46.1694
20
-5.31
11
46.1218
21
-5.35762
0
LINE
8
BLACK
6
CONTINUOUS
10
46.1218
20
-5.35762
11
46.0742
21
-5.45286
0
LINE
8
BLACK
6
CONTINUOUS
10
46.0742
20
-5.45286
11
46.0742
21
-5.69095
0
LINE
8
BLACK
6
CONTINUOUS
10
46.0742
20
-5.69095
11
46.1218
21
-5.78619
0
LINE
8
BLACK
6
CONTINUOUS
10
46.1218
20
-5.78619
11
46.1694
21
-5.83381
0
LINE
8
BLACK
6
CONTINUOUS
10
46.1694
20
-5.83381
11
46.2646
21
-5.88143
0
LINE
8
BLACK
6
CONTINUOUS
10
46.2646
20
-5.88143
11
46.4551
21
-5.88143
0
LINE
8
BLACK
6
CONTINUOUS
10
46.4551
20
-5.88143
11
46.5504
21
-5.83381
0
LINE
8
BLACK
6
CONTINUOUS
10
46.5504
20
-5.83381
11
46.598
21
-5.78619
0
LINE
8
BLACK
6
CONTINUOUS
10
46.598
20
-5.78619
11
46.6456
21
-5.69095
0
LINE
8
BLACK
6
CONTINUOUS
10
47.5504
20
-5.26238
11
47.0742
21
-5.26238
0
LINE
8
BLACK
6
CONTINUOUS
10
47.0742
20
-5.26238
11
47.0265
21
-5.73857
0
LINE
8
BLACK
6
CONTINUOUS
10
47.0265
20
-5.73857
11
47.0742
21
-5.69095
0
LINE
8
BLACK
6
CONTINUOUS
10
47.0742
20
-5.69095
11
47.1694
21
-5.64333
0
LINE
8
BLACK
6
CONTINUOUS
10
47.1694
20
-5.64333
11
47.4075
21
-5.64333
0
LINE
8
BLACK
6
CONTINUOUS
10
47.4075
20
-5.64333
11
47.5027
21
-5.69095
0
LINE
8
BLACK
6
CONTINUOUS
10
47.5027
20
-5.69095
11
47.5504
21
-5.73857
0
LINE
8
BLACK
6
CONTINUOUS
10
47.5504
20
-5.73857
11
47.598
21
-5.83381
0
LINE
8
BLACK
6
CONTINUOUS
10
47.598
20
-5.83381
11
47.598
21
-6.0719
0
LINE
8
BLACK
6
CONTINUOUS
10
47.598
20
-6.0719
11
47.5504
21
-6.16714
0
LINE
8
BLACK
6
CONTINUOUS
10
47.5504
20
-6.16714
11
47.5027
21
-6.21476
0
LINE
8
BLACK
6
CONTINUOUS
10
47.5027
20
-6.21476
11
47.4075
21
-6.26238
0
LINE
8
BLACK
6
CONTINUOUS
10
47.4075
20
-6.26238
11
47.1694
21
-6.26238
0
LINE
8
BLACK
6
CONTINUOUS
10
47.1694
20
-6.26238
11
47.0742
21
-6.21476
0
LINE
8
BLACK
6
CONTINUOUS
10
47.0742
20
-6.21476
11
47.0265
21
-6.16714
0
LINE
8
BLACK
6
CONTINUOUS
10
48.7885
20
-6.26238
11
48.7885
21
-5.59571
0
LINE
8
BLACK
6
CONTINUOUS
10
48.7885
20
-5.69095
11
48.8361
21
-5.64333
0
LINE
8
BLACK
6
CONTINUOUS
10
48.8361
20
-5.64333
11
48.9313
21
-5.59571
0
LINE
8
BLACK
6
CONTINUOUS
10
48.9313
20
-5.59571
11
49.0742
21
-5.59571
0
LINE
8
BLACK
6
CONTINUOUS
10
49.0742
20
-5.59571
11
49.1694
21
-5.64333
0
LINE
8
BLACK
6
CONTINUOUS
10
49.1694
20
-5.64333
11
49.217
21
-5.73857
0
LINE
8
BLACK
6
CONTINUOUS
10
49.217
20
-5.73857
11
49.217
21
-6.26238
0
LINE
8
BLACK
6
CONTINUOUS
10
49.217
20
-5.73857
11
49.2646
21
-5.64333
0
LINE
8
BLACK
6
CONTINUOUS
10
49.2646
20
-5.64333
11
49.3599
21
-5.59571
0
LINE
8
BLACK
6
CONTINUOUS
10
49.3599
20
-5.59571
11
49.5027
21
-5.59571
0
LINE
8
BLACK
6
CONTINUOUS
10
49.5027
20
-5.59571
11
49.598
21
-5.64333
0
LINE
8
BLACK
6
CONTINUOUS
10
49.598
20
-5.64333
11
49.6456
21
-5.73857
0
LINE
8
BLACK
6
CONTINUOUS
10
49.6456
20
-5.73857
11
49.6456
21
-6.26238
0
LINE
8
BLACK
6
CONTINUOUS
10
50.1218
20
-6.26238
11
50.1218
21
-5.59571
0
LINE
8
BLACK
6
CONTINUOUS
10
50.1218
20
-5.69095
11
50.1694
21
-5.64333
0
LINE
8
BLACK
6
CONTINUOUS
10
50.1694
20
-5.64333
11
50.2646
21
-5.59571
0
LINE
8
BLACK
6
CONTINUOUS
10
50.2646
20
-5.59571
11
50.4075
21
-5.59571
0
LINE
8
BLACK
6
CONTINUOUS
10
50.4075
20
-5.59571
11
50.5027
21
-5.64333
0
LINE
8
BLACK
6
CONTINUOUS
10
50.5027
20
-5.64333
11
50.5504
21
-5.73857
0
LINE
8
BLACK
6
CONTINUOUS
10
50.5504
20
-5.73857
11
50.5504
21
-6.26238
0
LINE
8
BLACK
6
CONTINUOUS
10
50.5504
20
-5.73857
11
50.598
21
-5.64333
0
LINE
8
BLACK
6
CONTINUOUS
10
50.598
20
-5.64333
11
50.6932
21
-5.59571
0
LINE
8
BLACK
6
CONTINUOUS
10
50.6932
20
-5.59571
11
50.8361
21
-5.59571
0
LINE
8
BLACK
6
CONTINUOUS
10
50.8361
20
-5.59571
11
50.9313
21
-5.64333
0
LINE
8
BLACK
6
CONTINUOUS
10
50.9313
20
-5.64333
11
50.9789
21
-5.73857
0
LINE
8
BLACK
6
CONTINUOUS
10
50.9789
20
-5.73857
11
50.9789
21
-6.26238
0
LINE
8
BLACK
6
CONTINUOUS
10
125.005
20
-7.01
11
-32.19
21
-7.01
0
LINE
8
BLACK
6
CONTINUOUS
10
125.005
20
-7.13
11
125.005
21
-6.42358
0
LINE
8
BLACK
6
CONTINUOUS
10
-32.19
20
-7.13
11
-32.19
21
-6.42358
0
LINE
8
BLACK
6
CONTINUOUS
10
-32.19
20
-7.01
11
-31.0635
21
-6.42358
0
LINE
8
BLACK
6
CONTINUOUS
10
-32.19
20
-7.01
11
-31.0635
21
-7.59642
0
LINE
8
BLACK
6
CONTINUOUS
10
125.005
20
-7.01
11
123.878
21
-6.42358
0
LINE
8
BLACK
6
CONTINUOUS
10
125.005
20
-7.01
11
123.878
21
-7.59642
0
LINE
8
BLACK
6
CONTINUOUS
10
136.352
20
-108.176
11
136.352
21
-108.748
0
LINE
8
BLACK
6
CONTINUOUS
10
136.352
20
-108.462
11
135.352
21
-108.462
0
LINE
8
BLACK
6
CONTINUOUS
10
135.352
20
-108.462
11
135.495
21
-108.557
0
LINE
8
BLACK
6
CONTINUOUS
10
135.495
20
-108.557
11
135.59
21
-108.653
0
LINE
8
BLACK
6
CONTINUOUS
10
135.59
20
-108.653
11
135.638
21
-108.748
0
LINE
8
BLACK
6
CONTINUOUS
10
135.352
20
-107.843
11
135.352
21
-107.176
0
LINE
8
BLACK
6
CONTINUOUS
10
135.352
20
-107.176
11
136.352
21
-107.605
0
LINE
8
BLACK
6
CONTINUOUS
10
136.257
20
-106.795
11
136.305
21
-106.748
0
LINE
8
BLACK
6
CONTINUOUS
10
136.305
20
-106.748
11
136.352
21
-106.795
0
LINE
8
BLACK
6
CONTINUOUS
10
136.352
20
-106.795
11
136.305
21
-106.843
0
LINE
8
BLACK
6
CONTINUOUS
10
136.305
20
-106.843
11
136.257
21
-106.795
0
LINE
8
BLACK
6
CONTINUOUS
10
136.257
20
-106.795
11
136.352
21
-106.795
0
LINE
8
BLACK
6
CONTINUOUS
10
135.352
20
-105.843
11
135.352
21
-106.319
0
LINE
8
BLACK
6
CONTINUOUS
10
135.352
20
-106.319
11
135.829
21
-106.367
0
LINE
8
BLACK
6
CONTINUOUS
10
135.829
20
-106.367
11
135.781
21
-106.319
0
LINE
8
BLACK
6
CONTINUOUS
10
135.781
20
-106.319
11
135.733
21
-106.224
0
LINE
8
BLACK
6
CONTINUOUS
10
135.733
20
-106.224
11
135.733
21
-105.986
0
LINE
8
BLACK
6
CONTINUOUS
10
135.733
20
-105.986
11
135.781
21
-105.891
0
LINE
8
BLACK
6
CONTINUOUS
10
135.781
20
-105.891
11
135.829
21
-105.843
0
LINE
8
BLACK
6
CONTINUOUS
10
135.829
20
-105.843
11
135.924
21
-105.795
0
LINE
8
BLACK
6
CONTINUOUS
10
135.924
20
-105.795
11
136.162
21
-105.795
0
LINE
8
BLACK
6
CONTINUOUS
10
136.162
20
-105.795
11
136.257
21
-105.843
0
LINE
8
BLACK
6
CONTINUOUS
10
136.257
20
-105.843
11
136.305
21
-105.891
0
LINE
8
BLACK
6
CONTINUOUS
10
136.305
20
-105.891
11
136.352
21
-105.986
0
LINE
8
BLACK
6
CONTINUOUS
10
136.352
20
-105.986
11
136.352
21
-106.224
0
LINE
8
BLACK
6
CONTINUOUS
10
136.352
20
-106.224
11
136.305
21
-106.319
0
LINE
8
BLACK
6
CONTINUOUS
10
136.305
20
-106.319
11
136.257
21
-106.367
0
LINE
8
BLACK
6
CONTINUOUS
10
135.352
20
-104.891
11
135.352
21
-105.367
0
LINE
8
BLACK
6
CONTINUOUS
10
135.352
20
-105.367
11
135.829
21
-105.415
0
LINE
8
BLACK
6
CONTINUOUS
10
135.829
20
-105.415
11
135.781
21
-105.367
0
LINE
8
BLACK
6
CONTINUOUS
10
135.781
20
-105.367
11
135.733
21
-105.272
0
LINE
8
BLACK
6
CONTINUOUS
10
135.733
20
-105.272
11
135.733
21
-105.034
0
LINE
8
BLACK
6
CONTINUOUS
10
135.733
20
-105.034
11
135.781
21
-104.938
0
LINE
8
BLACK
6
CONTINUOUS
10
135.781
20
-104.938
11
135.829
21
-104.891
0
LINE
8
BLACK
6
CONTINUOUS
10
135.829
20
-104.891
11
135.924
21
-104.843
0
LINE
8
BLACK
6
CONTINUOUS
10
135.924
20
-104.843
11
136.162
21
-104.843
0
LINE
8
BLACK
6
CONTINUOUS
10
136.162
20
-104.843
11
136.257
21
-104.891
0
LINE
8
BLACK
6
CONTINUOUS
10
136.257
20
-104.891
11
136.305
21
-104.938
0
LINE
8
BLACK
6
CONTINUOUS
10
136.305
20
-104.938
11
136.352
21
-105.034
0
LINE
8
BLACK
6
CONTINUOUS
10
136.352
20
-105.034
11
136.352
21
-105.272
0
LINE
8
BLACK
6
CONTINUOUS
10
136.352
20
-105.272
11
136.305
21
-105.367
0
LINE
8
BLACK
6
CONTINUOUS
10
136.305
20
-105.367
11
136.257
21
-105.415
0
LINE
8
BLACK
6
CONTINUOUS
10
135.352
20
-104.224
11
135.352
21
-104.129
0
LINE
8
BLACK
6
CONTINUOUS
10
135.352
20
-104.129
11
135.4
21
-104.034
0
LINE
8
BLACK
6
CONTINUOUS
10
135.4
20
-104.034
11
135.448
21
-103.986
0
LINE
8
BLACK
6
CONTINUOUS
10
135.448
20
-103.986
11
135.543
21
-103.938
0
LINE
8
BLACK
6
CONTINUOUS
10
135.543
20
-103.938
11
135.733
21
-103.891
0
LINE
8
BLACK
6
CONTINUOUS
10
135.733
20
-103.891
11
135.971
21
-103.891
0
LINE
8
BLACK
6
CONTINUOUS
10
135.971
20
-103.891
11
136.162
21
-103.938
0
LINE
8
BLACK
6
CONTINUOUS
10
136.162
20
-103.938
11
136.257
21
-103.986
0
LINE
8
BLACK
6
CONTINUOUS
10
136.257
20
-103.986
11
136.305
21
-104.034
0
LINE
8
BLACK
6
CONTINUOUS
10
136.305
20
-104.034
11
136.352
21
-104.129
0
LINE
8
BLACK
6
CONTINUOUS
10
136.352
20
-104.129
11
136.352
21
-104.224
0
LINE
8
BLACK
6
CONTINUOUS
10
136.352
20
-104.224
11
136.305
21
-104.319
0
LINE
8
BLACK
6
CONTINUOUS
10
136.305
20
-104.319
11
136.257
21
-104.367
0
LINE
8
BLACK
6
CONTINUOUS
10
136.257
20
-104.367
11
136.162
21
-104.415
0
LINE
8
BLACK
6
CONTINUOUS
10
136.162
20
-104.415
11
135.971
21
-104.462
0
LINE
8
BLACK
6
CONTINUOUS
10
135.971
20
-104.462
11
135.733
21
-104.462
0
LINE
8
BLACK
6
CONTINUOUS
10
135.733
20
-104.462
11
135.543
21
-104.415
0
LINE
8
BLACK
6
CONTINUOUS
10
135.543
20
-104.415
11
135.448
21
-104.367
0
LINE
8
BLACK
6
CONTINUOUS
10
135.448
20
-104.367
11
135.4
21
-104.319
0
LINE
8
BLACK
6
CONTINUOUS
10
135.4
20
-104.319
11
135.352
21
-104.224
0
LINE
8
BLACK
6
CONTINUOUS
10
136.352
20
-102.7
11
135.686
21
-102.7
0
LINE
8
BLACK
6
CONTINUOUS
10
135.781
20
-102.7
11
135.733
21
-102.653
0
LINE
8
BLACK
6
CONTINUOUS
10
135.733
20
-102.653
11
135.686
21
-102.557
0
LINE
8
BLACK
6
CONTINUOUS
10
135.686
20
-102.557
11
135.686
21
-102.415
0
LINE
8
BLACK
6
CONTINUOUS
10
135.686
20
-102.415
11
135.733
21
-102.319
0
LINE
8
BLACK
6
CONTINUOUS
10
135.733
20
-102.319
11
135.829
21
-102.272
0
LINE
8
BLACK
6
CONTINUOUS
10
135.829
20
-102.272
11
136.352
21
-102.272
0
LINE
8
BLACK
6
CONTINUOUS
10
135.829
20
-102.272
11
135.733
21
-102.224
0
LINE
8
BLACK
6
CONTINUOUS
10
135.733
20
-102.224
11
135.686
21
-102.129
0
LINE
8
BLACK
6
CONTINUOUS
10
135.686
20
-102.129
11
135.686
21
-101.986
0
LINE
8
BLACK
6
CONTINUOUS
10
135.686
20
-101.986
11
135.733
21
-101.891
0
LINE
8
BLACK
6
CONTINUOUS
10
135.733
20
-101.891
11
135.829
21
-101.843
0
LINE
8
BLACK
6
CONTINUOUS
10
135.829
20
-101.843
11
136.352
21
-101.843
0
LINE
8
BLACK
6
CONTINUOUS
10
136.352
20
-101.367
11
135.686
21
-101.367
0
LINE
8
BLACK
6
CONTINUOUS
10
135.781
20
-101.367
11
135.733
21
-101.319
0
LINE
8
BLACK
6
CONTINUOUS
10
135.733
20
-101.319
11
135.686
21
-101.224
0
LINE
8
BLACK
6
CONTINUOUS
10
135.686
20
-101.224
11
135.686
21
-101.081
0
LINE
8
BLACK
6
CONTINUOUS
10
135.686
20
-101.081
11
135.733
21
-100.986
0
LINE
8
BLACK
6
CONTINUOUS
10
135.733
20
-100.986
11
135.829
21
-100.938
0
LINE
8
BLACK
6
CONTINUOUS
10
135.829
20
-100.938
11
136.352
21
-100.938
0
LINE
8
BLACK
6
CONTINUOUS
10
135.829
20
-100.938
11
135.733
21
-100.891
0
LINE
8
BLACK
6
CONTINUOUS
10
135.733
20
-100.891
11
135.686
21
-100.795
0
LINE
8
BLACK
6
CONTINUOUS
10
135.686
20
-100.795
11
135.686
21
-100.653
0
LINE
8
BLACK
6
CONTINUOUS
10
135.686
20
-100.653
11
135.733
21
-100.557
0
LINE
8
BLACK
6
CONTINUOUS
10
135.733
20
-100.557
11
135.829
21
-100.51
0
LINE
8
BLACK
6
CONTINUOUS
10
135.829
20
-100.51
11
136.352
21
-100.51
0
LINE
8
BLACK
6
CONTINUOUS
10
134.7
20
-113.38
11
134.7
21
-95.83
0
LINE
8
BLACK
6
CONTINUOUS
10
133.365
20
-113.38
11
135.286
21
-113.38
0
LINE
8
BLACK
6
CONTINUOUS
10
133.365
20
-95.83
11
135.286
21
-95.83
0
LINE
8
BLACK
6
CONTINUOUS
10
134.7
20
-95.83
11
135.286
21
-96.9565
0
LINE
8
BLACK
6
CONTINUOUS
10
134.7
20
-95.83
11
134.114
21
-96.9565
0
LINE
8
BLACK
6
CONTINUOUS
10
134.7
20
-113.38
11
135.286
21
-112.253
0
LINE
8
BLACK
6
CONTINUOUS
10
134.7
20
-113.38
11
134.114
21
-112.253
0
LINE
8
BLACK
6
CONTINUOUS
10
-33.491
20
-105.626
11
-33.4433
21
-105.531
0
LINE
8
BLACK
6
CONTINUOUS
10
-33.4433
20
-105.531
11
-33.3957
21
-105.483
0
LINE
8
BLACK
6
CONTINUOUS
10
-33.3957
20
-105.483
11
-33.3005
21
-105.436
0
LINE
8
BLACK
6
CONTINUOUS
10
-33.3005
20
-105.436
11
-33.2529
21
-105.436
0
LINE
8
BLACK
6
CONTINUOUS
10
-33.2529
20
-105.436
11
-33.1576
21
-105.483
0
LINE
8
BLACK
6
CONTINUOUS
10
-33.1576
20
-105.483
11
-33.11
21
-105.531
0
LINE
8
BLACK
6
CONTINUOUS
10
-33.11
20
-105.531
11
-33.0624
21
-105.626
0
LINE
8
BLACK
6
CONTINUOUS
10
-33.0624
20
-105.626
11
-33.0624
21
-105.817
0
LINE
8
BLACK
6
CONTINUOUS
10
-33.0624
20
-105.817
11
-33.11
21
-105.912
0
LINE
8
BLACK
6
CONTINUOUS
10
-33.11
20
-105.912
11
-33.1576
21
-105.96
0
LINE
8
BLACK
6
CONTINUOUS
10
-33.1576
20
-105.96
11
-33.2529
21
-106.007
0
LINE
8
BLACK
6
CONTINUOUS
10
-33.2529
20
-106.007
11
-33.3005
21
-106.007
0
LINE
8
BLACK
6
CONTINUOUS
10
-33.3005
20
-106.007
11
-33.3957
21
-105.96
0
LINE
8
BLACK
6
CONTINUOUS
10
-33.3957
20
-105.96
11
-33.4433
21
-105.912
0
LINE
8
BLACK
6
CONTINUOUS
10
-33.4433
20
-105.912
11
-33.491
21
-105.817
0
LINE
8
BLACK
6
CONTINUOUS
10
-33.491
20
-105.817
11
-33.491
21
-105.626
0
LINE
8
BLACK
6
CONTINUOUS
10
-33.491
20
-105.626
11
-33.5386
21
-105.531
0
LINE
8
BLACK
6
CONTINUOUS
10
-33.5386
20
-105.531
11
-33.5862
21
-105.483
0
LINE
8
BLACK
6
CONTINUOUS
10
-33.5862
20
-105.483
11
-33.6814
21
-105.436
0
LINE
8
BLACK
6
CONTINUOUS
10
-33.6814
20
-105.436
11
-33.8719
21
-105.436
0
LINE
8
BLACK
6
CONTINUOUS
10
-33.8719
20
-105.436
11
-33.9671
21
-105.483
0
LINE
8
BLACK
6
CONTINUOUS
10
-33.9671
20
-105.483
11
-34.0148
21
-105.531
0
LINE
8
BLACK
6
CONTINUOUS
10
-34.0148
20
-105.531
11
-34.0624
21
-105.626
0
LINE
8
BLACK
6
CONTINUOUS
10
-34.0624
20
-105.626
11
-34.0624
21
-105.817
0
LINE
8
BLACK
6
CONTINUOUS
10
-34.0624
20
-105.817
11
-34.0148
21
-105.912
0
LINE
8
BLACK
6
CONTINUOUS
10
-34.0148
20
-105.912
11
-33.9671
21
-105.96
0
LINE
8
BLACK
6
CONTINUOUS
10
-33.9671
20
-105.96
11
-33.8719
21
-106.007
0
LINE
8
BLACK
6
CONTINUOUS
10
-33.8719
20
-106.007
11
-33.6814
21
-106.007
0
LINE
8
BLACK
6
CONTINUOUS
10
-33.6814
20
-106.007
11
-33.5862
21
-105.96
0
LINE
8
BLACK
6
CONTINUOUS
10
-33.5862
20
-105.96
11
-33.5386
21
-105.912
0
LINE
8
BLACK
6
CONTINUOUS
10
-33.5386
20
-105.912
11
-33.491
21
-105.817
0
LINE
8
BLACK
6
CONTINUOUS
10
-33.9671
20
-106.436
11
-34.0148
21
-106.483
0
LINE
8
BLACK
6
CONTINUOUS
10
-34.0148
20
-106.483
11
-34.0624
21
-106.436
0
LINE
8
BLACK
6
CONTINUOUS
10
-34.0624
20
-106.436
11
-34.0148
21
-106.388
0
LINE
8
BLACK
6
CONTINUOUS
10
-34.0148
20
-106.388
11
-33.9671
21
-106.436
0
LINE
8
BLACK
6
CONTINUOUS
10
-33.9671
20
-106.436
11
-34.0624
21
-106.436
0
LINE
8
BLACK
6
CONTINUOUS
10
-33.0624
20
-107.388
11
-33.0624
21
-106.912
0
LINE
8
BLACK
6
CONTINUOUS
10
-33.0624
20
-106.912
11
-33.5386
21
-106.864
0
LINE
8
BLACK
6
CONTINUOUS
10
-33.5386
20
-106.864
11
-33.491
21
-106.912
0
LINE
8
BLACK
6
CONTINUOUS
10
-33.491
20
-106.912
11
-33.4433
21
-107.007
0
LINE
8
BLACK
6
CONTINUOUS
10
-33.4433
20
-107.007
11
-33.4433
21
-107.245
0
LINE
8
BLACK
6
CONTINUOUS
10
-33.4433
20
-107.245
11
-33.491
21
-107.341
0
LINE
8
BLACK
6
CONTINUOUS
10
-33.491
20
-107.341
11
-33.5386
21
-107.388
0
LINE
8
BLACK
6
CONTINUOUS
10
-33.5386
20
-107.388
11
-33.6338
21
-107.436
0
LINE
8
BLACK
6
CONTINUOUS
10
-33.6338
20
-107.436
11
-33.8719
21
-107.436
0
LINE
8
BLACK
6
CONTINUOUS
10
-33.8719
20
-107.436
11
-33.9671
21
-107.388
0
LINE
8
BLACK
6
CONTINUOUS
10
-33.9671
20
-107.388
11
-34.0148
21
-107.341
0
LINE
8
BLACK
6
CONTINUOUS
10
-34.0148
20
-107.341
11
-34.0624
21
-107.245
0
LINE
8
BLACK
6
CONTINUOUS
10
-34.0624
20
-107.245
11
-34.0624
21
-107.007
0
LINE
8
BLACK
6
CONTINUOUS
10
-34.0624
20
-107.007
11
-34.0148
21
-106.912
0
LINE
8
BLACK
6
CONTINUOUS
10
-34.0148
20
-106.912
11
-33.9671
21
-106.864
0
LINE
8
BLACK
6
CONTINUOUS
10
-33.0624
20
-108.341
11
-33.0624
21
-107.864
0
LINE
8
BLACK
6
CONTINUOUS
10
-33.0624
20
-107.864
11
-33.5386
21
-107.817
0
LINE
8
BLACK
6
CONTINUOUS
10
-33.5386
20
-107.817
11
-33.491
21
-107.864
0
LINE
8
BLACK
6
CONTINUOUS
10
-33.491
20
-107.864
11
-33.4433
21
-107.96
0
LINE
8
BLACK
6
CONTINUOUS
10
-33.4433
20
-107.96
11
-33.4433
21
-108.198
0
LINE
8
BLACK
6
CONTINUOUS
10
-33.4433
20
-108.198
11
-33.491
21
-108.293
0
LINE
8
BLACK
6
CONTINUOUS
10
-33.491
20
-108.293
11
-33.5386
21
-108.341
0
LINE
8
BLACK
6
CONTINUOUS
10
-33.5386
20
-108.341
11
-33.6338
21
-108.388
0
LINE
8
BLACK
6
CONTINUOUS
10
-33.6338
20
-108.388
11
-33.8719
21
-108.388
0
LINE
8
BLACK
6
CONTINUOUS
10
-33.8719
20
-108.388
11
-33.9671
21
-108.341
0
LINE
8
BLACK
6
CONTINUOUS
10
-33.9671
20
-108.341
11
-34.0148
21
-108.293
0
LINE
8
BLACK
6
CONTINUOUS
10
-34.0148
20
-108.293
11
-34.0624
21
-108.198
0
LINE
8
BLACK
6
CONTINUOUS
10
-34.0624
20
-108.198
11
-34.0624
21
-107.96
0
LINE
8
BLACK
6
CONTINUOUS
10
-34.0624
20
-107.96
11
-34.0148
21
-107.864
0
LINE
8
BLACK
6
CONTINUOUS
10
-34.0148
20
-107.864
11
-33.9671
21
-107.817
0
LINE
8
BLACK
6
CONTINUOUS
10
-33.0624
20
-109.293
11
-33.0624
21
-108.817
0
LINE
8
BLACK
6
CONTINUOUS
10
-33.0624
20
-108.817
11
-33.5386
21
-108.769
0
LINE
8
BLACK
6
CONTINUOUS
10
-33.5386
20
-108.769
11
-33.491
21
-108.817
0
LINE
8
BLACK
6
CONTINUOUS
10
-33.491
20
-108.817
11
-33.4433
21
-108.912
0
LINE
8
BLACK
6
CONTINUOUS
10
-33.4433
20
-108.912
11
-33.4433
21
-109.15
0
LINE
8
BLACK
6
CONTINUOUS
10
-33.4433
20
-109.15
11
-33.491
21
-109.245
0
LINE
8
BLACK
6
CONTINUOUS
10
-33.491
20
-109.245
11
-33.5386
21
-109.293
0
LINE
8
BLACK
6
CONTINUOUS
10
-33.5386
20
-109.293
11
-33.6338
21
-109.341
0
LINE
8
BLACK
6
CONTINUOUS
10
-33.6338
20
-109.341
11
-33.8719
21
-109.341
0
LINE
8
BLACK
6
CONTINUOUS
10
-33.8719
20
-109.341
11
-33.9671
21
-109.293
0
LINE
8
BLACK
6
CONTINUOUS
10
-33.9671
20
-109.293
11
-34.0148
21
-109.245
0
LINE
8
BLACK
6
CONTINUOUS
10
-34.0148
20
-109.245
11
-34.0624
21
-109.15
0
LINE
8
BLACK
6
CONTINUOUS
10
-34.0624
20
-109.15
11
-34.0624
21
-108.912
0
LINE
8
BLACK
6
CONTINUOUS
10
-34.0624
20
-108.912
11
-34.0148
21
-108.817
0
LINE
8
BLACK
6
CONTINUOUS
10
-34.0148
20
-108.817
11
-33.9671
21
-108.769
0
LINE
8
BLACK
6
CONTINUOUS
10
-34.0624
20
-110.531
11
-33.3957
21
-110.531
0
LINE
8
BLACK
6
CONTINUOUS
10
-33.491
20
-110.531
11
-33.4433
21
-110.579
0
LINE
8
BLACK
6
CONTINUOUS
10
-33.4433
20
-110.579
11
-33.3957
21
-110.674
0
LINE
8
BLACK
6
CONTINUOUS
10
-33.3957
20
-110.674
11
-33.3957
21
-110.817
0
LINE
8
BLACK
6
CONTINUOUS
10
-33.3957
20
-110.817
11
-33.4433
21
-110.912
0
LINE
8
BLACK
6
CONTINUOUS
10
-33.4433
20
-110.912
11
-33.5386
21
-110.96
0
LINE
8
BLACK
6
CONTINUOUS
10
-33.5386
20
-110.96
11
-34.0624
21
-110.96
0
LINE
8
BLACK
6
CONTINUOUS
10
-33.5386
20
-110.96
11
-33.4433
21
-111.007
0
LINE
8
BLACK
6
CONTINUOUS
10
-33.4433
20
-111.007
11
-33.3957
21
-111.102
0
LINE
8
BLACK
6
CONTINUOUS
10
-33.3957
20
-111.102
11
-33.3957
21
-111.245
0
LINE
8
BLACK
6
CONTINUOUS
10
-33.3957
20
-111.245
11
-33.4433
21
-111.341
0
LINE
8
BLACK
6
CONTINUOUS
10
-33.4433
20
-111.341
11
-33.5386
21
-111.388
0
LINE
8
BLACK
6
CONTINUOUS
10
-33.5386
20
-111.388
11
-34.0624
21
-111.388
0
LINE
8
BLACK
6
CONTINUOUS
10
-34.0624
20
-111.864
11
-33.3957
21
-111.864
0
LINE
8
BLACK
6
CONTINUOUS
10
-33.491
20
-111.864
11
-33.4433
21
-111.912
0
LINE
8
BLACK
6
CONTINUOUS
10
-33.4433
20
-111.912
11
-33.3957
21
-112.007
0
LINE
8
BLACK
6
CONTINUOUS
10
-33.3957
20
-112.007
11
-33.3957
21
-112.15
0
LINE
8
BLACK
6
CONTINUOUS
10
-33.3957
20
-112.15
11
-33.4433
21
-112.245
0
LINE
8
BLACK
6
CONTINUOUS
10
-33.4433
20
-112.245
11
-33.5386
21
-112.293
0
LINE
8
BLACK
6
CONTINUOUS
10
-33.5386
20
-112.293
11
-34.0624
21
-112.293
0
LINE
8
BLACK
6
CONTINUOUS
10
-33.5386
20
-112.293
11
-33.4433
21
-112.341
0
LINE
8
BLACK
6
CONTINUOUS
10
-33.4433
20
-112.341
11
-33.3957
21
-112.436
0
LINE
8
BLACK
6
CONTINUOUS
10
-33.3957
20
-112.436
11
-33.3957
21
-112.579
0
LINE
8
BLACK
6
CONTINUOUS
10
-33.3957
20
-112.579
11
-33.4433
21
-112.674
0
LINE
8
BLACK
6
CONTINUOUS
10
-33.4433
20
-112.674
11
-33.5386
21
-112.722
0
LINE
8
BLACK
6
CONTINUOUS
10
-33.5386
20
-112.722
11
-34.0624
21
-112.722
0
LINE
8
BLACK
6
CONTINUOUS
10
-34.81
20
-104.825
11
-34.81
21
-113.38
0
LINE
8
BLACK
6
CONTINUOUS
10
-35.675
20
-104.825
11
-34.2236
21
-104.825
0
LINE
8
BLACK
6
CONTINUOUS
10
-35.675
20
-113.38
11
-34.2236
21
-113.38
0
LINE
8
BLACK
6
CONTINUOUS
10
-34.81
20
-113.38
11
-35.3964
21
-112.253
0
LINE
8
BLACK
6
CONTINUOUS
10
-34.81
20
-113.38
11
-34.2236
21
-112.253
0
LINE
8
BLACK
6
CONTINUOUS
10
-34.81
20
-104.825
11
-35.3964
21
-105.952
0
LINE
8
BLACK
6
CONTINUOUS
10
-34.81
20
-104.825
11
-34.2236
21
-105.952
0
LINE
8
BLACK
6
CONTINUOUS
10
114.802
20
-116.368
11
114.85
21
-116.32
0
LINE
8
BLACK
6
CONTINUOUS
10
114.85
20
-116.32
11
114.945
21
-116.272
0
LINE
8
BLACK
6
CONTINUOUS
10
114.945
20
-116.272
11
115.183
21
-116.272
0
LINE
8
BLACK
6
CONTINUOUS
10
115.183
20
-116.272
11
115.278
21
-116.32
0
LINE
8
BLACK
6
CONTINUOUS
10
115.278
20
-116.32
11
115.326
21
-116.368
0
LINE
8
BLACK
6
CONTINUOUS
10
115.326
20
-116.368
11
115.374
21
-116.463
0
LINE
8
BLACK
6
CONTINUOUS
10
115.374
20
-116.463
11
115.374
21
-116.558
0
LINE
8
BLACK
6
CONTINUOUS
10
115.374
20
-116.558
11
115.326
21
-116.701
0
LINE
8
BLACK
6
CONTINUOUS
10
115.326
20
-116.701
11
114.755
21
-117.272
0
LINE
8
BLACK
6
CONTINUOUS
10
114.755
20
-117.272
11
115.374
21
-117.272
0
LINE
8
BLACK
6
CONTINUOUS
10
116.278
20
-116.272
11
115.802
21
-116.272
0
LINE
8
BLACK
6
CONTINUOUS
10
115.802
20
-116.272
11
115.755
21
-116.749
0
LINE
8
BLACK
6
CONTINUOUS
10
115.755
20
-116.749
11
115.802
21
-116.701
0
LINE
8
BLACK
6
CONTINUOUS
10
115.802
20
-116.701
11
115.897
21
-116.653
0
LINE
8
BLACK
6
CONTINUOUS
10
115.897
20
-116.653
11
116.135
21
-116.653
0
LINE
8
BLACK
6
CONTINUOUS
10
116.135
20
-116.653
11
116.231
21
-116.701
0
LINE
8
BLACK
6
CONTINUOUS
10
116.231
20
-116.701
11
116.278
21
-116.749
0
LINE
8
BLACK
6
CONTINUOUS
10
116.278
20
-116.749
11
116.326
21
-116.844
0
LINE
8
BLACK
6
CONTINUOUS
10
116.326
20
-116.844
11
116.326
21
-117.082
0
LINE
8
BLACK
6
CONTINUOUS
10
116.326
20
-117.082
11
116.278
21
-117.177
0
LINE
8
BLACK
6
CONTINUOUS
10
116.278
20
-117.177
11
116.231
21
-117.225
0
LINE
8
BLACK
6
CONTINUOUS
10
116.231
20
-117.225
11
116.135
21
-117.272
0
LINE
8
BLACK
6
CONTINUOUS
10
116.135
20
-117.272
11
115.897
21
-117.272
0
LINE
8
BLACK
6
CONTINUOUS
10
115.897
20
-117.272
11
115.802
21
-117.225
0
LINE
8
BLACK
6
CONTINUOUS
10
115.802
20
-117.225
11
115.755
21
-117.177
0
LINE
8
BLACK
6
CONTINUOUS
10
116.755
20
-117.177
11
116.802
21
-117.225
0
LINE
8
BLACK
6
CONTINUOUS
10
116.802
20
-117.225
11
116.755
21
-117.272
0
LINE
8
BLACK
6
CONTINUOUS
10
116.755
20
-117.272
11
116.707
21
-117.225
0
LINE
8
BLACK
6
CONTINUOUS
10
116.707
20
-117.225
11
116.755
21
-117.177
0
LINE
8
BLACK
6
CONTINUOUS
10
116.755
20
-117.177
11
116.755
21
-117.272
0
LINE
8
BLACK
6
CONTINUOUS
10
117.278
20
-117.272
11
117.469
21
-117.272
0
LINE
8
BLACK
6
CONTINUOUS
10
117.469
20
-117.272
11
117.564
21
-117.225
0
LINE
8
BLACK
6
CONTINUOUS
10
117.564
20
-117.225
11
117.612
21
-117.177
0
LINE
8
BLACK
6
CONTINUOUS
10
117.612
20
-117.177
11
117.707
21
-117.034
0
LINE
8
BLACK
6
CONTINUOUS
10
117.707
20
-117.034
11
117.755
21
-116.844
0
LINE
8
BLACK
6
CONTINUOUS
10
117.755
20
-116.844
11
117.755
21
-116.463
0
LINE
8
BLACK
6
CONTINUOUS
10
117.755
20
-116.463
11
117.707
21
-116.368
0
LINE
8
BLACK
6
CONTINUOUS
10
117.707
20
-116.368
11
117.659
21
-116.32
0
LINE
8
BLACK
6
CONTINUOUS
10
117.659
20
-116.32
11
117.564
21
-116.272
0
LINE
8
BLACK
6
CONTINUOUS
10
117.564
20
-116.272
11
117.374
21
-116.272
0
LINE
8
BLACK
6
CONTINUOUS
10
117.374
20
-116.272
11
117.278
21
-116.32
0
LINE
8
BLACK
6
CONTINUOUS
10
117.278
20
-116.32
11
117.231
21
-116.368
0
LINE
8
BLACK
6
CONTINUOUS
10
117.231
20
-116.368
11
117.183
21
-116.463
0
LINE
8
BLACK
6
CONTINUOUS
10
117.183
20
-116.463
11
117.183
21
-116.701
0
LINE
8
BLACK
6
CONTINUOUS
10
117.183
20
-116.701
11
117.231
21
-116.796
0
LINE
8
BLACK
6
CONTINUOUS
10
117.231
20
-116.796
11
117.278
21
-116.844
0
LINE
8
BLACK
6
CONTINUOUS
10
117.278
20
-116.844
11
117.374
21
-116.891
0
LINE
8
BLACK
6
CONTINUOUS
10
117.374
20
-116.891
11
117.564
21
-116.891
0
LINE
8
BLACK
6
CONTINUOUS
10
117.564
20
-116.891
11
117.659
21
-116.844
0
LINE
8
BLACK
6
CONTINUOUS
10
117.659
20
-116.844
11
117.707
21
-116.796
0
LINE
8
BLACK
6
CONTINUOUS
10
117.707
20
-116.796
11
117.755
21
-116.701
0
LINE
8
BLACK
6
CONTINUOUS
10
118.659
20
-116.272
11
118.183
21
-116.272
0
LINE
8
BLACK
6
CONTINUOUS
10
118.183
20
-116.272
11
118.135
21
-116.749
0
LINE
8
BLACK
6
CONTINUOUS
10
118.135
20
-116.749
11
118.183
21
-116.701
0
LINE
8
BLACK
6
CONTINUOUS
10
118.183
20
-116.701
11
118.278
21
-116.653
0
LINE
8
BLACK
6
CONTINUOUS
10
118.278
20
-116.653
11
118.516
21
-116.653
0
LINE
8
BLACK
6
CONTINUOUS
10
118.516
20
-116.653
11
118.612
21
-116.701
0
LINE
8
BLACK
6
CONTINUOUS
10
118.612
20
-116.701
11
118.659
21
-116.749
0
LINE
8
BLACK
6
CONTINUOUS
10
118.659
20
-116.749
11
118.707
21
-116.844
0
LINE
8
BLACK
6
CONTINUOUS
10
118.707
20
-116.844
11
118.707
21
-117.082
0
LINE
8
BLACK
6
CONTINUOUS
10
118.707
20
-117.082
11
118.659
21
-117.177
0
LINE
8
BLACK
6
CONTINUOUS
10
118.659
20
-117.177
11
118.612
21
-117.225
0
LINE
8
BLACK
6
CONTINUOUS
10
118.612
20
-117.225
11
118.516
21
-117.272
0
LINE
8
BLACK
6
CONTINUOUS
10
118.516
20
-117.272
11
118.278
21
-117.272
0
LINE
8
BLACK
6
CONTINUOUS
10
118.278
20
-117.272
11
118.183
21
-117.225
0
LINE
8
BLACK
6
CONTINUOUS
10
118.183
20
-117.225
11
118.135
21
-117.177
0
LINE
8
BLACK
6
CONTINUOUS
10
119.326
20
-116.272
11
119.421
21
-116.272
0
LINE
8
BLACK
6
CONTINUOUS
10
119.421
20
-116.272
11
119.516
21
-116.32
0
LINE
8
BLACK
6
CONTINUOUS
10
119.516
20
-116.32
11
119.564
21
-116.368
0
LINE
8
BLACK
6
CONTINUOUS
10
119.564
20
-116.368
11
119.612
21
-116.463
0
LINE
8
BLACK
6
CONTINUOUS
10
119.612
20
-116.463
11
119.659
21
-116.653
0
LINE
8
BLACK
6
CONTINUOUS
10
119.659
20
-116.653
11
119.659
21
-116.891
0
LINE
8
BLACK
6
CONTINUOUS
10
119.659
20
-116.891
11
119.612
21
-117.082
0
LINE
8
BLACK
6
CONTINUOUS
10
119.612
20
-117.082
11
119.564
21
-117.177
0
LINE
8
BLACK
6
CONTINUOUS
10
119.564
20
-117.177
11
119.516
21
-117.225
0
LINE
8
BLACK
6
CONTINUOUS
10
119.516
20
-117.225
11
119.421
21
-117.272
0
LINE
8
BLACK
6
CONTINUOUS
10
119.421
20
-117.272
11
119.326
21
-117.272
0
LINE
8
BLACK
6
CONTINUOUS
10
119.326
20
-117.272
11
119.231
21
-117.225
0
LINE
8
BLACK
6
CONTINUOUS
10
119.231
20
-117.225
11
119.183
21
-117.177
0
LINE
8
BLACK
6
CONTINUOUS
10
119.183
20
-117.177
11
119.135
21
-117.082
0
LINE
8
BLACK
6
CONTINUOUS
10
119.135
20
-117.082
11
119.088
21
-116.891
0
LINE
8
BLACK
6
CONTINUOUS
10
119.088
20
-116.891
11
119.088
21
-116.653
0
LINE
8
BLACK
6
CONTINUOUS
10
119.088
20
-116.653
11
119.135
21
-116.463
0
LINE
8
BLACK
6
CONTINUOUS
10
119.135
20
-116.463
11
119.183
21
-116.368
0
LINE
8
BLACK
6
CONTINUOUS
10
119.183
20
-116.368
11
119.231
21
-116.32
0
LINE
8
BLACK
6
CONTINUOUS
10
119.231
20
-116.32
11
119.326
21
-116.272
0
LINE
8
BLACK
6
CONTINUOUS
10
120.85
20
-117.272
11
120.85
21
-116.606
0
LINE
8
BLACK
6
CONTINUOUS
10
120.85
20
-116.701
11
120.897
21
-116.653
0
LINE
8
BLACK
6
CONTINUOUS
10
120.897
20
-116.653
11
120.993
21
-116.606
0
LINE
8
BLACK
6
CONTINUOUS
10
120.993
20
-116.606
11
121.135
21
-116.606
0
LINE
8
BLACK
6
CONTINUOUS
10
121.135
20
-116.606
11
121.231
21
-116.653
0
LINE
8
BLACK
6
CONTINUOUS
10
121.231
20
-116.653
11
121.278
21
-116.749
0
LINE
8
BLACK
6
CONTINUOUS
10
121.278
20
-116.749
11
121.278
21
-117.272
0
LINE
8
BLACK
6
CONTINUOUS
10
121.278
20
-116.749
11
121.326
21
-116.653
0
LINE
8
BLACK
6
CONTINUOUS
10
121.326
20
-116.653
11
121.421
21
-116.606
0
LINE
8
BLACK
6
CONTINUOUS
10
121.421
20
-116.606
11
121.564
21
-116.606
0
LINE
8
BLACK
6
CONTINUOUS
10
121.564
20
-116.606
11
121.659
21
-116.653
0
LINE
8
BLACK
6
CONTINUOUS
10
121.659
20
-116.653
11
121.707
21
-116.749
0
LINE
8
BLACK
6
CONTINUOUS
10
121.707
20
-116.749
11
121.707
21
-117.272
0
LINE
8
BLACK
6
CONTINUOUS
10
122.183
20
-117.272
11
122.183
21
-116.606
0
LINE
8
BLACK
6
CONTINUOUS
10
122.183
20
-116.701
11
122.231
21
-116.653
0
LINE
8
BLACK
6
CONTINUOUS
10
122.231
20
-116.653
11
122.326
21
-116.606
0
LINE
8
BLACK
6
CONTINUOUS
10
122.326
20
-116.606
11
122.469
21
-116.606
0
LINE
8
BLACK
6
CONTINUOUS
10
122.469
20
-116.606
11
122.564
21
-116.653
0
LINE
8
BLACK
6
CONTINUOUS
10
122.564
20
-116.653
11
122.612
21
-116.749
0
LINE
8
BLACK
6
CONTINUOUS
10
122.612
20
-116.749
11
122.612
21
-117.272
0
LINE
8
BLACK
6
CONTINUOUS
10
122.612
20
-116.749
11
122.659
21
-116.653
0
LINE
8
BLACK
6
CONTINUOUS
10
122.659
20
-116.653
11
122.755
21
-116.606
0
LINE
8
BLACK
6
CONTINUOUS
10
122.755
20
-116.606
11
122.897
21
-116.606
0
LINE
8
BLACK
6
CONTINUOUS
10
122.897
20
-116.606
11
122.993
21
-116.653
0
LINE
8
BLACK
6
CONTINUOUS
10
122.993
20
-116.653
11
123.04
21
-116.749
0
LINE
8
BLACK
6
CONTINUOUS
10
123.04
20
-116.749
11
123.04
21
-117.272
0
LINE
8
BLACK
6
CONTINUOUS
10
105.97
20
-115.62
11
131.92
21
-115.62
0
LINE
8
BLACK
6
CONTINUOUS
10
105.97
20
-114.825
11
105.97
21
-116.206
0
LINE
8
BLACK
6
CONTINUOUS
10
131.92
20
-114.825
11
131.92
21
-116.206
0
LINE
8
BLACK
6
CONTINUOUS
10
131.92
20
-115.62
11
130.793
21
-116.206
0
LINE
8
BLACK
6
CONTINUOUS
10
131.92
20
-115.62
11
130.793
21
-115.034
0
LINE
8
BLACK
6
CONTINUOUS
10
105.97
20
-115.62
11
107.097
21
-116.206
0
LINE
8
BLACK
6
CONTINUOUS
10
105.97
20
-115.62
11
107.097
21
-115.034
0
LINE
8
BLACK
6
CONTINUOUS
10
-23.3579
20
-116.968
11
-23.3102
21
-116.92
0
LINE
8
BLACK
6
CONTINUOUS
10
-23.3102
20
-116.92
11
-23.215
21
-116.872
0
LINE
8
BLACK
6
CONTINUOUS
10
-23.215
20
-116.872
11
-22.9769
21
-116.872
0
LINE
8
BLACK
6
CONTINUOUS
10
-22.9769
20
-116.872
11
-22.8817
21
-116.92
0
LINE
8
BLACK
6
CONTINUOUS
10
-22.8817
20
-116.92
11
-22.834
21
-116.968
0
LINE
8
BLACK
6
CONTINUOUS
10
-22.834
20
-116.968
11
-22.7864
21
-117.063
0
LINE
8
BLACK
6
CONTINUOUS
10
-22.7864
20
-117.063
11
-22.7864
21
-117.158
0
LINE
8
BLACK
6
CONTINUOUS
10
-22.7864
20
-117.158
11
-22.834
21
-117.301
0
LINE
8
BLACK
6
CONTINUOUS
10
-22.834
20
-117.301
11
-23.4055
21
-117.872
0
LINE
8
BLACK
6
CONTINUOUS
10
-23.4055
20
-117.872
11
-22.7864
21
-117.872
0
LINE
8
BLACK
6
CONTINUOUS
10
-21.8817
20
-116.872
11
-22.3579
21
-116.872
0
LINE
8
BLACK
6
CONTINUOUS
10
-22.3579
20
-116.872
11
-22.4055
21
-117.349
0
LINE
8
BLACK
6
CONTINUOUS
10
-22.4055
20
-117.349
11
-22.3579
21
-117.301
0
LINE
8
BLACK
6
CONTINUOUS
10
-22.3579
20
-117.301
11
-22.2626
21
-117.253
0
LINE
8
BLACK
6
CONTINUOUS
10
-22.2626
20
-117.253
11
-22.0245
21
-117.253
0
LINE
8
BLACK
6
CONTINUOUS
10
-22.0245
20
-117.253
11
-21.9293
21
-117.301
0
LINE
8
BLACK
6
CONTINUOUS
10
-21.9293
20
-117.301
11
-21.8817
21
-117.349
0
LINE
8
BLACK
6
CONTINUOUS
10
-21.8817
20
-117.349
11
-21.834
21
-117.444
0
LINE
8
BLACK
6
CONTINUOUS
10
-21.834
20
-117.444
11
-21.834
21
-117.682
0
LINE
8
BLACK
6
CONTINUOUS
10
-21.834
20
-117.682
11
-21.8817
21
-117.777
0
LINE
8
BLACK
6
CONTINUOUS
10
-21.8817
20
-117.777
11
-21.9293
21
-117.825
0
LINE
8
BLACK
6
CONTINUOUS
10
-21.9293
20
-117.825
11
-22.0245
21
-117.872
0
LINE
8
BLACK
6
CONTINUOUS
10
-22.0245
20
-117.872
11
-22.2626
21
-117.872
0
LINE
8
BLACK
6
CONTINUOUS
10
-22.2626
20
-117.872
11
-22.3579
21
-117.825
0
LINE
8
BLACK
6
CONTINUOUS
10
-22.3579
20
-117.825
11
-22.4055
21
-117.777
0
LINE
8
BLACK
6
CONTINUOUS
10
-21.4055
20
-117.777
11
-21.3579
21
-117.825
0
LINE
8
BLACK
6
CONTINUOUS
10
-21.3579
20
-117.825
11
-21.4055
21
-117.872
0
LINE
8
BLACK
6
CONTINUOUS
10
-21.4055
20
-117.872
11
-21.4531
21
-117.825
0
LINE
8
BLACK
6
CONTINUOUS
10
-21.4531
20
-117.825
11
-21.4055
21
-117.777
0
LINE
8
BLACK
6
CONTINUOUS
10
-21.4055
20
-117.777
11
-21.4055
21
-117.872
0
LINE
8
BLACK
6
CONTINUOUS
10
-20.8817
20
-117.872
11
-20.6912
21
-117.872
0
LINE
8
BLACK
6
CONTINUOUS
10
-20.6912
20
-117.872
11
-20.596
21
-117.825
0
LINE
8
BLACK
6
CONTINUOUS
10
-20.596
20
-117.825
11
-20.5483
21
-117.777
0
LINE
8
BLACK
6
CONTINUOUS
10
-20.5483
20
-117.777
11
-20.4531
21
-117.634
0
LINE
8
BLACK
6
CONTINUOUS
10
-20.4531
20
-117.634
11
-20.4055
21
-117.444
0
LINE
8
BLACK
6
CONTINUOUS
10
-20.4055
20
-117.444
11
-20.4055
21
-117.063
0
LINE
8
BLACK
6
CONTINUOUS
10
-20.4055
20
-117.063
11
-20.4531
21
-116.968
0
LINE
8
BLACK
6
CONTINUOUS
10
-20.4531
20
-116.968
11
-20.5007
21
-116.92
0
LINE
8
BLACK
6
CONTINUOUS
10
-20.5007
20
-116.92
11
-20.596
21
-116.872
0
LINE
8
BLACK
6
CONTINUOUS
10
-20.596
20
-116.872
11
-20.7864
21
-116.872
0
LINE
8
BLACK
6
CONTINUOUS
10
-20.7864
20
-116.872
11
-20.8817
21
-116.92
0
LINE
8
BLACK
6
CONTINUOUS
10
-20.8817
20
-116.92
11
-20.9293
21
-116.968
0
LINE
8
BLACK
6
CONTINUOUS
10
-20.9293
20
-116.968
11
-20.9769
21
-117.063
0
LINE
8
BLACK
6
CONTINUOUS
10
-20.9769
20
-117.063
11
-20.9769
21
-117.301
0
LINE
8
BLACK
6
CONTINUOUS
10
-20.9769
20
-117.301
11
-20.9293
21
-117.396
0
LINE
8
BLACK
6
CONTINUOUS
10
-20.9293
20
-117.396
11
-20.8817
21
-117.444
0
LINE
8
BLACK
6
CONTINUOUS
10
-20.8817
20
-117.444
11
-20.7864
21
-117.491
0
LINE
8
BLACK
6
CONTINUOUS
10
-20.7864
20
-117.491
11
-20.596
21
-117.491
0
LINE
8
BLACK
6
CONTINUOUS
10
-20.596
20
-117.491
11
-20.5007
21
-117.444
0
LINE
8
BLACK
6
CONTINUOUS
10
-20.5007
20
-117.444
11
-20.4531
21
-117.396
0
LINE
8
BLACK
6
CONTINUOUS
10
-20.4531
20
-117.396
11
-20.4055
21
-117.301
0
LINE
8
BLACK
6
CONTINUOUS
10
-19.5007
20
-116.872
11
-19.9769
21
-116.872
0
LINE
8
BLACK
6
CONTINUOUS
10
-19.9769
20
-116.872
11
-20.0245
21
-117.349
0
LINE
8
BLACK
6
CONTINUOUS
10
-20.0245
20
-117.349
11
-19.9769
21
-117.301
0
LINE
8
BLACK
6
CONTINUOUS
10
-19.9769
20
-117.301
11
-19.8817
21
-117.253
0
LINE
8
BLACK
6
CONTINUOUS
10
-19.8817
20
-117.253
11
-19.6436
21
-117.253
0
LINE
8
BLACK
6
CONTINUOUS
10
-19.6436
20
-117.253
11
-19.5483
21
-117.301
0
LINE
8
BLACK
6
CONTINUOUS
10
-19.5483
20
-117.301
11
-19.5007
21
-117.349
0
LINE
8
BLACK
6
CONTINUOUS
10
-19.5007
20
-117.349
11
-19.4531
21
-117.444
0
LINE
8
BLACK
6
CONTINUOUS
10
-19.4531
20
-117.444
11
-19.4531
21
-117.682
0
LINE
8
BLACK
6
CONTINUOUS
10
-19.4531
20
-117.682
11
-19.5007
21
-117.777
0
LINE
8
BLACK
6
CONTINUOUS
10
-19.5007
20
-117.777
11
-19.5483
21
-117.825
0
LINE
8
BLACK
6
CONTINUOUS
10
-19.5483
20
-117.825
11
-19.6436
21
-117.872
0
LINE
8
BLACK
6
CONTINUOUS
10
-19.6436
20
-117.872
11
-19.8817
21
-117.872
0
LINE
8
BLACK
6
CONTINUOUS
10
-19.8817
20
-117.872
11
-19.9769
21
-117.825
0
LINE
8
BLACK
6
CONTINUOUS
10
-19.9769
20
-117.825
11
-20.0245
21
-117.777
0
LINE
8
BLACK
6
CONTINUOUS
10
-18.834
20
-116.872
11
-18.7388
21
-116.872
0
LINE
8
BLACK
6
CONTINUOUS
10
-18.7388
20
-116.872
11
-18.6436
21
-116.92
0
LINE
8
BLACK
6
CONTINUOUS
10
-18.6436
20
-116.92
11
-18.596
21
-116.968
0
LINE
8
BLACK
6
CONTINUOUS
10
-18.596
20
-116.968
11
-18.5483
21
-117.063
0
LINE
8
BLACK
6
CONTINUOUS
10
-18.5483
20
-117.063
11
-18.5007
21
-117.253
0
LINE
8
BLACK
6
CONTINUOUS
10
-18.5007
20
-117.253
11
-18.5007
21
-117.491
0
LINE
8
BLACK
6
CONTINUOUS
10
-18.5007
20
-117.491
11
-18.5483
21
-117.682
0
LINE
8
BLACK
6
CONTINUOUS
10
-18.5483
20
-117.682
11
-18.596
21
-117.777
0
LINE
8
BLACK
6
CONTINUOUS
10
-18.596
20
-117.777
11
-18.6436
21
-117.825
0
LINE
8
BLACK
6
CONTINUOUS
10
-18.6436
20
-117.825
11
-18.7388
21
-117.872
0
LINE
8
BLACK
6
CONTINUOUS
10
-18.7388
20
-117.872
11
-18.834
21
-117.872
0
LINE
8
BLACK
6
CONTINUOUS
10
-18.834
20
-117.872
11
-18.9293
21
-117.825
0
LINE
8
BLACK
6
CONTINUOUS
10
-18.9293
20
-117.825
11
-18.9769
21
-117.777
0
LINE
8
BLACK
6
CONTINUOUS
10
-18.9769
20
-117.777
11
-19.0245
21
-117.682
0
LINE
8
BLACK
6
CONTINUOUS
10
-19.0245
20
-117.682
11
-19.0721
21
-117.491
0
LINE
8
BLACK
6
CONTINUOUS
10
-19.0721
20
-117.491
11
-19.0721
21
-117.253
0
LINE
8
BLACK
6
CONTINUOUS
10
-19.0721
20
-117.253
11
-19.0245
21
-117.063
0
LINE
8
BLACK
6
CONTINUOUS
10
-19.0245
20
-117.063
11
-18.9769
21
-116.968
0
LINE
8
BLACK
6
CONTINUOUS
10
-18.9769
20
-116.968
11
-18.9293
21
-116.92
0
LINE
8
BLACK
6
CONTINUOUS
10
-18.9293
20
-116.92
11
-18.834
21
-116.872
0
LINE
8
BLACK
6
CONTINUOUS
10
-17.3102
20
-117.872
11
-17.3102
21
-117.206
0
LINE
8
BLACK
6
CONTINUOUS
10
-17.3102
20
-117.301
11
-17.2626
21
-117.253
0
LINE
8
BLACK
6
CONTINUOUS
10
-17.2626
20
-117.253
11
-17.1674
21
-117.206
0
LINE
8
BLACK
6
CONTINUOUS
10
-17.1674
20
-117.206
11
-17.0245
21
-117.206
0
LINE
8
BLACK
6
CONTINUOUS
10
-17.0245
20
-117.206
11
-16.9293
21
-117.253
0
LINE
8
BLACK
6
CONTINUOUS
10
-16.9293
20
-117.253
11
-16.8817
21
-117.349
0
LINE
8
BLACK
6
CONTINUOUS
10
-16.8817
20
-117.349
11
-16.8817
21
-117.872
0
LINE
8
BLACK
6
CONTINUOUS
10
-16.8817
20
-117.349
11
-16.834
21
-117.253
0
LINE
8
BLACK
6
CONTINUOUS
10
-16.834
20
-117.253
11
-16.7388
21
-117.206
0
LINE
8
BLACK
6
CONTINUOUS
10
-16.7388
20
-117.206
11
-16.596
21
-117.206
0
LINE
8
BLACK
6
CONTINUOUS
10
-16.596
20
-117.206
11
-16.5007
21
-117.253
0
LINE
8
BLACK
6
CONTINUOUS
10
-16.5007
20
-117.253
11
-16.4531
21
-117.349
0
LINE
8
BLACK
6
CONTINUOUS
10
-16.4531
20
-117.349
11
-16.4531
21
-117.872
0
LINE
8
BLACK
6
CONTINUOUS
10
-15.9769
20
-117.872
11
-15.9769
21
-117.206
0
LINE
8
BLACK
6
CONTINUOUS
10
-15.9769
20
-117.301
11
-15.9293
21
-117.253
0
LINE
8
BLACK
6
CONTINUOUS
10
-15.9293
20
-117.253
11
-15.834
21
-117.206
0
LINE
8
BLACK
6
CONTINUOUS
10
-15.834
20
-117.206
11
-15.6912
21
-117.206
0
LINE
8
BLACK
6
CONTINUOUS
10
-15.6912
20
-117.206
11
-15.596
21
-117.253
0
LINE
8
BLACK
6
CONTINUOUS
10
-15.596
20
-117.253
11
-15.5483
21
-117.349
0
LINE
8
BLACK
6
CONTINUOUS
10
-15.5483
20
-117.349
11
-15.5483
21
-117.872
0
LINE
8
BLACK
6
CONTINUOUS
10
-15.5483
20
-117.349
11
-15.5007
21
-117.253
0
LINE
8
BLACK
6
CONTINUOUS
10
-15.5007
20
-117.253
11
-15.4055
21
-117.206
0
LINE
8
BLACK
6
CONTINUOUS
10
-15.4055
20
-117.206
11
-15.2626
21
-117.206
0
LINE
8
BLACK
6
CONTINUOUS
10
-15.2626
20
-117.206
11
-15.1674
21
-117.253
0
LINE
8
BLACK
6
CONTINUOUS
10
-15.1674
20
-117.253
11
-15.1198
21
-117.349
0
LINE
8
BLACK
6
CONTINUOUS
10
-15.1198
20
-117.349
11
-15.1198
21
-117.872
0
LINE
8
BLACK
6
CONTINUOUS
10
-32.19
20
-116.22
11
-6.24
21
-116.22
0
LINE
8
BLACK
6
CONTINUOUS
10
-32.19
20
-114.825
11
-32.19
21
-116.806
0
LINE
8
BLACK
6
CONTINUOUS
10
-6.24
20
-114.825
11
-6.24
21
-116.806
0
LINE
8
BLACK
6
CONTINUOUS
10
-6.24
20
-116.22
11
-7.3665
21
-116.806
0
LINE
8
BLACK
6
CONTINUOUS
10
-6.24
20
-116.22
11
-7.3665
21
-115.634
0
LINE
8
BLACK
6
CONTINUOUS
10
-32.19
20
-116.22
11
-31.0635
21
-116.806
0
LINE
8
BLACK
6
CONTINUOUS
10
-32.19
20
-116.22
11
-31.0635
21
-115.634
0
LINE
8
BLACK
6
CONTINUOUS
10
-37.2476
20
-65.5251
11
-37.2476
21
-66.0965
0
LINE
8
BLACK
6
CONTINUOUS
10
-37.2476
20
-65.8108
11
-38.2476
21
-65.8108
0
LINE
8
BLACK
6
CONTINUOUS
10
-38.2476
20
-65.8108
11
-38.1048
21
-65.9061
0
LINE
8
BLACK
6
CONTINUOUS
10
-38.1048
20
-65.9061
11
-38.0095
21
-66.0013
0
LINE
8
BLACK
6
CONTINUOUS
10
-38.0095
20
-66.0013
11
-37.9619
21
-66.0965
0
LINE
8
BLACK
6
CONTINUOUS
10
-38.2476
20
-64.9061
11
-38.2476
21
-64.8108
0
LINE
8
BLACK
6
CONTINUOUS
10
-38.2476
20
-64.8108
11
-38.2
21
-64.7156
0
LINE
8
BLACK
6
CONTINUOUS
10
-38.2
20
-64.7156
11
-38.1524
21
-64.668
0
LINE
8
BLACK
6
CONTINUOUS
10
-38.1524
20
-64.668
11
-38.0571
21
-64.6204
0
LINE
8
BLACK
6
CONTINUOUS
10
-38.0571
20
-64.6204
11
-37.8667
21
-64.5727
0
LINE
8
BLACK
6
CONTINUOUS
10
-37.8667
20
-64.5727
11
-37.6286
21
-64.5727
0
LINE
8
BLACK
6
CONTINUOUS
10
-37.6286
20
-64.5727
11
-37.4381
21
-64.6204
0
LINE
8
BLACK
6
CONTINUOUS
10
-37.4381
20
-64.6204
11
-37.3429
21
-64.668
0
LINE
8
BLACK
6
CONTINUOUS
10
-37.3429
20
-64.668
11
-37.2952
21
-64.7156
0
LINE
8
BLACK
6
CONTINUOUS
10
-37.2952
20
-64.7156
11
-37.2476
21
-64.8108
0
LINE
8
BLACK
6
CONTINUOUS
10
-37.2476
20
-64.8108
11
-37.2476
21
-64.9061
0
LINE
8
BLACK
6
CONTINUOUS
10
-37.2476
20
-64.9061
11
-37.2952
21
-65.0013
0
LINE
8
BLACK
6
CONTINUOUS
10
-37.2952
20
-65.0013
11
-37.3429
21
-65.0489
0
LINE
8
BLACK
6
CONTINUOUS
10
-37.3429
20
-65.0489
11
-37.4381
21
-65.0965
0
LINE
8
BLACK
6
CONTINUOUS
10
-37.4381
20
-65.0965
11
-37.6286
21
-65.1442
0
LINE
8
BLACK
6
CONTINUOUS
10
-37.6286
20
-65.1442
11
-37.8667
21
-65.1442
0
LINE
8
BLACK
6
CONTINUOUS
10
-37.8667
20
-65.1442
11
-38.0571
21
-65.0965
0
LINE
8
BLACK
6
CONTINUOUS
10
-38.0571
20
-65.0965
11
-38.1524
21
-65.0489
0
LINE
8
BLACK
6
CONTINUOUS
10
-38.1524
20
-65.0489
11
-38.2
21
-65.0013
0
LINE
8
BLACK
6
CONTINUOUS
10
-38.2
20
-65.0013
11
-38.2476
21
-64.9061
0
LINE
8
BLACK
6
CONTINUOUS
10
-38.2476
20
-64.2394
11
-38.2476
21
-63.6204
0
LINE
8
BLACK
6
CONTINUOUS
10
-38.2476
20
-63.6204
11
-37.8667
21
-63.9537
0
LINE
8
BLACK
6
CONTINUOUS
10
-37.8667
20
-63.9537
11
-37.8667
21
-63.8108
0
LINE
8
BLACK
6
CONTINUOUS
10
-37.8667
20
-63.8108
11
-37.819
21
-63.7156
0
LINE
8
BLACK
6
CONTINUOUS
10
-37.819
20
-63.7156
11
-37.7714
21
-63.668
0
LINE
8
BLACK
6
CONTINUOUS
10
-37.7714
20
-63.668
11
-37.6762
21
-63.6204
0
LINE
8
BLACK
6
CONTINUOUS
10
-37.6762
20
-63.6204
11
-37.4381
21
-63.6204
0
LINE
8
BLACK
6
CONTINUOUS
10
-37.4381
20
-63.6204
11
-37.3429
21
-63.668
0
LINE
8
BLACK
6
CONTINUOUS
10
-37.3429
20
-63.668
11
-37.2952
21
-63.7156
0
LINE
8
BLACK
6
CONTINUOUS
10
-37.2952
20
-63.7156
11
-37.2476
21
-63.8108
0
LINE
8
BLACK
6
CONTINUOUS
10
-37.2476
20
-63.8108
11
-37.2476
21
-64.0965
0
LINE
8
BLACK
6
CONTINUOUS
10
-37.2476
20
-64.0965
11
-37.2952
21
-64.1918
0
LINE
8
BLACK
6
CONTINUOUS
10
-37.2952
20
-64.1918
11
-37.3429
21
-64.2394
0
LINE
8
BLACK
6
CONTINUOUS
10
-37.3429
20
-63.1918
11
-37.2952
21
-63.1442
0
LINE
8
BLACK
6
CONTINUOUS
10
-37.2952
20
-63.1442
11
-37.2476
21
-63.1918
0
LINE
8
BLACK
6
CONTINUOUS
10
-37.2476
20
-63.1918
11
-37.2952
21
-63.2394
0
LINE
8
BLACK
6
CONTINUOUS
10
-37.2952
20
-63.2394
11
-37.3429
21
-63.1918
0
LINE
8
BLACK
6
CONTINUOUS
10
-37.3429
20
-63.1918
11
-37.2476
21
-63.1918
0
LINE
8
BLACK
6
CONTINUOUS
10
-37.819
20
-62.5727
11
-37.8667
21
-62.668
0
LINE
8
BLACK
6
CONTINUOUS
10
-37.8667
20
-62.668
11
-37.9143
21
-62.7156
0
LINE
8
BLACK
6
CONTINUOUS
10
-37.9143
20
-62.7156
11
-38.0095
21
-62.7632
0
LINE
8
BLACK
6
CONTINUOUS
10
-38.0095
20
-62.7632
11
-38.0571
21
-62.7632
0
LINE
8
BLACK
6
CONTINUOUS
10
-38.0571
20
-62.7632
11
-38.1524
21
-62.7156
0
LINE
8
BLACK
6
CONTINUOUS
10
-38.1524
20
-62.7156
11
-38.2
21
-62.668
0
LINE
8
BLACK
6
CONTINUOUS
10
-38.2
20
-62.668
11
-38.2476
21
-62.5727
0
LINE
8
BLACK
6
CONTINUOUS
10
-38.2476
20
-62.5727
11
-38.2476
21
-62.3823
0
LINE
8
BLACK
6
CONTINUOUS
10
-38.2476
20
-62.3823
11
-38.2
21
-62.287
0
LINE
8
BLACK
6
CONTINUOUS
10
-38.2
20
-62.287
11
-38.1524
21
-62.2394
0
LINE
8
BLACK
6
CONTINUOUS
10
-38.1524
20
-62.2394
11
-38.0571
21
-62.1918
0
LINE
8
BLACK
6
CONTINUOUS
10
-38.0571
20
-62.1918
11
-38.0095
21
-62.1918
0
LINE
8
BLACK
6
CONTINUOUS
10
-38.0095
20
-62.1918
11
-37.9143
21
-62.2394
0
LINE
8
BLACK
6
CONTINUOUS
10
-37.9143
20
-62.2394
11
-37.8667
21
-62.287
0
LINE
8
BLACK
6
CONTINUOUS
10
-37.8667
20
-62.287
11
-37.819
21
-62.3823
0
LINE
8
BLACK
6
CONTINUOUS
10
-37.819
20
-62.3823
11
-37.819
21
-62.5727
0
LINE
8
BLACK
6
CONTINUOUS
10
-37.819
20
-62.5727
11
-37.7714
21
-62.668
0
LINE
8
BLACK
6
CONTINUOUS
10
-37.7714
20
-62.668
11
-37.7238
21
-62.7156
0
LINE
8
BLACK
6
CONTINUOUS
10
-37.7238
20
-62.7156
11
-37.6286
21
-62.7632
0
LINE
8
BLACK
6
CONTINUOUS
10
-37.6286
20
-62.7632
11
-37.4381
21
-62.7632
0
LINE
8
BLACK
6
CONTINUOUS
10
-37.4381
20
-62.7632
11
-37.3429
21
-62.7156
0
LINE
8
BLACK
6
CONTINUOUS
10
-37.3429
20
-62.7156
11
-37.2952
21
-62.668
0
LINE
8
BLACK
6
CONTINUOUS
10
-37.2952
20
-62.668
11
-37.2476
21
-62.5727
0
LINE
8
BLACK
6
CONTINUOUS
10
-37.2476
20
-62.5727
11
-37.2476
21
-62.3823
0
LINE
8
BLACK
6
CONTINUOUS
10
-37.2476
20
-62.3823
11
-37.2952
21
-62.287
0
LINE
8
BLACK
6
CONTINUOUS
10
-37.2952
20
-62.287
11
-37.3429
21
-62.2394
0
LINE
8
BLACK
6
CONTINUOUS
10
-37.3429
20
-62.2394
11
-37.4381
21
-62.1918
0
LINE
8
BLACK
6
CONTINUOUS
10
-37.4381
20
-62.1918
11
-37.6286
21
-62.1918
0
LINE
8
BLACK
6
CONTINUOUS
10
-37.6286
20
-62.1918
11
-37.7238
21
-62.2394
0
LINE
8
BLACK
6
CONTINUOUS
10
-37.7238
20
-62.2394
11
-37.7714
21
-62.287
0
LINE
8
BLACK
6
CONTINUOUS
10
-37.7714
20
-62.287
11
-37.819
21
-62.3823
0
LINE
8
BLACK
6
CONTINUOUS
10
-38.2476
20
-61.5727
11
-38.2476
21
-61.4775
0
LINE
8
BLACK
6
CONTINUOUS
10
-38.2476
20
-61.4775
11
-38.2
21
-61.3823
0
LINE
8
BLACK
6
CONTINUOUS
10
-38.2
20
-61.3823
11
-38.1524
21
-61.3346
0
LINE
8
BLACK
6
CONTINUOUS
10
-38.1524
20
-61.3346
11
-38.0571
21
-61.287
0
LINE
8
BLACK
6
CONTINUOUS
10
-38.0571
20
-61.287
11
-37.8667
21
-61.2394
0
LINE
8
BLACK
6
CONTINUOUS
10
-37.8667
20
-61.2394
11
-37.6286
21
-61.2394
0
LINE
8
BLACK
6
CONTINUOUS
10
-37.6286
20
-61.2394
11
-37.4381
21
-61.287
0
LINE
8
BLACK
6
CONTINUOUS
10
-37.4381
20
-61.287
11
-37.3429
21
-61.3346
0
LINE
8
BLACK
6
CONTINUOUS
10
-37.3429
20
-61.3346
11
-37.2952
21
-61.3823
0
LINE
8
BLACK
6
CONTINUOUS
10
-37.2952
20
-61.3823
11
-37.2476
21
-61.4775
0
LINE
8
BLACK
6
CONTINUOUS
10
-37.2476
20
-61.4775
11
-37.2476
21
-61.5727
0
LINE
8
BLACK
6
CONTINUOUS
10
-37.2476
20
-61.5727
11
-37.2952
21
-61.668
0
LINE
8
BLACK
6
CONTINUOUS
10
-37.2952
20
-61.668
11
-37.3429
21
-61.7156
0
LINE
8
BLACK
6
CONTINUOUS
10
-37.3429
20
-61.7156
11
-37.4381
21
-61.7632
0
LINE
8
BLACK
6
CONTINUOUS
10
-37.4381
20
-61.7632
11
-37.6286
21
-61.8108
0
LINE
8
BLACK
6
CONTINUOUS
10
-37.6286
20
-61.8108
11
-37.8667
21
-61.8108
0
LINE
8
BLACK
6
CONTINUOUS
10
-37.8667
20
-61.8108
11
-38.0571
21
-61.7632
0
LINE
8
BLACK
6
CONTINUOUS
10
-38.0571
20
-61.7632
11
-38.1524
21
-61.7156
0
LINE
8
BLACK
6
CONTINUOUS
10
-38.1524
20
-61.7156
11
-38.2
21
-61.668
0
LINE
8
BLACK
6
CONTINUOUS
10
-38.2
20
-61.668
11
-38.2476
21
-61.5727
0
LINE
8
BLACK
6
CONTINUOUS
10
-38.2476
20
-60.3346
11
-38.2476
21
-60.8108
0
LINE
8
BLACK
6
CONTINUOUS
10
-38.2476
20
-60.8108
11
-37.7714
21
-60.8585
0
LINE
8
BLACK
6
CONTINUOUS
10
-37.7714
20
-60.8585
11
-37.819
21
-60.8108
0
LINE
8
BLACK
6
CONTINUOUS
10
-37.819
20
-60.8108
11
-37.8667
21
-60.7156
0
LINE
8
BLACK
6
CONTINUOUS
10
-37.8667
20
-60.7156
11
-37.8667
21
-60.4775
0
LINE
8
BLACK
6
CONTINUOUS
10
-37.8667
20
-60.4775
11
-37.819
21
-60.3823
0
LINE
8
BLACK
6
CONTINUOUS
10
-37.819
20
-60.3823
11
-37.7714
21
-60.3346
0
LINE
8
BLACK
6
CONTINUOUS
10
-37.7714
20
-60.3346
11
-37.6762
21
-60.287
0
LINE
8
BLACK
6
CONTINUOUS
10
-37.6762
20
-60.287
11
-37.4381
21
-60.287
0
LINE
8
BLACK
6
CONTINUOUS
10
-37.4381
20
-60.287
11
-37.3429
21
-60.3346
0
LINE
8
BLACK
6
CONTINUOUS
10
-37.3429
20
-60.3346
11
-37.2952
21
-60.3823
0
LINE
8
BLACK
6
CONTINUOUS
10
-37.2952
20
-60.3823
11
-37.2476
21
-60.4775
0
LINE
8
BLACK
6
CONTINUOUS
10
-37.2476
20
-60.4775
11
-37.2476
21
-60.7156
0
LINE
8
BLACK
6
CONTINUOUS
10
-37.2476
20
-60.7156
11
-37.2952
21
-60.8108
0
LINE
8
BLACK
6
CONTINUOUS
10
-37.2952
20
-60.8108
11
-37.3429
21
-60.8585
0
LINE
8
BLACK
6
CONTINUOUS
10
-37.2476
20
-59.0965
11
-37.9143
21
-59.0965
0
LINE
8
BLACK
6
CONTINUOUS
10
-37.819
20
-59.0965
11
-37.8667
21
-59.0489
0
LINE
8
BLACK
6
CONTINUOUS
10
-37.8667
20
-59.0489
11
-37.9143
21
-58.9537
0
LINE
8
BLACK
6
CONTINUOUS
10
-37.9143
20
-58.9537
11
-37.9143
21
-58.8108
0
LINE
8
BLACK
6
CONTINUOUS
10
-37.9143
20
-58.8108
11
-37.8667
21
-58.7156
0
LINE
8
BLACK
6
CONTINUOUS
10
-37.8667
20
-58.7156
11
-37.7714
21
-58.668
0
LINE
8
BLACK
6
CONTINUOUS
10
-37.7714
20
-58.668
11
-37.2476
21
-58.668
0
LINE
8
BLACK
6
CONTINUOUS
10
-37.7714
20
-58.668
11
-37.8667
21
-58.6204
0
LINE
8
BLACK
6
CONTINUOUS
10
-37.8667
20
-58.6204
11
-37.9143
21
-58.5251
0
LINE
8
BLACK
6
CONTINUOUS
10
-37.9143
20
-58.5251
11
-37.9143
21
-58.3823
0
LINE
8
BLACK
6
CONTINUOUS
10
-37.9143
20
-58.3823
11
-37.8667
21
-58.287
0
LINE
8
BLACK
6
CONTINUOUS
10
-37.8667
20
-58.287
11
-37.7714
21
-58.2394
0
LINE
8
BLACK
6
CONTINUOUS
10
-37.7714
20
-58.2394
11
-37.2476
21
-58.2394
0
LINE
8
BLACK
6
CONTINUOUS
10
-37.2476
20
-57.7632
11
-37.9143
21
-57.7632
0
LINE
8
BLACK
6
CONTINUOUS
10
-37.819
20
-57.7632
11
-37.8667
21
-57.7156
0
LINE
8
BLACK
6
CONTINUOUS
10
-37.8667
20
-57.7156
11
-37.9143
21
-57.6204
0
LINE
8
BLACK
6
CONTINUOUS
10
-37.9143
20
-57.6204
11
-37.9143
21
-57.4775
0
LINE
8
BLACK
6
CONTINUOUS
10
-37.9143
20
-57.4775
11
-37.8667
21
-57.3823
0
LINE
8
BLACK
6
CONTINUOUS
10
-37.8667
20
-57.3823
11
-37.7714
21
-57.3346
0
LINE
8
BLACK
6
CONTINUOUS
10
-37.7714
20
-57.3346
11
-37.2476
21
-57.3346
0
LINE
8
BLACK
6
CONTINUOUS
10
-37.7714
20
-57.3346
11
-37.8667
21
-57.287
0
LINE
8
BLACK
6
CONTINUOUS
10
-37.8667
20
-57.287
11
-37.9143
21
-57.1918
0
LINE
8
BLACK
6
CONTINUOUS
10
-37.9143
20
-57.1918
11
-37.9143
21
-57.0489
0
LINE
8
BLACK
6
CONTINUOUS
10
-37.9143
20
-57.0489
11
-37.8667
21
-56.9537
0
LINE
8
BLACK
6
CONTINUOUS
10
-37.8667
20
-56.9537
11
-37.7714
21
-56.9061
0
LINE
8
BLACK
6
CONTINUOUS
10
-37.7714
20
-56.9061
11
-37.2476
21
-56.9061
0
LINE
8
BLACK
6
CONTINUOUS
10
-36.5
20
-113.38
11
-36.5
21
-9.575
0
LINE
8
BLACK
6
CONTINUOUS
10
-33.695
20
-113.38
11
-37.0864
21
-113.38
0
LINE
8
BLACK
6
CONTINUOUS
10
-33.695
20
-9.575
11
-37.0864
21
-9.575
0
LINE
8
BLACK
6
CONTINUOUS
10
-36.5
20
-9.575
11
-35.9136
21
-10.7015
0
LINE
8
BLACK
6
CONTINUOUS
10
-36.5
20
-9.575
11
-37.0864
21
-10.7015
0
LINE
8
BLACK
6
CONTINUOUS
10
-36.5
20
-113.38
11
-35.9136
21
-112.253
0
LINE
8
BLACK
6
CONTINUOUS
10
-36.5
20
-113.38
11
-37.0864
21
-112.253
0
LINE
8
BLACK
6
CONTINUOUS
10
77.2575
20
-104.825
11
-5.6797
21
-104.825
0
LINE
8
BLACK
6
CONTINUOUS
10
77.2575
20
-104.825
11
101.162
21
-104.825
0
LINE
8
BLACK
6
CONTINUOUS
10
-31.635
20
-9.575
11
124.51
21
-9.575
0
LINE
8
BLACK
6
CONTINUOUS
10
125.005
20
-10.13
11
125.005
21
-82.55
0
LINE
8
BLACK
6
CONTINUOUS
10
125.005
20
-82.55
11
131.92
21
-95.83
0
LINE
8
BLACK
6
CONTINUOUS
10
131.92
20
-112.885
11
131.92
21
-95.83
0
LINE
8
BLACK
6
CONTINUOUS
10
131.365
20
-113.38
11
106.465
21
-113.38
0
LINE
8
BLACK
6
CONTINUOUS
10
105.97
20
-112.825
11
105.97
21
-105.38
0
LINE
8
BLACK
6
CONTINUOUS
10
105.475
20
-104.825
11
101.162
21
-104.825
0
LINE
8
BLACK
6
CONTINUOUS
10
-6.24
20
-112.885
11
-6.24
21
-105.32
0
LINE
8
BLACK
6
CONTINUOUS
10
-6.795
20
-113.38
11
-31.695
21
-113.38
0
LINE
8
BLACK
6
CONTINUOUS
10
-32.19
20
-112.825
11
-32.19
21
-85.22
0
ARC
8
BLACK
10
105.445
20
-105.35
40
0.525856
50
-3.27049
51
86.7295
0
ARC
8
BLACK
10
-5.71
20
-105.355
40
0.531154
50
86.2218
51
176.222
0
ARC
8
BLACK
10
-6.765
20
-112.855
40
0.525856
50
-93.2705
51
-3.27049
0
ARC
8
BLACK
10
106.495
20
-112.855
40
0.525856
50
-183.27
51
-93.2705
0
ARC
8
BLACK
10
131.395
20
-112.855
40
0.525856
50
-93.2705
51
-3.27049
0
ARC
8
BLACK
10
-31.665
20
-112.855
40
0.525856
50
-183.27
51
-93.2705
0
ARC
8
BLACK
10
124.48
20
-10.1
40
0.525856
50
-3.27049
51
86.7295
0
LINE
8
BLACK
6
CONTINUOUS
10
-32.19
20
-10.07
11
-32.19
21
-85.22
0
ARC
8
BLACK
10
-31.665
20
-10.1
40
0.525856
50
86.7295
51
176.73
0
LINE
8
BLACK
6
CONTINUOUS
10
119.225
20
-90.4211
11
119.336
21
-90.4432
0
LINE
8
BLACK
6
CONTINUOUS
10
119.336
20
-90.4432
11
119.545
21
-90.53
0
LINE
8
BLACK
6
CONTINUOUS
10
119.545
20
-90.53
11
119.734
21
-90.656
0
LINE
8
BLACK
6
CONTINUOUS
10
119.734
20
-90.656
11
119.894
21
-90.8163
0
LINE
8
BLACK
6
CONTINUOUS
10
119.894
20
-90.8163
11
120.02
21
-91.0048
0
LINE
8
BLACK
6
CONTINUOUS
10
120.02
20
-91.0048
11
120.107
21
-91.2143
0
LINE
8
BLACK
6
CONTINUOUS
10
120.107
20
-91.2143
11
120.151
21
-91.4366
0
LINE
8
BLACK
6
CONTINUOUS
10
120.151
20
-91.4366
11
120.151
21
-91.6634
0
LINE
8
BLACK
6
CONTINUOUS
10
120.151
20
-91.6634
11
120.107
21
-91.8857
0
LINE
8
BLACK
6
CONTINUOUS
10
120.107
20
-91.8857
11
120.02
21
-92.0952
0
LINE
8
BLACK
6
CONTINUOUS
10
120.02
20
-92.0952
11
119.894
21
-92.2837
0
LINE
8
BLACK
6
CONTINUOUS
10
119.894
20
-92.2837
11
119.734
21
-92.444
0
LINE
8
BLACK
6
CONTINUOUS
10
119.734
20
-92.444
11
119.545
21
-92.57
0
LINE
8
BLACK
6
CONTINUOUS
10
119.545
20
-92.57
11
119.336
21
-92.6568
0
LINE
8
BLACK
6
CONTINUOUS
10
119.336
20
-92.6568
11
119.225
21
-92.6789
0
LINE
8
BLACK
6
CONTINUOUS
10
119.225
20
-92.6789
11
119.113
21
-92.701
0
LINE
8
BLACK
6
CONTINUOUS
10
119.113
20
-92.701
11
118.887
21
-92.701
0
LINE
8
BLACK
6
CONTINUOUS
10
118.887
20
-92.701
11
118.775
21
-92.6789
0
LINE
8
BLACK
6
CONTINUOUS
10
118.775
20
-92.6789
11
118.664
21
-92.6568
0
LINE
8
BLACK
6
CONTINUOUS
10
118.664
20
-92.6568
11
118.455
21
-92.57
0
LINE
8
BLACK
6
CONTINUOUS
10
118.455
20
-92.57
11
118.266
21
-92.444
0
LINE
8
BLACK
6
CONTINUOUS
10
118.266
20
-92.444
11
118.106
21
-92.2837
0
LINE
8
BLACK
6
CONTINUOUS
10
118.106
20
-92.2837
11
117.98
21
-92.0952
0
LINE
8
BLACK
6
CONTINUOUS
10
117.98
20
-92.0952
11
117.893
21
-91.8857
0
LINE
8
BLACK
6
CONTINUOUS
10
117.893
20
-91.8857
11
117.849
21
-91.6634
0
LINE
8
BLACK
6
CONTINUOUS
10
117.849
20
-91.6634
11
117.849
21
-91.4366
0
LINE
8
BLACK
6
CONTINUOUS
10
117.849
20
-91.4366
11
117.893
21
-91.2143
0
LINE
8
BLACK
6
CONTINUOUS
10
117.893
20
-91.2143
11
117.98
21
-91.0048
0
LINE
8
BLACK
6
CONTINUOUS
10
117.98
20
-91.0048
11
118.106
21
-90.8163
0
LINE
8
BLACK
6
CONTINUOUS
10
118.106
20
-90.8163
11
118.266
21
-90.656
0
LINE
8
BLACK
6
CONTINUOUS
10
118.266
20
-90.656
11
118.455
21
-90.53
0
LINE
8
BLACK
6
CONTINUOUS
10
118.455
20
-90.53
11
118.664
21
-90.4432
0
LINE
8
BLACK
6
CONTINUOUS
10
118.664
20
-90.4432
11
118.775
21
-90.4211
0
LINE
8
BLACK
6
CONTINUOUS
10
118.775
20
-90.4211
11
118.887
21
-90.399
0
LINE
8
BLACK
6
CONTINUOUS
10
118.887
20
-90.399
11
119.113
21
-90.399
0
LINE
8
BLACK
6
CONTINUOUS
10
119.113
20
-90.399
11
119.225
21
-90.4211
0
LINE
8
BLACK
6
CONTINUOUS
10
87.0745
20
-84.2211
11
87.1857
21
-84.2432
0
LINE
8
BLACK
6
CONTINUOUS
10
87.1857
20
-84.2432
11
87.3952
21
-84.33
0
LINE
8
BLACK
6
CONTINUOUS
10
87.3952
20
-84.33
11
87.5837
21
-84.456
0
LINE
8
BLACK
6
CONTINUOUS
10
87.5837
20
-84.456
11
87.744
21
-84.6163
0
LINE
8
BLACK
6
CONTINUOUS
10
87.744
20
-84.6163
11
87.87
21
-84.8048
0
LINE
8
BLACK
6
CONTINUOUS
10
87.87
20
-84.8048
11
87.9568
21
-85.0143
0
LINE
8
BLACK
6
CONTINUOUS
10
87.9568
20
-85.0143
11
88.001
21
-85.2366
0
LINE
8
BLACK
6
CONTINUOUS
10
88.001
20
-85.2366
11
88.001
21
-85.4634
0
LINE
8
BLACK
6
CONTINUOUS
10
88.001
20
-85.4634
11
87.9568
21
-85.6857
0
LINE
8
BLACK
6
CONTINUOUS
10
87.9568
20
-85.6857
11
87.87
21
-85.8952
0
LINE
8
BLACK
6
CONTINUOUS
10
87.87
20
-85.8952
11
87.744
21
-86.0837
0
LINE
8
BLACK
6
CONTINUOUS
10
87.744
20
-86.0837
11
87.5837
21
-86.244
0
LINE
8
BLACK
6
CONTINUOUS
10
87.5837
20
-86.244
11
87.3952
21
-86.37
0
LINE
8
BLACK
6
CONTINUOUS
10
87.3952
20
-86.37
11
87.1857
21
-86.4568
0
LINE
8
BLACK
6
CONTINUOUS
10
87.1857
20
-86.4568
11
87.0745
21
-86.4789
0
LINE
8
BLACK
6
CONTINUOUS
10
87.0745
20
-86.4789
11
86.9634
21
-86.501
0
LINE
8
BLACK
6
CONTINUOUS
10
86.9634
20
-86.501
11
86.7366
21
-86.501
0
LINE
8
BLACK
6
CONTINUOUS
10
86.7366
20
-86.501
11
86.6255
21
-86.4789
0
LINE
8
BLACK
6
CONTINUOUS
10
86.6255
20
-86.4789
11
86.5143
21
-86.4568
0
LINE
8
BLACK
6
CONTINUOUS
10
86.5143
20
-86.4568
11
86.3048
21
-86.37
0
LINE
8
BLACK
6
CONTINUOUS
10
86.3048
20
-86.37
11
86.1163
21
-86.244
0
LINE
8
BLACK
6
CONTINUOUS
10
86.1163
20
-86.244
11
85.956
21
-86.0837
0
LINE
8
BLACK
6
CONTINUOUS
10
85.956
20
-86.0837
11
85.83
21
-85.8952
0
LINE
8
BLACK
6
CONTINUOUS
10
85.83
20
-85.8952
11
85.7432
21
-85.6857
0
LINE
8
BLACK
6
CONTINUOUS
10
85.7432
20
-85.6857
11
85.699
21
-85.4634
0
LINE
8
BLACK
6
CONTINUOUS
10
85.699
20
-85.4634
11
85.699
21
-85.2366
0
LINE
8
BLACK
6
CONTINUOUS
10
85.699
20
-85.2366
11
85.7432
21
-85.0143
0
LINE
8
BLACK
6
CONTINUOUS
10
85.7432
20
-85.0143
11
85.83
21
-84.8048
0
LINE
8
BLACK
6
CONTINUOUS
10
85.83
20
-84.8048
11
85.956
21
-84.6163
0
LINE
8
BLACK
6
CONTINUOUS
10
85.956
20
-84.6163
11
86.1163
21
-84.456
0
LINE
8
BLACK
6
CONTINUOUS
10
86.1163
20
-84.456
11
86.3048
21
-84.33
0
LINE
8
BLACK
6
CONTINUOUS
10
86.3048
20
-84.33
11
86.5143
21
-84.2432
0
LINE
8
BLACK
6
CONTINUOUS
10
86.5143
20
-84.2432
11
86.6255
21
-84.2211
0
LINE
8
BLACK
6
CONTINUOUS
10
86.6255
20
-84.2211
11
86.7366
21
-84.199
0
LINE
8
BLACK
6
CONTINUOUS
10
86.7366
20
-84.199
11
86.9634
21
-84.199
0
LINE
8
BLACK
6
CONTINUOUS
10
86.9634
20
-84.199
11
87.0745
21
-84.2211
0
LINE
8
BLACK
6
CONTINUOUS
10
-28.9955
20
-84.2211
11
-28.8843
21
-84.2432
0
LINE
8
BLACK
6
CONTINUOUS
10
-28.8843
20
-84.2432
11
-28.6748
21
-84.33
0
LINE
8
BLACK
6
CONTINUOUS
10
-28.6748
20
-84.33
11
-28.4863
21
-84.456
0
LINE
8
BLACK
6
CONTINUOUS
10
-28.4863
20
-84.456
11
-28.326
21
-84.6163
0
LINE
8
BLACK
6
CONTINUOUS
10
-28.326
20
-84.6163
11
-28.2
21
-84.8048
0
LINE
8
BLACK
6
CONTINUOUS
10
-28.2
20
-84.8048
11
-28.1132
21
-85.0143
0
LINE
8
BLACK
6
CONTINUOUS
10
-28.1132
20
-85.0143
11
-28.069
21
-85.2366
0
LINE
8
BLACK
6
CONTINUOUS
10
-28.069
20
-85.2366
11
-28.069
21
-85.4634
0
LINE
8
BLACK
6
CONTINUOUS
10
-28.069
20
-85.4634
11
-28.1132
21
-85.6857
0
LINE
8
BLACK
6
CONTINUOUS
10
-28.1132
20
-85.6857
11
-28.2
21
-85.8952
0
LINE
8
BLACK
6
CONTINUOUS
10
-28.2
20
-85.8952
11
-28.326
21
-86.0837
0
LINE
8
BLACK
6
CONTINUOUS
10
-28.326
20
-86.0837
11
-28.4863
21
-86.244
0
LINE
8
BLACK
6
CONTINUOUS
10
-28.4863
20
-86.244
11
-28.6748
21
-86.37
0
LINE
8
BLACK
6
CONTINUOUS
10
-28.6748
20
-86.37
11
-28.8843
21
-86.4568
0
LINE
8
BLACK
6
CONTINUOUS
10
-28.8843
20
-86.4568
11
-28.9955
21
-86.4789
0
LINE
8
BLACK
6
CONTINUOUS
10
-28.9955
20
-86.4789
11
-29.1066
21
-86.501
0
LINE
8
BLACK
6
CONTINUOUS
10
-29.1066
20
-86.501
11
-29.3334
21
-86.501
0
LINE
8
BLACK
6
CONTINUOUS
10
-29.3334
20
-86.501
11
-29.4445
21
-86.4789
0
LINE
8
BLACK
6
CONTINUOUS
10
-29.4445
20
-86.4789
11
-29.5557
21
-86.4568
0
LINE
8
BLACK
6
CONTINUOUS
10
-29.5557
20
-86.4568
11
-29.7652
21
-86.37
0
LINE
8
BLACK
6
CONTINUOUS
10
-29.7652
20
-86.37
11
-29.9537
21
-86.244
0
LINE
8
BLACK
6
CONTINUOUS
10
-29.9537
20
-86.244
11
-30.114
21
-86.0837
0
LINE
8
BLACK
6
CONTINUOUS
10
-30.114
20
-86.0837
11
-30.24
21
-85.8952
0
LINE
8
BLACK
6
CONTINUOUS
10
-30.24
20
-85.8952
11
-30.3268
21
-85.6857
0
LINE
8
BLACK
6
CONTINUOUS
10
-30.3268
20
-85.6857
11
-30.371
21
-85.4634
0
LINE
8
BLACK
6
CONTINUOUS
10
-30.371
20
-85.4634
11
-30.371
21
-85.2366
0
LINE
8
BLACK
6
CONTINUOUS
10
-30.371
20
-85.2366
11
-30.3268
21
-85.0143
0
LINE
8
BLACK
6
CONTINUOUS
10
-30.3268
20
-85.0143
11
-30.24
21
-84.8048
0
LINE
8
BLACK
6
CONTINUOUS
10
-30.24
20
-84.8048
11
-30.114
21
-84.6163
0
LINE
8
BLACK
6
CONTINUOUS
10
-30.114
20
-84.6163
11
-29.9537
21
-84.456
0
LINE
8
BLACK
6
CONTINUOUS
10
-29.9537
20
-84.456
11
-29.7652
21
-84.33
0
LINE
8
BLACK
6
CONTINUOUS
10
-29.7652
20
-84.33
11
-29.5557
21
-84.2432
0
LINE
8
BLACK
6
CONTINUOUS
10
-29.5557
20
-84.2432
11
-29.4445
21
-84.2211
0
LINE
8
BLACK
6
CONTINUOUS
10
-29.4445
20
-84.2211
11
-29.3334
21
-84.199
0
LINE
8
BLACK
6
CONTINUOUS
10
-29.3334
20
-84.199
11
-29.1066
21
-84.199
0
LINE
8
BLACK
6
CONTINUOUS
10
-29.1066
20
-84.199
11
-28.9955
21
-84.2211
0
LINE
8
BLACK
6
CONTINUOUS
10
34.687
20
-46.1211
11
34.7982
21
-46.1432
0
LINE
8
BLACK
6
CONTINUOUS
10
34.7982
20
-46.1432
11
35.0077
21
-46.23
0
LINE
8
BLACK
6
CONTINUOUS
10
35.0077
20
-46.23
11
35.1962
21
-46.356
0
LINE
8
BLACK
6
CONTINUOUS
10
35.1962
20
-46.356
11
35.3565
21
-46.5163
0
LINE
8
BLACK
6
CONTINUOUS
10
35.3565
20
-46.5163
11
35.4825
21
-46.7048
0
LINE
8
BLACK
6
CONTINUOUS
10
35.4825
20
-46.7048
11
35.5693
21
-46.9143
0
LINE
8
BLACK
6
CONTINUOUS
10
35.5693
20
-46.9143
11
35.6135
21
-47.1366
0
LINE
8
BLACK
6
CONTINUOUS
10
35.6135
20
-47.1366
11
35.6135
21
-47.3634
0
LINE
8
BLACK
6
CONTINUOUS
10
35.6135
20
-47.3634
11
35.5693
21
-47.5857
0
LINE
8
BLACK
6
CONTINUOUS
10
35.5693
20
-47.5857
11
35.4825
21
-47.7952
0
LINE
8
BLACK
6
CONTINUOUS
10
35.4825
20
-47.7952
11
35.3565
21
-47.9837
0
LINE
8
BLACK
6
CONTINUOUS
10
35.3565
20
-47.9837
11
35.1962
21
-48.144
0
LINE
8
BLACK
6
CONTINUOUS
10
35.1962
20
-48.144
11
35.0077
21
-48.27
0
LINE
8
BLACK
6
CONTINUOUS
10
35.0077
20
-48.27
11
34.7982
21
-48.3568
0
LINE
8
BLACK
6
CONTINUOUS
10
34.7982
20
-48.3568
11
34.687
21
-48.3789
0
LINE
8
BLACK
6
CONTINUOUS
10
34.687
20
-48.3789
11
34.5759
21
-48.401
0
LINE
8
BLACK
6
CONTINUOUS
10
34.5759
20
-48.401
11
34.3491
21
-48.401
0
LINE
8
BLACK
6
CONTINUOUS
10
34.3491
20
-48.401
11
34.238
21
-48.3789
0
LINE
8
BLACK
6
CONTINUOUS
10
34.238
20
-48.3789
11
34.1268
21
-48.3568
0
LINE
8
BLACK
6
CONTINUOUS
10
34.1268
20
-48.3568
11
33.9173
21
-48.27
0
LINE
8
BLACK
6
CONTINUOUS
10
33.9173
20
-48.27
11
33.7288
21
-48.144
0
LINE
8
BLACK
6
CONTINUOUS
10
33.7288
20
-48.144
11
33.5685
21
-47.9837
0
LINE
8
BLACK
6
CONTINUOUS
10
33.5685
20
-47.9837
11
33.4425
21
-47.7952
0
LINE
8
BLACK
6
CONTINUOUS
10
33.4425
20
-47.7952
11
33.3557
21
-47.5857
0
LINE
8
BLACK
6
CONTINUOUS
10
33.3557
20
-47.5857
11
33.3115
21
-47.3634
0
LINE
8
BLACK
6
CONTINUOUS
10
33.3115
20
-47.3634
11
33.3115
21
-47.1366
0
LINE
8
BLACK
6
CONTINUOUS
10
33.3115
20
-47.1366
11
33.3557
21
-46.9143
0
LINE
8
BLACK
6
CONTINUOUS
10
33.3557
20
-46.9143
11
33.4425
21
-46.7048
0
LINE
8
BLACK
6
CONTINUOUS
10
33.4425
20
-46.7048
11
33.5685
21
-46.5163
0
LINE
8
BLACK
6
CONTINUOUS
10
33.5685
20
-46.5163
11
33.7288
21
-46.356
0
LINE
8
BLACK
6
CONTINUOUS
10
33.7288
20
-46.356
11
33.9173
21
-46.23
0
LINE
8
BLACK
6
CONTINUOUS
10
33.9173
20
-46.23
11
34.1268
21
-46.1432
0
LINE
8
BLACK
6
CONTINUOUS
10
34.1268
20
-46.1432
11
34.238
21
-46.1211
0
LINE
8
BLACK
6
CONTINUOUS
10
34.238
20
-46.1211
11
34.3491
21
-46.099
0
LINE
8
BLACK
6
CONTINUOUS
10
34.3491
20
-46.099
11
34.5759
21
-46.099
0
LINE
8
BLACK
6
CONTINUOUS
10
34.5759
20
-46.099
11
34.687
21
-46.1211
0
LINE
8
BLACK
6
CONTINUOUS
10
82.312
20
-27.4711
11
82.4232
21
-27.4932
0
LINE
8
BLACK
6
CONTINUOUS
10
82.4232
20
-27.4932
11
82.6327
21
-27.58
0
LINE
8
BLACK
6
CONTINUOUS
10
82.6327
20
-27.58
11
82.8212
21
-27.706
0
LINE
8
BLACK
6
CONTINUOUS
10
82.8212
20
-27.706
11
82.9815
21
-27.8663
0
LINE
8
BLACK
6
CONTINUOUS
10
82.9815
20
-27.8663
11
83.1075
21
-28.0548
0
LINE
8
BLACK
6
CONTINUOUS
10
83.1075
20
-28.0548
11
83.1943
21
-28.2643
0
LINE
8
BLACK
6
CONTINUOUS
10
83.1943
20
-28.2643
11
83.2164
21
-28.3755
0
LINE
8
BLACK
6
CONTINUOUS
10
83.2164
20
-28.3755
11
83.2385
21
-28.4866
0
LINE
8
BLACK
6
CONTINUOUS
10
83.2385
20
-28.4866
11
83.2385
21
-28.7134
0
LINE
8
BLACK
6
CONTINUOUS
10
83.2385
20
-28.7134
11
83.2164
21
-28.8245
0
LINE
8
BLACK
6
CONTINUOUS
10
83.2164
20
-28.8245
11
83.1943
21
-28.9357
0
LINE
8
BLACK
6
CONTINUOUS
10
83.1943
20
-28.9357
11
83.1329
21
-29.0838
0
LINE
8
BLACK
6
CONTINUOUS
10
83.1329
20
-29.0838
11
83.1123
21
-29.1337
0
LINE
8
BLACK
6
CONTINUOUS
10
83.1123
20
-29.1337
11
83.1075
21
-29.1452
0
LINE
8
BLACK
6
CONTINUOUS
10
83.1075
20
-29.1452
11
82.9815
21
-29.3337
0
LINE
8
BLACK
6
CONTINUOUS
10
82.9815
20
-29.3337
11
82.8212
21
-29.494
0
LINE
8
BLACK
6
CONTINUOUS
10
82.8212
20
-29.494
11
82.6327
21
-29.62
0
LINE
8
BLACK
6
CONTINUOUS
10
82.6327
20
-29.62
11
82.4232
21
-29.7068
0
LINE
8
BLACK
6
CONTINUOUS
10
82.4232
20
-29.7068
11
82.312
21
-29.7289
0
LINE
8
BLACK
6
CONTINUOUS
10
82.312
20
-29.7289
11
82.2009
21
-29.751
0
LINE
8
BLACK
6
CONTINUOUS
10
82.2009
20
-29.751
11
81.9741
21
-29.751
0
LINE
8
BLACK
6
CONTINUOUS
10
81.9741
20
-29.751
11
81.863
21
-29.7289
0
LINE
8
BLACK
6
CONTINUOUS
10
81.863
20
-29.7289
11
81.7518
21
-29.7068
0
LINE
8
BLACK
6
CONTINUOUS
10
81.7518
20
-29.7068
11
81.5423
21
-29.62
0
LINE
8
BLACK
6
CONTINUOUS
10
81.5423
20
-29.62
11
81.3538
21
-29.494
0
LINE
8
BLACK
6
CONTINUOUS
10
81.3538
20
-29.494
11
81.1935
21
-29.3337
0
LINE
8
BLACK
6
CONTINUOUS
10
81.1935
20
-29.3337
11
81.0675
21
-29.1452
0
LINE
8
BLACK
6
CONTINUOUS
10
81.0675
20
-29.1452
11
81.0627
21
-29.1337
0
LINE
8
BLACK
6
CONTINUOUS
10
81.0627
20
-29.1337
11
81.0421
21
-29.0838
0
LINE
8
BLACK
6
CONTINUOUS
10
81.0421
20
-29.0838
11
80.9807
21
-28.9357
0
LINE
8
BLACK
6
CONTINUOUS
10
80.9807
20
-28.9357
11
80.9586
21
-28.8245
0
LINE
8
BLACK
6
CONTINUOUS
10
80.9586
20
-28.8245
11
80.9365
21
-28.7134
0
LINE
8
BLACK
6
CONTINUOUS
10
80.9365
20
-28.7134
11
80.9365
21
-28.4866
0
LINE
8
BLACK
6
CONTINUOUS
10
80.9365
20
-28.4866
11
80.9586
21
-28.3755
0
LINE
8
BLACK
6
CONTINUOUS
10
80.9586
20
-28.3755
11
80.9807
21
-28.2643
0
LINE
8
BLACK
6
CONTINUOUS
10
80.9807
20
-28.2643
11
81.0675
21
-28.0548
0
LINE
8
BLACK
6
CONTINUOUS
10
81.0675
20
-28.0548
11
81.1935
21
-27.8663
0
LINE
8
BLACK
6
CONTINUOUS
10
81.1935
20
-27.8663
11
81.3538
21
-27.706
0
LINE
8
BLACK
6
CONTINUOUS
10
81.3538
20
-27.706
11
81.5423
21
-27.58
0
LINE
8
BLACK
6
CONTINUOUS
10
81.5423
20
-27.58
11
81.7518
21
-27.4932
0
LINE
8
BLACK
6
CONTINUOUS
10
81.7518
20
-27.4932
11
81.863
21
-27.4711
0
LINE
8
BLACK
6
CONTINUOUS
10
81.863
20
-27.4711
11
81.9741
21
-27.449
0
LINE
8
BLACK
6
CONTINUOUS
10
81.9741
20
-27.449
11
82.2009
21
-27.449
0
LINE
8
BLACK
6
CONTINUOUS
10
82.2009
20
-27.449
11
82.312
21
-27.4711
0
LINE
8
BLACK
6
CONTINUOUS
10
-12.913
20
-27.2711
11
-12.8018
21
-27.2932
0
LINE
8
BLACK
6
CONTINUOUS
10
-12.8018
20
-27.2932
11
-12.5923
21
-27.38
0
LINE
8
BLACK
6
CONTINUOUS
10
-12.5923
20
-27.38
11
-12.4038
21
-27.506
0
LINE
8
BLACK
6
CONTINUOUS
10
-12.4038
20
-27.506
11
-12.2435
21
-27.6663
0
LINE
8
BLACK
6
CONTINUOUS
10
-12.2435
20
-27.6663
11
-12.2169
21
-27.706
0
LINE
8
BLACK
6
CONTINUOUS
10
-12.2169
20
-27.706
11
-12.1175
21
-27.8548
0
LINE
8
BLACK
6
CONTINUOUS
10
-12.1175
20
-27.8548
11
-12.1127
21
-27.8663
0
LINE
8
BLACK
6
CONTINUOUS
10
-12.1127
20
-27.8663
11
-12.0347
21
-28.0548
0
LINE
8
BLACK
6
CONTINUOUS
10
-12.0347
20
-28.0548
11
-12.0307
21
-28.0643
0
LINE
8
BLACK
6
CONTINUOUS
10
-12.0307
20
-28.0643
11
-11.9909
21
-28.2643
0
LINE
8
BLACK
6
CONTINUOUS
10
-11.9909
20
-28.2643
11
-11.9865
21
-28.2866
0
LINE
8
BLACK
6
CONTINUOUS
10
-11.9865
20
-28.2866
11
-11.9865
21
-28.5134
0
LINE
8
BLACK
6
CONTINUOUS
10
-11.9865
20
-28.5134
11
-12.0307
21
-28.7357
0
LINE
8
BLACK
6
CONTINUOUS
10
-12.0307
20
-28.7357
11
-12.1175
21
-28.9452
0
LINE
8
BLACK
6
CONTINUOUS
10
-12.1175
20
-28.9452
11
-12.2435
21
-29.1337
0
LINE
8
BLACK
6
CONTINUOUS
10
-12.2435
20
-29.1337
11
-12.4038
21
-29.294
0
LINE
8
BLACK
6
CONTINUOUS
10
-12.4038
20
-29.294
11
-12.5923
21
-29.42
0
LINE
8
BLACK
6
CONTINUOUS
10
-12.5923
20
-29.42
11
-12.8018
21
-29.5068
0
LINE
8
BLACK
6
CONTINUOUS
10
-12.8018
20
-29.5068
11
-12.913
21
-29.5289
0
LINE
8
BLACK
6
CONTINUOUS
10
-12.913
20
-29.5289
11
-13.0241
21
-29.551
0
LINE
8
BLACK
6
CONTINUOUS
10
-13.0241
20
-29.551
11
-13.2509
21
-29.551
0
LINE
8
BLACK
6
CONTINUOUS
10
-13.2509
20
-29.551
11
-13.362
21
-29.5289
0
LINE
8
BLACK
6
CONTINUOUS
10
-13.362
20
-29.5289
11
-13.4732
21
-29.5068
0
LINE
8
BLACK
6
CONTINUOUS
10
-13.4732
20
-29.5068
11
-13.6827
21
-29.42
0
LINE
8
BLACK
6
CONTINUOUS
10
-13.6827
20
-29.42
11
-13.8712
21
-29.294
0
LINE
8
BLACK
6
CONTINUOUS
10
-13.8712
20
-29.294
11
-14.0315
21
-29.1337
0
LINE
8
BLACK
6
CONTINUOUS
10
-14.0315
20
-29.1337
11
-14.1575
21
-28.9452
0
LINE
8
BLACK
6
CONTINUOUS
10
-14.1575
20
-28.9452
11
-14.2443
21
-28.7357
0
LINE
8
BLACK
6
CONTINUOUS
10
-14.2443
20
-28.7357
11
-14.2885
21
-28.5134
0
LINE
8
BLACK
6
CONTINUOUS
10
-14.2885
20
-28.5134
11
-14.2885
21
-28.2866
0
LINE
8
BLACK
6
CONTINUOUS
10
-14.2885
20
-28.2866
11
-14.284
21
-28.2643
0
LINE
8
BLACK
6
CONTINUOUS
10
-14.284
20
-28.2643
11
-14.2443
21
-28.0643
0
LINE
8
BLACK
6
CONTINUOUS
10
-14.2443
20
-28.0643
11
-14.2403
21
-28.0548
0
LINE
8
BLACK
6
CONTINUOUS
10
-14.2403
20
-28.0548
11
-14.1623
21
-27.8663
0
LINE
8
BLACK
6
CONTINUOUS
10
-14.1623
20
-27.8663
11
-14.1575
21
-27.8548
0
LINE
8
BLACK
6
CONTINUOUS
10
-14.1575
20
-27.8548
11
-14.0581
21
-27.706
0
LINE
8
BLACK
6
CONTINUOUS
10
-14.0581
20
-27.706
11
-14.0315
21
-27.6663
0
LINE
8
BLACK
6
CONTINUOUS
10
-14.0315
20
-27.6663
11
-13.8712
21
-27.506
0
LINE
8
BLACK
6
CONTINUOUS
10
-13.8712
20
-27.506
11
-13.6827
21
-27.38
0
LINE
8
BLACK
6
CONTINUOUS
10
-13.6827
20
-27.38
11
-13.4732
21
-27.2932
0
LINE
8
BLACK
6
CONTINUOUS
10
-13.4732
20
-27.2932
11
-13.362
21
-27.2711
0
LINE
8
BLACK
6
CONTINUOUS
10
-13.362
20
-27.2711
11
-13.2509
21
-27.249
0
LINE
8
BLACK
6
CONTINUOUS
10
-13.2509
20
-27.249
11
-13.0241
21
-27.249
0
LINE
8
BLACK
6
CONTINUOUS
10
-13.0241
20
-27.249
11
-12.913
21
-27.2711
  0
ENDSEC
  0
EOF
