  0
SECTION
  2
HEADER
  9
$ANGBASE
  50
0.0
  9
$ANGDIR
  70
1
  9
$MEASUREMENT
  70
0
  0
ENDSEC
  0
SECTION
  2
TABLES
  0
TABLE
  2
LTYPE
  70
4
  0
LTYPE
  5
40F
  2
CONTINUOUS
  70
0
  3
Solid line
  72
65
  73
0
  40
0.0
  0
LTYPE
  5
410
  2
DASHDOT
 70
0
  3
Dash Dot ____ _ ____ _
 72
65
 73
4
 40
2.0
 49
1.25
 49
-0.25
 49
0.25
 49
-0.25
  0
LTYPE
  5
411
  2
DASHED
 70
0
  3
Dashed __ __ __ __ __
 72
65
 73
2
 40
0.75
 49
0.5
 49
-0.25
  0
LTYPE
  5
43B
  2
DOTTED
 70
0
  3
Dotted .  .  .  .
 72
65
 73
2
 40
0.2
 49
0.0
 49
-0.2
  0
ENDTAB
  0
TABLE
  2
STYLE
  70
4
  0
STYLE
  2
KICAD
  70
0
  40
0
  41
1
  42
1
  50
0
  71
0
  3
isocp.shx
  0
STYLE
  2
KICADB
  70
0
  40
0
  41
1
  42
1
  50
0
  71
0
  3
isocp.shx
  0
STYLE
  2
KICADI
  70
0
  40
0
  41
1
  42
1
  50
15
  71
0
  3
isocp.shx
  0
STYLE
  2
KICADBI
  70
0
  40
0
  41
1
  42
1
  50
15
  71
0
  3
isocp.shx
  0
ENDTAB
  0
TABLE
  2
LAYER
  70
1
  0
LAYER
  2
BLACK
  70
0
  62
7
  6
CONTINUOUS
  0
ENDTAB
  0
ENDSEC
  0
SECTION
  2
ENTITIES
0
LINE
8
BLACK
6
CONTINUOUS
10
-0.919601
20
-4.58022
11
-0.917726
21
-4.57835
0
LINE
8
BLACK
6
CONTINUOUS
10
-0.917726
20
-4.57835
11
-0.913976
21
-4.57647
0
LINE
8
BLACK
6
CONTINUOUS
10
-0.913976
20
-4.57647
11
-0.904603
21
-4.57647
0
LINE
8
BLACK
6
CONTINUOUS
10
-0.904603
20
-4.57647
11
-0.900853
21
-4.57835
0
LINE
8
BLACK
6
CONTINUOUS
10
-0.900853
20
-4.57835
11
-0.898978
21
-4.58022
0
LINE
8
BLACK
6
CONTINUOUS
10
-0.898978
20
-4.58022
11
-0.897103
21
-4.58397
0
LINE
8
BLACK
6
CONTINUOUS
10
-0.897103
20
-4.58397
11
-0.897103
21
-4.58772
0
LINE
8
BLACK
6
CONTINUOUS
10
-0.897103
20
-4.58772
11
-0.898978
21
-4.59334
0
LINE
8
BLACK
6
CONTINUOUS
10
-0.898978
20
-4.59334
11
-0.921475
21
-4.61584
0
LINE
8
BLACK
6
CONTINUOUS
10
-0.921475
20
-4.61584
11
-0.897103
21
-4.61584
0
LINE
8
BLACK
6
CONTINUOUS
10
-0.861483
20
-4.57647
11
-0.880231
21
-4.57647
0
LINE
8
BLACK
6
CONTINUOUS
10
-0.880231
20
-4.57647
11
-0.882105
21
-4.59522
0
LINE
8
BLACK
6
CONTINUOUS
10
-0.882105
20
-4.59522
11
-0.880231
21
-4.59334
0
LINE
8
BLACK
6
CONTINUOUS
10
-0.880231
20
-4.59334
11
-0.876481
21
-4.59147
0
LINE
8
BLACK
6
CONTINUOUS
10
-0.876481
20
-4.59147
11
-0.867107
21
-4.59147
0
LINE
8
BLACK
6
CONTINUOUS
10
-0.867107
20
-4.59147
11
-0.863358
21
-4.59334
0
LINE
8
BLACK
6
CONTINUOUS
10
-0.863358
20
-4.59334
11
-0.861483
21
-4.59522
0
LINE
8
BLACK
6
CONTINUOUS
10
-0.861483
20
-4.59522
11
-0.859608
21
-4.59897
0
LINE
8
BLACK
6
CONTINUOUS
10
-0.859608
20
-4.59897
11
-0.859608
21
-4.60834
0
LINE
8
BLACK
6
CONTINUOUS
10
-0.859608
20
-4.60834
11
-0.861483
21
-4.61209
0
LINE
8
BLACK
6
CONTINUOUS
10
-0.861483
20
-4.61209
11
-0.863358
21
-4.61397
0
LINE
8
BLACK
6
CONTINUOUS
10
-0.863358
20
-4.61397
11
-0.867107
21
-4.61584
0
LINE
8
BLACK
6
CONTINUOUS
10
-0.867107
20
-4.61584
11
-0.876481
21
-4.61584
0
LINE
8
BLACK
6
CONTINUOUS
10
-0.876481
20
-4.61584
11
-0.880231
21
-4.61397
0
LINE
8
BLACK
6
CONTINUOUS
10
-0.880231
20
-4.61397
11
-0.882105
21
-4.61209
0
LINE
8
BLACK
6
CONTINUOUS
10
-0.842735
20
-4.61209
11
-0.840861
21
-4.61397
0
LINE
8
BLACK
6
CONTINUOUS
10
-0.840861
20
-4.61397
11
-0.842735
21
-4.61584
0
LINE
8
BLACK
6
CONTINUOUS
10
-0.842735
20
-4.61584
11
-0.84461
21
-4.61397
0
LINE
8
BLACK
6
CONTINUOUS
10
-0.84461
20
-4.61397
11
-0.842735
21
-4.61209
0
LINE
8
BLACK
6
CONTINUOUS
10
-0.842735
20
-4.61209
11
-0.842735
21
-4.61584
0
LINE
8
BLACK
6
CONTINUOUS
10
-0.822113
20
-4.61584
11
-0.814614
21
-4.61584
0
LINE
8
BLACK
6
CONTINUOUS
10
-0.814614
20
-4.61584
11
-0.810864
21
-4.61397
0
LINE
8
BLACK
6
CONTINUOUS
10
-0.810864
20
-4.61397
11
-0.808989
21
-4.61209
0
LINE
8
BLACK
6
CONTINUOUS
10
-0.808989
20
-4.61209
11
-0.80524
21
-4.60647
0
LINE
8
BLACK
6
CONTINUOUS
10
-0.80524
20
-4.60647
11
-0.803365
21
-4.59897
0
LINE
8
BLACK
6
CONTINUOUS
10
-0.803365
20
-4.59897
11
-0.803365
21
-4.58397
0
LINE
8
BLACK
6
CONTINUOUS
10
-0.803365
20
-4.58397
11
-0.80524
21
-4.58022
0
LINE
8
BLACK
6
CONTINUOUS
10
-0.80524
20
-4.58022
11
-0.807115
21
-4.57835
0
LINE
8
BLACK
6
CONTINUOUS
10
-0.807115
20
-4.57835
11
-0.810864
21
-4.57647
0
LINE
8
BLACK
6
CONTINUOUS
10
-0.810864
20
-4.57647
11
-0.818363
21
-4.57647
0
LINE
8
BLACK
6
CONTINUOUS
10
-0.818363
20
-4.57647
11
-0.822113
21
-4.57835
0
LINE
8
BLACK
6
CONTINUOUS
10
-0.822113
20
-4.57835
11
-0.823988
21
-4.58022
0
LINE
8
BLACK
6
CONTINUOUS
10
-0.823988
20
-4.58022
11
-0.825862
21
-4.58397
0
LINE
8
BLACK
6
CONTINUOUS
10
-0.825862
20
-4.58397
11
-0.825862
21
-4.59334
0
LINE
8
BLACK
6
CONTINUOUS
10
-0.825862
20
-4.59334
11
-0.823988
21
-4.59709
0
LINE
8
BLACK
6
CONTINUOUS
10
-0.823988
20
-4.59709
11
-0.822113
21
-4.59897
0
LINE
8
BLACK
6
CONTINUOUS
10
-0.822113
20
-4.59897
11
-0.818363
21
-4.60084
0
LINE
8
BLACK
6
CONTINUOUS
10
-0.818363
20
-4.60084
11
-0.810864
21
-4.60084
0
LINE
8
BLACK
6
CONTINUOUS
10
-0.810864
20
-4.60084
11
-0.807115
21
-4.59897
0
LINE
8
BLACK
6
CONTINUOUS
10
-0.807115
20
-4.59897
11
-0.80524
21
-4.59709
0
LINE
8
BLACK
6
CONTINUOUS
10
-0.80524
20
-4.59709
11
-0.803365
21
-4.59334
0
LINE
8
BLACK
6
CONTINUOUS
10
-0.767745
20
-4.57647
11
-0.786492
21
-4.57647
0
LINE
8
BLACK
6
CONTINUOUS
10
-0.786492
20
-4.57647
11
-0.788367
21
-4.59522
0
LINE
8
BLACK
6
CONTINUOUS
10
-0.788367
20
-4.59522
11
-0.786492
21
-4.59334
0
LINE
8
BLACK
6
CONTINUOUS
10
-0.786492
20
-4.59334
11
-0.782743
21
-4.59147
0
LINE
8
BLACK
6
CONTINUOUS
10
-0.782743
20
-4.59147
11
-0.773369
21
-4.59147
0
LINE
8
BLACK
6
CONTINUOUS
10
-0.773369
20
-4.59147
11
-0.769619
21
-4.59334
0
LINE
8
BLACK
6
CONTINUOUS
10
-0.769619
20
-4.59334
11
-0.767745
21
-4.59522
0
LINE
8
BLACK
6
CONTINUOUS
10
-0.767745
20
-4.59522
11
-0.76587
21
-4.59897
0
LINE
8
BLACK
6
CONTINUOUS
10
-0.76587
20
-4.59897
11
-0.76587
21
-4.60834
0
LINE
8
BLACK
6
CONTINUOUS
10
-0.76587
20
-4.60834
11
-0.767745
21
-4.61209
0
LINE
8
BLACK
6
CONTINUOUS
10
-0.767745
20
-4.61209
11
-0.769619
21
-4.61397
0
LINE
8
BLACK
6
CONTINUOUS
10
-0.769619
20
-4.61397
11
-0.773369
21
-4.61584
0
LINE
8
BLACK
6
CONTINUOUS
10
-0.773369
20
-4.61584
11
-0.782743
21
-4.61584
0
LINE
8
BLACK
6
CONTINUOUS
10
-0.782743
20
-4.61584
11
-0.786492
21
-4.61397
0
LINE
8
BLACK
6
CONTINUOUS
10
-0.786492
20
-4.61397
11
-0.788367
21
-4.61209
0
LINE
8
BLACK
6
CONTINUOUS
10
-0.741498
20
-4.57647
11
-0.737748
21
-4.57647
0
LINE
8
BLACK
6
CONTINUOUS
10
-0.737748
20
-4.57647
11
-0.733999
21
-4.57835
0
LINE
8
BLACK
6
CONTINUOUS
10
-0.733999
20
-4.57835
11
-0.732124
21
-4.58022
0
LINE
8
BLACK
6
CONTINUOUS
10
-0.732124
20
-4.58022
11
-0.730249
21
-4.58397
0
LINE
8
BLACK
6
CONTINUOUS
10
-0.730249
20
-4.58397
11
-0.728375
21
-4.59147
0
LINE
8
BLACK
6
CONTINUOUS
10
-0.728375
20
-4.59147
11
-0.728375
21
-4.60084
0
LINE
8
BLACK
6
CONTINUOUS
10
-0.728375
20
-4.60084
11
-0.730249
21
-4.60834
0
LINE
8
BLACK
6
CONTINUOUS
10
-0.730249
20
-4.60834
11
-0.732124
21
-4.61209
0
LINE
8
BLACK
6
CONTINUOUS
10
-0.732124
20
-4.61209
11
-0.733999
21
-4.61397
0
LINE
8
BLACK
6
CONTINUOUS
10
-0.733999
20
-4.61397
11
-0.737748
21
-4.61584
0
LINE
8
BLACK
6
CONTINUOUS
10
-0.737748
20
-4.61584
11
-0.741498
21
-4.61584
0
LINE
8
BLACK
6
CONTINUOUS
10
-0.741498
20
-4.61584
11
-0.745247
21
-4.61397
0
LINE
8
BLACK
6
CONTINUOUS
10
-0.745247
20
-4.61397
11
-0.747122
21
-4.61209
0
LINE
8
BLACK
6
CONTINUOUS
10
-0.747122
20
-4.61209
11
-0.748997
21
-4.60834
0
LINE
8
BLACK
6
CONTINUOUS
10
-0.748997
20
-4.60834
11
-0.750872
21
-4.60084
0
LINE
8
BLACK
6
CONTINUOUS
10
-0.750872
20
-4.60084
11
-0.750872
21
-4.59147
0
LINE
8
BLACK
6
CONTINUOUS
10
-0.750872
20
-4.59147
11
-0.748997
21
-4.58397
0
LINE
8
BLACK
6
CONTINUOUS
10
-0.748997
20
-4.58397
11
-0.747122
21
-4.58022
0
LINE
8
BLACK
6
CONTINUOUS
10
-0.747122
20
-4.58022
11
-0.745247
21
-4.57835
0
LINE
8
BLACK
6
CONTINUOUS
10
-0.745247
20
-4.57835
11
-0.741498
21
-4.57647
0
LINE
8
BLACK
6
CONTINUOUS
10
-0.681505
20
-4.61584
11
-0.681505
21
-4.5896
0
LINE
8
BLACK
6
CONTINUOUS
10
-0.681505
20
-4.59334
11
-0.679631
21
-4.59147
0
LINE
8
BLACK
6
CONTINUOUS
10
-0.679631
20
-4.59147
11
-0.675881
21
-4.5896
0
LINE
8
BLACK
6
CONTINUOUS
10
-0.675881
20
-4.5896
11
-0.670257
21
-4.5896
0
LINE
8
BLACK
6
CONTINUOUS
10
-0.670257
20
-4.5896
11
-0.666507
21
-4.59147
0
LINE
8
BLACK
6
CONTINUOUS
10
-0.666507
20
-4.59147
11
-0.664633
21
-4.59522
0
LINE
8
BLACK
6
CONTINUOUS
10
-0.664633
20
-4.59522
11
-0.664633
21
-4.61584
0
LINE
8
BLACK
6
CONTINUOUS
10
-0.664633
20
-4.59522
11
-0.662758
21
-4.59147
0
LINE
8
BLACK
6
CONTINUOUS
10
-0.662758
20
-4.59147
11
-0.659008
21
-4.5896
0
LINE
8
BLACK
6
CONTINUOUS
10
-0.659008
20
-4.5896
11
-0.653384
21
-4.5896
0
LINE
8
BLACK
6
CONTINUOUS
10
-0.653384
20
-4.5896
11
-0.649634
21
-4.59147
0
LINE
8
BLACK
6
CONTINUOUS
10
-0.649634
20
-4.59147
11
-0.64776
21
-4.59522
0
LINE
8
BLACK
6
CONTINUOUS
10
-0.64776
20
-4.59522
11
-0.64776
21
-4.61584
0
LINE
8
BLACK
6
CONTINUOUS
10
-0.629012
20
-4.61584
11
-0.629012
21
-4.5896
0
LINE
8
BLACK
6
CONTINUOUS
10
-0.629012
20
-4.59334
11
-0.627137
21
-4.59147
0
LINE
8
BLACK
6
CONTINUOUS
10
-0.627137
20
-4.59147
11
-0.623388
21
-4.5896
0
LINE
8
BLACK
6
CONTINUOUS
10
-0.623388
20
-4.5896
11
-0.617763
21
-4.5896
0
LINE
8
BLACK
6
CONTINUOUS
10
-0.617763
20
-4.5896
11
-0.614014
21
-4.59147
0
LINE
8
BLACK
6
CONTINUOUS
10
-0.614014
20
-4.59147
11
-0.612139
21
-4.59522
0
LINE
8
BLACK
6
CONTINUOUS
10
-0.612139
20
-4.59522
11
-0.612139
21
-4.61584
0
LINE
8
BLACK
6
CONTINUOUS
10
-0.612139
20
-4.59522
11
-0.610264
21
-4.59147
0
LINE
8
BLACK
6
CONTINUOUS
10
-0.610264
20
-4.59147
11
-0.606515
21
-4.5896
0
LINE
8
BLACK
6
CONTINUOUS
10
-0.606515
20
-4.5896
11
-0.600891
21
-4.5896
0
LINE
8
BLACK
6
CONTINUOUS
10
-0.600891
20
-4.5896
11
-0.597141
21
-4.59147
0
LINE
8
BLACK
6
CONTINUOUS
10
-0.597141
20
-4.59147
11
-0.595266
21
-4.59522
0
LINE
8
BLACK
6
CONTINUOUS
10
-0.595266
20
-4.59522
11
-0.595266
21
-4.61584
0
LINE
8
BLACK
6
CONTINUOUS
10
-1.26732
20
-4.55079
11
-0.245669
21
-4.55079
0
LINE
8
BLACK
6
CONTINUOUS
10
-1.26732
20
-4.4813
11
-1.26732
21
-4.57387
0
LINE
8
BLACK
6
CONTINUOUS
10
-0.245669
20
-4.4813
11
-0.245669
21
-4.57387
0
LINE
8
BLACK
6
CONTINUOUS
10
-0.245669
20
-4.55079
11
-0.29002
21
-4.57387
0
LINE
8
BLACK
6
CONTINUOUS
10
-0.245669
20
-4.55079
11
-0.29002
21
-4.5277
0
LINE
8
BLACK
6
CONTINUOUS
10
-1.26732
20
-4.55079
11
-1.22297
21
-4.57387
0
LINE
8
BLACK
6
CONTINUOUS
10
-1.26732
20
-4.55079
11
-1.22297
21
-4.5277
0
LINE
8
BLACK
6
CONTINUOUS
10
-0.914965
20
-2.58631
11
-0.937462
21
-2.58631
0
LINE
8
BLACK
6
CONTINUOUS
10
-0.926214
20
-2.58631
11
-0.926214
21
-2.54694
0
LINE
8
BLACK
6
CONTINUOUS
10
-0.926214
20
-2.54694
11
-0.929963
21
-2.55257
0
LINE
8
BLACK
6
CONTINUOUS
10
-0.929963
20
-2.55257
11
-0.933713
21
-2.55632
0
LINE
8
BLACK
6
CONTINUOUS
10
-0.933713
20
-2.55632
11
-0.937462
21
-2.55819
0
LINE
8
BLACK
6
CONTINUOUS
10
-0.898092
20
-2.58256
11
-0.896217
21
-2.58444
0
LINE
8
BLACK
6
CONTINUOUS
10
-0.896217
20
-2.58444
11
-0.898092
21
-2.58631
0
LINE
8
BLACK
6
CONTINUOUS
10
-0.898092
20
-2.58631
11
-0.899967
21
-2.58444
0
LINE
8
BLACK
6
CONTINUOUS
10
-0.899967
20
-2.58444
11
-0.898092
21
-2.58256
0
LINE
8
BLACK
6
CONTINUOUS
10
-0.898092
20
-2.58256
11
-0.898092
21
-2.58631
0
LINE
8
BLACK
6
CONTINUOUS
10
-0.883094
20
-2.54694
11
-0.856847
21
-2.54694
0
LINE
8
BLACK
6
CONTINUOUS
10
-0.856847
20
-2.54694
11
-0.87372
21
-2.58631
0
LINE
8
BLACK
6
CONTINUOUS
10
-0.843724
20
-2.55069
11
-0.841849
21
-2.54882
0
LINE
8
BLACK
6
CONTINUOUS
10
-0.841849
20
-2.54882
11
-0.8381
21
-2.54694
0
LINE
8
BLACK
6
CONTINUOUS
10
-0.8381
20
-2.54694
11
-0.828726
21
-2.54694
0
LINE
8
BLACK
6
CONTINUOUS
10
-0.828726
20
-2.54694
11
-0.824976
21
-2.54882
0
LINE
8
BLACK
6
CONTINUOUS
10
-0.824976
20
-2.54882
11
-0.823102
21
-2.55069
0
LINE
8
BLACK
6
CONTINUOUS
10
-0.823102
20
-2.55069
11
-0.821227
21
-2.55444
0
LINE
8
BLACK
6
CONTINUOUS
10
-0.821227
20
-2.55444
11
-0.821227
21
-2.55819
0
LINE
8
BLACK
6
CONTINUOUS
10
-0.821227
20
-2.55819
11
-0.823102
21
-2.56382
0
LINE
8
BLACK
6
CONTINUOUS
10
-0.823102
20
-2.56382
11
-0.845599
21
-2.58631
0
LINE
8
BLACK
6
CONTINUOUS
10
-0.845599
20
-2.58631
11
-0.821227
21
-2.58631
0
LINE
8
BLACK
6
CONTINUOUS
10
-0.785606
20
-2.54694
11
-0.804354
21
-2.54694
0
LINE
8
BLACK
6
CONTINUOUS
10
-0.804354
20
-2.54694
11
-0.806229
21
-2.56569
0
LINE
8
BLACK
6
CONTINUOUS
10
-0.806229
20
-2.56569
11
-0.804354
21
-2.56382
0
LINE
8
BLACK
6
CONTINUOUS
10
-0.804354
20
-2.56382
11
-0.800604
21
-2.56194
0
LINE
8
BLACK
6
CONTINUOUS
10
-0.800604
20
-2.56194
11
-0.791231
21
-2.56194
0
LINE
8
BLACK
6
CONTINUOUS
10
-0.791231
20
-2.56194
11
-0.787481
21
-2.56382
0
LINE
8
BLACK
6
CONTINUOUS
10
-0.787481
20
-2.56382
11
-0.785606
21
-2.56569
0
LINE
8
BLACK
6
CONTINUOUS
10
-0.785606
20
-2.56569
11
-0.783731
21
-2.56944
0
LINE
8
BLACK
6
CONTINUOUS
10
-0.783731
20
-2.56944
11
-0.783731
21
-2.57882
0
LINE
8
BLACK
6
CONTINUOUS
10
-0.783731
20
-2.57882
11
-0.785606
21
-2.58256
0
LINE
8
BLACK
6
CONTINUOUS
10
-0.785606
20
-2.58256
11
-0.787481
21
-2.58444
0
LINE
8
BLACK
6
CONTINUOUS
10
-0.787481
20
-2.58444
11
-0.791231
21
-2.58631
0
LINE
8
BLACK
6
CONTINUOUS
10
-0.791231
20
-2.58631
11
-0.800604
21
-2.58631
0
LINE
8
BLACK
6
CONTINUOUS
10
-0.800604
20
-2.58631
11
-0.804354
21
-2.58444
0
LINE
8
BLACK
6
CONTINUOUS
10
-0.804354
20
-2.58444
11
-0.806229
21
-2.58256
0
LINE
8
BLACK
6
CONTINUOUS
10
-0.736862
20
-2.58631
11
-0.736862
21
-2.56007
0
LINE
8
BLACK
6
CONTINUOUS
10
-0.736862
20
-2.56382
11
-0.734988
21
-2.56194
0
LINE
8
BLACK
6
CONTINUOUS
10
-0.734988
20
-2.56194
11
-0.731238
21
-2.56007
0
LINE
8
BLACK
6
CONTINUOUS
10
-0.731238
20
-2.56007
11
-0.725614
21
-2.56007
0
LINE
8
BLACK
6
CONTINUOUS
10
-0.725614
20
-2.56007
11
-0.721864
21
-2.56194
0
LINE
8
BLACK
6
CONTINUOUS
10
-0.721864
20
-2.56194
11
-0.719989
21
-2.56569
0
LINE
8
BLACK
6
CONTINUOUS
10
-0.719989
20
-2.56569
11
-0.719989
21
-2.58631
0
LINE
8
BLACK
6
CONTINUOUS
10
-0.719989
20
-2.56569
11
-0.718115
21
-2.56194
0
LINE
8
BLACK
6
CONTINUOUS
10
-0.718115
20
-2.56194
11
-0.714365
21
-2.56007
0
LINE
8
BLACK
6
CONTINUOUS
10
-0.714365
20
-2.56007
11
-0.708741
21
-2.56007
0
LINE
8
BLACK
6
CONTINUOUS
10
-0.708741
20
-2.56007
11
-0.704991
21
-2.56194
0
LINE
8
BLACK
6
CONTINUOUS
10
-0.704991
20
-2.56194
11
-0.703117
21
-2.56569
0
LINE
8
BLACK
6
CONTINUOUS
10
-0.703117
20
-2.56569
11
-0.703117
21
-2.58631
0
LINE
8
BLACK
6
CONTINUOUS
10
-0.684369
20
-2.58631
11
-0.684369
21
-2.56007
0
LINE
8
BLACK
6
CONTINUOUS
10
-0.684369
20
-2.56382
11
-0.682494
21
-2.56194
0
LINE
8
BLACK
6
CONTINUOUS
10
-0.682494
20
-2.56194
11
-0.678745
21
-2.56007
0
LINE
8
BLACK
6
CONTINUOUS
10
-0.678745
20
-2.56007
11
-0.67312
21
-2.56007
0
LINE
8
BLACK
6
CONTINUOUS
10
-0.67312
20
-2.56007
11
-0.669371
21
-2.56194
0
LINE
8
BLACK
6
CONTINUOUS
10
-0.669371
20
-2.56194
11
-0.667496
21
-2.56569
0
LINE
8
BLACK
6
CONTINUOUS
10
-0.667496
20
-2.56569
11
-0.667496
21
-2.58631
0
LINE
8
BLACK
6
CONTINUOUS
10
-0.667496
20
-2.56569
11
-0.665621
21
-2.56194
0
LINE
8
BLACK
6
CONTINUOUS
10
-0.665621
20
-2.56194
11
-0.661872
21
-2.56007
0
LINE
8
BLACK
6
CONTINUOUS
10
-0.661872
20
-2.56007
11
-0.656247
21
-2.56007
0
LINE
8
BLACK
6
CONTINUOUS
10
-0.656247
20
-2.56007
11
-0.652498
21
-2.56194
0
LINE
8
BLACK
6
CONTINUOUS
10
-0.652498
20
-2.56194
11
-0.650623
21
-2.56569
0
LINE
8
BLACK
6
CONTINUOUS
10
-0.650623
20
-2.56569
11
-0.650623
21
-2.58631
0
LINE
8
BLACK
6
CONTINUOUS
10
-0.827057
20
-2.61575
11
-0.759154
21
-2.61575
0
LINE
8
BLACK
6
CONTINUOUS
10
-0.827057
20
-2.63701
11
-0.827057
21
-2.59266
0
LINE
8
BLACK
6
CONTINUOUS
10
-0.759154
20
-2.63701
11
-0.759154
21
-2.59266
0
LINE
8
BLACK
6
CONTINUOUS
10
-0.759154
20
-2.61575
11
-0.803504
21
-2.63884
0
LINE
8
BLACK
6
CONTINUOUS
10
-0.759154
20
-2.61575
11
-0.803504
21
-2.59266
0
LINE
8
BLACK
6
CONTINUOUS
10
-0.827057
20
-2.61575
11
-0.782707
21
-2.63884
0
LINE
8
BLACK
6
CONTINUOUS
10
-0.827057
20
-2.61575
11
-0.782707
21
-2.59266
0
LINE
8
BLACK
6
CONTINUOUS
10
-1.11279
20
-2.63356
11
-1.13529
21
-2.63356
0
LINE
8
BLACK
6
CONTINUOUS
10
-1.12404
20
-2.63356
11
-1.12404
21
-2.59419
0
LINE
8
BLACK
6
CONTINUOUS
10
-1.12404
20
-2.59419
11
-1.12779
21
-2.59981
0
LINE
8
BLACK
6
CONTINUOUS
10
-1.12779
20
-2.59981
11
-1.13154
21
-2.60356
0
LINE
8
BLACK
6
CONTINUOUS
10
-1.13154
20
-2.60356
11
-1.13529
21
-2.60544
0
LINE
8
BLACK
6
CONTINUOUS
10
-1.09592
20
-2.62981
11
-1.09405
21
-2.63168
0
LINE
8
BLACK
6
CONTINUOUS
10
-1.09405
20
-2.63168
11
-1.09592
21
-2.63356
0
LINE
8
BLACK
6
CONTINUOUS
10
-1.09592
20
-2.63356
11
-1.0978
21
-2.63168
0
LINE
8
BLACK
6
CONTINUOUS
10
-1.0978
20
-2.63168
11
-1.09592
21
-2.62981
0
LINE
8
BLACK
6
CONTINUOUS
10
-1.09592
20
-2.62981
11
-1.09592
21
-2.63356
0
LINE
8
BLACK
6
CONTINUOUS
10
-1.08092
20
-2.59419
11
-1.05468
21
-2.59419
0
LINE
8
BLACK
6
CONTINUOUS
10
-1.05468
20
-2.59419
11
-1.07155
21
-2.63356
0
LINE
8
BLACK
6
CONTINUOUS
10
-1.04155
20
-2.59794
11
-1.03968
21
-2.59606
0
LINE
8
BLACK
6
CONTINUOUS
10
-1.03968
20
-2.59606
11
-1.03593
21
-2.59419
0
LINE
8
BLACK
6
CONTINUOUS
10
-1.03593
20
-2.59419
11
-1.02656
21
-2.59419
0
LINE
8
BLACK
6
CONTINUOUS
10
-1.02656
20
-2.59419
11
-1.02281
21
-2.59606
0
LINE
8
BLACK
6
CONTINUOUS
10
-1.02281
20
-2.59606
11
-1.02093
21
-2.59794
0
LINE
8
BLACK
6
CONTINUOUS
10
-1.02093
20
-2.59794
11
-1.01906
21
-2.60169
0
LINE
8
BLACK
6
CONTINUOUS
10
-1.01906
20
-2.60169
11
-1.01906
21
-2.60544
0
LINE
8
BLACK
6
CONTINUOUS
10
-1.01906
20
-2.60544
11
-1.02093
21
-2.61106
0
LINE
8
BLACK
6
CONTINUOUS
10
-1.02093
20
-2.61106
11
-1.04343
21
-2.63356
0
LINE
8
BLACK
6
CONTINUOUS
10
-1.04343
20
-2.63356
11
-1.01906
21
-2.63356
0
LINE
8
BLACK
6
CONTINUOUS
10
-0.983436
20
-2.59419
11
-1.00218
21
-2.59419
0
LINE
8
BLACK
6
CONTINUOUS
10
-1.00218
20
-2.59419
11
-1.00406
21
-2.61294
0
LINE
8
BLACK
6
CONTINUOUS
10
-1.00406
20
-2.61294
11
-1.00218
21
-2.61106
0
LINE
8
BLACK
6
CONTINUOUS
10
-1.00218
20
-2.61106
11
-0.998434
21
-2.60919
0
LINE
8
BLACK
6
CONTINUOUS
10
-0.998434
20
-2.60919
11
-0.98906
21
-2.60919
0
LINE
8
BLACK
6
CONTINUOUS
10
-0.98906
20
-2.60919
11
-0.985311
21
-2.61106
0
LINE
8
BLACK
6
CONTINUOUS
10
-0.985311
20
-2.61106
11
-0.983436
21
-2.61294
0
LINE
8
BLACK
6
CONTINUOUS
10
-0.983436
20
-2.61294
11
-0.981561
21
-2.61669
0
LINE
8
BLACK
6
CONTINUOUS
10
-0.981561
20
-2.61669
11
-0.981561
21
-2.62606
0
LINE
8
BLACK
6
CONTINUOUS
10
-0.981561
20
-2.62606
11
-0.983436
21
-2.62981
0
LINE
8
BLACK
6
CONTINUOUS
10
-0.983436
20
-2.62981
11
-0.985311
21
-2.63168
0
LINE
8
BLACK
6
CONTINUOUS
10
-0.985311
20
-2.63168
11
-0.98906
21
-2.63356
0
LINE
8
BLACK
6
CONTINUOUS
10
-0.98906
20
-2.63356
11
-0.998434
21
-2.63356
0
LINE
8
BLACK
6
CONTINUOUS
10
-0.998434
20
-2.63356
11
-1.00218
21
-2.63168
0
LINE
8
BLACK
6
CONTINUOUS
10
-1.00218
20
-2.63168
11
-1.00406
21
-2.62981
0
LINE
8
BLACK
6
CONTINUOUS
10
-0.934692
20
-2.63356
11
-0.934692
21
-2.60731
0
LINE
8
BLACK
6
CONTINUOUS
10
-0.934692
20
-2.61106
11
-0.932817
21
-2.60919
0
LINE
8
BLACK
6
CONTINUOUS
10
-0.932817
20
-2.60919
11
-0.929068
21
-2.60731
0
LINE
8
BLACK
6
CONTINUOUS
10
-0.929068
20
-2.60731
11
-0.923443
21
-2.60731
0
LINE
8
BLACK
6
CONTINUOUS
10
-0.923443
20
-2.60731
11
-0.919694
21
-2.60919
0
LINE
8
BLACK
6
CONTINUOUS
10
-0.919694
20
-2.60919
11
-0.917819
21
-2.61294
0
LINE
8
BLACK
6
CONTINUOUS
10
-0.917819
20
-2.61294
11
-0.917819
21
-2.63356
0
LINE
8
BLACK
6
CONTINUOUS
10
-0.917819
20
-2.61294
11
-0.915944
21
-2.60919
0
LINE
8
BLACK
6
CONTINUOUS
10
-0.915944
20
-2.60919
11
-0.912195
21
-2.60731
0
LINE
8
BLACK
6
CONTINUOUS
10
-0.912195
20
-2.60731
11
-0.906571
21
-2.60731
0
LINE
8
BLACK
6
CONTINUOUS
10
-0.906571
20
-2.60731
11
-0.902821
21
-2.60919
0
LINE
8
BLACK
6
CONTINUOUS
10
-0.902821
20
-2.60919
11
-0.900946
21
-2.61294
0
LINE
8
BLACK
6
CONTINUOUS
10
-0.900946
20
-2.61294
11
-0.900946
21
-2.63356
0
LINE
8
BLACK
6
CONTINUOUS
10
-0.882199
20
-2.63356
11
-0.882199
21
-2.60731
0
LINE
8
BLACK
6
CONTINUOUS
10
-0.882199
20
-2.61106
11
-0.880324
21
-2.60919
0
LINE
8
BLACK
6
CONTINUOUS
10
-0.880324
20
-2.60919
11
-0.876574
21
-2.60731
0
LINE
8
BLACK
6
CONTINUOUS
10
-0.876574
20
-2.60731
11
-0.87095
21
-2.60731
0
LINE
8
BLACK
6
CONTINUOUS
10
-0.87095
20
-2.60731
11
-0.8672
21
-2.60919
0
LINE
8
BLACK
6
CONTINUOUS
10
-0.8672
20
-2.60919
11
-0.865326
21
-2.61294
0
LINE
8
BLACK
6
CONTINUOUS
10
-0.865326
20
-2.61294
11
-0.865326
21
-2.63356
0
LINE
8
BLACK
6
CONTINUOUS
10
-0.865326
20
-2.61294
11
-0.863451
21
-2.60919
0
LINE
8
BLACK
6
CONTINUOUS
10
-0.863451
20
-2.60919
11
-0.859701
21
-2.60731
0
LINE
8
BLACK
6
CONTINUOUS
10
-0.859701
20
-2.60731
11
-0.854077
21
-2.60731
0
LINE
8
BLACK
6
CONTINUOUS
10
-0.854077
20
-2.60731
11
-0.850328
21
-2.60919
0
LINE
8
BLACK
6
CONTINUOUS
10
-0.850328
20
-2.60919
11
-0.848453
21
-2.61294
0
LINE
8
BLACK
6
CONTINUOUS
10
-0.848453
20
-2.61294
11
-0.848453
21
-2.63356
0
LINE
8
BLACK
6
CONTINUOUS
10
-1.02489
20
-2.66299
11
-0.956978
21
-2.66299
0
LINE
8
BLACK
6
CONTINUOUS
10
-1.02489
20
-2.67638
11
-1.02489
21
-2.6399
0
LINE
8
BLACK
6
CONTINUOUS
10
-0.956978
20
-2.67638
11
-0.956978
21
-2.6399
0
LINE
8
BLACK
6
CONTINUOUS
10
-0.956978
20
-2.66299
11
-1.00133
21
-2.68608
0
LINE
8
BLACK
6
CONTINUOUS
10
-0.956978
20
-2.66299
11
-1.00133
21
-2.6399
0
LINE
8
BLACK
6
CONTINUOUS
10
-1.02489
20
-2.66299
11
-0.980541
21
-2.68608
0
LINE
8
BLACK
6
CONTINUOUS
10
-1.02489
20
-2.66299
11
-0.980541
21
-2.6399
0
LINE
8
BLACK
6
CONTINUOUS
10
-1.17017
20
-2.83695
11
-1.17017
21
-2.81445
0
LINE
8
BLACK
6
CONTINUOUS
10
-1.17017
20
-2.8257
11
-1.1308
21
-2.8257
0
LINE
8
BLACK
6
CONTINUOUS
10
-1.1308
20
-2.8257
11
-1.13643
21
-2.82195
0
LINE
8
BLACK
6
CONTINUOUS
10
-1.13643
20
-2.82195
11
-1.14018
21
-2.8182
0
LINE
8
BLACK
6
CONTINUOUS
10
-1.14018
20
-2.8182
11
-1.14205
21
-2.81445
0
LINE
8
BLACK
6
CONTINUOUS
10
-1.13455
20
-2.85195
11
-1.13268
21
-2.85382
0
LINE
8
BLACK
6
CONTINUOUS
10
-1.13268
20
-2.85382
11
-1.1308
21
-2.85757
0
LINE
8
BLACK
6
CONTINUOUS
10
-1.1308
20
-2.85757
11
-1.1308
21
-2.86695
0
LINE
8
BLACK
6
CONTINUOUS
10
-1.1308
20
-2.86695
11
-1.13268
21
-2.8707
0
LINE
8
BLACK
6
CONTINUOUS
10
-1.13268
20
-2.8707
11
-1.13455
21
-2.87257
0
LINE
8
BLACK
6
CONTINUOUS
10
-1.13455
20
-2.87257
11
-1.1383
21
-2.87445
0
LINE
8
BLACK
6
CONTINUOUS
10
-1.1383
20
-2.87445
11
-1.14205
21
-2.87445
0
LINE
8
BLACK
6
CONTINUOUS
10
-1.14205
20
-2.87445
11
-1.14768
21
-2.87257
0
LINE
8
BLACK
6
CONTINUOUS
10
-1.14768
20
-2.87257
11
-1.17017
21
-2.85007
0
LINE
8
BLACK
6
CONTINUOUS
10
-1.17017
20
-2.85007
11
-1.17017
21
-2.87445
0
LINE
8
BLACK
6
CONTINUOUS
10
-1.16642
20
-2.89132
11
-1.1683
21
-2.89319
0
LINE
8
BLACK
6
CONTINUOUS
10
-1.1683
20
-2.89319
11
-1.17017
21
-2.89132
0
LINE
8
BLACK
6
CONTINUOUS
10
-1.17017
20
-2.89132
11
-1.1683
21
-2.88945
0
LINE
8
BLACK
6
CONTINUOUS
10
-1.1683
20
-2.88945
11
-1.16642
21
-2.89132
0
LINE
8
BLACK
6
CONTINUOUS
10
-1.16642
20
-2.89132
11
-1.17017
21
-2.89132
0
LINE
8
BLACK
6
CONTINUOUS
10
-1.1308
20
-2.90632
11
-1.1308
21
-2.93069
0
LINE
8
BLACK
6
CONTINUOUS
10
-1.1308
20
-2.93069
11
-1.1458
21
-2.91757
0
LINE
8
BLACK
6
CONTINUOUS
10
-1.1458
20
-2.91757
11
-1.1458
21
-2.92319
0
LINE
8
BLACK
6
CONTINUOUS
10
-1.1458
20
-2.92319
11
-1.14768
21
-2.92694
0
LINE
8
BLACK
6
CONTINUOUS
10
-1.14768
20
-2.92694
11
-1.14955
21
-2.92882
0
LINE
8
BLACK
6
CONTINUOUS
10
-1.14955
20
-2.92882
11
-1.1533
21
-2.93069
0
LINE
8
BLACK
6
CONTINUOUS
10
-1.1533
20
-2.93069
11
-1.16267
21
-2.93069
0
LINE
8
BLACK
6
CONTINUOUS
10
-1.16267
20
-2.93069
11
-1.16642
21
-2.92882
0
LINE
8
BLACK
6
CONTINUOUS
10
-1.16642
20
-2.92882
11
-1.1683
21
-2.92694
0
LINE
8
BLACK
6
CONTINUOUS
10
-1.1683
20
-2.92694
11
-1.17017
21
-2.92319
0
LINE
8
BLACK
6
CONTINUOUS
10
-1.17017
20
-2.92319
11
-1.17017
21
-2.91194
0
LINE
8
BLACK
6
CONTINUOUS
10
-1.17017
20
-2.91194
11
-1.1683
21
-2.90819
0
LINE
8
BLACK
6
CONTINUOUS
10
-1.1683
20
-2.90819
11
-1.16642
21
-2.90632
0
LINE
8
BLACK
6
CONTINUOUS
10
-1.1308
20
-2.95506
11
-1.1308
21
-2.95881
0
LINE
8
BLACK
6
CONTINUOUS
10
-1.1308
20
-2.95881
11
-1.13268
21
-2.96256
0
LINE
8
BLACK
6
CONTINUOUS
10
-1.13268
20
-2.96256
11
-1.13455
21
-2.96444
0
LINE
8
BLACK
6
CONTINUOUS
10
-1.13455
20
-2.96444
11
-1.1383
21
-2.96631
0
LINE
8
BLACK
6
CONTINUOUS
10
-1.1383
20
-2.96631
11
-1.1458
21
-2.96819
0
LINE
8
BLACK
6
CONTINUOUS
10
-1.1458
20
-2.96819
11
-1.15517
21
-2.96819
0
LINE
8
BLACK
6
CONTINUOUS
10
-1.15517
20
-2.96819
11
-1.16267
21
-2.96631
0
LINE
8
BLACK
6
CONTINUOUS
10
-1.16267
20
-2.96631
11
-1.16642
21
-2.96444
0
LINE
8
BLACK
6
CONTINUOUS
10
-1.16642
20
-2.96444
11
-1.1683
21
-2.96256
0
LINE
8
BLACK
6
CONTINUOUS
10
-1.1683
20
-2.96256
11
-1.17017
21
-2.95881
0
LINE
8
BLACK
6
CONTINUOUS
10
-1.17017
20
-2.95881
11
-1.17017
21
-2.95506
0
LINE
8
BLACK
6
CONTINUOUS
10
-1.17017
20
-2.95506
11
-1.1683
21
-2.95131
0
LINE
8
BLACK
6
CONTINUOUS
10
-1.1683
20
-2.95131
11
-1.16642
21
-2.94944
0
LINE
8
BLACK
6
CONTINUOUS
10
-1.16642
20
-2.94944
11
-1.16267
21
-2.94756
0
LINE
8
BLACK
6
CONTINUOUS
10
-1.16267
20
-2.94756
11
-1.15517
21
-2.94569
0
LINE
8
BLACK
6
CONTINUOUS
10
-1.15517
20
-2.94569
11
-1.1458
21
-2.94569
0
LINE
8
BLACK
6
CONTINUOUS
10
-1.1458
20
-2.94569
11
-1.1383
21
-2.94756
0
LINE
8
BLACK
6
CONTINUOUS
10
-1.1383
20
-2.94756
11
-1.13455
21
-2.94944
0
LINE
8
BLACK
6
CONTINUOUS
10
-1.13455
20
-2.94944
11
-1.13268
21
-2.95131
0
LINE
8
BLACK
6
CONTINUOUS
10
-1.13268
20
-2.95131
11
-1.1308
21
-2.95506
0
LINE
8
BLACK
6
CONTINUOUS
10
-1.1308
20
-2.99256
11
-1.1308
21
-2.99631
0
LINE
8
BLACK
6
CONTINUOUS
10
-1.1308
20
-2.99631
11
-1.13268
21
-3.00006
0
LINE
8
BLACK
6
CONTINUOUS
10
-1.13268
20
-3.00006
11
-1.13455
21
-3.00193
0
LINE
8
BLACK
6
CONTINUOUS
10
-1.13455
20
-3.00193
11
-1.1383
21
-3.00381
0
LINE
8
BLACK
6
CONTINUOUS
10
-1.1383
20
-3.00381
11
-1.1458
21
-3.00568
0
LINE
8
BLACK
6
CONTINUOUS
10
-1.1458
20
-3.00568
11
-1.15517
21
-3.00568
0
LINE
8
BLACK
6
CONTINUOUS
10
-1.15517
20
-3.00568
11
-1.16267
21
-3.00381
0
LINE
8
BLACK
6
CONTINUOUS
10
-1.16267
20
-3.00381
11
-1.16642
21
-3.00193
0
LINE
8
BLACK
6
CONTINUOUS
10
-1.16642
20
-3.00193
11
-1.1683
21
-3.00006
0
LINE
8
BLACK
6
CONTINUOUS
10
-1.1683
20
-3.00006
11
-1.17017
21
-2.99631
0
LINE
8
BLACK
6
CONTINUOUS
10
-1.17017
20
-2.99631
11
-1.17017
21
-2.99256
0
LINE
8
BLACK
6
CONTINUOUS
10
-1.17017
20
-2.99256
11
-1.1683
21
-2.98881
0
LINE
8
BLACK
6
CONTINUOUS
10
-1.1683
20
-2.98881
11
-1.16642
21
-2.98693
0
LINE
8
BLACK
6
CONTINUOUS
10
-1.16642
20
-2.98693
11
-1.16267
21
-2.98506
0
LINE
8
BLACK
6
CONTINUOUS
10
-1.16267
20
-2.98506
11
-1.15517
21
-2.98318
0
LINE
8
BLACK
6
CONTINUOUS
10
-1.15517
20
-2.98318
11
-1.1458
21
-2.98318
0
LINE
8
BLACK
6
CONTINUOUS
10
-1.1458
20
-2.98318
11
-1.1383
21
-2.98506
0
LINE
8
BLACK
6
CONTINUOUS
10
-1.1383
20
-2.98506
11
-1.13455
21
-2.98693
0
LINE
8
BLACK
6
CONTINUOUS
10
-1.13455
20
-2.98693
11
-1.13268
21
-2.98881
0
LINE
8
BLACK
6
CONTINUOUS
10
-1.13268
20
-2.98881
11
-1.1308
21
-2.99256
0
LINE
8
BLACK
6
CONTINUOUS
10
-1.17017
20
-3.05255
11
-1.14393
21
-3.05255
0
LINE
8
BLACK
6
CONTINUOUS
10
-1.14768
20
-3.05255
11
-1.1458
21
-3.05442
0
LINE
8
BLACK
6
CONTINUOUS
10
-1.1458
20
-3.05442
11
-1.14393
21
-3.05817
0
LINE
8
BLACK
6
CONTINUOUS
10
-1.14393
20
-3.05817
11
-1.14393
21
-3.0638
0
LINE
8
BLACK
6
CONTINUOUS
10
-1.14393
20
-3.0638
11
-1.1458
21
-3.06755
0
LINE
8
BLACK
6
CONTINUOUS
10
-1.1458
20
-3.06755
11
-1.14955
21
-3.06942
0
LINE
8
BLACK
6
CONTINUOUS
10
-1.14955
20
-3.06942
11
-1.17017
21
-3.06942
0
LINE
8
BLACK
6
CONTINUOUS
10
-1.14955
20
-3.06942
11
-1.1458
21
-3.0713
0
LINE
8
BLACK
6
CONTINUOUS
10
-1.1458
20
-3.0713
11
-1.14393
21
-3.07505
0
LINE
8
BLACK
6
CONTINUOUS
10
-1.14393
20
-3.07505
11
-1.14393
21
-3.08067
0
LINE
8
BLACK
6
CONTINUOUS
10
-1.14393
20
-3.08067
11
-1.1458
21
-3.08442
0
LINE
8
BLACK
6
CONTINUOUS
10
-1.1458
20
-3.08442
11
-1.14955
21
-3.0863
0
LINE
8
BLACK
6
CONTINUOUS
10
-1.14955
20
-3.0863
11
-1.17017
21
-3.0863
0
LINE
8
BLACK
6
CONTINUOUS
10
-1.17017
20
-3.10504
11
-1.14393
21
-3.10504
0
LINE
8
BLACK
6
CONTINUOUS
10
-1.14768
20
-3.10504
11
-1.1458
21
-3.10692
0
LINE
8
BLACK
6
CONTINUOUS
10
-1.1458
20
-3.10692
11
-1.14393
21
-3.11067
0
LINE
8
BLACK
6
CONTINUOUS
10
-1.14393
20
-3.11067
11
-1.14393
21
-3.11629
0
LINE
8
BLACK
6
CONTINUOUS
10
-1.14393
20
-3.11629
11
-1.1458
21
-3.12004
0
LINE
8
BLACK
6
CONTINUOUS
10
-1.1458
20
-3.12004
11
-1.14955
21
-3.12192
0
LINE
8
BLACK
6
CONTINUOUS
10
-1.14955
20
-3.12192
11
-1.17017
21
-3.12192
0
LINE
8
BLACK
6
CONTINUOUS
10
-1.14955
20
-3.12192
11
-1.1458
21
-3.12379
0
LINE
8
BLACK
6
CONTINUOUS
10
-1.1458
20
-3.12379
11
-1.14393
21
-3.12754
0
LINE
8
BLACK
6
CONTINUOUS
10
-1.14393
20
-3.12754
11
-1.14393
21
-3.13316
0
LINE
8
BLACK
6
CONTINUOUS
10
-1.14393
20
-3.13316
11
-1.1458
21
-3.13691
0
LINE
8
BLACK
6
CONTINUOUS
10
-1.1458
20
-3.13691
11
-1.14955
21
-3.13879
0
LINE
8
BLACK
6
CONTINUOUS
10
-1.14955
20
-3.13879
11
-1.17017
21
-3.13879
0
LINE
8
BLACK
6
CONTINUOUS
10
-1.10512
20
-2.73543
11
-1.10512
21
-3.21969
0
LINE
8
BLACK
6
CONTINUOUS
10
-1.06426
20
-2.73543
11
-1.12821
21
-2.73543
0
LINE
8
BLACK
6
CONTINUOUS
10
-1.06426
20
-3.21969
11
-1.12821
21
-3.21969
0
LINE
8
BLACK
6
CONTINUOUS
10
-1.10512
20
-3.21969
11
-1.12821
21
-3.17533
0
LINE
8
BLACK
6
CONTINUOUS
10
-1.10512
20
-3.21969
11
-1.08203
21
-3.17533
0
LINE
8
BLACK
6
CONTINUOUS
10
-1.10512
20
-2.73543
11
-1.12821
21
-2.77978
0
LINE
8
BLACK
6
CONTINUOUS
10
-1.10512
20
-2.73543
11
-1.08203
21
-2.77978
0
LINE
8
BLACK
6
CONTINUOUS
10
-0.101133
20
-2.57372
11
-0.0767613
21
-2.57372
0
LINE
8
BLACK
6
CONTINUOUS
10
-0.0767613
20
-2.57372
11
-0.0898847
21
-2.58871
0
LINE
8
BLACK
6
CONTINUOUS
10
-0.0898847
20
-2.58871
11
-0.0842604
21
-2.58871
0
LINE
8
BLACK
6
CONTINUOUS
10
-0.0842604
20
-2.58871
11
-0.0805109
21
-2.59059
0
LINE
8
BLACK
6
CONTINUOUS
10
-0.0805109
20
-2.59059
11
-0.0786361
21
-2.59246
0
LINE
8
BLACK
6
CONTINUOUS
10
-0.0786361
20
-2.59246
11
-0.0767613
21
-2.59621
0
LINE
8
BLACK
6
CONTINUOUS
10
-0.0767613
20
-2.59621
11
-0.0767613
21
-2.60559
0
LINE
8
BLACK
6
CONTINUOUS
10
-0.0767613
20
-2.60559
11
-0.0786361
21
-2.60934
0
LINE
8
BLACK
6
CONTINUOUS
10
-0.0786361
20
-2.60934
11
-0.0805109
21
-2.61121
0
LINE
8
BLACK
6
CONTINUOUS
10
-0.0805109
20
-2.61121
11
-0.0842604
21
-2.61309
0
LINE
8
BLACK
6
CONTINUOUS
10
-0.0842604
20
-2.61309
11
-0.095509
21
-2.61309
0
LINE
8
BLACK
6
CONTINUOUS
10
-0.095509
20
-2.61309
11
-0.0992585
21
-2.61121
0
LINE
8
BLACK
6
CONTINUOUS
10
-0.0992585
20
-2.61121
11
-0.101133
21
-2.60934
0
LINE
8
BLACK
6
CONTINUOUS
10
-0.0598884
20
-2.60934
11
-0.0580137
21
-2.61121
0
LINE
8
BLACK
6
CONTINUOUS
10
-0.0580137
20
-2.61121
11
-0.0598884
21
-2.61309
0
LINE
8
BLACK
6
CONTINUOUS
10
-0.0598884
20
-2.61309
11
-0.0617632
21
-2.61121
0
LINE
8
BLACK
6
CONTINUOUS
10
-0.0617632
20
-2.61121
11
-0.0598884
21
-2.60934
0
LINE
8
BLACK
6
CONTINUOUS
10
-0.0598884
20
-2.60934
11
-0.0598884
21
-2.61309
0
LINE
8
BLACK
6
CONTINUOUS
10
-0.0448903
20
-2.57372
11
-0.0205183
21
-2.57372
0
LINE
8
BLACK
6
CONTINUOUS
10
-0.0205183
20
-2.57372
11
-0.0336417
21
-2.58871
0
LINE
8
BLACK
6
CONTINUOUS
10
-0.0336417
20
-2.58871
11
-0.0280174
21
-2.58871
0
LINE
8
BLACK
6
CONTINUOUS
10
-0.0280174
20
-2.58871
11
-0.0242679
21
-2.59059
0
LINE
8
BLACK
6
CONTINUOUS
10
-0.0242679
20
-2.59059
11
-0.0223931
21
-2.59246
0
LINE
8
BLACK
6
CONTINUOUS
10
-0.0223931
20
-2.59246
11
-0.0205183
21
-2.59621
0
LINE
8
BLACK
6
CONTINUOUS
10
-0.0205183
20
-2.59621
11
-0.0205183
21
-2.60559
0
LINE
8
BLACK
6
CONTINUOUS
10
-0.0205183
20
-2.60559
11
-0.0223931
21
-2.60934
0
LINE
8
BLACK
6
CONTINUOUS
10
-0.0223931
20
-2.60934
11
-0.0242679
21
-2.61121
0
LINE
8
BLACK
6
CONTINUOUS
10
-0.0242679
20
-2.61121
11
-0.0280174
21
-2.61309
0
LINE
8
BLACK
6
CONTINUOUS
10
-0.0280174
20
-2.61309
11
-0.039266
21
-2.61309
0
LINE
8
BLACK
6
CONTINUOUS
10
-0.039266
20
-2.61309
11
-0.0430156
21
-2.61121
0
LINE
8
BLACK
6
CONTINUOUS
10
-0.0430156
20
-2.61121
11
-0.0448903
21
-2.60934
0
LINE
8
BLACK
6
CONTINUOUS
10
0.00385354
20
-2.57372
11
0.00760311
21
-2.57372
0
LINE
8
BLACK
6
CONTINUOUS
10
0.00760311
20
-2.57372
11
0.0113526
21
-2.57559
0
LINE
8
BLACK
6
CONTINUOUS
10
0.0113526
20
-2.57559
11
0.0132274
21
-2.57747
0
LINE
8
BLACK
6
CONTINUOUS
10
0.0132274
20
-2.57747
11
0.0151022
21
-2.58121
0
LINE
8
BLACK
6
CONTINUOUS
10
0.0151022
20
-2.58121
11
0.0169769
21
-2.58871
0
LINE
8
BLACK
6
CONTINUOUS
10
0.0169769
20
-2.58871
11
0.0169769
21
-2.59809
0
LINE
8
BLACK
6
CONTINUOUS
10
0.0169769
20
-2.59809
11
0.0151022
21
-2.60559
0
LINE
8
BLACK
6
CONTINUOUS
10
0.0151022
20
-2.60559
11
0.0132274
21
-2.60934
0
LINE
8
BLACK
6
CONTINUOUS
10
0.0132274
20
-2.60934
11
0.0113526
21
-2.61121
0
LINE
8
BLACK
6
CONTINUOUS
10
0.0113526
20
-2.61121
11
0.00760311
21
-2.61309
0
LINE
8
BLACK
6
CONTINUOUS
10
0.00760311
20
-2.61309
11
0.00385354
21
-2.61309
0
LINE
8
BLACK
6
CONTINUOUS
10
0.00385354
20
-2.61309
11
0.000104016
21
-2.61121
0
LINE
8
BLACK
6
CONTINUOUS
10
0.000104016
20
-2.61121
11
-0.00177071
21
-2.60934
0
LINE
8
BLACK
6
CONTINUOUS
10
-0.00177071
20
-2.60934
11
-0.00364547
21
-2.60559
0
LINE
8
BLACK
6
CONTINUOUS
10
-0.00364547
20
-2.60559
11
-0.00552024
21
-2.59809
0
LINE
8
BLACK
6
CONTINUOUS
10
-0.00552024
20
-2.59809
11
-0.00552024
21
-2.58871
0
LINE
8
BLACK
6
CONTINUOUS
10
-0.00552024
20
-2.58871
11
-0.00364547
21
-2.58121
0
LINE
8
BLACK
6
CONTINUOUS
10
-0.00364547
20
-2.58121
11
-0.00177071
21
-2.57747
0
LINE
8
BLACK
6
CONTINUOUS
10
-0.00177071
20
-2.57747
11
0.000104016
21
-2.57559
0
LINE
8
BLACK
6
CONTINUOUS
10
0.000104016
20
-2.57559
11
0.00385354
21
-2.57372
0
LINE
8
BLACK
6
CONTINUOUS
10
0.0413489
20
-2.57372
11
0.0450984
21
-2.57372
0
LINE
8
BLACK
6
CONTINUOUS
10
0.0450984
20
-2.57372
11
0.048848
21
-2.57559
0
LINE
8
BLACK
6
CONTINUOUS
10
0.048848
20
-2.57559
11
0.0507227
21
-2.57747
0
LINE
8
BLACK
6
CONTINUOUS
10
0.0507227
20
-2.57747
11
0.0525975
21
-2.58121
0
LINE
8
BLACK
6
CONTINUOUS
10
0.0525975
20
-2.58121
11
0.0544722
21
-2.58871
0
LINE
8
BLACK
6
CONTINUOUS
10
0.0544722
20
-2.58871
11
0.0544722
21
-2.59809
0
LINE
8
BLACK
6
CONTINUOUS
10
0.0544722
20
-2.59809
11
0.0525975
21
-2.60559
0
LINE
8
BLACK
6
CONTINUOUS
10
0.0525975
20
-2.60559
11
0.0507227
21
-2.60934
0
LINE
8
BLACK
6
CONTINUOUS
10
0.0507227
20
-2.60934
11
0.048848
21
-2.61121
0
LINE
8
BLACK
6
CONTINUOUS
10
0.048848
20
-2.61121
11
0.0450984
21
-2.61309
0
LINE
8
BLACK
6
CONTINUOUS
10
0.0450984
20
-2.61309
11
0.0413489
21
-2.61309
0
LINE
8
BLACK
6
CONTINUOUS
10
0.0413489
20
-2.61309
11
0.0375993
21
-2.61121
0
LINE
8
BLACK
6
CONTINUOUS
10
0.0375993
20
-2.61121
11
0.0357246
21
-2.60934
0
LINE
8
BLACK
6
CONTINUOUS
10
0.0357246
20
-2.60934
11
0.0338498
21
-2.60559
0
LINE
8
BLACK
6
CONTINUOUS
10
0.0338498
20
-2.60559
11
0.031975
21
-2.59809
0
LINE
8
BLACK
6
CONTINUOUS
10
0.031975
20
-2.59809
11
0.031975
21
-2.58871
0
LINE
8
BLACK
6
CONTINUOUS
10
0.031975
20
-2.58871
11
0.0338498
21
-2.58121
0
LINE
8
BLACK
6
CONTINUOUS
10
0.0338498
20
-2.58121
11
0.0357246
21
-2.57747
0
LINE
8
BLACK
6
CONTINUOUS
10
0.0357246
20
-2.57747
11
0.0375993
21
-2.57559
0
LINE
8
BLACK
6
CONTINUOUS
10
0.0375993
20
-2.57559
11
0.0413489
21
-2.57372
0
LINE
8
BLACK
6
CONTINUOUS
10
0.101341
20
-2.61309
11
0.101341
21
-2.58684
0
LINE
8
BLACK
6
CONTINUOUS
10
0.101341
20
-2.59059
11
0.103216
21
-2.58871
0
LINE
8
BLACK
6
CONTINUOUS
10
0.103216
20
-2.58871
11
0.106966
21
-2.58684
0
LINE
8
BLACK
6
CONTINUOUS
10
0.106966
20
-2.58684
11
0.11259
21
-2.58684
0
LINE
8
BLACK
6
CONTINUOUS
10
0.11259
20
-2.58684
11
0.116339
21
-2.58871
0
LINE
8
BLACK
6
CONTINUOUS
10
0.116339
20
-2.58871
11
0.118214
21
-2.59246
0
LINE
8
BLACK
6
CONTINUOUS
10
0.118214
20
-2.59246
11
0.118214
21
-2.61309
0
LINE
8
BLACK
6
CONTINUOUS
10
0.118214
20
-2.59246
11
0.120089
21
-2.58871
0
LINE
8
BLACK
6
CONTINUOUS
10
0.120089
20
-2.58871
11
0.123839
21
-2.58684
0
LINE
8
BLACK
6
CONTINUOUS
10
0.123839
20
-2.58684
11
0.129463
21
-2.58684
0
LINE
8
BLACK
6
CONTINUOUS
10
0.129463
20
-2.58684
11
0.133212
21
-2.58871
0
LINE
8
BLACK
6
CONTINUOUS
10
0.133212
20
-2.58871
11
0.135087
21
-2.59246
0
LINE
8
BLACK
6
CONTINUOUS
10
0.135087
20
-2.59246
11
0.135087
21
-2.61309
0
LINE
8
BLACK
6
CONTINUOUS
10
0.153835
20
-2.61309
11
0.153835
21
-2.58684
0
LINE
8
BLACK
6
CONTINUOUS
10
0.153835
20
-2.59059
11
0.15571
21
-2.58871
0
LINE
8
BLACK
6
CONTINUOUS
10
0.15571
20
-2.58871
11
0.159459
21
-2.58684
0
LINE
8
BLACK
6
CONTINUOUS
10
0.159459
20
-2.58684
11
0.165083
21
-2.58684
0
LINE
8
BLACK
6
CONTINUOUS
10
0.165083
20
-2.58684
11
0.168833
21
-2.58871
0
LINE
8
BLACK
6
CONTINUOUS
10
0.168833
20
-2.58871
11
0.170708
21
-2.59246
0
LINE
8
BLACK
6
CONTINUOUS
10
0.170708
20
-2.59246
11
0.170708
21
-2.61309
0
LINE
8
BLACK
6
CONTINUOUS
10
0.170708
20
-2.59246
11
0.172582
21
-2.58871
0
LINE
8
BLACK
6
CONTINUOUS
10
0.172582
20
-2.58871
11
0.176332
21
-2.58684
0
LINE
8
BLACK
6
CONTINUOUS
10
0.176332
20
-2.58684
11
0.181956
21
-2.58684
0
LINE
8
BLACK
6
CONTINUOUS
10
0.181956
20
-2.58684
11
0.185706
21
-2.58871
0
LINE
8
BLACK
6
CONTINUOUS
10
0.185706
20
-2.58871
11
0.187581
21
-2.59246
0
LINE
8
BLACK
6
CONTINUOUS
10
0.187581
20
-2.59246
11
0.187581
21
-2.61309
0
LINE
8
BLACK
6
CONTINUOUS
10
-0.0198622
20
-2.64252
11
0.110059
21
-2.64252
0
LINE
8
BLACK
6
CONTINUOUS
10
-0.0198622
20
-2.64882
11
-0.0198622
21
-2.61943
0
LINE
8
BLACK
6
CONTINUOUS
10
0.110059
20
-2.64882
11
0.110059
21
-2.61943
0
LINE
8
BLACK
6
CONTINUOUS
10
0.110059
20
-2.64252
11
0.0657085
21
-2.66561
0
LINE
8
BLACK
6
CONTINUOUS
10
0.110059
20
-2.64252
11
0.0657085
21
-2.61943
0
LINE
8
BLACK
6
CONTINUOUS
10
-0.0198622
20
-2.64252
11
0.0244883
21
-2.66561
0
LINE
8
BLACK
6
CONTINUOUS
10
-0.0198622
20
-2.64252
11
0.0244883
21
-2.61943
0
LINE
8
BLACK
6
CONTINUOUS
10
0.330409
20
-2.98476
11
0.330409
21
-2.99226
0
LINE
8
BLACK
6
CONTINUOUS
10
0.330409
20
-2.99226
11
0.332283
21
-2.99601
0
LINE
8
BLACK
6
CONTINUOUS
10
0.332283
20
-2.99601
11
0.334158
21
-2.99789
0
LINE
8
BLACK
6
CONTINUOUS
10
0.334158
20
-2.99789
11
0.339783
21
-3.00164
0
LINE
8
BLACK
6
CONTINUOUS
10
0.339783
20
-3.00164
11
0.347282
21
-3.00351
0
LINE
8
BLACK
6
CONTINUOUS
10
0.347282
20
-3.00351
11
0.36228
21
-3.00351
0
LINE
8
BLACK
6
CONTINUOUS
10
0.36228
20
-3.00351
11
0.366029
21
-3.00164
0
LINE
8
BLACK
6
CONTINUOUS
10
0.366029
20
-3.00164
11
0.367904
21
-2.99976
0
LINE
8
BLACK
6
CONTINUOUS
10
0.367904
20
-2.99976
11
0.369779
21
-2.99601
0
LINE
8
BLACK
6
CONTINUOUS
10
0.369779
20
-2.99601
11
0.369779
21
-2.98851
0
LINE
8
BLACK
6
CONTINUOUS
10
0.369779
20
-2.98851
11
0.367904
21
-2.98476
0
LINE
8
BLACK
6
CONTINUOUS
10
0.367904
20
-2.98476
11
0.366029
21
-2.98289
0
LINE
8
BLACK
6
CONTINUOUS
10
0.366029
20
-2.98289
11
0.36228
21
-2.98101
0
LINE
8
BLACK
6
CONTINUOUS
10
0.36228
20
-2.98101
11
0.352906
21
-2.98101
0
LINE
8
BLACK
6
CONTINUOUS
10
0.352906
20
-2.98101
11
0.349156
21
-2.98289
0
LINE
8
BLACK
6
CONTINUOUS
10
0.349156
20
-2.98289
11
0.347282
21
-2.98476
0
LINE
8
BLACK
6
CONTINUOUS
10
0.347282
20
-2.98476
11
0.345407
21
-2.98851
0
LINE
8
BLACK
6
CONTINUOUS
10
0.345407
20
-2.98851
11
0.345407
21
-2.99601
0
LINE
8
BLACK
6
CONTINUOUS
10
0.345407
20
-2.99601
11
0.347282
21
-2.99976
0
LINE
8
BLACK
6
CONTINUOUS
10
0.347282
20
-2.99976
11
0.349156
21
-3.00164
0
LINE
8
BLACK
6
CONTINUOUS
10
0.349156
20
-3.00164
11
0.352906
21
-3.00351
0
LINE
8
BLACK
6
CONTINUOUS
10
0.366029
20
-2.96414
11
0.367904
21
-2.96227
0
LINE
8
BLACK
6
CONTINUOUS
10
0.367904
20
-2.96227
11
0.369779
21
-2.96414
0
LINE
8
BLACK
6
CONTINUOUS
10
0.369779
20
-2.96414
11
0.367904
21
-2.96602
0
LINE
8
BLACK
6
CONTINUOUS
10
0.367904
20
-2.96602
11
0.366029
21
-2.96414
0
LINE
8
BLACK
6
CONTINUOUS
10
0.366029
20
-2.96414
11
0.369779
21
-2.96414
0
LINE
8
BLACK
6
CONTINUOUS
10
0.334158
20
-2.94727
11
0.332283
21
-2.94539
0
LINE
8
BLACK
6
CONTINUOUS
10
0.332283
20
-2.94539
11
0.330409
21
-2.94164
0
LINE
8
BLACK
6
CONTINUOUS
10
0.330409
20
-2.94164
11
0.330409
21
-2.93227
0
LINE
8
BLACK
6
CONTINUOUS
10
0.330409
20
-2.93227
11
0.332283
21
-2.92852
0
LINE
8
BLACK
6
CONTINUOUS
10
0.332283
20
-2.92852
11
0.334158
21
-2.92665
0
LINE
8
BLACK
6
CONTINUOUS
10
0.334158
20
-2.92665
11
0.337908
21
-2.92477
0
LINE
8
BLACK
6
CONTINUOUS
10
0.337908
20
-2.92477
11
0.341657
21
-2.92477
0
LINE
8
BLACK
6
CONTINUOUS
10
0.341657
20
-2.92477
11
0.347282
21
-2.92665
0
LINE
8
BLACK
6
CONTINUOUS
10
0.347282
20
-2.92665
11
0.369779
21
-2.94914
0
LINE
8
BLACK
6
CONTINUOUS
10
0.369779
20
-2.94914
11
0.369779
21
-2.92477
0
LINE
8
BLACK
6
CONTINUOUS
10
0.347282
20
-2.90227
11
0.345407
21
-2.90602
0
LINE
8
BLACK
6
CONTINUOUS
10
0.345407
20
-2.90602
11
0.343532
21
-2.9079
0
LINE
8
BLACK
6
CONTINUOUS
10
0.343532
20
-2.9079
11
0.339783
21
-2.90977
0
LINE
8
BLACK
6
CONTINUOUS
10
0.339783
20
-2.90977
11
0.337908
21
-2.90977
0
LINE
8
BLACK
6
CONTINUOUS
10
0.337908
20
-2.90977
11
0.334158
21
-2.9079
0
LINE
8
BLACK
6
CONTINUOUS
10
0.334158
20
-2.9079
11
0.332283
21
-2.90602
0
LINE
8
BLACK
6
CONTINUOUS
10
0.332283
20
-2.90602
11
0.330409
21
-2.90227
0
LINE
8
BLACK
6
CONTINUOUS
10
0.330409
20
-2.90227
11
0.330409
21
-2.89477
0
LINE
8
BLACK
6
CONTINUOUS
10
0.330409
20
-2.89477
11
0.332283
21
-2.89102
0
LINE
8
BLACK
6
CONTINUOUS
10
0.332283
20
-2.89102
11
0.334158
21
-2.88915
0
LINE
8
BLACK
6
CONTINUOUS
10
0.334158
20
-2.88915
11
0.337908
21
-2.88727
0
LINE
8
BLACK
6
CONTINUOUS
10
0.337908
20
-2.88727
11
0.339783
21
-2.88727
0
LINE
8
BLACK
6
CONTINUOUS
10
0.339783
20
-2.88727
11
0.343532
21
-2.88915
0
LINE
8
BLACK
6
CONTINUOUS
10
0.343532
20
-2.88915
11
0.345407
21
-2.89102
0
LINE
8
BLACK
6
CONTINUOUS
10
0.345407
20
-2.89102
11
0.347282
21
-2.89477
0
LINE
8
BLACK
6
CONTINUOUS
10
0.347282
20
-2.89477
11
0.347282
21
-2.90227
0
LINE
8
BLACK
6
CONTINUOUS
10
0.347282
20
-2.90227
11
0.349156
21
-2.90602
0
LINE
8
BLACK
6
CONTINUOUS
10
0.349156
20
-2.90602
11
0.351031
21
-2.9079
0
LINE
8
BLACK
6
CONTINUOUS
10
0.351031
20
-2.9079
11
0.354781
21
-2.90977
0
LINE
8
BLACK
6
CONTINUOUS
10
0.354781
20
-2.90977
11
0.36228
21
-2.90977
0
LINE
8
BLACK
6
CONTINUOUS
10
0.36228
20
-2.90977
11
0.366029
21
-2.9079
0
LINE
8
BLACK
6
CONTINUOUS
10
0.366029
20
-2.9079
11
0.367904
21
-2.90602
0
LINE
8
BLACK
6
CONTINUOUS
10
0.367904
20
-2.90602
11
0.369779
21
-2.90227
0
LINE
8
BLACK
6
CONTINUOUS
10
0.369779
20
-2.90227
11
0.369779
21
-2.89477
0
LINE
8
BLACK
6
CONTINUOUS
10
0.369779
20
-2.89477
11
0.367904
21
-2.89102
0
LINE
8
BLACK
6
CONTINUOUS
10
0.367904
20
-2.89102
11
0.366029
21
-2.88915
0
LINE
8
BLACK
6
CONTINUOUS
10
0.366029
20
-2.88915
11
0.36228
21
-2.88727
0
LINE
8
BLACK
6
CONTINUOUS
10
0.36228
20
-2.88727
11
0.354781
21
-2.88727
0
LINE
8
BLACK
6
CONTINUOUS
10
0.354781
20
-2.88727
11
0.351031
21
-2.88915
0
LINE
8
BLACK
6
CONTINUOUS
10
0.351031
20
-2.88915
11
0.349156
21
-2.89102
0
LINE
8
BLACK
6
CONTINUOUS
10
0.349156
20
-2.89102
11
0.347282
21
-2.89477
0
LINE
8
BLACK
6
CONTINUOUS
10
0.330409
20
-2.85165
11
0.330409
21
-2.8704
0
LINE
8
BLACK
6
CONTINUOUS
10
0.330409
20
-2.8704
11
0.349156
21
-2.87228
0
LINE
8
BLACK
6
CONTINUOUS
10
0.349156
20
-2.87228
11
0.347282
21
-2.8704
0
LINE
8
BLACK
6
CONTINUOUS
10
0.347282
20
-2.8704
11
0.345407
21
-2.86665
0
LINE
8
BLACK
6
CONTINUOUS
10
0.345407
20
-2.86665
11
0.345407
21
-2.85728
0
LINE
8
BLACK
6
CONTINUOUS
10
0.345407
20
-2.85728
11
0.347282
21
-2.85353
0
LINE
8
BLACK
6
CONTINUOUS
10
0.347282
20
-2.85353
11
0.349156
21
-2.85165
0
LINE
8
BLACK
6
CONTINUOUS
10
0.349156
20
-2.85165
11
0.352906
21
-2.84978
0
LINE
8
BLACK
6
CONTINUOUS
10
0.352906
20
-2.84978
11
0.36228
21
-2.84978
0
LINE
8
BLACK
6
CONTINUOUS
10
0.36228
20
-2.84978
11
0.366029
21
-2.85165
0
LINE
8
BLACK
6
CONTINUOUS
10
0.366029
20
-2.85165
11
0.367904
21
-2.85353
0
LINE
8
BLACK
6
CONTINUOUS
10
0.367904
20
-2.85353
11
0.369779
21
-2.85728
0
LINE
8
BLACK
6
CONTINUOUS
10
0.369779
20
-2.85728
11
0.369779
21
-2.86665
0
LINE
8
BLACK
6
CONTINUOUS
10
0.369779
20
-2.86665
11
0.367904
21
-2.8704
0
LINE
8
BLACK
6
CONTINUOUS
10
0.367904
20
-2.8704
11
0.366029
21
-2.87228
0
LINE
8
BLACK
6
CONTINUOUS
10
0.369779
20
-2.80291
11
0.343532
21
-2.80291
0
LINE
8
BLACK
6
CONTINUOUS
10
0.347282
20
-2.80291
11
0.345407
21
-2.80104
0
LINE
8
BLACK
6
CONTINUOUS
10
0.345407
20
-2.80104
11
0.343532
21
-2.79729
0
LINE
8
BLACK
6
CONTINUOUS
10
0.343532
20
-2.79729
11
0.343532
21
-2.79166
0
LINE
8
BLACK
6
CONTINUOUS
10
0.343532
20
-2.79166
11
0.345407
21
-2.78791
0
LINE
8
BLACK
6
CONTINUOUS
10
0.345407
20
-2.78791
11
0.349156
21
-2.78604
0
LINE
8
BLACK
6
CONTINUOUS
10
0.349156
20
-2.78604
11
0.369779
21
-2.78604
0
LINE
8
BLACK
6
CONTINUOUS
10
0.349156
20
-2.78604
11
0.345407
21
-2.78416
0
LINE
8
BLACK
6
CONTINUOUS
10
0.345407
20
-2.78416
11
0.343532
21
-2.78041
0
LINE
8
BLACK
6
CONTINUOUS
10
0.343532
20
-2.78041
11
0.343532
21
-2.77479
0
LINE
8
BLACK
6
CONTINUOUS
10
0.343532
20
-2.77479
11
0.345407
21
-2.77104
0
LINE
8
BLACK
6
CONTINUOUS
10
0.345407
20
-2.77104
11
0.349156
21
-2.76916
0
LINE
8
BLACK
6
CONTINUOUS
10
0.349156
20
-2.76916
11
0.369779
21
-2.76916
0
LINE
8
BLACK
6
CONTINUOUS
10
0.369779
20
-2.75042
11
0.343532
21
-2.75042
0
LINE
8
BLACK
6
CONTINUOUS
10
0.347282
20
-2.75042
11
0.345407
21
-2.74854
0
LINE
8
BLACK
6
CONTINUOUS
10
0.345407
20
-2.74854
11
0.343532
21
-2.74479
0
LINE
8
BLACK
6
CONTINUOUS
10
0.343532
20
-2.74479
11
0.343532
21
-2.73917
0
LINE
8
BLACK
6
CONTINUOUS
10
0.343532
20
-2.73917
11
0.345407
21
-2.73542
0
LINE
8
BLACK
6
CONTINUOUS
10
0.345407
20
-2.73542
11
0.349156
21
-2.73354
0
LINE
8
BLACK
6
CONTINUOUS
10
0.349156
20
-2.73354
11
0.369779
21
-2.73354
0
LINE
8
BLACK
6
CONTINUOUS
10
0.349156
20
-2.73354
11
0.345407
21
-2.73167
0
LINE
8
BLACK
6
CONTINUOUS
10
0.345407
20
-2.73167
11
0.343532
21
-2.72792
0
LINE
8
BLACK
6
CONTINUOUS
10
0.343532
20
-2.72792
11
0.343532
21
-2.7223
0
LINE
8
BLACK
6
CONTINUOUS
10
0.343532
20
-2.7223
11
0.345407
21
-2.71855
0
LINE
8
BLACK
6
CONTINUOUS
10
0.345407
20
-2.71855
11
0.349156
21
-2.71667
0
LINE
8
BLACK
6
CONTINUOUS
10
0.349156
20
-2.71667
11
0.369779
21
-2.71667
0
LINE
8
BLACK
6
CONTINUOUS
10
0.304724
20
-2.98287
11
0.304724
21
-2.73543
0
LINE
8
BLACK
6
CONTINUOUS
10
0.256713
20
-2.98287
11
0.327812
21
-2.98287
0
LINE
8
BLACK
6
CONTINUOUS
10
0.256713
20
-2.73543
11
0.327812
21
-2.73543
0
LINE
8
BLACK
6
CONTINUOUS
10
0.304724
20
-2.73543
11
0.327812
21
-2.77978
0
LINE
8
BLACK
6
CONTINUOUS
10
0.304724
20
-2.73543
11
0.281637
21
-2.77978
0
LINE
8
BLACK
6
CONTINUOUS
10
0.304724
20
-2.98287
11
0.327812
21
-2.93852
0
LINE
8
BLACK
6
CONTINUOUS
10
0.304724
20
-2.98287
11
0.281637
21
-2.93852
0
LINE
8
BLACK
6
CONTINUOUS
10
-1.52996
20
-4.15852
11
-1.52808
21
-4.15477
0
LINE
8
BLACK
6
CONTINUOUS
10
-1.52808
20
-4.15477
11
-1.52621
21
-4.15289
0
LINE
8
BLACK
6
CONTINUOUS
10
-1.52621
20
-4.15289
11
-1.52246
21
-4.15102
0
LINE
8
BLACK
6
CONTINUOUS
10
-1.52246
20
-4.15102
11
-1.52058
21
-4.15102
0
LINE
8
BLACK
6
CONTINUOUS
10
-1.52058
20
-4.15102
11
-1.51684
21
-4.15289
0
LINE
8
BLACK
6
CONTINUOUS
10
-1.51684
20
-4.15289
11
-1.51496
21
-4.15477
0
LINE
8
BLACK
6
CONTINUOUS
10
-1.51496
20
-4.15477
11
-1.51309
21
-4.15852
0
LINE
8
BLACK
6
CONTINUOUS
10
-1.51309
20
-4.15852
11
-1.51309
21
-4.16602
0
LINE
8
BLACK
6
CONTINUOUS
10
-1.51309
20
-4.16602
11
-1.51496
21
-4.16976
0
LINE
8
BLACK
6
CONTINUOUS
10
-1.51496
20
-4.16976
11
-1.51684
21
-4.17164
0
LINE
8
BLACK
6
CONTINUOUS
10
-1.51684
20
-4.17164
11
-1.52058
21
-4.17351
0
LINE
8
BLACK
6
CONTINUOUS
10
-1.52058
20
-4.17351
11
-1.52246
21
-4.17351
0
LINE
8
BLACK
6
CONTINUOUS
10
-1.52246
20
-4.17351
11
-1.52621
21
-4.17164
0
LINE
8
BLACK
6
CONTINUOUS
10
-1.52621
20
-4.17164
11
-1.52808
21
-4.16976
0
LINE
8
BLACK
6
CONTINUOUS
10
-1.52808
20
-4.16976
11
-1.52996
21
-4.16602
0
LINE
8
BLACK
6
CONTINUOUS
10
-1.52996
20
-4.16602
11
-1.52996
21
-4.15852
0
LINE
8
BLACK
6
CONTINUOUS
10
-1.52996
20
-4.15852
11
-1.53183
21
-4.15477
0
LINE
8
BLACK
6
CONTINUOUS
10
-1.53183
20
-4.15477
11
-1.53371
21
-4.15289
0
LINE
8
BLACK
6
CONTINUOUS
10
-1.53371
20
-4.15289
11
-1.53746
21
-4.15102
0
LINE
8
BLACK
6
CONTINUOUS
10
-1.53746
20
-4.15102
11
-1.54496
21
-4.15102
0
LINE
8
BLACK
6
CONTINUOUS
10
-1.54496
20
-4.15102
11
-1.54871
21
-4.15289
0
LINE
8
BLACK
6
CONTINUOUS
10
-1.54871
20
-4.15289
11
-1.55058
21
-4.15477
0
LINE
8
BLACK
6
CONTINUOUS
10
-1.55058
20
-4.15477
11
-1.55246
21
-4.15852
0
LINE
8
BLACK
6
CONTINUOUS
10
-1.55246
20
-4.15852
11
-1.55246
21
-4.16602
0
LINE
8
BLACK
6
CONTINUOUS
10
-1.55246
20
-4.16602
11
-1.55058
21
-4.16976
0
LINE
8
BLACK
6
CONTINUOUS
10
-1.55058
20
-4.16976
11
-1.54871
21
-4.17164
0
LINE
8
BLACK
6
CONTINUOUS
10
-1.54871
20
-4.17164
11
-1.54496
21
-4.17351
0
LINE
8
BLACK
6
CONTINUOUS
10
-1.54496
20
-4.17351
11
-1.53746
21
-4.17351
0
LINE
8
BLACK
6
CONTINUOUS
10
-1.53746
20
-4.17351
11
-1.53371
21
-4.17164
0
LINE
8
BLACK
6
CONTINUOUS
10
-1.53371
20
-4.17164
11
-1.53183
21
-4.16976
0
LINE
8
BLACK
6
CONTINUOUS
10
-1.53183
20
-4.16976
11
-1.52996
21
-4.16602
0
LINE
8
BLACK
6
CONTINUOUS
10
-1.54871
20
-4.19039
11
-1.55058
21
-4.19226
0
LINE
8
BLACK
6
CONTINUOUS
10
-1.55058
20
-4.19226
11
-1.55246
21
-4.19039
0
LINE
8
BLACK
6
CONTINUOUS
10
-1.55246
20
-4.19039
11
-1.55058
21
-4.18851
0
LINE
8
BLACK
6
CONTINUOUS
10
-1.55058
20
-4.18851
11
-1.54871
21
-4.19039
0
LINE
8
BLACK
6
CONTINUOUS
10
-1.54871
20
-4.19039
11
-1.55246
21
-4.19039
0
LINE
8
BLACK
6
CONTINUOUS
10
-1.51309
20
-4.22788
11
-1.51309
21
-4.20913
0
LINE
8
BLACK
6
CONTINUOUS
10
-1.51309
20
-4.20913
11
-1.53183
21
-4.20726
0
LINE
8
BLACK
6
CONTINUOUS
10
-1.53183
20
-4.20726
11
-1.52996
21
-4.20913
0
LINE
8
BLACK
6
CONTINUOUS
10
-1.52996
20
-4.20913
11
-1.52808
21
-4.21288
0
LINE
8
BLACK
6
CONTINUOUS
10
-1.52808
20
-4.21288
11
-1.52808
21
-4.22226
0
LINE
8
BLACK
6
CONTINUOUS
10
-1.52808
20
-4.22226
11
-1.52996
21
-4.22601
0
LINE
8
BLACK
6
CONTINUOUS
10
-1.52996
20
-4.22601
11
-1.53183
21
-4.22788
0
LINE
8
BLACK
6
CONTINUOUS
10
-1.53183
20
-4.22788
11
-1.53558
21
-4.22976
0
LINE
8
BLACK
6
CONTINUOUS
10
-1.53558
20
-4.22976
11
-1.54496
21
-4.22976
0
LINE
8
BLACK
6
CONTINUOUS
10
-1.54496
20
-4.22976
11
-1.54871
21
-4.22788
0
LINE
8
BLACK
6
CONTINUOUS
10
-1.54871
20
-4.22788
11
-1.55058
21
-4.22601
0
LINE
8
BLACK
6
CONTINUOUS
10
-1.55058
20
-4.22601
11
-1.55246
21
-4.22226
0
LINE
8
BLACK
6
CONTINUOUS
10
-1.55246
20
-4.22226
11
-1.55246
21
-4.21288
0
LINE
8
BLACK
6
CONTINUOUS
10
-1.55246
20
-4.21288
11
-1.55058
21
-4.20913
0
LINE
8
BLACK
6
CONTINUOUS
10
-1.55058
20
-4.20913
11
-1.54871
21
-4.20726
0
LINE
8
BLACK
6
CONTINUOUS
10
-1.51309
20
-4.26538
11
-1.51309
21
-4.24663
0
LINE
8
BLACK
6
CONTINUOUS
10
-1.51309
20
-4.24663
11
-1.53183
21
-4.24476
0
LINE
8
BLACK
6
CONTINUOUS
10
-1.53183
20
-4.24476
11
-1.52996
21
-4.24663
0
LINE
8
BLACK
6
CONTINUOUS
10
-1.52996
20
-4.24663
11
-1.52808
21
-4.25038
0
LINE
8
BLACK
6
CONTINUOUS
10
-1.52808
20
-4.25038
11
-1.52808
21
-4.25975
0
LINE
8
BLACK
6
CONTINUOUS
10
-1.52808
20
-4.25975
11
-1.52996
21
-4.2635
0
LINE
8
BLACK
6
CONTINUOUS
10
-1.52996
20
-4.2635
11
-1.53183
21
-4.26538
0
LINE
8
BLACK
6
CONTINUOUS
10
-1.53183
20
-4.26538
11
-1.53558
21
-4.26725
0
LINE
8
BLACK
6
CONTINUOUS
10
-1.53558
20
-4.26725
11
-1.54496
21
-4.26725
0
LINE
8
BLACK
6
CONTINUOUS
10
-1.54496
20
-4.26725
11
-1.54871
21
-4.26538
0
LINE
8
BLACK
6
CONTINUOUS
10
-1.54871
20
-4.26538
11
-1.55058
21
-4.2635
0
LINE
8
BLACK
6
CONTINUOUS
10
-1.55058
20
-4.2635
11
-1.55246
21
-4.25975
0
LINE
8
BLACK
6
CONTINUOUS
10
-1.55246
20
-4.25975
11
-1.55246
21
-4.25038
0
LINE
8
BLACK
6
CONTINUOUS
10
-1.55246
20
-4.25038
11
-1.55058
21
-4.24663
0
LINE
8
BLACK
6
CONTINUOUS
10
-1.55058
20
-4.24663
11
-1.54871
21
-4.24476
0
LINE
8
BLACK
6
CONTINUOUS
10
-1.51309
20
-4.30287
11
-1.51309
21
-4.28413
0
LINE
8
BLACK
6
CONTINUOUS
10
-1.51309
20
-4.28413
11
-1.53183
21
-4.28225
0
LINE
8
BLACK
6
CONTINUOUS
10
-1.53183
20
-4.28225
11
-1.52996
21
-4.28413
0
LINE
8
BLACK
6
CONTINUOUS
10
-1.52996
20
-4.28413
11
-1.52808
21
-4.28787
0
LINE
8
BLACK
6
CONTINUOUS
10
-1.52808
20
-4.28787
11
-1.52808
21
-4.29725
0
LINE
8
BLACK
6
CONTINUOUS
10
-1.52808
20
-4.29725
11
-1.52996
21
-4.301
0
LINE
8
BLACK
6
CONTINUOUS
10
-1.52996
20
-4.301
11
-1.53183
21
-4.30287
0
LINE
8
BLACK
6
CONTINUOUS
10
-1.53183
20
-4.30287
11
-1.53558
21
-4.30475
0
LINE
8
BLACK
6
CONTINUOUS
10
-1.53558
20
-4.30475
11
-1.54496
21
-4.30475
0
LINE
8
BLACK
6
CONTINUOUS
10
-1.54496
20
-4.30475
11
-1.54871
21
-4.30287
0
LINE
8
BLACK
6
CONTINUOUS
10
-1.54871
20
-4.30287
11
-1.55058
21
-4.301
0
LINE
8
BLACK
6
CONTINUOUS
10
-1.55058
20
-4.301
11
-1.55246
21
-4.29725
0
LINE
8
BLACK
6
CONTINUOUS
10
-1.55246
20
-4.29725
11
-1.55246
21
-4.28787
0
LINE
8
BLACK
6
CONTINUOUS
10
-1.55246
20
-4.28787
11
-1.55058
21
-4.28413
0
LINE
8
BLACK
6
CONTINUOUS
10
-1.55058
20
-4.28413
11
-1.54871
21
-4.28225
0
LINE
8
BLACK
6
CONTINUOUS
10
-1.55246
20
-4.35162
11
-1.52621
21
-4.35162
0
LINE
8
BLACK
6
CONTINUOUS
10
-1.52996
20
-4.35162
11
-1.52808
21
-4.35349
0
LINE
8
BLACK
6
CONTINUOUS
10
-1.52808
20
-4.35349
11
-1.52621
21
-4.35724
0
LINE
8
BLACK
6
CONTINUOUS
10
-1.52621
20
-4.35724
11
-1.52621
21
-4.36287
0
LINE
8
BLACK
6
CONTINUOUS
10
-1.52621
20
-4.36287
11
-1.52808
21
-4.36662
0
LINE
8
BLACK
6
CONTINUOUS
10
-1.52808
20
-4.36662
11
-1.53183
21
-4.36849
0
LINE
8
BLACK
6
CONTINUOUS
10
-1.53183
20
-4.36849
11
-1.55246
21
-4.36849
0
LINE
8
BLACK
6
CONTINUOUS
10
-1.53183
20
-4.36849
11
-1.52808
21
-4.37036
0
LINE
8
BLACK
6
CONTINUOUS
10
-1.52808
20
-4.37036
11
-1.52621
21
-4.37411
0
LINE
8
BLACK
6
CONTINUOUS
10
-1.52621
20
-4.37411
11
-1.52621
21
-4.37974
0
LINE
8
BLACK
6
CONTINUOUS
10
-1.52621
20
-4.37974
11
-1.52808
21
-4.38349
0
LINE
8
BLACK
6
CONTINUOUS
10
-1.52808
20
-4.38349
11
-1.53183
21
-4.38536
0
LINE
8
BLACK
6
CONTINUOUS
10
-1.53183
20
-4.38536
11
-1.55246
21
-4.38536
0
LINE
8
BLACK
6
CONTINUOUS
10
-1.55246
20
-4.40411
11
-1.52621
21
-4.40411
0
LINE
8
BLACK
6
CONTINUOUS
10
-1.52996
20
-4.40411
11
-1.52808
21
-4.40599
0
LINE
8
BLACK
6
CONTINUOUS
10
-1.52808
20
-4.40599
11
-1.52621
21
-4.40973
0
LINE
8
BLACK
6
CONTINUOUS
10
-1.52621
20
-4.40973
11
-1.52621
21
-4.41536
0
LINE
8
BLACK
6
CONTINUOUS
10
-1.52621
20
-4.41536
11
-1.52808
21
-4.41911
0
LINE
8
BLACK
6
CONTINUOUS
10
-1.52808
20
-4.41911
11
-1.53183
21
-4.42098
0
LINE
8
BLACK
6
CONTINUOUS
10
-1.53183
20
-4.42098
11
-1.55246
21
-4.42098
0
LINE
8
BLACK
6
CONTINUOUS
10
-1.53183
20
-4.42098
11
-1.52808
21
-4.42286
0
LINE
8
BLACK
6
CONTINUOUS
10
-1.52808
20
-4.42286
11
-1.52621
21
-4.42661
0
LINE
8
BLACK
6
CONTINUOUS
10
-1.52621
20
-4.42661
11
-1.52621
21
-4.43223
0
LINE
8
BLACK
6
CONTINUOUS
10
-1.52621
20
-4.43223
11
-1.52808
21
-4.43598
0
LINE
8
BLACK
6
CONTINUOUS
10
-1.52808
20
-4.43598
11
-1.53183
21
-4.43786
0
LINE
8
BLACK
6
CONTINUOUS
10
-1.53183
20
-4.43786
11
-1.55246
21
-4.43786
0
LINE
8
BLACK
6
CONTINUOUS
10
-1.4874
20
-4.12697
11
-1.4874
21
-4.46378
0
LINE
8
BLACK
6
CONTINUOUS
10
-1.40471
20
-4.12697
11
-1.51049
21
-4.12697
0
LINE
8
BLACK
6
CONTINUOUS
10
-1.40471
20
-4.46378
11
-1.51049
21
-4.46378
0
LINE
8
BLACK
6
CONTINUOUS
10
-1.4874
20
-4.46378
11
-1.51049
21
-4.41943
0
LINE
8
BLACK
6
CONTINUOUS
10
-1.4874
20
-4.46378
11
-1.46431
21
-4.41943
0
LINE
8
BLACK
6
CONTINUOUS
10
-1.4874
20
-4.12697
11
-1.51049
21
-4.17132
0
LINE
8
BLACK
6
CONTINUOUS
10
-1.4874
20
-4.12697
11
-1.46431
21
-4.17132
0
LINE
8
BLACK
6
CONTINUOUS
10
0.357574
20
-3.30233
11
0.357574
21
-3.27796
0
LINE
8
BLACK
6
CONTINUOUS
10
0.357574
20
-3.27796
11
0.372572
21
-3.29109
0
LINE
8
BLACK
6
CONTINUOUS
10
0.372572
20
-3.29109
11
0.372572
21
-3.28546
0
LINE
8
BLACK
6
CONTINUOUS
10
0.372572
20
-3.28546
11
0.374447
21
-3.28171
0
LINE
8
BLACK
6
CONTINUOUS
10
0.374447
20
-3.28171
11
0.376322
21
-3.27984
0
LINE
8
BLACK
6
CONTINUOUS
10
0.376322
20
-3.27984
11
0.380071
21
-3.27796
0
LINE
8
BLACK
6
CONTINUOUS
10
0.380071
20
-3.27796
11
0.389445
21
-3.27796
0
LINE
8
BLACK
6
CONTINUOUS
10
0.389445
20
-3.27796
11
0.393195
21
-3.27984
0
LINE
8
BLACK
6
CONTINUOUS
10
0.393195
20
-3.27984
11
0.395069
21
-3.28171
0
LINE
8
BLACK
6
CONTINUOUS
10
0.395069
20
-3.28171
11
0.396944
21
-3.28546
0
LINE
8
BLACK
6
CONTINUOUS
10
0.396944
20
-3.28546
11
0.396944
21
-3.29671
0
LINE
8
BLACK
6
CONTINUOUS
10
0.396944
20
-3.29671
11
0.395069
21
-3.30046
0
LINE
8
BLACK
6
CONTINUOUS
10
0.395069
20
-3.30046
11
0.393195
21
-3.30233
0
LINE
8
BLACK
6
CONTINUOUS
10
0.393195
20
-3.26109
11
0.395069
21
-3.25921
0
LINE
8
BLACK
6
CONTINUOUS
10
0.395069
20
-3.25921
11
0.396944
21
-3.26109
0
LINE
8
BLACK
6
CONTINUOUS
10
0.396944
20
-3.26109
11
0.395069
21
-3.26296
0
LINE
8
BLACK
6
CONTINUOUS
10
0.395069
20
-3.26296
11
0.393195
21
-3.26109
0
LINE
8
BLACK
6
CONTINUOUS
10
0.393195
20
-3.26109
11
0.396944
21
-3.26109
0
LINE
8
BLACK
6
CONTINUOUS
10
0.361324
20
-3.24422
11
0.359449
21
-3.24234
0
LINE
8
BLACK
6
CONTINUOUS
10
0.359449
20
-3.24234
11
0.357574
21
-3.23859
0
LINE
8
BLACK
6
CONTINUOUS
10
0.357574
20
-3.23859
11
0.357574
21
-3.22922
0
LINE
8
BLACK
6
CONTINUOUS
10
0.357574
20
-3.22922
11
0.359449
21
-3.22547
0
LINE
8
BLACK
6
CONTINUOUS
10
0.359449
20
-3.22547
11
0.361324
21
-3.22359
0
LINE
8
BLACK
6
CONTINUOUS
10
0.361324
20
-3.22359
11
0.365073
21
-3.22172
0
LINE
8
BLACK
6
CONTINUOUS
10
0.365073
20
-3.22172
11
0.368823
21
-3.22172
0
LINE
8
BLACK
6
CONTINUOUS
10
0.368823
20
-3.22172
11
0.374447
21
-3.22359
0
LINE
8
BLACK
6
CONTINUOUS
10
0.374447
20
-3.22359
11
0.396944
21
-3.24609
0
LINE
8
BLACK
6
CONTINUOUS
10
0.396944
20
-3.24609
11
0.396944
21
-3.22172
0
LINE
8
BLACK
6
CONTINUOUS
10
0.357574
20
-3.2086
11
0.357574
21
-3.18422
0
LINE
8
BLACK
6
CONTINUOUS
10
0.357574
20
-3.18422
11
0.372572
21
-3.19735
0
LINE
8
BLACK
6
CONTINUOUS
10
0.372572
20
-3.19735
11
0.372572
21
-3.19172
0
LINE
8
BLACK
6
CONTINUOUS
10
0.372572
20
-3.19172
11
0.374447
21
-3.18797
0
LINE
8
BLACK
6
CONTINUOUS
10
0.374447
20
-3.18797
11
0.376322
21
-3.1861
0
LINE
8
BLACK
6
CONTINUOUS
10
0.376322
20
-3.1861
11
0.380071
21
-3.18422
0
LINE
8
BLACK
6
CONTINUOUS
10
0.380071
20
-3.18422
11
0.389445
21
-3.18422
0
LINE
8
BLACK
6
CONTINUOUS
10
0.389445
20
-3.18422
11
0.393195
21
-3.1861
0
LINE
8
BLACK
6
CONTINUOUS
10
0.393195
20
-3.1861
11
0.395069
21
-3.18797
0
LINE
8
BLACK
6
CONTINUOUS
10
0.395069
20
-3.18797
11
0.396944
21
-3.19172
0
LINE
8
BLACK
6
CONTINUOUS
10
0.396944
20
-3.19172
11
0.396944
21
-3.20297
0
LINE
8
BLACK
6
CONTINUOUS
10
0.396944
20
-3.20297
11
0.395069
21
-3.20672
0
LINE
8
BLACK
6
CONTINUOUS
10
0.395069
20
-3.20672
11
0.393195
21
-3.2086
0
LINE
8
BLACK
6
CONTINUOUS
10
0.357574
20
-3.15985
11
0.357574
21
-3.1561
0
LINE
8
BLACK
6
CONTINUOUS
10
0.357574
20
-3.1561
11
0.359449
21
-3.15235
0
LINE
8
BLACK
6
CONTINUOUS
10
0.359449
20
-3.15235
11
0.361324
21
-3.15048
0
LINE
8
BLACK
6
CONTINUOUS
10
0.361324
20
-3.15048
11
0.365073
21
-3.1486
0
LINE
8
BLACK
6
CONTINUOUS
10
0.365073
20
-3.1486
11
0.372572
21
-3.14673
0
LINE
8
BLACK
6
CONTINUOUS
10
0.372572
20
-3.14673
11
0.381946
21
-3.14673
0
LINE
8
BLACK
6
CONTINUOUS
10
0.381946
20
-3.14673
11
0.389445
21
-3.1486
0
LINE
8
BLACK
6
CONTINUOUS
10
0.389445
20
-3.1486
11
0.393195
21
-3.15048
0
LINE
8
BLACK
6
CONTINUOUS
10
0.393195
20
-3.15048
11
0.395069
21
-3.15235
0
LINE
8
BLACK
6
CONTINUOUS
10
0.395069
20
-3.15235
11
0.396944
21
-3.1561
0
LINE
8
BLACK
6
CONTINUOUS
10
0.396944
20
-3.1561
11
0.396944
21
-3.15985
0
LINE
8
BLACK
6
CONTINUOUS
10
0.396944
20
-3.15985
11
0.395069
21
-3.1636
0
LINE
8
BLACK
6
CONTINUOUS
10
0.395069
20
-3.1636
11
0.393195
21
-3.16548
0
LINE
8
BLACK
6
CONTINUOUS
10
0.393195
20
-3.16548
11
0.389445
21
-3.16735
0
LINE
8
BLACK
6
CONTINUOUS
10
0.389445
20
-3.16735
11
0.381946
21
-3.16923
0
LINE
8
BLACK
6
CONTINUOUS
10
0.381946
20
-3.16923
11
0.372572
21
-3.16923
0
LINE
8
BLACK
6
CONTINUOUS
10
0.372572
20
-3.16923
11
0.365073
21
-3.16735
0
LINE
8
BLACK
6
CONTINUOUS
10
0.365073
20
-3.16735
11
0.361324
21
-3.16548
0
LINE
8
BLACK
6
CONTINUOUS
10
0.361324
20
-3.16548
11
0.359449
21
-3.1636
0
LINE
8
BLACK
6
CONTINUOUS
10
0.359449
20
-3.1636
11
0.357574
21
-3.15985
0
LINE
8
BLACK
6
CONTINUOUS
10
0.396944
20
-3.09986
11
0.370697
21
-3.09986
0
LINE
8
BLACK
6
CONTINUOUS
10
0.374447
20
-3.09986
11
0.372572
21
-3.09798
0
LINE
8
BLACK
6
CONTINUOUS
10
0.372572
20
-3.09798
11
0.370697
21
-3.09424
0
LINE
8
BLACK
6
CONTINUOUS
10
0.370697
20
-3.09424
11
0.370697
21
-3.08861
0
LINE
8
BLACK
6
CONTINUOUS
10
0.370697
20
-3.08861
11
0.372572
21
-3.08486
0
LINE
8
BLACK
6
CONTINUOUS
10
0.372572
20
-3.08486
11
0.376322
21
-3.08299
0
LINE
8
BLACK
6
CONTINUOUS
10
0.376322
20
-3.08299
11
0.396944
21
-3.08299
0
LINE
8
BLACK
6
CONTINUOUS
10
0.376322
20
-3.08299
11
0.372572
21
-3.08111
0
LINE
8
BLACK
6
CONTINUOUS
10
0.372572
20
-3.08111
11
0.370697
21
-3.07736
0
LINE
8
BLACK
6
CONTINUOUS
10
0.370697
20
-3.07736
11
0.370697
21
-3.07174
0
LINE
8
BLACK
6
CONTINUOUS
10
0.370697
20
-3.07174
11
0.372572
21
-3.06799
0
LINE
8
BLACK
6
CONTINUOUS
10
0.372572
20
-3.06799
11
0.376322
21
-3.06611
0
LINE
8
BLACK
6
CONTINUOUS
10
0.376322
20
-3.06611
11
0.396944
21
-3.06611
0
LINE
8
BLACK
6
CONTINUOUS
10
0.396944
20
-3.04737
11
0.370697
21
-3.04737
0
LINE
8
BLACK
6
CONTINUOUS
10
0.374447
20
-3.04737
11
0.372572
21
-3.04549
0
LINE
8
BLACK
6
CONTINUOUS
10
0.372572
20
-3.04549
11
0.370697
21
-3.04174
0
LINE
8
BLACK
6
CONTINUOUS
10
0.370697
20
-3.04174
11
0.370697
21
-3.03612
0
LINE
8
BLACK
6
CONTINUOUS
10
0.370697
20
-3.03612
11
0.372572
21
-3.03237
0
LINE
8
BLACK
6
CONTINUOUS
10
0.372572
20
-3.03237
11
0.376322
21
-3.03049
0
LINE
8
BLACK
6
CONTINUOUS
10
0.376322
20
-3.03049
11
0.396944
21
-3.03049
0
LINE
8
BLACK
6
CONTINUOUS
10
0.376322
20
-3.03049
11
0.372572
21
-3.02862
0
LINE
8
BLACK
6
CONTINUOUS
10
0.372572
20
-3.02862
11
0.370697
21
-3.02487
0
LINE
8
BLACK
6
CONTINUOUS
10
0.370697
20
-3.02487
11
0.370697
21
-3.01924
0
LINE
8
BLACK
6
CONTINUOUS
10
0.370697
20
-3.01924
11
0.372572
21
-3.01549
0
LINE
8
BLACK
6
CONTINUOUS
10
0.372572
20
-3.01549
11
0.376322
21
-3.01362
0
LINE
8
BLACK
6
CONTINUOUS
10
0.376322
20
-3.01362
11
0.396944
21
-3.01362
0
LINE
8
BLACK
6
CONTINUOUS
10
0.33189
20
-3.21969
11
0.33189
21
-3.09252
0
LINE
8
BLACK
6
CONTINUOUS
10
0.256713
20
-3.21969
11
0.354977
21
-3.21969
0
LINE
8
BLACK
6
CONTINUOUS
10
0.256713
20
-3.09252
11
0.354977
21
-3.09252
0
LINE
8
BLACK
6
CONTINUOUS
10
0.33189
20
-3.09252
11
0.354977
21
-3.13687
0
LINE
8
BLACK
6
CONTINUOUS
10
0.33189
20
-3.09252
11
0.308802
21
-3.13687
0
LINE
8
BLACK
6
CONTINUOUS
10
0.33189
20
-3.21969
11
0.354977
21
-3.17533
0
LINE
8
BLACK
6
CONTINUOUS
10
0.33189
20
-3.21969
11
0.308802
21
-3.17533
0
LINE
8
BLACK
6
CONTINUOUS
10
-0.0805109
20
-3.30206
11
-0.0880099
21
-3.30206
0
LINE
8
BLACK
6
CONTINUOUS
10
-0.0880099
20
-3.30206
11
-0.0917594
21
-3.30394
0
LINE
8
BLACK
6
CONTINUOUS
10
-0.0917594
20
-3.30394
11
-0.0936342
21
-3.30581
0
LINE
8
BLACK
6
CONTINUOUS
10
-0.0936342
20
-3.30581
11
-0.0973837
21
-3.31144
0
LINE
8
BLACK
6
CONTINUOUS
10
-0.0973837
20
-3.31144
11
-0.0992585
21
-3.31894
0
LINE
8
BLACK
6
CONTINUOUS
10
-0.0992585
20
-3.31894
11
-0.0992585
21
-3.33393
0
LINE
8
BLACK
6
CONTINUOUS
10
-0.0992585
20
-3.33393
11
-0.0973837
21
-3.33768
0
LINE
8
BLACK
6
CONTINUOUS
10
-0.0973837
20
-3.33768
11
-0.095509
21
-3.33956
0
LINE
8
BLACK
6
CONTINUOUS
10
-0.095509
20
-3.33956
11
-0.0917594
21
-3.34143
0
LINE
8
BLACK
6
CONTINUOUS
10
-0.0917594
20
-3.34143
11
-0.0842604
21
-3.34143
0
LINE
8
BLACK
6
CONTINUOUS
10
-0.0842604
20
-3.34143
11
-0.0805109
21
-3.33956
0
LINE
8
BLACK
6
CONTINUOUS
10
-0.0805109
20
-3.33956
11
-0.0786361
21
-3.33768
0
LINE
8
BLACK
6
CONTINUOUS
10
-0.0786361
20
-3.33768
11
-0.0767613
21
-3.33393
0
LINE
8
BLACK
6
CONTINUOUS
10
-0.0767613
20
-3.33393
11
-0.0767613
21
-3.32456
0
LINE
8
BLACK
6
CONTINUOUS
10
-0.0767613
20
-3.32456
11
-0.0786361
21
-3.32081
0
LINE
8
BLACK
6
CONTINUOUS
10
-0.0786361
20
-3.32081
11
-0.0805109
21
-3.31894
0
LINE
8
BLACK
6
CONTINUOUS
10
-0.0805109
20
-3.31894
11
-0.0842604
21
-3.31706
0
LINE
8
BLACK
6
CONTINUOUS
10
-0.0842604
20
-3.31706
11
-0.0917594
21
-3.31706
0
LINE
8
BLACK
6
CONTINUOUS
10
-0.0917594
20
-3.31706
11
-0.095509
21
-3.31894
0
LINE
8
BLACK
6
CONTINUOUS
10
-0.095509
20
-3.31894
11
-0.0973837
21
-3.32081
0
LINE
8
BLACK
6
CONTINUOUS
10
-0.0973837
20
-3.32081
11
-0.0992585
21
-3.32456
0
LINE
8
BLACK
6
CONTINUOUS
10
-0.0598884
20
-3.33768
11
-0.0580137
21
-3.33956
0
LINE
8
BLACK
6
CONTINUOUS
10
-0.0580137
20
-3.33956
11
-0.0598884
21
-3.34143
0
LINE
8
BLACK
6
CONTINUOUS
10
-0.0598884
20
-3.34143
11
-0.0617632
21
-3.33956
0
LINE
8
BLACK
6
CONTINUOUS
10
-0.0617632
20
-3.33956
11
-0.0598884
21
-3.33768
0
LINE
8
BLACK
6
CONTINUOUS
10
-0.0598884
20
-3.33768
11
-0.0598884
21
-3.34143
0
LINE
8
BLACK
6
CONTINUOUS
10
-0.0448903
20
-3.30206
11
-0.0186436
21
-3.30206
0
LINE
8
BLACK
6
CONTINUOUS
10
-0.0186436
20
-3.30206
11
-0.0355165
21
-3.34143
0
LINE
8
BLACK
6
CONTINUOUS
10
0.0151022
20
-3.30206
11
-0.00364547
21
-3.30206
0
LINE
8
BLACK
6
CONTINUOUS
10
-0.00364547
20
-3.30206
11
-0.00552024
21
-3.32081
0
LINE
8
BLACK
6
CONTINUOUS
10
-0.00552024
20
-3.32081
11
-0.00364547
21
-3.31894
0
LINE
8
BLACK
6
CONTINUOUS
10
-0.00364547
20
-3.31894
11
0.000104016
21
-3.31706
0
LINE
8
BLACK
6
CONTINUOUS
10
0.000104016
20
-3.31706
11
0.00947787
21
-3.31706
0
LINE
8
BLACK
6
CONTINUOUS
10
0.00947787
20
-3.31706
11
0.0132274
21
-3.31894
0
LINE
8
BLACK
6
CONTINUOUS
10
0.0132274
20
-3.31894
11
0.0151022
21
-3.32081
0
LINE
8
BLACK
6
CONTINUOUS
10
0.0151022
20
-3.32081
11
0.0169769
21
-3.32456
0
LINE
8
BLACK
6
CONTINUOUS
10
0.0169769
20
-3.32456
11
0.0169769
21
-3.33393
0
LINE
8
BLACK
6
CONTINUOUS
10
0.0169769
20
-3.33393
11
0.0151022
21
-3.33768
0
LINE
8
BLACK
6
CONTINUOUS
10
0.0151022
20
-3.33768
11
0.0132274
21
-3.33956
0
LINE
8
BLACK
6
CONTINUOUS
10
0.0132274
20
-3.33956
11
0.00947787
21
-3.34143
0
LINE
8
BLACK
6
CONTINUOUS
10
0.00947787
20
-3.34143
11
0.000104016
21
-3.34143
0
LINE
8
BLACK
6
CONTINUOUS
10
0.000104016
20
-3.34143
11
-0.00364547
21
-3.33956
0
LINE
8
BLACK
6
CONTINUOUS
10
-0.00364547
20
-3.33956
11
-0.00552024
21
-3.33768
0
LINE
8
BLACK
6
CONTINUOUS
10
0.0413489
20
-3.30206
11
0.0450984
21
-3.30206
0
LINE
8
BLACK
6
CONTINUOUS
10
0.0450984
20
-3.30206
11
0.048848
21
-3.30394
0
LINE
8
BLACK
6
CONTINUOUS
10
0.048848
20
-3.30394
11
0.0507227
21
-3.30581
0
LINE
8
BLACK
6
CONTINUOUS
10
0.0507227
20
-3.30581
11
0.0525975
21
-3.30956
0
LINE
8
BLACK
6
CONTINUOUS
10
0.0525975
20
-3.30956
11
0.0544722
21
-3.31706
0
LINE
8
BLACK
6
CONTINUOUS
10
0.0544722
20
-3.31706
11
0.0544722
21
-3.32643
0
LINE
8
BLACK
6
CONTINUOUS
10
0.0544722
20
-3.32643
11
0.0525975
21
-3.33393
0
LINE
8
BLACK
6
CONTINUOUS
10
0.0525975
20
-3.33393
11
0.0507227
21
-3.33768
0
LINE
8
BLACK
6
CONTINUOUS
10
0.0507227
20
-3.33768
11
0.048848
21
-3.33956
0
LINE
8
BLACK
6
CONTINUOUS
10
0.048848
20
-3.33956
11
0.0450984
21
-3.34143
0
LINE
8
BLACK
6
CONTINUOUS
10
0.0450984
20
-3.34143
11
0.0413489
21
-3.34143
0
LINE
8
BLACK
6
CONTINUOUS
10
0.0413489
20
-3.34143
11
0.0375993
21
-3.33956
0
LINE
8
BLACK
6
CONTINUOUS
10
0.0375993
20
-3.33956
11
0.0357246
21
-3.33768
0
LINE
8
BLACK
6
CONTINUOUS
10
0.0357246
20
-3.33768
11
0.0338498
21
-3.33393
0
LINE
8
BLACK
6
CONTINUOUS
10
0.0338498
20
-3.33393
11
0.031975
21
-3.32643
0
LINE
8
BLACK
6
CONTINUOUS
10
0.031975
20
-3.32643
11
0.031975
21
-3.31706
0
LINE
8
BLACK
6
CONTINUOUS
10
0.031975
20
-3.31706
11
0.0338498
21
-3.30956
0
LINE
8
BLACK
6
CONTINUOUS
10
0.0338498
20
-3.30956
11
0.0357246
21
-3.30581
0
LINE
8
BLACK
6
CONTINUOUS
10
0.0357246
20
-3.30581
11
0.0375993
21
-3.30394
0
LINE
8
BLACK
6
CONTINUOUS
10
0.0375993
20
-3.30394
11
0.0413489
21
-3.30206
0
LINE
8
BLACK
6
CONTINUOUS
10
0.101341
20
-3.34143
11
0.101341
21
-3.31519
0
LINE
8
BLACK
6
CONTINUOUS
10
0.101341
20
-3.31894
11
0.103216
21
-3.31706
0
LINE
8
BLACK
6
CONTINUOUS
10
0.103216
20
-3.31706
11
0.106966
21
-3.31519
0
LINE
8
BLACK
6
CONTINUOUS
10
0.106966
20
-3.31519
11
0.11259
21
-3.31519
0
LINE
8
BLACK
6
CONTINUOUS
10
0.11259
20
-3.31519
11
0.116339
21
-3.31706
0
LINE
8
BLACK
6
CONTINUOUS
10
0.116339
20
-3.31706
11
0.118214
21
-3.32081
0
LINE
8
BLACK
6
CONTINUOUS
10
0.118214
20
-3.32081
11
0.118214
21
-3.34143
0
LINE
8
BLACK
6
CONTINUOUS
10
0.118214
20
-3.32081
11
0.120089
21
-3.31706
0
LINE
8
BLACK
6
CONTINUOUS
10
0.120089
20
-3.31706
11
0.123839
21
-3.31519
0
LINE
8
BLACK
6
CONTINUOUS
10
0.123839
20
-3.31519
11
0.129463
21
-3.31519
0
LINE
8
BLACK
6
CONTINUOUS
10
0.129463
20
-3.31519
11
0.133212
21
-3.31706
0
LINE
8
BLACK
6
CONTINUOUS
10
0.133212
20
-3.31706
11
0.135087
21
-3.32081
0
LINE
8
BLACK
6
CONTINUOUS
10
0.135087
20
-3.32081
11
0.135087
21
-3.34143
0
LINE
8
BLACK
6
CONTINUOUS
10
0.153835
20
-3.34143
11
0.153835
21
-3.31519
0
LINE
8
BLACK
6
CONTINUOUS
10
0.153835
20
-3.31894
11
0.15571
21
-3.31706
0
LINE
8
BLACK
6
CONTINUOUS
10
0.15571
20
-3.31706
11
0.159459
21
-3.31519
0
LINE
8
BLACK
6
CONTINUOUS
10
0.159459
20
-3.31519
11
0.165083
21
-3.31519
0
LINE
8
BLACK
6
CONTINUOUS
10
0.165083
20
-3.31519
11
0.168833
21
-3.31706
0
LINE
8
BLACK
6
CONTINUOUS
10
0.168833
20
-3.31706
11
0.170708
21
-3.32081
0
LINE
8
BLACK
6
CONTINUOUS
10
0.170708
20
-3.32081
11
0.170708
21
-3.34143
0
LINE
8
BLACK
6
CONTINUOUS
10
0.170708
20
-3.32081
11
0.172582
21
-3.31706
0
LINE
8
BLACK
6
CONTINUOUS
10
0.172582
20
-3.31706
11
0.176332
21
-3.31519
0
LINE
8
BLACK
6
CONTINUOUS
10
0.176332
20
-3.31519
11
0.181956
21
-3.31519
0
LINE
8
BLACK
6
CONTINUOUS
10
0.181956
20
-3.31519
11
0.185706
21
-3.31706
0
LINE
8
BLACK
6
CONTINUOUS
10
0.185706
20
-3.31706
11
0.187581
21
-3.32081
0
LINE
8
BLACK
6
CONTINUOUS
10
0.187581
20
-3.32081
11
0.187581
21
-3.34143
0
LINE
8
BLACK
6
CONTINUOUS
10
0.177972
20
-3.27638
11
-0.0877756
21
-3.27638
0
LINE
8
BLACK
6
CONTINUOUS
10
0.177972
20
-3.25906
11
0.177972
21
-3.29947
0
LINE
8
BLACK
6
CONTINUOUS
10
-0.0877756
20
-3.25906
11
-0.0877756
21
-3.29947
0
LINE
8
BLACK
6
CONTINUOUS
10
-0.0877756
20
-3.27638
11
-0.043425
21
-3.25329
0
LINE
8
BLACK
6
CONTINUOUS
10
-0.0877756
20
-3.27638
11
-0.043425
21
-3.29947
0
LINE
8
BLACK
6
CONTINUOUS
10
0.177972
20
-3.27638
11
0.133622
21
-3.25329
0
LINE
8
BLACK
6
CONTINUOUS
10
0.177972
20
-3.27638
11
0.133622
21
-3.29947
0
LINE
8
BLACK
6
CONTINUOUS
10
-0.564067
20
-2.63316
11
-0.586564
21
-2.63316
0
LINE
8
BLACK
6
CONTINUOUS
10
-0.575316
20
-2.63316
11
-0.575316
21
-2.59379
0
LINE
8
BLACK
6
CONTINUOUS
10
-0.575316
20
-2.59379
11
-0.579065
21
-2.59942
0
LINE
8
BLACK
6
CONTINUOUS
10
-0.579065
20
-2.59942
11
-0.582815
21
-2.60317
0
LINE
8
BLACK
6
CONTINUOUS
10
-0.582815
20
-2.60317
11
-0.586564
21
-2.60504
0
LINE
8
BLACK
6
CONTINUOUS
10
-0.530321
20
-2.60692
11
-0.530321
21
-2.63316
0
LINE
8
BLACK
6
CONTINUOUS
10
-0.539695
20
-2.59192
11
-0.549069
21
-2.62004
0
LINE
8
BLACK
6
CONTINUOUS
10
-0.549069
20
-2.62004
11
-0.524697
21
-2.62004
0
LINE
8
BLACK
6
CONTINUOUS
10
-0.509699
20
-2.62942
11
-0.507824
21
-2.63129
0
LINE
8
BLACK
6
CONTINUOUS
10
-0.507824
20
-2.63129
11
-0.509699
21
-2.63316
0
LINE
8
BLACK
6
CONTINUOUS
10
-0.509699
20
-2.63316
11
-0.511574
21
-2.63129
0
LINE
8
BLACK
6
CONTINUOUS
10
-0.511574
20
-2.63129
11
-0.509699
21
-2.62942
0
LINE
8
BLACK
6
CONTINUOUS
10
-0.509699
20
-2.62942
11
-0.509699
21
-2.63316
0
LINE
8
BLACK
6
CONTINUOUS
10
-0.483452
20
-2.59379
11
-0.479703
21
-2.59379
0
LINE
8
BLACK
6
CONTINUOUS
10
-0.479703
20
-2.59379
11
-0.475953
21
-2.59567
0
LINE
8
BLACK
6
CONTINUOUS
10
-0.475953
20
-2.59567
11
-0.474078
21
-2.59754
0
LINE
8
BLACK
6
CONTINUOUS
10
-0.474078
20
-2.59754
11
-0.472204
21
-2.60129
0
LINE
8
BLACK
6
CONTINUOUS
10
-0.472204
20
-2.60129
11
-0.470329
21
-2.60879
0
LINE
8
BLACK
6
CONTINUOUS
10
-0.470329
20
-2.60879
11
-0.470329
21
-2.61817
0
LINE
8
BLACK
6
CONTINUOUS
10
-0.470329
20
-2.61817
11
-0.472204
21
-2.62567
0
LINE
8
BLACK
6
CONTINUOUS
10
-0.472204
20
-2.62567
11
-0.474078
21
-2.62942
0
LINE
8
BLACK
6
CONTINUOUS
10
-0.474078
20
-2.62942
11
-0.475953
21
-2.63129
0
LINE
8
BLACK
6
CONTINUOUS
10
-0.475953
20
-2.63129
11
-0.479703
21
-2.63316
0
LINE
8
BLACK
6
CONTINUOUS
10
-0.479703
20
-2.63316
11
-0.483452
21
-2.63316
0
LINE
8
BLACK
6
CONTINUOUS
10
-0.483452
20
-2.63316
11
-0.487202
21
-2.63129
0
LINE
8
BLACK
6
CONTINUOUS
10
-0.487202
20
-2.63129
11
-0.489076
21
-2.62942
0
LINE
8
BLACK
6
CONTINUOUS
10
-0.489076
20
-2.62942
11
-0.490951
21
-2.62567
0
LINE
8
BLACK
6
CONTINUOUS
10
-0.490951
20
-2.62567
11
-0.492826
21
-2.61817
0
LINE
8
BLACK
6
CONTINUOUS
10
-0.492826
20
-2.61817
11
-0.492826
21
-2.60879
0
LINE
8
BLACK
6
CONTINUOUS
10
-0.492826
20
-2.60879
11
-0.490951
21
-2.60129
0
LINE
8
BLACK
6
CONTINUOUS
10
-0.490951
20
-2.60129
11
-0.489076
21
-2.59754
0
LINE
8
BLACK
6
CONTINUOUS
10
-0.489076
20
-2.59754
11
-0.487202
21
-2.59567
0
LINE
8
BLACK
6
CONTINUOUS
10
-0.487202
20
-2.59567
11
-0.483452
21
-2.59379
0
LINE
8
BLACK
6
CONTINUOUS
10
-0.445957
20
-2.59379
11
-0.442207
21
-2.59379
0
LINE
8
BLACK
6
CONTINUOUS
10
-0.442207
20
-2.59379
11
-0.438458
21
-2.59567
0
LINE
8
BLACK
6
CONTINUOUS
10
-0.438458
20
-2.59567
11
-0.436583
21
-2.59754
0
LINE
8
BLACK
6
CONTINUOUS
10
-0.436583
20
-2.59754
11
-0.434708
21
-2.60129
0
LINE
8
BLACK
6
CONTINUOUS
10
-0.434708
20
-2.60129
11
-0.432833
21
-2.60879
0
LINE
8
BLACK
6
CONTINUOUS
10
-0.432833
20
-2.60879
11
-0.432833
21
-2.61817
0
LINE
8
BLACK
6
CONTINUOUS
10
-0.432833
20
-2.61817
11
-0.434708
21
-2.62567
0
LINE
8
BLACK
6
CONTINUOUS
10
-0.434708
20
-2.62567
11
-0.436583
21
-2.62942
0
LINE
8
BLACK
6
CONTINUOUS
10
-0.436583
20
-2.62942
11
-0.438458
21
-2.63129
0
LINE
8
BLACK
6
CONTINUOUS
10
-0.438458
20
-2.63129
11
-0.442207
21
-2.63316
0
LINE
8
BLACK
6
CONTINUOUS
10
-0.442207
20
-2.63316
11
-0.445957
21
-2.63316
0
LINE
8
BLACK
6
CONTINUOUS
10
-0.445957
20
-2.63316
11
-0.449706
21
-2.63129
0
LINE
8
BLACK
6
CONTINUOUS
10
-0.449706
20
-2.63129
11
-0.451581
21
-2.62942
0
LINE
8
BLACK
6
CONTINUOUS
10
-0.451581
20
-2.62942
11
-0.453456
21
-2.62567
0
LINE
8
BLACK
6
CONTINUOUS
10
-0.453456
20
-2.62567
11
-0.455331
21
-2.61817
0
LINE
8
BLACK
6
CONTINUOUS
10
-0.455331
20
-2.61817
11
-0.455331
21
-2.60879
0
LINE
8
BLACK
6
CONTINUOUS
10
-0.455331
20
-2.60879
11
-0.453456
21
-2.60129
0
LINE
8
BLACK
6
CONTINUOUS
10
-0.453456
20
-2.60129
11
-0.451581
21
-2.59754
0
LINE
8
BLACK
6
CONTINUOUS
10
-0.451581
20
-2.59754
11
-0.449706
21
-2.59567
0
LINE
8
BLACK
6
CONTINUOUS
10
-0.449706
20
-2.59567
11
-0.445957
21
-2.59379
0
LINE
8
BLACK
6
CONTINUOUS
10
-0.408461
20
-2.59379
11
-0.404712
21
-2.59379
0
LINE
8
BLACK
6
CONTINUOUS
10
-0.404712
20
-2.59379
11
-0.400962
21
-2.59567
0
LINE
8
BLACK
6
CONTINUOUS
10
-0.400962
20
-2.59567
11
-0.399088
21
-2.59754
0
LINE
8
BLACK
6
CONTINUOUS
10
-0.399088
20
-2.59754
11
-0.397213
21
-2.60129
0
LINE
8
BLACK
6
CONTINUOUS
10
-0.397213
20
-2.60129
11
-0.395338
21
-2.60879
0
LINE
8
BLACK
6
CONTINUOUS
10
-0.395338
20
-2.60879
11
-0.395338
21
-2.61817
0
LINE
8
BLACK
6
CONTINUOUS
10
-0.395338
20
-2.61817
11
-0.397213
21
-2.62567
0
LINE
8
BLACK
6
CONTINUOUS
10
-0.397213
20
-2.62567
11
-0.399088
21
-2.62942
0
LINE
8
BLACK
6
CONTINUOUS
10
-0.399088
20
-2.62942
11
-0.400962
21
-2.63129
0
LINE
8
BLACK
6
CONTINUOUS
10
-0.400962
20
-2.63129
11
-0.404712
21
-2.63316
0
LINE
8
BLACK
6
CONTINUOUS
10
-0.404712
20
-2.63316
11
-0.408461
21
-2.63316
0
LINE
8
BLACK
6
CONTINUOUS
10
-0.408461
20
-2.63316
11
-0.412211
21
-2.63129
0
LINE
8
BLACK
6
CONTINUOUS
10
-0.412211
20
-2.63129
11
-0.414086
21
-2.62942
0
LINE
8
BLACK
6
CONTINUOUS
10
-0.414086
20
-2.62942
11
-0.415961
21
-2.62567
0
LINE
8
BLACK
6
CONTINUOUS
10
-0.415961
20
-2.62567
11
-0.417835
21
-2.61817
0
LINE
8
BLACK
6
CONTINUOUS
10
-0.417835
20
-2.61817
11
-0.417835
21
-2.60879
0
LINE
8
BLACK
6
CONTINUOUS
10
-0.417835
20
-2.60879
11
-0.415961
21
-2.60129
0
LINE
8
BLACK
6
CONTINUOUS
10
-0.415961
20
-2.60129
11
-0.414086
21
-2.59754
0
LINE
8
BLACK
6
CONTINUOUS
10
-0.414086
20
-2.59754
11
-0.412211
21
-2.59567
0
LINE
8
BLACK
6
CONTINUOUS
10
-0.412211
20
-2.59567
11
-0.408461
21
-2.59379
0
LINE
8
BLACK
6
CONTINUOUS
10
-0.348469
20
-2.63316
11
-0.348469
21
-2.60692
0
LINE
8
BLACK
6
CONTINUOUS
10
-0.348469
20
-2.61067
11
-0.346594
21
-2.60879
0
LINE
8
BLACK
6
CONTINUOUS
10
-0.346594
20
-2.60879
11
-0.342845
21
-2.60692
0
LINE
8
BLACK
6
CONTINUOUS
10
-0.342845
20
-2.60692
11
-0.33722
21
-2.60692
0
LINE
8
BLACK
6
CONTINUOUS
10
-0.33722
20
-2.60692
11
-0.333471
21
-2.60879
0
LINE
8
BLACK
6
CONTINUOUS
10
-0.333471
20
-2.60879
11
-0.331596
21
-2.61254
0
LINE
8
BLACK
6
CONTINUOUS
10
-0.331596
20
-2.61254
11
-0.331596
21
-2.63316
0
LINE
8
BLACK
6
CONTINUOUS
10
-0.331596
20
-2.61254
11
-0.329721
21
-2.60879
0
LINE
8
BLACK
6
CONTINUOUS
10
-0.329721
20
-2.60879
11
-0.325972
21
-2.60692
0
LINE
8
BLACK
6
CONTINUOUS
10
-0.325972
20
-2.60692
11
-0.320348
21
-2.60692
0
LINE
8
BLACK
6
CONTINUOUS
10
-0.320348
20
-2.60692
11
-0.316598
21
-2.60879
0
LINE
8
BLACK
6
CONTINUOUS
10
-0.316598
20
-2.60879
11
-0.314723
21
-2.61254
0
LINE
8
BLACK
6
CONTINUOUS
10
-0.314723
20
-2.61254
11
-0.314723
21
-2.63316
0
LINE
8
BLACK
6
CONTINUOUS
10
-0.295976
20
-2.63316
11
-0.295976
21
-2.60692
0
LINE
8
BLACK
6
CONTINUOUS
10
-0.295976
20
-2.61067
11
-0.294101
21
-2.60879
0
LINE
8
BLACK
6
CONTINUOUS
10
-0.294101
20
-2.60879
11
-0.290351
21
-2.60692
0
LINE
8
BLACK
6
CONTINUOUS
10
-0.290351
20
-2.60692
11
-0.284727
21
-2.60692
0
LINE
8
BLACK
6
CONTINUOUS
10
-0.284727
20
-2.60692
11
-0.280977
21
-2.60879
0
LINE
8
BLACK
6
CONTINUOUS
10
-0.280977
20
-2.60879
11
-0.279103
21
-2.61254
0
LINE
8
BLACK
6
CONTINUOUS
10
-0.279103
20
-2.61254
11
-0.279103
21
-2.63316
0
LINE
8
BLACK
6
CONTINUOUS
10
-0.279103
20
-2.61254
11
-0.277228
21
-2.60879
0
LINE
8
BLACK
6
CONTINUOUS
10
-0.277228
20
-2.60879
11
-0.273478
21
-2.60692
0
LINE
8
BLACK
6
CONTINUOUS
10
-0.273478
20
-2.60692
11
-0.267854
21
-2.60692
0
LINE
8
BLACK
6
CONTINUOUS
10
-0.267854
20
-2.60692
11
-0.264105
21
-2.60879
0
LINE
8
BLACK
6
CONTINUOUS
10
-0.264105
20
-2.60879
11
-0.26223
21
-2.61254
0
LINE
8
BLACK
6
CONTINUOUS
10
-0.26223
20
-2.61254
11
-0.26223
21
-2.63316
0
LINE
8
BLACK
6
CONTINUOUS
10
-0.699055
20
-2.6626
11
-0.147864
21
-2.6626
0
LINE
8
BLACK
6
CONTINUOUS
10
-0.699055
20
-2.68701
11
-0.699055
21
-2.63951
0
LINE
8
BLACK
6
CONTINUOUS
10
-0.147864
20
-2.68701
11
-0.147864
21
-2.63951
0
LINE
8
BLACK
6
CONTINUOUS
10
-0.147864
20
-2.6626
11
-0.192215
21
-2.68569
0
LINE
8
BLACK
6
CONTINUOUS
10
-0.147864
20
-2.6626
11
-0.192215
21
-2.63951
0
LINE
8
BLACK
6
CONTINUOUS
10
-0.699055
20
-2.6626
11
-0.654705
21
-2.68569
0
LINE
8
BLACK
6
CONTINUOUS
10
-0.699055
20
-2.6626
11
-0.654705
21
-2.63951
0
LINE
8
BLACK
6
CONTINUOUS
10
-0.475497
20
-0.892576
11
-0.475497
21
-0.915073
0
LINE
8
BLACK
6
CONTINUOUS
10
-0.475497
20
-0.903824
11
-0.514867
21
-0.903824
0
LINE
8
BLACK
6
CONTINUOUS
10
-0.514867
20
-0.903824
11
-0.509243
21
-0.907574
0
LINE
8
BLACK
6
CONTINUOUS
10
-0.509243
20
-0.907574
11
-0.505493
21
-0.911324
0
LINE
8
BLACK
6
CONTINUOUS
10
-0.505493
20
-0.911324
11
-0.503618
21
-0.915073
0
LINE
8
BLACK
6
CONTINUOUS
10
-0.501744
20
-0.85883
11
-0.475497
21
-0.85883
0
LINE
8
BLACK
6
CONTINUOUS
10
-0.516742
20
-0.868204
11
-0.48862
21
-0.877578
0
LINE
8
BLACK
6
CONTINUOUS
10
-0.48862
20
-0.877578
11
-0.48862
21
-0.853206
0
LINE
8
BLACK
6
CONTINUOUS
10
-0.479246
20
-0.838208
11
-0.477372
21
-0.836333
0
LINE
8
BLACK
6
CONTINUOUS
10
-0.477372
20
-0.836333
11
-0.475497
21
-0.838208
0
LINE
8
BLACK
6
CONTINUOUS
10
-0.475497
20
-0.838208
11
-0.477372
21
-0.840082
0
LINE
8
BLACK
6
CONTINUOUS
10
-0.477372
20
-0.840082
11
-0.479246
21
-0.838208
0
LINE
8
BLACK
6
CONTINUOUS
10
-0.479246
20
-0.838208
11
-0.475497
21
-0.838208
0
LINE
8
BLACK
6
CONTINUOUS
10
-0.514867
20
-0.811961
11
-0.514867
21
-0.808211
0
LINE
8
BLACK
6
CONTINUOUS
10
-0.514867
20
-0.808211
11
-0.512992
21
-0.804462
0
LINE
8
BLACK
6
CONTINUOUS
10
-0.512992
20
-0.804462
11
-0.511117
21
-0.802587
0
LINE
8
BLACK
6
CONTINUOUS
10
-0.511117
20
-0.802587
11
-0.507368
21
-0.800712
0
LINE
8
BLACK
6
CONTINUOUS
10
-0.507368
20
-0.800712
11
-0.499869
21
-0.798838
0
LINE
8
BLACK
6
CONTINUOUS
10
-0.499869
20
-0.798838
11
-0.490495
21
-0.798838
0
LINE
8
BLACK
6
CONTINUOUS
10
-0.490495
20
-0.798838
11
-0.482996
21
-0.800712
0
LINE
8
BLACK
6
CONTINUOUS
10
-0.482996
20
-0.800712
11
-0.479246
21
-0.802587
0
LINE
8
BLACK
6
CONTINUOUS
10
-0.479246
20
-0.802587
11
-0.477372
21
-0.804462
0
LINE
8
BLACK
6
CONTINUOUS
10
-0.477372
20
-0.804462
11
-0.475497
21
-0.808211
0
LINE
8
BLACK
6
CONTINUOUS
10
-0.475497
20
-0.808211
11
-0.475497
21
-0.811961
0
LINE
8
BLACK
6
CONTINUOUS
10
-0.475497
20
-0.811961
11
-0.477372
21
-0.815711
0
LINE
8
BLACK
6
CONTINUOUS
10
-0.477372
20
-0.815711
11
-0.479246
21
-0.817585
0
LINE
8
BLACK
6
CONTINUOUS
10
-0.479246
20
-0.817585
11
-0.482996
21
-0.81946
0
LINE
8
BLACK
6
CONTINUOUS
10
-0.482996
20
-0.81946
11
-0.490495
21
-0.821335
0
LINE
8
BLACK
6
CONTINUOUS
10
-0.490495
20
-0.821335
11
-0.499869
21
-0.821335
0
LINE
8
BLACK
6
CONTINUOUS
10
-0.499869
20
-0.821335
11
-0.507368
21
-0.81946
0
LINE
8
BLACK
6
CONTINUOUS
10
-0.507368
20
-0.81946
11
-0.511117
21
-0.817585
0
LINE
8
BLACK
6
CONTINUOUS
10
-0.511117
20
-0.817585
11
-0.512992
21
-0.815711
0
LINE
8
BLACK
6
CONTINUOUS
10
-0.512992
20
-0.815711
11
-0.514867
21
-0.811961
0
LINE
8
BLACK
6
CONTINUOUS
10
-0.514867
20
-0.774466
11
-0.514867
21
-0.770716
0
LINE
8
BLACK
6
CONTINUOUS
10
-0.514867
20
-0.770716
11
-0.512992
21
-0.766967
0
LINE
8
BLACK
6
CONTINUOUS
10
-0.512992
20
-0.766967
11
-0.511117
21
-0.765092
0
LINE
8
BLACK
6
CONTINUOUS
10
-0.511117
20
-0.765092
11
-0.507368
21
-0.763217
0
LINE
8
BLACK
6
CONTINUOUS
10
-0.507368
20
-0.763217
11
-0.499869
21
-0.761342
0
LINE
8
BLACK
6
CONTINUOUS
10
-0.499869
20
-0.761342
11
-0.490495
21
-0.761342
0
LINE
8
BLACK
6
CONTINUOUS
10
-0.490495
20
-0.761342
11
-0.482996
21
-0.763217
0
LINE
8
BLACK
6
CONTINUOUS
10
-0.482996
20
-0.763217
11
-0.479246
21
-0.765092
0
LINE
8
BLACK
6
CONTINUOUS
10
-0.479246
20
-0.765092
11
-0.477372
21
-0.766967
0
LINE
8
BLACK
6
CONTINUOUS
10
-0.477372
20
-0.766967
11
-0.475497
21
-0.770716
0
LINE
8
BLACK
6
CONTINUOUS
10
-0.475497
20
-0.770716
11
-0.475497
21
-0.774466
0
LINE
8
BLACK
6
CONTINUOUS
10
-0.475497
20
-0.774466
11
-0.477372
21
-0.778215
0
LINE
8
BLACK
6
CONTINUOUS
10
-0.477372
20
-0.778215
11
-0.479246
21
-0.78009
0
LINE
8
BLACK
6
CONTINUOUS
10
-0.479246
20
-0.78009
11
-0.482996
21
-0.781965
0
LINE
8
BLACK
6
CONTINUOUS
10
-0.482996
20
-0.781965
11
-0.490495
21
-0.783839
0
LINE
8
BLACK
6
CONTINUOUS
10
-0.490495
20
-0.783839
11
-0.499869
21
-0.783839
0
LINE
8
BLACK
6
CONTINUOUS
10
-0.499869
20
-0.783839
11
-0.507368
21
-0.781965
0
LINE
8
BLACK
6
CONTINUOUS
10
-0.507368
20
-0.781965
11
-0.511117
21
-0.78009
0
LINE
8
BLACK
6
CONTINUOUS
10
-0.511117
20
-0.78009
11
-0.512992
21
-0.778215
0
LINE
8
BLACK
6
CONTINUOUS
10
-0.512992
20
-0.778215
11
-0.514867
21
-0.774466
0
LINE
8
BLACK
6
CONTINUOUS
10
-0.514867
20
-0.73697
11
-0.514867
21
-0.733221
0
LINE
8
BLACK
6
CONTINUOUS
10
-0.514867
20
-0.733221
11
-0.512992
21
-0.729471
0
LINE
8
BLACK
6
CONTINUOUS
10
-0.512992
20
-0.729471
11
-0.511117
21
-0.727597
0
LINE
8
BLACK
6
CONTINUOUS
10
-0.511117
20
-0.727597
11
-0.507368
21
-0.725722
0
LINE
8
BLACK
6
CONTINUOUS
10
-0.507368
20
-0.725722
11
-0.499869
21
-0.723847
0
LINE
8
BLACK
6
CONTINUOUS
10
-0.499869
20
-0.723847
11
-0.490495
21
-0.723847
0
LINE
8
BLACK
6
CONTINUOUS
10
-0.490495
20
-0.723847
11
-0.482996
21
-0.725722
0
LINE
8
BLACK
6
CONTINUOUS
10
-0.482996
20
-0.725722
11
-0.479246
21
-0.727597
0
LINE
8
BLACK
6
CONTINUOUS
10
-0.479246
20
-0.727597
11
-0.477372
21
-0.729471
0
LINE
8
BLACK
6
CONTINUOUS
10
-0.477372
20
-0.729471
11
-0.475497
21
-0.733221
0
LINE
8
BLACK
6
CONTINUOUS
10
-0.475497
20
-0.733221
11
-0.475497
21
-0.73697
0
LINE
8
BLACK
6
CONTINUOUS
10
-0.475497
20
-0.73697
11
-0.477372
21
-0.74072
0
LINE
8
BLACK
6
CONTINUOUS
10
-0.477372
20
-0.74072
11
-0.479246
21
-0.742595
0
LINE
8
BLACK
6
CONTINUOUS
10
-0.479246
20
-0.742595
11
-0.482996
21
-0.744469
0
LINE
8
BLACK
6
CONTINUOUS
10
-0.482996
20
-0.744469
11
-0.490495
21
-0.746344
0
LINE
8
BLACK
6
CONTINUOUS
10
-0.490495
20
-0.746344
11
-0.499869
21
-0.746344
0
LINE
8
BLACK
6
CONTINUOUS
10
-0.499869
20
-0.746344
11
-0.507368
21
-0.744469
0
LINE
8
BLACK
6
CONTINUOUS
10
-0.507368
20
-0.744469
11
-0.511117
21
-0.742595
0
LINE
8
BLACK
6
CONTINUOUS
10
-0.511117
20
-0.742595
11
-0.512992
21
-0.74072
0
LINE
8
BLACK
6
CONTINUOUS
10
-0.512992
20
-0.74072
11
-0.514867
21
-0.73697
0
LINE
8
BLACK
6
CONTINUOUS
10
-0.475497
20
-0.676978
11
-0.501744
21
-0.676978
0
LINE
8
BLACK
6
CONTINUOUS
10
-0.497994
20
-0.676978
11
-0.499869
21
-0.675103
0
LINE
8
BLACK
6
CONTINUOUS
10
-0.499869
20
-0.675103
11
-0.501744
21
-0.671354
0
LINE
8
BLACK
6
CONTINUOUS
10
-0.501744
20
-0.671354
11
-0.501744
21
-0.665729
0
LINE
8
BLACK
6
CONTINUOUS
10
-0.501744
20
-0.665729
11
-0.499869
21
-0.66198
0
LINE
8
BLACK
6
CONTINUOUS
10
-0.499869
20
-0.66198
11
-0.496119
21
-0.660105
0
LINE
8
BLACK
6
CONTINUOUS
10
-0.496119
20
-0.660105
11
-0.475497
21
-0.660105
0
LINE
8
BLACK
6
CONTINUOUS
10
-0.496119
20
-0.660105
11
-0.499869
21
-0.65823
0
LINE
8
BLACK
6
CONTINUOUS
10
-0.499869
20
-0.65823
11
-0.501744
21
-0.654481
0
LINE
8
BLACK
6
CONTINUOUS
10
-0.501744
20
-0.654481
11
-0.501744
21
-0.648856
0
LINE
8
BLACK
6
CONTINUOUS
10
-0.501744
20
-0.648856
11
-0.499869
21
-0.645107
0
LINE
8
BLACK
6
CONTINUOUS
10
-0.499869
20
-0.645107
11
-0.496119
21
-0.643232
0
LINE
8
BLACK
6
CONTINUOUS
10
-0.496119
20
-0.643232
11
-0.475497
21
-0.643232
0
LINE
8
BLACK
6
CONTINUOUS
10
-0.475497
20
-0.624484
11
-0.501744
21
-0.624484
0
LINE
8
BLACK
6
CONTINUOUS
10
-0.497994
20
-0.624484
11
-0.499869
21
-0.62261
0
LINE
8
BLACK
6
CONTINUOUS
10
-0.499869
20
-0.62261
11
-0.501744
21
-0.61886
0
LINE
8
BLACK
6
CONTINUOUS
10
-0.501744
20
-0.61886
11
-0.501744
21
-0.613236
0
LINE
8
BLACK
6
CONTINUOUS
10
-0.501744
20
-0.613236
11
-0.499869
21
-0.609486
0
LINE
8
BLACK
6
CONTINUOUS
10
-0.499869
20
-0.609486
11
-0.496119
21
-0.607612
0
LINE
8
BLACK
6
CONTINUOUS
10
-0.496119
20
-0.607612
11
-0.475497
21
-0.607612
0
LINE
8
BLACK
6
CONTINUOUS
10
-0.496119
20
-0.607612
11
-0.499869
21
-0.605737
0
LINE
8
BLACK
6
CONTINUOUS
10
-0.499869
20
-0.605737
11
-0.501744
21
-0.601987
0
LINE
8
BLACK
6
CONTINUOUS
10
-0.501744
20
-0.601987
11
-0.501744
21
-0.596363
0
LINE
8
BLACK
6
CONTINUOUS
10
-0.501744
20
-0.596363
11
-0.499869
21
-0.592613
0
LINE
8
BLACK
6
CONTINUOUS
10
-0.499869
20
-0.592613
11
-0.496119
21
-0.590739
0
LINE
8
BLACK
6
CONTINUOUS
10
-0.496119
20
-0.590739
11
-0.475497
21
-0.590739
0
LINE
8
BLACK
6
CONTINUOUS
10
-0.540551
20
-1.02756
11
-0.540551
21
-0.476378
0
LINE
8
BLACK
6
CONTINUOUS
10
-0.577264
20
-1.02756
11
-0.517464
21
-1.02756
0
LINE
8
BLACK
6
CONTINUOUS
10
-0.577264
20
-0.476378
11
-0.517464
21
-0.476378
0
LINE
8
BLACK
6
CONTINUOUS
10
-0.540551
20
-0.476378
11
-0.517464
21
-0.520729
0
LINE
8
BLACK
6
CONTINUOUS
10
-0.540551
20
-0.476378
11
-0.563639
21
-0.520729
0
LINE
8
BLACK
6
CONTINUOUS
10
-0.540551
20
-1.02756
11
-0.517464
21
-0.983209
0
LINE
8
BLACK
6
CONTINUOUS
10
-0.540551
20
-1.02756
11
-0.563639
21
-0.983209
0
LINE
8
BLACK
6
CONTINUOUS
10
-1.03283
20
-0.26781
11
-1.05533
21
-0.26781
0
LINE
8
BLACK
6
CONTINUOUS
10
-1.04408
20
-0.26781
11
-1.04408
21
-0.22844
0
LINE
8
BLACK
6
CONTINUOUS
10
-1.04408
20
-0.22844
11
-1.04783
21
-0.234064
0
LINE
8
BLACK
6
CONTINUOUS
10
-1.04783
20
-0.234064
11
-1.05158
21
-0.237814
0
LINE
8
BLACK
6
CONTINUOUS
10
-1.05158
20
-0.237814
11
-1.05533
21
-0.239689
0
LINE
8
BLACK
6
CONTINUOUS
10
-0.999086
20
-0.241564
11
-0.999086
21
-0.26781
0
LINE
8
BLACK
6
CONTINUOUS
10
-1.00846
20
-0.226565
11
-1.01783
21
-0.254687
0
LINE
8
BLACK
6
CONTINUOUS
10
-1.01783
20
-0.254687
11
-0.993462
21
-0.254687
0
LINE
8
BLACK
6
CONTINUOUS
10
-0.978464
20
-0.264061
11
-0.976589
21
-0.265935
0
LINE
8
BLACK
6
CONTINUOUS
10
-0.976589
20
-0.265935
11
-0.978464
21
-0.26781
0
LINE
8
BLACK
6
CONTINUOUS
10
-0.978464
20
-0.26781
11
-0.980338
21
-0.265935
0
LINE
8
BLACK
6
CONTINUOUS
10
-0.980338
20
-0.265935
11
-0.978464
21
-0.264061
0
LINE
8
BLACK
6
CONTINUOUS
10
-0.978464
20
-0.264061
11
-0.978464
21
-0.26781
0
LINE
8
BLACK
6
CONTINUOUS
10
-0.952217
20
-0.22844
11
-0.948467
21
-0.22844
0
LINE
8
BLACK
6
CONTINUOUS
10
-0.948467
20
-0.22844
11
-0.944718
21
-0.230315
0
LINE
8
BLACK
6
CONTINUOUS
10
-0.944718
20
-0.230315
11
-0.942843
21
-0.23219
0
LINE
8
BLACK
6
CONTINUOUS
10
-0.942843
20
-0.23219
11
-0.940968
21
-0.235939
0
LINE
8
BLACK
6
CONTINUOUS
10
-0.940968
20
-0.235939
11
-0.939094
21
-0.243438
0
LINE
8
BLACK
6
CONTINUOUS
10
-0.939094
20
-0.243438
11
-0.939094
21
-0.252812
0
LINE
8
BLACK
6
CONTINUOUS
10
-0.939094
20
-0.252812
11
-0.940968
21
-0.260311
0
LINE
8
BLACK
6
CONTINUOUS
10
-0.940968
20
-0.260311
11
-0.942843
21
-0.264061
0
LINE
8
BLACK
6
CONTINUOUS
10
-0.942843
20
-0.264061
11
-0.944718
21
-0.265935
0
LINE
8
BLACK
6
CONTINUOUS
10
-0.944718
20
-0.265935
11
-0.948467
21
-0.26781
0
LINE
8
BLACK
6
CONTINUOUS
10
-0.948467
20
-0.26781
11
-0.952217
21
-0.26781
0
LINE
8
BLACK
6
CONTINUOUS
10
-0.952217
20
-0.26781
11
-0.955966
21
-0.265935
0
LINE
8
BLACK
6
CONTINUOUS
10
-0.955966
20
-0.265935
11
-0.957841
21
-0.264061
0
LINE
8
BLACK
6
CONTINUOUS
10
-0.957841
20
-0.264061
11
-0.959716
21
-0.260311
0
LINE
8
BLACK
6
CONTINUOUS
10
-0.959716
20
-0.260311
11
-0.961591
21
-0.252812
0
LINE
8
BLACK
6
CONTINUOUS
10
-0.961591
20
-0.252812
11
-0.961591
21
-0.243438
0
LINE
8
BLACK
6
CONTINUOUS
10
-0.961591
20
-0.243438
11
-0.959716
21
-0.235939
0
LINE
8
BLACK
6
CONTINUOUS
10
-0.959716
20
-0.235939
11
-0.957841
21
-0.23219
0
LINE
8
BLACK
6
CONTINUOUS
10
-0.957841
20
-0.23219
11
-0.955966
21
-0.230315
0
LINE
8
BLACK
6
CONTINUOUS
10
-0.955966
20
-0.230315
11
-0.952217
21
-0.22844
0
LINE
8
BLACK
6
CONTINUOUS
10
-0.914722
20
-0.22844
11
-0.910972
21
-0.22844
0
LINE
8
BLACK
6
CONTINUOUS
10
-0.910972
20
-0.22844
11
-0.907223
21
-0.230315
0
LINE
8
BLACK
6
CONTINUOUS
10
-0.907223
20
-0.230315
11
-0.905348
21
-0.23219
0
LINE
8
BLACK
6
CONTINUOUS
10
-0.905348
20
-0.23219
11
-0.903473
21
-0.235939
0
LINE
8
BLACK
6
CONTINUOUS
10
-0.903473
20
-0.235939
11
-0.901598
21
-0.243438
0
LINE
8
BLACK
6
CONTINUOUS
10
-0.901598
20
-0.243438
11
-0.901598
21
-0.252812
0
LINE
8
BLACK
6
CONTINUOUS
10
-0.901598
20
-0.252812
11
-0.903473
21
-0.260311
0
LINE
8
BLACK
6
CONTINUOUS
10
-0.903473
20
-0.260311
11
-0.905348
21
-0.264061
0
LINE
8
BLACK
6
CONTINUOUS
10
-0.905348
20
-0.264061
11
-0.907223
21
-0.265935
0
LINE
8
BLACK
6
CONTINUOUS
10
-0.907223
20
-0.265935
11
-0.910972
21
-0.26781
0
LINE
8
BLACK
6
CONTINUOUS
10
-0.910972
20
-0.26781
11
-0.914722
21
-0.26781
0
LINE
8
BLACK
6
CONTINUOUS
10
-0.914722
20
-0.26781
11
-0.918471
21
-0.265935
0
LINE
8
BLACK
6
CONTINUOUS
10
-0.918471
20
-0.265935
11
-0.920346
21
-0.264061
0
LINE
8
BLACK
6
CONTINUOUS
10
-0.920346
20
-0.264061
11
-0.922221
21
-0.260311
0
LINE
8
BLACK
6
CONTINUOUS
10
-0.922221
20
-0.260311
11
-0.924095
21
-0.252812
0
LINE
8
BLACK
6
CONTINUOUS
10
-0.924095
20
-0.252812
11
-0.924095
21
-0.243438
0
LINE
8
BLACK
6
CONTINUOUS
10
-0.924095
20
-0.243438
11
-0.922221
21
-0.235939
0
LINE
8
BLACK
6
CONTINUOUS
10
-0.922221
20
-0.235939
11
-0.920346
21
-0.23219
0
LINE
8
BLACK
6
CONTINUOUS
10
-0.920346
20
-0.23219
11
-0.918471
21
-0.230315
0
LINE
8
BLACK
6
CONTINUOUS
10
-0.918471
20
-0.230315
11
-0.914722
21
-0.22844
0
LINE
8
BLACK
6
CONTINUOUS
10
-0.877226
20
-0.22844
11
-0.873477
21
-0.22844
0
LINE
8
BLACK
6
CONTINUOUS
10
-0.873477
20
-0.22844
11
-0.869727
21
-0.230315
0
LINE
8
BLACK
6
CONTINUOUS
10
-0.869727
20
-0.230315
11
-0.867852
21
-0.23219
0
LINE
8
BLACK
6
CONTINUOUS
10
-0.867852
20
-0.23219
11
-0.865978
21
-0.235939
0
LINE
8
BLACK
6
CONTINUOUS
10
-0.865978
20
-0.235939
11
-0.864103
21
-0.243438
0
LINE
8
BLACK
6
CONTINUOUS
10
-0.864103
20
-0.243438
11
-0.864103
21
-0.252812
0
LINE
8
BLACK
6
CONTINUOUS
10
-0.864103
20
-0.252812
11
-0.865978
21
-0.260311
0
LINE
8
BLACK
6
CONTINUOUS
10
-0.865978
20
-0.260311
11
-0.867852
21
-0.264061
0
LINE
8
BLACK
6
CONTINUOUS
10
-0.867852
20
-0.264061
11
-0.869727
21
-0.265935
0
LINE
8
BLACK
6
CONTINUOUS
10
-0.869727
20
-0.265935
11
-0.873477
21
-0.26781
0
LINE
8
BLACK
6
CONTINUOUS
10
-0.873477
20
-0.26781
11
-0.877226
21
-0.26781
0
LINE
8
BLACK
6
CONTINUOUS
10
-0.877226
20
-0.26781
11
-0.880976
21
-0.265935
0
LINE
8
BLACK
6
CONTINUOUS
10
-0.880976
20
-0.265935
11
-0.882851
21
-0.264061
0
LINE
8
BLACK
6
CONTINUOUS
10
-0.882851
20
-0.264061
11
-0.884725
21
-0.260311
0
LINE
8
BLACK
6
CONTINUOUS
10
-0.884725
20
-0.260311
11
-0.8866
21
-0.252812
0
LINE
8
BLACK
6
CONTINUOUS
10
-0.8866
20
-0.252812
11
-0.8866
21
-0.243438
0
LINE
8
BLACK
6
CONTINUOUS
10
-0.8866
20
-0.243438
11
-0.884725
21
-0.235939
0
LINE
8
BLACK
6
CONTINUOUS
10
-0.884725
20
-0.235939
11
-0.882851
21
-0.23219
0
LINE
8
BLACK
6
CONTINUOUS
10
-0.882851
20
-0.23219
11
-0.880976
21
-0.230315
0
LINE
8
BLACK
6
CONTINUOUS
10
-0.880976
20
-0.230315
11
-0.877226
21
-0.22844
0
LINE
8
BLACK
6
CONTINUOUS
10
-0.817234
20
-0.26781
11
-0.817234
21
-0.241564
0
LINE
8
BLACK
6
CONTINUOUS
10
-0.817234
20
-0.245313
11
-0.815359
21
-0.243438
0
LINE
8
BLACK
6
CONTINUOUS
10
-0.815359
20
-0.243438
11
-0.811609
21
-0.241564
0
LINE
8
BLACK
6
CONTINUOUS
10
-0.811609
20
-0.241564
11
-0.805985
21
-0.241564
0
LINE
8
BLACK
6
CONTINUOUS
10
-0.805985
20
-0.241564
11
-0.802236
21
-0.243438
0
LINE
8
BLACK
6
CONTINUOUS
10
-0.802236
20
-0.243438
11
-0.800361
21
-0.247188
0
LINE
8
BLACK
6
CONTINUOUS
10
-0.800361
20
-0.247188
11
-0.800361
21
-0.26781
0
LINE
8
BLACK
6
CONTINUOUS
10
-0.800361
20
-0.247188
11
-0.798486
21
-0.243438
0
LINE
8
BLACK
6
CONTINUOUS
10
-0.798486
20
-0.243438
11
-0.794737
21
-0.241564
0
LINE
8
BLACK
6
CONTINUOUS
10
-0.794737
20
-0.241564
11
-0.789112
21
-0.241564
0
LINE
8
BLACK
6
CONTINUOUS
10
-0.789112
20
-0.241564
11
-0.785363
21
-0.243438
0
LINE
8
BLACK
6
CONTINUOUS
10
-0.785363
20
-0.243438
11
-0.783488
21
-0.247188
0
LINE
8
BLACK
6
CONTINUOUS
10
-0.783488
20
-0.247188
11
-0.783488
21
-0.26781
0
LINE
8
BLACK
6
CONTINUOUS
10
-0.76474
20
-0.26781
11
-0.76474
21
-0.241564
0
LINE
8
BLACK
6
CONTINUOUS
10
-0.76474
20
-0.245313
11
-0.762866
21
-0.243438
0
LINE
8
BLACK
6
CONTINUOUS
10
-0.762866
20
-0.243438
11
-0.759116
21
-0.241564
0
LINE
8
BLACK
6
CONTINUOUS
10
-0.759116
20
-0.241564
11
-0.753492
21
-0.241564
0
LINE
8
BLACK
6
CONTINUOUS
10
-0.753492
20
-0.241564
11
-0.749742
21
-0.243438
0
LINE
8
BLACK
6
CONTINUOUS
10
-0.749742
20
-0.243438
11
-0.747867
21
-0.247188
0
LINE
8
BLACK
6
CONTINUOUS
10
-0.747867
20
-0.247188
11
-0.747867
21
-0.26781
0
LINE
8
BLACK
6
CONTINUOUS
10
-0.747867
20
-0.247188
11
-0.745993
21
-0.243438
0
LINE
8
BLACK
6
CONTINUOUS
10
-0.745993
20
-0.243438
11
-0.742243
21
-0.241564
0
LINE
8
BLACK
6
CONTINUOUS
10
-0.742243
20
-0.241564
11
-0.736619
21
-0.241564
0
LINE
8
BLACK
6
CONTINUOUS
10
-0.736619
20
-0.241564
11
-0.732869
21
-0.243438
0
LINE
8
BLACK
6
CONTINUOUS
10
-0.732869
20
-0.243438
11
-0.730995
21
-0.247188
0
LINE
8
BLACK
6
CONTINUOUS
10
-0.730995
20
-0.247188
11
-0.730995
21
-0.26781
0
LINE
8
BLACK
6
CONTINUOUS
10
-1.16781
20
-0.297244
11
-0.616634
21
-0.297244
0
LINE
8
BLACK
6
CONTINUOUS
10
-1.16781
20
-0.318898
11
-1.16781
21
-0.274157
0
LINE
8
BLACK
6
CONTINUOUS
10
-0.616634
20
-0.318898
11
-0.616634
21
-0.274157
0
LINE
8
BLACK
6
CONTINUOUS
10
-0.616634
20
-0.297244
11
-0.660984
21
-0.320332
0
LINE
8
BLACK
6
CONTINUOUS
10
-0.616634
20
-0.297244
11
-0.660984
21
-0.274157
0
LINE
8
BLACK
6
CONTINUOUS
10
-1.16781
20
-0.297244
11
-1.12346
21
-0.320332
0
LINE
8
BLACK
6
CONTINUOUS
10
-1.16781
20
-0.297244
11
-1.12346
21
-0.274157
0
LINE
8
BLACK
6
CONTINUOUS
10
1.29301
20
-4.82096
11
1.27051
21
-4.82096
0
LINE
8
BLACK
6
CONTINUOUS
10
1.28176
20
-4.82096
11
1.28176
21
-4.78159
0
LINE
8
BLACK
6
CONTINUOUS
10
1.28176
20
-4.78159
11
1.27801
21
-4.78721
0
LINE
8
BLACK
6
CONTINUOUS
10
1.27801
20
-4.78721
11
1.27426
21
-4.79096
0
LINE
8
BLACK
6
CONTINUOUS
10
1.27426
20
-4.79096
11
1.27051
21
-4.79284
0
LINE
8
BLACK
6
CONTINUOUS
10
1.30613
20
-4.78159
11
1.3305
21
-4.78159
0
LINE
8
BLACK
6
CONTINUOUS
10
1.3305
20
-4.78159
11
1.31738
21
-4.79659
0
LINE
8
BLACK
6
CONTINUOUS
10
1.31738
20
-4.79659
11
1.323
21
-4.79659
0
LINE
8
BLACK
6
CONTINUOUS
10
1.323
20
-4.79659
11
1.32675
21
-4.79846
0
LINE
8
BLACK
6
CONTINUOUS
10
1.32675
20
-4.79846
11
1.32863
21
-4.80034
0
LINE
8
BLACK
6
CONTINUOUS
10
1.32863
20
-4.80034
11
1.3305
21
-4.80409
0
LINE
8
BLACK
6
CONTINUOUS
10
1.3305
20
-4.80409
11
1.3305
21
-4.81346
0
LINE
8
BLACK
6
CONTINUOUS
10
1.3305
20
-4.81346
11
1.32863
21
-4.81721
0
LINE
8
BLACK
6
CONTINUOUS
10
1.32863
20
-4.81721
11
1.32675
21
-4.81909
0
LINE
8
BLACK
6
CONTINUOUS
10
1.32675
20
-4.81909
11
1.323
21
-4.82096
0
LINE
8
BLACK
6
CONTINUOUS
10
1.323
20
-4.82096
11
1.31175
21
-4.82096
0
LINE
8
BLACK
6
CONTINUOUS
10
1.31175
20
-4.82096
11
1.30801
21
-4.81909
0
LINE
8
BLACK
6
CONTINUOUS
10
1.30801
20
-4.81909
11
1.30613
21
-4.81721
0
LINE
8
BLACK
6
CONTINUOUS
10
1.353
20
-4.79846
11
1.34925
21
-4.79659
0
LINE
8
BLACK
6
CONTINUOUS
10
1.34925
20
-4.79659
11
1.34738
21
-4.79471
0
LINE
8
BLACK
6
CONTINUOUS
10
1.34738
20
-4.79471
11
1.3455
21
-4.79096
0
LINE
8
BLACK
6
CONTINUOUS
10
1.3455
20
-4.79096
11
1.3455
21
-4.78909
0
LINE
8
BLACK
6
CONTINUOUS
10
1.3455
20
-4.78909
11
1.34738
21
-4.78534
0
LINE
8
BLACK
6
CONTINUOUS
10
1.34738
20
-4.78534
11
1.34925
21
-4.78346
0
LINE
8
BLACK
6
CONTINUOUS
10
1.34925
20
-4.78346
11
1.353
21
-4.78159
0
LINE
8
BLACK
6
CONTINUOUS
10
1.353
20
-4.78159
11
1.3605
21
-4.78159
0
LINE
8
BLACK
6
CONTINUOUS
10
1.3605
20
-4.78159
11
1.36425
21
-4.78346
0
LINE
8
BLACK
6
CONTINUOUS
10
1.36425
20
-4.78346
11
1.36612
21
-4.78534
0
LINE
8
BLACK
6
CONTINUOUS
10
1.36612
20
-4.78534
11
1.368
21
-4.78909
0
LINE
8
BLACK
6
CONTINUOUS
10
1.368
20
-4.78909
11
1.368
21
-4.79096
0
LINE
8
BLACK
6
CONTINUOUS
10
1.368
20
-4.79096
11
1.36612
21
-4.79471
0
LINE
8
BLACK
6
CONTINUOUS
10
1.36612
20
-4.79471
11
1.36425
21
-4.79659
0
LINE
8
BLACK
6
CONTINUOUS
10
1.36425
20
-4.79659
11
1.3605
21
-4.79846
0
LINE
8
BLACK
6
CONTINUOUS
10
1.3605
20
-4.79846
11
1.353
21
-4.79846
0
LINE
8
BLACK
6
CONTINUOUS
10
1.353
20
-4.79846
11
1.34925
21
-4.80034
0
LINE
8
BLACK
6
CONTINUOUS
10
1.34925
20
-4.80034
11
1.34738
21
-4.80221
0
LINE
8
BLACK
6
CONTINUOUS
10
1.34738
20
-4.80221
11
1.3455
21
-4.80596
0
LINE
8
BLACK
6
CONTINUOUS
10
1.3455
20
-4.80596
11
1.3455
21
-4.81346
0
LINE
8
BLACK
6
CONTINUOUS
10
1.3455
20
-4.81346
11
1.34738
21
-4.81721
0
LINE
8
BLACK
6
CONTINUOUS
10
1.34738
20
-4.81721
11
1.34925
21
-4.81909
0
LINE
8
BLACK
6
CONTINUOUS
10
1.34925
20
-4.81909
11
1.353
21
-4.82096
0
LINE
8
BLACK
6
CONTINUOUS
10
1.353
20
-4.82096
11
1.3605
21
-4.82096
0
LINE
8
BLACK
6
CONTINUOUS
10
1.3605
20
-4.82096
11
1.36425
21
-4.81909
0
LINE
8
BLACK
6
CONTINUOUS
10
1.36425
20
-4.81909
11
1.36612
21
-4.81721
0
LINE
8
BLACK
6
CONTINUOUS
10
1.36612
20
-4.81721
11
1.368
21
-4.81346
0
LINE
8
BLACK
6
CONTINUOUS
10
1.368
20
-4.81346
11
1.368
21
-4.80596
0
LINE
8
BLACK
6
CONTINUOUS
10
1.368
20
-4.80596
11
1.36612
21
-4.80221
0
LINE
8
BLACK
6
CONTINUOUS
10
1.36612
20
-4.80221
11
1.36425
21
-4.80034
0
LINE
8
BLACK
6
CONTINUOUS
10
1.36425
20
-4.80034
11
1.3605
21
-4.79846
0
LINE
8
BLACK
6
CONTINUOUS
10
1.38487
20
-4.81721
11
1.38675
21
-4.81909
0
LINE
8
BLACK
6
CONTINUOUS
10
1.38675
20
-4.81909
11
1.38487
21
-4.82096
0
LINE
8
BLACK
6
CONTINUOUS
10
1.38487
20
-4.82096
11
1.383
21
-4.81909
0
LINE
8
BLACK
6
CONTINUOUS
10
1.383
20
-4.81909
11
1.38487
21
-4.81721
0
LINE
8
BLACK
6
CONTINUOUS
10
1.38487
20
-4.81721
11
1.38487
21
-4.82096
0
LINE
8
BLACK
6
CONTINUOUS
10
1.42424
20
-4.82096
11
1.40174
21
-4.82096
0
LINE
8
BLACK
6
CONTINUOUS
10
1.41299
20
-4.82096
11
1.41299
21
-4.78159
0
LINE
8
BLACK
6
CONTINUOUS
10
1.41299
20
-4.78159
11
1.40924
21
-4.78721
0
LINE
8
BLACK
6
CONTINUOUS
10
1.40924
20
-4.78721
11
1.40549
21
-4.79096
0
LINE
8
BLACK
6
CONTINUOUS
10
1.40549
20
-4.79096
11
1.40174
21
-4.79284
0
LINE
8
BLACK
6
CONTINUOUS
10
1.45799
20
-4.78159
11
1.45049
21
-4.78159
0
LINE
8
BLACK
6
CONTINUOUS
10
1.45049
20
-4.78159
11
1.44674
21
-4.78346
0
LINE
8
BLACK
6
CONTINUOUS
10
1.44674
20
-4.78346
11
1.44486
21
-4.78534
0
LINE
8
BLACK
6
CONTINUOUS
10
1.44486
20
-4.78534
11
1.44111
21
-4.79096
0
LINE
8
BLACK
6
CONTINUOUS
10
1.44111
20
-4.79096
11
1.43924
21
-4.79846
0
LINE
8
BLACK
6
CONTINUOUS
10
1.43924
20
-4.79846
11
1.43924
21
-4.81346
0
LINE
8
BLACK
6
CONTINUOUS
10
1.43924
20
-4.81346
11
1.44111
21
-4.81721
0
LINE
8
BLACK
6
CONTINUOUS
10
1.44111
20
-4.81721
11
1.44299
21
-4.81909
0
LINE
8
BLACK
6
CONTINUOUS
10
1.44299
20
-4.81909
11
1.44674
21
-4.82096
0
LINE
8
BLACK
6
CONTINUOUS
10
1.44674
20
-4.82096
11
1.45424
21
-4.82096
0
LINE
8
BLACK
6
CONTINUOUS
10
1.45424
20
-4.82096
11
1.45799
21
-4.81909
0
LINE
8
BLACK
6
CONTINUOUS
10
1.45799
20
-4.81909
11
1.45986
21
-4.81721
0
LINE
8
BLACK
6
CONTINUOUS
10
1.45986
20
-4.81721
11
1.46174
21
-4.81346
0
LINE
8
BLACK
6
CONTINUOUS
10
1.46174
20
-4.81346
11
1.46174
21
-4.80409
0
LINE
8
BLACK
6
CONTINUOUS
10
1.46174
20
-4.80409
11
1.45986
21
-4.80034
0
LINE
8
BLACK
6
CONTINUOUS
10
1.45986
20
-4.80034
11
1.45799
21
-4.79846
0
LINE
8
BLACK
6
CONTINUOUS
10
1.45799
20
-4.79846
11
1.45424
21
-4.79659
0
LINE
8
BLACK
6
CONTINUOUS
10
1.45424
20
-4.79659
11
1.44674
21
-4.79659
0
LINE
8
BLACK
6
CONTINUOUS
10
1.44674
20
-4.79659
11
1.44299
21
-4.79846
0
LINE
8
BLACK
6
CONTINUOUS
10
1.44299
20
-4.79846
11
1.44111
21
-4.80034
0
LINE
8
BLACK
6
CONTINUOUS
10
1.44111
20
-4.80034
11
1.43924
21
-4.80409
0
LINE
8
BLACK
6
CONTINUOUS
10
1.48611
20
-4.78159
11
1.48986
21
-4.78159
0
LINE
8
BLACK
6
CONTINUOUS
10
1.48986
20
-4.78159
11
1.49361
21
-4.78346
0
LINE
8
BLACK
6
CONTINUOUS
10
1.49361
20
-4.78346
11
1.49548
21
-4.78534
0
LINE
8
BLACK
6
CONTINUOUS
10
1.49548
20
-4.78534
11
1.49736
21
-4.78909
0
LINE
8
BLACK
6
CONTINUOUS
10
1.49736
20
-4.78909
11
1.49923
21
-4.79659
0
LINE
8
BLACK
6
CONTINUOUS
10
1.49923
20
-4.79659
11
1.49923
21
-4.80596
0
LINE
8
BLACK
6
CONTINUOUS
10
1.49923
20
-4.80596
11
1.49736
21
-4.81346
0
LINE
8
BLACK
6
CONTINUOUS
10
1.49736
20
-4.81346
11
1.49548
21
-4.81721
0
LINE
8
BLACK
6
CONTINUOUS
10
1.49548
20
-4.81721
11
1.49361
21
-4.81909
0
LINE
8
BLACK
6
CONTINUOUS
10
1.49361
20
-4.81909
11
1.48986
21
-4.82096
0
LINE
8
BLACK
6
CONTINUOUS
10
1.48986
20
-4.82096
11
1.48611
21
-4.82096
0
LINE
8
BLACK
6
CONTINUOUS
10
1.48611
20
-4.82096
11
1.48236
21
-4.81909
0
LINE
8
BLACK
6
CONTINUOUS
10
1.48236
20
-4.81909
11
1.48048
21
-4.81721
0
LINE
8
BLACK
6
CONTINUOUS
10
1.48048
20
-4.81721
11
1.47861
21
-4.81346
0
LINE
8
BLACK
6
CONTINUOUS
10
1.47861
20
-4.81346
11
1.47673
21
-4.80596
0
LINE
8
BLACK
6
CONTINUOUS
10
1.47673
20
-4.80596
11
1.47673
21
-4.79659
0
LINE
8
BLACK
6
CONTINUOUS
10
1.47673
20
-4.79659
11
1.47861
21
-4.78909
0
LINE
8
BLACK
6
CONTINUOUS
10
1.47861
20
-4.78909
11
1.48048
21
-4.78534
0
LINE
8
BLACK
6
CONTINUOUS
10
1.48048
20
-4.78534
11
1.48236
21
-4.78346
0
LINE
8
BLACK
6
CONTINUOUS
10
1.48236
20
-4.78346
11
1.48611
21
-4.78159
0
LINE
8
BLACK
6
CONTINUOUS
10
1.5461
20
-4.82096
11
1.5461
21
-4.79471
0
LINE
8
BLACK
6
CONTINUOUS
10
1.5461
20
-4.79846
11
1.54798
21
-4.79659
0
LINE
8
BLACK
6
CONTINUOUS
10
1.54798
20
-4.79659
11
1.55172
21
-4.79471
0
LINE
8
BLACK
6
CONTINUOUS
10
1.55172
20
-4.79471
11
1.55735
21
-4.79471
0
LINE
8
BLACK
6
CONTINUOUS
10
1.55735
20
-4.79471
11
1.5611
21
-4.79659
0
LINE
8
BLACK
6
CONTINUOUS
10
1.5611
20
-4.79659
11
1.56297
21
-4.80034
0
LINE
8
BLACK
6
CONTINUOUS
10
1.56297
20
-4.80034
11
1.56297
21
-4.82096
0
LINE
8
BLACK
6
CONTINUOUS
10
1.56297
20
-4.80034
11
1.56485
21
-4.79659
0
LINE
8
BLACK
6
CONTINUOUS
10
1.56485
20
-4.79659
11
1.5686
21
-4.79471
0
LINE
8
BLACK
6
CONTINUOUS
10
1.5686
20
-4.79471
11
1.57422
21
-4.79471
0
LINE
8
BLACK
6
CONTINUOUS
10
1.57422
20
-4.79471
11
1.57797
21
-4.79659
0
LINE
8
BLACK
6
CONTINUOUS
10
1.57797
20
-4.79659
11
1.57985
21
-4.80034
0
LINE
8
BLACK
6
CONTINUOUS
10
1.57985
20
-4.80034
11
1.57985
21
-4.82096
0
LINE
8
BLACK
6
CONTINUOUS
10
1.59859
20
-4.82096
11
1.59859
21
-4.79471
0
LINE
8
BLACK
6
CONTINUOUS
10
1.59859
20
-4.79846
11
1.60047
21
-4.79659
0
LINE
8
BLACK
6
CONTINUOUS
10
1.60047
20
-4.79659
11
1.60422
21
-4.79471
0
LINE
8
BLACK
6
CONTINUOUS
10
1.60422
20
-4.79471
11
1.60984
21
-4.79471
0
LINE
8
BLACK
6
CONTINUOUS
10
1.60984
20
-4.79471
11
1.61359
21
-4.79659
0
LINE
8
BLACK
6
CONTINUOUS
10
1.61359
20
-4.79659
11
1.61547
21
-4.80034
0
LINE
8
BLACK
6
CONTINUOUS
10
1.61547
20
-4.80034
11
1.61547
21
-4.82096
0
LINE
8
BLACK
6
CONTINUOUS
10
1.61547
20
-4.80034
11
1.61734
21
-4.79659
0
LINE
8
BLACK
6
CONTINUOUS
10
1.61734
20
-4.79659
11
1.62109
21
-4.79471
0
LINE
8
BLACK
6
CONTINUOUS
10
1.62109
20
-4.79471
11
1.62672
21
-4.79471
0
LINE
8
BLACK
6
CONTINUOUS
10
1.62672
20
-4.79471
11
1.63046
21
-4.79659
0
LINE
8
BLACK
6
CONTINUOUS
10
1.63046
20
-4.79659
11
1.63234
21
-4.80034
0
LINE
8
BLACK
6
CONTINUOUS
10
1.63234
20
-4.80034
11
1.63234
21
-4.82096
0
LINE
8
BLACK
6
CONTINUOUS
10
-1.26732
20
-4.75591
11
4.17205
21
-4.75591
0
LINE
8
BLACK
6
CONTINUOUS
10
-1.26732
20
-4.47736
11
-1.26732
21
-4.77899
0
LINE
8
BLACK
6
CONTINUOUS
10
4.17205
20
-4.47736
11
4.17205
21
-4.77899
0
LINE
8
BLACK
6
CONTINUOUS
10
4.17205
20
-4.75591
11
4.1277
21
-4.77899
0
LINE
8
BLACK
6
CONTINUOUS
10
4.17205
20
-4.75591
11
4.1277
21
-4.73282
0
LINE
8
BLACK
6
CONTINUOUS
10
-1.26732
20
-4.75591
11
-1.22297
21
-4.77899
0
LINE
8
BLACK
6
CONTINUOUS
10
-1.26732
20
-4.75591
11
-1.22297
21
-4.73282
0
LINE
8
BLACK
6
CONTINUOUS
10
-1.44558
20
-2.57973
11
-1.44558
21
-2.60223
0
LINE
8
BLACK
6
CONTINUOUS
10
-1.44558
20
-2.59098
11
-1.48495
21
-2.59098
0
LINE
8
BLACK
6
CONTINUOUS
10
-1.48495
20
-2.59098
11
-1.47932
21
-2.59473
0
LINE
8
BLACK
6
CONTINUOUS
10
-1.47932
20
-2.59473
11
-1.47557
21
-2.59848
0
LINE
8
BLACK
6
CONTINUOUS
10
-1.47557
20
-2.59848
11
-1.4737
21
-2.60223
0
LINE
8
BLACK
6
CONTINUOUS
10
-1.48495
20
-2.55536
11
-1.48495
21
-2.55161
0
LINE
8
BLACK
6
CONTINUOUS
10
-1.48495
20
-2.55161
11
-1.48307
21
-2.54786
0
LINE
8
BLACK
6
CONTINUOUS
10
-1.48307
20
-2.54786
11
-1.4812
21
-2.54598
0
LINE
8
BLACK
6
CONTINUOUS
10
-1.4812
20
-2.54598
11
-1.47745
21
-2.54411
0
LINE
8
BLACK
6
CONTINUOUS
10
-1.47745
20
-2.54411
11
-1.46995
21
-2.54223
0
LINE
8
BLACK
6
CONTINUOUS
10
-1.46995
20
-2.54223
11
-1.46057
21
-2.54223
0
LINE
8
BLACK
6
CONTINUOUS
10
-1.46057
20
-2.54223
11
-1.45307
21
-2.54411
0
LINE
8
BLACK
6
CONTINUOUS
10
-1.45307
20
-2.54411
11
-1.44933
21
-2.54598
0
LINE
8
BLACK
6
CONTINUOUS
10
-1.44933
20
-2.54598
11
-1.44745
21
-2.54786
0
LINE
8
BLACK
6
CONTINUOUS
10
-1.44745
20
-2.54786
11
-1.44558
21
-2.55161
0
LINE
8
BLACK
6
CONTINUOUS
10
-1.44558
20
-2.55161
11
-1.44558
21
-2.55536
0
LINE
8
BLACK
6
CONTINUOUS
10
-1.44558
20
-2.55536
11
-1.44745
21
-2.55911
0
LINE
8
BLACK
6
CONTINUOUS
10
-1.44745
20
-2.55911
11
-1.44933
21
-2.56098
0
LINE
8
BLACK
6
CONTINUOUS
10
-1.44933
20
-2.56098
11
-1.45307
21
-2.56286
0
LINE
8
BLACK
6
CONTINUOUS
10
-1.45307
20
-2.56286
11
-1.46057
21
-2.56473
0
LINE
8
BLACK
6
CONTINUOUS
10
-1.46057
20
-2.56473
11
-1.46995
21
-2.56473
0
LINE
8
BLACK
6
CONTINUOUS
10
-1.46995
20
-2.56473
11
-1.47745
21
-2.56286
0
LINE
8
BLACK
6
CONTINUOUS
10
-1.47745
20
-2.56286
11
-1.4812
21
-2.56098
0
LINE
8
BLACK
6
CONTINUOUS
10
-1.4812
20
-2.56098
11
-1.48307
21
-2.55911
0
LINE
8
BLACK
6
CONTINUOUS
10
-1.48307
20
-2.55911
11
-1.48495
21
-2.55536
0
LINE
8
BLACK
6
CONTINUOUS
10
-1.48495
20
-2.52911
11
-1.48495
21
-2.50474
0
LINE
8
BLACK
6
CONTINUOUS
10
-1.48495
20
-2.50474
11
-1.46995
21
-2.51786
0
LINE
8
BLACK
6
CONTINUOUS
10
-1.46995
20
-2.51786
11
-1.46995
21
-2.51224
0
LINE
8
BLACK
6
CONTINUOUS
10
-1.46995
20
-2.51224
11
-1.46807
21
-2.50849
0
LINE
8
BLACK
6
CONTINUOUS
10
-1.46807
20
-2.50849
11
-1.4662
21
-2.50661
0
LINE
8
BLACK
6
CONTINUOUS
10
-1.4662
20
-2.50661
11
-1.46245
21
-2.50474
0
LINE
8
BLACK
6
CONTINUOUS
10
-1.46245
20
-2.50474
11
-1.45307
21
-2.50474
0
LINE
8
BLACK
6
CONTINUOUS
10
-1.45307
20
-2.50474
11
-1.44933
21
-2.50661
0
LINE
8
BLACK
6
CONTINUOUS
10
-1.44933
20
-2.50661
11
-1.44745
21
-2.50849
0
LINE
8
BLACK
6
CONTINUOUS
10
-1.44745
20
-2.50849
11
-1.44558
21
-2.51224
0
LINE
8
BLACK
6
CONTINUOUS
10
-1.44558
20
-2.51224
11
-1.44558
21
-2.52349
0
LINE
8
BLACK
6
CONTINUOUS
10
-1.44558
20
-2.52349
11
-1.44745
21
-2.52724
0
LINE
8
BLACK
6
CONTINUOUS
10
-1.44745
20
-2.52724
11
-1.44933
21
-2.52911
0
LINE
8
BLACK
6
CONTINUOUS
10
-1.44933
20
-2.48787
11
-1.44745
21
-2.48599
0
LINE
8
BLACK
6
CONTINUOUS
10
-1.44745
20
-2.48599
11
-1.44558
21
-2.48787
0
LINE
8
BLACK
6
CONTINUOUS
10
-1.44558
20
-2.48787
11
-1.44745
21
-2.48974
0
LINE
8
BLACK
6
CONTINUOUS
10
-1.44745
20
-2.48974
11
-1.44933
21
-2.48787
0
LINE
8
BLACK
6
CONTINUOUS
10
-1.44933
20
-2.48787
11
-1.44558
21
-2.48787
0
LINE
8
BLACK
6
CONTINUOUS
10
-1.46807
20
-2.46349
11
-1.46995
21
-2.46724
0
LINE
8
BLACK
6
CONTINUOUS
10
-1.46995
20
-2.46724
11
-1.47182
21
-2.46912
0
LINE
8
BLACK
6
CONTINUOUS
10
-1.47182
20
-2.46912
11
-1.47557
21
-2.47099
0
LINE
8
BLACK
6
CONTINUOUS
10
-1.47557
20
-2.47099
11
-1.47745
21
-2.47099
0
LINE
8
BLACK
6
CONTINUOUS
10
-1.47745
20
-2.47099
11
-1.4812
21
-2.46912
0
LINE
8
BLACK
6
CONTINUOUS
10
-1.4812
20
-2.46912
11
-1.48307
21
-2.46724
0
LINE
8
BLACK
6
CONTINUOUS
10
-1.48307
20
-2.46724
11
-1.48495
21
-2.46349
0
LINE
8
BLACK
6
CONTINUOUS
10
-1.48495
20
-2.46349
11
-1.48495
21
-2.45599
0
LINE
8
BLACK
6
CONTINUOUS
10
-1.48495
20
-2.45599
11
-1.48307
21
-2.45225
0
LINE
8
BLACK
6
CONTINUOUS
10
-1.48307
20
-2.45225
11
-1.4812
21
-2.45037
0
LINE
8
BLACK
6
CONTINUOUS
10
-1.4812
20
-2.45037
11
-1.47745
21
-2.4485
0
LINE
8
BLACK
6
CONTINUOUS
10
-1.47745
20
-2.4485
11
-1.47557
21
-2.4485
0
LINE
8
BLACK
6
CONTINUOUS
10
-1.47557
20
-2.4485
11
-1.47182
21
-2.45037
0
LINE
8
BLACK
6
CONTINUOUS
10
-1.47182
20
-2.45037
11
-1.46995
21
-2.45225
0
LINE
8
BLACK
6
CONTINUOUS
10
-1.46995
20
-2.45225
11
-1.46807
21
-2.45599
0
LINE
8
BLACK
6
CONTINUOUS
10
-1.46807
20
-2.45599
11
-1.46807
21
-2.46349
0
LINE
8
BLACK
6
CONTINUOUS
10
-1.46807
20
-2.46349
11
-1.4662
21
-2.46724
0
LINE
8
BLACK
6
CONTINUOUS
10
-1.4662
20
-2.46724
11
-1.46432
21
-2.46912
0
LINE
8
BLACK
6
CONTINUOUS
10
-1.46432
20
-2.46912
11
-1.46057
21
-2.47099
0
LINE
8
BLACK
6
CONTINUOUS
10
-1.46057
20
-2.47099
11
-1.45307
21
-2.47099
0
LINE
8
BLACK
6
CONTINUOUS
10
-1.45307
20
-2.47099
11
-1.44933
21
-2.46912
0
LINE
8
BLACK
6
CONTINUOUS
10
-1.44933
20
-2.46912
11
-1.44745
21
-2.46724
0
LINE
8
BLACK
6
CONTINUOUS
10
-1.44745
20
-2.46724
11
-1.44558
21
-2.46349
0
LINE
8
BLACK
6
CONTINUOUS
10
-1.44558
20
-2.46349
11
-1.44558
21
-2.45599
0
LINE
8
BLACK
6
CONTINUOUS
10
-1.44558
20
-2.45599
11
-1.44745
21
-2.45225
0
LINE
8
BLACK
6
CONTINUOUS
10
-1.44745
20
-2.45225
11
-1.44933
21
-2.45037
0
LINE
8
BLACK
6
CONTINUOUS
10
-1.44933
20
-2.45037
11
-1.45307
21
-2.4485
0
LINE
8
BLACK
6
CONTINUOUS
10
-1.45307
20
-2.4485
11
-1.46057
21
-2.4485
0
LINE
8
BLACK
6
CONTINUOUS
10
-1.46057
20
-2.4485
11
-1.46432
21
-2.45037
0
LINE
8
BLACK
6
CONTINUOUS
10
-1.46432
20
-2.45037
11
-1.4662
21
-2.45225
0
LINE
8
BLACK
6
CONTINUOUS
10
-1.4662
20
-2.45225
11
-1.46807
21
-2.45599
0
LINE
8
BLACK
6
CONTINUOUS
10
-1.48495
20
-2.42412
11
-1.48495
21
-2.42037
0
LINE
8
BLACK
6
CONTINUOUS
10
-1.48495
20
-2.42037
11
-1.48307
21
-2.41662
0
LINE
8
BLACK
6
CONTINUOUS
10
-1.48307
20
-2.41662
11
-1.4812
21
-2.41475
0
LINE
8
BLACK
6
CONTINUOUS
10
-1.4812
20
-2.41475
11
-1.47745
21
-2.41287
0
LINE
8
BLACK
6
CONTINUOUS
10
-1.47745
20
-2.41287
11
-1.46995
21
-2.411
0
LINE
8
BLACK
6
CONTINUOUS
10
-1.46995
20
-2.411
11
-1.46057
21
-2.411
0
LINE
8
BLACK
6
CONTINUOUS
10
-1.46057
20
-2.411
11
-1.45307
21
-2.41287
0
LINE
8
BLACK
6
CONTINUOUS
10
-1.45307
20
-2.41287
11
-1.44933
21
-2.41475
0
LINE
8
BLACK
6
CONTINUOUS
10
-1.44933
20
-2.41475
11
-1.44745
21
-2.41662
0
LINE
8
BLACK
6
CONTINUOUS
10
-1.44745
20
-2.41662
11
-1.44558
21
-2.42037
0
LINE
8
BLACK
6
CONTINUOUS
10
-1.44558
20
-2.42037
11
-1.44558
21
-2.42412
0
LINE
8
BLACK
6
CONTINUOUS
10
-1.44558
20
-2.42412
11
-1.44745
21
-2.42787
0
LINE
8
BLACK
6
CONTINUOUS
10
-1.44745
20
-2.42787
11
-1.44933
21
-2.42975
0
LINE
8
BLACK
6
CONTINUOUS
10
-1.44933
20
-2.42975
11
-1.45307
21
-2.43162
0
LINE
8
BLACK
6
CONTINUOUS
10
-1.45307
20
-2.43162
11
-1.46057
21
-2.4335
0
LINE
8
BLACK
6
CONTINUOUS
10
-1.46057
20
-2.4335
11
-1.46995
21
-2.4335
0
LINE
8
BLACK
6
CONTINUOUS
10
-1.46995
20
-2.4335
11
-1.47745
21
-2.43162
0
LINE
8
BLACK
6
CONTINUOUS
10
-1.47745
20
-2.43162
11
-1.4812
21
-2.42975
0
LINE
8
BLACK
6
CONTINUOUS
10
-1.4812
20
-2.42975
11
-1.48307
21
-2.42787
0
LINE
8
BLACK
6
CONTINUOUS
10
-1.48307
20
-2.42787
11
-1.48495
21
-2.42412
0
LINE
8
BLACK
6
CONTINUOUS
10
-1.48495
20
-2.37538
11
-1.48495
21
-2.39413
0
LINE
8
BLACK
6
CONTINUOUS
10
-1.48495
20
-2.39413
11
-1.4662
21
-2.396
0
LINE
8
BLACK
6
CONTINUOUS
10
-1.4662
20
-2.396
11
-1.46807
21
-2.39413
0
LINE
8
BLACK
6
CONTINUOUS
10
-1.46807
20
-2.39413
11
-1.46995
21
-2.39038
0
LINE
8
BLACK
6
CONTINUOUS
10
-1.46995
20
-2.39038
11
-1.46995
21
-2.381
0
LINE
8
BLACK
6
CONTINUOUS
10
-1.46995
20
-2.381
11
-1.46807
21
-2.37725
0
LINE
8
BLACK
6
CONTINUOUS
10
-1.46807
20
-2.37725
11
-1.4662
21
-2.37538
0
LINE
8
BLACK
6
CONTINUOUS
10
-1.4662
20
-2.37538
11
-1.46245
21
-2.3735
0
LINE
8
BLACK
6
CONTINUOUS
10
-1.46245
20
-2.3735
11
-1.45307
21
-2.3735
0
LINE
8
BLACK
6
CONTINUOUS
10
-1.45307
20
-2.3735
11
-1.44933
21
-2.37538
0
LINE
8
BLACK
6
CONTINUOUS
10
-1.44933
20
-2.37538
11
-1.44745
21
-2.37725
0
LINE
8
BLACK
6
CONTINUOUS
10
-1.44745
20
-2.37725
11
-1.44558
21
-2.381
0
LINE
8
BLACK
6
CONTINUOUS
10
-1.44558
20
-2.381
11
-1.44558
21
-2.39038
0
LINE
8
BLACK
6
CONTINUOUS
10
-1.44558
20
-2.39038
11
-1.44745
21
-2.39413
0
LINE
8
BLACK
6
CONTINUOUS
10
-1.44745
20
-2.39413
11
-1.44933
21
-2.396
0
LINE
8
BLACK
6
CONTINUOUS
10
-1.44558
20
-2.32664
11
-1.47182
21
-2.32664
0
LINE
8
BLACK
6
CONTINUOUS
10
-1.46807
20
-2.32664
11
-1.46995
21
-2.32476
0
LINE
8
BLACK
6
CONTINUOUS
10
-1.46995
20
-2.32476
11
-1.47182
21
-2.32101
0
LINE
8
BLACK
6
CONTINUOUS
10
-1.47182
20
-2.32101
11
-1.47182
21
-2.31539
0
LINE
8
BLACK
6
CONTINUOUS
10
-1.47182
20
-2.31539
11
-1.46995
21
-2.31164
0
LINE
8
BLACK
6
CONTINUOUS
10
-1.46995
20
-2.31164
11
-1.4662
21
-2.30976
0
LINE
8
BLACK
6
CONTINUOUS
10
-1.4662
20
-2.30976
11
-1.44558
21
-2.30976
0
LINE
8
BLACK
6
CONTINUOUS
10
-1.4662
20
-2.30976
11
-1.46995
21
-2.30789
0
LINE
8
BLACK
6
CONTINUOUS
10
-1.46995
20
-2.30789
11
-1.47182
21
-2.30414
0
LINE
8
BLACK
6
CONTINUOUS
10
-1.47182
20
-2.30414
11
-1.47182
21
-2.29851
0
LINE
8
BLACK
6
CONTINUOUS
10
-1.47182
20
-2.29851
11
-1.46995
21
-2.29476
0
LINE
8
BLACK
6
CONTINUOUS
10
-1.46995
20
-2.29476
11
-1.4662
21
-2.29289
0
LINE
8
BLACK
6
CONTINUOUS
10
-1.4662
20
-2.29289
11
-1.44558
21
-2.29289
0
LINE
8
BLACK
6
CONTINUOUS
10
-1.44558
20
-2.27414
11
-1.47182
21
-2.27414
0
LINE
8
BLACK
6
CONTINUOUS
10
-1.46807
20
-2.27414
11
-1.46995
21
-2.27227
0
LINE
8
BLACK
6
CONTINUOUS
10
-1.46995
20
-2.27227
11
-1.47182
21
-2.26852
0
LINE
8
BLACK
6
CONTINUOUS
10
-1.47182
20
-2.26852
11
-1.47182
21
-2.26289
0
LINE
8
BLACK
6
CONTINUOUS
10
-1.47182
20
-2.26289
11
-1.46995
21
-2.25914
0
LINE
8
BLACK
6
CONTINUOUS
10
-1.46995
20
-2.25914
11
-1.4662
21
-2.25727
0
LINE
8
BLACK
6
CONTINUOUS
10
-1.4662
20
-2.25727
11
-1.44558
21
-2.25727
0
LINE
8
BLACK
6
CONTINUOUS
10
-1.4662
20
-2.25727
11
-1.46995
21
-2.25539
0
LINE
8
BLACK
6
CONTINUOUS
10
-1.46995
20
-2.25539
11
-1.47182
21
-2.25165
0
LINE
8
BLACK
6
CONTINUOUS
10
-1.47182
20
-2.25165
11
-1.47182
21
-2.24602
0
LINE
8
BLACK
6
CONTINUOUS
10
-1.47182
20
-2.24602
11
-1.46995
21
-2.24227
0
LINE
8
BLACK
6
CONTINUOUS
10
-1.46995
20
-2.24227
11
-1.4662
21
-2.2404
0
LINE
8
BLACK
6
CONTINUOUS
10
-1.4662
20
-2.2404
11
-1.44558
21
-2.2404
0
LINE
8
BLACK
6
CONTINUOUS
10
-1.41614
20
-4.46378
11
-1.41614
21
-0.376969
0
LINE
8
BLACK
6
CONTINUOUS
10
-1.36594
20
-4.46378
11
-1.43923
21
-4.46378
0
LINE
8
BLACK
6
CONTINUOUS
10
-1.36594
20
-0.376969
11
-1.43923
21
-0.376969
0
LINE
8
BLACK
6
CONTINUOUS
10
-1.41614
20
-0.376969
11
-1.39305
21
-0.421319
0
LINE
8
BLACK
6
CONTINUOUS
10
-1.41614
20
-0.376969
11
-1.43923
21
-0.421319
0
LINE
8
BLACK
6
CONTINUOUS
10
-1.41614
20
-4.46378
11
-1.39305
21
-4.41943
0
LINE
8
BLACK
6
CONTINUOUS
10
-1.41614
20
-4.46378
11
-1.43923
21
-4.41943
0
LINE
8
BLACK
6
CONTINUOUS
10
3.42594
20
-3.47638
11
3.42594
21
-4.02756
0
LINE
8
BLACK
6
CONTINUOUS
10
3.42594
20
-4.02756
11
3.97712
21
-4.02756
0
LINE
8
BLACK
6
CONTINUOUS
10
3.97712
20
-4.02756
11
3.97712
21
-3.47638
0
LINE
8
BLACK
6
CONTINUOUS
10
3.97712
20
-3.47638
11
3.42594
21
-3.47638
0
LINE
8
BLACK
6
CONTINUOUS
10
2.48843
20
-4.02762
11
3.03961
21
-4.02762
0
LINE
8
BLACK
6
CONTINUOUS
10
3.03961
20
-4.02762
11
3.03961
21
-3.47644
0
LINE
8
BLACK
6
CONTINUOUS
10
3.03961
20
-3.47644
11
2.48843
21
-3.47644
0
LINE
8
BLACK
6
CONTINUOUS
10
2.48843
20
-3.47644
11
2.48843
21
-4.02762
0
LINE
8
BLACK
6
CONTINUOUS
10
0.894685
20
-3.47638
11
0.894685
21
-4.02756
0
LINE
8
BLACK
6
CONTINUOUS
10
0.894685
20
-4.02756
11
1.44587
21
-4.02756
0
LINE
8
BLACK
6
CONTINUOUS
10
1.44587
20
-3.47638
11
0.894685
21
-3.47638
0
LINE
8
BLACK
6
CONTINUOUS
10
1.44587
20
-4.02756
11
1.44587
21
-3.47638
0
LINE
8
BLACK
6
CONTINUOUS
10
-0.042815
20
-3.47638
11
-0.042815
21
-4.02756
0
LINE
8
BLACK
6
CONTINUOUS
10
-0.042815
20
-4.02756
11
0.508366
21
-4.02756
0
LINE
8
BLACK
6
CONTINUOUS
10
0.508366
20
-3.47638
11
-0.042815
21
-3.47638
0
LINE
8
BLACK
6
CONTINUOUS
10
0.508366
20
-4.02756
11
0.508366
21
-3.47638
0
LINE
8
BLACK
6
CONTINUOUS
10
-0.429134
20
-3.47638
11
-0.980315
21
-3.47638
0
LINE
8
BLACK
6
CONTINUOUS
10
-0.980315
20
-4.02756
11
-0.429134
21
-4.02756
0
LINE
8
BLACK
6
CONTINUOUS
10
-0.429134
20
-4.02756
11
-0.429134
21
-3.47638
0
LINE
8
BLACK
6
CONTINUOUS
10
-0.980315
20
-3.47638
11
-0.980315
21
-4.02756
0
LINE
8
BLACK
6
CONTINUOUS
10
4.07087
20
-2.72638
11
3.51969
21
-2.72638
0
LINE
8
BLACK
6
CONTINUOUS
10
3.51969
20
-3.27756
11
4.07087
21
-3.27756
0
LINE
8
BLACK
6
CONTINUOUS
10
4.07087
20
-3.27756
11
4.07087
21
-2.72638
0
LINE
8
BLACK
6
CONTINUOUS
10
3.51969
20
-2.72638
11
3.51969
21
-3.27756
0
LINE
8
BLACK
6
CONTINUOUS
10
3.32087
20
-3.27756
11
3.32087
21
-2.72638
0
LINE
8
BLACK
6
CONTINUOUS
10
2.76969
20
-2.72638
11
2.76969
21
-3.27756
0
LINE
8
BLACK
6
CONTINUOUS
10
2.76969
20
-3.27756
11
3.32087
21
-3.27756
0
LINE
8
BLACK
6
CONTINUOUS
10
3.32087
20
-2.72638
11
2.76969
21
-2.72638
0
LINE
8
BLACK
6
CONTINUOUS
10
2.57087
20
-3.27756
11
2.57087
21
-2.72638
0
LINE
8
BLACK
6
CONTINUOUS
10
2.01969
20
-2.72638
11
2.01969
21
-3.27756
0
LINE
8
BLACK
6
CONTINUOUS
10
2.57087
20
-2.72638
11
2.01969
21
-2.72638
0
LINE
8
BLACK
6
CONTINUOUS
10
2.01969
20
-3.27756
11
2.57087
21
-3.27756
0
LINE
8
BLACK
6
CONTINUOUS
10
1.82087
20
-3.27756
11
1.82087
21
-2.72638
0
LINE
8
BLACK
6
CONTINUOUS
10
1.82087
20
-2.72638
11
1.26969
21
-2.72638
0
LINE
8
BLACK
6
CONTINUOUS
10
1.26969
20
-3.27756
11
1.82087
21
-3.27756
0
LINE
8
BLACK
6
CONTINUOUS
10
1.26969
20
-2.72638
11
1.26969
21
-3.27756
0
LINE
8
BLACK
6
CONTINUOUS
10
1.07087
20
-3.27756
11
1.07087
21
-2.72638
0
LINE
8
BLACK
6
CONTINUOUS
10
0.519685
20
-2.72638
11
0.519685
21
-3.27756
0
LINE
8
BLACK
6
CONTINUOUS
10
0.519685
20
-3.27756
11
1.07087
21
-3.27756
0
LINE
8
BLACK
6
CONTINUOUS
10
1.07087
20
-2.72638
11
0.519685
21
-2.72638
0
LINE
8
BLACK
6
CONTINUOUS
10
3.69587
20
-2.52756
11
3.69587
21
-1.97638
0
LINE
8
BLACK
6
CONTINUOUS
10
3.14469
20
-1.97638
11
3.14469
21
-2.52756
0
LINE
8
BLACK
6
CONTINUOUS
10
3.14469
20
-2.52756
11
3.69587
21
-2.52756
0
LINE
8
BLACK
6
CONTINUOUS
10
3.69587
20
-1.97638
11
3.14469
21
-1.97638
0
LINE
8
BLACK
6
CONTINUOUS
10
2.94587
20
-1.97638
11
2.39469
21
-1.97638
0
LINE
8
BLACK
6
CONTINUOUS
10
2.94587
20
-2.52756
11
2.94587
21
-1.97638
0
LINE
8
BLACK
6
CONTINUOUS
10
2.39469
20
-1.97638
11
2.39469
21
-2.52756
0
LINE
8
BLACK
6
CONTINUOUS
10
2.39469
20
-2.52756
11
2.94587
21
-2.52756
0
LINE
8
BLACK
6
CONTINUOUS
10
2.19587
20
-1.97638
11
1.64469
21
-1.97638
0
LINE
8
BLACK
6
CONTINUOUS
10
1.64469
20
-1.97638
11
1.64469
21
-2.52756
0
LINE
8
BLACK
6
CONTINUOUS
10
1.64469
20
-2.52756
11
2.19587
21
-2.52756
0
LINE
8
BLACK
6
CONTINUOUS
10
2.19587
20
-2.52756
11
2.19587
21
-1.97638
0
LINE
8
BLACK
6
CONTINUOUS
10
1.44587
20
-1.97638
11
0.894685
21
-1.97638
0
LINE
8
BLACK
6
CONTINUOUS
10
0.894685
20
-2.52756
11
1.44587
21
-2.52756
0
LINE
8
BLACK
6
CONTINUOUS
10
1.44587
20
-2.52756
11
1.44587
21
-1.97638
0
LINE
8
BLACK
6
CONTINUOUS
10
0.894685
20
-1.97638
11
0.894685
21
-2.52756
0
LINE
8
BLACK
6
CONTINUOUS
10
0.695866
20
-1.97638
11
0.144685
21
-1.97638
0
LINE
8
BLACK
6
CONTINUOUS
10
0.144685
20
-2.52756
11
0.695866
21
-2.52756
0
LINE
8
BLACK
6
CONTINUOUS
10
0.695866
20
-2.52756
11
0.695866
21
-1.97638
0
LINE
8
BLACK
6
CONTINUOUS
10
0.144685
20
-1.97638
11
0.144685
21
-2.52756
0
LINE
8
BLACK
6
CONTINUOUS
10
-0.335382
20
-1.97638
11
-0.886563
21
-1.97638
0
LINE
8
BLACK
6
CONTINUOUS
10
-0.886563
20
-2.52756
11
-0.335382
21
-2.52756
0
LINE
8
BLACK
6
CONTINUOUS
10
-0.335382
20
-2.52756
11
-0.335382
21
-1.97638
0
LINE
8
BLACK
6
CONTINUOUS
10
-0.886563
20
-1.97638
11
-0.886563
21
-2.52756
0
LINE
8
BLACK
6
CONTINUOUS
10
3.50837
20
-1.22638
11
2.95719
21
-1.22638
0
LINE
8
BLACK
6
CONTINUOUS
10
2.95719
20
-1.77756
11
3.50837
21
-1.77756
0
LINE
8
BLACK
6
CONTINUOUS
10
3.50837
20
-1.77756
11
3.50837
21
-1.22638
0
LINE
8
BLACK
6
CONTINUOUS
10
2.95719
20
-1.22638
11
2.95719
21
-1.77756
0
LINE
8
BLACK
6
CONTINUOUS
10
2.20719
20
-1.77756
11
2.75837
21
-1.77756
0
LINE
8
BLACK
6
CONTINUOUS
10
2.75837
20
-1.77756
11
2.75837
21
-1.22638
0
LINE
8
BLACK
6
CONTINUOUS
10
2.20719
20
-1.22638
11
2.20719
21
-1.77756
0
LINE
8
BLACK
6
CONTINUOUS
10
2.75837
20
-1.22638
11
2.20719
21
-1.22638
0
LINE
8
BLACK
6
CONTINUOUS
10
1.45719
20
-1.22638
11
1.45719
21
-1.77756
0
LINE
8
BLACK
6
CONTINUOUS
10
1.45719
20
-1.77756
11
2.00837
21
-1.77756
0
LINE
8
BLACK
6
CONTINUOUS
10
2.00837
20
-1.77756
11
2.00837
21
-1.22638
0
LINE
8
BLACK
6
CONTINUOUS
10
2.00837
20
-1.22638
11
1.45719
21
-1.22638
0
LINE
8
BLACK
6
CONTINUOUS
10
0.707185
20
-1.22638
11
0.707185
21
-1.77756
0
LINE
8
BLACK
6
CONTINUOUS
10
0.707185
20
-1.77756
11
1.25837
21
-1.77756
0
LINE
8
BLACK
6
CONTINUOUS
10
1.25837
20
-1.77756
11
1.25837
21
-1.22638
0
LINE
8
BLACK
6
CONTINUOUS
10
1.25837
20
-1.22638
11
0.707185
21
-1.22638
0
LINE
8
BLACK
6
CONTINUOUS
10
-0.042815
20
-1.77756
11
0.508366
21
-1.77756
0
LINE
8
BLACK
6
CONTINUOUS
10
-0.042815
20
-1.22638
11
-0.042815
21
-1.77756
0
LINE
8
BLACK
6
CONTINUOUS
10
0.508366
20
-1.22638
11
-0.042815
21
-1.22638
0
LINE
8
BLACK
6
CONTINUOUS
10
0.508366
20
-1.77756
11
0.508366
21
-1.22638
0
LINE
8
BLACK
6
CONTINUOUS
10
-0.429134
20
-1.22638
11
-0.980315
21
-1.22638
0
LINE
8
BLACK
6
CONTINUOUS
10
-0.429134
20
-1.77756
11
-0.429134
21
-1.22638
0
LINE
8
BLACK
6
CONTINUOUS
10
-0.980315
20
-1.77756
11
-0.429134
21
-1.77756
0
LINE
8
BLACK
6
CONTINUOUS
10
-0.980315
20
-1.22638
11
-0.980315
21
-1.77756
0
LINE
8
BLACK
6
CONTINUOUS
10
3.33219
20
-1.02756
11
3.88337
21
-1.02756
0
LINE
8
BLACK
6
CONTINUOUS
10
3.88337
20
-1.02756
11
3.88337
21
-0.476378
0
LINE
8
BLACK
6
CONTINUOUS
10
3.88337
20
-0.476378
11
3.33219
21
-0.476378
0
LINE
8
BLACK
6
CONTINUOUS
10
3.33219
20
-0.476378
11
3.33219
21
-1.02756
0
LINE
8
BLACK
6
CONTINUOUS
10
2.58219
20
-1.02756
11
3.13337
21
-1.02756
0
LINE
8
BLACK
6
CONTINUOUS
10
3.13337
20
-1.02756
11
3.13337
21
-0.476378
0
LINE
8
BLACK
6
CONTINUOUS
10
3.13337
20
-0.476378
11
2.58219
21
-0.476378
0
LINE
8
BLACK
6
CONTINUOUS
10
2.58219
20
-0.476378
11
2.58219
21
-1.02756
0
LINE
8
BLACK
6
CONTINUOUS
10
1.83219
20
-1.02756
11
2.38337
21
-1.02756
0
LINE
8
BLACK
6
CONTINUOUS
10
2.38337
20
-1.02756
11
2.38337
21
-0.476378
0
LINE
8
BLACK
6
CONTINUOUS
10
2.38337
20
-0.476378
11
1.83219
21
-0.476378
0
LINE
8
BLACK
6
CONTINUOUS
10
1.83219
20
-0.476378
11
1.83219
21
-1.02756
0
LINE
8
BLACK
6
CONTINUOUS
10
1.08219
20
-1.02756
11
1.63337
21
-1.02756
0
LINE
8
BLACK
6
CONTINUOUS
10
1.63337
20
-1.02756
11
1.63337
21
-0.476378
0
LINE
8
BLACK
6
CONTINUOUS
10
1.63337
20
-0.476378
11
1.08219
21
-0.476378
0
LINE
8
BLACK
6
CONTINUOUS
10
1.08219
20
-0.476378
11
1.08219
21
-1.02756
0
LINE
8
BLACK
6
CONTINUOUS
10
0.332185
20
-1.02756
11
0.883366
21
-1.02756
0
LINE
8
BLACK
6
CONTINUOUS
10
0.883366
20
-1.02756
11
0.883366
21
-0.476378
0
LINE
8
BLACK
6
CONTINUOUS
10
0.883366
20
-0.476378
11
0.332185
21
-0.476378
0
LINE
8
BLACK
6
CONTINUOUS
10
0.332185
20
-0.476378
11
0.332185
21
-1.02756
0
LINE
8
BLACK
6
CONTINUOUS
10
-0.417815
20
-1.02756
11
0.133366
21
-1.02756
0
LINE
8
BLACK
6
CONTINUOUS
10
0.133366
20
-1.02756
11
0.133366
21
-0.476378
0
LINE
8
BLACK
6
CONTINUOUS
10
0.133366
20
-0.476378
11
-0.417815
21
-0.476378
0
LINE
8
BLACK
6
CONTINUOUS
10
-0.417815
20
-0.476378
11
-0.417815
21
-1.02756
0
LINE
8
BLACK
6
CONTINUOUS
10
-0.616634
20
-1.02756
11
-0.616634
21
-0.476378
0
LINE
8
BLACK
6
CONTINUOUS
10
-0.616634
20
-0.476378
11
-1.16781
21
-0.476378
0
LINE
8
BLACK
6
CONTINUOUS
10
-1.16781
20
-0.476378
11
-1.16781
21
-1.02756
0
LINE
8
BLACK
6
CONTINUOUS
10
-1.16781
20
-1.02756
11
-0.616634
21
-1.02756
0
LINE
8
BLACK
6
CONTINUOUS
10
-0.699055
20
-3.09252
11
-0.699055
21
-3.27756
0
LINE
8
BLACK
6
CONTINUOUS
10
-0.759094
20
-2.91142
11
-0.699055
21
-2.91142
0
LINE
8
BLACK
6
CONTINUOUS
10
-1.02489
20
-3.09252
11
-1.05737
21
-3.09252
0
LINE
8
BLACK
6
CONTINUOUS
10
-0.827057
20
-2.73543
11
-0.827057
21
-2.68819
0
LINE
8
BLACK
6
CONTINUOUS
10
0.210453
20
-2.98287
11
0.210453
21
-3.09252
0
LINE
8
BLACK
6
CONTINUOUS
10
-0.759094
20
-2.73543
11
-0.759094
21
-2.91142
0
LINE
8
BLACK
6
CONTINUOUS
10
-0.759094
20
-3.09252
11
-0.699055
21
-3.09252
0
LINE
8
BLACK
6
CONTINUOUS
10
-0.0198622
20
-2.73543
11
-0.0198622
21
-2.68819
0
LINE
8
BLACK
6
CONTINUOUS
10
-1.02489
20
-3.21969
11
-0.759144
21
-3.21969
0
LINE
8
BLACK
6
CONTINUOUS
10
-1.02489
20
-2.98287
11
-1.05737
21
-2.98287
0
LINE
8
BLACK
6
CONTINUOUS
10
-0.827067
20
-2.73543
11
-0.759154
21
-2.73543
0
LINE
8
BLACK
6
CONTINUOUS
10
0.177972
20
-2.98287
11
0.177972
21
-2.73543
0
LINE
8
BLACK
6
CONTINUOUS
10
0.177972
20
-3.09252
11
0.210453
21
-3.09252
0
LINE
8
BLACK
6
CONTINUOUS
10
-1.02489
20
-3.21969
11
-1.02489
21
-3.09252
0
LINE
8
BLACK
6
CONTINUOUS
10
-0.0878248
20
-3.09252
11
-0.147864
21
-3.09252
0
LINE
8
BLACK
6
CONTINUOUS
10
-0.956978
20
-2.68819
11
-0.827057
21
-2.68819
0
LINE
8
BLACK
6
CONTINUOUS
10
-0.699055
20
-3.27756
11
-0.147874
21
-3.27756
0
LINE
8
BLACK
6
CONTINUOUS
10
-0.147874
20
-2.72638
11
-0.699055
21
-2.72638
0
LINE
8
BLACK
6
CONTINUOUS
10
-0.956978
20
-2.73543
11
-0.956978
21
-2.68819
0
LINE
8
BLACK
6
CONTINUOUS
10
-0.699055
20
-2.72638
11
-0.699055
21
-2.91142
0
LINE
8
BLACK
6
CONTINUOUS
10
-0.759094
20
-3.09252
11
-0.759094
21
-3.21969
0
LINE
8
BLACK
6
CONTINUOUS
10
-1.05737
20
-2.98287
11
-1.05737
21
-3.09252
0
LINE
8
BLACK
6
CONTINUOUS
10
-1.02489
20
-2.73543
11
-0.956978
21
-2.73543
0
LINE
8
BLACK
6
CONTINUOUS
10
-1.02489
20
-2.98287
11
-1.02489
21
-2.73543
0
LINE
8
BLACK
6
CONTINUOUS
10
0.177972
20
-3.21969
11
-0.0877756
21
-3.21969
0
LINE
8
BLACK
6
CONTINUOUS
10
0.177972
20
-2.98287
11
0.210453
21
-2.98287
0
LINE
8
BLACK
6
CONTINUOUS
10
0.177972
20
-3.21969
11
0.177972
21
-3.09252
0
LINE
8
BLACK
6
CONTINUOUS
10
0.110059
20
-2.68819
11
-0.0198622
21
-2.68819
0
LINE
8
BLACK
6
CONTINUOUS
10
-0.0198622
20
-2.73543
11
-0.0877756
21
-2.73543
0
LINE
8
BLACK
6
CONTINUOUS
10
-0.147864
20
-2.72638
11
-0.147864
21
-2.91142
0
LINE
8
BLACK
6
CONTINUOUS
10
0.110059
20
-2.73543
11
0.110059
21
-2.68819
0
LINE
8
BLACK
6
CONTINUOUS
10
-0.0878248
20
-3.09252
11
-0.0878248
21
-3.21969
0
LINE
8
BLACK
6
CONTINUOUS
10
-0.0878248
20
-2.91142
11
-0.147864
21
-2.91142
0
LINE
8
BLACK
6
CONTINUOUS
10
-0.0878248
20
-2.73543
11
-0.0878248
21
-2.91142
0
LINE
8
BLACK
6
CONTINUOUS
10
-0.147864
20
-3.09252
11
-0.147864
21
-3.27756
0
LINE
8
BLACK
6
CONTINUOUS
10
0.177972
20
-2.73543
11
0.110059
21
-2.73543
0
LINE
8
BLACK
6
CONTINUOUS
10
3.04163
20
-4.12697
11
-0.22361
21
-4.12697
0
LINE
8
BLACK
6
CONTINUOUS
10
3.04163
20
-4.12697
11
3.98278
21
-4.12697
0
LINE
8
BLACK
6
CONTINUOUS
10
-1.24547
20
-0.376969
11
4.15256
21
-0.376969
0
LINE
8
BLACK
6
CONTINUOUS
10
4.17205
20
-0.398819
11
4.17205
21
-4.10748
0
LINE
8
BLACK
6
CONTINUOUS
10
4.1502
20
-4.12697
11
3.98278
21
-4.12697
0
LINE
8
BLACK
6
CONTINUOUS
10
-0.245669
20
-4.44429
11
-0.245669
21
-4.14646
0
LINE
8
BLACK
6
CONTINUOUS
10
-0.26752
20
-4.46378
11
-1.24783
21
-4.46378
0
LINE
8
BLACK
6
CONTINUOUS
10
-1.26732
20
-4.44193
11
-1.26732
21
-3.35512
0
ARC
8
BLACK
10
4.15138
20
-4.1063
40
0.020703
50
-93.2705
51
-3.27049
0
ARC
8
BLACK
10
-0.224803
20
-4.14783
40
0.0209116
50
86.2218
51
176.222
0
ARC
8
BLACK
10
-0.266339
20
-4.44311
40
0.020703
50
-93.2705
51
-3.27049
0
ARC
8
BLACK
10
-1.24665
20
-4.44311
40
0.020703
50
-183.27
51
-93.2705
0
ARC
8
BLACK
10
4.15138
20
-0.397638
40
0.020703
50
-3.27049
51
86.7295
0
LINE
8
BLACK
6
CONTINUOUS
10
-1.26732
20
-0.396457
11
-1.26732
21
-3.35512
0
ARC
8
BLACK
10
-1.24665
20
-0.397638
40
0.020703
50
86.7295
51
176.73
0
LINE
8
BLACK
6
CONTINUOUS
10
3.42813
20
-3.31579
11
3.43251
21
-3.31666
0
LINE
8
BLACK
6
CONTINUOUS
10
3.43251
20
-3.31666
11
3.44076
21
-3.32008
0
LINE
8
BLACK
6
CONTINUOUS
10
3.44076
20
-3.32008
11
3.44818
21
-3.32504
0
LINE
8
BLACK
6
CONTINUOUS
10
3.44818
20
-3.32504
11
3.45449
21
-3.33135
0
LINE
8
BLACK
6
CONTINUOUS
10
3.45449
20
-3.33135
11
3.45945
21
-3.33877
0
LINE
8
BLACK
6
CONTINUOUS
10
3.45945
20
-3.33877
11
3.46286
21
-3.34702
0
LINE
8
BLACK
6
CONTINUOUS
10
3.46286
20
-3.34702
11
3.46461
21
-3.35577
0
LINE
8
BLACK
6
CONTINUOUS
10
3.46461
20
-3.35577
11
3.46461
21
-3.3647
0
LINE
8
BLACK
6
CONTINUOUS
10
3.46461
20
-3.3647
11
3.46286
21
-3.37345
0
LINE
8
BLACK
6
CONTINUOUS
10
3.46286
20
-3.37345
11
3.45945
21
-3.3817
0
LINE
8
BLACK
6
CONTINUOUS
10
3.45945
20
-3.3817
11
3.45449
21
-3.38912
0
LINE
8
BLACK
6
CONTINUOUS
10
3.45449
20
-3.38912
11
3.44818
21
-3.39543
0
LINE
8
BLACK
6
CONTINUOUS
10
3.44818
20
-3.39543
11
3.44076
21
-3.40039
0
LINE
8
BLACK
6
CONTINUOUS
10
3.44076
20
-3.40039
11
3.43251
21
-3.40381
0
LINE
8
BLACK
6
CONTINUOUS
10
3.43251
20
-3.40381
11
3.42813
21
-3.40468
0
LINE
8
BLACK
6
CONTINUOUS
10
3.42813
20
-3.40468
11
3.42375
21
-3.40555
0
LINE
8
BLACK
6
CONTINUOUS
10
3.42375
20
-3.40555
11
3.41483
21
-3.40555
0
LINE
8
BLACK
6
CONTINUOUS
10
3.41483
20
-3.40555
11
3.41045
21
-3.40468
0
LINE
8
BLACK
6
CONTINUOUS
10
3.41045
20
-3.40468
11
3.40607
21
-3.40381
0
LINE
8
BLACK
6
CONTINUOUS
10
3.40607
20
-3.40381
11
3.39783
21
-3.40039
0
LINE
8
BLACK
6
CONTINUOUS
10
3.39783
20
-3.40039
11
3.3904
21
-3.39543
0
LINE
8
BLACK
6
CONTINUOUS
10
3.3904
20
-3.39543
11
3.38409
21
-3.38912
0
LINE
8
BLACK
6
CONTINUOUS
10
3.38409
20
-3.38912
11
3.37913
21
-3.3817
0
LINE
8
BLACK
6
CONTINUOUS
10
3.37913
20
-3.3817
11
3.37572
21
-3.37345
0
LINE
8
BLACK
6
CONTINUOUS
10
3.37572
20
-3.37345
11
3.37398
21
-3.3647
0
LINE
8
BLACK
6
CONTINUOUS
10
3.37398
20
-3.3647
11
3.37398
21
-3.35577
0
LINE
8
BLACK
6
CONTINUOUS
10
3.37398
20
-3.35577
11
3.37572
21
-3.34702
0
LINE
8
BLACK
6
CONTINUOUS
10
3.37572
20
-3.34702
11
3.37913
21
-3.33877
0
LINE
8
BLACK
6
CONTINUOUS
10
3.37913
20
-3.33877
11
3.38409
21
-3.33135
0
LINE
8
BLACK
6
CONTINUOUS
10
3.38409
20
-3.33135
11
3.3904
21
-3.32504
0
LINE
8
BLACK
6
CONTINUOUS
10
3.3904
20
-3.32504
11
3.39783
21
-3.32008
0
LINE
8
BLACK
6
CONTINUOUS
10
3.39783
20
-3.32008
11
3.40607
21
-3.31666
0
LINE
8
BLACK
6
CONTINUOUS
10
3.40607
20
-3.31666
11
3.41045
21
-3.31579
0
LINE
8
BLACK
6
CONTINUOUS
10
3.41045
20
-3.31579
11
3.41483
21
-3.31492
0
LINE
8
BLACK
6
CONTINUOUS
10
3.41483
20
-3.31492
11
3.42375
21
-3.31492
0
LINE
8
BLACK
6
CONTINUOUS
10
3.42375
20
-3.31492
11
3.42813
21
-3.31579
0
LINE
8
BLACK
6
CONTINUOUS
10
-1.14155
20
-3.31579
11
-1.13718
21
-3.31666
0
LINE
8
BLACK
6
CONTINUOUS
10
-1.13718
20
-3.31666
11
-1.12893
21
-3.32008
0
LINE
8
BLACK
6
CONTINUOUS
10
-1.12893
20
-3.32008
11
-1.12151
21
-3.32504
0
LINE
8
BLACK
6
CONTINUOUS
10
-1.12151
20
-3.32504
11
-1.1152
21
-3.33135
0
LINE
8
BLACK
6
CONTINUOUS
10
-1.1152
20
-3.33135
11
-1.11024
21
-3.33877
0
LINE
8
BLACK
6
CONTINUOUS
10
-1.11024
20
-3.33877
11
-1.10682
21
-3.34702
0
LINE
8
BLACK
6
CONTINUOUS
10
-1.10682
20
-3.34702
11
-1.10508
21
-3.35577
0
LINE
8
BLACK
6
CONTINUOUS
10
-1.10508
20
-3.35577
11
-1.10508
21
-3.3647
0
LINE
8
BLACK
6
CONTINUOUS
10
-1.10508
20
-3.3647
11
-1.10682
21
-3.37345
0
LINE
8
BLACK
6
CONTINUOUS
10
-1.10682
20
-3.37345
11
-1.11024
21
-3.3817
0
LINE
8
BLACK
6
CONTINUOUS
10
-1.11024
20
-3.3817
11
-1.1152
21
-3.38912
0
LINE
8
BLACK
6
CONTINUOUS
10
-1.1152
20
-3.38912
11
-1.12151
21
-3.39543
0
LINE
8
BLACK
6
CONTINUOUS
10
-1.12151
20
-3.39543
11
-1.12893
21
-3.40039
0
LINE
8
BLACK
6
CONTINUOUS
10
-1.12893
20
-3.40039
11
-1.13718
21
-3.40381
0
LINE
8
BLACK
6
CONTINUOUS
10
-1.13718
20
-3.40381
11
-1.14155
21
-3.40468
0
LINE
8
BLACK
6
CONTINUOUS
10
-1.14155
20
-3.40468
11
-1.14593
21
-3.40555
0
LINE
8
BLACK
6
CONTINUOUS
10
-1.14593
20
-3.40555
11
-1.15486
21
-3.40555
0
LINE
8
BLACK
6
CONTINUOUS
10
-1.15486
20
-3.40555
11
-1.15923
21
-3.40468
0
LINE
8
BLACK
6
CONTINUOUS
10
-1.15923
20
-3.40468
11
-1.16361
21
-3.40381
0
LINE
8
BLACK
6
CONTINUOUS
10
-1.16361
20
-3.40381
11
-1.17186
21
-3.40039
0
LINE
8
BLACK
6
CONTINUOUS
10
-1.17186
20
-3.40039
11
-1.17928
21
-3.39543
0
LINE
8
BLACK
6
CONTINUOUS
10
-1.17928
20
-3.39543
11
-1.18559
21
-3.38912
0
LINE
8
BLACK
6
CONTINUOUS
10
-1.18559
20
-3.38912
11
-1.19055
21
-3.3817
0
LINE
8
BLACK
6
CONTINUOUS
10
-1.19055
20
-3.3817
11
-1.19397
21
-3.37345
0
LINE
8
BLACK
6
CONTINUOUS
10
-1.19397
20
-3.37345
11
-1.19571
21
-3.3647
0
LINE
8
BLACK
6
CONTINUOUS
10
-1.19571
20
-3.3647
11
-1.19571
21
-3.35577
0
LINE
8
BLACK
6
CONTINUOUS
10
-1.19571
20
-3.35577
11
-1.19397
21
-3.34702
0
LINE
8
BLACK
6
CONTINUOUS
10
-1.19397
20
-3.34702
11
-1.19055
21
-3.33877
0
LINE
8
BLACK
6
CONTINUOUS
10
-1.19055
20
-3.33877
11
-1.18559
21
-3.33135
0
LINE
8
BLACK
6
CONTINUOUS
10
-1.18559
20
-3.33135
11
-1.17928
21
-3.32504
0
LINE
8
BLACK
6
CONTINUOUS
10
-1.17928
20
-3.32504
11
-1.17186
21
-3.32008
0
LINE
8
BLACK
6
CONTINUOUS
10
-1.17186
20
-3.32008
11
-1.16361
21
-3.31666
0
LINE
8
BLACK
6
CONTINUOUS
10
-1.16361
20
-3.31666
11
-1.15923
21
-3.31579
0
LINE
8
BLACK
6
CONTINUOUS
10
-1.15923
20
-3.31579
11
-1.15486
21
-3.31492
0
LINE
8
BLACK
6
CONTINUOUS
10
-1.15486
20
-3.31492
11
-1.14593
21
-3.31492
0
LINE
8
BLACK
6
CONTINUOUS
10
-1.14593
20
-3.31492
11
-1.14155
21
-3.31579
0
LINE
8
BLACK
6
CONTINUOUS
10
1.36563
20
-1.81579
11
1.37001
21
-1.81666
0
LINE
8
BLACK
6
CONTINUOUS
10
1.37001
20
-1.81666
11
1.37826
21
-1.82008
0
LINE
8
BLACK
6
CONTINUOUS
10
1.37826
20
-1.82008
11
1.38568
21
-1.82504
0
LINE
8
BLACK
6
CONTINUOUS
10
1.38568
20
-1.82504
11
1.39199
21
-1.83135
0
LINE
8
BLACK
6
CONTINUOUS
10
1.39199
20
-1.83135
11
1.39695
21
-1.83877
0
LINE
8
BLACK
6
CONTINUOUS
10
1.39695
20
-1.83877
11
1.40036
21
-1.84702
0
LINE
8
BLACK
6
CONTINUOUS
10
1.40036
20
-1.84702
11
1.40211
21
-1.85577
0
LINE
8
BLACK
6
CONTINUOUS
10
1.40211
20
-1.85577
11
1.40211
21
-1.8647
0
LINE
8
BLACK
6
CONTINUOUS
10
1.40211
20
-1.8647
11
1.40036
21
-1.87345
0
LINE
8
BLACK
6
CONTINUOUS
10
1.40036
20
-1.87345
11
1.39695
21
-1.8817
0
LINE
8
BLACK
6
CONTINUOUS
10
1.39695
20
-1.8817
11
1.39199
21
-1.88912
0
LINE
8
BLACK
6
CONTINUOUS
10
1.39199
20
-1.88912
11
1.38568
21
-1.89543
0
LINE
8
BLACK
6
CONTINUOUS
10
1.38568
20
-1.89543
11
1.37826
21
-1.90039
0
LINE
8
BLACK
6
CONTINUOUS
10
1.37826
20
-1.90039
11
1.37001
21
-1.90381
0
LINE
8
BLACK
6
CONTINUOUS
10
1.37001
20
-1.90381
11
1.36563
21
-1.90468
0
LINE
8
BLACK
6
CONTINUOUS
10
1.36563
20
-1.90468
11
1.36125
21
-1.90555
0
LINE
8
BLACK
6
CONTINUOUS
10
1.36125
20
-1.90555
11
1.35233
21
-1.90555
0
LINE
8
BLACK
6
CONTINUOUS
10
1.35233
20
-1.90555
11
1.34795
21
-1.90468
0
LINE
8
BLACK
6
CONTINUOUS
10
1.34795
20
-1.90468
11
1.34357
21
-1.90381
0
LINE
8
BLACK
6
CONTINUOUS
10
1.34357
20
-1.90381
11
1.33533
21
-1.90039
0
LINE
8
BLACK
6
CONTINUOUS
10
1.33533
20
-1.90039
11
1.3279
21
-1.89543
0
LINE
8
BLACK
6
CONTINUOUS
10
1.3279
20
-1.89543
11
1.32159
21
-1.88912
0
LINE
8
BLACK
6
CONTINUOUS
10
1.32159
20
-1.88912
11
1.31663
21
-1.8817
0
LINE
8
BLACK
6
CONTINUOUS
10
1.31663
20
-1.8817
11
1.31322
21
-1.87345
0
LINE
8
BLACK
6
CONTINUOUS
10
1.31322
20
-1.87345
11
1.31148
21
-1.8647
0
LINE
8
BLACK
6
CONTINUOUS
10
1.31148
20
-1.8647
11
1.31148
21
-1.85577
0
LINE
8
BLACK
6
CONTINUOUS
10
1.31148
20
-1.85577
11
1.31322
21
-1.84702
0
LINE
8
BLACK
6
CONTINUOUS
10
1.31322
20
-1.84702
11
1.31663
21
-1.83877
0
LINE
8
BLACK
6
CONTINUOUS
10
1.31663
20
-1.83877
11
1.32159
21
-1.83135
0
LINE
8
BLACK
6
CONTINUOUS
10
1.32159
20
-1.83135
11
1.3279
21
-1.82504
0
LINE
8
BLACK
6
CONTINUOUS
10
1.3279
20
-1.82504
11
1.33533
21
-1.82008
0
LINE
8
BLACK
6
CONTINUOUS
10
1.33533
20
-1.82008
11
1.34357
21
-1.81666
0
LINE
8
BLACK
6
CONTINUOUS
10
1.34357
20
-1.81666
11
1.34795
21
-1.81579
0
LINE
8
BLACK
6
CONTINUOUS
10
1.34795
20
-1.81579
11
1.35233
21
-1.81492
0
LINE
8
BLACK
6
CONTINUOUS
10
1.35233
20
-1.81492
11
1.36125
21
-1.81492
0
LINE
8
BLACK
6
CONTINUOUS
10
1.36125
20
-1.81492
11
1.36563
21
-1.81579
0
LINE
8
BLACK
6
CONTINUOUS
10
3.24063
20
-1.08154
11
3.24501
21
-1.08241
0
LINE
8
BLACK
6
CONTINUOUS
10
3.24501
20
-1.08241
11
3.25326
21
-1.08583
0
LINE
8
BLACK
6
CONTINUOUS
10
3.25326
20
-1.08583
11
3.26068
21
-1.09079
0
LINE
8
BLACK
6
CONTINUOUS
10
3.26068
20
-1.09079
11
3.26699
21
-1.0971
0
LINE
8
BLACK
6
CONTINUOUS
10
3.26699
20
-1.0971
11
3.27195
21
-1.10452
0
LINE
8
BLACK
6
CONTINUOUS
10
3.27195
20
-1.10452
11
3.27536
21
-1.11277
0
LINE
8
BLACK
6
CONTINUOUS
10
3.27536
20
-1.11277
11
3.27624
21
-1.11714
0
LINE
8
BLACK
6
CONTINUOUS
10
3.27624
20
-1.11714
11
3.27711
21
-1.12152
0
LINE
8
BLACK
6
CONTINUOUS
10
3.27711
20
-1.12152
11
3.27711
21
-1.13045
0
LINE
8
BLACK
6
CONTINUOUS
10
3.27711
20
-1.13045
11
3.27624
21
-1.13482
0
LINE
8
BLACK
6
CONTINUOUS
10
3.27624
20
-1.13482
11
3.27536
21
-1.1392
0
LINE
8
BLACK
6
CONTINUOUS
10
3.27536
20
-1.1392
11
3.27295
21
-1.14503
0
LINE
8
BLACK
6
CONTINUOUS
10
3.27295
20
-1.14503
11
3.27214
21
-1.147
0
LINE
8
BLACK
6
CONTINUOUS
10
3.27214
20
-1.147
11
3.27195
21
-1.14745
0
LINE
8
BLACK
6
CONTINUOUS
10
3.27195
20
-1.14745
11
3.26699
21
-1.15487
0
LINE
8
BLACK
6
CONTINUOUS
10
3.26699
20
-1.15487
11
3.26068
21
-1.16118
0
LINE
8
BLACK
6
CONTINUOUS
10
3.26068
20
-1.16118
11
3.25326
21
-1.16614
0
LINE
8
BLACK
6
CONTINUOUS
10
3.25326
20
-1.16614
11
3.24501
21
-1.16956
0
LINE
8
BLACK
6
CONTINUOUS
10
3.24501
20
-1.16956
11
3.24063
21
-1.17043
0
LINE
8
BLACK
6
CONTINUOUS
10
3.24063
20
-1.17043
11
3.23625
21
-1.1713
0
LINE
8
BLACK
6
CONTINUOUS
10
3.23625
20
-1.1713
11
3.22733
21
-1.1713
0
LINE
8
BLACK
6
CONTINUOUS
10
3.22733
20
-1.1713
11
3.22295
21
-1.17043
0
LINE
8
BLACK
6
CONTINUOUS
10
3.22295
20
-1.17043
11
3.21857
21
-1.16956
0
LINE
8
BLACK
6
CONTINUOUS
10
3.21857
20
-1.16956
11
3.21033
21
-1.16614
0
LINE
8
BLACK
6
CONTINUOUS
10
3.21033
20
-1.16614
11
3.2029
21
-1.16118
0
LINE
8
BLACK
6
CONTINUOUS
10
3.2029
20
-1.16118
11
3.19659
21
-1.15487
0
LINE
8
BLACK
6
CONTINUOUS
10
3.19659
20
-1.15487
11
3.19163
21
-1.14745
0
LINE
8
BLACK
6
CONTINUOUS
10
3.19163
20
-1.14745
11
3.19145
21
-1.147
0
LINE
8
BLACK
6
CONTINUOUS
10
3.19145
20
-1.147
11
3.19063
21
-1.14503
0
LINE
8
BLACK
6
CONTINUOUS
10
3.19063
20
-1.14503
11
3.18822
21
-1.1392
0
LINE
8
BLACK
6
CONTINUOUS
10
3.18822
20
-1.1392
11
3.18735
21
-1.13482
0
LINE
8
BLACK
6
CONTINUOUS
10
3.18735
20
-1.13482
11
3.18648
21
-1.13045
0
LINE
8
BLACK
6
CONTINUOUS
10
3.18648
20
-1.13045
11
3.18648
21
-1.12152
0
LINE
8
BLACK
6
CONTINUOUS
10
3.18648
20
-1.12152
11
3.18735
21
-1.11714
0
LINE
8
BLACK
6
CONTINUOUS
10
3.18735
20
-1.11714
11
3.18822
21
-1.11277
0
LINE
8
BLACK
6
CONTINUOUS
10
3.18822
20
-1.11277
11
3.19163
21
-1.10452
0
LINE
8
BLACK
6
CONTINUOUS
10
3.19163
20
-1.10452
11
3.19659
21
-1.0971
0
LINE
8
BLACK
6
CONTINUOUS
10
3.19659
20
-1.0971
11
3.2029
21
-1.09079
0
LINE
8
BLACK
6
CONTINUOUS
10
3.2029
20
-1.09079
11
3.21033
21
-1.08583
0
LINE
8
BLACK
6
CONTINUOUS
10
3.21033
20
-1.08583
11
3.21857
21
-1.08241
0
LINE
8
BLACK
6
CONTINUOUS
10
3.21857
20
-1.08241
11
3.22295
21
-1.08154
0
LINE
8
BLACK
6
CONTINUOUS
10
3.22295
20
-1.08154
11
3.22733
21
-1.08067
0
LINE
8
BLACK
6
CONTINUOUS
10
3.22733
20
-1.08067
11
3.23625
21
-1.08067
0
LINE
8
BLACK
6
CONTINUOUS
10
3.23625
20
-1.08067
11
3.24063
21
-1.08154
0
LINE
8
BLACK
6
CONTINUOUS
10
-0.508384
20
-1.07367
11
-0.504007
21
-1.07454
0
LINE
8
BLACK
6
CONTINUOUS
10
-0.504007
20
-1.07454
11
-0.49576
21
-1.07795
0
LINE
8
BLACK
6
CONTINUOUS
10
-0.49576
20
-1.07795
11
-0.488338
21
-1.08291
0
LINE
8
BLACK
6
CONTINUOUS
10
-0.488338
20
-1.08291
11
-0.482026
21
-1.08922
0
LINE
8
BLACK
6
CONTINUOUS
10
-0.482026
20
-1.08922
11
-0.480982
21
-1.09079
0
LINE
8
BLACK
6
CONTINUOUS
10
-0.480982
20
-1.09079
11
-0.477067
21
-1.09665
0
LINE
8
BLACK
6
CONTINUOUS
10
-0.477067
20
-1.09665
11
-0.47688
21
-1.0971
0
LINE
8
BLACK
6
CONTINUOUS
10
-0.47688
20
-1.0971
11
-0.473805
21
-1.10452
0
LINE
8
BLACK
6
CONTINUOUS
10
-0.473805
20
-1.10452
11
-0.473651
21
-1.10489
0
LINE
8
BLACK
6
CONTINUOUS
10
-0.473651
20
-1.10489
11
-0.472085
21
-1.11277
0
LINE
8
BLACK
6
CONTINUOUS
10
-0.472085
20
-1.11277
11
-0.471909
21
-1.11365
0
LINE
8
BLACK
6
CONTINUOUS
10
-0.471909
20
-1.11365
11
-0.471909
21
-1.12257
0
LINE
8
BLACK
6
CONTINUOUS
10
-0.471909
20
-1.12257
11
-0.473651
21
-1.13133
0
LINE
8
BLACK
6
CONTINUOUS
10
-0.473651
20
-1.13133
11
-0.477067
21
-1.13957
0
LINE
8
BLACK
6
CONTINUOUS
10
-0.477067
20
-1.13957
11
-0.482026
21
-1.147
0
LINE
8
BLACK
6
CONTINUOUS
10
-0.482026
20
-1.147
11
-0.488338
21
-1.15331
0
LINE
8
BLACK
6
CONTINUOUS
10
-0.488338
20
-1.15331
11
-0.49576
21
-1.15827
0
LINE
8
BLACK
6
CONTINUOUS
10
-0.49576
20
-1.15827
11
-0.504007
21
-1.16168
0
LINE
8
BLACK
6
CONTINUOUS
10
-0.504007
20
-1.16168
11
-0.508384
21
-1.16255
0
LINE
8
BLACK
6
CONTINUOUS
10
-0.508384
20
-1.16255
11
-0.512761
21
-1.16343
0
LINE
8
BLACK
6
CONTINUOUS
10
-0.512761
20
-1.16343
11
-0.521688
21
-1.16343
0
LINE
8
BLACK
6
CONTINUOUS
10
-0.521688
20
-1.16343
11
-0.526065
21
-1.16255
0
LINE
8
BLACK
6
CONTINUOUS
10
-0.526065
20
-1.16255
11
-0.530442
21
-1.16168
0
LINE
8
BLACK
6
CONTINUOUS
10
-0.530442
20
-1.16168
11
-0.538689
21
-1.15827
0
LINE
8
BLACK
6
CONTINUOUS
10
-0.538689
20
-1.15827
11
-0.546111
21
-1.15331
0
LINE
8
BLACK
6
CONTINUOUS
10
-0.546111
20
-1.15331
11
-0.552423
21
-1.147
0
LINE
8
BLACK
6
CONTINUOUS
10
-0.552423
20
-1.147
11
-0.557382
21
-1.13957
0
LINE
8
BLACK
6
CONTINUOUS
10
-0.557382
20
-1.13957
11
-0.560798
21
-1.13133
0
LINE
8
BLACK
6
CONTINUOUS
10
-0.560798
20
-1.13133
11
-0.562539
21
-1.12257
0
LINE
8
BLACK
6
CONTINUOUS
10
-0.562539
20
-1.12257
11
-0.562539
21
-1.11365
0
LINE
8
BLACK
6
CONTINUOUS
10
-0.562539
20
-1.11365
11
-0.562364
21
-1.11277
0
LINE
8
BLACK
6
CONTINUOUS
10
-0.562364
20
-1.11277
11
-0.560798
21
-1.10489
0
LINE
8
BLACK
6
CONTINUOUS
10
-0.560798
20
-1.10489
11
-0.560644
21
-1.10452
0
LINE
8
BLACK
6
CONTINUOUS
10
-0.560644
20
-1.10452
11
-0.557569
21
-1.0971
0
LINE
8
BLACK
6
CONTINUOUS
10
-0.557569
20
-1.0971
11
-0.557382
21
-1.09665
0
LINE
8
BLACK
6
CONTINUOUS
10
-0.557382
20
-1.09665
11
-0.553467
21
-1.09079
0
LINE
8
BLACK
6
CONTINUOUS
10
-0.553467
20
-1.09079
11
-0.552423
21
-1.08922
0
LINE
8
BLACK
6
CONTINUOUS
10
-0.552423
20
-1.08922
11
-0.546111
21
-1.08291
0
LINE
8
BLACK
6
CONTINUOUS
10
-0.546111
20
-1.08291
11
-0.538689
21
-1.07795
0
LINE
8
BLACK
6
CONTINUOUS
10
-0.538689
20
-1.07795
11
-0.530442
21
-1.07454
0
LINE
8
BLACK
6
CONTINUOUS
10
-0.530442
20
-1.07454
11
-0.526065
21
-1.07367
0
LINE
8
BLACK
6
CONTINUOUS
10
-0.526065
20
-1.07367
11
-0.521688
21
-1.0728
0
LINE
8
BLACK
6
CONTINUOUS
10
-0.521688
20
-1.0728
11
-0.512761
21
-1.0728
0
LINE
8
BLACK
6
CONTINUOUS
10
-0.512761
20
-1.0728
11
-0.508384
21
-1.07367
  0
ENDSEC
  0
EOF
