  0
SECTION
  2
HEADER
  9
$ANGBASE
  50
0.0
  9
$ANGDIR
  70
1
  9
$MEASUREMENT
  70
0
  0
ENDSEC
  0
SECTION
  2
TABLES
  0
TABLE
  2
LTYPE
  70
4
  0
LTYPE
  5
40F
  2
CONTINUOUS
  70
0
  3
Solid line
  72
65
  73
0
  40
0.0
  0
LTYPE
  5
410
  2
DASHDOT
 70
0
  3
Dash Dot ____ _ ____ _
 72
65
 73
4
 40
2.0
 49
1.25
 49
-0.25
 49
0.25
 49
-0.25
  0
LTYPE
  5
411
  2
DASHED
 70
0
  3
Dashed __ __ __ __ __
 72
65
 73
2
 40
0.75
 49
0.5
 49
-0.25
  0
LTYPE
  5
43B
  2
DOTTED
 70
0
  3
Dotted .  .  .  .
 72
65
 73
2
 40
0.2
 49
0.0
 49
-0.2
  0
ENDTAB
  0
TABLE
  2
STYLE
  70
4
  0
STYLE
  2
KICAD
  70
0
  40
0
  41
1
  42
1
  50
0
  71
0
  3
isocp.shx
  0
STYLE
  2
KICADB
  70
0
  40
0
  41
1
  42
1
  50
0
  71
0
  3
isocp.shx
  0
STYLE
  2
KICADI
  70
0
  40
0
  41
1
  42
1
  50
15
  71
0
  3
isocp.shx
  0
STYLE
  2
KICADBI
  70
0
  40
0
  41
1
  42
1
  50
15
  71
0
  3
isocp.shx
  0
ENDTAB
  0
TABLE
  2
LAYER
  70
1
  0
LAYER
  2
BLACK
  70
0
  62
7
  6
CONTINUOUS
  0
ENDTAB
  0
ENDSEC
  0
SECTION
  2
ENTITIES
0
LINE
8
BLACK
6
CONTINUOUS
10
7.00442
20
-2.58652
11
7.00629
21
-2.58465
0
LINE
8
BLACK
6
CONTINUOUS
10
7.00629
20
-2.58465
11
7.01004
21
-2.58277
0
LINE
8
BLACK
6
CONTINUOUS
10
7.01004
20
-2.58277
11
7.01941
21
-2.58277
0
LINE
8
BLACK
6
CONTINUOUS
10
7.01941
20
-2.58277
11
7.02316
21
-2.58465
0
LINE
8
BLACK
6
CONTINUOUS
10
7.02316
20
-2.58465
11
7.02504
21
-2.58652
0
LINE
8
BLACK
6
CONTINUOUS
10
7.02504
20
-2.58652
11
7.02691
21
-2.59027
0
LINE
8
BLACK
6
CONTINUOUS
10
7.02691
20
-2.59027
11
7.02691
21
-2.59402
0
LINE
8
BLACK
6
CONTINUOUS
10
7.02691
20
-2.59402
11
7.02504
21
-2.59964
0
LINE
8
BLACK
6
CONTINUOUS
10
7.02504
20
-2.59964
11
7.00254
21
-2.62214
0
LINE
8
BLACK
6
CONTINUOUS
10
7.00254
20
-2.62214
11
7.02691
21
-2.62214
0
LINE
8
BLACK
6
CONTINUOUS
10
7.06253
20
-2.58277
11
7.04379
21
-2.58277
0
LINE
8
BLACK
6
CONTINUOUS
10
7.04379
20
-2.58277
11
7.04191
21
-2.60152
0
LINE
8
BLACK
6
CONTINUOUS
10
7.04191
20
-2.60152
11
7.04379
21
-2.59964
0
LINE
8
BLACK
6
CONTINUOUS
10
7.04379
20
-2.59964
11
7.04753
21
-2.59777
0
LINE
8
BLACK
6
CONTINUOUS
10
7.04753
20
-2.59777
11
7.05691
21
-2.59777
0
LINE
8
BLACK
6
CONTINUOUS
10
7.05691
20
-2.59777
11
7.06066
21
-2.59964
0
LINE
8
BLACK
6
CONTINUOUS
10
7.06066
20
-2.59964
11
7.06253
21
-2.60152
0
LINE
8
BLACK
6
CONTINUOUS
10
7.06253
20
-2.60152
11
7.06441
21
-2.60527
0
LINE
8
BLACK
6
CONTINUOUS
10
7.06441
20
-2.60527
11
7.06441
21
-2.61464
0
LINE
8
BLACK
6
CONTINUOUS
10
7.06441
20
-2.61464
11
7.06253
21
-2.61839
0
LINE
8
BLACK
6
CONTINUOUS
10
7.06253
20
-2.61839
11
7.06066
21
-2.62027
0
LINE
8
BLACK
6
CONTINUOUS
10
7.06066
20
-2.62027
11
7.05691
21
-2.62214
0
LINE
8
BLACK
6
CONTINUOUS
10
7.05691
20
-2.62214
11
7.04753
21
-2.62214
0
LINE
8
BLACK
6
CONTINUOUS
10
7.04753
20
-2.62214
11
7.04379
21
-2.62027
0
LINE
8
BLACK
6
CONTINUOUS
10
7.04379
20
-2.62027
11
7.04191
21
-2.61839
0
LINE
8
BLACK
6
CONTINUOUS
10
7.08128
20
-2.61839
11
7.08316
21
-2.62027
0
LINE
8
BLACK
6
CONTINUOUS
10
7.08316
20
-2.62027
11
7.08128
21
-2.62214
0
LINE
8
BLACK
6
CONTINUOUS
10
7.08128
20
-2.62214
11
7.07941
21
-2.62027
0
LINE
8
BLACK
6
CONTINUOUS
10
7.07941
20
-2.62027
11
7.08128
21
-2.61839
0
LINE
8
BLACK
6
CONTINUOUS
10
7.08128
20
-2.61839
11
7.08128
21
-2.62214
0
LINE
8
BLACK
6
CONTINUOUS
10
7.1019
20
-2.62214
11
7.1094
21
-2.62214
0
LINE
8
BLACK
6
CONTINUOUS
10
7.1094
20
-2.62214
11
7.11315
21
-2.62027
0
LINE
8
BLACK
6
CONTINUOUS
10
7.11315
20
-2.62027
11
7.11503
21
-2.61839
0
LINE
8
BLACK
6
CONTINUOUS
10
7.11503
20
-2.61839
11
7.11878
21
-2.61277
0
LINE
8
BLACK
6
CONTINUOUS
10
7.11878
20
-2.61277
11
7.12065
21
-2.60527
0
LINE
8
BLACK
6
CONTINUOUS
10
7.12065
20
-2.60527
11
7.12065
21
-2.59027
0
LINE
8
BLACK
6
CONTINUOUS
10
7.12065
20
-2.59027
11
7.11878
21
-2.58652
0
LINE
8
BLACK
6
CONTINUOUS
10
7.11878
20
-2.58652
11
7.1169
21
-2.58465
0
LINE
8
BLACK
6
CONTINUOUS
10
7.1169
20
-2.58465
11
7.11315
21
-2.58277
0
LINE
8
BLACK
6
CONTINUOUS
10
7.11315
20
-2.58277
11
7.10565
21
-2.58277
0
LINE
8
BLACK
6
CONTINUOUS
10
7.10565
20
-2.58277
11
7.1019
21
-2.58465
0
LINE
8
BLACK
6
CONTINUOUS
10
7.1019
20
-2.58465
11
7.10003
21
-2.58652
0
LINE
8
BLACK
6
CONTINUOUS
10
7.10003
20
-2.58652
11
7.09815
21
-2.59027
0
LINE
8
BLACK
6
CONTINUOUS
10
7.09815
20
-2.59027
11
7.09815
21
-2.59964
0
LINE
8
BLACK
6
CONTINUOUS
10
7.09815
20
-2.59964
11
7.10003
21
-2.60339
0
LINE
8
BLACK
6
CONTINUOUS
10
7.10003
20
-2.60339
11
7.1019
21
-2.60527
0
LINE
8
BLACK
6
CONTINUOUS
10
7.1019
20
-2.60527
11
7.10565
21
-2.60714
0
LINE
8
BLACK
6
CONTINUOUS
10
7.10565
20
-2.60714
11
7.11315
21
-2.60714
0
LINE
8
BLACK
6
CONTINUOUS
10
7.11315
20
-2.60714
11
7.1169
21
-2.60527
0
LINE
8
BLACK
6
CONTINUOUS
10
7.1169
20
-2.60527
11
7.11878
21
-2.60339
0
LINE
8
BLACK
6
CONTINUOUS
10
7.11878
20
-2.60339
11
7.12065
21
-2.59964
0
LINE
8
BLACK
6
CONTINUOUS
10
7.15627
20
-2.58277
11
7.13752
21
-2.58277
0
LINE
8
BLACK
6
CONTINUOUS
10
7.13752
20
-2.58277
11
7.13565
21
-2.60152
0
LINE
8
BLACK
6
CONTINUOUS
10
7.13565
20
-2.60152
11
7.13752
21
-2.59964
0
LINE
8
BLACK
6
CONTINUOUS
10
7.13752
20
-2.59964
11
7.14127
21
-2.59777
0
LINE
8
BLACK
6
CONTINUOUS
10
7.14127
20
-2.59777
11
7.15065
21
-2.59777
0
LINE
8
BLACK
6
CONTINUOUS
10
7.15065
20
-2.59777
11
7.1544
21
-2.59964
0
LINE
8
BLACK
6
CONTINUOUS
10
7.1544
20
-2.59964
11
7.15627
21
-2.60152
0
LINE
8
BLACK
6
CONTINUOUS
10
7.15627
20
-2.60152
11
7.15815
21
-2.60527
0
LINE
8
BLACK
6
CONTINUOUS
10
7.15815
20
-2.60527
11
7.15815
21
-2.61464
0
LINE
8
BLACK
6
CONTINUOUS
10
7.15815
20
-2.61464
11
7.15627
21
-2.61839
0
LINE
8
BLACK
6
CONTINUOUS
10
7.15627
20
-2.61839
11
7.1544
21
-2.62027
0
LINE
8
BLACK
6
CONTINUOUS
10
7.1544
20
-2.62027
11
7.15065
21
-2.62214
0
LINE
8
BLACK
6
CONTINUOUS
10
7.15065
20
-2.62214
11
7.14127
21
-2.62214
0
LINE
8
BLACK
6
CONTINUOUS
10
7.14127
20
-2.62214
11
7.13752
21
-2.62027
0
LINE
8
BLACK
6
CONTINUOUS
10
7.13752
20
-2.62027
11
7.13565
21
-2.61839
0
LINE
8
BLACK
6
CONTINUOUS
10
7.18252
20
-2.58277
11
7.18627
21
-2.58277
0
LINE
8
BLACK
6
CONTINUOUS
10
7.18627
20
-2.58277
11
7.19002
21
-2.58465
0
LINE
8
BLACK
6
CONTINUOUS
10
7.19002
20
-2.58465
11
7.19189
21
-2.58652
0
LINE
8
BLACK
6
CONTINUOUS
10
7.19189
20
-2.58652
11
7.19377
21
-2.59027
0
LINE
8
BLACK
6
CONTINUOUS
10
7.19377
20
-2.59027
11
7.19564
21
-2.59777
0
LINE
8
BLACK
6
CONTINUOUS
10
7.19564
20
-2.59777
11
7.19564
21
-2.60714
0
LINE
8
BLACK
6
CONTINUOUS
10
7.19564
20
-2.60714
11
7.19377
21
-2.61464
0
LINE
8
BLACK
6
CONTINUOUS
10
7.19377
20
-2.61464
11
7.19189
21
-2.61839
0
LINE
8
BLACK
6
CONTINUOUS
10
7.19189
20
-2.61839
11
7.19002
21
-2.62027
0
LINE
8
BLACK
6
CONTINUOUS
10
7.19002
20
-2.62027
11
7.18627
21
-2.62214
0
LINE
8
BLACK
6
CONTINUOUS
10
7.18627
20
-2.62214
11
7.18252
21
-2.62214
0
LINE
8
BLACK
6
CONTINUOUS
10
7.18252
20
-2.62214
11
7.17877
21
-2.62027
0
LINE
8
BLACK
6
CONTINUOUS
10
7.17877
20
-2.62027
11
7.17689
21
-2.61839
0
LINE
8
BLACK
6
CONTINUOUS
10
7.17689
20
-2.61839
11
7.17502
21
-2.61464
0
LINE
8
BLACK
6
CONTINUOUS
10
7.17502
20
-2.61464
11
7.17314
21
-2.60714
0
LINE
8
BLACK
6
CONTINUOUS
10
7.17314
20
-2.60714
11
7.17314
21
-2.59777
0
LINE
8
BLACK
6
CONTINUOUS
10
7.17314
20
-2.59777
11
7.17502
21
-2.59027
0
LINE
8
BLACK
6
CONTINUOUS
10
7.17502
20
-2.59027
11
7.17689
21
-2.58652
0
LINE
8
BLACK
6
CONTINUOUS
10
7.17689
20
-2.58652
11
7.17877
21
-2.58465
0
LINE
8
BLACK
6
CONTINUOUS
10
7.17877
20
-2.58465
11
7.18252
21
-2.58277
0
LINE
8
BLACK
6
CONTINUOUS
10
7.24251
20
-2.62214
11
7.24251
21
-2.59589
0
LINE
8
BLACK
6
CONTINUOUS
10
7.24251
20
-2.59964
11
7.24439
21
-2.59777
0
LINE
8
BLACK
6
CONTINUOUS
10
7.24439
20
-2.59777
11
7.24813
21
-2.59589
0
LINE
8
BLACK
6
CONTINUOUS
10
7.24813
20
-2.59589
11
7.25376
21
-2.59589
0
LINE
8
BLACK
6
CONTINUOUS
10
7.25376
20
-2.59589
11
7.25751
21
-2.59777
0
LINE
8
BLACK
6
CONTINUOUS
10
7.25751
20
-2.59777
11
7.25938
21
-2.60152
0
LINE
8
BLACK
6
CONTINUOUS
10
7.25938
20
-2.60152
11
7.25938
21
-2.62214
0
LINE
8
BLACK
6
CONTINUOUS
10
7.25938
20
-2.60152
11
7.26126
21
-2.59777
0
LINE
8
BLACK
6
CONTINUOUS
10
7.26126
20
-2.59777
11
7.26501
21
-2.59589
0
LINE
8
BLACK
6
CONTINUOUS
10
7.26501
20
-2.59589
11
7.27063
21
-2.59589
0
LINE
8
BLACK
6
CONTINUOUS
10
7.27063
20
-2.59589
11
7.27438
21
-2.59777
0
LINE
8
BLACK
6
CONTINUOUS
10
7.27438
20
-2.59777
11
7.27626
21
-2.60152
0
LINE
8
BLACK
6
CONTINUOUS
10
7.27626
20
-2.60152
11
7.27626
21
-2.62214
0
LINE
8
BLACK
6
CONTINUOUS
10
7.295
20
-2.62214
11
7.295
21
-2.59589
0
LINE
8
BLACK
6
CONTINUOUS
10
7.295
20
-2.59964
11
7.29688
21
-2.59777
0
LINE
8
BLACK
6
CONTINUOUS
10
7.29688
20
-2.59777
11
7.30063
21
-2.59589
0
LINE
8
BLACK
6
CONTINUOUS
10
7.30063
20
-2.59589
11
7.30625
21
-2.59589
0
LINE
8
BLACK
6
CONTINUOUS
10
7.30625
20
-2.59589
11
7.31
21
-2.59777
0
LINE
8
BLACK
6
CONTINUOUS
10
7.31
20
-2.59777
11
7.31188
21
-2.60152
0
LINE
8
BLACK
6
CONTINUOUS
10
7.31188
20
-2.60152
11
7.31188
21
-2.62214
0
LINE
8
BLACK
6
CONTINUOUS
10
7.31188
20
-2.60152
11
7.31375
21
-2.59777
0
LINE
8
BLACK
6
CONTINUOUS
10
7.31375
20
-2.59777
11
7.3175
21
-2.59589
0
LINE
8
BLACK
6
CONTINUOUS
10
7.3175
20
-2.59589
11
7.32313
21
-2.59589
0
LINE
8
BLACK
6
CONTINUOUS
10
7.32313
20
-2.59589
11
7.32687
21
-2.59777
0
LINE
8
BLACK
6
CONTINUOUS
10
7.32687
20
-2.59777
11
7.32875
21
-2.60152
0
LINE
8
BLACK
6
CONTINUOUS
10
7.32875
20
-2.60152
11
7.32875
21
-2.62214
0
LINE
8
BLACK
6
CONTINUOUS
10
7.67835
20
-2.55709
11
6.65669
21
-2.55709
0
LINE
8
BLACK
6
CONTINUOUS
10
7.67835
20
-2.4753
11
7.67835
21
-2.58017
0
LINE
8
BLACK
6
CONTINUOUS
10
6.65669
20
-2.4753
11
6.65669
21
-2.58017
0
LINE
8
BLACK
6
CONTINUOUS
10
6.65669
20
-2.55709
11
6.70104
21
-2.534
0
LINE
8
BLACK
6
CONTINUOUS
10
6.65669
20
-2.55709
11
6.70104
21
-2.58017
0
LINE
8
BLACK
6
CONTINUOUS
10
7.67835
20
-2.55709
11
7.634
21
-2.534
0
LINE
8
BLACK
6
CONTINUOUS
10
7.67835
20
-2.55709
11
7.634
21
-2.58017
0
LINE
8
BLACK
6
CONTINUOUS
10
8.05594
20
-2.38686
11
8.05407
21
-2.39061
0
LINE
8
BLACK
6
CONTINUOUS
10
8.05407
20
-2.39061
11
8.05219
21
-2.39248
0
LINE
8
BLACK
6
CONTINUOUS
10
8.05219
20
-2.39248
11
8.04844
21
-2.39436
0
LINE
8
BLACK
6
CONTINUOUS
10
8.04844
20
-2.39436
11
8.04657
21
-2.39436
0
LINE
8
BLACK
6
CONTINUOUS
10
8.04657
20
-2.39436
11
8.04282
21
-2.39248
0
LINE
8
BLACK
6
CONTINUOUS
10
8.04282
20
-2.39248
11
8.04094
21
-2.39061
0
LINE
8
BLACK
6
CONTINUOUS
10
8.04094
20
-2.39061
11
8.03907
21
-2.38686
0
LINE
8
BLACK
6
CONTINUOUS
10
8.03907
20
-2.38686
11
8.03907
21
-2.37936
0
LINE
8
BLACK
6
CONTINUOUS
10
8.03907
20
-2.37936
11
8.04094
21
-2.37561
0
LINE
8
BLACK
6
CONTINUOUS
10
8.04094
20
-2.37561
11
8.04282
21
-2.37373
0
LINE
8
BLACK
6
CONTINUOUS
10
8.04282
20
-2.37373
11
8.04657
21
-2.37186
0
LINE
8
BLACK
6
CONTINUOUS
10
8.04657
20
-2.37186
11
8.04844
21
-2.37186
0
LINE
8
BLACK
6
CONTINUOUS
10
8.04844
20
-2.37186
11
8.05219
21
-2.37373
0
LINE
8
BLACK
6
CONTINUOUS
10
8.05219
20
-2.37373
11
8.05407
21
-2.37561
0
LINE
8
BLACK
6
CONTINUOUS
10
8.05407
20
-2.37561
11
8.05594
21
-2.37936
0
LINE
8
BLACK
6
CONTINUOUS
10
8.05594
20
-2.37936
11
8.05594
21
-2.38686
0
LINE
8
BLACK
6
CONTINUOUS
10
8.05594
20
-2.38686
11
8.05782
21
-2.39061
0
LINE
8
BLACK
6
CONTINUOUS
10
8.05782
20
-2.39061
11
8.05969
21
-2.39248
0
LINE
8
BLACK
6
CONTINUOUS
10
8.05969
20
-2.39248
11
8.06344
21
-2.39436
0
LINE
8
BLACK
6
CONTINUOUS
10
8.06344
20
-2.39436
11
8.07094
21
-2.39436
0
LINE
8
BLACK
6
CONTINUOUS
10
8.07094
20
-2.39436
11
8.07469
21
-2.39248
0
LINE
8
BLACK
6
CONTINUOUS
10
8.07469
20
-2.39248
11
8.07657
21
-2.39061
0
LINE
8
BLACK
6
CONTINUOUS
10
8.07657
20
-2.39061
11
8.07844
21
-2.38686
0
LINE
8
BLACK
6
CONTINUOUS
10
8.07844
20
-2.38686
11
8.07844
21
-2.37936
0
LINE
8
BLACK
6
CONTINUOUS
10
8.07844
20
-2.37936
11
8.07657
21
-2.37561
0
LINE
8
BLACK
6
CONTINUOUS
10
8.07657
20
-2.37561
11
8.07469
21
-2.37373
0
LINE
8
BLACK
6
CONTINUOUS
10
8.07469
20
-2.37373
11
8.07094
21
-2.37186
0
LINE
8
BLACK
6
CONTINUOUS
10
8.07094
20
-2.37186
11
8.06344
21
-2.37186
0
LINE
8
BLACK
6
CONTINUOUS
10
8.06344
20
-2.37186
11
8.05969
21
-2.37373
0
LINE
8
BLACK
6
CONTINUOUS
10
8.05969
20
-2.37373
11
8.05782
21
-2.37561
0
LINE
8
BLACK
6
CONTINUOUS
10
8.05782
20
-2.37561
11
8.05594
21
-2.37936
0
LINE
8
BLACK
6
CONTINUOUS
10
8.07469
20
-2.35499
11
8.07657
21
-2.35311
0
LINE
8
BLACK
6
CONTINUOUS
10
8.07657
20
-2.35311
11
8.07844
21
-2.35499
0
LINE
8
BLACK
6
CONTINUOUS
10
8.07844
20
-2.35499
11
8.07657
21
-2.35686
0
LINE
8
BLACK
6
CONTINUOUS
10
8.07657
20
-2.35686
11
8.07469
21
-2.35499
0
LINE
8
BLACK
6
CONTINUOUS
10
8.07469
20
-2.35499
11
8.07844
21
-2.35499
0
LINE
8
BLACK
6
CONTINUOUS
10
8.03907
20
-2.31749
11
8.03907
21
-2.33624
0
LINE
8
BLACK
6
CONTINUOUS
10
8.03907
20
-2.33624
11
8.05782
21
-2.33811
0
LINE
8
BLACK
6
CONTINUOUS
10
8.05782
20
-2.33811
11
8.05594
21
-2.33624
0
LINE
8
BLACK
6
CONTINUOUS
10
8.05594
20
-2.33624
11
8.05407
21
-2.33249
0
LINE
8
BLACK
6
CONTINUOUS
10
8.05407
20
-2.33249
11
8.05407
21
-2.32312
0
LINE
8
BLACK
6
CONTINUOUS
10
8.05407
20
-2.32312
11
8.05594
21
-2.31937
0
LINE
8
BLACK
6
CONTINUOUS
10
8.05594
20
-2.31937
11
8.05782
21
-2.31749
0
LINE
8
BLACK
6
CONTINUOUS
10
8.05782
20
-2.31749
11
8.06157
21
-2.31562
0
LINE
8
BLACK
6
CONTINUOUS
10
8.06157
20
-2.31562
11
8.07094
21
-2.31562
0
LINE
8
BLACK
6
CONTINUOUS
10
8.07094
20
-2.31562
11
8.07469
21
-2.31749
0
LINE
8
BLACK
6
CONTINUOUS
10
8.07469
20
-2.31749
11
8.07657
21
-2.31937
0
LINE
8
BLACK
6
CONTINUOUS
10
8.07657
20
-2.31937
11
8.07844
21
-2.32312
0
LINE
8
BLACK
6
CONTINUOUS
10
8.07844
20
-2.32312
11
8.07844
21
-2.33249
0
LINE
8
BLACK
6
CONTINUOUS
10
8.07844
20
-2.33249
11
8.07657
21
-2.33624
0
LINE
8
BLACK
6
CONTINUOUS
10
8.07657
20
-2.33624
11
8.07469
21
-2.33811
0
LINE
8
BLACK
6
CONTINUOUS
10
8.03907
20
-2.28
11
8.03907
21
-2.29874
0
LINE
8
BLACK
6
CONTINUOUS
10
8.03907
20
-2.29874
11
8.05782
21
-2.30062
0
LINE
8
BLACK
6
CONTINUOUS
10
8.05782
20
-2.30062
11
8.05594
21
-2.29874
0
LINE
8
BLACK
6
CONTINUOUS
10
8.05594
20
-2.29874
11
8.05407
21
-2.29499
0
LINE
8
BLACK
6
CONTINUOUS
10
8.05407
20
-2.29499
11
8.05407
21
-2.28562
0
LINE
8
BLACK
6
CONTINUOUS
10
8.05407
20
-2.28562
11
8.05594
21
-2.28187
0
LINE
8
BLACK
6
CONTINUOUS
10
8.05594
20
-2.28187
11
8.05782
21
-2.28
0
LINE
8
BLACK
6
CONTINUOUS
10
8.05782
20
-2.28
11
8.06157
21
-2.27812
0
LINE
8
BLACK
6
CONTINUOUS
10
8.06157
20
-2.27812
11
8.07094
21
-2.27812
0
LINE
8
BLACK
6
CONTINUOUS
10
8.07094
20
-2.27812
11
8.07469
21
-2.28
0
LINE
8
BLACK
6
CONTINUOUS
10
8.07469
20
-2.28
11
8.07657
21
-2.28187
0
LINE
8
BLACK
6
CONTINUOUS
10
8.07657
20
-2.28187
11
8.07844
21
-2.28562
0
LINE
8
BLACK
6
CONTINUOUS
10
8.07844
20
-2.28562
11
8.07844
21
-2.29499
0
LINE
8
BLACK
6
CONTINUOUS
10
8.07844
20
-2.29499
11
8.07657
21
-2.29874
0
LINE
8
BLACK
6
CONTINUOUS
10
8.07657
20
-2.29874
11
8.07469
21
-2.30062
0
LINE
8
BLACK
6
CONTINUOUS
10
8.03907
20
-2.2425
11
8.03907
21
-2.26125
0
LINE
8
BLACK
6
CONTINUOUS
10
8.03907
20
-2.26125
11
8.05782
21
-2.26312
0
LINE
8
BLACK
6
CONTINUOUS
10
8.05782
20
-2.26312
11
8.05594
21
-2.26125
0
LINE
8
BLACK
6
CONTINUOUS
10
8.05594
20
-2.26125
11
8.05407
21
-2.2575
0
LINE
8
BLACK
6
CONTINUOUS
10
8.05407
20
-2.2575
11
8.05407
21
-2.24813
0
LINE
8
BLACK
6
CONTINUOUS
10
8.05407
20
-2.24813
11
8.05594
21
-2.24438
0
LINE
8
BLACK
6
CONTINUOUS
10
8.05594
20
-2.24438
11
8.05782
21
-2.2425
0
LINE
8
BLACK
6
CONTINUOUS
10
8.05782
20
-2.2425
11
8.06157
21
-2.24063
0
LINE
8
BLACK
6
CONTINUOUS
10
8.06157
20
-2.24063
11
8.07094
21
-2.24063
0
LINE
8
BLACK
6
CONTINUOUS
10
8.07094
20
-2.24063
11
8.07469
21
-2.2425
0
LINE
8
BLACK
6
CONTINUOUS
10
8.07469
20
-2.2425
11
8.07657
21
-2.24438
0
LINE
8
BLACK
6
CONTINUOUS
10
8.07657
20
-2.24438
11
8.07844
21
-2.24813
0
LINE
8
BLACK
6
CONTINUOUS
10
8.07844
20
-2.24813
11
8.07844
21
-2.2575
0
LINE
8
BLACK
6
CONTINUOUS
10
8.07844
20
-2.2575
11
8.07657
21
-2.26125
0
LINE
8
BLACK
6
CONTINUOUS
10
8.07657
20
-2.26125
11
8.07469
21
-2.26312
0
LINE
8
BLACK
6
CONTINUOUS
10
8.07844
20
-2.19376
11
8.05219
21
-2.19376
0
LINE
8
BLACK
6
CONTINUOUS
10
8.05594
20
-2.19376
11
8.05407
21
-2.19188
0
LINE
8
BLACK
6
CONTINUOUS
10
8.05407
20
-2.19188
11
8.05219
21
-2.18813
0
LINE
8
BLACK
6
CONTINUOUS
10
8.05219
20
-2.18813
11
8.05219
21
-2.18251
0
LINE
8
BLACK
6
CONTINUOUS
10
8.05219
20
-2.18251
11
8.05407
21
-2.17876
0
LINE
8
BLACK
6
CONTINUOUS
10
8.05407
20
-2.17876
11
8.05782
21
-2.17688
0
LINE
8
BLACK
6
CONTINUOUS
10
8.05782
20
-2.17688
11
8.07844
21
-2.17688
0
LINE
8
BLACK
6
CONTINUOUS
10
8.05782
20
-2.17688
11
8.05407
21
-2.17501
0
LINE
8
BLACK
6
CONTINUOUS
10
8.05407
20
-2.17501
11
8.05219
21
-2.17126
0
LINE
8
BLACK
6
CONTINUOUS
10
8.05219
20
-2.17126
11
8.05219
21
-2.16564
0
LINE
8
BLACK
6
CONTINUOUS
10
8.05219
20
-2.16564
11
8.05407
21
-2.16189
0
LINE
8
BLACK
6
CONTINUOUS
10
8.05407
20
-2.16189
11
8.05782
21
-2.16001
0
LINE
8
BLACK
6
CONTINUOUS
10
8.05782
20
-2.16001
11
8.07844
21
-2.16001
0
LINE
8
BLACK
6
CONTINUOUS
10
8.07844
20
-2.14126
11
8.05219
21
-2.14126
0
LINE
8
BLACK
6
CONTINUOUS
10
8.05594
20
-2.14126
11
8.05407
21
-2.13939
0
LINE
8
BLACK
6
CONTINUOUS
10
8.05407
20
-2.13939
11
8.05219
21
-2.13564
0
LINE
8
BLACK
6
CONTINUOUS
10
8.05219
20
-2.13564
11
8.05219
21
-2.13001
0
LINE
8
BLACK
6
CONTINUOUS
10
8.05219
20
-2.13001
11
8.05407
21
-2.12627
0
LINE
8
BLACK
6
CONTINUOUS
10
8.05407
20
-2.12627
11
8.05782
21
-2.12439
0
LINE
8
BLACK
6
CONTINUOUS
10
8.05782
20
-2.12439
11
8.07844
21
-2.12439
0
LINE
8
BLACK
6
CONTINUOUS
10
8.05782
20
-2.12439
11
8.05407
21
-2.12252
0
LINE
8
BLACK
6
CONTINUOUS
10
8.05407
20
-2.12252
11
8.05219
21
-2.11877
0
LINE
8
BLACK
6
CONTINUOUS
10
8.05219
20
-2.11877
11
8.05219
21
-2.11314
0
LINE
8
BLACK
6
CONTINUOUS
10
8.05219
20
-2.11314
11
8.05407
21
-2.10939
0
LINE
8
BLACK
6
CONTINUOUS
10
8.05407
20
-2.10939
11
8.05782
21
-2.10752
0
LINE
8
BLACK
6
CONTINUOUS
10
8.05782
20
-2.10752
11
8.07844
21
-2.10752
0
LINE
8
BLACK
6
CONTINUOUS
10
8.01339
20
-2.41841
11
8.01339
21
-2.08159
0
LINE
8
BLACK
6
CONTINUOUS
10
7.96043
20
-2.41841
11
8.03647
21
-2.41841
0
LINE
8
BLACK
6
CONTINUOUS
10
7.96043
20
-2.08159
11
8.03647
21
-2.08159
0
LINE
8
BLACK
6
CONTINUOUS
10
8.01339
20
-2.08159
11
8.03647
21
-2.12595
0
LINE
8
BLACK
6
CONTINUOUS
10
8.01339
20
-2.08159
11
7.9903
21
-2.12595
0
LINE
8
BLACK
6
CONTINUOUS
10
8.01339
20
-2.41841
11
8.03647
21
-2.37405
0
LINE
8
BLACK
6
CONTINUOUS
10
8.01339
20
-2.41841
11
7.9903
21
-2.37405
0
LINE
8
BLACK
6
CONTINUOUS
10
7.59813
20
-0.189389
11
7.59813
21
-0.196888
0
LINE
8
BLACK
6
CONTINUOUS
10
7.59813
20
-0.196888
11
7.6
21
-0.200637
0
LINE
8
BLACK
6
CONTINUOUS
10
7.6
20
-0.200637
11
7.60187
21
-0.202512
0
LINE
8
BLACK
6
CONTINUOUS
10
7.60187
20
-0.202512
11
7.6075
21
-0.206262
0
LINE
8
BLACK
6
CONTINUOUS
10
7.6075
20
-0.206262
11
7.615
21
-0.208136
0
LINE
8
BLACK
6
CONTINUOUS
10
7.615
20
-0.208136
11
7.63
21
-0.208136
0
LINE
8
BLACK
6
CONTINUOUS
10
7.63
20
-0.208136
11
7.63375
21
-0.206262
0
LINE
8
BLACK
6
CONTINUOUS
10
7.63375
20
-0.206262
11
7.63562
21
-0.204387
0
LINE
8
BLACK
6
CONTINUOUS
10
7.63562
20
-0.204387
11
7.6375
21
-0.200637
0
LINE
8
BLACK
6
CONTINUOUS
10
7.6375
20
-0.200637
11
7.6375
21
-0.193138
0
LINE
8
BLACK
6
CONTINUOUS
10
7.6375
20
-0.193138
11
7.63562
21
-0.189389
0
LINE
8
BLACK
6
CONTINUOUS
10
7.63562
20
-0.189389
11
7.63375
21
-0.187514
0
LINE
8
BLACK
6
CONTINUOUS
10
7.63375
20
-0.187514
11
7.63
21
-0.185639
0
LINE
8
BLACK
6
CONTINUOUS
10
7.63
20
-0.185639
11
7.62062
21
-0.185639
0
LINE
8
BLACK
6
CONTINUOUS
10
7.62062
20
-0.185639
11
7.61687
21
-0.187514
0
LINE
8
BLACK
6
CONTINUOUS
10
7.61687
20
-0.187514
11
7.615
21
-0.189389
0
LINE
8
BLACK
6
CONTINUOUS
10
7.615
20
-0.189389
11
7.61312
21
-0.193138
0
LINE
8
BLACK
6
CONTINUOUS
10
7.61312
20
-0.193138
11
7.61312
21
-0.200637
0
LINE
8
BLACK
6
CONTINUOUS
10
7.61312
20
-0.200637
11
7.615
21
-0.204387
0
LINE
8
BLACK
6
CONTINUOUS
10
7.615
20
-0.204387
11
7.61687
21
-0.206262
0
LINE
8
BLACK
6
CONTINUOUS
10
7.61687
20
-0.206262
11
7.62062
21
-0.208136
0
LINE
8
BLACK
6
CONTINUOUS
10
7.63375
20
-0.168766
11
7.63562
21
-0.166892
0
LINE
8
BLACK
6
CONTINUOUS
10
7.63562
20
-0.166892
11
7.6375
21
-0.168766
0
LINE
8
BLACK
6
CONTINUOUS
10
7.6375
20
-0.168766
11
7.63562
21
-0.170641
0
LINE
8
BLACK
6
CONTINUOUS
10
7.63562
20
-0.170641
11
7.63375
21
-0.168766
0
LINE
8
BLACK
6
CONTINUOUS
10
7.63375
20
-0.168766
11
7.6375
21
-0.168766
0
LINE
8
BLACK
6
CONTINUOUS
10
7.60187
20
-0.151894
11
7.6
21
-0.150019
0
LINE
8
BLACK
6
CONTINUOUS
10
7.6
20
-0.150019
11
7.59813
21
-0.146269
0
LINE
8
BLACK
6
CONTINUOUS
10
7.59813
20
-0.146269
11
7.59813
21
-0.136895
0
LINE
8
BLACK
6
CONTINUOUS
10
7.59813
20
-0.136895
11
7.6
21
-0.133146
0
LINE
8
BLACK
6
CONTINUOUS
10
7.6
20
-0.133146
11
7.60187
21
-0.131271
0
LINE
8
BLACK
6
CONTINUOUS
10
7.60187
20
-0.131271
11
7.60562
21
-0.129396
0
LINE
8
BLACK
6
CONTINUOUS
10
7.60562
20
-0.129396
11
7.60937
21
-0.129396
0
LINE
8
BLACK
6
CONTINUOUS
10
7.60937
20
-0.129396
11
7.615
21
-0.131271
0
LINE
8
BLACK
6
CONTINUOUS
10
7.615
20
-0.131271
11
7.6375
21
-0.153768
0
LINE
8
BLACK
6
CONTINUOUS
10
7.6375
20
-0.153768
11
7.6375
21
-0.129396
0
LINE
8
BLACK
6
CONTINUOUS
10
7.615
20
-0.106899
11
7.61312
21
-0.110649
0
LINE
8
BLACK
6
CONTINUOUS
10
7.61312
20
-0.110649
11
7.61125
21
-0.112523
0
LINE
8
BLACK
6
CONTINUOUS
10
7.61125
20
-0.112523
11
7.6075
21
-0.114398
0
LINE
8
BLACK
6
CONTINUOUS
10
7.6075
20
-0.114398
11
7.60562
21
-0.114398
0
LINE
8
BLACK
6
CONTINUOUS
10
7.60562
20
-0.114398
11
7.60187
21
-0.112523
0
LINE
8
BLACK
6
CONTINUOUS
10
7.60187
20
-0.112523
11
7.6
21
-0.110649
0
LINE
8
BLACK
6
CONTINUOUS
10
7.6
20
-0.110649
11
7.59813
21
-0.106899
0
LINE
8
BLACK
6
CONTINUOUS
10
7.59813
20
-0.106899
11
7.59813
21
-0.0994
0
LINE
8
BLACK
6
CONTINUOUS
10
7.59813
20
-0.0994
11
7.6
21
-0.0956505
0
LINE
8
BLACK
6
CONTINUOUS
10
7.6
20
-0.0956505
11
7.60187
21
-0.0937757
0
LINE
8
BLACK
6
CONTINUOUS
10
7.60187
20
-0.0937757
11
7.60562
21
-0.091901
0
LINE
8
BLACK
6
CONTINUOUS
10
7.60562
20
-0.091901
11
7.6075
21
-0.091901
0
LINE
8
BLACK
6
CONTINUOUS
10
7.6075
20
-0.091901
11
7.61125
21
-0.0937757
0
LINE
8
BLACK
6
CONTINUOUS
10
7.61125
20
-0.0937757
11
7.61312
21
-0.0956505
0
LINE
8
BLACK
6
CONTINUOUS
10
7.61312
20
-0.0956505
11
7.615
21
-0.0994
0
LINE
8
BLACK
6
CONTINUOUS
10
7.615
20
-0.0994
11
7.615
21
-0.106899
0
LINE
8
BLACK
6
CONTINUOUS
10
7.615
20
-0.106899
11
7.61687
21
-0.110649
0
LINE
8
BLACK
6
CONTINUOUS
10
7.61687
20
-0.110649
11
7.61875
21
-0.112523
0
LINE
8
BLACK
6
CONTINUOUS
10
7.61875
20
-0.112523
11
7.6225
21
-0.114398
0
LINE
8
BLACK
6
CONTINUOUS
10
7.6225
20
-0.114398
11
7.63
21
-0.114398
0
LINE
8
BLACK
6
CONTINUOUS
10
7.63
20
-0.114398
11
7.63375
21
-0.112523
0
LINE
8
BLACK
6
CONTINUOUS
10
7.63375
20
-0.112523
11
7.63562
21
-0.110649
0
LINE
8
BLACK
6
CONTINUOUS
10
7.63562
20
-0.110649
11
7.6375
21
-0.106899
0
LINE
8
BLACK
6
CONTINUOUS
10
7.6375
20
-0.106899
11
7.6375
21
-0.0994
0
LINE
8
BLACK
6
CONTINUOUS
10
7.6375
20
-0.0994
11
7.63562
21
-0.0956505
0
LINE
8
BLACK
6
CONTINUOUS
10
7.63562
20
-0.0956505
11
7.63375
21
-0.0937757
0
LINE
8
BLACK
6
CONTINUOUS
10
7.63375
20
-0.0937757
11
7.63
21
-0.091901
0
LINE
8
BLACK
6
CONTINUOUS
10
7.63
20
-0.091901
11
7.6225
21
-0.091901
0
LINE
8
BLACK
6
CONTINUOUS
10
7.6225
20
-0.091901
11
7.61875
21
-0.0937757
0
LINE
8
BLACK
6
CONTINUOUS
10
7.61875
20
-0.0937757
11
7.61687
21
-0.0956505
0
LINE
8
BLACK
6
CONTINUOUS
10
7.61687
20
-0.0956505
11
7.615
21
-0.0994
0
LINE
8
BLACK
6
CONTINUOUS
10
7.59813
20
-0.0562804
11
7.59813
21
-0.0750281
0
LINE
8
BLACK
6
CONTINUOUS
10
7.59813
20
-0.0750281
11
7.61687
21
-0.0769029
0
LINE
8
BLACK
6
CONTINUOUS
10
7.61687
20
-0.0769029
11
7.615
21
-0.0750281
0
LINE
8
BLACK
6
CONTINUOUS
10
7.615
20
-0.0750281
11
7.61312
21
-0.0712786
0
LINE
8
BLACK
6
CONTINUOUS
10
7.61312
20
-0.0712786
11
7.61312
21
-0.0619047
0
LINE
8
BLACK
6
CONTINUOUS
10
7.61312
20
-0.0619047
11
7.615
21
-0.0581552
0
LINE
8
BLACK
6
CONTINUOUS
10
7.615
20
-0.0581552
11
7.61687
21
-0.0562804
0
LINE
8
BLACK
6
CONTINUOUS
10
7.61687
20
-0.0562804
11
7.62062
21
-0.0544057
0
LINE
8
BLACK
6
CONTINUOUS
10
7.62062
20
-0.0544057
11
7.63
21
-0.0544057
0
LINE
8
BLACK
6
CONTINUOUS
10
7.63
20
-0.0544057
11
7.63375
21
-0.0562804
0
LINE
8
BLACK
6
CONTINUOUS
10
7.63375
20
-0.0562804
11
7.63562
21
-0.0581552
0
LINE
8
BLACK
6
CONTINUOUS
10
7.63562
20
-0.0581552
11
7.6375
21
-0.0619047
0
LINE
8
BLACK
6
CONTINUOUS
10
7.6375
20
-0.0619047
11
7.6375
21
-0.0712786
0
LINE
8
BLACK
6
CONTINUOUS
10
7.6375
20
-0.0712786
11
7.63562
21
-0.0750281
0
LINE
8
BLACK
6
CONTINUOUS
10
7.63562
20
-0.0750281
11
7.63375
21
-0.0769029
0
LINE
8
BLACK
6
CONTINUOUS
10
7.6375
20
-0.00753654
11
7.61125
21
-0.00753654
0
LINE
8
BLACK
6
CONTINUOUS
10
7.615
20
-0.00753654
11
7.61312
21
-0.00566177
0
LINE
8
BLACK
6
CONTINUOUS
10
7.61312
20
-0.00566177
11
7.61125
21
-0.00191224
0
LINE
8
BLACK
6
CONTINUOUS
10
7.61125
20
-0.00191224
11
7.61125
21
0.00371201
0
LINE
8
BLACK
6
CONTINUOUS
10
7.61125
20
0.00371201
11
7.61312
21
0.00746154
0
LINE
8
BLACK
6
CONTINUOUS
10
7.61312
20
0.00746154
11
7.61687
21
0.0093363
0
LINE
8
BLACK
6
CONTINUOUS
10
7.61687
20
0.0093363
11
7.6375
21
0.0093363
0
LINE
8
BLACK
6
CONTINUOUS
10
7.61687
20
0.0093363
11
7.61312
21
0.0112111
0
LINE
8
BLACK
6
CONTINUOUS
10
7.61312
20
0.0112111
11
7.61125
21
0.0149606
0
LINE
8
BLACK
6
CONTINUOUS
10
7.61125
20
0.0149606
11
7.61125
21
0.0205849
0
LINE
8
BLACK
6
CONTINUOUS
10
7.61125
20
0.0205849
11
7.61312
21
0.0243344
0
LINE
8
BLACK
6
CONTINUOUS
10
7.61312
20
0.0243344
11
7.61687
21
0.0262092
0
LINE
8
BLACK
6
CONTINUOUS
10
7.61687
20
0.0262092
11
7.6375
21
0.0262092
0
LINE
8
BLACK
6
CONTINUOUS
10
7.6375
20
0.0449569
11
7.61125
21
0.0449569
0
LINE
8
BLACK
6
CONTINUOUS
10
7.615
20
0.0449569
11
7.61312
21
0.0468316
0
LINE
8
BLACK
6
CONTINUOUS
10
7.61312
20
0.0468316
11
7.61125
21
0.0505811
0
LINE
8
BLACK
6
CONTINUOUS
10
7.61125
20
0.0505811
11
7.61125
21
0.0562055
0
LINE
8
BLACK
6
CONTINUOUS
10
7.61125
20
0.0562055
11
7.61312
21
0.059955
0
LINE
8
BLACK
6
CONTINUOUS
10
7.61312
20
0.059955
11
7.61687
21
0.0618298
0
LINE
8
BLACK
6
CONTINUOUS
10
7.61687
20
0.0618298
11
7.6375
21
0.0618298
0
LINE
8
BLACK
6
CONTINUOUS
10
7.61687
20
0.0618298
11
7.61312
21
0.0637045
0
LINE
8
BLACK
6
CONTINUOUS
10
7.61312
20
0.0637045
11
7.61125
21
0.0674541
0
LINE
8
BLACK
6
CONTINUOUS
10
7.61125
20
0.0674541
11
7.61125
21
0.0730783
0
LINE
8
BLACK
6
CONTINUOUS
10
7.61125
20
0.0730783
11
7.61312
21
0.0768279
0
LINE
8
BLACK
6
CONTINUOUS
10
7.61312
20
0.0768279
11
7.61687
21
0.0787026
0
LINE
8
BLACK
6
CONTINUOUS
10
7.61687
20
0.0787026
11
7.6375
21
0.0787026
0
LINE
8
BLACK
6
CONTINUOUS
10
7.57244
20
-0.1875
11
7.57244
21
0.0599409
0
LINE
8
BLACK
6
CONTINUOUS
10
7.51474
20
-0.1875
11
7.59553
21
-0.1875
0
LINE
8
BLACK
6
CONTINUOUS
10
7.51474
20
0.0599409
11
7.59553
21
0.0599409
0
LINE
8
BLACK
6
CONTINUOUS
10
7.57244
20
0.0599409
11
7.59553
21
0.0155904
0
LINE
8
BLACK
6
CONTINUOUS
10
7.57244
20
0.0599409
11
7.54935
21
0.0155904
0
LINE
8
BLACK
6
CONTINUOUS
10
7.57244
20
-0.1875
11
7.59553
21
-0.143149
0
LINE
8
BLACK
6
CONTINUOUS
10
7.57244
20
-0.1875
11
7.54935
21
-0.143149
0
LINE
8
BLACK
6
CONTINUOUS
10
7.58907
20
-0.50696
11
7.58907
21
-0.482588
0
LINE
8
BLACK
6
CONTINUOUS
10
7.58907
20
-0.482588
11
7.60407
21
-0.495711
0
LINE
8
BLACK
6
CONTINUOUS
10
7.60407
20
-0.495711
11
7.60407
21
-0.490087
0
LINE
8
BLACK
6
CONTINUOUS
10
7.60407
20
-0.490087
11
7.60594
21
-0.486338
0
LINE
8
BLACK
6
CONTINUOUS
10
7.60594
20
-0.486338
11
7.60782
21
-0.484463
0
LINE
8
BLACK
6
CONTINUOUS
10
7.60782
20
-0.484463
11
7.61157
21
-0.482588
0
LINE
8
BLACK
6
CONTINUOUS
10
7.61157
20
-0.482588
11
7.62094
21
-0.482588
0
LINE
8
BLACK
6
CONTINUOUS
10
7.62094
20
-0.482588
11
7.62469
21
-0.484463
0
LINE
8
BLACK
6
CONTINUOUS
10
7.62469
20
-0.484463
11
7.62657
21
-0.486338
0
LINE
8
BLACK
6
CONTINUOUS
10
7.62657
20
-0.486338
11
7.62844
21
-0.490087
0
LINE
8
BLACK
6
CONTINUOUS
10
7.62844
20
-0.490087
11
7.62844
21
-0.501336
0
LINE
8
BLACK
6
CONTINUOUS
10
7.62844
20
-0.501336
11
7.62657
21
-0.505085
0
LINE
8
BLACK
6
CONTINUOUS
10
7.62657
20
-0.505085
11
7.62469
21
-0.50696
0
LINE
8
BLACK
6
CONTINUOUS
10
7.62469
20
-0.465715
11
7.62657
21
-0.46384
0
LINE
8
BLACK
6
CONTINUOUS
10
7.62657
20
-0.46384
11
7.62844
21
-0.465715
0
LINE
8
BLACK
6
CONTINUOUS
10
7.62844
20
-0.465715
11
7.62657
21
-0.46759
0
LINE
8
BLACK
6
CONTINUOUS
10
7.62657
20
-0.46759
11
7.62469
21
-0.465715
0
LINE
8
BLACK
6
CONTINUOUS
10
7.62469
20
-0.465715
11
7.62844
21
-0.465715
0
LINE
8
BLACK
6
CONTINUOUS
10
7.59282
20
-0.448842
11
7.59094
21
-0.446968
0
LINE
8
BLACK
6
CONTINUOUS
10
7.59094
20
-0.446968
11
7.58907
21
-0.443218
0
LINE
8
BLACK
6
CONTINUOUS
10
7.58907
20
-0.443218
11
7.58907
21
-0.433844
0
LINE
8
BLACK
6
CONTINUOUS
10
7.58907
20
-0.433844
11
7.59094
21
-0.430095
0
LINE
8
BLACK
6
CONTINUOUS
10
7.59094
20
-0.430095
11
7.59282
21
-0.42822
0
LINE
8
BLACK
6
CONTINUOUS
10
7.59282
20
-0.42822
11
7.59657
21
-0.426345
0
LINE
8
BLACK
6
CONTINUOUS
10
7.59657
20
-0.426345
11
7.60032
21
-0.426345
0
LINE
8
BLACK
6
CONTINUOUS
10
7.60032
20
-0.426345
11
7.60594
21
-0.42822
0
LINE
8
BLACK
6
CONTINUOUS
10
7.60594
20
-0.42822
11
7.62844
21
-0.450717
0
LINE
8
BLACK
6
CONTINUOUS
10
7.62844
20
-0.450717
11
7.62844
21
-0.426345
0
LINE
8
BLACK
6
CONTINUOUS
10
7.58907
20
-0.413222
11
7.58907
21
-0.38885
0
LINE
8
BLACK
6
CONTINUOUS
10
7.58907
20
-0.38885
11
7.60407
21
-0.401973
0
LINE
8
BLACK
6
CONTINUOUS
10
7.60407
20
-0.401973
11
7.60407
21
-0.396349
0
LINE
8
BLACK
6
CONTINUOUS
10
7.60407
20
-0.396349
11
7.60594
21
-0.392599
0
LINE
8
BLACK
6
CONTINUOUS
10
7.60594
20
-0.392599
11
7.60782
21
-0.390725
0
LINE
8
BLACK
6
CONTINUOUS
10
7.60782
20
-0.390725
11
7.61157
21
-0.38885
0
LINE
8
BLACK
6
CONTINUOUS
10
7.61157
20
-0.38885
11
7.62094
21
-0.38885
0
LINE
8
BLACK
6
CONTINUOUS
10
7.62094
20
-0.38885
11
7.62469
21
-0.390725
0
LINE
8
BLACK
6
CONTINUOUS
10
7.62469
20
-0.390725
11
7.62657
21
-0.392599
0
LINE
8
BLACK
6
CONTINUOUS
10
7.62657
20
-0.392599
11
7.62844
21
-0.396349
0
LINE
8
BLACK
6
CONTINUOUS
10
7.62844
20
-0.396349
11
7.62844
21
-0.407597
0
LINE
8
BLACK
6
CONTINUOUS
10
7.62844
20
-0.407597
11
7.62657
21
-0.411347
0
LINE
8
BLACK
6
CONTINUOUS
10
7.62657
20
-0.411347
11
7.62469
21
-0.413222
0
LINE
8
BLACK
6
CONTINUOUS
10
7.58907
20
-0.364478
11
7.58907
21
-0.360728
0
LINE
8
BLACK
6
CONTINUOUS
10
7.58907
20
-0.360728
11
7.59094
21
-0.356979
0
LINE
8
BLACK
6
CONTINUOUS
10
7.59094
20
-0.356979
11
7.59282
21
-0.355104
0
LINE
8
BLACK
6
CONTINUOUS
10
7.59282
20
-0.355104
11
7.59657
21
-0.353229
0
LINE
8
BLACK
6
CONTINUOUS
10
7.59657
20
-0.353229
11
7.60407
21
-0.351354
0
LINE
8
BLACK
6
CONTINUOUS
10
7.60407
20
-0.351354
11
7.61344
21
-0.351354
0
LINE
8
BLACK
6
CONTINUOUS
10
7.61344
20
-0.351354
11
7.62094
21
-0.353229
0
LINE
8
BLACK
6
CONTINUOUS
10
7.62094
20
-0.353229
11
7.62469
21
-0.355104
0
LINE
8
BLACK
6
CONTINUOUS
10
7.62469
20
-0.355104
11
7.62657
21
-0.356979
0
LINE
8
BLACK
6
CONTINUOUS
10
7.62657
20
-0.356979
11
7.62844
21
-0.360728
0
LINE
8
BLACK
6
CONTINUOUS
10
7.62844
20
-0.360728
11
7.62844
21
-0.364478
0
LINE
8
BLACK
6
CONTINUOUS
10
7.62844
20
-0.364478
11
7.62657
21
-0.368227
0
LINE
8
BLACK
6
CONTINUOUS
10
7.62657
20
-0.368227
11
7.62469
21
-0.370102
0
LINE
8
BLACK
6
CONTINUOUS
10
7.62469
20
-0.370102
11
7.62094
21
-0.371977
0
LINE
8
BLACK
6
CONTINUOUS
10
7.62094
20
-0.371977
11
7.61344
21
-0.373852
0
LINE
8
BLACK
6
CONTINUOUS
10
7.61344
20
-0.373852
11
7.60407
21
-0.373852
0
LINE
8
BLACK
6
CONTINUOUS
10
7.60407
20
-0.373852
11
7.59657
21
-0.371977
0
LINE
8
BLACK
6
CONTINUOUS
10
7.59657
20
-0.371977
11
7.59282
21
-0.370102
0
LINE
8
BLACK
6
CONTINUOUS
10
7.59282
20
-0.370102
11
7.59094
21
-0.368227
0
LINE
8
BLACK
6
CONTINUOUS
10
7.59094
20
-0.368227
11
7.58907
21
-0.364478
0
LINE
8
BLACK
6
CONTINUOUS
10
7.62844
20
-0.304485
11
7.60219
21
-0.304485
0
LINE
8
BLACK
6
CONTINUOUS
10
7.60594
20
-0.304485
11
7.60407
21
-0.302611
0
LINE
8
BLACK
6
CONTINUOUS
10
7.60407
20
-0.302611
11
7.60219
21
-0.298861
0
LINE
8
BLACK
6
CONTINUOUS
10
7.60219
20
-0.298861
11
7.60219
21
-0.293237
0
LINE
8
BLACK
6
CONTINUOUS
10
7.60219
20
-0.293237
11
7.60407
21
-0.289487
0
LINE
8
BLACK
6
CONTINUOUS
10
7.60407
20
-0.289487
11
7.60782
21
-0.287612
0
LINE
8
BLACK
6
CONTINUOUS
10
7.60782
20
-0.287612
11
7.62844
21
-0.287612
0
LINE
8
BLACK
6
CONTINUOUS
10
7.60782
20
-0.287612
11
7.60407
21
-0.285738
0
LINE
8
BLACK
6
CONTINUOUS
10
7.60407
20
-0.285738
11
7.60219
21
-0.281988
0
LINE
8
BLACK
6
CONTINUOUS
10
7.60219
20
-0.281988
11
7.60219
21
-0.276364
0
LINE
8
BLACK
6
CONTINUOUS
10
7.60219
20
-0.276364
11
7.60407
21
-0.272614
0
LINE
8
BLACK
6
CONTINUOUS
10
7.60407
20
-0.272614
11
7.60782
21
-0.27074
0
LINE
8
BLACK
6
CONTINUOUS
10
7.60782
20
-0.27074
11
7.62844
21
-0.27074
0
LINE
8
BLACK
6
CONTINUOUS
10
7.62844
20
-0.251992
11
7.60219
21
-0.251992
0
LINE
8
BLACK
6
CONTINUOUS
10
7.60594
20
-0.251992
11
7.60407
21
-0.250117
0
LINE
8
BLACK
6
CONTINUOUS
10
7.60407
20
-0.250117
11
7.60219
21
-0.246368
0
LINE
8
BLACK
6
CONTINUOUS
10
7.60219
20
-0.246368
11
7.60219
21
-0.240743
0
LINE
8
BLACK
6
CONTINUOUS
10
7.60219
20
-0.240743
11
7.60407
21
-0.236994
0
LINE
8
BLACK
6
CONTINUOUS
10
7.60407
20
-0.236994
11
7.60782
21
-0.235119
0
LINE
8
BLACK
6
CONTINUOUS
10
7.60782
20
-0.235119
11
7.62844
21
-0.235119
0
LINE
8
BLACK
6
CONTINUOUS
10
7.60782
20
-0.235119
11
7.60407
21
-0.233244
0
LINE
8
BLACK
6
CONTINUOUS
10
7.60407
20
-0.233244
11
7.60219
21
-0.229495
0
LINE
8
BLACK
6
CONTINUOUS
10
7.60219
20
-0.229495
11
7.60219
21
-0.22387
0
LINE
8
BLACK
6
CONTINUOUS
10
7.60219
20
-0.22387
11
7.60407
21
-0.220121
0
LINE
8
BLACK
6
CONTINUOUS
10
7.60407
20
-0.220121
11
7.60782
21
-0.218246
0
LINE
8
BLACK
6
CONTINUOUS
10
7.60782
20
-0.218246
11
7.62844
21
-0.218246
0
LINE
8
BLACK
6
CONTINUOUS
10
7.56339
20
-0.424311
11
7.56339
21
-0.297146
0
LINE
8
BLACK
6
CONTINUOUS
10
7.51474
20
-0.424311
11
7.58647
21
-0.424311
0
LINE
8
BLACK
6
CONTINUOUS
10
7.51474
20
-0.297146
11
7.58647
21
-0.297146
0
LINE
8
BLACK
6
CONTINUOUS
10
7.56339
20
-0.297146
11
7.58647
21
-0.341496
0
LINE
8
BLACK
6
CONTINUOUS
10
7.56339
20
-0.297146
11
7.5403
21
-0.341496
0
LINE
8
BLACK
6
CONTINUOUS
10
7.56339
20
-0.424311
11
7.58647
21
-0.37996
0
LINE
8
BLACK
6
CONTINUOUS
10
7.56339
20
-0.424311
11
7.5403
21
-0.37996
0
LINE
8
BLACK
6
CONTINUOUS
10
7.17752
20
-0.512298
11
7.17002
21
-0.512298
0
LINE
8
BLACK
6
CONTINUOUS
10
7.17002
20
-0.512298
11
7.16627
21
-0.514173
0
LINE
8
BLACK
6
CONTINUOUS
10
7.16627
20
-0.514173
11
7.1644
21
-0.516048
0
LINE
8
BLACK
6
CONTINUOUS
10
7.1644
20
-0.516048
11
7.16065
21
-0.521672
0
LINE
8
BLACK
6
CONTINUOUS
10
7.16065
20
-0.521672
11
7.15877
21
-0.529171
0
LINE
8
BLACK
6
CONTINUOUS
10
7.15877
20
-0.529171
11
7.15877
21
-0.544169
0
LINE
8
BLACK
6
CONTINUOUS
10
7.15877
20
-0.544169
11
7.16065
21
-0.547919
0
LINE
8
BLACK
6
CONTINUOUS
10
7.16065
20
-0.547919
11
7.16252
21
-0.549794
0
LINE
8
BLACK
6
CONTINUOUS
10
7.16252
20
-0.549794
11
7.16627
21
-0.551669
0
LINE
8
BLACK
6
CONTINUOUS
10
7.16627
20
-0.551669
11
7.17377
21
-0.551669
0
LINE
8
BLACK
6
CONTINUOUS
10
7.17377
20
-0.551669
11
7.17752
21
-0.549794
0
LINE
8
BLACK
6
CONTINUOUS
10
7.17752
20
-0.549794
11
7.1794
21
-0.547919
0
LINE
8
BLACK
6
CONTINUOUS
10
7.1794
20
-0.547919
11
7.18127
21
-0.544169
0
LINE
8
BLACK
6
CONTINUOUS
10
7.18127
20
-0.544169
11
7.18127
21
-0.534796
0
LINE
8
BLACK
6
CONTINUOUS
10
7.18127
20
-0.534796
11
7.1794
21
-0.531046
0
LINE
8
BLACK
6
CONTINUOUS
10
7.1794
20
-0.531046
11
7.17752
21
-0.529171
0
LINE
8
BLACK
6
CONTINUOUS
10
7.17752
20
-0.529171
11
7.17377
21
-0.527297
0
LINE
8
BLACK
6
CONTINUOUS
10
7.17377
20
-0.527297
11
7.16627
21
-0.527297
0
LINE
8
BLACK
6
CONTINUOUS
10
7.16627
20
-0.527297
11
7.16252
21
-0.529171
0
LINE
8
BLACK
6
CONTINUOUS
10
7.16252
20
-0.529171
11
7.16065
21
-0.531046
0
LINE
8
BLACK
6
CONTINUOUS
10
7.16065
20
-0.531046
11
7.15877
21
-0.534796
0
LINE
8
BLACK
6
CONTINUOUS
10
7.19814
20
-0.547919
11
7.20002
21
-0.549794
0
LINE
8
BLACK
6
CONTINUOUS
10
7.20002
20
-0.549794
11
7.19814
21
-0.551669
0
LINE
8
BLACK
6
CONTINUOUS
10
7.19814
20
-0.551669
11
7.19627
21
-0.549794
0
LINE
8
BLACK
6
CONTINUOUS
10
7.19627
20
-0.549794
11
7.19814
21
-0.547919
0
LINE
8
BLACK
6
CONTINUOUS
10
7.19814
20
-0.547919
11
7.19814
21
-0.551669
0
LINE
8
BLACK
6
CONTINUOUS
10
7.21314
20
-0.512298
11
7.23939
21
-0.512298
0
LINE
8
BLACK
6
CONTINUOUS
10
7.23939
20
-0.512298
11
7.22251
21
-0.551669
0
LINE
8
BLACK
6
CONTINUOUS
10
7.27313
20
-0.512298
11
7.25439
21
-0.512298
0
LINE
8
BLACK
6
CONTINUOUS
10
7.25439
20
-0.512298
11
7.25251
21
-0.531046
0
LINE
8
BLACK
6
CONTINUOUS
10
7.25251
20
-0.531046
11
7.25439
21
-0.529171
0
LINE
8
BLACK
6
CONTINUOUS
10
7.25439
20
-0.529171
11
7.25814
21
-0.527297
0
LINE
8
BLACK
6
CONTINUOUS
10
7.25814
20
-0.527297
11
7.26751
21
-0.527297
0
LINE
8
BLACK
6
CONTINUOUS
10
7.26751
20
-0.527297
11
7.27126
21
-0.529171
0
LINE
8
BLACK
6
CONTINUOUS
10
7.27126
20
-0.529171
11
7.27313
21
-0.531046
0
LINE
8
BLACK
6
CONTINUOUS
10
7.27313
20
-0.531046
11
7.27501
21
-0.534796
0
LINE
8
BLACK
6
CONTINUOUS
10
7.27501
20
-0.534796
11
7.27501
21
-0.544169
0
LINE
8
BLACK
6
CONTINUOUS
10
7.27501
20
-0.544169
11
7.27313
21
-0.547919
0
LINE
8
BLACK
6
CONTINUOUS
10
7.27313
20
-0.547919
11
7.27126
21
-0.549794
0
LINE
8
BLACK
6
CONTINUOUS
10
7.27126
20
-0.549794
11
7.26751
21
-0.551669
0
LINE
8
BLACK
6
CONTINUOUS
10
7.26751
20
-0.551669
11
7.25814
21
-0.551669
0
LINE
8
BLACK
6
CONTINUOUS
10
7.25814
20
-0.551669
11
7.25439
21
-0.549794
0
LINE
8
BLACK
6
CONTINUOUS
10
7.25439
20
-0.549794
11
7.25251
21
-0.547919
0
LINE
8
BLACK
6
CONTINUOUS
10
7.29938
20
-0.512298
11
7.30313
21
-0.512298
0
LINE
8
BLACK
6
CONTINUOUS
10
7.30313
20
-0.512298
11
7.30688
21
-0.514173
0
LINE
8
BLACK
6
CONTINUOUS
10
7.30688
20
-0.514173
11
7.30875
21
-0.516048
0
LINE
8
BLACK
6
CONTINUOUS
10
7.30875
20
-0.516048
11
7.31063
21
-0.519798
0
LINE
8
BLACK
6
CONTINUOUS
10
7.31063
20
-0.519798
11
7.3125
21
-0.527297
0
LINE
8
BLACK
6
CONTINUOUS
10
7.3125
20
-0.527297
11
7.3125
21
-0.53667
0
LINE
8
BLACK
6
CONTINUOUS
10
7.3125
20
-0.53667
11
7.31063
21
-0.544169
0
LINE
8
BLACK
6
CONTINUOUS
10
7.31063
20
-0.544169
11
7.30875
21
-0.547919
0
LINE
8
BLACK
6
CONTINUOUS
10
7.30875
20
-0.547919
11
7.30688
21
-0.549794
0
LINE
8
BLACK
6
CONTINUOUS
10
7.30688
20
-0.549794
11
7.30313
21
-0.551669
0
LINE
8
BLACK
6
CONTINUOUS
10
7.30313
20
-0.551669
11
7.29938
21
-0.551669
0
LINE
8
BLACK
6
CONTINUOUS
10
7.29938
20
-0.551669
11
7.29563
21
-0.549794
0
LINE
8
BLACK
6
CONTINUOUS
10
7.29563
20
-0.549794
11
7.29376
21
-0.547919
0
LINE
8
BLACK
6
CONTINUOUS
10
7.29376
20
-0.547919
11
7.29188
21
-0.544169
0
LINE
8
BLACK
6
CONTINUOUS
10
7.29188
20
-0.544169
11
7.29001
21
-0.53667
0
LINE
8
BLACK
6
CONTINUOUS
10
7.29001
20
-0.53667
11
7.29001
21
-0.527297
0
LINE
8
BLACK
6
CONTINUOUS
10
7.29001
20
-0.527297
11
7.29188
21
-0.519798
0
LINE
8
BLACK
6
CONTINUOUS
10
7.29188
20
-0.519798
11
7.29376
21
-0.516048
0
LINE
8
BLACK
6
CONTINUOUS
10
7.29376
20
-0.516048
11
7.29563
21
-0.514173
0
LINE
8
BLACK
6
CONTINUOUS
10
7.29563
20
-0.514173
11
7.29938
21
-0.512298
0
LINE
8
BLACK
6
CONTINUOUS
10
7.35937
20
-0.551669
11
7.35937
21
-0.525422
0
LINE
8
BLACK
6
CONTINUOUS
10
7.35937
20
-0.529171
11
7.36125
21
-0.527297
0
LINE
8
BLACK
6
CONTINUOUS
10
7.36125
20
-0.527297
11
7.365
21
-0.525422
0
LINE
8
BLACK
6
CONTINUOUS
10
7.365
20
-0.525422
11
7.37062
21
-0.525422
0
LINE
8
BLACK
6
CONTINUOUS
10
7.37062
20
-0.525422
11
7.37437
21
-0.527297
0
LINE
8
BLACK
6
CONTINUOUS
10
7.37437
20
-0.527297
11
7.37625
21
-0.531046
0
LINE
8
BLACK
6
CONTINUOUS
10
7.37625
20
-0.531046
11
7.37625
21
-0.551669
0
LINE
8
BLACK
6
CONTINUOUS
10
7.37625
20
-0.531046
11
7.37812
21
-0.527297
0
LINE
8
BLACK
6
CONTINUOUS
10
7.37812
20
-0.527297
11
7.38187
21
-0.525422
0
LINE
8
BLACK
6
CONTINUOUS
10
7.38187
20
-0.525422
11
7.38749
21
-0.525422
0
LINE
8
BLACK
6
CONTINUOUS
10
7.38749
20
-0.525422
11
7.39124
21
-0.527297
0
LINE
8
BLACK
6
CONTINUOUS
10
7.39124
20
-0.527297
11
7.39312
21
-0.531046
0
LINE
8
BLACK
6
CONTINUOUS
10
7.39312
20
-0.531046
11
7.39312
21
-0.551669
0
LINE
8
BLACK
6
CONTINUOUS
10
7.41187
20
-0.551669
11
7.41187
21
-0.525422
0
LINE
8
BLACK
6
CONTINUOUS
10
7.41187
20
-0.529171
11
7.41374
21
-0.527297
0
LINE
8
BLACK
6
CONTINUOUS
10
7.41374
20
-0.527297
11
7.41749
21
-0.525422
0
LINE
8
BLACK
6
CONTINUOUS
10
7.41749
20
-0.525422
11
7.42311
21
-0.525422
0
LINE
8
BLACK
6
CONTINUOUS
10
7.42311
20
-0.525422
11
7.42686
21
-0.527297
0
LINE
8
BLACK
6
CONTINUOUS
10
7.42686
20
-0.527297
11
7.42874
21
-0.531046
0
LINE
8
BLACK
6
CONTINUOUS
10
7.42874
20
-0.531046
11
7.42874
21
-0.551669
0
LINE
8
BLACK
6
CONTINUOUS
10
7.42874
20
-0.531046
11
7.43061
21
-0.527297
0
LINE
8
BLACK
6
CONTINUOUS
10
7.43061
20
-0.527297
11
7.43436
21
-0.525422
0
LINE
8
BLACK
6
CONTINUOUS
10
7.43436
20
-0.525422
11
7.43999
21
-0.525422
0
LINE
8
BLACK
6
CONTINUOUS
10
7.43999
20
-0.525422
11
7.44374
21
-0.527297
0
LINE
8
BLACK
6
CONTINUOUS
10
7.44374
20
-0.527297
11
7.44561
21
-0.531046
0
LINE
8
BLACK
6
CONTINUOUS
10
7.44561
20
-0.531046
11
7.44561
21
-0.551669
0
LINE
8
BLACK
6
CONTINUOUS
10
7.436
20
-0.486614
11
7.17026
21
-0.486614
0
LINE
8
BLACK
6
CONTINUOUS
10
7.436
20
-0.463681
11
7.436
21
-0.509702
0
LINE
8
BLACK
6
CONTINUOUS
10
7.17026
20
-0.463681
11
7.17026
21
-0.509702
0
LINE
8
BLACK
6
CONTINUOUS
10
7.17026
20
-0.486614
11
7.21461
21
-0.463527
0
LINE
8
BLACK
6
CONTINUOUS
10
7.17026
20
-0.486614
11
7.21461
21
-0.509702
0
LINE
8
BLACK
6
CONTINUOUS
10
7.436
20
-0.486614
11
7.39165
21
-0.463527
0
LINE
8
BLACK
6
CONTINUOUS
10
7.436
20
-0.486614
11
7.39165
21
-0.509702
0
LINE
8
BLACK
6
CONTINUOUS
10
7.1569
20
0.21093
11
7.18127
21
0.21093
0
LINE
8
BLACK
6
CONTINUOUS
10
7.18127
20
0.21093
11
7.16815
21
0.195932
0
LINE
8
BLACK
6
CONTINUOUS
10
7.16815
20
0.195932
11
7.17377
21
0.195932
0
LINE
8
BLACK
6
CONTINUOUS
10
7.17377
20
0.195932
11
7.17752
21
0.194057
0
LINE
8
BLACK
6
CONTINUOUS
10
7.17752
20
0.194057
11
7.1794
21
0.192182
0
LINE
8
BLACK
6
CONTINUOUS
10
7.1794
20
0.192182
11
7.18127
21
0.188433
0
LINE
8
BLACK
6
CONTINUOUS
10
7.18127
20
0.188433
11
7.18127
21
0.179059
0
LINE
8
BLACK
6
CONTINUOUS
10
7.18127
20
0.179059
11
7.1794
21
0.175309
0
LINE
8
BLACK
6
CONTINUOUS
10
7.1794
20
0.175309
11
7.17752
21
0.173435
0
LINE
8
BLACK
6
CONTINUOUS
10
7.17752
20
0.173435
11
7.17377
21
0.17156
0
LINE
8
BLACK
6
CONTINUOUS
10
7.17377
20
0.17156
11
7.16252
21
0.17156
0
LINE
8
BLACK
6
CONTINUOUS
10
7.16252
20
0.17156
11
7.15877
21
0.173435
0
LINE
8
BLACK
6
CONTINUOUS
10
7.15877
20
0.173435
11
7.1569
21
0.175309
0
LINE
8
BLACK
6
CONTINUOUS
10
7.19814
20
0.175309
11
7.20002
21
0.173435
0
LINE
8
BLACK
6
CONTINUOUS
10
7.20002
20
0.173435
11
7.19814
21
0.17156
0
LINE
8
BLACK
6
CONTINUOUS
10
7.19814
20
0.17156
11
7.19627
21
0.173435
0
LINE
8
BLACK
6
CONTINUOUS
10
7.19627
20
0.173435
11
7.19814
21
0.175309
0
LINE
8
BLACK
6
CONTINUOUS
10
7.19814
20
0.175309
11
7.19814
21
0.17156
0
LINE
8
BLACK
6
CONTINUOUS
10
7.21314
20
0.21093
11
7.23751
21
0.21093
0
LINE
8
BLACK
6
CONTINUOUS
10
7.23751
20
0.21093
11
7.22439
21
0.195932
0
LINE
8
BLACK
6
CONTINUOUS
10
7.22439
20
0.195932
11
7.23001
21
0.195932
0
LINE
8
BLACK
6
CONTINUOUS
10
7.23001
20
0.195932
11
7.23376
21
0.194057
0
LINE
8
BLACK
6
CONTINUOUS
10
7.23376
20
0.194057
11
7.23564
21
0.192182
0
LINE
8
BLACK
6
CONTINUOUS
10
7.23564
20
0.192182
11
7.23751
21
0.188433
0
LINE
8
BLACK
6
CONTINUOUS
10
7.23751
20
0.188433
11
7.23751
21
0.179059
0
LINE
8
BLACK
6
CONTINUOUS
10
7.23751
20
0.179059
11
7.23564
21
0.175309
0
LINE
8
BLACK
6
CONTINUOUS
10
7.23564
20
0.175309
11
7.23376
21
0.173435
0
LINE
8
BLACK
6
CONTINUOUS
10
7.23376
20
0.173435
11
7.23001
21
0.17156
0
LINE
8
BLACK
6
CONTINUOUS
10
7.23001
20
0.17156
11
7.21877
21
0.17156
0
LINE
8
BLACK
6
CONTINUOUS
10
7.21877
20
0.17156
11
7.21502
21
0.173435
0
LINE
8
BLACK
6
CONTINUOUS
10
7.21502
20
0.173435
11
7.21314
21
0.175309
0
LINE
8
BLACK
6
CONTINUOUS
10
7.26189
20
0.21093
11
7.26563
21
0.21093
0
LINE
8
BLACK
6
CONTINUOUS
10
7.26563
20
0.21093
11
7.26938
21
0.209055
0
LINE
8
BLACK
6
CONTINUOUS
10
7.26938
20
0.209055
11
7.27126
21
0.20718
0
LINE
8
BLACK
6
CONTINUOUS
10
7.27126
20
0.20718
11
7.27313
21
0.203431
0
LINE
8
BLACK
6
CONTINUOUS
10
7.27313
20
0.203431
11
7.27501
21
0.195932
0
LINE
8
BLACK
6
CONTINUOUS
10
7.27501
20
0.195932
11
7.27501
21
0.186558
0
LINE
8
BLACK
6
CONTINUOUS
10
7.27501
20
0.186558
11
7.27313
21
0.179059
0
LINE
8
BLACK
6
CONTINUOUS
10
7.27313
20
0.179059
11
7.27126
21
0.175309
0
LINE
8
BLACK
6
CONTINUOUS
10
7.27126
20
0.175309
11
7.26938
21
0.173435
0
LINE
8
BLACK
6
CONTINUOUS
10
7.26938
20
0.173435
11
7.26563
21
0.17156
0
LINE
8
BLACK
6
CONTINUOUS
10
7.26563
20
0.17156
11
7.26189
21
0.17156
0
LINE
8
BLACK
6
CONTINUOUS
10
7.26189
20
0.17156
11
7.25814
21
0.173435
0
LINE
8
BLACK
6
CONTINUOUS
10
7.25814
20
0.173435
11
7.25626
21
0.175309
0
LINE
8
BLACK
6
CONTINUOUS
10
7.25626
20
0.175309
11
7.25439
21
0.179059
0
LINE
8
BLACK
6
CONTINUOUS
10
7.25439
20
0.179059
11
7.25251
21
0.186558
0
LINE
8
BLACK
6
CONTINUOUS
10
7.25251
20
0.186558
11
7.25251
21
0.195932
0
LINE
8
BLACK
6
CONTINUOUS
10
7.25251
20
0.195932
11
7.25439
21
0.203431
0
LINE
8
BLACK
6
CONTINUOUS
10
7.25439
20
0.203431
11
7.25626
21
0.20718
0
LINE
8
BLACK
6
CONTINUOUS
10
7.25626
20
0.20718
11
7.25814
21
0.209055
0
LINE
8
BLACK
6
CONTINUOUS
10
7.25814
20
0.209055
11
7.26189
21
0.21093
0
LINE
8
BLACK
6
CONTINUOUS
10
7.29938
20
0.21093
11
7.30313
21
0.21093
0
LINE
8
BLACK
6
CONTINUOUS
10
7.30313
20
0.21093
11
7.30688
21
0.209055
0
LINE
8
BLACK
6
CONTINUOUS
10
7.30688
20
0.209055
11
7.30875
21
0.20718
0
LINE
8
BLACK
6
CONTINUOUS
10
7.30875
20
0.20718
11
7.31063
21
0.203431
0
LINE
8
BLACK
6
CONTINUOUS
10
7.31063
20
0.203431
11
7.3125
21
0.195932
0
LINE
8
BLACK
6
CONTINUOUS
10
7.3125
20
0.195932
11
7.3125
21
0.186558
0
LINE
8
BLACK
6
CONTINUOUS
10
7.3125
20
0.186558
11
7.31063
21
0.179059
0
LINE
8
BLACK
6
CONTINUOUS
10
7.31063
20
0.179059
11
7.30875
21
0.175309
0
LINE
8
BLACK
6
CONTINUOUS
10
7.30875
20
0.175309
11
7.30688
21
0.173435
0
LINE
8
BLACK
6
CONTINUOUS
10
7.30688
20
0.173435
11
7.30313
21
0.17156
0
LINE
8
BLACK
6
CONTINUOUS
10
7.30313
20
0.17156
11
7.29938
21
0.17156
0
LINE
8
BLACK
6
CONTINUOUS
10
7.29938
20
0.17156
11
7.29563
21
0.173435
0
LINE
8
BLACK
6
CONTINUOUS
10
7.29563
20
0.173435
11
7.29376
21
0.175309
0
LINE
8
BLACK
6
CONTINUOUS
10
7.29376
20
0.175309
11
7.29188
21
0.179059
0
LINE
8
BLACK
6
CONTINUOUS
10
7.29188
20
0.179059
11
7.29001
21
0.186558
0
LINE
8
BLACK
6
CONTINUOUS
10
7.29001
20
0.186558
11
7.29001
21
0.195932
0
LINE
8
BLACK
6
CONTINUOUS
10
7.29001
20
0.195932
11
7.29188
21
0.203431
0
LINE
8
BLACK
6
CONTINUOUS
10
7.29188
20
0.203431
11
7.29376
21
0.20718
0
LINE
8
BLACK
6
CONTINUOUS
10
7.29376
20
0.20718
11
7.29563
21
0.209055
0
LINE
8
BLACK
6
CONTINUOUS
10
7.29563
20
0.209055
11
7.29938
21
0.21093
0
LINE
8
BLACK
6
CONTINUOUS
10
7.35937
20
0.17156
11
7.35937
21
0.197806
0
LINE
8
BLACK
6
CONTINUOUS
10
7.35937
20
0.194057
11
7.36125
21
0.195932
0
LINE
8
BLACK
6
CONTINUOUS
10
7.36125
20
0.195932
11
7.365
21
0.197806
0
LINE
8
BLACK
6
CONTINUOUS
10
7.365
20
0.197806
11
7.37062
21
0.197806
0
LINE
8
BLACK
6
CONTINUOUS
10
7.37062
20
0.197806
11
7.37437
21
0.195932
0
LINE
8
BLACK
6
CONTINUOUS
10
7.37437
20
0.195932
11
7.37625
21
0.192182
0
LINE
8
BLACK
6
CONTINUOUS
10
7.37625
20
0.192182
11
7.37625
21
0.17156
0
LINE
8
BLACK
6
CONTINUOUS
10
7.37625
20
0.192182
11
7.37812
21
0.195932
0
LINE
8
BLACK
6
CONTINUOUS
10
7.37812
20
0.195932
11
7.38187
21
0.197806
0
LINE
8
BLACK
6
CONTINUOUS
10
7.38187
20
0.197806
11
7.38749
21
0.197806
0
LINE
8
BLACK
6
CONTINUOUS
10
7.38749
20
0.197806
11
7.39124
21
0.195932
0
LINE
8
BLACK
6
CONTINUOUS
10
7.39124
20
0.195932
11
7.39312
21
0.192182
0
LINE
8
BLACK
6
CONTINUOUS
10
7.39312
20
0.192182
11
7.39312
21
0.17156
0
LINE
8
BLACK
6
CONTINUOUS
10
7.41187
20
0.17156
11
7.41187
21
0.197806
0
LINE
8
BLACK
6
CONTINUOUS
10
7.41187
20
0.194057
11
7.41374
21
0.195932
0
LINE
8
BLACK
6
CONTINUOUS
10
7.41374
20
0.195932
11
7.41749
21
0.197806
0
LINE
8
BLACK
6
CONTINUOUS
10
7.41749
20
0.197806
11
7.42311
21
0.197806
0
LINE
8
BLACK
6
CONTINUOUS
10
7.42311
20
0.197806
11
7.42686
21
0.195932
0
LINE
8
BLACK
6
CONTINUOUS
10
7.42686
20
0.195932
11
7.42874
21
0.192182
0
LINE
8
BLACK
6
CONTINUOUS
10
7.42874
20
0.192182
11
7.42874
21
0.17156
0
LINE
8
BLACK
6
CONTINUOUS
10
7.42874
20
0.192182
11
7.43061
21
0.195932
0
LINE
8
BLACK
6
CONTINUOUS
10
7.43061
20
0.195932
11
7.43436
21
0.197806
0
LINE
8
BLACK
6
CONTINUOUS
10
7.43436
20
0.197806
11
7.43999
21
0.197806
0
LINE
8
BLACK
6
CONTINUOUS
10
7.43999
20
0.197806
11
7.44374
21
0.195932
0
LINE
8
BLACK
6
CONTINUOUS
10
7.44374
20
0.195932
11
7.44561
21
0.192182
0
LINE
8
BLACK
6
CONTINUOUS
10
7.44561
20
0.192182
11
7.44561
21
0.17156
0
LINE
8
BLACK
6
CONTINUOUS
10
7.23817
20
0.142126
11
7.36809
21
0.142126
0
LINE
8
BLACK
6
CONTINUOUS
10
7.23817
20
0.12687
11
7.23817
21
0.165213
0
LINE
8
BLACK
6
CONTINUOUS
10
7.36809
20
0.12687
11
7.36809
21
0.165213
0
LINE
8
BLACK
6
CONTINUOUS
10
7.36809
20
0.142126
11
7.32374
21
0.119039
0
LINE
8
BLACK
6
CONTINUOUS
10
7.36809
20
0.142126
11
7.32374
21
0.165213
0
LINE
8
BLACK
6
CONTINUOUS
10
7.23817
20
0.142126
11
7.28252
21
0.119039
0
LINE
8
BLACK
6
CONTINUOUS
10
7.23817
20
0.142126
11
7.28252
21
0.165213
0
LINE
8
BLACK
6
CONTINUOUS
10
6.34306
20
0.210536
11
6.32056
21
0.210536
0
LINE
8
BLACK
6
CONTINUOUS
10
6.33181
20
0.210536
11
6.33181
21
0.249906
0
LINE
8
BLACK
6
CONTINUOUS
10
6.33181
20
0.249906
11
6.32806
21
0.244282
0
LINE
8
BLACK
6
CONTINUOUS
10
6.32806
20
0.244282
11
6.32431
21
0.240532
0
LINE
8
BLACK
6
CONTINUOUS
10
6.32431
20
0.240532
11
6.32056
21
0.238658
0
LINE
8
BLACK
6
CONTINUOUS
10
6.35993
20
0.214286
11
6.36181
21
0.212411
0
LINE
8
BLACK
6
CONTINUOUS
10
6.36181
20
0.212411
11
6.35993
21
0.210536
0
LINE
8
BLACK
6
CONTINUOUS
10
6.35993
20
0.210536
11
6.35806
21
0.212411
0
LINE
8
BLACK
6
CONTINUOUS
10
6.35806
20
0.212411
11
6.35993
21
0.214286
0
LINE
8
BLACK
6
CONTINUOUS
10
6.35993
20
0.214286
11
6.35993
21
0.210536
0
LINE
8
BLACK
6
CONTINUOUS
10
6.37493
20
0.249906
11
6.40118
21
0.249906
0
LINE
8
BLACK
6
CONTINUOUS
10
6.40118
20
0.249906
11
6.38431
21
0.210536
0
LINE
8
BLACK
6
CONTINUOUS
10
6.4143
20
0.246157
11
6.41618
21
0.248031
0
LINE
8
BLACK
6
CONTINUOUS
10
6.41618
20
0.248031
11
6.41993
21
0.249906
0
LINE
8
BLACK
6
CONTINUOUS
10
6.41993
20
0.249906
11
6.4293
21
0.249906
0
LINE
8
BLACK
6
CONTINUOUS
10
6.4293
20
0.249906
11
6.43305
21
0.248031
0
LINE
8
BLACK
6
CONTINUOUS
10
6.43305
20
0.248031
11
6.43492
21
0.246157
0
LINE
8
BLACK
6
CONTINUOUS
10
6.43492
20
0.246157
11
6.4368
21
0.242407
0
LINE
8
BLACK
6
CONTINUOUS
10
6.4368
20
0.242407
11
6.4368
21
0.238658
0
LINE
8
BLACK
6
CONTINUOUS
10
6.4368
20
0.238658
11
6.43492
21
0.233033
0
LINE
8
BLACK
6
CONTINUOUS
10
6.43492
20
0.233033
11
6.41243
21
0.210536
0
LINE
8
BLACK
6
CONTINUOUS
10
6.41243
20
0.210536
11
6.4368
21
0.210536
0
LINE
8
BLACK
6
CONTINUOUS
10
6.47242
20
0.249906
11
6.45367
21
0.249906
0
LINE
8
BLACK
6
CONTINUOUS
10
6.45367
20
0.249906
11
6.4518
21
0.231159
0
LINE
8
BLACK
6
CONTINUOUS
10
6.4518
20
0.231159
11
6.45367
21
0.233033
0
LINE
8
BLACK
6
CONTINUOUS
10
6.45367
20
0.233033
11
6.45742
21
0.234908
0
LINE
8
BLACK
6
CONTINUOUS
10
6.45742
20
0.234908
11
6.4668
21
0.234908
0
LINE
8
BLACK
6
CONTINUOUS
10
6.4668
20
0.234908
11
6.47055
21
0.233033
0
LINE
8
BLACK
6
CONTINUOUS
10
6.47055
20
0.233033
11
6.47242
21
0.231159
0
LINE
8
BLACK
6
CONTINUOUS
10
6.47242
20
0.231159
11
6.4743
21
0.227409
0
LINE
8
BLACK
6
CONTINUOUS
10
6.4743
20
0.227409
11
6.4743
21
0.218035
0
LINE
8
BLACK
6
CONTINUOUS
10
6.4743
20
0.218035
11
6.47242
21
0.214286
0
LINE
8
BLACK
6
CONTINUOUS
10
6.47242
20
0.214286
11
6.47055
21
0.212411
0
LINE
8
BLACK
6
CONTINUOUS
10
6.47055
20
0.212411
11
6.4668
21
0.210536
0
LINE
8
BLACK
6
CONTINUOUS
10
6.4668
20
0.210536
11
6.45742
21
0.210536
0
LINE
8
BLACK
6
CONTINUOUS
10
6.45742
20
0.210536
11
6.45367
21
0.212411
0
LINE
8
BLACK
6
CONTINUOUS
10
6.45367
20
0.212411
11
6.4518
21
0.214286
0
LINE
8
BLACK
6
CONTINUOUS
10
6.52116
20
0.210536
11
6.52116
21
0.236783
0
LINE
8
BLACK
6
CONTINUOUS
10
6.52116
20
0.233033
11
6.52304
21
0.234908
0
LINE
8
BLACK
6
CONTINUOUS
10
6.52304
20
0.234908
11
6.52679
21
0.236783
0
LINE
8
BLACK
6
CONTINUOUS
10
6.52679
20
0.236783
11
6.53241
21
0.236783
0
LINE
8
BLACK
6
CONTINUOUS
10
6.53241
20
0.236783
11
6.53616
21
0.234908
0
LINE
8
BLACK
6
CONTINUOUS
10
6.53616
20
0.234908
11
6.53804
21
0.231159
0
LINE
8
BLACK
6
CONTINUOUS
10
6.53804
20
0.231159
11
6.53804
21
0.210536
0
LINE
8
BLACK
6
CONTINUOUS
10
6.53804
20
0.231159
11
6.53991
21
0.234908
0
LINE
8
BLACK
6
CONTINUOUS
10
6.53991
20
0.234908
11
6.54366
21
0.236783
0
LINE
8
BLACK
6
CONTINUOUS
10
6.54366
20
0.236783
11
6.54929
21
0.236783
0
LINE
8
BLACK
6
CONTINUOUS
10
6.54929
20
0.236783
11
6.55304
21
0.234908
0
LINE
8
BLACK
6
CONTINUOUS
10
6.55304
20
0.234908
11
6.55491
21
0.231159
0
LINE
8
BLACK
6
CONTINUOUS
10
6.55491
20
0.231159
11
6.55491
21
0.210536
0
LINE
8
BLACK
6
CONTINUOUS
10
6.57366
20
0.210536
11
6.57366
21
0.236783
0
LINE
8
BLACK
6
CONTINUOUS
10
6.57366
20
0.233033
11
6.57553
21
0.234908
0
LINE
8
BLACK
6
CONTINUOUS
10
6.57553
20
0.234908
11
6.57928
21
0.236783
0
LINE
8
BLACK
6
CONTINUOUS
10
6.57928
20
0.236783
11
6.58491
21
0.236783
0
LINE
8
BLACK
6
CONTINUOUS
10
6.58491
20
0.236783
11
6.58866
21
0.234908
0
LINE
8
BLACK
6
CONTINUOUS
10
6.58866
20
0.234908
11
6.59053
21
0.231159
0
LINE
8
BLACK
6
CONTINUOUS
10
6.59053
20
0.231159
11
6.59053
21
0.210536
0
LINE
8
BLACK
6
CONTINUOUS
10
6.59053
20
0.231159
11
6.59241
21
0.234908
0
LINE
8
BLACK
6
CONTINUOUS
10
6.59241
20
0.234908
11
6.59615
21
0.236783
0
LINE
8
BLACK
6
CONTINUOUS
10
6.59615
20
0.236783
11
6.60178
21
0.236783
0
LINE
8
BLACK
6
CONTINUOUS
10
6.60178
20
0.236783
11
6.60553
21
0.234908
0
LINE
8
BLACK
6
CONTINUOUS
10
6.60553
20
0.234908
11
6.6074
21
0.231159
0
LINE
8
BLACK
6
CONTINUOUS
10
6.6074
20
0.231159
11
6.6074
21
0.210536
0
LINE
8
BLACK
6
CONTINUOUS
10
6.49888
20
0.181102
11
6.43096
21
0.181102
0
LINE
8
BLACK
6
CONTINUOUS
10
6.49888
20
0.158366
11
6.49888
21
0.20419
0
LINE
8
BLACK
6
CONTINUOUS
10
6.43096
20
0.158366
11
6.43096
21
0.20419
0
LINE
8
BLACK
6
CONTINUOUS
10
6.43096
20
0.181102
11
6.47532
21
0.20419
0
LINE
8
BLACK
6
CONTINUOUS
10
6.43096
20
0.181102
11
6.47532
21
0.158015
0
LINE
8
BLACK
6
CONTINUOUS
10
6.49888
20
0.181102
11
6.45453
21
0.20419
0
LINE
8
BLACK
6
CONTINUOUS
10
6.49888
20
0.181102
11
6.45453
21
0.158015
0
LINE
8
BLACK
6
CONTINUOUS
10
6.14524
20
0.151087
11
6.12274
21
0.151087
0
LINE
8
BLACK
6
CONTINUOUS
10
6.13399
20
0.151087
11
6.13399
21
0.190457
0
LINE
8
BLACK
6
CONTINUOUS
10
6.13399
20
0.190457
11
6.13024
21
0.184833
0
LINE
8
BLACK
6
CONTINUOUS
10
6.13024
20
0.184833
11
6.12649
21
0.181084
0
LINE
8
BLACK
6
CONTINUOUS
10
6.12649
20
0.181084
11
6.12274
21
0.179209
0
LINE
8
BLACK
6
CONTINUOUS
10
6.16211
20
0.154837
11
6.16398
21
0.152962
0
LINE
8
BLACK
6
CONTINUOUS
10
6.16398
20
0.152962
11
6.16211
21
0.151087
0
LINE
8
BLACK
6
CONTINUOUS
10
6.16211
20
0.151087
11
6.16023
21
0.152962
0
LINE
8
BLACK
6
CONTINUOUS
10
6.16023
20
0.152962
11
6.16211
21
0.154837
0
LINE
8
BLACK
6
CONTINUOUS
10
6.16211
20
0.154837
11
6.16211
21
0.151087
0
LINE
8
BLACK
6
CONTINUOUS
10
6.17711
20
0.190457
11
6.20335
21
0.190457
0
LINE
8
BLACK
6
CONTINUOUS
10
6.20335
20
0.190457
11
6.18648
21
0.151087
0
LINE
8
BLACK
6
CONTINUOUS
10
6.21648
20
0.186708
11
6.21835
21
0.188583
0
LINE
8
BLACK
6
CONTINUOUS
10
6.21835
20
0.188583
11
6.2221
21
0.190457
0
LINE
8
BLACK
6
CONTINUOUS
10
6.2221
20
0.190457
11
6.23148
21
0.190457
0
LINE
8
BLACK
6
CONTINUOUS
10
6.23148
20
0.190457
11
6.23523
21
0.188583
0
LINE
8
BLACK
6
CONTINUOUS
10
6.23523
20
0.188583
11
6.2371
21
0.186708
0
LINE
8
BLACK
6
CONTINUOUS
10
6.2371
20
0.186708
11
6.23897
21
0.182958
0
LINE
8
BLACK
6
CONTINUOUS
10
6.23897
20
0.182958
11
6.23897
21
0.179209
0
LINE
8
BLACK
6
CONTINUOUS
10
6.23897
20
0.179209
11
6.2371
21
0.173585
0
LINE
8
BLACK
6
CONTINUOUS
10
6.2371
20
0.173585
11
6.2146
21
0.151087
0
LINE
8
BLACK
6
CONTINUOUS
10
6.2146
20
0.151087
11
6.23897
21
0.151087
0
LINE
8
BLACK
6
CONTINUOUS
10
6.2746
20
0.190457
11
6.25585
21
0.190457
0
LINE
8
BLACK
6
CONTINUOUS
10
6.25585
20
0.190457
11
6.25397
21
0.17171
0
LINE
8
BLACK
6
CONTINUOUS
10
6.25397
20
0.17171
11
6.25585
21
0.173585
0
LINE
8
BLACK
6
CONTINUOUS
10
6.25585
20
0.173585
11
6.2596
21
0.175459
0
LINE
8
BLACK
6
CONTINUOUS
10
6.2596
20
0.175459
11
6.26897
21
0.175459
0
LINE
8
BLACK
6
CONTINUOUS
10
6.26897
20
0.175459
11
6.27272
21
0.173585
0
LINE
8
BLACK
6
CONTINUOUS
10
6.27272
20
0.173585
11
6.2746
21
0.17171
0
LINE
8
BLACK
6
CONTINUOUS
10
6.2746
20
0.17171
11
6.27647
21
0.16796
0
LINE
8
BLACK
6
CONTINUOUS
10
6.27647
20
0.16796
11
6.27647
21
0.158586
0
LINE
8
BLACK
6
CONTINUOUS
10
6.27647
20
0.158586
11
6.2746
21
0.154837
0
LINE
8
BLACK
6
CONTINUOUS
10
6.2746
20
0.154837
11
6.27272
21
0.152962
0
LINE
8
BLACK
6
CONTINUOUS
10
6.27272
20
0.152962
11
6.26897
21
0.151087
0
LINE
8
BLACK
6
CONTINUOUS
10
6.26897
20
0.151087
11
6.2596
21
0.151087
0
LINE
8
BLACK
6
CONTINUOUS
10
6.2596
20
0.151087
11
6.25585
21
0.152962
0
LINE
8
BLACK
6
CONTINUOUS
10
6.25585
20
0.152962
11
6.25397
21
0.154837
0
LINE
8
BLACK
6
CONTINUOUS
10
6.32334
20
0.151087
11
6.32334
21
0.177334
0
LINE
8
BLACK
6
CONTINUOUS
10
6.32334
20
0.173585
11
6.32521
21
0.175459
0
LINE
8
BLACK
6
CONTINUOUS
10
6.32521
20
0.175459
11
6.32896
21
0.177334
0
LINE
8
BLACK
6
CONTINUOUS
10
6.32896
20
0.177334
11
6.33459
21
0.177334
0
LINE
8
BLACK
6
CONTINUOUS
10
6.33459
20
0.177334
11
6.33834
21
0.175459
0
LINE
8
BLACK
6
CONTINUOUS
10
6.33834
20
0.175459
11
6.34021
21
0.17171
0
LINE
8
BLACK
6
CONTINUOUS
10
6.34021
20
0.17171
11
6.34021
21
0.151087
0
LINE
8
BLACK
6
CONTINUOUS
10
6.34021
20
0.17171
11
6.34209
21
0.175459
0
LINE
8
BLACK
6
CONTINUOUS
10
6.34209
20
0.175459
11
6.34584
21
0.177334
0
LINE
8
BLACK
6
CONTINUOUS
10
6.34584
20
0.177334
11
6.35146
21
0.177334
0
LINE
8
BLACK
6
CONTINUOUS
10
6.35146
20
0.177334
11
6.35521
21
0.175459
0
LINE
8
BLACK
6
CONTINUOUS
10
6.35521
20
0.175459
11
6.35709
21
0.17171
0
LINE
8
BLACK
6
CONTINUOUS
10
6.35709
20
0.17171
11
6.35709
21
0.151087
0
LINE
8
BLACK
6
CONTINUOUS
10
6.37583
20
0.151087
11
6.37583
21
0.177334
0
LINE
8
BLACK
6
CONTINUOUS
10
6.37583
20
0.173585
11
6.37771
21
0.175459
0
LINE
8
BLACK
6
CONTINUOUS
10
6.37771
20
0.175459
11
6.38146
21
0.177334
0
LINE
8
BLACK
6
CONTINUOUS
10
6.38146
20
0.177334
11
6.38708
21
0.177334
0
LINE
8
BLACK
6
CONTINUOUS
10
6.38708
20
0.177334
11
6.39083
21
0.175459
0
LINE
8
BLACK
6
CONTINUOUS
10
6.39083
20
0.175459
11
6.39271
21
0.17171
0
LINE
8
BLACK
6
CONTINUOUS
10
6.39271
20
0.17171
11
6.39271
21
0.151087
0
LINE
8
BLACK
6
CONTINUOUS
10
6.39271
20
0.17171
11
6.39458
21
0.175459
0
LINE
8
BLACK
6
CONTINUOUS
10
6.39458
20
0.175459
11
6.39833
21
0.177334
0
LINE
8
BLACK
6
CONTINUOUS
10
6.39833
20
0.177334
11
6.40395
21
0.177334
0
LINE
8
BLACK
6
CONTINUOUS
10
6.40395
20
0.177334
11
6.4077
21
0.175459
0
LINE
8
BLACK
6
CONTINUOUS
10
6.4077
20
0.175459
11
6.40958
21
0.17171
0
LINE
8
BLACK
6
CONTINUOUS
10
6.40958
20
0.17171
11
6.40958
21
0.151087
0
LINE
8
BLACK
6
CONTINUOUS
10
6.23314
20
0.121654
11
6.30105
21
0.121654
0
LINE
8
BLACK
6
CONTINUOUS
10
6.23314
20
0.118996
11
6.23314
21
0.144741
0
LINE
8
BLACK
6
CONTINUOUS
10
6.30105
20
0.118996
11
6.30105
21
0.144741
0
LINE
8
BLACK
6
CONTINUOUS
10
6.30105
20
0.121654
11
6.2567
21
0.0985661
0
LINE
8
BLACK
6
CONTINUOUS
10
6.30105
20
0.121654
11
6.2567
21
0.144741
0
LINE
8
BLACK
6
CONTINUOUS
10
6.23314
20
0.121654
11
6.27749
21
0.0985661
0
LINE
8
BLACK
6
CONTINUOUS
10
6.23314
20
0.121654
11
6.27749
21
0.144741
0
LINE
8
BLACK
6
CONTINUOUS
10
6.05936
20
-0.0415776
11
6.05936
21
-0.0190804
0
LINE
8
BLACK
6
CONTINUOUS
10
6.05936
20
-0.030329
11
6.09873
21
-0.030329
0
LINE
8
BLACK
6
CONTINUOUS
10
6.09873
20
-0.030329
11
6.0931
21
-0.0265795
0
LINE
8
BLACK
6
CONTINUOUS
10
6.0931
20
-0.0265795
11
6.08935
21
-0.0228299
0
LINE
8
BLACK
6
CONTINUOUS
10
6.08935
20
-0.0228299
11
6.08748
21
-0.0190804
0
LINE
8
BLACK
6
CONTINUOUS
10
6.09498
20
-0.0565757
11
6.09685
21
-0.0584505
0
LINE
8
BLACK
6
CONTINUOUS
10
6.09685
20
-0.0584505
11
6.09873
21
-0.0622
0
LINE
8
BLACK
6
CONTINUOUS
10
6.09873
20
-0.0622
11
6.09873
21
-0.0715739
0
LINE
8
BLACK
6
CONTINUOUS
10
6.09873
20
-0.0715739
11
6.09685
21
-0.0753234
0
LINE
8
BLACK
6
CONTINUOUS
10
6.09685
20
-0.0753234
11
6.09498
21
-0.0771981
0
LINE
8
BLACK
6
CONTINUOUS
10
6.09498
20
-0.0771981
11
6.09123
21
-0.0790729
0
LINE
8
BLACK
6
CONTINUOUS
10
6.09123
20
-0.0790729
11
6.08748
21
-0.0790729
0
LINE
8
BLACK
6
CONTINUOUS
10
6.08748
20
-0.0790729
11
6.08185
21
-0.0771981
0
LINE
8
BLACK
6
CONTINUOUS
10
6.08185
20
-0.0771981
11
6.05936
21
-0.0547009
0
LINE
8
BLACK
6
CONTINUOUS
10
6.05936
20
-0.0547009
11
6.05936
21
-0.0790729
0
LINE
8
BLACK
6
CONTINUOUS
10
6.0631
20
-0.0959458
11
6.06123
21
-0.0978206
0
LINE
8
BLACK
6
CONTINUOUS
10
6.06123
20
-0.0978206
11
6.05936
21
-0.0959458
0
LINE
8
BLACK
6
CONTINUOUS
10
6.05936
20
-0.0959458
11
6.06123
21
-0.094071
0
LINE
8
BLACK
6
CONTINUOUS
10
6.06123
20
-0.094071
11
6.0631
21
-0.0959458
0
LINE
8
BLACK
6
CONTINUOUS
10
6.0631
20
-0.0959458
11
6.05936
21
-0.0959458
0
LINE
8
BLACK
6
CONTINUOUS
10
6.09873
20
-0.110944
11
6.09873
21
-0.135316
0
LINE
8
BLACK
6
CONTINUOUS
10
6.09873
20
-0.135316
11
6.08373
21
-0.122193
0
LINE
8
BLACK
6
CONTINUOUS
10
6.08373
20
-0.122193
11
6.08373
21
-0.127817
0
LINE
8
BLACK
6
CONTINUOUS
10
6.08373
20
-0.127817
11
6.08185
21
-0.131566
0
LINE
8
BLACK
6
CONTINUOUS
10
6.08185
20
-0.131566
11
6.07998
21
-0.133441
0
LINE
8
BLACK
6
CONTINUOUS
10
6.07998
20
-0.133441
11
6.07623
21
-0.135316
0
LINE
8
BLACK
6
CONTINUOUS
10
6.07623
20
-0.135316
11
6.06685
21
-0.135316
0
LINE
8
BLACK
6
CONTINUOUS
10
6.06685
20
-0.135316
11
6.0631
21
-0.133441
0
LINE
8
BLACK
6
CONTINUOUS
10
6.0631
20
-0.133441
11
6.06123
21
-0.131566
0
LINE
8
BLACK
6
CONTINUOUS
10
6.06123
20
-0.131566
11
6.05936
21
-0.127817
0
LINE
8
BLACK
6
CONTINUOUS
10
6.05936
20
-0.127817
11
6.05936
21
-0.116568
0
LINE
8
BLACK
6
CONTINUOUS
10
6.05936
20
-0.116568
11
6.06123
21
-0.112819
0
LINE
8
BLACK
6
CONTINUOUS
10
6.06123
20
-0.112819
11
6.0631
21
-0.110944
0
LINE
8
BLACK
6
CONTINUOUS
10
6.09873
20
-0.159688
11
6.09873
21
-0.163437
0
LINE
8
BLACK
6
CONTINUOUS
10
6.09873
20
-0.163437
11
6.09685
21
-0.167187
0
LINE
8
BLACK
6
CONTINUOUS
10
6.09685
20
-0.167187
11
6.09498
21
-0.169062
0
LINE
8
BLACK
6
CONTINUOUS
10
6.09498
20
-0.169062
11
6.09123
21
-0.170936
0
LINE
8
BLACK
6
CONTINUOUS
10
6.09123
20
-0.170936
11
6.08373
21
-0.172811
0
LINE
8
BLACK
6
CONTINUOUS
10
6.08373
20
-0.172811
11
6.07435
21
-0.172811
0
LINE
8
BLACK
6
CONTINUOUS
10
6.07435
20
-0.172811
11
6.06685
21
-0.170936
0
LINE
8
BLACK
6
CONTINUOUS
10
6.06685
20
-0.170936
11
6.0631
21
-0.169062
0
LINE
8
BLACK
6
CONTINUOUS
10
6.0631
20
-0.169062
11
6.06123
21
-0.167187
0
LINE
8
BLACK
6
CONTINUOUS
10
6.06123
20
-0.167187
11
6.05936
21
-0.163437
0
LINE
8
BLACK
6
CONTINUOUS
10
6.05936
20
-0.163437
11
6.05936
21
-0.159688
0
LINE
8
BLACK
6
CONTINUOUS
10
6.05936
20
-0.159688
11
6.06123
21
-0.155938
0
LINE
8
BLACK
6
CONTINUOUS
10
6.06123
20
-0.155938
11
6.0631
21
-0.154064
0
LINE
8
BLACK
6
CONTINUOUS
10
6.0631
20
-0.154064
11
6.06685
21
-0.152189
0
LINE
8
BLACK
6
CONTINUOUS
10
6.06685
20
-0.152189
11
6.07435
21
-0.150314
0
LINE
8
BLACK
6
CONTINUOUS
10
6.07435
20
-0.150314
11
6.08373
21
-0.150314
0
LINE
8
BLACK
6
CONTINUOUS
10
6.08373
20
-0.150314
11
6.09123
21
-0.152189
0
LINE
8
BLACK
6
CONTINUOUS
10
6.09123
20
-0.152189
11
6.09498
21
-0.154064
0
LINE
8
BLACK
6
CONTINUOUS
10
6.09498
20
-0.154064
11
6.09685
21
-0.155938
0
LINE
8
BLACK
6
CONTINUOUS
10
6.09685
20
-0.155938
11
6.09873
21
-0.159688
0
LINE
8
BLACK
6
CONTINUOUS
10
6.09873
20
-0.197183
11
6.09873
21
-0.200933
0
LINE
8
BLACK
6
CONTINUOUS
10
6.09873
20
-0.200933
11
6.09685
21
-0.204682
0
LINE
8
BLACK
6
CONTINUOUS
10
6.09685
20
-0.204682
11
6.09498
21
-0.206557
0
LINE
8
BLACK
6
CONTINUOUS
10
6.09498
20
-0.206557
11
6.09123
21
-0.208432
0
LINE
8
BLACK
6
CONTINUOUS
10
6.09123
20
-0.208432
11
6.08373
21
-0.210306
0
LINE
8
BLACK
6
CONTINUOUS
10
6.08373
20
-0.210306
11
6.07435
21
-0.210306
0
LINE
8
BLACK
6
CONTINUOUS
10
6.07435
20
-0.210306
11
6.06685
21
-0.208432
0
LINE
8
BLACK
6
CONTINUOUS
10
6.06685
20
-0.208432
11
6.0631
21
-0.206557
0
LINE
8
BLACK
6
CONTINUOUS
10
6.0631
20
-0.206557
11
6.06123
21
-0.204682
0
LINE
8
BLACK
6
CONTINUOUS
10
6.06123
20
-0.204682
11
6.05936
21
-0.200933
0
LINE
8
BLACK
6
CONTINUOUS
10
6.05936
20
-0.200933
11
6.05936
21
-0.197183
0
LINE
8
BLACK
6
CONTINUOUS
10
6.05936
20
-0.197183
11
6.06123
21
-0.193434
0
LINE
8
BLACK
6
CONTINUOUS
10
6.06123
20
-0.193434
11
6.0631
21
-0.191559
0
LINE
8
BLACK
6
CONTINUOUS
10
6.0631
20
-0.191559
11
6.06685
21
-0.189684
0
LINE
8
BLACK
6
CONTINUOUS
10
6.06685
20
-0.189684
11
6.07435
21
-0.187809
0
LINE
8
BLACK
6
CONTINUOUS
10
6.07435
20
-0.187809
11
6.08373
21
-0.187809
0
LINE
8
BLACK
6
CONTINUOUS
10
6.08373
20
-0.187809
11
6.09123
21
-0.189684
0
LINE
8
BLACK
6
CONTINUOUS
10
6.09123
20
-0.189684
11
6.09498
21
-0.191559
0
LINE
8
BLACK
6
CONTINUOUS
10
6.09498
20
-0.191559
11
6.09685
21
-0.193434
0
LINE
8
BLACK
6
CONTINUOUS
10
6.09685
20
-0.193434
11
6.09873
21
-0.197183
0
LINE
8
BLACK
6
CONTINUOUS
10
6.05936
20
-0.257176
11
6.0856
21
-0.257176
0
LINE
8
BLACK
6
CONTINUOUS
10
6.08185
20
-0.257176
11
6.08373
21
-0.25905
0
LINE
8
BLACK
6
CONTINUOUS
10
6.08373
20
-0.25905
11
6.0856
21
-0.2628
0
LINE
8
BLACK
6
CONTINUOUS
10
6.0856
20
-0.2628
11
6.0856
21
-0.268424
0
LINE
8
BLACK
6
CONTINUOUS
10
6.0856
20
-0.268424
11
6.08373
21
-0.272174
0
LINE
8
BLACK
6
CONTINUOUS
10
6.08373
20
-0.272174
11
6.07998
21
-0.274049
0
LINE
8
BLACK
6
CONTINUOUS
10
6.07998
20
-0.274049
11
6.05936
21
-0.274049
0
LINE
8
BLACK
6
CONTINUOUS
10
6.07998
20
-0.274049
11
6.08373
21
-0.275923
0
LINE
8
BLACK
6
CONTINUOUS
10
6.08373
20
-0.275923
11
6.0856
21
-0.279673
0
LINE
8
BLACK
6
CONTINUOUS
10
6.0856
20
-0.279673
11
6.0856
21
-0.285297
0
LINE
8
BLACK
6
CONTINUOUS
10
6.0856
20
-0.285297
11
6.08373
21
-0.289047
0
LINE
8
BLACK
6
CONTINUOUS
10
6.08373
20
-0.289047
11
6.07998
21
-0.290921
0
LINE
8
BLACK
6
CONTINUOUS
10
6.07998
20
-0.290921
11
6.05936
21
-0.290921
0
LINE
8
BLACK
6
CONTINUOUS
10
6.05936
20
-0.309669
11
6.0856
21
-0.309669
0
LINE
8
BLACK
6
CONTINUOUS
10
6.08185
20
-0.309669
11
6.08373
21
-0.311544
0
LINE
8
BLACK
6
CONTINUOUS
10
6.08373
20
-0.311544
11
6.0856
21
-0.315293
0
LINE
8
BLACK
6
CONTINUOUS
10
6.0856
20
-0.315293
11
6.0856
21
-0.320918
0
LINE
8
BLACK
6
CONTINUOUS
10
6.0856
20
-0.320918
11
6.08373
21
-0.324667
0
LINE
8
BLACK
6
CONTINUOUS
10
6.08373
20
-0.324667
11
6.07998
21
-0.326542
0
LINE
8
BLACK
6
CONTINUOUS
10
6.07998
20
-0.326542
11
6.05936
21
-0.326542
0
LINE
8
BLACK
6
CONTINUOUS
10
6.07998
20
-0.326542
11
6.08373
21
-0.328417
0
LINE
8
BLACK
6
CONTINUOUS
10
6.08373
20
-0.328417
11
6.0856
21
-0.332166
0
LINE
8
BLACK
6
CONTINUOUS
10
6.0856
20
-0.332166
11
6.0856
21
-0.337791
0
LINE
8
BLACK
6
CONTINUOUS
10
6.0856
20
-0.337791
11
6.08373
21
-0.34154
0
LINE
8
BLACK
6
CONTINUOUS
10
6.08373
20
-0.34154
11
6.07998
21
-0.343415
0
LINE
8
BLACK
6
CONTINUOUS
10
6.07998
20
-0.343415
11
6.05936
21
-0.343415
0
LINE
8
BLACK
6
CONTINUOUS
10
6.12441
20
0.0599409
11
6.12441
21
-0.424311
0
LINE
8
BLACK
6
CONTINUOUS
10
6.19377
20
0.0599409
11
6.10132
21
0.0599409
0
LINE
8
BLACK
6
CONTINUOUS
10
6.19377
20
-0.424311
11
6.10132
21
-0.424311
0
LINE
8
BLACK
6
CONTINUOUS
10
6.12441
20
-0.424311
11
6.10132
21
-0.37996
0
LINE
8
BLACK
6
CONTINUOUS
10
6.12441
20
-0.424311
11
6.1475
21
-0.37996
0
LINE
8
BLACK
6
CONTINUOUS
10
6.12441
20
0.0599409
11
6.10132
21
0.0155904
0
LINE
8
BLACK
6
CONTINUOUS
10
6.12441
20
0.0599409
11
6.1475
21
0.0155904
0
LINE
8
BLACK
6
CONTINUOUS
10
6.69396
20
0.216442
11
6.67147
21
0.216442
0
LINE
8
BLACK
6
CONTINUOUS
10
6.68272
20
0.216442
11
6.68272
21
0.255812
0
LINE
8
BLACK
6
CONTINUOUS
10
6.68272
20
0.255812
11
6.67897
21
0.250187
0
LINE
8
BLACK
6
CONTINUOUS
10
6.67897
20
0.250187
11
6.67522
21
0.246438
0
LINE
8
BLACK
6
CONTINUOUS
10
6.67522
20
0.246438
11
6.67147
21
0.244563
0
LINE
8
BLACK
6
CONTINUOUS
10
6.72771
20
0.242688
11
6.72771
21
0.216442
0
LINE
8
BLACK
6
CONTINUOUS
10
6.71834
20
0.257687
11
6.70896
21
0.229565
0
LINE
8
BLACK
6
CONTINUOUS
10
6.70896
20
0.229565
11
6.73333
21
0.229565
0
LINE
8
BLACK
6
CONTINUOUS
10
6.74833
20
0.220191
11
6.75021
21
0.218316
0
LINE
8
BLACK
6
CONTINUOUS
10
6.75021
20
0.218316
11
6.74833
21
0.216442
0
LINE
8
BLACK
6
CONTINUOUS
10
6.74833
20
0.216442
11
6.74646
21
0.218316
0
LINE
8
BLACK
6
CONTINUOUS
10
6.74646
20
0.218316
11
6.74833
21
0.220191
0
LINE
8
BLACK
6
CONTINUOUS
10
6.74833
20
0.220191
11
6.74833
21
0.216442
0
LINE
8
BLACK
6
CONTINUOUS
10
6.77458
20
0.255812
11
6.77833
21
0.255812
0
LINE
8
BLACK
6
CONTINUOUS
10
6.77833
20
0.255812
11
6.78208
21
0.253937
0
LINE
8
BLACK
6
CONTINUOUS
10
6.78208
20
0.253937
11
6.78395
21
0.252062
0
LINE
8
BLACK
6
CONTINUOUS
10
6.78395
20
0.252062
11
6.78583
21
0.248313
0
LINE
8
BLACK
6
CONTINUOUS
10
6.78583
20
0.248313
11
6.7877
21
0.240814
0
LINE
8
BLACK
6
CONTINUOUS
10
6.7877
20
0.240814
11
6.7877
21
0.23144
0
LINE
8
BLACK
6
CONTINUOUS
10
6.7877
20
0.23144
11
6.78583
21
0.223941
0
LINE
8
BLACK
6
CONTINUOUS
10
6.78583
20
0.223941
11
6.78395
21
0.220191
0
LINE
8
BLACK
6
CONTINUOUS
10
6.78395
20
0.220191
11
6.78208
21
0.218316
0
LINE
8
BLACK
6
CONTINUOUS
10
6.78208
20
0.218316
11
6.77833
21
0.216442
0
LINE
8
BLACK
6
CONTINUOUS
10
6.77833
20
0.216442
11
6.77458
21
0.216442
0
LINE
8
BLACK
6
CONTINUOUS
10
6.77458
20
0.216442
11
6.77083
21
0.218316
0
LINE
8
BLACK
6
CONTINUOUS
10
6.77083
20
0.218316
11
6.76896
21
0.220191
0
LINE
8
BLACK
6
CONTINUOUS
10
6.76896
20
0.220191
11
6.76708
21
0.223941
0
LINE
8
BLACK
6
CONTINUOUS
10
6.76708
20
0.223941
11
6.76521
21
0.23144
0
LINE
8
BLACK
6
CONTINUOUS
10
6.76521
20
0.23144
11
6.76521
21
0.240814
0
LINE
8
BLACK
6
CONTINUOUS
10
6.76521
20
0.240814
11
6.76708
21
0.248313
0
LINE
8
BLACK
6
CONTINUOUS
10
6.76708
20
0.248313
11
6.76896
21
0.252062
0
LINE
8
BLACK
6
CONTINUOUS
10
6.76896
20
0.252062
11
6.77083
21
0.253937
0
LINE
8
BLACK
6
CONTINUOUS
10
6.77083
20
0.253937
11
6.77458
21
0.255812
0
LINE
8
BLACK
6
CONTINUOUS
10
6.81207
20
0.255812
11
6.81582
21
0.255812
0
LINE
8
BLACK
6
CONTINUOUS
10
6.81582
20
0.255812
11
6.81957
21
0.253937
0
LINE
8
BLACK
6
CONTINUOUS
10
6.81957
20
0.253937
11
6.82145
21
0.252062
0
LINE
8
BLACK
6
CONTINUOUS
10
6.82145
20
0.252062
11
6.82332
21
0.248313
0
LINE
8
BLACK
6
CONTINUOUS
10
6.82332
20
0.248313
11
6.8252
21
0.240814
0
LINE
8
BLACK
6
CONTINUOUS
10
6.8252
20
0.240814
11
6.8252
21
0.23144
0
LINE
8
BLACK
6
CONTINUOUS
10
6.8252
20
0.23144
11
6.82332
21
0.223941
0
LINE
8
BLACK
6
CONTINUOUS
10
6.82332
20
0.223941
11
6.82145
21
0.220191
0
LINE
8
BLACK
6
CONTINUOUS
10
6.82145
20
0.220191
11
6.81957
21
0.218316
0
LINE
8
BLACK
6
CONTINUOUS
10
6.81957
20
0.218316
11
6.81582
21
0.216442
0
LINE
8
BLACK
6
CONTINUOUS
10
6.81582
20
0.216442
11
6.81207
21
0.216442
0
LINE
8
BLACK
6
CONTINUOUS
10
6.81207
20
0.216442
11
6.80833
21
0.218316
0
LINE
8
BLACK
6
CONTINUOUS
10
6.80833
20
0.218316
11
6.80645
21
0.220191
0
LINE
8
BLACK
6
CONTINUOUS
10
6.80645
20
0.220191
11
6.80458
21
0.223941
0
LINE
8
BLACK
6
CONTINUOUS
10
6.80458
20
0.223941
11
6.8027
21
0.23144
0
LINE
8
BLACK
6
CONTINUOUS
10
6.8027
20
0.23144
11
6.8027
21
0.240814
0
LINE
8
BLACK
6
CONTINUOUS
10
6.8027
20
0.240814
11
6.80458
21
0.248313
0
LINE
8
BLACK
6
CONTINUOUS
10
6.80458
20
0.248313
11
6.80645
21
0.252062
0
LINE
8
BLACK
6
CONTINUOUS
10
6.80645
20
0.252062
11
6.80833
21
0.253937
0
LINE
8
BLACK
6
CONTINUOUS
10
6.80833
20
0.253937
11
6.81207
21
0.255812
0
LINE
8
BLACK
6
CONTINUOUS
10
6.84957
20
0.255812
11
6.85332
21
0.255812
0
LINE
8
BLACK
6
CONTINUOUS
10
6.85332
20
0.255812
11
6.85707
21
0.253937
0
LINE
8
BLACK
6
CONTINUOUS
10
6.85707
20
0.253937
11
6.85894
21
0.252062
0
LINE
8
BLACK
6
CONTINUOUS
10
6.85894
20
0.252062
11
6.86082
21
0.248313
0
LINE
8
BLACK
6
CONTINUOUS
10
6.86082
20
0.248313
11
6.86269
21
0.240814
0
LINE
8
BLACK
6
CONTINUOUS
10
6.86269
20
0.240814
11
6.86269
21
0.23144
0
LINE
8
BLACK
6
CONTINUOUS
10
6.86269
20
0.23144
11
6.86082
21
0.223941
0
LINE
8
BLACK
6
CONTINUOUS
10
6.86082
20
0.223941
11
6.85894
21
0.220191
0
LINE
8
BLACK
6
CONTINUOUS
10
6.85894
20
0.220191
11
6.85707
21
0.218316
0
LINE
8
BLACK
6
CONTINUOUS
10
6.85707
20
0.218316
11
6.85332
21
0.216442
0
LINE
8
BLACK
6
CONTINUOUS
10
6.85332
20
0.216442
11
6.84957
21
0.216442
0
LINE
8
BLACK
6
CONTINUOUS
10
6.84957
20
0.216442
11
6.84582
21
0.218316
0
LINE
8
BLACK
6
CONTINUOUS
10
6.84582
20
0.218316
11
6.84395
21
0.220191
0
LINE
8
BLACK
6
CONTINUOUS
10
6.84395
20
0.220191
11
6.84207
21
0.223941
0
LINE
8
BLACK
6
CONTINUOUS
10
6.84207
20
0.223941
11
6.8402
21
0.23144
0
LINE
8
BLACK
6
CONTINUOUS
10
6.8402
20
0.23144
11
6.8402
21
0.240814
0
LINE
8
BLACK
6
CONTINUOUS
10
6.8402
20
0.240814
11
6.84207
21
0.248313
0
LINE
8
BLACK
6
CONTINUOUS
10
6.84207
20
0.248313
11
6.84395
21
0.252062
0
LINE
8
BLACK
6
CONTINUOUS
10
6.84395
20
0.252062
11
6.84582
21
0.253937
0
LINE
8
BLACK
6
CONTINUOUS
10
6.84582
20
0.253937
11
6.84957
21
0.255812
0
LINE
8
BLACK
6
CONTINUOUS
10
6.90956
20
0.216442
11
6.90956
21
0.242688
0
LINE
8
BLACK
6
CONTINUOUS
10
6.90956
20
0.238939
11
6.91144
21
0.240814
0
LINE
8
BLACK
6
CONTINUOUS
10
6.91144
20
0.240814
11
6.91519
21
0.242688
0
LINE
8
BLACK
6
CONTINUOUS
10
6.91519
20
0.242688
11
6.92081
21
0.242688
0
LINE
8
BLACK
6
CONTINUOUS
10
6.92081
20
0.242688
11
6.92456
21
0.240814
0
LINE
8
BLACK
6
CONTINUOUS
10
6.92456
20
0.240814
11
6.92644
21
0.237064
0
LINE
8
BLACK
6
CONTINUOUS
10
6.92644
20
0.237064
11
6.92644
21
0.216442
0
LINE
8
BLACK
6
CONTINUOUS
10
6.92644
20
0.237064
11
6.92831
21
0.240814
0
LINE
8
BLACK
6
CONTINUOUS
10
6.92831
20
0.240814
11
6.93206
21
0.242688
0
LINE
8
BLACK
6
CONTINUOUS
10
6.93206
20
0.242688
11
6.93768
21
0.242688
0
LINE
8
BLACK
6
CONTINUOUS
10
6.93768
20
0.242688
11
6.94143
21
0.240814
0
LINE
8
BLACK
6
CONTINUOUS
10
6.94143
20
0.240814
11
6.94331
21
0.237064
0
LINE
8
BLACK
6
CONTINUOUS
10
6.94331
20
0.237064
11
6.94331
21
0.216442
0
LINE
8
BLACK
6
CONTINUOUS
10
6.96206
20
0.216442
11
6.96206
21
0.242688
0
LINE
8
BLACK
6
CONTINUOUS
10
6.96206
20
0.238939
11
6.96393
21
0.240814
0
LINE
8
BLACK
6
CONTINUOUS
10
6.96393
20
0.240814
11
6.96768
21
0.242688
0
LINE
8
BLACK
6
CONTINUOUS
10
6.96768
20
0.242688
11
6.9733
21
0.242688
0
LINE
8
BLACK
6
CONTINUOUS
10
6.9733
20
0.242688
11
6.97705
21
0.240814
0
LINE
8
BLACK
6
CONTINUOUS
10
6.97705
20
0.240814
11
6.97893
21
0.237064
0
LINE
8
BLACK
6
CONTINUOUS
10
6.97893
20
0.237064
11
6.97893
21
0.216442
0
LINE
8
BLACK
6
CONTINUOUS
10
6.97893
20
0.237064
11
6.9808
21
0.240814
0
LINE
8
BLACK
6
CONTINUOUS
10
6.9808
20
0.240814
11
6.98455
21
0.242688
0
LINE
8
BLACK
6
CONTINUOUS
10
6.98455
20
0.242688
11
6.99018
21
0.242688
0
LINE
8
BLACK
6
CONTINUOUS
10
6.99018
20
0.242688
11
6.99393
21
0.240814
0
LINE
8
BLACK
6
CONTINUOUS
10
6.99393
20
0.240814
11
6.9958
21
0.237064
0
LINE
8
BLACK
6
CONTINUOUS
10
6.9958
20
0.237064
11
6.9958
21
0.216442
0
LINE
8
BLACK
6
CONTINUOUS
10
6.55898
20
0.187008
11
7.11017
21
0.187008
0
LINE
8
BLACK
6
CONTINUOUS
10
6.55898
20
0.167421
11
6.55898
21
0.210095
0
LINE
8
BLACK
6
CONTINUOUS
10
7.11017
20
0.167421
11
7.11017
21
0.210095
0
LINE
8
BLACK
6
CONTINUOUS
10
7.11017
20
0.187008
11
7.06582
21
0.16392
0
LINE
8
BLACK
6
CONTINUOUS
10
7.11017
20
0.187008
11
7.06582
21
0.210095
0
LINE
8
BLACK
6
CONTINUOUS
10
6.55898
20
0.187008
11
6.60333
21
0.16392
0
LINE
8
BLACK
6
CONTINUOUS
10
6.55898
20
0.187008
11
6.60333
21
0.210095
0
LINE
8
BLACK
6
CONTINUOUS
10
6.89282
20
1.43401
11
6.89282
21
1.45651
0
LINE
8
BLACK
6
CONTINUOUS
10
6.89282
20
1.44526
11
6.93219
21
1.44526
0
LINE
8
BLACK
6
CONTINUOUS
10
6.93219
20
1.44526
11
6.92657
21
1.44901
0
LINE
8
BLACK
6
CONTINUOUS
10
6.92657
20
1.44901
11
6.92282
21
1.45276
0
LINE
8
BLACK
6
CONTINUOUS
10
6.92282
20
1.45276
11
6.92094
21
1.45651
0
LINE
8
BLACK
6
CONTINUOUS
10
6.91907
20
1.40027
11
6.89282
21
1.40027
0
LINE
8
BLACK
6
CONTINUOUS
10
6.93406
20
1.40964
11
6.90594
21
1.41901
0
LINE
8
BLACK
6
CONTINUOUS
10
6.90594
20
1.41901
11
6.90594
21
1.39464
0
LINE
8
BLACK
6
CONTINUOUS
10
6.89657
20
1.37964
11
6.89469
21
1.37777
0
LINE
8
BLACK
6
CONTINUOUS
10
6.89469
20
1.37777
11
6.89282
21
1.37964
0
LINE
8
BLACK
6
CONTINUOUS
10
6.89282
20
1.37964
11
6.89469
21
1.38152
0
LINE
8
BLACK
6
CONTINUOUS
10
6.89469
20
1.38152
11
6.89657
21
1.37964
0
LINE
8
BLACK
6
CONTINUOUS
10
6.89657
20
1.37964
11
6.89282
21
1.37964
0
LINE
8
BLACK
6
CONTINUOUS
10
6.93219
20
1.3534
11
6.93219
21
1.34965
0
LINE
8
BLACK
6
CONTINUOUS
10
6.93219
20
1.34965
11
6.93031
21
1.3459
0
LINE
8
BLACK
6
CONTINUOUS
10
6.93031
20
1.3459
11
6.92844
21
1.34402
0
LINE
8
BLACK
6
CONTINUOUS
10
6.92844
20
1.34402
11
6.92469
21
1.34215
0
LINE
8
BLACK
6
CONTINUOUS
10
6.92469
20
1.34215
11
6.91719
21
1.34027
0
LINE
8
BLACK
6
CONTINUOUS
10
6.91719
20
1.34027
11
6.90782
21
1.34027
0
LINE
8
BLACK
6
CONTINUOUS
10
6.90782
20
1.34027
11
6.90032
21
1.34215
0
LINE
8
BLACK
6
CONTINUOUS
10
6.90032
20
1.34215
11
6.89657
21
1.34402
0
LINE
8
BLACK
6
CONTINUOUS
10
6.89657
20
1.34402
11
6.89469
21
1.3459
0
LINE
8
BLACK
6
CONTINUOUS
10
6.89469
20
1.3459
11
6.89282
21
1.34965
0
LINE
8
BLACK
6
CONTINUOUS
10
6.89282
20
1.34965
11
6.89282
21
1.3534
0
LINE
8
BLACK
6
CONTINUOUS
10
6.89282
20
1.3534
11
6.89469
21
1.35715
0
LINE
8
BLACK
6
CONTINUOUS
10
6.89469
20
1.35715
11
6.89657
21
1.35902
0
LINE
8
BLACK
6
CONTINUOUS
10
6.89657
20
1.35902
11
6.90032
21
1.3609
0
LINE
8
BLACK
6
CONTINUOUS
10
6.90032
20
1.3609
11
6.90782
21
1.36277
0
LINE
8
BLACK
6
CONTINUOUS
10
6.90782
20
1.36277
11
6.91719
21
1.36277
0
LINE
8
BLACK
6
CONTINUOUS
10
6.91719
20
1.36277
11
6.92469
21
1.3609
0
LINE
8
BLACK
6
CONTINUOUS
10
6.92469
20
1.3609
11
6.92844
21
1.35902
0
LINE
8
BLACK
6
CONTINUOUS
10
6.92844
20
1.35902
11
6.93031
21
1.35715
0
LINE
8
BLACK
6
CONTINUOUS
10
6.93031
20
1.35715
11
6.93219
21
1.3534
0
LINE
8
BLACK
6
CONTINUOUS
10
6.93219
20
1.3159
11
6.93219
21
1.31215
0
LINE
8
BLACK
6
CONTINUOUS
10
6.93219
20
1.31215
11
6.93031
21
1.3084
0
LINE
8
BLACK
6
CONTINUOUS
10
6.93031
20
1.3084
11
6.92844
21
1.30653
0
LINE
8
BLACK
6
CONTINUOUS
10
6.92844
20
1.30653
11
6.92469
21
1.30465
0
LINE
8
BLACK
6
CONTINUOUS
10
6.92469
20
1.30465
11
6.91719
21
1.30278
0
LINE
8
BLACK
6
CONTINUOUS
10
6.91719
20
1.30278
11
6.90782
21
1.30278
0
LINE
8
BLACK
6
CONTINUOUS
10
6.90782
20
1.30278
11
6.90032
21
1.30465
0
LINE
8
BLACK
6
CONTINUOUS
10
6.90032
20
1.30465
11
6.89657
21
1.30653
0
LINE
8
BLACK
6
CONTINUOUS
10
6.89657
20
1.30653
11
6.89469
21
1.3084
0
LINE
8
BLACK
6
CONTINUOUS
10
6.89469
20
1.3084
11
6.89282
21
1.31215
0
LINE
8
BLACK
6
CONTINUOUS
10
6.89282
20
1.31215
11
6.89282
21
1.3159
0
LINE
8
BLACK
6
CONTINUOUS
10
6.89282
20
1.3159
11
6.89469
21
1.31965
0
LINE
8
BLACK
6
CONTINUOUS
10
6.89469
20
1.31965
11
6.89657
21
1.32153
0
LINE
8
BLACK
6
CONTINUOUS
10
6.89657
20
1.32153
11
6.90032
21
1.3234
0
LINE
8
BLACK
6
CONTINUOUS
10
6.90032
20
1.3234
11
6.90782
21
1.32528
0
LINE
8
BLACK
6
CONTINUOUS
10
6.90782
20
1.32528
11
6.91719
21
1.32528
0
LINE
8
BLACK
6
CONTINUOUS
10
6.91719
20
1.32528
11
6.92469
21
1.3234
0
LINE
8
BLACK
6
CONTINUOUS
10
6.92469
20
1.3234
11
6.92844
21
1.32153
0
LINE
8
BLACK
6
CONTINUOUS
10
6.92844
20
1.32153
11
6.93031
21
1.31965
0
LINE
8
BLACK
6
CONTINUOUS
10
6.93031
20
1.31965
11
6.93219
21
1.3159
0
LINE
8
BLACK
6
CONTINUOUS
10
6.93219
20
1.27841
11
6.93219
21
1.27466
0
LINE
8
BLACK
6
CONTINUOUS
10
6.93219
20
1.27466
11
6.93031
21
1.27091
0
LINE
8
BLACK
6
CONTINUOUS
10
6.93031
20
1.27091
11
6.92844
21
1.26903
0
LINE
8
BLACK
6
CONTINUOUS
10
6.92844
20
1.26903
11
6.92469
21
1.26716
0
LINE
8
BLACK
6
CONTINUOUS
10
6.92469
20
1.26716
11
6.91719
21
1.26528
0
LINE
8
BLACK
6
CONTINUOUS
10
6.91719
20
1.26528
11
6.90782
21
1.26528
0
LINE
8
BLACK
6
CONTINUOUS
10
6.90782
20
1.26528
11
6.90032
21
1.26716
0
LINE
8
BLACK
6
CONTINUOUS
10
6.90032
20
1.26716
11
6.89657
21
1.26903
0
LINE
8
BLACK
6
CONTINUOUS
10
6.89657
20
1.26903
11
6.89469
21
1.27091
0
LINE
8
BLACK
6
CONTINUOUS
10
6.89469
20
1.27091
11
6.89282
21
1.27466
0
LINE
8
BLACK
6
CONTINUOUS
10
6.89282
20
1.27466
11
6.89282
21
1.27841
0
LINE
8
BLACK
6
CONTINUOUS
10
6.89282
20
1.27841
11
6.89469
21
1.28216
0
LINE
8
BLACK
6
CONTINUOUS
10
6.89469
20
1.28216
11
6.89657
21
1.28403
0
LINE
8
BLACK
6
CONTINUOUS
10
6.89657
20
1.28403
11
6.90032
21
1.28591
0
LINE
8
BLACK
6
CONTINUOUS
10
6.90032
20
1.28591
11
6.90782
21
1.28778
0
LINE
8
BLACK
6
CONTINUOUS
10
6.90782
20
1.28778
11
6.91719
21
1.28778
0
LINE
8
BLACK
6
CONTINUOUS
10
6.91719
20
1.28778
11
6.92469
21
1.28591
0
LINE
8
BLACK
6
CONTINUOUS
10
6.92469
20
1.28591
11
6.92844
21
1.28403
0
LINE
8
BLACK
6
CONTINUOUS
10
6.92844
20
1.28403
11
6.93031
21
1.28216
0
LINE
8
BLACK
6
CONTINUOUS
10
6.93031
20
1.28216
11
6.93219
21
1.27841
0
LINE
8
BLACK
6
CONTINUOUS
10
6.89282
20
1.21841
11
6.91907
21
1.21841
0
LINE
8
BLACK
6
CONTINUOUS
10
6.91532
20
1.21841
11
6.91719
21
1.21654
0
LINE
8
BLACK
6
CONTINUOUS
10
6.91719
20
1.21654
11
6.91907
21
1.21279
0
LINE
8
BLACK
6
CONTINUOUS
10
6.91907
20
1.21279
11
6.91907
21
1.20717
0
LINE
8
BLACK
6
CONTINUOUS
10
6.91907
20
1.20717
11
6.91719
21
1.20342
0
LINE
8
BLACK
6
CONTINUOUS
10
6.91719
20
1.20342
11
6.91344
21
1.20154
0
LINE
8
BLACK
6
CONTINUOUS
10
6.91344
20
1.20154
11
6.89282
21
1.20154
0
LINE
8
BLACK
6
CONTINUOUS
10
6.91344
20
1.20154
11
6.91719
21
1.19967
0
LINE
8
BLACK
6
CONTINUOUS
10
6.91719
20
1.19967
11
6.91907
21
1.19592
0
LINE
8
BLACK
6
CONTINUOUS
10
6.91907
20
1.19592
11
6.91907
21
1.19029
0
LINE
8
BLACK
6
CONTINUOUS
10
6.91907
20
1.19029
11
6.91719
21
1.18654
0
LINE
8
BLACK
6
CONTINUOUS
10
6.91719
20
1.18654
11
6.91344
21
1.18467
0
LINE
8
BLACK
6
CONTINUOUS
10
6.91344
20
1.18467
11
6.89282
21
1.18467
0
LINE
8
BLACK
6
CONTINUOUS
10
6.89282
20
1.16592
11
6.91907
21
1.16592
0
LINE
8
BLACK
6
CONTINUOUS
10
6.91532
20
1.16592
11
6.91719
21
1.16405
0
LINE
8
BLACK
6
CONTINUOUS
10
6.91719
20
1.16405
11
6.91907
21
1.1603
0
LINE
8
BLACK
6
CONTINUOUS
10
6.91907
20
1.1603
11
6.91907
21
1.15467
0
LINE
8
BLACK
6
CONTINUOUS
10
6.91907
20
1.15467
11
6.91719
21
1.15092
0
LINE
8
BLACK
6
CONTINUOUS
10
6.91719
20
1.15092
11
6.91344
21
1.14905
0
LINE
8
BLACK
6
CONTINUOUS
10
6.91344
20
1.14905
11
6.89282
21
1.14905
0
LINE
8
BLACK
6
CONTINUOUS
10
6.91344
20
1.14905
11
6.91719
21
1.14717
0
LINE
8
BLACK
6
CONTINUOUS
10
6.91719
20
1.14717
11
6.91907
21
1.14342
0
LINE
8
BLACK
6
CONTINUOUS
10
6.91907
20
1.14342
11
6.91907
21
1.1378
0
LINE
8
BLACK
6
CONTINUOUS
10
6.91907
20
1.1378
11
6.91719
21
1.13405
0
LINE
8
BLACK
6
CONTINUOUS
10
6.91719
20
1.13405
11
6.91344
21
1.13218
0
LINE
8
BLACK
6
CONTINUOUS
10
6.91344
20
1.13218
11
6.89282
21
1.13218
0
LINE
8
BLACK
6
CONTINUOUS
10
6.95787
20
1.569
11
6.95787
21
1.01781
0
LINE
8
BLACK
6
CONTINUOUS
10
6.98839
20
1.569
11
6.93479
21
1.569
0
LINE
8
BLACK
6
CONTINUOUS
10
6.98839
20
1.01781
11
6.93479
21
1.01781
0
LINE
8
BLACK
6
CONTINUOUS
10
6.95787
20
1.01781
11
6.93479
21
1.06217
0
LINE
8
BLACK
6
CONTINUOUS
10
6.95787
20
1.01781
11
6.98096
21
1.06217
0
LINE
8
BLACK
6
CONTINUOUS
10
6.95787
20
1.569
11
6.93479
21
1.52465
0
LINE
8
BLACK
6
CONTINUOUS
10
6.95787
20
1.569
11
6.98096
21
1.52465
0
LINE
8
BLACK
6
CONTINUOUS
10
7.16274
20
1.75857
11
7.14024
21
1.75857
0
LINE
8
BLACK
6
CONTINUOUS
10
7.15149
20
1.75857
11
7.15149
21
1.79794
0
LINE
8
BLACK
6
CONTINUOUS
10
7.15149
20
1.79794
11
7.14774
21
1.79231
0
LINE
8
BLACK
6
CONTINUOUS
10
7.14774
20
1.79231
11
7.14399
21
1.78856
0
LINE
8
BLACK
6
CONTINUOUS
10
7.14399
20
1.78856
11
7.14024
21
1.78669
0
LINE
8
BLACK
6
CONTINUOUS
10
7.19648
20
1.78481
11
7.19648
21
1.75857
0
LINE
8
BLACK
6
CONTINUOUS
10
7.18711
20
1.79981
11
7.17774
21
1.77169
0
LINE
8
BLACK
6
CONTINUOUS
10
7.17774
20
1.77169
11
7.20211
21
1.77169
0
LINE
8
BLACK
6
CONTINUOUS
10
7.21711
20
1.76232
11
7.21898
21
1.76044
0
LINE
8
BLACK
6
CONTINUOUS
10
7.21898
20
1.76044
11
7.21711
21
1.75857
0
LINE
8
BLACK
6
CONTINUOUS
10
7.21711
20
1.75857
11
7.21523
21
1.76044
0
LINE
8
BLACK
6
CONTINUOUS
10
7.21523
20
1.76044
11
7.21711
21
1.76232
0
LINE
8
BLACK
6
CONTINUOUS
10
7.21711
20
1.76232
11
7.21711
21
1.75857
0
LINE
8
BLACK
6
CONTINUOUS
10
7.24335
20
1.79794
11
7.2471
21
1.79794
0
LINE
8
BLACK
6
CONTINUOUS
10
7.2471
20
1.79794
11
7.25085
21
1.79606
0
LINE
8
BLACK
6
CONTINUOUS
10
7.25085
20
1.79606
11
7.25273
21
1.79419
0
LINE
8
BLACK
6
CONTINUOUS
10
7.25273
20
1.79419
11
7.2546
21
1.79044
0
LINE
8
BLACK
6
CONTINUOUS
10
7.2546
20
1.79044
11
7.25648
21
1.78294
0
LINE
8
BLACK
6
CONTINUOUS
10
7.25648
20
1.78294
11
7.25648
21
1.77357
0
LINE
8
BLACK
6
CONTINUOUS
10
7.25648
20
1.77357
11
7.2546
21
1.76607
0
LINE
8
BLACK
6
CONTINUOUS
10
7.2546
20
1.76607
11
7.25273
21
1.76232
0
LINE
8
BLACK
6
CONTINUOUS
10
7.25273
20
1.76232
11
7.25085
21
1.76044
0
LINE
8
BLACK
6
CONTINUOUS
10
7.25085
20
1.76044
11
7.2471
21
1.75857
0
LINE
8
BLACK
6
CONTINUOUS
10
7.2471
20
1.75857
11
7.24335
21
1.75857
0
LINE
8
BLACK
6
CONTINUOUS
10
7.24335
20
1.75857
11
7.2396
21
1.76044
0
LINE
8
BLACK
6
CONTINUOUS
10
7.2396
20
1.76044
11
7.23773
21
1.76232
0
LINE
8
BLACK
6
CONTINUOUS
10
7.23773
20
1.76232
11
7.23585
21
1.76607
0
LINE
8
BLACK
6
CONTINUOUS
10
7.23585
20
1.76607
11
7.23398
21
1.77357
0
LINE
8
BLACK
6
CONTINUOUS
10
7.23398
20
1.77357
11
7.23398
21
1.78294
0
LINE
8
BLACK
6
CONTINUOUS
10
7.23398
20
1.78294
11
7.23585
21
1.79044
0
LINE
8
BLACK
6
CONTINUOUS
10
7.23585
20
1.79044
11
7.23773
21
1.79419
0
LINE
8
BLACK
6
CONTINUOUS
10
7.23773
20
1.79419
11
7.2396
21
1.79606
0
LINE
8
BLACK
6
CONTINUOUS
10
7.2396
20
1.79606
11
7.24335
21
1.79794
0
LINE
8
BLACK
6
CONTINUOUS
10
7.28085
20
1.79794
11
7.2846
21
1.79794
0
LINE
8
BLACK
6
CONTINUOUS
10
7.2846
20
1.79794
11
7.28835
21
1.79606
0
LINE
8
BLACK
6
CONTINUOUS
10
7.28835
20
1.79606
11
7.29022
21
1.79419
0
LINE
8
BLACK
6
CONTINUOUS
10
7.29022
20
1.79419
11
7.2921
21
1.79044
0
LINE
8
BLACK
6
CONTINUOUS
10
7.2921
20
1.79044
11
7.29397
21
1.78294
0
LINE
8
BLACK
6
CONTINUOUS
10
7.29397
20
1.78294
11
7.29397
21
1.77357
0
LINE
8
BLACK
6
CONTINUOUS
10
7.29397
20
1.77357
11
7.2921
21
1.76607
0
LINE
8
BLACK
6
CONTINUOUS
10
7.2921
20
1.76607
11
7.29022
21
1.76232
0
LINE
8
BLACK
6
CONTINUOUS
10
7.29022
20
1.76232
11
7.28835
21
1.76044
0
LINE
8
BLACK
6
CONTINUOUS
10
7.28835
20
1.76044
11
7.2846
21
1.75857
0
LINE
8
BLACK
6
CONTINUOUS
10
7.2846
20
1.75857
11
7.28085
21
1.75857
0
LINE
8
BLACK
6
CONTINUOUS
10
7.28085
20
1.75857
11
7.2771
21
1.76044
0
LINE
8
BLACK
6
CONTINUOUS
10
7.2771
20
1.76044
11
7.27522
21
1.76232
0
LINE
8
BLACK
6
CONTINUOUS
10
7.27522
20
1.76232
11
7.27335
21
1.76607
0
LINE
8
BLACK
6
CONTINUOUS
10
7.27335
20
1.76607
11
7.27148
21
1.77357
0
LINE
8
BLACK
6
CONTINUOUS
10
7.27148
20
1.77357
11
7.27148
21
1.78294
0
LINE
8
BLACK
6
CONTINUOUS
10
7.27148
20
1.78294
11
7.27335
21
1.79044
0
LINE
8
BLACK
6
CONTINUOUS
10
7.27335
20
1.79044
11
7.27522
21
1.79419
0
LINE
8
BLACK
6
CONTINUOUS
10
7.27522
20
1.79419
11
7.2771
21
1.79606
0
LINE
8
BLACK
6
CONTINUOUS
10
7.2771
20
1.79606
11
7.28085
21
1.79794
0
LINE
8
BLACK
6
CONTINUOUS
10
7.31834
20
1.79794
11
7.32209
21
1.79794
0
LINE
8
BLACK
6
CONTINUOUS
10
7.32209
20
1.79794
11
7.32584
21
1.79606
0
LINE
8
BLACK
6
CONTINUOUS
10
7.32584
20
1.79606
11
7.32772
21
1.79419
0
LINE
8
BLACK
6
CONTINUOUS
10
7.32772
20
1.79419
11
7.32959
21
1.79044
0
LINE
8
BLACK
6
CONTINUOUS
10
7.32959
20
1.79044
11
7.33147
21
1.78294
0
LINE
8
BLACK
6
CONTINUOUS
10
7.33147
20
1.78294
11
7.33147
21
1.77357
0
LINE
8
BLACK
6
CONTINUOUS
10
7.33147
20
1.77357
11
7.32959
21
1.76607
0
LINE
8
BLACK
6
CONTINUOUS
10
7.32959
20
1.76607
11
7.32772
21
1.76232
0
LINE
8
BLACK
6
CONTINUOUS
10
7.32772
20
1.76232
11
7.32584
21
1.76044
0
LINE
8
BLACK
6
CONTINUOUS
10
7.32584
20
1.76044
11
7.32209
21
1.75857
0
LINE
8
BLACK
6
CONTINUOUS
10
7.32209
20
1.75857
11
7.31834
21
1.75857
0
LINE
8
BLACK
6
CONTINUOUS
10
7.31834
20
1.75857
11
7.3146
21
1.76044
0
LINE
8
BLACK
6
CONTINUOUS
10
7.3146
20
1.76044
11
7.31272
21
1.76232
0
LINE
8
BLACK
6
CONTINUOUS
10
7.31272
20
1.76232
11
7.31085
21
1.76607
0
LINE
8
BLACK
6
CONTINUOUS
10
7.31085
20
1.76607
11
7.30897
21
1.77357
0
LINE
8
BLACK
6
CONTINUOUS
10
7.30897
20
1.77357
11
7.30897
21
1.78294
0
LINE
8
BLACK
6
CONTINUOUS
10
7.30897
20
1.78294
11
7.31085
21
1.79044
0
LINE
8
BLACK
6
CONTINUOUS
10
7.31085
20
1.79044
11
7.31272
21
1.79419
0
LINE
8
BLACK
6
CONTINUOUS
10
7.31272
20
1.79419
11
7.3146
21
1.79606
0
LINE
8
BLACK
6
CONTINUOUS
10
7.3146
20
1.79606
11
7.31834
21
1.79794
0
LINE
8
BLACK
6
CONTINUOUS
10
7.37834
20
1.75857
11
7.37834
21
1.78481
0
LINE
8
BLACK
6
CONTINUOUS
10
7.37834
20
1.78106
11
7.38021
21
1.78294
0
LINE
8
BLACK
6
CONTINUOUS
10
7.38021
20
1.78294
11
7.38396
21
1.78481
0
LINE
8
BLACK
6
CONTINUOUS
10
7.38396
20
1.78481
11
7.38959
21
1.78481
0
LINE
8
BLACK
6
CONTINUOUS
10
7.38959
20
1.78481
11
7.39334
21
1.78294
0
LINE
8
BLACK
6
CONTINUOUS
10
7.39334
20
1.78294
11
7.39521
21
1.77919
0
LINE
8
BLACK
6
CONTINUOUS
10
7.39521
20
1.77919
11
7.39521
21
1.75857
0
LINE
8
BLACK
6
CONTINUOUS
10
7.39521
20
1.77919
11
7.39708
21
1.78294
0
LINE
8
BLACK
6
CONTINUOUS
10
7.39708
20
1.78294
11
7.40083
21
1.78481
0
LINE
8
BLACK
6
CONTINUOUS
10
7.40083
20
1.78481
11
7.40646
21
1.78481
0
LINE
8
BLACK
6
CONTINUOUS
10
7.40646
20
1.78481
11
7.41021
21
1.78294
0
LINE
8
BLACK
6
CONTINUOUS
10
7.41021
20
1.78294
11
7.41208
21
1.77919
0
LINE
8
BLACK
6
CONTINUOUS
10
7.41208
20
1.77919
11
7.41208
21
1.75857
0
LINE
8
BLACK
6
CONTINUOUS
10
7.43083
20
1.75857
11
7.43083
21
1.78481
0
LINE
8
BLACK
6
CONTINUOUS
10
7.43083
20
1.78106
11
7.43271
21
1.78294
0
LINE
8
BLACK
6
CONTINUOUS
10
7.43271
20
1.78294
11
7.43645
21
1.78481
0
LINE
8
BLACK
6
CONTINUOUS
10
7.43645
20
1.78481
11
7.44208
21
1.78481
0
LINE
8
BLACK
6
CONTINUOUS
10
7.44208
20
1.78481
11
7.44583
21
1.78294
0
LINE
8
BLACK
6
CONTINUOUS
10
7.44583
20
1.78294
11
7.4477
21
1.77919
0
LINE
8
BLACK
6
CONTINUOUS
10
7.4477
20
1.77919
11
7.4477
21
1.75857
0
LINE
8
BLACK
6
CONTINUOUS
10
7.4477
20
1.77919
11
7.44958
21
1.78294
0
LINE
8
BLACK
6
CONTINUOUS
10
7.44958
20
1.78294
11
7.45333
21
1.78481
0
LINE
8
BLACK
6
CONTINUOUS
10
7.45333
20
1.78481
11
7.45895
21
1.78481
0
LINE
8
BLACK
6
CONTINUOUS
10
7.45895
20
1.78481
11
7.4627
21
1.78294
0
LINE
8
BLACK
6
CONTINUOUS
10
7.4627
20
1.78294
11
7.46458
21
1.77919
0
LINE
8
BLACK
6
CONTINUOUS
10
7.46458
20
1.77919
11
7.46458
21
1.75857
0
LINE
8
BLACK
6
CONTINUOUS
10
7.02776
20
1.72913
11
7.57894
21
1.72913
0
LINE
8
BLACK
6
CONTINUOUS
10
7.02776
20
1.72648
11
7.02776
21
1.75222
0
LINE
8
BLACK
6
CONTINUOUS
10
7.57894
20
1.72648
11
7.57894
21
1.75222
0
LINE
8
BLACK
6
CONTINUOUS
10
7.57894
20
1.72913
11
7.53459
21
1.70605
0
LINE
8
BLACK
6
CONTINUOUS
10
7.57894
20
1.72913
11
7.53459
21
1.75222
0
LINE
8
BLACK
6
CONTINUOUS
10
7.02776
20
1.72913
11
7.07211
21
1.70605
0
LINE
8
BLACK
6
CONTINUOUS
10
7.02776
20
1.72913
11
7.07211
21
1.75222
0
LINE
8
BLACK
6
CONTINUOUS
10
7.96978
20
-0.534355
11
7.96978
21
-0.556852
0
LINE
8
BLACK
6
CONTINUOUS
10
7.96978
20
-0.545604
11
7.93041
21
-0.545604
0
LINE
8
BLACK
6
CONTINUOUS
10
7.93041
20
-0.545604
11
7.93603
21
-0.549353
0
LINE
8
BLACK
6
CONTINUOUS
10
7.93603
20
-0.549353
11
7.93978
21
-0.553103
0
LINE
8
BLACK
6
CONTINUOUS
10
7.93978
20
-0.553103
11
7.94166
21
-0.556852
0
LINE
8
BLACK
6
CONTINUOUS
10
7.93041
20
-0.509983
11
7.93041
21
-0.506234
0
LINE
8
BLACK
6
CONTINUOUS
10
7.93041
20
-0.506234
11
7.93228
21
-0.502484
0
LINE
8
BLACK
6
CONTINUOUS
10
7.93228
20
-0.502484
11
7.93416
21
-0.500609
0
LINE
8
BLACK
6
CONTINUOUS
10
7.93416
20
-0.500609
11
7.93791
21
-0.498735
0
LINE
8
BLACK
6
CONTINUOUS
10
7.93791
20
-0.498735
11
7.94541
21
-0.49686
0
LINE
8
BLACK
6
CONTINUOUS
10
7.94541
20
-0.49686
11
7.95478
21
-0.49686
0
LINE
8
BLACK
6
CONTINUOUS
10
7.95478
20
-0.49686
11
7.96228
21
-0.498735
0
LINE
8
BLACK
6
CONTINUOUS
10
7.96228
20
-0.498735
11
7.96603
21
-0.500609
0
LINE
8
BLACK
6
CONTINUOUS
10
7.96603
20
-0.500609
11
7.9679
21
-0.502484
0
LINE
8
BLACK
6
CONTINUOUS
10
7.9679
20
-0.502484
11
7.96978
21
-0.506234
0
LINE
8
BLACK
6
CONTINUOUS
10
7.96978
20
-0.506234
11
7.96978
21
-0.509983
0
LINE
8
BLACK
6
CONTINUOUS
10
7.96978
20
-0.509983
11
7.9679
21
-0.513733
0
LINE
8
BLACK
6
CONTINUOUS
10
7.9679
20
-0.513733
11
7.96603
21
-0.515607
0
LINE
8
BLACK
6
CONTINUOUS
10
7.96603
20
-0.515607
11
7.96228
21
-0.517482
0
LINE
8
BLACK
6
CONTINUOUS
10
7.96228
20
-0.517482
11
7.95478
21
-0.519357
0
LINE
8
BLACK
6
CONTINUOUS
10
7.95478
20
-0.519357
11
7.94541
21
-0.519357
0
LINE
8
BLACK
6
CONTINUOUS
10
7.94541
20
-0.519357
11
7.93791
21
-0.517482
0
LINE
8
BLACK
6
CONTINUOUS
10
7.93791
20
-0.517482
11
7.93416
21
-0.515607
0
LINE
8
BLACK
6
CONTINUOUS
10
7.93416
20
-0.515607
11
7.93228
21
-0.513733
0
LINE
8
BLACK
6
CONTINUOUS
10
7.93228
20
-0.513733
11
7.93041
21
-0.509983
0
LINE
8
BLACK
6
CONTINUOUS
10
7.93041
20
-0.483736
11
7.93041
21
-0.459364
0
LINE
8
BLACK
6
CONTINUOUS
10
7.93041
20
-0.459364
11
7.94541
21
-0.472488
0
LINE
8
BLACK
6
CONTINUOUS
10
7.94541
20
-0.472488
11
7.94541
21
-0.466864
0
LINE
8
BLACK
6
CONTINUOUS
10
7.94541
20
-0.466864
11
7.94728
21
-0.463114
0
LINE
8
BLACK
6
CONTINUOUS
10
7.94728
20
-0.463114
11
7.94916
21
-0.461239
0
LINE
8
BLACK
6
CONTINUOUS
10
7.94916
20
-0.461239
11
7.95291
21
-0.459364
0
LINE
8
BLACK
6
CONTINUOUS
10
7.95291
20
-0.459364
11
7.96228
21
-0.459364
0
LINE
8
BLACK
6
CONTINUOUS
10
7.96228
20
-0.459364
11
7.96603
21
-0.461239
0
LINE
8
BLACK
6
CONTINUOUS
10
7.96603
20
-0.461239
11
7.9679
21
-0.463114
0
LINE
8
BLACK
6
CONTINUOUS
10
7.9679
20
-0.463114
11
7.96978
21
-0.466864
0
LINE
8
BLACK
6
CONTINUOUS
10
7.96978
20
-0.466864
11
7.96978
21
-0.478112
0
LINE
8
BLACK
6
CONTINUOUS
10
7.96978
20
-0.478112
11
7.9679
21
-0.481862
0
LINE
8
BLACK
6
CONTINUOUS
10
7.9679
20
-0.481862
11
7.96603
21
-0.483736
0
LINE
8
BLACK
6
CONTINUOUS
10
7.96603
20
-0.442492
11
7.9679
21
-0.440617
0
LINE
8
BLACK
6
CONTINUOUS
10
7.9679
20
-0.440617
11
7.96978
21
-0.442492
0
LINE
8
BLACK
6
CONTINUOUS
10
7.96978
20
-0.442492
11
7.9679
21
-0.444366
0
LINE
8
BLACK
6
CONTINUOUS
10
7.9679
20
-0.444366
11
7.96603
21
-0.442492
0
LINE
8
BLACK
6
CONTINUOUS
10
7.96603
20
-0.442492
11
7.96978
21
-0.442492
0
LINE
8
BLACK
6
CONTINUOUS
10
7.94728
20
-0.41812
11
7.94541
21
-0.421869
0
LINE
8
BLACK
6
CONTINUOUS
10
7.94541
20
-0.421869
11
7.94353
21
-0.423744
0
LINE
8
BLACK
6
CONTINUOUS
10
7.94353
20
-0.423744
11
7.93978
21
-0.425619
0
LINE
8
BLACK
6
CONTINUOUS
10
7.93978
20
-0.425619
11
7.93791
21
-0.425619
0
LINE
8
BLACK
6
CONTINUOUS
10
7.93791
20
-0.425619
11
7.93416
21
-0.423744
0
LINE
8
BLACK
6
CONTINUOUS
10
7.93416
20
-0.423744
11
7.93228
21
-0.421869
0
LINE
8
BLACK
6
CONTINUOUS
10
7.93228
20
-0.421869
11
7.93041
21
-0.41812
0
LINE
8
BLACK
6
CONTINUOUS
10
7.93041
20
-0.41812
11
7.93041
21
-0.410621
0
LINE
8
BLACK
6
CONTINUOUS
10
7.93041
20
-0.410621
11
7.93228
21
-0.406871
0
LINE
8
BLACK
6
CONTINUOUS
10
7.93228
20
-0.406871
11
7.93416
21
-0.404996
0
LINE
8
BLACK
6
CONTINUOUS
10
7.93416
20
-0.404996
11
7.93791
21
-0.403121
0
LINE
8
BLACK
6
CONTINUOUS
10
7.93791
20
-0.403121
11
7.93978
21
-0.403121
0
LINE
8
BLACK
6
CONTINUOUS
10
7.93978
20
-0.403121
11
7.94353
21
-0.404996
0
LINE
8
BLACK
6
CONTINUOUS
10
7.94353
20
-0.404996
11
7.94541
21
-0.406871
0
LINE
8
BLACK
6
CONTINUOUS
10
7.94541
20
-0.406871
11
7.94728
21
-0.410621
0
LINE
8
BLACK
6
CONTINUOUS
10
7.94728
20
-0.410621
11
7.94728
21
-0.41812
0
LINE
8
BLACK
6
CONTINUOUS
10
7.94728
20
-0.41812
11
7.94916
21
-0.421869
0
LINE
8
BLACK
6
CONTINUOUS
10
7.94916
20
-0.421869
11
7.95103
21
-0.423744
0
LINE
8
BLACK
6
CONTINUOUS
10
7.95103
20
-0.423744
11
7.95478
21
-0.425619
0
LINE
8
BLACK
6
CONTINUOUS
10
7.95478
20
-0.425619
11
7.96228
21
-0.425619
0
LINE
8
BLACK
6
CONTINUOUS
10
7.96228
20
-0.425619
11
7.96603
21
-0.423744
0
LINE
8
BLACK
6
CONTINUOUS
10
7.96603
20
-0.423744
11
7.9679
21
-0.421869
0
LINE
8
BLACK
6
CONTINUOUS
10
7.9679
20
-0.421869
11
7.96978
21
-0.41812
0
LINE
8
BLACK
6
CONTINUOUS
10
7.96978
20
-0.41812
11
7.96978
21
-0.410621
0
LINE
8
BLACK
6
CONTINUOUS
10
7.96978
20
-0.410621
11
7.9679
21
-0.406871
0
LINE
8
BLACK
6
CONTINUOUS
10
7.9679
20
-0.406871
11
7.96603
21
-0.404996
0
LINE
8
BLACK
6
CONTINUOUS
10
7.96603
20
-0.404996
11
7.96228
21
-0.403121
0
LINE
8
BLACK
6
CONTINUOUS
10
7.96228
20
-0.403121
11
7.95478
21
-0.403121
0
LINE
8
BLACK
6
CONTINUOUS
10
7.95478
20
-0.403121
11
7.95103
21
-0.404996
0
LINE
8
BLACK
6
CONTINUOUS
10
7.95103
20
-0.404996
11
7.94916
21
-0.406871
0
LINE
8
BLACK
6
CONTINUOUS
10
7.94916
20
-0.406871
11
7.94728
21
-0.410621
0
LINE
8
BLACK
6
CONTINUOUS
10
7.93041
20
-0.37875
11
7.93041
21
-0.375
0
LINE
8
BLACK
6
CONTINUOUS
10
7.93041
20
-0.375
11
7.93228
21
-0.37125
0
LINE
8
BLACK
6
CONTINUOUS
10
7.93228
20
-0.37125
11
7.93416
21
-0.369376
0
LINE
8
BLACK
6
CONTINUOUS
10
7.93416
20
-0.369376
11
7.93791
21
-0.367501
0
LINE
8
BLACK
6
CONTINUOUS
10
7.93791
20
-0.367501
11
7.94541
21
-0.365626
0
LINE
8
BLACK
6
CONTINUOUS
10
7.94541
20
-0.365626
11
7.95478
21
-0.365626
0
LINE
8
BLACK
6
CONTINUOUS
10
7.95478
20
-0.365626
11
7.96228
21
-0.367501
0
LINE
8
BLACK
6
CONTINUOUS
10
7.96228
20
-0.367501
11
7.96603
21
-0.369376
0
LINE
8
BLACK
6
CONTINUOUS
10
7.96603
20
-0.369376
11
7.9679
21
-0.37125
0
LINE
8
BLACK
6
CONTINUOUS
10
7.9679
20
-0.37125
11
7.96978
21
-0.375
0
LINE
8
BLACK
6
CONTINUOUS
10
7.96978
20
-0.375
11
7.96978
21
-0.37875
0
LINE
8
BLACK
6
CONTINUOUS
10
7.96978
20
-0.37875
11
7.9679
21
-0.382499
0
LINE
8
BLACK
6
CONTINUOUS
10
7.9679
20
-0.382499
11
7.96603
21
-0.384374
0
LINE
8
BLACK
6
CONTINUOUS
10
7.96603
20
-0.384374
11
7.96228
21
-0.386249
0
LINE
8
BLACK
6
CONTINUOUS
10
7.96228
20
-0.386249
11
7.95478
21
-0.388123
0
LINE
8
BLACK
6
CONTINUOUS
10
7.95478
20
-0.388123
11
7.94541
21
-0.388123
0
LINE
8
BLACK
6
CONTINUOUS
10
7.94541
20
-0.388123
11
7.93791
21
-0.386249
0
LINE
8
BLACK
6
CONTINUOUS
10
7.93791
20
-0.386249
11
7.93416
21
-0.384374
0
LINE
8
BLACK
6
CONTINUOUS
10
7.93416
20
-0.384374
11
7.93228
21
-0.382499
0
LINE
8
BLACK
6
CONTINUOUS
10
7.93228
20
-0.382499
11
7.93041
21
-0.37875
0
LINE
8
BLACK
6
CONTINUOUS
10
7.93041
20
-0.330006
11
7.93041
21
-0.348753
0
LINE
8
BLACK
6
CONTINUOUS
10
7.93041
20
-0.348753
11
7.94916
21
-0.350628
0
LINE
8
BLACK
6
CONTINUOUS
10
7.94916
20
-0.350628
11
7.94728
21
-0.348753
0
LINE
8
BLACK
6
CONTINUOUS
10
7.94728
20
-0.348753
11
7.94541
21
-0.345004
0
LINE
8
BLACK
6
CONTINUOUS
10
7.94541
20
-0.345004
11
7.94541
21
-0.33563
0
LINE
8
BLACK
6
CONTINUOUS
10
7.94541
20
-0.33563
11
7.94728
21
-0.33188
0
LINE
8
BLACK
6
CONTINUOUS
10
7.94728
20
-0.33188
11
7.94916
21
-0.330006
0
LINE
8
BLACK
6
CONTINUOUS
10
7.94916
20
-0.330006
11
7.95291
21
-0.328131
0
LINE
8
BLACK
6
CONTINUOUS
10
7.95291
20
-0.328131
11
7.96228
21
-0.328131
0
LINE
8
BLACK
6
CONTINUOUS
10
7.96228
20
-0.328131
11
7.96603
21
-0.330006
0
LINE
8
BLACK
6
CONTINUOUS
10
7.96603
20
-0.330006
11
7.9679
21
-0.33188
0
LINE
8
BLACK
6
CONTINUOUS
10
7.9679
20
-0.33188
11
7.96978
21
-0.33563
0
LINE
8
BLACK
6
CONTINUOUS
10
7.96978
20
-0.33563
11
7.96978
21
-0.345004
0
LINE
8
BLACK
6
CONTINUOUS
10
7.96978
20
-0.345004
11
7.9679
21
-0.348753
0
LINE
8
BLACK
6
CONTINUOUS
10
7.9679
20
-0.348753
11
7.96603
21
-0.350628
0
LINE
8
BLACK
6
CONTINUOUS
10
7.96978
20
-0.281262
11
7.94353
21
-0.281262
0
LINE
8
BLACK
6
CONTINUOUS
10
7.94728
20
-0.281262
11
7.94541
21
-0.279387
0
LINE
8
BLACK
6
CONTINUOUS
10
7.94541
20
-0.279387
11
7.94353
21
-0.275637
0
LINE
8
BLACK
6
CONTINUOUS
10
7.94353
20
-0.275637
11
7.94353
21
-0.270013
0
LINE
8
BLACK
6
CONTINUOUS
10
7.94353
20
-0.270013
11
7.94541
21
-0.266264
0
LINE
8
BLACK
6
CONTINUOUS
10
7.94541
20
-0.266264
11
7.94916
21
-0.264389
0
LINE
8
BLACK
6
CONTINUOUS
10
7.94916
20
-0.264389
11
7.96978
21
-0.264389
0
LINE
8
BLACK
6
CONTINUOUS
10
7.94916
20
-0.264389
11
7.94541
21
-0.262514
0
LINE
8
BLACK
6
CONTINUOUS
10
7.94541
20
-0.262514
11
7.94353
21
-0.258765
0
LINE
8
BLACK
6
CONTINUOUS
10
7.94353
20
-0.258765
11
7.94353
21
-0.25314
0
LINE
8
BLACK
6
CONTINUOUS
10
7.94353
20
-0.25314
11
7.94541
21
-0.249391
0
LINE
8
BLACK
6
CONTINUOUS
10
7.94541
20
-0.249391
11
7.94916
21
-0.247516
0
LINE
8
BLACK
6
CONTINUOUS
10
7.94916
20
-0.247516
11
7.96978
21
-0.247516
0
LINE
8
BLACK
6
CONTINUOUS
10
7.96978
20
-0.228768
11
7.94353
21
-0.228768
0
LINE
8
BLACK
6
CONTINUOUS
10
7.94728
20
-0.228768
11
7.94541
21
-0.226894
0
LINE
8
BLACK
6
CONTINUOUS
10
7.94541
20
-0.226894
11
7.94353
21
-0.223144
0
LINE
8
BLACK
6
CONTINUOUS
10
7.94353
20
-0.223144
11
7.94353
21
-0.21752
0
LINE
8
BLACK
6
CONTINUOUS
10
7.94353
20
-0.21752
11
7.94541
21
-0.21377
0
LINE
8
BLACK
6
CONTINUOUS
10
7.94541
20
-0.21377
11
7.94916
21
-0.211895
0
LINE
8
BLACK
6
CONTINUOUS
10
7.94916
20
-0.211895
11
7.96978
21
-0.211895
0
LINE
8
BLACK
6
CONTINUOUS
10
7.94916
20
-0.211895
11
7.94541
21
-0.210021
0
LINE
8
BLACK
6
CONTINUOUS
10
7.94541
20
-0.210021
11
7.94353
21
-0.206271
0
LINE
8
BLACK
6
CONTINUOUS
10
7.94353
20
-0.206271
11
7.94353
21
-0.200647
0
LINE
8
BLACK
6
CONTINUOUS
10
7.94353
20
-0.200647
11
7.94541
21
-0.196897
0
LINE
8
BLACK
6
CONTINUOUS
10
7.94541
20
-0.196897
11
7.94916
21
-0.195022
0
LINE
8
BLACK
6
CONTINUOUS
10
7.94916
20
-0.195022
11
7.96978
21
-0.195022
0
LINE
8
BLACK
6
CONTINUOUS
10
7.90472
20
-2.41841
11
7.90472
21
1.66841
0
LINE
8
BLACK
6
CONTINUOUS
10
7.7376
20
-2.41841
11
7.92781
21
-2.41841
0
LINE
8
BLACK
6
CONTINUOUS
10
7.7376
20
1.66841
11
7.92781
21
1.66841
0
LINE
8
BLACK
6
CONTINUOUS
10
7.90472
20
1.66841
11
7.92781
21
1.62405
0
LINE
8
BLACK
6
CONTINUOUS
10
7.90472
20
1.66841
11
7.88164
21
1.62405
0
LINE
8
BLACK
6
CONTINUOUS
10
7.90472
20
-2.41841
11
7.92781
21
-2.37405
0
LINE
8
BLACK
6
CONTINUOUS
10
7.90472
20
-2.41841
11
7.88164
21
-2.37405
0
LINE
8
BLACK
6
CONTINUOUS
10
4.33061
20
1.89873
11
4.30811
21
1.89873
0
LINE
8
BLACK
6
CONTINUOUS
10
4.31936
20
1.89873
11
4.31936
21
1.9381
0
LINE
8
BLACK
6
CONTINUOUS
10
4.31936
20
1.9381
11
4.31561
21
1.93247
0
LINE
8
BLACK
6
CONTINUOUS
10
4.31561
20
1.93247
11
4.31186
21
1.92872
0
LINE
8
BLACK
6
CONTINUOUS
10
4.31186
20
1.92872
11
4.30811
21
1.92685
0
LINE
8
BLACK
6
CONTINUOUS
10
4.36435
20
1.9381
11
4.35685
21
1.9381
0
LINE
8
BLACK
6
CONTINUOUS
10
4.35685
20
1.9381
11
4.3531
21
1.93622
0
LINE
8
BLACK
6
CONTINUOUS
10
4.3531
20
1.93622
11
4.35123
21
1.93435
0
LINE
8
BLACK
6
CONTINUOUS
10
4.35123
20
1.93435
11
4.34748
21
1.92872
0
LINE
8
BLACK
6
CONTINUOUS
10
4.34748
20
1.92872
11
4.3456
21
1.92122
0
LINE
8
BLACK
6
CONTINUOUS
10
4.3456
20
1.92122
11
4.3456
21
1.90622
0
LINE
8
BLACK
6
CONTINUOUS
10
4.3456
20
1.90622
11
4.34748
21
1.90247
0
LINE
8
BLACK
6
CONTINUOUS
10
4.34748
20
1.90247
11
4.34935
21
1.9006
0
LINE
8
BLACK
6
CONTINUOUS
10
4.34935
20
1.9006
11
4.3531
21
1.89873
0
LINE
8
BLACK
6
CONTINUOUS
10
4.3531
20
1.89873
11
4.3606
21
1.89873
0
LINE
8
BLACK
6
CONTINUOUS
10
4.3606
20
1.89873
11
4.36435
21
1.9006
0
LINE
8
BLACK
6
CONTINUOUS
10
4.36435
20
1.9006
11
4.36623
21
1.90247
0
LINE
8
BLACK
6
CONTINUOUS
10
4.36623
20
1.90247
11
4.3681
21
1.90622
0
LINE
8
BLACK
6
CONTINUOUS
10
4.3681
20
1.90622
11
4.3681
21
1.9156
0
LINE
8
BLACK
6
CONTINUOUS
10
4.3681
20
1.9156
11
4.36623
21
1.91935
0
LINE
8
BLACK
6
CONTINUOUS
10
4.36623
20
1.91935
11
4.36435
21
1.92122
0
LINE
8
BLACK
6
CONTINUOUS
10
4.36435
20
1.92122
11
4.3606
21
1.9231
0
LINE
8
BLACK
6
CONTINUOUS
10
4.3606
20
1.9231
11
4.3531
21
1.9231
0
LINE
8
BLACK
6
CONTINUOUS
10
4.3531
20
1.9231
11
4.34935
21
1.92122
0
LINE
8
BLACK
6
CONTINUOUS
10
4.34935
20
1.92122
11
4.34748
21
1.91935
0
LINE
8
BLACK
6
CONTINUOUS
10
4.34748
20
1.91935
11
4.3456
21
1.9156
0
LINE
8
BLACK
6
CONTINUOUS
10
4.4056
20
1.89873
11
4.3831
21
1.89873
0
LINE
8
BLACK
6
CONTINUOUS
10
4.39435
20
1.89873
11
4.39435
21
1.9381
0
LINE
8
BLACK
6
CONTINUOUS
10
4.39435
20
1.9381
11
4.3906
21
1.93247
0
LINE
8
BLACK
6
CONTINUOUS
10
4.3906
20
1.93247
11
4.38685
21
1.92872
0
LINE
8
BLACK
6
CONTINUOUS
10
4.38685
20
1.92872
11
4.3831
21
1.92685
0
LINE
8
BLACK
6
CONTINUOUS
10
4.42247
20
1.90247
11
4.42434
21
1.9006
0
LINE
8
BLACK
6
CONTINUOUS
10
4.42434
20
1.9006
11
4.42247
21
1.89873
0
LINE
8
BLACK
6
CONTINUOUS
10
4.42247
20
1.89873
11
4.42059
21
1.9006
0
LINE
8
BLACK
6
CONTINUOUS
10
4.42059
20
1.9006
11
4.42247
21
1.90247
0
LINE
8
BLACK
6
CONTINUOUS
10
4.42247
20
1.90247
11
4.42247
21
1.89873
0
LINE
8
BLACK
6
CONTINUOUS
10
4.44309
20
1.89873
11
4.45059
21
1.89873
0
LINE
8
BLACK
6
CONTINUOUS
10
4.45059
20
1.89873
11
4.45434
21
1.9006
0
LINE
8
BLACK
6
CONTINUOUS
10
4.45434
20
1.9006
11
4.45621
21
1.90247
0
LINE
8
BLACK
6
CONTINUOUS
10
4.45621
20
1.90247
11
4.45996
21
1.9081
0
LINE
8
BLACK
6
CONTINUOUS
10
4.45996
20
1.9081
11
4.46184
21
1.9156
0
LINE
8
BLACK
6
CONTINUOUS
10
4.46184
20
1.9156
11
4.46184
21
1.9306
0
LINE
8
BLACK
6
CONTINUOUS
10
4.46184
20
1.9306
11
4.45996
21
1.93435
0
LINE
8
BLACK
6
CONTINUOUS
10
4.45996
20
1.93435
11
4.45809
21
1.93622
0
LINE
8
BLACK
6
CONTINUOUS
10
4.45809
20
1.93622
11
4.45434
21
1.9381
0
LINE
8
BLACK
6
CONTINUOUS
10
4.45434
20
1.9381
11
4.44684
21
1.9381
0
LINE
8
BLACK
6
CONTINUOUS
10
4.44684
20
1.9381
11
4.44309
21
1.93622
0
LINE
8
BLACK
6
CONTINUOUS
10
4.44309
20
1.93622
11
4.44122
21
1.93435
0
LINE
8
BLACK
6
CONTINUOUS
10
4.44122
20
1.93435
11
4.43934
21
1.9306
0
LINE
8
BLACK
6
CONTINUOUS
10
4.43934
20
1.9306
11
4.43934
21
1.92122
0
LINE
8
BLACK
6
CONTINUOUS
10
4.43934
20
1.92122
11
4.44122
21
1.91747
0
LINE
8
BLACK
6
CONTINUOUS
10
4.44122
20
1.91747
11
4.44309
21
1.9156
0
LINE
8
BLACK
6
CONTINUOUS
10
4.44309
20
1.9156
11
4.44684
21
1.91372
0
LINE
8
BLACK
6
CONTINUOUS
10
4.44684
20
1.91372
11
4.45434
21
1.91372
0
LINE
8
BLACK
6
CONTINUOUS
10
4.45434
20
1.91372
11
4.45809
21
1.9156
0
LINE
8
BLACK
6
CONTINUOUS
10
4.45809
20
1.9156
11
4.45996
21
1.91747
0
LINE
8
BLACK
6
CONTINUOUS
10
4.45996
20
1.91747
11
4.46184
21
1.92122
0
LINE
8
BLACK
6
CONTINUOUS
10
4.47496
20
1.9381
11
4.50121
21
1.9381
0
LINE
8
BLACK
6
CONTINUOUS
10
4.50121
20
1.9381
11
4.48434
21
1.89873
0
LINE
8
BLACK
6
CONTINUOUS
10
4.52371
20
1.9381
11
4.52746
21
1.9381
0
LINE
8
BLACK
6
CONTINUOUS
10
4.52746
20
1.9381
11
4.53121
21
1.93622
0
LINE
8
BLACK
6
CONTINUOUS
10
4.53121
20
1.93622
11
4.53308
21
1.93435
0
LINE
8
BLACK
6
CONTINUOUS
10
4.53308
20
1.93435
11
4.53496
21
1.9306
0
LINE
8
BLACK
6
CONTINUOUS
10
4.53496
20
1.9306
11
4.53683
21
1.9231
0
LINE
8
BLACK
6
CONTINUOUS
10
4.53683
20
1.9231
11
4.53683
21
1.91372
0
LINE
8
BLACK
6
CONTINUOUS
10
4.53683
20
1.91372
11
4.53496
21
1.90622
0
LINE
8
BLACK
6
CONTINUOUS
10
4.53496
20
1.90622
11
4.53308
21
1.90247
0
LINE
8
BLACK
6
CONTINUOUS
10
4.53308
20
1.90247
11
4.53121
21
1.9006
0
LINE
8
BLACK
6
CONTINUOUS
10
4.53121
20
1.9006
11
4.52746
21
1.89873
0
LINE
8
BLACK
6
CONTINUOUS
10
4.52746
20
1.89873
11
4.52371
21
1.89873
0
LINE
8
BLACK
6
CONTINUOUS
10
4.52371
20
1.89873
11
4.51996
21
1.9006
0
LINE
8
BLACK
6
CONTINUOUS
10
4.51996
20
1.9006
11
4.51808
21
1.90247
0
LINE
8
BLACK
6
CONTINUOUS
10
4.51808
20
1.90247
11
4.51621
21
1.90622
0
LINE
8
BLACK
6
CONTINUOUS
10
4.51621
20
1.90622
11
4.51433
21
1.91372
0
LINE
8
BLACK
6
CONTINUOUS
10
4.51433
20
1.91372
11
4.51433
21
1.9231
0
LINE
8
BLACK
6
CONTINUOUS
10
4.51433
20
1.9231
11
4.51621
21
1.9306
0
LINE
8
BLACK
6
CONTINUOUS
10
4.51621
20
1.9306
11
4.51808
21
1.93435
0
LINE
8
BLACK
6
CONTINUOUS
10
4.51808
20
1.93435
11
4.51996
21
1.93622
0
LINE
8
BLACK
6
CONTINUOUS
10
4.51996
20
1.93622
11
4.52371
21
1.9381
0
LINE
8
BLACK
6
CONTINUOUS
10
4.5837
20
1.89873
11
4.5837
21
1.92497
0
LINE
8
BLACK
6
CONTINUOUS
10
4.5837
20
1.92122
11
4.58557
21
1.9231
0
LINE
8
BLACK
6
CONTINUOUS
10
4.58557
20
1.9231
11
4.58932
21
1.92497
0
LINE
8
BLACK
6
CONTINUOUS
10
4.58932
20
1.92497
11
4.59495
21
1.92497
0
LINE
8
BLACK
6
CONTINUOUS
10
4.59495
20
1.92497
11
4.5987
21
1.9231
0
LINE
8
BLACK
6
CONTINUOUS
10
4.5987
20
1.9231
11
4.60057
21
1.91935
0
LINE
8
BLACK
6
CONTINUOUS
10
4.60057
20
1.91935
11
4.60057
21
1.89873
0
LINE
8
BLACK
6
CONTINUOUS
10
4.60057
20
1.91935
11
4.60245
21
1.9231
0
LINE
8
BLACK
6
CONTINUOUS
10
4.60245
20
1.9231
11
4.6062
21
1.92497
0
LINE
8
BLACK
6
CONTINUOUS
10
4.6062
20
1.92497
11
4.61182
21
1.92497
0
LINE
8
BLACK
6
CONTINUOUS
10
4.61182
20
1.92497
11
4.61557
21
1.9231
0
LINE
8
BLACK
6
CONTINUOUS
10
4.61557
20
1.9231
11
4.61744
21
1.91935
0
LINE
8
BLACK
6
CONTINUOUS
10
4.61744
20
1.91935
11
4.61744
21
1.89873
0
LINE
8
BLACK
6
CONTINUOUS
10
4.63619
20
1.89873
11
4.63619
21
1.92497
0
LINE
8
BLACK
6
CONTINUOUS
10
4.63619
20
1.92122
11
4.63807
21
1.9231
0
LINE
8
BLACK
6
CONTINUOUS
10
4.63807
20
1.9231
11
4.64182
21
1.92497
0
LINE
8
BLACK
6
CONTINUOUS
10
4.64182
20
1.92497
11
4.64744
21
1.92497
0
LINE
8
BLACK
6
CONTINUOUS
10
4.64744
20
1.92497
11
4.65119
21
1.9231
0
LINE
8
BLACK
6
CONTINUOUS
10
4.65119
20
1.9231
11
4.65307
21
1.91935
0
LINE
8
BLACK
6
CONTINUOUS
10
4.65307
20
1.91935
11
4.65307
21
1.89873
0
LINE
8
BLACK
6
CONTINUOUS
10
4.65307
20
1.91935
11
4.65494
21
1.9231
0
LINE
8
BLACK
6
CONTINUOUS
10
4.65494
20
1.9231
11
4.65869
21
1.92497
0
LINE
8
BLACK
6
CONTINUOUS
10
4.65869
20
1.92497
11
4.66431
21
1.92497
0
LINE
8
BLACK
6
CONTINUOUS
10
4.66431
20
1.92497
11
4.66806
21
1.9231
0
LINE
8
BLACK
6
CONTINUOUS
10
4.66806
20
1.9231
11
4.66994
21
1.91935
0
LINE
8
BLACK
6
CONTINUOUS
10
4.66994
20
1.91935
11
4.66994
21
1.89873
0
LINE
8
BLACK
6
CONTINUOUS
10
1.30157
20
1.86929
11
7.67835
21
1.86929
0
LINE
8
BLACK
6
CONTINUOUS
10
1.30157
20
1.81152
11
1.30157
21
1.89238
0
LINE
8
BLACK
6
CONTINUOUS
10
7.67835
20
1.81152
11
7.67835
21
1.89238
0
LINE
8
BLACK
6
CONTINUOUS
10
7.67835
20
1.86929
11
7.634
21
1.8462
0
LINE
8
BLACK
6
CONTINUOUS
10
7.67835
20
1.86929
11
7.634
21
1.89238
0
LINE
8
BLACK
6
CONTINUOUS
10
1.30157
20
1.86929
11
1.34593
21
1.8462
0
LINE
8
BLACK
6
CONTINUOUS
10
1.30157
20
1.86929
11
1.34593
21
1.89238
0
LINE
8
BLACK
6
CONTINUOUS
10
5.15276
20
-1.98219
11
5.70394
21
-1.98219
0
LINE
8
BLACK
6
CONTINUOUS
10
5.15276
20
-1.431
11
5.15276
21
-1.98219
0
LINE
8
BLACK
6
CONTINUOUS
10
5.70394
20
-1.98219
11
5.70394
21
-1.431
0
LINE
8
BLACK
6
CONTINUOUS
10
5.70394
20
-1.431
11
5.15276
21
-1.431
0
LINE
8
BLACK
6
CONTINUOUS
10
4.76646
20
-1.98219
11
4.76646
21
-1.431
0
LINE
8
BLACK
6
CONTINUOUS
10
4.21528
20
-1.431
11
4.21528
21
-1.98219
0
LINE
8
BLACK
6
CONTINUOUS
10
4.76646
20
-1.431
11
4.21528
21
-1.431
0
LINE
8
BLACK
6
CONTINUOUS
10
4.21528
20
-1.98219
11
4.76646
21
-1.98219
0
LINE
8
BLACK
6
CONTINUOUS
10
3.07894
20
-1.98219
11
3.07894
21
-1.431
0
LINE
8
BLACK
6
CONTINUOUS
10
2.52776
20
-1.431
11
2.52776
21
-1.98219
0
LINE
8
BLACK
6
CONTINUOUS
10
3.07894
20
-1.431
11
2.52776
21
-1.431
0
LINE
8
BLACK
6
CONTINUOUS
10
2.52776
20
-1.98219
11
3.07894
21
-1.98219
0
LINE
8
BLACK
6
CONTINUOUS
10
1.4965
20
-1.431
11
1.4965
21
-1.98219
0
LINE
8
BLACK
6
CONTINUOUS
10
2.04769
20
-1.431
11
1.4965
21
-1.431
0
LINE
8
BLACK
6
CONTINUOUS
10
2.04769
20
-1.98219
11
2.04769
21
-1.431
0
LINE
8
BLACK
6
CONTINUOUS
10
1.4965
20
-1.98219
11
2.04769
21
-1.98219
0
LINE
8
BLACK
6
CONTINUOUS
10
7.0278
20
-0.681004
11
7.0278
21
-1.23219
0
LINE
8
BLACK
6
CONTINUOUS
10
7.57898
20
-1.23219
11
7.57898
21
-0.681004
0
LINE
8
BLACK
6
CONTINUOUS
10
7.0278
20
-1.23219
11
7.57898
21
-1.23219
0
LINE
8
BLACK
6
CONTINUOUS
10
7.57898
20
-0.681004
11
7.0278
21
-0.681004
0
LINE
8
BLACK
6
CONTINUOUS
10
5.99654
20
-1.23219
11
6.54772
21
-1.23219
0
LINE
8
BLACK
6
CONTINUOUS
10
5.99654
20
-0.681004
11
5.99654
21
-1.23219
0
LINE
8
BLACK
6
CONTINUOUS
10
6.54772
20
-0.681004
11
5.99654
21
-0.681004
0
LINE
8
BLACK
6
CONTINUOUS
10
6.54772
20
-1.23219
11
6.54772
21
-0.681004
0
LINE
8
BLACK
6
CONTINUOUS
10
4.96526
20
-1.23219
11
5.51644
21
-1.23219
0
LINE
8
BLACK
6
CONTINUOUS
10
4.96526
20
-0.681004
11
4.96526
21
-1.23219
0
LINE
8
BLACK
6
CONTINUOUS
10
5.51644
20
-0.681004
11
4.96526
21
-0.681004
0
LINE
8
BLACK
6
CONTINUOUS
10
5.51644
20
-1.23219
11
5.51644
21
-0.681004
0
LINE
8
BLACK
6
CONTINUOUS
10
4.21526
20
-1.23219
11
4.76644
21
-1.23219
0
LINE
8
BLACK
6
CONTINUOUS
10
4.21526
20
-0.681004
11
4.21526
21
-1.23219
0
LINE
8
BLACK
6
CONTINUOUS
10
4.76644
20
-0.681004
11
4.21526
21
-0.681004
0
LINE
8
BLACK
6
CONTINUOUS
10
4.76644
20
-1.23219
11
4.76644
21
-0.681004
0
LINE
8
BLACK
6
CONTINUOUS
10
3.46526
20
-0.681004
11
3.46526
21
-1.23219
0
LINE
8
BLACK
6
CONTINUOUS
10
4.01644
20
-0.681004
11
3.46526
21
-0.681004
0
LINE
8
BLACK
6
CONTINUOUS
10
4.01644
20
-1.23219
11
4.01644
21
-0.681004
0
LINE
8
BLACK
6
CONTINUOUS
10
3.46526
20
-1.23219
11
4.01644
21
-1.23219
0
LINE
8
BLACK
6
CONTINUOUS
10
2.71526
20
-1.23219
11
3.26644
21
-1.23219
0
LINE
8
BLACK
6
CONTINUOUS
10
3.26644
20
-0.681004
11
2.71526
21
-0.681004
0
LINE
8
BLACK
6
CONTINUOUS
10
2.71526
20
-0.681004
11
2.71526
21
-1.23219
0
LINE
8
BLACK
6
CONTINUOUS
10
3.26644
20
-1.23219
11
3.26644
21
-0.681004
0
LINE
8
BLACK
6
CONTINUOUS
10
2.51644
20
-1.23219
11
2.51644
21
-0.681004
0
LINE
8
BLACK
6
CONTINUOUS
10
1.96526
20
-1.23219
11
2.51644
21
-1.23219
0
LINE
8
BLACK
6
CONTINUOUS
10
2.51644
20
-0.681004
11
1.96526
21
-0.681004
0
LINE
8
BLACK
6
CONTINUOUS
10
1.96526
20
-0.681004
11
1.96526
21
-1.23219
0
LINE
8
BLACK
6
CONTINUOUS
10
5.89142
20
-0.482185
11
5.89142
21
0.0689961
0
LINE
8
BLACK
6
CONTINUOUS
10
5.34024
20
0.0689961
11
5.34024
21
-0.482185
0
LINE
8
BLACK
6
CONTINUOUS
10
5.34024
20
-0.482185
11
5.89142
21
-0.482185
0
LINE
8
BLACK
6
CONTINUOUS
10
5.89142
20
0.0689961
11
5.34024
21
0.0689961
0
LINE
8
BLACK
6
CONTINUOUS
10
4.59024
20
0.0689961
11
4.59024
21
-0.482185
0
LINE
8
BLACK
6
CONTINUOUS
10
5.14142
20
0.0689961
11
4.59024
21
0.0689961
0
LINE
8
BLACK
6
CONTINUOUS
10
5.14142
20
-0.482185
11
5.14142
21
0.0689961
0
LINE
8
BLACK
6
CONTINUOUS
10
4.59024
20
-0.482185
11
5.14142
21
-0.482185
0
LINE
8
BLACK
6
CONTINUOUS
10
3.84024
20
0.0689961
11
3.84024
21
-0.482185
0
LINE
8
BLACK
6
CONTINUOUS
10
4.39142
20
0.0689961
11
3.84024
21
0.0689961
0
LINE
8
BLACK
6
CONTINUOUS
10
3.84024
20
-0.482185
11
4.39142
21
-0.482185
0
LINE
8
BLACK
6
CONTINUOUS
10
4.39142
20
-0.482185
11
4.39142
21
0.0689961
0
LINE
8
BLACK
6
CONTINUOUS
10
3.64144
20
0.0689961
11
3.09026
21
0.0689961
0
LINE
8
BLACK
6
CONTINUOUS
10
3.09026
20
0.0689961
11
3.09026
21
-0.482185
0
LINE
8
BLACK
6
CONTINUOUS
10
3.09026
20
-0.482185
11
3.64144
21
-0.482185
0
LINE
8
BLACK
6
CONTINUOUS
10
3.64144
20
-0.482185
11
3.64144
21
0.0689961
0
LINE
8
BLACK
6
CONTINUOUS
10
2.34026
20
-0.482185
11
2.89144
21
-0.482185
0
LINE
8
BLACK
6
CONTINUOUS
10
2.34026
20
0.0689961
11
2.34026
21
-0.482185
0
LINE
8
BLACK
6
CONTINUOUS
10
2.89144
20
0.0689961
11
2.34026
21
0.0689961
0
LINE
8
BLACK
6
CONTINUOUS
10
2.89144
20
-0.482185
11
2.89144
21
0.0689961
0
LINE
8
BLACK
6
CONTINUOUS
10
2.14144
20
0.0689961
11
1.59026
21
0.0689961
0
LINE
8
BLACK
6
CONTINUOUS
10
2.14144
20
-0.482185
11
2.14144
21
0.0689961
0
LINE
8
BLACK
6
CONTINUOUS
10
1.59026
20
0.0689961
11
1.59026
21
-0.482185
0
LINE
8
BLACK
6
CONTINUOUS
10
1.59026
20
-0.482185
11
2.14144
21
-0.482185
0
LINE
8
BLACK
6
CONTINUOUS
10
7.39134
20
0.818996
11
6.84016
21
0.818996
0
LINE
8
BLACK
6
CONTINUOUS
10
7.39134
20
0.267815
11
7.39134
21
0.818996
0
LINE
8
BLACK
6
CONTINUOUS
10
6.84016
20
0.818996
11
6.84016
21
0.267815
0
LINE
8
BLACK
6
CONTINUOUS
10
6.84016
20
0.267815
11
7.39134
21
0.267815
0
LINE
8
BLACK
6
CONTINUOUS
10
6.45394
20
0.818996
11
5.90276
21
0.818996
0
LINE
8
BLACK
6
CONTINUOUS
10
6.45394
20
0.267815
11
6.45394
21
0.818996
0
LINE
8
BLACK
6
CONTINUOUS
10
5.90276
20
0.818996
11
5.90276
21
0.267815
0
LINE
8
BLACK
6
CONTINUOUS
10
5.90276
20
0.267815
11
6.45394
21
0.267815
0
LINE
8
BLACK
6
CONTINUOUS
10
5.70394
20
0.818996
11
5.15276
21
0.818996
0
LINE
8
BLACK
6
CONTINUOUS
10
5.70394
20
0.267815
11
5.70394
21
0.818996
0
LINE
8
BLACK
6
CONTINUOUS
10
5.15276
20
0.818996
11
5.15276
21
0.267815
0
LINE
8
BLACK
6
CONTINUOUS
10
5.15276
20
0.267815
11
5.70394
21
0.267815
0
LINE
8
BLACK
6
CONTINUOUS
10
4.95394
20
0.818996
11
4.40276
21
0.818996
0
LINE
8
BLACK
6
CONTINUOUS
10
4.95394
20
0.267815
11
4.95394
21
0.818996
0
LINE
8
BLACK
6
CONTINUOUS
10
4.40276
20
0.818996
11
4.40276
21
0.267815
0
LINE
8
BLACK
6
CONTINUOUS
10
4.40276
20
0.267815
11
4.95394
21
0.267815
0
LINE
8
BLACK
6
CONTINUOUS
10
4.20394
20
0.818996
11
3.65276
21
0.818996
0
LINE
8
BLACK
6
CONTINUOUS
10
4.20394
20
0.267815
11
4.20394
21
0.818996
0
LINE
8
BLACK
6
CONTINUOUS
10
3.65276
20
0.818996
11
3.65276
21
0.267815
0
LINE
8
BLACK
6
CONTINUOUS
10
3.65276
20
0.267815
11
4.20394
21
0.267815
0
LINE
8
BLACK
6
CONTINUOUS
10
3.45394
20
0.818996
11
2.90276
21
0.818996
0
LINE
8
BLACK
6
CONTINUOUS
10
3.45394
20
0.267815
11
3.45394
21
0.818996
0
LINE
8
BLACK
6
CONTINUOUS
10
2.90276
20
0.818996
11
2.90276
21
0.267815
0
LINE
8
BLACK
6
CONTINUOUS
10
2.90276
20
0.267815
11
3.45394
21
0.267815
0
LINE
8
BLACK
6
CONTINUOUS
10
2.70394
20
0.267815
11
2.70394
21
0.818996
0
LINE
8
BLACK
6
CONTINUOUS
10
2.15276
20
0.818996
11
2.15276
21
0.267815
0
LINE
8
BLACK
6
CONTINUOUS
10
2.15276
20
0.267815
11
2.70394
21
0.267815
0
LINE
8
BLACK
6
CONTINUOUS
10
2.70394
20
0.818996
11
2.15276
21
0.818996
0
LINE
8
BLACK
6
CONTINUOUS
10
1.40276
20
0.818996
11
1.40276
21
0.267815
0
LINE
8
BLACK
6
CONTINUOUS
10
1.95394
20
0.818996
11
1.40276
21
0.818996
0
LINE
8
BLACK
6
CONTINUOUS
10
1.40276
20
0.267815
11
1.95394
21
0.267815
0
LINE
8
BLACK
6
CONTINUOUS
10
1.95394
20
0.267815
11
1.95394
21
0.818996
0
LINE
8
BLACK
6
CONTINUOUS
10
7.02776
20
1.569
11
7.02776
21
1.01781
0
LINE
8
BLACK
6
CONTINUOUS
10
7.57894
20
1.569
11
7.02776
21
1.569
0
LINE
8
BLACK
6
CONTINUOUS
10
7.02776
20
1.01781
11
7.57894
21
1.01781
0
LINE
8
BLACK
6
CONTINUOUS
10
7.57894
20
1.01781
11
7.57894
21
1.569
0
LINE
8
BLACK
6
CONTINUOUS
10
6.27776
20
1.569
11
6.27776
21
1.01781
0
LINE
8
BLACK
6
CONTINUOUS
10
6.82894
20
1.569
11
6.27776
21
1.569
0
LINE
8
BLACK
6
CONTINUOUS
10
6.27776
20
1.01781
11
6.82894
21
1.01781
0
LINE
8
BLACK
6
CONTINUOUS
10
6.82894
20
1.01781
11
6.82894
21
1.569
0
LINE
8
BLACK
6
CONTINUOUS
10
5.52776
20
1.569
11
5.52776
21
1.01781
0
LINE
8
BLACK
6
CONTINUOUS
10
6.07894
20
1.569
11
5.52776
21
1.569
0
LINE
8
BLACK
6
CONTINUOUS
10
5.52776
20
1.01781
11
6.07894
21
1.01781
0
LINE
8
BLACK
6
CONTINUOUS
10
6.07894
20
1.01781
11
6.07894
21
1.569
0
LINE
8
BLACK
6
CONTINUOUS
10
5.32894
20
1.01781
11
5.32894
21
1.569
0
LINE
8
BLACK
6
CONTINUOUS
10
4.77776
20
1.569
11
4.77776
21
1.01781
0
LINE
8
BLACK
6
CONTINUOUS
10
5.32894
20
1.569
11
4.77776
21
1.569
0
LINE
8
BLACK
6
CONTINUOUS
10
4.77776
20
1.01781
11
5.32894
21
1.01781
0
LINE
8
BLACK
6
CONTINUOUS
10
4.57894
20
1.569
11
4.02776
21
1.569
0
LINE
8
BLACK
6
CONTINUOUS
10
4.02776
20
1.01781
11
4.57894
21
1.01781
0
LINE
8
BLACK
6
CONTINUOUS
10
4.57894
20
1.01781
11
4.57894
21
1.569
0
LINE
8
BLACK
6
CONTINUOUS
10
4.02776
20
1.569
11
4.02776
21
1.01781
0
LINE
8
BLACK
6
CONTINUOUS
10
3.27776
20
1.569
11
3.27776
21
1.01781
0
LINE
8
BLACK
6
CONTINUOUS
10
3.82894
20
1.569
11
3.27776
21
1.569
0
LINE
8
BLACK
6
CONTINUOUS
10
3.27776
20
1.01781
11
3.82894
21
1.01781
0
LINE
8
BLACK
6
CONTINUOUS
10
3.82894
20
1.01781
11
3.82894
21
1.569
0
LINE
8
BLACK
6
CONTINUOUS
10
3.07894
20
1.569
11
2.52776
21
1.569
0
LINE
8
BLACK
6
CONTINUOUS
10
2.52776
20
1.569
11
2.52776
21
1.01781
0
LINE
8
BLACK
6
CONTINUOUS
10
2.52776
20
1.01781
11
3.07894
21
1.01781
0
LINE
8
BLACK
6
CONTINUOUS
10
3.07894
20
1.01781
11
3.07894
21
1.569
0
LINE
8
BLACK
6
CONTINUOUS
10
1.77776
20
1.01781
11
2.32894
21
1.01781
0
LINE
8
BLACK
6
CONTINUOUS
10
1.77776
20
1.569
11
1.77776
21
1.01781
0
LINE
8
BLACK
6
CONTINUOUS
10
2.32894
20
1.01781
11
2.32894
21
1.569
0
LINE
8
BLACK
6
CONTINUOUS
10
2.32894
20
1.569
11
1.77776
21
1.569
0
LINE
8
BLACK
6
CONTINUOUS
10
6.49894
20
-0.116043
11
6.55898
21
-0.116043
0
LINE
8
BLACK
6
CONTINUOUS
10
6.55898
20
-0.297146
11
6.55898
21
-0.482185
0
LINE
8
BLACK
6
CONTINUOUS
10
7.17021
20
-0.297146
11
7.11017
21
-0.297146
0
LINE
8
BLACK
6
CONTINUOUS
10
6.23314
20
-0.424311
11
6.49889
21
-0.424311
0
LINE
8
BLACK
6
CONTINUOUS
10
6.23314
20
0.0599409
11
6.30105
21
0.0599409
0
LINE
8
BLACK
6
CONTINUOUS
10
6.23314
20
-0.424311
11
6.23314
21
-0.297146
0
LINE
8
BLACK
6
CONTINUOUS
10
6.23314
20
-0.1875
11
6.20066
21
-0.1875
0
LINE
8
BLACK
6
CONTINUOUS
10
6.23314
20
-0.1875
11
6.23314
21
0.0599409
0
LINE
8
BLACK
6
CONTINUOUS
10
7.46848
20
-0.1875
11
7.46848
21
-0.297146
0
LINE
8
BLACK
6
CONTINUOUS
10
6.43096
20
0.0599409
11
6.49888
21
0.0599409
0
LINE
8
BLACK
6
CONTINUOUS
10
6.49894
20
-0.297146
11
6.55898
21
-0.297146
0
LINE
8
BLACK
6
CONTINUOUS
10
6.30105
20
0.107185
11
6.43097
21
0.107185
0
LINE
8
BLACK
6
CONTINUOUS
10
7.23817
20
0.0599409
11
7.23817
21
0.107185
0
LINE
8
BLACK
6
CONTINUOUS
10
6.23314
20
-0.297146
11
6.20066
21
-0.297146
0
LINE
8
BLACK
6
CONTINUOUS
10
6.20066
20
-0.1875
11
6.20066
21
-0.297146
0
LINE
8
BLACK
6
CONTINUOUS
10
6.43097
20
0.0599409
11
6.43097
21
0.107185
0
LINE
8
BLACK
6
CONTINUOUS
10
6.49894
20
0.0599409
11
6.49894
21
-0.116043
0
LINE
8
BLACK
6
CONTINUOUS
10
7.436
20
-0.424311
11
7.17026
21
-0.424311
0
LINE
8
BLACK
6
CONTINUOUS
10
6.55898
20
0.0689961
11
6.55898
21
-0.116043
0
LINE
8
BLACK
6
CONTINUOUS
10
6.30105
20
0.0599409
11
6.30105
21
0.107185
0
LINE
8
BLACK
6
CONTINUOUS
10
7.436
20
-0.1875
11
7.436
21
0.0599409
0
LINE
8
BLACK
6
CONTINUOUS
10
6.49894
20
-0.297146
11
6.49894
21
-0.424311
0
LINE
8
BLACK
6
CONTINUOUS
10
7.436
20
-0.297146
11
7.46848
21
-0.297146
0
LINE
8
BLACK
6
CONTINUOUS
10
7.11017
20
0.0689961
11
7.11017
21
-0.116043
0
LINE
8
BLACK
6
CONTINUOUS
10
7.436
20
-0.424311
11
7.436
21
-0.297146
0
LINE
8
BLACK
6
CONTINUOUS
10
7.36809
20
0.107185
11
7.23817
21
0.107185
0
LINE
8
BLACK
6
CONTINUOUS
10
7.436
20
0.0599409
11
7.36809
21
0.0599409
0
LINE
8
BLACK
6
CONTINUOUS
10
7.23817
20
0.0599409
11
7.17026
21
0.0599409
0
LINE
8
BLACK
6
CONTINUOUS
10
7.17021
20
-0.116043
11
7.11017
21
-0.116043
0
LINE
8
BLACK
6
CONTINUOUS
10
7.36809
20
0.0599409
11
7.36809
21
0.107185
0
LINE
8
BLACK
6
CONTINUOUS
10
7.17021
20
0.0599409
11
7.17021
21
-0.116043
0
LINE
8
BLACK
6
CONTINUOUS
10
7.11017
20
-0.297146
11
7.11017
21
-0.482185
0
LINE
8
BLACK
6
CONTINUOUS
10
7.436
20
-0.1875
11
7.46848
21
-0.1875
0
LINE
8
BLACK
6
CONTINUOUS
10
7.17021
20
-0.297146
11
7.17021
21
-0.424311
0
LINE
8
BLACK
6
CONTINUOUS
10
7.11016
20
0.0689961
11
6.55898
21
0.0689961
0
LINE
8
BLACK
6
CONTINUOUS
10
6.55898
20
-0.482185
11
7.11016
21
-0.482185
0
LINE
8
BLACK
6
CONTINUOUS
10
2.43199
20
-2.08159
11
6.63484
21
-2.08159
0
LINE
8
BLACK
6
CONTINUOUS
10
2.43199
20
-2.08159
11
1.49085
21
-2.08159
0
ARC
8
BLACK
10
1.32224
20
-2.06093
40
0.020703
50
-176.73
51
-86.7295
0
ARC
8
BLACK
10
6.63602
20
-2.10226
40
0.020703
50
3.27049
51
93.2705
0
ARC
8
BLACK
10
6.67736
20
-2.39774
40
0.020703
50
-176.73
51
-86.7295
0
ARC
8
BLACK
10
7.65768
20
-2.39774
40
0.020703
50
-86.7295
51
3.27049
0
ARC
8
BLACK
10
7.65768
20
1.64774
40
0.0206693
50
-0
51
90
0
LINE
8
BLACK
6
CONTINUOUS
10
7.67835
20
-0.581496
11
7.67835
21
-2.39656
0
LINE
8
BLACK
6
CONTINUOUS
10
6.67854
20
-2.41841
11
7.65886
21
-2.41841
0
LINE
8
BLACK
6
CONTINUOUS
10
6.65669
20
-2.39892
11
6.65669
21
-2.10108
0
LINE
8
BLACK
6
CONTINUOUS
10
1.32343
20
-2.08159
11
1.49085
21
-2.08159
0
LINE
8
BLACK
6
CONTINUOUS
10
1.30161
20
1.64656
11
1.30157
21
-2.06211
0
LINE
8
BLACK
6
CONTINUOUS
10
7.67835
20
1.64774
11
7.67835
21
-0.581496
0
LINE
8
BLACK
6
CONTINUOUS
10
7.65768
20
1.66841
11
1.3211
21
1.66841
0
ARC
8
BLACK
10
1.32228
20
1.64774
40
0.020703
50
93.2705
51
183.27
0
LINE
8
BLACK
6
CONTINUOUS
10
6.82026
20
-1.27042
11
6.82464
21
-1.27129
0
LINE
8
BLACK
6
CONTINUOUS
10
6.82464
20
-1.27129
11
6.83288
21
-1.2747
0
LINE
8
BLACK
6
CONTINUOUS
10
6.83288
20
-1.2747
11
6.8403
21
-1.27966
0
LINE
8
BLACK
6
CONTINUOUS
10
6.8403
20
-1.27966
11
6.84662
21
-1.28598
0
LINE
8
BLACK
6
CONTINUOUS
10
6.84662
20
-1.28598
11
6.85157
21
-1.2934
0
LINE
8
BLACK
6
CONTINUOUS
10
6.85157
20
-1.2934
11
6.85499
21
-1.30164
0
LINE
8
BLACK
6
CONTINUOUS
10
6.85499
20
-1.30164
11
6.85673
21
-1.3104
0
LINE
8
BLACK
6
CONTINUOUS
10
6.85673
20
-1.3104
11
6.85673
21
-1.31933
0
LINE
8
BLACK
6
CONTINUOUS
10
6.85673
20
-1.31933
11
6.85499
21
-1.32808
0
LINE
8
BLACK
6
CONTINUOUS
10
6.85499
20
-1.32808
11
6.85157
21
-1.33633
0
LINE
8
BLACK
6
CONTINUOUS
10
6.85157
20
-1.33633
11
6.84662
21
-1.34375
0
LINE
8
BLACK
6
CONTINUOUS
10
6.84662
20
-1.34375
11
6.8403
21
-1.35006
0
LINE
8
BLACK
6
CONTINUOUS
10
6.8403
20
-1.35006
11
6.83288
21
-1.35502
0
LINE
8
BLACK
6
CONTINUOUS
10
6.83288
20
-1.35502
11
6.82464
21
-1.35844
0
LINE
8
BLACK
6
CONTINUOUS
10
6.82464
20
-1.35844
11
6.82026
21
-1.35931
0
LINE
8
BLACK
6
CONTINUOUS
10
6.82026
20
-1.35931
11
6.81588
21
-1.36018
0
LINE
8
BLACK
6
CONTINUOUS
10
6.81588
20
-1.36018
11
6.80695
21
-1.36018
0
LINE
8
BLACK
6
CONTINUOUS
10
6.80695
20
-1.36018
11
6.80258
21
-1.35931
0
LINE
8
BLACK
6
CONTINUOUS
10
6.80258
20
-1.35931
11
6.7982
21
-1.35844
0
LINE
8
BLACK
6
CONTINUOUS
10
6.7982
20
-1.35844
11
6.78995
21
-1.35502
0
LINE
8
BLACK
6
CONTINUOUS
10
6.78995
20
-1.35502
11
6.78253
21
-1.35006
0
LINE
8
BLACK
6
CONTINUOUS
10
6.78253
20
-1.35006
11
6.77622
21
-1.34375
0
LINE
8
BLACK
6
CONTINUOUS
10
6.77622
20
-1.34375
11
6.77126
21
-1.33633
0
LINE
8
BLACK
6
CONTINUOUS
10
6.77126
20
-1.33633
11
6.76784
21
-1.32808
0
LINE
8
BLACK
6
CONTINUOUS
10
6.76784
20
-1.32808
11
6.7661
21
-1.31933
0
LINE
8
BLACK
6
CONTINUOUS
10
6.7661
20
-1.31933
11
6.7661
21
-1.3104
0
LINE
8
BLACK
6
CONTINUOUS
10
6.7661
20
-1.3104
11
6.76784
21
-1.30164
0
LINE
8
BLACK
6
CONTINUOUS
10
6.76784
20
-1.30164
11
6.77126
21
-1.2934
0
LINE
8
BLACK
6
CONTINUOUS
10
6.77126
20
-1.2934
11
6.77622
21
-1.28598
0
LINE
8
BLACK
6
CONTINUOUS
10
6.77622
20
-1.28598
11
6.78253
21
-1.27966
0
LINE
8
BLACK
6
CONTINUOUS
10
6.78253
20
-1.27966
11
6.78995
21
-1.2747
0
LINE
8
BLACK
6
CONTINUOUS
10
6.78995
20
-1.2747
11
6.7982
21
-1.27129
0
LINE
8
BLACK
6
CONTINUOUS
10
6.7982
20
-1.27129
11
6.80258
21
-1.27042
0
LINE
8
BLACK
6
CONTINUOUS
10
6.80258
20
-1.27042
11
6.80695
21
-1.26955
0
LINE
8
BLACK
6
CONTINUOUS
10
6.80695
20
-1.26955
11
6.81588
21
-1.26955
0
LINE
8
BLACK
6
CONTINUOUS
10
6.81588
20
-1.26955
11
6.82026
21
-1.27042
0
LINE
8
BLACK
6
CONTINUOUS
10
1.87567
20
-1.27042
11
1.88005
21
-1.27129
0
LINE
8
BLACK
6
CONTINUOUS
10
1.88005
20
-1.27129
11
1.8883
21
-1.2747
0
LINE
8
BLACK
6
CONTINUOUS
10
1.8883
20
-1.2747
11
1.89572
21
-1.27966
0
LINE
8
BLACK
6
CONTINUOUS
10
1.89572
20
-1.27966
11
1.90203
21
-1.28598
0
LINE
8
BLACK
6
CONTINUOUS
10
1.90203
20
-1.28598
11
1.90699
21
-1.2934
0
LINE
8
BLACK
6
CONTINUOUS
10
1.90699
20
-1.2934
11
1.9104
21
-1.30164
0
LINE
8
BLACK
6
CONTINUOUS
10
1.9104
20
-1.30164
11
1.91215
21
-1.3104
0
LINE
8
BLACK
6
CONTINUOUS
10
1.91215
20
-1.3104
11
1.91215
21
-1.31933
0
LINE
8
BLACK
6
CONTINUOUS
10
1.91215
20
-1.31933
11
1.9104
21
-1.32808
0
LINE
8
BLACK
6
CONTINUOUS
10
1.9104
20
-1.32808
11
1.90699
21
-1.33633
0
LINE
8
BLACK
6
CONTINUOUS
10
1.90699
20
-1.33633
11
1.90203
21
-1.34375
0
LINE
8
BLACK
6
CONTINUOUS
10
1.90203
20
-1.34375
11
1.89572
21
-1.35006
0
LINE
8
BLACK
6
CONTINUOUS
10
1.89572
20
-1.35006
11
1.8883
21
-1.35502
0
LINE
8
BLACK
6
CONTINUOUS
10
1.8883
20
-1.35502
11
1.88005
21
-1.35844
0
LINE
8
BLACK
6
CONTINUOUS
10
1.88005
20
-1.35844
11
1.87567
21
-1.35931
0
LINE
8
BLACK
6
CONTINUOUS
10
1.87567
20
-1.35931
11
1.87129
21
-1.36018
0
LINE
8
BLACK
6
CONTINUOUS
10
1.87129
20
-1.36018
11
1.86237
21
-1.36018
0
LINE
8
BLACK
6
CONTINUOUS
10
1.86237
20
-1.36018
11
1.85799
21
-1.35931
0
LINE
8
BLACK
6
CONTINUOUS
10
1.85799
20
-1.35931
11
1.85361
21
-1.35844
0
LINE
8
BLACK
6
CONTINUOUS
10
1.85361
20
-1.35844
11
1.84537
21
-1.35502
0
LINE
8
BLACK
6
CONTINUOUS
10
1.84537
20
-1.35502
11
1.83794
21
-1.35006
0
LINE
8
BLACK
6
CONTINUOUS
10
1.83794
20
-1.35006
11
1.83163
21
-1.34375
0
LINE
8
BLACK
6
CONTINUOUS
10
1.83163
20
-1.34375
11
1.82667
21
-1.33633
0
LINE
8
BLACK
6
CONTINUOUS
10
1.82667
20
-1.33633
11
1.82326
21
-1.32808
0
LINE
8
BLACK
6
CONTINUOUS
10
1.82326
20
-1.32808
11
1.82152
21
-1.31933
0
LINE
8
BLACK
6
CONTINUOUS
10
1.82152
20
-1.31933
11
1.82152
21
-1.3104
0
LINE
8
BLACK
6
CONTINUOUS
10
1.82152
20
-1.3104
11
1.82326
21
-1.30164
0
LINE
8
BLACK
6
CONTINUOUS
10
1.82326
20
-1.30164
11
1.82667
21
-1.2934
0
LINE
8
BLACK
6
CONTINUOUS
10
1.82667
20
-1.2934
11
1.83163
21
-1.28598
0
LINE
8
BLACK
6
CONTINUOUS
10
1.83163
20
-1.28598
11
1.83794
21
-1.27966
0
LINE
8
BLACK
6
CONTINUOUS
10
1.83794
20
-1.27966
11
1.84537
21
-1.2747
0
LINE
8
BLACK
6
CONTINUOUS
10
1.84537
20
-1.2747
11
1.85361
21
-1.27129
0
LINE
8
BLACK
6
CONTINUOUS
10
1.85361
20
-1.27129
11
1.85799
21
-1.27042
0
LINE
8
BLACK
6
CONTINUOUS
10
1.85799
20
-1.27042
11
1.86237
21
-1.26955
0
LINE
8
BLACK
6
CONTINUOUS
10
1.86237
20
-1.26955
11
1.87129
21
-1.26955
0
LINE
8
BLACK
6
CONTINUOUS
10
1.87129
20
-1.26955
11
1.87567
21
-1.27042
0
LINE
8
BLACK
6
CONTINUOUS
10
4.31317
20
0.229582
11
4.31755
21
0.228711
0
LINE
8
BLACK
6
CONTINUOUS
10
4.31755
20
0.228711
11
4.3258
21
0.225295
0
LINE
8
BLACK
6
CONTINUOUS
10
4.3258
20
0.225295
11
4.33322
21
0.220336
0
LINE
8
BLACK
6
CONTINUOUS
10
4.33322
20
0.220336
11
4.33953
21
0.214024
0
LINE
8
BLACK
6
CONTINUOUS
10
4.33953
20
0.214024
11
4.34449
21
0.206602
0
LINE
8
BLACK
6
CONTINUOUS
10
4.34449
20
0.206602
11
4.3479
21
0.198356
0
LINE
8
BLACK
6
CONTINUOUS
10
4.3479
20
0.198356
11
4.34965
21
0.189601
0
LINE
8
BLACK
6
CONTINUOUS
10
4.34965
20
0.189601
11
4.34965
21
0.180675
0
LINE
8
BLACK
6
CONTINUOUS
10
4.34965
20
0.180675
11
4.3479
21
0.17192
0
LINE
8
BLACK
6
CONTINUOUS
10
4.3479
20
0.17192
11
4.34449
21
0.163673
0
LINE
8
BLACK
6
CONTINUOUS
10
4.34449
20
0.163673
11
4.33953
21
0.156251
0
LINE
8
BLACK
6
CONTINUOUS
10
4.33953
20
0.156251
11
4.33322
21
0.149939
0
LINE
8
BLACK
6
CONTINUOUS
10
4.33322
20
0.149939
11
4.3258
21
0.14498
0
LINE
8
BLACK
6
CONTINUOUS
10
4.3258
20
0.14498
11
4.31755
21
0.141564
0
LINE
8
BLACK
6
CONTINUOUS
10
4.31755
20
0.141564
11
4.31317
21
0.140694
0
LINE
8
BLACK
6
CONTINUOUS
10
4.31317
20
0.140694
11
4.30879
21
0.139823
0
LINE
8
BLACK
6
CONTINUOUS
10
4.30879
20
0.139823
11
4.29987
21
0.139823
0
LINE
8
BLACK
6
CONTINUOUS
10
4.29987
20
0.139823
11
4.29549
21
0.140694
0
LINE
8
BLACK
6
CONTINUOUS
10
4.29549
20
0.140694
11
4.29111
21
0.141564
0
LINE
8
BLACK
6
CONTINUOUS
10
4.29111
20
0.141564
11
4.28287
21
0.14498
0
LINE
8
BLACK
6
CONTINUOUS
10
4.28287
20
0.14498
11
4.27544
21
0.149939
0
LINE
8
BLACK
6
CONTINUOUS
10
4.27544
20
0.149939
11
4.26913
21
0.156251
0
LINE
8
BLACK
6
CONTINUOUS
10
4.26913
20
0.156251
11
4.26417
21
0.163673
0
LINE
8
BLACK
6
CONTINUOUS
10
4.26417
20
0.163673
11
4.26076
21
0.17192
0
LINE
8
BLACK
6
CONTINUOUS
10
4.26076
20
0.17192
11
4.25902
21
0.180675
0
LINE
8
BLACK
6
CONTINUOUS
10
4.25902
20
0.180675
11
4.25902
21
0.189601
0
LINE
8
BLACK
6
CONTINUOUS
10
4.25902
20
0.189601
11
4.26076
21
0.198356
0
LINE
8
BLACK
6
CONTINUOUS
10
4.26076
20
0.198356
11
4.26417
21
0.206602
0
LINE
8
BLACK
6
CONTINUOUS
10
4.26417
20
0.206602
11
4.26913
21
0.214024
0
LINE
8
BLACK
6
CONTINUOUS
10
4.26913
20
0.214024
11
4.27544
21
0.220336
0
LINE
8
BLACK
6
CONTINUOUS
10
4.27544
20
0.220336
11
4.28287
21
0.225295
0
LINE
8
BLACK
6
CONTINUOUS
10
4.28287
20
0.225295
11
4.29111
21
0.228711
0
LINE
8
BLACK
6
CONTINUOUS
10
4.29111
20
0.228711
11
4.29549
21
0.229582
0
LINE
8
BLACK
6
CONTINUOUS
10
4.29549
20
0.229582
11
4.29987
21
0.230453
0
LINE
8
BLACK
6
CONTINUOUS
10
4.29987
20
0.230453
11
4.30879
21
0.230453
0
LINE
8
BLACK
6
CONTINUOUS
10
4.30879
20
0.230453
11
4.31317
21
0.229582
0
LINE
8
BLACK
6
CONTINUOUS
10
1.68817
20
0.963834
11
1.69255
21
0.962963
0
LINE
8
BLACK
6
CONTINUOUS
10
1.69255
20
0.962963
11
1.7008
21
0.959547
0
LINE
8
BLACK
6
CONTINUOUS
10
1.7008
20
0.959547
11
1.70822
21
0.954588
0
LINE
8
BLACK
6
CONTINUOUS
10
1.70822
20
0.954588
11
1.71453
21
0.948276
0
LINE
8
BLACK
6
CONTINUOUS
10
1.71453
20
0.948276
11
1.71949
21
0.940854
0
LINE
8
BLACK
6
CONTINUOUS
10
1.71949
20
0.940854
11
1.7229
21
0.932608
0
LINE
8
BLACK
6
CONTINUOUS
10
1.7229
20
0.932608
11
1.72377
21
0.92823
0
LINE
8
BLACK
6
CONTINUOUS
10
1.72377
20
0.92823
11
1.72465
21
0.923853
0
LINE
8
BLACK
6
CONTINUOUS
10
1.72465
20
0.923853
11
1.72465
21
0.914927
0
LINE
8
BLACK
6
CONTINUOUS
10
1.72465
20
0.914927
11
1.72377
21
0.910549
0
LINE
8
BLACK
6
CONTINUOUS
10
1.72377
20
0.910549
11
1.7229
21
0.906172
0
LINE
8
BLACK
6
CONTINUOUS
10
1.7229
20
0.906172
11
1.72049
21
0.900341
0
LINE
8
BLACK
6
CONTINUOUS
10
1.72049
20
0.900341
11
1.71968
21
0.898377
0
LINE
8
BLACK
6
CONTINUOUS
10
1.71968
20
0.898377
11
1.71949
21
0.897925
0
LINE
8
BLACK
6
CONTINUOUS
10
1.71949
20
0.897925
11
1.71453
21
0.890503
0
LINE
8
BLACK
6
CONTINUOUS
10
1.71453
20
0.890503
11
1.70822
21
0.884191
0
LINE
8
BLACK
6
CONTINUOUS
10
1.70822
20
0.884191
11
1.7008
21
0.879232
0
LINE
8
BLACK
6
CONTINUOUS
10
1.7008
20
0.879232
11
1.69255
21
0.875816
0
LINE
8
BLACK
6
CONTINUOUS
10
1.69255
20
0.875816
11
1.68817
21
0.874946
0
LINE
8
BLACK
6
CONTINUOUS
10
1.68817
20
0.874946
11
1.68379
21
0.874075
0
LINE
8
BLACK
6
CONTINUOUS
10
1.68379
20
0.874075
11
1.67487
21
0.874075
0
LINE
8
BLACK
6
CONTINUOUS
10
1.67487
20
0.874075
11
1.67049
21
0.874946
0
LINE
8
BLACK
6
CONTINUOUS
10
1.67049
20
0.874946
11
1.66611
21
0.875816
0
LINE
8
BLACK
6
CONTINUOUS
10
1.66611
20
0.875816
11
1.65787
21
0.879232
0
LINE
8
BLACK
6
CONTINUOUS
10
1.65787
20
0.879232
11
1.65044
21
0.884191
0
LINE
8
BLACK
6
CONTINUOUS
10
1.65044
20
0.884191
11
1.64413
21
0.890503
0
LINE
8
BLACK
6
CONTINUOUS
10
1.64413
20
0.890503
11
1.63917
21
0.897925
0
LINE
8
BLACK
6
CONTINUOUS
10
1.63917
20
0.897925
11
1.63899
21
0.898377
0
LINE
8
BLACK
6
CONTINUOUS
10
1.63899
20
0.898377
11
1.63817
21
0.900341
0
LINE
8
BLACK
6
CONTINUOUS
10
1.63817
20
0.900341
11
1.63576
21
0.906172
0
LINE
8
BLACK
6
CONTINUOUS
10
1.63576
20
0.906172
11
1.63489
21
0.910549
0
LINE
8
BLACK
6
CONTINUOUS
10
1.63489
20
0.910549
11
1.63402
21
0.914927
0
LINE
8
BLACK
6
CONTINUOUS
10
1.63402
20
0.914927
11
1.63402
21
0.923853
0
LINE
8
BLACK
6
CONTINUOUS
10
1.63402
20
0.923853
11
1.63489
21
0.92823
0
LINE
8
BLACK
6
CONTINUOUS
10
1.63489
20
0.92823
11
1.63576
21
0.932608
0
LINE
8
BLACK
6
CONTINUOUS
10
1.63576
20
0.932608
11
1.63917
21
0.940854
0
LINE
8
BLACK
6
CONTINUOUS
10
1.63917
20
0.940854
11
1.64413
21
0.948276
0
LINE
8
BLACK
6
CONTINUOUS
10
1.64413
20
0.948276
11
1.65044
21
0.954588
0
LINE
8
BLACK
6
CONTINUOUS
10
1.65044
20
0.954588
11
1.65787
21
0.959547
0
LINE
8
BLACK
6
CONTINUOUS
10
1.65787
20
0.959547
11
1.66611
21
0.962963
0
LINE
8
BLACK
6
CONTINUOUS
10
1.66611
20
0.962963
11
1.67049
21
0.963834
0
LINE
8
BLACK
6
CONTINUOUS
10
1.67049
20
0.963834
11
1.67487
21
0.964705
0
LINE
8
BLACK
6
CONTINUOUS
10
1.67487
20
0.964705
11
1.68379
21
0.964705
0
LINE
8
BLACK
6
CONTINUOUS
10
1.68379
20
0.964705
11
1.68817
21
0.963834
0
LINE
8
BLACK
6
CONTINUOUS
10
6.93719
20
0.971708
11
6.94156
21
0.970837
0
LINE
8
BLACK
6
CONTINUOUS
10
6.94156
20
0.970837
11
6.94981
21
0.967421
0
LINE
8
BLACK
6
CONTINUOUS
10
6.94981
20
0.967421
11
6.95723
21
0.962462
0
LINE
8
BLACK
6
CONTINUOUS
10
6.95723
20
0.962462
11
6.96354
21
0.95615
0
LINE
8
BLACK
6
CONTINUOUS
10
6.96354
20
0.95615
11
6.96459
21
0.954588
0
LINE
8
BLACK
6
CONTINUOUS
10
6.96459
20
0.954588
11
6.9685
21
0.948728
0
LINE
8
BLACK
6
CONTINUOUS
10
6.9685
20
0.948728
11
6.96869
21
0.948276
0
LINE
8
BLACK
6
CONTINUOUS
10
6.96869
20
0.948276
11
6.97177
21
0.940854
0
LINE
8
BLACK
6
CONTINUOUS
10
6.97177
20
0.940854
11
6.97192
21
0.940482
0
LINE
8
BLACK
6
CONTINUOUS
10
6.97192
20
0.940482
11
6.97349
21
0.932608
0
LINE
8
BLACK
6
CONTINUOUS
10
6.97349
20
0.932608
11
6.97366
21
0.931727
0
LINE
8
BLACK
6
CONTINUOUS
10
6.97366
20
0.931727
11
6.97366
21
0.922801
0
LINE
8
BLACK
6
CONTINUOUS
10
6.97366
20
0.922801
11
6.97192
21
0.914046
0
LINE
8
BLACK
6
CONTINUOUS
10
6.97192
20
0.914046
11
6.9685
21
0.905799
0
LINE
8
BLACK
6
CONTINUOUS
10
6.9685
20
0.905799
11
6.96354
21
0.898377
0
LINE
8
BLACK
6
CONTINUOUS
10
6.96354
20
0.898377
11
6.95723
21
0.892065
0
LINE
8
BLACK
6
CONTINUOUS
10
6.95723
20
0.892065
11
6.94981
21
0.887106
0
LINE
8
BLACK
6
CONTINUOUS
10
6.94981
20
0.887106
11
6.94156
21
0.88369
0
LINE
8
BLACK
6
CONTINUOUS
10
6.94156
20
0.88369
11
6.93719
21
0.88282
0
LINE
8
BLACK
6
CONTINUOUS
10
6.93719
20
0.88282
11
6.93281
21
0.881949
0
LINE
8
BLACK
6
CONTINUOUS
10
6.93281
20
0.881949
11
6.92388
21
0.881949
0
LINE
8
BLACK
6
CONTINUOUS
10
6.92388
20
0.881949
11
6.91951
21
0.88282
0
LINE
8
BLACK
6
CONTINUOUS
10
6.91951
20
0.88282
11
6.91513
21
0.88369
0
LINE
8
BLACK
6
CONTINUOUS
10
6.91513
20
0.88369
11
6.90688
21
0.887106
0
LINE
8
BLACK
6
CONTINUOUS
10
6.90688
20
0.887106
11
6.89946
21
0.892065
0
LINE
8
BLACK
6
CONTINUOUS
10
6.89946
20
0.892065
11
6.89315
21
0.898377
0
LINE
8
BLACK
6
CONTINUOUS
10
6.89315
20
0.898377
11
6.88819
21
0.905799
0
LINE
8
BLACK
6
CONTINUOUS
10
6.88819
20
0.905799
11
6.88477
21
0.914046
0
LINE
8
BLACK
6
CONTINUOUS
10
6.88477
20
0.914046
11
6.88303
21
0.922801
0
LINE
8
BLACK
6
CONTINUOUS
10
6.88303
20
0.922801
11
6.88303
21
0.931727
0
LINE
8
BLACK
6
CONTINUOUS
10
6.88303
20
0.931727
11
6.88321
21
0.932608
0
LINE
8
BLACK
6
CONTINUOUS
10
6.88321
20
0.932608
11
6.88477
21
0.940482
0
LINE
8
BLACK
6
CONTINUOUS
10
6.88477
20
0.940482
11
6.88493
21
0.940854
0
LINE
8
BLACK
6
CONTINUOUS
10
6.88493
20
0.940854
11
6.888
21
0.948276
0
LINE
8
BLACK
6
CONTINUOUS
10
6.888
20
0.948276
11
6.88819
21
0.948728
0
LINE
8
BLACK
6
CONTINUOUS
10
6.88819
20
0.948728
11
6.8921
21
0.954588
0
LINE
8
BLACK
6
CONTINUOUS
10
6.8921
20
0.954588
11
6.89315
21
0.95615
0
LINE
8
BLACK
6
CONTINUOUS
10
6.89315
20
0.95615
11
6.89946
21
0.962462
0
LINE
8
BLACK
6
CONTINUOUS
10
6.89946
20
0.962462
11
6.90688
21
0.967421
0
LINE
8
BLACK
6
CONTINUOUS
10
6.90688
20
0.967421
11
6.91513
21
0.970837
0
LINE
8
BLACK
6
CONTINUOUS
10
6.91513
20
0.970837
11
6.91951
21
0.971708
0
LINE
8
BLACK
6
CONTINUOUS
10
6.91951
20
0.971708
11
6.92388
21
0.972579
0
LINE
8
BLACK
6
CONTINUOUS
10
6.92388
20
0.972579
11
6.93281
21
0.972579
0
LINE
8
BLACK
6
CONTINUOUS
10
6.93281
20
0.972579
11
6.93719
21
0.971708
  0
ENDSEC
  0
EOF
