  0
SECTION
  2
HEADER
  9
$ANGBASE
  50
0.0
  9
$ANGDIR
  70
1
  9
$MEASUREMENT
  70
0
  0
ENDSEC
  0
SECTION
  2
TABLES
  0
TABLE
  2
LTYPE
  70
4
  0
LTYPE
  5
40F
  2
CONTINUOUS
  70
0
  3
Solid line
  72
65
  73
0
  40
0.0
  0
LTYPE
  5
410
  2
DASHDOT
 70
0
  3
Dash Dot ____ _ ____ _
 72
65
 73
4
 40
2.0
 49
1.25
 49
-0.25
 49
0.25
 49
-0.25
  0
LTYPE
  5
411
  2
DASHED
 70
0
  3
Dashed __ __ __ __ __
 72
65
 73
2
 40
0.75
 49
0.5
 49
-0.25
  0
LTYPE
  5
43B
  2
DOTTED
 70
0
  3
Dotted .  .  .  .
 72
65
 73
2
 40
0.2
 49
0.0
 49
-0.2
  0
ENDTAB
  0
TABLE
  2
STYLE
  70
4
  0
STYLE
  2
KICAD
  70
0
  40
0
  41
1
  42
1
  50
0
  71
0
  3
isocp.shx
  0
STYLE
  2
KICADB
  70
0
  40
0
  41
1
  42
1
  50
0
  71
0
  3
isocp.shx
  0
STYLE
  2
KICADI
  70
0
  40
0
  41
1
  42
1
  50
15
  71
0
  3
isocp.shx
  0
STYLE
  2
KICADBI
  70
0
  40
0
  41
1
  42
1
  50
15
  71
0
  3
isocp.shx
  0
ENDTAB
  0
TABLE
  2
LAYER
  70
1
  0
LAYER
  2
BLACK
  70
0
  62
7
  6
CONTINUOUS
  0
ENDTAB
  0
ENDSEC
  0
SECTION
  2
ENTITIES
0
LINE
8
BLACK
6
CONTINUOUS
10
5.53356
20
-4.25891
11
5.53356
21
-4.28141
0
LINE
8
BLACK
6
CONTINUOUS
10
5.53356
20
-4.27016
11
5.49419
21
-4.27016
0
LINE
8
BLACK
6
CONTINUOUS
10
5.49419
20
-4.27016
11
5.49981
21
-4.27391
0
LINE
8
BLACK
6
CONTINUOUS
10
5.49981
20
-4.27391
11
5.50356
21
-4.27766
0
LINE
8
BLACK
6
CONTINUOUS
10
5.50356
20
-4.27766
11
5.50544
21
-4.28141
0
LINE
8
BLACK
6
CONTINUOUS
10
5.49419
20
-4.24579
11
5.49419
21
-4.21954
0
LINE
8
BLACK
6
CONTINUOUS
10
5.49419
20
-4.21954
11
5.53356
21
-4.23642
0
LINE
8
BLACK
6
CONTINUOUS
10
5.52981
20
-4.20455
11
5.53168
21
-4.20267
0
LINE
8
BLACK
6
CONTINUOUS
10
5.53168
20
-4.20267
11
5.53356
21
-4.20455
0
LINE
8
BLACK
6
CONTINUOUS
10
5.53356
20
-4.20455
11
5.53168
21
-4.20642
0
LINE
8
BLACK
6
CONTINUOUS
10
5.53168
20
-4.20642
11
5.52981
21
-4.20455
0
LINE
8
BLACK
6
CONTINUOUS
10
5.52981
20
-4.20455
11
5.53356
21
-4.20455
0
LINE
8
BLACK
6
CONTINUOUS
10
5.49419
20
-4.16705
11
5.49419
21
-4.1858
0
LINE
8
BLACK
6
CONTINUOUS
10
5.49419
20
-4.1858
11
5.51294
21
-4.18767
0
LINE
8
BLACK
6
CONTINUOUS
10
5.51294
20
-4.18767
11
5.51106
21
-4.1858
0
LINE
8
BLACK
6
CONTINUOUS
10
5.51106
20
-4.1858
11
5.50919
21
-4.18205
0
LINE
8
BLACK
6
CONTINUOUS
10
5.50919
20
-4.18205
11
5.50919
21
-4.17268
0
LINE
8
BLACK
6
CONTINUOUS
10
5.50919
20
-4.17268
11
5.51106
21
-4.16893
0
LINE
8
BLACK
6
CONTINUOUS
10
5.51106
20
-4.16893
11
5.51294
21
-4.16705
0
LINE
8
BLACK
6
CONTINUOUS
10
5.51294
20
-4.16705
11
5.51669
21
-4.16518
0
LINE
8
BLACK
6
CONTINUOUS
10
5.51669
20
-4.16518
11
5.52606
21
-4.16518
0
LINE
8
BLACK
6
CONTINUOUS
10
5.52606
20
-4.16518
11
5.52981
21
-4.16705
0
LINE
8
BLACK
6
CONTINUOUS
10
5.52981
20
-4.16705
11
5.53168
21
-4.16893
0
LINE
8
BLACK
6
CONTINUOUS
10
5.53168
20
-4.16893
11
5.53356
21
-4.17268
0
LINE
8
BLACK
6
CONTINUOUS
10
5.53356
20
-4.17268
11
5.53356
21
-4.18205
0
LINE
8
BLACK
6
CONTINUOUS
10
5.53356
20
-4.18205
11
5.53168
21
-4.1858
0
LINE
8
BLACK
6
CONTINUOUS
10
5.53168
20
-4.1858
11
5.52981
21
-4.18767
0
LINE
8
BLACK
6
CONTINUOUS
10
5.49419
20
-4.12956
11
5.49419
21
-4.1483
0
LINE
8
BLACK
6
CONTINUOUS
10
5.49419
20
-4.1483
11
5.51294
21
-4.15018
0
LINE
8
BLACK
6
CONTINUOUS
10
5.51294
20
-4.15018
11
5.51106
21
-4.1483
0
LINE
8
BLACK
6
CONTINUOUS
10
5.51106
20
-4.1483
11
5.50919
21
-4.14455
0
LINE
8
BLACK
6
CONTINUOUS
10
5.50919
20
-4.14455
11
5.50919
21
-4.13518
0
LINE
8
BLACK
6
CONTINUOUS
10
5.50919
20
-4.13518
11
5.51106
21
-4.13143
0
LINE
8
BLACK
6
CONTINUOUS
10
5.51106
20
-4.13143
11
5.51294
21
-4.12956
0
LINE
8
BLACK
6
CONTINUOUS
10
5.51294
20
-4.12956
11
5.51669
21
-4.12768
0
LINE
8
BLACK
6
CONTINUOUS
10
5.51669
20
-4.12768
11
5.52606
21
-4.12768
0
LINE
8
BLACK
6
CONTINUOUS
10
5.52606
20
-4.12768
11
5.52981
21
-4.12956
0
LINE
8
BLACK
6
CONTINUOUS
10
5.52981
20
-4.12956
11
5.53168
21
-4.13143
0
LINE
8
BLACK
6
CONTINUOUS
10
5.53168
20
-4.13143
11
5.53356
21
-4.13518
0
LINE
8
BLACK
6
CONTINUOUS
10
5.53356
20
-4.13518
11
5.53356
21
-4.14455
0
LINE
8
BLACK
6
CONTINUOUS
10
5.53356
20
-4.14455
11
5.53168
21
-4.1483
0
LINE
8
BLACK
6
CONTINUOUS
10
5.53168
20
-4.1483
11
5.52981
21
-4.15018
0
LINE
8
BLACK
6
CONTINUOUS
10
5.49419
20
-4.10331
11
5.49419
21
-4.09956
0
LINE
8
BLACK
6
CONTINUOUS
10
5.49419
20
-4.09956
11
5.49606
21
-4.09581
0
LINE
8
BLACK
6
CONTINUOUS
10
5.49606
20
-4.09581
11
5.49794
21
-4.09394
0
LINE
8
BLACK
6
CONTINUOUS
10
5.49794
20
-4.09394
11
5.50169
21
-4.09206
0
LINE
8
BLACK
6
CONTINUOUS
10
5.50169
20
-4.09206
11
5.50919
21
-4.09019
0
LINE
8
BLACK
6
CONTINUOUS
10
5.50919
20
-4.09019
11
5.51856
21
-4.09019
0
LINE
8
BLACK
6
CONTINUOUS
10
5.51856
20
-4.09019
11
5.52606
21
-4.09206
0
LINE
8
BLACK
6
CONTINUOUS
10
5.52606
20
-4.09206
11
5.52981
21
-4.09394
0
LINE
8
BLACK
6
CONTINUOUS
10
5.52981
20
-4.09394
11
5.53168
21
-4.09581
0
LINE
8
BLACK
6
CONTINUOUS
10
5.53168
20
-4.09581
11
5.53356
21
-4.09956
0
LINE
8
BLACK
6
CONTINUOUS
10
5.53356
20
-4.09956
11
5.53356
21
-4.10331
0
LINE
8
BLACK
6
CONTINUOUS
10
5.53356
20
-4.10331
11
5.53168
21
-4.10706
0
LINE
8
BLACK
6
CONTINUOUS
10
5.53168
20
-4.10706
11
5.52981
21
-4.10893
0
LINE
8
BLACK
6
CONTINUOUS
10
5.52981
20
-4.10893
11
5.52606
21
-4.11081
0
LINE
8
BLACK
6
CONTINUOUS
10
5.52606
20
-4.11081
11
5.51856
21
-4.11268
0
LINE
8
BLACK
6
CONTINUOUS
10
5.51856
20
-4.11268
11
5.50919
21
-4.11268
0
LINE
8
BLACK
6
CONTINUOUS
10
5.50919
20
-4.11268
11
5.50169
21
-4.11081
0
LINE
8
BLACK
6
CONTINUOUS
10
5.50169
20
-4.11081
11
5.49794
21
-4.10893
0
LINE
8
BLACK
6
CONTINUOUS
10
5.49794
20
-4.10893
11
5.49606
21
-4.10706
0
LINE
8
BLACK
6
CONTINUOUS
10
5.49606
20
-4.10706
11
5.49419
21
-4.10331
0
LINE
8
BLACK
6
CONTINUOUS
10
5.53356
20
-4.04332
11
5.50731
21
-4.04332
0
LINE
8
BLACK
6
CONTINUOUS
10
5.51106
20
-4.04332
11
5.50919
21
-4.04144
0
LINE
8
BLACK
6
CONTINUOUS
10
5.50919
20
-4.04144
11
5.50731
21
-4.03769
0
LINE
8
BLACK
6
CONTINUOUS
10
5.50731
20
-4.03769
11
5.50731
21
-4.03207
0
LINE
8
BLACK
6
CONTINUOUS
10
5.50731
20
-4.03207
11
5.50919
21
-4.02832
0
LINE
8
BLACK
6
CONTINUOUS
10
5.50919
20
-4.02832
11
5.51294
21
-4.02644
0
LINE
8
BLACK
6
CONTINUOUS
10
5.51294
20
-4.02644
11
5.53356
21
-4.02644
0
LINE
8
BLACK
6
CONTINUOUS
10
5.51294
20
-4.02644
11
5.50919
21
-4.02457
0
LINE
8
BLACK
6
CONTINUOUS
10
5.50919
20
-4.02457
11
5.50731
21
-4.02082
0
LINE
8
BLACK
6
CONTINUOUS
10
5.50731
20
-4.02082
11
5.50731
21
-4.01519
0
LINE
8
BLACK
6
CONTINUOUS
10
5.50731
20
-4.01519
11
5.50919
21
-4.01145
0
LINE
8
BLACK
6
CONTINUOUS
10
5.50919
20
-4.01145
11
5.51294
21
-4.00957
0
LINE
8
BLACK
6
CONTINUOUS
10
5.51294
20
-4.00957
11
5.53356
21
-4.00957
0
LINE
8
BLACK
6
CONTINUOUS
10
5.53356
20
-3.99082
11
5.50731
21
-3.99082
0
LINE
8
BLACK
6
CONTINUOUS
10
5.51106
20
-3.99082
11
5.50919
21
-3.98895
0
LINE
8
BLACK
6
CONTINUOUS
10
5.50919
20
-3.98895
11
5.50731
21
-3.9852
0
LINE
8
BLACK
6
CONTINUOUS
10
5.50731
20
-3.9852
11
5.50731
21
-3.97957
0
LINE
8
BLACK
6
CONTINUOUS
10
5.50731
20
-3.97957
11
5.50919
21
-3.97582
0
LINE
8
BLACK
6
CONTINUOUS
10
5.50919
20
-3.97582
11
5.51294
21
-3.97395
0
LINE
8
BLACK
6
CONTINUOUS
10
5.51294
20
-3.97395
11
5.53356
21
-3.97395
0
LINE
8
BLACK
6
CONTINUOUS
10
5.51294
20
-3.97395
11
5.50919
21
-3.97208
0
LINE
8
BLACK
6
CONTINUOUS
10
5.50919
20
-3.97208
11
5.50731
21
-3.96833
0
LINE
8
BLACK
6
CONTINUOUS
10
5.50731
20
-3.96833
11
5.50731
21
-3.9627
0
LINE
8
BLACK
6
CONTINUOUS
10
5.50731
20
-3.9627
11
5.50919
21
-3.95895
0
LINE
8
BLACK
6
CONTINUOUS
10
5.50919
20
-3.95895
11
5.51294
21
-3.95708
0
LINE
8
BLACK
6
CONTINUOUS
10
5.51294
20
-3.95708
11
5.53356
21
-3.95708
0
LINE
8
BLACK
6
CONTINUOUS
10
5.4685
20
-4.46378
11
5.4685
21
-3.77283
0
LINE
8
BLACK
6
CONTINUOUS
10
5.41988
20
-4.46378
11
5.49159
21
-4.46378
0
LINE
8
BLACK
6
CONTINUOUS
10
5.41988
20
-3.77283
11
5.49159
21
-3.77283
0
LINE
8
BLACK
6
CONTINUOUS
10
5.4685
20
-3.77283
11
5.49159
21
-3.81719
0
LINE
8
BLACK
6
CONTINUOUS
10
5.4685
20
-3.77283
11
5.44542
21
-3.81719
0
LINE
8
BLACK
6
CONTINUOUS
10
5.4685
20
-4.46378
11
5.49159
21
-4.41943
0
LINE
8
BLACK
6
CONTINUOUS
10
5.4685
20
-4.46378
11
5.44542
21
-4.41943
0
LINE
8
BLACK
6
CONTINUOUS
10
4.96057
20
-4.62962
11
4.93808
21
-4.62962
0
LINE
8
BLACK
6
CONTINUOUS
10
4.94933
20
-4.62962
11
4.94933
21
-4.59025
0
LINE
8
BLACK
6
CONTINUOUS
10
4.94933
20
-4.59025
11
4.94558
21
-4.59588
0
LINE
8
BLACK
6
CONTINUOUS
10
4.94558
20
-4.59588
11
4.94183
21
-4.59963
0
LINE
8
BLACK
6
CONTINUOUS
10
4.94183
20
-4.59963
11
4.93808
21
-4.6015
0
LINE
8
BLACK
6
CONTINUOUS
10
4.99432
20
-4.60337
11
4.99432
21
-4.62962
0
LINE
8
BLACK
6
CONTINUOUS
10
4.98495
20
-4.58838
11
4.97557
21
-4.6165
0
LINE
8
BLACK
6
CONTINUOUS
10
4.97557
20
-4.6165
11
4.99994
21
-4.6165
0
LINE
8
BLACK
6
CONTINUOUS
10
5.01494
20
-4.62587
11
5.01682
21
-4.62775
0
LINE
8
BLACK
6
CONTINUOUS
10
5.01682
20
-4.62775
11
5.01494
21
-4.62962
0
LINE
8
BLACK
6
CONTINUOUS
10
5.01494
20
-4.62962
11
5.01307
21
-4.62775
0
LINE
8
BLACK
6
CONTINUOUS
10
5.01307
20
-4.62775
11
5.01494
21
-4.62587
0
LINE
8
BLACK
6
CONTINUOUS
10
5.01494
20
-4.62587
11
5.01494
21
-4.62962
0
LINE
8
BLACK
6
CONTINUOUS
10
5.02994
20
-4.59025
11
5.05619
21
-4.59025
0
LINE
8
BLACK
6
CONTINUOUS
10
5.05619
20
-4.59025
11
5.03931
21
-4.62962
0
LINE
8
BLACK
6
CONTINUOUS
10
5.07868
20
-4.59025
11
5.08243
21
-4.59025
0
LINE
8
BLACK
6
CONTINUOUS
10
5.08243
20
-4.59025
11
5.08618
21
-4.59213
0
LINE
8
BLACK
6
CONTINUOUS
10
5.08618
20
-4.59213
11
5.08806
21
-4.594
0
LINE
8
BLACK
6
CONTINUOUS
10
5.08806
20
-4.594
11
5.08993
21
-4.59775
0
LINE
8
BLACK
6
CONTINUOUS
10
5.08993
20
-4.59775
11
5.09181
21
-4.60525
0
LINE
8
BLACK
6
CONTINUOUS
10
5.09181
20
-4.60525
11
5.09181
21
-4.61462
0
LINE
8
BLACK
6
CONTINUOUS
10
5.09181
20
-4.61462
11
5.08993
21
-4.62212
0
LINE
8
BLACK
6
CONTINUOUS
10
5.08993
20
-4.62212
11
5.08806
21
-4.62587
0
LINE
8
BLACK
6
CONTINUOUS
10
5.08806
20
-4.62587
11
5.08618
21
-4.62775
0
LINE
8
BLACK
6
CONTINUOUS
10
5.08618
20
-4.62775
11
5.08243
21
-4.62962
0
LINE
8
BLACK
6
CONTINUOUS
10
5.08243
20
-4.62962
11
5.07868
21
-4.62962
0
LINE
8
BLACK
6
CONTINUOUS
10
5.07868
20
-4.62962
11
5.07493
21
-4.62775
0
LINE
8
BLACK
6
CONTINUOUS
10
5.07493
20
-4.62775
11
5.07306
21
-4.62587
0
LINE
8
BLACK
6
CONTINUOUS
10
5.07306
20
-4.62587
11
5.07118
21
-4.62212
0
LINE
8
BLACK
6
CONTINUOUS
10
5.07118
20
-4.62212
11
5.06931
21
-4.61462
0
LINE
8
BLACK
6
CONTINUOUS
10
5.06931
20
-4.61462
11
5.06931
21
-4.60525
0
LINE
8
BLACK
6
CONTINUOUS
10
5.06931
20
-4.60525
11
5.07118
21
-4.59775
0
LINE
8
BLACK
6
CONTINUOUS
10
5.07118
20
-4.59775
11
5.07306
21
-4.594
0
LINE
8
BLACK
6
CONTINUOUS
10
5.07306
20
-4.594
11
5.07493
21
-4.59213
0
LINE
8
BLACK
6
CONTINUOUS
10
5.07493
20
-4.59213
11
5.07868
21
-4.59025
0
LINE
8
BLACK
6
CONTINUOUS
10
5.11618
20
-4.59025
11
5.11993
21
-4.59025
0
LINE
8
BLACK
6
CONTINUOUS
10
5.11993
20
-4.59025
11
5.12368
21
-4.59213
0
LINE
8
BLACK
6
CONTINUOUS
10
5.12368
20
-4.59213
11
5.12555
21
-4.594
0
LINE
8
BLACK
6
CONTINUOUS
10
5.12555
20
-4.594
11
5.12743
21
-4.59775
0
LINE
8
BLACK
6
CONTINUOUS
10
5.12743
20
-4.59775
11
5.1293
21
-4.60525
0
LINE
8
BLACK
6
CONTINUOUS
10
5.1293
20
-4.60525
11
5.1293
21
-4.61462
0
LINE
8
BLACK
6
CONTINUOUS
10
5.1293
20
-4.61462
11
5.12743
21
-4.62212
0
LINE
8
BLACK
6
CONTINUOUS
10
5.12743
20
-4.62212
11
5.12555
21
-4.62587
0
LINE
8
BLACK
6
CONTINUOUS
10
5.12555
20
-4.62587
11
5.12368
21
-4.62775
0
LINE
8
BLACK
6
CONTINUOUS
10
5.12368
20
-4.62775
11
5.11993
21
-4.62962
0
LINE
8
BLACK
6
CONTINUOUS
10
5.11993
20
-4.62962
11
5.11618
21
-4.62962
0
LINE
8
BLACK
6
CONTINUOUS
10
5.11618
20
-4.62962
11
5.11243
21
-4.62775
0
LINE
8
BLACK
6
CONTINUOUS
10
5.11243
20
-4.62775
11
5.11055
21
-4.62587
0
LINE
8
BLACK
6
CONTINUOUS
10
5.11055
20
-4.62587
11
5.10868
21
-4.62212
0
LINE
8
BLACK
6
CONTINUOUS
10
5.10868
20
-4.62212
11
5.10681
21
-4.61462
0
LINE
8
BLACK
6
CONTINUOUS
10
5.10681
20
-4.61462
11
5.10681
21
-4.60525
0
LINE
8
BLACK
6
CONTINUOUS
10
5.10681
20
-4.60525
11
5.10868
21
-4.59775
0
LINE
8
BLACK
6
CONTINUOUS
10
5.10868
20
-4.59775
11
5.11055
21
-4.594
0
LINE
8
BLACK
6
CONTINUOUS
10
5.11055
20
-4.594
11
5.11243
21
-4.59213
0
LINE
8
BLACK
6
CONTINUOUS
10
5.11243
20
-4.59213
11
5.11618
21
-4.59025
0
LINE
8
BLACK
6
CONTINUOUS
10
5.17617
20
-4.62962
11
5.17617
21
-4.60337
0
LINE
8
BLACK
6
CONTINUOUS
10
5.17617
20
-4.60712
11
5.17805
21
-4.60525
0
LINE
8
BLACK
6
CONTINUOUS
10
5.17805
20
-4.60525
11
5.1818
21
-4.60337
0
LINE
8
BLACK
6
CONTINUOUS
10
5.1818
20
-4.60337
11
5.18742
21
-4.60337
0
LINE
8
BLACK
6
CONTINUOUS
10
5.18742
20
-4.60337
11
5.19117
21
-4.60525
0
LINE
8
BLACK
6
CONTINUOUS
10
5.19117
20
-4.60525
11
5.19304
21
-4.609
0
LINE
8
BLACK
6
CONTINUOUS
10
5.19304
20
-4.609
11
5.19304
21
-4.62962
0
LINE
8
BLACK
6
CONTINUOUS
10
5.19304
20
-4.609
11
5.19492
21
-4.60525
0
LINE
8
BLACK
6
CONTINUOUS
10
5.19492
20
-4.60525
11
5.19867
21
-4.60337
0
LINE
8
BLACK
6
CONTINUOUS
10
5.19867
20
-4.60337
11
5.20429
21
-4.60337
0
LINE
8
BLACK
6
CONTINUOUS
10
5.20429
20
-4.60337
11
5.20804
21
-4.60525
0
LINE
8
BLACK
6
CONTINUOUS
10
5.20804
20
-4.60525
11
5.20992
21
-4.609
0
LINE
8
BLACK
6
CONTINUOUS
10
5.20992
20
-4.609
11
5.20992
21
-4.62962
0
LINE
8
BLACK
6
CONTINUOUS
10
5.22867
20
-4.62962
11
5.22867
21
-4.60337
0
LINE
8
BLACK
6
CONTINUOUS
10
5.22867
20
-4.60712
11
5.23054
21
-4.60525
0
LINE
8
BLACK
6
CONTINUOUS
10
5.23054
20
-4.60525
11
5.23429
21
-4.60337
0
LINE
8
BLACK
6
CONTINUOUS
10
5.23429
20
-4.60337
11
5.23991
21
-4.60337
0
LINE
8
BLACK
6
CONTINUOUS
10
5.23991
20
-4.60337
11
5.24366
21
-4.60525
0
LINE
8
BLACK
6
CONTINUOUS
10
5.24366
20
-4.60525
11
5.24554
21
-4.609
0
LINE
8
BLACK
6
CONTINUOUS
10
5.24554
20
-4.609
11
5.24554
21
-4.62962
0
LINE
8
BLACK
6
CONTINUOUS
10
5.24554
20
-4.609
11
5.24741
21
-4.60525
0
LINE
8
BLACK
6
CONTINUOUS
10
5.24741
20
-4.60525
11
5.25116
21
-4.60337
0
LINE
8
BLACK
6
CONTINUOUS
10
5.25116
20
-4.60337
11
5.25679
21
-4.60337
0
LINE
8
BLACK
6
CONTINUOUS
10
5.25679
20
-4.60337
11
5.26054
21
-4.60525
0
LINE
8
BLACK
6
CONTINUOUS
10
5.26054
20
-4.60525
11
5.26241
21
-4.609
0
LINE
8
BLACK
6
CONTINUOUS
10
5.26241
20
-4.609
11
5.26241
21
-4.62962
0
LINE
8
BLACK
6
CONTINUOUS
10
4.81181
20
-4.56457
11
5.39055
21
-4.56457
0
LINE
8
BLACK
6
CONTINUOUS
10
4.81181
20
-4.54035
11
4.81181
21
-4.58765
0
LINE
8
BLACK
6
CONTINUOUS
10
5.39055
20
-4.54035
11
5.39055
21
-4.58765
0
LINE
8
BLACK
6
CONTINUOUS
10
5.39055
20
-4.56457
11
5.3462
21
-4.58765
0
LINE
8
BLACK
6
CONTINUOUS
10
5.39055
20
-4.56457
11
5.3462
21
-4.54148
0
LINE
8
BLACK
6
CONTINUOUS
10
4.81181
20
-4.56457
11
4.85616
21
-4.58765
0
LINE
8
BLACK
6
CONTINUOUS
10
4.81181
20
-4.56457
11
4.85616
21
-4.54148
0
LINE
8
BLACK
6
CONTINUOUS
10
5.15442
20
-1.97846
11
5.15442
21
-1.95222
0
LINE
8
BLACK
6
CONTINUOUS
10
5.15442
20
-1.95222
11
5.19379
21
-1.96909
0
LINE
8
BLACK
6
CONTINUOUS
10
5.15817
20
-1.93909
11
5.1563
21
-1.93722
0
LINE
8
BLACK
6
CONTINUOUS
10
5.1563
20
-1.93722
11
5.15442
21
-1.93347
0
LINE
8
BLACK
6
CONTINUOUS
10
5.15442
20
-1.93347
11
5.15442
21
-1.9241
0
LINE
8
BLACK
6
CONTINUOUS
10
5.15442
20
-1.9241
11
5.1563
21
-1.92035
0
LINE
8
BLACK
6
CONTINUOUS
10
5.1563
20
-1.92035
11
5.15817
21
-1.91847
0
LINE
8
BLACK
6
CONTINUOUS
10
5.15817
20
-1.91847
11
5.16192
21
-1.9166
0
LINE
8
BLACK
6
CONTINUOUS
10
5.16192
20
-1.9166
11
5.16567
21
-1.9166
0
LINE
8
BLACK
6
CONTINUOUS
10
5.16567
20
-1.9166
11
5.1713
21
-1.91847
0
LINE
8
BLACK
6
CONTINUOUS
10
5.1713
20
-1.91847
11
5.19379
21
-1.94097
0
LINE
8
BLACK
6
CONTINUOUS
10
5.19379
20
-1.94097
11
5.19379
21
-1.9166
0
LINE
8
BLACK
6
CONTINUOUS
10
5.19004
20
-1.89972
11
5.19192
21
-1.89785
0
LINE
8
BLACK
6
CONTINUOUS
10
5.19192
20
-1.89785
11
5.19379
21
-1.89972
0
LINE
8
BLACK
6
CONTINUOUS
10
5.19379
20
-1.89972
11
5.19192
21
-1.9016
0
LINE
8
BLACK
6
CONTINUOUS
10
5.19192
20
-1.9016
11
5.19004
21
-1.89972
0
LINE
8
BLACK
6
CONTINUOUS
10
5.19004
20
-1.89972
11
5.19379
21
-1.89972
0
LINE
8
BLACK
6
CONTINUOUS
10
5.19379
20
-1.8791
11
5.19379
21
-1.8716
0
LINE
8
BLACK
6
CONTINUOUS
10
5.19379
20
-1.8716
11
5.19192
21
-1.86785
0
LINE
8
BLACK
6
CONTINUOUS
10
5.19192
20
-1.86785
11
5.19004
21
-1.86598
0
LINE
8
BLACK
6
CONTINUOUS
10
5.19004
20
-1.86598
11
5.18442
21
-1.86223
0
LINE
8
BLACK
6
CONTINUOUS
10
5.18442
20
-1.86223
11
5.17692
21
-1.86035
0
LINE
8
BLACK
6
CONTINUOUS
10
5.17692
20
-1.86035
11
5.16192
21
-1.86035
0
LINE
8
BLACK
6
CONTINUOUS
10
5.16192
20
-1.86035
11
5.15817
21
-1.86223
0
LINE
8
BLACK
6
CONTINUOUS
10
5.15817
20
-1.86223
11
5.1563
21
-1.8641
0
LINE
8
BLACK
6
CONTINUOUS
10
5.1563
20
-1.8641
11
5.15442
21
-1.86785
0
LINE
8
BLACK
6
CONTINUOUS
10
5.15442
20
-1.86785
11
5.15442
21
-1.87535
0
LINE
8
BLACK
6
CONTINUOUS
10
5.15442
20
-1.87535
11
5.1563
21
-1.8791
0
LINE
8
BLACK
6
CONTINUOUS
10
5.1563
20
-1.8791
11
5.15817
21
-1.88098
0
LINE
8
BLACK
6
CONTINUOUS
10
5.15817
20
-1.88098
11
5.16192
21
-1.88285
0
LINE
8
BLACK
6
CONTINUOUS
10
5.16192
20
-1.88285
11
5.1713
21
-1.88285
0
LINE
8
BLACK
6
CONTINUOUS
10
5.1713
20
-1.88285
11
5.17505
21
-1.88098
0
LINE
8
BLACK
6
CONTINUOUS
10
5.17505
20
-1.88098
11
5.17692
21
-1.8791
0
LINE
8
BLACK
6
CONTINUOUS
10
5.17692
20
-1.8791
11
5.1788
21
-1.87535
0
LINE
8
BLACK
6
CONTINUOUS
10
5.1788
20
-1.87535
11
5.1788
21
-1.86785
0
LINE
8
BLACK
6
CONTINUOUS
10
5.1788
20
-1.86785
11
5.17692
21
-1.8641
0
LINE
8
BLACK
6
CONTINUOUS
10
5.17692
20
-1.8641
11
5.17505
21
-1.86223
0
LINE
8
BLACK
6
CONTINUOUS
10
5.17505
20
-1.86223
11
5.1713
21
-1.86035
0
LINE
8
BLACK
6
CONTINUOUS
10
5.15442
20
-1.84723
11
5.15442
21
-1.82098
0
LINE
8
BLACK
6
CONTINUOUS
10
5.15442
20
-1.82098
11
5.19379
21
-1.83786
0
LINE
8
BLACK
6
CONTINUOUS
10
5.15442
20
-1.78724
11
5.15442
21
-1.80599
0
LINE
8
BLACK
6
CONTINUOUS
10
5.15442
20
-1.80599
11
5.17317
21
-1.80786
0
LINE
8
BLACK
6
CONTINUOUS
10
5.17317
20
-1.80786
11
5.1713
21
-1.80599
0
LINE
8
BLACK
6
CONTINUOUS
10
5.1713
20
-1.80599
11
5.16942
21
-1.80224
0
LINE
8
BLACK
6
CONTINUOUS
10
5.16942
20
-1.80224
11
5.16942
21
-1.79286
0
LINE
8
BLACK
6
CONTINUOUS
10
5.16942
20
-1.79286
11
5.1713
21
-1.78911
0
LINE
8
BLACK
6
CONTINUOUS
10
5.1713
20
-1.78911
11
5.17317
21
-1.78724
0
LINE
8
BLACK
6
CONTINUOUS
10
5.17317
20
-1.78724
11
5.17692
21
-1.78536
0
LINE
8
BLACK
6
CONTINUOUS
10
5.17692
20
-1.78536
11
5.1863
21
-1.78536
0
LINE
8
BLACK
6
CONTINUOUS
10
5.1863
20
-1.78536
11
5.19004
21
-1.78724
0
LINE
8
BLACK
6
CONTINUOUS
10
5.19004
20
-1.78724
11
5.19192
21
-1.78911
0
LINE
8
BLACK
6
CONTINUOUS
10
5.19192
20
-1.78911
11
5.19379
21
-1.79286
0
LINE
8
BLACK
6
CONTINUOUS
10
5.19379
20
-1.79286
11
5.19379
21
-1.80224
0
LINE
8
BLACK
6
CONTINUOUS
10
5.19379
20
-1.80224
11
5.19192
21
-1.80599
0
LINE
8
BLACK
6
CONTINUOUS
10
5.19192
20
-1.80599
11
5.19004
21
-1.80786
0
LINE
8
BLACK
6
CONTINUOUS
10
5.19379
20
-1.73849
11
5.16755
21
-1.73849
0
LINE
8
BLACK
6
CONTINUOUS
10
5.1713
20
-1.73849
11
5.16942
21
-1.73662
0
LINE
8
BLACK
6
CONTINUOUS
10
5.16942
20
-1.73662
11
5.16755
21
-1.73287
0
LINE
8
BLACK
6
CONTINUOUS
10
5.16755
20
-1.73287
11
5.16755
21
-1.72724
0
LINE
8
BLACK
6
CONTINUOUS
10
5.16755
20
-1.72724
11
5.16942
21
-1.7235
0
LINE
8
BLACK
6
CONTINUOUS
10
5.16942
20
-1.7235
11
5.17317
21
-1.72162
0
LINE
8
BLACK
6
CONTINUOUS
10
5.17317
20
-1.72162
11
5.19379
21
-1.72162
0
LINE
8
BLACK
6
CONTINUOUS
10
5.17317
20
-1.72162
11
5.16942
21
-1.71975
0
LINE
8
BLACK
6
CONTINUOUS
10
5.16942
20
-1.71975
11
5.16755
21
-1.716
0
LINE
8
BLACK
6
CONTINUOUS
10
5.16755
20
-1.716
11
5.16755
21
-1.71037
0
LINE
8
BLACK
6
CONTINUOUS
10
5.16755
20
-1.71037
11
5.16942
21
-1.70662
0
LINE
8
BLACK
6
CONTINUOUS
10
5.16942
20
-1.70662
11
5.17317
21
-1.70475
0
LINE
8
BLACK
6
CONTINUOUS
10
5.17317
20
-1.70475
11
5.19379
21
-1.70475
0
LINE
8
BLACK
6
CONTINUOUS
10
5.19379
20
-1.686
11
5.16755
21
-1.686
0
LINE
8
BLACK
6
CONTINUOUS
10
5.1713
20
-1.686
11
5.16942
21
-1.68413
0
LINE
8
BLACK
6
CONTINUOUS
10
5.16942
20
-1.68413
11
5.16755
21
-1.68038
0
LINE
8
BLACK
6
CONTINUOUS
10
5.16755
20
-1.68038
11
5.16755
21
-1.67475
0
LINE
8
BLACK
6
CONTINUOUS
10
5.16755
20
-1.67475
11
5.16942
21
-1.671
0
LINE
8
BLACK
6
CONTINUOUS
10
5.16942
20
-1.671
11
5.17317
21
-1.66913
0
LINE
8
BLACK
6
CONTINUOUS
10
5.17317
20
-1.66913
11
5.19379
21
-1.66913
0
LINE
8
BLACK
6
CONTINUOUS
10
5.17317
20
-1.66913
11
5.16942
21
-1.66725
0
LINE
8
BLACK
6
CONTINUOUS
10
5.16942
20
-1.66725
11
5.16755
21
-1.6635
0
LINE
8
BLACK
6
CONTINUOUS
10
5.16755
20
-1.6635
11
5.16755
21
-1.65788
0
LINE
8
BLACK
6
CONTINUOUS
10
5.16755
20
-1.65788
11
5.16942
21
-1.65413
0
LINE
8
BLACK
6
CONTINUOUS
10
5.16942
20
-1.65413
11
5.17317
21
-1.65225
0
LINE
8
BLACK
6
CONTINUOUS
10
5.17317
20
-1.65225
11
5.19379
21
-1.65225
0
LINE
8
BLACK
6
CONTINUOUS
10
5.22323
20
-3.25
11
5.22323
21
-0.376969
0
LINE
8
BLACK
6
CONTINUOUS
10
5.23642
20
-3.25
11
5.20014
21
-3.25
0
LINE
8
BLACK
6
CONTINUOUS
10
5.23642
20
-0.376969
11
5.20014
21
-0.376969
0
LINE
8
BLACK
6
CONTINUOUS
10
5.22323
20
-0.376969
11
5.24632
21
-0.421319
0
LINE
8
BLACK
6
CONTINUOUS
10
5.22323
20
-0.376969
11
5.20014
21
-0.421319
0
LINE
8
BLACK
6
CONTINUOUS
10
5.22323
20
-3.25
11
5.24632
21
-3.20565
0
LINE
8
BLACK
6
CONTINUOUS
10
5.22323
20
-3.25
11
5.20014
21
-3.20565
0
LINE
8
BLACK
6
CONTINUOUS
10
4.45546
20
-4.57687
11
4.43296
21
-4.57687
0
LINE
8
BLACK
6
CONTINUOUS
10
4.44421
20
-4.57687
11
4.44421
21
-4.5375
0
LINE
8
BLACK
6
CONTINUOUS
10
4.44421
20
-4.5375
11
4.44046
21
-4.54312
0
LINE
8
BLACK
6
CONTINUOUS
10
4.44046
20
-4.54312
11
4.43671
21
-4.54687
0
LINE
8
BLACK
6
CONTINUOUS
10
4.43671
20
-4.54687
11
4.43296
21
-4.54874
0
LINE
8
BLACK
6
CONTINUOUS
10
4.47983
20
-4.5375
11
4.48358
21
-4.5375
0
LINE
8
BLACK
6
CONTINUOUS
10
4.48358
20
-4.5375
11
4.48733
21
-4.53937
0
LINE
8
BLACK
6
CONTINUOUS
10
4.48733
20
-4.53937
11
4.4892
21
-4.54124
0
LINE
8
BLACK
6
CONTINUOUS
10
4.4892
20
-4.54124
11
4.49108
21
-4.54499
0
LINE
8
BLACK
6
CONTINUOUS
10
4.49108
20
-4.54499
11
4.49295
21
-4.55249
0
LINE
8
BLACK
6
CONTINUOUS
10
4.49295
20
-4.55249
11
4.49295
21
-4.56187
0
LINE
8
BLACK
6
CONTINUOUS
10
4.49295
20
-4.56187
11
4.49108
21
-4.56937
0
LINE
8
BLACK
6
CONTINUOUS
10
4.49108
20
-4.56937
11
4.4892
21
-4.57312
0
LINE
8
BLACK
6
CONTINUOUS
10
4.4892
20
-4.57312
11
4.48733
21
-4.57499
0
LINE
8
BLACK
6
CONTINUOUS
10
4.48733
20
-4.57499
11
4.48358
21
-4.57687
0
LINE
8
BLACK
6
CONTINUOUS
10
4.48358
20
-4.57687
11
4.47983
21
-4.57687
0
LINE
8
BLACK
6
CONTINUOUS
10
4.47983
20
-4.57687
11
4.47608
21
-4.57499
0
LINE
8
BLACK
6
CONTINUOUS
10
4.47608
20
-4.57499
11
4.4742
21
-4.57312
0
LINE
8
BLACK
6
CONTINUOUS
10
4.4742
20
-4.57312
11
4.47233
21
-4.56937
0
LINE
8
BLACK
6
CONTINUOUS
10
4.47233
20
-4.56937
11
4.47045
21
-4.56187
0
LINE
8
BLACK
6
CONTINUOUS
10
4.47045
20
-4.56187
11
4.47045
21
-4.55249
0
LINE
8
BLACK
6
CONTINUOUS
10
4.47045
20
-4.55249
11
4.47233
21
-4.54499
0
LINE
8
BLACK
6
CONTINUOUS
10
4.47233
20
-4.54499
11
4.4742
21
-4.54124
0
LINE
8
BLACK
6
CONTINUOUS
10
4.4742
20
-4.54124
11
4.47608
21
-4.53937
0
LINE
8
BLACK
6
CONTINUOUS
10
4.47608
20
-4.53937
11
4.47983
21
-4.5375
0
LINE
8
BLACK
6
CONTINUOUS
10
4.50982
20
-4.57312
11
4.5117
21
-4.57499
0
LINE
8
BLACK
6
CONTINUOUS
10
4.5117
20
-4.57499
11
4.50982
21
-4.57687
0
LINE
8
BLACK
6
CONTINUOUS
10
4.50982
20
-4.57687
11
4.50795
21
-4.57499
0
LINE
8
BLACK
6
CONTINUOUS
10
4.50795
20
-4.57499
11
4.50982
21
-4.57312
0
LINE
8
BLACK
6
CONTINUOUS
10
4.50982
20
-4.57312
11
4.50982
21
-4.57687
0
LINE
8
BLACK
6
CONTINUOUS
10
4.53045
20
-4.57687
11
4.53795
21
-4.57687
0
LINE
8
BLACK
6
CONTINUOUS
10
4.53795
20
-4.57687
11
4.54169
21
-4.57499
0
LINE
8
BLACK
6
CONTINUOUS
10
4.54169
20
-4.57499
11
4.54357
21
-4.57312
0
LINE
8
BLACK
6
CONTINUOUS
10
4.54357
20
-4.57312
11
4.54732
21
-4.56749
0
LINE
8
BLACK
6
CONTINUOUS
10
4.54732
20
-4.56749
11
4.54919
21
-4.55999
0
LINE
8
BLACK
6
CONTINUOUS
10
4.54919
20
-4.55999
11
4.54919
21
-4.54499
0
LINE
8
BLACK
6
CONTINUOUS
10
4.54919
20
-4.54499
11
4.54732
21
-4.54124
0
LINE
8
BLACK
6
CONTINUOUS
10
4.54732
20
-4.54124
11
4.54544
21
-4.53937
0
LINE
8
BLACK
6
CONTINUOUS
10
4.54544
20
-4.53937
11
4.54169
21
-4.5375
0
LINE
8
BLACK
6
CONTINUOUS
10
4.54169
20
-4.5375
11
4.5342
21
-4.5375
0
LINE
8
BLACK
6
CONTINUOUS
10
4.5342
20
-4.5375
11
4.53045
21
-4.53937
0
LINE
8
BLACK
6
CONTINUOUS
10
4.53045
20
-4.53937
11
4.52857
21
-4.54124
0
LINE
8
BLACK
6
CONTINUOUS
10
4.52857
20
-4.54124
11
4.5267
21
-4.54499
0
LINE
8
BLACK
6
CONTINUOUS
10
4.5267
20
-4.54499
11
4.5267
21
-4.55437
0
LINE
8
BLACK
6
CONTINUOUS
10
4.5267
20
-4.55437
11
4.52857
21
-4.55812
0
LINE
8
BLACK
6
CONTINUOUS
10
4.52857
20
-4.55812
11
4.53045
21
-4.55999
0
LINE
8
BLACK
6
CONTINUOUS
10
4.53045
20
-4.55999
11
4.5342
21
-4.56187
0
LINE
8
BLACK
6
CONTINUOUS
10
4.5342
20
-4.56187
11
4.54169
21
-4.56187
0
LINE
8
BLACK
6
CONTINUOUS
10
4.54169
20
-4.56187
11
4.54544
21
-4.55999
0
LINE
8
BLACK
6
CONTINUOUS
10
4.54544
20
-4.55999
11
4.54732
21
-4.55812
0
LINE
8
BLACK
6
CONTINUOUS
10
4.54732
20
-4.55812
11
4.54919
21
-4.55437
0
LINE
8
BLACK
6
CONTINUOUS
10
4.58294
20
-4.5375
11
4.57544
21
-4.5375
0
LINE
8
BLACK
6
CONTINUOUS
10
4.57544
20
-4.5375
11
4.57169
21
-4.53937
0
LINE
8
BLACK
6
CONTINUOUS
10
4.57169
20
-4.53937
11
4.56982
21
-4.54124
0
LINE
8
BLACK
6
CONTINUOUS
10
4.56982
20
-4.54124
11
4.56607
21
-4.54687
0
LINE
8
BLACK
6
CONTINUOUS
10
4.56607
20
-4.54687
11
4.56419
21
-4.55437
0
LINE
8
BLACK
6
CONTINUOUS
10
4.56419
20
-4.55437
11
4.56419
21
-4.56937
0
LINE
8
BLACK
6
CONTINUOUS
10
4.56419
20
-4.56937
11
4.56607
21
-4.57312
0
LINE
8
BLACK
6
CONTINUOUS
10
4.56607
20
-4.57312
11
4.56794
21
-4.57499
0
LINE
8
BLACK
6
CONTINUOUS
10
4.56794
20
-4.57499
11
4.57169
21
-4.57687
0
LINE
8
BLACK
6
CONTINUOUS
10
4.57169
20
-4.57687
11
4.57919
21
-4.57687
0
LINE
8
BLACK
6
CONTINUOUS
10
4.57919
20
-4.57687
11
4.58294
21
-4.57499
0
LINE
8
BLACK
6
CONTINUOUS
10
4.58294
20
-4.57499
11
4.58481
21
-4.57312
0
LINE
8
BLACK
6
CONTINUOUS
10
4.58481
20
-4.57312
11
4.58669
21
-4.56937
0
LINE
8
BLACK
6
CONTINUOUS
10
4.58669
20
-4.56937
11
4.58669
21
-4.55999
0
LINE
8
BLACK
6
CONTINUOUS
10
4.58669
20
-4.55999
11
4.58481
21
-4.55624
0
LINE
8
BLACK
6
CONTINUOUS
10
4.58481
20
-4.55624
11
4.58294
21
-4.55437
0
LINE
8
BLACK
6
CONTINUOUS
10
4.58294
20
-4.55437
11
4.57919
21
-4.55249
0
LINE
8
BLACK
6
CONTINUOUS
10
4.57919
20
-4.55249
11
4.57169
21
-4.55249
0
LINE
8
BLACK
6
CONTINUOUS
10
4.57169
20
-4.55249
11
4.56794
21
-4.55437
0
LINE
8
BLACK
6
CONTINUOUS
10
4.56794
20
-4.55437
11
4.56607
21
-4.55624
0
LINE
8
BLACK
6
CONTINUOUS
10
4.56607
20
-4.55624
11
4.56419
21
-4.55999
0
LINE
8
BLACK
6
CONTINUOUS
10
4.61106
20
-4.5375
11
4.61481
21
-4.5375
0
LINE
8
BLACK
6
CONTINUOUS
10
4.61481
20
-4.5375
11
4.61856
21
-4.53937
0
LINE
8
BLACK
6
CONTINUOUS
10
4.61856
20
-4.53937
11
4.62043
21
-4.54124
0
LINE
8
BLACK
6
CONTINUOUS
10
4.62043
20
-4.54124
11
4.62231
21
-4.54499
0
LINE
8
BLACK
6
CONTINUOUS
10
4.62231
20
-4.54499
11
4.62418
21
-4.55249
0
LINE
8
BLACK
6
CONTINUOUS
10
4.62418
20
-4.55249
11
4.62418
21
-4.56187
0
LINE
8
BLACK
6
CONTINUOUS
10
4.62418
20
-4.56187
11
4.62231
21
-4.56937
0
LINE
8
BLACK
6
CONTINUOUS
10
4.62231
20
-4.56937
11
4.62043
21
-4.57312
0
LINE
8
BLACK
6
CONTINUOUS
10
4.62043
20
-4.57312
11
4.61856
21
-4.57499
0
LINE
8
BLACK
6
CONTINUOUS
10
4.61856
20
-4.57499
11
4.61481
21
-4.57687
0
LINE
8
BLACK
6
CONTINUOUS
10
4.61481
20
-4.57687
11
4.61106
21
-4.57687
0
LINE
8
BLACK
6
CONTINUOUS
10
4.61106
20
-4.57687
11
4.60731
21
-4.57499
0
LINE
8
BLACK
6
CONTINUOUS
10
4.60731
20
-4.57499
11
4.60544
21
-4.57312
0
LINE
8
BLACK
6
CONTINUOUS
10
4.60544
20
-4.57312
11
4.60356
21
-4.56937
0
LINE
8
BLACK
6
CONTINUOUS
10
4.60356
20
-4.56937
11
4.60169
21
-4.56187
0
LINE
8
BLACK
6
CONTINUOUS
10
4.60169
20
-4.56187
11
4.60169
21
-4.55249
0
LINE
8
BLACK
6
CONTINUOUS
10
4.60169
20
-4.55249
11
4.60356
21
-4.54499
0
LINE
8
BLACK
6
CONTINUOUS
10
4.60356
20
-4.54499
11
4.60544
21
-4.54124
0
LINE
8
BLACK
6
CONTINUOUS
10
4.60544
20
-4.54124
11
4.60731
21
-4.53937
0
LINE
8
BLACK
6
CONTINUOUS
10
4.60731
20
-4.53937
11
4.61106
21
-4.5375
0
LINE
8
BLACK
6
CONTINUOUS
10
4.67105
20
-4.57687
11
4.67105
21
-4.55062
0
LINE
8
BLACK
6
CONTINUOUS
10
4.67105
20
-4.55437
11
4.67293
21
-4.55249
0
LINE
8
BLACK
6
CONTINUOUS
10
4.67293
20
-4.55249
11
4.67668
21
-4.55062
0
LINE
8
BLACK
6
CONTINUOUS
10
4.67668
20
-4.55062
11
4.6823
21
-4.55062
0
LINE
8
BLACK
6
CONTINUOUS
10
4.6823
20
-4.55062
11
4.68605
21
-4.55249
0
LINE
8
BLACK
6
CONTINUOUS
10
4.68605
20
-4.55249
11
4.68793
21
-4.55624
0
LINE
8
BLACK
6
CONTINUOUS
10
4.68793
20
-4.55624
11
4.68793
21
-4.57687
0
LINE
8
BLACK
6
CONTINUOUS
10
4.68793
20
-4.55624
11
4.6898
21
-4.55249
0
LINE
8
BLACK
6
CONTINUOUS
10
4.6898
20
-4.55249
11
4.69355
21
-4.55062
0
LINE
8
BLACK
6
CONTINUOUS
10
4.69355
20
-4.55062
11
4.69918
21
-4.55062
0
LINE
8
BLACK
6
CONTINUOUS
10
4.69918
20
-4.55062
11
4.70292
21
-4.55249
0
LINE
8
BLACK
6
CONTINUOUS
10
4.70292
20
-4.55249
11
4.7048
21
-4.55624
0
LINE
8
BLACK
6
CONTINUOUS
10
4.7048
20
-4.55624
11
4.7048
21
-4.57687
0
LINE
8
BLACK
6
CONTINUOUS
10
4.72355
20
-4.57687
11
4.72355
21
-4.55062
0
LINE
8
BLACK
6
CONTINUOUS
10
4.72355
20
-4.55437
11
4.72542
21
-4.55249
0
LINE
8
BLACK
6
CONTINUOUS
10
4.72542
20
-4.55249
11
4.72917
21
-4.55062
0
LINE
8
BLACK
6
CONTINUOUS
10
4.72917
20
-4.55062
11
4.7348
21
-4.55062
0
LINE
8
BLACK
6
CONTINUOUS
10
4.7348
20
-4.55062
11
4.73855
21
-4.55249
0
LINE
8
BLACK
6
CONTINUOUS
10
4.73855
20
-4.55249
11
4.74042
21
-4.55624
0
LINE
8
BLACK
6
CONTINUOUS
10
4.74042
20
-4.55624
11
4.74042
21
-4.57687
0
LINE
8
BLACK
6
CONTINUOUS
10
4.74042
20
-4.55624
11
4.74229
21
-4.55249
0
LINE
8
BLACK
6
CONTINUOUS
10
4.74229
20
-4.55249
11
4.74604
21
-4.55062
0
LINE
8
BLACK
6
CONTINUOUS
10
4.74604
20
-4.55062
11
4.75167
21
-4.55062
0
LINE
8
BLACK
6
CONTINUOUS
10
4.75167
20
-4.55062
11
4.75542
21
-4.55249
0
LINE
8
BLACK
6
CONTINUOUS
10
4.75542
20
-4.55249
11
4.75729
21
-4.55624
0
LINE
8
BLACK
6
CONTINUOUS
10
4.75729
20
-4.55624
11
4.75729
21
-4.57687
0
LINE
8
BLACK
6
CONTINUOUS
10
4.38031
20
-4.51181
11
4.81181
21
-4.51181
0
LINE
8
BLACK
6
CONTINUOUS
10
4.38031
20
-4.4813
11
4.38031
21
-4.5349
0
LINE
8
BLACK
6
CONTINUOUS
10
4.81181
20
-4.4813
11
4.81181
21
-4.5349
0
LINE
8
BLACK
6
CONTINUOUS
10
4.81181
20
-4.51181
11
4.76746
21
-4.5349
0
LINE
8
BLACK
6
CONTINUOUS
10
4.81181
20
-4.51181
11
4.76746
21
-4.48872
0
LINE
8
BLACK
6
CONTINUOUS
10
4.38031
20
-4.51181
11
4.42467
21
-4.5349
0
LINE
8
BLACK
6
CONTINUOUS
10
4.38031
20
-4.51181
11
4.42467
21
-4.48872
0
LINE
8
BLACK
6
CONTINUOUS
10
4.16132
20
-2.26102
11
4.16132
21
-2.23852
0
LINE
8
BLACK
6
CONTINUOUS
10
4.16132
20
-2.24977
11
4.20069
21
-2.24977
0
LINE
8
BLACK
6
CONTINUOUS
10
4.20069
20
-2.24977
11
4.19507
21
-2.24602
0
LINE
8
BLACK
6
CONTINUOUS
10
4.19507
20
-2.24602
11
4.19132
21
-2.24227
0
LINE
8
BLACK
6
CONTINUOUS
10
4.19132
20
-2.24227
11
4.18945
21
-2.23852
0
LINE
8
BLACK
6
CONTINUOUS
10
4.20069
20
-2.28539
11
4.20069
21
-2.28914
0
LINE
8
BLACK
6
CONTINUOUS
10
4.20069
20
-2.28914
11
4.19882
21
-2.29289
0
LINE
8
BLACK
6
CONTINUOUS
10
4.19882
20
-2.29289
11
4.19694
21
-2.29476
0
LINE
8
BLACK
6
CONTINUOUS
10
4.19694
20
-2.29476
11
4.19319
21
-2.29664
0
LINE
8
BLACK
6
CONTINUOUS
10
4.19319
20
-2.29664
11
4.1857
21
-2.29851
0
LINE
8
BLACK
6
CONTINUOUS
10
4.1857
20
-2.29851
11
4.17632
21
-2.29851
0
LINE
8
BLACK
6
CONTINUOUS
10
4.17632
20
-2.29851
11
4.16882
21
-2.29664
0
LINE
8
BLACK
6
CONTINUOUS
10
4.16882
20
-2.29664
11
4.16507
21
-2.29476
0
LINE
8
BLACK
6
CONTINUOUS
10
4.16507
20
-2.29476
11
4.1632
21
-2.29289
0
LINE
8
BLACK
6
CONTINUOUS
10
4.1632
20
-2.29289
11
4.16132
21
-2.28914
0
LINE
8
BLACK
6
CONTINUOUS
10
4.16132
20
-2.28914
11
4.16132
21
-2.28539
0
LINE
8
BLACK
6
CONTINUOUS
10
4.16132
20
-2.28539
11
4.1632
21
-2.28164
0
LINE
8
BLACK
6
CONTINUOUS
10
4.1632
20
-2.28164
11
4.16507
21
-2.27977
0
LINE
8
BLACK
6
CONTINUOUS
10
4.16507
20
-2.27977
11
4.16882
21
-2.27789
0
LINE
8
BLACK
6
CONTINUOUS
10
4.16882
20
-2.27789
11
4.17632
21
-2.27602
0
LINE
8
BLACK
6
CONTINUOUS
10
4.17632
20
-2.27602
11
4.1857
21
-2.27602
0
LINE
8
BLACK
6
CONTINUOUS
10
4.1857
20
-2.27602
11
4.19319
21
-2.27789
0
LINE
8
BLACK
6
CONTINUOUS
10
4.19319
20
-2.27789
11
4.19694
21
-2.27977
0
LINE
8
BLACK
6
CONTINUOUS
10
4.19694
20
-2.27977
11
4.19882
21
-2.28164
0
LINE
8
BLACK
6
CONTINUOUS
10
4.19882
20
-2.28164
11
4.20069
21
-2.28539
0
LINE
8
BLACK
6
CONTINUOUS
10
4.20069
20
-2.31164
11
4.20069
21
-2.33601
0
LINE
8
BLACK
6
CONTINUOUS
10
4.20069
20
-2.33601
11
4.1857
21
-2.32289
0
LINE
8
BLACK
6
CONTINUOUS
10
4.1857
20
-2.32289
11
4.1857
21
-2.32851
0
LINE
8
BLACK
6
CONTINUOUS
10
4.1857
20
-2.32851
11
4.18382
21
-2.33226
0
LINE
8
BLACK
6
CONTINUOUS
10
4.18382
20
-2.33226
11
4.18195
21
-2.33413
0
LINE
8
BLACK
6
CONTINUOUS
10
4.18195
20
-2.33413
11
4.1782
21
-2.33601
0
LINE
8
BLACK
6
CONTINUOUS
10
4.1782
20
-2.33601
11
4.16882
21
-2.33601
0
LINE
8
BLACK
6
CONTINUOUS
10
4.16882
20
-2.33601
11
4.16507
21
-2.33413
0
LINE
8
BLACK
6
CONTINUOUS
10
4.16507
20
-2.33413
11
4.1632
21
-2.33226
0
LINE
8
BLACK
6
CONTINUOUS
10
4.1632
20
-2.33226
11
4.16132
21
-2.32851
0
LINE
8
BLACK
6
CONTINUOUS
10
4.16132
20
-2.32851
11
4.16132
21
-2.31726
0
LINE
8
BLACK
6
CONTINUOUS
10
4.16132
20
-2.31726
11
4.1632
21
-2.31351
0
LINE
8
BLACK
6
CONTINUOUS
10
4.1632
20
-2.31351
11
4.16507
21
-2.31164
0
LINE
8
BLACK
6
CONTINUOUS
10
4.16507
20
-2.35288
11
4.1632
21
-2.35476
0
LINE
8
BLACK
6
CONTINUOUS
10
4.1632
20
-2.35476
11
4.16132
21
-2.35288
0
LINE
8
BLACK
6
CONTINUOUS
10
4.16132
20
-2.35288
11
4.1632
21
-2.35101
0
LINE
8
BLACK
6
CONTINUOUS
10
4.1632
20
-2.35101
11
4.16507
21
-2.35288
0
LINE
8
BLACK
6
CONTINUOUS
10
4.16507
20
-2.35288
11
4.16132
21
-2.35288
0
LINE
8
BLACK
6
CONTINUOUS
10
4.18382
20
-2.37725
11
4.1857
21
-2.3735
0
LINE
8
BLACK
6
CONTINUOUS
10
4.1857
20
-2.3735
11
4.18757
21
-2.37163
0
LINE
8
BLACK
6
CONTINUOUS
10
4.18757
20
-2.37163
11
4.19132
21
-2.36976
0
LINE
8
BLACK
6
CONTINUOUS
10
4.19132
20
-2.36976
11
4.19319
21
-2.36976
0
LINE
8
BLACK
6
CONTINUOUS
10
4.19319
20
-2.36976
11
4.19694
21
-2.37163
0
LINE
8
BLACK
6
CONTINUOUS
10
4.19694
20
-2.37163
11
4.19882
21
-2.3735
0
LINE
8
BLACK
6
CONTINUOUS
10
4.19882
20
-2.3735
11
4.20069
21
-2.37725
0
LINE
8
BLACK
6
CONTINUOUS
10
4.20069
20
-2.37725
11
4.20069
21
-2.38475
0
LINE
8
BLACK
6
CONTINUOUS
10
4.20069
20
-2.38475
11
4.19882
21
-2.3885
0
LINE
8
BLACK
6
CONTINUOUS
10
4.19882
20
-2.3885
11
4.19694
21
-2.39038
0
LINE
8
BLACK
6
CONTINUOUS
10
4.19694
20
-2.39038
11
4.19319
21
-2.39225
0
LINE
8
BLACK
6
CONTINUOUS
10
4.19319
20
-2.39225
11
4.19132
21
-2.39225
0
LINE
8
BLACK
6
CONTINUOUS
10
4.19132
20
-2.39225
11
4.18757
21
-2.39038
0
LINE
8
BLACK
6
CONTINUOUS
10
4.18757
20
-2.39038
11
4.1857
21
-2.3885
0
LINE
8
BLACK
6
CONTINUOUS
10
4.1857
20
-2.3885
11
4.18382
21
-2.38475
0
LINE
8
BLACK
6
CONTINUOUS
10
4.18382
20
-2.38475
11
4.18382
21
-2.37725
0
LINE
8
BLACK
6
CONTINUOUS
10
4.18382
20
-2.37725
11
4.18195
21
-2.3735
0
LINE
8
BLACK
6
CONTINUOUS
10
4.18195
20
-2.3735
11
4.18007
21
-2.37163
0
LINE
8
BLACK
6
CONTINUOUS
10
4.18007
20
-2.37163
11
4.17632
21
-2.36976
0
LINE
8
BLACK
6
CONTINUOUS
10
4.17632
20
-2.36976
11
4.16882
21
-2.36976
0
LINE
8
BLACK
6
CONTINUOUS
10
4.16882
20
-2.36976
11
4.16507
21
-2.37163
0
LINE
8
BLACK
6
CONTINUOUS
10
4.16507
20
-2.37163
11
4.1632
21
-2.3735
0
LINE
8
BLACK
6
CONTINUOUS
10
4.1632
20
-2.3735
11
4.16132
21
-2.37725
0
LINE
8
BLACK
6
CONTINUOUS
10
4.16132
20
-2.37725
11
4.16132
21
-2.38475
0
LINE
8
BLACK
6
CONTINUOUS
10
4.16132
20
-2.38475
11
4.1632
21
-2.3885
0
LINE
8
BLACK
6
CONTINUOUS
10
4.1632
20
-2.3885
11
4.16507
21
-2.39038
0
LINE
8
BLACK
6
CONTINUOUS
10
4.16507
20
-2.39038
11
4.16882
21
-2.39225
0
LINE
8
BLACK
6
CONTINUOUS
10
4.16882
20
-2.39225
11
4.17632
21
-2.39225
0
LINE
8
BLACK
6
CONTINUOUS
10
4.17632
20
-2.39225
11
4.18007
21
-2.39038
0
LINE
8
BLACK
6
CONTINUOUS
10
4.18007
20
-2.39038
11
4.18195
21
-2.3885
0
LINE
8
BLACK
6
CONTINUOUS
10
4.18195
20
-2.3885
11
4.18382
21
-2.38475
0
LINE
8
BLACK
6
CONTINUOUS
10
4.20069
20
-2.41662
11
4.20069
21
-2.42037
0
LINE
8
BLACK
6
CONTINUOUS
10
4.20069
20
-2.42037
11
4.19882
21
-2.42412
0
LINE
8
BLACK
6
CONTINUOUS
10
4.19882
20
-2.42412
11
4.19694
21
-2.426
0
LINE
8
BLACK
6
CONTINUOUS
10
4.19694
20
-2.426
11
4.19319
21
-2.42787
0
LINE
8
BLACK
6
CONTINUOUS
10
4.19319
20
-2.42787
11
4.1857
21
-2.42975
0
LINE
8
BLACK
6
CONTINUOUS
10
4.1857
20
-2.42975
11
4.17632
21
-2.42975
0
LINE
8
BLACK
6
CONTINUOUS
10
4.17632
20
-2.42975
11
4.16882
21
-2.42787
0
LINE
8
BLACK
6
CONTINUOUS
10
4.16882
20
-2.42787
11
4.16507
21
-2.426
0
LINE
8
BLACK
6
CONTINUOUS
10
4.16507
20
-2.426
11
4.1632
21
-2.42412
0
LINE
8
BLACK
6
CONTINUOUS
10
4.1632
20
-2.42412
11
4.16132
21
-2.42037
0
LINE
8
BLACK
6
CONTINUOUS
10
4.16132
20
-2.42037
11
4.16132
21
-2.41662
0
LINE
8
BLACK
6
CONTINUOUS
10
4.16132
20
-2.41662
11
4.1632
21
-2.41287
0
LINE
8
BLACK
6
CONTINUOUS
10
4.1632
20
-2.41287
11
4.16507
21
-2.411
0
LINE
8
BLACK
6
CONTINUOUS
10
4.16507
20
-2.411
11
4.16882
21
-2.40913
0
LINE
8
BLACK
6
CONTINUOUS
10
4.16882
20
-2.40913
11
4.17632
21
-2.40725
0
LINE
8
BLACK
6
CONTINUOUS
10
4.17632
20
-2.40725
11
4.1857
21
-2.40725
0
LINE
8
BLACK
6
CONTINUOUS
10
4.1857
20
-2.40725
11
4.19319
21
-2.40913
0
LINE
8
BLACK
6
CONTINUOUS
10
4.19319
20
-2.40913
11
4.19694
21
-2.411
0
LINE
8
BLACK
6
CONTINUOUS
10
4.19694
20
-2.411
11
4.19882
21
-2.41287
0
LINE
8
BLACK
6
CONTINUOUS
10
4.19882
20
-2.41287
11
4.20069
21
-2.41662
0
LINE
8
BLACK
6
CONTINUOUS
10
4.20069
20
-2.46537
11
4.20069
21
-2.44662
0
LINE
8
BLACK
6
CONTINUOUS
10
4.20069
20
-2.44662
11
4.18195
21
-2.44475
0
LINE
8
BLACK
6
CONTINUOUS
10
4.18195
20
-2.44475
11
4.18382
21
-2.44662
0
LINE
8
BLACK
6
CONTINUOUS
10
4.18382
20
-2.44662
11
4.1857
21
-2.45037
0
LINE
8
BLACK
6
CONTINUOUS
10
4.1857
20
-2.45037
11
4.1857
21
-2.45974
0
LINE
8
BLACK
6
CONTINUOUS
10
4.1857
20
-2.45974
11
4.18382
21
-2.46349
0
LINE
8
BLACK
6
CONTINUOUS
10
4.18382
20
-2.46349
11
4.18195
21
-2.46537
0
LINE
8
BLACK
6
CONTINUOUS
10
4.18195
20
-2.46537
11
4.1782
21
-2.46724
0
LINE
8
BLACK
6
CONTINUOUS
10
4.1782
20
-2.46724
11
4.16882
21
-2.46724
0
LINE
8
BLACK
6
CONTINUOUS
10
4.16882
20
-2.46724
11
4.16507
21
-2.46537
0
LINE
8
BLACK
6
CONTINUOUS
10
4.16507
20
-2.46537
11
4.1632
21
-2.46349
0
LINE
8
BLACK
6
CONTINUOUS
10
4.1632
20
-2.46349
11
4.16132
21
-2.45974
0
LINE
8
BLACK
6
CONTINUOUS
10
4.16132
20
-2.45974
11
4.16132
21
-2.45037
0
LINE
8
BLACK
6
CONTINUOUS
10
4.16132
20
-2.45037
11
4.1632
21
-2.44662
0
LINE
8
BLACK
6
CONTINUOUS
10
4.1632
20
-2.44662
11
4.16507
21
-2.44475
0
LINE
8
BLACK
6
CONTINUOUS
10
4.16132
20
-2.51411
11
4.18757
21
-2.51411
0
LINE
8
BLACK
6
CONTINUOUS
10
4.18382
20
-2.51411
11
4.1857
21
-2.51599
0
LINE
8
BLACK
6
CONTINUOUS
10
4.1857
20
-2.51599
11
4.18757
21
-2.51974
0
LINE
8
BLACK
6
CONTINUOUS
10
4.18757
20
-2.51974
11
4.18757
21
-2.52536
0
LINE
8
BLACK
6
CONTINUOUS
10
4.18757
20
-2.52536
11
4.1857
21
-2.52911
0
LINE
8
BLACK
6
CONTINUOUS
10
4.1857
20
-2.52911
11
4.18195
21
-2.53099
0
LINE
8
BLACK
6
CONTINUOUS
10
4.18195
20
-2.53099
11
4.16132
21
-2.53099
0
LINE
8
BLACK
6
CONTINUOUS
10
4.18195
20
-2.53099
11
4.1857
21
-2.53286
0
LINE
8
BLACK
6
CONTINUOUS
10
4.1857
20
-2.53286
11
4.18757
21
-2.53661
0
LINE
8
BLACK
6
CONTINUOUS
10
4.18757
20
-2.53661
11
4.18757
21
-2.54223
0
LINE
8
BLACK
6
CONTINUOUS
10
4.18757
20
-2.54223
11
4.1857
21
-2.54598
0
LINE
8
BLACK
6
CONTINUOUS
10
4.1857
20
-2.54598
11
4.18195
21
-2.54786
0
LINE
8
BLACK
6
CONTINUOUS
10
4.18195
20
-2.54786
11
4.16132
21
-2.54786
0
LINE
8
BLACK
6
CONTINUOUS
10
4.16132
20
-2.56661
11
4.18757
21
-2.56661
0
LINE
8
BLACK
6
CONTINUOUS
10
4.18382
20
-2.56661
11
4.1857
21
-2.56848
0
LINE
8
BLACK
6
CONTINUOUS
10
4.1857
20
-2.56848
11
4.18757
21
-2.57223
0
LINE
8
BLACK
6
CONTINUOUS
10
4.18757
20
-2.57223
11
4.18757
21
-2.57785
0
LINE
8
BLACK
6
CONTINUOUS
10
4.18757
20
-2.57785
11
4.1857
21
-2.5816
0
LINE
8
BLACK
6
CONTINUOUS
10
4.1857
20
-2.5816
11
4.18195
21
-2.58348
0
LINE
8
BLACK
6
CONTINUOUS
10
4.18195
20
-2.58348
11
4.16132
21
-2.58348
0
LINE
8
BLACK
6
CONTINUOUS
10
4.18195
20
-2.58348
11
4.1857
21
-2.58535
0
LINE
8
BLACK
6
CONTINUOUS
10
4.1857
20
-2.58535
11
4.18757
21
-2.5891
0
LINE
8
BLACK
6
CONTINUOUS
10
4.18757
20
-2.5891
11
4.18757
21
-2.59473
0
LINE
8
BLACK
6
CONTINUOUS
10
4.18757
20
-2.59473
11
4.1857
21
-2.59848
0
LINE
8
BLACK
6
CONTINUOUS
10
4.1857
20
-2.59848
11
4.18195
21
-2.60035
0
LINE
8
BLACK
6
CONTINUOUS
10
4.18195
20
-2.60035
11
4.16132
21
-2.60035
0
LINE
8
BLACK
6
CONTINUOUS
10
4.22638
20
-0.376969
11
4.22638
21
-4.46378
0
LINE
8
BLACK
6
CONTINUOUS
10
4.28406
20
-0.376969
11
4.20329
21
-0.376969
0
LINE
8
BLACK
6
CONTINUOUS
10
4.28406
20
-4.46378
11
4.20329
21
-4.46378
0
LINE
8
BLACK
6
CONTINUOUS
10
4.22638
20
-4.46378
11
4.20329
21
-4.41943
0
LINE
8
BLACK
6
CONTINUOUS
10
4.22638
20
-4.46378
11
4.24947
21
-4.41943
0
LINE
8
BLACK
6
CONTINUOUS
10
4.22638
20
-0.376969
11
4.20329
21
-0.421319
0
LINE
8
BLACK
6
CONTINUOUS
10
4.22638
20
-0.376969
11
4.24947
21
-0.421319
0
LINE
8
BLACK
6
CONTINUOUS
10
4.6087
20
-0.264661
11
4.58621
21
-0.264661
0
LINE
8
BLACK
6
CONTINUOUS
10
4.59746
20
-0.264661
11
4.59746
21
-0.225291
0
LINE
8
BLACK
6
CONTINUOUS
10
4.59746
20
-0.225291
11
4.59371
21
-0.230915
0
LINE
8
BLACK
6
CONTINUOUS
10
4.59371
20
-0.230915
11
4.58996
21
-0.234664
0
LINE
8
BLACK
6
CONTINUOUS
10
4.58996
20
-0.234664
11
4.58621
21
-0.236539
0
LINE
8
BLACK
6
CONTINUOUS
10
4.6312
20
-0.242163
11
4.62745
21
-0.240289
0
LINE
8
BLACK
6
CONTINUOUS
10
4.62745
20
-0.240289
11
4.62558
21
-0.238414
0
LINE
8
BLACK
6
CONTINUOUS
10
4.62558
20
-0.238414
11
4.6237
21
-0.234664
0
LINE
8
BLACK
6
CONTINUOUS
10
4.6237
20
-0.234664
11
4.6237
21
-0.23279
0
LINE
8
BLACK
6
CONTINUOUS
10
4.6237
20
-0.23279
11
4.62558
21
-0.22904
0
LINE
8
BLACK
6
CONTINUOUS
10
4.62558
20
-0.22904
11
4.62745
21
-0.227165
0
LINE
8
BLACK
6
CONTINUOUS
10
4.62745
20
-0.227165
11
4.6312
21
-0.225291
0
LINE
8
BLACK
6
CONTINUOUS
10
4.6312
20
-0.225291
11
4.6387
21
-0.225291
0
LINE
8
BLACK
6
CONTINUOUS
10
4.6387
20
-0.225291
11
4.64245
21
-0.227165
0
LINE
8
BLACK
6
CONTINUOUS
10
4.64245
20
-0.227165
11
4.64432
21
-0.22904
0
LINE
8
BLACK
6
CONTINUOUS
10
4.64432
20
-0.22904
11
4.6462
21
-0.23279
0
LINE
8
BLACK
6
CONTINUOUS
10
4.6462
20
-0.23279
11
4.6462
21
-0.234664
0
LINE
8
BLACK
6
CONTINUOUS
10
4.6462
20
-0.234664
11
4.64432
21
-0.238414
0
LINE
8
BLACK
6
CONTINUOUS
10
4.64432
20
-0.238414
11
4.64245
21
-0.240289
0
LINE
8
BLACK
6
CONTINUOUS
10
4.64245
20
-0.240289
11
4.6387
21
-0.242163
0
LINE
8
BLACK
6
CONTINUOUS
10
4.6387
20
-0.242163
11
4.6312
21
-0.242163
0
LINE
8
BLACK
6
CONTINUOUS
10
4.6312
20
-0.242163
11
4.62745
21
-0.244038
0
LINE
8
BLACK
6
CONTINUOUS
10
4.62745
20
-0.244038
11
4.62558
21
-0.245913
0
LINE
8
BLACK
6
CONTINUOUS
10
4.62558
20
-0.245913
11
4.6237
21
-0.249663
0
LINE
8
BLACK
6
CONTINUOUS
10
4.6237
20
-0.249663
11
4.6237
21
-0.257162
0
LINE
8
BLACK
6
CONTINUOUS
10
4.6237
20
-0.257162
11
4.62558
21
-0.260911
0
LINE
8
BLACK
6
CONTINUOUS
10
4.62558
20
-0.260911
11
4.62745
21
-0.262786
0
LINE
8
BLACK
6
CONTINUOUS
10
4.62745
20
-0.262786
11
4.6312
21
-0.264661
0
LINE
8
BLACK
6
CONTINUOUS
10
4.6312
20
-0.264661
11
4.6387
21
-0.264661
0
LINE
8
BLACK
6
CONTINUOUS
10
4.6387
20
-0.264661
11
4.64245
21
-0.262786
0
LINE
8
BLACK
6
CONTINUOUS
10
4.64245
20
-0.262786
11
4.64432
21
-0.260911
0
LINE
8
BLACK
6
CONTINUOUS
10
4.64432
20
-0.260911
11
4.6462
21
-0.257162
0
LINE
8
BLACK
6
CONTINUOUS
10
4.6462
20
-0.257162
11
4.6462
21
-0.249663
0
LINE
8
BLACK
6
CONTINUOUS
10
4.6462
20
-0.249663
11
4.64432
21
-0.245913
0
LINE
8
BLACK
6
CONTINUOUS
10
4.64432
20
-0.245913
11
4.64245
21
-0.244038
0
LINE
8
BLACK
6
CONTINUOUS
10
4.64245
20
-0.244038
11
4.6387
21
-0.242163
0
LINE
8
BLACK
6
CONTINUOUS
10
4.66307
20
-0.260911
11
4.66495
21
-0.262786
0
LINE
8
BLACK
6
CONTINUOUS
10
4.66495
20
-0.262786
11
4.66307
21
-0.264661
0
LINE
8
BLACK
6
CONTINUOUS
10
4.66307
20
-0.264661
11
4.6612
21
-0.262786
0
LINE
8
BLACK
6
CONTINUOUS
10
4.6612
20
-0.262786
11
4.66307
21
-0.260911
0
LINE
8
BLACK
6
CONTINUOUS
10
4.66307
20
-0.260911
11
4.66307
21
-0.264661
0
LINE
8
BLACK
6
CONTINUOUS
10
4.67807
20
-0.225291
11
4.70432
21
-0.225291
0
LINE
8
BLACK
6
CONTINUOUS
10
4.70432
20
-0.225291
11
4.68744
21
-0.264661
0
LINE
8
BLACK
6
CONTINUOUS
10
4.73619
20
-0.238414
11
4.73619
21
-0.264661
0
LINE
8
BLACK
6
CONTINUOUS
10
4.72681
20
-0.223416
11
4.71744
21
-0.251537
0
LINE
8
BLACK
6
CONTINUOUS
10
4.71744
20
-0.251537
11
4.74181
21
-0.251537
0
LINE
8
BLACK
6
CONTINUOUS
10
4.77556
20
-0.225291
11
4.75681
21
-0.225291
0
LINE
8
BLACK
6
CONTINUOUS
10
4.75681
20
-0.225291
11
4.75494
21
-0.244038
0
LINE
8
BLACK
6
CONTINUOUS
10
4.75494
20
-0.244038
11
4.75681
21
-0.242163
0
LINE
8
BLACK
6
CONTINUOUS
10
4.75681
20
-0.242163
11
4.76056
21
-0.240289
0
LINE
8
BLACK
6
CONTINUOUS
10
4.76056
20
-0.240289
11
4.76993
21
-0.240289
0
LINE
8
BLACK
6
CONTINUOUS
10
4.76993
20
-0.240289
11
4.77368
21
-0.242163
0
LINE
8
BLACK
6
CONTINUOUS
10
4.77368
20
-0.242163
11
4.77556
21
-0.244038
0
LINE
8
BLACK
6
CONTINUOUS
10
4.77556
20
-0.244038
11
4.77743
21
-0.247788
0
LINE
8
BLACK
6
CONTINUOUS
10
4.77743
20
-0.247788
11
4.77743
21
-0.257162
0
LINE
8
BLACK
6
CONTINUOUS
10
4.77743
20
-0.257162
11
4.77556
21
-0.260911
0
LINE
8
BLACK
6
CONTINUOUS
10
4.77556
20
-0.260911
11
4.77368
21
-0.262786
0
LINE
8
BLACK
6
CONTINUOUS
10
4.77368
20
-0.262786
11
4.76993
21
-0.264661
0
LINE
8
BLACK
6
CONTINUOUS
10
4.76993
20
-0.264661
11
4.76056
21
-0.264661
0
LINE
8
BLACK
6
CONTINUOUS
10
4.76056
20
-0.264661
11
4.75681
21
-0.262786
0
LINE
8
BLACK
6
CONTINUOUS
10
4.75681
20
-0.262786
11
4.75494
21
-0.260911
0
LINE
8
BLACK
6
CONTINUOUS
10
4.8243
20
-0.264661
11
4.8243
21
-0.238414
0
LINE
8
BLACK
6
CONTINUOUS
10
4.8243
20
-0.242163
11
4.82618
21
-0.240289
0
LINE
8
BLACK
6
CONTINUOUS
10
4.82618
20
-0.240289
11
4.82993
21
-0.238414
0
LINE
8
BLACK
6
CONTINUOUS
10
4.82993
20
-0.238414
11
4.83555
21
-0.238414
0
LINE
8
BLACK
6
CONTINUOUS
10
4.83555
20
-0.238414
11
4.8393
21
-0.240289
0
LINE
8
BLACK
6
CONTINUOUS
10
4.8393
20
-0.240289
11
4.84117
21
-0.244038
0
LINE
8
BLACK
6
CONTINUOUS
10
4.84117
20
-0.244038
11
4.84117
21
-0.264661
0
LINE
8
BLACK
6
CONTINUOUS
10
4.84117
20
-0.244038
11
4.84305
21
-0.240289
0
LINE
8
BLACK
6
CONTINUOUS
10
4.84305
20
-0.240289
11
4.8468
21
-0.238414
0
LINE
8
BLACK
6
CONTINUOUS
10
4.8468
20
-0.238414
11
4.85242
21
-0.238414
0
LINE
8
BLACK
6
CONTINUOUS
10
4.85242
20
-0.238414
11
4.85617
21
-0.240289
0
LINE
8
BLACK
6
CONTINUOUS
10
4.85617
20
-0.240289
11
4.85805
21
-0.244038
0
LINE
8
BLACK
6
CONTINUOUS
10
4.85805
20
-0.244038
11
4.85805
21
-0.264661
0
LINE
8
BLACK
6
CONTINUOUS
10
4.8768
20
-0.264661
11
4.8768
21
-0.238414
0
LINE
8
BLACK
6
CONTINUOUS
10
4.8768
20
-0.242163
11
4.87867
21
-0.240289
0
LINE
8
BLACK
6
CONTINUOUS
10
4.87867
20
-0.240289
11
4.88242
21
-0.238414
0
LINE
8
BLACK
6
CONTINUOUS
10
4.88242
20
-0.238414
11
4.88804
21
-0.238414
0
LINE
8
BLACK
6
CONTINUOUS
10
4.88804
20
-0.238414
11
4.89179
21
-0.240289
0
LINE
8
BLACK
6
CONTINUOUS
10
4.89179
20
-0.240289
11
4.89367
21
-0.244038
0
LINE
8
BLACK
6
CONTINUOUS
10
4.89367
20
-0.244038
11
4.89367
21
-0.264661
0
LINE
8
BLACK
6
CONTINUOUS
10
4.89367
20
-0.244038
11
4.89554
21
-0.240289
0
LINE
8
BLACK
6
CONTINUOUS
10
4.89554
20
-0.240289
11
4.89929
21
-0.238414
0
LINE
8
BLACK
6
CONTINUOUS
10
4.89929
20
-0.238414
11
4.90492
21
-0.238414
0
LINE
8
BLACK
6
CONTINUOUS
10
4.90492
20
-0.238414
11
4.90867
21
-0.240289
0
LINE
8
BLACK
6
CONTINUOUS
10
4.90867
20
-0.240289
11
4.91054
21
-0.244038
0
LINE
8
BLACK
6
CONTINUOUS
10
4.91054
20
-0.244038
11
4.91054
21
-0.264661
0
LINE
8
BLACK
6
CONTINUOUS
10
4.38031
20
-0.294094
11
5.11831
21
-0.294094
0
LINE
8
BLACK
6
CONTINUOUS
10
4.38031
20
-0.317717
11
4.38031
21
-0.271007
0
LINE
8
BLACK
6
CONTINUOUS
10
5.11831
20
-0.317717
11
5.11831
21
-0.271007
0
LINE
8
BLACK
6
CONTINUOUS
10
5.11831
20
-0.294094
11
5.07396
21
-0.317182
0
LINE
8
BLACK
6
CONTINUOUS
10
5.11831
20
-0.294094
11
5.07396
21
-0.271007
0
LINE
8
BLACK
6
CONTINUOUS
10
4.38031
20
-0.294094
11
4.42467
21
-0.317182
0
LINE
8
BLACK
6
CONTINUOUS
10
4.38031
20
-0.294094
11
4.42467
21
-0.271007
0
LINE
8
BLACK
6
CONTINUOUS
10
4.20639
20
-4.25891
11
4.20639
21
-4.28141
0
LINE
8
BLACK
6
CONTINUOUS
10
4.20639
20
-4.27016
11
4.16702
21
-4.27016
0
LINE
8
BLACK
6
CONTINUOUS
10
4.16702
20
-4.27016
11
4.17265
21
-4.27391
0
LINE
8
BLACK
6
CONTINUOUS
10
4.17265
20
-4.27391
11
4.1764
21
-4.27766
0
LINE
8
BLACK
6
CONTINUOUS
10
4.1764
20
-4.27766
11
4.17827
21
-4.28141
0
LINE
8
BLACK
6
CONTINUOUS
10
4.16702
20
-4.24579
11
4.16702
21
-4.21954
0
LINE
8
BLACK
6
CONTINUOUS
10
4.16702
20
-4.21954
11
4.20639
21
-4.23642
0
LINE
8
BLACK
6
CONTINUOUS
10
4.20264
20
-4.20455
11
4.20452
21
-4.20267
0
LINE
8
BLACK
6
CONTINUOUS
10
4.20452
20
-4.20267
11
4.20639
21
-4.20455
0
LINE
8
BLACK
6
CONTINUOUS
10
4.20639
20
-4.20455
11
4.20452
21
-4.20642
0
LINE
8
BLACK
6
CONTINUOUS
10
4.20452
20
-4.20642
11
4.20264
21
-4.20455
0
LINE
8
BLACK
6
CONTINUOUS
10
4.20264
20
-4.20455
11
4.20639
21
-4.20455
0
LINE
8
BLACK
6
CONTINUOUS
10
4.16702
20
-4.16705
11
4.16702
21
-4.1858
0
LINE
8
BLACK
6
CONTINUOUS
10
4.16702
20
-4.1858
11
4.18577
21
-4.18767
0
LINE
8
BLACK
6
CONTINUOUS
10
4.18577
20
-4.18767
11
4.1839
21
-4.1858
0
LINE
8
BLACK
6
CONTINUOUS
10
4.1839
20
-4.1858
11
4.18202
21
-4.18205
0
LINE
8
BLACK
6
CONTINUOUS
10
4.18202
20
-4.18205
11
4.18202
21
-4.17268
0
LINE
8
BLACK
6
CONTINUOUS
10
4.18202
20
-4.17268
11
4.1839
21
-4.16893
0
LINE
8
BLACK
6
CONTINUOUS
10
4.1839
20
-4.16893
11
4.18577
21
-4.16705
0
LINE
8
BLACK
6
CONTINUOUS
10
4.18577
20
-4.16705
11
4.18952
21
-4.16518
0
LINE
8
BLACK
6
CONTINUOUS
10
4.18952
20
-4.16518
11
4.19889
21
-4.16518
0
LINE
8
BLACK
6
CONTINUOUS
10
4.19889
20
-4.16518
11
4.20264
21
-4.16705
0
LINE
8
BLACK
6
CONTINUOUS
10
4.20264
20
-4.16705
11
4.20452
21
-4.16893
0
LINE
8
BLACK
6
CONTINUOUS
10
4.20452
20
-4.16893
11
4.20639
21
-4.17268
0
LINE
8
BLACK
6
CONTINUOUS
10
4.20639
20
-4.17268
11
4.20639
21
-4.18205
0
LINE
8
BLACK
6
CONTINUOUS
10
4.20639
20
-4.18205
11
4.20452
21
-4.1858
0
LINE
8
BLACK
6
CONTINUOUS
10
4.20452
20
-4.1858
11
4.20264
21
-4.18767
0
LINE
8
BLACK
6
CONTINUOUS
10
4.16702
20
-4.12956
11
4.16702
21
-4.1483
0
LINE
8
BLACK
6
CONTINUOUS
10
4.16702
20
-4.1483
11
4.18577
21
-4.15018
0
LINE
8
BLACK
6
CONTINUOUS
10
4.18577
20
-4.15018
11
4.1839
21
-4.1483
0
LINE
8
BLACK
6
CONTINUOUS
10
4.1839
20
-4.1483
11
4.18202
21
-4.14455
0
LINE
8
BLACK
6
CONTINUOUS
10
4.18202
20
-4.14455
11
4.18202
21
-4.13518
0
LINE
8
BLACK
6
CONTINUOUS
10
4.18202
20
-4.13518
11
4.1839
21
-4.13143
0
LINE
8
BLACK
6
CONTINUOUS
10
4.1839
20
-4.13143
11
4.18577
21
-4.12956
0
LINE
8
BLACK
6
CONTINUOUS
10
4.18577
20
-4.12956
11
4.18952
21
-4.12768
0
LINE
8
BLACK
6
CONTINUOUS
10
4.18952
20
-4.12768
11
4.19889
21
-4.12768
0
LINE
8
BLACK
6
CONTINUOUS
10
4.19889
20
-4.12768
11
4.20264
21
-4.12956
0
LINE
8
BLACK
6
CONTINUOUS
10
4.20264
20
-4.12956
11
4.20452
21
-4.13143
0
LINE
8
BLACK
6
CONTINUOUS
10
4.20452
20
-4.13143
11
4.20639
21
-4.13518
0
LINE
8
BLACK
6
CONTINUOUS
10
4.20639
20
-4.13518
11
4.20639
21
-4.14455
0
LINE
8
BLACK
6
CONTINUOUS
10
4.20639
20
-4.14455
11
4.20452
21
-4.1483
0
LINE
8
BLACK
6
CONTINUOUS
10
4.20452
20
-4.1483
11
4.20264
21
-4.15018
0
LINE
8
BLACK
6
CONTINUOUS
10
4.16702
20
-4.10331
11
4.16702
21
-4.09956
0
LINE
8
BLACK
6
CONTINUOUS
10
4.16702
20
-4.09956
11
4.1689
21
-4.09581
0
LINE
8
BLACK
6
CONTINUOUS
10
4.1689
20
-4.09581
11
4.17077
21
-4.09394
0
LINE
8
BLACK
6
CONTINUOUS
10
4.17077
20
-4.09394
11
4.17452
21
-4.09206
0
LINE
8
BLACK
6
CONTINUOUS
10
4.17452
20
-4.09206
11
4.18202
21
-4.09019
0
LINE
8
BLACK
6
CONTINUOUS
10
4.18202
20
-4.09019
11
4.19139
21
-4.09019
0
LINE
8
BLACK
6
CONTINUOUS
10
4.19139
20
-4.09019
11
4.19889
21
-4.09206
0
LINE
8
BLACK
6
CONTINUOUS
10
4.19889
20
-4.09206
11
4.20264
21
-4.09394
0
LINE
8
BLACK
6
CONTINUOUS
10
4.20264
20
-4.09394
11
4.20452
21
-4.09581
0
LINE
8
BLACK
6
CONTINUOUS
10
4.20452
20
-4.09581
11
4.20639
21
-4.09956
0
LINE
8
BLACK
6
CONTINUOUS
10
4.20639
20
-4.09956
11
4.20639
21
-4.10331
0
LINE
8
BLACK
6
CONTINUOUS
10
4.20639
20
-4.10331
11
4.20452
21
-4.10706
0
LINE
8
BLACK
6
CONTINUOUS
10
4.20452
20
-4.10706
11
4.20264
21
-4.10893
0
LINE
8
BLACK
6
CONTINUOUS
10
4.20264
20
-4.10893
11
4.19889
21
-4.11081
0
LINE
8
BLACK
6
CONTINUOUS
10
4.19889
20
-4.11081
11
4.19139
21
-4.11268
0
LINE
8
BLACK
6
CONTINUOUS
10
4.19139
20
-4.11268
11
4.18202
21
-4.11268
0
LINE
8
BLACK
6
CONTINUOUS
10
4.18202
20
-4.11268
11
4.17452
21
-4.11081
0
LINE
8
BLACK
6
CONTINUOUS
10
4.17452
20
-4.11081
11
4.17077
21
-4.10893
0
LINE
8
BLACK
6
CONTINUOUS
10
4.17077
20
-4.10893
11
4.1689
21
-4.10706
0
LINE
8
BLACK
6
CONTINUOUS
10
4.1689
20
-4.10706
11
4.16702
21
-4.10331
0
LINE
8
BLACK
6
CONTINUOUS
10
4.20639
20
-4.04332
11
4.18015
21
-4.04332
0
LINE
8
BLACK
6
CONTINUOUS
10
4.1839
20
-4.04332
11
4.18202
21
-4.04144
0
LINE
8
BLACK
6
CONTINUOUS
10
4.18202
20
-4.04144
11
4.18015
21
-4.03769
0
LINE
8
BLACK
6
CONTINUOUS
10
4.18015
20
-4.03769
11
4.18015
21
-4.03207
0
LINE
8
BLACK
6
CONTINUOUS
10
4.18015
20
-4.03207
11
4.18202
21
-4.02832
0
LINE
8
BLACK
6
CONTINUOUS
10
4.18202
20
-4.02832
11
4.18577
21
-4.02644
0
LINE
8
BLACK
6
CONTINUOUS
10
4.18577
20
-4.02644
11
4.20639
21
-4.02644
0
LINE
8
BLACK
6
CONTINUOUS
10
4.18577
20
-4.02644
11
4.18202
21
-4.02457
0
LINE
8
BLACK
6
CONTINUOUS
10
4.18202
20
-4.02457
11
4.18015
21
-4.02082
0
LINE
8
BLACK
6
CONTINUOUS
10
4.18015
20
-4.02082
11
4.18015
21
-4.01519
0
LINE
8
BLACK
6
CONTINUOUS
10
4.18015
20
-4.01519
11
4.18202
21
-4.01145
0
LINE
8
BLACK
6
CONTINUOUS
10
4.18202
20
-4.01145
11
4.18577
21
-4.00957
0
LINE
8
BLACK
6
CONTINUOUS
10
4.18577
20
-4.00957
11
4.20639
21
-4.00957
0
LINE
8
BLACK
6
CONTINUOUS
10
4.20639
20
-3.99082
11
4.18015
21
-3.99082
0
LINE
8
BLACK
6
CONTINUOUS
10
4.1839
20
-3.99082
11
4.18202
21
-3.98895
0
LINE
8
BLACK
6
CONTINUOUS
10
4.18202
20
-3.98895
11
4.18015
21
-3.9852
0
LINE
8
BLACK
6
CONTINUOUS
10
4.18015
20
-3.9852
11
4.18015
21
-3.97957
0
LINE
8
BLACK
6
CONTINUOUS
10
4.18015
20
-3.97957
11
4.18202
21
-3.97582
0
LINE
8
BLACK
6
CONTINUOUS
10
4.18202
20
-3.97582
11
4.18577
21
-3.97395
0
LINE
8
BLACK
6
CONTINUOUS
10
4.18577
20
-3.97395
11
4.20639
21
-3.97395
0
LINE
8
BLACK
6
CONTINUOUS
10
4.18577
20
-3.97395
11
4.18202
21
-3.97208
0
LINE
8
BLACK
6
CONTINUOUS
10
4.18202
20
-3.97208
11
4.18015
21
-3.96833
0
LINE
8
BLACK
6
CONTINUOUS
10
4.18015
20
-3.96833
11
4.18015
21
-3.9627
0
LINE
8
BLACK
6
CONTINUOUS
10
4.18015
20
-3.9627
11
4.18202
21
-3.95895
0
LINE
8
BLACK
6
CONTINUOUS
10
4.18202
20
-3.95895
11
4.18577
21
-3.95708
0
LINE
8
BLACK
6
CONTINUOUS
10
4.18577
20
-3.95708
11
4.20639
21
-3.95708
0
LINE
8
BLACK
6
CONTINUOUS
10
4.14134
20
-4.46378
11
4.14134
21
-3.77283
0
LINE
8
BLACK
6
CONTINUOUS
10
4.10138
20
-4.46378
11
4.16443
21
-4.46378
0
LINE
8
BLACK
6
CONTINUOUS
10
4.10138
20
-3.77283
11
4.16443
21
-3.77283
0
LINE
8
BLACK
6
CONTINUOUS
10
4.14134
20
-3.77283
11
4.16443
21
-3.81719
0
LINE
8
BLACK
6
CONTINUOUS
10
4.14134
20
-3.77283
11
4.11825
21
-3.81719
0
LINE
8
BLACK
6
CONTINUOUS
10
4.14134
20
-4.46378
11
4.16443
21
-4.41943
0
LINE
8
BLACK
6
CONTINUOUS
10
4.14134
20
-4.46378
11
4.11825
21
-4.41943
0
LINE
8
BLACK
6
CONTINUOUS
10
4.0251
20
-1.6485
11
4.0251
21
-1.67475
0
LINE
8
BLACK
6
CONTINUOUS
10
4.0251
20
-1.67475
11
3.98573
21
-1.65788
0
LINE
8
BLACK
6
CONTINUOUS
10
4.02135
20
-1.68787
11
4.02323
21
-1.68975
0
LINE
8
BLACK
6
CONTINUOUS
10
4.02323
20
-1.68975
11
4.0251
21
-1.6935
0
LINE
8
BLACK
6
CONTINUOUS
10
4.0251
20
-1.6935
11
4.0251
21
-1.70287
0
LINE
8
BLACK
6
CONTINUOUS
10
4.0251
20
-1.70287
11
4.02323
21
-1.70662
0
LINE
8
BLACK
6
CONTINUOUS
10
4.02323
20
-1.70662
11
4.02135
21
-1.7085
0
LINE
8
BLACK
6
CONTINUOUS
10
4.02135
20
-1.7085
11
4.0176
21
-1.71037
0
LINE
8
BLACK
6
CONTINUOUS
10
4.0176
20
-1.71037
11
4.01385
21
-1.71037
0
LINE
8
BLACK
6
CONTINUOUS
10
4.01385
20
-1.71037
11
4.00823
21
-1.7085
0
LINE
8
BLACK
6
CONTINUOUS
10
4.00823
20
-1.7085
11
3.98573
21
-1.686
0
LINE
8
BLACK
6
CONTINUOUS
10
3.98573
20
-1.686
11
3.98573
21
-1.71037
0
LINE
8
BLACK
6
CONTINUOUS
10
3.98948
20
-1.72724
11
3.98761
21
-1.72912
0
LINE
8
BLACK
6
CONTINUOUS
10
3.98761
20
-1.72912
11
3.98573
21
-1.72724
0
LINE
8
BLACK
6
CONTINUOUS
10
3.98573
20
-1.72724
11
3.98761
21
-1.72537
0
LINE
8
BLACK
6
CONTINUOUS
10
3.98761
20
-1.72537
11
3.98948
21
-1.72724
0
LINE
8
BLACK
6
CONTINUOUS
10
3.98948
20
-1.72724
11
3.98573
21
-1.72724
0
LINE
8
BLACK
6
CONTINUOUS
10
3.98573
20
-1.74787
11
3.98573
21
-1.75537
0
LINE
8
BLACK
6
CONTINUOUS
10
3.98573
20
-1.75537
11
3.98761
21
-1.75912
0
LINE
8
BLACK
6
CONTINUOUS
10
3.98761
20
-1.75912
11
3.98948
21
-1.76099
0
LINE
8
BLACK
6
CONTINUOUS
10
3.98948
20
-1.76099
11
3.99511
21
-1.76474
0
LINE
8
BLACK
6
CONTINUOUS
10
3.99511
20
-1.76474
11
4.00261
21
-1.76662
0
LINE
8
BLACK
6
CONTINUOUS
10
4.00261
20
-1.76662
11
4.0176
21
-1.76662
0
LINE
8
BLACK
6
CONTINUOUS
10
4.0176
20
-1.76662
11
4.02135
21
-1.76474
0
LINE
8
BLACK
6
CONTINUOUS
10
4.02135
20
-1.76474
11
4.02323
21
-1.76287
0
LINE
8
BLACK
6
CONTINUOUS
10
4.02323
20
-1.76287
11
4.0251
21
-1.75912
0
LINE
8
BLACK
6
CONTINUOUS
10
4.0251
20
-1.75912
11
4.0251
21
-1.75162
0
LINE
8
BLACK
6
CONTINUOUS
10
4.0251
20
-1.75162
11
4.02323
21
-1.74787
0
LINE
8
BLACK
6
CONTINUOUS
10
4.02323
20
-1.74787
11
4.02135
21
-1.74599
0
LINE
8
BLACK
6
CONTINUOUS
10
4.02135
20
-1.74599
11
4.0176
21
-1.74412
0
LINE
8
BLACK
6
CONTINUOUS
10
4.0176
20
-1.74412
11
4.00823
21
-1.74412
0
LINE
8
BLACK
6
CONTINUOUS
10
4.00823
20
-1.74412
11
4.00448
21
-1.74599
0
LINE
8
BLACK
6
CONTINUOUS
10
4.00448
20
-1.74599
11
4.00261
21
-1.74787
0
LINE
8
BLACK
6
CONTINUOUS
10
4.00261
20
-1.74787
11
4.00073
21
-1.75162
0
LINE
8
BLACK
6
CONTINUOUS
10
4.00073
20
-1.75162
11
4.00073
21
-1.75912
0
LINE
8
BLACK
6
CONTINUOUS
10
4.00073
20
-1.75912
11
4.00261
21
-1.76287
0
LINE
8
BLACK
6
CONTINUOUS
10
4.00261
20
-1.76287
11
4.00448
21
-1.76474
0
LINE
8
BLACK
6
CONTINUOUS
10
4.00448
20
-1.76474
11
4.00823
21
-1.76662
0
LINE
8
BLACK
6
CONTINUOUS
10
4.0251
20
-1.77974
11
4.0251
21
-1.80599
0
LINE
8
BLACK
6
CONTINUOUS
10
4.0251
20
-1.80599
11
3.98573
21
-1.78911
0
LINE
8
BLACK
6
CONTINUOUS
10
4.0251
20
-1.83973
11
4.0251
21
-1.82098
0
LINE
8
BLACK
6
CONTINUOUS
10
4.0251
20
-1.82098
11
4.00636
21
-1.81911
0
LINE
8
BLACK
6
CONTINUOUS
10
4.00636
20
-1.81911
11
4.00823
21
-1.82098
0
LINE
8
BLACK
6
CONTINUOUS
10
4.00823
20
-1.82098
11
4.0101
21
-1.82473
0
LINE
8
BLACK
6
CONTINUOUS
10
4.0101
20
-1.82473
11
4.0101
21
-1.83411
0
LINE
8
BLACK
6
CONTINUOUS
10
4.0101
20
-1.83411
11
4.00823
21
-1.83786
0
LINE
8
BLACK
6
CONTINUOUS
10
4.00823
20
-1.83786
11
4.00636
21
-1.83973
0
LINE
8
BLACK
6
CONTINUOUS
10
4.00636
20
-1.83973
11
4.00261
21
-1.84161
0
LINE
8
BLACK
6
CONTINUOUS
10
4.00261
20
-1.84161
11
3.99323
21
-1.84161
0
LINE
8
BLACK
6
CONTINUOUS
10
3.99323
20
-1.84161
11
3.98948
21
-1.83973
0
LINE
8
BLACK
6
CONTINUOUS
10
3.98948
20
-1.83973
11
3.98761
21
-1.83786
0
LINE
8
BLACK
6
CONTINUOUS
10
3.98761
20
-1.83786
11
3.98573
21
-1.83411
0
LINE
8
BLACK
6
CONTINUOUS
10
3.98573
20
-1.83411
11
3.98573
21
-1.82473
0
LINE
8
BLACK
6
CONTINUOUS
10
3.98573
20
-1.82473
11
3.98761
21
-1.82098
0
LINE
8
BLACK
6
CONTINUOUS
10
3.98761
20
-1.82098
11
3.98948
21
-1.81911
0
LINE
8
BLACK
6
CONTINUOUS
10
3.98573
20
-1.88847
11
4.01198
21
-1.88847
0
LINE
8
BLACK
6
CONTINUOUS
10
4.00823
20
-1.88847
11
4.0101
21
-1.89035
0
LINE
8
BLACK
6
CONTINUOUS
10
4.0101
20
-1.89035
11
4.01198
21
-1.8941
0
LINE
8
BLACK
6
CONTINUOUS
10
4.01198
20
-1.8941
11
4.01198
21
-1.89972
0
LINE
8
BLACK
6
CONTINUOUS
10
4.01198
20
-1.89972
11
4.0101
21
-1.90347
0
LINE
8
BLACK
6
CONTINUOUS
10
4.0101
20
-1.90347
11
4.00636
21
-1.90535
0
LINE
8
BLACK
6
CONTINUOUS
10
4.00636
20
-1.90535
11
3.98573
21
-1.90535
0
LINE
8
BLACK
6
CONTINUOUS
10
4.00636
20
-1.90535
11
4.0101
21
-1.90722
0
LINE
8
BLACK
6
CONTINUOUS
10
4.0101
20
-1.90722
11
4.01198
21
-1.91097
0
LINE
8
BLACK
6
CONTINUOUS
10
4.01198
20
-1.91097
11
4.01198
21
-1.9166
0
LINE
8
BLACK
6
CONTINUOUS
10
4.01198
20
-1.9166
11
4.0101
21
-1.92035
0
LINE
8
BLACK
6
CONTINUOUS
10
4.0101
20
-1.92035
11
4.00636
21
-1.92222
0
LINE
8
BLACK
6
CONTINUOUS
10
4.00636
20
-1.92222
11
3.98573
21
-1.92222
0
LINE
8
BLACK
6
CONTINUOUS
10
3.98573
20
-1.94097
11
4.01198
21
-1.94097
0
LINE
8
BLACK
6
CONTINUOUS
10
4.00823
20
-1.94097
11
4.0101
21
-1.94284
0
LINE
8
BLACK
6
CONTINUOUS
10
4.0101
20
-1.94284
11
4.01198
21
-1.94659
0
LINE
8
BLACK
6
CONTINUOUS
10
4.01198
20
-1.94659
11
4.01198
21
-1.95222
0
LINE
8
BLACK
6
CONTINUOUS
10
4.01198
20
-1.95222
11
4.0101
21
-1.95597
0
LINE
8
BLACK
6
CONTINUOUS
10
4.0101
20
-1.95597
11
4.00636
21
-1.95784
0
LINE
8
BLACK
6
CONTINUOUS
10
4.00636
20
-1.95784
11
3.98573
21
-1.95784
0
LINE
8
BLACK
6
CONTINUOUS
10
4.00636
20
-1.95784
11
4.0101
21
-1.95972
0
LINE
8
BLACK
6
CONTINUOUS
10
4.0101
20
-1.95972
11
4.01198
21
-1.96347
0
LINE
8
BLACK
6
CONTINUOUS
10
4.01198
20
-1.96347
11
4.01198
21
-1.96909
0
LINE
8
BLACK
6
CONTINUOUS
10
4.01198
20
-1.96909
11
4.0101
21
-1.97284
0
LINE
8
BLACK
6
CONTINUOUS
10
4.0101
20
-1.97284
11
4.00636
21
-1.97471
0
LINE
8
BLACK
6
CONTINUOUS
10
4.00636
20
-1.97471
11
3.98573
21
-1.97471
0
LINE
8
BLACK
6
CONTINUOUS
10
3.9563
20
-0.376969
11
3.9563
21
-3.25
0
LINE
8
BLACK
6
CONTINUOUS
10
3.8315
20
-0.376969
11
3.97939
21
-0.376969
0
LINE
8
BLACK
6
CONTINUOUS
10
3.8315
20
-3.25
11
3.97939
21
-3.25
0
LINE
8
BLACK
6
CONTINUOUS
10
3.9563
20
-3.25
11
3.93321
21
-3.20565
0
LINE
8
BLACK
6
CONTINUOUS
10
3.9563
20
-3.25
11
3.97939
21
-3.20565
0
LINE
8
BLACK
6
CONTINUOUS
10
3.9563
20
-0.376969
11
3.93321
21
-0.421319
0
LINE
8
BLACK
6
CONTINUOUS
10
3.9563
20
-0.376969
11
3.97939
21
-0.421319
0
LINE
8
BLACK
6
CONTINUOUS
10
2.70148
20
-3.9777
11
2.70148
21
-3.9552
0
LINE
8
BLACK
6
CONTINUOUS
10
2.70148
20
-3.96645
11
2.74085
21
-3.96645
0
LINE
8
BLACK
6
CONTINUOUS
10
2.74085
20
-3.96645
11
2.73523
21
-3.9627
0
LINE
8
BLACK
6
CONTINUOUS
10
2.73523
20
-3.9627
11
2.73148
21
-3.95895
0
LINE
8
BLACK
6
CONTINUOUS
10
2.73148
20
-3.95895
11
2.7296
21
-3.9552
0
LINE
8
BLACK
6
CONTINUOUS
10
2.74085
20
-3.99082
11
2.74085
21
-4.01707
0
LINE
8
BLACK
6
CONTINUOUS
10
2.74085
20
-4.01707
11
2.70148
21
-4.0002
0
LINE
8
BLACK
6
CONTINUOUS
10
2.70523
20
-4.03207
11
2.70336
21
-4.03394
0
LINE
8
BLACK
6
CONTINUOUS
10
2.70336
20
-4.03394
11
2.70148
21
-4.03207
0
LINE
8
BLACK
6
CONTINUOUS
10
2.70148
20
-4.03207
11
2.70336
21
-4.03019
0
LINE
8
BLACK
6
CONTINUOUS
10
2.70336
20
-4.03019
11
2.70523
21
-4.03207
0
LINE
8
BLACK
6
CONTINUOUS
10
2.70523
20
-4.03207
11
2.70148
21
-4.03207
0
LINE
8
BLACK
6
CONTINUOUS
10
2.74085
20
-4.06956
11
2.74085
21
-4.05082
0
LINE
8
BLACK
6
CONTINUOUS
10
2.74085
20
-4.05082
11
2.7221
21
-4.04894
0
LINE
8
BLACK
6
CONTINUOUS
10
2.7221
20
-4.04894
11
2.72398
21
-4.05082
0
LINE
8
BLACK
6
CONTINUOUS
10
2.72398
20
-4.05082
11
2.72585
21
-4.05457
0
LINE
8
BLACK
6
CONTINUOUS
10
2.72585
20
-4.05457
11
2.72585
21
-4.06394
0
LINE
8
BLACK
6
CONTINUOUS
10
2.72585
20
-4.06394
11
2.72398
21
-4.06769
0
LINE
8
BLACK
6
CONTINUOUS
10
2.72398
20
-4.06769
11
2.7221
21
-4.06956
0
LINE
8
BLACK
6
CONTINUOUS
10
2.7221
20
-4.06956
11
2.71835
21
-4.07144
0
LINE
8
BLACK
6
CONTINUOUS
10
2.71835
20
-4.07144
11
2.70898
21
-4.07144
0
LINE
8
BLACK
6
CONTINUOUS
10
2.70898
20
-4.07144
11
2.70523
21
-4.06956
0
LINE
8
BLACK
6
CONTINUOUS
10
2.70523
20
-4.06956
11
2.70336
21
-4.06769
0
LINE
8
BLACK
6
CONTINUOUS
10
2.70336
20
-4.06769
11
2.70148
21
-4.06394
0
LINE
8
BLACK
6
CONTINUOUS
10
2.70148
20
-4.06394
11
2.70148
21
-4.05457
0
LINE
8
BLACK
6
CONTINUOUS
10
2.70148
20
-4.05457
11
2.70336
21
-4.05082
0
LINE
8
BLACK
6
CONTINUOUS
10
2.70336
20
-4.05082
11
2.70523
21
-4.04894
0
LINE
8
BLACK
6
CONTINUOUS
10
2.74085
20
-4.10706
11
2.74085
21
-4.08831
0
LINE
8
BLACK
6
CONTINUOUS
10
2.74085
20
-4.08831
11
2.7221
21
-4.08644
0
LINE
8
BLACK
6
CONTINUOUS
10
2.7221
20
-4.08644
11
2.72398
21
-4.08831
0
LINE
8
BLACK
6
CONTINUOUS
10
2.72398
20
-4.08831
11
2.72585
21
-4.09206
0
LINE
8
BLACK
6
CONTINUOUS
10
2.72585
20
-4.09206
11
2.72585
21
-4.10143
0
LINE
8
BLACK
6
CONTINUOUS
10
2.72585
20
-4.10143
11
2.72398
21
-4.10518
0
LINE
8
BLACK
6
CONTINUOUS
10
2.72398
20
-4.10518
11
2.7221
21
-4.10706
0
LINE
8
BLACK
6
CONTINUOUS
10
2.7221
20
-4.10706
11
2.71835
21
-4.10893
0
LINE
8
BLACK
6
CONTINUOUS
10
2.71835
20
-4.10893
11
2.70898
21
-4.10893
0
LINE
8
BLACK
6
CONTINUOUS
10
2.70898
20
-4.10893
11
2.70523
21
-4.10706
0
LINE
8
BLACK
6
CONTINUOUS
10
2.70523
20
-4.10706
11
2.70336
21
-4.10518
0
LINE
8
BLACK
6
CONTINUOUS
10
2.70336
20
-4.10518
11
2.70148
21
-4.10143
0
LINE
8
BLACK
6
CONTINUOUS
10
2.70148
20
-4.10143
11
2.70148
21
-4.09206
0
LINE
8
BLACK
6
CONTINUOUS
10
2.70148
20
-4.09206
11
2.70336
21
-4.08831
0
LINE
8
BLACK
6
CONTINUOUS
10
2.70336
20
-4.08831
11
2.70523
21
-4.08644
0
LINE
8
BLACK
6
CONTINUOUS
10
2.74085
20
-4.13331
11
2.74085
21
-4.13705
0
LINE
8
BLACK
6
CONTINUOUS
10
2.74085
20
-4.13705
11
2.73898
21
-4.1408
0
LINE
8
BLACK
6
CONTINUOUS
10
2.73898
20
-4.1408
11
2.7371
21
-4.14268
0
LINE
8
BLACK
6
CONTINUOUS
10
2.7371
20
-4.14268
11
2.73335
21
-4.14455
0
LINE
8
BLACK
6
CONTINUOUS
10
2.73335
20
-4.14455
11
2.72585
21
-4.14643
0
LINE
8
BLACK
6
CONTINUOUS
10
2.72585
20
-4.14643
11
2.71648
21
-4.14643
0
LINE
8
BLACK
6
CONTINUOUS
10
2.71648
20
-4.14643
11
2.70898
21
-4.14455
0
LINE
8
BLACK
6
CONTINUOUS
10
2.70898
20
-4.14455
11
2.70523
21
-4.14268
0
LINE
8
BLACK
6
CONTINUOUS
10
2.70523
20
-4.14268
11
2.70336
21
-4.1408
0
LINE
8
BLACK
6
CONTINUOUS
10
2.70336
20
-4.1408
11
2.70148
21
-4.13705
0
LINE
8
BLACK
6
CONTINUOUS
10
2.70148
20
-4.13705
11
2.70148
21
-4.13331
0
LINE
8
BLACK
6
CONTINUOUS
10
2.70148
20
-4.13331
11
2.70336
21
-4.12956
0
LINE
8
BLACK
6
CONTINUOUS
10
2.70336
20
-4.12956
11
2.70523
21
-4.12768
0
LINE
8
BLACK
6
CONTINUOUS
10
2.70523
20
-4.12768
11
2.70898
21
-4.12581
0
LINE
8
BLACK
6
CONTINUOUS
10
2.70898
20
-4.12581
11
2.71648
21
-4.12393
0
LINE
8
BLACK
6
CONTINUOUS
10
2.71648
20
-4.12393
11
2.72585
21
-4.12393
0
LINE
8
BLACK
6
CONTINUOUS
10
2.72585
20
-4.12393
11
2.73335
21
-4.12581
0
LINE
8
BLACK
6
CONTINUOUS
10
2.73335
20
-4.12581
11
2.7371
21
-4.12768
0
LINE
8
BLACK
6
CONTINUOUS
10
2.7371
20
-4.12768
11
2.73898
21
-4.12956
0
LINE
8
BLACK
6
CONTINUOUS
10
2.73898
20
-4.12956
11
2.74085
21
-4.13331
0
LINE
8
BLACK
6
CONTINUOUS
10
2.70148
20
-4.1933
11
2.72773
21
-4.1933
0
LINE
8
BLACK
6
CONTINUOUS
10
2.72398
20
-4.1933
11
2.72585
21
-4.19517
0
LINE
8
BLACK
6
CONTINUOUS
10
2.72585
20
-4.19517
11
2.72773
21
-4.19892
0
LINE
8
BLACK
6
CONTINUOUS
10
2.72773
20
-4.19892
11
2.72773
21
-4.20455
0
LINE
8
BLACK
6
CONTINUOUS
10
2.72773
20
-4.20455
11
2.72585
21
-4.2083
0
LINE
8
BLACK
6
CONTINUOUS
10
2.72585
20
-4.2083
11
2.7221
21
-4.21017
0
LINE
8
BLACK
6
CONTINUOUS
10
2.7221
20
-4.21017
11
2.70148
21
-4.21017
0
LINE
8
BLACK
6
CONTINUOUS
10
2.7221
20
-4.21017
11
2.72585
21
-4.21205
0
LINE
8
BLACK
6
CONTINUOUS
10
2.72585
20
-4.21205
11
2.72773
21
-4.21579
0
LINE
8
BLACK
6
CONTINUOUS
10
2.72773
20
-4.21579
11
2.72773
21
-4.22142
0
LINE
8
BLACK
6
CONTINUOUS
10
2.72773
20
-4.22142
11
2.72585
21
-4.22517
0
LINE
8
BLACK
6
CONTINUOUS
10
2.72585
20
-4.22517
11
2.7221
21
-4.22704
0
LINE
8
BLACK
6
CONTINUOUS
10
2.7221
20
-4.22704
11
2.70148
21
-4.22704
0
LINE
8
BLACK
6
CONTINUOUS
10
2.70148
20
-4.24579
11
2.72773
21
-4.24579
0
LINE
8
BLACK
6
CONTINUOUS
10
2.72398
20
-4.24579
11
2.72585
21
-4.24767
0
LINE
8
BLACK
6
CONTINUOUS
10
2.72585
20
-4.24767
11
2.72773
21
-4.25142
0
LINE
8
BLACK
6
CONTINUOUS
10
2.72773
20
-4.25142
11
2.72773
21
-4.25704
0
LINE
8
BLACK
6
CONTINUOUS
10
2.72773
20
-4.25704
11
2.72585
21
-4.26079
0
LINE
8
BLACK
6
CONTINUOUS
10
2.72585
20
-4.26079
11
2.7221
21
-4.26266
0
LINE
8
BLACK
6
CONTINUOUS
10
2.7221
20
-4.26266
11
2.70148
21
-4.26266
0
LINE
8
BLACK
6
CONTINUOUS
10
2.7221
20
-4.26266
11
2.72585
21
-4.26454
0
LINE
8
BLACK
6
CONTINUOUS
10
2.72585
20
-4.26454
11
2.72773
21
-4.26829
0
LINE
8
BLACK
6
CONTINUOUS
10
2.72773
20
-4.26829
11
2.72773
21
-4.27391
0
LINE
8
BLACK
6
CONTINUOUS
10
2.72773
20
-4.27391
11
2.72585
21
-4.27766
0
LINE
8
BLACK
6
CONTINUOUS
10
2.72585
20
-4.27766
11
2.7221
21
-4.27954
0
LINE
8
BLACK
6
CONTINUOUS
10
2.7221
20
-4.27954
11
2.70148
21
-4.27954
0
LINE
8
BLACK
6
CONTINUOUS
10
2.76654
20
-3.77283
11
2.76654
21
-4.46378
0
LINE
8
BLACK
6
CONTINUOUS
10
2.83602
20
-3.77283
11
2.74345
21
-3.77283
0
LINE
8
BLACK
6
CONTINUOUS
10
2.83602
20
-4.46378
11
2.74345
21
-4.46378
0
LINE
8
BLACK
6
CONTINUOUS
10
2.76654
20
-4.46378
11
2.74345
21
-4.41943
0
LINE
8
BLACK
6
CONTINUOUS
10
2.76654
20
-4.46378
11
2.78962
21
-4.41943
0
LINE
8
BLACK
6
CONTINUOUS
10
2.76654
20
-3.77283
11
2.74345
21
-3.81719
0
LINE
8
BLACK
6
CONTINUOUS
10
2.76654
20
-3.77283
11
2.78962
21
-3.81719
0
LINE
8
BLACK
6
CONTINUOUS
10
3.68341
20
-4.7249
11
3.66091
21
-4.7249
0
LINE
8
BLACK
6
CONTINUOUS
10
3.67216
20
-4.7249
11
3.67216
21
-4.68553
0
LINE
8
BLACK
6
CONTINUOUS
10
3.67216
20
-4.68553
11
3.66841
21
-4.69115
0
LINE
8
BLACK
6
CONTINUOUS
10
3.66841
20
-4.69115
11
3.66466
21
-4.6949
0
LINE
8
BLACK
6
CONTINUOUS
10
3.66466
20
-4.6949
11
3.66091
21
-4.69678
0
LINE
8
BLACK
6
CONTINUOUS
10
3.7209
20
-4.7249
11
3.69841
21
-4.7249
0
LINE
8
BLACK
6
CONTINUOUS
10
3.70966
20
-4.7249
11
3.70966
21
-4.68553
0
LINE
8
BLACK
6
CONTINUOUS
10
3.70966
20
-4.68553
11
3.70591
21
-4.69115
0
LINE
8
BLACK
6
CONTINUOUS
10
3.70591
20
-4.69115
11
3.70216
21
-4.6949
0
LINE
8
BLACK
6
CONTINUOUS
10
3.70216
20
-4.6949
11
3.69841
21
-4.69678
0
LINE
8
BLACK
6
CONTINUOUS
10
3.73778
20
-4.72115
11
3.73965
21
-4.72302
0
LINE
8
BLACK
6
CONTINUOUS
10
3.73965
20
-4.72302
11
3.73778
21
-4.7249
0
LINE
8
BLACK
6
CONTINUOUS
10
3.73778
20
-4.7249
11
3.7359
21
-4.72302
0
LINE
8
BLACK
6
CONTINUOUS
10
3.7359
20
-4.72302
11
3.73778
21
-4.72115
0
LINE
8
BLACK
6
CONTINUOUS
10
3.73778
20
-4.72115
11
3.73778
21
-4.7249
0
LINE
8
BLACK
6
CONTINUOUS
10
3.75465
20
-4.68928
11
3.75652
21
-4.6874
0
LINE
8
BLACK
6
CONTINUOUS
10
3.75652
20
-4.6874
11
3.76027
21
-4.68553
0
LINE
8
BLACK
6
CONTINUOUS
10
3.76027
20
-4.68553
11
3.76965
21
-4.68553
0
LINE
8
BLACK
6
CONTINUOUS
10
3.76965
20
-4.68553
11
3.7734
21
-4.6874
0
LINE
8
BLACK
6
CONTINUOUS
10
3.7734
20
-4.6874
11
3.77527
21
-4.68928
0
LINE
8
BLACK
6
CONTINUOUS
10
3.77527
20
-4.68928
11
3.77715
21
-4.69303
0
LINE
8
BLACK
6
CONTINUOUS
10
3.77715
20
-4.69303
11
3.77715
21
-4.69678
0
LINE
8
BLACK
6
CONTINUOUS
10
3.77715
20
-4.69678
11
3.77527
21
-4.7024
0
LINE
8
BLACK
6
CONTINUOUS
10
3.77527
20
-4.7024
11
3.75277
21
-4.7249
0
LINE
8
BLACK
6
CONTINUOUS
10
3.75277
20
-4.7249
11
3.77715
21
-4.7249
0
LINE
8
BLACK
6
CONTINUOUS
10
3.80152
20
-4.68553
11
3.80527
21
-4.68553
0
LINE
8
BLACK
6
CONTINUOUS
10
3.80527
20
-4.68553
11
3.80902
21
-4.6874
0
LINE
8
BLACK
6
CONTINUOUS
10
3.80902
20
-4.6874
11
3.81089
21
-4.68928
0
LINE
8
BLACK
6
CONTINUOUS
10
3.81089
20
-4.68928
11
3.81277
21
-4.69303
0
LINE
8
BLACK
6
CONTINUOUS
10
3.81277
20
-4.69303
11
3.81464
21
-4.70052
0
LINE
8
BLACK
6
CONTINUOUS
10
3.81464
20
-4.70052
11
3.81464
21
-4.7099
0
LINE
8
BLACK
6
CONTINUOUS
10
3.81464
20
-4.7099
11
3.81277
21
-4.7174
0
LINE
8
BLACK
6
CONTINUOUS
10
3.81277
20
-4.7174
11
3.81089
21
-4.72115
0
LINE
8
BLACK
6
CONTINUOUS
10
3.81089
20
-4.72115
11
3.80902
21
-4.72302
0
LINE
8
BLACK
6
CONTINUOUS
10
3.80902
20
-4.72302
11
3.80527
21
-4.7249
0
LINE
8
BLACK
6
CONTINUOUS
10
3.80527
20
-4.7249
11
3.80152
21
-4.7249
0
LINE
8
BLACK
6
CONTINUOUS
10
3.80152
20
-4.7249
11
3.79777
21
-4.72302
0
LINE
8
BLACK
6
CONTINUOUS
10
3.79777
20
-4.72302
11
3.79589
21
-4.72115
0
LINE
8
BLACK
6
CONTINUOUS
10
3.79589
20
-4.72115
11
3.79402
21
-4.7174
0
LINE
8
BLACK
6
CONTINUOUS
10
3.79402
20
-4.7174
11
3.79214
21
-4.7099
0
LINE
8
BLACK
6
CONTINUOUS
10
3.79214
20
-4.7099
11
3.79214
21
-4.70052
0
LINE
8
BLACK
6
CONTINUOUS
10
3.79214
20
-4.70052
11
3.79402
21
-4.69303
0
LINE
8
BLACK
6
CONTINUOUS
10
3.79402
20
-4.69303
11
3.79589
21
-4.68928
0
LINE
8
BLACK
6
CONTINUOUS
10
3.79589
20
-4.68928
11
3.79777
21
-4.6874
0
LINE
8
BLACK
6
CONTINUOUS
10
3.79777
20
-4.6874
11
3.80152
21
-4.68553
0
LINE
8
BLACK
6
CONTINUOUS
10
3.83901
20
-4.68553
11
3.84276
21
-4.68553
0
LINE
8
BLACK
6
CONTINUOUS
10
3.84276
20
-4.68553
11
3.84651
21
-4.6874
0
LINE
8
BLACK
6
CONTINUOUS
10
3.84651
20
-4.6874
11
3.84839
21
-4.68928
0
LINE
8
BLACK
6
CONTINUOUS
10
3.84839
20
-4.68928
11
3.85026
21
-4.69303
0
LINE
8
BLACK
6
CONTINUOUS
10
3.85026
20
-4.69303
11
3.85214
21
-4.70052
0
LINE
8
BLACK
6
CONTINUOUS
10
3.85214
20
-4.70052
11
3.85214
21
-4.7099
0
LINE
8
BLACK
6
CONTINUOUS
10
3.85214
20
-4.7099
11
3.85026
21
-4.7174
0
LINE
8
BLACK
6
CONTINUOUS
10
3.85026
20
-4.7174
11
3.84839
21
-4.72115
0
LINE
8
BLACK
6
CONTINUOUS
10
3.84839
20
-4.72115
11
3.84651
21
-4.72302
0
LINE
8
BLACK
6
CONTINUOUS
10
3.84651
20
-4.72302
11
3.84276
21
-4.7249
0
LINE
8
BLACK
6
CONTINUOUS
10
3.84276
20
-4.7249
11
3.83901
21
-4.7249
0
LINE
8
BLACK
6
CONTINUOUS
10
3.83901
20
-4.7249
11
3.83526
21
-4.72302
0
LINE
8
BLACK
6
CONTINUOUS
10
3.83526
20
-4.72302
11
3.83339
21
-4.72115
0
LINE
8
BLACK
6
CONTINUOUS
10
3.83339
20
-4.72115
11
3.83151
21
-4.7174
0
LINE
8
BLACK
6
CONTINUOUS
10
3.83151
20
-4.7174
11
3.82964
21
-4.7099
0
LINE
8
BLACK
6
CONTINUOUS
10
3.82964
20
-4.7099
11
3.82964
21
-4.70052
0
LINE
8
BLACK
6
CONTINUOUS
10
3.82964
20
-4.70052
11
3.83151
21
-4.69303
0
LINE
8
BLACK
6
CONTINUOUS
10
3.83151
20
-4.69303
11
3.83339
21
-4.68928
0
LINE
8
BLACK
6
CONTINUOUS
10
3.83339
20
-4.68928
11
3.83526
21
-4.6874
0
LINE
8
BLACK
6
CONTINUOUS
10
3.83526
20
-4.6874
11
3.83901
21
-4.68553
0
LINE
8
BLACK
6
CONTINUOUS
10
3.89901
20
-4.7249
11
3.89901
21
-4.69865
0
LINE
8
BLACK
6
CONTINUOUS
10
3.89901
20
-4.7024
11
3.90088
21
-4.70052
0
LINE
8
BLACK
6
CONTINUOUS
10
3.90088
20
-4.70052
11
3.90463
21
-4.69865
0
LINE
8
BLACK
6
CONTINUOUS
10
3.90463
20
-4.69865
11
3.91025
21
-4.69865
0
LINE
8
BLACK
6
CONTINUOUS
10
3.91025
20
-4.69865
11
3.914
21
-4.70052
0
LINE
8
BLACK
6
CONTINUOUS
10
3.914
20
-4.70052
11
3.91588
21
-4.70427
0
LINE
8
BLACK
6
CONTINUOUS
10
3.91588
20
-4.70427
11
3.91588
21
-4.7249
0
LINE
8
BLACK
6
CONTINUOUS
10
3.91588
20
-4.70427
11
3.91775
21
-4.70052
0
LINE
8
BLACK
6
CONTINUOUS
10
3.91775
20
-4.70052
11
3.9215
21
-4.69865
0
LINE
8
BLACK
6
CONTINUOUS
10
3.9215
20
-4.69865
11
3.92713
21
-4.69865
0
LINE
8
BLACK
6
CONTINUOUS
10
3.92713
20
-4.69865
11
3.93088
21
-4.70052
0
LINE
8
BLACK
6
CONTINUOUS
10
3.93088
20
-4.70052
11
3.93275
21
-4.70427
0
LINE
8
BLACK
6
CONTINUOUS
10
3.93275
20
-4.70427
11
3.93275
21
-4.7249
0
LINE
8
BLACK
6
CONTINUOUS
10
3.9515
20
-4.7249
11
3.9515
21
-4.69865
0
LINE
8
BLACK
6
CONTINUOUS
10
3.9515
20
-4.7024
11
3.95337
21
-4.70052
0
LINE
8
BLACK
6
CONTINUOUS
10
3.95337
20
-4.70052
11
3.95712
21
-4.69865
0
LINE
8
BLACK
6
CONTINUOUS
10
3.95712
20
-4.69865
11
3.96275
21
-4.69865
0
LINE
8
BLACK
6
CONTINUOUS
10
3.96275
20
-4.69865
11
3.9665
21
-4.70052
0
LINE
8
BLACK
6
CONTINUOUS
10
3.9665
20
-4.70052
11
3.96837
21
-4.70427
0
LINE
8
BLACK
6
CONTINUOUS
10
3.96837
20
-4.70427
11
3.96837
21
-4.7249
0
LINE
8
BLACK
6
CONTINUOUS
10
3.96837
20
-4.70427
11
3.97025
21
-4.70052
0
LINE
8
BLACK
6
CONTINUOUS
10
3.97025
20
-4.70052
11
3.974
21
-4.69865
0
LINE
8
BLACK
6
CONTINUOUS
10
3.974
20
-4.69865
11
3.97962
21
-4.69865
0
LINE
8
BLACK
6
CONTINUOUS
10
3.97962
20
-4.69865
11
3.98337
21
-4.70052
0
LINE
8
BLACK
6
CONTINUOUS
10
3.98337
20
-4.70052
11
3.98525
21
-4.70427
0
LINE
8
BLACK
6
CONTINUOUS
10
3.98525
20
-4.70427
11
3.98525
21
-4.7249
0
LINE
8
BLACK
6
CONTINUOUS
10
3.60354
20
-4.65984
11
4.04449
21
-4.65984
0
LINE
8
BLACK
6
CONTINUOUS
10
3.60354
20
-4.60177
11
3.60354
21
-4.68293
0
LINE
8
BLACK
6
CONTINUOUS
10
4.04449
20
-4.60177
11
4.04449
21
-4.68293
0
LINE
8
BLACK
6
CONTINUOUS
10
4.04449
20
-4.65984
11
4.00014
21
-4.68293
0
LINE
8
BLACK
6
CONTINUOUS
10
4.04449
20
-4.65984
11
4.00014
21
-4.63676
0
LINE
8
BLACK
6
CONTINUOUS
10
3.60354
20
-4.65984
11
3.64789
21
-4.68293
0
LINE
8
BLACK
6
CONTINUOUS
10
3.60354
20
-4.65984
11
3.64789
21
-4.63676
0
LINE
8
BLACK
6
CONTINUOUS
10
3.17829
20
-4.65679
11
3.15579
21
-4.65679
0
LINE
8
BLACK
6
CONTINUOUS
10
3.16704
20
-4.65679
11
3.16704
21
-4.61742
0
LINE
8
BLACK
6
CONTINUOUS
10
3.16704
20
-4.61742
11
3.16329
21
-4.62304
0
LINE
8
BLACK
6
CONTINUOUS
10
3.16329
20
-4.62304
11
3.15954
21
-4.62679
0
LINE
8
BLACK
6
CONTINUOUS
10
3.15954
20
-4.62679
11
3.15579
21
-4.62867
0
LINE
8
BLACK
6
CONTINUOUS
10
3.21204
20
-4.63054
11
3.21204
21
-4.65679
0
LINE
8
BLACK
6
CONTINUOUS
10
3.20266
20
-4.61554
11
3.19329
21
-4.64366
0
LINE
8
BLACK
6
CONTINUOUS
10
3.19329
20
-4.64366
11
3.21766
21
-4.64366
0
LINE
8
BLACK
6
CONTINUOUS
10
3.23266
20
-4.65304
11
3.23453
21
-4.65491
0
LINE
8
BLACK
6
CONTINUOUS
10
3.23453
20
-4.65491
11
3.23266
21
-4.65679
0
LINE
8
BLACK
6
CONTINUOUS
10
3.23266
20
-4.65679
11
3.23078
21
-4.65491
0
LINE
8
BLACK
6
CONTINUOUS
10
3.23078
20
-4.65491
11
3.23266
21
-4.65304
0
LINE
8
BLACK
6
CONTINUOUS
10
3.23266
20
-4.65304
11
3.23266
21
-4.65679
0
LINE
8
BLACK
6
CONTINUOUS
10
3.26828
20
-4.63054
11
3.26828
21
-4.65679
0
LINE
8
BLACK
6
CONTINUOUS
10
3.25891
20
-4.61554
11
3.24953
21
-4.64366
0
LINE
8
BLACK
6
CONTINUOUS
10
3.24953
20
-4.64366
11
3.2739
21
-4.64366
0
LINE
8
BLACK
6
CONTINUOUS
10
3.30577
20
-4.61742
11
3.29828
21
-4.61742
0
LINE
8
BLACK
6
CONTINUOUS
10
3.29828
20
-4.61742
11
3.29453
21
-4.61929
0
LINE
8
BLACK
6
CONTINUOUS
10
3.29453
20
-4.61929
11
3.29265
21
-4.62117
0
LINE
8
BLACK
6
CONTINUOUS
10
3.29265
20
-4.62117
11
3.2889
21
-4.62679
0
LINE
8
BLACK
6
CONTINUOUS
10
3.2889
20
-4.62679
11
3.28703
21
-4.63429
0
LINE
8
BLACK
6
CONTINUOUS
10
3.28703
20
-4.63429
11
3.28703
21
-4.64929
0
LINE
8
BLACK
6
CONTINUOUS
10
3.28703
20
-4.64929
11
3.2889
21
-4.65304
0
LINE
8
BLACK
6
CONTINUOUS
10
3.2889
20
-4.65304
11
3.29078
21
-4.65491
0
LINE
8
BLACK
6
CONTINUOUS
10
3.29078
20
-4.65491
11
3.29453
21
-4.65679
0
LINE
8
BLACK
6
CONTINUOUS
10
3.29453
20
-4.65679
11
3.30202
21
-4.65679
0
LINE
8
BLACK
6
CONTINUOUS
10
3.30202
20
-4.65679
11
3.30577
21
-4.65491
0
LINE
8
BLACK
6
CONTINUOUS
10
3.30577
20
-4.65491
11
3.30765
21
-4.65304
0
LINE
8
BLACK
6
CONTINUOUS
10
3.30765
20
-4.65304
11
3.30952
21
-4.64929
0
LINE
8
BLACK
6
CONTINUOUS
10
3.30952
20
-4.64929
11
3.30952
21
-4.63991
0
LINE
8
BLACK
6
CONTINUOUS
10
3.30952
20
-4.63991
11
3.30765
21
-4.63616
0
LINE
8
BLACK
6
CONTINUOUS
10
3.30765
20
-4.63616
11
3.30577
21
-4.63429
0
LINE
8
BLACK
6
CONTINUOUS
10
3.30577
20
-4.63429
11
3.30202
21
-4.63241
0
LINE
8
BLACK
6
CONTINUOUS
10
3.30202
20
-4.63241
11
3.29453
21
-4.63241
0
LINE
8
BLACK
6
CONTINUOUS
10
3.29453
20
-4.63241
11
3.29078
21
-4.63429
0
LINE
8
BLACK
6
CONTINUOUS
10
3.29078
20
-4.63429
11
3.2889
21
-4.63616
0
LINE
8
BLACK
6
CONTINUOUS
10
3.2889
20
-4.63616
11
3.28703
21
-4.63991
0
LINE
8
BLACK
6
CONTINUOUS
10
3.3339
20
-4.61742
11
3.33765
21
-4.61742
0
LINE
8
BLACK
6
CONTINUOUS
10
3.33765
20
-4.61742
11
3.34139
21
-4.61929
0
LINE
8
BLACK
6
CONTINUOUS
10
3.34139
20
-4.61929
11
3.34327
21
-4.62117
0
LINE
8
BLACK
6
CONTINUOUS
10
3.34327
20
-4.62117
11
3.34514
21
-4.62492
0
LINE
8
BLACK
6
CONTINUOUS
10
3.34514
20
-4.62492
11
3.34702
21
-4.63241
0
LINE
8
BLACK
6
CONTINUOUS
10
3.34702
20
-4.63241
11
3.34702
21
-4.64179
0
LINE
8
BLACK
6
CONTINUOUS
10
3.34702
20
-4.64179
11
3.34514
21
-4.64929
0
LINE
8
BLACK
6
CONTINUOUS
10
3.34514
20
-4.64929
11
3.34327
21
-4.65304
0
LINE
8
BLACK
6
CONTINUOUS
10
3.34327
20
-4.65304
11
3.34139
21
-4.65491
0
LINE
8
BLACK
6
CONTINUOUS
10
3.34139
20
-4.65491
11
3.33765
21
-4.65679
0
LINE
8
BLACK
6
CONTINUOUS
10
3.33765
20
-4.65679
11
3.3339
21
-4.65679
0
LINE
8
BLACK
6
CONTINUOUS
10
3.3339
20
-4.65679
11
3.33015
21
-4.65491
0
LINE
8
BLACK
6
CONTINUOUS
10
3.33015
20
-4.65491
11
3.32827
21
-4.65304
0
LINE
8
BLACK
6
CONTINUOUS
10
3.32827
20
-4.65304
11
3.3264
21
-4.64929
0
LINE
8
BLACK
6
CONTINUOUS
10
3.3264
20
-4.64929
11
3.32452
21
-4.64179
0
LINE
8
BLACK
6
CONTINUOUS
10
3.32452
20
-4.64179
11
3.32452
21
-4.63241
0
LINE
8
BLACK
6
CONTINUOUS
10
3.32452
20
-4.63241
11
3.3264
21
-4.62492
0
LINE
8
BLACK
6
CONTINUOUS
10
3.3264
20
-4.62492
11
3.32827
21
-4.62117
0
LINE
8
BLACK
6
CONTINUOUS
10
3.32827
20
-4.62117
11
3.33015
21
-4.61929
0
LINE
8
BLACK
6
CONTINUOUS
10
3.33015
20
-4.61929
11
3.3339
21
-4.61742
0
LINE
8
BLACK
6
CONTINUOUS
10
3.39389
20
-4.65679
11
3.39389
21
-4.63054
0
LINE
8
BLACK
6
CONTINUOUS
10
3.39389
20
-4.63429
11
3.39576
21
-4.63241
0
LINE
8
BLACK
6
CONTINUOUS
10
3.39576
20
-4.63241
11
3.39951
21
-4.63054
0
LINE
8
BLACK
6
CONTINUOUS
10
3.39951
20
-4.63054
11
3.40514
21
-4.63054
0
LINE
8
BLACK
6
CONTINUOUS
10
3.40514
20
-4.63054
11
3.40889
21
-4.63241
0
LINE
8
BLACK
6
CONTINUOUS
10
3.40889
20
-4.63241
11
3.41076
21
-4.63616
0
LINE
8
BLACK
6
CONTINUOUS
10
3.41076
20
-4.63616
11
3.41076
21
-4.65679
0
LINE
8
BLACK
6
CONTINUOUS
10
3.41076
20
-4.63616
11
3.41264
21
-4.63241
0
LINE
8
BLACK
6
CONTINUOUS
10
3.41264
20
-4.63241
11
3.41639
21
-4.63054
0
LINE
8
BLACK
6
CONTINUOUS
10
3.41639
20
-4.63054
11
3.42201
21
-4.63054
0
LINE
8
BLACK
6
CONTINUOUS
10
3.42201
20
-4.63054
11
3.42576
21
-4.63241
0
LINE
8
BLACK
6
CONTINUOUS
10
3.42576
20
-4.63241
11
3.42763
21
-4.63616
0
LINE
8
BLACK
6
CONTINUOUS
10
3.42763
20
-4.63616
11
3.42763
21
-4.65679
0
LINE
8
BLACK
6
CONTINUOUS
10
3.44638
20
-4.65679
11
3.44638
21
-4.63054
0
LINE
8
BLACK
6
CONTINUOUS
10
3.44638
20
-4.63429
11
3.44826
21
-4.63241
0
LINE
8
BLACK
6
CONTINUOUS
10
3.44826
20
-4.63241
11
3.45201
21
-4.63054
0
LINE
8
BLACK
6
CONTINUOUS
10
3.45201
20
-4.63054
11
3.45763
21
-4.63054
0
LINE
8
BLACK
6
CONTINUOUS
10
3.45763
20
-4.63054
11
3.46138
21
-4.63241
0
LINE
8
BLACK
6
CONTINUOUS
10
3.46138
20
-4.63241
11
3.46325
21
-4.63616
0
LINE
8
BLACK
6
CONTINUOUS
10
3.46325
20
-4.63616
11
3.46325
21
-4.65679
0
LINE
8
BLACK
6
CONTINUOUS
10
3.46325
20
-4.63616
11
3.46513
21
-4.63241
0
LINE
8
BLACK
6
CONTINUOUS
10
3.46513
20
-4.63241
11
3.46888
21
-4.63054
0
LINE
8
BLACK
6
CONTINUOUS
10
3.46888
20
-4.63054
11
3.4745
21
-4.63054
0
LINE
8
BLACK
6
CONTINUOUS
10
3.4745
20
-4.63054
11
3.47825
21
-4.63241
0
LINE
8
BLACK
6
CONTINUOUS
10
3.47825
20
-4.63241
11
3.48013
21
-4.63616
0
LINE
8
BLACK
6
CONTINUOUS
10
3.48013
20
-4.63616
11
3.48013
21
-4.65679
0
LINE
8
BLACK
6
CONTINUOUS
10
3.03425
20
-4.59173
11
3.60354
21
-4.59173
0
LINE
8
BLACK
6
CONTINUOUS
10
3.03425
20
-4.49902
11
3.03425
21
-4.61482
0
LINE
8
BLACK
6
CONTINUOUS
10
3.60354
20
-4.49902
11
3.60354
21
-4.61482
0
LINE
8
BLACK
6
CONTINUOUS
10
3.60354
20
-4.59173
11
3.55919
21
-4.61482
0
LINE
8
BLACK
6
CONTINUOUS
10
3.60354
20
-4.59173
11
3.55919
21
-4.56864
0
LINE
8
BLACK
6
CONTINUOUS
10
3.03425
20
-4.59173
11
3.0786
21
-4.61482
0
LINE
8
BLACK
6
CONTINUOUS
10
3.03425
20
-4.59173
11
3.0786
21
-4.56864
0
LINE
8
BLACK
6
CONTINUOUS
10
2.77358
20
-1.9193
11
2.77546
21
-1.91555
0
LINE
8
BLACK
6
CONTINUOUS
10
2.77546
20
-1.91555
11
2.77733
21
-1.91367
0
LINE
8
BLACK
6
CONTINUOUS
10
2.77733
20
-1.91367
11
2.78108
21
-1.9118
0
LINE
8
BLACK
6
CONTINUOUS
10
2.78108
20
-1.9118
11
2.78296
21
-1.9118
0
LINE
8
BLACK
6
CONTINUOUS
10
2.78296
20
-1.9118
11
2.78671
21
-1.91367
0
LINE
8
BLACK
6
CONTINUOUS
10
2.78671
20
-1.91367
11
2.78858
21
-1.91555
0
LINE
8
BLACK
6
CONTINUOUS
10
2.78858
20
-1.91555
11
2.79046
21
-1.9193
0
LINE
8
BLACK
6
CONTINUOUS
10
2.79046
20
-1.9193
11
2.79046
21
-1.9268
0
LINE
8
BLACK
6
CONTINUOUS
10
2.79046
20
-1.9268
11
2.78858
21
-1.93054
0
LINE
8
BLACK
6
CONTINUOUS
10
2.78858
20
-1.93054
11
2.78671
21
-1.93242
0
LINE
8
BLACK
6
CONTINUOUS
10
2.78671
20
-1.93242
11
2.78296
21
-1.93429
0
LINE
8
BLACK
6
CONTINUOUS
10
2.78296
20
-1.93429
11
2.78108
21
-1.93429
0
LINE
8
BLACK
6
CONTINUOUS
10
2.78108
20
-1.93429
11
2.77733
21
-1.93242
0
LINE
8
BLACK
6
CONTINUOUS
10
2.77733
20
-1.93242
11
2.77546
21
-1.93054
0
LINE
8
BLACK
6
CONTINUOUS
10
2.77546
20
-1.93054
11
2.77358
21
-1.9268
0
LINE
8
BLACK
6
CONTINUOUS
10
2.77358
20
-1.9268
11
2.77358
21
-1.9193
0
LINE
8
BLACK
6
CONTINUOUS
10
2.77358
20
-1.9193
11
2.77171
21
-1.91555
0
LINE
8
BLACK
6
CONTINUOUS
10
2.77171
20
-1.91555
11
2.76984
21
-1.91367
0
LINE
8
BLACK
6
CONTINUOUS
10
2.76984
20
-1.91367
11
2.76609
21
-1.9118
0
LINE
8
BLACK
6
CONTINUOUS
10
2.76609
20
-1.9118
11
2.75859
21
-1.9118
0
LINE
8
BLACK
6
CONTINUOUS
10
2.75859
20
-1.9118
11
2.75484
21
-1.91367
0
LINE
8
BLACK
6
CONTINUOUS
10
2.75484
20
-1.91367
11
2.75296
21
-1.91555
0
LINE
8
BLACK
6
CONTINUOUS
10
2.75296
20
-1.91555
11
2.75109
21
-1.9193
0
LINE
8
BLACK
6
CONTINUOUS
10
2.75109
20
-1.9193
11
2.75109
21
-1.9268
0
LINE
8
BLACK
6
CONTINUOUS
10
2.75109
20
-1.9268
11
2.75296
21
-1.93054
0
LINE
8
BLACK
6
CONTINUOUS
10
2.75296
20
-1.93054
11
2.75484
21
-1.93242
0
LINE
8
BLACK
6
CONTINUOUS
10
2.75484
20
-1.93242
11
2.75859
21
-1.93429
0
LINE
8
BLACK
6
CONTINUOUS
10
2.75859
20
-1.93429
11
2.76609
21
-1.93429
0
LINE
8
BLACK
6
CONTINUOUS
10
2.76609
20
-1.93429
11
2.76984
21
-1.93242
0
LINE
8
BLACK
6
CONTINUOUS
10
2.76984
20
-1.93242
11
2.77171
21
-1.93054
0
LINE
8
BLACK
6
CONTINUOUS
10
2.77171
20
-1.93054
11
2.77358
21
-1.9268
0
LINE
8
BLACK
6
CONTINUOUS
10
2.79046
20
-1.96804
11
2.79046
21
-1.96054
0
LINE
8
BLACK
6
CONTINUOUS
10
2.79046
20
-1.96054
11
2.78858
21
-1.95679
0
LINE
8
BLACK
6
CONTINUOUS
10
2.78858
20
-1.95679
11
2.78671
21
-1.95492
0
LINE
8
BLACK
6
CONTINUOUS
10
2.78671
20
-1.95492
11
2.78108
21
-1.95117
0
LINE
8
BLACK
6
CONTINUOUS
10
2.78108
20
-1.95117
11
2.77358
21
-1.94929
0
LINE
8
BLACK
6
CONTINUOUS
10
2.77358
20
-1.94929
11
2.75859
21
-1.94929
0
LINE
8
BLACK
6
CONTINUOUS
10
2.75859
20
-1.94929
11
2.75484
21
-1.95117
0
LINE
8
BLACK
6
CONTINUOUS
10
2.75484
20
-1.95117
11
2.75296
21
-1.95304
0
LINE
8
BLACK
6
CONTINUOUS
10
2.75296
20
-1.95304
11
2.75109
21
-1.95679
0
LINE
8
BLACK
6
CONTINUOUS
10
2.75109
20
-1.95679
11
2.75109
21
-1.96429
0
LINE
8
BLACK
6
CONTINUOUS
10
2.75109
20
-1.96429
11
2.75296
21
-1.96804
0
LINE
8
BLACK
6
CONTINUOUS
10
2.75296
20
-1.96804
11
2.75484
21
-1.96991
0
LINE
8
BLACK
6
CONTINUOUS
10
2.75484
20
-1.96991
11
2.75859
21
-1.97179
0
LINE
8
BLACK
6
CONTINUOUS
10
2.75859
20
-1.97179
11
2.76796
21
-1.97179
0
LINE
8
BLACK
6
CONTINUOUS
10
2.76796
20
-1.97179
11
2.77171
21
-1.96991
0
LINE
8
BLACK
6
CONTINUOUS
10
2.77171
20
-1.96991
11
2.77358
21
-1.96804
0
LINE
8
BLACK
6
CONTINUOUS
10
2.77358
20
-1.96804
11
2.77546
21
-1.96429
0
LINE
8
BLACK
6
CONTINUOUS
10
2.77546
20
-1.96429
11
2.77546
21
-1.95679
0
LINE
8
BLACK
6
CONTINUOUS
10
2.77546
20
-1.95679
11
2.77358
21
-1.95304
0
LINE
8
BLACK
6
CONTINUOUS
10
2.77358
20
-1.95304
11
2.77171
21
-1.95117
0
LINE
8
BLACK
6
CONTINUOUS
10
2.77171
20
-1.95117
11
2.76796
21
-1.94929
0
LINE
8
BLACK
6
CONTINUOUS
10
2.75484
20
-1.98866
11
2.75296
21
-1.99054
0
LINE
8
BLACK
6
CONTINUOUS
10
2.75296
20
-1.99054
11
2.75109
21
-1.98866
0
LINE
8
BLACK
6
CONTINUOUS
10
2.75109
20
-1.98866
11
2.75296
21
-1.98679
0
LINE
8
BLACK
6
CONTINUOUS
10
2.75296
20
-1.98679
11
2.75484
21
-1.98866
0
LINE
8
BLACK
6
CONTINUOUS
10
2.75484
20
-1.98866
11
2.75109
21
-1.98866
0
LINE
8
BLACK
6
CONTINUOUS
10
2.78671
20
-2.00554
11
2.78858
21
-2.00741
0
LINE
8
BLACK
6
CONTINUOUS
10
2.78858
20
-2.00741
11
2.79046
21
-2.01116
0
LINE
8
BLACK
6
CONTINUOUS
10
2.79046
20
-2.01116
11
2.79046
21
-2.02053
0
LINE
8
BLACK
6
CONTINUOUS
10
2.79046
20
-2.02053
11
2.78858
21
-2.02428
0
LINE
8
BLACK
6
CONTINUOUS
10
2.78858
20
-2.02428
11
2.78671
21
-2.02616
0
LINE
8
BLACK
6
CONTINUOUS
10
2.78671
20
-2.02616
11
2.78296
21
-2.02803
0
LINE
8
BLACK
6
CONTINUOUS
10
2.78296
20
-2.02803
11
2.77921
21
-2.02803
0
LINE
8
BLACK
6
CONTINUOUS
10
2.77921
20
-2.02803
11
2.77358
21
-2.02616
0
LINE
8
BLACK
6
CONTINUOUS
10
2.77358
20
-2.02616
11
2.75109
21
-2.00366
0
LINE
8
BLACK
6
CONTINUOUS
10
2.75109
20
-2.00366
11
2.75109
21
-2.02803
0
LINE
8
BLACK
6
CONTINUOUS
10
2.79046
20
-2.06365
11
2.79046
21
-2.04491
0
LINE
8
BLACK
6
CONTINUOUS
10
2.79046
20
-2.04491
11
2.77171
21
-2.04303
0
LINE
8
BLACK
6
CONTINUOUS
10
2.77171
20
-2.04303
11
2.77358
21
-2.04491
0
LINE
8
BLACK
6
CONTINUOUS
10
2.77358
20
-2.04491
11
2.77546
21
-2.04865
0
LINE
8
BLACK
6
CONTINUOUS
10
2.77546
20
-2.04865
11
2.77546
21
-2.05803
0
LINE
8
BLACK
6
CONTINUOUS
10
2.77546
20
-2.05803
11
2.77358
21
-2.06178
0
LINE
8
BLACK
6
CONTINUOUS
10
2.77358
20
-2.06178
11
2.77171
21
-2.06365
0
LINE
8
BLACK
6
CONTINUOUS
10
2.77171
20
-2.06365
11
2.76796
21
-2.06553
0
LINE
8
BLACK
6
CONTINUOUS
10
2.76796
20
-2.06553
11
2.75859
21
-2.06553
0
LINE
8
BLACK
6
CONTINUOUS
10
2.75859
20
-2.06553
11
2.75484
21
-2.06365
0
LINE
8
BLACK
6
CONTINUOUS
10
2.75484
20
-2.06365
11
2.75296
21
-2.06178
0
LINE
8
BLACK
6
CONTINUOUS
10
2.75296
20
-2.06178
11
2.75109
21
-2.05803
0
LINE
8
BLACK
6
CONTINUOUS
10
2.75109
20
-2.05803
11
2.75109
21
-2.04865
0
LINE
8
BLACK
6
CONTINUOUS
10
2.75109
20
-2.04865
11
2.75296
21
-2.04491
0
LINE
8
BLACK
6
CONTINUOUS
10
2.75296
20
-2.04491
11
2.75484
21
-2.04303
0
LINE
8
BLACK
6
CONTINUOUS
10
2.79046
20
-2.10115
11
2.79046
21
-2.0824
0
LINE
8
BLACK
6
CONTINUOUS
10
2.79046
20
-2.0824
11
2.77171
21
-2.08053
0
LINE
8
BLACK
6
CONTINUOUS
10
2.77171
20
-2.08053
11
2.77358
21
-2.0824
0
LINE
8
BLACK
6
CONTINUOUS
10
2.77358
20
-2.0824
11
2.77546
21
-2.08615
0
LINE
8
BLACK
6
CONTINUOUS
10
2.77546
20
-2.08615
11
2.77546
21
-2.09552
0
LINE
8
BLACK
6
CONTINUOUS
10
2.77546
20
-2.09552
11
2.77358
21
-2.09927
0
LINE
8
BLACK
6
CONTINUOUS
10
2.77358
20
-2.09927
11
2.77171
21
-2.10115
0
LINE
8
BLACK
6
CONTINUOUS
10
2.77171
20
-2.10115
11
2.76796
21
-2.10302
0
LINE
8
BLACK
6
CONTINUOUS
10
2.76796
20
-2.10302
11
2.75859
21
-2.10302
0
LINE
8
BLACK
6
CONTINUOUS
10
2.75859
20
-2.10302
11
2.75484
21
-2.10115
0
LINE
8
BLACK
6
CONTINUOUS
10
2.75484
20
-2.10115
11
2.75296
21
-2.09927
0
LINE
8
BLACK
6
CONTINUOUS
10
2.75296
20
-2.09927
11
2.75109
21
-2.09552
0
LINE
8
BLACK
6
CONTINUOUS
10
2.75109
20
-2.09552
11
2.75109
21
-2.08615
0
LINE
8
BLACK
6
CONTINUOUS
10
2.75109
20
-2.08615
11
2.75296
21
-2.0824
0
LINE
8
BLACK
6
CONTINUOUS
10
2.75296
20
-2.0824
11
2.75484
21
-2.08053
0
LINE
8
BLACK
6
CONTINUOUS
10
2.75109
20
-2.14989
11
2.77733
21
-2.14989
0
LINE
8
BLACK
6
CONTINUOUS
10
2.77358
20
-2.14989
11
2.77546
21
-2.15177
0
LINE
8
BLACK
6
CONTINUOUS
10
2.77546
20
-2.15177
11
2.77733
21
-2.15552
0
LINE
8
BLACK
6
CONTINUOUS
10
2.77733
20
-2.15552
11
2.77733
21
-2.16114
0
LINE
8
BLACK
6
CONTINUOUS
10
2.77733
20
-2.16114
11
2.77546
21
-2.16489
0
LINE
8
BLACK
6
CONTINUOUS
10
2.77546
20
-2.16489
11
2.77171
21
-2.16677
0
LINE
8
BLACK
6
CONTINUOUS
10
2.77171
20
-2.16677
11
2.75109
21
-2.16677
0
LINE
8
BLACK
6
CONTINUOUS
10
2.77171
20
-2.16677
11
2.77546
21
-2.16864
0
LINE
8
BLACK
6
CONTINUOUS
10
2.77546
20
-2.16864
11
2.77733
21
-2.17239
0
LINE
8
BLACK
6
CONTINUOUS
10
2.77733
20
-2.17239
11
2.77733
21
-2.17801
0
LINE
8
BLACK
6
CONTINUOUS
10
2.77733
20
-2.17801
11
2.77546
21
-2.18176
0
LINE
8
BLACK
6
CONTINUOUS
10
2.77546
20
-2.18176
11
2.77171
21
-2.18364
0
LINE
8
BLACK
6
CONTINUOUS
10
2.77171
20
-2.18364
11
2.75109
21
-2.18364
0
LINE
8
BLACK
6
CONTINUOUS
10
2.75109
20
-2.20239
11
2.77733
21
-2.20239
0
LINE
8
BLACK
6
CONTINUOUS
10
2.77358
20
-2.20239
11
2.77546
21
-2.20426
0
LINE
8
BLACK
6
CONTINUOUS
10
2.77546
20
-2.20426
11
2.77733
21
-2.20801
0
LINE
8
BLACK
6
CONTINUOUS
10
2.77733
20
-2.20801
11
2.77733
21
-2.21363
0
LINE
8
BLACK
6
CONTINUOUS
10
2.77733
20
-2.21363
11
2.77546
21
-2.21738
0
LINE
8
BLACK
6
CONTINUOUS
10
2.77546
20
-2.21738
11
2.77171
21
-2.21926
0
LINE
8
BLACK
6
CONTINUOUS
10
2.77171
20
-2.21926
11
2.75109
21
-2.21926
0
LINE
8
BLACK
6
CONTINUOUS
10
2.77171
20
-2.21926
11
2.77546
21
-2.22113
0
LINE
8
BLACK
6
CONTINUOUS
10
2.77546
20
-2.22113
11
2.77733
21
-2.22488
0
LINE
8
BLACK
6
CONTINUOUS
10
2.77733
20
-2.22488
11
2.77733
21
-2.23051
0
LINE
8
BLACK
6
CONTINUOUS
10
2.77733
20
-2.23051
11
2.77546
21
-2.23426
0
LINE
8
BLACK
6
CONTINUOUS
10
2.77546
20
-2.23426
11
2.77171
21
-2.23613
0
LINE
8
BLACK
6
CONTINUOUS
10
2.77171
20
-2.23613
11
2.75109
21
-2.23613
0
LINE
8
BLACK
6
CONTINUOUS
10
2.81614
20
-0.376969
11
2.81614
21
-3.77283
0
LINE
8
BLACK
6
CONTINUOUS
10
2.97736
20
-0.376969
11
2.79305
21
-0.376969
0
LINE
8
BLACK
6
CONTINUOUS
10
2.97736
20
-3.77283
11
2.79305
21
-3.77283
0
LINE
8
BLACK
6
CONTINUOUS
10
2.81614
20
-3.77283
11
2.79305
21
-3.72848
0
LINE
8
BLACK
6
CONTINUOUS
10
2.81614
20
-3.77283
11
2.83923
21
-3.72848
0
LINE
8
BLACK
6
CONTINUOUS
10
2.81614
20
-0.376969
11
2.79305
21
-0.421319
0
LINE
8
BLACK
6
CONTINUOUS
10
2.81614
20
-0.376969
11
2.83923
21
-0.421319
0
LINE
8
BLACK
6
CONTINUOUS
10
3.26264
20
-0.264267
11
3.24014
21
-0.264267
0
LINE
8
BLACK
6
CONTINUOUS
10
3.25139
20
-0.264267
11
3.25139
21
-0.224897
0
LINE
8
BLACK
6
CONTINUOUS
10
3.25139
20
-0.224897
11
3.24764
21
-0.230521
0
LINE
8
BLACK
6
CONTINUOUS
10
3.24764
20
-0.230521
11
3.24389
21
-0.234271
0
LINE
8
BLACK
6
CONTINUOUS
10
3.24389
20
-0.234271
11
3.24014
21
-0.236145
0
LINE
8
BLACK
6
CONTINUOUS
10
3.28514
20
-0.24177
11
3.28139
21
-0.239895
0
LINE
8
BLACK
6
CONTINUOUS
10
3.28139
20
-0.239895
11
3.27951
21
-0.23802
0
LINE
8
BLACK
6
CONTINUOUS
10
3.27951
20
-0.23802
11
3.27764
21
-0.234271
0
LINE
8
BLACK
6
CONTINUOUS
10
3.27764
20
-0.234271
11
3.27764
21
-0.232396
0
LINE
8
BLACK
6
CONTINUOUS
10
3.27764
20
-0.232396
11
3.27951
21
-0.228646
0
LINE
8
BLACK
6
CONTINUOUS
10
3.27951
20
-0.228646
11
3.28139
21
-0.226772
0
LINE
8
BLACK
6
CONTINUOUS
10
3.28139
20
-0.226772
11
3.28514
21
-0.224897
0
LINE
8
BLACK
6
CONTINUOUS
10
3.28514
20
-0.224897
11
3.29264
21
-0.224897
0
LINE
8
BLACK
6
CONTINUOUS
10
3.29264
20
-0.224897
11
3.29639
21
-0.226772
0
LINE
8
BLACK
6
CONTINUOUS
10
3.29639
20
-0.226772
11
3.29826
21
-0.228646
0
LINE
8
BLACK
6
CONTINUOUS
10
3.29826
20
-0.228646
11
3.30014
21
-0.232396
0
LINE
8
BLACK
6
CONTINUOUS
10
3.30014
20
-0.232396
11
3.30014
21
-0.234271
0
LINE
8
BLACK
6
CONTINUOUS
10
3.30014
20
-0.234271
11
3.29826
21
-0.23802
0
LINE
8
BLACK
6
CONTINUOUS
10
3.29826
20
-0.23802
11
3.29639
21
-0.239895
0
LINE
8
BLACK
6
CONTINUOUS
10
3.29639
20
-0.239895
11
3.29264
21
-0.24177
0
LINE
8
BLACK
6
CONTINUOUS
10
3.29264
20
-0.24177
11
3.28514
21
-0.24177
0
LINE
8
BLACK
6
CONTINUOUS
10
3.28514
20
-0.24177
11
3.28139
21
-0.243645
0
LINE
8
BLACK
6
CONTINUOUS
10
3.28139
20
-0.243645
11
3.27951
21
-0.245519
0
LINE
8
BLACK
6
CONTINUOUS
10
3.27951
20
-0.245519
11
3.27764
21
-0.249269
0
LINE
8
BLACK
6
CONTINUOUS
10
3.27764
20
-0.249269
11
3.27764
21
-0.256768
0
LINE
8
BLACK
6
CONTINUOUS
10
3.27764
20
-0.256768
11
3.27951
21
-0.260517
0
LINE
8
BLACK
6
CONTINUOUS
10
3.27951
20
-0.260517
11
3.28139
21
-0.262392
0
LINE
8
BLACK
6
CONTINUOUS
10
3.28139
20
-0.262392
11
3.28514
21
-0.264267
0
LINE
8
BLACK
6
CONTINUOUS
10
3.28514
20
-0.264267
11
3.29264
21
-0.264267
0
LINE
8
BLACK
6
CONTINUOUS
10
3.29264
20
-0.264267
11
3.29639
21
-0.262392
0
LINE
8
BLACK
6
CONTINUOUS
10
3.29639
20
-0.262392
11
3.29826
21
-0.260517
0
LINE
8
BLACK
6
CONTINUOUS
10
3.29826
20
-0.260517
11
3.30014
21
-0.256768
0
LINE
8
BLACK
6
CONTINUOUS
10
3.30014
20
-0.256768
11
3.30014
21
-0.249269
0
LINE
8
BLACK
6
CONTINUOUS
10
3.30014
20
-0.249269
11
3.29826
21
-0.245519
0
LINE
8
BLACK
6
CONTINUOUS
10
3.29826
20
-0.245519
11
3.29639
21
-0.243645
0
LINE
8
BLACK
6
CONTINUOUS
10
3.29639
20
-0.243645
11
3.29264
21
-0.24177
0
LINE
8
BLACK
6
CONTINUOUS
10
3.31701
20
-0.260517
11
3.31888
21
-0.262392
0
LINE
8
BLACK
6
CONTINUOUS
10
3.31888
20
-0.262392
11
3.31701
21
-0.264267
0
LINE
8
BLACK
6
CONTINUOUS
10
3.31701
20
-0.264267
11
3.31513
21
-0.262392
0
LINE
8
BLACK
6
CONTINUOUS
10
3.31513
20
-0.262392
11
3.31701
21
-0.260517
0
LINE
8
BLACK
6
CONTINUOUS
10
3.31701
20
-0.260517
11
3.31701
21
-0.264267
0
LINE
8
BLACK
6
CONTINUOUS
10
3.33201
20
-0.224897
11
3.35825
21
-0.224897
0
LINE
8
BLACK
6
CONTINUOUS
10
3.35825
20
-0.224897
11
3.34138
21
-0.264267
0
LINE
8
BLACK
6
CONTINUOUS
10
3.39012
20
-0.23802
11
3.39012
21
-0.264267
0
LINE
8
BLACK
6
CONTINUOUS
10
3.38075
20
-0.223022
11
3.37138
21
-0.251144
0
LINE
8
BLACK
6
CONTINUOUS
10
3.37138
20
-0.251144
11
3.39575
21
-0.251144
0
LINE
8
BLACK
6
CONTINUOUS
10
3.42949
20
-0.224897
11
3.41075
21
-0.224897
0
LINE
8
BLACK
6
CONTINUOUS
10
3.41075
20
-0.224897
11
3.40887
21
-0.243645
0
LINE
8
BLACK
6
CONTINUOUS
10
3.40887
20
-0.243645
11
3.41075
21
-0.24177
0
LINE
8
BLACK
6
CONTINUOUS
10
3.41075
20
-0.24177
11
3.4145
21
-0.239895
0
LINE
8
BLACK
6
CONTINUOUS
10
3.4145
20
-0.239895
11
3.42387
21
-0.239895
0
LINE
8
BLACK
6
CONTINUOUS
10
3.42387
20
-0.239895
11
3.42762
21
-0.24177
0
LINE
8
BLACK
6
CONTINUOUS
10
3.42762
20
-0.24177
11
3.42949
21
-0.243645
0
LINE
8
BLACK
6
CONTINUOUS
10
3.42949
20
-0.243645
11
3.43137
21
-0.247394
0
LINE
8
BLACK
6
CONTINUOUS
10
3.43137
20
-0.247394
11
3.43137
21
-0.256768
0
LINE
8
BLACK
6
CONTINUOUS
10
3.43137
20
-0.256768
11
3.42949
21
-0.260517
0
LINE
8
BLACK
6
CONTINUOUS
10
3.42949
20
-0.260517
11
3.42762
21
-0.262392
0
LINE
8
BLACK
6
CONTINUOUS
10
3.42762
20
-0.262392
11
3.42387
21
-0.264267
0
LINE
8
BLACK
6
CONTINUOUS
10
3.42387
20
-0.264267
11
3.4145
21
-0.264267
0
LINE
8
BLACK
6
CONTINUOUS
10
3.4145
20
-0.264267
11
3.41075
21
-0.262392
0
LINE
8
BLACK
6
CONTINUOUS
10
3.41075
20
-0.262392
11
3.40887
21
-0.260517
0
LINE
8
BLACK
6
CONTINUOUS
10
3.47824
20
-0.264267
11
3.47824
21
-0.23802
0
LINE
8
BLACK
6
CONTINUOUS
10
3.47824
20
-0.24177
11
3.48011
21
-0.239895
0
LINE
8
BLACK
6
CONTINUOUS
10
3.48011
20
-0.239895
11
3.48386
21
-0.23802
0
LINE
8
BLACK
6
CONTINUOUS
10
3.48386
20
-0.23802
11
3.48949
21
-0.23802
0
LINE
8
BLACK
6
CONTINUOUS
10
3.48949
20
-0.23802
11
3.49324
21
-0.239895
0
LINE
8
BLACK
6
CONTINUOUS
10
3.49324
20
-0.239895
11
3.49511
21
-0.243645
0
LINE
8
BLACK
6
CONTINUOUS
10
3.49511
20
-0.243645
11
3.49511
21
-0.264267
0
LINE
8
BLACK
6
CONTINUOUS
10
3.49511
20
-0.243645
11
3.49699
21
-0.239895
0
LINE
8
BLACK
6
CONTINUOUS
10
3.49699
20
-0.239895
11
3.50074
21
-0.23802
0
LINE
8
BLACK
6
CONTINUOUS
10
3.50074
20
-0.23802
11
3.50636
21
-0.23802
0
LINE
8
BLACK
6
CONTINUOUS
10
3.50636
20
-0.23802
11
3.51011
21
-0.239895
0
LINE
8
BLACK
6
CONTINUOUS
10
3.51011
20
-0.239895
11
3.51198
21
-0.243645
0
LINE
8
BLACK
6
CONTINUOUS
10
3.51198
20
-0.243645
11
3.51198
21
-0.264267
0
LINE
8
BLACK
6
CONTINUOUS
10
3.53073
20
-0.264267
11
3.53073
21
-0.23802
0
LINE
8
BLACK
6
CONTINUOUS
10
3.53073
20
-0.24177
11
3.53261
21
-0.239895
0
LINE
8
BLACK
6
CONTINUOUS
10
3.53261
20
-0.239895
11
3.53636
21
-0.23802
0
LINE
8
BLACK
6
CONTINUOUS
10
3.53636
20
-0.23802
11
3.54198
21
-0.23802
0
LINE
8
BLACK
6
CONTINUOUS
10
3.54198
20
-0.23802
11
3.54573
21
-0.239895
0
LINE
8
BLACK
6
CONTINUOUS
10
3.54573
20
-0.239895
11
3.5476
21
-0.243645
0
LINE
8
BLACK
6
CONTINUOUS
10
3.5476
20
-0.243645
11
3.5476
21
-0.264267
0
LINE
8
BLACK
6
CONTINUOUS
10
3.5476
20
-0.243645
11
3.54948
21
-0.239895
0
LINE
8
BLACK
6
CONTINUOUS
10
3.54948
20
-0.239895
11
3.55323
21
-0.23802
0
LINE
8
BLACK
6
CONTINUOUS
10
3.55323
20
-0.23802
11
3.55885
21
-0.23802
0
LINE
8
BLACK
6
CONTINUOUS
10
3.55885
20
-0.23802
11
3.5626
21
-0.239895
0
LINE
8
BLACK
6
CONTINUOUS
10
3.5626
20
-0.239895
11
3.56448
21
-0.243645
0
LINE
8
BLACK
6
CONTINUOUS
10
3.56448
20
-0.243645
11
3.56448
21
-0.264267
0
LINE
8
BLACK
6
CONTINUOUS
10
3.77224
20
-0.293701
11
3.03425
21
-0.293701
0
LINE
8
BLACK
6
CONTINUOUS
10
3.77224
20
-0.359449
11
3.77224
21
-0.270613
0
LINE
8
BLACK
6
CONTINUOUS
10
3.03425
20
-0.359449
11
3.03425
21
-0.270613
0
LINE
8
BLACK
6
CONTINUOUS
10
3.03425
20
-0.293701
11
3.0786
21
-0.270613
0
LINE
8
BLACK
6
CONTINUOUS
10
3.03425
20
-0.293701
11
3.0786
21
-0.316788
0
LINE
8
BLACK
6
CONTINUOUS
10
3.77224
20
-0.293701
11
3.72789
21
-0.270613
0
LINE
8
BLACK
6
CONTINUOUS
10
3.77224
20
-0.293701
11
3.72789
21
-0.316788
0
ARC
8
BLACK
10
3.05492
20
-3.75217
40
0.020703
50
-183.27
51
-93.2705
0
LINE
8
BLACK
6
CONTINUOUS
10
3.05374
20
-3.77283
11
3.58406
21
-3.77283
0
ARC
8
BLACK
10
3.58287
20
-3.7935
40
0.020703
50
-3.27044
51
86.7295
0
ARC
8
BLACK
10
3.05492
20
-0.397638
40
0.020703
50
86.7295
51
176.73
0
ARC
8
BLACK
10
4.02382
20
-4.44311
40
0.020703
50
-93.2705
51
-3.27049
0
ARC
8
BLACK
10
3.75157
20
-0.397638
40
0.020703
50
-3.27049
51
86.7295
0
LINE
8
BLACK
6
CONTINUOUS
10
3.03425
20
-3.75098
11
3.03425
21
-0.396457
0
LINE
8
BLACK
6
CONTINUOUS
10
4.02264
20
-4.46378
11
3.62303
21
-4.46378
0
LINE
8
BLACK
6
CONTINUOUS
10
4.04449
20
-4.44429
11
4.04449
21
-3.77283
0
LINE
8
BLACK
6
CONTINUOUS
10
3.77224
20
-3.25
11
4.04449
21
-3.77283
0
LINE
8
BLACK
6
CONTINUOUS
10
3.77224
20
-0.398819
11
3.77224
21
-3.25
0
LINE
8
BLACK
6
CONTINUOUS
10
3.0561
20
-0.376969
11
3.75276
21
-0.376969
0
ARC
8
BLACK
10
3.62421
20
-4.44311
40
0.020703
50
-183.27
51
-93.2705
0
LINE
8
BLACK
6
CONTINUOUS
10
3.60354
20
-4.44429
11
3.60354
21
-3.79469
0
LINE
8
BLACK
6
CONTINUOUS
10
4.81181
20
-4.44429
11
4.81181
21
-3.79232
0
ARC
8
BLACK
10
4.83248
20
-3.7935
40
0.020703
50
86.7295
51
176.73
0
LINE
8
BLACK
6
CONTINUOUS
10
4.40217
20
-0.376969
11
5.09882
21
-0.376969
0
LINE
8
BLACK
6
CONTINUOUS
10
5.11831
20
-0.398819
11
5.11831
21
-3.25
0
LINE
8
BLACK
6
CONTINUOUS
10
5.11831
20
-3.25
11
5.39055
21
-3.77283
0
LINE
8
BLACK
6
CONTINUOUS
10
4.83366
20
-3.77283
11
5.39055
21
-3.77283
0
LINE
8
BLACK
6
CONTINUOUS
10
4.78996
20
-4.46378
11
4.3998
21
-4.46378
0
LINE
8
BLACK
6
CONTINUOUS
10
4.38031
20
-4.44193
11
4.38031
21
-0.396457
0
ARC
8
BLACK
10
4.40098
20
-4.44311
40
0.020703
50
-183.27
51
-93.2705
0
ARC
8
BLACK
10
4.79114
20
-4.44311
40
0.020703
50
-93.2705
51
-3.27049
0
ARC
8
BLACK
10
5.09764
20
-0.397638
40
0.020703
50
-3.27049
51
86.7295
0
ARC
8
BLACK
10
4.40098
20
-0.397638
40
0.020703
50
86.7295
51
176.73
0
LINE
8
BLACK
6
CONTINUOUS
10
4.89073
20
-3.55989
11
4.89511
21
-3.56076
0
LINE
8
BLACK
6
CONTINUOUS
10
4.89511
20
-3.56076
11
4.90335
21
-3.56417
0
LINE
8
BLACK
6
CONTINUOUS
10
4.90335
20
-3.56417
11
4.91078
21
-3.56913
0
LINE
8
BLACK
6
CONTINUOUS
10
4.91078
20
-3.56913
11
4.91709
21
-3.57544
0
LINE
8
BLACK
6
CONTINUOUS
10
4.91709
20
-3.57544
11
4.92205
21
-3.58287
0
LINE
8
BLACK
6
CONTINUOUS
10
4.92205
20
-3.58287
11
4.92546
21
-3.59111
0
LINE
8
BLACK
6
CONTINUOUS
10
4.92546
20
-3.59111
11
4.9272
21
-3.59987
0
LINE
8
BLACK
6
CONTINUOUS
10
4.9272
20
-3.59987
11
4.9272
21
-3.60879
0
LINE
8
BLACK
6
CONTINUOUS
10
4.9272
20
-3.60879
11
4.92546
21
-3.61755
0
LINE
8
BLACK
6
CONTINUOUS
10
4.92546
20
-3.61755
11
4.92205
21
-3.6258
0
LINE
8
BLACK
6
CONTINUOUS
10
4.92205
20
-3.6258
11
4.91709
21
-3.63322
0
LINE
8
BLACK
6
CONTINUOUS
10
4.91709
20
-3.63322
11
4.91078
21
-3.63953
0
LINE
8
BLACK
6
CONTINUOUS
10
4.91078
20
-3.63953
11
4.90335
21
-3.64449
0
LINE
8
BLACK
6
CONTINUOUS
10
4.90335
20
-3.64449
11
4.89511
21
-3.6479
0
LINE
8
BLACK
6
CONTINUOUS
10
4.89511
20
-3.6479
11
4.89073
21
-3.64877
0
LINE
8
BLACK
6
CONTINUOUS
10
4.89073
20
-3.64877
11
4.88635
21
-3.64965
0
LINE
8
BLACK
6
CONTINUOUS
10
4.88635
20
-3.64965
11
4.87743
21
-3.64965
0
LINE
8
BLACK
6
CONTINUOUS
10
4.87743
20
-3.64965
11
4.87305
21
-3.64877
0
LINE
8
BLACK
6
CONTINUOUS
10
4.87305
20
-3.64877
11
4.86867
21
-3.6479
0
LINE
8
BLACK
6
CONTINUOUS
10
4.86867
20
-3.6479
11
4.86043
21
-3.64449
0
LINE
8
BLACK
6
CONTINUOUS
10
4.86043
20
-3.64449
11
4.853
21
-3.63953
0
LINE
8
BLACK
6
CONTINUOUS
10
4.853
20
-3.63953
11
4.84669
21
-3.63322
0
LINE
8
BLACK
6
CONTINUOUS
10
4.84669
20
-3.63322
11
4.84173
21
-3.6258
0
LINE
8
BLACK
6
CONTINUOUS
10
4.84173
20
-3.6258
11
4.83832
21
-3.61755
0
LINE
8
BLACK
6
CONTINUOUS
10
4.83832
20
-3.61755
11
4.83657
21
-3.60879
0
LINE
8
BLACK
6
CONTINUOUS
10
4.83657
20
-3.60879
11
4.83657
21
-3.59987
0
LINE
8
BLACK
6
CONTINUOUS
10
4.83657
20
-3.59987
11
4.83832
21
-3.59111
0
LINE
8
BLACK
6
CONTINUOUS
10
4.83832
20
-3.59111
11
4.84173
21
-3.58287
0
LINE
8
BLACK
6
CONTINUOUS
10
4.84173
20
-3.58287
11
4.84669
21
-3.57544
0
LINE
8
BLACK
6
CONTINUOUS
10
4.84669
20
-3.57544
11
4.853
21
-3.56913
0
LINE
8
BLACK
6
CONTINUOUS
10
4.853
20
-3.56913
11
4.86043
21
-3.56417
0
LINE
8
BLACK
6
CONTINUOUS
10
4.86043
20
-3.56417
11
4.86867
21
-3.56076
0
LINE
8
BLACK
6
CONTINUOUS
10
4.86867
20
-3.56076
11
4.87305
21
-3.55989
0
LINE
8
BLACK
6
CONTINUOUS
10
4.87305
20
-3.55989
11
4.87743
21
-3.55902
0
LINE
8
BLACK
6
CONTINUOUS
10
4.87743
20
-3.55902
11
4.88635
21
-3.55902
0
LINE
8
BLACK
6
CONTINUOUS
10
4.88635
20
-3.55902
11
4.89073
21
-3.55989
0
LINE
8
BLACK
6
CONTINUOUS
10
3.54467
20
-3.55989
11
3.54904
21
-3.56076
0
LINE
8
BLACK
6
CONTINUOUS
10
3.54904
20
-3.56076
11
3.55729
21
-3.56417
0
LINE
8
BLACK
6
CONTINUOUS
10
3.55729
20
-3.56417
11
3.56471
21
-3.56913
0
LINE
8
BLACK
6
CONTINUOUS
10
3.56471
20
-3.56913
11
3.57103
21
-3.57544
0
LINE
8
BLACK
6
CONTINUOUS
10
3.57103
20
-3.57544
11
3.57598
21
-3.58287
0
LINE
8
BLACK
6
CONTINUOUS
10
3.57598
20
-3.58287
11
3.5794
21
-3.59111
0
LINE
8
BLACK
6
CONTINUOUS
10
3.5794
20
-3.59111
11
3.58114
21
-3.59987
0
LINE
8
BLACK
6
CONTINUOUS
10
3.58114
20
-3.59987
11
3.58114
21
-3.60879
0
LINE
8
BLACK
6
CONTINUOUS
10
3.58114
20
-3.60879
11
3.5794
21
-3.61755
0
LINE
8
BLACK
6
CONTINUOUS
10
3.5794
20
-3.61755
11
3.57598
21
-3.6258
0
LINE
8
BLACK
6
CONTINUOUS
10
3.57598
20
-3.6258
11
3.57103
21
-3.63322
0
LINE
8
BLACK
6
CONTINUOUS
10
3.57103
20
-3.63322
11
3.56471
21
-3.63953
0
LINE
8
BLACK
6
CONTINUOUS
10
3.56471
20
-3.63953
11
3.55729
21
-3.64449
0
LINE
8
BLACK
6
CONTINUOUS
10
3.55729
20
-3.64449
11
3.54904
21
-3.6479
0
LINE
8
BLACK
6
CONTINUOUS
10
3.54904
20
-3.6479
11
3.54467
21
-3.64877
0
LINE
8
BLACK
6
CONTINUOUS
10
3.54467
20
-3.64877
11
3.54029
21
-3.64965
0
LINE
8
BLACK
6
CONTINUOUS
10
3.54029
20
-3.64965
11
3.53136
21
-3.64965
0
LINE
8
BLACK
6
CONTINUOUS
10
3.53136
20
-3.64965
11
3.52699
21
-3.64877
0
LINE
8
BLACK
6
CONTINUOUS
10
3.52699
20
-3.64877
11
3.52261
21
-3.6479
0
LINE
8
BLACK
6
CONTINUOUS
10
3.52261
20
-3.6479
11
3.51436
21
-3.64449
0
LINE
8
BLACK
6
CONTINUOUS
10
3.51436
20
-3.64449
11
3.50694
21
-3.63953
0
LINE
8
BLACK
6
CONTINUOUS
10
3.50694
20
-3.63953
11
3.50063
21
-3.63322
0
LINE
8
BLACK
6
CONTINUOUS
10
3.50063
20
-3.63322
11
3.49567
21
-3.6258
0
LINE
8
BLACK
6
CONTINUOUS
10
3.49567
20
-3.6258
11
3.49225
21
-3.61755
0
LINE
8
BLACK
6
CONTINUOUS
10
3.49225
20
-3.61755
11
3.49051
21
-3.60879
0
LINE
8
BLACK
6
CONTINUOUS
10
3.49051
20
-3.60879
11
3.49051
21
-3.59987
0
LINE
8
BLACK
6
CONTINUOUS
10
3.49051
20
-3.59987
11
3.49225
21
-3.59111
0
LINE
8
BLACK
6
CONTINUOUS
10
3.49225
20
-3.59111
11
3.49567
21
-3.58287
0
LINE
8
BLACK
6
CONTINUOUS
10
3.49567
20
-3.58287
11
3.50063
21
-3.57544
0
LINE
8
BLACK
6
CONTINUOUS
10
3.50063
20
-3.57544
11
3.50694
21
-3.56913
0
LINE
8
BLACK
6
CONTINUOUS
10
3.50694
20
-3.56913
11
3.51436
21
-3.56417
0
LINE
8
BLACK
6
CONTINUOUS
10
3.51436
20
-3.56417
11
3.52261
21
-3.56076
0
LINE
8
BLACK
6
CONTINUOUS
10
3.52261
20
-3.56076
11
3.52699
21
-3.55989
0
LINE
8
BLACK
6
CONTINUOUS
10
3.52699
20
-3.55989
11
3.53136
21
-3.55902
0
LINE
8
BLACK
6
CONTINUOUS
10
3.53136
20
-3.55902
11
3.54029
21
-3.55902
0
LINE
8
BLACK
6
CONTINUOUS
10
3.54029
20
-3.55902
11
3.54467
21
-3.55989
0
LINE
8
BLACK
6
CONTINUOUS
10
5.03266
20
-2.23873
11
5.03704
21
-2.2396
0
LINE
8
BLACK
6
CONTINUOUS
10
5.03704
20
-2.2396
11
5.04528
21
-2.24301
0
LINE
8
BLACK
6
CONTINUOUS
10
5.04528
20
-2.24301
11
5.05271
21
-2.24797
0
LINE
8
BLACK
6
CONTINUOUS
10
5.05271
20
-2.24797
11
5.05902
21
-2.25428
0
LINE
8
BLACK
6
CONTINUOUS
10
5.05902
20
-2.25428
11
5.06398
21
-2.2617
0
LINE
8
BLACK
6
CONTINUOUS
10
5.06398
20
-2.2617
11
5.06739
21
-2.26995
0
LINE
8
BLACK
6
CONTINUOUS
10
5.06739
20
-2.26995
11
5.06913
21
-2.27871
0
LINE
8
BLACK
6
CONTINUOUS
10
5.06913
20
-2.27871
11
5.06913
21
-2.28763
0
LINE
8
BLACK
6
CONTINUOUS
10
5.06913
20
-2.28763
11
5.06739
21
-2.29639
0
LINE
8
BLACK
6
CONTINUOUS
10
5.06739
20
-2.29639
11
5.06398
21
-2.30463
0
LINE
8
BLACK
6
CONTINUOUS
10
5.06398
20
-2.30463
11
5.05902
21
-2.31206
0
LINE
8
BLACK
6
CONTINUOUS
10
5.05902
20
-2.31206
11
5.05271
21
-2.31837
0
LINE
8
BLACK
6
CONTINUOUS
10
5.05271
20
-2.31837
11
5.04528
21
-2.32333
0
LINE
8
BLACK
6
CONTINUOUS
10
5.04528
20
-2.32333
11
5.03704
21
-2.32674
0
LINE
8
BLACK
6
CONTINUOUS
10
5.03704
20
-2.32674
11
5.03266
21
-2.32761
0
LINE
8
BLACK
6
CONTINUOUS
10
5.03266
20
-2.32761
11
5.02828
21
-2.32848
0
LINE
8
BLACK
6
CONTINUOUS
10
5.02828
20
-2.32848
11
5.01936
21
-2.32848
0
LINE
8
BLACK
6
CONTINUOUS
10
5.01936
20
-2.32848
11
5.01498
21
-2.32761
0
LINE
8
BLACK
6
CONTINUOUS
10
5.01498
20
-2.32761
11
5.0106
21
-2.32674
0
LINE
8
BLACK
6
CONTINUOUS
10
5.0106
20
-2.32674
11
5.00235
21
-2.32333
0
LINE
8
BLACK
6
CONTINUOUS
10
5.00235
20
-2.32333
11
4.99493
21
-2.31837
0
LINE
8
BLACK
6
CONTINUOUS
10
4.99493
20
-2.31837
11
4.98862
21
-2.31206
0
LINE
8
BLACK
6
CONTINUOUS
10
4.98862
20
-2.31206
11
4.98366
21
-2.30463
0
LINE
8
BLACK
6
CONTINUOUS
10
4.98366
20
-2.30463
11
4.98025
21
-2.29639
0
LINE
8
BLACK
6
CONTINUOUS
10
4.98025
20
-2.29639
11
4.9785
21
-2.28763
0
LINE
8
BLACK
6
CONTINUOUS
10
4.9785
20
-2.28763
11
4.9785
21
-2.27871
0
LINE
8
BLACK
6
CONTINUOUS
10
4.9785
20
-2.27871
11
4.98025
21
-2.26995
0
LINE
8
BLACK
6
CONTINUOUS
10
4.98025
20
-2.26995
11
4.98366
21
-2.2617
0
LINE
8
BLACK
6
CONTINUOUS
10
4.98366
20
-2.2617
11
4.98862
21
-2.25428
0
LINE
8
BLACK
6
CONTINUOUS
10
4.98862
20
-2.25428
11
4.99493
21
-2.24797
0
LINE
8
BLACK
6
CONTINUOUS
10
4.99493
20
-2.24797
11
5.00235
21
-2.24301
0
LINE
8
BLACK
6
CONTINUOUS
10
5.00235
20
-2.24301
11
5.0106
21
-2.2396
0
LINE
8
BLACK
6
CONTINUOUS
10
5.0106
20
-2.2396
11
5.01498
21
-2.23873
0
LINE
8
BLACK
6
CONTINUOUS
10
5.01498
20
-2.23873
11
5.01936
21
-2.23785
0
LINE
8
BLACK
6
CONTINUOUS
10
5.01936
20
-2.23785
11
5.02828
21
-2.23785
0
LINE
8
BLACK
6
CONTINUOUS
10
5.02828
20
-2.23785
11
5.03266
21
-2.23873
0
LINE
8
BLACK
6
CONTINUOUS
10
4.52085
20
-2.23873
11
4.52523
21
-2.2396
0
LINE
8
BLACK
6
CONTINUOUS
10
4.52523
20
-2.2396
11
4.53347
21
-2.24301
0
LINE
8
BLACK
6
CONTINUOUS
10
4.53347
20
-2.24301
11
4.54089
21
-2.24797
0
LINE
8
BLACK
6
CONTINUOUS
10
4.54089
20
-2.24797
11
4.54721
21
-2.25428
0
LINE
8
BLACK
6
CONTINUOUS
10
4.54721
20
-2.25428
11
4.55217
21
-2.2617
0
LINE
8
BLACK
6
CONTINUOUS
10
4.55217
20
-2.2617
11
4.55558
21
-2.26995
0
LINE
8
BLACK
6
CONTINUOUS
10
4.55558
20
-2.26995
11
4.55732
21
-2.27871
0
LINE
8
BLACK
6
CONTINUOUS
10
4.55732
20
-2.27871
11
4.55732
21
-2.28763
0
LINE
8
BLACK
6
CONTINUOUS
10
4.55732
20
-2.28763
11
4.55558
21
-2.29639
0
LINE
8
BLACK
6
CONTINUOUS
10
4.55558
20
-2.29639
11
4.55217
21
-2.30463
0
LINE
8
BLACK
6
CONTINUOUS
10
4.55217
20
-2.30463
11
4.54721
21
-2.31206
0
LINE
8
BLACK
6
CONTINUOUS
10
4.54721
20
-2.31206
11
4.54089
21
-2.31837
0
LINE
8
BLACK
6
CONTINUOUS
10
4.54089
20
-2.31837
11
4.53347
21
-2.32333
0
LINE
8
BLACK
6
CONTINUOUS
10
4.53347
20
-2.32333
11
4.52523
21
-2.32674
0
LINE
8
BLACK
6
CONTINUOUS
10
4.52523
20
-2.32674
11
4.52085
21
-2.32761
0
LINE
8
BLACK
6
CONTINUOUS
10
4.52085
20
-2.32761
11
4.51647
21
-2.32848
0
LINE
8
BLACK
6
CONTINUOUS
10
4.51647
20
-2.32848
11
4.50754
21
-2.32848
0
LINE
8
BLACK
6
CONTINUOUS
10
4.50754
20
-2.32848
11
4.50317
21
-2.32761
0
LINE
8
BLACK
6
CONTINUOUS
10
4.50317
20
-2.32761
11
4.49879
21
-2.32674
0
LINE
8
BLACK
6
CONTINUOUS
10
4.49879
20
-2.32674
11
4.49054
21
-2.32333
0
LINE
8
BLACK
6
CONTINUOUS
10
4.49054
20
-2.32333
11
4.48312
21
-2.31837
0
LINE
8
BLACK
6
CONTINUOUS
10
4.48312
20
-2.31837
11
4.47681
21
-2.31206
0
LINE
8
BLACK
6
CONTINUOUS
10
4.47681
20
-2.31206
11
4.47185
21
-2.30463
0
LINE
8
BLACK
6
CONTINUOUS
10
4.47185
20
-2.30463
11
4.46843
21
-2.29639
0
LINE
8
BLACK
6
CONTINUOUS
10
4.46843
20
-2.29639
11
4.46669
21
-2.28763
0
LINE
8
BLACK
6
CONTINUOUS
10
4.46669
20
-2.28763
11
4.46669
21
-2.27871
0
LINE
8
BLACK
6
CONTINUOUS
10
4.46669
20
-2.27871
11
4.46843
21
-2.26995
0
LINE
8
BLACK
6
CONTINUOUS
10
4.46843
20
-2.26995
11
4.47185
21
-2.2617
0
LINE
8
BLACK
6
CONTINUOUS
10
4.47185
20
-2.2617
11
4.47681
21
-2.25428
0
LINE
8
BLACK
6
CONTINUOUS
10
4.47681
20
-2.25428
11
4.48312
21
-2.24797
0
LINE
8
BLACK
6
CONTINUOUS
10
4.48312
20
-2.24797
11
4.49054
21
-2.24301
0
LINE
8
BLACK
6
CONTINUOUS
10
4.49054
20
-2.24301
11
4.49879
21
-2.2396
0
LINE
8
BLACK
6
CONTINUOUS
10
4.49879
20
-2.2396
11
4.50317
21
-2.23873
0
LINE
8
BLACK
6
CONTINUOUS
10
4.50317
20
-2.23873
11
4.50754
21
-2.23785
0
LINE
8
BLACK
6
CONTINUOUS
10
4.50754
20
-2.23785
11
4.51647
21
-2.23785
0
LINE
8
BLACK
6
CONTINUOUS
10
4.51647
20
-2.23785
11
4.52085
21
-2.23873
0
LINE
8
BLACK
6
CONTINUOUS
10
3.6866
20
-2.23873
11
3.69097
21
-2.2396
0
LINE
8
BLACK
6
CONTINUOUS
10
3.69097
20
-2.2396
11
3.69922
21
-2.24301
0
LINE
8
BLACK
6
CONTINUOUS
10
3.69922
20
-2.24301
11
3.70664
21
-2.24797
0
LINE
8
BLACK
6
CONTINUOUS
10
3.70664
20
-2.24797
11
3.71295
21
-2.25428
0
LINE
8
BLACK
6
CONTINUOUS
10
3.71295
20
-2.25428
11
3.71791
21
-2.2617
0
LINE
8
BLACK
6
CONTINUOUS
10
3.71791
20
-2.2617
11
3.72133
21
-2.26995
0
LINE
8
BLACK
6
CONTINUOUS
10
3.72133
20
-2.26995
11
3.72307
21
-2.27871
0
LINE
8
BLACK
6
CONTINUOUS
10
3.72307
20
-2.27871
11
3.72307
21
-2.28763
0
LINE
8
BLACK
6
CONTINUOUS
10
3.72307
20
-2.28763
11
3.72133
21
-2.29639
0
LINE
8
BLACK
6
CONTINUOUS
10
3.72133
20
-2.29639
11
3.71791
21
-2.30463
0
LINE
8
BLACK
6
CONTINUOUS
10
3.71791
20
-2.30463
11
3.71295
21
-2.31206
0
LINE
8
BLACK
6
CONTINUOUS
10
3.71295
20
-2.31206
11
3.70664
21
-2.31837
0
LINE
8
BLACK
6
CONTINUOUS
10
3.70664
20
-2.31837
11
3.69922
21
-2.32333
0
LINE
8
BLACK
6
CONTINUOUS
10
3.69922
20
-2.32333
11
3.69097
21
-2.32674
0
LINE
8
BLACK
6
CONTINUOUS
10
3.69097
20
-2.32674
11
3.6866
21
-2.32761
0
LINE
8
BLACK
6
CONTINUOUS
10
3.6866
20
-2.32761
11
3.68222
21
-2.32848
0
LINE
8
BLACK
6
CONTINUOUS
10
3.68222
20
-2.32848
11
3.67329
21
-2.32848
0
LINE
8
BLACK
6
CONTINUOUS
10
3.67329
20
-2.32848
11
3.66892
21
-2.32761
0
LINE
8
BLACK
6
CONTINUOUS
10
3.66892
20
-2.32761
11
3.66454
21
-2.32674
0
LINE
8
BLACK
6
CONTINUOUS
10
3.66454
20
-2.32674
11
3.65629
21
-2.32333
0
LINE
8
BLACK
6
CONTINUOUS
10
3.65629
20
-2.32333
11
3.64887
21
-2.31837
0
LINE
8
BLACK
6
CONTINUOUS
10
3.64887
20
-2.31837
11
3.64256
21
-2.31206
0
LINE
8
BLACK
6
CONTINUOUS
10
3.64256
20
-2.31206
11
3.6376
21
-2.30463
0
LINE
8
BLACK
6
CONTINUOUS
10
3.6376
20
-2.30463
11
3.63418
21
-2.29639
0
LINE
8
BLACK
6
CONTINUOUS
10
3.63418
20
-2.29639
11
3.63244
21
-2.28763
0
LINE
8
BLACK
6
CONTINUOUS
10
3.63244
20
-2.28763
11
3.63244
21
-2.27871
0
LINE
8
BLACK
6
CONTINUOUS
10
3.63244
20
-2.27871
11
3.63418
21
-2.26995
0
LINE
8
BLACK
6
CONTINUOUS
10
3.63418
20
-2.26995
11
3.6376
21
-2.2617
0
LINE
8
BLACK
6
CONTINUOUS
10
3.6376
20
-2.2617
11
3.64256
21
-2.25428
0
LINE
8
BLACK
6
CONTINUOUS
10
3.64256
20
-2.25428
11
3.64887
21
-2.24797
0
LINE
8
BLACK
6
CONTINUOUS
10
3.64887
20
-2.24797
11
3.65629
21
-2.24301
0
LINE
8
BLACK
6
CONTINUOUS
10
3.65629
20
-2.24301
11
3.66454
21
-2.2396
0
LINE
8
BLACK
6
CONTINUOUS
10
3.66454
20
-2.2396
11
3.66892
21
-2.23873
0
LINE
8
BLACK
6
CONTINUOUS
10
3.66892
20
-2.23873
11
3.67329
21
-2.23785
0
LINE
8
BLACK
6
CONTINUOUS
10
3.67329
20
-2.23785
11
3.68222
21
-2.23785
0
LINE
8
BLACK
6
CONTINUOUS
10
3.68222
20
-2.23785
11
3.6866
21
-2.23873
0
LINE
8
BLACK
6
CONTINUOUS
10
3.17479
20
-2.23873
11
3.17916
21
-2.2396
0
LINE
8
BLACK
6
CONTINUOUS
10
3.17916
20
-2.2396
11
3.18741
21
-2.24301
0
LINE
8
BLACK
6
CONTINUOUS
10
3.18741
20
-2.24301
11
3.19483
21
-2.24797
0
LINE
8
BLACK
6
CONTINUOUS
10
3.19483
20
-2.24797
11
3.20114
21
-2.25428
0
LINE
8
BLACK
6
CONTINUOUS
10
3.20114
20
-2.25428
11
3.2061
21
-2.2617
0
LINE
8
BLACK
6
CONTINUOUS
10
3.2061
20
-2.2617
11
3.20952
21
-2.26995
0
LINE
8
BLACK
6
CONTINUOUS
10
3.20952
20
-2.26995
11
3.21126
21
-2.27871
0
LINE
8
BLACK
6
CONTINUOUS
10
3.21126
20
-2.27871
11
3.21126
21
-2.28763
0
LINE
8
BLACK
6
CONTINUOUS
10
3.21126
20
-2.28763
11
3.20952
21
-2.29639
0
LINE
8
BLACK
6
CONTINUOUS
10
3.20952
20
-2.29639
11
3.2061
21
-2.30463
0
LINE
8
BLACK
6
CONTINUOUS
10
3.2061
20
-2.30463
11
3.20114
21
-2.31206
0
LINE
8
BLACK
6
CONTINUOUS
10
3.20114
20
-2.31206
11
3.19483
21
-2.31837
0
LINE
8
BLACK
6
CONTINUOUS
10
3.19483
20
-2.31837
11
3.18741
21
-2.32333
0
LINE
8
BLACK
6
CONTINUOUS
10
3.18741
20
-2.32333
11
3.17916
21
-2.32674
0
LINE
8
BLACK
6
CONTINUOUS
10
3.17916
20
-2.32674
11
3.17479
21
-2.32761
0
LINE
8
BLACK
6
CONTINUOUS
10
3.17479
20
-2.32761
11
3.17041
21
-2.32848
0
LINE
8
BLACK
6
CONTINUOUS
10
3.17041
20
-2.32848
11
3.16148
21
-2.32848
0
LINE
8
BLACK
6
CONTINUOUS
10
3.16148
20
-2.32848
11
3.1571
21
-2.32761
0
LINE
8
BLACK
6
CONTINUOUS
10
3.1571
20
-2.32761
11
3.15273
21
-2.32674
0
LINE
8
BLACK
6
CONTINUOUS
10
3.15273
20
-2.32674
11
3.14448
21
-2.32333
0
LINE
8
BLACK
6
CONTINUOUS
10
3.14448
20
-2.32333
11
3.13706
21
-2.31837
0
LINE
8
BLACK
6
CONTINUOUS
10
3.13706
20
-2.31837
11
3.13075
21
-2.31206
0
LINE
8
BLACK
6
CONTINUOUS
10
3.13075
20
-2.31206
11
3.12579
21
-2.30463
0
LINE
8
BLACK
6
CONTINUOUS
10
3.12579
20
-2.30463
11
3.12237
21
-2.29639
0
LINE
8
BLACK
6
CONTINUOUS
10
3.12237
20
-2.29639
11
3.12063
21
-2.28763
0
LINE
8
BLACK
6
CONTINUOUS
10
3.12063
20
-2.28763
11
3.12063
21
-2.27871
0
LINE
8
BLACK
6
CONTINUOUS
10
3.12063
20
-2.27871
11
3.12237
21
-2.26995
0
LINE
8
BLACK
6
CONTINUOUS
10
3.12237
20
-2.26995
11
3.12579
21
-2.2617
0
LINE
8
BLACK
6
CONTINUOUS
10
3.12579
20
-2.2617
11
3.13075
21
-2.25428
0
LINE
8
BLACK
6
CONTINUOUS
10
3.13075
20
-2.25428
11
3.13706
21
-2.24797
0
LINE
8
BLACK
6
CONTINUOUS
10
3.13706
20
-2.24797
11
3.14448
21
-2.24301
0
LINE
8
BLACK
6
CONTINUOUS
10
3.14448
20
-2.24301
11
3.15273
21
-2.2396
0
LINE
8
BLACK
6
CONTINUOUS
10
3.15273
20
-2.2396
11
3.1571
21
-2.23873
0
LINE
8
BLACK
6
CONTINUOUS
10
3.1571
20
-2.23873
11
3.16148
21
-2.23785
0
LINE
8
BLACK
6
CONTINUOUS
10
3.16148
20
-2.23785
11
3.17041
21
-2.23785
0
LINE
8
BLACK
6
CONTINUOUS
10
3.17041
20
-2.23785
11
3.17479
21
-2.23873
  0
ENDSEC
  0
EOF
