  0
SECTION
  2
HEADER
  9
$ANGBASE
  50
0.0
  9
$ANGDIR
  70
1
  9
$MEASUREMENT
  70
1
  0
ENDSEC
  0
SECTION
  2
TABLES
  0
TABLE
  2
LTYPE
  70
4
  0
LTYPE
  5
40F
  2
CONTINUOUS
  70
0
  3
Solid line
  72
65
  73
0
  40
0.0
  0
LTYPE
  5
410
  2
DASHDOT
 70
0
  3
Dash Dot ____ _ ____ _
 72
65
 73
4
 40
2.0
 49
1.25
 49
-0.25
 49
0.25
 49
-0.25
  0
LTYPE
  5
411
  2
DASHED
 70
0
  3
Dashed __ __ __ __ __
 72
65
 73
2
 40
0.75
 49
0.5
 49
-0.25
  0
LTYPE
  5
43B
  2
DOTTED
 70
0
  3
Dotted .  .  .  .
 72
65
 73
2
 40
0.2
 49
0.0
 49
-0.2
  0
ENDTAB
  0
TABLE
  2
STYLE
  70
4
  0
STYLE
  2
KICAD
  70
0
  40
0
  41
1
  42
1
  50
0
  71
0
  3
isocp.shx
  0
STYLE
  2
KICADB
  70
0
  40
0
  41
1
  42
1
  50
0
  71
0
  3
isocp.shx
  0
STYLE
  2
KICADI
  70
0
  40
0
  41
1
  42
1
  50
15
  71
0
  3
isocp.shx
  0
STYLE
  2
KICADBI
  70
0
  40
0
  41
1
  42
1
  50
15
  71
0
  3
isocp.shx
  0
ENDTAB
  0
TABLE
  2
LAYER
  70
1
  0
LAYER
  2
BLACK
  70
0
  62
7
  6
CONTINUOUS
  0
ENDTAB
  0
ENDSEC
  0
SECTION
  2
ENTITIES
0
LINE
8
BLACK
6
CONTINUOUS
10
-25.8477
20
-83.0324
11
-26.0382
21
-83.0324
0
LINE
8
BLACK
6
CONTINUOUS
10
-26.0382
20
-83.0324
11
-26.1334
21
-83.08
0
LINE
8
BLACK
6
CONTINUOUS
10
-26.1334
20
-83.08
11
-26.1811
21
-83.1276
0
LINE
8
BLACK
6
CONTINUOUS
10
-26.1811
20
-83.1276
11
-26.2763
21
-83.2705
0
LINE
8
BLACK
6
CONTINUOUS
10
-26.2763
20
-83.2705
11
-26.3239
21
-83.461
0
LINE
8
BLACK
6
CONTINUOUS
10
-26.3239
20
-83.461
11
-26.3239
21
-83.8419
0
LINE
8
BLACK
6
CONTINUOUS
10
-26.3239
20
-83.8419
11
-26.2763
21
-83.9371
0
LINE
8
BLACK
6
CONTINUOUS
10
-26.2763
20
-83.9371
11
-26.2287
21
-83.9848
0
LINE
8
BLACK
6
CONTINUOUS
10
-26.2287
20
-83.9848
11
-26.1334
21
-84.0324
0
LINE
8
BLACK
6
CONTINUOUS
10
-26.1334
20
-84.0324
11
-25.943
21
-84.0324
0
LINE
8
BLACK
6
CONTINUOUS
10
-25.943
20
-84.0324
11
-25.8477
21
-83.9848
0
LINE
8
BLACK
6
CONTINUOUS
10
-25.8477
20
-83.9848
11
-25.8001
21
-83.9371
0
LINE
8
BLACK
6
CONTINUOUS
10
-25.8001
20
-83.9371
11
-25.7525
21
-83.8419
0
LINE
8
BLACK
6
CONTINUOUS
10
-25.7525
20
-83.8419
11
-25.7525
21
-83.6038
0
LINE
8
BLACK
6
CONTINUOUS
10
-25.7525
20
-83.6038
11
-25.8001
21
-83.5086
0
LINE
8
BLACK
6
CONTINUOUS
10
-25.8001
20
-83.5086
11
-25.8477
21
-83.461
0
LINE
8
BLACK
6
CONTINUOUS
10
-25.8477
20
-83.461
11
-25.943
21
-83.4133
0
LINE
8
BLACK
6
CONTINUOUS
10
-25.943
20
-83.4133
11
-26.1334
21
-83.4133
0
LINE
8
BLACK
6
CONTINUOUS
10
-26.1334
20
-83.4133
11
-26.2287
21
-83.461
0
LINE
8
BLACK
6
CONTINUOUS
10
-26.2287
20
-83.461
11
-26.2763
21
-83.5086
0
LINE
8
BLACK
6
CONTINUOUS
10
-26.2763
20
-83.5086
11
-26.3239
21
-83.6038
0
LINE
8
BLACK
6
CONTINUOUS
10
-25.3239
20
-83.9371
11
-25.2763
21
-83.9848
0
LINE
8
BLACK
6
CONTINUOUS
10
-25.2763
20
-83.9848
11
-25.3239
21
-84.0324
0
LINE
8
BLACK
6
CONTINUOUS
10
-25.3239
20
-84.0324
11
-25.3715
21
-83.9848
0
LINE
8
BLACK
6
CONTINUOUS
10
-25.3715
20
-83.9848
11
-25.3239
21
-83.9371
0
LINE
8
BLACK
6
CONTINUOUS
10
-25.3239
20
-83.9371
11
-25.3239
21
-84.0324
0
LINE
8
BLACK
6
CONTINUOUS
10
-24.943
20
-83.0324
11
-24.2763
21
-83.0324
0
LINE
8
BLACK
6
CONTINUOUS
10
-24.2763
20
-83.0324
11
-24.7049
21
-84.0324
0
LINE
8
BLACK
6
CONTINUOUS
10
-23.4192
20
-83.0324
11
-23.8953
21
-83.0324
0
LINE
8
BLACK
6
CONTINUOUS
10
-23.8953
20
-83.0324
11
-23.943
21
-83.5086
0
LINE
8
BLACK
6
CONTINUOUS
10
-23.943
20
-83.5086
11
-23.8953
21
-83.461
0
LINE
8
BLACK
6
CONTINUOUS
10
-23.8953
20
-83.461
11
-23.8001
21
-83.4133
0
LINE
8
BLACK
6
CONTINUOUS
10
-23.8001
20
-83.4133
11
-23.562
21
-83.4133
0
LINE
8
BLACK
6
CONTINUOUS
10
-23.562
20
-83.4133
11
-23.4668
21
-83.461
0
LINE
8
BLACK
6
CONTINUOUS
10
-23.4668
20
-83.461
11
-23.4192
21
-83.5086
0
LINE
8
BLACK
6
CONTINUOUS
10
-23.4192
20
-83.5086
11
-23.3715
21
-83.6038
0
LINE
8
BLACK
6
CONTINUOUS
10
-23.3715
20
-83.6038
11
-23.3715
21
-83.8419
0
LINE
8
BLACK
6
CONTINUOUS
10
-23.3715
20
-83.8419
11
-23.4192
21
-83.9371
0
LINE
8
BLACK
6
CONTINUOUS
10
-23.4192
20
-83.9371
11
-23.4668
21
-83.9848
0
LINE
8
BLACK
6
CONTINUOUS
10
-23.4668
20
-83.9848
11
-23.562
21
-84.0324
0
LINE
8
BLACK
6
CONTINUOUS
10
-23.562
20
-84.0324
11
-23.8001
21
-84.0324
0
LINE
8
BLACK
6
CONTINUOUS
10
-23.8001
20
-84.0324
11
-23.8953
21
-83.9848
0
LINE
8
BLACK
6
CONTINUOUS
10
-23.8953
20
-83.9848
11
-23.943
21
-83.9371
0
LINE
8
BLACK
6
CONTINUOUS
10
-22.7525
20
-83.0324
11
-22.6572
21
-83.0324
0
LINE
8
BLACK
6
CONTINUOUS
10
-22.6572
20
-83.0324
11
-22.562
21
-83.08
0
LINE
8
BLACK
6
CONTINUOUS
10
-22.562
20
-83.08
11
-22.5144
21
-83.1276
0
LINE
8
BLACK
6
CONTINUOUS
10
-22.5144
20
-83.1276
11
-22.4668
21
-83.2229
0
LINE
8
BLACK
6
CONTINUOUS
10
-22.4668
20
-83.2229
11
-22.4192
21
-83.4133
0
LINE
8
BLACK
6
CONTINUOUS
10
-22.4192
20
-83.4133
11
-22.4192
21
-83.6514
0
LINE
8
BLACK
6
CONTINUOUS
10
-22.4192
20
-83.6514
11
-22.4668
21
-83.8419
0
LINE
8
BLACK
6
CONTINUOUS
10
-22.4668
20
-83.8419
11
-22.5144
21
-83.9371
0
LINE
8
BLACK
6
CONTINUOUS
10
-22.5144
20
-83.9371
11
-22.562
21
-83.9848
0
LINE
8
BLACK
6
CONTINUOUS
10
-22.562
20
-83.9848
11
-22.6572
21
-84.0324
0
LINE
8
BLACK
6
CONTINUOUS
10
-22.6572
20
-84.0324
11
-22.7525
21
-84.0324
0
LINE
8
BLACK
6
CONTINUOUS
10
-22.7525
20
-84.0324
11
-22.8477
21
-83.9848
0
LINE
8
BLACK
6
CONTINUOUS
10
-22.8477
20
-83.9848
11
-22.8953
21
-83.9371
0
LINE
8
BLACK
6
CONTINUOUS
10
-22.8953
20
-83.9371
11
-22.943
21
-83.8419
0
LINE
8
BLACK
6
CONTINUOUS
10
-22.943
20
-83.8419
11
-22.9906
21
-83.6514
0
LINE
8
BLACK
6
CONTINUOUS
10
-22.9906
20
-83.6514
11
-22.9906
21
-83.4133
0
LINE
8
BLACK
6
CONTINUOUS
10
-22.9906
20
-83.4133
11
-22.943
21
-83.2229
0
LINE
8
BLACK
6
CONTINUOUS
10
-22.943
20
-83.2229
11
-22.8953
21
-83.1276
0
LINE
8
BLACK
6
CONTINUOUS
10
-22.8953
20
-83.1276
11
-22.8477
21
-83.08
0
LINE
8
BLACK
6
CONTINUOUS
10
-22.8477
20
-83.08
11
-22.7525
21
-83.0324
0
LINE
8
BLACK
6
CONTINUOUS
10
-21.2287
20
-84.0324
11
-21.2287
21
-83.3657
0
LINE
8
BLACK
6
CONTINUOUS
10
-21.2287
20
-83.461
11
-21.1811
21
-83.4133
0
LINE
8
BLACK
6
CONTINUOUS
10
-21.1811
20
-83.4133
11
-21.0858
21
-83.3657
0
LINE
8
BLACK
6
CONTINUOUS
10
-21.0858
20
-83.3657
11
-20.943
21
-83.3657
0
LINE
8
BLACK
6
CONTINUOUS
10
-20.943
20
-83.3657
11
-20.8477
21
-83.4133
0
LINE
8
BLACK
6
CONTINUOUS
10
-20.8477
20
-83.4133
11
-20.8001
21
-83.5086
0
LINE
8
BLACK
6
CONTINUOUS
10
-20.8001
20
-83.5086
11
-20.8001
21
-84.0324
0
LINE
8
BLACK
6
CONTINUOUS
10
-20.8001
20
-83.5086
11
-20.7525
21
-83.4133
0
LINE
8
BLACK
6
CONTINUOUS
10
-20.7525
20
-83.4133
11
-20.6572
21
-83.3657
0
LINE
8
BLACK
6
CONTINUOUS
10
-20.6572
20
-83.3657
11
-20.5144
21
-83.3657
0
LINE
8
BLACK
6
CONTINUOUS
10
-20.5144
20
-83.3657
11
-20.4192
21
-83.4133
0
LINE
8
BLACK
6
CONTINUOUS
10
-20.4192
20
-83.4133
11
-20.3715
21
-83.5086
0
LINE
8
BLACK
6
CONTINUOUS
10
-20.3715
20
-83.5086
11
-20.3715
21
-84.0324
0
LINE
8
BLACK
6
CONTINUOUS
10
-19.8953
20
-84.0324
11
-19.8953
21
-83.3657
0
LINE
8
BLACK
6
CONTINUOUS
10
-19.8953
20
-83.461
11
-19.8477
21
-83.4133
0
LINE
8
BLACK
6
CONTINUOUS
10
-19.8477
20
-83.4133
11
-19.7525
21
-83.3657
0
LINE
8
BLACK
6
CONTINUOUS
10
-19.7525
20
-83.3657
11
-19.6096
21
-83.3657
0
LINE
8
BLACK
6
CONTINUOUS
10
-19.6096
20
-83.3657
11
-19.5144
21
-83.4133
0
LINE
8
BLACK
6
CONTINUOUS
10
-19.5144
20
-83.4133
11
-19.4668
21
-83.5086
0
LINE
8
BLACK
6
CONTINUOUS
10
-19.4668
20
-83.5086
11
-19.4668
21
-84.0324
0
LINE
8
BLACK
6
CONTINUOUS
10
-19.4668
20
-83.5086
11
-19.4192
21
-83.4133
0
LINE
8
BLACK
6
CONTINUOUS
10
-19.4192
20
-83.4133
11
-19.3239
21
-83.3657
0
LINE
8
BLACK
6
CONTINUOUS
10
-19.3239
20
-83.3657
11
-19.1811
21
-83.3657
0
LINE
8
BLACK
6
CONTINUOUS
10
-19.1811
20
-83.3657
11
-19.0858
21
-83.4133
0
LINE
8
BLACK
6
CONTINUOUS
10
-19.0858
20
-83.4133
11
-19.0382
21
-83.5086
0
LINE
8
BLACK
6
CONTINUOUS
10
-19.0382
20
-83.5086
11
-19.0382
21
-84.0324
0
LINE
8
BLACK
6
CONTINUOUS
10
-19.2822
20
-84.78
11
-26.0322
21
-84.78
0
LINE
8
BLACK
6
CONTINUOUS
10
-19.2822
20
-84.78
11
-19.2822
21
-84.1936
0
LINE
8
BLACK
6
CONTINUOUS
10
-26.0322
20
-84.78
11
-26.0322
21
-84.1936
0
LINE
8
BLACK
6
CONTINUOUS
10
-26.0322
20
-84.78
11
-24.9057
21
-84.1936
0
LINE
8
BLACK
6
CONTINUOUS
10
-26.0322
20
-84.78
11
-24.9057
21
-85.3664
0
LINE
8
BLACK
6
CONTINUOUS
10
-19.2822
20
-84.78
11
-20.4088
21
-84.1936
0
LINE
8
BLACK
6
CONTINUOUS
10
-19.2822
20
-84.78
11
-20.4088
21
-85.3664
0
LINE
8
BLACK
6
CONTINUOUS
10
-6.08849
20
-87.0124
11
-6.65992
21
-87.0124
0
LINE
8
BLACK
6
CONTINUOUS
10
-6.3742
20
-87.0124
11
-6.3742
21
-86.0124
0
LINE
8
BLACK
6
CONTINUOUS
10
-6.3742
20
-86.0124
11
-6.46944
21
-86.1552
0
LINE
8
BLACK
6
CONTINUOUS
10
-6.46944
20
-86.1552
11
-6.56468
21
-86.2505
0
LINE
8
BLACK
6
CONTINUOUS
10
-6.56468
20
-86.2505
11
-6.65992
21
-86.2981
0
LINE
8
BLACK
6
CONTINUOUS
10
-5.65992
20
-86.9171
11
-5.6123
21
-86.9648
0
LINE
8
BLACK
6
CONTINUOUS
10
-5.6123
20
-86.9648
11
-5.65992
21
-87.0124
0
LINE
8
BLACK
6
CONTINUOUS
10
-5.65992
20
-87.0124
11
-5.70754
21
-86.9648
0
LINE
8
BLACK
6
CONTINUOUS
10
-5.70754
20
-86.9648
11
-5.65992
21
-86.9171
0
LINE
8
BLACK
6
CONTINUOUS
10
-5.65992
20
-86.9171
11
-5.65992
21
-87.0124
0
LINE
8
BLACK
6
CONTINUOUS
10
-4.70754
20
-86.0124
11
-5.18373
21
-86.0124
0
LINE
8
BLACK
6
CONTINUOUS
10
-5.18373
20
-86.0124
11
-5.23135
21
-86.4886
0
LINE
8
BLACK
6
CONTINUOUS
10
-5.23135
20
-86.4886
11
-5.18373
21
-86.441
0
LINE
8
BLACK
6
CONTINUOUS
10
-5.18373
20
-86.441
11
-5.08849
21
-86.3933
0
LINE
8
BLACK
6
CONTINUOUS
10
-5.08849
20
-86.3933
11
-4.85039
21
-86.3933
0
LINE
8
BLACK
6
CONTINUOUS
10
-4.85039
20
-86.3933
11
-4.75515
21
-86.441
0
LINE
8
BLACK
6
CONTINUOUS
10
-4.75515
20
-86.441
11
-4.70754
21
-86.4886
0
LINE
8
BLACK
6
CONTINUOUS
10
-4.70754
20
-86.4886
11
-4.65992
21
-86.5838
0
LINE
8
BLACK
6
CONTINUOUS
10
-4.65992
20
-86.5838
11
-4.65992
21
-86.8219
0
LINE
8
BLACK
6
CONTINUOUS
10
-4.65992
20
-86.8219
11
-4.70754
21
-86.9171
0
LINE
8
BLACK
6
CONTINUOUS
10
-4.70754
20
-86.9171
11
-4.75515
21
-86.9648
0
LINE
8
BLACK
6
CONTINUOUS
10
-4.75515
20
-86.9648
11
-4.85039
21
-87.0124
0
LINE
8
BLACK
6
CONTINUOUS
10
-4.85039
20
-87.0124
11
-5.08849
21
-87.0124
0
LINE
8
BLACK
6
CONTINUOUS
10
-5.08849
20
-87.0124
11
-5.18373
21
-86.9648
0
LINE
8
BLACK
6
CONTINUOUS
10
-5.18373
20
-86.9648
11
-5.23135
21
-86.9171
0
LINE
8
BLACK
6
CONTINUOUS
10
-4.27896
20
-86.1076
11
-4.23135
21
-86.06
0
LINE
8
BLACK
6
CONTINUOUS
10
-4.23135
20
-86.06
11
-4.13611
21
-86.0124
0
LINE
8
BLACK
6
CONTINUOUS
10
-4.13611
20
-86.0124
11
-3.89801
21
-86.0124
0
LINE
8
BLACK
6
CONTINUOUS
10
-3.89801
20
-86.0124
11
-3.80277
21
-86.06
0
LINE
8
BLACK
6
CONTINUOUS
10
-3.80277
20
-86.06
11
-3.75515
21
-86.1076
0
LINE
8
BLACK
6
CONTINUOUS
10
-3.75515
20
-86.1076
11
-3.70754
21
-86.2029
0
LINE
8
BLACK
6
CONTINUOUS
10
-3.70754
20
-86.2029
11
-3.70754
21
-86.2981
0
LINE
8
BLACK
6
CONTINUOUS
10
-3.70754
20
-86.2981
11
-3.75515
21
-86.441
0
LINE
8
BLACK
6
CONTINUOUS
10
-3.75515
20
-86.441
11
-4.32658
21
-87.0124
0
LINE
8
BLACK
6
CONTINUOUS
10
-4.32658
20
-87.0124
11
-3.70754
21
-87.0124
0
LINE
8
BLACK
6
CONTINUOUS
10
-2.80277
20
-86.0124
11
-3.27896
21
-86.0124
0
LINE
8
BLACK
6
CONTINUOUS
10
-3.27896
20
-86.0124
11
-3.32658
21
-86.4886
0
LINE
8
BLACK
6
CONTINUOUS
10
-3.32658
20
-86.4886
11
-3.27896
21
-86.441
0
LINE
8
BLACK
6
CONTINUOUS
10
-3.27896
20
-86.441
11
-3.18373
21
-86.3933
0
LINE
8
BLACK
6
CONTINUOUS
10
-3.18373
20
-86.3933
11
-2.94563
21
-86.3933
0
LINE
8
BLACK
6
CONTINUOUS
10
-2.94563
20
-86.3933
11
-2.85039
21
-86.441
0
LINE
8
BLACK
6
CONTINUOUS
10
-2.85039
20
-86.441
11
-2.80277
21
-86.4886
0
LINE
8
BLACK
6
CONTINUOUS
10
-2.80277
20
-86.4886
11
-2.75515
21
-86.5838
0
LINE
8
BLACK
6
CONTINUOUS
10
-2.75515
20
-86.5838
11
-2.75515
21
-86.8219
0
LINE
8
BLACK
6
CONTINUOUS
10
-2.75515
20
-86.8219
11
-2.80277
21
-86.9171
0
LINE
8
BLACK
6
CONTINUOUS
10
-2.80277
20
-86.9171
11
-2.85039
21
-86.9648
0
LINE
8
BLACK
6
CONTINUOUS
10
-2.85039
20
-86.9648
11
-2.94563
21
-87.0124
0
LINE
8
BLACK
6
CONTINUOUS
10
-2.94563
20
-87.0124
11
-3.18373
21
-87.0124
0
LINE
8
BLACK
6
CONTINUOUS
10
-3.18373
20
-87.0124
11
-3.27896
21
-86.9648
0
LINE
8
BLACK
6
CONTINUOUS
10
-3.27896
20
-86.9648
11
-3.32658
21
-86.9171
0
LINE
8
BLACK
6
CONTINUOUS
10
-1.56468
20
-87.0124
11
-1.56468
21
-86.3457
0
LINE
8
BLACK
6
CONTINUOUS
10
-1.56468
20
-86.441
11
-1.51706
21
-86.3933
0
LINE
8
BLACK
6
CONTINUOUS
10
-1.51706
20
-86.3933
11
-1.42182
21
-86.3457
0
LINE
8
BLACK
6
CONTINUOUS
10
-1.42182
20
-86.3457
11
-1.27896
21
-86.3457
0
LINE
8
BLACK
6
CONTINUOUS
10
-1.27896
20
-86.3457
11
-1.18373
21
-86.3933
0
LINE
8
BLACK
6
CONTINUOUS
10
-1.18373
20
-86.3933
11
-1.13611
21
-86.4886
0
LINE
8
BLACK
6
CONTINUOUS
10
-1.13611
20
-86.4886
11
-1.13611
21
-87.0124
0
LINE
8
BLACK
6
CONTINUOUS
10
-1.13611
20
-86.4886
11
-1.08849
21
-86.3933
0
LINE
8
BLACK
6
CONTINUOUS
10
-1.08849
20
-86.3933
11
-0.993249
21
-86.3457
0
LINE
8
BLACK
6
CONTINUOUS
10
-0.993249
20
-86.3457
11
-0.850392
21
-86.3457
0
LINE
8
BLACK
6
CONTINUOUS
10
-0.850392
20
-86.3457
11
-0.755154
21
-86.3933
0
LINE
8
BLACK
6
CONTINUOUS
10
-0.755154
20
-86.3933
11
-0.707535
21
-86.4886
0
LINE
8
BLACK
6
CONTINUOUS
10
-0.707535
20
-86.4886
11
-0.707535
21
-87.0124
0
LINE
8
BLACK
6
CONTINUOUS
10
-0.231345
20
-87.0124
11
-0.231345
21
-86.3457
0
LINE
8
BLACK
6
CONTINUOUS
10
-0.231345
20
-86.441
11
-0.183726
21
-86.3933
0
LINE
8
BLACK
6
CONTINUOUS
10
-0.183726
20
-86.3933
11
-0.088488
21
-86.3457
0
LINE
8
BLACK
6
CONTINUOUS
10
-0.088488
20
-86.3457
11
0.054369
21
-86.3457
0
LINE
8
BLACK
6
CONTINUOUS
10
0.054369
20
-86.3457
11
0.149607
21
-86.3933
0
LINE
8
BLACK
6
CONTINUOUS
10
0.149607
20
-86.3933
11
0.197226
21
-86.4886
0
LINE
8
BLACK
6
CONTINUOUS
10
0.197226
20
-86.4886
11
0.197226
21
-87.0124
0
LINE
8
BLACK
6
CONTINUOUS
10
0.197226
20
-86.4886
11
0.244845
21
-86.3933
0
LINE
8
BLACK
6
CONTINUOUS
10
0.244845
20
-86.3933
11
0.340083
21
-86.3457
0
LINE
8
BLACK
6
CONTINUOUS
10
0.340083
20
-86.3457
11
0.48294
21
-86.3457
0
LINE
8
BLACK
6
CONTINUOUS
10
0.48294
20
-86.3457
11
0.578178
21
-86.3933
0
LINE
8
BLACK
6
CONTINUOUS
10
0.578178
20
-86.3933
11
0.625797
21
-86.4886
0
LINE
8
BLACK
6
CONTINUOUS
10
0.625797
20
-86.4886
11
0.625797
21
-87.0124
0
LINE
8
BLACK
6
CONTINUOUS
10
-3.75575
20
-85.36
11
-2.23075
21
-85.36
0
LINE
8
BLACK
6
CONTINUOUS
10
-3.75575
20
-85.36
11
-3.75575
21
-85.9464
0
LINE
8
BLACK
6
CONTINUOUS
10
-2.23075
20
-85.36
11
-2.23075
21
-85.9464
0
LINE
8
BLACK
6
CONTINUOUS
10
-2.23075
20
-85.36
11
-3.35725
21
-85.9464
0
LINE
8
BLACK
6
CONTINUOUS
10
-2.23075
20
-85.36
11
-3.35725
21
-84.7736
0
LINE
8
BLACK
6
CONTINUOUS
10
-3.75575
20
-85.36
11
-2.62925
21
-85.9464
0
LINE
8
BLACK
6
CONTINUOUS
10
-3.75575
20
-85.36
11
-2.62925
21
-84.7736
0
LINE
8
BLACK
6
CONTINUOUS
10
-21.6137
20
-86.6524
11
-22.1852
21
-86.6524
0
LINE
8
BLACK
6
CONTINUOUS
10
-21.8995
20
-86.6524
11
-21.8995
21
-85.6524
0
LINE
8
BLACK
6
CONTINUOUS
10
-21.8995
20
-85.6524
11
-21.9947
21
-85.7952
0
LINE
8
BLACK
6
CONTINUOUS
10
-21.9947
20
-85.7952
11
-22.0899
21
-85.8905
0
LINE
8
BLACK
6
CONTINUOUS
10
-22.0899
20
-85.8905
11
-22.1852
21
-85.9381
0
LINE
8
BLACK
6
CONTINUOUS
10
-21.1852
20
-86.5571
11
-21.1375
21
-86.6048
0
LINE
8
BLACK
6
CONTINUOUS
10
-21.1375
20
-86.6048
11
-21.1852
21
-86.6524
0
LINE
8
BLACK
6
CONTINUOUS
10
-21.1852
20
-86.6524
11
-21.2328
21
-86.6048
0
LINE
8
BLACK
6
CONTINUOUS
10
-21.2328
20
-86.6048
11
-21.1852
21
-86.5571
0
LINE
8
BLACK
6
CONTINUOUS
10
-21.1852
20
-86.5571
11
-21.1852
21
-86.6524
0
LINE
8
BLACK
6
CONTINUOUS
10
-20.2328
20
-85.6524
11
-20.709
21
-85.6524
0
LINE
8
BLACK
6
CONTINUOUS
10
-20.709
20
-85.6524
11
-20.7566
21
-86.1286
0
LINE
8
BLACK
6
CONTINUOUS
10
-20.7566
20
-86.1286
11
-20.709
21
-86.081
0
LINE
8
BLACK
6
CONTINUOUS
10
-20.709
20
-86.081
11
-20.6137
21
-86.0333
0
LINE
8
BLACK
6
CONTINUOUS
10
-20.6137
20
-86.0333
11
-20.3756
21
-86.0333
0
LINE
8
BLACK
6
CONTINUOUS
10
-20.3756
20
-86.0333
11
-20.2804
21
-86.081
0
LINE
8
BLACK
6
CONTINUOUS
10
-20.2804
20
-86.081
11
-20.2328
21
-86.1286
0
LINE
8
BLACK
6
CONTINUOUS
10
-20.2328
20
-86.1286
11
-20.1852
21
-86.2238
0
LINE
8
BLACK
6
CONTINUOUS
10
-20.1852
20
-86.2238
11
-20.1852
21
-86.4619
0
LINE
8
BLACK
6
CONTINUOUS
10
-20.1852
20
-86.4619
11
-20.2328
21
-86.5571
0
LINE
8
BLACK
6
CONTINUOUS
10
-20.2328
20
-86.5571
11
-20.2804
21
-86.6048
0
LINE
8
BLACK
6
CONTINUOUS
10
-20.2804
20
-86.6048
11
-20.3756
21
-86.6524
0
LINE
8
BLACK
6
CONTINUOUS
10
-20.3756
20
-86.6524
11
-20.6137
21
-86.6524
0
LINE
8
BLACK
6
CONTINUOUS
10
-20.6137
20
-86.6524
11
-20.709
21
-86.6048
0
LINE
8
BLACK
6
CONTINUOUS
10
-20.709
20
-86.6048
11
-20.7566
21
-86.5571
0
LINE
8
BLACK
6
CONTINUOUS
10
-19.8042
20
-85.7476
11
-19.7566
21
-85.7
0
LINE
8
BLACK
6
CONTINUOUS
10
-19.7566
20
-85.7
11
-19.6614
21
-85.6524
0
LINE
8
BLACK
6
CONTINUOUS
10
-19.6614
20
-85.6524
11
-19.4233
21
-85.6524
0
LINE
8
BLACK
6
CONTINUOUS
10
-19.4233
20
-85.6524
11
-19.328
21
-85.7
0
LINE
8
BLACK
6
CONTINUOUS
10
-19.328
20
-85.7
11
-19.2804
21
-85.7476
0
LINE
8
BLACK
6
CONTINUOUS
10
-19.2804
20
-85.7476
11
-19.2328
21
-85.8429
0
LINE
8
BLACK
6
CONTINUOUS
10
-19.2328
20
-85.8429
11
-19.2328
21
-85.9381
0
LINE
8
BLACK
6
CONTINUOUS
10
-19.2328
20
-85.9381
11
-19.2804
21
-86.081
0
LINE
8
BLACK
6
CONTINUOUS
10
-19.2804
20
-86.081
11
-19.8518
21
-86.6524
0
LINE
8
BLACK
6
CONTINUOUS
10
-19.8518
20
-86.6524
11
-19.2328
21
-86.6524
0
LINE
8
BLACK
6
CONTINUOUS
10
-18.328
20
-85.6524
11
-18.8042
21
-85.6524
0
LINE
8
BLACK
6
CONTINUOUS
10
-18.8042
20
-85.6524
11
-18.8518
21
-86.1286
0
LINE
8
BLACK
6
CONTINUOUS
10
-18.8518
20
-86.1286
11
-18.8042
21
-86.081
0
LINE
8
BLACK
6
CONTINUOUS
10
-18.8042
20
-86.081
11
-18.709
21
-86.0333
0
LINE
8
BLACK
6
CONTINUOUS
10
-18.709
20
-86.0333
11
-18.4709
21
-86.0333
0
LINE
8
BLACK
6
CONTINUOUS
10
-18.4709
20
-86.0333
11
-18.3756
21
-86.081
0
LINE
8
BLACK
6
CONTINUOUS
10
-18.3756
20
-86.081
11
-18.328
21
-86.1286
0
LINE
8
BLACK
6
CONTINUOUS
10
-18.328
20
-86.1286
11
-18.2804
21
-86.2238
0
LINE
8
BLACK
6
CONTINUOUS
10
-18.2804
20
-86.2238
11
-18.2804
21
-86.4619
0
LINE
8
BLACK
6
CONTINUOUS
10
-18.2804
20
-86.4619
11
-18.328
21
-86.5571
0
LINE
8
BLACK
6
CONTINUOUS
10
-18.328
20
-86.5571
11
-18.3756
21
-86.6048
0
LINE
8
BLACK
6
CONTINUOUS
10
-18.3756
20
-86.6048
11
-18.4709
21
-86.6524
0
LINE
8
BLACK
6
CONTINUOUS
10
-18.4709
20
-86.6524
11
-18.709
21
-86.6524
0
LINE
8
BLACK
6
CONTINUOUS
10
-18.709
20
-86.6524
11
-18.8042
21
-86.6048
0
LINE
8
BLACK
6
CONTINUOUS
10
-18.8042
20
-86.6048
11
-18.8518
21
-86.5571
0
LINE
8
BLACK
6
CONTINUOUS
10
-17.0899
20
-86.6524
11
-17.0899
21
-85.9857
0
LINE
8
BLACK
6
CONTINUOUS
10
-17.0899
20
-86.081
11
-17.0423
21
-86.0333
0
LINE
8
BLACK
6
CONTINUOUS
10
-17.0423
20
-86.0333
11
-16.9471
21
-85.9857
0
LINE
8
BLACK
6
CONTINUOUS
10
-16.9471
20
-85.9857
11
-16.8042
21
-85.9857
0
LINE
8
BLACK
6
CONTINUOUS
10
-16.8042
20
-85.9857
11
-16.709
21
-86.0333
0
LINE
8
BLACK
6
CONTINUOUS
10
-16.709
20
-86.0333
11
-16.6614
21
-86.1286
0
LINE
8
BLACK
6
CONTINUOUS
10
-16.6614
20
-86.1286
11
-16.6614
21
-86.6524
0
LINE
8
BLACK
6
CONTINUOUS
10
-16.6614
20
-86.1286
11
-16.6137
21
-86.0333
0
LINE
8
BLACK
6
CONTINUOUS
10
-16.6137
20
-86.0333
11
-16.5185
21
-85.9857
0
LINE
8
BLACK
6
CONTINUOUS
10
-16.5185
20
-85.9857
11
-16.3756
21
-85.9857
0
LINE
8
BLACK
6
CONTINUOUS
10
-16.3756
20
-85.9857
11
-16.2804
21
-86.0333
0
LINE
8
BLACK
6
CONTINUOUS
10
-16.2804
20
-86.0333
11
-16.2328
21
-86.1286
0
LINE
8
BLACK
6
CONTINUOUS
10
-16.2328
20
-86.1286
11
-16.2328
21
-86.6524
0
LINE
8
BLACK
6
CONTINUOUS
10
-15.7566
20
-86.6524
11
-15.7566
21
-85.9857
0
LINE
8
BLACK
6
CONTINUOUS
10
-15.7566
20
-86.081
11
-15.709
21
-86.0333
0
LINE
8
BLACK
6
CONTINUOUS
10
-15.709
20
-86.0333
11
-15.6137
21
-85.9857
0
LINE
8
BLACK
6
CONTINUOUS
10
-15.6137
20
-85.9857
11
-15.4709
21
-85.9857
0
LINE
8
BLACK
6
CONTINUOUS
10
-15.4709
20
-85.9857
11
-15.3756
21
-86.0333
0
LINE
8
BLACK
6
CONTINUOUS
10
-15.3756
20
-86.0333
11
-15.328
21
-86.1286
0
LINE
8
BLACK
6
CONTINUOUS
10
-15.328
20
-86.1286
11
-15.328
21
-86.6524
0
LINE
8
BLACK
6
CONTINUOUS
10
-15.328
20
-86.1286
11
-15.2804
21
-86.0333
0
LINE
8
BLACK
6
CONTINUOUS
10
-15.2804
20
-86.0333
11
-15.1852
21
-85.9857
0
LINE
8
BLACK
6
CONTINUOUS
10
-15.1852
20
-85.9857
11
-15.0423
21
-85.9857
0
LINE
8
BLACK
6
CONTINUOUS
10
-15.0423
20
-85.9857
11
-14.9471
21
-86.0333
0
LINE
8
BLACK
6
CONTINUOUS
10
-14.9471
20
-86.0333
11
-14.8995
21
-86.1286
0
LINE
8
BLACK
6
CONTINUOUS
10
-14.8995
20
-86.1286
11
-14.8995
21
-86.6524
0
LINE
8
BLACK
6
CONTINUOUS
10
-19.281
20
-85
11
-17.756
21
-85
0
LINE
8
BLACK
6
CONTINUOUS
10
-19.281
20
-85
11
-19.281
21
-85.5864
0
LINE
8
BLACK
6
CONTINUOUS
10
-17.756
20
-85
11
-17.756
21
-85.5864
0
LINE
8
BLACK
6
CONTINUOUS
10
-17.756
20
-85
11
-18.8825
21
-85.5864
0
LINE
8
BLACK
6
CONTINUOUS
10
-17.756
20
-85
11
-18.8825
21
-84.4136
0
LINE
8
BLACK
6
CONTINUOUS
10
-19.281
20
-85
11
-18.1545
21
-85.5864
0
LINE
8
BLACK
6
CONTINUOUS
10
-19.281
20
-85
11
-18.1545
21
-84.4136
0
LINE
8
BLACK
6
CONTINUOUS
10
-23.3579
20
-116.338
11
-23.3102
21
-116.29
0
LINE
8
BLACK
6
CONTINUOUS
10
-23.3102
20
-116.29
11
-23.215
21
-116.242
0
LINE
8
BLACK
6
CONTINUOUS
10
-23.215
20
-116.242
11
-22.9769
21
-116.242
0
LINE
8
BLACK
6
CONTINUOUS
10
-22.9769
20
-116.242
11
-22.8817
21
-116.29
0
LINE
8
BLACK
6
CONTINUOUS
10
-22.8817
20
-116.29
11
-22.834
21
-116.338
0
LINE
8
BLACK
6
CONTINUOUS
10
-22.834
20
-116.338
11
-22.7864
21
-116.433
0
LINE
8
BLACK
6
CONTINUOUS
10
-22.7864
20
-116.433
11
-22.7864
21
-116.528
0
LINE
8
BLACK
6
CONTINUOUS
10
-22.7864
20
-116.528
11
-22.834
21
-116.671
0
LINE
8
BLACK
6
CONTINUOUS
10
-22.834
20
-116.671
11
-23.4055
21
-117.242
0
LINE
8
BLACK
6
CONTINUOUS
10
-23.4055
20
-117.242
11
-22.7864
21
-117.242
0
LINE
8
BLACK
6
CONTINUOUS
10
-21.8817
20
-116.242
11
-22.3579
21
-116.242
0
LINE
8
BLACK
6
CONTINUOUS
10
-22.3579
20
-116.242
11
-22.4055
21
-116.719
0
LINE
8
BLACK
6
CONTINUOUS
10
-22.4055
20
-116.719
11
-22.3579
21
-116.671
0
LINE
8
BLACK
6
CONTINUOUS
10
-22.3579
20
-116.671
11
-22.2626
21
-116.623
0
LINE
8
BLACK
6
CONTINUOUS
10
-22.2626
20
-116.623
11
-22.0245
21
-116.623
0
LINE
8
BLACK
6
CONTINUOUS
10
-22.0245
20
-116.623
11
-21.9293
21
-116.671
0
LINE
8
BLACK
6
CONTINUOUS
10
-21.9293
20
-116.671
11
-21.8817
21
-116.719
0
LINE
8
BLACK
6
CONTINUOUS
10
-21.8817
20
-116.719
11
-21.834
21
-116.814
0
LINE
8
BLACK
6
CONTINUOUS
10
-21.834
20
-116.814
11
-21.834
21
-117.052
0
LINE
8
BLACK
6
CONTINUOUS
10
-21.834
20
-117.052
11
-21.8817
21
-117.147
0
LINE
8
BLACK
6
CONTINUOUS
10
-21.8817
20
-117.147
11
-21.9293
21
-117.195
0
LINE
8
BLACK
6
CONTINUOUS
10
-21.9293
20
-117.195
11
-22.0245
21
-117.242
0
LINE
8
BLACK
6
CONTINUOUS
10
-22.0245
20
-117.242
11
-22.2626
21
-117.242
0
LINE
8
BLACK
6
CONTINUOUS
10
-22.2626
20
-117.242
11
-22.3579
21
-117.195
0
LINE
8
BLACK
6
CONTINUOUS
10
-22.3579
20
-117.195
11
-22.4055
21
-117.147
0
LINE
8
BLACK
6
CONTINUOUS
10
-21.4055
20
-117.147
11
-21.3579
21
-117.195
0
LINE
8
BLACK
6
CONTINUOUS
10
-21.3579
20
-117.195
11
-21.4055
21
-117.242
0
LINE
8
BLACK
6
CONTINUOUS
10
-21.4055
20
-117.242
11
-21.4531
21
-117.195
0
LINE
8
BLACK
6
CONTINUOUS
10
-21.4531
20
-117.195
11
-21.4055
21
-117.147
0
LINE
8
BLACK
6
CONTINUOUS
10
-21.4055
20
-117.147
11
-21.4055
21
-117.242
0
LINE
8
BLACK
6
CONTINUOUS
10
-20.8817
20
-117.242
11
-20.6912
21
-117.242
0
LINE
8
BLACK
6
CONTINUOUS
10
-20.6912
20
-117.242
11
-20.596
21
-117.195
0
LINE
8
BLACK
6
CONTINUOUS
10
-20.596
20
-117.195
11
-20.5483
21
-117.147
0
LINE
8
BLACK
6
CONTINUOUS
10
-20.5483
20
-117.147
11
-20.4531
21
-117.004
0
LINE
8
BLACK
6
CONTINUOUS
10
-20.4531
20
-117.004
11
-20.4055
21
-116.814
0
LINE
8
BLACK
6
CONTINUOUS
10
-20.4055
20
-116.814
11
-20.4055
21
-116.433
0
LINE
8
BLACK
6
CONTINUOUS
10
-20.4055
20
-116.433
11
-20.4531
21
-116.338
0
LINE
8
BLACK
6
CONTINUOUS
10
-20.4531
20
-116.338
11
-20.5007
21
-116.29
0
LINE
8
BLACK
6
CONTINUOUS
10
-20.5007
20
-116.29
11
-20.596
21
-116.242
0
LINE
8
BLACK
6
CONTINUOUS
10
-20.596
20
-116.242
11
-20.7864
21
-116.242
0
LINE
8
BLACK
6
CONTINUOUS
10
-20.7864
20
-116.242
11
-20.8817
21
-116.29
0
LINE
8
BLACK
6
CONTINUOUS
10
-20.8817
20
-116.29
11
-20.9293
21
-116.338
0
LINE
8
BLACK
6
CONTINUOUS
10
-20.9293
20
-116.338
11
-20.9769
21
-116.433
0
LINE
8
BLACK
6
CONTINUOUS
10
-20.9769
20
-116.433
11
-20.9769
21
-116.671
0
LINE
8
BLACK
6
CONTINUOUS
10
-20.9769
20
-116.671
11
-20.9293
21
-116.766
0
LINE
8
BLACK
6
CONTINUOUS
10
-20.9293
20
-116.766
11
-20.8817
21
-116.814
0
LINE
8
BLACK
6
CONTINUOUS
10
-20.8817
20
-116.814
11
-20.7864
21
-116.861
0
LINE
8
BLACK
6
CONTINUOUS
10
-20.7864
20
-116.861
11
-20.596
21
-116.861
0
LINE
8
BLACK
6
CONTINUOUS
10
-20.596
20
-116.861
11
-20.5007
21
-116.814
0
LINE
8
BLACK
6
CONTINUOUS
10
-20.5007
20
-116.814
11
-20.4531
21
-116.766
0
LINE
8
BLACK
6
CONTINUOUS
10
-20.4531
20
-116.766
11
-20.4055
21
-116.671
0
LINE
8
BLACK
6
CONTINUOUS
10
-19.5007
20
-116.242
11
-19.9769
21
-116.242
0
LINE
8
BLACK
6
CONTINUOUS
10
-19.9769
20
-116.242
11
-20.0245
21
-116.719
0
LINE
8
BLACK
6
CONTINUOUS
10
-20.0245
20
-116.719
11
-19.9769
21
-116.671
0
LINE
8
BLACK
6
CONTINUOUS
10
-19.9769
20
-116.671
11
-19.8817
21
-116.623
0
LINE
8
BLACK
6
CONTINUOUS
10
-19.8817
20
-116.623
11
-19.6436
21
-116.623
0
LINE
8
BLACK
6
CONTINUOUS
10
-19.6436
20
-116.623
11
-19.5483
21
-116.671
0
LINE
8
BLACK
6
CONTINUOUS
10
-19.5483
20
-116.671
11
-19.5007
21
-116.719
0
LINE
8
BLACK
6
CONTINUOUS
10
-19.5007
20
-116.719
11
-19.4531
21
-116.814
0
LINE
8
BLACK
6
CONTINUOUS
10
-19.4531
20
-116.814
11
-19.4531
21
-117.052
0
LINE
8
BLACK
6
CONTINUOUS
10
-19.4531
20
-117.052
11
-19.5007
21
-117.147
0
LINE
8
BLACK
6
CONTINUOUS
10
-19.5007
20
-117.147
11
-19.5483
21
-117.195
0
LINE
8
BLACK
6
CONTINUOUS
10
-19.5483
20
-117.195
11
-19.6436
21
-117.242
0
LINE
8
BLACK
6
CONTINUOUS
10
-19.6436
20
-117.242
11
-19.8817
21
-117.242
0
LINE
8
BLACK
6
CONTINUOUS
10
-19.8817
20
-117.242
11
-19.9769
21
-117.195
0
LINE
8
BLACK
6
CONTINUOUS
10
-19.9769
20
-117.195
11
-20.0245
21
-117.147
0
LINE
8
BLACK
6
CONTINUOUS
10
-18.834
20
-116.242
11
-18.7388
21
-116.242
0
LINE
8
BLACK
6
CONTINUOUS
10
-18.7388
20
-116.242
11
-18.6436
21
-116.29
0
LINE
8
BLACK
6
CONTINUOUS
10
-18.6436
20
-116.29
11
-18.596
21
-116.338
0
LINE
8
BLACK
6
CONTINUOUS
10
-18.596
20
-116.338
11
-18.5483
21
-116.433
0
LINE
8
BLACK
6
CONTINUOUS
10
-18.5483
20
-116.433
11
-18.5007
21
-116.623
0
LINE
8
BLACK
6
CONTINUOUS
10
-18.5007
20
-116.623
11
-18.5007
21
-116.861
0
LINE
8
BLACK
6
CONTINUOUS
10
-18.5007
20
-116.861
11
-18.5483
21
-117.052
0
LINE
8
BLACK
6
CONTINUOUS
10
-18.5483
20
-117.052
11
-18.596
21
-117.147
0
LINE
8
BLACK
6
CONTINUOUS
10
-18.596
20
-117.147
11
-18.6436
21
-117.195
0
LINE
8
BLACK
6
CONTINUOUS
10
-18.6436
20
-117.195
11
-18.7388
21
-117.242
0
LINE
8
BLACK
6
CONTINUOUS
10
-18.7388
20
-117.242
11
-18.834
21
-117.242
0
LINE
8
BLACK
6
CONTINUOUS
10
-18.834
20
-117.242
11
-18.9293
21
-117.195
0
LINE
8
BLACK
6
CONTINUOUS
10
-18.9293
20
-117.195
11
-18.9769
21
-117.147
0
LINE
8
BLACK
6
CONTINUOUS
10
-18.9769
20
-117.147
11
-19.0245
21
-117.052
0
LINE
8
BLACK
6
CONTINUOUS
10
-19.0245
20
-117.052
11
-19.0721
21
-116.861
0
LINE
8
BLACK
6
CONTINUOUS
10
-19.0721
20
-116.861
11
-19.0721
21
-116.623
0
LINE
8
BLACK
6
CONTINUOUS
10
-19.0721
20
-116.623
11
-19.0245
21
-116.433
0
LINE
8
BLACK
6
CONTINUOUS
10
-19.0245
20
-116.433
11
-18.9769
21
-116.338
0
LINE
8
BLACK
6
CONTINUOUS
10
-18.9769
20
-116.338
11
-18.9293
21
-116.29
0
LINE
8
BLACK
6
CONTINUOUS
10
-18.9293
20
-116.29
11
-18.834
21
-116.242
0
LINE
8
BLACK
6
CONTINUOUS
10
-17.3102
20
-117.242
11
-17.3102
21
-116.576
0
LINE
8
BLACK
6
CONTINUOUS
10
-17.3102
20
-116.671
11
-17.2626
21
-116.623
0
LINE
8
BLACK
6
CONTINUOUS
10
-17.2626
20
-116.623
11
-17.1674
21
-116.576
0
LINE
8
BLACK
6
CONTINUOUS
10
-17.1674
20
-116.576
11
-17.0245
21
-116.576
0
LINE
8
BLACK
6
CONTINUOUS
10
-17.0245
20
-116.576
11
-16.9293
21
-116.623
0
LINE
8
BLACK
6
CONTINUOUS
10
-16.9293
20
-116.623
11
-16.8817
21
-116.719
0
LINE
8
BLACK
6
CONTINUOUS
10
-16.8817
20
-116.719
11
-16.8817
21
-117.242
0
LINE
8
BLACK
6
CONTINUOUS
10
-16.8817
20
-116.719
11
-16.834
21
-116.623
0
LINE
8
BLACK
6
CONTINUOUS
10
-16.834
20
-116.623
11
-16.7388
21
-116.576
0
LINE
8
BLACK
6
CONTINUOUS
10
-16.7388
20
-116.576
11
-16.596
21
-116.576
0
LINE
8
BLACK
6
CONTINUOUS
10
-16.596
20
-116.576
11
-16.5007
21
-116.623
0
LINE
8
BLACK
6
CONTINUOUS
10
-16.5007
20
-116.623
11
-16.4531
21
-116.719
0
LINE
8
BLACK
6
CONTINUOUS
10
-16.4531
20
-116.719
11
-16.4531
21
-117.242
0
LINE
8
BLACK
6
CONTINUOUS
10
-15.9769
20
-117.242
11
-15.9769
21
-116.576
0
LINE
8
BLACK
6
CONTINUOUS
10
-15.9769
20
-116.671
11
-15.9293
21
-116.623
0
LINE
8
BLACK
6
CONTINUOUS
10
-15.9293
20
-116.623
11
-15.834
21
-116.576
0
LINE
8
BLACK
6
CONTINUOUS
10
-15.834
20
-116.576
11
-15.6912
21
-116.576
0
LINE
8
BLACK
6
CONTINUOUS
10
-15.6912
20
-116.576
11
-15.596
21
-116.623
0
LINE
8
BLACK
6
CONTINUOUS
10
-15.596
20
-116.623
11
-15.5483
21
-116.719
0
LINE
8
BLACK
6
CONTINUOUS
10
-15.5483
20
-116.719
11
-15.5483
21
-117.242
0
LINE
8
BLACK
6
CONTINUOUS
10
-15.5483
20
-116.719
11
-15.5007
21
-116.623
0
LINE
8
BLACK
6
CONTINUOUS
10
-15.5007
20
-116.623
11
-15.4055
21
-116.576
0
LINE
8
BLACK
6
CONTINUOUS
10
-15.4055
20
-116.576
11
-15.2626
21
-116.576
0
LINE
8
BLACK
6
CONTINUOUS
10
-15.2626
20
-116.576
11
-15.1674
21
-116.623
0
LINE
8
BLACK
6
CONTINUOUS
10
-15.1674
20
-116.623
11
-15.1198
21
-116.719
0
LINE
8
BLACK
6
CONTINUOUS
10
-15.1198
20
-116.719
11
-15.1198
21
-117.242
0
LINE
8
BLACK
6
CONTINUOUS
10
-32.19
20
-115.59
11
-6.24
21
-115.59
0
LINE
8
BLACK
6
CONTINUOUS
10
-32.19
20
-113.825
11
-32.19
21
-116.176
0
LINE
8
BLACK
6
CONTINUOUS
10
-6.24
20
-113.825
11
-6.24
21
-116.176
0
LINE
8
BLACK
6
CONTINUOUS
10
-6.24
20
-115.59
11
-7.3665
21
-116.176
0
LINE
8
BLACK
6
CONTINUOUS
10
-6.24
20
-115.59
11
-7.3665
21
-115.004
0
LINE
8
BLACK
6
CONTINUOUS
10
-32.19
20
-115.59
11
-31.0635
21
-116.176
0
LINE
8
BLACK
6
CONTINUOUS
10
-32.19
20
-115.59
11
-31.0635
21
-115.004
0
LINE
8
BLACK
6
CONTINUOUS
10
-23.2401
20
-65.6924
11
-23.8115
21
-65.6924
0
LINE
8
BLACK
6
CONTINUOUS
10
-23.5258
20
-65.6924
11
-23.5258
21
-64.6924
0
LINE
8
BLACK
6
CONTINUOUS
10
-23.5258
20
-64.6924
11
-23.6211
21
-64.8352
0
LINE
8
BLACK
6
CONTINUOUS
10
-23.6211
20
-64.8352
11
-23.7163
21
-64.9305
0
LINE
8
BLACK
6
CONTINUOUS
10
-23.7163
20
-64.9305
11
-23.8115
21
-64.9781
0
LINE
8
BLACK
6
CONTINUOUS
10
-22.8115
20
-65.5971
11
-22.7639
21
-65.6448
0
LINE
8
BLACK
6
CONTINUOUS
10
-22.7639
20
-65.6448
11
-22.8115
21
-65.6924
0
LINE
8
BLACK
6
CONTINUOUS
10
-22.8115
20
-65.6924
11
-22.8592
21
-65.6448
0
LINE
8
BLACK
6
CONTINUOUS
10
-22.8592
20
-65.6448
11
-22.8115
21
-65.5971
0
LINE
8
BLACK
6
CONTINUOUS
10
-22.8115
20
-65.5971
11
-22.8115
21
-65.6924
0
LINE
8
BLACK
6
CONTINUOUS
10
-22.4306
20
-64.6924
11
-21.7639
21
-64.6924
0
LINE
8
BLACK
6
CONTINUOUS
10
-21.7639
20
-64.6924
11
-22.1925
21
-65.6924
0
LINE
8
BLACK
6
CONTINUOUS
10
-21.4306
20
-64.7876
11
-21.383
21
-64.74
0
LINE
8
BLACK
6
CONTINUOUS
10
-21.383
20
-64.74
11
-21.2877
21
-64.6924
0
LINE
8
BLACK
6
CONTINUOUS
10
-21.2877
20
-64.6924
11
-21.0496
21
-64.6924
0
LINE
8
BLACK
6
CONTINUOUS
10
-21.0496
20
-64.6924
11
-20.9544
21
-64.74
0
LINE
8
BLACK
6
CONTINUOUS
10
-20.9544
20
-64.74
11
-20.9068
21
-64.7876
0
LINE
8
BLACK
6
CONTINUOUS
10
-20.9068
20
-64.7876
11
-20.8592
21
-64.8829
0
LINE
8
BLACK
6
CONTINUOUS
10
-20.8592
20
-64.8829
11
-20.8592
21
-64.9781
0
LINE
8
BLACK
6
CONTINUOUS
10
-20.8592
20
-64.9781
11
-20.9068
21
-65.121
0
LINE
8
BLACK
6
CONTINUOUS
10
-20.9068
20
-65.121
11
-21.4782
21
-65.6924
0
LINE
8
BLACK
6
CONTINUOUS
10
-21.4782
20
-65.6924
11
-20.8592
21
-65.6924
0
LINE
8
BLACK
6
CONTINUOUS
10
-19.9544
20
-64.6924
11
-20.4306
21
-64.6924
0
LINE
8
BLACK
6
CONTINUOUS
10
-20.4306
20
-64.6924
11
-20.4782
21
-65.1686
0
LINE
8
BLACK
6
CONTINUOUS
10
-20.4782
20
-65.1686
11
-20.4306
21
-65.121
0
LINE
8
BLACK
6
CONTINUOUS
10
-20.4306
20
-65.121
11
-20.3354
21
-65.0733
0
LINE
8
BLACK
6
CONTINUOUS
10
-20.3354
20
-65.0733
11
-20.0973
21
-65.0733
0
LINE
8
BLACK
6
CONTINUOUS
10
-20.0973
20
-65.0733
11
-20.002
21
-65.121
0
LINE
8
BLACK
6
CONTINUOUS
10
-20.002
20
-65.121
11
-19.9544
21
-65.1686
0
LINE
8
BLACK
6
CONTINUOUS
10
-19.9544
20
-65.1686
11
-19.9068
21
-65.2638
0
LINE
8
BLACK
6
CONTINUOUS
10
-19.9068
20
-65.2638
11
-19.9068
21
-65.5019
0
LINE
8
BLACK
6
CONTINUOUS
10
-19.9068
20
-65.5019
11
-19.9544
21
-65.5971
0
LINE
8
BLACK
6
CONTINUOUS
10
-19.9544
20
-65.5971
11
-20.002
21
-65.6448
0
LINE
8
BLACK
6
CONTINUOUS
10
-20.002
20
-65.6448
11
-20.0973
21
-65.6924
0
LINE
8
BLACK
6
CONTINUOUS
10
-20.0973
20
-65.6924
11
-20.3354
21
-65.6924
0
LINE
8
BLACK
6
CONTINUOUS
10
-20.3354
20
-65.6924
11
-20.4306
21
-65.6448
0
LINE
8
BLACK
6
CONTINUOUS
10
-20.4306
20
-65.6448
11
-20.4782
21
-65.5971
0
LINE
8
BLACK
6
CONTINUOUS
10
-18.7163
20
-65.6924
11
-18.7163
21
-65.0257
0
LINE
8
BLACK
6
CONTINUOUS
10
-18.7163
20
-65.121
11
-18.6687
21
-65.0733
0
LINE
8
BLACK
6
CONTINUOUS
10
-18.6687
20
-65.0733
11
-18.5734
21
-65.0257
0
LINE
8
BLACK
6
CONTINUOUS
10
-18.5734
20
-65.0257
11
-18.4306
21
-65.0257
0
LINE
8
BLACK
6
CONTINUOUS
10
-18.4306
20
-65.0257
11
-18.3354
21
-65.0733
0
LINE
8
BLACK
6
CONTINUOUS
10
-18.3354
20
-65.0733
11
-18.2877
21
-65.1686
0
LINE
8
BLACK
6
CONTINUOUS
10
-18.2877
20
-65.1686
11
-18.2877
21
-65.6924
0
LINE
8
BLACK
6
CONTINUOUS
10
-18.2877
20
-65.1686
11
-18.2401
21
-65.0733
0
LINE
8
BLACK
6
CONTINUOUS
10
-18.2401
20
-65.0733
11
-18.1449
21
-65.0257
0
LINE
8
BLACK
6
CONTINUOUS
10
-18.1449
20
-65.0257
11
-18.002
21
-65.0257
0
LINE
8
BLACK
6
CONTINUOUS
10
-18.002
20
-65.0257
11
-17.9068
21
-65.0733
0
LINE
8
BLACK
6
CONTINUOUS
10
-17.9068
20
-65.0733
11
-17.8592
21
-65.1686
0
LINE
8
BLACK
6
CONTINUOUS
10
-17.8592
20
-65.1686
11
-17.8592
21
-65.6924
0
LINE
8
BLACK
6
CONTINUOUS
10
-17.383
20
-65.6924
11
-17.383
21
-65.0257
0
LINE
8
BLACK
6
CONTINUOUS
10
-17.383
20
-65.121
11
-17.3354
21
-65.0733
0
LINE
8
BLACK
6
CONTINUOUS
10
-17.3354
20
-65.0733
11
-17.2401
21
-65.0257
0
LINE
8
BLACK
6
CONTINUOUS
10
-17.2401
20
-65.0257
11
-17.0973
21
-65.0257
0
LINE
8
BLACK
6
CONTINUOUS
10
-17.0973
20
-65.0257
11
-17.002
21
-65.0733
0
LINE
8
BLACK
6
CONTINUOUS
10
-17.002
20
-65.0733
11
-16.9544
21
-65.1686
0
LINE
8
BLACK
6
CONTINUOUS
10
-16.9544
20
-65.1686
11
-16.9544
21
-65.6924
0
LINE
8
BLACK
6
CONTINUOUS
10
-16.9544
20
-65.1686
11
-16.9068
21
-65.0733
0
LINE
8
BLACK
6
CONTINUOUS
10
-16.9068
20
-65.0733
11
-16.8115
21
-65.0257
0
LINE
8
BLACK
6
CONTINUOUS
10
-16.8115
20
-65.0257
11
-16.6687
21
-65.0257
0
LINE
8
BLACK
6
CONTINUOUS
10
-16.6687
20
-65.0257
11
-16.5734
21
-65.0733
0
LINE
8
BLACK
6
CONTINUOUS
10
-16.5734
20
-65.0733
11
-16.5258
21
-65.1686
0
LINE
8
BLACK
6
CONTINUOUS
10
-16.5258
20
-65.1686
11
-16.5258
21
-65.6924
0
LINE
8
BLACK
6
CONTINUOUS
10
-21.0072
20
-66.44
11
-19.2825
21
-66.44
0
LINE
8
BLACK
6
CONTINUOUS
10
-21.0072
20
-66.98
11
-21.0072
21
-65.8536
0
LINE
8
BLACK
6
CONTINUOUS
10
-19.2825
20
-66.98
11
-19.2825
21
-65.8536
0
LINE
8
BLACK
6
CONTINUOUS
10
-19.2825
20
-66.44
11
-20.409
21
-67.0264
0
LINE
8
BLACK
6
CONTINUOUS
10
-19.2825
20
-66.44
11
-20.409
21
-65.8536
0
LINE
8
BLACK
6
CONTINUOUS
10
-21.0072
20
-66.44
11
-19.8807
21
-67.0264
0
LINE
8
BLACK
6
CONTINUOUS
10
-21.0072
20
-66.44
11
-19.8807
21
-65.8536
0
LINE
8
BLACK
6
CONTINUOUS
10
-28.265
20
-66.8924
11
-28.8364
21
-66.8924
0
LINE
8
BLACK
6
CONTINUOUS
10
-28.5507
20
-66.8924
11
-28.5507
21
-65.8924
0
LINE
8
BLACK
6
CONTINUOUS
10
-28.5507
20
-65.8924
11
-28.6459
21
-66.0352
0
LINE
8
BLACK
6
CONTINUOUS
10
-28.6459
20
-66.0352
11
-28.7412
21
-66.1305
0
LINE
8
BLACK
6
CONTINUOUS
10
-28.7412
20
-66.1305
11
-28.8364
21
-66.1781
0
LINE
8
BLACK
6
CONTINUOUS
10
-27.8364
20
-66.7971
11
-27.7888
21
-66.8448
0
LINE
8
BLACK
6
CONTINUOUS
10
-27.7888
20
-66.8448
11
-27.8364
21
-66.8924
0
LINE
8
BLACK
6
CONTINUOUS
10
-27.8364
20
-66.8924
11
-27.884
21
-66.8448
0
LINE
8
BLACK
6
CONTINUOUS
10
-27.884
20
-66.8448
11
-27.8364
21
-66.7971
0
LINE
8
BLACK
6
CONTINUOUS
10
-27.8364
20
-66.7971
11
-27.8364
21
-66.8924
0
LINE
8
BLACK
6
CONTINUOUS
10
-27.4555
20
-65.8924
11
-26.7888
21
-65.8924
0
LINE
8
BLACK
6
CONTINUOUS
10
-26.7888
20
-65.8924
11
-27.2174
21
-66.8924
0
LINE
8
BLACK
6
CONTINUOUS
10
-26.4555
20
-65.9876
11
-26.4078
21
-65.94
0
LINE
8
BLACK
6
CONTINUOUS
10
-26.4078
20
-65.94
11
-26.3126
21
-65.8924
0
LINE
8
BLACK
6
CONTINUOUS
10
-26.3126
20
-65.8924
11
-26.0745
21
-65.8924
0
LINE
8
BLACK
6
CONTINUOUS
10
-26.0745
20
-65.8924
11
-25.9793
21
-65.94
0
LINE
8
BLACK
6
CONTINUOUS
10
-25.9793
20
-65.94
11
-25.9317
21
-65.9876
0
LINE
8
BLACK
6
CONTINUOUS
10
-25.9317
20
-65.9876
11
-25.884
21
-66.0829
0
LINE
8
BLACK
6
CONTINUOUS
10
-25.884
20
-66.0829
11
-25.884
21
-66.1781
0
LINE
8
BLACK
6
CONTINUOUS
10
-25.884
20
-66.1781
11
-25.9317
21
-66.321
0
LINE
8
BLACK
6
CONTINUOUS
10
-25.9317
20
-66.321
11
-26.5031
21
-66.8924
0
LINE
8
BLACK
6
CONTINUOUS
10
-26.5031
20
-66.8924
11
-25.884
21
-66.8924
0
LINE
8
BLACK
6
CONTINUOUS
10
-24.9793
20
-65.8924
11
-25.4555
21
-65.8924
0
LINE
8
BLACK
6
CONTINUOUS
10
-25.4555
20
-65.8924
11
-25.5031
21
-66.3686
0
LINE
8
BLACK
6
CONTINUOUS
10
-25.5031
20
-66.3686
11
-25.4555
21
-66.321
0
LINE
8
BLACK
6
CONTINUOUS
10
-25.4555
20
-66.321
11
-25.3602
21
-66.2733
0
LINE
8
BLACK
6
CONTINUOUS
10
-25.3602
20
-66.2733
11
-25.1221
21
-66.2733
0
LINE
8
BLACK
6
CONTINUOUS
10
-25.1221
20
-66.2733
11
-25.0269
21
-66.321
0
LINE
8
BLACK
6
CONTINUOUS
10
-25.0269
20
-66.321
11
-24.9793
21
-66.3686
0
LINE
8
BLACK
6
CONTINUOUS
10
-24.9793
20
-66.3686
11
-24.9317
21
-66.4638
0
LINE
8
BLACK
6
CONTINUOUS
10
-24.9317
20
-66.4638
11
-24.9317
21
-66.7019
0
LINE
8
BLACK
6
CONTINUOUS
10
-24.9317
20
-66.7019
11
-24.9793
21
-66.7971
0
LINE
8
BLACK
6
CONTINUOUS
10
-24.9793
20
-66.7971
11
-25.0269
21
-66.8448
0
LINE
8
BLACK
6
CONTINUOUS
10
-25.0269
20
-66.8448
11
-25.1221
21
-66.8924
0
LINE
8
BLACK
6
CONTINUOUS
10
-25.1221
20
-66.8924
11
-25.3602
21
-66.8924
0
LINE
8
BLACK
6
CONTINUOUS
10
-25.3602
20
-66.8924
11
-25.4555
21
-66.8448
0
LINE
8
BLACK
6
CONTINUOUS
10
-25.4555
20
-66.8448
11
-25.5031
21
-66.7971
0
LINE
8
BLACK
6
CONTINUOUS
10
-23.7412
20
-66.8924
11
-23.7412
21
-66.2257
0
LINE
8
BLACK
6
CONTINUOUS
10
-23.7412
20
-66.321
11
-23.6936
21
-66.2733
0
LINE
8
BLACK
6
CONTINUOUS
10
-23.6936
20
-66.2733
11
-23.5983
21
-66.2257
0
LINE
8
BLACK
6
CONTINUOUS
10
-23.5983
20
-66.2257
11
-23.4555
21
-66.2257
0
LINE
8
BLACK
6
CONTINUOUS
10
-23.4555
20
-66.2257
11
-23.3602
21
-66.2733
0
LINE
8
BLACK
6
CONTINUOUS
10
-23.3602
20
-66.2733
11
-23.3126
21
-66.3686
0
LINE
8
BLACK
6
CONTINUOUS
10
-23.3126
20
-66.3686
11
-23.3126
21
-66.8924
0
LINE
8
BLACK
6
CONTINUOUS
10
-23.3126
20
-66.3686
11
-23.265
21
-66.2733
0
LINE
8
BLACK
6
CONTINUOUS
10
-23.265
20
-66.2733
11
-23.1698
21
-66.2257
0
LINE
8
BLACK
6
CONTINUOUS
10
-23.1698
20
-66.2257
11
-23.0269
21
-66.2257
0
LINE
8
BLACK
6
CONTINUOUS
10
-23.0269
20
-66.2257
11
-22.9317
21
-66.2733
0
LINE
8
BLACK
6
CONTINUOUS
10
-22.9317
20
-66.2733
11
-22.884
21
-66.3686
0
LINE
8
BLACK
6
CONTINUOUS
10
-22.884
20
-66.3686
11
-22.884
21
-66.8924
0
LINE
8
BLACK
6
CONTINUOUS
10
-22.4078
20
-66.8924
11
-22.4078
21
-66.2257
0
LINE
8
BLACK
6
CONTINUOUS
10
-22.4078
20
-66.321
11
-22.3602
21
-66.2733
0
LINE
8
BLACK
6
CONTINUOUS
10
-22.3602
20
-66.2733
11
-22.265
21
-66.2257
0
LINE
8
BLACK
6
CONTINUOUS
10
-22.265
20
-66.2257
11
-22.1221
21
-66.2257
0
LINE
8
BLACK
6
CONTINUOUS
10
-22.1221
20
-66.2257
11
-22.0269
21
-66.2733
0
LINE
8
BLACK
6
CONTINUOUS
10
-22.0269
20
-66.2733
11
-21.9793
21
-66.3686
0
LINE
8
BLACK
6
CONTINUOUS
10
-21.9793
20
-66.3686
11
-21.9793
21
-66.8924
0
LINE
8
BLACK
6
CONTINUOUS
10
-21.9793
20
-66.3686
11
-21.9317
21
-66.2733
0
LINE
8
BLACK
6
CONTINUOUS
10
-21.9317
20
-66.2733
11
-21.8364
21
-66.2257
0
LINE
8
BLACK
6
CONTINUOUS
10
-21.8364
20
-66.2257
11
-21.6936
21
-66.2257
0
LINE
8
BLACK
6
CONTINUOUS
10
-21.6936
20
-66.2257
11
-21.5983
21
-66.2733
0
LINE
8
BLACK
6
CONTINUOUS
10
-21.5983
20
-66.2733
11
-21.5507
21
-66.3686
0
LINE
8
BLACK
6
CONTINUOUS
10
-21.5507
20
-66.3686
11
-21.5507
21
-66.8924
0
LINE
8
BLACK
6
CONTINUOUS
10
-26.0322
20
-67.64
11
-24.3072
21
-67.64
0
LINE
8
BLACK
6
CONTINUOUS
10
-26.0322
20
-67.98
11
-26.0322
21
-67.0536
0
LINE
8
BLACK
6
CONTINUOUS
10
-24.3072
20
-67.98
11
-24.3072
21
-67.0536
0
LINE
8
BLACK
6
CONTINUOUS
10
-24.3072
20
-67.64
11
-25.4338
21
-68.2264
0
LINE
8
BLACK
6
CONTINUOUS
10
-24.3072
20
-67.64
11
-25.4338
21
-67.0536
0
LINE
8
BLACK
6
CONTINUOUS
10
-26.0322
20
-67.64
11
-24.9057
21
-68.2264
0
LINE
8
BLACK
6
CONTINUOUS
10
-26.0322
20
-67.64
11
-24.9057
21
-67.0536
0
LINE
8
BLACK
6
CONTINUOUS
10
-29.7224
20
-72.0586
11
-29.7224
21
-71.4871
0
LINE
8
BLACK
6
CONTINUOUS
10
-29.7224
20
-71.7729
11
-28.7224
21
-71.7729
0
LINE
8
BLACK
6
CONTINUOUS
10
-28.7224
20
-71.7729
11
-28.8652
21
-71.6776
0
LINE
8
BLACK
6
CONTINUOUS
10
-28.8652
20
-71.6776
11
-28.9605
21
-71.5824
0
LINE
8
BLACK
6
CONTINUOUS
10
-28.9605
20
-71.5824
11
-29.0081
21
-71.4871
0
LINE
8
BLACK
6
CONTINUOUS
10
-28.8176
20
-72.4395
11
-28.77
21
-72.4871
0
LINE
8
BLACK
6
CONTINUOUS
10
-28.77
20
-72.4871
11
-28.7224
21
-72.5824
0
LINE
8
BLACK
6
CONTINUOUS
10
-28.7224
20
-72.5824
11
-28.7224
21
-72.8205
0
LINE
8
BLACK
6
CONTINUOUS
10
-28.7224
20
-72.8205
11
-28.77
21
-72.9157
0
LINE
8
BLACK
6
CONTINUOUS
10
-28.77
20
-72.9157
11
-28.8176
21
-72.9633
0
LINE
8
BLACK
6
CONTINUOUS
10
-28.8176
20
-72.9633
11
-28.9129
21
-73.011
0
LINE
8
BLACK
6
CONTINUOUS
10
-28.9129
20
-73.011
11
-29.0081
21
-73.011
0
LINE
8
BLACK
6
CONTINUOUS
10
-29.0081
20
-73.011
11
-29.151
21
-72.9633
0
LINE
8
BLACK
6
CONTINUOUS
10
-29.151
20
-72.9633
11
-29.7224
21
-72.3919
0
LINE
8
BLACK
6
CONTINUOUS
10
-29.7224
20
-72.3919
11
-29.7224
21
-73.011
0
LINE
8
BLACK
6
CONTINUOUS
10
-29.6271
20
-73.4395
11
-29.6748
21
-73.4871
0
LINE
8
BLACK
6
CONTINUOUS
10
-29.6748
20
-73.4871
11
-29.7224
21
-73.4395
0
LINE
8
BLACK
6
CONTINUOUS
10
-29.7224
20
-73.4395
11
-29.6748
21
-73.3919
0
LINE
8
BLACK
6
CONTINUOUS
10
-29.6748
20
-73.3919
11
-29.6271
21
-73.4395
0
LINE
8
BLACK
6
CONTINUOUS
10
-29.6271
20
-73.4395
11
-29.7224
21
-73.4395
0
LINE
8
BLACK
6
CONTINUOUS
10
-28.7224
20
-73.8205
11
-28.7224
21
-74.4395
0
LINE
8
BLACK
6
CONTINUOUS
10
-28.7224
20
-74.4395
11
-29.1033
21
-74.1062
0
LINE
8
BLACK
6
CONTINUOUS
10
-29.1033
20
-74.1062
11
-29.1033
21
-74.249
0
LINE
8
BLACK
6
CONTINUOUS
10
-29.1033
20
-74.249
11
-29.151
21
-74.3443
0
LINE
8
BLACK
6
CONTINUOUS
10
-29.151
20
-74.3443
11
-29.1986
21
-74.3919
0
LINE
8
BLACK
6
CONTINUOUS
10
-29.1986
20
-74.3919
11
-29.2938
21
-74.4395
0
LINE
8
BLACK
6
CONTINUOUS
10
-29.2938
20
-74.4395
11
-29.5319
21
-74.4395
0
LINE
8
BLACK
6
CONTINUOUS
10
-29.5319
20
-74.4395
11
-29.6271
21
-74.3919
0
LINE
8
BLACK
6
CONTINUOUS
10
-29.6271
20
-74.3919
11
-29.6748
21
-74.3443
0
LINE
8
BLACK
6
CONTINUOUS
10
-29.6748
20
-74.3443
11
-29.7224
21
-74.249
0
LINE
8
BLACK
6
CONTINUOUS
10
-29.7224
20
-74.249
11
-29.7224
21
-73.9633
0
LINE
8
BLACK
6
CONTINUOUS
10
-29.7224
20
-73.9633
11
-29.6748
21
-73.8681
0
LINE
8
BLACK
6
CONTINUOUS
10
-29.6748
20
-73.8681
11
-29.6271
21
-73.8205
0
LINE
8
BLACK
6
CONTINUOUS
10
-28.7224
20
-75.0586
11
-28.7224
21
-75.1538
0
LINE
8
BLACK
6
CONTINUOUS
10
-28.7224
20
-75.1538
11
-28.77
21
-75.249
0
LINE
8
BLACK
6
CONTINUOUS
10
-28.77
20
-75.249
11
-28.8176
21
-75.2967
0
LINE
8
BLACK
6
CONTINUOUS
10
-28.8176
20
-75.2967
11
-28.9129
21
-75.3443
0
LINE
8
BLACK
6
CONTINUOUS
10
-28.9129
20
-75.3443
11
-29.1033
21
-75.3919
0
LINE
8
BLACK
6
CONTINUOUS
10
-29.1033
20
-75.3919
11
-29.3414
21
-75.3919
0
LINE
8
BLACK
6
CONTINUOUS
10
-29.3414
20
-75.3919
11
-29.5319
21
-75.3443
0
LINE
8
BLACK
6
CONTINUOUS
10
-29.5319
20
-75.3443
11
-29.6271
21
-75.2967
0
LINE
8
BLACK
6
CONTINUOUS
10
-29.6271
20
-75.2967
11
-29.6748
21
-75.249
0
LINE
8
BLACK
6
CONTINUOUS
10
-29.6748
20
-75.249
11
-29.7224
21
-75.1538
0
LINE
8
BLACK
6
CONTINUOUS
10
-29.7224
20
-75.1538
11
-29.7224
21
-75.0586
0
LINE
8
BLACK
6
CONTINUOUS
10
-29.7224
20
-75.0586
11
-29.6748
21
-74.9633
0
LINE
8
BLACK
6
CONTINUOUS
10
-29.6748
20
-74.9633
11
-29.6271
21
-74.9157
0
LINE
8
BLACK
6
CONTINUOUS
10
-29.6271
20
-74.9157
11
-29.5319
21
-74.8681
0
LINE
8
BLACK
6
CONTINUOUS
10
-29.5319
20
-74.8681
11
-29.3414
21
-74.8205
0
LINE
8
BLACK
6
CONTINUOUS
10
-29.3414
20
-74.8205
11
-29.1033
21
-74.8205
0
LINE
8
BLACK
6
CONTINUOUS
10
-29.1033
20
-74.8205
11
-28.9129
21
-74.8681
0
LINE
8
BLACK
6
CONTINUOUS
10
-28.9129
20
-74.8681
11
-28.8176
21
-74.9157
0
LINE
8
BLACK
6
CONTINUOUS
10
-28.8176
20
-74.9157
11
-28.77
21
-74.9633
0
LINE
8
BLACK
6
CONTINUOUS
10
-28.77
20
-74.9633
11
-28.7224
21
-75.0586
0
LINE
8
BLACK
6
CONTINUOUS
10
-28.7224
20
-76.011
11
-28.7224
21
-76.1062
0
LINE
8
BLACK
6
CONTINUOUS
10
-28.7224
20
-76.1062
11
-28.77
21
-76.2014
0
LINE
8
BLACK
6
CONTINUOUS
10
-28.77
20
-76.2014
11
-28.8176
21
-76.249
0
LINE
8
BLACK
6
CONTINUOUS
10
-28.8176
20
-76.249
11
-28.9129
21
-76.2967
0
LINE
8
BLACK
6
CONTINUOUS
10
-28.9129
20
-76.2967
11
-29.1033
21
-76.3443
0
LINE
8
BLACK
6
CONTINUOUS
10
-29.1033
20
-76.3443
11
-29.3414
21
-76.3443
0
LINE
8
BLACK
6
CONTINUOUS
10
-29.3414
20
-76.3443
11
-29.5319
21
-76.2967
0
LINE
8
BLACK
6
CONTINUOUS
10
-29.5319
20
-76.2967
11
-29.6271
21
-76.249
0
LINE
8
BLACK
6
CONTINUOUS
10
-29.6271
20
-76.249
11
-29.6748
21
-76.2014
0
LINE
8
BLACK
6
CONTINUOUS
10
-29.6748
20
-76.2014
11
-29.7224
21
-76.1062
0
LINE
8
BLACK
6
CONTINUOUS
10
-29.7224
20
-76.1062
11
-29.7224
21
-76.011
0
LINE
8
BLACK
6
CONTINUOUS
10
-29.7224
20
-76.011
11
-29.6748
21
-75.9157
0
LINE
8
BLACK
6
CONTINUOUS
10
-29.6748
20
-75.9157
11
-29.6271
21
-75.8681
0
LINE
8
BLACK
6
CONTINUOUS
10
-29.6271
20
-75.8681
11
-29.5319
21
-75.8205
0
LINE
8
BLACK
6
CONTINUOUS
10
-29.5319
20
-75.8205
11
-29.3414
21
-75.7729
0
LINE
8
BLACK
6
CONTINUOUS
10
-29.3414
20
-75.7729
11
-29.1033
21
-75.7729
0
LINE
8
BLACK
6
CONTINUOUS
10
-29.1033
20
-75.7729
11
-28.9129
21
-75.8205
0
LINE
8
BLACK
6
CONTINUOUS
10
-28.9129
20
-75.8205
11
-28.8176
21
-75.8681
0
LINE
8
BLACK
6
CONTINUOUS
10
-28.8176
20
-75.8681
11
-28.77
21
-75.9157
0
LINE
8
BLACK
6
CONTINUOUS
10
-28.77
20
-75.9157
11
-28.7224
21
-76.011
0
LINE
8
BLACK
6
CONTINUOUS
10
-29.7224
20
-77.5348
11
-29.0557
21
-77.5348
0
LINE
8
BLACK
6
CONTINUOUS
10
-29.151
20
-77.5348
11
-29.1033
21
-77.5824
0
LINE
8
BLACK
6
CONTINUOUS
10
-29.1033
20
-77.5824
11
-29.0557
21
-77.6776
0
LINE
8
BLACK
6
CONTINUOUS
10
-29.0557
20
-77.6776
11
-29.0557
21
-77.8205
0
LINE
8
BLACK
6
CONTINUOUS
10
-29.0557
20
-77.8205
11
-29.1033
21
-77.9157
0
LINE
8
BLACK
6
CONTINUOUS
10
-29.1033
20
-77.9157
11
-29.1986
21
-77.9633
0
LINE
8
BLACK
6
CONTINUOUS
10
-29.1986
20
-77.9633
11
-29.7224
21
-77.9633
0
LINE
8
BLACK
6
CONTINUOUS
10
-29.1986
20
-77.9633
11
-29.1033
21
-78.011
0
LINE
8
BLACK
6
CONTINUOUS
10
-29.1033
20
-78.011
11
-29.0557
21
-78.1062
0
LINE
8
BLACK
6
CONTINUOUS
10
-29.0557
20
-78.1062
11
-29.0557
21
-78.249
0
LINE
8
BLACK
6
CONTINUOUS
10
-29.0557
20
-78.249
11
-29.1033
21
-78.3443
0
LINE
8
BLACK
6
CONTINUOUS
10
-29.1033
20
-78.3443
11
-29.1986
21
-78.3919
0
LINE
8
BLACK
6
CONTINUOUS
10
-29.1986
20
-78.3919
11
-29.7224
21
-78.3919
0
LINE
8
BLACK
6
CONTINUOUS
10
-29.7224
20
-78.8681
11
-29.0557
21
-78.8681
0
LINE
8
BLACK
6
CONTINUOUS
10
-29.151
20
-78.8681
11
-29.1033
21
-78.9157
0
LINE
8
BLACK
6
CONTINUOUS
10
-29.1033
20
-78.9157
11
-29.0557
21
-79.011
0
LINE
8
BLACK
6
CONTINUOUS
10
-29.0557
20
-79.011
11
-29.0557
21
-79.1538
0
LINE
8
BLACK
6
CONTINUOUS
10
-29.0557
20
-79.1538
11
-29.1033
21
-79.249
0
LINE
8
BLACK
6
CONTINUOUS
10
-29.1033
20
-79.249
11
-29.1986
21
-79.2967
0
LINE
8
BLACK
6
CONTINUOUS
10
-29.1986
20
-79.2967
11
-29.7224
21
-79.2967
0
LINE
8
BLACK
6
CONTINUOUS
10
-29.1986
20
-79.2967
11
-29.1033
21
-79.3443
0
LINE
8
BLACK
6
CONTINUOUS
10
-29.1033
20
-79.3443
11
-29.0557
21
-79.4395
0
LINE
8
BLACK
6
CONTINUOUS
10
-29.0557
20
-79.4395
11
-29.0557
21
-79.5824
0
LINE
8
BLACK
6
CONTINUOUS
10
-29.0557
20
-79.5824
11
-29.1033
21
-79.6776
0
LINE
8
BLACK
6
CONTINUOUS
10
-29.1033
20
-79.6776
11
-29.1986
21
-79.7252
0
LINE
8
BLACK
6
CONTINUOUS
10
-29.1986
20
-79.7252
11
-29.7224
21
-79.7252
0
LINE
8
BLACK
6
CONTINUOUS
10
-28.07
20
-69.48
11
-28.07
21
-81.78
0
LINE
8
BLACK
6
CONTINUOUS
10
-27.0322
20
-69.48
11
-28.6564
21
-69.48
0
LINE
8
BLACK
6
CONTINUOUS
10
-27.0322
20
-81.78
11
-28.6564
21
-81.78
0
LINE
8
BLACK
6
CONTINUOUS
10
-28.07
20
-81.78
11
-28.6564
21
-80.6535
0
LINE
8
BLACK
6
CONTINUOUS
10
-28.07
20
-81.78
11
-27.4836
21
-80.6535
0
LINE
8
BLACK
6
CONTINUOUS
10
-28.07
20
-69.48
11
-28.6564
21
-70.6065
0
LINE
8
BLACK
6
CONTINUOUS
10
-28.07
20
-69.48
11
-27.4836
21
-70.6065
0
LINE
8
BLACK
6
CONTINUOUS
10
-2.56879
20
-65.3724
11
-1.94974
21
-65.3724
0
LINE
8
BLACK
6
CONTINUOUS
10
-1.94974
20
-65.3724
11
-2.28307
21
-65.7533
0
LINE
8
BLACK
6
CONTINUOUS
10
-2.28307
20
-65.7533
11
-2.14021
21
-65.7533
0
LINE
8
BLACK
6
CONTINUOUS
10
-2.14021
20
-65.7533
11
-2.04498
21
-65.801
0
LINE
8
BLACK
6
CONTINUOUS
10
-2.04498
20
-65.801
11
-1.99736
21
-65.8486
0
LINE
8
BLACK
6
CONTINUOUS
10
-1.99736
20
-65.8486
11
-1.94974
21
-65.9438
0
LINE
8
BLACK
6
CONTINUOUS
10
-1.94974
20
-65.9438
11
-1.94974
21
-66.1819
0
LINE
8
BLACK
6
CONTINUOUS
10
-1.94974
20
-66.1819
11
-1.99736
21
-66.2771
0
LINE
8
BLACK
6
CONTINUOUS
10
-1.99736
20
-66.2771
11
-2.04498
21
-66.3248
0
LINE
8
BLACK
6
CONTINUOUS
10
-2.04498
20
-66.3248
11
-2.14021
21
-66.3724
0
LINE
8
BLACK
6
CONTINUOUS
10
-2.14021
20
-66.3724
11
-2.42593
21
-66.3724
0
LINE
8
BLACK
6
CONTINUOUS
10
-2.42593
20
-66.3724
11
-2.52117
21
-66.3248
0
LINE
8
BLACK
6
CONTINUOUS
10
-2.52117
20
-66.3248
11
-2.56879
21
-66.2771
0
LINE
8
BLACK
6
CONTINUOUS
10
-1.52117
20
-66.2771
11
-1.47355
21
-66.3248
0
LINE
8
BLACK
6
CONTINUOUS
10
-1.47355
20
-66.3248
11
-1.52117
21
-66.3724
0
LINE
8
BLACK
6
CONTINUOUS
10
-1.52117
20
-66.3724
11
-1.56878
21
-66.3248
0
LINE
8
BLACK
6
CONTINUOUS
10
-1.56878
20
-66.3248
11
-1.52117
21
-66.2771
0
LINE
8
BLACK
6
CONTINUOUS
10
-1.52117
20
-66.2771
11
-1.52117
21
-66.3724
0
LINE
8
BLACK
6
CONTINUOUS
10
-1.14021
20
-65.3724
11
-0.521166
21
-65.3724
0
LINE
8
BLACK
6
CONTINUOUS
10
-0.521166
20
-65.3724
11
-0.8545
21
-65.7533
0
LINE
8
BLACK
6
CONTINUOUS
10
-0.8545
20
-65.7533
11
-0.711642
21
-65.7533
0
LINE
8
BLACK
6
CONTINUOUS
10
-0.711642
20
-65.7533
11
-0.616404
21
-65.801
0
LINE
8
BLACK
6
CONTINUOUS
10
-0.616404
20
-65.801
11
-0.568785
21
-65.8486
0
LINE
8
BLACK
6
CONTINUOUS
10
-0.568785
20
-65.8486
11
-0.521166
21
-65.9438
0
LINE
8
BLACK
6
CONTINUOUS
10
-0.521166
20
-65.9438
11
-0.521166
21
-66.1819
0
LINE
8
BLACK
6
CONTINUOUS
10
-0.521166
20
-66.1819
11
-0.568785
21
-66.2771
0
LINE
8
BLACK
6
CONTINUOUS
10
-0.568785
20
-66.2771
11
-0.616404
21
-66.3248
0
LINE
8
BLACK
6
CONTINUOUS
10
-0.616404
20
-66.3248
11
-0.711642
21
-66.3724
0
LINE
8
BLACK
6
CONTINUOUS
10
-0.711642
20
-66.3724
11
-0.997357
21
-66.3724
0
LINE
8
BLACK
6
CONTINUOUS
10
-0.997357
20
-66.3724
11
-1.09259
21
-66.3248
0
LINE
8
BLACK
6
CONTINUOUS
10
-1.09259
20
-66.3248
11
-1.14021
21
-66.2771
0
LINE
8
BLACK
6
CONTINUOUS
10
0.09788
20
-65.3724
11
0.193119
21
-65.3724
0
LINE
8
BLACK
6
CONTINUOUS
10
0.193119
20
-65.3724
11
0.288357
21
-65.42
0
LINE
8
BLACK
6
CONTINUOUS
10
0.288357
20
-65.42
11
0.335976
21
-65.4676
0
LINE
8
BLACK
6
CONTINUOUS
10
0.335976
20
-65.4676
11
0.383595
21
-65.5629
0
LINE
8
BLACK
6
CONTINUOUS
10
0.383595
20
-65.5629
11
0.431214
21
-65.7533
0
LINE
8
BLACK
6
CONTINUOUS
10
0.431214
20
-65.7533
11
0.431214
21
-65.9914
0
LINE
8
BLACK
6
CONTINUOUS
10
0.431214
20
-65.9914
11
0.383595
21
-66.1819
0
LINE
8
BLACK
6
CONTINUOUS
10
0.383595
20
-66.1819
11
0.335976
21
-66.2771
0
LINE
8
BLACK
6
CONTINUOUS
10
0.335976
20
-66.2771
11
0.288357
21
-66.3248
0
LINE
8
BLACK
6
CONTINUOUS
10
0.288357
20
-66.3248
11
0.193119
21
-66.3724
0
LINE
8
BLACK
6
CONTINUOUS
10
0.193119
20
-66.3724
11
0.09788
21
-66.3724
0
LINE
8
BLACK
6
CONTINUOUS
10
0.09788
20
-66.3724
11
0.002642
21
-66.3248
0
LINE
8
BLACK
6
CONTINUOUS
10
0.002642
20
-66.3248
11
-0.044976
21
-66.2771
0
LINE
8
BLACK
6
CONTINUOUS
10
-0.044976
20
-66.2771
11
-0.092595
21
-66.1819
0
LINE
8
BLACK
6
CONTINUOUS
10
-0.092595
20
-66.1819
11
-0.140214
21
-65.9914
0
LINE
8
BLACK
6
CONTINUOUS
10
-0.140214
20
-65.9914
11
-0.140214
21
-65.7533
0
LINE
8
BLACK
6
CONTINUOUS
10
-0.140214
20
-65.7533
11
-0.092595
21
-65.5629
0
LINE
8
BLACK
6
CONTINUOUS
10
-0.092595
20
-65.5629
11
-0.044976
21
-65.4676
0
LINE
8
BLACK
6
CONTINUOUS
10
-0.044976
20
-65.4676
11
0.002642
21
-65.42
0
LINE
8
BLACK
6
CONTINUOUS
10
0.002642
20
-65.42
11
0.09788
21
-65.3724
0
LINE
8
BLACK
6
CONTINUOUS
10
1.05026
20
-65.3724
11
1.1455
21
-65.3724
0
LINE
8
BLACK
6
CONTINUOUS
10
1.1455
20
-65.3724
11
1.24074
21
-65.42
0
LINE
8
BLACK
6
CONTINUOUS
10
1.24074
20
-65.42
11
1.28836
21
-65.4676
0
LINE
8
BLACK
6
CONTINUOUS
10
1.28836
20
-65.4676
11
1.33598
21
-65.5629
0
LINE
8
BLACK
6
CONTINUOUS
10
1.33598
20
-65.5629
11
1.38359
21
-65.7533
0
LINE
8
BLACK
6
CONTINUOUS
10
1.38359
20
-65.7533
11
1.38359
21
-65.9914
0
LINE
8
BLACK
6
CONTINUOUS
10
1.38359
20
-65.9914
11
1.33598
21
-66.1819
0
LINE
8
BLACK
6
CONTINUOUS
10
1.33598
20
-66.1819
11
1.28836
21
-66.2771
0
LINE
8
BLACK
6
CONTINUOUS
10
1.28836
20
-66.2771
11
1.24074
21
-66.3248
0
LINE
8
BLACK
6
CONTINUOUS
10
1.24074
20
-66.3248
11
1.1455
21
-66.3724
0
LINE
8
BLACK
6
CONTINUOUS
10
1.1455
20
-66.3724
11
1.05026
21
-66.3724
0
LINE
8
BLACK
6
CONTINUOUS
10
1.05026
20
-66.3724
11
0.955023
21
-66.3248
0
LINE
8
BLACK
6
CONTINUOUS
10
0.955023
20
-66.3248
11
0.907404
21
-66.2771
0
LINE
8
BLACK
6
CONTINUOUS
10
0.907404
20
-66.2771
11
0.859785
21
-66.1819
0
LINE
8
BLACK
6
CONTINUOUS
10
0.859785
20
-66.1819
11
0.812166
21
-65.9914
0
LINE
8
BLACK
6
CONTINUOUS
10
0.812166
20
-65.9914
11
0.812166
21
-65.7533
0
LINE
8
BLACK
6
CONTINUOUS
10
0.812166
20
-65.7533
11
0.859785
21
-65.5629
0
LINE
8
BLACK
6
CONTINUOUS
10
0.859785
20
-65.5629
11
0.907404
21
-65.4676
0
LINE
8
BLACK
6
CONTINUOUS
10
0.907404
20
-65.4676
11
0.955023
21
-65.42
0
LINE
8
BLACK
6
CONTINUOUS
10
0.955023
20
-65.42
11
1.05026
21
-65.3724
0
LINE
8
BLACK
6
CONTINUOUS
10
2.57407
20
-66.3724
11
2.57407
21
-65.7057
0
LINE
8
BLACK
6
CONTINUOUS
10
2.57407
20
-65.801
11
2.62169
21
-65.7533
0
LINE
8
BLACK
6
CONTINUOUS
10
2.62169
20
-65.7533
11
2.71693
21
-65.7057
0
LINE
8
BLACK
6
CONTINUOUS
10
2.71693
20
-65.7057
11
2.85979
21
-65.7057
0
LINE
8
BLACK
6
CONTINUOUS
10
2.85979
20
-65.7057
11
2.95502
21
-65.7533
0
LINE
8
BLACK
6
CONTINUOUS
10
2.95502
20
-65.7533
11
3.00264
21
-65.8486
0
LINE
8
BLACK
6
CONTINUOUS
10
3.00264
20
-65.8486
11
3.00264
21
-66.3724
0
LINE
8
BLACK
6
CONTINUOUS
10
3.00264
20
-65.8486
11
3.05026
21
-65.7533
0
LINE
8
BLACK
6
CONTINUOUS
10
3.05026
20
-65.7533
11
3.1455
21
-65.7057
0
LINE
8
BLACK
6
CONTINUOUS
10
3.1455
20
-65.7057
11
3.28836
21
-65.7057
0
LINE
8
BLACK
6
CONTINUOUS
10
3.28836
20
-65.7057
11
3.38359
21
-65.7533
0
LINE
8
BLACK
6
CONTINUOUS
10
3.38359
20
-65.7533
11
3.43121
21
-65.8486
0
LINE
8
BLACK
6
CONTINUOUS
10
3.43121
20
-65.8486
11
3.43121
21
-66.3724
0
LINE
8
BLACK
6
CONTINUOUS
10
3.9074
20
-66.3724
11
3.9074
21
-65.7057
0
LINE
8
BLACK
6
CONTINUOUS
10
3.9074
20
-65.801
11
3.95502
21
-65.7533
0
LINE
8
BLACK
6
CONTINUOUS
10
3.95502
20
-65.7533
11
4.05026
21
-65.7057
0
LINE
8
BLACK
6
CONTINUOUS
10
4.05026
20
-65.7057
11
4.19312
21
-65.7057
0
LINE
8
BLACK
6
CONTINUOUS
10
4.19312
20
-65.7057
11
4.28836
21
-65.7533
0
LINE
8
BLACK
6
CONTINUOUS
10
4.28836
20
-65.7533
11
4.33598
21
-65.8486
0
LINE
8
BLACK
6
CONTINUOUS
10
4.33598
20
-65.8486
11
4.33598
21
-66.3724
0
LINE
8
BLACK
6
CONTINUOUS
10
4.33598
20
-65.8486
11
4.38359
21
-65.7533
0
LINE
8
BLACK
6
CONTINUOUS
10
4.38359
20
-65.7533
11
4.47883
21
-65.7057
0
LINE
8
BLACK
6
CONTINUOUS
10
4.47883
20
-65.7057
11
4.62169
21
-65.7057
0
LINE
8
BLACK
6
CONTINUOUS
10
4.62169
20
-65.7057
11
4.71693
21
-65.7533
0
LINE
8
BLACK
6
CONTINUOUS
10
4.71693
20
-65.7533
11
4.76455
21
-65.8486
0
LINE
8
BLACK
6
CONTINUOUS
10
4.76455
20
-65.8486
11
4.76455
21
-66.3724
0
LINE
8
BLACK
6
CONTINUOUS
10
-0.5045
20
-67.12
11
2.7955
21
-67.12
0
LINE
8
BLACK
6
CONTINUOUS
10
-0.5045
20
-67.28
11
-0.5045
21
-66.5336
0
LINE
8
BLACK
6
CONTINUOUS
10
2.7955
20
-67.28
11
2.7955
21
-66.5336
0
LINE
8
BLACK
6
CONTINUOUS
10
2.7955
20
-67.12
11
1.669
21
-67.7064
0
LINE
8
BLACK
6
CONTINUOUS
10
2.7955
20
-67.12
11
1.669
21
-66.5336
0
LINE
8
BLACK
6
CONTINUOUS
10
-0.5045
20
-67.12
11
0.622004
21
-67.7064
0
LINE
8
BLACK
6
CONTINUOUS
10
-0.5045
20
-67.12
11
0.622004
21
-66.5336
0
LINE
8
BLACK
6
CONTINUOUS
10
8.39238
20
-75.813
11
8.39238
21
-76.0035
0
LINE
8
BLACK
6
CONTINUOUS
10
8.39238
20
-76.0035
11
8.44
21
-76.0987
0
LINE
8
BLACK
6
CONTINUOUS
10
8.44
20
-76.0987
11
8.48762
21
-76.1463
0
LINE
8
BLACK
6
CONTINUOUS
10
8.48762
20
-76.1463
11
8.63048
21
-76.2415
0
LINE
8
BLACK
6
CONTINUOUS
10
8.63048
20
-76.2415
11
8.82095
21
-76.2892
0
LINE
8
BLACK
6
CONTINUOUS
10
8.82095
20
-76.2892
11
9.2019
21
-76.2892
0
LINE
8
BLACK
6
CONTINUOUS
10
9.2019
20
-76.2892
11
9.29714
21
-76.2415
0
LINE
8
BLACK
6
CONTINUOUS
10
9.29714
20
-76.2415
11
9.34476
21
-76.1939
0
LINE
8
BLACK
6
CONTINUOUS
10
9.34476
20
-76.1939
11
9.39238
21
-76.0987
0
LINE
8
BLACK
6
CONTINUOUS
10
9.39238
20
-76.0987
11
9.39238
21
-75.9082
0
LINE
8
BLACK
6
CONTINUOUS
10
9.39238
20
-75.9082
11
9.34476
21
-75.813
0
LINE
8
BLACK
6
CONTINUOUS
10
9.34476
20
-75.813
11
9.29714
21
-75.7654
0
LINE
8
BLACK
6
CONTINUOUS
10
9.29714
20
-75.7654
11
9.2019
21
-75.7177
0
LINE
8
BLACK
6
CONTINUOUS
10
9.2019
20
-75.7177
11
8.96381
21
-75.7177
0
LINE
8
BLACK
6
CONTINUOUS
10
8.96381
20
-75.7177
11
8.86857
21
-75.7654
0
LINE
8
BLACK
6
CONTINUOUS
10
8.86857
20
-75.7654
11
8.82095
21
-75.813
0
LINE
8
BLACK
6
CONTINUOUS
10
8.82095
20
-75.813
11
8.77333
21
-75.9082
0
LINE
8
BLACK
6
CONTINUOUS
10
8.77333
20
-75.9082
11
8.77333
21
-76.0987
0
LINE
8
BLACK
6
CONTINUOUS
10
8.77333
20
-76.0987
11
8.82095
21
-76.1939
0
LINE
8
BLACK
6
CONTINUOUS
10
8.82095
20
-76.1939
11
8.86857
21
-76.2415
0
LINE
8
BLACK
6
CONTINUOUS
10
8.86857
20
-76.2415
11
8.96381
21
-76.2892
0
LINE
8
BLACK
6
CONTINUOUS
10
9.29714
20
-75.2892
11
9.34476
21
-75.2415
0
LINE
8
BLACK
6
CONTINUOUS
10
9.34476
20
-75.2415
11
9.39238
21
-75.2892
0
LINE
8
BLACK
6
CONTINUOUS
10
9.39238
20
-75.2892
11
9.34476
21
-75.3368
0
LINE
8
BLACK
6
CONTINUOUS
10
9.34476
20
-75.3368
11
9.29714
21
-75.2892
0
LINE
8
BLACK
6
CONTINUOUS
10
9.29714
20
-75.2892
11
9.39238
21
-75.2892
0
LINE
8
BLACK
6
CONTINUOUS
10
8.48762
20
-74.8606
11
8.44
21
-74.813
0
LINE
8
BLACK
6
CONTINUOUS
10
8.44
20
-74.813
11
8.39238
21
-74.7177
0
LINE
8
BLACK
6
CONTINUOUS
10
8.39238
20
-74.7177
11
8.39238
21
-74.4796
0
LINE
8
BLACK
6
CONTINUOUS
10
8.39238
20
-74.4796
11
8.44
21
-74.3844
0
LINE
8
BLACK
6
CONTINUOUS
10
8.44
20
-74.3844
11
8.48762
21
-74.3368
0
LINE
8
BLACK
6
CONTINUOUS
10
8.48762
20
-74.3368
11
8.58286
21
-74.2892
0
LINE
8
BLACK
6
CONTINUOUS
10
8.58286
20
-74.2892
11
8.67809
21
-74.2892
0
LINE
8
BLACK
6
CONTINUOUS
10
8.67809
20
-74.2892
11
8.82095
21
-74.3368
0
LINE
8
BLACK
6
CONTINUOUS
10
8.82095
20
-74.3368
11
9.39238
21
-74.9082
0
LINE
8
BLACK
6
CONTINUOUS
10
9.39238
20
-74.9082
11
9.39238
21
-74.2892
0
LINE
8
BLACK
6
CONTINUOUS
10
8.82095
20
-73.7177
11
8.77333
21
-73.813
0
LINE
8
BLACK
6
CONTINUOUS
10
8.77333
20
-73.813
11
8.72571
21
-73.8606
0
LINE
8
BLACK
6
CONTINUOUS
10
8.72571
20
-73.8606
11
8.63048
21
-73.9082
0
LINE
8
BLACK
6
CONTINUOUS
10
8.63048
20
-73.9082
11
8.58286
21
-73.9082
0
LINE
8
BLACK
6
CONTINUOUS
10
8.58286
20
-73.9082
11
8.48762
21
-73.8606
0
LINE
8
BLACK
6
CONTINUOUS
10
8.48762
20
-73.8606
11
8.44
21
-73.813
0
LINE
8
BLACK
6
CONTINUOUS
10
8.44
20
-73.813
11
8.39238
21
-73.7177
0
LINE
8
BLACK
6
CONTINUOUS
10
8.39238
20
-73.7177
11
8.39238
21
-73.5273
0
LINE
8
BLACK
6
CONTINUOUS
10
8.39238
20
-73.5273
11
8.44
21
-73.432
0
LINE
8
BLACK
6
CONTINUOUS
10
8.44
20
-73.432
11
8.48762
21
-73.3844
0
LINE
8
BLACK
6
CONTINUOUS
10
8.48762
20
-73.3844
11
8.58286
21
-73.3368
0
LINE
8
BLACK
6
CONTINUOUS
10
8.58286
20
-73.3368
11
8.63048
21
-73.3368
0
LINE
8
BLACK
6
CONTINUOUS
10
8.63048
20
-73.3368
11
8.72571
21
-73.3844
0
LINE
8
BLACK
6
CONTINUOUS
10
8.72571
20
-73.3844
11
8.77333
21
-73.432
0
LINE
8
BLACK
6
CONTINUOUS
10
8.77333
20
-73.432
11
8.82095
21
-73.5273
0
LINE
8
BLACK
6
CONTINUOUS
10
8.82095
20
-73.5273
11
8.82095
21
-73.7177
0
LINE
8
BLACK
6
CONTINUOUS
10
8.82095
20
-73.7177
11
8.86857
21
-73.813
0
LINE
8
BLACK
6
CONTINUOUS
10
8.86857
20
-73.813
11
8.91619
21
-73.8606
0
LINE
8
BLACK
6
CONTINUOUS
10
8.91619
20
-73.8606
11
9.01143
21
-73.9082
0
LINE
8
BLACK
6
CONTINUOUS
10
9.01143
20
-73.9082
11
9.2019
21
-73.9082
0
LINE
8
BLACK
6
CONTINUOUS
10
9.2019
20
-73.9082
11
9.29714
21
-73.8606
0
LINE
8
BLACK
6
CONTINUOUS
10
9.29714
20
-73.8606
11
9.34476
21
-73.813
0
LINE
8
BLACK
6
CONTINUOUS
10
9.34476
20
-73.813
11
9.39238
21
-73.7177
0
LINE
8
BLACK
6
CONTINUOUS
10
9.39238
20
-73.7177
11
9.39238
21
-73.5273
0
LINE
8
BLACK
6
CONTINUOUS
10
9.39238
20
-73.5273
11
9.34476
21
-73.432
0
LINE
8
BLACK
6
CONTINUOUS
10
9.34476
20
-73.432
11
9.29714
21
-73.3844
0
LINE
8
BLACK
6
CONTINUOUS
10
9.29714
20
-73.3844
11
9.2019
21
-73.3368
0
LINE
8
BLACK
6
CONTINUOUS
10
9.2019
20
-73.3368
11
9.01143
21
-73.3368
0
LINE
8
BLACK
6
CONTINUOUS
10
9.01143
20
-73.3368
11
8.91619
21
-73.3844
0
LINE
8
BLACK
6
CONTINUOUS
10
8.91619
20
-73.3844
11
8.86857
21
-73.432
0
LINE
8
BLACK
6
CONTINUOUS
10
8.86857
20
-73.432
11
8.82095
21
-73.5273
0
LINE
8
BLACK
6
CONTINUOUS
10
8.39238
20
-72.432
11
8.39238
21
-72.9082
0
LINE
8
BLACK
6
CONTINUOUS
10
8.39238
20
-72.9082
11
8.86857
21
-72.9558
0
LINE
8
BLACK
6
CONTINUOUS
10
8.86857
20
-72.9558
11
8.82095
21
-72.9082
0
LINE
8
BLACK
6
CONTINUOUS
10
8.82095
20
-72.9082
11
8.77333
21
-72.813
0
LINE
8
BLACK
6
CONTINUOUS
10
8.77333
20
-72.813
11
8.77333
21
-72.5749
0
LINE
8
BLACK
6
CONTINUOUS
10
8.77333
20
-72.5749
11
8.82095
21
-72.4796
0
LINE
8
BLACK
6
CONTINUOUS
10
8.82095
20
-72.4796
11
8.86857
21
-72.432
0
LINE
8
BLACK
6
CONTINUOUS
10
8.86857
20
-72.432
11
8.96381
21
-72.3844
0
LINE
8
BLACK
6
CONTINUOUS
10
8.96381
20
-72.3844
11
9.2019
21
-72.3844
0
LINE
8
BLACK
6
CONTINUOUS
10
9.2019
20
-72.3844
11
9.29714
21
-72.432
0
LINE
8
BLACK
6
CONTINUOUS
10
9.29714
20
-72.432
11
9.34476
21
-72.4796
0
LINE
8
BLACK
6
CONTINUOUS
10
9.34476
20
-72.4796
11
9.39238
21
-72.5749
0
LINE
8
BLACK
6
CONTINUOUS
10
9.39238
20
-72.5749
11
9.39238
21
-72.813
0
LINE
8
BLACK
6
CONTINUOUS
10
9.39238
20
-72.813
11
9.34476
21
-72.9082
0
LINE
8
BLACK
6
CONTINUOUS
10
9.34476
20
-72.9082
11
9.29714
21
-72.9558
0
LINE
8
BLACK
6
CONTINUOUS
10
9.39238
20
-71.1939
11
8.72571
21
-71.1939
0
LINE
8
BLACK
6
CONTINUOUS
10
8.82095
20
-71.1939
11
8.77333
21
-71.1463
0
LINE
8
BLACK
6
CONTINUOUS
10
8.77333
20
-71.1463
11
8.72571
21
-71.0511
0
LINE
8
BLACK
6
CONTINUOUS
10
8.72571
20
-71.0511
11
8.72571
21
-70.9082
0
LINE
8
BLACK
6
CONTINUOUS
10
8.72571
20
-70.9082
11
8.77333
21
-70.813
0
LINE
8
BLACK
6
CONTINUOUS
10
8.77333
20
-70.813
11
8.86857
21
-70.7654
0
LINE
8
BLACK
6
CONTINUOUS
10
8.86857
20
-70.7654
11
9.39238
21
-70.7654
0
LINE
8
BLACK
6
CONTINUOUS
10
8.86857
20
-70.7654
11
8.77333
21
-70.7177
0
LINE
8
BLACK
6
CONTINUOUS
10
8.77333
20
-70.7177
11
8.72571
21
-70.6225
0
LINE
8
BLACK
6
CONTINUOUS
10
8.72571
20
-70.6225
11
8.72571
21
-70.4796
0
LINE
8
BLACK
6
CONTINUOUS
10
8.72571
20
-70.4796
11
8.77333
21
-70.3844
0
LINE
8
BLACK
6
CONTINUOUS
10
8.77333
20
-70.3844
11
8.86857
21
-70.3368
0
LINE
8
BLACK
6
CONTINUOUS
10
8.86857
20
-70.3368
11
9.39238
21
-70.3368
0
LINE
8
BLACK
6
CONTINUOUS
10
9.39238
20
-69.8606
11
8.72571
21
-69.8606
0
LINE
8
BLACK
6
CONTINUOUS
10
8.82095
20
-69.8606
11
8.77333
21
-69.813
0
LINE
8
BLACK
6
CONTINUOUS
10
8.77333
20
-69.813
11
8.72571
21
-69.7177
0
LINE
8
BLACK
6
CONTINUOUS
10
8.72571
20
-69.7177
11
8.72571
21
-69.5749
0
LINE
8
BLACK
6
CONTINUOUS
10
8.72571
20
-69.5749
11
8.77333
21
-69.4796
0
LINE
8
BLACK
6
CONTINUOUS
10
8.77333
20
-69.4796
11
8.86857
21
-69.432
0
LINE
8
BLACK
6
CONTINUOUS
10
8.86857
20
-69.432
11
9.39238
21
-69.432
0
LINE
8
BLACK
6
CONTINUOUS
10
8.86857
20
-69.432
11
8.77333
21
-69.3844
0
LINE
8
BLACK
6
CONTINUOUS
10
8.77333
20
-69.3844
11
8.72571
21
-69.2892
0
LINE
8
BLACK
6
CONTINUOUS
10
8.72571
20
-69.2892
11
8.72571
21
-69.1463
0
LINE
8
BLACK
6
CONTINUOUS
10
8.72571
20
-69.1463
11
8.77333
21
-69.0511
0
LINE
8
BLACK
6
CONTINUOUS
10
8.77333
20
-69.0511
11
8.86857
21
-69.0035
0
LINE
8
BLACK
6
CONTINUOUS
10
8.86857
20
-69.0035
11
9.39238
21
-69.0035
0
LINE
8
BLACK
6
CONTINUOUS
10
7.74
20
-75.765
11
7.74
21
-69.48
0
LINE
8
BLACK
6
CONTINUOUS
10
6.5205
20
-75.765
11
8.32642
21
-75.765
0
LINE
8
BLACK
6
CONTINUOUS
10
6.5205
20
-69.48
11
8.32642
21
-69.48
0
LINE
8
BLACK
6
CONTINUOUS
10
7.74
20
-69.48
11
8.32642
21
-70.6065
0
LINE
8
BLACK
6
CONTINUOUS
10
7.74
20
-69.48
11
7.15358
21
-70.6065
0
LINE
8
BLACK
6
CONTINUOUS
10
7.74
20
-75.765
11
8.32642
21
-74.6385
0
LINE
8
BLACK
6
CONTINUOUS
10
7.74
20
-75.765
11
7.15358
21
-74.6385
0
LINE
8
BLACK
6
CONTINUOUS
10
-38.861
20
-105.626
11
-38.8133
21
-105.531
0
LINE
8
BLACK
6
CONTINUOUS
10
-38.8133
20
-105.531
11
-38.7657
21
-105.483
0
LINE
8
BLACK
6
CONTINUOUS
10
-38.7657
20
-105.483
11
-38.6705
21
-105.436
0
LINE
8
BLACK
6
CONTINUOUS
10
-38.6705
20
-105.436
11
-38.6229
21
-105.436
0
LINE
8
BLACK
6
CONTINUOUS
10
-38.6229
20
-105.436
11
-38.5276
21
-105.483
0
LINE
8
BLACK
6
CONTINUOUS
10
-38.5276
20
-105.483
11
-38.48
21
-105.531
0
LINE
8
BLACK
6
CONTINUOUS
10
-38.48
20
-105.531
11
-38.4324
21
-105.626
0
LINE
8
BLACK
6
CONTINUOUS
10
-38.4324
20
-105.626
11
-38.4324
21
-105.817
0
LINE
8
BLACK
6
CONTINUOUS
10
-38.4324
20
-105.817
11
-38.48
21
-105.912
0
LINE
8
BLACK
6
CONTINUOUS
10
-38.48
20
-105.912
11
-38.5276
21
-105.96
0
LINE
8
BLACK
6
CONTINUOUS
10
-38.5276
20
-105.96
11
-38.6229
21
-106.007
0
LINE
8
BLACK
6
CONTINUOUS
10
-38.6229
20
-106.007
11
-38.6705
21
-106.007
0
LINE
8
BLACK
6
CONTINUOUS
10
-38.6705
20
-106.007
11
-38.7657
21
-105.96
0
LINE
8
BLACK
6
CONTINUOUS
10
-38.7657
20
-105.96
11
-38.8133
21
-105.912
0
LINE
8
BLACK
6
CONTINUOUS
10
-38.8133
20
-105.912
11
-38.861
21
-105.817
0
LINE
8
BLACK
6
CONTINUOUS
10
-38.861
20
-105.817
11
-38.861
21
-105.626
0
LINE
8
BLACK
6
CONTINUOUS
10
-38.861
20
-105.626
11
-38.9086
21
-105.531
0
LINE
8
BLACK
6
CONTINUOUS
10
-38.9086
20
-105.531
11
-38.9562
21
-105.483
0
LINE
8
BLACK
6
CONTINUOUS
10
-38.9562
20
-105.483
11
-39.0514
21
-105.436
0
LINE
8
BLACK
6
CONTINUOUS
10
-39.0514
20
-105.436
11
-39.2419
21
-105.436
0
LINE
8
BLACK
6
CONTINUOUS
10
-39.2419
20
-105.436
11
-39.3371
21
-105.483
0
LINE
8
BLACK
6
CONTINUOUS
10
-39.3371
20
-105.483
11
-39.3848
21
-105.531
0
LINE
8
BLACK
6
CONTINUOUS
10
-39.3848
20
-105.531
11
-39.4324
21
-105.626
0
LINE
8
BLACK
6
CONTINUOUS
10
-39.4324
20
-105.626
11
-39.4324
21
-105.817
0
LINE
8
BLACK
6
CONTINUOUS
10
-39.4324
20
-105.817
11
-39.3848
21
-105.912
0
LINE
8
BLACK
6
CONTINUOUS
10
-39.3848
20
-105.912
11
-39.3371
21
-105.96
0
LINE
8
BLACK
6
CONTINUOUS
10
-39.3371
20
-105.96
11
-39.2419
21
-106.007
0
LINE
8
BLACK
6
CONTINUOUS
10
-39.2419
20
-106.007
11
-39.0514
21
-106.007
0
LINE
8
BLACK
6
CONTINUOUS
10
-39.0514
20
-106.007
11
-38.9562
21
-105.96
0
LINE
8
BLACK
6
CONTINUOUS
10
-38.9562
20
-105.96
11
-38.9086
21
-105.912
0
LINE
8
BLACK
6
CONTINUOUS
10
-38.9086
20
-105.912
11
-38.861
21
-105.817
0
LINE
8
BLACK
6
CONTINUOUS
10
-39.3371
20
-106.436
11
-39.3848
21
-106.483
0
LINE
8
BLACK
6
CONTINUOUS
10
-39.3848
20
-106.483
11
-39.4324
21
-106.436
0
LINE
8
BLACK
6
CONTINUOUS
10
-39.4324
20
-106.436
11
-39.3848
21
-106.388
0
LINE
8
BLACK
6
CONTINUOUS
10
-39.3848
20
-106.388
11
-39.3371
21
-106.436
0
LINE
8
BLACK
6
CONTINUOUS
10
-39.3371
20
-106.436
11
-39.4324
21
-106.436
0
LINE
8
BLACK
6
CONTINUOUS
10
-38.4324
20
-107.388
11
-38.4324
21
-106.912
0
LINE
8
BLACK
6
CONTINUOUS
10
-38.4324
20
-106.912
11
-38.9086
21
-106.864
0
LINE
8
BLACK
6
CONTINUOUS
10
-38.9086
20
-106.864
11
-38.861
21
-106.912
0
LINE
8
BLACK
6
CONTINUOUS
10
-38.861
20
-106.912
11
-38.8133
21
-107.007
0
LINE
8
BLACK
6
CONTINUOUS
10
-38.8133
20
-107.007
11
-38.8133
21
-107.245
0
LINE
8
BLACK
6
CONTINUOUS
10
-38.8133
20
-107.245
11
-38.861
21
-107.341
0
LINE
8
BLACK
6
CONTINUOUS
10
-38.861
20
-107.341
11
-38.9086
21
-107.388
0
LINE
8
BLACK
6
CONTINUOUS
10
-38.9086
20
-107.388
11
-39.0038
21
-107.436
0
LINE
8
BLACK
6
CONTINUOUS
10
-39.0038
20
-107.436
11
-39.2419
21
-107.436
0
LINE
8
BLACK
6
CONTINUOUS
10
-39.2419
20
-107.436
11
-39.3371
21
-107.388
0
LINE
8
BLACK
6
CONTINUOUS
10
-39.3371
20
-107.388
11
-39.3848
21
-107.341
0
LINE
8
BLACK
6
CONTINUOUS
10
-39.3848
20
-107.341
11
-39.4324
21
-107.245
0
LINE
8
BLACK
6
CONTINUOUS
10
-39.4324
20
-107.245
11
-39.4324
21
-107.007
0
LINE
8
BLACK
6
CONTINUOUS
10
-39.4324
20
-107.007
11
-39.3848
21
-106.912
0
LINE
8
BLACK
6
CONTINUOUS
10
-39.3848
20
-106.912
11
-39.3371
21
-106.864
0
LINE
8
BLACK
6
CONTINUOUS
10
-38.4324
20
-108.341
11
-38.4324
21
-107.864
0
LINE
8
BLACK
6
CONTINUOUS
10
-38.4324
20
-107.864
11
-38.9086
21
-107.817
0
LINE
8
BLACK
6
CONTINUOUS
10
-38.9086
20
-107.817
11
-38.861
21
-107.864
0
LINE
8
BLACK
6
CONTINUOUS
10
-38.861
20
-107.864
11
-38.8133
21
-107.96
0
LINE
8
BLACK
6
CONTINUOUS
10
-38.8133
20
-107.96
11
-38.8133
21
-108.198
0
LINE
8
BLACK
6
CONTINUOUS
10
-38.8133
20
-108.198
11
-38.861
21
-108.293
0
LINE
8
BLACK
6
CONTINUOUS
10
-38.861
20
-108.293
11
-38.9086
21
-108.341
0
LINE
8
BLACK
6
CONTINUOUS
10
-38.9086
20
-108.341
11
-39.0038
21
-108.388
0
LINE
8
BLACK
6
CONTINUOUS
10
-39.0038
20
-108.388
11
-39.2419
21
-108.388
0
LINE
8
BLACK
6
CONTINUOUS
10
-39.2419
20
-108.388
11
-39.3371
21
-108.341
0
LINE
8
BLACK
6
CONTINUOUS
10
-39.3371
20
-108.341
11
-39.3848
21
-108.293
0
LINE
8
BLACK
6
CONTINUOUS
10
-39.3848
20
-108.293
11
-39.4324
21
-108.198
0
LINE
8
BLACK
6
CONTINUOUS
10
-39.4324
20
-108.198
11
-39.4324
21
-107.96
0
LINE
8
BLACK
6
CONTINUOUS
10
-39.4324
20
-107.96
11
-39.3848
21
-107.864
0
LINE
8
BLACK
6
CONTINUOUS
10
-39.3848
20
-107.864
11
-39.3371
21
-107.817
0
LINE
8
BLACK
6
CONTINUOUS
10
-38.4324
20
-109.293
11
-38.4324
21
-108.817
0
LINE
8
BLACK
6
CONTINUOUS
10
-38.4324
20
-108.817
11
-38.9086
21
-108.769
0
LINE
8
BLACK
6
CONTINUOUS
10
-38.9086
20
-108.769
11
-38.861
21
-108.817
0
LINE
8
BLACK
6
CONTINUOUS
10
-38.861
20
-108.817
11
-38.8133
21
-108.912
0
LINE
8
BLACK
6
CONTINUOUS
10
-38.8133
20
-108.912
11
-38.8133
21
-109.15
0
LINE
8
BLACK
6
CONTINUOUS
10
-38.8133
20
-109.15
11
-38.861
21
-109.245
0
LINE
8
BLACK
6
CONTINUOUS
10
-38.861
20
-109.245
11
-38.9086
21
-109.293
0
LINE
8
BLACK
6
CONTINUOUS
10
-38.9086
20
-109.293
11
-39.0038
21
-109.341
0
LINE
8
BLACK
6
CONTINUOUS
10
-39.0038
20
-109.341
11
-39.2419
21
-109.341
0
LINE
8
BLACK
6
CONTINUOUS
10
-39.2419
20
-109.341
11
-39.3371
21
-109.293
0
LINE
8
BLACK
6
CONTINUOUS
10
-39.3371
20
-109.293
11
-39.3848
21
-109.245
0
LINE
8
BLACK
6
CONTINUOUS
10
-39.3848
20
-109.245
11
-39.4324
21
-109.15
0
LINE
8
BLACK
6
CONTINUOUS
10
-39.4324
20
-109.15
11
-39.4324
21
-108.912
0
LINE
8
BLACK
6
CONTINUOUS
10
-39.4324
20
-108.912
11
-39.3848
21
-108.817
0
LINE
8
BLACK
6
CONTINUOUS
10
-39.3848
20
-108.817
11
-39.3371
21
-108.769
0
LINE
8
BLACK
6
CONTINUOUS
10
-39.4324
20
-110.531
11
-38.7657
21
-110.531
0
LINE
8
BLACK
6
CONTINUOUS
10
-38.861
20
-110.531
11
-38.8133
21
-110.579
0
LINE
8
BLACK
6
CONTINUOUS
10
-38.8133
20
-110.579
11
-38.7657
21
-110.674
0
LINE
8
BLACK
6
CONTINUOUS
10
-38.7657
20
-110.674
11
-38.7657
21
-110.817
0
LINE
8
BLACK
6
CONTINUOUS
10
-38.7657
20
-110.817
11
-38.8133
21
-110.912
0
LINE
8
BLACK
6
CONTINUOUS
10
-38.8133
20
-110.912
11
-38.9086
21
-110.96
0
LINE
8
BLACK
6
CONTINUOUS
10
-38.9086
20
-110.96
11
-39.4324
21
-110.96
0
LINE
8
BLACK
6
CONTINUOUS
10
-38.9086
20
-110.96
11
-38.8133
21
-111.007
0
LINE
8
BLACK
6
CONTINUOUS
10
-38.8133
20
-111.007
11
-38.7657
21
-111.102
0
LINE
8
BLACK
6
CONTINUOUS
10
-38.7657
20
-111.102
11
-38.7657
21
-111.245
0
LINE
8
BLACK
6
CONTINUOUS
10
-38.7657
20
-111.245
11
-38.8133
21
-111.341
0
LINE
8
BLACK
6
CONTINUOUS
10
-38.8133
20
-111.341
11
-38.9086
21
-111.388
0
LINE
8
BLACK
6
CONTINUOUS
10
-38.9086
20
-111.388
11
-39.4324
21
-111.388
0
LINE
8
BLACK
6
CONTINUOUS
10
-39.4324
20
-111.864
11
-38.7657
21
-111.864
0
LINE
8
BLACK
6
CONTINUOUS
10
-38.861
20
-111.864
11
-38.8133
21
-111.912
0
LINE
8
BLACK
6
CONTINUOUS
10
-38.8133
20
-111.912
11
-38.7657
21
-112.007
0
LINE
8
BLACK
6
CONTINUOUS
10
-38.7657
20
-112.007
11
-38.7657
21
-112.15
0
LINE
8
BLACK
6
CONTINUOUS
10
-38.7657
20
-112.15
11
-38.8133
21
-112.245
0
LINE
8
BLACK
6
CONTINUOUS
10
-38.8133
20
-112.245
11
-38.9086
21
-112.293
0
LINE
8
BLACK
6
CONTINUOUS
10
-38.9086
20
-112.293
11
-39.4324
21
-112.293
0
LINE
8
BLACK
6
CONTINUOUS
10
-38.9086
20
-112.293
11
-38.8133
21
-112.341
0
LINE
8
BLACK
6
CONTINUOUS
10
-38.8133
20
-112.341
11
-38.7657
21
-112.436
0
LINE
8
BLACK
6
CONTINUOUS
10
-38.7657
20
-112.436
11
-38.7657
21
-112.579
0
LINE
8
BLACK
6
CONTINUOUS
10
-38.7657
20
-112.579
11
-38.8133
21
-112.674
0
LINE
8
BLACK
6
CONTINUOUS
10
-38.8133
20
-112.674
11
-38.9086
21
-112.722
0
LINE
8
BLACK
6
CONTINUOUS
10
-38.9086
20
-112.722
11
-39.4324
21
-112.722
0
LINE
8
BLACK
6
CONTINUOUS
10
-37.78
20
-104.825
11
-37.78
21
-113.38
0
LINE
8
BLACK
6
CONTINUOUS
10
-35.6797
20
-104.825
11
-38.3664
21
-104.825
0
LINE
8
BLACK
6
CONTINUOUS
10
-35.6797
20
-113.38
11
-38.3664
21
-113.38
0
LINE
8
BLACK
6
CONTINUOUS
10
-37.78
20
-113.38
11
-38.3664
21
-112.253
0
LINE
8
BLACK
6
CONTINUOUS
10
-37.78
20
-113.38
11
-37.1936
21
-112.253
0
LINE
8
BLACK
6
CONTINUOUS
10
-37.78
20
-104.825
11
-38.3664
21
-105.952
0
LINE
8
BLACK
6
CONTINUOUS
10
-37.78
20
-104.825
11
-37.1936
21
-105.952
0
LINE
8
BLACK
6
CONTINUOUS
10
9.08238
20
-83.8793
11
9.08238
21
-83.2602
0
LINE
8
BLACK
6
CONTINUOUS
10
9.08238
20
-83.2602
11
9.46333
21
-83.5936
0
LINE
8
BLACK
6
CONTINUOUS
10
9.46333
20
-83.5936
11
9.46333
21
-83.4507
0
LINE
8
BLACK
6
CONTINUOUS
10
9.46333
20
-83.4507
11
9.51095
21
-83.3555
0
LINE
8
BLACK
6
CONTINUOUS
10
9.51095
20
-83.3555
11
9.55857
21
-83.3079
0
LINE
8
BLACK
6
CONTINUOUS
10
9.55857
20
-83.3079
11
9.65381
21
-83.2602
0
LINE
8
BLACK
6
CONTINUOUS
10
9.65381
20
-83.2602
11
9.8919
21
-83.2602
0
LINE
8
BLACK
6
CONTINUOUS
10
9.8919
20
-83.2602
11
9.98714
21
-83.3079
0
LINE
8
BLACK
6
CONTINUOUS
10
9.98714
20
-83.3079
11
10.0348
21
-83.3555
0
LINE
8
BLACK
6
CONTINUOUS
10
10.0348
20
-83.3555
11
10.0824
21
-83.4507
0
LINE
8
BLACK
6
CONTINUOUS
10
10.0824
20
-83.4507
11
10.0824
21
-83.7364
0
LINE
8
BLACK
6
CONTINUOUS
10
10.0824
20
-83.7364
11
10.0348
21
-83.8317
0
LINE
8
BLACK
6
CONTINUOUS
10
10.0348
20
-83.8317
11
9.98714
21
-83.8793
0
LINE
8
BLACK
6
CONTINUOUS
10
9.98714
20
-82.8317
11
10.0348
21
-82.784
0
LINE
8
BLACK
6
CONTINUOUS
10
10.0348
20
-82.784
11
10.0824
21
-82.8317
0
LINE
8
BLACK
6
CONTINUOUS
10
10.0824
20
-82.8317
11
10.0348
21
-82.8793
0
LINE
8
BLACK
6
CONTINUOUS
10
10.0348
20
-82.8793
11
9.98714
21
-82.8317
0
LINE
8
BLACK
6
CONTINUOUS
10
9.98714
20
-82.8317
11
10.0824
21
-82.8317
0
LINE
8
BLACK
6
CONTINUOUS
10
9.17762
20
-82.4031
11
9.13
21
-82.3555
0
LINE
8
BLACK
6
CONTINUOUS
10
9.13
20
-82.3555
11
9.08238
21
-82.2602
0
LINE
8
BLACK
6
CONTINUOUS
10
9.08238
20
-82.2602
11
9.08238
21
-82.0221
0
LINE
8
BLACK
6
CONTINUOUS
10
9.08238
20
-82.0221
11
9.13
21
-81.9269
0
LINE
8
BLACK
6
CONTINUOUS
10
9.13
20
-81.9269
11
9.17762
21
-81.8793
0
LINE
8
BLACK
6
CONTINUOUS
10
9.17762
20
-81.8793
11
9.27286
21
-81.8317
0
LINE
8
BLACK
6
CONTINUOUS
10
9.27286
20
-81.8317
11
9.3681
21
-81.8317
0
LINE
8
BLACK
6
CONTINUOUS
10
9.3681
20
-81.8317
11
9.51095
21
-81.8793
0
LINE
8
BLACK
6
CONTINUOUS
10
9.51095
20
-81.8793
11
10.0824
21
-82.4507
0
LINE
8
BLACK
6
CONTINUOUS
10
10.0824
20
-82.4507
11
10.0824
21
-81.8317
0
LINE
8
BLACK
6
CONTINUOUS
10
9.08238
20
-81.4983
11
9.08238
21
-80.8793
0
LINE
8
BLACK
6
CONTINUOUS
10
9.08238
20
-80.8793
11
9.46333
21
-81.2126
0
LINE
8
BLACK
6
CONTINUOUS
10
9.46333
20
-81.2126
11
9.46333
21
-81.0698
0
LINE
8
BLACK
6
CONTINUOUS
10
9.46333
20
-81.0698
11
9.51095
21
-80.9745
0
LINE
8
BLACK
6
CONTINUOUS
10
9.51095
20
-80.9745
11
9.55857
21
-80.9269
0
LINE
8
BLACK
6
CONTINUOUS
10
9.55857
20
-80.9269
11
9.65381
21
-80.8793
0
LINE
8
BLACK
6
CONTINUOUS
10
9.65381
20
-80.8793
11
9.8919
21
-80.8793
0
LINE
8
BLACK
6
CONTINUOUS
10
9.8919
20
-80.8793
11
9.98714
21
-80.9269
0
LINE
8
BLACK
6
CONTINUOUS
10
9.98714
20
-80.9269
11
10.0348
21
-80.9745
0
LINE
8
BLACK
6
CONTINUOUS
10
10.0348
20
-80.9745
11
10.0824
21
-81.0698
0
LINE
8
BLACK
6
CONTINUOUS
10
10.0824
20
-81.0698
11
10.0824
21
-81.3555
0
LINE
8
BLACK
6
CONTINUOUS
10
10.0824
20
-81.3555
11
10.0348
21
-81.4507
0
LINE
8
BLACK
6
CONTINUOUS
10
10.0348
20
-81.4507
11
9.98714
21
-81.4983
0
LINE
8
BLACK
6
CONTINUOUS
10
9.08238
20
-80.2602
11
9.08238
21
-80.165
0
LINE
8
BLACK
6
CONTINUOUS
10
9.08238
20
-80.165
11
9.13
21
-80.0698
0
LINE
8
BLACK
6
CONTINUOUS
10
9.13
20
-80.0698
11
9.17762
21
-80.0221
0
LINE
8
BLACK
6
CONTINUOUS
10
9.17762
20
-80.0221
11
9.27286
21
-79.9745
0
LINE
8
BLACK
6
CONTINUOUS
10
9.27286
20
-79.9745
11
9.46333
21
-79.9269
0
LINE
8
BLACK
6
CONTINUOUS
10
9.46333
20
-79.9269
11
9.70143
21
-79.9269
0
LINE
8
BLACK
6
CONTINUOUS
10
9.70143
20
-79.9269
11
9.8919
21
-79.9745
0
LINE
8
BLACK
6
CONTINUOUS
10
9.8919
20
-79.9745
11
9.98714
21
-80.0221
0
LINE
8
BLACK
6
CONTINUOUS
10
9.98714
20
-80.0221
11
10.0348
21
-80.0698
0
LINE
8
BLACK
6
CONTINUOUS
10
10.0348
20
-80.0698
11
10.0824
21
-80.165
0
LINE
8
BLACK
6
CONTINUOUS
10
10.0824
20
-80.165
11
10.0824
21
-80.2602
0
LINE
8
BLACK
6
CONTINUOUS
10
10.0824
20
-80.2602
11
10.0348
21
-80.3555
0
LINE
8
BLACK
6
CONTINUOUS
10
10.0348
20
-80.3555
11
9.98714
21
-80.4031
0
LINE
8
BLACK
6
CONTINUOUS
10
9.98714
20
-80.4031
11
9.8919
21
-80.4507
0
LINE
8
BLACK
6
CONTINUOUS
10
9.8919
20
-80.4507
11
9.70143
21
-80.4983
0
LINE
8
BLACK
6
CONTINUOUS
10
9.70143
20
-80.4983
11
9.46333
21
-80.4983
0
LINE
8
BLACK
6
CONTINUOUS
10
9.46333
20
-80.4983
11
9.27286
21
-80.4507
0
LINE
8
BLACK
6
CONTINUOUS
10
9.27286
20
-80.4507
11
9.17762
21
-80.4031
0
LINE
8
BLACK
6
CONTINUOUS
10
9.17762
20
-80.4031
11
9.13
21
-80.3555
0
LINE
8
BLACK
6
CONTINUOUS
10
9.13
20
-80.3555
11
9.08238
21
-80.2602
0
LINE
8
BLACK
6
CONTINUOUS
10
10.0824
20
-78.7364
11
9.41571
21
-78.7364
0
LINE
8
BLACK
6
CONTINUOUS
10
9.51095
20
-78.7364
11
9.46333
21
-78.6888
0
LINE
8
BLACK
6
CONTINUOUS
10
9.46333
20
-78.6888
11
9.41571
21
-78.5936
0
LINE
8
BLACK
6
CONTINUOUS
10
9.41571
20
-78.5936
11
9.41571
21
-78.4507
0
LINE
8
BLACK
6
CONTINUOUS
10
9.41571
20
-78.4507
11
9.46333
21
-78.3555
0
LINE
8
BLACK
6
CONTINUOUS
10
9.46333
20
-78.3555
11
9.55857
21
-78.3079
0
LINE
8
BLACK
6
CONTINUOUS
10
9.55857
20
-78.3079
11
10.0824
21
-78.3079
0
LINE
8
BLACK
6
CONTINUOUS
10
9.55857
20
-78.3079
11
9.46333
21
-78.2602
0
LINE
8
BLACK
6
CONTINUOUS
10
9.46333
20
-78.2602
11
9.41571
21
-78.165
0
LINE
8
BLACK
6
CONTINUOUS
10
9.41571
20
-78.165
11
9.41571
21
-78.0221
0
LINE
8
BLACK
6
CONTINUOUS
10
9.41571
20
-78.0221
11
9.46333
21
-77.9269
0
LINE
8
BLACK
6
CONTINUOUS
10
9.46333
20
-77.9269
11
9.55857
21
-77.8793
0
LINE
8
BLACK
6
CONTINUOUS
10
9.55857
20
-77.8793
11
10.0824
21
-77.8793
0
LINE
8
BLACK
6
CONTINUOUS
10
10.0824
20
-77.4031
11
9.41571
21
-77.4031
0
LINE
8
BLACK
6
CONTINUOUS
10
9.51095
20
-77.4031
11
9.46333
21
-77.3555
0
LINE
8
BLACK
6
CONTINUOUS
10
9.46333
20
-77.3555
11
9.41571
21
-77.2602
0
LINE
8
BLACK
6
CONTINUOUS
10
9.41571
20
-77.2602
11
9.41571
21
-77.1174
0
LINE
8
BLACK
6
CONTINUOUS
10
9.41571
20
-77.1174
11
9.46333
21
-77.0221
0
LINE
8
BLACK
6
CONTINUOUS
10
9.46333
20
-77.0221
11
9.55857
21
-76.9745
0
LINE
8
BLACK
6
CONTINUOUS
10
9.55857
20
-76.9745
11
10.0824
21
-76.9745
0
LINE
8
BLACK
6
CONTINUOUS
10
9.55857
20
-76.9745
11
9.46333
21
-76.9269
0
LINE
8
BLACK
6
CONTINUOUS
10
9.46333
20
-76.9269
11
9.41571
21
-76.8317
0
LINE
8
BLACK
6
CONTINUOUS
10
9.41571
20
-76.8317
11
9.41571
21
-76.6888
0
LINE
8
BLACK
6
CONTINUOUS
10
9.41571
20
-76.6888
11
9.46333
21
-76.5936
0
LINE
8
BLACK
6
CONTINUOUS
10
9.46333
20
-76.5936
11
9.55857
21
-76.546
0
LINE
8
BLACK
6
CONTINUOUS
10
9.55857
20
-76.546
11
10.0824
21
-76.546
0
LINE
8
BLACK
6
CONTINUOUS
10
8.43
20
-81.78
11
8.43
21
-78.55
0
LINE
8
BLACK
6
CONTINUOUS
10
6.5205
20
-81.78
11
9.01642
21
-81.78
0
LINE
8
BLACK
6
CONTINUOUS
10
6.5205
20
-78.55
11
9.01642
21
-78.55
0
LINE
8
BLACK
6
CONTINUOUS
10
8.43
20
-78.55
11
9.01642
21
-79.6765
0
LINE
8
BLACK
6
CONTINUOUS
10
8.43
20
-78.55
11
7.84358
21
-79.6765
0
LINE
8
BLACK
6
CONTINUOUS
10
8.43
20
-81.78
11
9.01642
21
-80.6535
0
LINE
8
BLACK
6
CONTINUOUS
10
8.43
20
-81.78
11
7.84358
21
-80.6535
0
LINE
8
BLACK
6
CONTINUOUS
10
-2.04498
20
-83.8724
11
-2.23545
21
-83.8724
0
LINE
8
BLACK
6
CONTINUOUS
10
-2.23545
20
-83.8724
11
-2.33069
21
-83.92
0
LINE
8
BLACK
6
CONTINUOUS
10
-2.33069
20
-83.92
11
-2.37831
21
-83.9676
0
LINE
8
BLACK
6
CONTINUOUS
10
-2.37831
20
-83.9676
11
-2.47355
21
-84.1105
0
LINE
8
BLACK
6
CONTINUOUS
10
-2.47355
20
-84.1105
11
-2.52117
21
-84.301
0
LINE
8
BLACK
6
CONTINUOUS
10
-2.52117
20
-84.301
11
-2.52117
21
-84.6819
0
LINE
8
BLACK
6
CONTINUOUS
10
-2.52117
20
-84.6819
11
-2.47355
21
-84.7771
0
LINE
8
BLACK
6
CONTINUOUS
10
-2.47355
20
-84.7771
11
-2.42593
21
-84.8248
0
LINE
8
BLACK
6
CONTINUOUS
10
-2.42593
20
-84.8248
11
-2.33069
21
-84.8724
0
LINE
8
BLACK
6
CONTINUOUS
10
-2.33069
20
-84.8724
11
-2.14021
21
-84.8724
0
LINE
8
BLACK
6
CONTINUOUS
10
-2.14021
20
-84.8724
11
-2.04498
21
-84.8248
0
LINE
8
BLACK
6
CONTINUOUS
10
-2.04498
20
-84.8248
11
-1.99736
21
-84.7771
0
LINE
8
BLACK
6
CONTINUOUS
10
-1.99736
20
-84.7771
11
-1.94974
21
-84.6819
0
LINE
8
BLACK
6
CONTINUOUS
10
-1.94974
20
-84.6819
11
-1.94974
21
-84.4438
0
LINE
8
BLACK
6
CONTINUOUS
10
-1.94974
20
-84.4438
11
-1.99736
21
-84.3486
0
LINE
8
BLACK
6
CONTINUOUS
10
-1.99736
20
-84.3486
11
-2.04498
21
-84.301
0
LINE
8
BLACK
6
CONTINUOUS
10
-2.04498
20
-84.301
11
-2.14021
21
-84.2533
0
LINE
8
BLACK
6
CONTINUOUS
10
-2.14021
20
-84.2533
11
-2.33069
21
-84.2533
0
LINE
8
BLACK
6
CONTINUOUS
10
-2.33069
20
-84.2533
11
-2.42593
21
-84.301
0
LINE
8
BLACK
6
CONTINUOUS
10
-2.42593
20
-84.301
11
-2.47355
21
-84.3486
0
LINE
8
BLACK
6
CONTINUOUS
10
-2.47355
20
-84.3486
11
-2.52117
21
-84.4438
0
LINE
8
BLACK
6
CONTINUOUS
10
-1.52117
20
-84.7771
11
-1.47355
21
-84.8248
0
LINE
8
BLACK
6
CONTINUOUS
10
-1.47355
20
-84.8248
11
-1.52117
21
-84.8724
0
LINE
8
BLACK
6
CONTINUOUS
10
-1.52117
20
-84.8724
11
-1.56878
21
-84.8248
0
LINE
8
BLACK
6
CONTINUOUS
10
-1.56878
20
-84.8248
11
-1.52117
21
-84.7771
0
LINE
8
BLACK
6
CONTINUOUS
10
-1.52117
20
-84.7771
11
-1.52117
21
-84.8724
0
LINE
8
BLACK
6
CONTINUOUS
10
-1.14021
20
-83.8724
11
-0.473547
21
-83.8724
0
LINE
8
BLACK
6
CONTINUOUS
10
-0.473547
20
-83.8724
11
-0.902119
21
-84.8724
0
LINE
8
BLACK
6
CONTINUOUS
10
0.383595
20
-83.8724
11
-0.092595
21
-83.8724
0
LINE
8
BLACK
6
CONTINUOUS
10
-0.092595
20
-83.8724
11
-0.140214
21
-84.3486
0
LINE
8
BLACK
6
CONTINUOUS
10
-0.140214
20
-84.3486
11
-0.092595
21
-84.301
0
LINE
8
BLACK
6
CONTINUOUS
10
-0.092595
20
-84.301
11
0.002642
21
-84.2533
0
LINE
8
BLACK
6
CONTINUOUS
10
0.002642
20
-84.2533
11
0.240738
21
-84.2533
0
LINE
8
BLACK
6
CONTINUOUS
10
0.240738
20
-84.2533
11
0.335976
21
-84.301
0
LINE
8
BLACK
6
CONTINUOUS
10
0.335976
20
-84.301
11
0.383595
21
-84.3486
0
LINE
8
BLACK
6
CONTINUOUS
10
0.383595
20
-84.3486
11
0.431214
21
-84.4438
0
LINE
8
BLACK
6
CONTINUOUS
10
0.431214
20
-84.4438
11
0.431214
21
-84.6819
0
LINE
8
BLACK
6
CONTINUOUS
10
0.431214
20
-84.6819
11
0.383595
21
-84.7771
0
LINE
8
BLACK
6
CONTINUOUS
10
0.383595
20
-84.7771
11
0.335976
21
-84.8248
0
LINE
8
BLACK
6
CONTINUOUS
10
0.335976
20
-84.8248
11
0.240738
21
-84.8724
0
LINE
8
BLACK
6
CONTINUOUS
10
0.240738
20
-84.8724
11
0.002642
21
-84.8724
0
LINE
8
BLACK
6
CONTINUOUS
10
0.002642
20
-84.8724
11
-0.092595
21
-84.8248
0
LINE
8
BLACK
6
CONTINUOUS
10
-0.092595
20
-84.8248
11
-0.140214
21
-84.7771
0
LINE
8
BLACK
6
CONTINUOUS
10
1.05026
20
-83.8724
11
1.1455
21
-83.8724
0
LINE
8
BLACK
6
CONTINUOUS
10
1.1455
20
-83.8724
11
1.24074
21
-83.92
0
LINE
8
BLACK
6
CONTINUOUS
10
1.24074
20
-83.92
11
1.28836
21
-83.9676
0
LINE
8
BLACK
6
CONTINUOUS
10
1.28836
20
-83.9676
11
1.33598
21
-84.0629
0
LINE
8
BLACK
6
CONTINUOUS
10
1.33598
20
-84.0629
11
1.38359
21
-84.2533
0
LINE
8
BLACK
6
CONTINUOUS
10
1.38359
20
-84.2533
11
1.38359
21
-84.4914
0
LINE
8
BLACK
6
CONTINUOUS
10
1.38359
20
-84.4914
11
1.33598
21
-84.6819
0
LINE
8
BLACK
6
CONTINUOUS
10
1.33598
20
-84.6819
11
1.28836
21
-84.7771
0
LINE
8
BLACK
6
CONTINUOUS
10
1.28836
20
-84.7771
11
1.24074
21
-84.8248
0
LINE
8
BLACK
6
CONTINUOUS
10
1.24074
20
-84.8248
11
1.1455
21
-84.8724
0
LINE
8
BLACK
6
CONTINUOUS
10
1.1455
20
-84.8724
11
1.05026
21
-84.8724
0
LINE
8
BLACK
6
CONTINUOUS
10
1.05026
20
-84.8724
11
0.955023
21
-84.8248
0
LINE
8
BLACK
6
CONTINUOUS
10
0.955023
20
-84.8248
11
0.907404
21
-84.7771
0
LINE
8
BLACK
6
CONTINUOUS
10
0.907404
20
-84.7771
11
0.859785
21
-84.6819
0
LINE
8
BLACK
6
CONTINUOUS
10
0.859785
20
-84.6819
11
0.812166
21
-84.4914
0
LINE
8
BLACK
6
CONTINUOUS
10
0.812166
20
-84.4914
11
0.812166
21
-84.2533
0
LINE
8
BLACK
6
CONTINUOUS
10
0.812166
20
-84.2533
11
0.859785
21
-84.0629
0
LINE
8
BLACK
6
CONTINUOUS
10
0.859785
20
-84.0629
11
0.907404
21
-83.9676
0
LINE
8
BLACK
6
CONTINUOUS
10
0.907404
20
-83.9676
11
0.955023
21
-83.92
0
LINE
8
BLACK
6
CONTINUOUS
10
0.955023
20
-83.92
11
1.05026
21
-83.8724
0
LINE
8
BLACK
6
CONTINUOUS
10
2.57407
20
-84.8724
11
2.57407
21
-84.2057
0
LINE
8
BLACK
6
CONTINUOUS
10
2.57407
20
-84.301
11
2.62169
21
-84.2533
0
LINE
8
BLACK
6
CONTINUOUS
10
2.62169
20
-84.2533
11
2.71693
21
-84.2057
0
LINE
8
BLACK
6
CONTINUOUS
10
2.71693
20
-84.2057
11
2.85979
21
-84.2057
0
LINE
8
BLACK
6
CONTINUOUS
10
2.85979
20
-84.2057
11
2.95502
21
-84.2533
0
LINE
8
BLACK
6
CONTINUOUS
10
2.95502
20
-84.2533
11
3.00264
21
-84.3486
0
LINE
8
BLACK
6
CONTINUOUS
10
3.00264
20
-84.3486
11
3.00264
21
-84.8724
0
LINE
8
BLACK
6
CONTINUOUS
10
3.00264
20
-84.3486
11
3.05026
21
-84.2533
0
LINE
8
BLACK
6
CONTINUOUS
10
3.05026
20
-84.2533
11
3.1455
21
-84.2057
0
LINE
8
BLACK
6
CONTINUOUS
10
3.1455
20
-84.2057
11
3.28836
21
-84.2057
0
LINE
8
BLACK
6
CONTINUOUS
10
3.28836
20
-84.2057
11
3.38359
21
-84.2533
0
LINE
8
BLACK
6
CONTINUOUS
10
3.38359
20
-84.2533
11
3.43121
21
-84.3486
0
LINE
8
BLACK
6
CONTINUOUS
10
3.43121
20
-84.3486
11
3.43121
21
-84.8724
0
LINE
8
BLACK
6
CONTINUOUS
10
3.9074
20
-84.8724
11
3.9074
21
-84.2057
0
LINE
8
BLACK
6
CONTINUOUS
10
3.9074
20
-84.301
11
3.95502
21
-84.2533
0
LINE
8
BLACK
6
CONTINUOUS
10
3.95502
20
-84.2533
11
4.05026
21
-84.2057
0
LINE
8
BLACK
6
CONTINUOUS
10
4.05026
20
-84.2057
11
4.19312
21
-84.2057
0
LINE
8
BLACK
6
CONTINUOUS
10
4.19312
20
-84.2057
11
4.28836
21
-84.2533
0
LINE
8
BLACK
6
CONTINUOUS
10
4.28836
20
-84.2533
11
4.33598
21
-84.3486
0
LINE
8
BLACK
6
CONTINUOUS
10
4.33598
20
-84.3486
11
4.33598
21
-84.8724
0
LINE
8
BLACK
6
CONTINUOUS
10
4.33598
20
-84.3486
11
4.38359
21
-84.2533
0
LINE
8
BLACK
6
CONTINUOUS
10
4.38359
20
-84.2533
11
4.47883
21
-84.2057
0
LINE
8
BLACK
6
CONTINUOUS
10
4.47883
20
-84.2057
11
4.62169
21
-84.2057
0
LINE
8
BLACK
6
CONTINUOUS
10
4.62169
20
-84.2057
11
4.71693
21
-84.2533
0
LINE
8
BLACK
6
CONTINUOUS
10
4.71693
20
-84.2533
11
4.76455
21
-84.3486
0
LINE
8
BLACK
6
CONTINUOUS
10
4.76455
20
-84.3486
11
4.76455
21
-84.8724
0
LINE
8
BLACK
6
CONTINUOUS
10
4.5205
20
-83.22
11
-2.2295
21
-83.22
0
LINE
8
BLACK
6
CONTINUOUS
10
4.5205
20
-82.78
11
4.5205
21
-83.8064
0
LINE
8
BLACK
6
CONTINUOUS
10
-2.2295
20
-82.78
11
-2.2295
21
-83.8064
0
LINE
8
BLACK
6
CONTINUOUS
10
-2.2295
20
-83.22
11
-1.103
21
-82.6336
0
LINE
8
BLACK
6
CONTINUOUS
10
-2.2295
20
-83.22
11
-1.103
21
-83.8064
0
LINE
8
BLACK
6
CONTINUOUS
10
4.5205
20
-83.22
11
3.394
21
-82.6336
0
LINE
8
BLACK
6
CONTINUOUS
10
4.5205
20
-83.22
11
3.394
21
-83.8064
0
LINE
8
BLACK
6
CONTINUOUS
10
-14.3273
20
-66.8824
11
-14.8987
21
-66.8824
0
LINE
8
BLACK
6
CONTINUOUS
10
-14.613
20
-66.8824
11
-14.613
21
-65.8824
0
LINE
8
BLACK
6
CONTINUOUS
10
-14.613
20
-65.8824
11
-14.7083
21
-66.0252
0
LINE
8
BLACK
6
CONTINUOUS
10
-14.7083
20
-66.0252
11
-14.8035
21
-66.1205
0
LINE
8
BLACK
6
CONTINUOUS
10
-14.8035
20
-66.1205
11
-14.8987
21
-66.1681
0
LINE
8
BLACK
6
CONTINUOUS
10
-13.4702
20
-66.2157
11
-13.4702
21
-66.8824
0
LINE
8
BLACK
6
CONTINUOUS
10
-13.7083
20
-65.8348
11
-13.9464
21
-66.549
0
LINE
8
BLACK
6
CONTINUOUS
10
-13.9464
20
-66.549
11
-13.3273
21
-66.549
0
LINE
8
BLACK
6
CONTINUOUS
10
-12.9464
20
-66.7871
11
-12.8987
21
-66.8348
0
LINE
8
BLACK
6
CONTINUOUS
10
-12.8987
20
-66.8348
11
-12.9464
21
-66.8824
0
LINE
8
BLACK
6
CONTINUOUS
10
-12.9464
20
-66.8824
11
-12.994
21
-66.8348
0
LINE
8
BLACK
6
CONTINUOUS
10
-12.994
20
-66.8348
11
-12.9464
21
-66.7871
0
LINE
8
BLACK
6
CONTINUOUS
10
-12.9464
20
-66.7871
11
-12.9464
21
-66.8824
0
LINE
8
BLACK
6
CONTINUOUS
10
-12.2797
20
-65.8824
11
-12.1844
21
-65.8824
0
LINE
8
BLACK
6
CONTINUOUS
10
-12.1844
20
-65.8824
11
-12.0892
21
-65.93
0
LINE
8
BLACK
6
CONTINUOUS
10
-12.0892
20
-65.93
11
-12.0416
21
-65.9776
0
LINE
8
BLACK
6
CONTINUOUS
10
-12.0416
20
-65.9776
11
-11.994
21
-66.0729
0
LINE
8
BLACK
6
CONTINUOUS
10
-11.994
20
-66.0729
11
-11.9464
21
-66.2633
0
LINE
8
BLACK
6
CONTINUOUS
10
-11.9464
20
-66.2633
11
-11.9464
21
-66.5014
0
LINE
8
BLACK
6
CONTINUOUS
10
-11.9464
20
-66.5014
11
-11.994
21
-66.6919
0
LINE
8
BLACK
6
CONTINUOUS
10
-11.994
20
-66.6919
11
-12.0416
21
-66.7871
0
LINE
8
BLACK
6
CONTINUOUS
10
-12.0416
20
-66.7871
11
-12.0892
21
-66.8348
0
LINE
8
BLACK
6
CONTINUOUS
10
-12.0892
20
-66.8348
11
-12.1844
21
-66.8824
0
LINE
8
BLACK
6
CONTINUOUS
10
-12.1844
20
-66.8824
11
-12.2797
21
-66.8824
0
LINE
8
BLACK
6
CONTINUOUS
10
-12.2797
20
-66.8824
11
-12.3749
21
-66.8348
0
LINE
8
BLACK
6
CONTINUOUS
10
-12.3749
20
-66.8348
11
-12.4225
21
-66.7871
0
LINE
8
BLACK
6
CONTINUOUS
10
-12.4225
20
-66.7871
11
-12.4702
21
-66.6919
0
LINE
8
BLACK
6
CONTINUOUS
10
-12.4702
20
-66.6919
11
-12.5178
21
-66.5014
0
LINE
8
BLACK
6
CONTINUOUS
10
-12.5178
20
-66.5014
11
-12.5178
21
-66.2633
0
LINE
8
BLACK
6
CONTINUOUS
10
-12.5178
20
-66.2633
11
-12.4702
21
-66.0729
0
LINE
8
BLACK
6
CONTINUOUS
10
-12.4702
20
-66.0729
11
-12.4225
21
-65.9776
0
LINE
8
BLACK
6
CONTINUOUS
10
-12.4225
20
-65.9776
11
-12.3749
21
-65.93
0
LINE
8
BLACK
6
CONTINUOUS
10
-12.3749
20
-65.93
11
-12.2797
21
-65.8824
0
LINE
8
BLACK
6
CONTINUOUS
10
-11.3273
20
-65.8824
11
-11.2321
21
-65.8824
0
LINE
8
BLACK
6
CONTINUOUS
10
-11.2321
20
-65.8824
11
-11.1368
21
-65.93
0
LINE
8
BLACK
6
CONTINUOUS
10
-11.1368
20
-65.93
11
-11.0892
21
-65.9776
0
LINE
8
BLACK
6
CONTINUOUS
10
-11.0892
20
-65.9776
11
-11.0416
21
-66.0729
0
LINE
8
BLACK
6
CONTINUOUS
10
-11.0416
20
-66.0729
11
-10.994
21
-66.2633
0
LINE
8
BLACK
6
CONTINUOUS
10
-10.994
20
-66.2633
11
-10.994
21
-66.5014
0
LINE
8
BLACK
6
CONTINUOUS
10
-10.994
20
-66.5014
11
-11.0416
21
-66.6919
0
LINE
8
BLACK
6
CONTINUOUS
10
-11.0416
20
-66.6919
11
-11.0892
21
-66.7871
0
LINE
8
BLACK
6
CONTINUOUS
10
-11.0892
20
-66.7871
11
-11.1368
21
-66.8348
0
LINE
8
BLACK
6
CONTINUOUS
10
-11.1368
20
-66.8348
11
-11.2321
21
-66.8824
0
LINE
8
BLACK
6
CONTINUOUS
10
-11.2321
20
-66.8824
11
-11.3273
21
-66.8824
0
LINE
8
BLACK
6
CONTINUOUS
10
-11.3273
20
-66.8824
11
-11.4225
21
-66.8348
0
LINE
8
BLACK
6
CONTINUOUS
10
-11.4225
20
-66.8348
11
-11.4702
21
-66.7871
0
LINE
8
BLACK
6
CONTINUOUS
10
-11.4702
20
-66.7871
11
-11.5178
21
-66.6919
0
LINE
8
BLACK
6
CONTINUOUS
10
-11.5178
20
-66.6919
11
-11.5654
21
-66.5014
0
LINE
8
BLACK
6
CONTINUOUS
10
-11.5654
20
-66.5014
11
-11.5654
21
-66.2633
0
LINE
8
BLACK
6
CONTINUOUS
10
-11.5654
20
-66.2633
11
-11.5178
21
-66.0729
0
LINE
8
BLACK
6
CONTINUOUS
10
-11.5178
20
-66.0729
11
-11.4702
21
-65.9776
0
LINE
8
BLACK
6
CONTINUOUS
10
-11.4702
20
-65.9776
11
-11.4225
21
-65.93
0
LINE
8
BLACK
6
CONTINUOUS
10
-11.4225
20
-65.93
11
-11.3273
21
-65.8824
0
LINE
8
BLACK
6
CONTINUOUS
10
-10.3749
20
-65.8824
11
-10.2797
21
-65.8824
0
LINE
8
BLACK
6
CONTINUOUS
10
-10.2797
20
-65.8824
11
-10.1844
21
-65.93
0
LINE
8
BLACK
6
CONTINUOUS
10
-10.1844
20
-65.93
11
-10.1368
21
-65.9776
0
LINE
8
BLACK
6
CONTINUOUS
10
-10.1368
20
-65.9776
11
-10.0892
21
-66.0729
0
LINE
8
BLACK
6
CONTINUOUS
10
-10.0892
20
-66.0729
11
-10.0416
21
-66.2633
0
LINE
8
BLACK
6
CONTINUOUS
10
-10.0416
20
-66.2633
11
-10.0416
21
-66.5014
0
LINE
8
BLACK
6
CONTINUOUS
10
-10.0416
20
-66.5014
11
-10.0892
21
-66.6919
0
LINE
8
BLACK
6
CONTINUOUS
10
-10.0892
20
-66.6919
11
-10.1368
21
-66.7871
0
LINE
8
BLACK
6
CONTINUOUS
10
-10.1368
20
-66.7871
11
-10.1844
21
-66.8348
0
LINE
8
BLACK
6
CONTINUOUS
10
-10.1844
20
-66.8348
11
-10.2797
21
-66.8824
0
LINE
8
BLACK
6
CONTINUOUS
10
-10.2797
20
-66.8824
11
-10.3749
21
-66.8824
0
LINE
8
BLACK
6
CONTINUOUS
10
-10.3749
20
-66.8824
11
-10.4702
21
-66.8348
0
LINE
8
BLACK
6
CONTINUOUS
10
-10.4702
20
-66.8348
11
-10.5178
21
-66.7871
0
LINE
8
BLACK
6
CONTINUOUS
10
-10.5178
20
-66.7871
11
-10.5654
21
-66.6919
0
LINE
8
BLACK
6
CONTINUOUS
10
-10.5654
20
-66.6919
11
-10.613
21
-66.5014
0
LINE
8
BLACK
6
CONTINUOUS
10
-10.613
20
-66.5014
11
-10.613
21
-66.2633
0
LINE
8
BLACK
6
CONTINUOUS
10
-10.613
20
-66.2633
11
-10.5654
21
-66.0729
0
LINE
8
BLACK
6
CONTINUOUS
10
-10.5654
20
-66.0729
11
-10.5178
21
-65.9776
0
LINE
8
BLACK
6
CONTINUOUS
10
-10.5178
20
-65.9776
11
-10.4702
21
-65.93
0
LINE
8
BLACK
6
CONTINUOUS
10
-10.4702
20
-65.93
11
-10.3749
21
-65.8824
0
LINE
8
BLACK
6
CONTINUOUS
10
-8.85111
20
-66.8824
11
-8.85111
21
-66.2157
0
LINE
8
BLACK
6
CONTINUOUS
10
-8.85111
20
-66.311
11
-8.80349
21
-66.2633
0
LINE
8
BLACK
6
CONTINUOUS
10
-8.80349
20
-66.2633
11
-8.70825
21
-66.2157
0
LINE
8
BLACK
6
CONTINUOUS
10
-8.70825
20
-66.2157
11
-8.5654
21
-66.2157
0
LINE
8
BLACK
6
CONTINUOUS
10
-8.5654
20
-66.2157
11
-8.47016
21
-66.2633
0
LINE
8
BLACK
6
CONTINUOUS
10
-8.47016
20
-66.2633
11
-8.42254
21
-66.3586
0
LINE
8
BLACK
6
CONTINUOUS
10
-8.42254
20
-66.3586
11
-8.42254
21
-66.8824
0
LINE
8
BLACK
6
CONTINUOUS
10
-8.42254
20
-66.3586
11
-8.37492
21
-66.2633
0
LINE
8
BLACK
6
CONTINUOUS
10
-8.37492
20
-66.2633
11
-8.27968
21
-66.2157
0
LINE
8
BLACK
6
CONTINUOUS
10
-8.27968
20
-66.2157
11
-8.13683
21
-66.2157
0
LINE
8
BLACK
6
CONTINUOUS
10
-8.13683
20
-66.2157
11
-8.04159
21
-66.2633
0
LINE
8
BLACK
6
CONTINUOUS
10
-8.04159
20
-66.2633
11
-7.99397
21
-66.3586
0
LINE
8
BLACK
6
CONTINUOUS
10
-7.99397
20
-66.3586
11
-7.99397
21
-66.8824
0
LINE
8
BLACK
6
CONTINUOUS
10
-7.51778
20
-66.8824
11
-7.51778
21
-66.2157
0
LINE
8
BLACK
6
CONTINUOUS
10
-7.51778
20
-66.311
11
-7.47016
21
-66.2633
0
LINE
8
BLACK
6
CONTINUOUS
10
-7.47016
20
-66.2633
11
-7.37492
21
-66.2157
0
LINE
8
BLACK
6
CONTINUOUS
10
-7.37492
20
-66.2157
11
-7.23206
21
-66.2157
0
LINE
8
BLACK
6
CONTINUOUS
10
-7.23206
20
-66.2157
11
-7.13683
21
-66.2633
0
LINE
8
BLACK
6
CONTINUOUS
10
-7.13683
20
-66.2633
11
-7.08921
21
-66.3586
0
LINE
8
BLACK
6
CONTINUOUS
10
-7.08921
20
-66.3586
11
-7.08921
21
-66.8824
0
LINE
8
BLACK
6
CONTINUOUS
10
-7.08921
20
-66.3586
11
-7.04159
21
-66.2633
0
LINE
8
BLACK
6
CONTINUOUS
10
-7.04159
20
-66.2633
11
-6.94635
21
-66.2157
0
LINE
8
BLACK
6
CONTINUOUS
10
-6.94635
20
-66.2157
11
-6.80349
21
-66.2157
0
LINE
8
BLACK
6
CONTINUOUS
10
-6.80349
20
-66.2157
11
-6.70825
21
-66.2633
0
LINE
8
BLACK
6
CONTINUOUS
10
-6.70825
20
-66.2633
11
-6.66064
21
-66.3586
0
LINE
8
BLACK
6
CONTINUOUS
10
-6.66064
20
-66.3586
11
-6.66064
21
-66.8824
0
LINE
8
BLACK
6
CONTINUOUS
10
-17.756
20
-67.63
11
-3.75575
21
-67.63
0
LINE
8
BLACK
6
CONTINUOUS
10
-17.756
20
-68.25
11
-17.756
21
-67.0436
0
LINE
8
BLACK
6
CONTINUOUS
10
-3.75575
20
-68.25
11
-3.75575
21
-67.0436
0
LINE
8
BLACK
6
CONTINUOUS
10
-3.75575
20
-67.63
11
-4.88225
21
-68.2164
0
LINE
8
BLACK
6
CONTINUOUS
10
-3.75575
20
-67.63
11
-4.88225
21
-67.0436
0
LINE
8
BLACK
6
CONTINUOUS
10
-17.756
20
-67.63
11
-16.6295
21
-68.2164
0
LINE
8
BLACK
6
CONTINUOUS
10
-17.756
20
-67.63
11
-16.6295
21
-67.0436
0
LINE
8
BLACK
6
CONTINUOUS
10
-12.0776
20
-22.6714
11
-12.0776
21
-23.2429
0
LINE
8
BLACK
6
CONTINUOUS
10
-12.0776
20
-22.9571
11
-13.0776
21
-22.9571
0
LINE
8
BLACK
6
CONTINUOUS
10
-13.0776
20
-22.9571
11
-12.9348
21
-23.0524
0
LINE
8
BLACK
6
CONTINUOUS
10
-12.9348
20
-23.0524
11
-12.8395
21
-23.1476
0
LINE
8
BLACK
6
CONTINUOUS
10
-12.8395
20
-23.1476
11
-12.7919
21
-23.2429
0
LINE
8
BLACK
6
CONTINUOUS
10
-12.7443
20
-21.8143
11
-12.0776
21
-21.8143
0
LINE
8
BLACK
6
CONTINUOUS
10
-13.1252
20
-22.0524
11
-12.411
21
-22.2905
0
LINE
8
BLACK
6
CONTINUOUS
10
-12.411
20
-22.2905
11
-12.411
21
-21.6714
0
LINE
8
BLACK
6
CONTINUOUS
10
-12.1729
20
-21.2905
11
-12.1252
21
-21.2429
0
LINE
8
BLACK
6
CONTINUOUS
10
-12.1252
20
-21.2429
11
-12.0776
21
-21.2905
0
LINE
8
BLACK
6
CONTINUOUS
10
-12.0776
20
-21.2905
11
-12.1252
21
-21.3381
0
LINE
8
BLACK
6
CONTINUOUS
10
-12.1252
20
-21.3381
11
-12.1729
21
-21.2905
0
LINE
8
BLACK
6
CONTINUOUS
10
-12.1729
20
-21.2905
11
-12.0776
21
-21.2905
0
LINE
8
BLACK
6
CONTINUOUS
10
-13.0776
20
-20.6238
11
-13.0776
21
-20.5286
0
LINE
8
BLACK
6
CONTINUOUS
10
-13.0776
20
-20.5286
11
-13.03
21
-20.4333
0
LINE
8
BLACK
6
CONTINUOUS
10
-13.03
20
-20.4333
11
-12.9824
21
-20.3857
0
LINE
8
BLACK
6
CONTINUOUS
10
-12.9824
20
-20.3857
11
-12.8871
21
-20.3381
0
LINE
8
BLACK
6
CONTINUOUS
10
-12.8871
20
-20.3381
11
-12.6967
21
-20.2905
0
LINE
8
BLACK
6
CONTINUOUS
10
-12.6967
20
-20.2905
11
-12.4586
21
-20.2905
0
LINE
8
BLACK
6
CONTINUOUS
10
-12.4586
20
-20.2905
11
-12.2681
21
-20.3381
0
LINE
8
BLACK
6
CONTINUOUS
10
-12.2681
20
-20.3381
11
-12.1729
21
-20.3857
0
LINE
8
BLACK
6
CONTINUOUS
10
-12.1729
20
-20.3857
11
-12.1252
21
-20.4333
0
LINE
8
BLACK
6
CONTINUOUS
10
-12.1252
20
-20.4333
11
-12.0776
21
-20.5286
0
LINE
8
BLACK
6
CONTINUOUS
10
-12.0776
20
-20.5286
11
-12.0776
21
-20.6238
0
LINE
8
BLACK
6
CONTINUOUS
10
-12.0776
20
-20.6238
11
-12.1252
21
-20.719
0
LINE
8
BLACK
6
CONTINUOUS
10
-12.1252
20
-20.719
11
-12.1729
21
-20.7667
0
LINE
8
BLACK
6
CONTINUOUS
10
-12.1729
20
-20.7667
11
-12.2681
21
-20.8143
0
LINE
8
BLACK
6
CONTINUOUS
10
-12.2681
20
-20.8143
11
-12.4586
21
-20.8619
0
LINE
8
BLACK
6
CONTINUOUS
10
-12.4586
20
-20.8619
11
-12.6967
21
-20.8619
0
LINE
8
BLACK
6
CONTINUOUS
10
-12.6967
20
-20.8619
11
-12.8871
21
-20.8143
0
LINE
8
BLACK
6
CONTINUOUS
10
-12.8871
20
-20.8143
11
-12.9824
21
-20.7667
0
LINE
8
BLACK
6
CONTINUOUS
10
-12.9824
20
-20.7667
11
-13.03
21
-20.719
0
LINE
8
BLACK
6
CONTINUOUS
10
-13.03
20
-20.719
11
-13.0776
21
-20.6238
0
LINE
8
BLACK
6
CONTINUOUS
10
-13.0776
20
-19.6714
11
-13.0776
21
-19.5762
0
LINE
8
BLACK
6
CONTINUOUS
10
-13.0776
20
-19.5762
11
-13.03
21
-19.481
0
LINE
8
BLACK
6
CONTINUOUS
10
-13.03
20
-19.481
11
-12.9824
21
-19.4333
0
LINE
8
BLACK
6
CONTINUOUS
10
-12.9824
20
-19.4333
11
-12.8871
21
-19.3857
0
LINE
8
BLACK
6
CONTINUOUS
10
-12.8871
20
-19.3857
11
-12.6967
21
-19.3381
0
LINE
8
BLACK
6
CONTINUOUS
10
-12.6967
20
-19.3381
11
-12.4586
21
-19.3381
0
LINE
8
BLACK
6
CONTINUOUS
10
-12.4586
20
-19.3381
11
-12.2681
21
-19.3857
0
LINE
8
BLACK
6
CONTINUOUS
10
-12.2681
20
-19.3857
11
-12.1729
21
-19.4333
0
LINE
8
BLACK
6
CONTINUOUS
10
-12.1729
20
-19.4333
11
-12.1252
21
-19.481
0
LINE
8
BLACK
6
CONTINUOUS
10
-12.1252
20
-19.481
11
-12.0776
21
-19.5762
0
LINE
8
BLACK
6
CONTINUOUS
10
-12.0776
20
-19.5762
11
-12.0776
21
-19.6714
0
LINE
8
BLACK
6
CONTINUOUS
10
-12.0776
20
-19.6714
11
-12.1252
21
-19.7667
0
LINE
8
BLACK
6
CONTINUOUS
10
-12.1252
20
-19.7667
11
-12.1729
21
-19.8143
0
LINE
8
BLACK
6
CONTINUOUS
10
-12.1729
20
-19.8143
11
-12.2681
21
-19.8619
0
LINE
8
BLACK
6
CONTINUOUS
10
-12.2681
20
-19.8619
11
-12.4586
21
-19.9095
0
LINE
8
BLACK
6
CONTINUOUS
10
-12.4586
20
-19.9095
11
-12.6967
21
-19.9095
0
LINE
8
BLACK
6
CONTINUOUS
10
-12.6967
20
-19.9095
11
-12.8871
21
-19.8619
0
LINE
8
BLACK
6
CONTINUOUS
10
-12.8871
20
-19.8619
11
-12.9824
21
-19.8143
0
LINE
8
BLACK
6
CONTINUOUS
10
-12.9824
20
-19.8143
11
-13.03
21
-19.7667
0
LINE
8
BLACK
6
CONTINUOUS
10
-13.03
20
-19.7667
11
-13.0776
21
-19.6714
0
LINE
8
BLACK
6
CONTINUOUS
10
-13.0776
20
-18.719
11
-13.0776
21
-18.6238
0
LINE
8
BLACK
6
CONTINUOUS
10
-13.0776
20
-18.6238
11
-13.03
21
-18.5286
0
LINE
8
BLACK
6
CONTINUOUS
10
-13.03
20
-18.5286
11
-12.9824
21
-18.481
0
LINE
8
BLACK
6
CONTINUOUS
10
-12.9824
20
-18.481
11
-12.8871
21
-18.4333
0
LINE
8
BLACK
6
CONTINUOUS
10
-12.8871
20
-18.4333
11
-12.6967
21
-18.3857
0
LINE
8
BLACK
6
CONTINUOUS
10
-12.6967
20
-18.3857
11
-12.4586
21
-18.3857
0
LINE
8
BLACK
6
CONTINUOUS
10
-12.4586
20
-18.3857
11
-12.2681
21
-18.4333
0
LINE
8
BLACK
6
CONTINUOUS
10
-12.2681
20
-18.4333
11
-12.1729
21
-18.481
0
LINE
8
BLACK
6
CONTINUOUS
10
-12.1729
20
-18.481
11
-12.1252
21
-18.5286
0
LINE
8
BLACK
6
CONTINUOUS
10
-12.1252
20
-18.5286
11
-12.0776
21
-18.6238
0
LINE
8
BLACK
6
CONTINUOUS
10
-12.0776
20
-18.6238
11
-12.0776
21
-18.719
0
LINE
8
BLACK
6
CONTINUOUS
10
-12.0776
20
-18.719
11
-12.1252
21
-18.8143
0
LINE
8
BLACK
6
CONTINUOUS
10
-12.1252
20
-18.8143
11
-12.1729
21
-18.8619
0
LINE
8
BLACK
6
CONTINUOUS
10
-12.1729
20
-18.8619
11
-12.2681
21
-18.9095
0
LINE
8
BLACK
6
CONTINUOUS
10
-12.2681
20
-18.9095
11
-12.4586
21
-18.9571
0
LINE
8
BLACK
6
CONTINUOUS
10
-12.4586
20
-18.9571
11
-12.6967
21
-18.9571
0
LINE
8
BLACK
6
CONTINUOUS
10
-12.6967
20
-18.9571
11
-12.8871
21
-18.9095
0
LINE
8
BLACK
6
CONTINUOUS
10
-12.8871
20
-18.9095
11
-12.9824
21
-18.8619
0
LINE
8
BLACK
6
CONTINUOUS
10
-12.9824
20
-18.8619
11
-13.03
21
-18.8143
0
LINE
8
BLACK
6
CONTINUOUS
10
-13.03
20
-18.8143
11
-13.0776
21
-18.719
0
LINE
8
BLACK
6
CONTINUOUS
10
-12.0776
20
-17.1952
11
-12.7443
21
-17.1952
0
LINE
8
BLACK
6
CONTINUOUS
10
-12.649
20
-17.1952
11
-12.6967
21
-17.1476
0
LINE
8
BLACK
6
CONTINUOUS
10
-12.6967
20
-17.1476
11
-12.7443
21
-17.0524
0
LINE
8
BLACK
6
CONTINUOUS
10
-12.7443
20
-17.0524
11
-12.7443
21
-16.9095
0
LINE
8
BLACK
6
CONTINUOUS
10
-12.7443
20
-16.9095
11
-12.6967
21
-16.8143
0
LINE
8
BLACK
6
CONTINUOUS
10
-12.6967
20
-16.8143
11
-12.6014
21
-16.7667
0
LINE
8
BLACK
6
CONTINUOUS
10
-12.6014
20
-16.7667
11
-12.0776
21
-16.7667
0
LINE
8
BLACK
6
CONTINUOUS
10
-12.6014
20
-16.7667
11
-12.6967
21
-16.719
0
LINE
8
BLACK
6
CONTINUOUS
10
-12.6967
20
-16.719
11
-12.7443
21
-16.6238
0
LINE
8
BLACK
6
CONTINUOUS
10
-12.7443
20
-16.6238
11
-12.7443
21
-16.481
0
LINE
8
BLACK
6
CONTINUOUS
10
-12.7443
20
-16.481
11
-12.6967
21
-16.3857
0
LINE
8
BLACK
6
CONTINUOUS
10
-12.6967
20
-16.3857
11
-12.6014
21
-16.3381
0
LINE
8
BLACK
6
CONTINUOUS
10
-12.6014
20
-16.3381
11
-12.0776
21
-16.3381
0
LINE
8
BLACK
6
CONTINUOUS
10
-12.0776
20
-15.8619
11
-12.7443
21
-15.8619
0
LINE
8
BLACK
6
CONTINUOUS
10
-12.649
20
-15.8619
11
-12.6967
21
-15.8143
0
LINE
8
BLACK
6
CONTINUOUS
10
-12.6967
20
-15.8143
11
-12.7443
21
-15.719
0
LINE
8
BLACK
6
CONTINUOUS
10
-12.7443
20
-15.719
11
-12.7443
21
-15.5762
0
LINE
8
BLACK
6
CONTINUOUS
10
-12.7443
20
-15.5762
11
-12.6967
21
-15.481
0
LINE
8
BLACK
6
CONTINUOUS
10
-12.6967
20
-15.481
11
-12.6014
21
-15.4333
0
LINE
8
BLACK
6
CONTINUOUS
10
-12.6014
20
-15.4333
11
-12.0776
21
-15.4333
0
LINE
8
BLACK
6
CONTINUOUS
10
-12.6014
20
-15.4333
11
-12.6967
21
-15.3857
0
LINE
8
BLACK
6
CONTINUOUS
10
-12.6967
20
-15.3857
11
-12.7443
21
-15.2905
0
LINE
8
BLACK
6
CONTINUOUS
10
-12.7443
20
-15.2905
11
-12.7443
21
-15.1476
0
LINE
8
BLACK
6
CONTINUOUS
10
-12.7443
20
-15.1476
11
-12.6967
21
-15.0524
0
LINE
8
BLACK
6
CONTINUOUS
10
-12.6967
20
-15.0524
11
-12.6014
21
-15.0048
0
LINE
8
BLACK
6
CONTINUOUS
10
-12.6014
20
-15.0048
11
-12.0776
21
-15.0048
0
LINE
8
BLACK
6
CONTINUOUS
10
-13.73
20
-26.1
11
-13.73
21
-12.1
0
LINE
8
BLACK
6
CONTINUOUS
10
-14.6625
20
-26.1
11
-13.1436
21
-26.1
0
LINE
8
BLACK
6
CONTINUOUS
10
-14.6625
20
-12.1
11
-13.1436
21
-12.1
0
LINE
8
BLACK
6
CONTINUOUS
10
-13.73
20
-12.1
11
-13.1436
21
-13.2265
0
LINE
8
BLACK
6
CONTINUOUS
10
-13.73
20
-12.1
11
-14.3164
21
-13.2265
0
LINE
8
BLACK
6
CONTINUOUS
10
-13.73
20
-26.1
11
-13.1436
21
-24.9735
0
LINE
8
BLACK
6
CONTINUOUS
10
-13.73
20
-26.1
11
-14.3164
21
-24.9735
0
LINE
8
BLACK
6
CONTINUOUS
10
-26.2339
20
-6.80238
11
-26.8054
21
-6.80238
0
LINE
8
BLACK
6
CONTINUOUS
10
-26.5196
20
-6.80238
11
-26.5196
21
-5.80238
0
LINE
8
BLACK
6
CONTINUOUS
10
-26.5196
20
-5.80238
11
-26.6149
21
-5.94524
0
LINE
8
BLACK
6
CONTINUOUS
10
-26.6149
20
-5.94524
11
-26.7101
21
-6.04048
0
LINE
8
BLACK
6
CONTINUOUS
10
-26.7101
20
-6.04048
11
-26.8054
21
-6.0881
0
LINE
8
BLACK
6
CONTINUOUS
10
-25.3768
20
-6.13571
11
-25.3768
21
-6.80238
0
LINE
8
BLACK
6
CONTINUOUS
10
-25.6149
20
-5.75476
11
-25.853
21
-6.46905
0
LINE
8
BLACK
6
CONTINUOUS
10
-25.853
20
-6.46905
11
-25.2339
21
-6.46905
0
LINE
8
BLACK
6
CONTINUOUS
10
-24.853
20
-6.70714
11
-24.8054
21
-6.75476
0
LINE
8
BLACK
6
CONTINUOUS
10
-24.8054
20
-6.75476
11
-24.853
21
-6.80238
0
LINE
8
BLACK
6
CONTINUOUS
10
-24.853
20
-6.80238
11
-24.9006
21
-6.75476
0
LINE
8
BLACK
6
CONTINUOUS
10
-24.9006
20
-6.75476
11
-24.853
21
-6.70714
0
LINE
8
BLACK
6
CONTINUOUS
10
-24.853
20
-6.70714
11
-24.853
21
-6.80238
0
LINE
8
BLACK
6
CONTINUOUS
10
-24.1863
20
-5.80238
11
-24.0911
21
-5.80238
0
LINE
8
BLACK
6
CONTINUOUS
10
-24.0911
20
-5.80238
11
-23.9958
21
-5.85
0
LINE
8
BLACK
6
CONTINUOUS
10
-23.9958
20
-5.85
11
-23.9482
21
-5.89762
0
LINE
8
BLACK
6
CONTINUOUS
10
-23.9482
20
-5.89762
11
-23.9006
21
-5.99286
0
LINE
8
BLACK
6
CONTINUOUS
10
-23.9006
20
-5.99286
11
-23.853
21
-6.18333
0
LINE
8
BLACK
6
CONTINUOUS
10
-23.853
20
-6.18333
11
-23.853
21
-6.42143
0
LINE
8
BLACK
6
CONTINUOUS
10
-23.853
20
-6.42143
11
-23.9006
21
-6.6119
0
LINE
8
BLACK
6
CONTINUOUS
10
-23.9006
20
-6.6119
11
-23.9482
21
-6.70714
0
LINE
8
BLACK
6
CONTINUOUS
10
-23.9482
20
-6.70714
11
-23.9958
21
-6.75476
0
LINE
8
BLACK
6
CONTINUOUS
10
-23.9958
20
-6.75476
11
-24.0911
21
-6.80238
0
LINE
8
BLACK
6
CONTINUOUS
10
-24.0911
20
-6.80238
11
-24.1863
21
-6.80238
0
LINE
8
BLACK
6
CONTINUOUS
10
-24.1863
20
-6.80238
11
-24.2815
21
-6.75476
0
LINE
8
BLACK
6
CONTINUOUS
10
-24.2815
20
-6.75476
11
-24.3292
21
-6.70714
0
LINE
8
BLACK
6
CONTINUOUS
10
-24.3292
20
-6.70714
11
-24.3768
21
-6.6119
0
LINE
8
BLACK
6
CONTINUOUS
10
-24.3768
20
-6.6119
11
-24.4244
21
-6.42143
0
LINE
8
BLACK
6
CONTINUOUS
10
-24.4244
20
-6.42143
11
-24.4244
21
-6.18333
0
LINE
8
BLACK
6
CONTINUOUS
10
-24.4244
20
-6.18333
11
-24.3768
21
-5.99286
0
LINE
8
BLACK
6
CONTINUOUS
10
-24.3768
20
-5.99286
11
-24.3292
21
-5.89762
0
LINE
8
BLACK
6
CONTINUOUS
10
-24.3292
20
-5.89762
11
-24.2815
21
-5.85
0
LINE
8
BLACK
6
CONTINUOUS
10
-24.2815
20
-5.85
11
-24.1863
21
-5.80238
0
LINE
8
BLACK
6
CONTINUOUS
10
-23.2339
20
-5.80238
11
-23.1387
21
-5.80238
0
LINE
8
BLACK
6
CONTINUOUS
10
-23.1387
20
-5.80238
11
-23.0435
21
-5.85
0
LINE
8
BLACK
6
CONTINUOUS
10
-23.0435
20
-5.85
11
-22.9958
21
-5.89762
0
LINE
8
BLACK
6
CONTINUOUS
10
-22.9958
20
-5.89762
11
-22.9482
21
-5.99286
0
LINE
8
BLACK
6
CONTINUOUS
10
-22.9482
20
-5.99286
11
-22.9006
21
-6.18333
0
LINE
8
BLACK
6
CONTINUOUS
10
-22.9006
20
-6.18333
11
-22.9006
21
-6.42143
0
LINE
8
BLACK
6
CONTINUOUS
10
-22.9006
20
-6.42143
11
-22.9482
21
-6.6119
0
LINE
8
BLACK
6
CONTINUOUS
10
-22.9482
20
-6.6119
11
-22.9958
21
-6.70714
0
LINE
8
BLACK
6
CONTINUOUS
10
-22.9958
20
-6.70714
11
-23.0435
21
-6.75476
0
LINE
8
BLACK
6
CONTINUOUS
10
-23.0435
20
-6.75476
11
-23.1387
21
-6.80238
0
LINE
8
BLACK
6
CONTINUOUS
10
-23.1387
20
-6.80238
11
-23.2339
21
-6.80238
0
LINE
8
BLACK
6
CONTINUOUS
10
-23.2339
20
-6.80238
11
-23.3292
21
-6.75476
0
LINE
8
BLACK
6
CONTINUOUS
10
-23.3292
20
-6.75476
11
-23.3768
21
-6.70714
0
LINE
8
BLACK
6
CONTINUOUS
10
-23.3768
20
-6.70714
11
-23.4244
21
-6.6119
0
LINE
8
BLACK
6
CONTINUOUS
10
-23.4244
20
-6.6119
11
-23.472
21
-6.42143
0
LINE
8
BLACK
6
CONTINUOUS
10
-23.472
20
-6.42143
11
-23.472
21
-6.18333
0
LINE
8
BLACK
6
CONTINUOUS
10
-23.472
20
-6.18333
11
-23.4244
21
-5.99286
0
LINE
8
BLACK
6
CONTINUOUS
10
-23.4244
20
-5.99286
11
-23.3768
21
-5.89762
0
LINE
8
BLACK
6
CONTINUOUS
10
-23.3768
20
-5.89762
11
-23.3292
21
-5.85
0
LINE
8
BLACK
6
CONTINUOUS
10
-23.3292
20
-5.85
11
-23.2339
21
-5.80238
0
LINE
8
BLACK
6
CONTINUOUS
10
-22.2815
20
-5.80238
11
-22.1863
21
-5.80238
0
LINE
8
BLACK
6
CONTINUOUS
10
-22.1863
20
-5.80238
11
-22.0911
21
-5.85
0
LINE
8
BLACK
6
CONTINUOUS
10
-22.0911
20
-5.85
11
-22.0435
21
-5.89762
0
LINE
8
BLACK
6
CONTINUOUS
10
-22.0435
20
-5.89762
11
-21.9958
21
-5.99286
0
LINE
8
BLACK
6
CONTINUOUS
10
-21.9958
20
-5.99286
11
-21.9482
21
-6.18333
0
LINE
8
BLACK
6
CONTINUOUS
10
-21.9482
20
-6.18333
11
-21.9482
21
-6.42143
0
LINE
8
BLACK
6
CONTINUOUS
10
-21.9482
20
-6.42143
11
-21.9958
21
-6.6119
0
LINE
8
BLACK
6
CONTINUOUS
10
-21.9958
20
-6.6119
11
-22.0435
21
-6.70714
0
LINE
8
BLACK
6
CONTINUOUS
10
-22.0435
20
-6.70714
11
-22.0911
21
-6.75476
0
LINE
8
BLACK
6
CONTINUOUS
10
-22.0911
20
-6.75476
11
-22.1863
21
-6.80238
0
LINE
8
BLACK
6
CONTINUOUS
10
-22.1863
20
-6.80238
11
-22.2815
21
-6.80238
0
LINE
8
BLACK
6
CONTINUOUS
10
-22.2815
20
-6.80238
11
-22.3768
21
-6.75476
0
LINE
8
BLACK
6
CONTINUOUS
10
-22.3768
20
-6.75476
11
-22.4244
21
-6.70714
0
LINE
8
BLACK
6
CONTINUOUS
10
-22.4244
20
-6.70714
11
-22.472
21
-6.6119
0
LINE
8
BLACK
6
CONTINUOUS
10
-22.472
20
-6.6119
11
-22.5196
21
-6.42143
0
LINE
8
BLACK
6
CONTINUOUS
10
-22.5196
20
-6.42143
11
-22.5196
21
-6.18333
0
LINE
8
BLACK
6
CONTINUOUS
10
-22.5196
20
-6.18333
11
-22.472
21
-5.99286
0
LINE
8
BLACK
6
CONTINUOUS
10
-22.472
20
-5.99286
11
-22.4244
21
-5.89762
0
LINE
8
BLACK
6
CONTINUOUS
10
-22.4244
20
-5.89762
11
-22.3768
21
-5.85
0
LINE
8
BLACK
6
CONTINUOUS
10
-22.3768
20
-5.85
11
-22.2815
21
-5.80238
0
LINE
8
BLACK
6
CONTINUOUS
10
-20.7577
20
-6.80238
11
-20.7577
21
-6.13571
0
LINE
8
BLACK
6
CONTINUOUS
10
-20.7577
20
-6.23095
11
-20.7101
21
-6.18333
0
LINE
8
BLACK
6
CONTINUOUS
10
-20.7101
20
-6.18333
11
-20.6149
21
-6.13571
0
LINE
8
BLACK
6
CONTINUOUS
10
-20.6149
20
-6.13571
11
-20.472
21
-6.13571
0
LINE
8
BLACK
6
CONTINUOUS
10
-20.472
20
-6.13571
11
-20.3768
21
-6.18333
0
LINE
8
BLACK
6
CONTINUOUS
10
-20.3768
20
-6.18333
11
-20.3292
21
-6.27857
0
LINE
8
BLACK
6
CONTINUOUS
10
-20.3292
20
-6.27857
11
-20.3292
21
-6.80238
0
LINE
8
BLACK
6
CONTINUOUS
10
-20.3292
20
-6.27857
11
-20.2815
21
-6.18333
0
LINE
8
BLACK
6
CONTINUOUS
10
-20.2815
20
-6.18333
11
-20.1863
21
-6.13571
0
LINE
8
BLACK
6
CONTINUOUS
10
-20.1863
20
-6.13571
11
-20.0435
21
-6.13571
0
LINE
8
BLACK
6
CONTINUOUS
10
-20.0435
20
-6.13571
11
-19.9482
21
-6.18333
0
LINE
8
BLACK
6
CONTINUOUS
10
-19.9482
20
-6.18333
11
-19.9006
21
-6.27857
0
LINE
8
BLACK
6
CONTINUOUS
10
-19.9006
20
-6.27857
11
-19.9006
21
-6.80238
0
LINE
8
BLACK
6
CONTINUOUS
10
-19.4244
20
-6.80238
11
-19.4244
21
-6.13571
0
LINE
8
BLACK
6
CONTINUOUS
10
-19.4244
20
-6.23095
11
-19.3768
21
-6.18333
0
LINE
8
BLACK
6
CONTINUOUS
10
-19.3768
20
-6.18333
11
-19.2815
21
-6.13571
0
LINE
8
BLACK
6
CONTINUOUS
10
-19.2815
20
-6.13571
11
-19.1387
21
-6.13571
0
LINE
8
BLACK
6
CONTINUOUS
10
-19.1387
20
-6.13571
11
-19.0435
21
-6.18333
0
LINE
8
BLACK
6
CONTINUOUS
10
-19.0435
20
-6.18333
11
-18.9958
21
-6.27857
0
LINE
8
BLACK
6
CONTINUOUS
10
-18.9958
20
-6.27857
11
-18.9958
21
-6.80238
0
LINE
8
BLACK
6
CONTINUOUS
10
-18.9958
20
-6.27857
11
-18.9482
21
-6.18333
0
LINE
8
BLACK
6
CONTINUOUS
10
-18.9482
20
-6.18333
11
-18.853
21
-6.13571
0
LINE
8
BLACK
6
CONTINUOUS
10
-18.853
20
-6.13571
11
-18.7101
21
-6.13571
0
LINE
8
BLACK
6
CONTINUOUS
10
-18.7101
20
-6.13571
11
-18.6149
21
-6.18333
0
LINE
8
BLACK
6
CONTINUOUS
10
-18.6149
20
-6.18333
11
-18.5673
21
-6.27857
0
LINE
8
BLACK
6
CONTINUOUS
10
-18.5673
20
-6.27857
11
-18.5673
21
-6.80238
0
LINE
8
BLACK
6
CONTINUOUS
10
-29.6625
20
-7.55
11
-15.6625
21
-7.55
0
LINE
8
BLACK
6
CONTINUOUS
10
-29.6625
20
-8.1
11
-29.6625
21
-6.96358
0
LINE
8
BLACK
6
CONTINUOUS
10
-15.6625
20
-8.1
11
-15.6625
21
-6.96358
0
LINE
8
BLACK
6
CONTINUOUS
10
-15.6625
20
-7.55
11
-16.789
21
-8.13642
0
LINE
8
BLACK
6
CONTINUOUS
10
-15.6625
20
-7.55
11
-16.789
21
-6.96358
0
LINE
8
BLACK
6
CONTINUOUS
10
-29.6625
20
-7.55
11
-28.536
21
-8.13642
0
LINE
8
BLACK
6
CONTINUOUS
10
-29.6625
20
-7.55
11
-28.536
21
-6.96358
0
LINE
8
BLACK
6
CONTINUOUS
10
32.8424
20
-122.452
11
32.271
21
-122.452
0
LINE
8
BLACK
6
CONTINUOUS
10
32.5567
20
-122.452
11
32.5567
21
-121.452
0
LINE
8
BLACK
6
CONTINUOUS
10
32.5567
20
-121.452
11
32.4614
21
-121.595
0
LINE
8
BLACK
6
CONTINUOUS
10
32.4614
20
-121.595
11
32.3662
21
-121.69
0
LINE
8
BLACK
6
CONTINUOUS
10
32.3662
20
-121.69
11
32.271
21
-121.738
0
LINE
8
BLACK
6
CONTINUOUS
10
33.1757
20
-121.452
11
33.7948
21
-121.452
0
LINE
8
BLACK
6
CONTINUOUS
10
33.7948
20
-121.452
11
33.4614
21
-121.833
0
LINE
8
BLACK
6
CONTINUOUS
10
33.4614
20
-121.833
11
33.6043
21
-121.833
0
LINE
8
BLACK
6
CONTINUOUS
10
33.6043
20
-121.833
11
33.6995
21
-121.881
0
LINE
8
BLACK
6
CONTINUOUS
10
33.6995
20
-121.881
11
33.7471
21
-121.929
0
LINE
8
BLACK
6
CONTINUOUS
10
33.7471
20
-121.929
11
33.7948
21
-122.024
0
LINE
8
BLACK
6
CONTINUOUS
10
33.7948
20
-122.024
11
33.7948
21
-122.262
0
LINE
8
BLACK
6
CONTINUOUS
10
33.7948
20
-122.262
11
33.7471
21
-122.357
0
LINE
8
BLACK
6
CONTINUOUS
10
33.7471
20
-122.357
11
33.6995
21
-122.405
0
LINE
8
BLACK
6
CONTINUOUS
10
33.6995
20
-122.405
11
33.6043
21
-122.452
0
LINE
8
BLACK
6
CONTINUOUS
10
33.6043
20
-122.452
11
33.3186
21
-122.452
0
LINE
8
BLACK
6
CONTINUOUS
10
33.3186
20
-122.452
11
33.2233
21
-122.405
0
LINE
8
BLACK
6
CONTINUOUS
10
33.2233
20
-122.405
11
33.1757
21
-122.357
0
LINE
8
BLACK
6
CONTINUOUS
10
34.3662
20
-121.881
11
34.271
21
-121.833
0
LINE
8
BLACK
6
CONTINUOUS
10
34.271
20
-121.833
11
34.2233
21
-121.786
0
LINE
8
BLACK
6
CONTINUOUS
10
34.2233
20
-121.786
11
34.1757
21
-121.69
0
LINE
8
BLACK
6
CONTINUOUS
10
34.1757
20
-121.69
11
34.1757
21
-121.643
0
LINE
8
BLACK
6
CONTINUOUS
10
34.1757
20
-121.643
11
34.2233
21
-121.548
0
LINE
8
BLACK
6
CONTINUOUS
10
34.2233
20
-121.548
11
34.271
21
-121.5
0
LINE
8
BLACK
6
CONTINUOUS
10
34.271
20
-121.5
11
34.3662
21
-121.452
0
LINE
8
BLACK
6
CONTINUOUS
10
34.3662
20
-121.452
11
34.5567
21
-121.452
0
LINE
8
BLACK
6
CONTINUOUS
10
34.5567
20
-121.452
11
34.6519
21
-121.5
0
LINE
8
BLACK
6
CONTINUOUS
10
34.6519
20
-121.5
11
34.6995
21
-121.548
0
LINE
8
BLACK
6
CONTINUOUS
10
34.6995
20
-121.548
11
34.7471
21
-121.643
0
LINE
8
BLACK
6
CONTINUOUS
10
34.7471
20
-121.643
11
34.7471
21
-121.69
0
LINE
8
BLACK
6
CONTINUOUS
10
34.7471
20
-121.69
11
34.6995
21
-121.786
0
LINE
8
BLACK
6
CONTINUOUS
10
34.6995
20
-121.786
11
34.6519
21
-121.833
0
LINE
8
BLACK
6
CONTINUOUS
10
34.6519
20
-121.833
11
34.5567
21
-121.881
0
LINE
8
BLACK
6
CONTINUOUS
10
34.5567
20
-121.881
11
34.3662
21
-121.881
0
LINE
8
BLACK
6
CONTINUOUS
10
34.3662
20
-121.881
11
34.271
21
-121.929
0
LINE
8
BLACK
6
CONTINUOUS
10
34.271
20
-121.929
11
34.2233
21
-121.976
0
LINE
8
BLACK
6
CONTINUOUS
10
34.2233
20
-121.976
11
34.1757
21
-122.071
0
LINE
8
BLACK
6
CONTINUOUS
10
34.1757
20
-122.071
11
34.1757
21
-122.262
0
LINE
8
BLACK
6
CONTINUOUS
10
34.1757
20
-122.262
11
34.2233
21
-122.357
0
LINE
8
BLACK
6
CONTINUOUS
10
34.2233
20
-122.357
11
34.271
21
-122.405
0
LINE
8
BLACK
6
CONTINUOUS
10
34.271
20
-122.405
11
34.3662
21
-122.452
0
LINE
8
BLACK
6
CONTINUOUS
10
34.3662
20
-122.452
11
34.5567
21
-122.452
0
LINE
8
BLACK
6
CONTINUOUS
10
34.5567
20
-122.452
11
34.6519
21
-122.405
0
LINE
8
BLACK
6
CONTINUOUS
10
34.6519
20
-122.405
11
34.6995
21
-122.357
0
LINE
8
BLACK
6
CONTINUOUS
10
34.6995
20
-122.357
11
34.7471
21
-122.262
0
LINE
8
BLACK
6
CONTINUOUS
10
34.7471
20
-122.262
11
34.7471
21
-122.071
0
LINE
8
BLACK
6
CONTINUOUS
10
34.7471
20
-122.071
11
34.6995
21
-121.976
0
LINE
8
BLACK
6
CONTINUOUS
10
34.6995
20
-121.976
11
34.6519
21
-121.929
0
LINE
8
BLACK
6
CONTINUOUS
10
34.6519
20
-121.929
11
34.5567
21
-121.881
0
LINE
8
BLACK
6
CONTINUOUS
10
35.1757
20
-122.357
11
35.2233
21
-122.405
0
LINE
8
BLACK
6
CONTINUOUS
10
35.2233
20
-122.405
11
35.1757
21
-122.452
0
LINE
8
BLACK
6
CONTINUOUS
10
35.1757
20
-122.452
11
35.1281
21
-122.405
0
LINE
8
BLACK
6
CONTINUOUS
10
35.1281
20
-122.405
11
35.1757
21
-122.357
0
LINE
8
BLACK
6
CONTINUOUS
10
35.1757
20
-122.357
11
35.1757
21
-122.452
0
LINE
8
BLACK
6
CONTINUOUS
10
36.1757
20
-122.452
11
35.6043
21
-122.452
0
LINE
8
BLACK
6
CONTINUOUS
10
35.89
20
-122.452
11
35.89
21
-121.452
0
LINE
8
BLACK
6
CONTINUOUS
10
35.89
20
-121.452
11
35.7948
21
-121.595
0
LINE
8
BLACK
6
CONTINUOUS
10
35.7948
20
-121.595
11
35.6995
21
-121.69
0
LINE
8
BLACK
6
CONTINUOUS
10
35.6995
20
-121.69
11
35.6043
21
-121.738
0
LINE
8
BLACK
6
CONTINUOUS
10
37.0329
20
-121.452
11
36.8424
21
-121.452
0
LINE
8
BLACK
6
CONTINUOUS
10
36.8424
20
-121.452
11
36.7471
21
-121.5
0
LINE
8
BLACK
6
CONTINUOUS
10
36.7471
20
-121.5
11
36.6995
21
-121.548
0
LINE
8
BLACK
6
CONTINUOUS
10
36.6995
20
-121.548
11
36.6043
21
-121.69
0
LINE
8
BLACK
6
CONTINUOUS
10
36.6043
20
-121.69
11
36.5567
21
-121.881
0
LINE
8
BLACK
6
CONTINUOUS
10
36.5567
20
-121.881
11
36.5567
21
-122.262
0
LINE
8
BLACK
6
CONTINUOUS
10
36.5567
20
-122.262
11
36.6043
21
-122.357
0
LINE
8
BLACK
6
CONTINUOUS
10
36.6043
20
-122.357
11
36.6519
21
-122.405
0
LINE
8
BLACK
6
CONTINUOUS
10
36.6519
20
-122.405
11
36.7471
21
-122.452
0
LINE
8
BLACK
6
CONTINUOUS
10
36.7471
20
-122.452
11
36.9376
21
-122.452
0
LINE
8
BLACK
6
CONTINUOUS
10
36.9376
20
-122.452
11
37.0329
21
-122.405
0
LINE
8
BLACK
6
CONTINUOUS
10
37.0329
20
-122.405
11
37.0805
21
-122.357
0
LINE
8
BLACK
6
CONTINUOUS
10
37.0805
20
-122.357
11
37.1281
21
-122.262
0
LINE
8
BLACK
6
CONTINUOUS
10
37.1281
20
-122.262
11
37.1281
21
-122.024
0
LINE
8
BLACK
6
CONTINUOUS
10
37.1281
20
-122.024
11
37.0805
21
-121.929
0
LINE
8
BLACK
6
CONTINUOUS
10
37.0805
20
-121.929
11
37.0329
21
-121.881
0
LINE
8
BLACK
6
CONTINUOUS
10
37.0329
20
-121.881
11
36.9376
21
-121.833
0
LINE
8
BLACK
6
CONTINUOUS
10
36.9376
20
-121.833
11
36.7471
21
-121.833
0
LINE
8
BLACK
6
CONTINUOUS
10
36.7471
20
-121.833
11
36.6519
21
-121.881
0
LINE
8
BLACK
6
CONTINUOUS
10
36.6519
20
-121.881
11
36.6043
21
-121.929
0
LINE
8
BLACK
6
CONTINUOUS
10
36.6043
20
-121.929
11
36.5567
21
-122.024
0
LINE
8
BLACK
6
CONTINUOUS
10
37.7471
20
-121.452
11
37.8424
21
-121.452
0
LINE
8
BLACK
6
CONTINUOUS
10
37.8424
20
-121.452
11
37.9376
21
-121.5
0
LINE
8
BLACK
6
CONTINUOUS
10
37.9376
20
-121.5
11
37.9852
21
-121.548
0
LINE
8
BLACK
6
CONTINUOUS
10
37.9852
20
-121.548
11
38.0329
21
-121.643
0
LINE
8
BLACK
6
CONTINUOUS
10
38.0329
20
-121.643
11
38.0805
21
-121.833
0
LINE
8
BLACK
6
CONTINUOUS
10
38.0805
20
-121.833
11
38.0805
21
-122.071
0
LINE
8
BLACK
6
CONTINUOUS
10
38.0805
20
-122.071
11
38.0329
21
-122.262
0
LINE
8
BLACK
6
CONTINUOUS
10
38.0329
20
-122.262
11
37.9852
21
-122.357
0
LINE
8
BLACK
6
CONTINUOUS
10
37.9852
20
-122.357
11
37.9376
21
-122.405
0
LINE
8
BLACK
6
CONTINUOUS
10
37.9376
20
-122.405
11
37.8424
21
-122.452
0
LINE
8
BLACK
6
CONTINUOUS
10
37.8424
20
-122.452
11
37.7471
21
-122.452
0
LINE
8
BLACK
6
CONTINUOUS
10
37.7471
20
-122.452
11
37.6519
21
-122.405
0
LINE
8
BLACK
6
CONTINUOUS
10
37.6519
20
-122.405
11
37.6043
21
-122.357
0
LINE
8
BLACK
6
CONTINUOUS
10
37.6043
20
-122.357
11
37.5567
21
-122.262
0
LINE
8
BLACK
6
CONTINUOUS
10
37.5567
20
-122.262
11
37.509
21
-122.071
0
LINE
8
BLACK
6
CONTINUOUS
10
37.509
20
-122.071
11
37.509
21
-121.833
0
LINE
8
BLACK
6
CONTINUOUS
10
37.509
20
-121.833
11
37.5567
21
-121.643
0
LINE
8
BLACK
6
CONTINUOUS
10
37.5567
20
-121.643
11
37.6043
21
-121.548
0
LINE
8
BLACK
6
CONTINUOUS
10
37.6043
20
-121.548
11
37.6519
21
-121.5
0
LINE
8
BLACK
6
CONTINUOUS
10
37.6519
20
-121.5
11
37.7471
21
-121.452
0
LINE
8
BLACK
6
CONTINUOUS
10
39.271
20
-122.452
11
39.271
21
-121.786
0
LINE
8
BLACK
6
CONTINUOUS
10
39.271
20
-121.881
11
39.3186
21
-121.833
0
LINE
8
BLACK
6
CONTINUOUS
10
39.3186
20
-121.833
11
39.4138
21
-121.786
0
LINE
8
BLACK
6
CONTINUOUS
10
39.4138
20
-121.786
11
39.5567
21
-121.786
0
LINE
8
BLACK
6
CONTINUOUS
10
39.5567
20
-121.786
11
39.6519
21
-121.833
0
LINE
8
BLACK
6
CONTINUOUS
10
39.6519
20
-121.833
11
39.6995
21
-121.929
0
LINE
8
BLACK
6
CONTINUOUS
10
39.6995
20
-121.929
11
39.6995
21
-122.452
0
LINE
8
BLACK
6
CONTINUOUS
10
39.6995
20
-121.929
11
39.7471
21
-121.833
0
LINE
8
BLACK
6
CONTINUOUS
10
39.7471
20
-121.833
11
39.8424
21
-121.786
0
LINE
8
BLACK
6
CONTINUOUS
10
39.8424
20
-121.786
11
39.9852
21
-121.786
0
LINE
8
BLACK
6
CONTINUOUS
10
39.9852
20
-121.786
11
40.0805
21
-121.833
0
LINE
8
BLACK
6
CONTINUOUS
10
40.0805
20
-121.833
11
40.1281
21
-121.929
0
LINE
8
BLACK
6
CONTINUOUS
10
40.1281
20
-121.929
11
40.1281
21
-122.452
0
LINE
8
BLACK
6
CONTINUOUS
10
40.6043
20
-122.452
11
40.6043
21
-121.786
0
LINE
8
BLACK
6
CONTINUOUS
10
40.6043
20
-121.881
11
40.6519
21
-121.833
0
LINE
8
BLACK
6
CONTINUOUS
10
40.6519
20
-121.833
11
40.7471
21
-121.786
0
LINE
8
BLACK
6
CONTINUOUS
10
40.7471
20
-121.786
11
40.89
21
-121.786
0
LINE
8
BLACK
6
CONTINUOUS
10
40.89
20
-121.786
11
40.9852
21
-121.833
0
LINE
8
BLACK
6
CONTINUOUS
10
40.9852
20
-121.833
11
41.0329
21
-121.929
0
LINE
8
BLACK
6
CONTINUOUS
10
41.0329
20
-121.929
11
41.0329
21
-122.452
0
LINE
8
BLACK
6
CONTINUOUS
10
41.0329
20
-121.929
11
41.0805
21
-121.833
0
LINE
8
BLACK
6
CONTINUOUS
10
41.0805
20
-121.833
11
41.1757
21
-121.786
0
LINE
8
BLACK
6
CONTINUOUS
10
41.1757
20
-121.786
11
41.3186
21
-121.786
0
LINE
8
BLACK
6
CONTINUOUS
10
41.3186
20
-121.786
11
41.4138
21
-121.833
0
LINE
8
BLACK
6
CONTINUOUS
10
41.4138
20
-121.833
11
41.4614
21
-121.929
0
LINE
8
BLACK
6
CONTINUOUS
10
41.4614
20
-121.929
11
41.4614
21
-122.452
0
LINE
8
BLACK
6
CONTINUOUS
10
-32.19
20
-120.8
11
105.97
21
-120.8
0
LINE
8
BLACK
6
CONTINUOUS
10
-32.19
20
-113.725
11
-32.19
21
-121.386
0
LINE
8
BLACK
6
CONTINUOUS
10
105.97
20
-113.725
11
105.97
21
-121.386
0
LINE
8
BLACK
6
CONTINUOUS
10
105.97
20
-120.8
11
104.843
21
-121.386
0
LINE
8
BLACK
6
CONTINUOUS
10
105.97
20
-120.8
11
104.843
21
-120.214
0
LINE
8
BLACK
6
CONTINUOUS
10
-32.19
20
-120.8
11
-31.0635
21
-121.386
0
LINE
8
BLACK
6
CONTINUOUS
10
-32.19
20
-120.8
11
-31.0635
21
-120.214
0
LINE
8
BLACK
6
CONTINUOUS
10
-36.7176
20
-65.5251
11
-36.7176
21
-66.0965
0
LINE
8
BLACK
6
CONTINUOUS
10
-36.7176
20
-65.8108
11
-37.7176
21
-65.8108
0
LINE
8
BLACK
6
CONTINUOUS
10
-37.7176
20
-65.8108
11
-37.5748
21
-65.9061
0
LINE
8
BLACK
6
CONTINUOUS
10
-37.5748
20
-65.9061
11
-37.4795
21
-66.0013
0
LINE
8
BLACK
6
CONTINUOUS
10
-37.4795
20
-66.0013
11
-37.4319
21
-66.0965
0
LINE
8
BLACK
6
CONTINUOUS
10
-37.7176
20
-64.9061
11
-37.7176
21
-64.8108
0
LINE
8
BLACK
6
CONTINUOUS
10
-37.7176
20
-64.8108
11
-37.67
21
-64.7156
0
LINE
8
BLACK
6
CONTINUOUS
10
-37.67
20
-64.7156
11
-37.6224
21
-64.668
0
LINE
8
BLACK
6
CONTINUOUS
10
-37.6224
20
-64.668
11
-37.5271
21
-64.6204
0
LINE
8
BLACK
6
CONTINUOUS
10
-37.5271
20
-64.6204
11
-37.3367
21
-64.5727
0
LINE
8
BLACK
6
CONTINUOUS
10
-37.3367
20
-64.5727
11
-37.0986
21
-64.5727
0
LINE
8
BLACK
6
CONTINUOUS
10
-37.0986
20
-64.5727
11
-36.9081
21
-64.6204
0
LINE
8
BLACK
6
CONTINUOUS
10
-36.9081
20
-64.6204
11
-36.8129
21
-64.668
0
LINE
8
BLACK
6
CONTINUOUS
10
-36.8129
20
-64.668
11
-36.7652
21
-64.7156
0
LINE
8
BLACK
6
CONTINUOUS
10
-36.7652
20
-64.7156
11
-36.7176
21
-64.8108
0
LINE
8
BLACK
6
CONTINUOUS
10
-36.7176
20
-64.8108
11
-36.7176
21
-64.9061
0
LINE
8
BLACK
6
CONTINUOUS
10
-36.7176
20
-64.9061
11
-36.7652
21
-65.0013
0
LINE
8
BLACK
6
CONTINUOUS
10
-36.7652
20
-65.0013
11
-36.8129
21
-65.0489
0
LINE
8
BLACK
6
CONTINUOUS
10
-36.8129
20
-65.0489
11
-36.9081
21
-65.0965
0
LINE
8
BLACK
6
CONTINUOUS
10
-36.9081
20
-65.0965
11
-37.0986
21
-65.1442
0
LINE
8
BLACK
6
CONTINUOUS
10
-37.0986
20
-65.1442
11
-37.3367
21
-65.1442
0
LINE
8
BLACK
6
CONTINUOUS
10
-37.3367
20
-65.1442
11
-37.5271
21
-65.0965
0
LINE
8
BLACK
6
CONTINUOUS
10
-37.5271
20
-65.0965
11
-37.6224
21
-65.0489
0
LINE
8
BLACK
6
CONTINUOUS
10
-37.6224
20
-65.0489
11
-37.67
21
-65.0013
0
LINE
8
BLACK
6
CONTINUOUS
10
-37.67
20
-65.0013
11
-37.7176
21
-64.9061
0
LINE
8
BLACK
6
CONTINUOUS
10
-37.7176
20
-64.2394
11
-37.7176
21
-63.6204
0
LINE
8
BLACK
6
CONTINUOUS
10
-37.7176
20
-63.6204
11
-37.3367
21
-63.9537
0
LINE
8
BLACK
6
CONTINUOUS
10
-37.3367
20
-63.9537
11
-37.3367
21
-63.8108
0
LINE
8
BLACK
6
CONTINUOUS
10
-37.3367
20
-63.8108
11
-37.289
21
-63.7156
0
LINE
8
BLACK
6
CONTINUOUS
10
-37.289
20
-63.7156
11
-37.2414
21
-63.668
0
LINE
8
BLACK
6
CONTINUOUS
10
-37.2414
20
-63.668
11
-37.1462
21
-63.6204
0
LINE
8
BLACK
6
CONTINUOUS
10
-37.1462
20
-63.6204
11
-36.9081
21
-63.6204
0
LINE
8
BLACK
6
CONTINUOUS
10
-36.9081
20
-63.6204
11
-36.8129
21
-63.668
0
LINE
8
BLACK
6
CONTINUOUS
10
-36.8129
20
-63.668
11
-36.7652
21
-63.7156
0
LINE
8
BLACK
6
CONTINUOUS
10
-36.7652
20
-63.7156
11
-36.7176
21
-63.8108
0
LINE
8
BLACK
6
CONTINUOUS
10
-36.7176
20
-63.8108
11
-36.7176
21
-64.0965
0
LINE
8
BLACK
6
CONTINUOUS
10
-36.7176
20
-64.0965
11
-36.7652
21
-64.1918
0
LINE
8
BLACK
6
CONTINUOUS
10
-36.7652
20
-64.1918
11
-36.8129
21
-64.2394
0
LINE
8
BLACK
6
CONTINUOUS
10
-36.8129
20
-63.1918
11
-36.7652
21
-63.1442
0
LINE
8
BLACK
6
CONTINUOUS
10
-36.7652
20
-63.1442
11
-36.7176
21
-63.1918
0
LINE
8
BLACK
6
CONTINUOUS
10
-36.7176
20
-63.1918
11
-36.7652
21
-63.2394
0
LINE
8
BLACK
6
CONTINUOUS
10
-36.7652
20
-63.2394
11
-36.8129
21
-63.1918
0
LINE
8
BLACK
6
CONTINUOUS
10
-36.8129
20
-63.1918
11
-36.7176
21
-63.1918
0
LINE
8
BLACK
6
CONTINUOUS
10
-37.289
20
-62.5727
11
-37.3367
21
-62.668
0
LINE
8
BLACK
6
CONTINUOUS
10
-37.3367
20
-62.668
11
-37.3843
21
-62.7156
0
LINE
8
BLACK
6
CONTINUOUS
10
-37.3843
20
-62.7156
11
-37.4795
21
-62.7632
0
LINE
8
BLACK
6
CONTINUOUS
10
-37.4795
20
-62.7632
11
-37.5271
21
-62.7632
0
LINE
8
BLACK
6
CONTINUOUS
10
-37.5271
20
-62.7632
11
-37.6224
21
-62.7156
0
LINE
8
BLACK
6
CONTINUOUS
10
-37.6224
20
-62.7156
11
-37.67
21
-62.668
0
LINE
8
BLACK
6
CONTINUOUS
10
-37.67
20
-62.668
11
-37.7176
21
-62.5727
0
LINE
8
BLACK
6
CONTINUOUS
10
-37.7176
20
-62.5727
11
-37.7176
21
-62.3823
0
LINE
8
BLACK
6
CONTINUOUS
10
-37.7176
20
-62.3823
11
-37.67
21
-62.287
0
LINE
8
BLACK
6
CONTINUOUS
10
-37.67
20
-62.287
11
-37.6224
21
-62.2394
0
LINE
8
BLACK
6
CONTINUOUS
10
-37.6224
20
-62.2394
11
-37.5271
21
-62.1918
0
LINE
8
BLACK
6
CONTINUOUS
10
-37.5271
20
-62.1918
11
-37.4795
21
-62.1918
0
LINE
8
BLACK
6
CONTINUOUS
10
-37.4795
20
-62.1918
11
-37.3843
21
-62.2394
0
LINE
8
BLACK
6
CONTINUOUS
10
-37.3843
20
-62.2394
11
-37.3367
21
-62.287
0
LINE
8
BLACK
6
CONTINUOUS
10
-37.3367
20
-62.287
11
-37.289
21
-62.3823
0
LINE
8
BLACK
6
CONTINUOUS
10
-37.289
20
-62.3823
11
-37.289
21
-62.5727
0
LINE
8
BLACK
6
CONTINUOUS
10
-37.289
20
-62.5727
11
-37.2414
21
-62.668
0
LINE
8
BLACK
6
CONTINUOUS
10
-37.2414
20
-62.668
11
-37.1938
21
-62.7156
0
LINE
8
BLACK
6
CONTINUOUS
10
-37.1938
20
-62.7156
11
-37.0986
21
-62.7632
0
LINE
8
BLACK
6
CONTINUOUS
10
-37.0986
20
-62.7632
11
-36.9081
21
-62.7632
0
LINE
8
BLACK
6
CONTINUOUS
10
-36.9081
20
-62.7632
11
-36.8129
21
-62.7156
0
LINE
8
BLACK
6
CONTINUOUS
10
-36.8129
20
-62.7156
11
-36.7652
21
-62.668
0
LINE
8
BLACK
6
CONTINUOUS
10
-36.7652
20
-62.668
11
-36.7176
21
-62.5727
0
LINE
8
BLACK
6
CONTINUOUS
10
-36.7176
20
-62.5727
11
-36.7176
21
-62.3823
0
LINE
8
BLACK
6
CONTINUOUS
10
-36.7176
20
-62.3823
11
-36.7652
21
-62.287
0
LINE
8
BLACK
6
CONTINUOUS
10
-36.7652
20
-62.287
11
-36.8129
21
-62.2394
0
LINE
8
BLACK
6
CONTINUOUS
10
-36.8129
20
-62.2394
11
-36.9081
21
-62.1918
0
LINE
8
BLACK
6
CONTINUOUS
10
-36.9081
20
-62.1918
11
-37.0986
21
-62.1918
0
LINE
8
BLACK
6
CONTINUOUS
10
-37.0986
20
-62.1918
11
-37.1938
21
-62.2394
0
LINE
8
BLACK
6
CONTINUOUS
10
-37.1938
20
-62.2394
11
-37.2414
21
-62.287
0
LINE
8
BLACK
6
CONTINUOUS
10
-37.2414
20
-62.287
11
-37.289
21
-62.3823
0
LINE
8
BLACK
6
CONTINUOUS
10
-37.7176
20
-61.5727
11
-37.7176
21
-61.4775
0
LINE
8
BLACK
6
CONTINUOUS
10
-37.7176
20
-61.4775
11
-37.67
21
-61.3823
0
LINE
8
BLACK
6
CONTINUOUS
10
-37.67
20
-61.3823
11
-37.6224
21
-61.3346
0
LINE
8
BLACK
6
CONTINUOUS
10
-37.6224
20
-61.3346
11
-37.5271
21
-61.287
0
LINE
8
BLACK
6
CONTINUOUS
10
-37.5271
20
-61.287
11
-37.3367
21
-61.2394
0
LINE
8
BLACK
6
CONTINUOUS
10
-37.3367
20
-61.2394
11
-37.0986
21
-61.2394
0
LINE
8
BLACK
6
CONTINUOUS
10
-37.0986
20
-61.2394
11
-36.9081
21
-61.287
0
LINE
8
BLACK
6
CONTINUOUS
10
-36.9081
20
-61.287
11
-36.8129
21
-61.3346
0
LINE
8
BLACK
6
CONTINUOUS
10
-36.8129
20
-61.3346
11
-36.7652
21
-61.3823
0
LINE
8
BLACK
6
CONTINUOUS
10
-36.7652
20
-61.3823
11
-36.7176
21
-61.4775
0
LINE
8
BLACK
6
CONTINUOUS
10
-36.7176
20
-61.4775
11
-36.7176
21
-61.5727
0
LINE
8
BLACK
6
CONTINUOUS
10
-36.7176
20
-61.5727
11
-36.7652
21
-61.668
0
LINE
8
BLACK
6
CONTINUOUS
10
-36.7652
20
-61.668
11
-36.8129
21
-61.7156
0
LINE
8
BLACK
6
CONTINUOUS
10
-36.8129
20
-61.7156
11
-36.9081
21
-61.7632
0
LINE
8
BLACK
6
CONTINUOUS
10
-36.9081
20
-61.7632
11
-37.0986
21
-61.8108
0
LINE
8
BLACK
6
CONTINUOUS
10
-37.0986
20
-61.8108
11
-37.3367
21
-61.8108
0
LINE
8
BLACK
6
CONTINUOUS
10
-37.3367
20
-61.8108
11
-37.5271
21
-61.7632
0
LINE
8
BLACK
6
CONTINUOUS
10
-37.5271
20
-61.7632
11
-37.6224
21
-61.7156
0
LINE
8
BLACK
6
CONTINUOUS
10
-37.6224
20
-61.7156
11
-37.67
21
-61.668
0
LINE
8
BLACK
6
CONTINUOUS
10
-37.67
20
-61.668
11
-37.7176
21
-61.5727
0
LINE
8
BLACK
6
CONTINUOUS
10
-37.7176
20
-60.3346
11
-37.7176
21
-60.8108
0
LINE
8
BLACK
6
CONTINUOUS
10
-37.7176
20
-60.8108
11
-37.2414
21
-60.8585
0
LINE
8
BLACK
6
CONTINUOUS
10
-37.2414
20
-60.8585
11
-37.289
21
-60.8108
0
LINE
8
BLACK
6
CONTINUOUS
10
-37.289
20
-60.8108
11
-37.3367
21
-60.7156
0
LINE
8
BLACK
6
CONTINUOUS
10
-37.3367
20
-60.7156
11
-37.3367
21
-60.4775
0
LINE
8
BLACK
6
CONTINUOUS
10
-37.3367
20
-60.4775
11
-37.289
21
-60.3823
0
LINE
8
BLACK
6
CONTINUOUS
10
-37.289
20
-60.3823
11
-37.2414
21
-60.3346
0
LINE
8
BLACK
6
CONTINUOUS
10
-37.2414
20
-60.3346
11
-37.1462
21
-60.287
0
LINE
8
BLACK
6
CONTINUOUS
10
-37.1462
20
-60.287
11
-36.9081
21
-60.287
0
LINE
8
BLACK
6
CONTINUOUS
10
-36.9081
20
-60.287
11
-36.8129
21
-60.3346
0
LINE
8
BLACK
6
CONTINUOUS
10
-36.8129
20
-60.3346
11
-36.7652
21
-60.3823
0
LINE
8
BLACK
6
CONTINUOUS
10
-36.7652
20
-60.3823
11
-36.7176
21
-60.4775
0
LINE
8
BLACK
6
CONTINUOUS
10
-36.7176
20
-60.4775
11
-36.7176
21
-60.7156
0
LINE
8
BLACK
6
CONTINUOUS
10
-36.7176
20
-60.7156
11
-36.7652
21
-60.8108
0
LINE
8
BLACK
6
CONTINUOUS
10
-36.7652
20
-60.8108
11
-36.8129
21
-60.8585
0
LINE
8
BLACK
6
CONTINUOUS
10
-36.7176
20
-59.0965
11
-37.3843
21
-59.0965
0
LINE
8
BLACK
6
CONTINUOUS
10
-37.289
20
-59.0965
11
-37.3367
21
-59.0489
0
LINE
8
BLACK
6
CONTINUOUS
10
-37.3367
20
-59.0489
11
-37.3843
21
-58.9537
0
LINE
8
BLACK
6
CONTINUOUS
10
-37.3843
20
-58.9537
11
-37.3843
21
-58.8108
0
LINE
8
BLACK
6
CONTINUOUS
10
-37.3843
20
-58.8108
11
-37.3367
21
-58.7156
0
LINE
8
BLACK
6
CONTINUOUS
10
-37.3367
20
-58.7156
11
-37.2414
21
-58.668
0
LINE
8
BLACK
6
CONTINUOUS
10
-37.2414
20
-58.668
11
-36.7176
21
-58.668
0
LINE
8
BLACK
6
CONTINUOUS
10
-37.2414
20
-58.668
11
-37.3367
21
-58.6204
0
LINE
8
BLACK
6
CONTINUOUS
10
-37.3367
20
-58.6204
11
-37.3843
21
-58.5251
0
LINE
8
BLACK
6
CONTINUOUS
10
-37.3843
20
-58.5251
11
-37.3843
21
-58.3823
0
LINE
8
BLACK
6
CONTINUOUS
10
-37.3843
20
-58.3823
11
-37.3367
21
-58.287
0
LINE
8
BLACK
6
CONTINUOUS
10
-37.3367
20
-58.287
11
-37.2414
21
-58.2394
0
LINE
8
BLACK
6
CONTINUOUS
10
-37.2414
20
-58.2394
11
-36.7176
21
-58.2394
0
LINE
8
BLACK
6
CONTINUOUS
10
-36.7176
20
-57.7632
11
-37.3843
21
-57.7632
0
LINE
8
BLACK
6
CONTINUOUS
10
-37.289
20
-57.7632
11
-37.3367
21
-57.7156
0
LINE
8
BLACK
6
CONTINUOUS
10
-37.3367
20
-57.7156
11
-37.3843
21
-57.6204
0
LINE
8
BLACK
6
CONTINUOUS
10
-37.3843
20
-57.6204
11
-37.3843
21
-57.4775
0
LINE
8
BLACK
6
CONTINUOUS
10
-37.3843
20
-57.4775
11
-37.3367
21
-57.3823
0
LINE
8
BLACK
6
CONTINUOUS
10
-37.3367
20
-57.3823
11
-37.2414
21
-57.3346
0
LINE
8
BLACK
6
CONTINUOUS
10
-37.2414
20
-57.3346
11
-36.7176
21
-57.3346
0
LINE
8
BLACK
6
CONTINUOUS
10
-37.2414
20
-57.3346
11
-37.3367
21
-57.287
0
LINE
8
BLACK
6
CONTINUOUS
10
-37.3367
20
-57.287
11
-37.3843
21
-57.1918
0
LINE
8
BLACK
6
CONTINUOUS
10
-37.3843
20
-57.1918
11
-37.3843
21
-57.0489
0
LINE
8
BLACK
6
CONTINUOUS
10
-37.3843
20
-57.0489
11
-37.3367
21
-56.9537
0
LINE
8
BLACK
6
CONTINUOUS
10
-37.3367
20
-56.9537
11
-37.2414
21
-56.9061
0
LINE
8
BLACK
6
CONTINUOUS
10
-37.2414
20
-56.9061
11
-36.7176
21
-56.9061
0
LINE
8
BLACK
6
CONTINUOUS
10
-35.97
20
-113.38
11
-35.97
21
-9.575
0
LINE
8
BLACK
6
CONTINUOUS
10
-34.695
20
-113.38
11
-36.5564
21
-113.38
0
LINE
8
BLACK
6
CONTINUOUS
10
-34.695
20
-9.575
11
-36.5564
21
-9.575
0
LINE
8
BLACK
6
CONTINUOUS
10
-35.97
20
-9.575
11
-35.3836
21
-10.7015
0
LINE
8
BLACK
6
CONTINUOUS
10
-35.97
20
-9.575
11
-36.5564
21
-10.7015
0
LINE
8
BLACK
6
CONTINUOUS
10
-35.97
20
-113.38
11
-35.3836
21
-112.253
0
LINE
8
BLACK
6
CONTINUOUS
10
-35.97
20
-113.38
11
-36.5564
21
-112.253
0
LINE
8
BLACK
6
CONTINUOUS
10
87.0188
20
-88.3
11
87.0188
21
-102.3
0
LINE
8
BLACK
6
CONTINUOUS
10
87.0188
20
-102.3
11
101.019
21
-102.3
0
LINE
8
BLACK
6
CONTINUOUS
10
101.019
20
-102.3
11
101.019
21
-88.3
0
LINE
8
BLACK
6
CONTINUOUS
10
101.019
20
-88.3
11
87.0188
21
-88.3
0
LINE
8
BLACK
6
CONTINUOUS
10
63.2062
20
-102.301
11
77.2062
21
-102.301
0
LINE
8
BLACK
6
CONTINUOUS
10
77.2062
20
-102.301
11
77.2062
21
-88.3015
0
LINE
8
BLACK
6
CONTINUOUS
10
77.2062
20
-88.3015
11
63.2062
21
-88.3015
0
LINE
8
BLACK
6
CONTINUOUS
10
63.2062
20
-88.3015
11
63.2062
21
-102.301
0
LINE
8
BLACK
6
CONTINUOUS
10
22.725
20
-88.3
11
22.725
21
-102.3
0
LINE
8
BLACK
6
CONTINUOUS
10
22.725
20
-102.3
11
36.725
21
-102.3
0
LINE
8
BLACK
6
CONTINUOUS
10
36.725
20
-88.3
11
22.725
21
-88.3
0
LINE
8
BLACK
6
CONTINUOUS
10
36.725
20
-102.3
11
36.725
21
-88.3
0
LINE
8
BLACK
6
CONTINUOUS
10
-1.0875
20
-88.3
11
-1.0875
21
-102.3
0
LINE
8
BLACK
6
CONTINUOUS
10
-1.0875
20
-102.3
11
12.9125
21
-102.3
0
LINE
8
BLACK
6
CONTINUOUS
10
12.9125
20
-88.3
11
-1.0875
21
-88.3
0
LINE
8
BLACK
6
CONTINUOUS
10
12.9125
20
-102.3
11
12.9125
21
-88.3
0
LINE
8
BLACK
6
CONTINUOUS
10
-10.9
20
-88.3
11
-24.9
21
-88.3
0
LINE
8
BLACK
6
CONTINUOUS
10
-24.9
20
-102.3
11
-10.9
21
-102.3
0
LINE
8
BLACK
6
CONTINUOUS
10
-10.9
20
-102.3
11
-10.9
21
-88.3
0
LINE
8
BLACK
6
CONTINUOUS
10
-24.9
20
-88.3
11
-24.9
21
-102.3
0
LINE
8
BLACK
6
CONTINUOUS
10
103.4
20
-69.25
11
89.4
21
-69.25
0
LINE
8
BLACK
6
CONTINUOUS
10
89.4
20
-83.25
11
103.4
21
-83.25
0
LINE
8
BLACK
6
CONTINUOUS
10
103.4
20
-83.25
11
103.4
21
-69.25
0
LINE
8
BLACK
6
CONTINUOUS
10
89.4
20
-69.25
11
89.4
21
-83.25
0
LINE
8
BLACK
6
CONTINUOUS
10
84.35
20
-83.25
11
84.35
21
-69.25
0
LINE
8
BLACK
6
CONTINUOUS
10
70.35
20
-69.25
11
70.35
21
-83.25
0
LINE
8
BLACK
6
CONTINUOUS
10
70.35
20
-83.25
11
84.35
21
-83.25
0
LINE
8
BLACK
6
CONTINUOUS
10
84.35
20
-69.25
11
70.35
21
-69.25
0
LINE
8
BLACK
6
CONTINUOUS
10
65.3
20
-83.25
11
65.3
21
-69.25
0
LINE
8
BLACK
6
CONTINUOUS
10
51.3
20
-69.25
11
51.3
21
-83.25
0
LINE
8
BLACK
6
CONTINUOUS
10
65.3
20
-69.25
11
51.3
21
-69.25
0
LINE
8
BLACK
6
CONTINUOUS
10
51.3
20
-83.25
11
65.3
21
-83.25
0
LINE
8
BLACK
6
CONTINUOUS
10
46.25
20
-83.25
11
46.25
21
-69.25
0
LINE
8
BLACK
6
CONTINUOUS
10
46.25
20
-69.25
11
32.25
21
-69.25
0
LINE
8
BLACK
6
CONTINUOUS
10
32.25
20
-83.25
11
46.25
21
-83.25
0
LINE
8
BLACK
6
CONTINUOUS
10
32.25
20
-69.25
11
32.25
21
-83.25
0
LINE
8
BLACK
6
CONTINUOUS
10
27.2
20
-83.25
11
27.2
21
-69.25
0
LINE
8
BLACK
6
CONTINUOUS
10
13.2
20
-69.25
11
13.2
21
-83.25
0
LINE
8
BLACK
6
CONTINUOUS
10
13.2
20
-83.25
11
27.2
21
-83.25
0
LINE
8
BLACK
6
CONTINUOUS
10
27.2
20
-69.25
11
13.2
21
-69.25
0
LINE
8
BLACK
6
CONTINUOUS
10
93.875
20
-64.2
11
93.875
21
-50.2
0
LINE
8
BLACK
6
CONTINUOUS
10
79.875
20
-50.2
11
79.875
21
-64.2
0
LINE
8
BLACK
6
CONTINUOUS
10
79.875
20
-64.2
11
93.875
21
-64.2
0
LINE
8
BLACK
6
CONTINUOUS
10
93.875
20
-50.2
11
79.875
21
-50.2
0
LINE
8
BLACK
6
CONTINUOUS
10
74.825
20
-50.2
11
60.825
21
-50.2
0
LINE
8
BLACK
6
CONTINUOUS
10
74.825
20
-64.2
11
74.825
21
-50.2
0
LINE
8
BLACK
6
CONTINUOUS
10
60.825
20
-50.2
11
60.825
21
-64.2
0
LINE
8
BLACK
6
CONTINUOUS
10
60.825
20
-64.2
11
74.825
21
-64.2
0
LINE
8
BLACK
6
CONTINUOUS
10
55.775
20
-50.2
11
41.775
21
-50.2
0
LINE
8
BLACK
6
CONTINUOUS
10
41.775
20
-50.2
11
41.775
21
-64.2
0
LINE
8
BLACK
6
CONTINUOUS
10
41.775
20
-64.2
11
55.775
21
-64.2
0
LINE
8
BLACK
6
CONTINUOUS
10
55.775
20
-64.2
11
55.775
21
-50.2
0
LINE
8
BLACK
6
CONTINUOUS
10
36.725
20
-50.2
11
22.725
21
-50.2
0
LINE
8
BLACK
6
CONTINUOUS
10
22.725
20
-64.2
11
36.725
21
-64.2
0
LINE
8
BLACK
6
CONTINUOUS
10
36.725
20
-64.2
11
36.725
21
-50.2
0
LINE
8
BLACK
6
CONTINUOUS
10
22.725
20
-50.2
11
22.725
21
-64.2
0
LINE
8
BLACK
6
CONTINUOUS
10
17.675
20
-50.2
11
3.675
21
-50.2
0
LINE
8
BLACK
6
CONTINUOUS
10
3.675
20
-64.2
11
17.675
21
-64.2
0
LINE
8
BLACK
6
CONTINUOUS
10
17.675
20
-64.2
11
17.675
21
-50.2
0
LINE
8
BLACK
6
CONTINUOUS
10
3.675
20
-50.2
11
3.675
21
-64.2
0
LINE
8
BLACK
6
CONTINUOUS
10
-8.5187
20
-50.2
11
-22.5187
21
-50.2
0
LINE
8
BLACK
6
CONTINUOUS
10
-22.5187
20
-64.2
11
-8.5187
21
-64.2
0
LINE
8
BLACK
6
CONTINUOUS
10
-8.5187
20
-64.2
11
-8.5187
21
-50.2
0
LINE
8
BLACK
6
CONTINUOUS
10
-22.5187
20
-50.2
11
-22.5187
21
-64.2
0
LINE
8
BLACK
6
CONTINUOUS
10
89.1125
20
-31.15
11
75.1125
21
-31.15
0
LINE
8
BLACK
6
CONTINUOUS
10
75.1125
20
-45.15
11
89.1125
21
-45.15
0
LINE
8
BLACK
6
CONTINUOUS
10
89.1125
20
-45.15
11
89.1125
21
-31.15
0
LINE
8
BLACK
6
CONTINUOUS
10
75.1125
20
-31.15
11
75.1125
21
-45.15
0
LINE
8
BLACK
6
CONTINUOUS
10
56.0625
20
-45.15
11
70.0625
21
-45.15
0
LINE
8
BLACK
6
CONTINUOUS
10
70.0625
20
-45.15
11
70.0625
21
-31.15
0
LINE
8
BLACK
6
CONTINUOUS
10
56.0625
20
-31.15
11
56.0625
21
-45.15
0
LINE
8
BLACK
6
CONTINUOUS
10
70.0625
20
-31.15
11
56.0625
21
-31.15
0
LINE
8
BLACK
6
CONTINUOUS
10
37.0125
20
-31.15
11
37.0125
21
-45.15
0
LINE
8
BLACK
6
CONTINUOUS
10
37.0125
20
-45.15
11
51.0125
21
-45.15
0
LINE
8
BLACK
6
CONTINUOUS
10
51.0125
20
-45.15
11
51.0125
21
-31.15
0
LINE
8
BLACK
6
CONTINUOUS
10
51.0125
20
-31.15
11
37.0125
21
-31.15
0
LINE
8
BLACK
6
CONTINUOUS
10
17.9625
20
-31.15
11
17.9625
21
-45.15
0
LINE
8
BLACK
6
CONTINUOUS
10
17.9625
20
-45.15
11
31.9625
21
-45.15
0
LINE
8
BLACK
6
CONTINUOUS
10
31.9625
20
-45.15
11
31.9625
21
-31.15
0
LINE
8
BLACK
6
CONTINUOUS
10
31.9625
20
-31.15
11
17.9625
21
-31.15
0
LINE
8
BLACK
6
CONTINUOUS
10
-1.0875
20
-45.15
11
12.9125
21
-45.15
0
LINE
8
BLACK
6
CONTINUOUS
10
-1.0875
20
-31.15
11
-1.0875
21
-45.15
0
LINE
8
BLACK
6
CONTINUOUS
10
12.9125
20
-31.15
11
-1.0875
21
-31.15
0
LINE
8
BLACK
6
CONTINUOUS
10
12.9125
20
-45.15
11
12.9125
21
-31.15
0
LINE
8
BLACK
6
CONTINUOUS
10
-10.9
20
-31.15
11
-24.9
21
-31.15
0
LINE
8
BLACK
6
CONTINUOUS
10
-10.9
20
-45.15
11
-10.9
21
-31.15
0
LINE
8
BLACK
6
CONTINUOUS
10
-24.9
20
-45.15
11
-10.9
21
-45.15
0
LINE
8
BLACK
6
CONTINUOUS
10
-24.9
20
-31.15
11
-24.9
21
-45.15
0
LINE
8
BLACK
6
CONTINUOUS
10
84.6375
20
-26.1
11
98.6375
21
-26.1
0
LINE
8
BLACK
6
CONTINUOUS
10
98.6375
20
-26.1
11
98.6375
21
-12.1
0
LINE
8
BLACK
6
CONTINUOUS
10
98.6375
20
-12.1
11
84.6375
21
-12.1
0
LINE
8
BLACK
6
CONTINUOUS
10
84.6375
20
-12.1
11
84.6375
21
-26.1
0
LINE
8
BLACK
6
CONTINUOUS
10
65.5875
20
-26.1
11
79.5875
21
-26.1
0
LINE
8
BLACK
6
CONTINUOUS
10
79.5875
20
-26.1
11
79.5875
21
-12.1
0
LINE
8
BLACK
6
CONTINUOUS
10
79.5875
20
-12.1
11
65.5875
21
-12.1
0
LINE
8
BLACK
6
CONTINUOUS
10
65.5875
20
-12.1
11
65.5875
21
-26.1
0
LINE
8
BLACK
6
CONTINUOUS
10
46.5375
20
-26.1
11
60.5375
21
-26.1
0
LINE
8
BLACK
6
CONTINUOUS
10
60.5375
20
-26.1
11
60.5375
21
-12.1
0
LINE
8
BLACK
6
CONTINUOUS
10
60.5375
20
-12.1
11
46.5375
21
-12.1
0
LINE
8
BLACK
6
CONTINUOUS
10
46.5375
20
-12.1
11
46.5375
21
-26.1
0
LINE
8
BLACK
6
CONTINUOUS
10
27.4875
20
-26.1
11
41.4875
21
-26.1
0
LINE
8
BLACK
6
CONTINUOUS
10
41.4875
20
-26.1
11
41.4875
21
-12.1
0
LINE
8
BLACK
6
CONTINUOUS
10
41.4875
20
-12.1
11
27.4875
21
-12.1
0
LINE
8
BLACK
6
CONTINUOUS
10
27.4875
20
-12.1
11
27.4875
21
-26.1
0
LINE
8
BLACK
6
CONTINUOUS
10
8.4375
20
-26.1
11
22.4375
21
-26.1
0
LINE
8
BLACK
6
CONTINUOUS
10
22.4375
20
-26.1
11
22.4375
21
-12.1
0
LINE
8
BLACK
6
CONTINUOUS
10
22.4375
20
-12.1
11
8.4375
21
-12.1
0
LINE
8
BLACK
6
CONTINUOUS
10
8.4375
20
-12.1
11
8.4375
21
-26.1
0
LINE
8
BLACK
6
CONTINUOUS
10
-10.6125
20
-26.1
11
3.3875
21
-26.1
0
LINE
8
BLACK
6
CONTINUOUS
10
3.3875
20
-26.1
11
3.3875
21
-12.1
0
LINE
8
BLACK
6
CONTINUOUS
10
3.3875
20
-12.1
11
-10.6125
21
-12.1
0
LINE
8
BLACK
6
CONTINUOUS
10
-10.6125
20
-12.1
11
-10.6125
21
-26.1
0
LINE
8
BLACK
6
CONTINUOUS
10
-15.6625
20
-26.1
11
-15.6625
21
-12.1
0
LINE
8
BLACK
6
CONTINUOUS
10
-15.6625
20
-12.1
11
-29.6625
21
-12.1
0
LINE
8
BLACK
6
CONTINUOUS
10
-29.6625
20
-12.1
11
-29.6625
21
-26.1
0
LINE
8
BLACK
6
CONTINUOUS
10
-29.6625
20
-26.1
11
-15.6625
21
-26.1
0
LINE
8
BLACK
6
CONTINUOUS
10
-17.756
20
-78.55
11
-17.756
21
-83.25
0
LINE
8
BLACK
6
CONTINUOUS
10
-19.281
20
-73.95
11
-17.756
21
-73.95
0
LINE
8
BLACK
6
CONTINUOUS
10
-26.0322
20
-78.55
11
-26.8573
21
-78.55
0
LINE
8
BLACK
6
CONTINUOUS
10
-21.0072
20
-69.48
11
-21.0072
21
-68.28
0
LINE
8
BLACK
6
CONTINUOUS
10
5.3455
20
-75.765
11
5.3455
21
-78.55
0
LINE
8
BLACK
6
CONTINUOUS
10
-19.281
20
-69.48
11
-19.281
21
-73.95
0
LINE
8
BLACK
6
CONTINUOUS
10
-19.281
20
-78.55
11
-17.756
21
-78.55
0
LINE
8
BLACK
6
CONTINUOUS
10
-0.5045
20
-69.48
11
-0.5045
21
-68.28
0
LINE
8
BLACK
6
CONTINUOUS
10
-26.0322
20
-81.78
11
-19.2822
21
-81.78
0
LINE
8
BLACK
6
CONTINUOUS
10
-26.0322
20
-75.765
11
-26.8573
21
-75.765
0
LINE
8
BLACK
6
CONTINUOUS
10
-21.0075
20
-69.48
11
-19.2825
21
-69.48
0
LINE
8
BLACK
6
CONTINUOUS
10
4.5205
20
-75.765
11
4.5205
21
-69.48
0
LINE
8
BLACK
6
CONTINUOUS
10
4.5205
20
-78.55
11
5.3455
21
-78.55
0
LINE
8
BLACK
6
CONTINUOUS
10
-26.0322
20
-81.78
11
-26.0322
21
-78.55
0
LINE
8
BLACK
6
CONTINUOUS
10
-2.23075
20
-78.55
11
-3.75575
21
-78.55
0
LINE
8
BLACK
6
CONTINUOUS
10
-24.3072
20
-68.28
11
-21.0072
21
-68.28
0
LINE
8
BLACK
6
CONTINUOUS
10
-17.756
20
-83.25
11
-3.756
21
-83.25
0
LINE
8
BLACK
6
CONTINUOUS
10
-3.756
20
-69.25
11
-17.756
21
-69.25
0
LINE
8
BLACK
6
CONTINUOUS
10
-24.3072
20
-69.48
11
-24.3072
21
-68.28
0
LINE
8
BLACK
6
CONTINUOUS
10
-17.756
20
-69.25
11
-17.756
21
-73.95
0
LINE
8
BLACK
6
CONTINUOUS
10
-19.281
20
-78.55
11
-19.281
21
-81.78
0
LINE
8
BLACK
6
CONTINUOUS
10
-26.8573
20
-75.765
11
-26.8573
21
-78.55
0
LINE
8
BLACK
6
CONTINUOUS
10
-26.0322
20
-69.48
11
-24.3072
21
-69.48
0
LINE
8
BLACK
6
CONTINUOUS
10
-26.0322
20
-75.765
11
-26.0322
21
-69.48
0
LINE
8
BLACK
6
CONTINUOUS
10
4.5205
20
-81.78
11
-2.2295
21
-81.78
0
LINE
8
BLACK
6
CONTINUOUS
10
4.5205
20
-75.765
11
5.3455
21
-75.765
0
LINE
8
BLACK
6
CONTINUOUS
10
4.5205
20
-81.78
11
4.5205
21
-78.55
0
LINE
8
BLACK
6
CONTINUOUS
10
2.7955
20
-68.28
11
-0.5045
21
-68.28
0
LINE
8
BLACK
6
CONTINUOUS
10
-0.5045
20
-69.48
11
-2.2295
21
-69.48
0
LINE
8
BLACK
6
CONTINUOUS
10
-3.75575
20
-69.25
11
-3.75575
21
-73.95
0
LINE
8
BLACK
6
CONTINUOUS
10
2.7955
20
-69.48
11
2.7955
21
-68.28
0
LINE
8
BLACK
6
CONTINUOUS
10
-2.23075
20
-78.55
11
-2.23075
21
-81.78
0
LINE
8
BLACK
6
CONTINUOUS
10
-2.23075
20
-73.95
11
-3.75575
21
-73.95
0
LINE
8
BLACK
6
CONTINUOUS
10
-2.23075
20
-69.48
11
-2.23075
21
-73.95
0
LINE
8
BLACK
6
CONTINUOUS
10
-3.75575
20
-78.55
11
-3.75575
21
-83.25
0
LINE
8
BLACK
6
CONTINUOUS
10
4.5205
20
-69.48
11
2.7955
21
-69.48
0
LINE
8
BLACK
6
CONTINUOUS
10
77.2575
20
-104.825
11
-5.6797
21
-104.825
0
LINE
8
BLACK
6
CONTINUOUS
10
77.2575
20
-104.825
11
101.162
21
-104.825
0
LINE
8
BLACK
6
CONTINUOUS
10
-31.635
20
-9.575
11
105.475
21
-9.575
0
LINE
8
BLACK
6
CONTINUOUS
10
105.97
20
-10.13
11
105.97
21
-104.33
0
LINE
8
BLACK
6
CONTINUOUS
10
105.415
20
-104.825
11
101.162
21
-104.825
0
LINE
8
BLACK
6
CONTINUOUS
10
-6.24
20
-112.885
11
-6.24
21
-105.32
0
LINE
8
BLACK
6
CONTINUOUS
10
-6.795
20
-113.38
11
-31.695
21
-113.38
0
LINE
8
BLACK
6
CONTINUOUS
10
-32.19
20
-112.825
11
-32.19
21
-85.22
0
ARC
8
BLACK
10
105.445
20
-104.3
40
0.525856
50
-93.2705
51
-3.27049
0
ARC
8
BLACK
10
-5.71
20
-105.355
40
0.531154
50
86.2218
51
176.222
0
ARC
8
BLACK
10
-6.765
20
-112.855
40
0.525856
50
-93.2705
51
-3.27049
0
ARC
8
BLACK
10
-31.665
20
-112.855
40
0.525856
50
-183.27
51
-93.2705
0
ARC
8
BLACK
10
105.445
20
-10.1
40
0.525856
50
-3.27049
51
86.7295
0
LINE
8
BLACK
6
CONTINUOUS
10
-32.19
20
-10.07
11
-32.19
21
-85.22
0
ARC
8
BLACK
10
-31.665
20
-10.1
40
0.525856
50
86.7295
51
176.73
0
LINE
8
BLACK
6
CONTINUOUS
10
87.0745
20
-84.2211
11
87.1857
21
-84.2432
0
LINE
8
BLACK
6
CONTINUOUS
10
87.1857
20
-84.2432
11
87.3952
21
-84.33
0
LINE
8
BLACK
6
CONTINUOUS
10
87.3952
20
-84.33
11
87.5837
21
-84.456
0
LINE
8
BLACK
6
CONTINUOUS
10
87.5837
20
-84.456
11
87.744
21
-84.6163
0
LINE
8
BLACK
6
CONTINUOUS
10
87.744
20
-84.6163
11
87.87
21
-84.8048
0
LINE
8
BLACK
6
CONTINUOUS
10
87.87
20
-84.8048
11
87.9568
21
-85.0143
0
LINE
8
BLACK
6
CONTINUOUS
10
87.9568
20
-85.0143
11
88.001
21
-85.2366
0
LINE
8
BLACK
6
CONTINUOUS
10
88.001
20
-85.2366
11
88.001
21
-85.4634
0
LINE
8
BLACK
6
CONTINUOUS
10
88.001
20
-85.4634
11
87.9568
21
-85.6857
0
LINE
8
BLACK
6
CONTINUOUS
10
87.9568
20
-85.6857
11
87.87
21
-85.8952
0
LINE
8
BLACK
6
CONTINUOUS
10
87.87
20
-85.8952
11
87.744
21
-86.0837
0
LINE
8
BLACK
6
CONTINUOUS
10
87.744
20
-86.0837
11
87.5837
21
-86.244
0
LINE
8
BLACK
6
CONTINUOUS
10
87.5837
20
-86.244
11
87.3952
21
-86.37
0
LINE
8
BLACK
6
CONTINUOUS
10
87.3952
20
-86.37
11
87.1857
21
-86.4568
0
LINE
8
BLACK
6
CONTINUOUS
10
87.1857
20
-86.4568
11
87.0745
21
-86.4789
0
LINE
8
BLACK
6
CONTINUOUS
10
87.0745
20
-86.4789
11
86.9634
21
-86.501
0
LINE
8
BLACK
6
CONTINUOUS
10
86.9634
20
-86.501
11
86.7366
21
-86.501
0
LINE
8
BLACK
6
CONTINUOUS
10
86.7366
20
-86.501
11
86.6255
21
-86.4789
0
LINE
8
BLACK
6
CONTINUOUS
10
86.6255
20
-86.4789
11
86.5143
21
-86.4568
0
LINE
8
BLACK
6
CONTINUOUS
10
86.5143
20
-86.4568
11
86.3048
21
-86.37
0
LINE
8
BLACK
6
CONTINUOUS
10
86.3048
20
-86.37
11
86.1163
21
-86.244
0
LINE
8
BLACK
6
CONTINUOUS
10
86.1163
20
-86.244
11
85.956
21
-86.0837
0
LINE
8
BLACK
6
CONTINUOUS
10
85.956
20
-86.0837
11
85.83
21
-85.8952
0
LINE
8
BLACK
6
CONTINUOUS
10
85.83
20
-85.8952
11
85.7432
21
-85.6857
0
LINE
8
BLACK
6
CONTINUOUS
10
85.7432
20
-85.6857
11
85.699
21
-85.4634
0
LINE
8
BLACK
6
CONTINUOUS
10
85.699
20
-85.4634
11
85.699
21
-85.2366
0
LINE
8
BLACK
6
CONTINUOUS
10
85.699
20
-85.2366
11
85.7432
21
-85.0143
0
LINE
8
BLACK
6
CONTINUOUS
10
85.7432
20
-85.0143
11
85.83
21
-84.8048
0
LINE
8
BLACK
6
CONTINUOUS
10
85.83
20
-84.8048
11
85.956
21
-84.6163
0
LINE
8
BLACK
6
CONTINUOUS
10
85.956
20
-84.6163
11
86.1163
21
-84.456
0
LINE
8
BLACK
6
CONTINUOUS
10
86.1163
20
-84.456
11
86.3048
21
-84.33
0
LINE
8
BLACK
6
CONTINUOUS
10
86.3048
20
-84.33
11
86.5143
21
-84.2432
0
LINE
8
BLACK
6
CONTINUOUS
10
86.5143
20
-84.2432
11
86.6255
21
-84.2211
0
LINE
8
BLACK
6
CONTINUOUS
10
86.6255
20
-84.2211
11
86.7366
21
-84.199
0
LINE
8
BLACK
6
CONTINUOUS
10
86.7366
20
-84.199
11
86.9634
21
-84.199
0
LINE
8
BLACK
6
CONTINUOUS
10
86.9634
20
-84.199
11
87.0745
21
-84.2211
0
LINE
8
BLACK
6
CONTINUOUS
10
-28.9955
20
-84.2211
11
-28.8843
21
-84.2432
0
LINE
8
BLACK
6
CONTINUOUS
10
-28.8843
20
-84.2432
11
-28.6748
21
-84.33
0
LINE
8
BLACK
6
CONTINUOUS
10
-28.6748
20
-84.33
11
-28.4863
21
-84.456
0
LINE
8
BLACK
6
CONTINUOUS
10
-28.4863
20
-84.456
11
-28.326
21
-84.6163
0
LINE
8
BLACK
6
CONTINUOUS
10
-28.326
20
-84.6163
11
-28.2
21
-84.8048
0
LINE
8
BLACK
6
CONTINUOUS
10
-28.2
20
-84.8048
11
-28.1132
21
-85.0143
0
LINE
8
BLACK
6
CONTINUOUS
10
-28.1132
20
-85.0143
11
-28.069
21
-85.2366
0
LINE
8
BLACK
6
CONTINUOUS
10
-28.069
20
-85.2366
11
-28.069
21
-85.4634
0
LINE
8
BLACK
6
CONTINUOUS
10
-28.069
20
-85.4634
11
-28.1132
21
-85.6857
0
LINE
8
BLACK
6
CONTINUOUS
10
-28.1132
20
-85.6857
11
-28.2
21
-85.8952
0
LINE
8
BLACK
6
CONTINUOUS
10
-28.2
20
-85.8952
11
-28.326
21
-86.0837
0
LINE
8
BLACK
6
CONTINUOUS
10
-28.326
20
-86.0837
11
-28.4863
21
-86.244
0
LINE
8
BLACK
6
CONTINUOUS
10
-28.4863
20
-86.244
11
-28.6748
21
-86.37
0
LINE
8
BLACK
6
CONTINUOUS
10
-28.6748
20
-86.37
11
-28.8843
21
-86.4568
0
LINE
8
BLACK
6
CONTINUOUS
10
-28.8843
20
-86.4568
11
-28.9955
21
-86.4789
0
LINE
8
BLACK
6
CONTINUOUS
10
-28.9955
20
-86.4789
11
-29.1066
21
-86.501
0
LINE
8
BLACK
6
CONTINUOUS
10
-29.1066
20
-86.501
11
-29.3334
21
-86.501
0
LINE
8
BLACK
6
CONTINUOUS
10
-29.3334
20
-86.501
11
-29.4445
21
-86.4789
0
LINE
8
BLACK
6
CONTINUOUS
10
-29.4445
20
-86.4789
11
-29.5557
21
-86.4568
0
LINE
8
BLACK
6
CONTINUOUS
10
-29.5557
20
-86.4568
11
-29.7652
21
-86.37
0
LINE
8
BLACK
6
CONTINUOUS
10
-29.7652
20
-86.37
11
-29.9537
21
-86.244
0
LINE
8
BLACK
6
CONTINUOUS
10
-29.9537
20
-86.244
11
-30.114
21
-86.0837
0
LINE
8
BLACK
6
CONTINUOUS
10
-30.114
20
-86.0837
11
-30.24
21
-85.8952
0
LINE
8
BLACK
6
CONTINUOUS
10
-30.24
20
-85.8952
11
-30.3268
21
-85.6857
0
LINE
8
BLACK
6
CONTINUOUS
10
-30.3268
20
-85.6857
11
-30.371
21
-85.4634
0
LINE
8
BLACK
6
CONTINUOUS
10
-30.371
20
-85.4634
11
-30.371
21
-85.2366
0
LINE
8
BLACK
6
CONTINUOUS
10
-30.371
20
-85.2366
11
-30.3268
21
-85.0143
0
LINE
8
BLACK
6
CONTINUOUS
10
-30.3268
20
-85.0143
11
-30.24
21
-84.8048
0
LINE
8
BLACK
6
CONTINUOUS
10
-30.24
20
-84.8048
11
-30.114
21
-84.6163
0
LINE
8
BLACK
6
CONTINUOUS
10
-30.114
20
-84.6163
11
-29.9537
21
-84.456
0
LINE
8
BLACK
6
CONTINUOUS
10
-29.9537
20
-84.456
11
-29.7652
21
-84.33
0
LINE
8
BLACK
6
CONTINUOUS
10
-29.7652
20
-84.33
11
-29.5557
21
-84.2432
0
LINE
8
BLACK
6
CONTINUOUS
10
-29.5557
20
-84.2432
11
-29.4445
21
-84.2211
0
LINE
8
BLACK
6
CONTINUOUS
10
-29.4445
20
-84.2211
11
-29.3334
21
-84.199
0
LINE
8
BLACK
6
CONTINUOUS
10
-29.3334
20
-84.199
11
-29.1066
21
-84.199
0
LINE
8
BLACK
6
CONTINUOUS
10
-29.1066
20
-84.199
11
-28.9955
21
-84.2211
0
LINE
8
BLACK
6
CONTINUOUS
10
34.687
20
-46.1211
11
34.7982
21
-46.1432
0
LINE
8
BLACK
6
CONTINUOUS
10
34.7982
20
-46.1432
11
35.0077
21
-46.23
0
LINE
8
BLACK
6
CONTINUOUS
10
35.0077
20
-46.23
11
35.1962
21
-46.356
0
LINE
8
BLACK
6
CONTINUOUS
10
35.1962
20
-46.356
11
35.3565
21
-46.5163
0
LINE
8
BLACK
6
CONTINUOUS
10
35.3565
20
-46.5163
11
35.4825
21
-46.7048
0
LINE
8
BLACK
6
CONTINUOUS
10
35.4825
20
-46.7048
11
35.5693
21
-46.9143
0
LINE
8
BLACK
6
CONTINUOUS
10
35.5693
20
-46.9143
11
35.6135
21
-47.1366
0
LINE
8
BLACK
6
CONTINUOUS
10
35.6135
20
-47.1366
11
35.6135
21
-47.3634
0
LINE
8
BLACK
6
CONTINUOUS
10
35.6135
20
-47.3634
11
35.5693
21
-47.5857
0
LINE
8
BLACK
6
CONTINUOUS
10
35.5693
20
-47.5857
11
35.4825
21
-47.7952
0
LINE
8
BLACK
6
CONTINUOUS
10
35.4825
20
-47.7952
11
35.3565
21
-47.9837
0
LINE
8
BLACK
6
CONTINUOUS
10
35.3565
20
-47.9837
11
35.1962
21
-48.144
0
LINE
8
BLACK
6
CONTINUOUS
10
35.1962
20
-48.144
11
35.0077
21
-48.27
0
LINE
8
BLACK
6
CONTINUOUS
10
35.0077
20
-48.27
11
34.7982
21
-48.3568
0
LINE
8
BLACK
6
CONTINUOUS
10
34.7982
20
-48.3568
11
34.687
21
-48.3789
0
LINE
8
BLACK
6
CONTINUOUS
10
34.687
20
-48.3789
11
34.5759
21
-48.401
0
LINE
8
BLACK
6
CONTINUOUS
10
34.5759
20
-48.401
11
34.3491
21
-48.401
0
LINE
8
BLACK
6
CONTINUOUS
10
34.3491
20
-48.401
11
34.238
21
-48.3789
0
LINE
8
BLACK
6
CONTINUOUS
10
34.238
20
-48.3789
11
34.1268
21
-48.3568
0
LINE
8
BLACK
6
CONTINUOUS
10
34.1268
20
-48.3568
11
33.9173
21
-48.27
0
LINE
8
BLACK
6
CONTINUOUS
10
33.9173
20
-48.27
11
33.7288
21
-48.144
0
LINE
8
BLACK
6
CONTINUOUS
10
33.7288
20
-48.144
11
33.5685
21
-47.9837
0
LINE
8
BLACK
6
CONTINUOUS
10
33.5685
20
-47.9837
11
33.4425
21
-47.7952
0
LINE
8
BLACK
6
CONTINUOUS
10
33.4425
20
-47.7952
11
33.3557
21
-47.5857
0
LINE
8
BLACK
6
CONTINUOUS
10
33.3557
20
-47.5857
11
33.3115
21
-47.3634
0
LINE
8
BLACK
6
CONTINUOUS
10
33.3115
20
-47.3634
11
33.3115
21
-47.1366
0
LINE
8
BLACK
6
CONTINUOUS
10
33.3115
20
-47.1366
11
33.3557
21
-46.9143
0
LINE
8
BLACK
6
CONTINUOUS
10
33.3557
20
-46.9143
11
33.4425
21
-46.7048
0
LINE
8
BLACK
6
CONTINUOUS
10
33.4425
20
-46.7048
11
33.5685
21
-46.5163
0
LINE
8
BLACK
6
CONTINUOUS
10
33.5685
20
-46.5163
11
33.7288
21
-46.356
0
LINE
8
BLACK
6
CONTINUOUS
10
33.7288
20
-46.356
11
33.9173
21
-46.23
0
LINE
8
BLACK
6
CONTINUOUS
10
33.9173
20
-46.23
11
34.1268
21
-46.1432
0
LINE
8
BLACK
6
CONTINUOUS
10
34.1268
20
-46.1432
11
34.238
21
-46.1211
0
LINE
8
BLACK
6
CONTINUOUS
10
34.238
20
-46.1211
11
34.3491
21
-46.099
0
LINE
8
BLACK
6
CONTINUOUS
10
34.3491
20
-46.099
11
34.5759
21
-46.099
0
LINE
8
BLACK
6
CONTINUOUS
10
34.5759
20
-46.099
11
34.687
21
-46.1211
0
LINE
8
BLACK
6
CONTINUOUS
10
82.312
20
-27.4711
11
82.4232
21
-27.4932
0
LINE
8
BLACK
6
CONTINUOUS
10
82.4232
20
-27.4932
11
82.6327
21
-27.58
0
LINE
8
BLACK
6
CONTINUOUS
10
82.6327
20
-27.58
11
82.8212
21
-27.706
0
LINE
8
BLACK
6
CONTINUOUS
10
82.8212
20
-27.706
11
82.9815
21
-27.8663
0
LINE
8
BLACK
6
CONTINUOUS
10
82.9815
20
-27.8663
11
83.1075
21
-28.0548
0
LINE
8
BLACK
6
CONTINUOUS
10
83.1075
20
-28.0548
11
83.1943
21
-28.2643
0
LINE
8
BLACK
6
CONTINUOUS
10
83.1943
20
-28.2643
11
83.2164
21
-28.3755
0
LINE
8
BLACK
6
CONTINUOUS
10
83.2164
20
-28.3755
11
83.2385
21
-28.4866
0
LINE
8
BLACK
6
CONTINUOUS
10
83.2385
20
-28.4866
11
83.2385
21
-28.7134
0
LINE
8
BLACK
6
CONTINUOUS
10
83.2385
20
-28.7134
11
83.2164
21
-28.8245
0
LINE
8
BLACK
6
CONTINUOUS
10
83.2164
20
-28.8245
11
83.1943
21
-28.9357
0
LINE
8
BLACK
6
CONTINUOUS
10
83.1943
20
-28.9357
11
83.1329
21
-29.0838
0
LINE
8
BLACK
6
CONTINUOUS
10
83.1329
20
-29.0838
11
83.1123
21
-29.1337
0
LINE
8
BLACK
6
CONTINUOUS
10
83.1123
20
-29.1337
11
83.1075
21
-29.1452
0
LINE
8
BLACK
6
CONTINUOUS
10
83.1075
20
-29.1452
11
82.9815
21
-29.3337
0
LINE
8
BLACK
6
CONTINUOUS
10
82.9815
20
-29.3337
11
82.8212
21
-29.494
0
LINE
8
BLACK
6
CONTINUOUS
10
82.8212
20
-29.494
11
82.6327
21
-29.62
0
LINE
8
BLACK
6
CONTINUOUS
10
82.6327
20
-29.62
11
82.4232
21
-29.7068
0
LINE
8
BLACK
6
CONTINUOUS
10
82.4232
20
-29.7068
11
82.312
21
-29.7289
0
LINE
8
BLACK
6
CONTINUOUS
10
82.312
20
-29.7289
11
82.2009
21
-29.751
0
LINE
8
BLACK
6
CONTINUOUS
10
82.2009
20
-29.751
11
81.9741
21
-29.751
0
LINE
8
BLACK
6
CONTINUOUS
10
81.9741
20
-29.751
11
81.863
21
-29.7289
0
LINE
8
BLACK
6
CONTINUOUS
10
81.863
20
-29.7289
11
81.7518
21
-29.7068
0
LINE
8
BLACK
6
CONTINUOUS
10
81.7518
20
-29.7068
11
81.5423
21
-29.62
0
LINE
8
BLACK
6
CONTINUOUS
10
81.5423
20
-29.62
11
81.3538
21
-29.494
0
LINE
8
BLACK
6
CONTINUOUS
10
81.3538
20
-29.494
11
81.1935
21
-29.3337
0
LINE
8
BLACK
6
CONTINUOUS
10
81.1935
20
-29.3337
11
81.0675
21
-29.1452
0
LINE
8
BLACK
6
CONTINUOUS
10
81.0675
20
-29.1452
11
81.0627
21
-29.1337
0
LINE
8
BLACK
6
CONTINUOUS
10
81.0627
20
-29.1337
11
81.0421
21
-29.0838
0
LINE
8
BLACK
6
CONTINUOUS
10
81.0421
20
-29.0838
11
80.9807
21
-28.9357
0
LINE
8
BLACK
6
CONTINUOUS
10
80.9807
20
-28.9357
11
80.9586
21
-28.8245
0
LINE
8
BLACK
6
CONTINUOUS
10
80.9586
20
-28.8245
11
80.9365
21
-28.7134
0
LINE
8
BLACK
6
CONTINUOUS
10
80.9365
20
-28.7134
11
80.9365
21
-28.4866
0
LINE
8
BLACK
6
CONTINUOUS
10
80.9365
20
-28.4866
11
80.9586
21
-28.3755
0
LINE
8
BLACK
6
CONTINUOUS
10
80.9586
20
-28.3755
11
80.9807
21
-28.2643
0
LINE
8
BLACK
6
CONTINUOUS
10
80.9807
20
-28.2643
11
81.0675
21
-28.0548
0
LINE
8
BLACK
6
CONTINUOUS
10
81.0675
20
-28.0548
11
81.1935
21
-27.8663
0
LINE
8
BLACK
6
CONTINUOUS
10
81.1935
20
-27.8663
11
81.3538
21
-27.706
0
LINE
8
BLACK
6
CONTINUOUS
10
81.3538
20
-27.706
11
81.5423
21
-27.58
0
LINE
8
BLACK
6
CONTINUOUS
10
81.5423
20
-27.58
11
81.7518
21
-27.4932
0
LINE
8
BLACK
6
CONTINUOUS
10
81.7518
20
-27.4932
11
81.863
21
-27.4711
0
LINE
8
BLACK
6
CONTINUOUS
10
81.863
20
-27.4711
11
81.9741
21
-27.449
0
LINE
8
BLACK
6
CONTINUOUS
10
81.9741
20
-27.449
11
82.2009
21
-27.449
0
LINE
8
BLACK
6
CONTINUOUS
10
82.2009
20
-27.449
11
82.312
21
-27.4711
0
LINE
8
BLACK
6
CONTINUOUS
10
-12.913
20
-27.2711
11
-12.8018
21
-27.2932
0
LINE
8
BLACK
6
CONTINUOUS
10
-12.8018
20
-27.2932
11
-12.5923
21
-27.38
0
LINE
8
BLACK
6
CONTINUOUS
10
-12.5923
20
-27.38
11
-12.4038
21
-27.506
0
LINE
8
BLACK
6
CONTINUOUS
10
-12.4038
20
-27.506
11
-12.2435
21
-27.6663
0
LINE
8
BLACK
6
CONTINUOUS
10
-12.2435
20
-27.6663
11
-12.2169
21
-27.706
0
LINE
8
BLACK
6
CONTINUOUS
10
-12.2169
20
-27.706
11
-12.1175
21
-27.8548
0
LINE
8
BLACK
6
CONTINUOUS
10
-12.1175
20
-27.8548
11
-12.1127
21
-27.8663
0
LINE
8
BLACK
6
CONTINUOUS
10
-12.1127
20
-27.8663
11
-12.0347
21
-28.0548
0
LINE
8
BLACK
6
CONTINUOUS
10
-12.0347
20
-28.0548
11
-12.0307
21
-28.0643
0
LINE
8
BLACK
6
CONTINUOUS
10
-12.0307
20
-28.0643
11
-11.9909
21
-28.2643
0
LINE
8
BLACK
6
CONTINUOUS
10
-11.9909
20
-28.2643
11
-11.9865
21
-28.2866
0
LINE
8
BLACK
6
CONTINUOUS
10
-11.9865
20
-28.2866
11
-11.9865
21
-28.5134
0
LINE
8
BLACK
6
CONTINUOUS
10
-11.9865
20
-28.5134
11
-12.0307
21
-28.7357
0
LINE
8
BLACK
6
CONTINUOUS
10
-12.0307
20
-28.7357
11
-12.1175
21
-28.9452
0
LINE
8
BLACK
6
CONTINUOUS
10
-12.1175
20
-28.9452
11
-12.2435
21
-29.1337
0
LINE
8
BLACK
6
CONTINUOUS
10
-12.2435
20
-29.1337
11
-12.4038
21
-29.294
0
LINE
8
BLACK
6
CONTINUOUS
10
-12.4038
20
-29.294
11
-12.5923
21
-29.42
0
LINE
8
BLACK
6
CONTINUOUS
10
-12.5923
20
-29.42
11
-12.8018
21
-29.5068
0
LINE
8
BLACK
6
CONTINUOUS
10
-12.8018
20
-29.5068
11
-12.913
21
-29.5289
0
LINE
8
BLACK
6
CONTINUOUS
10
-12.913
20
-29.5289
11
-13.0241
21
-29.551
0
LINE
8
BLACK
6
CONTINUOUS
10
-13.0241
20
-29.551
11
-13.2509
21
-29.551
0
LINE
8
BLACK
6
CONTINUOUS
10
-13.2509
20
-29.551
11
-13.362
21
-29.5289
0
LINE
8
BLACK
6
CONTINUOUS
10
-13.362
20
-29.5289
11
-13.4732
21
-29.5068
0
LINE
8
BLACK
6
CONTINUOUS
10
-13.4732
20
-29.5068
11
-13.6827
21
-29.42
0
LINE
8
BLACK
6
CONTINUOUS
10
-13.6827
20
-29.42
11
-13.8712
21
-29.294
0
LINE
8
BLACK
6
CONTINUOUS
10
-13.8712
20
-29.294
11
-14.0315
21
-29.1337
0
LINE
8
BLACK
6
CONTINUOUS
10
-14.0315
20
-29.1337
11
-14.1575
21
-28.9452
0
LINE
8
BLACK
6
CONTINUOUS
10
-14.1575
20
-28.9452
11
-14.2443
21
-28.7357
0
LINE
8
BLACK
6
CONTINUOUS
10
-14.2443
20
-28.7357
11
-14.2885
21
-28.5134
0
LINE
8
BLACK
6
CONTINUOUS
10
-14.2885
20
-28.5134
11
-14.2885
21
-28.2866
0
LINE
8
BLACK
6
CONTINUOUS
10
-14.2885
20
-28.2866
11
-14.284
21
-28.2643
0
LINE
8
BLACK
6
CONTINUOUS
10
-14.284
20
-28.2643
11
-14.2443
21
-28.0643
0
LINE
8
BLACK
6
CONTINUOUS
10
-14.2443
20
-28.0643
11
-14.2403
21
-28.0548
0
LINE
8
BLACK
6
CONTINUOUS
10
-14.2403
20
-28.0548
11
-14.1623
21
-27.8663
0
LINE
8
BLACK
6
CONTINUOUS
10
-14.1623
20
-27.8663
11
-14.1575
21
-27.8548
0
LINE
8
BLACK
6
CONTINUOUS
10
-14.1575
20
-27.8548
11
-14.0581
21
-27.706
0
LINE
8
BLACK
6
CONTINUOUS
10
-14.0581
20
-27.706
11
-14.0315
21
-27.6663
0
LINE
8
BLACK
6
CONTINUOUS
10
-14.0315
20
-27.6663
11
-13.8712
21
-27.506
0
LINE
8
BLACK
6
CONTINUOUS
10
-13.8712
20
-27.506
11
-13.6827
21
-27.38
0
LINE
8
BLACK
6
CONTINUOUS
10
-13.6827
20
-27.38
11
-13.4732
21
-27.2932
0
LINE
8
BLACK
6
CONTINUOUS
10
-13.4732
20
-27.2932
11
-13.362
21
-27.2711
0
LINE
8
BLACK
6
CONTINUOUS
10
-13.362
20
-27.2711
11
-13.2509
21
-27.249
0
LINE
8
BLACK
6
CONTINUOUS
10
-13.2509
20
-27.249
11
-13.0241
21
-27.249
0
LINE
8
BLACK
6
CONTINUOUS
10
-13.0241
20
-27.249
11
-12.913
21
-27.2711
  0
ENDSEC
  0
EOF
