  0
SECTION
  2
HEADER
  9
$ANGBASE
  50
0.0
  9
$ANGDIR
  70
1
  9
$MEASUREMENT
  70
0
  0
ENDSEC
  0
SECTION
  2
TABLES
  0
TABLE
  2
LTYPE
  70
4
  0
LTYPE
  5
40F
  2
CONTINUOUS
  70
0
  3
Solid line
  72
65
  73
0
  40
0.0
  0
LTYPE
  5
410
  2
DASHDOT
 70
0
  3
Dash Dot ____ _ ____ _
 72
65
 73
4
 40
2.0
 49
1.25
 49
-0.25
 49
0.25
 49
-0.25
  0
LTYPE
  5
411
  2
DASHED
 70
0
  3
Dashed __ __ __ __ __
 72
65
 73
2
 40
0.75
 49
0.5
 49
-0.25
  0
LTYPE
  5
43B
  2
DOTTED
 70
0
  3
Dotted .  .  .  .
 72
65
 73
2
 40
0.2
 49
0.0
 49
-0.2
  0
ENDTAB
  0
TABLE
  2
STYLE
  70
4
  0
STYLE
  2
KICAD
  70
0
  40
0
  41
1
  42
1
  50
0
  71
0
  3
isocp.shx
  0
STYLE
  2
KICADB
  70
0
  40
0
  41
1
  42
1
  50
0
  71
0
  3
isocp.shx
  0
STYLE
  2
KICADI
  70
0
  40
0
  41
1
  42
1
  50
15
  71
0
  3
isocp.shx
  0
STYLE
  2
KICADBI
  70
0
  40
0
  41
1
  42
1
  50
15
  71
0
  3
isocp.shx
  0
ENDTAB
  0
TABLE
  2
LAYER
  70
1
  0
LAYER
  2
BLACK
  70
0
  62
7
  6
CONTINUOUS
  0
ENDTAB
  0
ENDSEC
  0
SECTION
  2
ENTITIES
0
LINE
8
BLACK
6
CONTINUOUS
10
7.88697
20
-2.11314
11
7.88885
21
-2.10939
0
LINE
8
BLACK
6
CONTINUOUS
10
7.88885
20
-2.10939
11
7.89072
21
-2.10752
0
LINE
8
BLACK
6
CONTINUOUS
10
7.89072
20
-2.10752
11
7.89447
21
-2.10564
0
LINE
8
BLACK
6
CONTINUOUS
10
7.89447
20
-2.10564
11
7.89634
21
-2.10564
0
LINE
8
BLACK
6
CONTINUOUS
10
7.89634
20
-2.10564
11
7.90009
21
-2.10752
0
LINE
8
BLACK
6
CONTINUOUS
10
7.90009
20
-2.10752
11
7.90197
21
-2.10939
0
LINE
8
BLACK
6
CONTINUOUS
10
7.90197
20
-2.10939
11
7.90384
21
-2.11314
0
LINE
8
BLACK
6
CONTINUOUS
10
7.90384
20
-2.11314
11
7.90384
21
-2.12064
0
LINE
8
BLACK
6
CONTINUOUS
10
7.90384
20
-2.12064
11
7.90197
21
-2.12439
0
LINE
8
BLACK
6
CONTINUOUS
10
7.90197
20
-2.12439
11
7.90009
21
-2.12627
0
LINE
8
BLACK
6
CONTINUOUS
10
7.90009
20
-2.12627
11
7.89634
21
-2.12814
0
LINE
8
BLACK
6
CONTINUOUS
10
7.89634
20
-2.12814
11
7.89447
21
-2.12814
0
LINE
8
BLACK
6
CONTINUOUS
10
7.89447
20
-2.12814
11
7.89072
21
-2.12627
0
LINE
8
BLACK
6
CONTINUOUS
10
7.89072
20
-2.12627
11
7.88885
21
-2.12439
0
LINE
8
BLACK
6
CONTINUOUS
10
7.88885
20
-2.12439
11
7.88697
21
-2.12064
0
LINE
8
BLACK
6
CONTINUOUS
10
7.88697
20
-2.12064
11
7.88697
21
-2.11314
0
LINE
8
BLACK
6
CONTINUOUS
10
7.88697
20
-2.11314
11
7.8851
21
-2.10939
0
LINE
8
BLACK
6
CONTINUOUS
10
7.8851
20
-2.10939
11
7.88322
21
-2.10752
0
LINE
8
BLACK
6
CONTINUOUS
10
7.88322
20
-2.10752
11
7.87947
21
-2.10564
0
LINE
8
BLACK
6
CONTINUOUS
10
7.87947
20
-2.10564
11
7.87197
21
-2.10564
0
LINE
8
BLACK
6
CONTINUOUS
10
7.87197
20
-2.10564
11
7.86822
21
-2.10752
0
LINE
8
BLACK
6
CONTINUOUS
10
7.86822
20
-2.10752
11
7.86635
21
-2.10939
0
LINE
8
BLACK
6
CONTINUOUS
10
7.86635
20
-2.10939
11
7.86447
21
-2.11314
0
LINE
8
BLACK
6
CONTINUOUS
10
7.86447
20
-2.11314
11
7.86447
21
-2.12064
0
LINE
8
BLACK
6
CONTINUOUS
10
7.86447
20
-2.12064
11
7.86635
21
-2.12439
0
LINE
8
BLACK
6
CONTINUOUS
10
7.86635
20
-2.12439
11
7.86822
21
-2.12627
0
LINE
8
BLACK
6
CONTINUOUS
10
7.86822
20
-2.12627
11
7.87197
21
-2.12814
0
LINE
8
BLACK
6
CONTINUOUS
10
7.87197
20
-2.12814
11
7.87947
21
-2.12814
0
LINE
8
BLACK
6
CONTINUOUS
10
7.87947
20
-2.12814
11
7.88322
21
-2.12627
0
LINE
8
BLACK
6
CONTINUOUS
10
7.88322
20
-2.12627
11
7.8851
21
-2.12439
0
LINE
8
BLACK
6
CONTINUOUS
10
7.8851
20
-2.12439
11
7.88697
21
-2.12064
0
LINE
8
BLACK
6
CONTINUOUS
10
7.86822
20
-2.14501
11
7.86635
21
-2.14689
0
LINE
8
BLACK
6
CONTINUOUS
10
7.86635
20
-2.14689
11
7.86447
21
-2.14501
0
LINE
8
BLACK
6
CONTINUOUS
10
7.86447
20
-2.14501
11
7.86635
21
-2.14314
0
LINE
8
BLACK
6
CONTINUOUS
10
7.86635
20
-2.14314
11
7.86822
21
-2.14501
0
LINE
8
BLACK
6
CONTINUOUS
10
7.86822
20
-2.14501
11
7.86447
21
-2.14501
0
LINE
8
BLACK
6
CONTINUOUS
10
7.90384
20
-2.18251
11
7.90384
21
-2.16376
0
LINE
8
BLACK
6
CONTINUOUS
10
7.90384
20
-2.16376
11
7.8851
21
-2.16189
0
LINE
8
BLACK
6
CONTINUOUS
10
7.8851
20
-2.16189
11
7.88697
21
-2.16376
0
LINE
8
BLACK
6
CONTINUOUS
10
7.88697
20
-2.16376
11
7.88885
21
-2.16751
0
LINE
8
BLACK
6
CONTINUOUS
10
7.88885
20
-2.16751
11
7.88885
21
-2.17688
0
LINE
8
BLACK
6
CONTINUOUS
10
7.88885
20
-2.17688
11
7.88697
21
-2.18063
0
LINE
8
BLACK
6
CONTINUOUS
10
7.88697
20
-2.18063
11
7.8851
21
-2.18251
0
LINE
8
BLACK
6
CONTINUOUS
10
7.8851
20
-2.18251
11
7.88135
21
-2.18438
0
LINE
8
BLACK
6
CONTINUOUS
10
7.88135
20
-2.18438
11
7.87197
21
-2.18438
0
LINE
8
BLACK
6
CONTINUOUS
10
7.87197
20
-2.18438
11
7.86822
21
-2.18251
0
LINE
8
BLACK
6
CONTINUOUS
10
7.86822
20
-2.18251
11
7.86635
21
-2.18063
0
LINE
8
BLACK
6
CONTINUOUS
10
7.86635
20
-2.18063
11
7.86447
21
-2.17688
0
LINE
8
BLACK
6
CONTINUOUS
10
7.86447
20
-2.17688
11
7.86447
21
-2.16751
0
LINE
8
BLACK
6
CONTINUOUS
10
7.86447
20
-2.16751
11
7.86635
21
-2.16376
0
LINE
8
BLACK
6
CONTINUOUS
10
7.86635
20
-2.16376
11
7.86822
21
-2.16189
0
LINE
8
BLACK
6
CONTINUOUS
10
7.90384
20
-2.22
11
7.90384
21
-2.20126
0
LINE
8
BLACK
6
CONTINUOUS
10
7.90384
20
-2.20126
11
7.8851
21
-2.19938
0
LINE
8
BLACK
6
CONTINUOUS
10
7.8851
20
-2.19938
11
7.88697
21
-2.20126
0
LINE
8
BLACK
6
CONTINUOUS
10
7.88697
20
-2.20126
11
7.88885
21
-2.20501
0
LINE
8
BLACK
6
CONTINUOUS
10
7.88885
20
-2.20501
11
7.88885
21
-2.21438
0
LINE
8
BLACK
6
CONTINUOUS
10
7.88885
20
-2.21438
11
7.88697
21
-2.21813
0
LINE
8
BLACK
6
CONTINUOUS
10
7.88697
20
-2.21813
11
7.8851
21
-2.22
0
LINE
8
BLACK
6
CONTINUOUS
10
7.8851
20
-2.22
11
7.88135
21
-2.22188
0
LINE
8
BLACK
6
CONTINUOUS
10
7.88135
20
-2.22188
11
7.87197
21
-2.22188
0
LINE
8
BLACK
6
CONTINUOUS
10
7.87197
20
-2.22188
11
7.86822
21
-2.22
0
LINE
8
BLACK
6
CONTINUOUS
10
7.86822
20
-2.22
11
7.86635
21
-2.21813
0
LINE
8
BLACK
6
CONTINUOUS
10
7.86635
20
-2.21813
11
7.86447
21
-2.21438
0
LINE
8
BLACK
6
CONTINUOUS
10
7.86447
20
-2.21438
11
7.86447
21
-2.20501
0
LINE
8
BLACK
6
CONTINUOUS
10
7.86447
20
-2.20501
11
7.86635
21
-2.20126
0
LINE
8
BLACK
6
CONTINUOUS
10
7.86635
20
-2.20126
11
7.86822
21
-2.19938
0
LINE
8
BLACK
6
CONTINUOUS
10
7.90384
20
-2.2575
11
7.90384
21
-2.23875
0
LINE
8
BLACK
6
CONTINUOUS
10
7.90384
20
-2.23875
11
7.8851
21
-2.23688
0
LINE
8
BLACK
6
CONTINUOUS
10
7.8851
20
-2.23688
11
7.88697
21
-2.23875
0
LINE
8
BLACK
6
CONTINUOUS
10
7.88697
20
-2.23875
11
7.88885
21
-2.2425
0
LINE
8
BLACK
6
CONTINUOUS
10
7.88885
20
-2.2425
11
7.88885
21
-2.25187
0
LINE
8
BLACK
6
CONTINUOUS
10
7.88885
20
-2.25187
11
7.88697
21
-2.25562
0
LINE
8
BLACK
6
CONTINUOUS
10
7.88697
20
-2.25562
11
7.8851
21
-2.2575
0
LINE
8
BLACK
6
CONTINUOUS
10
7.8851
20
-2.2575
11
7.88135
21
-2.25937
0
LINE
8
BLACK
6
CONTINUOUS
10
7.88135
20
-2.25937
11
7.87197
21
-2.25937
0
LINE
8
BLACK
6
CONTINUOUS
10
7.87197
20
-2.25937
11
7.86822
21
-2.2575
0
LINE
8
BLACK
6
CONTINUOUS
10
7.86822
20
-2.2575
11
7.86635
21
-2.25562
0
LINE
8
BLACK
6
CONTINUOUS
10
7.86635
20
-2.25562
11
7.86447
21
-2.25187
0
LINE
8
BLACK
6
CONTINUOUS
10
7.86447
20
-2.25187
11
7.86447
21
-2.2425
0
LINE
8
BLACK
6
CONTINUOUS
10
7.86447
20
-2.2425
11
7.86635
21
-2.23875
0
LINE
8
BLACK
6
CONTINUOUS
10
7.86635
20
-2.23875
11
7.86822
21
-2.23688
0
LINE
8
BLACK
6
CONTINUOUS
10
7.86447
20
-2.30624
11
7.89072
21
-2.30624
0
LINE
8
BLACK
6
CONTINUOUS
10
7.88697
20
-2.30624
11
7.88885
21
-2.30812
0
LINE
8
BLACK
6
CONTINUOUS
10
7.88885
20
-2.30812
11
7.89072
21
-2.31187
0
LINE
8
BLACK
6
CONTINUOUS
10
7.89072
20
-2.31187
11
7.89072
21
-2.31749
0
LINE
8
BLACK
6
CONTINUOUS
10
7.89072
20
-2.31749
11
7.88885
21
-2.32124
0
LINE
8
BLACK
6
CONTINUOUS
10
7.88885
20
-2.32124
11
7.8851
21
-2.32312
0
LINE
8
BLACK
6
CONTINUOUS
10
7.8851
20
-2.32312
11
7.86447
21
-2.32312
0
LINE
8
BLACK
6
CONTINUOUS
10
7.8851
20
-2.32312
11
7.88885
21
-2.32499
0
LINE
8
BLACK
6
CONTINUOUS
10
7.88885
20
-2.32499
11
7.89072
21
-2.32874
0
LINE
8
BLACK
6
CONTINUOUS
10
7.89072
20
-2.32874
11
7.89072
21
-2.33436
0
LINE
8
BLACK
6
CONTINUOUS
10
7.89072
20
-2.33436
11
7.88885
21
-2.33811
0
LINE
8
BLACK
6
CONTINUOUS
10
7.88885
20
-2.33811
11
7.8851
21
-2.33999
0
LINE
8
BLACK
6
CONTINUOUS
10
7.8851
20
-2.33999
11
7.86447
21
-2.33999
0
LINE
8
BLACK
6
CONTINUOUS
10
7.86447
20
-2.35874
11
7.89072
21
-2.35874
0
LINE
8
BLACK
6
CONTINUOUS
10
7.88697
20
-2.35874
11
7.88885
21
-2.36061
0
LINE
8
BLACK
6
CONTINUOUS
10
7.88885
20
-2.36061
11
7.89072
21
-2.36436
0
LINE
8
BLACK
6
CONTINUOUS
10
7.89072
20
-2.36436
11
7.89072
21
-2.36998
0
LINE
8
BLACK
6
CONTINUOUS
10
7.89072
20
-2.36998
11
7.88885
21
-2.37373
0
LINE
8
BLACK
6
CONTINUOUS
10
7.88885
20
-2.37373
11
7.8851
21
-2.37561
0
LINE
8
BLACK
6
CONTINUOUS
10
7.8851
20
-2.37561
11
7.86447
21
-2.37561
0
LINE
8
BLACK
6
CONTINUOUS
10
7.8851
20
-2.37561
11
7.88885
21
-2.37748
0
LINE
8
BLACK
6
CONTINUOUS
10
7.88885
20
-2.37748
11
7.89072
21
-2.38123
0
LINE
8
BLACK
6
CONTINUOUS
10
7.89072
20
-2.38123
11
7.89072
21
-2.38686
0
LINE
8
BLACK
6
CONTINUOUS
10
7.89072
20
-2.38686
11
7.88885
21
-2.39061
0
LINE
8
BLACK
6
CONTINUOUS
10
7.88885
20
-2.39061
11
7.8851
21
-2.39248
0
LINE
8
BLACK
6
CONTINUOUS
10
7.8851
20
-2.39248
11
7.86447
21
-2.39248
0
LINE
8
BLACK
6
CONTINUOUS
10
7.83504
20
-2.08159
11
7.83504
21
-2.41841
0
LINE
8
BLACK
6
CONTINUOUS
10
7.77657
20
-2.08159
11
7.85813
21
-2.08159
0
LINE
8
BLACK
6
CONTINUOUS
10
7.77657
20
-2.41841
11
7.85813
21
-2.41841
0
LINE
8
BLACK
6
CONTINUOUS
10
7.83504
20
-2.41841
11
7.81195
21
-2.37405
0
LINE
8
BLACK
6
CONTINUOUS
10
7.83504
20
-2.41841
11
7.85813
21
-2.37405
0
LINE
8
BLACK
6
CONTINUOUS
10
7.83504
20
-2.08159
11
7.81195
21
-2.12595
0
LINE
8
BLACK
6
CONTINUOUS
10
7.83504
20
-2.08159
11
7.85813
21
-2.12595
0
LINE
8
BLACK
6
CONTINUOUS
10
7.00442
20
-2.51487
11
7.00629
21
-2.51299
0
LINE
8
BLACK
6
CONTINUOUS
10
7.00629
20
-2.51299
11
7.01004
21
-2.51112
0
LINE
8
BLACK
6
CONTINUOUS
10
7.01004
20
-2.51112
11
7.01941
21
-2.51112
0
LINE
8
BLACK
6
CONTINUOUS
10
7.01941
20
-2.51112
11
7.02316
21
-2.51299
0
LINE
8
BLACK
6
CONTINUOUS
10
7.02316
20
-2.51299
11
7.02504
21
-2.51487
0
LINE
8
BLACK
6
CONTINUOUS
10
7.02504
20
-2.51487
11
7.02691
21
-2.51862
0
LINE
8
BLACK
6
CONTINUOUS
10
7.02691
20
-2.51862
11
7.02691
21
-2.52237
0
LINE
8
BLACK
6
CONTINUOUS
10
7.02691
20
-2.52237
11
7.02504
21
-2.52799
0
LINE
8
BLACK
6
CONTINUOUS
10
7.02504
20
-2.52799
11
7.00254
21
-2.55049
0
LINE
8
BLACK
6
CONTINUOUS
10
7.00254
20
-2.55049
11
7.02691
21
-2.55049
0
LINE
8
BLACK
6
CONTINUOUS
10
7.06253
20
-2.51112
11
7.04379
21
-2.51112
0
LINE
8
BLACK
6
CONTINUOUS
10
7.04379
20
-2.51112
11
7.04191
21
-2.52987
0
LINE
8
BLACK
6
CONTINUOUS
10
7.04191
20
-2.52987
11
7.04379
21
-2.52799
0
LINE
8
BLACK
6
CONTINUOUS
10
7.04379
20
-2.52799
11
7.04753
21
-2.52612
0
LINE
8
BLACK
6
CONTINUOUS
10
7.04753
20
-2.52612
11
7.05691
21
-2.52612
0
LINE
8
BLACK
6
CONTINUOUS
10
7.05691
20
-2.52612
11
7.06066
21
-2.52799
0
LINE
8
BLACK
6
CONTINUOUS
10
7.06066
20
-2.52799
11
7.06253
21
-2.52987
0
LINE
8
BLACK
6
CONTINUOUS
10
7.06253
20
-2.52987
11
7.06441
21
-2.53361
0
LINE
8
BLACK
6
CONTINUOUS
10
7.06441
20
-2.53361
11
7.06441
21
-2.54299
0
LINE
8
BLACK
6
CONTINUOUS
10
7.06441
20
-2.54299
11
7.06253
21
-2.54674
0
LINE
8
BLACK
6
CONTINUOUS
10
7.06253
20
-2.54674
11
7.06066
21
-2.54861
0
LINE
8
BLACK
6
CONTINUOUS
10
7.06066
20
-2.54861
11
7.05691
21
-2.55049
0
LINE
8
BLACK
6
CONTINUOUS
10
7.05691
20
-2.55049
11
7.04753
21
-2.55049
0
LINE
8
BLACK
6
CONTINUOUS
10
7.04753
20
-2.55049
11
7.04379
21
-2.54861
0
LINE
8
BLACK
6
CONTINUOUS
10
7.04379
20
-2.54861
11
7.04191
21
-2.54674
0
LINE
8
BLACK
6
CONTINUOUS
10
7.08128
20
-2.54674
11
7.08316
21
-2.54861
0
LINE
8
BLACK
6
CONTINUOUS
10
7.08316
20
-2.54861
11
7.08128
21
-2.55049
0
LINE
8
BLACK
6
CONTINUOUS
10
7.08128
20
-2.55049
11
7.07941
21
-2.54861
0
LINE
8
BLACK
6
CONTINUOUS
10
7.07941
20
-2.54861
11
7.08128
21
-2.54674
0
LINE
8
BLACK
6
CONTINUOUS
10
7.08128
20
-2.54674
11
7.08128
21
-2.55049
0
LINE
8
BLACK
6
CONTINUOUS
10
7.1019
20
-2.55049
11
7.1094
21
-2.55049
0
LINE
8
BLACK
6
CONTINUOUS
10
7.1094
20
-2.55049
11
7.11315
21
-2.54861
0
LINE
8
BLACK
6
CONTINUOUS
10
7.11315
20
-2.54861
11
7.11503
21
-2.54674
0
LINE
8
BLACK
6
CONTINUOUS
10
7.11503
20
-2.54674
11
7.11878
21
-2.54111
0
LINE
8
BLACK
6
CONTINUOUS
10
7.11878
20
-2.54111
11
7.12065
21
-2.53361
0
LINE
8
BLACK
6
CONTINUOUS
10
7.12065
20
-2.53361
11
7.12065
21
-2.51862
0
LINE
8
BLACK
6
CONTINUOUS
10
7.12065
20
-2.51862
11
7.11878
21
-2.51487
0
LINE
8
BLACK
6
CONTINUOUS
10
7.11878
20
-2.51487
11
7.1169
21
-2.51299
0
LINE
8
BLACK
6
CONTINUOUS
10
7.1169
20
-2.51299
11
7.11315
21
-2.51112
0
LINE
8
BLACK
6
CONTINUOUS
10
7.11315
20
-2.51112
11
7.10565
21
-2.51112
0
LINE
8
BLACK
6
CONTINUOUS
10
7.10565
20
-2.51112
11
7.1019
21
-2.51299
0
LINE
8
BLACK
6
CONTINUOUS
10
7.1019
20
-2.51299
11
7.10003
21
-2.51487
0
LINE
8
BLACK
6
CONTINUOUS
10
7.10003
20
-2.51487
11
7.09815
21
-2.51862
0
LINE
8
BLACK
6
CONTINUOUS
10
7.09815
20
-2.51862
11
7.09815
21
-2.52799
0
LINE
8
BLACK
6
CONTINUOUS
10
7.09815
20
-2.52799
11
7.10003
21
-2.53174
0
LINE
8
BLACK
6
CONTINUOUS
10
7.10003
20
-2.53174
11
7.1019
21
-2.53361
0
LINE
8
BLACK
6
CONTINUOUS
10
7.1019
20
-2.53361
11
7.10565
21
-2.53549
0
LINE
8
BLACK
6
CONTINUOUS
10
7.10565
20
-2.53549
11
7.11315
21
-2.53549
0
LINE
8
BLACK
6
CONTINUOUS
10
7.11315
20
-2.53549
11
7.1169
21
-2.53361
0
LINE
8
BLACK
6
CONTINUOUS
10
7.1169
20
-2.53361
11
7.11878
21
-2.53174
0
LINE
8
BLACK
6
CONTINUOUS
10
7.11878
20
-2.53174
11
7.12065
21
-2.52799
0
LINE
8
BLACK
6
CONTINUOUS
10
7.15627
20
-2.51112
11
7.13752
21
-2.51112
0
LINE
8
BLACK
6
CONTINUOUS
10
7.13752
20
-2.51112
11
7.13565
21
-2.52987
0
LINE
8
BLACK
6
CONTINUOUS
10
7.13565
20
-2.52987
11
7.13752
21
-2.52799
0
LINE
8
BLACK
6
CONTINUOUS
10
7.13752
20
-2.52799
11
7.14127
21
-2.52612
0
LINE
8
BLACK
6
CONTINUOUS
10
7.14127
20
-2.52612
11
7.15065
21
-2.52612
0
LINE
8
BLACK
6
CONTINUOUS
10
7.15065
20
-2.52612
11
7.1544
21
-2.52799
0
LINE
8
BLACK
6
CONTINUOUS
10
7.1544
20
-2.52799
11
7.15627
21
-2.52987
0
LINE
8
BLACK
6
CONTINUOUS
10
7.15627
20
-2.52987
11
7.15815
21
-2.53361
0
LINE
8
BLACK
6
CONTINUOUS
10
7.15815
20
-2.53361
11
7.15815
21
-2.54299
0
LINE
8
BLACK
6
CONTINUOUS
10
7.15815
20
-2.54299
11
7.15627
21
-2.54674
0
LINE
8
BLACK
6
CONTINUOUS
10
7.15627
20
-2.54674
11
7.1544
21
-2.54861
0
LINE
8
BLACK
6
CONTINUOUS
10
7.1544
20
-2.54861
11
7.15065
21
-2.55049
0
LINE
8
BLACK
6
CONTINUOUS
10
7.15065
20
-2.55049
11
7.14127
21
-2.55049
0
LINE
8
BLACK
6
CONTINUOUS
10
7.14127
20
-2.55049
11
7.13752
21
-2.54861
0
LINE
8
BLACK
6
CONTINUOUS
10
7.13752
20
-2.54861
11
7.13565
21
-2.54674
0
LINE
8
BLACK
6
CONTINUOUS
10
7.18252
20
-2.51112
11
7.18627
21
-2.51112
0
LINE
8
BLACK
6
CONTINUOUS
10
7.18627
20
-2.51112
11
7.19002
21
-2.51299
0
LINE
8
BLACK
6
CONTINUOUS
10
7.19002
20
-2.51299
11
7.19189
21
-2.51487
0
LINE
8
BLACK
6
CONTINUOUS
10
7.19189
20
-2.51487
11
7.19377
21
-2.51862
0
LINE
8
BLACK
6
CONTINUOUS
10
7.19377
20
-2.51862
11
7.19564
21
-2.52612
0
LINE
8
BLACK
6
CONTINUOUS
10
7.19564
20
-2.52612
11
7.19564
21
-2.53549
0
LINE
8
BLACK
6
CONTINUOUS
10
7.19564
20
-2.53549
11
7.19377
21
-2.54299
0
LINE
8
BLACK
6
CONTINUOUS
10
7.19377
20
-2.54299
11
7.19189
21
-2.54674
0
LINE
8
BLACK
6
CONTINUOUS
10
7.19189
20
-2.54674
11
7.19002
21
-2.54861
0
LINE
8
BLACK
6
CONTINUOUS
10
7.19002
20
-2.54861
11
7.18627
21
-2.55049
0
LINE
8
BLACK
6
CONTINUOUS
10
7.18627
20
-2.55049
11
7.18252
21
-2.55049
0
LINE
8
BLACK
6
CONTINUOUS
10
7.18252
20
-2.55049
11
7.17877
21
-2.54861
0
LINE
8
BLACK
6
CONTINUOUS
10
7.17877
20
-2.54861
11
7.17689
21
-2.54674
0
LINE
8
BLACK
6
CONTINUOUS
10
7.17689
20
-2.54674
11
7.17502
21
-2.54299
0
LINE
8
BLACK
6
CONTINUOUS
10
7.17502
20
-2.54299
11
7.17314
21
-2.53549
0
LINE
8
BLACK
6
CONTINUOUS
10
7.17314
20
-2.53549
11
7.17314
21
-2.52612
0
LINE
8
BLACK
6
CONTINUOUS
10
7.17314
20
-2.52612
11
7.17502
21
-2.51862
0
LINE
8
BLACK
6
CONTINUOUS
10
7.17502
20
-2.51862
11
7.17689
21
-2.51487
0
LINE
8
BLACK
6
CONTINUOUS
10
7.17689
20
-2.51487
11
7.17877
21
-2.51299
0
LINE
8
BLACK
6
CONTINUOUS
10
7.17877
20
-2.51299
11
7.18252
21
-2.51112
0
LINE
8
BLACK
6
CONTINUOUS
10
7.24251
20
-2.55049
11
7.24251
21
-2.52424
0
LINE
8
BLACK
6
CONTINUOUS
10
7.24251
20
-2.52799
11
7.24439
21
-2.52612
0
LINE
8
BLACK
6
CONTINUOUS
10
7.24439
20
-2.52612
11
7.24813
21
-2.52424
0
LINE
8
BLACK
6
CONTINUOUS
10
7.24813
20
-2.52424
11
7.25376
21
-2.52424
0
LINE
8
BLACK
6
CONTINUOUS
10
7.25376
20
-2.52424
11
7.25751
21
-2.52612
0
LINE
8
BLACK
6
CONTINUOUS
10
7.25751
20
-2.52612
11
7.25938
21
-2.52987
0
LINE
8
BLACK
6
CONTINUOUS
10
7.25938
20
-2.52987
11
7.25938
21
-2.55049
0
LINE
8
BLACK
6
CONTINUOUS
10
7.25938
20
-2.52987
11
7.26126
21
-2.52612
0
LINE
8
BLACK
6
CONTINUOUS
10
7.26126
20
-2.52612
11
7.26501
21
-2.52424
0
LINE
8
BLACK
6
CONTINUOUS
10
7.26501
20
-2.52424
11
7.27063
21
-2.52424
0
LINE
8
BLACK
6
CONTINUOUS
10
7.27063
20
-2.52424
11
7.27438
21
-2.52612
0
LINE
8
BLACK
6
CONTINUOUS
10
7.27438
20
-2.52612
11
7.27626
21
-2.52987
0
LINE
8
BLACK
6
CONTINUOUS
10
7.27626
20
-2.52987
11
7.27626
21
-2.55049
0
LINE
8
BLACK
6
CONTINUOUS
10
7.295
20
-2.55049
11
7.295
21
-2.52424
0
LINE
8
BLACK
6
CONTINUOUS
10
7.295
20
-2.52799
11
7.29688
21
-2.52612
0
LINE
8
BLACK
6
CONTINUOUS
10
7.29688
20
-2.52612
11
7.30063
21
-2.52424
0
LINE
8
BLACK
6
CONTINUOUS
10
7.30063
20
-2.52424
11
7.30625
21
-2.52424
0
LINE
8
BLACK
6
CONTINUOUS
10
7.30625
20
-2.52424
11
7.31
21
-2.52612
0
LINE
8
BLACK
6
CONTINUOUS
10
7.31
20
-2.52612
11
7.31188
21
-2.52987
0
LINE
8
BLACK
6
CONTINUOUS
10
7.31188
20
-2.52987
11
7.31188
21
-2.55049
0
LINE
8
BLACK
6
CONTINUOUS
10
7.31188
20
-2.52987
11
7.31375
21
-2.52612
0
LINE
8
BLACK
6
CONTINUOUS
10
7.31375
20
-2.52612
11
7.3175
21
-2.52424
0
LINE
8
BLACK
6
CONTINUOUS
10
7.3175
20
-2.52424
11
7.32313
21
-2.52424
0
LINE
8
BLACK
6
CONTINUOUS
10
7.32313
20
-2.52424
11
7.32687
21
-2.52612
0
LINE
8
BLACK
6
CONTINUOUS
10
7.32687
20
-2.52612
11
7.32875
21
-2.52987
0
LINE
8
BLACK
6
CONTINUOUS
10
7.32875
20
-2.52987
11
7.32875
21
-2.55049
0
LINE
8
BLACK
6
CONTINUOUS
10
6.65669
20
-2.48543
11
7.67835
21
-2.48543
0
LINE
8
BLACK
6
CONTINUOUS
10
6.65669
20
-2.43829
11
6.65669
21
-2.50852
0
LINE
8
BLACK
6
CONTINUOUS
10
7.67835
20
-2.43829
11
7.67835
21
-2.50852
0
LINE
8
BLACK
6
CONTINUOUS
10
7.67835
20
-2.48543
11
7.634
21
-2.50852
0
LINE
8
BLACK
6
CONTINUOUS
10
7.67835
20
-2.48543
11
7.634
21
-2.46235
0
LINE
8
BLACK
6
CONTINUOUS
10
6.65669
20
-2.48543
11
6.70104
21
-2.50852
0
LINE
8
BLACK
6
CONTINUOUS
10
6.65669
20
-2.48543
11
6.70104
21
-2.46235
0
LINE
8
BLACK
6
CONTINUOUS
10
0.627643
20
-2.52747
11
0.629518
21
-2.52559
0
LINE
8
BLACK
6
CONTINUOUS
10
0.629518
20
-2.52559
11
0.633268
21
-2.52372
0
LINE
8
BLACK
6
CONTINUOUS
10
0.633268
20
-2.52372
11
0.642642
21
-2.52372
0
LINE
8
BLACK
6
CONTINUOUS
10
0.642642
20
-2.52372
11
0.646391
21
-2.52559
0
LINE
8
BLACK
6
CONTINUOUS
10
0.646391
20
-2.52559
11
0.648266
21
-2.52747
0
LINE
8
BLACK
6
CONTINUOUS
10
0.648266
20
-2.52747
11
0.650141
21
-2.53121
0
LINE
8
BLACK
6
CONTINUOUS
10
0.650141
20
-2.53121
11
0.650141
21
-2.53496
0
LINE
8
BLACK
6
CONTINUOUS
10
0.650141
20
-2.53496
11
0.648266
21
-2.54059
0
LINE
8
BLACK
6
CONTINUOUS
10
0.648266
20
-2.54059
11
0.625769
21
-2.56309
0
LINE
8
BLACK
6
CONTINUOUS
10
0.625769
20
-2.56309
11
0.650141
21
-2.56309
0
LINE
8
BLACK
6
CONTINUOUS
10
0.685761
20
-2.52372
11
0.667013
21
-2.52372
0
LINE
8
BLACK
6
CONTINUOUS
10
0.667013
20
-2.52372
11
0.665139
21
-2.54246
0
LINE
8
BLACK
6
CONTINUOUS
10
0.665139
20
-2.54246
11
0.667013
21
-2.54059
0
LINE
8
BLACK
6
CONTINUOUS
10
0.667013
20
-2.54059
11
0.670763
21
-2.53871
0
LINE
8
BLACK
6
CONTINUOUS
10
0.670763
20
-2.53871
11
0.680137
21
-2.53871
0
LINE
8
BLACK
6
CONTINUOUS
10
0.680137
20
-2.53871
11
0.683886
21
-2.54059
0
LINE
8
BLACK
6
CONTINUOUS
10
0.683886
20
-2.54059
11
0.685761
21
-2.54246
0
LINE
8
BLACK
6
CONTINUOUS
10
0.685761
20
-2.54246
11
0.687636
21
-2.54621
0
LINE
8
BLACK
6
CONTINUOUS
10
0.687636
20
-2.54621
11
0.687636
21
-2.55559
0
LINE
8
BLACK
6
CONTINUOUS
10
0.687636
20
-2.55559
11
0.685761
21
-2.55934
0
LINE
8
BLACK
6
CONTINUOUS
10
0.685761
20
-2.55934
11
0.683886
21
-2.56121
0
LINE
8
BLACK
6
CONTINUOUS
10
0.683886
20
-2.56121
11
0.680137
21
-2.56309
0
LINE
8
BLACK
6
CONTINUOUS
10
0.680137
20
-2.56309
11
0.670763
21
-2.56309
0
LINE
8
BLACK
6
CONTINUOUS
10
0.670763
20
-2.56309
11
0.667013
21
-2.56121
0
LINE
8
BLACK
6
CONTINUOUS
10
0.667013
20
-2.56121
11
0.665139
21
-2.55934
0
LINE
8
BLACK
6
CONTINUOUS
10
0.704509
20
-2.55934
11
0.706384
21
-2.56121
0
LINE
8
BLACK
6
CONTINUOUS
10
0.706384
20
-2.56121
11
0.704509
21
-2.56309
0
LINE
8
BLACK
6
CONTINUOUS
10
0.704509
20
-2.56309
11
0.702634
21
-2.56121
0
LINE
8
BLACK
6
CONTINUOUS
10
0.702634
20
-2.56121
11
0.704509
21
-2.55934
0
LINE
8
BLACK
6
CONTINUOUS
10
0.704509
20
-2.55934
11
0.704509
21
-2.56309
0
LINE
8
BLACK
6
CONTINUOUS
10
0.725131
20
-2.56309
11
0.73263
21
-2.56309
0
LINE
8
BLACK
6
CONTINUOUS
10
0.73263
20
-2.56309
11
0.73638
21
-2.56121
0
LINE
8
BLACK
6
CONTINUOUS
10
0.73638
20
-2.56121
11
0.738255
21
-2.55934
0
LINE
8
BLACK
6
CONTINUOUS
10
0.738255
20
-2.55934
11
0.742004
21
-2.55371
0
LINE
8
BLACK
6
CONTINUOUS
10
0.742004
20
-2.55371
11
0.743879
21
-2.54621
0
LINE
8
BLACK
6
CONTINUOUS
10
0.743879
20
-2.54621
11
0.743879
21
-2.53121
0
LINE
8
BLACK
6
CONTINUOUS
10
0.743879
20
-2.53121
11
0.742004
21
-2.52747
0
LINE
8
BLACK
6
CONTINUOUS
10
0.742004
20
-2.52747
11
0.740129
21
-2.52559
0
LINE
8
BLACK
6
CONTINUOUS
10
0.740129
20
-2.52559
11
0.73638
21
-2.52372
0
LINE
8
BLACK
6
CONTINUOUS
10
0.73638
20
-2.52372
11
0.728881
21
-2.52372
0
LINE
8
BLACK
6
CONTINUOUS
10
0.728881
20
-2.52372
11
0.725131
21
-2.52559
0
LINE
8
BLACK
6
CONTINUOUS
10
0.725131
20
-2.52559
11
0.723256
21
-2.52747
0
LINE
8
BLACK
6
CONTINUOUS
10
0.723256
20
-2.52747
11
0.721382
21
-2.53121
0
LINE
8
BLACK
6
CONTINUOUS
10
0.721382
20
-2.53121
11
0.721382
21
-2.54059
0
LINE
8
BLACK
6
CONTINUOUS
10
0.721382
20
-2.54059
11
0.723256
21
-2.54434
0
LINE
8
BLACK
6
CONTINUOUS
10
0.723256
20
-2.54434
11
0.725131
21
-2.54621
0
LINE
8
BLACK
6
CONTINUOUS
10
0.725131
20
-2.54621
11
0.728881
21
-2.54809
0
LINE
8
BLACK
6
CONTINUOUS
10
0.728881
20
-2.54809
11
0.73638
21
-2.54809
0
LINE
8
BLACK
6
CONTINUOUS
10
0.73638
20
-2.54809
11
0.740129
21
-2.54621
0
LINE
8
BLACK
6
CONTINUOUS
10
0.740129
20
-2.54621
11
0.742004
21
-2.54434
0
LINE
8
BLACK
6
CONTINUOUS
10
0.742004
20
-2.54434
11
0.743879
21
-2.54059
0
LINE
8
BLACK
6
CONTINUOUS
10
0.779499
20
-2.52372
11
0.760752
21
-2.52372
0
LINE
8
BLACK
6
CONTINUOUS
10
0.760752
20
-2.52372
11
0.758877
21
-2.54246
0
LINE
8
BLACK
6
CONTINUOUS
10
0.758877
20
-2.54246
11
0.760752
21
-2.54059
0
LINE
8
BLACK
6
CONTINUOUS
10
0.760752
20
-2.54059
11
0.764501
21
-2.53871
0
LINE
8
BLACK
6
CONTINUOUS
10
0.764501
20
-2.53871
11
0.773875
21
-2.53871
0
LINE
8
BLACK
6
CONTINUOUS
10
0.773875
20
-2.53871
11
0.777625
21
-2.54059
0
LINE
8
BLACK
6
CONTINUOUS
10
0.777625
20
-2.54059
11
0.779499
21
-2.54246
0
LINE
8
BLACK
6
CONTINUOUS
10
0.779499
20
-2.54246
11
0.781374
21
-2.54621
0
LINE
8
BLACK
6
CONTINUOUS
10
0.781374
20
-2.54621
11
0.781374
21
-2.55559
0
LINE
8
BLACK
6
CONTINUOUS
10
0.781374
20
-2.55559
11
0.779499
21
-2.55934
0
LINE
8
BLACK
6
CONTINUOUS
10
0.779499
20
-2.55934
11
0.777625
21
-2.56121
0
LINE
8
BLACK
6
CONTINUOUS
10
0.777625
20
-2.56121
11
0.773875
21
-2.56309
0
LINE
8
BLACK
6
CONTINUOUS
10
0.773875
20
-2.56309
11
0.764501
21
-2.56309
0
LINE
8
BLACK
6
CONTINUOUS
10
0.764501
20
-2.56309
11
0.760752
21
-2.56121
0
LINE
8
BLACK
6
CONTINUOUS
10
0.760752
20
-2.56121
11
0.758877
21
-2.55934
0
LINE
8
BLACK
6
CONTINUOUS
10
0.805746
20
-2.52372
11
0.809496
21
-2.52372
0
LINE
8
BLACK
6
CONTINUOUS
10
0.809496
20
-2.52372
11
0.813245
21
-2.52559
0
LINE
8
BLACK
6
CONTINUOUS
10
0.813245
20
-2.52559
11
0.81512
21
-2.52747
0
LINE
8
BLACK
6
CONTINUOUS
10
0.81512
20
-2.52747
11
0.816995
21
-2.53121
0
LINE
8
BLACK
6
CONTINUOUS
10
0.816995
20
-2.53121
11
0.818869
21
-2.53871
0
LINE
8
BLACK
6
CONTINUOUS
10
0.818869
20
-2.53871
11
0.818869
21
-2.54809
0
LINE
8
BLACK
6
CONTINUOUS
10
0.818869
20
-2.54809
11
0.816995
21
-2.55559
0
LINE
8
BLACK
6
CONTINUOUS
10
0.816995
20
-2.55559
11
0.81512
21
-2.55934
0
LINE
8
BLACK
6
CONTINUOUS
10
0.81512
20
-2.55934
11
0.813245
21
-2.56121
0
LINE
8
BLACK
6
CONTINUOUS
10
0.813245
20
-2.56121
11
0.809496
21
-2.56309
0
LINE
8
BLACK
6
CONTINUOUS
10
0.809496
20
-2.56309
11
0.805746
21
-2.56309
0
LINE
8
BLACK
6
CONTINUOUS
10
0.805746
20
-2.56309
11
0.801997
21
-2.56121
0
LINE
8
BLACK
6
CONTINUOUS
10
0.801997
20
-2.56121
11
0.800122
21
-2.55934
0
LINE
8
BLACK
6
CONTINUOUS
10
0.800122
20
-2.55934
11
0.798247
21
-2.55559
0
LINE
8
BLACK
6
CONTINUOUS
10
0.798247
20
-2.55559
11
0.796372
21
-2.54809
0
LINE
8
BLACK
6
CONTINUOUS
10
0.796372
20
-2.54809
11
0.796372
21
-2.53871
0
LINE
8
BLACK
6
CONTINUOUS
10
0.796372
20
-2.53871
11
0.798247
21
-2.53121
0
LINE
8
BLACK
6
CONTINUOUS
10
0.798247
20
-2.53121
11
0.800122
21
-2.52747
0
LINE
8
BLACK
6
CONTINUOUS
10
0.800122
20
-2.52747
11
0.801997
21
-2.52559
0
LINE
8
BLACK
6
CONTINUOUS
10
0.801997
20
-2.52559
11
0.805746
21
-2.52372
0
LINE
8
BLACK
6
CONTINUOUS
10
0.865739
20
-2.56309
11
0.865739
21
-2.53684
0
LINE
8
BLACK
6
CONTINUOUS
10
0.865739
20
-2.54059
11
0.867613
21
-2.53871
0
LINE
8
BLACK
6
CONTINUOUS
10
0.867613
20
-2.53871
11
0.871363
21
-2.53684
0
LINE
8
BLACK
6
CONTINUOUS
10
0.871363
20
-2.53684
11
0.876987
21
-2.53684
0
LINE
8
BLACK
6
CONTINUOUS
10
0.876987
20
-2.53684
11
0.880737
21
-2.53871
0
LINE
8
BLACK
6
CONTINUOUS
10
0.880737
20
-2.53871
11
0.882612
21
-2.54246
0
LINE
8
BLACK
6
CONTINUOUS
10
0.882612
20
-2.54246
11
0.882612
21
-2.56309
0
LINE
8
BLACK
6
CONTINUOUS
10
0.882612
20
-2.54246
11
0.884486
21
-2.53871
0
LINE
8
BLACK
6
CONTINUOUS
10
0.884486
20
-2.53871
11
0.888236
21
-2.53684
0
LINE
8
BLACK
6
CONTINUOUS
10
0.888236
20
-2.53684
11
0.89386
21
-2.53684
0
LINE
8
BLACK
6
CONTINUOUS
10
0.89386
20
-2.53684
11
0.89761
21
-2.53871
0
LINE
8
BLACK
6
CONTINUOUS
10
0.89761
20
-2.53871
11
0.899484
21
-2.54246
0
LINE
8
BLACK
6
CONTINUOUS
10
0.899484
20
-2.54246
11
0.899484
21
-2.56309
0
LINE
8
BLACK
6
CONTINUOUS
10
0.918232
20
-2.56309
11
0.918232
21
-2.53684
0
LINE
8
BLACK
6
CONTINUOUS
10
0.918232
20
-2.54059
11
0.920107
21
-2.53871
0
LINE
8
BLACK
6
CONTINUOUS
10
0.920107
20
-2.53871
11
0.923856
21
-2.53684
0
LINE
8
BLACK
6
CONTINUOUS
10
0.923856
20
-2.53684
11
0.929481
21
-2.53684
0
LINE
8
BLACK
6
CONTINUOUS
10
0.929481
20
-2.53684
11
0.93323
21
-2.53871
0
LINE
8
BLACK
6
CONTINUOUS
10
0.93323
20
-2.53871
11
0.935105
21
-2.54246
0
LINE
8
BLACK
6
CONTINUOUS
10
0.935105
20
-2.54246
11
0.935105
21
-2.56309
0
LINE
8
BLACK
6
CONTINUOUS
10
0.935105
20
-2.54246
11
0.93698
21
-2.53871
0
LINE
8
BLACK
6
CONTINUOUS
10
0.93698
20
-2.53871
11
0.940729
21
-2.53684
0
LINE
8
BLACK
6
CONTINUOUS
10
0.940729
20
-2.53684
11
0.946354
21
-2.53684
0
LINE
8
BLACK
6
CONTINUOUS
10
0.946354
20
-2.53684
11
0.950103
21
-2.53871
0
LINE
8
BLACK
6
CONTINUOUS
10
0.950103
20
-2.53871
11
0.951978
21
-2.54246
0
LINE
8
BLACK
6
CONTINUOUS
10
0.951978
20
-2.54246
11
0.951978
21
-2.56309
0
LINE
8
BLACK
6
CONTINUOUS
10
0.279921
20
-2.49803
11
1.30157
21
-2.49803
0
LINE
8
BLACK
6
CONTINUOUS
10
0.279921
20
-2.43593
11
0.279921
21
-2.52112
0
LINE
8
BLACK
6
CONTINUOUS
10
1.30157
20
-2.43593
11
1.30157
21
-2.52112
0
LINE
8
BLACK
6
CONTINUOUS
10
1.30157
20
-2.49803
11
1.25722
21
-2.52112
0
LINE
8
BLACK
6
CONTINUOUS
10
1.30157
20
-2.49803
11
1.25722
21
-2.47494
0
LINE
8
BLACK
6
CONTINUOUS
10
0.279921
20
-2.49803
11
0.324272
21
-2.52112
0
LINE
8
BLACK
6
CONTINUOUS
10
0.279921
20
-2.49803
11
0.324272
21
-2.47494
0
LINE
8
BLACK
6
CONTINUOUS
10
0.0877015
20
-1.93233
11
0.0877015
21
-1.90983
0
LINE
8
BLACK
6
CONTINUOUS
10
0.0877015
20
-1.92108
11
0.127072
21
-1.92108
0
LINE
8
BLACK
6
CONTINUOUS
10
0.127072
20
-1.92108
11
0.121447
21
-1.91733
0
LINE
8
BLACK
6
CONTINUOUS
10
0.121447
20
-1.91733
11
0.117698
21
-1.91358
0
LINE
8
BLACK
6
CONTINUOUS
10
0.117698
20
-1.91358
11
0.115823
21
-1.90983
0
LINE
8
BLACK
6
CONTINUOUS
10
0.127072
20
-1.94545
11
0.127072
21
-1.9717
0
LINE
8
BLACK
6
CONTINUOUS
10
0.127072
20
-1.9717
11
0.0877015
21
-1.95482
0
LINE
8
BLACK
6
CONTINUOUS
10
0.0914511
20
-1.98669
11
0.0895763
21
-1.98857
0
LINE
8
BLACK
6
CONTINUOUS
10
0.0895763
20
-1.98857
11
0.0877015
21
-1.98669
0
LINE
8
BLACK
6
CONTINUOUS
10
0.0877015
20
-1.98669
11
0.0895763
21
-1.98482
0
LINE
8
BLACK
6
CONTINUOUS
10
0.0895763
20
-1.98482
11
0.0914511
21
-1.98669
0
LINE
8
BLACK
6
CONTINUOUS
10
0.0914511
20
-1.98669
11
0.0877015
21
-1.98669
0
LINE
8
BLACK
6
CONTINUOUS
10
0.127072
20
-2.02419
11
0.127072
21
-2.00544
0
LINE
8
BLACK
6
CONTINUOUS
10
0.127072
20
-2.00544
11
0.108324
21
-2.00357
0
LINE
8
BLACK
6
CONTINUOUS
10
0.108324
20
-2.00357
11
0.110199
21
-2.00544
0
LINE
8
BLACK
6
CONTINUOUS
10
0.110199
20
-2.00544
11
0.112073
21
-2.00919
0
LINE
8
BLACK
6
CONTINUOUS
10
0.112073
20
-2.00919
11
0.112073
21
-2.01856
0
LINE
8
BLACK
6
CONTINUOUS
10
0.112073
20
-2.01856
11
0.110199
21
-2.02231
0
LINE
8
BLACK
6
CONTINUOUS
10
0.110199
20
-2.02231
11
0.108324
21
-2.02419
0
LINE
8
BLACK
6
CONTINUOUS
10
0.108324
20
-2.02419
11
0.104574
21
-2.02606
0
LINE
8
BLACK
6
CONTINUOUS
10
0.104574
20
-2.02606
11
0.0952006
21
-2.02606
0
LINE
8
BLACK
6
CONTINUOUS
10
0.0952006
20
-2.02606
11
0.0914511
21
-2.02419
0
LINE
8
BLACK
6
CONTINUOUS
10
0.0914511
20
-2.02419
11
0.0895763
21
-2.02231
0
LINE
8
BLACK
6
CONTINUOUS
10
0.0895763
20
-2.02231
11
0.0877015
21
-2.01856
0
LINE
8
BLACK
6
CONTINUOUS
10
0.0877015
20
-2.01856
11
0.0877015
21
-2.00919
0
LINE
8
BLACK
6
CONTINUOUS
10
0.0877015
20
-2.00919
11
0.0895763
21
-2.00544
0
LINE
8
BLACK
6
CONTINUOUS
10
0.0895763
20
-2.00544
11
0.0914511
21
-2.00357
0
LINE
8
BLACK
6
CONTINUOUS
10
0.127072
20
-2.06168
11
0.127072
21
-2.04294
0
LINE
8
BLACK
6
CONTINUOUS
10
0.127072
20
-2.04294
11
0.108324
21
-2.04106
0
LINE
8
BLACK
6
CONTINUOUS
10
0.108324
20
-2.04106
11
0.110199
21
-2.04294
0
LINE
8
BLACK
6
CONTINUOUS
10
0.110199
20
-2.04294
11
0.112073
21
-2.04669
0
LINE
8
BLACK
6
CONTINUOUS
10
0.112073
20
-2.04669
11
0.112073
21
-2.05606
0
LINE
8
BLACK
6
CONTINUOUS
10
0.112073
20
-2.05606
11
0.110199
21
-2.05981
0
LINE
8
BLACK
6
CONTINUOUS
10
0.110199
20
-2.05981
11
0.108324
21
-2.06168
0
LINE
8
BLACK
6
CONTINUOUS
10
0.108324
20
-2.06168
11
0.104574
21
-2.06356
0
LINE
8
BLACK
6
CONTINUOUS
10
0.104574
20
-2.06356
11
0.0952006
21
-2.06356
0
LINE
8
BLACK
6
CONTINUOUS
10
0.0952006
20
-2.06356
11
0.0914511
21
-2.06168
0
LINE
8
BLACK
6
CONTINUOUS
10
0.0914511
20
-2.06168
11
0.0895763
21
-2.05981
0
LINE
8
BLACK
6
CONTINUOUS
10
0.0895763
20
-2.05981
11
0.0877015
21
-2.05606
0
LINE
8
BLACK
6
CONTINUOUS
10
0.0877015
20
-2.05606
11
0.0877015
21
-2.04669
0
LINE
8
BLACK
6
CONTINUOUS
10
0.0877015
20
-2.04669
11
0.0895763
21
-2.04294
0
LINE
8
BLACK
6
CONTINUOUS
10
0.0895763
20
-2.04294
11
0.0914511
21
-2.04106
0
LINE
8
BLACK
6
CONTINUOUS
10
0.127072
20
-2.08793
11
0.127072
21
-2.09168
0
LINE
8
BLACK
6
CONTINUOUS
10
0.127072
20
-2.09168
11
0.125197
21
-2.09543
0
LINE
8
BLACK
6
CONTINUOUS
10
0.125197
20
-2.09543
11
0.123322
21
-2.0973
0
LINE
8
BLACK
6
CONTINUOUS
10
0.123322
20
-2.0973
11
0.119573
21
-2.09918
0
LINE
8
BLACK
6
CONTINUOUS
10
0.119573
20
-2.09918
11
0.112073
21
-2.10105
0
LINE
8
BLACK
6
CONTINUOUS
10
0.112073
20
-2.10105
11
0.1027
21
-2.10105
0
LINE
8
BLACK
6
CONTINUOUS
10
0.1027
20
-2.10105
11
0.0952006
21
-2.09918
0
LINE
8
BLACK
6
CONTINUOUS
10
0.0952006
20
-2.09918
11
0.0914511
21
-2.0973
0
LINE
8
BLACK
6
CONTINUOUS
10
0.0914511
20
-2.0973
11
0.0895763
21
-2.09543
0
LINE
8
BLACK
6
CONTINUOUS
10
0.0895763
20
-2.09543
11
0.0877015
21
-2.09168
0
LINE
8
BLACK
6
CONTINUOUS
10
0.0877015
20
-2.09168
11
0.0877015
21
-2.08793
0
LINE
8
BLACK
6
CONTINUOUS
10
0.0877015
20
-2.08793
11
0.0895763
21
-2.08418
0
LINE
8
BLACK
6
CONTINUOUS
10
0.0895763
20
-2.08418
11
0.0914511
21
-2.08231
0
LINE
8
BLACK
6
CONTINUOUS
10
0.0914511
20
-2.08231
11
0.0952006
21
-2.08043
0
LINE
8
BLACK
6
CONTINUOUS
10
0.0952006
20
-2.08043
11
0.1027
21
-2.07856
0
LINE
8
BLACK
6
CONTINUOUS
10
0.1027
20
-2.07856
11
0.112073
21
-2.07856
0
LINE
8
BLACK
6
CONTINUOUS
10
0.112073
20
-2.07856
11
0.119573
21
-2.08043
0
LINE
8
BLACK
6
CONTINUOUS
10
0.119573
20
-2.08043
11
0.123322
21
-2.08231
0
LINE
8
BLACK
6
CONTINUOUS
10
0.123322
20
-2.08231
11
0.125197
21
-2.08418
0
LINE
8
BLACK
6
CONTINUOUS
10
0.125197
20
-2.08418
11
0.127072
21
-2.08793
0
LINE
8
BLACK
6
CONTINUOUS
10
0.0877015
20
-2.14792
11
0.113948
21
-2.14792
0
LINE
8
BLACK
6
CONTINUOUS
10
0.110199
20
-2.14792
11
0.112073
21
-2.1498
0
LINE
8
BLACK
6
CONTINUOUS
10
0.112073
20
-2.1498
11
0.113948
21
-2.15355
0
LINE
8
BLACK
6
CONTINUOUS
10
0.113948
20
-2.15355
11
0.113948
21
-2.15917
0
LINE
8
BLACK
6
CONTINUOUS
10
0.113948
20
-2.15917
11
0.112073
21
-2.16292
0
LINE
8
BLACK
6
CONTINUOUS
10
0.112073
20
-2.16292
11
0.108324
21
-2.1648
0
LINE
8
BLACK
6
CONTINUOUS
10
0.108324
20
-2.1648
11
0.0877015
21
-2.1648
0
LINE
8
BLACK
6
CONTINUOUS
10
0.108324
20
-2.1648
11
0.112073
21
-2.16667
0
LINE
8
BLACK
6
CONTINUOUS
10
0.112073
20
-2.16667
11
0.113948
21
-2.17042
0
LINE
8
BLACK
6
CONTINUOUS
10
0.113948
20
-2.17042
11
0.113948
21
-2.17605
0
LINE
8
BLACK
6
CONTINUOUS
10
0.113948
20
-2.17605
11
0.112073
21
-2.17979
0
LINE
8
BLACK
6
CONTINUOUS
10
0.112073
20
-2.17979
11
0.108324
21
-2.18167
0
LINE
8
BLACK
6
CONTINUOUS
10
0.108324
20
-2.18167
11
0.0877015
21
-2.18167
0
LINE
8
BLACK
6
CONTINUOUS
10
0.0877015
20
-2.20042
11
0.113948
21
-2.20042
0
LINE
8
BLACK
6
CONTINUOUS
10
0.110199
20
-2.20042
11
0.112073
21
-2.20229
0
LINE
8
BLACK
6
CONTINUOUS
10
0.112073
20
-2.20229
11
0.113948
21
-2.20604
0
LINE
8
BLACK
6
CONTINUOUS
10
0.113948
20
-2.20604
11
0.113948
21
-2.21167
0
LINE
8
BLACK
6
CONTINUOUS
10
0.113948
20
-2.21167
11
0.112073
21
-2.21542
0
LINE
8
BLACK
6
CONTINUOUS
10
0.112073
20
-2.21542
11
0.108324
21
-2.21729
0
LINE
8
BLACK
6
CONTINUOUS
10
0.108324
20
-2.21729
11
0.0877015
21
-2.21729
0
LINE
8
BLACK
6
CONTINUOUS
10
0.108324
20
-2.21729
11
0.112073
21
-2.21916
0
LINE
8
BLACK
6
CONTINUOUS
10
0.112073
20
-2.21916
11
0.113948
21
-2.22291
0
LINE
8
BLACK
6
CONTINUOUS
10
0.113948
20
-2.22291
11
0.113948
21
-2.22854
0
LINE
8
BLACK
6
CONTINUOUS
10
0.113948
20
-2.22854
11
0.112073
21
-2.23229
0
LINE
8
BLACK
6
CONTINUOUS
10
0.112073
20
-2.23229
11
0.108324
21
-2.23416
0
LINE
8
BLACK
6
CONTINUOUS
10
0.108324
20
-2.23416
11
0.0877015
21
-2.23416
0
LINE
8
BLACK
6
CONTINUOUS
10
0.152756
20
-1.72746
11
0.152756
21
-2.41841
0
LINE
8
BLACK
6
CONTINUOUS
10
0.201181
20
-1.72746
11
0.129668
21
-1.72746
0
LINE
8
BLACK
6
CONTINUOUS
10
0.201181
20
-2.41841
11
0.129668
21
-2.41841
0
LINE
8
BLACK
6
CONTINUOUS
10
0.152756
20
-2.41841
11
0.129668
21
-2.37405
0
LINE
8
BLACK
6
CONTINUOUS
10
0.152756
20
-2.41841
11
0.175843
21
-2.37405
0
LINE
8
BLACK
6
CONTINUOUS
10
0.152756
20
-1.72746
11
0.129668
21
-1.77181
0
LINE
8
BLACK
6
CONTINUOUS
10
0.152756
20
-1.72746
11
0.175843
21
-1.77181
0
LINE
8
BLACK
6
CONTINUOUS
10
0.0146606
20
-0.534355
11
0.0146606
21
-0.556852
0
LINE
8
BLACK
6
CONTINUOUS
10
0.0146606
20
-0.545604
11
-0.0247094
21
-0.545604
0
LINE
8
BLACK
6
CONTINUOUS
10
-0.0247094
20
-0.545604
11
-0.0190851
21
-0.549353
0
LINE
8
BLACK
6
CONTINUOUS
10
-0.0190851
20
-0.549353
11
-0.0153356
21
-0.553103
0
LINE
8
BLACK
6
CONTINUOUS
10
-0.0153356
20
-0.553103
11
-0.0134608
21
-0.556852
0
LINE
8
BLACK
6
CONTINUOUS
10
-0.0247094
20
-0.509983
11
-0.0247094
21
-0.506234
0
LINE
8
BLACK
6
CONTINUOUS
10
-0.0247094
20
-0.506234
11
-0.0228346
21
-0.502484
0
LINE
8
BLACK
6
CONTINUOUS
10
-0.0228346
20
-0.502484
11
-0.0209598
21
-0.500609
0
LINE
8
BLACK
6
CONTINUOUS
10
-0.0209598
20
-0.500609
11
-0.0172103
21
-0.498735
0
LINE
8
BLACK
6
CONTINUOUS
10
-0.0172103
20
-0.498735
11
-0.00971126
21
-0.49686
0
LINE
8
BLACK
6
CONTINUOUS
10
-0.00971126
20
-0.49686
11
-0.000337441
21
-0.49686
0
LINE
8
BLACK
6
CONTINUOUS
10
-0.000337441
20
-0.49686
11
0.00716157
21
-0.498735
0
LINE
8
BLACK
6
CONTINUOUS
10
0.00716157
20
-0.498735
11
0.0109111
21
-0.500609
0
LINE
8
BLACK
6
CONTINUOUS
10
0.0109111
20
-0.500609
11
0.0127859
21
-0.502484
0
LINE
8
BLACK
6
CONTINUOUS
10
0.0127859
20
-0.502484
11
0.0146606
21
-0.506234
0
LINE
8
BLACK
6
CONTINUOUS
10
0.0146606
20
-0.506234
11
0.0146606
21
-0.509983
0
LINE
8
BLACK
6
CONTINUOUS
10
0.0146606
20
-0.509983
11
0.0127859
21
-0.513733
0
LINE
8
BLACK
6
CONTINUOUS
10
0.0127859
20
-0.513733
11
0.0109111
21
-0.515607
0
LINE
8
BLACK
6
CONTINUOUS
10
0.0109111
20
-0.515607
11
0.00716157
21
-0.517482
0
LINE
8
BLACK
6
CONTINUOUS
10
0.00716157
20
-0.517482
11
-0.000337441
21
-0.519357
0
LINE
8
BLACK
6
CONTINUOUS
10
-0.000337441
20
-0.519357
11
-0.00971126
21
-0.519357
0
LINE
8
BLACK
6
CONTINUOUS
10
-0.00971126
20
-0.519357
11
-0.0172103
21
-0.517482
0
LINE
8
BLACK
6
CONTINUOUS
10
-0.0172103
20
-0.517482
11
-0.0209598
21
-0.515607
0
LINE
8
BLACK
6
CONTINUOUS
10
-0.0209598
20
-0.515607
11
-0.0228346
21
-0.513733
0
LINE
8
BLACK
6
CONTINUOUS
10
-0.0228346
20
-0.513733
11
-0.0247094
21
-0.509983
0
LINE
8
BLACK
6
CONTINUOUS
10
-0.0247094
20
-0.483736
11
-0.0247094
21
-0.459364
0
LINE
8
BLACK
6
CONTINUOUS
10
-0.0247094
20
-0.459364
11
-0.00971126
21
-0.472488
0
LINE
8
BLACK
6
CONTINUOUS
10
-0.00971126
20
-0.472488
11
-0.00971126
21
-0.466864
0
LINE
8
BLACK
6
CONTINUOUS
10
-0.00971126
20
-0.466864
11
-0.0078365
21
-0.463114
0
LINE
8
BLACK
6
CONTINUOUS
10
-0.0078365
20
-0.463114
11
-0.00596173
21
-0.461239
0
LINE
8
BLACK
6
CONTINUOUS
10
-0.00596173
20
-0.461239
11
-0.0022122
21
-0.459364
0
LINE
8
BLACK
6
CONTINUOUS
10
-0.0022122
20
-0.459364
11
0.00716157
21
-0.459364
0
LINE
8
BLACK
6
CONTINUOUS
10
0.00716157
20
-0.459364
11
0.0109111
21
-0.461239
0
LINE
8
BLACK
6
CONTINUOUS
10
0.0109111
20
-0.461239
11
0.0127859
21
-0.463114
0
LINE
8
BLACK
6
CONTINUOUS
10
0.0127859
20
-0.463114
11
0.0146606
21
-0.466864
0
LINE
8
BLACK
6
CONTINUOUS
10
0.0146606
20
-0.466864
11
0.0146606
21
-0.478112
0
LINE
8
BLACK
6
CONTINUOUS
10
0.0146606
20
-0.478112
11
0.0127859
21
-0.481862
0
LINE
8
BLACK
6
CONTINUOUS
10
0.0127859
20
-0.481862
11
0.0109111
21
-0.483736
0
LINE
8
BLACK
6
CONTINUOUS
10
0.0109111
20
-0.442492
11
0.0127859
21
-0.440617
0
LINE
8
BLACK
6
CONTINUOUS
10
0.0127859
20
-0.440617
11
0.0146606
21
-0.442492
0
LINE
8
BLACK
6
CONTINUOUS
10
0.0146606
20
-0.442492
11
0.0127859
21
-0.444366
0
LINE
8
BLACK
6
CONTINUOUS
10
0.0127859
20
-0.444366
11
0.0109111
21
-0.442492
0
LINE
8
BLACK
6
CONTINUOUS
10
0.0109111
20
-0.442492
11
0.0146606
21
-0.442492
0
LINE
8
BLACK
6
CONTINUOUS
10
-0.0078365
20
-0.41812
11
-0.00971126
21
-0.421869
0
LINE
8
BLACK
6
CONTINUOUS
10
-0.00971126
20
-0.421869
11
-0.011586
21
-0.423744
0
LINE
8
BLACK
6
CONTINUOUS
10
-0.011586
20
-0.423744
11
-0.0153356
21
-0.425619
0
LINE
8
BLACK
6
CONTINUOUS
10
-0.0153356
20
-0.425619
11
-0.0172103
21
-0.425619
0
LINE
8
BLACK
6
CONTINUOUS
10
-0.0172103
20
-0.425619
11
-0.0209598
21
-0.423744
0
LINE
8
BLACK
6
CONTINUOUS
10
-0.0209598
20
-0.423744
11
-0.0228346
21
-0.421869
0
LINE
8
BLACK
6
CONTINUOUS
10
-0.0228346
20
-0.421869
11
-0.0247094
21
-0.41812
0
LINE
8
BLACK
6
CONTINUOUS
10
-0.0247094
20
-0.41812
11
-0.0247094
21
-0.410621
0
LINE
8
BLACK
6
CONTINUOUS
10
-0.0247094
20
-0.410621
11
-0.0228346
21
-0.406871
0
LINE
8
BLACK
6
CONTINUOUS
10
-0.0228346
20
-0.406871
11
-0.0209598
21
-0.404996
0
LINE
8
BLACK
6
CONTINUOUS
10
-0.0209598
20
-0.404996
11
-0.0172103
21
-0.403121
0
LINE
8
BLACK
6
CONTINUOUS
10
-0.0172103
20
-0.403121
11
-0.0153356
21
-0.403121
0
LINE
8
BLACK
6
CONTINUOUS
10
-0.0153356
20
-0.403121
11
-0.011586
21
-0.404996
0
LINE
8
BLACK
6
CONTINUOUS
10
-0.011586
20
-0.404996
11
-0.00971126
21
-0.406871
0
LINE
8
BLACK
6
CONTINUOUS
10
-0.00971126
20
-0.406871
11
-0.0078365
21
-0.410621
0
LINE
8
BLACK
6
CONTINUOUS
10
-0.0078365
20
-0.410621
11
-0.0078365
21
-0.41812
0
LINE
8
BLACK
6
CONTINUOUS
10
-0.0078365
20
-0.41812
11
-0.00596173
21
-0.421869
0
LINE
8
BLACK
6
CONTINUOUS
10
-0.00596173
20
-0.421869
11
-0.00408697
21
-0.423744
0
LINE
8
BLACK
6
CONTINUOUS
10
-0.00408697
20
-0.423744
11
-0.000337441
21
-0.425619
0
LINE
8
BLACK
6
CONTINUOUS
10
-0.000337441
20
-0.425619
11
0.00716157
21
-0.425619
0
LINE
8
BLACK
6
CONTINUOUS
10
0.00716157
20
-0.425619
11
0.0109111
21
-0.423744
0
LINE
8
BLACK
6
CONTINUOUS
10
0.0109111
20
-0.423744
11
0.0127859
21
-0.421869
0
LINE
8
BLACK
6
CONTINUOUS
10
0.0127859
20
-0.421869
11
0.0146606
21
-0.41812
0
LINE
8
BLACK
6
CONTINUOUS
10
0.0146606
20
-0.41812
11
0.0146606
21
-0.410621
0
LINE
8
BLACK
6
CONTINUOUS
10
0.0146606
20
-0.410621
11
0.0127859
21
-0.406871
0
LINE
8
BLACK
6
CONTINUOUS
10
0.0127859
20
-0.406871
11
0.0109111
21
-0.404996
0
LINE
8
BLACK
6
CONTINUOUS
10
0.0109111
20
-0.404996
11
0.00716157
21
-0.403121
0
LINE
8
BLACK
6
CONTINUOUS
10
0.00716157
20
-0.403121
11
-0.000337441
21
-0.403121
0
LINE
8
BLACK
6
CONTINUOUS
10
-0.000337441
20
-0.403121
11
-0.00408697
21
-0.404996
0
LINE
8
BLACK
6
CONTINUOUS
10
-0.00408697
20
-0.404996
11
-0.00596173
21
-0.406871
0
LINE
8
BLACK
6
CONTINUOUS
10
-0.00596173
20
-0.406871
11
-0.0078365
21
-0.410621
0
LINE
8
BLACK
6
CONTINUOUS
10
-0.0247094
20
-0.37875
11
-0.0247094
21
-0.375
0
LINE
8
BLACK
6
CONTINUOUS
10
-0.0247094
20
-0.375
11
-0.0228346
21
-0.37125
0
LINE
8
BLACK
6
CONTINUOUS
10
-0.0228346
20
-0.37125
11
-0.0209598
21
-0.369376
0
LINE
8
BLACK
6
CONTINUOUS
10
-0.0209598
20
-0.369376
11
-0.0172103
21
-0.367501
0
LINE
8
BLACK
6
CONTINUOUS
10
-0.0172103
20
-0.367501
11
-0.00971126
21
-0.365626
0
LINE
8
BLACK
6
CONTINUOUS
10
-0.00971126
20
-0.365626
11
-0.000337441
21
-0.365626
0
LINE
8
BLACK
6
CONTINUOUS
10
-0.000337441
20
-0.365626
11
0.00716157
21
-0.367501
0
LINE
8
BLACK
6
CONTINUOUS
10
0.00716157
20
-0.367501
11
0.0109111
21
-0.369376
0
LINE
8
BLACK
6
CONTINUOUS
10
0.0109111
20
-0.369376
11
0.0127859
21
-0.37125
0
LINE
8
BLACK
6
CONTINUOUS
10
0.0127859
20
-0.37125
11
0.0146606
21
-0.375
0
LINE
8
BLACK
6
CONTINUOUS
10
0.0146606
20
-0.375
11
0.0146606
21
-0.37875
0
LINE
8
BLACK
6
CONTINUOUS
10
0.0146606
20
-0.37875
11
0.0127859
21
-0.382499
0
LINE
8
BLACK
6
CONTINUOUS
10
0.0127859
20
-0.382499
11
0.0109111
21
-0.384374
0
LINE
8
BLACK
6
CONTINUOUS
10
0.0109111
20
-0.384374
11
0.00716157
21
-0.386249
0
LINE
8
BLACK
6
CONTINUOUS
10
0.00716157
20
-0.386249
11
-0.000337441
21
-0.388123
0
LINE
8
BLACK
6
CONTINUOUS
10
-0.000337441
20
-0.388123
11
-0.00971126
21
-0.388123
0
LINE
8
BLACK
6
CONTINUOUS
10
-0.00971126
20
-0.388123
11
-0.0172103
21
-0.386249
0
LINE
8
BLACK
6
CONTINUOUS
10
-0.0172103
20
-0.386249
11
-0.0209598
21
-0.384374
0
LINE
8
BLACK
6
CONTINUOUS
10
-0.0209598
20
-0.384374
11
-0.0228346
21
-0.382499
0
LINE
8
BLACK
6
CONTINUOUS
10
-0.0228346
20
-0.382499
11
-0.0247094
21
-0.37875
0
LINE
8
BLACK
6
CONTINUOUS
10
-0.0247094
20
-0.330006
11
-0.0247094
21
-0.348753
0
LINE
8
BLACK
6
CONTINUOUS
10
-0.0247094
20
-0.348753
11
-0.00596173
21
-0.350628
0
LINE
8
BLACK
6
CONTINUOUS
10
-0.00596173
20
-0.350628
11
-0.0078365
21
-0.348753
0
LINE
8
BLACK
6
CONTINUOUS
10
-0.0078365
20
-0.348753
11
-0.00971126
21
-0.345004
0
LINE
8
BLACK
6
CONTINUOUS
10
-0.00971126
20
-0.345004
11
-0.00971126
21
-0.33563
0
LINE
8
BLACK
6
CONTINUOUS
10
-0.00971126
20
-0.33563
11
-0.0078365
21
-0.33188
0
LINE
8
BLACK
6
CONTINUOUS
10
-0.0078365
20
-0.33188
11
-0.00596173
21
-0.330006
0
LINE
8
BLACK
6
CONTINUOUS
10
-0.00596173
20
-0.330006
11
-0.0022122
21
-0.328131
0
LINE
8
BLACK
6
CONTINUOUS
10
-0.0022122
20
-0.328131
11
0.00716157
21
-0.328131
0
LINE
8
BLACK
6
CONTINUOUS
10
0.00716157
20
-0.328131
11
0.0109111
21
-0.330006
0
LINE
8
BLACK
6
CONTINUOUS
10
0.0109111
20
-0.330006
11
0.0127859
21
-0.33188
0
LINE
8
BLACK
6
CONTINUOUS
10
0.0127859
20
-0.33188
11
0.0146606
21
-0.33563
0
LINE
8
BLACK
6
CONTINUOUS
10
0.0146606
20
-0.33563
11
0.0146606
21
-0.345004
0
LINE
8
BLACK
6
CONTINUOUS
10
0.0146606
20
-0.345004
11
0.0127859
21
-0.348753
0
LINE
8
BLACK
6
CONTINUOUS
10
0.0127859
20
-0.348753
11
0.0109111
21
-0.350628
0
LINE
8
BLACK
6
CONTINUOUS
10
0.0146606
20
-0.281262
11
-0.011586
21
-0.281262
0
LINE
8
BLACK
6
CONTINUOUS
10
-0.0078365
20
-0.281262
11
-0.00971126
21
-0.279387
0
LINE
8
BLACK
6
CONTINUOUS
10
-0.00971126
20
-0.279387
11
-0.011586
21
-0.275637
0
LINE
8
BLACK
6
CONTINUOUS
10
-0.011586
20
-0.275637
11
-0.011586
21
-0.270013
0
LINE
8
BLACK
6
CONTINUOUS
10
-0.011586
20
-0.270013
11
-0.00971126
21
-0.266264
0
LINE
8
BLACK
6
CONTINUOUS
10
-0.00971126
20
-0.266264
11
-0.00596173
21
-0.264389
0
LINE
8
BLACK
6
CONTINUOUS
10
-0.00596173
20
-0.264389
11
0.0146606
21
-0.264389
0
LINE
8
BLACK
6
CONTINUOUS
10
-0.00596173
20
-0.264389
11
-0.00971126
21
-0.262514
0
LINE
8
BLACK
6
CONTINUOUS
10
-0.00971126
20
-0.262514
11
-0.011586
21
-0.258765
0
LINE
8
BLACK
6
CONTINUOUS
10
-0.011586
20
-0.258765
11
-0.011586
21
-0.25314
0
LINE
8
BLACK
6
CONTINUOUS
10
-0.011586
20
-0.25314
11
-0.00971126
21
-0.249391
0
LINE
8
BLACK
6
CONTINUOUS
10
-0.00971126
20
-0.249391
11
-0.00596173
21
-0.247516
0
LINE
8
BLACK
6
CONTINUOUS
10
-0.00596173
20
-0.247516
11
0.0146606
21
-0.247516
0
LINE
8
BLACK
6
CONTINUOUS
10
0.0146606
20
-0.228768
11
-0.011586
21
-0.228768
0
LINE
8
BLACK
6
CONTINUOUS
10
-0.0078365
20
-0.228768
11
-0.00971126
21
-0.226894
0
LINE
8
BLACK
6
CONTINUOUS
10
-0.00971126
20
-0.226894
11
-0.011586
21
-0.223144
0
LINE
8
BLACK
6
CONTINUOUS
10
-0.011586
20
-0.223144
11
-0.011586
21
-0.21752
0
LINE
8
BLACK
6
CONTINUOUS
10
-0.011586
20
-0.21752
11
-0.00971126
21
-0.21377
0
LINE
8
BLACK
6
CONTINUOUS
10
-0.00971126
20
-0.21377
11
-0.00596173
21
-0.211895
0
LINE
8
BLACK
6
CONTINUOUS
10
-0.00596173
20
-0.211895
11
0.0146606
21
-0.211895
0
LINE
8
BLACK
6
CONTINUOUS
10
-0.00596173
20
-0.211895
11
-0.00971126
21
-0.210021
0
LINE
8
BLACK
6
CONTINUOUS
10
-0.00971126
20
-0.210021
11
-0.011586
21
-0.206271
0
LINE
8
BLACK
6
CONTINUOUS
10
-0.011586
20
-0.206271
11
-0.011586
21
-0.200647
0
LINE
8
BLACK
6
CONTINUOUS
10
-0.011586
20
-0.200647
11
-0.00971126
21
-0.196897
0
LINE
8
BLACK
6
CONTINUOUS
10
-0.00971126
20
-0.196897
11
-0.00596173
21
-0.195022
0
LINE
8
BLACK
6
CONTINUOUS
10
-0.00596173
20
-0.195022
11
0.0146606
21
-0.195022
0
LINE
8
BLACK
6
CONTINUOUS
10
0.0440945
20
-2.41841
11
0.0440945
21
1.66841
0
LINE
8
BLACK
6
CONTINUOUS
10
0.223031
20
-2.41841
11
0.021007
21
-2.41841
0
LINE
8
BLACK
6
CONTINUOUS
10
0.223031
20
1.66841
11
0.021007
21
1.66841
0
LINE
8
BLACK
6
CONTINUOUS
10
0.0440945
20
1.66841
11
0.0671819
21
1.62405
0
LINE
8
BLACK
6
CONTINUOUS
10
0.0440945
20
1.66841
11
0.021007
21
1.62405
0
LINE
8
BLACK
6
CONTINUOUS
10
0.0440945
20
-2.41841
11
0.0671819
21
-2.37405
0
LINE
8
BLACK
6
CONTINUOUS
10
0.0440945
20
-2.41841
11
0.021007
21
-2.37405
0
LINE
8
BLACK
6
CONTINUOUS
10
3.81978
20
1.80502
11
3.79728
21
1.80502
0
LINE
8
BLACK
6
CONTINUOUS
10
3.80853
20
1.80502
11
3.80853
21
1.84439
0
LINE
8
BLACK
6
CONTINUOUS
10
3.80853
20
1.84439
11
3.80478
21
1.83877
0
LINE
8
BLACK
6
CONTINUOUS
10
3.80478
20
1.83877
11
3.80103
21
1.83502
0
LINE
8
BLACK
6
CONTINUOUS
10
3.80103
20
1.83502
11
3.79728
21
1.83315
0
LINE
8
BLACK
6
CONTINUOUS
10
3.84228
20
1.82752
11
3.83853
21
1.8294
0
LINE
8
BLACK
6
CONTINUOUS
10
3.83853
20
1.8294
11
3.83665
21
1.83127
0
LINE
8
BLACK
6
CONTINUOUS
10
3.83665
20
1.83127
11
3.83478
21
1.83502
0
LINE
8
BLACK
6
CONTINUOUS
10
3.83478
20
1.83502
11
3.83478
21
1.8369
0
LINE
8
BLACK
6
CONTINUOUS
10
3.83478
20
1.8369
11
3.83665
21
1.84064
0
LINE
8
BLACK
6
CONTINUOUS
10
3.83665
20
1.84064
11
3.83853
21
1.84252
0
LINE
8
BLACK
6
CONTINUOUS
10
3.83853
20
1.84252
11
3.84228
21
1.84439
0
LINE
8
BLACK
6
CONTINUOUS
10
3.84228
20
1.84439
11
3.84977
21
1.84439
0
LINE
8
BLACK
6
CONTINUOUS
10
3.84977
20
1.84439
11
3.85352
21
1.84252
0
LINE
8
BLACK
6
CONTINUOUS
10
3.85352
20
1.84252
11
3.8554
21
1.84064
0
LINE
8
BLACK
6
CONTINUOUS
10
3.8554
20
1.84064
11
3.85727
21
1.8369
0
LINE
8
BLACK
6
CONTINUOUS
10
3.85727
20
1.8369
11
3.85727
21
1.83502
0
LINE
8
BLACK
6
CONTINUOUS
10
3.85727
20
1.83502
11
3.8554
21
1.83127
0
LINE
8
BLACK
6
CONTINUOUS
10
3.8554
20
1.83127
11
3.85352
21
1.8294
0
LINE
8
BLACK
6
CONTINUOUS
10
3.85352
20
1.8294
11
3.84977
21
1.82752
0
LINE
8
BLACK
6
CONTINUOUS
10
3.84977
20
1.82752
11
3.84228
21
1.82752
0
LINE
8
BLACK
6
CONTINUOUS
10
3.84228
20
1.82752
11
3.83853
21
1.82565
0
LINE
8
BLACK
6
CONTINUOUS
10
3.83853
20
1.82565
11
3.83665
21
1.82377
0
LINE
8
BLACK
6
CONTINUOUS
10
3.83665
20
1.82377
11
3.83478
21
1.82002
0
LINE
8
BLACK
6
CONTINUOUS
10
3.83478
20
1.82002
11
3.83478
21
1.81252
0
LINE
8
BLACK
6
CONTINUOUS
10
3.83478
20
1.81252
11
3.83665
21
1.80877
0
LINE
8
BLACK
6
CONTINUOUS
10
3.83665
20
1.80877
11
3.83853
21
1.8069
0
LINE
8
BLACK
6
CONTINUOUS
10
3.83853
20
1.8069
11
3.84228
21
1.80502
0
LINE
8
BLACK
6
CONTINUOUS
10
3.84228
20
1.80502
11
3.84977
21
1.80502
0
LINE
8
BLACK
6
CONTINUOUS
10
3.84977
20
1.80502
11
3.85352
21
1.8069
0
LINE
8
BLACK
6
CONTINUOUS
10
3.85352
20
1.8069
11
3.8554
21
1.80877
0
LINE
8
BLACK
6
CONTINUOUS
10
3.8554
20
1.80877
11
3.85727
21
1.81252
0
LINE
8
BLACK
6
CONTINUOUS
10
3.85727
20
1.81252
11
3.85727
21
1.82002
0
LINE
8
BLACK
6
CONTINUOUS
10
3.85727
20
1.82002
11
3.8554
21
1.82377
0
LINE
8
BLACK
6
CONTINUOUS
10
3.8554
20
1.82377
11
3.85352
21
1.82565
0
LINE
8
BLACK
6
CONTINUOUS
10
3.85352
20
1.82565
11
3.84977
21
1.82752
0
LINE
8
BLACK
6
CONTINUOUS
10
3.8704
20
1.84439
11
3.89664
21
1.84439
0
LINE
8
BLACK
6
CONTINUOUS
10
3.89664
20
1.84439
11
3.87977
21
1.80502
0
LINE
8
BLACK
6
CONTINUOUS
10
3.91164
20
1.80877
11
3.91352
21
1.8069
0
LINE
8
BLACK
6
CONTINUOUS
10
3.91352
20
1.8069
11
3.91164
21
1.80502
0
LINE
8
BLACK
6
CONTINUOUS
10
3.91164
20
1.80502
11
3.90977
21
1.8069
0
LINE
8
BLACK
6
CONTINUOUS
10
3.90977
20
1.8069
11
3.91164
21
1.80877
0
LINE
8
BLACK
6
CONTINUOUS
10
3.91164
20
1.80877
11
3.91164
21
1.80502
0
LINE
8
BLACK
6
CONTINUOUS
10
3.93226
20
1.80502
11
3.93976
21
1.80502
0
LINE
8
BLACK
6
CONTINUOUS
10
3.93976
20
1.80502
11
3.94351
21
1.8069
0
LINE
8
BLACK
6
CONTINUOUS
10
3.94351
20
1.8069
11
3.94539
21
1.80877
0
LINE
8
BLACK
6
CONTINUOUS
10
3.94539
20
1.80877
11
3.94914
21
1.8144
0
LINE
8
BLACK
6
CONTINUOUS
10
3.94914
20
1.8144
11
3.95101
21
1.8219
0
LINE
8
BLACK
6
CONTINUOUS
10
3.95101
20
1.8219
11
3.95101
21
1.8369
0
LINE
8
BLACK
6
CONTINUOUS
10
3.95101
20
1.8369
11
3.94914
21
1.84064
0
LINE
8
BLACK
6
CONTINUOUS
10
3.94914
20
1.84064
11
3.94726
21
1.84252
0
LINE
8
BLACK
6
CONTINUOUS
10
3.94726
20
1.84252
11
3.94351
21
1.84439
0
LINE
8
BLACK
6
CONTINUOUS
10
3.94351
20
1.84439
11
3.93601
21
1.84439
0
LINE
8
BLACK
6
CONTINUOUS
10
3.93601
20
1.84439
11
3.93226
21
1.84252
0
LINE
8
BLACK
6
CONTINUOUS
10
3.93226
20
1.84252
11
3.93039
21
1.84064
0
LINE
8
BLACK
6
CONTINUOUS
10
3.93039
20
1.84064
11
3.92852
21
1.8369
0
LINE
8
BLACK
6
CONTINUOUS
10
3.92852
20
1.8369
11
3.92852
21
1.82752
0
LINE
8
BLACK
6
CONTINUOUS
10
3.92852
20
1.82752
11
3.93039
21
1.82377
0
LINE
8
BLACK
6
CONTINUOUS
10
3.93039
20
1.82377
11
3.93226
21
1.8219
0
LINE
8
BLACK
6
CONTINUOUS
10
3.93226
20
1.8219
11
3.93601
21
1.82002
0
LINE
8
BLACK
6
CONTINUOUS
10
3.93601
20
1.82002
11
3.94351
21
1.82002
0
LINE
8
BLACK
6
CONTINUOUS
10
3.94351
20
1.82002
11
3.94726
21
1.8219
0
LINE
8
BLACK
6
CONTINUOUS
10
3.94726
20
1.8219
11
3.94914
21
1.82377
0
LINE
8
BLACK
6
CONTINUOUS
10
3.94914
20
1.82377
11
3.95101
21
1.82752
0
LINE
8
BLACK
6
CONTINUOUS
10
3.96601
20
1.84064
11
3.96789
21
1.84252
0
LINE
8
BLACK
6
CONTINUOUS
10
3.96789
20
1.84252
11
3.97163
21
1.84439
0
LINE
8
BLACK
6
CONTINUOUS
10
3.97163
20
1.84439
11
3.98101
21
1.84439
0
LINE
8
BLACK
6
CONTINUOUS
10
3.98101
20
1.84439
11
3.98476
21
1.84252
0
LINE
8
BLACK
6
CONTINUOUS
10
3.98476
20
1.84252
11
3.98663
21
1.84064
0
LINE
8
BLACK
6
CONTINUOUS
10
3.98663
20
1.84064
11
3.98851
21
1.8369
0
LINE
8
BLACK
6
CONTINUOUS
10
3.98851
20
1.8369
11
3.98851
21
1.83315
0
LINE
8
BLACK
6
CONTINUOUS
10
3.98851
20
1.83315
11
3.98663
21
1.82752
0
LINE
8
BLACK
6
CONTINUOUS
10
3.98663
20
1.82752
11
3.96414
21
1.80502
0
LINE
8
BLACK
6
CONTINUOUS
10
3.96414
20
1.80502
11
3.98851
21
1.80502
0
LINE
8
BLACK
6
CONTINUOUS
10
4.01288
20
1.84439
11
4.01663
21
1.84439
0
LINE
8
BLACK
6
CONTINUOUS
10
4.01663
20
1.84439
11
4.02038
21
1.84252
0
LINE
8
BLACK
6
CONTINUOUS
10
4.02038
20
1.84252
11
4.02225
21
1.84064
0
LINE
8
BLACK
6
CONTINUOUS
10
4.02225
20
1.84064
11
4.02413
21
1.8369
0
LINE
8
BLACK
6
CONTINUOUS
10
4.02413
20
1.8369
11
4.026
21
1.8294
0
LINE
8
BLACK
6
CONTINUOUS
10
4.026
20
1.8294
11
4.026
21
1.82002
0
LINE
8
BLACK
6
CONTINUOUS
10
4.026
20
1.82002
11
4.02413
21
1.81252
0
LINE
8
BLACK
6
CONTINUOUS
10
4.02413
20
1.81252
11
4.02225
21
1.80877
0
LINE
8
BLACK
6
CONTINUOUS
10
4.02225
20
1.80877
11
4.02038
21
1.8069
0
LINE
8
BLACK
6
CONTINUOUS
10
4.02038
20
1.8069
11
4.01663
21
1.80502
0
LINE
8
BLACK
6
CONTINUOUS
10
4.01663
20
1.80502
11
4.01288
21
1.80502
0
LINE
8
BLACK
6
CONTINUOUS
10
4.01288
20
1.80502
11
4.00913
21
1.8069
0
LINE
8
BLACK
6
CONTINUOUS
10
4.00913
20
1.8069
11
4.00726
21
1.80877
0
LINE
8
BLACK
6
CONTINUOUS
10
4.00726
20
1.80877
11
4.00538
21
1.81252
0
LINE
8
BLACK
6
CONTINUOUS
10
4.00538
20
1.81252
11
4.00351
21
1.82002
0
LINE
8
BLACK
6
CONTINUOUS
10
4.00351
20
1.82002
11
4.00351
21
1.8294
0
LINE
8
BLACK
6
CONTINUOUS
10
4.00351
20
1.8294
11
4.00538
21
1.8369
0
LINE
8
BLACK
6
CONTINUOUS
10
4.00538
20
1.8369
11
4.00726
21
1.84064
0
LINE
8
BLACK
6
CONTINUOUS
10
4.00726
20
1.84064
11
4.00913
21
1.84252
0
LINE
8
BLACK
6
CONTINUOUS
10
4.00913
20
1.84252
11
4.01288
21
1.84439
0
LINE
8
BLACK
6
CONTINUOUS
10
4.07287
20
1.80502
11
4.07287
21
1.83127
0
LINE
8
BLACK
6
CONTINUOUS
10
4.07287
20
1.82752
11
4.07475
21
1.8294
0
LINE
8
BLACK
6
CONTINUOUS
10
4.07475
20
1.8294
11
4.0785
21
1.83127
0
LINE
8
BLACK
6
CONTINUOUS
10
4.0785
20
1.83127
11
4.08412
21
1.83127
0
LINE
8
BLACK
6
CONTINUOUS
10
4.08412
20
1.83127
11
4.08787
21
1.8294
0
LINE
8
BLACK
6
CONTINUOUS
10
4.08787
20
1.8294
11
4.08974
21
1.82565
0
LINE
8
BLACK
6
CONTINUOUS
10
4.08974
20
1.82565
11
4.08974
21
1.80502
0
LINE
8
BLACK
6
CONTINUOUS
10
4.08974
20
1.82565
11
4.09162
21
1.8294
0
LINE
8
BLACK
6
CONTINUOUS
10
4.09162
20
1.8294
11
4.09537
21
1.83127
0
LINE
8
BLACK
6
CONTINUOUS
10
4.09537
20
1.83127
11
4.10099
21
1.83127
0
LINE
8
BLACK
6
CONTINUOUS
10
4.10099
20
1.83127
11
4.10474
21
1.8294
0
LINE
8
BLACK
6
CONTINUOUS
10
4.10474
20
1.8294
11
4.10662
21
1.82565
0
LINE
8
BLACK
6
CONTINUOUS
10
4.10662
20
1.82565
11
4.10662
21
1.80502
0
LINE
8
BLACK
6
CONTINUOUS
10
4.12537
20
1.80502
11
4.12537
21
1.83127
0
LINE
8
BLACK
6
CONTINUOUS
10
4.12537
20
1.82752
11
4.12724
21
1.8294
0
LINE
8
BLACK
6
CONTINUOUS
10
4.12724
20
1.8294
11
4.13099
21
1.83127
0
LINE
8
BLACK
6
CONTINUOUS
10
4.13099
20
1.83127
11
4.13661
21
1.83127
0
LINE
8
BLACK
6
CONTINUOUS
10
4.13661
20
1.83127
11
4.14036
21
1.8294
0
LINE
8
BLACK
6
CONTINUOUS
10
4.14036
20
1.8294
11
4.14224
21
1.82565
0
LINE
8
BLACK
6
CONTINUOUS
10
4.14224
20
1.82565
11
4.14224
21
1.80502
0
LINE
8
BLACK
6
CONTINUOUS
10
4.14224
20
1.82565
11
4.14411
21
1.8294
0
LINE
8
BLACK
6
CONTINUOUS
10
4.14411
20
1.8294
11
4.14786
21
1.83127
0
LINE
8
BLACK
6
CONTINUOUS
10
4.14786
20
1.83127
11
4.15349
21
1.83127
0
LINE
8
BLACK
6
CONTINUOUS
10
4.15349
20
1.83127
11
4.15724
21
1.8294
0
LINE
8
BLACK
6
CONTINUOUS
10
4.15724
20
1.8294
11
4.15911
21
1.82565
0
LINE
8
BLACK
6
CONTINUOUS
10
4.15911
20
1.82565
11
4.15911
21
1.80502
0
LINE
8
BLACK
6
CONTINUOUS
10
0.279921
20
1.77559
11
7.67835
21
1.77559
0
LINE
8
BLACK
6
CONTINUOUS
10
0.279921
20
1.74144
11
0.279921
21
1.79868
0
LINE
8
BLACK
6
CONTINUOUS
10
7.67835
20
1.74144
11
7.67835
21
1.79868
0
LINE
8
BLACK
6
CONTINUOUS
10
7.67835
20
1.77559
11
7.634
21
1.7525
0
LINE
8
BLACK
6
CONTINUOUS
10
7.67835
20
1.77559
11
7.634
21
1.79868
0
LINE
8
BLACK
6
CONTINUOUS
10
0.279921
20
1.77559
11
0.324272
21
1.7525
0
LINE
8
BLACK
6
CONTINUOUS
10
0.279921
20
1.77559
11
0.324272
21
1.79868
0
LINE
8
BLACK
6
CONTINUOUS
10
2.43199
20
-2.08159
11
6.63484
21
-2.08159
0
LINE
8
BLACK
6
CONTINUOUS
10
2.43199
20
-2.08159
11
1.49085
21
-2.08159
0
LINE
8
BLACK
6
CONTINUOUS
10
0.552165
20
-1.20463
11
0.279921
21
-1.72746
0
ARC
8
BLACK
10
1.32224
20
-2.10226
40
0.020703
50
93.2705
51
183.27
0
ARC
8
BLACK
10
1.28091
20
-2.39774
40
0.020703
50
-86.7295
51
3.27049
0
ARC
8
BLACK
10
0.300591
20
-2.39774
40
0.020703
50
-176.73
51
-86.7295
0
ARC
8
BLACK
10
6.63602
20
-2.10226
40
0.020703
50
3.27049
51
93.2705
0
ARC
8
BLACK
10
6.67736
20
-2.39774
40
0.020703
50
-176.73
51
-86.7295
0
ARC
8
BLACK
10
7.65768
20
-2.39774
40
0.020703
50
-86.7295
51
3.27049
0
ARC
8
BLACK
10
7.65768
20
1.64774
40
0.0206693
50
-0
51
90
0
LINE
8
BLACK
6
CONTINUOUS
10
7.67835
20
-0.581496
11
7.67835
21
-2.39656
0
LINE
8
BLACK
6
CONTINUOUS
10
6.67854
20
-2.41841
11
7.65886
21
-2.41841
0
LINE
8
BLACK
6
CONTINUOUS
10
6.65669
20
-2.39892
11
6.65669
21
-2.10108
0
LINE
8
BLACK
6
CONTINUOUS
10
1.32106
20
-2.08159
11
1.49085
21
-2.08159
0
LINE
8
BLACK
6
CONTINUOUS
10
1.30157
20
-2.39656
11
1.30157
21
-2.10344
0
LINE
8
BLACK
6
CONTINUOUS
10
0.301772
20
-2.41841
11
1.28209
21
-2.41841
0
LINE
8
BLACK
6
CONTINUOUS
10
0.279921
20
-2.39892
11
0.279921
21
-1.72746
0
LINE
8
BLACK
6
CONTINUOUS
10
7.67835
20
1.64774
11
7.67835
21
-0.581496
0
LINE
8
BLACK
6
CONTINUOUS
10
7.65768
20
1.66841
11
0.571654
21
1.66841
0
ARC
8
BLACK
10
0.572835
20
1.64774
40
0.020703
50
93.2705
51
183.27
0
LINE
8
BLACK
6
CONTINUOUS
10
0.552165
20
1.64656
11
0.552165
21
-1.20463
0
LINE
8
BLACK
6
CONTINUOUS
10
0.797423
20
-1.51451
11
0.801801
21
-1.51538
0
LINE
8
BLACK
6
CONTINUOUS
10
0.801801
20
-1.51538
11
0.810047
21
-1.5188
0
LINE
8
BLACK
6
CONTINUOUS
10
0.810047
20
-1.5188
11
0.817469
21
-1.52376
0
LINE
8
BLACK
6
CONTINUOUS
10
0.817469
20
-1.52376
11
0.823781
21
-1.53007
0
LINE
8
BLACK
6
CONTINUOUS
10
0.823781
20
-1.53007
11
0.82874
21
-1.53749
0
LINE
8
BLACK
6
CONTINUOUS
10
0.82874
20
-1.53749
11
0.832156
21
-1.54574
0
LINE
8
BLACK
6
CONTINUOUS
10
0.832156
20
-1.54574
11
0.833898
21
-1.55449
0
LINE
8
BLACK
6
CONTINUOUS
10
0.833898
20
-1.55449
11
0.833898
21
-1.56342
0
LINE
8
BLACK
6
CONTINUOUS
10
0.833898
20
-1.56342
11
0.832156
21
-1.57217
0
LINE
8
BLACK
6
CONTINUOUS
10
0.832156
20
-1.57217
11
0.82874
21
-1.58042
0
LINE
8
BLACK
6
CONTINUOUS
10
0.82874
20
-1.58042
11
0.823781
21
-1.58784
0
LINE
8
BLACK
6
CONTINUOUS
10
0.823781
20
-1.58784
11
0.817469
21
-1.59416
0
LINE
8
BLACK
6
CONTINUOUS
10
0.817469
20
-1.59416
11
0.810047
21
-1.59911
0
LINE
8
BLACK
6
CONTINUOUS
10
0.810047
20
-1.59911
11
0.801801
21
-1.60253
0
LINE
8
BLACK
6
CONTINUOUS
10
0.801801
20
-1.60253
11
0.797423
21
-1.6034
0
LINE
8
BLACK
6
CONTINUOUS
10
0.797423
20
-1.6034
11
0.793046
21
-1.60427
0
LINE
8
BLACK
6
CONTINUOUS
10
0.793046
20
-1.60427
11
0.784119
21
-1.60427
0
LINE
8
BLACK
6
CONTINUOUS
10
0.784119
20
-1.60427
11
0.779742
21
-1.6034
0
LINE
8
BLACK
6
CONTINUOUS
10
0.779742
20
-1.6034
11
0.775365
21
-1.60253
0
LINE
8
BLACK
6
CONTINUOUS
10
0.775365
20
-1.60253
11
0.767118
21
-1.59911
0
LINE
8
BLACK
6
CONTINUOUS
10
0.767118
20
-1.59911
11
0.759696
21
-1.59416
0
LINE
8
BLACK
6
CONTINUOUS
10
0.759696
20
-1.59416
11
0.753384
21
-1.58784
0
LINE
8
BLACK
6
CONTINUOUS
10
0.753384
20
-1.58784
11
0.748425
21
-1.58042
0
LINE
8
BLACK
6
CONTINUOUS
10
0.748425
20
-1.58042
11
0.745009
21
-1.57217
0
LINE
8
BLACK
6
CONTINUOUS
10
0.745009
20
-1.57217
11
0.743268
21
-1.56342
0
LINE
8
BLACK
6
CONTINUOUS
10
0.743268
20
-1.56342
11
0.743268
21
-1.55449
0
LINE
8
BLACK
6
CONTINUOUS
10
0.743268
20
-1.55449
11
0.745009
21
-1.54574
0
LINE
8
BLACK
6
CONTINUOUS
10
0.745009
20
-1.54574
11
0.748425
21
-1.53749
0
LINE
8
BLACK
6
CONTINUOUS
10
0.748425
20
-1.53749
11
0.753384
21
-1.53007
0
LINE
8
BLACK
6
CONTINUOUS
10
0.753384
20
-1.53007
11
0.759696
21
-1.52376
0
LINE
8
BLACK
6
CONTINUOUS
10
0.759696
20
-1.52376
11
0.767118
21
-1.5188
0
LINE
8
BLACK
6
CONTINUOUS
10
0.767118
20
-1.5188
11
0.775365
21
-1.51538
0
LINE
8
BLACK
6
CONTINUOUS
10
0.775365
20
-1.51538
11
0.779742
21
-1.51451
0
LINE
8
BLACK
6
CONTINUOUS
10
0.779742
20
-1.51451
11
0.784119
21
-1.51364
0
LINE
8
BLACK
6
CONTINUOUS
10
0.784119
20
-1.51364
11
0.793046
21
-1.51364
0
LINE
8
BLACK
6
CONTINUOUS
10
0.793046
20
-1.51364
11
0.797423
21
-1.51451
0
LINE
8
BLACK
6
CONTINUOUS
10
6.82026
20
-1.27042
11
6.82464
21
-1.27129
0
LINE
8
BLACK
6
CONTINUOUS
10
6.82464
20
-1.27129
11
6.83288
21
-1.2747
0
LINE
8
BLACK
6
CONTINUOUS
10
6.83288
20
-1.2747
11
6.8403
21
-1.27966
0
LINE
8
BLACK
6
CONTINUOUS
10
6.8403
20
-1.27966
11
6.84662
21
-1.28598
0
LINE
8
BLACK
6
CONTINUOUS
10
6.84662
20
-1.28598
11
6.85157
21
-1.2934
0
LINE
8
BLACK
6
CONTINUOUS
10
6.85157
20
-1.2934
11
6.85499
21
-1.30164
0
LINE
8
BLACK
6
CONTINUOUS
10
6.85499
20
-1.30164
11
6.85673
21
-1.3104
0
LINE
8
BLACK
6
CONTINUOUS
10
6.85673
20
-1.3104
11
6.85673
21
-1.31933
0
LINE
8
BLACK
6
CONTINUOUS
10
6.85673
20
-1.31933
11
6.85499
21
-1.32808
0
LINE
8
BLACK
6
CONTINUOUS
10
6.85499
20
-1.32808
11
6.85157
21
-1.33633
0
LINE
8
BLACK
6
CONTINUOUS
10
6.85157
20
-1.33633
11
6.84662
21
-1.34375
0
LINE
8
BLACK
6
CONTINUOUS
10
6.84662
20
-1.34375
11
6.8403
21
-1.35006
0
LINE
8
BLACK
6
CONTINUOUS
10
6.8403
20
-1.35006
11
6.83288
21
-1.35502
0
LINE
8
BLACK
6
CONTINUOUS
10
6.83288
20
-1.35502
11
6.82464
21
-1.35844
0
LINE
8
BLACK
6
CONTINUOUS
10
6.82464
20
-1.35844
11
6.82026
21
-1.35931
0
LINE
8
BLACK
6
CONTINUOUS
10
6.82026
20
-1.35931
11
6.81588
21
-1.36018
0
LINE
8
BLACK
6
CONTINUOUS
10
6.81588
20
-1.36018
11
6.80695
21
-1.36018
0
LINE
8
BLACK
6
CONTINUOUS
10
6.80695
20
-1.36018
11
6.80258
21
-1.35931
0
LINE
8
BLACK
6
CONTINUOUS
10
6.80258
20
-1.35931
11
6.7982
21
-1.35844
0
LINE
8
BLACK
6
CONTINUOUS
10
6.7982
20
-1.35844
11
6.78995
21
-1.35502
0
LINE
8
BLACK
6
CONTINUOUS
10
6.78995
20
-1.35502
11
6.78253
21
-1.35006
0
LINE
8
BLACK
6
CONTINUOUS
10
6.78253
20
-1.35006
11
6.77622
21
-1.34375
0
LINE
8
BLACK
6
CONTINUOUS
10
6.77622
20
-1.34375
11
6.77126
21
-1.33633
0
LINE
8
BLACK
6
CONTINUOUS
10
6.77126
20
-1.33633
11
6.76784
21
-1.32808
0
LINE
8
BLACK
6
CONTINUOUS
10
6.76784
20
-1.32808
11
6.7661
21
-1.31933
0
LINE
8
BLACK
6
CONTINUOUS
10
6.7661
20
-1.31933
11
6.7661
21
-1.3104
0
LINE
8
BLACK
6
CONTINUOUS
10
6.7661
20
-1.3104
11
6.76784
21
-1.30164
0
LINE
8
BLACK
6
CONTINUOUS
10
6.76784
20
-1.30164
11
6.77126
21
-1.2934
0
LINE
8
BLACK
6
CONTINUOUS
10
6.77126
20
-1.2934
11
6.77622
21
-1.28598
0
LINE
8
BLACK
6
CONTINUOUS
10
6.77622
20
-1.28598
11
6.78253
21
-1.27966
0
LINE
8
BLACK
6
CONTINUOUS
10
6.78253
20
-1.27966
11
6.78995
21
-1.2747
0
LINE
8
BLACK
6
CONTINUOUS
10
6.78995
20
-1.2747
11
6.7982
21
-1.27129
0
LINE
8
BLACK
6
CONTINUOUS
10
6.7982
20
-1.27129
11
6.80258
21
-1.27042
0
LINE
8
BLACK
6
CONTINUOUS
10
6.80258
20
-1.27042
11
6.80695
21
-1.26955
0
LINE
8
BLACK
6
CONTINUOUS
10
6.80695
20
-1.26955
11
6.81588
21
-1.26955
0
LINE
8
BLACK
6
CONTINUOUS
10
6.81588
20
-1.26955
11
6.82026
21
-1.27042
0
LINE
8
BLACK
6
CONTINUOUS
10
1.87567
20
-1.27042
11
1.88005
21
-1.27129
0
LINE
8
BLACK
6
CONTINUOUS
10
1.88005
20
-1.27129
11
1.8883
21
-1.2747
0
LINE
8
BLACK
6
CONTINUOUS
10
1.8883
20
-1.2747
11
1.89572
21
-1.27966
0
LINE
8
BLACK
6
CONTINUOUS
10
1.89572
20
-1.27966
11
1.90203
21
-1.28598
0
LINE
8
BLACK
6
CONTINUOUS
10
1.90203
20
-1.28598
11
1.90699
21
-1.2934
0
LINE
8
BLACK
6
CONTINUOUS
10
1.90699
20
-1.2934
11
1.9104
21
-1.30164
0
LINE
8
BLACK
6
CONTINUOUS
10
1.9104
20
-1.30164
11
1.91215
21
-1.3104
0
LINE
8
BLACK
6
CONTINUOUS
10
1.91215
20
-1.3104
11
1.91215
21
-1.31933
0
LINE
8
BLACK
6
CONTINUOUS
10
1.91215
20
-1.31933
11
1.9104
21
-1.32808
0
LINE
8
BLACK
6
CONTINUOUS
10
1.9104
20
-1.32808
11
1.90699
21
-1.33633
0
LINE
8
BLACK
6
CONTINUOUS
10
1.90699
20
-1.33633
11
1.90203
21
-1.34375
0
LINE
8
BLACK
6
CONTINUOUS
10
1.90203
20
-1.34375
11
1.89572
21
-1.35006
0
LINE
8
BLACK
6
CONTINUOUS
10
1.89572
20
-1.35006
11
1.8883
21
-1.35502
0
LINE
8
BLACK
6
CONTINUOUS
10
1.8883
20
-1.35502
11
1.88005
21
-1.35844
0
LINE
8
BLACK
6
CONTINUOUS
10
1.88005
20
-1.35844
11
1.87567
21
-1.35931
0
LINE
8
BLACK
6
CONTINUOUS
10
1.87567
20
-1.35931
11
1.87129
21
-1.36018
0
LINE
8
BLACK
6
CONTINUOUS
10
1.87129
20
-1.36018
11
1.86237
21
-1.36018
0
LINE
8
BLACK
6
CONTINUOUS
10
1.86237
20
-1.36018
11
1.85799
21
-1.35931
0
LINE
8
BLACK
6
CONTINUOUS
10
1.85799
20
-1.35931
11
1.85361
21
-1.35844
0
LINE
8
BLACK
6
CONTINUOUS
10
1.85361
20
-1.35844
11
1.84537
21
-1.35502
0
LINE
8
BLACK
6
CONTINUOUS
10
1.84537
20
-1.35502
11
1.83794
21
-1.35006
0
LINE
8
BLACK
6
CONTINUOUS
10
1.83794
20
-1.35006
11
1.83163
21
-1.34375
0
LINE
8
BLACK
6
CONTINUOUS
10
1.83163
20
-1.34375
11
1.82667
21
-1.33633
0
LINE
8
BLACK
6
CONTINUOUS
10
1.82667
20
-1.33633
11
1.82326
21
-1.32808
0
LINE
8
BLACK
6
CONTINUOUS
10
1.82326
20
-1.32808
11
1.82152
21
-1.31933
0
LINE
8
BLACK
6
CONTINUOUS
10
1.82152
20
-1.31933
11
1.82152
21
-1.3104
0
LINE
8
BLACK
6
CONTINUOUS
10
1.82152
20
-1.3104
11
1.82326
21
-1.30164
0
LINE
8
BLACK
6
CONTINUOUS
10
1.82326
20
-1.30164
11
1.82667
21
-1.2934
0
LINE
8
BLACK
6
CONTINUOUS
10
1.82667
20
-1.2934
11
1.83163
21
-1.28598
0
LINE
8
BLACK
6
CONTINUOUS
10
1.83163
20
-1.28598
11
1.83794
21
-1.27966
0
LINE
8
BLACK
6
CONTINUOUS
10
1.83794
20
-1.27966
11
1.84537
21
-1.2747
0
LINE
8
BLACK
6
CONTINUOUS
10
1.84537
20
-1.2747
11
1.85361
21
-1.27129
0
LINE
8
BLACK
6
CONTINUOUS
10
1.85361
20
-1.27129
11
1.85799
21
-1.27042
0
LINE
8
BLACK
6
CONTINUOUS
10
1.85799
20
-1.27042
11
1.86237
21
-1.26955
0
LINE
8
BLACK
6
CONTINUOUS
10
1.86237
20
-1.26955
11
1.87129
21
-1.26955
0
LINE
8
BLACK
6
CONTINUOUS
10
1.87129
20
-1.26955
11
1.87567
21
-1.27042
0
LINE
8
BLACK
6
CONTINUOUS
10
4.31317
20
0.229582
11
4.31755
21
0.228711
0
LINE
8
BLACK
6
CONTINUOUS
10
4.31755
20
0.228711
11
4.3258
21
0.225295
0
LINE
8
BLACK
6
CONTINUOUS
10
4.3258
20
0.225295
11
4.33322
21
0.220336
0
LINE
8
BLACK
6
CONTINUOUS
10
4.33322
20
0.220336
11
4.33953
21
0.214024
0
LINE
8
BLACK
6
CONTINUOUS
10
4.33953
20
0.214024
11
4.34449
21
0.206602
0
LINE
8
BLACK
6
CONTINUOUS
10
4.34449
20
0.206602
11
4.3479
21
0.198356
0
LINE
8
BLACK
6
CONTINUOUS
10
4.3479
20
0.198356
11
4.34965
21
0.189601
0
LINE
8
BLACK
6
CONTINUOUS
10
4.34965
20
0.189601
11
4.34965
21
0.180675
0
LINE
8
BLACK
6
CONTINUOUS
10
4.34965
20
0.180675
11
4.3479
21
0.17192
0
LINE
8
BLACK
6
CONTINUOUS
10
4.3479
20
0.17192
11
4.34449
21
0.163673
0
LINE
8
BLACK
6
CONTINUOUS
10
4.34449
20
0.163673
11
4.33953
21
0.156251
0
LINE
8
BLACK
6
CONTINUOUS
10
4.33953
20
0.156251
11
4.33322
21
0.149939
0
LINE
8
BLACK
6
CONTINUOUS
10
4.33322
20
0.149939
11
4.3258
21
0.14498
0
LINE
8
BLACK
6
CONTINUOUS
10
4.3258
20
0.14498
11
4.31755
21
0.141564
0
LINE
8
BLACK
6
CONTINUOUS
10
4.31755
20
0.141564
11
4.31317
21
0.140694
0
LINE
8
BLACK
6
CONTINUOUS
10
4.31317
20
0.140694
11
4.30879
21
0.139823
0
LINE
8
BLACK
6
CONTINUOUS
10
4.30879
20
0.139823
11
4.29987
21
0.139823
0
LINE
8
BLACK
6
CONTINUOUS
10
4.29987
20
0.139823
11
4.29549
21
0.140694
0
LINE
8
BLACK
6
CONTINUOUS
10
4.29549
20
0.140694
11
4.29111
21
0.141564
0
LINE
8
BLACK
6
CONTINUOUS
10
4.29111
20
0.141564
11
4.28287
21
0.14498
0
LINE
8
BLACK
6
CONTINUOUS
10
4.28287
20
0.14498
11
4.27544
21
0.149939
0
LINE
8
BLACK
6
CONTINUOUS
10
4.27544
20
0.149939
11
4.26913
21
0.156251
0
LINE
8
BLACK
6
CONTINUOUS
10
4.26913
20
0.156251
11
4.26417
21
0.163673
0
LINE
8
BLACK
6
CONTINUOUS
10
4.26417
20
0.163673
11
4.26076
21
0.17192
0
LINE
8
BLACK
6
CONTINUOUS
10
4.26076
20
0.17192
11
4.25902
21
0.180675
0
LINE
8
BLACK
6
CONTINUOUS
10
4.25902
20
0.180675
11
4.25902
21
0.189601
0
LINE
8
BLACK
6
CONTINUOUS
10
4.25902
20
0.189601
11
4.26076
21
0.198356
0
LINE
8
BLACK
6
CONTINUOUS
10
4.26076
20
0.198356
11
4.26417
21
0.206602
0
LINE
8
BLACK
6
CONTINUOUS
10
4.26417
20
0.206602
11
4.26913
21
0.214024
0
LINE
8
BLACK
6
CONTINUOUS
10
4.26913
20
0.214024
11
4.27544
21
0.220336
0
LINE
8
BLACK
6
CONTINUOUS
10
4.27544
20
0.220336
11
4.28287
21
0.225295
0
LINE
8
BLACK
6
CONTINUOUS
10
4.28287
20
0.225295
11
4.29111
21
0.228711
0
LINE
8
BLACK
6
CONTINUOUS
10
4.29111
20
0.228711
11
4.29549
21
0.229582
0
LINE
8
BLACK
6
CONTINUOUS
10
4.29549
20
0.229582
11
4.29987
21
0.230453
0
LINE
8
BLACK
6
CONTINUOUS
10
4.29987
20
0.230453
11
4.30879
21
0.230453
0
LINE
8
BLACK
6
CONTINUOUS
10
4.30879
20
0.230453
11
4.31317
21
0.229582
0
LINE
8
BLACK
6
CONTINUOUS
10
1.68817
20
0.963834
11
1.69255
21
0.962963
0
LINE
8
BLACK
6
CONTINUOUS
10
1.69255
20
0.962963
11
1.7008
21
0.959547
0
LINE
8
BLACK
6
CONTINUOUS
10
1.7008
20
0.959547
11
1.70822
21
0.954588
0
LINE
8
BLACK
6
CONTINUOUS
10
1.70822
20
0.954588
11
1.71453
21
0.948276
0
LINE
8
BLACK
6
CONTINUOUS
10
1.71453
20
0.948276
11
1.71949
21
0.940854
0
LINE
8
BLACK
6
CONTINUOUS
10
1.71949
20
0.940854
11
1.7229
21
0.932608
0
LINE
8
BLACK
6
CONTINUOUS
10
1.7229
20
0.932608
11
1.72377
21
0.92823
0
LINE
8
BLACK
6
CONTINUOUS
10
1.72377
20
0.92823
11
1.72465
21
0.923853
0
LINE
8
BLACK
6
CONTINUOUS
10
1.72465
20
0.923853
11
1.72465
21
0.914927
0
LINE
8
BLACK
6
CONTINUOUS
10
1.72465
20
0.914927
11
1.72377
21
0.910549
0
LINE
8
BLACK
6
CONTINUOUS
10
1.72377
20
0.910549
11
1.7229
21
0.906172
0
LINE
8
BLACK
6
CONTINUOUS
10
1.7229
20
0.906172
11
1.72049
21
0.900341
0
LINE
8
BLACK
6
CONTINUOUS
10
1.72049
20
0.900341
11
1.71968
21
0.898377
0
LINE
8
BLACK
6
CONTINUOUS
10
1.71968
20
0.898377
11
1.71949
21
0.897925
0
LINE
8
BLACK
6
CONTINUOUS
10
1.71949
20
0.897925
11
1.71453
21
0.890503
0
LINE
8
BLACK
6
CONTINUOUS
10
1.71453
20
0.890503
11
1.70822
21
0.884191
0
LINE
8
BLACK
6
CONTINUOUS
10
1.70822
20
0.884191
11
1.7008
21
0.879232
0
LINE
8
BLACK
6
CONTINUOUS
10
1.7008
20
0.879232
11
1.69255
21
0.875816
0
LINE
8
BLACK
6
CONTINUOUS
10
1.69255
20
0.875816
11
1.68817
21
0.874946
0
LINE
8
BLACK
6
CONTINUOUS
10
1.68817
20
0.874946
11
1.68379
21
0.874075
0
LINE
8
BLACK
6
CONTINUOUS
10
1.68379
20
0.874075
11
1.67487
21
0.874075
0
LINE
8
BLACK
6
CONTINUOUS
10
1.67487
20
0.874075
11
1.67049
21
0.874946
0
LINE
8
BLACK
6
CONTINUOUS
10
1.67049
20
0.874946
11
1.66611
21
0.875816
0
LINE
8
BLACK
6
CONTINUOUS
10
1.66611
20
0.875816
11
1.65787
21
0.879232
0
LINE
8
BLACK
6
CONTINUOUS
10
1.65787
20
0.879232
11
1.65044
21
0.884191
0
LINE
8
BLACK
6
CONTINUOUS
10
1.65044
20
0.884191
11
1.64413
21
0.890503
0
LINE
8
BLACK
6
CONTINUOUS
10
1.64413
20
0.890503
11
1.63917
21
0.897925
0
LINE
8
BLACK
6
CONTINUOUS
10
1.63917
20
0.897925
11
1.63899
21
0.898377
0
LINE
8
BLACK
6
CONTINUOUS
10
1.63899
20
0.898377
11
1.63817
21
0.900341
0
LINE
8
BLACK
6
CONTINUOUS
10
1.63817
20
0.900341
11
1.63576
21
0.906172
0
LINE
8
BLACK
6
CONTINUOUS
10
1.63576
20
0.906172
11
1.63489
21
0.910549
0
LINE
8
BLACK
6
CONTINUOUS
10
1.63489
20
0.910549
11
1.63402
21
0.914927
0
LINE
8
BLACK
6
CONTINUOUS
10
1.63402
20
0.914927
11
1.63402
21
0.923853
0
LINE
8
BLACK
6
CONTINUOUS
10
1.63402
20
0.923853
11
1.63489
21
0.92823
0
LINE
8
BLACK
6
CONTINUOUS
10
1.63489
20
0.92823
11
1.63576
21
0.932608
0
LINE
8
BLACK
6
CONTINUOUS
10
1.63576
20
0.932608
11
1.63917
21
0.940854
0
LINE
8
BLACK
6
CONTINUOUS
10
1.63917
20
0.940854
11
1.64413
21
0.948276
0
LINE
8
BLACK
6
CONTINUOUS
10
1.64413
20
0.948276
11
1.65044
21
0.954588
0
LINE
8
BLACK
6
CONTINUOUS
10
1.65044
20
0.954588
11
1.65787
21
0.959547
0
LINE
8
BLACK
6
CONTINUOUS
10
1.65787
20
0.959547
11
1.66611
21
0.962963
0
LINE
8
BLACK
6
CONTINUOUS
10
1.66611
20
0.962963
11
1.67049
21
0.963834
0
LINE
8
BLACK
6
CONTINUOUS
10
1.67049
20
0.963834
11
1.67487
21
0.964705
0
LINE
8
BLACK
6
CONTINUOUS
10
1.67487
20
0.964705
11
1.68379
21
0.964705
0
LINE
8
BLACK
6
CONTINUOUS
10
1.68379
20
0.964705
11
1.68817
21
0.963834
0
LINE
8
BLACK
6
CONTINUOUS
10
6.93719
20
0.971708
11
6.94156
21
0.970837
0
LINE
8
BLACK
6
CONTINUOUS
10
6.94156
20
0.970837
11
6.94981
21
0.967421
0
LINE
8
BLACK
6
CONTINUOUS
10
6.94981
20
0.967421
11
6.95723
21
0.962462
0
LINE
8
BLACK
6
CONTINUOUS
10
6.95723
20
0.962462
11
6.96354
21
0.95615
0
LINE
8
BLACK
6
CONTINUOUS
10
6.96354
20
0.95615
11
6.96459
21
0.954588
0
LINE
8
BLACK
6
CONTINUOUS
10
6.96459
20
0.954588
11
6.9685
21
0.948728
0
LINE
8
BLACK
6
CONTINUOUS
10
6.9685
20
0.948728
11
6.96869
21
0.948276
0
LINE
8
BLACK
6
CONTINUOUS
10
6.96869
20
0.948276
11
6.97177
21
0.940854
0
LINE
8
BLACK
6
CONTINUOUS
10
6.97177
20
0.940854
11
6.97192
21
0.940482
0
LINE
8
BLACK
6
CONTINUOUS
10
6.97192
20
0.940482
11
6.97349
21
0.932608
0
LINE
8
BLACK
6
CONTINUOUS
10
6.97349
20
0.932608
11
6.97366
21
0.931727
0
LINE
8
BLACK
6
CONTINUOUS
10
6.97366
20
0.931727
11
6.97366
21
0.922801
0
LINE
8
BLACK
6
CONTINUOUS
10
6.97366
20
0.922801
11
6.97192
21
0.914046
0
LINE
8
BLACK
6
CONTINUOUS
10
6.97192
20
0.914046
11
6.9685
21
0.905799
0
LINE
8
BLACK
6
CONTINUOUS
10
6.9685
20
0.905799
11
6.96354
21
0.898377
0
LINE
8
BLACK
6
CONTINUOUS
10
6.96354
20
0.898377
11
6.95723
21
0.892065
0
LINE
8
BLACK
6
CONTINUOUS
10
6.95723
20
0.892065
11
6.94981
21
0.887106
0
LINE
8
BLACK
6
CONTINUOUS
10
6.94981
20
0.887106
11
6.94156
21
0.88369
0
LINE
8
BLACK
6
CONTINUOUS
10
6.94156
20
0.88369
11
6.93719
21
0.88282
0
LINE
8
BLACK
6
CONTINUOUS
10
6.93719
20
0.88282
11
6.93281
21
0.881949
0
LINE
8
BLACK
6
CONTINUOUS
10
6.93281
20
0.881949
11
6.92388
21
0.881949
0
LINE
8
BLACK
6
CONTINUOUS
10
6.92388
20
0.881949
11
6.91951
21
0.88282
0
LINE
8
BLACK
6
CONTINUOUS
10
6.91951
20
0.88282
11
6.91513
21
0.88369
0
LINE
8
BLACK
6
CONTINUOUS
10
6.91513
20
0.88369
11
6.90688
21
0.887106
0
LINE
8
BLACK
6
CONTINUOUS
10
6.90688
20
0.887106
11
6.89946
21
0.892065
0
LINE
8
BLACK
6
CONTINUOUS
10
6.89946
20
0.892065
11
6.89315
21
0.898377
0
LINE
8
BLACK
6
CONTINUOUS
10
6.89315
20
0.898377
11
6.88819
21
0.905799
0
LINE
8
BLACK
6
CONTINUOUS
10
6.88819
20
0.905799
11
6.88477
21
0.914046
0
LINE
8
BLACK
6
CONTINUOUS
10
6.88477
20
0.914046
11
6.88303
21
0.922801
0
LINE
8
BLACK
6
CONTINUOUS
10
6.88303
20
0.922801
11
6.88303
21
0.931727
0
LINE
8
BLACK
6
CONTINUOUS
10
6.88303
20
0.931727
11
6.88321
21
0.932608
0
LINE
8
BLACK
6
CONTINUOUS
10
6.88321
20
0.932608
11
6.88477
21
0.940482
0
LINE
8
BLACK
6
CONTINUOUS
10
6.88477
20
0.940482
11
6.88493
21
0.940854
0
LINE
8
BLACK
6
CONTINUOUS
10
6.88493
20
0.940854
11
6.888
21
0.948276
0
LINE
8
BLACK
6
CONTINUOUS
10
6.888
20
0.948276
11
6.88819
21
0.948728
0
LINE
8
BLACK
6
CONTINUOUS
10
6.88819
20
0.948728
11
6.8921
21
0.954588
0
LINE
8
BLACK
6
CONTINUOUS
10
6.8921
20
0.954588
11
6.89315
21
0.95615
0
LINE
8
BLACK
6
CONTINUOUS
10
6.89315
20
0.95615
11
6.89946
21
0.962462
0
LINE
8
BLACK
6
CONTINUOUS
10
6.89946
20
0.962462
11
6.90688
21
0.967421
0
LINE
8
BLACK
6
CONTINUOUS
10
6.90688
20
0.967421
11
6.91513
21
0.970837
0
LINE
8
BLACK
6
CONTINUOUS
10
6.91513
20
0.970837
11
6.91951
21
0.971708
0
LINE
8
BLACK
6
CONTINUOUS
10
6.91951
20
0.971708
11
6.92388
21
0.972579
0
LINE
8
BLACK
6
CONTINUOUS
10
6.92388
20
0.972579
11
6.93281
21
0.972579
0
LINE
8
BLACK
6
CONTINUOUS
10
6.93281
20
0.972579
11
6.93719
21
0.971708
  0
ENDSEC
  0
EOF
