  0
SECTION
  2
HEADER
  9
$ANGBASE
  50
0.0
  9
$ANGDIR
  70
1
  9
$MEASUREMENT
  70
0
  0
ENDSEC
  0
SECTION
  2
TABLES
  0
TABLE
  2
LTYPE
  70
4
  0
LTYPE
  5
40F
  2
CONTINUOUS
  70
0
  3
Solid line
  72
65
  73
0
  40
0.0
  0
LTYPE
  5
410
  2
DASHDOT
 70
0
  3
Dash Dot ____ _ ____ _
 72
65
 73
4
 40
2.0
 49
1.25
 49
-0.25
 49
0.25
 49
-0.25
  0
LTYPE
  5
411
  2
DASHED
 70
0
  3
Dashed __ __ __ __ __
 72
65
 73
2
 40
0.75
 49
0.5
 49
-0.25
  0
LTYPE
  5
43B
  2
DOTTED
 70
0
  3
Dotted .  .  .  .
 72
65
 73
2
 40
0.2
 49
0.0
 49
-0.2
  0
ENDTAB
  0
TABLE
  2
STYLE
  70
4
  0
STYLE
  2
KICAD
  70
0
  40
0
  41
1
  42
1
  50
0
  71
0
  3
isocp.shx
  0
STYLE
  2
KICADB
  70
0
  40
0
  41
1
  42
1
  50
0
  71
0
  3
isocp.shx
  0
STYLE
  2
KICADI
  70
0
  40
0
  41
1
  42
1
  50
15
  71
0
  3
isocp.shx
  0
STYLE
  2
KICADBI
  70
0
  40
0
  41
1
  42
1
  50
15
  71
0
  3
isocp.shx
  0
ENDTAB
  0
TABLE
  2
LAYER
  70
1
  0
LAYER
  2
BLACK
  70
0
  62
7
  6
CONTINUOUS
  0
ENDTAB
  0
ENDSEC
  0
SECTION
  2
ENTITIES
0
LINE
8
BLACK
6
CONTINUOUS
10
1.66771
20
-0.24655
11
1.64521
21
-0.24655
0
LINE
8
BLACK
6
CONTINUOUS
10
1.65646
20
-0.24655
11
1.65646
21
-0.20718
0
LINE
8
BLACK
6
CONTINUOUS
10
1.65646
20
-0.20718
11
1.65271
21
-0.212805
0
LINE
8
BLACK
6
CONTINUOUS
10
1.65271
20
-0.212805
11
1.64896
21
-0.216554
0
LINE
8
BLACK
6
CONTINUOUS
10
1.64896
20
-0.216554
11
1.64521
21
-0.218429
0
LINE
8
BLACK
6
CONTINUOUS
10
1.70333
20
-0.20718
11
1.68458
21
-0.20718
0
LINE
8
BLACK
6
CONTINUOUS
10
1.68458
20
-0.20718
11
1.68271
21
-0.225928
0
LINE
8
BLACK
6
CONTINUOUS
10
1.68271
20
-0.225928
11
1.68458
21
-0.224053
0
LINE
8
BLACK
6
CONTINUOUS
10
1.68458
20
-0.224053
11
1.68833
21
-0.222178
0
LINE
8
BLACK
6
CONTINUOUS
10
1.68833
20
-0.222178
11
1.69771
21
-0.222178
0
LINE
8
BLACK
6
CONTINUOUS
10
1.69771
20
-0.222178
11
1.70146
21
-0.224053
0
LINE
8
BLACK
6
CONTINUOUS
10
1.70146
20
-0.224053
11
1.70333
21
-0.225928
0
LINE
8
BLACK
6
CONTINUOUS
10
1.70333
20
-0.225928
11
1.70521
21
-0.229678
0
LINE
8
BLACK
6
CONTINUOUS
10
1.70521
20
-0.229678
11
1.70521
21
-0.239051
0
LINE
8
BLACK
6
CONTINUOUS
10
1.70521
20
-0.239051
11
1.70333
21
-0.242801
0
LINE
8
BLACK
6
CONTINUOUS
10
1.70333
20
-0.242801
11
1.70146
21
-0.244676
0
LINE
8
BLACK
6
CONTINUOUS
10
1.70146
20
-0.244676
11
1.69771
21
-0.24655
0
LINE
8
BLACK
6
CONTINUOUS
10
1.69771
20
-0.24655
11
1.68833
21
-0.24655
0
LINE
8
BLACK
6
CONTINUOUS
10
1.68833
20
-0.24655
11
1.68458
21
-0.244676
0
LINE
8
BLACK
6
CONTINUOUS
10
1.68458
20
-0.244676
11
1.68271
21
-0.242801
0
LINE
8
BLACK
6
CONTINUOUS
10
1.71833
20
-0.20718
11
1.74458
21
-0.20718
0
LINE
8
BLACK
6
CONTINUOUS
10
1.74458
20
-0.20718
11
1.7277
21
-0.24655
0
LINE
8
BLACK
6
CONTINUOUS
10
1.75958
20
-0.242801
11
1.76145
21
-0.244676
0
LINE
8
BLACK
6
CONTINUOUS
10
1.76145
20
-0.244676
11
1.75958
21
-0.24655
0
LINE
8
BLACK
6
CONTINUOUS
10
1.75958
20
-0.24655
11
1.7577
21
-0.244676
0
LINE
8
BLACK
6
CONTINUOUS
10
1.7577
20
-0.244676
11
1.75958
21
-0.242801
0
LINE
8
BLACK
6
CONTINUOUS
10
1.75958
20
-0.242801
11
1.75958
21
-0.24655
0
LINE
8
BLACK
6
CONTINUOUS
10
1.79895
20
-0.24655
11
1.77645
21
-0.24655
0
LINE
8
BLACK
6
CONTINUOUS
10
1.7877
20
-0.24655
11
1.7877
21
-0.20718
0
LINE
8
BLACK
6
CONTINUOUS
10
1.7877
20
-0.20718
11
1.78395
21
-0.212805
0
LINE
8
BLACK
6
CONTINUOUS
10
1.78395
20
-0.212805
11
1.7802
21
-0.216554
0
LINE
8
BLACK
6
CONTINUOUS
10
1.7802
20
-0.216554
11
1.77645
21
-0.218429
0
LINE
8
BLACK
6
CONTINUOUS
10
1.81769
20
-0.24655
11
1.82519
21
-0.24655
0
LINE
8
BLACK
6
CONTINUOUS
10
1.82519
20
-0.24655
11
1.82894
21
-0.244676
0
LINE
8
BLACK
6
CONTINUOUS
10
1.82894
20
-0.244676
11
1.83082
21
-0.242801
0
LINE
8
BLACK
6
CONTINUOUS
10
1.83082
20
-0.242801
11
1.83457
21
-0.237177
0
LINE
8
BLACK
6
CONTINUOUS
10
1.83457
20
-0.237177
11
1.83644
21
-0.229678
0
LINE
8
BLACK
6
CONTINUOUS
10
1.83644
20
-0.229678
11
1.83644
21
-0.214679
0
LINE
8
BLACK
6
CONTINUOUS
10
1.83644
20
-0.214679
11
1.83457
21
-0.21093
0
LINE
8
BLACK
6
CONTINUOUS
10
1.83457
20
-0.21093
11
1.83269
21
-0.209055
0
LINE
8
BLACK
6
CONTINUOUS
10
1.83269
20
-0.209055
11
1.82894
21
-0.20718
0
LINE
8
BLACK
6
CONTINUOUS
10
1.82894
20
-0.20718
11
1.82144
21
-0.20718
0
LINE
8
BLACK
6
CONTINUOUS
10
1.82144
20
-0.20718
11
1.81769
21
-0.209055
0
LINE
8
BLACK
6
CONTINUOUS
10
1.81769
20
-0.209055
11
1.81582
21
-0.21093
0
LINE
8
BLACK
6
CONTINUOUS
10
1.81582
20
-0.21093
11
1.81394
21
-0.214679
0
LINE
8
BLACK
6
CONTINUOUS
10
1.81394
20
-0.214679
11
1.81394
21
-0.224053
0
LINE
8
BLACK
6
CONTINUOUS
10
1.81394
20
-0.224053
11
1.81582
21
-0.227803
0
LINE
8
BLACK
6
CONTINUOUS
10
1.81582
20
-0.227803
11
1.81769
21
-0.229678
0
LINE
8
BLACK
6
CONTINUOUS
10
1.81769
20
-0.229678
11
1.82144
21
-0.231552
0
LINE
8
BLACK
6
CONTINUOUS
10
1.82144
20
-0.231552
11
1.82894
21
-0.231552
0
LINE
8
BLACK
6
CONTINUOUS
10
1.82894
20
-0.231552
11
1.83269
21
-0.229678
0
LINE
8
BLACK
6
CONTINUOUS
10
1.83269
20
-0.229678
11
1.83457
21
-0.227803
0
LINE
8
BLACK
6
CONTINUOUS
10
1.83457
20
-0.227803
11
1.83644
21
-0.224053
0
LINE
8
BLACK
6
CONTINUOUS
10
1.87206
20
-0.20718
11
1.85331
21
-0.20718
0
LINE
8
BLACK
6
CONTINUOUS
10
1.85331
20
-0.20718
11
1.85144
21
-0.225928
0
LINE
8
BLACK
6
CONTINUOUS
10
1.85144
20
-0.225928
11
1.85331
21
-0.224053
0
LINE
8
BLACK
6
CONTINUOUS
10
1.85331
20
-0.224053
11
1.85706
21
-0.222178
0
LINE
8
BLACK
6
CONTINUOUS
10
1.85706
20
-0.222178
11
1.86644
21
-0.222178
0
LINE
8
BLACK
6
CONTINUOUS
10
1.86644
20
-0.222178
11
1.87019
21
-0.224053
0
LINE
8
BLACK
6
CONTINUOUS
10
1.87019
20
-0.224053
11
1.87206
21
-0.225928
0
LINE
8
BLACK
6
CONTINUOUS
10
1.87206
20
-0.225928
11
1.87394
21
-0.229678
0
LINE
8
BLACK
6
CONTINUOUS
10
1.87394
20
-0.229678
11
1.87394
21
-0.239051
0
LINE
8
BLACK
6
CONTINUOUS
10
1.87394
20
-0.239051
11
1.87206
21
-0.242801
0
LINE
8
BLACK
6
CONTINUOUS
10
1.87206
20
-0.242801
11
1.87019
21
-0.244676
0
LINE
8
BLACK
6
CONTINUOUS
10
1.87019
20
-0.244676
11
1.86644
21
-0.24655
0
LINE
8
BLACK
6
CONTINUOUS
10
1.86644
20
-0.24655
11
1.85706
21
-0.24655
0
LINE
8
BLACK
6
CONTINUOUS
10
1.85706
20
-0.24655
11
1.85331
21
-0.244676
0
LINE
8
BLACK
6
CONTINUOUS
10
1.85331
20
-0.244676
11
1.85144
21
-0.242801
0
LINE
8
BLACK
6
CONTINUOUS
10
1.92081
20
-0.24655
11
1.92081
21
-0.220304
0
LINE
8
BLACK
6
CONTINUOUS
10
1.92081
20
-0.224053
11
1.92268
21
-0.222178
0
LINE
8
BLACK
6
CONTINUOUS
10
1.92268
20
-0.222178
11
1.92643
21
-0.220304
0
LINE
8
BLACK
6
CONTINUOUS
10
1.92643
20
-0.220304
11
1.93205
21
-0.220304
0
LINE
8
BLACK
6
CONTINUOUS
10
1.93205
20
-0.220304
11
1.9358
21
-0.222178
0
LINE
8
BLACK
6
CONTINUOUS
10
1.9358
20
-0.222178
11
1.93768
21
-0.225928
0
LINE
8
BLACK
6
CONTINUOUS
10
1.93768
20
-0.225928
11
1.93768
21
-0.24655
0
LINE
8
BLACK
6
CONTINUOUS
10
1.93768
20
-0.225928
11
1.93955
21
-0.222178
0
LINE
8
BLACK
6
CONTINUOUS
10
1.93955
20
-0.222178
11
1.9433
21
-0.220304
0
LINE
8
BLACK
6
CONTINUOUS
10
1.9433
20
-0.220304
11
1.94893
21
-0.220304
0
LINE
8
BLACK
6
CONTINUOUS
10
1.94893
20
-0.220304
11
1.95268
21
-0.222178
0
LINE
8
BLACK
6
CONTINUOUS
10
1.95268
20
-0.222178
11
1.95455
21
-0.225928
0
LINE
8
BLACK
6
CONTINUOUS
10
1.95455
20
-0.225928
11
1.95455
21
-0.24655
0
LINE
8
BLACK
6
CONTINUOUS
10
1.9733
20
-0.24655
11
1.9733
21
-0.220304
0
LINE
8
BLACK
6
CONTINUOUS
10
1.9733
20
-0.224053
11
1.97517
21
-0.222178
0
LINE
8
BLACK
6
CONTINUOUS
10
1.97517
20
-0.222178
11
1.97892
21
-0.220304
0
LINE
8
BLACK
6
CONTINUOUS
10
1.97892
20
-0.220304
11
1.98455
21
-0.220304
0
LINE
8
BLACK
6
CONTINUOUS
10
1.98455
20
-0.220304
11
1.9883
21
-0.222178
0
LINE
8
BLACK
6
CONTINUOUS
10
1.9883
20
-0.222178
11
1.99017
21
-0.225928
0
LINE
8
BLACK
6
CONTINUOUS
10
1.99017
20
-0.225928
11
1.99017
21
-0.24655
0
LINE
8
BLACK
6
CONTINUOUS
10
1.99017
20
-0.225928
11
1.99205
21
-0.222178
0
LINE
8
BLACK
6
CONTINUOUS
10
1.99205
20
-0.222178
11
1.9958
21
-0.220304
0
LINE
8
BLACK
6
CONTINUOUS
10
1.9958
20
-0.220304
11
2.00142
21
-0.220304
0
LINE
8
BLACK
6
CONTINUOUS
10
2.00142
20
-0.220304
11
2.00517
21
-0.222178
0
LINE
8
BLACK
6
CONTINUOUS
10
2.00517
20
-0.222178
11
2.00704
21
-0.225928
0
LINE
8
BLACK
6
CONTINUOUS
10
2.00704
20
-0.225928
11
2.00704
21
-0.24655
0
LINE
8
BLACK
6
CONTINUOUS
10
4.92146
20
-0.275984
11
-1.26732
21
-0.275984
0
LINE
8
BLACK
6
CONTINUOUS
10
4.92146
20
-0.280709
11
4.92146
21
-0.252897
0
LINE
8
BLACK
6
CONTINUOUS
10
-1.26732
20
-0.280709
11
-1.26732
21
-0.252897
0
LINE
8
BLACK
6
CONTINUOUS
10
-1.26732
20
-0.275984
11
-1.22297
21
-0.252897
0
LINE
8
BLACK
6
CONTINUOUS
10
-1.26732
20
-0.275984
11
-1.22297
21
-0.299072
0
LINE
8
BLACK
6
CONTINUOUS
10
4.92146
20
-0.275984
11
4.87711
21
-0.252897
0
LINE
8
BLACK
6
CONTINUOUS
10
4.92146
20
-0.275984
11
4.87711
21
-0.299072
0
LINE
8
BLACK
6
CONTINUOUS
10
5.3682
20
-4.25891
11
5.3682
21
-4.28141
0
LINE
8
BLACK
6
CONTINUOUS
10
5.3682
20
-4.27016
11
5.32883
21
-4.27016
0
LINE
8
BLACK
6
CONTINUOUS
10
5.32883
20
-4.27016
11
5.33446
21
-4.27391
0
LINE
8
BLACK
6
CONTINUOUS
10
5.33446
20
-4.27391
11
5.33821
21
-4.27766
0
LINE
8
BLACK
6
CONTINUOUS
10
5.33821
20
-4.27766
11
5.34008
21
-4.28141
0
LINE
8
BLACK
6
CONTINUOUS
10
5.32883
20
-4.24579
11
5.32883
21
-4.21954
0
LINE
8
BLACK
6
CONTINUOUS
10
5.32883
20
-4.21954
11
5.3682
21
-4.23642
0
LINE
8
BLACK
6
CONTINUOUS
10
5.36445
20
-4.20455
11
5.36633
21
-4.20267
0
LINE
8
BLACK
6
CONTINUOUS
10
5.36633
20
-4.20267
11
5.3682
21
-4.20455
0
LINE
8
BLACK
6
CONTINUOUS
10
5.3682
20
-4.20455
11
5.36633
21
-4.20642
0
LINE
8
BLACK
6
CONTINUOUS
10
5.36633
20
-4.20642
11
5.36445
21
-4.20455
0
LINE
8
BLACK
6
CONTINUOUS
10
5.36445
20
-4.20455
11
5.3682
21
-4.20455
0
LINE
8
BLACK
6
CONTINUOUS
10
5.32883
20
-4.16705
11
5.32883
21
-4.1858
0
LINE
8
BLACK
6
CONTINUOUS
10
5.32883
20
-4.1858
11
5.34758
21
-4.18767
0
LINE
8
BLACK
6
CONTINUOUS
10
5.34758
20
-4.18767
11
5.34571
21
-4.1858
0
LINE
8
BLACK
6
CONTINUOUS
10
5.34571
20
-4.1858
11
5.34383
21
-4.18205
0
LINE
8
BLACK
6
CONTINUOUS
10
5.34383
20
-4.18205
11
5.34383
21
-4.17268
0
LINE
8
BLACK
6
CONTINUOUS
10
5.34383
20
-4.17268
11
5.34571
21
-4.16893
0
LINE
8
BLACK
6
CONTINUOUS
10
5.34571
20
-4.16893
11
5.34758
21
-4.16705
0
LINE
8
BLACK
6
CONTINUOUS
10
5.34758
20
-4.16705
11
5.35133
21
-4.16518
0
LINE
8
BLACK
6
CONTINUOUS
10
5.35133
20
-4.16518
11
5.3607
21
-4.16518
0
LINE
8
BLACK
6
CONTINUOUS
10
5.3607
20
-4.16518
11
5.36445
21
-4.16705
0
LINE
8
BLACK
6
CONTINUOUS
10
5.36445
20
-4.16705
11
5.36633
21
-4.16893
0
LINE
8
BLACK
6
CONTINUOUS
10
5.36633
20
-4.16893
11
5.3682
21
-4.17268
0
LINE
8
BLACK
6
CONTINUOUS
10
5.3682
20
-4.17268
11
5.3682
21
-4.18205
0
LINE
8
BLACK
6
CONTINUOUS
10
5.3682
20
-4.18205
11
5.36633
21
-4.1858
0
LINE
8
BLACK
6
CONTINUOUS
10
5.36633
20
-4.1858
11
5.36445
21
-4.18767
0
LINE
8
BLACK
6
CONTINUOUS
10
5.32883
20
-4.12956
11
5.32883
21
-4.1483
0
LINE
8
BLACK
6
CONTINUOUS
10
5.32883
20
-4.1483
11
5.34758
21
-4.15018
0
LINE
8
BLACK
6
CONTINUOUS
10
5.34758
20
-4.15018
11
5.34571
21
-4.1483
0
LINE
8
BLACK
6
CONTINUOUS
10
5.34571
20
-4.1483
11
5.34383
21
-4.14455
0
LINE
8
BLACK
6
CONTINUOUS
10
5.34383
20
-4.14455
11
5.34383
21
-4.13518
0
LINE
8
BLACK
6
CONTINUOUS
10
5.34383
20
-4.13518
11
5.34571
21
-4.13143
0
LINE
8
BLACK
6
CONTINUOUS
10
5.34571
20
-4.13143
11
5.34758
21
-4.12956
0
LINE
8
BLACK
6
CONTINUOUS
10
5.34758
20
-4.12956
11
5.35133
21
-4.12768
0
LINE
8
BLACK
6
CONTINUOUS
10
5.35133
20
-4.12768
11
5.3607
21
-4.12768
0
LINE
8
BLACK
6
CONTINUOUS
10
5.3607
20
-4.12768
11
5.36445
21
-4.12956
0
LINE
8
BLACK
6
CONTINUOUS
10
5.36445
20
-4.12956
11
5.36633
21
-4.13143
0
LINE
8
BLACK
6
CONTINUOUS
10
5.36633
20
-4.13143
11
5.3682
21
-4.13518
0
LINE
8
BLACK
6
CONTINUOUS
10
5.3682
20
-4.13518
11
5.3682
21
-4.14455
0
LINE
8
BLACK
6
CONTINUOUS
10
5.3682
20
-4.14455
11
5.36633
21
-4.1483
0
LINE
8
BLACK
6
CONTINUOUS
10
5.36633
20
-4.1483
11
5.36445
21
-4.15018
0
LINE
8
BLACK
6
CONTINUOUS
10
5.32883
20
-4.10331
11
5.32883
21
-4.09956
0
LINE
8
BLACK
6
CONTINUOUS
10
5.32883
20
-4.09956
11
5.33071
21
-4.09581
0
LINE
8
BLACK
6
CONTINUOUS
10
5.33071
20
-4.09581
11
5.33258
21
-4.09394
0
LINE
8
BLACK
6
CONTINUOUS
10
5.33258
20
-4.09394
11
5.33633
21
-4.09206
0
LINE
8
BLACK
6
CONTINUOUS
10
5.33633
20
-4.09206
11
5.34383
21
-4.09019
0
LINE
8
BLACK
6
CONTINUOUS
10
5.34383
20
-4.09019
11
5.35321
21
-4.09019
0
LINE
8
BLACK
6
CONTINUOUS
10
5.35321
20
-4.09019
11
5.3607
21
-4.09206
0
LINE
8
BLACK
6
CONTINUOUS
10
5.3607
20
-4.09206
11
5.36445
21
-4.09394
0
LINE
8
BLACK
6
CONTINUOUS
10
5.36445
20
-4.09394
11
5.36633
21
-4.09581
0
LINE
8
BLACK
6
CONTINUOUS
10
5.36633
20
-4.09581
11
5.3682
21
-4.09956
0
LINE
8
BLACK
6
CONTINUOUS
10
5.3682
20
-4.09956
11
5.3682
21
-4.10331
0
LINE
8
BLACK
6
CONTINUOUS
10
5.3682
20
-4.10331
11
5.36633
21
-4.10706
0
LINE
8
BLACK
6
CONTINUOUS
10
5.36633
20
-4.10706
11
5.36445
21
-4.10893
0
LINE
8
BLACK
6
CONTINUOUS
10
5.36445
20
-4.10893
11
5.3607
21
-4.11081
0
LINE
8
BLACK
6
CONTINUOUS
10
5.3607
20
-4.11081
11
5.35321
21
-4.11268
0
LINE
8
BLACK
6
CONTINUOUS
10
5.35321
20
-4.11268
11
5.34383
21
-4.11268
0
LINE
8
BLACK
6
CONTINUOUS
10
5.34383
20
-4.11268
11
5.33633
21
-4.11081
0
LINE
8
BLACK
6
CONTINUOUS
10
5.33633
20
-4.11081
11
5.33258
21
-4.10893
0
LINE
8
BLACK
6
CONTINUOUS
10
5.33258
20
-4.10893
11
5.33071
21
-4.10706
0
LINE
8
BLACK
6
CONTINUOUS
10
5.33071
20
-4.10706
11
5.32883
21
-4.10331
0
LINE
8
BLACK
6
CONTINUOUS
10
5.3682
20
-4.04332
11
5.34196
21
-4.04332
0
LINE
8
BLACK
6
CONTINUOUS
10
5.34571
20
-4.04332
11
5.34383
21
-4.04144
0
LINE
8
BLACK
6
CONTINUOUS
10
5.34383
20
-4.04144
11
5.34196
21
-4.03769
0
LINE
8
BLACK
6
CONTINUOUS
10
5.34196
20
-4.03769
11
5.34196
21
-4.03207
0
LINE
8
BLACK
6
CONTINUOUS
10
5.34196
20
-4.03207
11
5.34383
21
-4.02832
0
LINE
8
BLACK
6
CONTINUOUS
10
5.34383
20
-4.02832
11
5.34758
21
-4.02644
0
LINE
8
BLACK
6
CONTINUOUS
10
5.34758
20
-4.02644
11
5.3682
21
-4.02644
0
LINE
8
BLACK
6
CONTINUOUS
10
5.34758
20
-4.02644
11
5.34383
21
-4.02457
0
LINE
8
BLACK
6
CONTINUOUS
10
5.34383
20
-4.02457
11
5.34196
21
-4.02082
0
LINE
8
BLACK
6
CONTINUOUS
10
5.34196
20
-4.02082
11
5.34196
21
-4.01519
0
LINE
8
BLACK
6
CONTINUOUS
10
5.34196
20
-4.01519
11
5.34383
21
-4.01145
0
LINE
8
BLACK
6
CONTINUOUS
10
5.34383
20
-4.01145
11
5.34758
21
-4.00957
0
LINE
8
BLACK
6
CONTINUOUS
10
5.34758
20
-4.00957
11
5.3682
21
-4.00957
0
LINE
8
BLACK
6
CONTINUOUS
10
5.3682
20
-3.99082
11
5.34196
21
-3.99082
0
LINE
8
BLACK
6
CONTINUOUS
10
5.34571
20
-3.99082
11
5.34383
21
-3.98895
0
LINE
8
BLACK
6
CONTINUOUS
10
5.34383
20
-3.98895
11
5.34196
21
-3.9852
0
LINE
8
BLACK
6
CONTINUOUS
10
5.34196
20
-3.9852
11
5.34196
21
-3.97957
0
LINE
8
BLACK
6
CONTINUOUS
10
5.34196
20
-3.97957
11
5.34383
21
-3.97582
0
LINE
8
BLACK
6
CONTINUOUS
10
5.34383
20
-3.97582
11
5.34758
21
-3.97395
0
LINE
8
BLACK
6
CONTINUOUS
10
5.34758
20
-3.97395
11
5.3682
21
-3.97395
0
LINE
8
BLACK
6
CONTINUOUS
10
5.34758
20
-3.97395
11
5.34383
21
-3.97208
0
LINE
8
BLACK
6
CONTINUOUS
10
5.34383
20
-3.97208
11
5.34196
21
-3.96833
0
LINE
8
BLACK
6
CONTINUOUS
10
5.34196
20
-3.96833
11
5.34196
21
-3.9627
0
LINE
8
BLACK
6
CONTINUOUS
10
5.34196
20
-3.9627
11
5.34383
21
-3.95895
0
LINE
8
BLACK
6
CONTINUOUS
10
5.34383
20
-3.95895
11
5.34758
21
-3.95708
0
LINE
8
BLACK
6
CONTINUOUS
10
5.34758
20
-3.95708
11
5.3682
21
-3.95708
0
LINE
8
BLACK
6
CONTINUOUS
10
5.30315
20
-4.46378
11
5.30315
21
-3.77283
0
LINE
8
BLACK
6
CONTINUOUS
10
5.25059
20
-4.46378
11
5.32624
21
-4.46378
0
LINE
8
BLACK
6
CONTINUOUS
10
5.25059
20
-3.77283
11
5.32624
21
-3.77283
0
LINE
8
BLACK
6
CONTINUOUS
10
5.30315
20
-3.77283
11
5.32624
21
-3.81719
0
LINE
8
BLACK
6
CONTINUOUS
10
5.30315
20
-3.77283
11
5.28006
21
-3.81719
0
LINE
8
BLACK
6
CONTINUOUS
10
5.30315
20
-4.46378
11
5.32624
21
-4.41943
0
LINE
8
BLACK
6
CONTINUOUS
10
5.30315
20
-4.46378
11
5.28006
21
-4.41943
0
LINE
8
BLACK
6
CONTINUOUS
10
-1.31854
20
-4.15852
11
-1.31667
21
-4.15477
0
LINE
8
BLACK
6
CONTINUOUS
10
-1.31667
20
-4.15477
11
-1.31479
21
-4.15289
0
LINE
8
BLACK
6
CONTINUOUS
10
-1.31479
20
-4.15289
11
-1.31104
21
-4.15102
0
LINE
8
BLACK
6
CONTINUOUS
10
-1.31104
20
-4.15102
11
-1.30917
21
-4.15102
0
LINE
8
BLACK
6
CONTINUOUS
10
-1.30917
20
-4.15102
11
-1.30542
21
-4.15289
0
LINE
8
BLACK
6
CONTINUOUS
10
-1.30542
20
-4.15289
11
-1.30354
21
-4.15477
0
LINE
8
BLACK
6
CONTINUOUS
10
-1.30354
20
-4.15477
11
-1.30167
21
-4.15852
0
LINE
8
BLACK
6
CONTINUOUS
10
-1.30167
20
-4.15852
11
-1.30167
21
-4.16602
0
LINE
8
BLACK
6
CONTINUOUS
10
-1.30167
20
-4.16602
11
-1.30354
21
-4.16976
0
LINE
8
BLACK
6
CONTINUOUS
10
-1.30354
20
-4.16976
11
-1.30542
21
-4.17164
0
LINE
8
BLACK
6
CONTINUOUS
10
-1.30542
20
-4.17164
11
-1.30917
21
-4.17351
0
LINE
8
BLACK
6
CONTINUOUS
10
-1.30917
20
-4.17351
11
-1.31104
21
-4.17351
0
LINE
8
BLACK
6
CONTINUOUS
10
-1.31104
20
-4.17351
11
-1.31479
21
-4.17164
0
LINE
8
BLACK
6
CONTINUOUS
10
-1.31479
20
-4.17164
11
-1.31667
21
-4.16976
0
LINE
8
BLACK
6
CONTINUOUS
10
-1.31667
20
-4.16976
11
-1.31854
21
-4.16602
0
LINE
8
BLACK
6
CONTINUOUS
10
-1.31854
20
-4.16602
11
-1.31854
21
-4.15852
0
LINE
8
BLACK
6
CONTINUOUS
10
-1.31854
20
-4.15852
11
-1.32042
21
-4.15477
0
LINE
8
BLACK
6
CONTINUOUS
10
-1.32042
20
-4.15477
11
-1.32229
21
-4.15289
0
LINE
8
BLACK
6
CONTINUOUS
10
-1.32229
20
-4.15289
11
-1.32604
21
-4.15102
0
LINE
8
BLACK
6
CONTINUOUS
10
-1.32604
20
-4.15102
11
-1.33354
21
-4.15102
0
LINE
8
BLACK
6
CONTINUOUS
10
-1.33354
20
-4.15102
11
-1.33729
21
-4.15289
0
LINE
8
BLACK
6
CONTINUOUS
10
-1.33729
20
-4.15289
11
-1.33916
21
-4.15477
0
LINE
8
BLACK
6
CONTINUOUS
10
-1.33916
20
-4.15477
11
-1.34104
21
-4.15852
0
LINE
8
BLACK
6
CONTINUOUS
10
-1.34104
20
-4.15852
11
-1.34104
21
-4.16602
0
LINE
8
BLACK
6
CONTINUOUS
10
-1.34104
20
-4.16602
11
-1.33916
21
-4.16976
0
LINE
8
BLACK
6
CONTINUOUS
10
-1.33916
20
-4.16976
11
-1.33729
21
-4.17164
0
LINE
8
BLACK
6
CONTINUOUS
10
-1.33729
20
-4.17164
11
-1.33354
21
-4.17351
0
LINE
8
BLACK
6
CONTINUOUS
10
-1.33354
20
-4.17351
11
-1.32604
21
-4.17351
0
LINE
8
BLACK
6
CONTINUOUS
10
-1.32604
20
-4.17351
11
-1.32229
21
-4.17164
0
LINE
8
BLACK
6
CONTINUOUS
10
-1.32229
20
-4.17164
11
-1.32042
21
-4.16976
0
LINE
8
BLACK
6
CONTINUOUS
10
-1.32042
20
-4.16976
11
-1.31854
21
-4.16602
0
LINE
8
BLACK
6
CONTINUOUS
10
-1.33729
20
-4.19039
11
-1.33916
21
-4.19226
0
LINE
8
BLACK
6
CONTINUOUS
10
-1.33916
20
-4.19226
11
-1.34104
21
-4.19039
0
LINE
8
BLACK
6
CONTINUOUS
10
-1.34104
20
-4.19039
11
-1.33916
21
-4.18851
0
LINE
8
BLACK
6
CONTINUOUS
10
-1.33916
20
-4.18851
11
-1.33729
21
-4.19039
0
LINE
8
BLACK
6
CONTINUOUS
10
-1.33729
20
-4.19039
11
-1.34104
21
-4.19039
0
LINE
8
BLACK
6
CONTINUOUS
10
-1.30167
20
-4.22788
11
-1.30167
21
-4.20913
0
LINE
8
BLACK
6
CONTINUOUS
10
-1.30167
20
-4.20913
11
-1.32042
21
-4.20726
0
LINE
8
BLACK
6
CONTINUOUS
10
-1.32042
20
-4.20726
11
-1.31854
21
-4.20913
0
LINE
8
BLACK
6
CONTINUOUS
10
-1.31854
20
-4.20913
11
-1.31667
21
-4.21288
0
LINE
8
BLACK
6
CONTINUOUS
10
-1.31667
20
-4.21288
11
-1.31667
21
-4.22226
0
LINE
8
BLACK
6
CONTINUOUS
10
-1.31667
20
-4.22226
11
-1.31854
21
-4.22601
0
LINE
8
BLACK
6
CONTINUOUS
10
-1.31854
20
-4.22601
11
-1.32042
21
-4.22788
0
LINE
8
BLACK
6
CONTINUOUS
10
-1.32042
20
-4.22788
11
-1.32417
21
-4.22976
0
LINE
8
BLACK
6
CONTINUOUS
10
-1.32417
20
-4.22976
11
-1.33354
21
-4.22976
0
LINE
8
BLACK
6
CONTINUOUS
10
-1.33354
20
-4.22976
11
-1.33729
21
-4.22788
0
LINE
8
BLACK
6
CONTINUOUS
10
-1.33729
20
-4.22788
11
-1.33916
21
-4.22601
0
LINE
8
BLACK
6
CONTINUOUS
10
-1.33916
20
-4.22601
11
-1.34104
21
-4.22226
0
LINE
8
BLACK
6
CONTINUOUS
10
-1.34104
20
-4.22226
11
-1.34104
21
-4.21288
0
LINE
8
BLACK
6
CONTINUOUS
10
-1.34104
20
-4.21288
11
-1.33916
21
-4.20913
0
LINE
8
BLACK
6
CONTINUOUS
10
-1.33916
20
-4.20913
11
-1.33729
21
-4.20726
0
LINE
8
BLACK
6
CONTINUOUS
10
-1.30167
20
-4.26538
11
-1.30167
21
-4.24663
0
LINE
8
BLACK
6
CONTINUOUS
10
-1.30167
20
-4.24663
11
-1.32042
21
-4.24476
0
LINE
8
BLACK
6
CONTINUOUS
10
-1.32042
20
-4.24476
11
-1.31854
21
-4.24663
0
LINE
8
BLACK
6
CONTINUOUS
10
-1.31854
20
-4.24663
11
-1.31667
21
-4.25038
0
LINE
8
BLACK
6
CONTINUOUS
10
-1.31667
20
-4.25038
11
-1.31667
21
-4.25975
0
LINE
8
BLACK
6
CONTINUOUS
10
-1.31667
20
-4.25975
11
-1.31854
21
-4.2635
0
LINE
8
BLACK
6
CONTINUOUS
10
-1.31854
20
-4.2635
11
-1.32042
21
-4.26538
0
LINE
8
BLACK
6
CONTINUOUS
10
-1.32042
20
-4.26538
11
-1.32417
21
-4.26725
0
LINE
8
BLACK
6
CONTINUOUS
10
-1.32417
20
-4.26725
11
-1.33354
21
-4.26725
0
LINE
8
BLACK
6
CONTINUOUS
10
-1.33354
20
-4.26725
11
-1.33729
21
-4.26538
0
LINE
8
BLACK
6
CONTINUOUS
10
-1.33729
20
-4.26538
11
-1.33916
21
-4.2635
0
LINE
8
BLACK
6
CONTINUOUS
10
-1.33916
20
-4.2635
11
-1.34104
21
-4.25975
0
LINE
8
BLACK
6
CONTINUOUS
10
-1.34104
20
-4.25975
11
-1.34104
21
-4.25038
0
LINE
8
BLACK
6
CONTINUOUS
10
-1.34104
20
-4.25038
11
-1.33916
21
-4.24663
0
LINE
8
BLACK
6
CONTINUOUS
10
-1.33916
20
-4.24663
11
-1.33729
21
-4.24476
0
LINE
8
BLACK
6
CONTINUOUS
10
-1.30167
20
-4.30287
11
-1.30167
21
-4.28413
0
LINE
8
BLACK
6
CONTINUOUS
10
-1.30167
20
-4.28413
11
-1.32042
21
-4.28225
0
LINE
8
BLACK
6
CONTINUOUS
10
-1.32042
20
-4.28225
11
-1.31854
21
-4.28413
0
LINE
8
BLACK
6
CONTINUOUS
10
-1.31854
20
-4.28413
11
-1.31667
21
-4.28787
0
LINE
8
BLACK
6
CONTINUOUS
10
-1.31667
20
-4.28787
11
-1.31667
21
-4.29725
0
LINE
8
BLACK
6
CONTINUOUS
10
-1.31667
20
-4.29725
11
-1.31854
21
-4.301
0
LINE
8
BLACK
6
CONTINUOUS
10
-1.31854
20
-4.301
11
-1.32042
21
-4.30287
0
LINE
8
BLACK
6
CONTINUOUS
10
-1.32042
20
-4.30287
11
-1.32417
21
-4.30475
0
LINE
8
BLACK
6
CONTINUOUS
10
-1.32417
20
-4.30475
11
-1.33354
21
-4.30475
0
LINE
8
BLACK
6
CONTINUOUS
10
-1.33354
20
-4.30475
11
-1.33729
21
-4.30287
0
LINE
8
BLACK
6
CONTINUOUS
10
-1.33729
20
-4.30287
11
-1.33916
21
-4.301
0
LINE
8
BLACK
6
CONTINUOUS
10
-1.33916
20
-4.301
11
-1.34104
21
-4.29725
0
LINE
8
BLACK
6
CONTINUOUS
10
-1.34104
20
-4.29725
11
-1.34104
21
-4.28787
0
LINE
8
BLACK
6
CONTINUOUS
10
-1.34104
20
-4.28787
11
-1.33916
21
-4.28413
0
LINE
8
BLACK
6
CONTINUOUS
10
-1.33916
20
-4.28413
11
-1.33729
21
-4.28225
0
LINE
8
BLACK
6
CONTINUOUS
10
-1.34104
20
-4.35162
11
-1.31479
21
-4.35162
0
LINE
8
BLACK
6
CONTINUOUS
10
-1.31854
20
-4.35162
11
-1.31667
21
-4.35349
0
LINE
8
BLACK
6
CONTINUOUS
10
-1.31667
20
-4.35349
11
-1.31479
21
-4.35724
0
LINE
8
BLACK
6
CONTINUOUS
10
-1.31479
20
-4.35724
11
-1.31479
21
-4.36287
0
LINE
8
BLACK
6
CONTINUOUS
10
-1.31479
20
-4.36287
11
-1.31667
21
-4.36662
0
LINE
8
BLACK
6
CONTINUOUS
10
-1.31667
20
-4.36662
11
-1.32042
21
-4.36849
0
LINE
8
BLACK
6
CONTINUOUS
10
-1.32042
20
-4.36849
11
-1.34104
21
-4.36849
0
LINE
8
BLACK
6
CONTINUOUS
10
-1.32042
20
-4.36849
11
-1.31667
21
-4.37036
0
LINE
8
BLACK
6
CONTINUOUS
10
-1.31667
20
-4.37036
11
-1.31479
21
-4.37411
0
LINE
8
BLACK
6
CONTINUOUS
10
-1.31479
20
-4.37411
11
-1.31479
21
-4.37974
0
LINE
8
BLACK
6
CONTINUOUS
10
-1.31479
20
-4.37974
11
-1.31667
21
-4.38349
0
LINE
8
BLACK
6
CONTINUOUS
10
-1.31667
20
-4.38349
11
-1.32042
21
-4.38536
0
LINE
8
BLACK
6
CONTINUOUS
10
-1.32042
20
-4.38536
11
-1.34104
21
-4.38536
0
LINE
8
BLACK
6
CONTINUOUS
10
-1.34104
20
-4.40411
11
-1.31479
21
-4.40411
0
LINE
8
BLACK
6
CONTINUOUS
10
-1.31854
20
-4.40411
11
-1.31667
21
-4.40599
0
LINE
8
BLACK
6
CONTINUOUS
10
-1.31667
20
-4.40599
11
-1.31479
21
-4.40973
0
LINE
8
BLACK
6
CONTINUOUS
10
-1.31479
20
-4.40973
11
-1.31479
21
-4.41536
0
LINE
8
BLACK
6
CONTINUOUS
10
-1.31479
20
-4.41536
11
-1.31667
21
-4.41911
0
LINE
8
BLACK
6
CONTINUOUS
10
-1.31667
20
-4.41911
11
-1.32042
21
-4.42098
0
LINE
8
BLACK
6
CONTINUOUS
10
-1.32042
20
-4.42098
11
-1.34104
21
-4.42098
0
LINE
8
BLACK
6
CONTINUOUS
10
-1.32042
20
-4.42098
11
-1.31667
21
-4.42286
0
LINE
8
BLACK
6
CONTINUOUS
10
-1.31667
20
-4.42286
11
-1.31479
21
-4.42661
0
LINE
8
BLACK
6
CONTINUOUS
10
-1.31479
20
-4.42661
11
-1.31479
21
-4.43223
0
LINE
8
BLACK
6
CONTINUOUS
10
-1.31479
20
-4.43223
11
-1.31667
21
-4.43598
0
LINE
8
BLACK
6
CONTINUOUS
10
-1.31667
20
-4.43598
11
-1.32042
21
-4.43786
0
LINE
8
BLACK
6
CONTINUOUS
10
-1.32042
20
-4.43786
11
-1.34104
21
-4.43786
0
LINE
8
BLACK
6
CONTINUOUS
10
-1.37047
20
-4.12697
11
-1.37047
21
-4.46378
0
LINE
8
BLACK
6
CONTINUOUS
10
-1.40453
20
-4.12697
11
-1.34739
21
-4.12697
0
LINE
8
BLACK
6
CONTINUOUS
10
-1.40453
20
-4.46378
11
-1.34739
21
-4.46378
0
LINE
8
BLACK
6
CONTINUOUS
10
-1.37047
20
-4.46378
11
-1.39356
21
-4.41943
0
LINE
8
BLACK
6
CONTINUOUS
10
-1.37047
20
-4.46378
11
-1.34739
21
-4.41943
0
LINE
8
BLACK
6
CONTINUOUS
10
-1.37047
20
-4.12697
11
-1.39356
21
-4.17132
0
LINE
8
BLACK
6
CONTINUOUS
10
-1.37047
20
-4.12697
11
-1.34739
21
-4.17132
0
LINE
8
BLACK
6
CONTINUOUS
10
4.51977
20
-4.5814
11
4.52164
21
-4.57953
0
LINE
8
BLACK
6
CONTINUOUS
10
4.52164
20
-4.57953
11
4.52539
21
-4.57765
0
LINE
8
BLACK
6
CONTINUOUS
10
4.52539
20
-4.57765
11
4.53477
21
-4.57765
0
LINE
8
BLACK
6
CONTINUOUS
10
4.53477
20
-4.57765
11
4.53852
21
-4.57953
0
LINE
8
BLACK
6
CONTINUOUS
10
4.53852
20
-4.57953
11
4.54039
21
-4.5814
0
LINE
8
BLACK
6
CONTINUOUS
10
4.54039
20
-4.5814
11
4.54227
21
-4.58515
0
LINE
8
BLACK
6
CONTINUOUS
10
4.54227
20
-4.58515
11
4.54227
21
-4.5889
0
LINE
8
BLACK
6
CONTINUOUS
10
4.54227
20
-4.5889
11
4.54039
21
-4.59453
0
LINE
8
BLACK
6
CONTINUOUS
10
4.54039
20
-4.59453
11
4.51789
21
-4.61702
0
LINE
8
BLACK
6
CONTINUOUS
10
4.51789
20
-4.61702
11
4.54227
21
-4.61702
0
LINE
8
BLACK
6
CONTINUOUS
10
4.57789
20
-4.57765
11
4.55914
21
-4.57765
0
LINE
8
BLACK
6
CONTINUOUS
10
4.55914
20
-4.57765
11
4.55726
21
-4.5964
0
LINE
8
BLACK
6
CONTINUOUS
10
4.55726
20
-4.5964
11
4.55914
21
-4.59453
0
LINE
8
BLACK
6
CONTINUOUS
10
4.55914
20
-4.59453
11
4.56289
21
-4.59265
0
LINE
8
BLACK
6
CONTINUOUS
10
4.56289
20
-4.59265
11
4.57226
21
-4.59265
0
LINE
8
BLACK
6
CONTINUOUS
10
4.57226
20
-4.59265
11
4.57601
21
-4.59453
0
LINE
8
BLACK
6
CONTINUOUS
10
4.57601
20
-4.59453
11
4.57789
21
-4.5964
0
LINE
8
BLACK
6
CONTINUOUS
10
4.57789
20
-4.5964
11
4.57976
21
-4.60015
0
LINE
8
BLACK
6
CONTINUOUS
10
4.57976
20
-4.60015
11
4.57976
21
-4.60952
0
LINE
8
BLACK
6
CONTINUOUS
10
4.57976
20
-4.60952
11
4.57789
21
-4.61327
0
LINE
8
BLACK
6
CONTINUOUS
10
4.57789
20
-4.61327
11
4.57601
21
-4.61515
0
LINE
8
BLACK
6
CONTINUOUS
10
4.57601
20
-4.61515
11
4.57226
21
-4.61702
0
LINE
8
BLACK
6
CONTINUOUS
10
4.57226
20
-4.61702
11
4.56289
21
-4.61702
0
LINE
8
BLACK
6
CONTINUOUS
10
4.56289
20
-4.61702
11
4.55914
21
-4.61515
0
LINE
8
BLACK
6
CONTINUOUS
10
4.55914
20
-4.61515
11
4.55726
21
-4.61327
0
LINE
8
BLACK
6
CONTINUOUS
10
4.59663
20
-4.61327
11
4.59851
21
-4.61515
0
LINE
8
BLACK
6
CONTINUOUS
10
4.59851
20
-4.61515
11
4.59663
21
-4.61702
0
LINE
8
BLACK
6
CONTINUOUS
10
4.59663
20
-4.61702
11
4.59476
21
-4.61515
0
LINE
8
BLACK
6
CONTINUOUS
10
4.59476
20
-4.61515
11
4.59663
21
-4.61327
0
LINE
8
BLACK
6
CONTINUOUS
10
4.59663
20
-4.61327
11
4.59663
21
-4.61702
0
LINE
8
BLACK
6
CONTINUOUS
10
4.61726
20
-4.61702
11
4.62476
21
-4.61702
0
LINE
8
BLACK
6
CONTINUOUS
10
4.62476
20
-4.61702
11
4.62851
21
-4.61515
0
LINE
8
BLACK
6
CONTINUOUS
10
4.62851
20
-4.61515
11
4.63038
21
-4.61327
0
LINE
8
BLACK
6
CONTINUOUS
10
4.63038
20
-4.61327
11
4.63413
21
-4.60765
0
LINE
8
BLACK
6
CONTINUOUS
10
4.63413
20
-4.60765
11
4.636
21
-4.60015
0
LINE
8
BLACK
6
CONTINUOUS
10
4.636
20
-4.60015
11
4.636
21
-4.58515
0
LINE
8
BLACK
6
CONTINUOUS
10
4.636
20
-4.58515
11
4.63413
21
-4.5814
0
LINE
8
BLACK
6
CONTINUOUS
10
4.63413
20
-4.5814
11
4.63226
21
-4.57953
0
LINE
8
BLACK
6
CONTINUOUS
10
4.63226
20
-4.57953
11
4.62851
21
-4.57765
0
LINE
8
BLACK
6
CONTINUOUS
10
4.62851
20
-4.57765
11
4.62101
21
-4.57765
0
LINE
8
BLACK
6
CONTINUOUS
10
4.62101
20
-4.57765
11
4.61726
21
-4.57953
0
LINE
8
BLACK
6
CONTINUOUS
10
4.61726
20
-4.57953
11
4.61538
21
-4.5814
0
LINE
8
BLACK
6
CONTINUOUS
10
4.61538
20
-4.5814
11
4.61351
21
-4.58515
0
LINE
8
BLACK
6
CONTINUOUS
10
4.61351
20
-4.58515
11
4.61351
21
-4.59453
0
LINE
8
BLACK
6
CONTINUOUS
10
4.61351
20
-4.59453
11
4.61538
21
-4.59828
0
LINE
8
BLACK
6
CONTINUOUS
10
4.61538
20
-4.59828
11
4.61726
21
-4.60015
0
LINE
8
BLACK
6
CONTINUOUS
10
4.61726
20
-4.60015
11
4.62101
21
-4.60202
0
LINE
8
BLACK
6
CONTINUOUS
10
4.62101
20
-4.60202
11
4.62851
21
-4.60202
0
LINE
8
BLACK
6
CONTINUOUS
10
4.62851
20
-4.60202
11
4.63226
21
-4.60015
0
LINE
8
BLACK
6
CONTINUOUS
10
4.63226
20
-4.60015
11
4.63413
21
-4.59828
0
LINE
8
BLACK
6
CONTINUOUS
10
4.63413
20
-4.59828
11
4.636
21
-4.59453
0
LINE
8
BLACK
6
CONTINUOUS
10
4.67163
20
-4.57765
11
4.65288
21
-4.57765
0
LINE
8
BLACK
6
CONTINUOUS
10
4.65288
20
-4.57765
11
4.651
21
-4.5964
0
LINE
8
BLACK
6
CONTINUOUS
10
4.651
20
-4.5964
11
4.65288
21
-4.59453
0
LINE
8
BLACK
6
CONTINUOUS
10
4.65288
20
-4.59453
11
4.65663
21
-4.59265
0
LINE
8
BLACK
6
CONTINUOUS
10
4.65663
20
-4.59265
11
4.666
21
-4.59265
0
LINE
8
BLACK
6
CONTINUOUS
10
4.666
20
-4.59265
11
4.66975
21
-4.59453
0
LINE
8
BLACK
6
CONTINUOUS
10
4.66975
20
-4.59453
11
4.67163
21
-4.5964
0
LINE
8
BLACK
6
CONTINUOUS
10
4.67163
20
-4.5964
11
4.6735
21
-4.60015
0
LINE
8
BLACK
6
CONTINUOUS
10
4.6735
20
-4.60015
11
4.6735
21
-4.60952
0
LINE
8
BLACK
6
CONTINUOUS
10
4.6735
20
-4.60952
11
4.67163
21
-4.61327
0
LINE
8
BLACK
6
CONTINUOUS
10
4.67163
20
-4.61327
11
4.66975
21
-4.61515
0
LINE
8
BLACK
6
CONTINUOUS
10
4.66975
20
-4.61515
11
4.666
21
-4.61702
0
LINE
8
BLACK
6
CONTINUOUS
10
4.666
20
-4.61702
11
4.65663
21
-4.61702
0
LINE
8
BLACK
6
CONTINUOUS
10
4.65663
20
-4.61702
11
4.65288
21
-4.61515
0
LINE
8
BLACK
6
CONTINUOUS
10
4.65288
20
-4.61515
11
4.651
21
-4.61327
0
LINE
8
BLACK
6
CONTINUOUS
10
4.69787
20
-4.57765
11
4.70162
21
-4.57765
0
LINE
8
BLACK
6
CONTINUOUS
10
4.70162
20
-4.57765
11
4.70537
21
-4.57953
0
LINE
8
BLACK
6
CONTINUOUS
10
4.70537
20
-4.57953
11
4.70725
21
-4.5814
0
LINE
8
BLACK
6
CONTINUOUS
10
4.70725
20
-4.5814
11
4.70912
21
-4.58515
0
LINE
8
BLACK
6
CONTINUOUS
10
4.70912
20
-4.58515
11
4.711
21
-4.59265
0
LINE
8
BLACK
6
CONTINUOUS
10
4.711
20
-4.59265
11
4.711
21
-4.60202
0
LINE
8
BLACK
6
CONTINUOUS
10
4.711
20
-4.60202
11
4.70912
21
-4.60952
0
LINE
8
BLACK
6
CONTINUOUS
10
4.70912
20
-4.60952
11
4.70725
21
-4.61327
0
LINE
8
BLACK
6
CONTINUOUS
10
4.70725
20
-4.61327
11
4.70537
21
-4.61515
0
LINE
8
BLACK
6
CONTINUOUS
10
4.70537
20
-4.61515
11
4.70162
21
-4.61702
0
LINE
8
BLACK
6
CONTINUOUS
10
4.70162
20
-4.61702
11
4.69787
21
-4.61702
0
LINE
8
BLACK
6
CONTINUOUS
10
4.69787
20
-4.61702
11
4.69412
21
-4.61515
0
LINE
8
BLACK
6
CONTINUOUS
10
4.69412
20
-4.61515
11
4.69225
21
-4.61327
0
LINE
8
BLACK
6
CONTINUOUS
10
4.69225
20
-4.61327
11
4.69037
21
-4.60952
0
LINE
8
BLACK
6
CONTINUOUS
10
4.69037
20
-4.60952
11
4.6885
21
-4.60202
0
LINE
8
BLACK
6
CONTINUOUS
10
4.6885
20
-4.60202
11
4.6885
21
-4.59265
0
LINE
8
BLACK
6
CONTINUOUS
10
4.6885
20
-4.59265
11
4.69037
21
-4.58515
0
LINE
8
BLACK
6
CONTINUOUS
10
4.69037
20
-4.58515
11
4.69225
21
-4.5814
0
LINE
8
BLACK
6
CONTINUOUS
10
4.69225
20
-4.5814
11
4.69412
21
-4.57953
0
LINE
8
BLACK
6
CONTINUOUS
10
4.69412
20
-4.57953
11
4.69787
21
-4.57765
0
LINE
8
BLACK
6
CONTINUOUS
10
4.75786
20
-4.61702
11
4.75786
21
-4.59078
0
LINE
8
BLACK
6
CONTINUOUS
10
4.75786
20
-4.59453
11
4.75974
21
-4.59265
0
LINE
8
BLACK
6
CONTINUOUS
10
4.75974
20
-4.59265
11
4.76349
21
-4.59078
0
LINE
8
BLACK
6
CONTINUOUS
10
4.76349
20
-4.59078
11
4.76911
21
-4.59078
0
LINE
8
BLACK
6
CONTINUOUS
10
4.76911
20
-4.59078
11
4.77286
21
-4.59265
0
LINE
8
BLACK
6
CONTINUOUS
10
4.77286
20
-4.59265
11
4.77474
21
-4.5964
0
LINE
8
BLACK
6
CONTINUOUS
10
4.77474
20
-4.5964
11
4.77474
21
-4.61702
0
LINE
8
BLACK
6
CONTINUOUS
10
4.77474
20
-4.5964
11
4.77661
21
-4.59265
0
LINE
8
BLACK
6
CONTINUOUS
10
4.77661
20
-4.59265
11
4.78036
21
-4.59078
0
LINE
8
BLACK
6
CONTINUOUS
10
4.78036
20
-4.59078
11
4.78599
21
-4.59078
0
LINE
8
BLACK
6
CONTINUOUS
10
4.78599
20
-4.59078
11
4.78974
21
-4.59265
0
LINE
8
BLACK
6
CONTINUOUS
10
4.78974
20
-4.59265
11
4.79161
21
-4.5964
0
LINE
8
BLACK
6
CONTINUOUS
10
4.79161
20
-4.5964
11
4.79161
21
-4.61702
0
LINE
8
BLACK
6
CONTINUOUS
10
4.81036
20
-4.61702
11
4.81036
21
-4.59078
0
LINE
8
BLACK
6
CONTINUOUS
10
4.81036
20
-4.59453
11
4.81223
21
-4.59265
0
LINE
8
BLACK
6
CONTINUOUS
10
4.81223
20
-4.59265
11
4.81598
21
-4.59078
0
LINE
8
BLACK
6
CONTINUOUS
10
4.81598
20
-4.59078
11
4.82161
21
-4.59078
0
LINE
8
BLACK
6
CONTINUOUS
10
4.82161
20
-4.59078
11
4.82536
21
-4.59265
0
LINE
8
BLACK
6
CONTINUOUS
10
4.82536
20
-4.59265
11
4.82723
21
-4.5964
0
LINE
8
BLACK
6
CONTINUOUS
10
4.82723
20
-4.5964
11
4.82723
21
-4.61702
0
LINE
8
BLACK
6
CONTINUOUS
10
4.82723
20
-4.5964
11
4.82911
21
-4.59265
0
LINE
8
BLACK
6
CONTINUOUS
10
4.82911
20
-4.59265
11
4.83286
21
-4.59078
0
LINE
8
BLACK
6
CONTINUOUS
10
4.83286
20
-4.59078
11
4.83848
21
-4.59078
0
LINE
8
BLACK
6
CONTINUOUS
10
4.83848
20
-4.59078
11
4.84223
21
-4.59265
0
LINE
8
BLACK
6
CONTINUOUS
10
4.84223
20
-4.59265
11
4.8441
21
-4.5964
0
LINE
8
BLACK
6
CONTINUOUS
10
4.8441
20
-4.5964
11
4.8441
21
-4.61702
0
LINE
8
BLACK
6
CONTINUOUS
10
4.17205
20
-4.55197
11
5.1937
21
-4.55197
0
LINE
8
BLACK
6
CONTINUOUS
10
4.17205
20
-4.52067
11
4.17205
21
-4.57506
0
LINE
8
BLACK
6
CONTINUOUS
10
5.1937
20
-4.52067
11
5.1937
21
-4.57506
0
LINE
8
BLACK
6
CONTINUOUS
10
5.1937
20
-4.55197
11
5.14935
21
-4.57506
0
LINE
8
BLACK
6
CONTINUOUS
10
5.1937
20
-4.55197
11
5.14935
21
-4.52888
0
LINE
8
BLACK
6
CONTINUOUS
10
4.17205
20
-4.55197
11
4.2164
21
-4.57506
0
LINE
8
BLACK
6
CONTINUOUS
10
4.17205
20
-4.55197
11
4.2164
21
-4.52888
0
LINE
8
BLACK
6
CONTINUOUS
10
-0.919601
20
-4.60502
11
-0.917726
21
-4.60315
0
LINE
8
BLACK
6
CONTINUOUS
10
-0.917726
20
-4.60315
11
-0.913976
21
-4.60127
0
LINE
8
BLACK
6
CONTINUOUS
10
-0.913976
20
-4.60127
11
-0.904603
21
-4.60127
0
LINE
8
BLACK
6
CONTINUOUS
10
-0.904603
20
-4.60127
11
-0.900853
21
-4.60315
0
LINE
8
BLACK
6
CONTINUOUS
10
-0.900853
20
-4.60315
11
-0.898978
21
-4.60502
0
LINE
8
BLACK
6
CONTINUOUS
10
-0.898978
20
-4.60502
11
-0.897103
21
-4.60877
0
LINE
8
BLACK
6
CONTINUOUS
10
-0.897103
20
-4.60877
11
-0.897103
21
-4.61252
0
LINE
8
BLACK
6
CONTINUOUS
10
-0.897103
20
-4.61252
11
-0.898978
21
-4.61815
0
LINE
8
BLACK
6
CONTINUOUS
10
-0.898978
20
-4.61815
11
-0.921475
21
-4.64064
0
LINE
8
BLACK
6
CONTINUOUS
10
-0.921475
20
-4.64064
11
-0.897103
21
-4.64064
0
LINE
8
BLACK
6
CONTINUOUS
10
-0.861483
20
-4.60127
11
-0.880231
21
-4.60127
0
LINE
8
BLACK
6
CONTINUOUS
10
-0.880231
20
-4.60127
11
-0.882105
21
-4.62002
0
LINE
8
BLACK
6
CONTINUOUS
10
-0.882105
20
-4.62002
11
-0.880231
21
-4.61815
0
LINE
8
BLACK
6
CONTINUOUS
10
-0.880231
20
-4.61815
11
-0.876481
21
-4.61627
0
LINE
8
BLACK
6
CONTINUOUS
10
-0.876481
20
-4.61627
11
-0.867107
21
-4.61627
0
LINE
8
BLACK
6
CONTINUOUS
10
-0.867107
20
-4.61627
11
-0.863358
21
-4.61815
0
LINE
8
BLACK
6
CONTINUOUS
10
-0.863358
20
-4.61815
11
-0.861483
21
-4.62002
0
LINE
8
BLACK
6
CONTINUOUS
10
-0.861483
20
-4.62002
11
-0.859608
21
-4.62377
0
LINE
8
BLACK
6
CONTINUOUS
10
-0.859608
20
-4.62377
11
-0.859608
21
-4.63315
0
LINE
8
BLACK
6
CONTINUOUS
10
-0.859608
20
-4.63315
11
-0.861483
21
-4.6369
0
LINE
8
BLACK
6
CONTINUOUS
10
-0.861483
20
-4.6369
11
-0.863358
21
-4.63877
0
LINE
8
BLACK
6
CONTINUOUS
10
-0.863358
20
-4.63877
11
-0.867107
21
-4.64064
0
LINE
8
BLACK
6
CONTINUOUS
10
-0.867107
20
-4.64064
11
-0.876481
21
-4.64064
0
LINE
8
BLACK
6
CONTINUOUS
10
-0.876481
20
-4.64064
11
-0.880231
21
-4.63877
0
LINE
8
BLACK
6
CONTINUOUS
10
-0.880231
20
-4.63877
11
-0.882105
21
-4.6369
0
LINE
8
BLACK
6
CONTINUOUS
10
-0.842735
20
-4.6369
11
-0.840861
21
-4.63877
0
LINE
8
BLACK
6
CONTINUOUS
10
-0.840861
20
-4.63877
11
-0.842735
21
-4.64064
0
LINE
8
BLACK
6
CONTINUOUS
10
-0.842735
20
-4.64064
11
-0.84461
21
-4.63877
0
LINE
8
BLACK
6
CONTINUOUS
10
-0.84461
20
-4.63877
11
-0.842735
21
-4.6369
0
LINE
8
BLACK
6
CONTINUOUS
10
-0.842735
20
-4.6369
11
-0.842735
21
-4.64064
0
LINE
8
BLACK
6
CONTINUOUS
10
-0.822113
20
-4.64064
11
-0.814614
21
-4.64064
0
LINE
8
BLACK
6
CONTINUOUS
10
-0.814614
20
-4.64064
11
-0.810864
21
-4.63877
0
LINE
8
BLACK
6
CONTINUOUS
10
-0.810864
20
-4.63877
11
-0.808989
21
-4.6369
0
LINE
8
BLACK
6
CONTINUOUS
10
-0.808989
20
-4.6369
11
-0.80524
21
-4.63127
0
LINE
8
BLACK
6
CONTINUOUS
10
-0.80524
20
-4.63127
11
-0.803365
21
-4.62377
0
LINE
8
BLACK
6
CONTINUOUS
10
-0.803365
20
-4.62377
11
-0.803365
21
-4.60877
0
LINE
8
BLACK
6
CONTINUOUS
10
-0.803365
20
-4.60877
11
-0.80524
21
-4.60502
0
LINE
8
BLACK
6
CONTINUOUS
10
-0.80524
20
-4.60502
11
-0.807115
21
-4.60315
0
LINE
8
BLACK
6
CONTINUOUS
10
-0.807115
20
-4.60315
11
-0.810864
21
-4.60127
0
LINE
8
BLACK
6
CONTINUOUS
10
-0.810864
20
-4.60127
11
-0.818363
21
-4.60127
0
LINE
8
BLACK
6
CONTINUOUS
10
-0.818363
20
-4.60127
11
-0.822113
21
-4.60315
0
LINE
8
BLACK
6
CONTINUOUS
10
-0.822113
20
-4.60315
11
-0.823988
21
-4.60502
0
LINE
8
BLACK
6
CONTINUOUS
10
-0.823988
20
-4.60502
11
-0.825862
21
-4.60877
0
LINE
8
BLACK
6
CONTINUOUS
10
-0.825862
20
-4.60877
11
-0.825862
21
-4.61815
0
LINE
8
BLACK
6
CONTINUOUS
10
-0.825862
20
-4.61815
11
-0.823988
21
-4.6219
0
LINE
8
BLACK
6
CONTINUOUS
10
-0.823988
20
-4.6219
11
-0.822113
21
-4.62377
0
LINE
8
BLACK
6
CONTINUOUS
10
-0.822113
20
-4.62377
11
-0.818363
21
-4.62565
0
LINE
8
BLACK
6
CONTINUOUS
10
-0.818363
20
-4.62565
11
-0.810864
21
-4.62565
0
LINE
8
BLACK
6
CONTINUOUS
10
-0.810864
20
-4.62565
11
-0.807115
21
-4.62377
0
LINE
8
BLACK
6
CONTINUOUS
10
-0.807115
20
-4.62377
11
-0.80524
21
-4.6219
0
LINE
8
BLACK
6
CONTINUOUS
10
-0.80524
20
-4.6219
11
-0.803365
21
-4.61815
0
LINE
8
BLACK
6
CONTINUOUS
10
-0.767745
20
-4.60127
11
-0.786492
21
-4.60127
0
LINE
8
BLACK
6
CONTINUOUS
10
-0.786492
20
-4.60127
11
-0.788367
21
-4.62002
0
LINE
8
BLACK
6
CONTINUOUS
10
-0.788367
20
-4.62002
11
-0.786492
21
-4.61815
0
LINE
8
BLACK
6
CONTINUOUS
10
-0.786492
20
-4.61815
11
-0.782743
21
-4.61627
0
LINE
8
BLACK
6
CONTINUOUS
10
-0.782743
20
-4.61627
11
-0.773369
21
-4.61627
0
LINE
8
BLACK
6
CONTINUOUS
10
-0.773369
20
-4.61627
11
-0.769619
21
-4.61815
0
LINE
8
BLACK
6
CONTINUOUS
10
-0.769619
20
-4.61815
11
-0.767745
21
-4.62002
0
LINE
8
BLACK
6
CONTINUOUS
10
-0.767745
20
-4.62002
11
-0.76587
21
-4.62377
0
LINE
8
BLACK
6
CONTINUOUS
10
-0.76587
20
-4.62377
11
-0.76587
21
-4.63315
0
LINE
8
BLACK
6
CONTINUOUS
10
-0.76587
20
-4.63315
11
-0.767745
21
-4.6369
0
LINE
8
BLACK
6
CONTINUOUS
10
-0.767745
20
-4.6369
11
-0.769619
21
-4.63877
0
LINE
8
BLACK
6
CONTINUOUS
10
-0.769619
20
-4.63877
11
-0.773369
21
-4.64064
0
LINE
8
BLACK
6
CONTINUOUS
10
-0.773369
20
-4.64064
11
-0.782743
21
-4.64064
0
LINE
8
BLACK
6
CONTINUOUS
10
-0.782743
20
-4.64064
11
-0.786492
21
-4.63877
0
LINE
8
BLACK
6
CONTINUOUS
10
-0.786492
20
-4.63877
11
-0.788367
21
-4.6369
0
LINE
8
BLACK
6
CONTINUOUS
10
-0.741498
20
-4.60127
11
-0.737748
21
-4.60127
0
LINE
8
BLACK
6
CONTINUOUS
10
-0.737748
20
-4.60127
11
-0.733999
21
-4.60315
0
LINE
8
BLACK
6
CONTINUOUS
10
-0.733999
20
-4.60315
11
-0.732124
21
-4.60502
0
LINE
8
BLACK
6
CONTINUOUS
10
-0.732124
20
-4.60502
11
-0.730249
21
-4.60877
0
LINE
8
BLACK
6
CONTINUOUS
10
-0.730249
20
-4.60877
11
-0.728375
21
-4.61627
0
LINE
8
BLACK
6
CONTINUOUS
10
-0.728375
20
-4.61627
11
-0.728375
21
-4.62565
0
LINE
8
BLACK
6
CONTINUOUS
10
-0.728375
20
-4.62565
11
-0.730249
21
-4.63315
0
LINE
8
BLACK
6
CONTINUOUS
10
-0.730249
20
-4.63315
11
-0.732124
21
-4.6369
0
LINE
8
BLACK
6
CONTINUOUS
10
-0.732124
20
-4.6369
11
-0.733999
21
-4.63877
0
LINE
8
BLACK
6
CONTINUOUS
10
-0.733999
20
-4.63877
11
-0.737748
21
-4.64064
0
LINE
8
BLACK
6
CONTINUOUS
10
-0.737748
20
-4.64064
11
-0.741498
21
-4.64064
0
LINE
8
BLACK
6
CONTINUOUS
10
-0.741498
20
-4.64064
11
-0.745247
21
-4.63877
0
LINE
8
BLACK
6
CONTINUOUS
10
-0.745247
20
-4.63877
11
-0.747122
21
-4.6369
0
LINE
8
BLACK
6
CONTINUOUS
10
-0.747122
20
-4.6369
11
-0.748997
21
-4.63315
0
LINE
8
BLACK
6
CONTINUOUS
10
-0.748997
20
-4.63315
11
-0.750872
21
-4.62565
0
LINE
8
BLACK
6
CONTINUOUS
10
-0.750872
20
-4.62565
11
-0.750872
21
-4.61627
0
LINE
8
BLACK
6
CONTINUOUS
10
-0.750872
20
-4.61627
11
-0.748997
21
-4.60877
0
LINE
8
BLACK
6
CONTINUOUS
10
-0.748997
20
-4.60877
11
-0.747122
21
-4.60502
0
LINE
8
BLACK
6
CONTINUOUS
10
-0.747122
20
-4.60502
11
-0.745247
21
-4.60315
0
LINE
8
BLACK
6
CONTINUOUS
10
-0.745247
20
-4.60315
11
-0.741498
21
-4.60127
0
LINE
8
BLACK
6
CONTINUOUS
10
-0.681505
20
-4.64064
11
-0.681505
21
-4.6144
0
LINE
8
BLACK
6
CONTINUOUS
10
-0.681505
20
-4.61815
11
-0.679631
21
-4.61627
0
LINE
8
BLACK
6
CONTINUOUS
10
-0.679631
20
-4.61627
11
-0.675881
21
-4.6144
0
LINE
8
BLACK
6
CONTINUOUS
10
-0.675881
20
-4.6144
11
-0.670257
21
-4.6144
0
LINE
8
BLACK
6
CONTINUOUS
10
-0.670257
20
-4.6144
11
-0.666507
21
-4.61627
0
LINE
8
BLACK
6
CONTINUOUS
10
-0.666507
20
-4.61627
11
-0.664633
21
-4.62002
0
LINE
8
BLACK
6
CONTINUOUS
10
-0.664633
20
-4.62002
11
-0.664633
21
-4.64064
0
LINE
8
BLACK
6
CONTINUOUS
10
-0.664633
20
-4.62002
11
-0.662758
21
-4.61627
0
LINE
8
BLACK
6
CONTINUOUS
10
-0.662758
20
-4.61627
11
-0.659008
21
-4.6144
0
LINE
8
BLACK
6
CONTINUOUS
10
-0.659008
20
-4.6144
11
-0.653384
21
-4.6144
0
LINE
8
BLACK
6
CONTINUOUS
10
-0.653384
20
-4.6144
11
-0.649634
21
-4.61627
0
LINE
8
BLACK
6
CONTINUOUS
10
-0.649634
20
-4.61627
11
-0.64776
21
-4.62002
0
LINE
8
BLACK
6
CONTINUOUS
10
-0.64776
20
-4.62002
11
-0.64776
21
-4.64064
0
LINE
8
BLACK
6
CONTINUOUS
10
-0.629012
20
-4.64064
11
-0.629012
21
-4.6144
0
LINE
8
BLACK
6
CONTINUOUS
10
-0.629012
20
-4.61815
11
-0.627137
21
-4.61627
0
LINE
8
BLACK
6
CONTINUOUS
10
-0.627137
20
-4.61627
11
-0.623388
21
-4.6144
0
LINE
8
BLACK
6
CONTINUOUS
10
-0.623388
20
-4.6144
11
-0.617763
21
-4.6144
0
LINE
8
BLACK
6
CONTINUOUS
10
-0.617763
20
-4.6144
11
-0.614014
21
-4.61627
0
LINE
8
BLACK
6
CONTINUOUS
10
-0.614014
20
-4.61627
11
-0.612139
21
-4.62002
0
LINE
8
BLACK
6
CONTINUOUS
10
-0.612139
20
-4.62002
11
-0.612139
21
-4.64064
0
LINE
8
BLACK
6
CONTINUOUS
10
-0.612139
20
-4.62002
11
-0.610264
21
-4.61627
0
LINE
8
BLACK
6
CONTINUOUS
10
-0.610264
20
-4.61627
11
-0.606515
21
-4.6144
0
LINE
8
BLACK
6
CONTINUOUS
10
-0.606515
20
-4.6144
11
-0.600891
21
-4.6144
0
LINE
8
BLACK
6
CONTINUOUS
10
-0.600891
20
-4.6144
11
-0.597141
21
-4.61627
0
LINE
8
BLACK
6
CONTINUOUS
10
-0.597141
20
-4.61627
11
-0.595266
21
-4.62002
0
LINE
8
BLACK
6
CONTINUOUS
10
-0.595266
20
-4.62002
11
-0.595266
21
-4.64064
0
LINE
8
BLACK
6
CONTINUOUS
10
-1.26732
20
-4.57559
11
-0.245669
21
-4.57559
0
LINE
8
BLACK
6
CONTINUOUS
10
-1.26732
20
-4.52067
11
-1.26732
21
-4.59868
0
LINE
8
BLACK
6
CONTINUOUS
10
-0.245669
20
-4.52067
11
-0.245669
21
-4.59868
0
LINE
8
BLACK
6
CONTINUOUS
10
-0.245669
20
-4.57559
11
-0.29002
21
-4.59868
0
LINE
8
BLACK
6
CONTINUOUS
10
-0.245669
20
-4.57559
11
-0.29002
21
-4.5525
0
LINE
8
BLACK
6
CONTINUOUS
10
-1.26732
20
-4.57559
11
-1.22297
21
-4.59868
0
LINE
8
BLACK
6
CONTINUOUS
10
-1.26732
20
-4.57559
11
-1.22297
21
-4.5525
0
LINE
8
BLACK
6
CONTINUOUS
10
-1.46644
20
-2.57973
11
-1.46644
21
-2.60223
0
LINE
8
BLACK
6
CONTINUOUS
10
-1.46644
20
-2.59098
11
-1.50581
21
-2.59098
0
LINE
8
BLACK
6
CONTINUOUS
10
-1.50581
20
-2.59098
11
-1.50019
21
-2.59473
0
LINE
8
BLACK
6
CONTINUOUS
10
-1.50019
20
-2.59473
11
-1.49644
21
-2.59848
0
LINE
8
BLACK
6
CONTINUOUS
10
-1.49644
20
-2.59848
11
-1.49456
21
-2.60223
0
LINE
8
BLACK
6
CONTINUOUS
10
-1.50581
20
-2.55536
11
-1.50581
21
-2.55161
0
LINE
8
BLACK
6
CONTINUOUS
10
-1.50581
20
-2.55161
11
-1.50394
21
-2.54786
0
LINE
8
BLACK
6
CONTINUOUS
10
-1.50394
20
-2.54786
11
-1.50206
21
-2.54598
0
LINE
8
BLACK
6
CONTINUOUS
10
-1.50206
20
-2.54598
11
-1.49831
21
-2.54411
0
LINE
8
BLACK
6
CONTINUOUS
10
-1.49831
20
-2.54411
11
-1.49081
21
-2.54223
0
LINE
8
BLACK
6
CONTINUOUS
10
-1.49081
20
-2.54223
11
-1.48144
21
-2.54223
0
LINE
8
BLACK
6
CONTINUOUS
10
-1.48144
20
-2.54223
11
-1.47394
21
-2.54411
0
LINE
8
BLACK
6
CONTINUOUS
10
-1.47394
20
-2.54411
11
-1.47019
21
-2.54598
0
LINE
8
BLACK
6
CONTINUOUS
10
-1.47019
20
-2.54598
11
-1.46832
21
-2.54786
0
LINE
8
BLACK
6
CONTINUOUS
10
-1.46832
20
-2.54786
11
-1.46644
21
-2.55161
0
LINE
8
BLACK
6
CONTINUOUS
10
-1.46644
20
-2.55161
11
-1.46644
21
-2.55536
0
LINE
8
BLACK
6
CONTINUOUS
10
-1.46644
20
-2.55536
11
-1.46832
21
-2.55911
0
LINE
8
BLACK
6
CONTINUOUS
10
-1.46832
20
-2.55911
11
-1.47019
21
-2.56098
0
LINE
8
BLACK
6
CONTINUOUS
10
-1.47019
20
-2.56098
11
-1.47394
21
-2.56286
0
LINE
8
BLACK
6
CONTINUOUS
10
-1.47394
20
-2.56286
11
-1.48144
21
-2.56473
0
LINE
8
BLACK
6
CONTINUOUS
10
-1.48144
20
-2.56473
11
-1.49081
21
-2.56473
0
LINE
8
BLACK
6
CONTINUOUS
10
-1.49081
20
-2.56473
11
-1.49831
21
-2.56286
0
LINE
8
BLACK
6
CONTINUOUS
10
-1.49831
20
-2.56286
11
-1.50206
21
-2.56098
0
LINE
8
BLACK
6
CONTINUOUS
10
-1.50206
20
-2.56098
11
-1.50394
21
-2.55911
0
LINE
8
BLACK
6
CONTINUOUS
10
-1.50394
20
-2.55911
11
-1.50581
21
-2.55536
0
LINE
8
BLACK
6
CONTINUOUS
10
-1.50581
20
-2.52911
11
-1.50581
21
-2.50474
0
LINE
8
BLACK
6
CONTINUOUS
10
-1.50581
20
-2.50474
11
-1.49081
21
-2.51786
0
LINE
8
BLACK
6
CONTINUOUS
10
-1.49081
20
-2.51786
11
-1.49081
21
-2.51224
0
LINE
8
BLACK
6
CONTINUOUS
10
-1.49081
20
-2.51224
11
-1.48894
21
-2.50849
0
LINE
8
BLACK
6
CONTINUOUS
10
-1.48894
20
-2.50849
11
-1.48706
21
-2.50661
0
LINE
8
BLACK
6
CONTINUOUS
10
-1.48706
20
-2.50661
11
-1.48331
21
-2.50474
0
LINE
8
BLACK
6
CONTINUOUS
10
-1.48331
20
-2.50474
11
-1.47394
21
-2.50474
0
LINE
8
BLACK
6
CONTINUOUS
10
-1.47394
20
-2.50474
11
-1.47019
21
-2.50661
0
LINE
8
BLACK
6
CONTINUOUS
10
-1.47019
20
-2.50661
11
-1.46832
21
-2.50849
0
LINE
8
BLACK
6
CONTINUOUS
10
-1.46832
20
-2.50849
11
-1.46644
21
-2.51224
0
LINE
8
BLACK
6
CONTINUOUS
10
-1.46644
20
-2.51224
11
-1.46644
21
-2.52349
0
LINE
8
BLACK
6
CONTINUOUS
10
-1.46644
20
-2.52349
11
-1.46832
21
-2.52724
0
LINE
8
BLACK
6
CONTINUOUS
10
-1.46832
20
-2.52724
11
-1.47019
21
-2.52911
0
LINE
8
BLACK
6
CONTINUOUS
10
-1.47019
20
-2.48787
11
-1.46832
21
-2.48599
0
LINE
8
BLACK
6
CONTINUOUS
10
-1.46832
20
-2.48599
11
-1.46644
21
-2.48787
0
LINE
8
BLACK
6
CONTINUOUS
10
-1.46644
20
-2.48787
11
-1.46832
21
-2.48974
0
LINE
8
BLACK
6
CONTINUOUS
10
-1.46832
20
-2.48974
11
-1.47019
21
-2.48787
0
LINE
8
BLACK
6
CONTINUOUS
10
-1.47019
20
-2.48787
11
-1.46644
21
-2.48787
0
LINE
8
BLACK
6
CONTINUOUS
10
-1.48894
20
-2.46349
11
-1.49081
21
-2.46724
0
LINE
8
BLACK
6
CONTINUOUS
10
-1.49081
20
-2.46724
11
-1.49269
21
-2.46912
0
LINE
8
BLACK
6
CONTINUOUS
10
-1.49269
20
-2.46912
11
-1.49644
21
-2.47099
0
LINE
8
BLACK
6
CONTINUOUS
10
-1.49644
20
-2.47099
11
-1.49831
21
-2.47099
0
LINE
8
BLACK
6
CONTINUOUS
10
-1.49831
20
-2.47099
11
-1.50206
21
-2.46912
0
LINE
8
BLACK
6
CONTINUOUS
10
-1.50206
20
-2.46912
11
-1.50394
21
-2.46724
0
LINE
8
BLACK
6
CONTINUOUS
10
-1.50394
20
-2.46724
11
-1.50581
21
-2.46349
0
LINE
8
BLACK
6
CONTINUOUS
10
-1.50581
20
-2.46349
11
-1.50581
21
-2.45599
0
LINE
8
BLACK
6
CONTINUOUS
10
-1.50581
20
-2.45599
11
-1.50394
21
-2.45225
0
LINE
8
BLACK
6
CONTINUOUS
10
-1.50394
20
-2.45225
11
-1.50206
21
-2.45037
0
LINE
8
BLACK
6
CONTINUOUS
10
-1.50206
20
-2.45037
11
-1.49831
21
-2.4485
0
LINE
8
BLACK
6
CONTINUOUS
10
-1.49831
20
-2.4485
11
-1.49644
21
-2.4485
0
LINE
8
BLACK
6
CONTINUOUS
10
-1.49644
20
-2.4485
11
-1.49269
21
-2.45037
0
LINE
8
BLACK
6
CONTINUOUS
10
-1.49269
20
-2.45037
11
-1.49081
21
-2.45225
0
LINE
8
BLACK
6
CONTINUOUS
10
-1.49081
20
-2.45225
11
-1.48894
21
-2.45599
0
LINE
8
BLACK
6
CONTINUOUS
10
-1.48894
20
-2.45599
11
-1.48894
21
-2.46349
0
LINE
8
BLACK
6
CONTINUOUS
10
-1.48894
20
-2.46349
11
-1.48706
21
-2.46724
0
LINE
8
BLACK
6
CONTINUOUS
10
-1.48706
20
-2.46724
11
-1.48519
21
-2.46912
0
LINE
8
BLACK
6
CONTINUOUS
10
-1.48519
20
-2.46912
11
-1.48144
21
-2.47099
0
LINE
8
BLACK
6
CONTINUOUS
10
-1.48144
20
-2.47099
11
-1.47394
21
-2.47099
0
LINE
8
BLACK
6
CONTINUOUS
10
-1.47394
20
-2.47099
11
-1.47019
21
-2.46912
0
LINE
8
BLACK
6
CONTINUOUS
10
-1.47019
20
-2.46912
11
-1.46832
21
-2.46724
0
LINE
8
BLACK
6
CONTINUOUS
10
-1.46832
20
-2.46724
11
-1.46644
21
-2.46349
0
LINE
8
BLACK
6
CONTINUOUS
10
-1.46644
20
-2.46349
11
-1.46644
21
-2.45599
0
LINE
8
BLACK
6
CONTINUOUS
10
-1.46644
20
-2.45599
11
-1.46832
21
-2.45225
0
LINE
8
BLACK
6
CONTINUOUS
10
-1.46832
20
-2.45225
11
-1.47019
21
-2.45037
0
LINE
8
BLACK
6
CONTINUOUS
10
-1.47019
20
-2.45037
11
-1.47394
21
-2.4485
0
LINE
8
BLACK
6
CONTINUOUS
10
-1.47394
20
-2.4485
11
-1.48144
21
-2.4485
0
LINE
8
BLACK
6
CONTINUOUS
10
-1.48144
20
-2.4485
11
-1.48519
21
-2.45037
0
LINE
8
BLACK
6
CONTINUOUS
10
-1.48519
20
-2.45037
11
-1.48706
21
-2.45225
0
LINE
8
BLACK
6
CONTINUOUS
10
-1.48706
20
-2.45225
11
-1.48894
21
-2.45599
0
LINE
8
BLACK
6
CONTINUOUS
10
-1.50581
20
-2.42412
11
-1.50581
21
-2.42037
0
LINE
8
BLACK
6
CONTINUOUS
10
-1.50581
20
-2.42037
11
-1.50394
21
-2.41662
0
LINE
8
BLACK
6
CONTINUOUS
10
-1.50394
20
-2.41662
11
-1.50206
21
-2.41475
0
LINE
8
BLACK
6
CONTINUOUS
10
-1.50206
20
-2.41475
11
-1.49831
21
-2.41287
0
LINE
8
BLACK
6
CONTINUOUS
10
-1.49831
20
-2.41287
11
-1.49081
21
-2.411
0
LINE
8
BLACK
6
CONTINUOUS
10
-1.49081
20
-2.411
11
-1.48144
21
-2.411
0
LINE
8
BLACK
6
CONTINUOUS
10
-1.48144
20
-2.411
11
-1.47394
21
-2.41287
0
LINE
8
BLACK
6
CONTINUOUS
10
-1.47394
20
-2.41287
11
-1.47019
21
-2.41475
0
LINE
8
BLACK
6
CONTINUOUS
10
-1.47019
20
-2.41475
11
-1.46832
21
-2.41662
0
LINE
8
BLACK
6
CONTINUOUS
10
-1.46832
20
-2.41662
11
-1.46644
21
-2.42037
0
LINE
8
BLACK
6
CONTINUOUS
10
-1.46644
20
-2.42037
11
-1.46644
21
-2.42412
0
LINE
8
BLACK
6
CONTINUOUS
10
-1.46644
20
-2.42412
11
-1.46832
21
-2.42787
0
LINE
8
BLACK
6
CONTINUOUS
10
-1.46832
20
-2.42787
11
-1.47019
21
-2.42975
0
LINE
8
BLACK
6
CONTINUOUS
10
-1.47019
20
-2.42975
11
-1.47394
21
-2.43162
0
LINE
8
BLACK
6
CONTINUOUS
10
-1.47394
20
-2.43162
11
-1.48144
21
-2.4335
0
LINE
8
BLACK
6
CONTINUOUS
10
-1.48144
20
-2.4335
11
-1.49081
21
-2.4335
0
LINE
8
BLACK
6
CONTINUOUS
10
-1.49081
20
-2.4335
11
-1.49831
21
-2.43162
0
LINE
8
BLACK
6
CONTINUOUS
10
-1.49831
20
-2.43162
11
-1.50206
21
-2.42975
0
LINE
8
BLACK
6
CONTINUOUS
10
-1.50206
20
-2.42975
11
-1.50394
21
-2.42787
0
LINE
8
BLACK
6
CONTINUOUS
10
-1.50394
20
-2.42787
11
-1.50581
21
-2.42412
0
LINE
8
BLACK
6
CONTINUOUS
10
-1.50581
20
-2.37538
11
-1.50581
21
-2.39413
0
LINE
8
BLACK
6
CONTINUOUS
10
-1.50581
20
-2.39413
11
-1.48706
21
-2.396
0
LINE
8
BLACK
6
CONTINUOUS
10
-1.48706
20
-2.396
11
-1.48894
21
-2.39413
0
LINE
8
BLACK
6
CONTINUOUS
10
-1.48894
20
-2.39413
11
-1.49081
21
-2.39038
0
LINE
8
BLACK
6
CONTINUOUS
10
-1.49081
20
-2.39038
11
-1.49081
21
-2.381
0
LINE
8
BLACK
6
CONTINUOUS
10
-1.49081
20
-2.381
11
-1.48894
21
-2.37725
0
LINE
8
BLACK
6
CONTINUOUS
10
-1.48894
20
-2.37725
11
-1.48706
21
-2.37538
0
LINE
8
BLACK
6
CONTINUOUS
10
-1.48706
20
-2.37538
11
-1.48331
21
-2.3735
0
LINE
8
BLACK
6
CONTINUOUS
10
-1.48331
20
-2.3735
11
-1.47394
21
-2.3735
0
LINE
8
BLACK
6
CONTINUOUS
10
-1.47394
20
-2.3735
11
-1.47019
21
-2.37538
0
LINE
8
BLACK
6
CONTINUOUS
10
-1.47019
20
-2.37538
11
-1.46832
21
-2.37725
0
LINE
8
BLACK
6
CONTINUOUS
10
-1.46832
20
-2.37725
11
-1.46644
21
-2.381
0
LINE
8
BLACK
6
CONTINUOUS
10
-1.46644
20
-2.381
11
-1.46644
21
-2.39038
0
LINE
8
BLACK
6
CONTINUOUS
10
-1.46644
20
-2.39038
11
-1.46832
21
-2.39413
0
LINE
8
BLACK
6
CONTINUOUS
10
-1.46832
20
-2.39413
11
-1.47019
21
-2.396
0
LINE
8
BLACK
6
CONTINUOUS
10
-1.46644
20
-2.32664
11
-1.49269
21
-2.32664
0
LINE
8
BLACK
6
CONTINUOUS
10
-1.48894
20
-2.32664
11
-1.49081
21
-2.32476
0
LINE
8
BLACK
6
CONTINUOUS
10
-1.49081
20
-2.32476
11
-1.49269
21
-2.32101
0
LINE
8
BLACK
6
CONTINUOUS
10
-1.49269
20
-2.32101
11
-1.49269
21
-2.31539
0
LINE
8
BLACK
6
CONTINUOUS
10
-1.49269
20
-2.31539
11
-1.49081
21
-2.31164
0
LINE
8
BLACK
6
CONTINUOUS
10
-1.49081
20
-2.31164
11
-1.48706
21
-2.30976
0
LINE
8
BLACK
6
CONTINUOUS
10
-1.48706
20
-2.30976
11
-1.46644
21
-2.30976
0
LINE
8
BLACK
6
CONTINUOUS
10
-1.48706
20
-2.30976
11
-1.49081
21
-2.30789
0
LINE
8
BLACK
6
CONTINUOUS
10
-1.49081
20
-2.30789
11
-1.49269
21
-2.30414
0
LINE
8
BLACK
6
CONTINUOUS
10
-1.49269
20
-2.30414
11
-1.49269
21
-2.29851
0
LINE
8
BLACK
6
CONTINUOUS
10
-1.49269
20
-2.29851
11
-1.49081
21
-2.29476
0
LINE
8
BLACK
6
CONTINUOUS
10
-1.49081
20
-2.29476
11
-1.48706
21
-2.29289
0
LINE
8
BLACK
6
CONTINUOUS
10
-1.48706
20
-2.29289
11
-1.46644
21
-2.29289
0
LINE
8
BLACK
6
CONTINUOUS
10
-1.46644
20
-2.27414
11
-1.49269
21
-2.27414
0
LINE
8
BLACK
6
CONTINUOUS
10
-1.48894
20
-2.27414
11
-1.49081
21
-2.27227
0
LINE
8
BLACK
6
CONTINUOUS
10
-1.49081
20
-2.27227
11
-1.49269
21
-2.26852
0
LINE
8
BLACK
6
CONTINUOUS
10
-1.49269
20
-2.26852
11
-1.49269
21
-2.26289
0
LINE
8
BLACK
6
CONTINUOUS
10
-1.49269
20
-2.26289
11
-1.49081
21
-2.25914
0
LINE
8
BLACK
6
CONTINUOUS
10
-1.49081
20
-2.25914
11
-1.48706
21
-2.25727
0
LINE
8
BLACK
6
CONTINUOUS
10
-1.48706
20
-2.25727
11
-1.46644
21
-2.25727
0
LINE
8
BLACK
6
CONTINUOUS
10
-1.48706
20
-2.25727
11
-1.49081
21
-2.25539
0
LINE
8
BLACK
6
CONTINUOUS
10
-1.49081
20
-2.25539
11
-1.49269
21
-2.25165
0
LINE
8
BLACK
6
CONTINUOUS
10
-1.49269
20
-2.25165
11
-1.49269
21
-2.24602
0
LINE
8
BLACK
6
CONTINUOUS
10
-1.49269
20
-2.24602
11
-1.49081
21
-2.24227
0
LINE
8
BLACK
6
CONTINUOUS
10
-1.49081
20
-2.24227
11
-1.48706
21
-2.2404
0
LINE
8
BLACK
6
CONTINUOUS
10
-1.48706
20
-2.2404
11
-1.46644
21
-2.2404
0
LINE
8
BLACK
6
CONTINUOUS
10
-1.43701
20
-4.46378
11
-1.43701
21
-0.376969
0
LINE
8
BLACK
6
CONTINUOUS
10
-1.32657
20
-4.46378
11
-1.4601
21
-4.46378
0
LINE
8
BLACK
6
CONTINUOUS
10
-1.32657
20
-0.376969
11
-1.4601
21
-0.376969
0
LINE
8
BLACK
6
CONTINUOUS
10
-1.43701
20
-0.376969
11
-1.41392
21
-0.421319
0
LINE
8
BLACK
6
CONTINUOUS
10
-1.43701
20
-0.376969
11
-1.4601
21
-0.421319
0
LINE
8
BLACK
6
CONTINUOUS
10
-1.43701
20
-4.46378
11
-1.41392
21
-4.41943
0
LINE
8
BLACK
6
CONTINUOUS
10
-1.43701
20
-4.46378
11
-1.4601
21
-4.41943
0
LINE
8
BLACK
6
CONTINUOUS
10
3.04163
20
-4.12697
11
-0.22361
21
-4.12697
0
LINE
8
BLACK
6
CONTINUOUS
10
3.04163
20
-4.12697
11
3.98278
21
-4.12697
0
LINE
8
BLACK
6
CONTINUOUS
10
-1.24547
20
-0.376969
11
4.90197
21
-0.376969
0
LINE
8
BLACK
6
CONTINUOUS
10
4.92146
20
-0.398819
11
4.92146
21
-3.25
0
LINE
8
BLACK
6
CONTINUOUS
10
4.92146
20
-3.25
11
5.1937
21
-3.77283
0
LINE
8
BLACK
6
CONTINUOUS
10
5.1937
20
-4.44429
11
5.1937
21
-3.77283
0
LINE
8
BLACK
6
CONTINUOUS
10
5.17185
20
-4.46378
11
4.19154
21
-4.46378
0
LINE
8
BLACK
6
CONTINUOUS
10
4.17205
20
-4.44193
11
4.17205
21
-4.14882
0
LINE
8
BLACK
6
CONTINUOUS
10
4.15256
20
-4.12697
11
3.98278
21
-4.12697
0
LINE
8
BLACK
6
CONTINUOUS
10
-0.245669
20
-4.44429
11
-0.245669
21
-4.14646
0
LINE
8
BLACK
6
CONTINUOUS
10
-0.26752
20
-4.46378
11
-1.24783
21
-4.46378
0
LINE
8
BLACK
6
CONTINUOUS
10
-1.26732
20
-4.44193
11
-1.26732
21
-3.35512
0
ARC
8
BLACK
10
4.15138
20
-4.14764
40
0.020703
50
-3.27049
51
86.7295
0
ARC
8
BLACK
10
-0.224803
20
-4.14783
40
0.0209116
50
86.2218
51
176.222
0
ARC
8
BLACK
10
-0.266339
20
-4.44311
40
0.020703
50
-93.2705
51
-3.27049
0
ARC
8
BLACK
10
4.19272
20
-4.44311
40
0.020703
50
-183.27
51
-93.2705
0
ARC
8
BLACK
10
5.17303
20
-4.44311
40
0.020703
50
-93.2705
51
-3.27049
0
ARC
8
BLACK
10
-1.24665
20
-4.44311
40
0.020703
50
-183.27
51
-93.2705
0
ARC
8
BLACK
10
4.90079
20
-0.397638
40
0.020703
50
-3.27049
51
86.7295
0
LINE
8
BLACK
6
CONTINUOUS
10
-1.26732
20
-0.396457
11
-1.26732
21
-3.35512
0
ARC
8
BLACK
10
-1.24665
20
-0.397638
40
0.020703
50
86.7295
51
176.73
0
LINE
8
BLACK
6
CONTINUOUS
10
4.69388
20
-3.55989
11
4.69826
21
-3.56076
0
LINE
8
BLACK
6
CONTINUOUS
10
4.69826
20
-3.56076
11
4.7065
21
-3.56417
0
LINE
8
BLACK
6
CONTINUOUS
10
4.7065
20
-3.56417
11
4.71393
21
-3.56913
0
LINE
8
BLACK
6
CONTINUOUS
10
4.71393
20
-3.56913
11
4.72024
21
-3.57544
0
LINE
8
BLACK
6
CONTINUOUS
10
4.72024
20
-3.57544
11
4.7252
21
-3.58287
0
LINE
8
BLACK
6
CONTINUOUS
10
4.7252
20
-3.58287
11
4.72861
21
-3.59111
0
LINE
8
BLACK
6
CONTINUOUS
10
4.72861
20
-3.59111
11
4.73035
21
-3.59987
0
LINE
8
BLACK
6
CONTINUOUS
10
4.73035
20
-3.59987
11
4.73035
21
-3.60879
0
LINE
8
BLACK
6
CONTINUOUS
10
4.73035
20
-3.60879
11
4.72861
21
-3.61755
0
LINE
8
BLACK
6
CONTINUOUS
10
4.72861
20
-3.61755
11
4.7252
21
-3.6258
0
LINE
8
BLACK
6
CONTINUOUS
10
4.7252
20
-3.6258
11
4.72024
21
-3.63322
0
LINE
8
BLACK
6
CONTINUOUS
10
4.72024
20
-3.63322
11
4.71393
21
-3.63953
0
LINE
8
BLACK
6
CONTINUOUS
10
4.71393
20
-3.63953
11
4.7065
21
-3.64449
0
LINE
8
BLACK
6
CONTINUOUS
10
4.7065
20
-3.64449
11
4.69826
21
-3.6479
0
LINE
8
BLACK
6
CONTINUOUS
10
4.69826
20
-3.6479
11
4.69388
21
-3.64877
0
LINE
8
BLACK
6
CONTINUOUS
10
4.69388
20
-3.64877
11
4.6895
21
-3.64965
0
LINE
8
BLACK
6
CONTINUOUS
10
4.6895
20
-3.64965
11
4.68058
21
-3.64965
0
LINE
8
BLACK
6
CONTINUOUS
10
4.68058
20
-3.64965
11
4.6762
21
-3.64877
0
LINE
8
BLACK
6
CONTINUOUS
10
4.6762
20
-3.64877
11
4.67182
21
-3.6479
0
LINE
8
BLACK
6
CONTINUOUS
10
4.67182
20
-3.6479
11
4.66357
21
-3.64449
0
LINE
8
BLACK
6
CONTINUOUS
10
4.66357
20
-3.64449
11
4.65615
21
-3.63953
0
LINE
8
BLACK
6
CONTINUOUS
10
4.65615
20
-3.63953
11
4.64984
21
-3.63322
0
LINE
8
BLACK
6
CONTINUOUS
10
4.64984
20
-3.63322
11
4.64488
21
-3.6258
0
LINE
8
BLACK
6
CONTINUOUS
10
4.64488
20
-3.6258
11
4.64147
21
-3.61755
0
LINE
8
BLACK
6
CONTINUOUS
10
4.64147
20
-3.61755
11
4.63972
21
-3.60879
0
LINE
8
BLACK
6
CONTINUOUS
10
4.63972
20
-3.60879
11
4.63972
21
-3.59987
0
LINE
8
BLACK
6
CONTINUOUS
10
4.63972
20
-3.59987
11
4.64147
21
-3.59111
0
LINE
8
BLACK
6
CONTINUOUS
10
4.64147
20
-3.59111
11
4.64488
21
-3.58287
0
LINE
8
BLACK
6
CONTINUOUS
10
4.64488
20
-3.58287
11
4.64984
21
-3.57544
0
LINE
8
BLACK
6
CONTINUOUS
10
4.64984
20
-3.57544
11
4.65615
21
-3.56913
0
LINE
8
BLACK
6
CONTINUOUS
10
4.65615
20
-3.56913
11
4.66357
21
-3.56417
0
LINE
8
BLACK
6
CONTINUOUS
10
4.66357
20
-3.56417
11
4.67182
21
-3.56076
0
LINE
8
BLACK
6
CONTINUOUS
10
4.67182
20
-3.56076
11
4.6762
21
-3.55989
0
LINE
8
BLACK
6
CONTINUOUS
10
4.6762
20
-3.55989
11
4.68058
21
-3.55902
0
LINE
8
BLACK
6
CONTINUOUS
10
4.68058
20
-3.55902
11
4.6895
21
-3.55902
0
LINE
8
BLACK
6
CONTINUOUS
10
4.6895
20
-3.55902
11
4.69388
21
-3.55989
0
LINE
8
BLACK
6
CONTINUOUS
10
3.42813
20
-3.31579
11
3.43251
21
-3.31666
0
LINE
8
BLACK
6
CONTINUOUS
10
3.43251
20
-3.31666
11
3.44076
21
-3.32008
0
LINE
8
BLACK
6
CONTINUOUS
10
3.44076
20
-3.32008
11
3.44818
21
-3.32504
0
LINE
8
BLACK
6
CONTINUOUS
10
3.44818
20
-3.32504
11
3.45449
21
-3.33135
0
LINE
8
BLACK
6
CONTINUOUS
10
3.45449
20
-3.33135
11
3.45945
21
-3.33877
0
LINE
8
BLACK
6
CONTINUOUS
10
3.45945
20
-3.33877
11
3.46286
21
-3.34702
0
LINE
8
BLACK
6
CONTINUOUS
10
3.46286
20
-3.34702
11
3.46461
21
-3.35577
0
LINE
8
BLACK
6
CONTINUOUS
10
3.46461
20
-3.35577
11
3.46461
21
-3.3647
0
LINE
8
BLACK
6
CONTINUOUS
10
3.46461
20
-3.3647
11
3.46286
21
-3.37345
0
LINE
8
BLACK
6
CONTINUOUS
10
3.46286
20
-3.37345
11
3.45945
21
-3.3817
0
LINE
8
BLACK
6
CONTINUOUS
10
3.45945
20
-3.3817
11
3.45449
21
-3.38912
0
LINE
8
BLACK
6
CONTINUOUS
10
3.45449
20
-3.38912
11
3.44818
21
-3.39543
0
LINE
8
BLACK
6
CONTINUOUS
10
3.44818
20
-3.39543
11
3.44076
21
-3.40039
0
LINE
8
BLACK
6
CONTINUOUS
10
3.44076
20
-3.40039
11
3.43251
21
-3.40381
0
LINE
8
BLACK
6
CONTINUOUS
10
3.43251
20
-3.40381
11
3.42813
21
-3.40468
0
LINE
8
BLACK
6
CONTINUOUS
10
3.42813
20
-3.40468
11
3.42375
21
-3.40555
0
LINE
8
BLACK
6
CONTINUOUS
10
3.42375
20
-3.40555
11
3.41483
21
-3.40555
0
LINE
8
BLACK
6
CONTINUOUS
10
3.41483
20
-3.40555
11
3.41045
21
-3.40468
0
LINE
8
BLACK
6
CONTINUOUS
10
3.41045
20
-3.40468
11
3.40607
21
-3.40381
0
LINE
8
BLACK
6
CONTINUOUS
10
3.40607
20
-3.40381
11
3.39783
21
-3.40039
0
LINE
8
BLACK
6
CONTINUOUS
10
3.39783
20
-3.40039
11
3.3904
21
-3.39543
0
LINE
8
BLACK
6
CONTINUOUS
10
3.3904
20
-3.39543
11
3.38409
21
-3.38912
0
LINE
8
BLACK
6
CONTINUOUS
10
3.38409
20
-3.38912
11
3.37913
21
-3.3817
0
LINE
8
BLACK
6
CONTINUOUS
10
3.37913
20
-3.3817
11
3.37572
21
-3.37345
0
LINE
8
BLACK
6
CONTINUOUS
10
3.37572
20
-3.37345
11
3.37398
21
-3.3647
0
LINE
8
BLACK
6
CONTINUOUS
10
3.37398
20
-3.3647
11
3.37398
21
-3.35577
0
LINE
8
BLACK
6
CONTINUOUS
10
3.37398
20
-3.35577
11
3.37572
21
-3.34702
0
LINE
8
BLACK
6
CONTINUOUS
10
3.37572
20
-3.34702
11
3.37913
21
-3.33877
0
LINE
8
BLACK
6
CONTINUOUS
10
3.37913
20
-3.33877
11
3.38409
21
-3.33135
0
LINE
8
BLACK
6
CONTINUOUS
10
3.38409
20
-3.33135
11
3.3904
21
-3.32504
0
LINE
8
BLACK
6
CONTINUOUS
10
3.3904
20
-3.32504
11
3.39783
21
-3.32008
0
LINE
8
BLACK
6
CONTINUOUS
10
3.39783
20
-3.32008
11
3.40607
21
-3.31666
0
LINE
8
BLACK
6
CONTINUOUS
10
3.40607
20
-3.31666
11
3.41045
21
-3.31579
0
LINE
8
BLACK
6
CONTINUOUS
10
3.41045
20
-3.31579
11
3.41483
21
-3.31492
0
LINE
8
BLACK
6
CONTINUOUS
10
3.41483
20
-3.31492
11
3.42375
21
-3.31492
0
LINE
8
BLACK
6
CONTINUOUS
10
3.42375
20
-3.31492
11
3.42813
21
-3.31579
0
LINE
8
BLACK
6
CONTINUOUS
10
-1.14155
20
-3.31579
11
-1.13718
21
-3.31666
0
LINE
8
BLACK
6
CONTINUOUS
10
-1.13718
20
-3.31666
11
-1.12893
21
-3.32008
0
LINE
8
BLACK
6
CONTINUOUS
10
-1.12893
20
-3.32008
11
-1.12151
21
-3.32504
0
LINE
8
BLACK
6
CONTINUOUS
10
-1.12151
20
-3.32504
11
-1.1152
21
-3.33135
0
LINE
8
BLACK
6
CONTINUOUS
10
-1.1152
20
-3.33135
11
-1.11024
21
-3.33877
0
LINE
8
BLACK
6
CONTINUOUS
10
-1.11024
20
-3.33877
11
-1.10682
21
-3.34702
0
LINE
8
BLACK
6
CONTINUOUS
10
-1.10682
20
-3.34702
11
-1.10508
21
-3.35577
0
LINE
8
BLACK
6
CONTINUOUS
10
-1.10508
20
-3.35577
11
-1.10508
21
-3.3647
0
LINE
8
BLACK
6
CONTINUOUS
10
-1.10508
20
-3.3647
11
-1.10682
21
-3.37345
0
LINE
8
BLACK
6
CONTINUOUS
10
-1.10682
20
-3.37345
11
-1.11024
21
-3.3817
0
LINE
8
BLACK
6
CONTINUOUS
10
-1.11024
20
-3.3817
11
-1.1152
21
-3.38912
0
LINE
8
BLACK
6
CONTINUOUS
10
-1.1152
20
-3.38912
11
-1.12151
21
-3.39543
0
LINE
8
BLACK
6
CONTINUOUS
10
-1.12151
20
-3.39543
11
-1.12893
21
-3.40039
0
LINE
8
BLACK
6
CONTINUOUS
10
-1.12893
20
-3.40039
11
-1.13718
21
-3.40381
0
LINE
8
BLACK
6
CONTINUOUS
10
-1.13718
20
-3.40381
11
-1.14155
21
-3.40468
0
LINE
8
BLACK
6
CONTINUOUS
10
-1.14155
20
-3.40468
11
-1.14593
21
-3.40555
0
LINE
8
BLACK
6
CONTINUOUS
10
-1.14593
20
-3.40555
11
-1.15486
21
-3.40555
0
LINE
8
BLACK
6
CONTINUOUS
10
-1.15486
20
-3.40555
11
-1.15923
21
-3.40468
0
LINE
8
BLACK
6
CONTINUOUS
10
-1.15923
20
-3.40468
11
-1.16361
21
-3.40381
0
LINE
8
BLACK
6
CONTINUOUS
10
-1.16361
20
-3.40381
11
-1.17186
21
-3.40039
0
LINE
8
BLACK
6
CONTINUOUS
10
-1.17186
20
-3.40039
11
-1.17928
21
-3.39543
0
LINE
8
BLACK
6
CONTINUOUS
10
-1.17928
20
-3.39543
11
-1.18559
21
-3.38912
0
LINE
8
BLACK
6
CONTINUOUS
10
-1.18559
20
-3.38912
11
-1.19055
21
-3.3817
0
LINE
8
BLACK
6
CONTINUOUS
10
-1.19055
20
-3.3817
11
-1.19397
21
-3.37345
0
LINE
8
BLACK
6
CONTINUOUS
10
-1.19397
20
-3.37345
11
-1.19571
21
-3.3647
0
LINE
8
BLACK
6
CONTINUOUS
10
-1.19571
20
-3.3647
11
-1.19571
21
-3.35577
0
LINE
8
BLACK
6
CONTINUOUS
10
-1.19571
20
-3.35577
11
-1.19397
21
-3.34702
0
LINE
8
BLACK
6
CONTINUOUS
10
-1.19397
20
-3.34702
11
-1.19055
21
-3.33877
0
LINE
8
BLACK
6
CONTINUOUS
10
-1.19055
20
-3.33877
11
-1.18559
21
-3.33135
0
LINE
8
BLACK
6
CONTINUOUS
10
-1.18559
20
-3.33135
11
-1.17928
21
-3.32504
0
LINE
8
BLACK
6
CONTINUOUS
10
-1.17928
20
-3.32504
11
-1.17186
21
-3.32008
0
LINE
8
BLACK
6
CONTINUOUS
10
-1.17186
20
-3.32008
11
-1.16361
21
-3.31666
0
LINE
8
BLACK
6
CONTINUOUS
10
-1.16361
20
-3.31666
11
-1.15923
21
-3.31579
0
LINE
8
BLACK
6
CONTINUOUS
10
-1.15923
20
-3.31579
11
-1.15486
21
-3.31492
0
LINE
8
BLACK
6
CONTINUOUS
10
-1.15486
20
-3.31492
11
-1.14593
21
-3.31492
0
LINE
8
BLACK
6
CONTINUOUS
10
-1.14593
20
-3.31492
11
-1.14155
21
-3.31579
0
LINE
8
BLACK
6
CONTINUOUS
10
1.36563
20
-1.81579
11
1.37001
21
-1.81666
0
LINE
8
BLACK
6
CONTINUOUS
10
1.37001
20
-1.81666
11
1.37826
21
-1.82008
0
LINE
8
BLACK
6
CONTINUOUS
10
1.37826
20
-1.82008
11
1.38568
21
-1.82504
0
LINE
8
BLACK
6
CONTINUOUS
10
1.38568
20
-1.82504
11
1.39199
21
-1.83135
0
LINE
8
BLACK
6
CONTINUOUS
10
1.39199
20
-1.83135
11
1.39695
21
-1.83877
0
LINE
8
BLACK
6
CONTINUOUS
10
1.39695
20
-1.83877
11
1.40036
21
-1.84702
0
LINE
8
BLACK
6
CONTINUOUS
10
1.40036
20
-1.84702
11
1.40211
21
-1.85577
0
LINE
8
BLACK
6
CONTINUOUS
10
1.40211
20
-1.85577
11
1.40211
21
-1.8647
0
LINE
8
BLACK
6
CONTINUOUS
10
1.40211
20
-1.8647
11
1.40036
21
-1.87345
0
LINE
8
BLACK
6
CONTINUOUS
10
1.40036
20
-1.87345
11
1.39695
21
-1.8817
0
LINE
8
BLACK
6
CONTINUOUS
10
1.39695
20
-1.8817
11
1.39199
21
-1.88912
0
LINE
8
BLACK
6
CONTINUOUS
10
1.39199
20
-1.88912
11
1.38568
21
-1.89543
0
LINE
8
BLACK
6
CONTINUOUS
10
1.38568
20
-1.89543
11
1.37826
21
-1.90039
0
LINE
8
BLACK
6
CONTINUOUS
10
1.37826
20
-1.90039
11
1.37001
21
-1.90381
0
LINE
8
BLACK
6
CONTINUOUS
10
1.37001
20
-1.90381
11
1.36563
21
-1.90468
0
LINE
8
BLACK
6
CONTINUOUS
10
1.36563
20
-1.90468
11
1.36125
21
-1.90555
0
LINE
8
BLACK
6
CONTINUOUS
10
1.36125
20
-1.90555
11
1.35233
21
-1.90555
0
LINE
8
BLACK
6
CONTINUOUS
10
1.35233
20
-1.90555
11
1.34795
21
-1.90468
0
LINE
8
BLACK
6
CONTINUOUS
10
1.34795
20
-1.90468
11
1.34357
21
-1.90381
0
LINE
8
BLACK
6
CONTINUOUS
10
1.34357
20
-1.90381
11
1.33533
21
-1.90039
0
LINE
8
BLACK
6
CONTINUOUS
10
1.33533
20
-1.90039
11
1.3279
21
-1.89543
0
LINE
8
BLACK
6
CONTINUOUS
10
1.3279
20
-1.89543
11
1.32159
21
-1.88912
0
LINE
8
BLACK
6
CONTINUOUS
10
1.32159
20
-1.88912
11
1.31663
21
-1.8817
0
LINE
8
BLACK
6
CONTINUOUS
10
1.31663
20
-1.8817
11
1.31322
21
-1.87345
0
LINE
8
BLACK
6
CONTINUOUS
10
1.31322
20
-1.87345
11
1.31148
21
-1.8647
0
LINE
8
BLACK
6
CONTINUOUS
10
1.31148
20
-1.8647
11
1.31148
21
-1.85577
0
LINE
8
BLACK
6
CONTINUOUS
10
1.31148
20
-1.85577
11
1.31322
21
-1.84702
0
LINE
8
BLACK
6
CONTINUOUS
10
1.31322
20
-1.84702
11
1.31663
21
-1.83877
0
LINE
8
BLACK
6
CONTINUOUS
10
1.31663
20
-1.83877
11
1.32159
21
-1.83135
0
LINE
8
BLACK
6
CONTINUOUS
10
1.32159
20
-1.83135
11
1.3279
21
-1.82504
0
LINE
8
BLACK
6
CONTINUOUS
10
1.3279
20
-1.82504
11
1.33533
21
-1.82008
0
LINE
8
BLACK
6
CONTINUOUS
10
1.33533
20
-1.82008
11
1.34357
21
-1.81666
0
LINE
8
BLACK
6
CONTINUOUS
10
1.34357
20
-1.81666
11
1.34795
21
-1.81579
0
LINE
8
BLACK
6
CONTINUOUS
10
1.34795
20
-1.81579
11
1.35233
21
-1.81492
0
LINE
8
BLACK
6
CONTINUOUS
10
1.35233
20
-1.81492
11
1.36125
21
-1.81492
0
LINE
8
BLACK
6
CONTINUOUS
10
1.36125
20
-1.81492
11
1.36563
21
-1.81579
0
LINE
8
BLACK
6
CONTINUOUS
10
3.24063
20
-1.08154
11
3.24501
21
-1.08241
0
LINE
8
BLACK
6
CONTINUOUS
10
3.24501
20
-1.08241
11
3.25326
21
-1.08583
0
LINE
8
BLACK
6
CONTINUOUS
10
3.25326
20
-1.08583
11
3.26068
21
-1.09079
0
LINE
8
BLACK
6
CONTINUOUS
10
3.26068
20
-1.09079
11
3.26699
21
-1.0971
0
LINE
8
BLACK
6
CONTINUOUS
10
3.26699
20
-1.0971
11
3.27195
21
-1.10452
0
LINE
8
BLACK
6
CONTINUOUS
10
3.27195
20
-1.10452
11
3.27536
21
-1.11277
0
LINE
8
BLACK
6
CONTINUOUS
10
3.27536
20
-1.11277
11
3.27624
21
-1.11714
0
LINE
8
BLACK
6
CONTINUOUS
10
3.27624
20
-1.11714
11
3.27711
21
-1.12152
0
LINE
8
BLACK
6
CONTINUOUS
10
3.27711
20
-1.12152
11
3.27711
21
-1.13045
0
LINE
8
BLACK
6
CONTINUOUS
10
3.27711
20
-1.13045
11
3.27624
21
-1.13482
0
LINE
8
BLACK
6
CONTINUOUS
10
3.27624
20
-1.13482
11
3.27536
21
-1.1392
0
LINE
8
BLACK
6
CONTINUOUS
10
3.27536
20
-1.1392
11
3.27295
21
-1.14503
0
LINE
8
BLACK
6
CONTINUOUS
10
3.27295
20
-1.14503
11
3.27214
21
-1.147
0
LINE
8
BLACK
6
CONTINUOUS
10
3.27214
20
-1.147
11
3.27195
21
-1.14745
0
LINE
8
BLACK
6
CONTINUOUS
10
3.27195
20
-1.14745
11
3.26699
21
-1.15487
0
LINE
8
BLACK
6
CONTINUOUS
10
3.26699
20
-1.15487
11
3.26068
21
-1.16118
0
LINE
8
BLACK
6
CONTINUOUS
10
3.26068
20
-1.16118
11
3.25326
21
-1.16614
0
LINE
8
BLACK
6
CONTINUOUS
10
3.25326
20
-1.16614
11
3.24501
21
-1.16956
0
LINE
8
BLACK
6
CONTINUOUS
10
3.24501
20
-1.16956
11
3.24063
21
-1.17043
0
LINE
8
BLACK
6
CONTINUOUS
10
3.24063
20
-1.17043
11
3.23625
21
-1.1713
0
LINE
8
BLACK
6
CONTINUOUS
10
3.23625
20
-1.1713
11
3.22733
21
-1.1713
0
LINE
8
BLACK
6
CONTINUOUS
10
3.22733
20
-1.1713
11
3.22295
21
-1.17043
0
LINE
8
BLACK
6
CONTINUOUS
10
3.22295
20
-1.17043
11
3.21857
21
-1.16956
0
LINE
8
BLACK
6
CONTINUOUS
10
3.21857
20
-1.16956
11
3.21033
21
-1.16614
0
LINE
8
BLACK
6
CONTINUOUS
10
3.21033
20
-1.16614
11
3.2029
21
-1.16118
0
LINE
8
BLACK
6
CONTINUOUS
10
3.2029
20
-1.16118
11
3.19659
21
-1.15487
0
LINE
8
BLACK
6
CONTINUOUS
10
3.19659
20
-1.15487
11
3.19163
21
-1.14745
0
LINE
8
BLACK
6
CONTINUOUS
10
3.19163
20
-1.14745
11
3.19145
21
-1.147
0
LINE
8
BLACK
6
CONTINUOUS
10
3.19145
20
-1.147
11
3.19063
21
-1.14503
0
LINE
8
BLACK
6
CONTINUOUS
10
3.19063
20
-1.14503
11
3.18822
21
-1.1392
0
LINE
8
BLACK
6
CONTINUOUS
10
3.18822
20
-1.1392
11
3.18735
21
-1.13482
0
LINE
8
BLACK
6
CONTINUOUS
10
3.18735
20
-1.13482
11
3.18648
21
-1.13045
0
LINE
8
BLACK
6
CONTINUOUS
10
3.18648
20
-1.13045
11
3.18648
21
-1.12152
0
LINE
8
BLACK
6
CONTINUOUS
10
3.18648
20
-1.12152
11
3.18735
21
-1.11714
0
LINE
8
BLACK
6
CONTINUOUS
10
3.18735
20
-1.11714
11
3.18822
21
-1.11277
0
LINE
8
BLACK
6
CONTINUOUS
10
3.18822
20
-1.11277
11
3.19163
21
-1.10452
0
LINE
8
BLACK
6
CONTINUOUS
10
3.19163
20
-1.10452
11
3.19659
21
-1.0971
0
LINE
8
BLACK
6
CONTINUOUS
10
3.19659
20
-1.0971
11
3.2029
21
-1.09079
0
LINE
8
BLACK
6
CONTINUOUS
10
3.2029
20
-1.09079
11
3.21033
21
-1.08583
0
LINE
8
BLACK
6
CONTINUOUS
10
3.21033
20
-1.08583
11
3.21857
21
-1.08241
0
LINE
8
BLACK
6
CONTINUOUS
10
3.21857
20
-1.08241
11
3.22295
21
-1.08154
0
LINE
8
BLACK
6
CONTINUOUS
10
3.22295
20
-1.08154
11
3.22733
21
-1.08067
0
LINE
8
BLACK
6
CONTINUOUS
10
3.22733
20
-1.08067
11
3.23625
21
-1.08067
0
LINE
8
BLACK
6
CONTINUOUS
10
3.23625
20
-1.08067
11
3.24063
21
-1.08154
0
LINE
8
BLACK
6
CONTINUOUS
10
-0.508384
20
-1.07367
11
-0.504007
21
-1.07454
0
LINE
8
BLACK
6
CONTINUOUS
10
-0.504007
20
-1.07454
11
-0.49576
21
-1.07795
0
LINE
8
BLACK
6
CONTINUOUS
10
-0.49576
20
-1.07795
11
-0.488338
21
-1.08291
0
LINE
8
BLACK
6
CONTINUOUS
10
-0.488338
20
-1.08291
11
-0.482026
21
-1.08922
0
LINE
8
BLACK
6
CONTINUOUS
10
-0.482026
20
-1.08922
11
-0.480982
21
-1.09079
0
LINE
8
BLACK
6
CONTINUOUS
10
-0.480982
20
-1.09079
11
-0.477067
21
-1.09665
0
LINE
8
BLACK
6
CONTINUOUS
10
-0.477067
20
-1.09665
11
-0.47688
21
-1.0971
0
LINE
8
BLACK
6
CONTINUOUS
10
-0.47688
20
-1.0971
11
-0.473805
21
-1.10452
0
LINE
8
BLACK
6
CONTINUOUS
10
-0.473805
20
-1.10452
11
-0.473651
21
-1.10489
0
LINE
8
BLACK
6
CONTINUOUS
10
-0.473651
20
-1.10489
11
-0.472085
21
-1.11277
0
LINE
8
BLACK
6
CONTINUOUS
10
-0.472085
20
-1.11277
11
-0.471909
21
-1.11365
0
LINE
8
BLACK
6
CONTINUOUS
10
-0.471909
20
-1.11365
11
-0.471909
21
-1.12257
0
LINE
8
BLACK
6
CONTINUOUS
10
-0.471909
20
-1.12257
11
-0.473651
21
-1.13133
0
LINE
8
BLACK
6
CONTINUOUS
10
-0.473651
20
-1.13133
11
-0.477067
21
-1.13957
0
LINE
8
BLACK
6
CONTINUOUS
10
-0.477067
20
-1.13957
11
-0.482026
21
-1.147
0
LINE
8
BLACK
6
CONTINUOUS
10
-0.482026
20
-1.147
11
-0.488338
21
-1.15331
0
LINE
8
BLACK
6
CONTINUOUS
10
-0.488338
20
-1.15331
11
-0.49576
21
-1.15827
0
LINE
8
BLACK
6
CONTINUOUS
10
-0.49576
20
-1.15827
11
-0.504007
21
-1.16168
0
LINE
8
BLACK
6
CONTINUOUS
10
-0.504007
20
-1.16168
11
-0.508384
21
-1.16255
0
LINE
8
BLACK
6
CONTINUOUS
10
-0.508384
20
-1.16255
11
-0.512761
21
-1.16343
0
LINE
8
BLACK
6
CONTINUOUS
10
-0.512761
20
-1.16343
11
-0.521688
21
-1.16343
0
LINE
8
BLACK
6
CONTINUOUS
10
-0.521688
20
-1.16343
11
-0.526065
21
-1.16255
0
LINE
8
BLACK
6
CONTINUOUS
10
-0.526065
20
-1.16255
11
-0.530442
21
-1.16168
0
LINE
8
BLACK
6
CONTINUOUS
10
-0.530442
20
-1.16168
11
-0.538689
21
-1.15827
0
LINE
8
BLACK
6
CONTINUOUS
10
-0.538689
20
-1.15827
11
-0.546111
21
-1.15331
0
LINE
8
BLACK
6
CONTINUOUS
10
-0.546111
20
-1.15331
11
-0.552423
21
-1.147
0
LINE
8
BLACK
6
CONTINUOUS
10
-0.552423
20
-1.147
11
-0.557382
21
-1.13957
0
LINE
8
BLACK
6
CONTINUOUS
10
-0.557382
20
-1.13957
11
-0.560798
21
-1.13133
0
LINE
8
BLACK
6
CONTINUOUS
10
-0.560798
20
-1.13133
11
-0.562539
21
-1.12257
0
LINE
8
BLACK
6
CONTINUOUS
10
-0.562539
20
-1.12257
11
-0.562539
21
-1.11365
0
LINE
8
BLACK
6
CONTINUOUS
10
-0.562539
20
-1.11365
11
-0.562364
21
-1.11277
0
LINE
8
BLACK
6
CONTINUOUS
10
-0.562364
20
-1.11277
11
-0.560798
21
-1.10489
0
LINE
8
BLACK
6
CONTINUOUS
10
-0.560798
20
-1.10489
11
-0.560644
21
-1.10452
0
LINE
8
BLACK
6
CONTINUOUS
10
-0.560644
20
-1.10452
11
-0.557569
21
-1.0971
0
LINE
8
BLACK
6
CONTINUOUS
10
-0.557569
20
-1.0971
11
-0.557382
21
-1.09665
0
LINE
8
BLACK
6
CONTINUOUS
10
-0.557382
20
-1.09665
11
-0.553467
21
-1.09079
0
LINE
8
BLACK
6
CONTINUOUS
10
-0.553467
20
-1.09079
11
-0.552423
21
-1.08922
0
LINE
8
BLACK
6
CONTINUOUS
10
-0.552423
20
-1.08922
11
-0.546111
21
-1.08291
0
LINE
8
BLACK
6
CONTINUOUS
10
-0.546111
20
-1.08291
11
-0.538689
21
-1.07795
0
LINE
8
BLACK
6
CONTINUOUS
10
-0.538689
20
-1.07795
11
-0.530442
21
-1.07454
0
LINE
8
BLACK
6
CONTINUOUS
10
-0.530442
20
-1.07454
11
-0.526065
21
-1.07367
0
LINE
8
BLACK
6
CONTINUOUS
10
-0.526065
20
-1.07367
11
-0.521688
21
-1.0728
0
LINE
8
BLACK
6
CONTINUOUS
10
-0.521688
20
-1.0728
11
-0.512761
21
-1.0728
0
LINE
8
BLACK
6
CONTINUOUS
10
-0.512761
20
-1.0728
11
-0.508384
21
-1.07367
  0
ENDSEC
  0
EOF
