  0
SECTION
  2
HEADER
  9
$ANGBASE
  50
0.0
  9
$ANGDIR
  70
1
  9
$MEASUREMENT
  70
1
  0
ENDSEC
  0
SECTION
  2
TABLES
  0
TABLE
  2
LTYPE
  70
4
  0
LTYPE
  5
40F
  2
CONTINUOUS
  70
0
  3
Solid line
  72
65
  73
0
  40
0.0
  0
LTYPE
  5
410
  2
DASHDOT
 70
0
  3
Dash Dot ____ _ ____ _
 72
65
 73
4
 40
2.0
 49
1.25
 49
-0.25
 49
0.25
 49
-0.25
  0
LTYPE
  5
411
  2
DASHED
 70
0
  3
Dashed __ __ __ __ __
 72
65
 73
2
 40
0.75
 49
0.5
 49
-0.25
  0
LTYPE
  5
43B
  2
DOTTED
 70
0
  3
Dotted .  .  .  .
 72
65
 73
2
 40
0.2
 49
0.0
 49
-0.2
  0
ENDTAB
  0
TABLE
  2
STYLE
  70
4
  0
STYLE
  2
KICAD
  70
0
  40
0
  41
1
  42
1
  50
0
  71
0
  3
isocp.shx
  0
STYLE
  2
KICADB
  70
0
  40
0
  41
1
  42
1
  50
0
  71
0
  3
isocp.shx
  0
STYLE
  2
KICADI
  70
0
  40
0
  41
1
  42
1
  50
15
  71
0
  3
isocp.shx
  0
STYLE
  2
KICADBI
  70
0
  40
0
  41
1
  42
1
  50
15
  71
0
  3
isocp.shx
  0
ENDTAB
  0
TABLE
  2
LAYER
  70
1
  0
LAYER
  2
BLACK
  70
0
  62
7
  6
CONTINUOUS
  0
ENDTAB
  0
ENDSEC
  0
SECTION
  2
ENTITIES
0
LINE
8
BLACK
6
CONTINUOUS
10
118.499
20
-117.592
11
117.927
21
-117.592
0
LINE
8
BLACK
6
CONTINUOUS
10
118.213
20
-117.592
11
118.213
21
-116.592
0
LINE
8
BLACK
6
CONTINUOUS
10
118.213
20
-116.592
11
118.118
21
-116.735
0
LINE
8
BLACK
6
CONTINUOUS
10
118.118
20
-116.735
11
118.022
21
-116.83
0
LINE
8
BLACK
6
CONTINUOUS
10
118.022
20
-116.83
11
117.927
21
-116.878
0
LINE
8
BLACK
6
CONTINUOUS
10
119.356
20
-116.926
11
119.356
21
-117.592
0
LINE
8
BLACK
6
CONTINUOUS
10
119.118
20
-116.545
11
118.88
21
-117.259
0
LINE
8
BLACK
6
CONTINUOUS
10
118.88
20
-117.259
11
119.499
21
-117.259
0
LINE
8
BLACK
6
CONTINUOUS
10
119.88
20
-117.497
11
119.927
21
-117.545
0
LINE
8
BLACK
6
CONTINUOUS
10
119.927
20
-117.545
11
119.88
21
-117.592
0
LINE
8
BLACK
6
CONTINUOUS
10
119.88
20
-117.592
11
119.832
21
-117.545
0
LINE
8
BLACK
6
CONTINUOUS
10
119.832
20
-117.545
11
119.88
21
-117.497
0
LINE
8
BLACK
6
CONTINUOUS
10
119.88
20
-117.497
11
119.88
21
-117.592
0
LINE
8
BLACK
6
CONTINUOUS
10
120.26
20
-116.592
11
120.927
21
-116.592
0
LINE
8
BLACK
6
CONTINUOUS
10
120.927
20
-116.592
11
120.499
21
-117.592
0
LINE
8
BLACK
6
CONTINUOUS
10
121.499
20
-116.592
11
121.594
21
-116.592
0
LINE
8
BLACK
6
CONTINUOUS
10
121.594
20
-116.592
11
121.689
21
-116.64
0
LINE
8
BLACK
6
CONTINUOUS
10
121.689
20
-116.64
11
121.737
21
-116.688
0
LINE
8
BLACK
6
CONTINUOUS
10
121.737
20
-116.688
11
121.784
21
-116.783
0
LINE
8
BLACK
6
CONTINUOUS
10
121.784
20
-116.783
11
121.832
21
-116.973
0
LINE
8
BLACK
6
CONTINUOUS
10
121.832
20
-116.973
11
121.832
21
-117.211
0
LINE
8
BLACK
6
CONTINUOUS
10
121.832
20
-117.211
11
121.784
21
-117.402
0
LINE
8
BLACK
6
CONTINUOUS
10
121.784
20
-117.402
11
121.737
21
-117.497
0
LINE
8
BLACK
6
CONTINUOUS
10
121.737
20
-117.497
11
121.689
21
-117.545
0
LINE
8
BLACK
6
CONTINUOUS
10
121.689
20
-117.545
11
121.594
21
-117.592
0
LINE
8
BLACK
6
CONTINUOUS
10
121.594
20
-117.592
11
121.499
21
-117.592
0
LINE
8
BLACK
6
CONTINUOUS
10
121.499
20
-117.592
11
121.403
21
-117.545
0
LINE
8
BLACK
6
CONTINUOUS
10
121.403
20
-117.545
11
121.356
21
-117.497
0
LINE
8
BLACK
6
CONTINUOUS
10
121.356
20
-117.497
11
121.308
21
-117.402
0
LINE
8
BLACK
6
CONTINUOUS
10
121.308
20
-117.402
11
121.26
21
-117.211
0
LINE
8
BLACK
6
CONTINUOUS
10
121.26
20
-117.211
11
121.26
21
-116.973
0
LINE
8
BLACK
6
CONTINUOUS
10
121.26
20
-116.973
11
121.308
21
-116.783
0
LINE
8
BLACK
6
CONTINUOUS
10
121.308
20
-116.783
11
121.356
21
-116.688
0
LINE
8
BLACK
6
CONTINUOUS
10
121.356
20
-116.688
11
121.403
21
-116.64
0
LINE
8
BLACK
6
CONTINUOUS
10
121.403
20
-116.64
11
121.499
21
-116.592
0
LINE
8
BLACK
6
CONTINUOUS
10
122.451
20
-116.592
11
122.546
21
-116.592
0
LINE
8
BLACK
6
CONTINUOUS
10
122.546
20
-116.592
11
122.641
21
-116.64
0
LINE
8
BLACK
6
CONTINUOUS
10
122.641
20
-116.64
11
122.689
21
-116.688
0
LINE
8
BLACK
6
CONTINUOUS
10
122.689
20
-116.688
11
122.737
21
-116.783
0
LINE
8
BLACK
6
CONTINUOUS
10
122.737
20
-116.783
11
122.784
21
-116.973
0
LINE
8
BLACK
6
CONTINUOUS
10
122.784
20
-116.973
11
122.784
21
-117.211
0
LINE
8
BLACK
6
CONTINUOUS
10
122.784
20
-117.211
11
122.737
21
-117.402
0
LINE
8
BLACK
6
CONTINUOUS
10
122.737
20
-117.402
11
122.689
21
-117.497
0
LINE
8
BLACK
6
CONTINUOUS
10
122.689
20
-117.497
11
122.641
21
-117.545
0
LINE
8
BLACK
6
CONTINUOUS
10
122.641
20
-117.545
11
122.546
21
-117.592
0
LINE
8
BLACK
6
CONTINUOUS
10
122.546
20
-117.592
11
122.451
21
-117.592
0
LINE
8
BLACK
6
CONTINUOUS
10
122.451
20
-117.592
11
122.356
21
-117.545
0
LINE
8
BLACK
6
CONTINUOUS
10
122.356
20
-117.545
11
122.308
21
-117.497
0
LINE
8
BLACK
6
CONTINUOUS
10
122.308
20
-117.497
11
122.26
21
-117.402
0
LINE
8
BLACK
6
CONTINUOUS
10
122.26
20
-117.402
11
122.213
21
-117.211
0
LINE
8
BLACK
6
CONTINUOUS
10
122.213
20
-117.211
11
122.213
21
-116.973
0
LINE
8
BLACK
6
CONTINUOUS
10
122.213
20
-116.973
11
122.26
21
-116.783
0
LINE
8
BLACK
6
CONTINUOUS
10
122.26
20
-116.783
11
122.308
21
-116.688
0
LINE
8
BLACK
6
CONTINUOUS
10
122.308
20
-116.688
11
122.356
21
-116.64
0
LINE
8
BLACK
6
CONTINUOUS
10
122.356
20
-116.64
11
122.451
21
-116.592
0
LINE
8
BLACK
6
CONTINUOUS
10
123.975
20
-117.592
11
123.975
21
-116.926
0
LINE
8
BLACK
6
CONTINUOUS
10
123.975
20
-117.021
11
124.022
21
-116.973
0
LINE
8
BLACK
6
CONTINUOUS
10
124.022
20
-116.973
11
124.118
21
-116.926
0
LINE
8
BLACK
6
CONTINUOUS
10
124.118
20
-116.926
11
124.26
21
-116.926
0
LINE
8
BLACK
6
CONTINUOUS
10
124.26
20
-116.926
11
124.356
21
-116.973
0
LINE
8
BLACK
6
CONTINUOUS
10
124.356
20
-116.973
11
124.403
21
-117.069
0
LINE
8
BLACK
6
CONTINUOUS
10
124.403
20
-117.069
11
124.403
21
-117.592
0
LINE
8
BLACK
6
CONTINUOUS
10
124.403
20
-117.069
11
124.451
21
-116.973
0
LINE
8
BLACK
6
CONTINUOUS
10
124.451
20
-116.973
11
124.546
21
-116.926
0
LINE
8
BLACK
6
CONTINUOUS
10
124.546
20
-116.926
11
124.689
21
-116.926
0
LINE
8
BLACK
6
CONTINUOUS
10
124.689
20
-116.926
11
124.784
21
-116.973
0
LINE
8
BLACK
6
CONTINUOUS
10
124.784
20
-116.973
11
124.832
21
-117.069
0
LINE
8
BLACK
6
CONTINUOUS
10
124.832
20
-117.069
11
124.832
21
-117.592
0
LINE
8
BLACK
6
CONTINUOUS
10
125.308
20
-117.592
11
125.308
21
-116.926
0
LINE
8
BLACK
6
CONTINUOUS
10
125.308
20
-117.021
11
125.356
21
-116.973
0
LINE
8
BLACK
6
CONTINUOUS
10
125.356
20
-116.973
11
125.451
21
-116.926
0
LINE
8
BLACK
6
CONTINUOUS
10
125.451
20
-116.926
11
125.594
21
-116.926
0
LINE
8
BLACK
6
CONTINUOUS
10
125.594
20
-116.926
11
125.689
21
-116.973
0
LINE
8
BLACK
6
CONTINUOUS
10
125.689
20
-116.973
11
125.737
21
-117.069
0
LINE
8
BLACK
6
CONTINUOUS
10
125.737
20
-117.069
11
125.737
21
-117.592
0
LINE
8
BLACK
6
CONTINUOUS
10
125.737
20
-117.069
11
125.784
21
-116.973
0
LINE
8
BLACK
6
CONTINUOUS
10
125.784
20
-116.973
11
125.88
21
-116.926
0
LINE
8
BLACK
6
CONTINUOUS
10
125.88
20
-116.926
11
126.022
21
-116.926
0
LINE
8
BLACK
6
CONTINUOUS
10
126.022
20
-116.926
11
126.118
21
-116.973
0
LINE
8
BLACK
6
CONTINUOUS
10
126.118
20
-116.973
11
126.165
21
-117.069
0
LINE
8
BLACK
6
CONTINUOUS
10
126.165
20
-117.069
11
126.165
21
-117.592
0
LINE
8
BLACK
6
CONTINUOUS
10
114.72
20
-115.94
11
129.42
21
-115.94
0
LINE
8
BLACK
6
CONTINUOUS
10
114.72
20
-115.325
11
114.72
21
-116.526
0
LINE
8
BLACK
6
CONTINUOUS
10
129.42
20
-115.325
11
129.42
21
-116.526
0
LINE
8
BLACK
6
CONTINUOUS
10
129.42
20
-115.94
11
128.293
21
-116.526
0
LINE
8
BLACK
6
CONTINUOUS
10
129.42
20
-115.94
11
128.293
21
-115.354
0
LINE
8
BLACK
6
CONTINUOUS
10
114.72
20
-115.94
11
115.847
21
-116.526
0
LINE
8
BLACK
6
CONTINUOUS
10
114.72
20
-115.94
11
115.847
21
-115.354
0
LINE
8
BLACK
6
CONTINUOUS
10
105.669
20
-116.252
11
105.097
21
-116.252
0
LINE
8
BLACK
6
CONTINUOUS
10
105.383
20
-116.252
11
105.383
21
-115.252
0
LINE
8
BLACK
6
CONTINUOUS
10
105.383
20
-115.252
11
105.288
21
-115.395
0
LINE
8
BLACK
6
CONTINUOUS
10
105.288
20
-115.395
11
105.192
21
-115.49
0
LINE
8
BLACK
6
CONTINUOUS
10
105.192
20
-115.49
11
105.097
21
-115.538
0
LINE
8
BLACK
6
CONTINUOUS
10
106.288
20
-115.252
11
106.383
21
-115.252
0
LINE
8
BLACK
6
CONTINUOUS
10
106.383
20
-115.252
11
106.478
21
-115.3
0
LINE
8
BLACK
6
CONTINUOUS
10
106.478
20
-115.3
11
106.526
21
-115.348
0
LINE
8
BLACK
6
CONTINUOUS
10
106.526
20
-115.348
11
106.573
21
-115.443
0
LINE
8
BLACK
6
CONTINUOUS
10
106.573
20
-115.443
11
106.621
21
-115.633
0
LINE
8
BLACK
6
CONTINUOUS
10
106.621
20
-115.633
11
106.621
21
-115.871
0
LINE
8
BLACK
6
CONTINUOUS
10
106.621
20
-115.871
11
106.573
21
-116.062
0
LINE
8
BLACK
6
CONTINUOUS
10
106.573
20
-116.062
11
106.526
21
-116.157
0
LINE
8
BLACK
6
CONTINUOUS
10
106.526
20
-116.157
11
106.478
21
-116.205
0
LINE
8
BLACK
6
CONTINUOUS
10
106.478
20
-116.205
11
106.383
21
-116.252
0
LINE
8
BLACK
6
CONTINUOUS
10
106.383
20
-116.252
11
106.288
21
-116.252
0
LINE
8
BLACK
6
CONTINUOUS
10
106.288
20
-116.252
11
106.192
21
-116.205
0
LINE
8
BLACK
6
CONTINUOUS
10
106.192
20
-116.205
11
106.145
21
-116.157
0
LINE
8
BLACK
6
CONTINUOUS
10
106.145
20
-116.157
11
106.097
21
-116.062
0
LINE
8
BLACK
6
CONTINUOUS
10
106.097
20
-116.062
11
106.05
21
-115.871
0
LINE
8
BLACK
6
CONTINUOUS
10
106.05
20
-115.871
11
106.05
21
-115.633
0
LINE
8
BLACK
6
CONTINUOUS
10
106.05
20
-115.633
11
106.097
21
-115.443
0
LINE
8
BLACK
6
CONTINUOUS
10
106.097
20
-115.443
11
106.145
21
-115.348
0
LINE
8
BLACK
6
CONTINUOUS
10
106.145
20
-115.348
11
106.192
21
-115.3
0
LINE
8
BLACK
6
CONTINUOUS
10
106.192
20
-115.3
11
106.288
21
-115.252
0
LINE
8
BLACK
6
CONTINUOUS
10
107.05
20
-116.157
11
107.097
21
-116.205
0
LINE
8
BLACK
6
CONTINUOUS
10
107.097
20
-116.205
11
107.05
21
-116.252
0
LINE
8
BLACK
6
CONTINUOUS
10
107.05
20
-116.252
11
107.002
21
-116.205
0
LINE
8
BLACK
6
CONTINUOUS
10
107.002
20
-116.205
11
107.05
21
-116.157
0
LINE
8
BLACK
6
CONTINUOUS
10
107.05
20
-116.157
11
107.05
21
-116.252
0
LINE
8
BLACK
6
CONTINUOUS
10
107.573
20
-116.252
11
107.764
21
-116.252
0
LINE
8
BLACK
6
CONTINUOUS
10
107.764
20
-116.252
11
107.859
21
-116.205
0
LINE
8
BLACK
6
CONTINUOUS
10
107.859
20
-116.205
11
107.907
21
-116.157
0
LINE
8
BLACK
6
CONTINUOUS
10
107.907
20
-116.157
11
108.002
21
-116.014
0
LINE
8
BLACK
6
CONTINUOUS
10
108.002
20
-116.014
11
108.05
21
-115.824
0
LINE
8
BLACK
6
CONTINUOUS
10
108.05
20
-115.824
11
108.05
21
-115.443
0
LINE
8
BLACK
6
CONTINUOUS
10
108.05
20
-115.443
11
108.002
21
-115.348
0
LINE
8
BLACK
6
CONTINUOUS
10
108.002
20
-115.348
11
107.954
21
-115.3
0
LINE
8
BLACK
6
CONTINUOUS
10
107.954
20
-115.3
11
107.859
21
-115.252
0
LINE
8
BLACK
6
CONTINUOUS
10
107.859
20
-115.252
11
107.669
21
-115.252
0
LINE
8
BLACK
6
CONTINUOUS
10
107.669
20
-115.252
11
107.573
21
-115.3
0
LINE
8
BLACK
6
CONTINUOUS
10
107.573
20
-115.3
11
107.526
21
-115.348
0
LINE
8
BLACK
6
CONTINUOUS
10
107.526
20
-115.348
11
107.478
21
-115.443
0
LINE
8
BLACK
6
CONTINUOUS
10
107.478
20
-115.443
11
107.478
21
-115.681
0
LINE
8
BLACK
6
CONTINUOUS
10
107.478
20
-115.681
11
107.526
21
-115.776
0
LINE
8
BLACK
6
CONTINUOUS
10
107.526
20
-115.776
11
107.573
21
-115.824
0
LINE
8
BLACK
6
CONTINUOUS
10
107.573
20
-115.824
11
107.669
21
-115.871
0
LINE
8
BLACK
6
CONTINUOUS
10
107.669
20
-115.871
11
107.859
21
-115.871
0
LINE
8
BLACK
6
CONTINUOUS
10
107.859
20
-115.871
11
107.954
21
-115.824
0
LINE
8
BLACK
6
CONTINUOUS
10
107.954
20
-115.824
11
108.002
21
-115.776
0
LINE
8
BLACK
6
CONTINUOUS
10
108.002
20
-115.776
11
108.05
21
-115.681
0
LINE
8
BLACK
6
CONTINUOUS
10
108.907
20
-115.252
11
108.716
21
-115.252
0
LINE
8
BLACK
6
CONTINUOUS
10
108.716
20
-115.252
11
108.621
21
-115.3
0
LINE
8
BLACK
6
CONTINUOUS
10
108.621
20
-115.3
11
108.573
21
-115.348
0
LINE
8
BLACK
6
CONTINUOUS
10
108.573
20
-115.348
11
108.478
21
-115.49
0
LINE
8
BLACK
6
CONTINUOUS
10
108.478
20
-115.49
11
108.43
21
-115.681
0
LINE
8
BLACK
6
CONTINUOUS
10
108.43
20
-115.681
11
108.43
21
-116.062
0
LINE
8
BLACK
6
CONTINUOUS
10
108.43
20
-116.062
11
108.478
21
-116.157
0
LINE
8
BLACK
6
CONTINUOUS
10
108.478
20
-116.157
11
108.526
21
-116.205
0
LINE
8
BLACK
6
CONTINUOUS
10
108.526
20
-116.205
11
108.621
21
-116.252
0
LINE
8
BLACK
6
CONTINUOUS
10
108.621
20
-116.252
11
108.811
21
-116.252
0
LINE
8
BLACK
6
CONTINUOUS
10
108.811
20
-116.252
11
108.907
21
-116.205
0
LINE
8
BLACK
6
CONTINUOUS
10
108.907
20
-116.205
11
108.954
21
-116.157
0
LINE
8
BLACK
6
CONTINUOUS
10
108.954
20
-116.157
11
109.002
21
-116.062
0
LINE
8
BLACK
6
CONTINUOUS
10
109.002
20
-116.062
11
109.002
21
-115.824
0
LINE
8
BLACK
6
CONTINUOUS
10
109.002
20
-115.824
11
108.954
21
-115.729
0
LINE
8
BLACK
6
CONTINUOUS
10
108.954
20
-115.729
11
108.907
21
-115.681
0
LINE
8
BLACK
6
CONTINUOUS
10
108.907
20
-115.681
11
108.811
21
-115.633
0
LINE
8
BLACK
6
CONTINUOUS
10
108.811
20
-115.633
11
108.621
21
-115.633
0
LINE
8
BLACK
6
CONTINUOUS
10
108.621
20
-115.633
11
108.526
21
-115.681
0
LINE
8
BLACK
6
CONTINUOUS
10
108.526
20
-115.681
11
108.478
21
-115.729
0
LINE
8
BLACK
6
CONTINUOUS
10
108.478
20
-115.729
11
108.43
21
-115.824
0
LINE
8
BLACK
6
CONTINUOUS
10
109.621
20
-115.252
11
109.716
21
-115.252
0
LINE
8
BLACK
6
CONTINUOUS
10
109.716
20
-115.252
11
109.811
21
-115.3
0
LINE
8
BLACK
6
CONTINUOUS
10
109.811
20
-115.3
11
109.859
21
-115.348
0
LINE
8
BLACK
6
CONTINUOUS
10
109.859
20
-115.348
11
109.907
21
-115.443
0
LINE
8
BLACK
6
CONTINUOUS
10
109.907
20
-115.443
11
109.954
21
-115.633
0
LINE
8
BLACK
6
CONTINUOUS
10
109.954
20
-115.633
11
109.954
21
-115.871
0
LINE
8
BLACK
6
CONTINUOUS
10
109.954
20
-115.871
11
109.907
21
-116.062
0
LINE
8
BLACK
6
CONTINUOUS
10
109.907
20
-116.062
11
109.859
21
-116.157
0
LINE
8
BLACK
6
CONTINUOUS
10
109.859
20
-116.157
11
109.811
21
-116.205
0
LINE
8
BLACK
6
CONTINUOUS
10
109.811
20
-116.205
11
109.716
21
-116.252
0
LINE
8
BLACK
6
CONTINUOUS
10
109.716
20
-116.252
11
109.621
21
-116.252
0
LINE
8
BLACK
6
CONTINUOUS
10
109.621
20
-116.252
11
109.526
21
-116.205
0
LINE
8
BLACK
6
CONTINUOUS
10
109.526
20
-116.205
11
109.478
21
-116.157
0
LINE
8
BLACK
6
CONTINUOUS
10
109.478
20
-116.157
11
109.43
21
-116.062
0
LINE
8
BLACK
6
CONTINUOUS
10
109.43
20
-116.062
11
109.383
21
-115.871
0
LINE
8
BLACK
6
CONTINUOUS
10
109.383
20
-115.871
11
109.383
21
-115.633
0
LINE
8
BLACK
6
CONTINUOUS
10
109.383
20
-115.633
11
109.43
21
-115.443
0
LINE
8
BLACK
6
CONTINUOUS
10
109.43
20
-115.443
11
109.478
21
-115.348
0
LINE
8
BLACK
6
CONTINUOUS
10
109.478
20
-115.348
11
109.526
21
-115.3
0
LINE
8
BLACK
6
CONTINUOUS
10
109.526
20
-115.3
11
109.621
21
-115.252
0
LINE
8
BLACK
6
CONTINUOUS
10
111.145
20
-116.252
11
111.145
21
-115.586
0
LINE
8
BLACK
6
CONTINUOUS
10
111.145
20
-115.681
11
111.192
21
-115.633
0
LINE
8
BLACK
6
CONTINUOUS
10
111.192
20
-115.633
11
111.288
21
-115.586
0
LINE
8
BLACK
6
CONTINUOUS
10
111.288
20
-115.586
11
111.43
21
-115.586
0
LINE
8
BLACK
6
CONTINUOUS
10
111.43
20
-115.586
11
111.526
21
-115.633
0
LINE
8
BLACK
6
CONTINUOUS
10
111.526
20
-115.633
11
111.573
21
-115.729
0
LINE
8
BLACK
6
CONTINUOUS
10
111.573
20
-115.729
11
111.573
21
-116.252
0
LINE
8
BLACK
6
CONTINUOUS
10
111.573
20
-115.729
11
111.621
21
-115.633
0
LINE
8
BLACK
6
CONTINUOUS
10
111.621
20
-115.633
11
111.716
21
-115.586
0
LINE
8
BLACK
6
CONTINUOUS
10
111.716
20
-115.586
11
111.859
21
-115.586
0
LINE
8
BLACK
6
CONTINUOUS
10
111.859
20
-115.586
11
111.954
21
-115.633
0
LINE
8
BLACK
6
CONTINUOUS
10
111.954
20
-115.633
11
112.002
21
-115.729
0
LINE
8
BLACK
6
CONTINUOUS
10
112.002
20
-115.729
11
112.002
21
-116.252
0
LINE
8
BLACK
6
CONTINUOUS
10
112.478
20
-116.252
11
112.478
21
-115.586
0
LINE
8
BLACK
6
CONTINUOUS
10
112.478
20
-115.681
11
112.526
21
-115.633
0
LINE
8
BLACK
6
CONTINUOUS
10
112.526
20
-115.633
11
112.621
21
-115.586
0
LINE
8
BLACK
6
CONTINUOUS
10
112.621
20
-115.586
11
112.764
21
-115.586
0
LINE
8
BLACK
6
CONTINUOUS
10
112.764
20
-115.586
11
112.859
21
-115.633
0
LINE
8
BLACK
6
CONTINUOUS
10
112.859
20
-115.633
11
112.907
21
-115.729
0
LINE
8
BLACK
6
CONTINUOUS
10
112.907
20
-115.729
11
112.907
21
-116.252
0
LINE
8
BLACK
6
CONTINUOUS
10
112.907
20
-115.729
11
112.954
21
-115.633
0
LINE
8
BLACK
6
CONTINUOUS
10
112.954
20
-115.633
11
113.05
21
-115.586
0
LINE
8
BLACK
6
CONTINUOUS
10
113.05
20
-115.586
11
113.192
21
-115.586
0
LINE
8
BLACK
6
CONTINUOUS
10
113.192
20
-115.586
11
113.288
21
-115.633
0
LINE
8
BLACK
6
CONTINUOUS
10
113.288
20
-115.633
11
113.335
21
-115.729
0
LINE
8
BLACK
6
CONTINUOUS
10
113.335
20
-115.729
11
113.335
21
-116.252
0
LINE
8
BLACK
6
CONTINUOUS
10
103.76
20
-114.6
11
114.72
21
-114.6
0
LINE
8
BLACK
6
CONTINUOUS
10
103.76
20
-113.825
11
103.76
21
-115.186
0
LINE
8
BLACK
6
CONTINUOUS
10
114.72
20
-113.825
11
114.72
21
-115.186
0
LINE
8
BLACK
6
CONTINUOUS
10
114.72
20
-114.6
11
113.593
21
-115.186
0
LINE
8
BLACK
6
CONTINUOUS
10
114.72
20
-114.6
11
113.593
21
-114.014
0
LINE
8
BLACK
6
CONTINUOUS
10
103.76
20
-114.6
11
104.887
21
-115.186
0
LINE
8
BLACK
6
CONTINUOUS
10
103.76
20
-114.6
11
104.887
21
-114.014
0
LINE
8
BLACK
6
CONTINUOUS
10
68.5676
20
-57.4299
11
68.5676
21
-56.8585
0
LINE
8
BLACK
6
CONTINUOUS
10
68.5676
20
-57.1442
11
69.5676
21
-57.1442
0
LINE
8
BLACK
6
CONTINUOUS
10
69.5676
20
-57.1442
11
69.4248
21
-57.0489
0
LINE
8
BLACK
6
CONTINUOUS
10
69.4248
20
-57.0489
11
69.3295
21
-56.9537
0
LINE
8
BLACK
6
CONTINUOUS
10
69.3295
20
-56.9537
11
69.2819
21
-56.8585
0
LINE
8
BLACK
6
CONTINUOUS
10
69.5676
20
-58.0489
11
69.5676
21
-58.1442
0
LINE
8
BLACK
6
CONTINUOUS
10
69.5676
20
-58.1442
11
69.52
21
-58.2394
0
LINE
8
BLACK
6
CONTINUOUS
10
69.52
20
-58.2394
11
69.4724
21
-58.287
0
LINE
8
BLACK
6
CONTINUOUS
10
69.4724
20
-58.287
11
69.3771
21
-58.3346
0
LINE
8
BLACK
6
CONTINUOUS
10
69.3771
20
-58.3346
11
69.1867
21
-58.3823
0
LINE
8
BLACK
6
CONTINUOUS
10
69.1867
20
-58.3823
11
68.9486
21
-58.3823
0
LINE
8
BLACK
6
CONTINUOUS
10
68.9486
20
-58.3823
11
68.7581
21
-58.3346
0
LINE
8
BLACK
6
CONTINUOUS
10
68.7581
20
-58.3346
11
68.6629
21
-58.287
0
LINE
8
BLACK
6
CONTINUOUS
10
68.6629
20
-58.287
11
68.6152
21
-58.2394
0
LINE
8
BLACK
6
CONTINUOUS
10
68.6152
20
-58.2394
11
68.5676
21
-58.1442
0
LINE
8
BLACK
6
CONTINUOUS
10
68.5676
20
-58.1442
11
68.5676
21
-58.0489
0
LINE
8
BLACK
6
CONTINUOUS
10
68.5676
20
-58.0489
11
68.6152
21
-57.9537
0
LINE
8
BLACK
6
CONTINUOUS
10
68.6152
20
-57.9537
11
68.6629
21
-57.9061
0
LINE
8
BLACK
6
CONTINUOUS
10
68.6629
20
-57.9061
11
68.7581
21
-57.8585
0
LINE
8
BLACK
6
CONTINUOUS
10
68.7581
20
-57.8585
11
68.9486
21
-57.8108
0
LINE
8
BLACK
6
CONTINUOUS
10
68.9486
20
-57.8108
11
69.1867
21
-57.8108
0
LINE
8
BLACK
6
CONTINUOUS
10
69.1867
20
-57.8108
11
69.3771
21
-57.8585
0
LINE
8
BLACK
6
CONTINUOUS
10
69.3771
20
-57.8585
11
69.4724
21
-57.9061
0
LINE
8
BLACK
6
CONTINUOUS
10
69.4724
20
-57.9061
11
69.52
21
-57.9537
0
LINE
8
BLACK
6
CONTINUOUS
10
69.52
20
-57.9537
11
69.5676
21
-58.0489
0
LINE
8
BLACK
6
CONTINUOUS
10
69.5676
20
-58.7156
11
69.5676
21
-59.3346
0
LINE
8
BLACK
6
CONTINUOUS
10
69.5676
20
-59.3346
11
69.1867
21
-59.0013
0
LINE
8
BLACK
6
CONTINUOUS
10
69.1867
20
-59.0013
11
69.1867
21
-59.1442
0
LINE
8
BLACK
6
CONTINUOUS
10
69.1867
20
-59.1442
11
69.139
21
-59.2394
0
LINE
8
BLACK
6
CONTINUOUS
10
69.139
20
-59.2394
11
69.0914
21
-59.287
0
LINE
8
BLACK
6
CONTINUOUS
10
69.0914
20
-59.287
11
68.9962
21
-59.3346
0
LINE
8
BLACK
6
CONTINUOUS
10
68.9962
20
-59.3346
11
68.7581
21
-59.3346
0
LINE
8
BLACK
6
CONTINUOUS
10
68.7581
20
-59.3346
11
68.6629
21
-59.287
0
LINE
8
BLACK
6
CONTINUOUS
10
68.6629
20
-59.287
11
68.6152
21
-59.2394
0
LINE
8
BLACK
6
CONTINUOUS
10
68.6152
20
-59.2394
11
68.5676
21
-59.1442
0
LINE
8
BLACK
6
CONTINUOUS
10
68.5676
20
-59.1442
11
68.5676
21
-58.8585
0
LINE
8
BLACK
6
CONTINUOUS
10
68.5676
20
-58.8585
11
68.6152
21
-58.7632
0
LINE
8
BLACK
6
CONTINUOUS
10
68.6152
20
-58.7632
11
68.6629
21
-58.7156
0
LINE
8
BLACK
6
CONTINUOUS
10
68.6629
20
-59.7632
11
68.6152
21
-59.8108
0
LINE
8
BLACK
6
CONTINUOUS
10
68.6152
20
-59.8108
11
68.5676
21
-59.7632
0
LINE
8
BLACK
6
CONTINUOUS
10
68.5676
20
-59.7632
11
68.6152
21
-59.7156
0
LINE
8
BLACK
6
CONTINUOUS
10
68.6152
20
-59.7156
11
68.6629
21
-59.7632
0
LINE
8
BLACK
6
CONTINUOUS
10
68.6629
20
-59.7632
11
68.5676
21
-59.7632
0
LINE
8
BLACK
6
CONTINUOUS
10
69.139
20
-60.3823
11
69.1867
21
-60.287
0
LINE
8
BLACK
6
CONTINUOUS
10
69.1867
20
-60.287
11
69.2343
21
-60.2394
0
LINE
8
BLACK
6
CONTINUOUS
10
69.2343
20
-60.2394
11
69.3295
21
-60.1918
0
LINE
8
BLACK
6
CONTINUOUS
10
69.3295
20
-60.1918
11
69.3771
21
-60.1918
0
LINE
8
BLACK
6
CONTINUOUS
10
69.3771
20
-60.1918
11
69.4724
21
-60.2394
0
LINE
8
BLACK
6
CONTINUOUS
10
69.4724
20
-60.2394
11
69.52
21
-60.287
0
LINE
8
BLACK
6
CONTINUOUS
10
69.52
20
-60.287
11
69.5676
21
-60.3823
0
LINE
8
BLACK
6
CONTINUOUS
10
69.5676
20
-60.3823
11
69.5676
21
-60.5727
0
LINE
8
BLACK
6
CONTINUOUS
10
69.5676
20
-60.5727
11
69.52
21
-60.668
0
LINE
8
BLACK
6
CONTINUOUS
10
69.52
20
-60.668
11
69.4724
21
-60.7156
0
LINE
8
BLACK
6
CONTINUOUS
10
69.4724
20
-60.7156
11
69.3771
21
-60.7632
0
LINE
8
BLACK
6
CONTINUOUS
10
69.3771
20
-60.7632
11
69.3295
21
-60.7632
0
LINE
8
BLACK
6
CONTINUOUS
10
69.3295
20
-60.7632
11
69.2343
21
-60.7156
0
LINE
8
BLACK
6
CONTINUOUS
10
69.2343
20
-60.7156
11
69.1867
21
-60.668
0
LINE
8
BLACK
6
CONTINUOUS
10
69.1867
20
-60.668
11
69.139
21
-60.5727
0
LINE
8
BLACK
6
CONTINUOUS
10
69.139
20
-60.5727
11
69.139
21
-60.3823
0
LINE
8
BLACK
6
CONTINUOUS
10
69.139
20
-60.3823
11
69.0914
21
-60.287
0
LINE
8
BLACK
6
CONTINUOUS
10
69.0914
20
-60.287
11
69.0438
21
-60.2394
0
LINE
8
BLACK
6
CONTINUOUS
10
69.0438
20
-60.2394
11
68.9486
21
-60.1918
0
LINE
8
BLACK
6
CONTINUOUS
10
68.9486
20
-60.1918
11
68.7581
21
-60.1918
0
LINE
8
BLACK
6
CONTINUOUS
10
68.7581
20
-60.1918
11
68.6629
21
-60.2394
0
LINE
8
BLACK
6
CONTINUOUS
10
68.6629
20
-60.2394
11
68.6152
21
-60.287
0
LINE
8
BLACK
6
CONTINUOUS
10
68.6152
20
-60.287
11
68.5676
21
-60.3823
0
LINE
8
BLACK
6
CONTINUOUS
10
68.5676
20
-60.3823
11
68.5676
21
-60.5727
0
LINE
8
BLACK
6
CONTINUOUS
10
68.5676
20
-60.5727
11
68.6152
21
-60.668
0
LINE
8
BLACK
6
CONTINUOUS
10
68.6152
20
-60.668
11
68.6629
21
-60.7156
0
LINE
8
BLACK
6
CONTINUOUS
10
68.6629
20
-60.7156
11
68.7581
21
-60.7632
0
LINE
8
BLACK
6
CONTINUOUS
10
68.7581
20
-60.7632
11
68.9486
21
-60.7632
0
LINE
8
BLACK
6
CONTINUOUS
10
68.9486
20
-60.7632
11
69.0438
21
-60.7156
0
LINE
8
BLACK
6
CONTINUOUS
10
69.0438
20
-60.7156
11
69.0914
21
-60.668
0
LINE
8
BLACK
6
CONTINUOUS
10
69.0914
20
-60.668
11
69.139
21
-60.5727
0
LINE
8
BLACK
6
CONTINUOUS
10
69.5676
20
-61.3823
11
69.5676
21
-61.4775
0
LINE
8
BLACK
6
CONTINUOUS
10
69.5676
20
-61.4775
11
69.52
21
-61.5727
0
LINE
8
BLACK
6
CONTINUOUS
10
69.52
20
-61.5727
11
69.4724
21
-61.6204
0
LINE
8
BLACK
6
CONTINUOUS
10
69.4724
20
-61.6204
11
69.3771
21
-61.668
0
LINE
8
BLACK
6
CONTINUOUS
10
69.3771
20
-61.668
11
69.1867
21
-61.7156
0
LINE
8
BLACK
6
CONTINUOUS
10
69.1867
20
-61.7156
11
68.9486
21
-61.7156
0
LINE
8
BLACK
6
CONTINUOUS
10
68.9486
20
-61.7156
11
68.7581
21
-61.668
0
LINE
8
BLACK
6
CONTINUOUS
10
68.7581
20
-61.668
11
68.6629
21
-61.6204
0
LINE
8
BLACK
6
CONTINUOUS
10
68.6629
20
-61.6204
11
68.6152
21
-61.5727
0
LINE
8
BLACK
6
CONTINUOUS
10
68.6152
20
-61.5727
11
68.5676
21
-61.4775
0
LINE
8
BLACK
6
CONTINUOUS
10
68.5676
20
-61.4775
11
68.5676
21
-61.3823
0
LINE
8
BLACK
6
CONTINUOUS
10
68.5676
20
-61.3823
11
68.6152
21
-61.287
0
LINE
8
BLACK
6
CONTINUOUS
10
68.6152
20
-61.287
11
68.6629
21
-61.2394
0
LINE
8
BLACK
6
CONTINUOUS
10
68.6629
20
-61.2394
11
68.7581
21
-61.1918
0
LINE
8
BLACK
6
CONTINUOUS
10
68.7581
20
-61.1918
11
68.9486
21
-61.1442
0
LINE
8
BLACK
6
CONTINUOUS
10
68.9486
20
-61.1442
11
69.1867
21
-61.1442
0
LINE
8
BLACK
6
CONTINUOUS
10
69.1867
20
-61.1442
11
69.3771
21
-61.1918
0
LINE
8
BLACK
6
CONTINUOUS
10
69.3771
20
-61.1918
11
69.4724
21
-61.2394
0
LINE
8
BLACK
6
CONTINUOUS
10
69.4724
20
-61.2394
11
69.52
21
-61.287
0
LINE
8
BLACK
6
CONTINUOUS
10
69.52
20
-61.287
11
69.5676
21
-61.3823
0
LINE
8
BLACK
6
CONTINUOUS
10
69.5676
20
-62.6204
11
69.5676
21
-62.1442
0
LINE
8
BLACK
6
CONTINUOUS
10
69.5676
20
-62.1442
11
69.0914
21
-62.0965
0
LINE
8
BLACK
6
CONTINUOUS
10
69.0914
20
-62.0965
11
69.139
21
-62.1442
0
LINE
8
BLACK
6
CONTINUOUS
10
69.139
20
-62.1442
11
69.1867
21
-62.2394
0
LINE
8
BLACK
6
CONTINUOUS
10
69.1867
20
-62.2394
11
69.1867
21
-62.4775
0
LINE
8
BLACK
6
CONTINUOUS
10
69.1867
20
-62.4775
11
69.139
21
-62.5727
0
LINE
8
BLACK
6
CONTINUOUS
10
69.139
20
-62.5727
11
69.0914
21
-62.6204
0
LINE
8
BLACK
6
CONTINUOUS
10
69.0914
20
-62.6204
11
68.9962
21
-62.668
0
LINE
8
BLACK
6
CONTINUOUS
10
68.9962
20
-62.668
11
68.7581
21
-62.668
0
LINE
8
BLACK
6
CONTINUOUS
10
68.7581
20
-62.668
11
68.6629
21
-62.6204
0
LINE
8
BLACK
6
CONTINUOUS
10
68.6629
20
-62.6204
11
68.6152
21
-62.5727
0
LINE
8
BLACK
6
CONTINUOUS
10
68.6152
20
-62.5727
11
68.5676
21
-62.4775
0
LINE
8
BLACK
6
CONTINUOUS
10
68.5676
20
-62.4775
11
68.5676
21
-62.2394
0
LINE
8
BLACK
6
CONTINUOUS
10
68.5676
20
-62.2394
11
68.6152
21
-62.1442
0
LINE
8
BLACK
6
CONTINUOUS
10
68.6152
20
-62.1442
11
68.6629
21
-62.0965
0
LINE
8
BLACK
6
CONTINUOUS
10
68.5676
20
-63.8585
11
69.2343
21
-63.8585
0
LINE
8
BLACK
6
CONTINUOUS
10
69.139
20
-63.8585
11
69.1867
21
-63.9061
0
LINE
8
BLACK
6
CONTINUOUS
10
69.1867
20
-63.9061
11
69.2343
21
-64.0013
0
LINE
8
BLACK
6
CONTINUOUS
10
69.2343
20
-64.0013
11
69.2343
21
-64.1442
0
LINE
8
BLACK
6
CONTINUOUS
10
69.2343
20
-64.1442
11
69.1867
21
-64.2394
0
LINE
8
BLACK
6
CONTINUOUS
10
69.1867
20
-64.2394
11
69.0914
21
-64.287
0
LINE
8
BLACK
6
CONTINUOUS
10
69.0914
20
-64.287
11
68.5676
21
-64.287
0
LINE
8
BLACK
6
CONTINUOUS
10
69.0914
20
-64.287
11
69.1867
21
-64.3346
0
LINE
8
BLACK
6
CONTINUOUS
10
69.1867
20
-64.3346
11
69.2343
21
-64.4299
0
LINE
8
BLACK
6
CONTINUOUS
10
69.2343
20
-64.4299
11
69.2343
21
-64.5727
0
LINE
8
BLACK
6
CONTINUOUS
10
69.2343
20
-64.5727
11
69.1867
21
-64.668
0
LINE
8
BLACK
6
CONTINUOUS
10
69.1867
20
-64.668
11
69.0914
21
-64.7156
0
LINE
8
BLACK
6
CONTINUOUS
10
69.0914
20
-64.7156
11
68.5676
21
-64.7156
0
LINE
8
BLACK
6
CONTINUOUS
10
68.5676
20
-65.1918
11
69.2343
21
-65.1918
0
LINE
8
BLACK
6
CONTINUOUS
10
69.139
20
-65.1918
11
69.1867
21
-65.2394
0
LINE
8
BLACK
6
CONTINUOUS
10
69.1867
20
-65.2394
11
69.2343
21
-65.3346
0
LINE
8
BLACK
6
CONTINUOUS
10
69.2343
20
-65.3346
11
69.2343
21
-65.4775
0
LINE
8
BLACK
6
CONTINUOUS
10
69.2343
20
-65.4775
11
69.1867
21
-65.5727
0
LINE
8
BLACK
6
CONTINUOUS
10
69.1867
20
-65.5727
11
69.0914
21
-65.6204
0
LINE
8
BLACK
6
CONTINUOUS
10
69.0914
20
-65.6204
11
68.5676
21
-65.6204
0
LINE
8
BLACK
6
CONTINUOUS
10
69.0914
20
-65.6204
11
69.1867
21
-65.668
0
LINE
8
BLACK
6
CONTINUOUS
10
69.1867
20
-65.668
11
69.2343
21
-65.7632
0
LINE
8
BLACK
6
CONTINUOUS
10
69.2343
20
-65.7632
11
69.2343
21
-65.9061
0
LINE
8
BLACK
6
CONTINUOUS
10
69.2343
20
-65.9061
11
69.1867
21
-66.0013
0
LINE
8
BLACK
6
CONTINUOUS
10
69.1867
20
-66.0013
11
69.0914
21
-66.0489
0
LINE
8
BLACK
6
CONTINUOUS
10
69.0914
20
-66.0489
11
68.5676
21
-66.0489
0
LINE
8
BLACK
6
CONTINUOUS
10
67.82
20
-9.575
11
67.82
21
-113.38
0
LINE
8
BLACK
6
CONTINUOUS
10
67.815
20
-9.575
11
68.4064
21
-9.575
0
LINE
8
BLACK
6
CONTINUOUS
10
67.815
20
-113.38
11
68.4064
21
-113.38
0
LINE
8
BLACK
6
CONTINUOUS
10
67.82
20
-113.38
11
67.2336
21
-112.253
0
LINE
8
BLACK
6
CONTINUOUS
10
67.82
20
-113.38
11
68.4064
21
-112.253
0
LINE
8
BLACK
6
CONTINUOUS
10
67.82
20
-9.575
11
67.2336
21
-10.7015
0
LINE
8
BLACK
6
CONTINUOUS
10
67.82
20
-9.575
11
68.4064
21
-10.7015
0
LINE
8
BLACK
6
CONTINUOUS
10
109.561
20
-6.72238
11
108.99
21
-6.72238
0
LINE
8
BLACK
6
CONTINUOUS
10
109.275
20
-6.72238
11
109.275
21
-5.72238
0
LINE
8
BLACK
6
CONTINUOUS
10
109.275
20
-5.72238
11
109.18
21
-5.86524
0
LINE
8
BLACK
6
CONTINUOUS
10
109.18
20
-5.86524
11
109.085
21
-5.96048
0
LINE
8
BLACK
6
CONTINUOUS
10
109.085
20
-5.96048
11
108.99
21
-6.00809
0
LINE
8
BLACK
6
CONTINUOUS
10
110.132
20
-6.15095
11
110.037
21
-6.10333
0
LINE
8
BLACK
6
CONTINUOUS
10
110.037
20
-6.10333
11
109.99
21
-6.05571
0
LINE
8
BLACK
6
CONTINUOUS
10
109.99
20
-6.05571
11
109.942
21
-5.96048
0
LINE
8
BLACK
6
CONTINUOUS
10
109.942
20
-5.96048
11
109.942
21
-5.91286
0
LINE
8
BLACK
6
CONTINUOUS
10
109.942
20
-5.91286
11
109.99
21
-5.81762
0
LINE
8
BLACK
6
CONTINUOUS
10
109.99
20
-5.81762
11
110.037
21
-5.77
0
LINE
8
BLACK
6
CONTINUOUS
10
110.037
20
-5.77
11
110.132
21
-5.72238
0
LINE
8
BLACK
6
CONTINUOUS
10
110.132
20
-5.72238
11
110.323
21
-5.72238
0
LINE
8
BLACK
6
CONTINUOUS
10
110.323
20
-5.72238
11
110.418
21
-5.77
0
LINE
8
BLACK
6
CONTINUOUS
10
110.418
20
-5.77
11
110.466
21
-5.81762
0
LINE
8
BLACK
6
CONTINUOUS
10
110.466
20
-5.81762
11
110.513
21
-5.91286
0
LINE
8
BLACK
6
CONTINUOUS
10
110.513
20
-5.91286
11
110.513
21
-5.96048
0
LINE
8
BLACK
6
CONTINUOUS
10
110.513
20
-5.96048
11
110.466
21
-6.05571
0
LINE
8
BLACK
6
CONTINUOUS
10
110.466
20
-6.05571
11
110.418
21
-6.10333
0
LINE
8
BLACK
6
CONTINUOUS
10
110.418
20
-6.10333
11
110.323
21
-6.15095
0
LINE
8
BLACK
6
CONTINUOUS
10
110.323
20
-6.15095
11
110.132
21
-6.15095
0
LINE
8
BLACK
6
CONTINUOUS
10
110.132
20
-6.15095
11
110.037
21
-6.19857
0
LINE
8
BLACK
6
CONTINUOUS
10
110.037
20
-6.19857
11
109.99
21
-6.24619
0
LINE
8
BLACK
6
CONTINUOUS
10
109.99
20
-6.24619
11
109.942
21
-6.34143
0
LINE
8
BLACK
6
CONTINUOUS
10
109.942
20
-6.34143
11
109.942
21
-6.5319
0
LINE
8
BLACK
6
CONTINUOUS
10
109.942
20
-6.5319
11
109.99
21
-6.62714
0
LINE
8
BLACK
6
CONTINUOUS
10
109.99
20
-6.62714
11
110.037
21
-6.67476
0
LINE
8
BLACK
6
CONTINUOUS
10
110.037
20
-6.67476
11
110.132
21
-6.72238
0
LINE
8
BLACK
6
CONTINUOUS
10
110.132
20
-6.72238
11
110.323
21
-6.72238
0
LINE
8
BLACK
6
CONTINUOUS
10
110.323
20
-6.72238
11
110.418
21
-6.67476
0
LINE
8
BLACK
6
CONTINUOUS
10
110.418
20
-6.67476
11
110.466
21
-6.62714
0
LINE
8
BLACK
6
CONTINUOUS
10
110.466
20
-6.62714
11
110.513
21
-6.5319
0
LINE
8
BLACK
6
CONTINUOUS
10
110.513
20
-6.5319
11
110.513
21
-6.34143
0
LINE
8
BLACK
6
CONTINUOUS
10
110.513
20
-6.34143
11
110.466
21
-6.24619
0
LINE
8
BLACK
6
CONTINUOUS
10
110.466
20
-6.24619
11
110.418
21
-6.19857
0
LINE
8
BLACK
6
CONTINUOUS
10
110.418
20
-6.19857
11
110.323
21
-6.15095
0
LINE
8
BLACK
6
CONTINUOUS
10
110.942
20
-6.62714
11
110.99
21
-6.67476
0
LINE
8
BLACK
6
CONTINUOUS
10
110.99
20
-6.67476
11
110.942
21
-6.72238
0
LINE
8
BLACK
6
CONTINUOUS
10
110.942
20
-6.72238
11
110.894
21
-6.67476
0
LINE
8
BLACK
6
CONTINUOUS
10
110.894
20
-6.67476
11
110.942
21
-6.62714
0
LINE
8
BLACK
6
CONTINUOUS
10
110.942
20
-6.62714
11
110.942
21
-6.72238
0
LINE
8
BLACK
6
CONTINUOUS
10
111.323
20
-5.72238
11
111.99
21
-5.72238
0
LINE
8
BLACK
6
CONTINUOUS
10
111.99
20
-5.72238
11
111.561
21
-6.72238
0
LINE
8
BLACK
6
CONTINUOUS
10
112.799
20
-6.05571
11
112.799
21
-6.72238
0
LINE
8
BLACK
6
CONTINUOUS
10
112.561
20
-5.67476
11
112.323
21
-6.38905
0
LINE
8
BLACK
6
CONTINUOUS
10
112.323
20
-6.38905
11
112.942
21
-6.38905
0
LINE
8
BLACK
6
CONTINUOUS
10
113.799
20
-5.72238
11
113.323
21
-5.72238
0
LINE
8
BLACK
6
CONTINUOUS
10
113.323
20
-5.72238
11
113.275
21
-6.19857
0
LINE
8
BLACK
6
CONTINUOUS
10
113.275
20
-6.19857
11
113.323
21
-6.15095
0
LINE
8
BLACK
6
CONTINUOUS
10
113.323
20
-6.15095
11
113.418
21
-6.10333
0
LINE
8
BLACK
6
CONTINUOUS
10
113.418
20
-6.10333
11
113.656
21
-6.10333
0
LINE
8
BLACK
6
CONTINUOUS
10
113.656
20
-6.10333
11
113.752
21
-6.15095
0
LINE
8
BLACK
6
CONTINUOUS
10
113.752
20
-6.15095
11
113.799
21
-6.19857
0
LINE
8
BLACK
6
CONTINUOUS
10
113.799
20
-6.19857
11
113.847
21
-6.29381
0
LINE
8
BLACK
6
CONTINUOUS
10
113.847
20
-6.29381
11
113.847
21
-6.5319
0
LINE
8
BLACK
6
CONTINUOUS
10
113.847
20
-6.5319
11
113.799
21
-6.62714
0
LINE
8
BLACK
6
CONTINUOUS
10
113.799
20
-6.62714
11
113.752
21
-6.67476
0
LINE
8
BLACK
6
CONTINUOUS
10
113.752
20
-6.67476
11
113.656
21
-6.72238
0
LINE
8
BLACK
6
CONTINUOUS
10
113.656
20
-6.72238
11
113.418
21
-6.72238
0
LINE
8
BLACK
6
CONTINUOUS
10
113.418
20
-6.72238
11
113.323
21
-6.67476
0
LINE
8
BLACK
6
CONTINUOUS
10
113.323
20
-6.67476
11
113.275
21
-6.62714
0
LINE
8
BLACK
6
CONTINUOUS
10
115.037
20
-6.72238
11
115.037
21
-6.05571
0
LINE
8
BLACK
6
CONTINUOUS
10
115.037
20
-6.15095
11
115.085
21
-6.10333
0
LINE
8
BLACK
6
CONTINUOUS
10
115.085
20
-6.10333
11
115.18
21
-6.05571
0
LINE
8
BLACK
6
CONTINUOUS
10
115.18
20
-6.05571
11
115.323
21
-6.05571
0
LINE
8
BLACK
6
CONTINUOUS
10
115.323
20
-6.05571
11
115.418
21
-6.10333
0
LINE
8
BLACK
6
CONTINUOUS
10
115.418
20
-6.10333
11
115.466
21
-6.19857
0
LINE
8
BLACK
6
CONTINUOUS
10
115.466
20
-6.19857
11
115.466
21
-6.72238
0
LINE
8
BLACK
6
CONTINUOUS
10
115.466
20
-6.19857
11
115.513
21
-6.10333
0
LINE
8
BLACK
6
CONTINUOUS
10
115.513
20
-6.10333
11
115.609
21
-6.05571
0
LINE
8
BLACK
6
CONTINUOUS
10
115.609
20
-6.05571
11
115.752
21
-6.05571
0
LINE
8
BLACK
6
CONTINUOUS
10
115.752
20
-6.05571
11
115.847
21
-6.10333
0
LINE
8
BLACK
6
CONTINUOUS
10
115.847
20
-6.10333
11
115.894
21
-6.19857
0
LINE
8
BLACK
6
CONTINUOUS
10
115.894
20
-6.19857
11
115.894
21
-6.72238
0
LINE
8
BLACK
6
CONTINUOUS
10
116.371
20
-6.72238
11
116.371
21
-6.05571
0
LINE
8
BLACK
6
CONTINUOUS
10
116.371
20
-6.15095
11
116.418
21
-6.10333
0
LINE
8
BLACK
6
CONTINUOUS
10
116.418
20
-6.10333
11
116.513
21
-6.05571
0
LINE
8
BLACK
6
CONTINUOUS
10
116.513
20
-6.05571
11
116.656
21
-6.05571
0
LINE
8
BLACK
6
CONTINUOUS
10
116.656
20
-6.05571
11
116.752
21
-6.10333
0
LINE
8
BLACK
6
CONTINUOUS
10
116.752
20
-6.10333
11
116.799
21
-6.19857
0
LINE
8
BLACK
6
CONTINUOUS
10
116.799
20
-6.19857
11
116.799
21
-6.72238
0
LINE
8
BLACK
6
CONTINUOUS
10
116.799
20
-6.19857
11
116.847
21
-6.10333
0
LINE
8
BLACK
6
CONTINUOUS
10
116.847
20
-6.10333
11
116.942
21
-6.05571
0
LINE
8
BLACK
6
CONTINUOUS
10
116.942
20
-6.05571
11
117.085
21
-6.05571
0
LINE
8
BLACK
6
CONTINUOUS
10
117.085
20
-6.05571
11
117.18
21
-6.10333
0
LINE
8
BLACK
6
CONTINUOUS
10
117.18
20
-6.10333
11
117.228
21
-6.19857
0
LINE
8
BLACK
6
CONTINUOUS
10
117.228
20
-6.19857
11
117.228
21
-6.72238
0
LINE
8
BLACK
6
CONTINUOUS
10
103.76
20
-7.47
11
122.505
21
-7.47
0
LINE
8
BLACK
6
CONTINUOUS
10
103.76
20
-8.07
11
103.76
21
-6.88358
0
LINE
8
BLACK
6
CONTINUOUS
10
122.505
20
-8.07
11
122.505
21
-6.88358
0
LINE
8
BLACK
6
CONTINUOUS
10
122.505
20
-7.47
11
121.378
21
-8.05642
0
LINE
8
BLACK
6
CONTINUOUS
10
122.505
20
-7.47
11
121.378
21
-6.88358
0
LINE
8
BLACK
6
CONTINUOUS
10
103.76
20
-7.47
11
104.887
21
-8.05642
0
LINE
8
BLACK
6
CONTINUOUS
10
103.76
20
-7.47
11
104.887
21
-6.88358
0
LINE
8
BLACK
6
CONTINUOUS
10
100.388
20
-41.872
11
100.388
21
-42.5387
0
LINE
8
BLACK
6
CONTINUOUS
10
100.388
20
-42.5387
11
99.3876
21
-42.1101
0
LINE
8
BLACK
6
CONTINUOUS
10
100.292
20
-42.872
11
100.34
21
-42.9196
0
LINE
8
BLACK
6
CONTINUOUS
10
100.34
20
-42.9196
11
100.388
21
-43.0149
0
LINE
8
BLACK
6
CONTINUOUS
10
100.388
20
-43.0149
11
100.388
21
-43.253
0
LINE
8
BLACK
6
CONTINUOUS
10
100.388
20
-43.253
11
100.34
21
-43.3482
0
LINE
8
BLACK
6
CONTINUOUS
10
100.34
20
-43.3482
11
100.292
21
-43.3958
0
LINE
8
BLACK
6
CONTINUOUS
10
100.292
20
-43.3958
11
100.197
21
-43.4435
0
LINE
8
BLACK
6
CONTINUOUS
10
100.197
20
-43.4435
11
100.102
21
-43.4435
0
LINE
8
BLACK
6
CONTINUOUS
10
100.102
20
-43.4435
11
99.959
21
-43.3958
0
LINE
8
BLACK
6
CONTINUOUS
10
99.959
20
-43.3958
11
99.3876
21
-42.8244
0
LINE
8
BLACK
6
CONTINUOUS
10
99.3876
20
-42.8244
11
99.3876
21
-43.4435
0
LINE
8
BLACK
6
CONTINUOUS
10
99.4829
20
-43.872
11
99.4352
21
-43.9196
0
LINE
8
BLACK
6
CONTINUOUS
10
99.4352
20
-43.9196
11
99.3876
21
-43.872
0
LINE
8
BLACK
6
CONTINUOUS
10
99.3876
20
-43.872
11
99.4352
21
-43.8244
0
LINE
8
BLACK
6
CONTINUOUS
10
99.4352
20
-43.8244
11
99.4829
21
-43.872
0
LINE
8
BLACK
6
CONTINUOUS
10
99.4829
20
-43.872
11
99.3876
21
-43.872
0
LINE
8
BLACK
6
CONTINUOUS
10
99.3876
20
-44.3958
11
99.3876
21
-44.5863
0
LINE
8
BLACK
6
CONTINUOUS
10
99.3876
20
-44.5863
11
99.4352
21
-44.6815
0
LINE
8
BLACK
6
CONTINUOUS
10
99.4352
20
-44.6815
11
99.4829
21
-44.7292
0
LINE
8
BLACK
6
CONTINUOUS
10
99.4829
20
-44.7292
11
99.6257
21
-44.8244
0
LINE
8
BLACK
6
CONTINUOUS
10
99.6257
20
-44.8244
11
99.8162
21
-44.872
0
LINE
8
BLACK
6
CONTINUOUS
10
99.8162
20
-44.872
11
100.197
21
-44.872
0
LINE
8
BLACK
6
CONTINUOUS
10
100.197
20
-44.872
11
100.292
21
-44.8244
0
LINE
8
BLACK
6
CONTINUOUS
10
100.292
20
-44.8244
11
100.34
21
-44.7768
0
LINE
8
BLACK
6
CONTINUOUS
10
100.34
20
-44.7768
11
100.388
21
-44.6815
0
LINE
8
BLACK
6
CONTINUOUS
10
100.388
20
-44.6815
11
100.388
21
-44.4911
0
LINE
8
BLACK
6
CONTINUOUS
10
100.388
20
-44.4911
11
100.34
21
-44.3958
0
LINE
8
BLACK
6
CONTINUOUS
10
100.34
20
-44.3958
11
100.292
21
-44.3482
0
LINE
8
BLACK
6
CONTINUOUS
10
100.292
20
-44.3482
11
100.197
21
-44.3006
0
LINE
8
BLACK
6
CONTINUOUS
10
100.197
20
-44.3006
11
99.959
21
-44.3006
0
LINE
8
BLACK
6
CONTINUOUS
10
99.959
20
-44.3006
11
99.8638
21
-44.3482
0
LINE
8
BLACK
6
CONTINUOUS
10
99.8638
20
-44.3482
11
99.8162
21
-44.3958
0
LINE
8
BLACK
6
CONTINUOUS
10
99.8162
20
-44.3958
11
99.7686
21
-44.4911
0
LINE
8
BLACK
6
CONTINUOUS
10
99.7686
20
-44.4911
11
99.7686
21
-44.6815
0
LINE
8
BLACK
6
CONTINUOUS
10
99.7686
20
-44.6815
11
99.8162
21
-44.7768
0
LINE
8
BLACK
6
CONTINUOUS
10
99.8162
20
-44.7768
11
99.8638
21
-44.8244
0
LINE
8
BLACK
6
CONTINUOUS
10
99.8638
20
-44.8244
11
99.959
21
-44.872
0
LINE
8
BLACK
6
CONTINUOUS
10
100.388
20
-45.2054
11
100.388
21
-45.872
0
LINE
8
BLACK
6
CONTINUOUS
10
100.388
20
-45.872
11
99.3876
21
-45.4435
0
LINE
8
BLACK
6
CONTINUOUS
10
100.388
20
-46.7292
11
100.388
21
-46.253
0
LINE
8
BLACK
6
CONTINUOUS
10
100.388
20
-46.253
11
99.9114
21
-46.2054
0
LINE
8
BLACK
6
CONTINUOUS
10
99.9114
20
-46.2054
11
99.959
21
-46.253
0
LINE
8
BLACK
6
CONTINUOUS
10
99.959
20
-46.253
11
100.007
21
-46.3482
0
LINE
8
BLACK
6
CONTINUOUS
10
100.007
20
-46.3482
11
100.007
21
-46.5863
0
LINE
8
BLACK
6
CONTINUOUS
10
100.007
20
-46.5863
11
99.959
21
-46.6815
0
LINE
8
BLACK
6
CONTINUOUS
10
99.959
20
-46.6815
11
99.9114
21
-46.7292
0
LINE
8
BLACK
6
CONTINUOUS
10
99.9114
20
-46.7292
11
99.8162
21
-46.7768
0
LINE
8
BLACK
6
CONTINUOUS
10
99.8162
20
-46.7768
11
99.5781
21
-46.7768
0
LINE
8
BLACK
6
CONTINUOUS
10
99.5781
20
-46.7768
11
99.4829
21
-46.7292
0
LINE
8
BLACK
6
CONTINUOUS
10
99.4829
20
-46.7292
11
99.4352
21
-46.6815
0
LINE
8
BLACK
6
CONTINUOUS
10
99.4352
20
-46.6815
11
99.3876
21
-46.5863
0
LINE
8
BLACK
6
CONTINUOUS
10
99.3876
20
-46.5863
11
99.3876
21
-46.3482
0
LINE
8
BLACK
6
CONTINUOUS
10
99.3876
20
-46.3482
11
99.4352
21
-46.253
0
LINE
8
BLACK
6
CONTINUOUS
10
99.4352
20
-46.253
11
99.4829
21
-46.2054
0
LINE
8
BLACK
6
CONTINUOUS
10
99.3876
20
-47.9673
11
100.054
21
-47.9673
0
LINE
8
BLACK
6
CONTINUOUS
10
99.959
20
-47.9673
11
100.007
21
-48.0149
0
LINE
8
BLACK
6
CONTINUOUS
10
100.007
20
-48.0149
11
100.054
21
-48.1101
0
LINE
8
BLACK
6
CONTINUOUS
10
100.054
20
-48.1101
11
100.054
21
-48.253
0
LINE
8
BLACK
6
CONTINUOUS
10
100.054
20
-48.253
11
100.007
21
-48.3482
0
LINE
8
BLACK
6
CONTINUOUS
10
100.007
20
-48.3482
11
99.9114
21
-48.3958
0
LINE
8
BLACK
6
CONTINUOUS
10
99.9114
20
-48.3958
11
99.3876
21
-48.3958
0
LINE
8
BLACK
6
CONTINUOUS
10
99.9114
20
-48.3958
11
100.007
21
-48.4435
0
LINE
8
BLACK
6
CONTINUOUS
10
100.007
20
-48.4435
11
100.054
21
-48.5387
0
LINE
8
BLACK
6
CONTINUOUS
10
100.054
20
-48.5387
11
100.054
21
-48.6815
0
LINE
8
BLACK
6
CONTINUOUS
10
100.054
20
-48.6815
11
100.007
21
-48.7768
0
LINE
8
BLACK
6
CONTINUOUS
10
100.007
20
-48.7768
11
99.9114
21
-48.8244
0
LINE
8
BLACK
6
CONTINUOUS
10
99.9114
20
-48.8244
11
99.3876
21
-48.8244
0
LINE
8
BLACK
6
CONTINUOUS
10
99.3876
20
-49.3006
11
100.054
21
-49.3006
0
LINE
8
BLACK
6
CONTINUOUS
10
99.959
20
-49.3006
11
100.007
21
-49.3482
0
LINE
8
BLACK
6
CONTINUOUS
10
100.007
20
-49.3482
11
100.054
21
-49.4435
0
LINE
8
BLACK
6
CONTINUOUS
10
100.054
20
-49.4435
11
100.054
21
-49.5863
0
LINE
8
BLACK
6
CONTINUOUS
10
100.054
20
-49.5863
11
100.007
21
-49.6815
0
LINE
8
BLACK
6
CONTINUOUS
10
100.007
20
-49.6815
11
99.9114
21
-49.7292
0
LINE
8
BLACK
6
CONTINUOUS
10
99.9114
20
-49.7292
11
99.3876
21
-49.7292
0
LINE
8
BLACK
6
CONTINUOUS
10
99.9114
20
-49.7292
11
100.007
21
-49.7768
0
LINE
8
BLACK
6
CONTINUOUS
10
100.007
20
-49.7768
11
100.054
21
-49.872
0
LINE
8
BLACK
6
CONTINUOUS
10
100.054
20
-49.872
11
100.054
21
-50.0149
0
LINE
8
BLACK
6
CONTINUOUS
10
100.054
20
-50.0149
11
100.007
21
-50.1101
0
LINE
8
BLACK
6
CONTINUOUS
10
100.007
20
-50.1101
11
99.9114
21
-50.1577
0
LINE
8
BLACK
6
CONTINUOUS
10
99.9114
20
-50.1577
11
99.3876
21
-50.1577
0
LINE
8
BLACK
6
CONTINUOUS
10
98.64
20
-9.575
11
98.64
21
-82.55
0
LINE
8
BLACK
6
CONTINUOUS
10
97.32
20
-9.575
11
99.2264
21
-9.575
0
LINE
8
BLACK
6
CONTINUOUS
10
97.32
20
-82.55
11
99.2264
21
-82.55
0
LINE
8
BLACK
6
CONTINUOUS
10
98.64
20
-82.55
11
98.0536
21
-81.4235
0
LINE
8
BLACK
6
CONTINUOUS
10
98.64
20
-82.55
11
99.2264
21
-81.4235
0
LINE
8
BLACK
6
CONTINUOUS
10
98.64
20
-9.575
11
98.0536
21
-10.7015
0
LINE
8
BLACK
6
CONTINUOUS
10
98.64
20
-9.575
11
99.2264
21
-10.7015
0
LINE
8
BLACK
6
CONTINUOUS
10
68.6176
20
-101.034
11
68.6176
21
-100.462
0
LINE
8
BLACK
6
CONTINUOUS
10
68.6176
20
-100.748
11
69.6176
21
-100.748
0
LINE
8
BLACK
6
CONTINUOUS
10
69.6176
20
-100.748
11
69.4748
21
-100.653
0
LINE
8
BLACK
6
CONTINUOUS
10
69.4748
20
-100.653
11
69.3795
21
-100.557
0
LINE
8
BLACK
6
CONTINUOUS
10
69.3795
20
-100.557
11
69.3319
21
-100.462
0
LINE
8
BLACK
6
CONTINUOUS
10
69.6176
20
-101.367
11
69.6176
21
-102.034
0
LINE
8
BLACK
6
CONTINUOUS
10
69.6176
20
-102.034
11
68.6176
21
-101.605
0
LINE
8
BLACK
6
CONTINUOUS
10
68.7129
20
-102.415
11
68.6652
21
-102.462
0
LINE
8
BLACK
6
CONTINUOUS
10
68.6652
20
-102.462
11
68.6176
21
-102.415
0
LINE
8
BLACK
6
CONTINUOUS
10
68.6176
20
-102.415
11
68.6652
21
-102.367
0
LINE
8
BLACK
6
CONTINUOUS
10
68.6652
20
-102.367
11
68.7129
21
-102.415
0
LINE
8
BLACK
6
CONTINUOUS
10
68.7129
20
-102.415
11
68.6176
21
-102.415
0
LINE
8
BLACK
6
CONTINUOUS
10
69.6176
20
-103.367
11
69.6176
21
-102.891
0
LINE
8
BLACK
6
CONTINUOUS
10
69.6176
20
-102.891
11
69.1414
21
-102.843
0
LINE
8
BLACK
6
CONTINUOUS
10
69.1414
20
-102.843
11
69.189
21
-102.891
0
LINE
8
BLACK
6
CONTINUOUS
10
69.189
20
-102.891
11
69.2367
21
-102.986
0
LINE
8
BLACK
6
CONTINUOUS
10
69.2367
20
-102.986
11
69.2367
21
-103.224
0
LINE
8
BLACK
6
CONTINUOUS
10
69.2367
20
-103.224
11
69.189
21
-103.319
0
LINE
8
BLACK
6
CONTINUOUS
10
69.189
20
-103.319
11
69.1414
21
-103.367
0
LINE
8
BLACK
6
CONTINUOUS
10
69.1414
20
-103.367
11
69.0462
21
-103.415
0
LINE
8
BLACK
6
CONTINUOUS
10
69.0462
20
-103.415
11
68.8081
21
-103.415
0
LINE
8
BLACK
6
CONTINUOUS
10
68.8081
20
-103.415
11
68.7129
21
-103.367
0
LINE
8
BLACK
6
CONTINUOUS
10
68.7129
20
-103.367
11
68.6652
21
-103.319
0
LINE
8
BLACK
6
CONTINUOUS
10
68.6652
20
-103.319
11
68.6176
21
-103.224
0
LINE
8
BLACK
6
CONTINUOUS
10
68.6176
20
-103.224
11
68.6176
21
-102.986
0
LINE
8
BLACK
6
CONTINUOUS
10
68.6176
20
-102.986
11
68.6652
21
-102.891
0
LINE
8
BLACK
6
CONTINUOUS
10
68.6652
20
-102.891
11
68.7129
21
-102.843
0
LINE
8
BLACK
6
CONTINUOUS
10
69.6176
20
-104.319
11
69.6176
21
-103.843
0
LINE
8
BLACK
6
CONTINUOUS
10
69.6176
20
-103.843
11
69.1414
21
-103.795
0
LINE
8
BLACK
6
CONTINUOUS
10
69.1414
20
-103.795
11
69.189
21
-103.843
0
LINE
8
BLACK
6
CONTINUOUS
10
69.189
20
-103.843
11
69.2367
21
-103.938
0
LINE
8
BLACK
6
CONTINUOUS
10
69.2367
20
-103.938
11
69.2367
21
-104.176
0
LINE
8
BLACK
6
CONTINUOUS
10
69.2367
20
-104.176
11
69.189
21
-104.272
0
LINE
8
BLACK
6
CONTINUOUS
10
69.189
20
-104.272
11
69.1414
21
-104.319
0
LINE
8
BLACK
6
CONTINUOUS
10
69.1414
20
-104.319
11
69.0462
21
-104.367
0
LINE
8
BLACK
6
CONTINUOUS
10
69.0462
20
-104.367
11
68.8081
21
-104.367
0
LINE
8
BLACK
6
CONTINUOUS
10
68.8081
20
-104.367
11
68.7129
21
-104.319
0
LINE
8
BLACK
6
CONTINUOUS
10
68.7129
20
-104.319
11
68.6652
21
-104.272
0
LINE
8
BLACK
6
CONTINUOUS
10
68.6652
20
-104.272
11
68.6176
21
-104.176
0
LINE
8
BLACK
6
CONTINUOUS
10
68.6176
20
-104.176
11
68.6176
21
-103.938
0
LINE
8
BLACK
6
CONTINUOUS
10
68.6176
20
-103.938
11
68.6652
21
-103.843
0
LINE
8
BLACK
6
CONTINUOUS
10
68.6652
20
-103.843
11
68.7129
21
-103.795
0
LINE
8
BLACK
6
CONTINUOUS
10
69.6176
20
-104.986
11
69.6176
21
-105.081
0
LINE
8
BLACK
6
CONTINUOUS
10
69.6176
20
-105.081
11
69.57
21
-105.176
0
LINE
8
BLACK
6
CONTINUOUS
10
69.57
20
-105.176
11
69.5224
21
-105.224
0
LINE
8
BLACK
6
CONTINUOUS
10
69.5224
20
-105.224
11
69.4271
21
-105.272
0
LINE
8
BLACK
6
CONTINUOUS
10
69.4271
20
-105.272
11
69.2367
21
-105.319
0
LINE
8
BLACK
6
CONTINUOUS
10
69.2367
20
-105.319
11
68.9986
21
-105.319
0
LINE
8
BLACK
6
CONTINUOUS
10
68.9986
20
-105.319
11
68.8081
21
-105.272
0
LINE
8
BLACK
6
CONTINUOUS
10
68.8081
20
-105.272
11
68.7129
21
-105.224
0
LINE
8
BLACK
6
CONTINUOUS
10
68.7129
20
-105.224
11
68.6652
21
-105.176
0
LINE
8
BLACK
6
CONTINUOUS
10
68.6652
20
-105.176
11
68.6176
21
-105.081
0
LINE
8
BLACK
6
CONTINUOUS
10
68.6176
20
-105.081
11
68.6176
21
-104.986
0
LINE
8
BLACK
6
CONTINUOUS
10
68.6176
20
-104.986
11
68.6652
21
-104.891
0
LINE
8
BLACK
6
CONTINUOUS
10
68.6652
20
-104.891
11
68.7129
21
-104.843
0
LINE
8
BLACK
6
CONTINUOUS
10
68.7129
20
-104.843
11
68.8081
21
-104.795
0
LINE
8
BLACK
6
CONTINUOUS
10
68.8081
20
-104.795
11
68.9986
21
-104.748
0
LINE
8
BLACK
6
CONTINUOUS
10
68.9986
20
-104.748
11
69.2367
21
-104.748
0
LINE
8
BLACK
6
CONTINUOUS
10
69.2367
20
-104.748
11
69.4271
21
-104.795
0
LINE
8
BLACK
6
CONTINUOUS
10
69.4271
20
-104.795
11
69.5224
21
-104.843
0
LINE
8
BLACK
6
CONTINUOUS
10
69.5224
20
-104.843
11
69.57
21
-104.891
0
LINE
8
BLACK
6
CONTINUOUS
10
69.57
20
-104.891
11
69.6176
21
-104.986
0
LINE
8
BLACK
6
CONTINUOUS
10
68.6176
20
-106.51
11
69.2843
21
-106.51
0
LINE
8
BLACK
6
CONTINUOUS
10
69.189
20
-106.51
11
69.2367
21
-106.557
0
LINE
8
BLACK
6
CONTINUOUS
10
69.2367
20
-106.557
11
69.2843
21
-106.653
0
LINE
8
BLACK
6
CONTINUOUS
10
69.2843
20
-106.653
11
69.2843
21
-106.795
0
LINE
8
BLACK
6
CONTINUOUS
10
69.2843
20
-106.795
11
69.2367
21
-106.891
0
LINE
8
BLACK
6
CONTINUOUS
10
69.2367
20
-106.891
11
69.1414
21
-106.938
0
LINE
8
BLACK
6
CONTINUOUS
10
69.1414
20
-106.938
11
68.6176
21
-106.938
0
LINE
8
BLACK
6
CONTINUOUS
10
69.1414
20
-106.938
11
69.2367
21
-106.986
0
LINE
8
BLACK
6
CONTINUOUS
10
69.2367
20
-106.986
11
69.2843
21
-107.081
0
LINE
8
BLACK
6
CONTINUOUS
10
69.2843
20
-107.081
11
69.2843
21
-107.224
0
LINE
8
BLACK
6
CONTINUOUS
10
69.2843
20
-107.224
11
69.2367
21
-107.319
0
LINE
8
BLACK
6
CONTINUOUS
10
69.2367
20
-107.319
11
69.1414
21
-107.367
0
LINE
8
BLACK
6
CONTINUOUS
10
69.1414
20
-107.367
11
68.6176
21
-107.367
0
LINE
8
BLACK
6
CONTINUOUS
10
68.6176
20
-107.843
11
69.2843
21
-107.843
0
LINE
8
BLACK
6
CONTINUOUS
10
69.189
20
-107.843
11
69.2367
21
-107.891
0
LINE
8
BLACK
6
CONTINUOUS
10
69.2367
20
-107.891
11
69.2843
21
-107.986
0
LINE
8
BLACK
6
CONTINUOUS
10
69.2843
20
-107.986
11
69.2843
21
-108.129
0
LINE
8
BLACK
6
CONTINUOUS
10
69.2843
20
-108.129
11
69.2367
21
-108.224
0
LINE
8
BLACK
6
CONTINUOUS
10
69.2367
20
-108.224
11
69.1414
21
-108.272
0
LINE
8
BLACK
6
CONTINUOUS
10
69.1414
20
-108.272
11
68.6176
21
-108.272
0
LINE
8
BLACK
6
CONTINUOUS
10
69.1414
20
-108.272
11
69.2367
21
-108.319
0
LINE
8
BLACK
6
CONTINUOUS
10
69.2367
20
-108.319
11
69.2843
21
-108.415
0
LINE
8
BLACK
6
CONTINUOUS
10
69.2843
20
-108.415
11
69.2843
21
-108.557
0
LINE
8
BLACK
6
CONTINUOUS
10
69.2843
20
-108.557
11
69.2367
21
-108.653
0
LINE
8
BLACK
6
CONTINUOUS
10
69.2367
20
-108.653
11
69.1414
21
-108.7
0
LINE
8
BLACK
6
CONTINUOUS
10
69.1414
20
-108.7
11
68.6176
21
-108.7
0
LINE
8
BLACK
6
CONTINUOUS
10
70.27
20
-95.83
11
70.27
21
-113.38
0
LINE
8
BLACK
6
CONTINUOUS
10
72.035
20
-95.83
11
69.6836
21
-95.83
0
LINE
8
BLACK
6
CONTINUOUS
10
72.035
20
-113.38
11
69.6836
21
-113.38
0
LINE
8
BLACK
6
CONTINUOUS
10
70.27
20
-113.38
11
69.6836
21
-112.253
0
LINE
8
BLACK
6
CONTINUOUS
10
70.27
20
-113.38
11
70.8564
21
-112.253
0
LINE
8
BLACK
6
CONTINUOUS
10
70.27
20
-95.83
11
69.6836
21
-96.9565
0
LINE
8
BLACK
6
CONTINUOUS
10
70.27
20
-95.83
11
70.8564
21
-96.9565
0
LINE
8
BLACK
6
CONTINUOUS
10
93.5586
20
-120.012
11
92.9871
21
-120.012
0
LINE
8
BLACK
6
CONTINUOUS
10
93.2729
20
-120.012
11
93.2729
21
-119.012
0
LINE
8
BLACK
6
CONTINUOUS
10
93.2729
20
-119.012
11
93.1776
21
-119.155
0
LINE
8
BLACK
6
CONTINUOUS
10
93.1776
20
-119.155
11
93.0824
21
-119.25
0
LINE
8
BLACK
6
CONTINUOUS
10
93.0824
20
-119.25
11
92.9871
21
-119.298
0
LINE
8
BLACK
6
CONTINUOUS
10
94.511
20
-120.012
11
93.9395
21
-120.012
0
LINE
8
BLACK
6
CONTINUOUS
10
94.2252
20
-120.012
11
94.2252
21
-119.012
0
LINE
8
BLACK
6
CONTINUOUS
10
94.2252
20
-119.012
11
94.13
21
-119.155
0
LINE
8
BLACK
6
CONTINUOUS
10
94.13
20
-119.155
11
94.0348
21
-119.25
0
LINE
8
BLACK
6
CONTINUOUS
10
94.0348
20
-119.25
11
93.9395
21
-119.298
0
LINE
8
BLACK
6
CONTINUOUS
10
94.9395
20
-119.917
11
94.9871
21
-119.965
0
LINE
8
BLACK
6
CONTINUOUS
10
94.9871
20
-119.965
11
94.9395
21
-120.012
0
LINE
8
BLACK
6
CONTINUOUS
10
94.9395
20
-120.012
11
94.8919
21
-119.965
0
LINE
8
BLACK
6
CONTINUOUS
10
94.8919
20
-119.965
11
94.9395
21
-119.917
0
LINE
8
BLACK
6
CONTINUOUS
10
94.9395
20
-119.917
11
94.9395
21
-120.012
0
LINE
8
BLACK
6
CONTINUOUS
10
95.3681
20
-119.108
11
95.4157
21
-119.06
0
LINE
8
BLACK
6
CONTINUOUS
10
95.4157
20
-119.06
11
95.511
21
-119.012
0
LINE
8
BLACK
6
CONTINUOUS
10
95.511
20
-119.012
11
95.749
21
-119.012
0
LINE
8
BLACK
6
CONTINUOUS
10
95.749
20
-119.012
11
95.8443
21
-119.06
0
LINE
8
BLACK
6
CONTINUOUS
10
95.8443
20
-119.06
11
95.8919
21
-119.108
0
LINE
8
BLACK
6
CONTINUOUS
10
95.8919
20
-119.108
11
95.9395
21
-119.203
0
LINE
8
BLACK
6
CONTINUOUS
10
95.9395
20
-119.203
11
95.9395
21
-119.298
0
LINE
8
BLACK
6
CONTINUOUS
10
95.9395
20
-119.298
11
95.8919
21
-119.441
0
LINE
8
BLACK
6
CONTINUOUS
10
95.8919
20
-119.441
11
95.3205
21
-120.012
0
LINE
8
BLACK
6
CONTINUOUS
10
95.3205
20
-120.012
11
95.9395
21
-120.012
0
LINE
8
BLACK
6
CONTINUOUS
10
96.5586
20
-119.012
11
96.6538
21
-119.012
0
LINE
8
BLACK
6
CONTINUOUS
10
96.6538
20
-119.012
11
96.749
21
-119.06
0
LINE
8
BLACK
6
CONTINUOUS
10
96.749
20
-119.06
11
96.7967
21
-119.108
0
LINE
8
BLACK
6
CONTINUOUS
10
96.7967
20
-119.108
11
96.8443
21
-119.203
0
LINE
8
BLACK
6
CONTINUOUS
10
96.8443
20
-119.203
11
96.8919
21
-119.393
0
LINE
8
BLACK
6
CONTINUOUS
10
96.8919
20
-119.393
11
96.8919
21
-119.631
0
LINE
8
BLACK
6
CONTINUOUS
10
96.8919
20
-119.631
11
96.8443
21
-119.822
0
LINE
8
BLACK
6
CONTINUOUS
10
96.8443
20
-119.822
11
96.7967
21
-119.917
0
LINE
8
BLACK
6
CONTINUOUS
10
96.7967
20
-119.917
11
96.749
21
-119.965
0
LINE
8
BLACK
6
CONTINUOUS
10
96.749
20
-119.965
11
96.6538
21
-120.012
0
LINE
8
BLACK
6
CONTINUOUS
10
96.6538
20
-120.012
11
96.5586
21
-120.012
0
LINE
8
BLACK
6
CONTINUOUS
10
96.5586
20
-120.012
11
96.4633
21
-119.965
0
LINE
8
BLACK
6
CONTINUOUS
10
96.4633
20
-119.965
11
96.4157
21
-119.917
0
LINE
8
BLACK
6
CONTINUOUS
10
96.4157
20
-119.917
11
96.3681
21
-119.822
0
LINE
8
BLACK
6
CONTINUOUS
10
96.3681
20
-119.822
11
96.3205
21
-119.631
0
LINE
8
BLACK
6
CONTINUOUS
10
96.3205
20
-119.631
11
96.3205
21
-119.393
0
LINE
8
BLACK
6
CONTINUOUS
10
96.3205
20
-119.393
11
96.3681
21
-119.203
0
LINE
8
BLACK
6
CONTINUOUS
10
96.3681
20
-119.203
11
96.4157
21
-119.108
0
LINE
8
BLACK
6
CONTINUOUS
10
96.4157
20
-119.108
11
96.4633
21
-119.06
0
LINE
8
BLACK
6
CONTINUOUS
10
96.4633
20
-119.06
11
96.5586
21
-119.012
0
LINE
8
BLACK
6
CONTINUOUS
10
97.511
20
-119.012
11
97.6062
21
-119.012
0
LINE
8
BLACK
6
CONTINUOUS
10
97.6062
20
-119.012
11
97.7014
21
-119.06
0
LINE
8
BLACK
6
CONTINUOUS
10
97.7014
20
-119.06
11
97.749
21
-119.108
0
LINE
8
BLACK
6
CONTINUOUS
10
97.749
20
-119.108
11
97.7967
21
-119.203
0
LINE
8
BLACK
6
CONTINUOUS
10
97.7967
20
-119.203
11
97.8443
21
-119.393
0
LINE
8
BLACK
6
CONTINUOUS
10
97.8443
20
-119.393
11
97.8443
21
-119.631
0
LINE
8
BLACK
6
CONTINUOUS
10
97.8443
20
-119.631
11
97.7967
21
-119.822
0
LINE
8
BLACK
6
CONTINUOUS
10
97.7967
20
-119.822
11
97.749
21
-119.917
0
LINE
8
BLACK
6
CONTINUOUS
10
97.749
20
-119.917
11
97.7014
21
-119.965
0
LINE
8
BLACK
6
CONTINUOUS
10
97.7014
20
-119.965
11
97.6062
21
-120.012
0
LINE
8
BLACK
6
CONTINUOUS
10
97.6062
20
-120.012
11
97.511
21
-120.012
0
LINE
8
BLACK
6
CONTINUOUS
10
97.511
20
-120.012
11
97.4157
21
-119.965
0
LINE
8
BLACK
6
CONTINUOUS
10
97.4157
20
-119.965
11
97.3681
21
-119.917
0
LINE
8
BLACK
6
CONTINUOUS
10
97.3681
20
-119.917
11
97.3205
21
-119.822
0
LINE
8
BLACK
6
CONTINUOUS
10
97.3205
20
-119.822
11
97.2729
21
-119.631
0
LINE
8
BLACK
6
CONTINUOUS
10
97.2729
20
-119.631
11
97.2729
21
-119.393
0
LINE
8
BLACK
6
CONTINUOUS
10
97.2729
20
-119.393
11
97.3205
21
-119.203
0
LINE
8
BLACK
6
CONTINUOUS
10
97.3205
20
-119.203
11
97.3681
21
-119.108
0
LINE
8
BLACK
6
CONTINUOUS
10
97.3681
20
-119.108
11
97.4157
21
-119.06
0
LINE
8
BLACK
6
CONTINUOUS
10
97.4157
20
-119.06
11
97.511
21
-119.012
0
LINE
8
BLACK
6
CONTINUOUS
10
99.0348
20
-120.012
11
99.0348
21
-119.346
0
LINE
8
BLACK
6
CONTINUOUS
10
99.0348
20
-119.441
11
99.0824
21
-119.393
0
LINE
8
BLACK
6
CONTINUOUS
10
99.0824
20
-119.393
11
99.1776
21
-119.346
0
LINE
8
BLACK
6
CONTINUOUS
10
99.1776
20
-119.346
11
99.3205
21
-119.346
0
LINE
8
BLACK
6
CONTINUOUS
10
99.3205
20
-119.346
11
99.4157
21
-119.393
0
LINE
8
BLACK
6
CONTINUOUS
10
99.4157
20
-119.393
11
99.4633
21
-119.489
0
LINE
8
BLACK
6
CONTINUOUS
10
99.4633
20
-119.489
11
99.4633
21
-120.012
0
LINE
8
BLACK
6
CONTINUOUS
10
99.4633
20
-119.489
11
99.511
21
-119.393
0
LINE
8
BLACK
6
CONTINUOUS
10
99.511
20
-119.393
11
99.6062
21
-119.346
0
LINE
8
BLACK
6
CONTINUOUS
10
99.6062
20
-119.346
11
99.749
21
-119.346
0
LINE
8
BLACK
6
CONTINUOUS
10
99.749
20
-119.346
11
99.8443
21
-119.393
0
LINE
8
BLACK
6
CONTINUOUS
10
99.8443
20
-119.393
11
99.8919
21
-119.489
0
LINE
8
BLACK
6
CONTINUOUS
10
99.8919
20
-119.489
11
99.8919
21
-120.012
0
LINE
8
BLACK
6
CONTINUOUS
10
100.368
20
-120.012
11
100.368
21
-119.346
0
LINE
8
BLACK
6
CONTINUOUS
10
100.368
20
-119.441
11
100.416
21
-119.393
0
LINE
8
BLACK
6
CONTINUOUS
10
100.416
20
-119.393
11
100.511
21
-119.346
0
LINE
8
BLACK
6
CONTINUOUS
10
100.511
20
-119.346
11
100.654
21
-119.346
0
LINE
8
BLACK
6
CONTINUOUS
10
100.654
20
-119.346
11
100.749
21
-119.393
0
LINE
8
BLACK
6
CONTINUOUS
10
100.749
20
-119.393
11
100.797
21
-119.489
0
LINE
8
BLACK
6
CONTINUOUS
10
100.797
20
-119.489
11
100.797
21
-120.012
0
LINE
8
BLACK
6
CONTINUOUS
10
100.797
20
-119.489
11
100.844
21
-119.393
0
LINE
8
BLACK
6
CONTINUOUS
10
100.844
20
-119.393
11
100.94
21
-119.346
0
LINE
8
BLACK
6
CONTINUOUS
10
100.94
20
-119.346
11
101.082
21
-119.346
0
LINE
8
BLACK
6
CONTINUOUS
10
101.082
20
-119.346
11
101.178
21
-119.393
0
LINE
8
BLACK
6
CONTINUOUS
10
101.178
20
-119.393
11
101.225
21
-119.489
0
LINE
8
BLACK
6
CONTINUOUS
10
101.225
20
-119.489
11
101.225
21
-120.012
0
LINE
8
BLACK
6
CONTINUOUS
10
91.53
20
-118.36
11
102.73
21
-118.36
0
LINE
8
BLACK
6
CONTINUOUS
10
91.53
20
-116.885
11
91.53
21
-118.946
0
LINE
8
BLACK
6
CONTINUOUS
10
102.73
20
-116.885
11
102.73
21
-118.946
0
LINE
8
BLACK
6
CONTINUOUS
10
102.73
20
-118.36
11
101.603
21
-118.946
0
LINE
8
BLACK
6
CONTINUOUS
10
102.73
20
-118.36
11
101.603
21
-117.774
0
LINE
8
BLACK
6
CONTINUOUS
10
91.53
20
-118.36
11
92.6565
21
-118.946
0
LINE
8
BLACK
6
CONTINUOUS
10
91.53
20
-118.36
11
92.6565
21
-117.774
0
LINE
8
BLACK
6
CONTINUOUS
10
80.7286
20
-118.282
11
80.1571
21
-118.282
0
LINE
8
BLACK
6
CONTINUOUS
10
80.4429
20
-118.282
11
80.4429
21
-117.282
0
LINE
8
BLACK
6
CONTINUOUS
10
80.4429
20
-117.282
11
80.3476
21
-117.425
0
LINE
8
BLACK
6
CONTINUOUS
10
80.3476
20
-117.425
11
80.2524
21
-117.52
0
LINE
8
BLACK
6
CONTINUOUS
10
80.2524
20
-117.52
11
80.1571
21
-117.568
0
LINE
8
BLACK
6
CONTINUOUS
10
81.5857
20
-117.616
11
81.5857
21
-118.282
0
LINE
8
BLACK
6
CONTINUOUS
10
81.3476
20
-117.235
11
81.1095
21
-117.949
0
LINE
8
BLACK
6
CONTINUOUS
10
81.1095
20
-117.949
11
81.7286
21
-117.949
0
LINE
8
BLACK
6
CONTINUOUS
10
82.1095
20
-118.187
11
82.1571
21
-118.235
0
LINE
8
BLACK
6
CONTINUOUS
10
82.1571
20
-118.235
11
82.1095
21
-118.282
0
LINE
8
BLACK
6
CONTINUOUS
10
82.1095
20
-118.282
11
82.0619
21
-118.235
0
LINE
8
BLACK
6
CONTINUOUS
10
82.0619
20
-118.235
11
82.1095
21
-118.187
0
LINE
8
BLACK
6
CONTINUOUS
10
82.1095
20
-118.187
11
82.1095
21
-118.282
0
LINE
8
BLACK
6
CONTINUOUS
10
83.0143
20
-117.616
11
83.0143
21
-118.282
0
LINE
8
BLACK
6
CONTINUOUS
10
82.7762
20
-117.235
11
82.5381
21
-117.949
0
LINE
8
BLACK
6
CONTINUOUS
10
82.5381
20
-117.949
11
83.1571
21
-117.949
0
LINE
8
BLACK
6
CONTINUOUS
10
83.9667
20
-117.282
11
83.7762
21
-117.282
0
LINE
8
BLACK
6
CONTINUOUS
10
83.7762
20
-117.282
11
83.681
21
-117.33
0
LINE
8
BLACK
6
CONTINUOUS
10
83.681
20
-117.33
11
83.6333
21
-117.378
0
LINE
8
BLACK
6
CONTINUOUS
10
83.6333
20
-117.378
11
83.5381
21
-117.52
0
LINE
8
BLACK
6
CONTINUOUS
10
83.5381
20
-117.52
11
83.4905
21
-117.711
0
LINE
8
BLACK
6
CONTINUOUS
10
83.4905
20
-117.711
11
83.4905
21
-118.092
0
LINE
8
BLACK
6
CONTINUOUS
10
83.4905
20
-118.092
11
83.5381
21
-118.187
0
LINE
8
BLACK
6
CONTINUOUS
10
83.5381
20
-118.187
11
83.5857
21
-118.235
0
LINE
8
BLACK
6
CONTINUOUS
10
83.5857
20
-118.235
11
83.681
21
-118.282
0
LINE
8
BLACK
6
CONTINUOUS
10
83.681
20
-118.282
11
83.8714
21
-118.282
0
LINE
8
BLACK
6
CONTINUOUS
10
83.8714
20
-118.282
11
83.9667
21
-118.235
0
LINE
8
BLACK
6
CONTINUOUS
10
83.9667
20
-118.235
11
84.0143
21
-118.187
0
LINE
8
BLACK
6
CONTINUOUS
10
84.0143
20
-118.187
11
84.0619
21
-118.092
0
LINE
8
BLACK
6
CONTINUOUS
10
84.0619
20
-118.092
11
84.0619
21
-117.854
0
LINE
8
BLACK
6
CONTINUOUS
10
84.0619
20
-117.854
11
84.0143
21
-117.759
0
LINE
8
BLACK
6
CONTINUOUS
10
84.0143
20
-117.759
11
83.9667
21
-117.711
0
LINE
8
BLACK
6
CONTINUOUS
10
83.9667
20
-117.711
11
83.8714
21
-117.663
0
LINE
8
BLACK
6
CONTINUOUS
10
83.8714
20
-117.663
11
83.681
21
-117.663
0
LINE
8
BLACK
6
CONTINUOUS
10
83.681
20
-117.663
11
83.5857
21
-117.711
0
LINE
8
BLACK
6
CONTINUOUS
10
83.5857
20
-117.711
11
83.5381
21
-117.759
0
LINE
8
BLACK
6
CONTINUOUS
10
83.5381
20
-117.759
11
83.4905
21
-117.854
0
LINE
8
BLACK
6
CONTINUOUS
10
84.681
20
-117.282
11
84.7762
21
-117.282
0
LINE
8
BLACK
6
CONTINUOUS
10
84.7762
20
-117.282
11
84.8714
21
-117.33
0
LINE
8
BLACK
6
CONTINUOUS
10
84.8714
20
-117.33
11
84.919
21
-117.378
0
LINE
8
BLACK
6
CONTINUOUS
10
84.919
20
-117.378
11
84.9667
21
-117.473
0
LINE
8
BLACK
6
CONTINUOUS
10
84.9667
20
-117.473
11
85.0143
21
-117.663
0
LINE
8
BLACK
6
CONTINUOUS
10
85.0143
20
-117.663
11
85.0143
21
-117.901
0
LINE
8
BLACK
6
CONTINUOUS
10
85.0143
20
-117.901
11
84.9667
21
-118.092
0
LINE
8
BLACK
6
CONTINUOUS
10
84.9667
20
-118.092
11
84.919
21
-118.187
0
LINE
8
BLACK
6
CONTINUOUS
10
84.919
20
-118.187
11
84.8714
21
-118.235
0
LINE
8
BLACK
6
CONTINUOUS
10
84.8714
20
-118.235
11
84.7762
21
-118.282
0
LINE
8
BLACK
6
CONTINUOUS
10
84.7762
20
-118.282
11
84.681
21
-118.282
0
LINE
8
BLACK
6
CONTINUOUS
10
84.681
20
-118.282
11
84.5857
21
-118.235
0
LINE
8
BLACK
6
CONTINUOUS
10
84.5857
20
-118.235
11
84.5381
21
-118.187
0
LINE
8
BLACK
6
CONTINUOUS
10
84.5381
20
-118.187
11
84.4905
21
-118.092
0
LINE
8
BLACK
6
CONTINUOUS
10
84.4905
20
-118.092
11
84.4429
21
-117.901
0
LINE
8
BLACK
6
CONTINUOUS
10
84.4429
20
-117.901
11
84.4429
21
-117.663
0
LINE
8
BLACK
6
CONTINUOUS
10
84.4429
20
-117.663
11
84.4905
21
-117.473
0
LINE
8
BLACK
6
CONTINUOUS
10
84.4905
20
-117.473
11
84.5381
21
-117.378
0
LINE
8
BLACK
6
CONTINUOUS
10
84.5381
20
-117.378
11
84.5857
21
-117.33
0
LINE
8
BLACK
6
CONTINUOUS
10
84.5857
20
-117.33
11
84.681
21
-117.282
0
LINE
8
BLACK
6
CONTINUOUS
10
86.2048
20
-118.282
11
86.2048
21
-117.616
0
LINE
8
BLACK
6
CONTINUOUS
10
86.2048
20
-117.711
11
86.2524
21
-117.663
0
LINE
8
BLACK
6
CONTINUOUS
10
86.2524
20
-117.663
11
86.3476
21
-117.616
0
LINE
8
BLACK
6
CONTINUOUS
10
86.3476
20
-117.616
11
86.4905
21
-117.616
0
LINE
8
BLACK
6
CONTINUOUS
10
86.4905
20
-117.616
11
86.5857
21
-117.663
0
LINE
8
BLACK
6
CONTINUOUS
10
86.5857
20
-117.663
11
86.6333
21
-117.759
0
LINE
8
BLACK
6
CONTINUOUS
10
86.6333
20
-117.759
11
86.6333
21
-118.282
0
LINE
8
BLACK
6
CONTINUOUS
10
86.6333
20
-117.759
11
86.681
21
-117.663
0
LINE
8
BLACK
6
CONTINUOUS
10
86.681
20
-117.663
11
86.7762
21
-117.616
0
LINE
8
BLACK
6
CONTINUOUS
10
86.7762
20
-117.616
11
86.919
21
-117.616
0
LINE
8
BLACK
6
CONTINUOUS
10
86.919
20
-117.616
11
87.0143
21
-117.663
0
LINE
8
BLACK
6
CONTINUOUS
10
87.0143
20
-117.663
11
87.0619
21
-117.759
0
LINE
8
BLACK
6
CONTINUOUS
10
87.0619
20
-117.759
11
87.0619
21
-118.282
0
LINE
8
BLACK
6
CONTINUOUS
10
87.5381
20
-118.282
11
87.5381
21
-117.616
0
LINE
8
BLACK
6
CONTINUOUS
10
87.5381
20
-117.711
11
87.5857
21
-117.663
0
LINE
8
BLACK
6
CONTINUOUS
10
87.5857
20
-117.663
11
87.681
21
-117.616
0
LINE
8
BLACK
6
CONTINUOUS
10
87.681
20
-117.616
11
87.8238
21
-117.616
0
LINE
8
BLACK
6
CONTINUOUS
10
87.8238
20
-117.616
11
87.919
21
-117.663
0
LINE
8
BLACK
6
CONTINUOUS
10
87.919
20
-117.663
11
87.9667
21
-117.759
0
LINE
8
BLACK
6
CONTINUOUS
10
87.9667
20
-117.759
11
87.9667
21
-118.282
0
LINE
8
BLACK
6
CONTINUOUS
10
87.9667
20
-117.759
11
88.0143
21
-117.663
0
LINE
8
BLACK
6
CONTINUOUS
10
88.0143
20
-117.663
11
88.1095
21
-117.616
0
LINE
8
BLACK
6
CONTINUOUS
10
88.1095
20
-117.616
11
88.2524
21
-117.616
0
LINE
8
BLACK
6
CONTINUOUS
10
88.2524
20
-117.616
11
88.3476
21
-117.663
0
LINE
8
BLACK
6
CONTINUOUS
10
88.3476
20
-117.663
11
88.3952
21
-117.759
0
LINE
8
BLACK
6
CONTINUOUS
10
88.3952
20
-117.759
11
88.3952
21
-118.282
0
LINE
8
BLACK
6
CONTINUOUS
10
77.07
20
-116.63
11
91.53
21
-116.63
0
LINE
8
BLACK
6
CONTINUOUS
10
77.07
20
-114.275
11
77.07
21
-117.216
0
LINE
8
BLACK
6
CONTINUOUS
10
91.53
20
-114.275
11
91.53
21
-117.216
0
LINE
8
BLACK
6
CONTINUOUS
10
91.53
20
-116.63
11
90.4035
21
-117.216
0
LINE
8
BLACK
6
CONTINUOUS
10
91.53
20
-116.63
11
90.4035
21
-116.044
0
LINE
8
BLACK
6
CONTINUOUS
10
77.07
20
-116.63
11
78.1965
21
-117.216
0
LINE
8
BLACK
6
CONTINUOUS
10
77.07
20
-116.63
11
78.1965
21
-116.044
0
LINE
8
BLACK
6
CONTINUOUS
10
70.449
20
-48.7501
11
70.4967
21
-48.6549
0
LINE
8
BLACK
6
CONTINUOUS
10
70.4967
20
-48.6549
11
70.5443
21
-48.6073
0
LINE
8
BLACK
6
CONTINUOUS
10
70.5443
20
-48.6073
11
70.6395
21
-48.5596
0
LINE
8
BLACK
6
CONTINUOUS
10
70.6395
20
-48.5596
11
70.6871
21
-48.5596
0
LINE
8
BLACK
6
CONTINUOUS
10
70.6871
20
-48.5596
11
70.7824
21
-48.6073
0
LINE
8
BLACK
6
CONTINUOUS
10
70.7824
20
-48.6073
11
70.83
21
-48.6549
0
LINE
8
BLACK
6
CONTINUOUS
10
70.83
20
-48.6549
11
70.8776
21
-48.7501
0
LINE
8
BLACK
6
CONTINUOUS
10
70.8776
20
-48.7501
11
70.8776
21
-48.9406
0
LINE
8
BLACK
6
CONTINUOUS
10
70.8776
20
-48.9406
11
70.83
21
-49.0358
0
LINE
8
BLACK
6
CONTINUOUS
10
70.83
20
-49.0358
11
70.7824
21
-49.0835
0
LINE
8
BLACK
6
CONTINUOUS
10
70.7824
20
-49.0835
11
70.6871
21
-49.1311
0
LINE
8
BLACK
6
CONTINUOUS
10
70.6871
20
-49.1311
11
70.6395
21
-49.1311
0
LINE
8
BLACK
6
CONTINUOUS
10
70.6395
20
-49.1311
11
70.5443
21
-49.0835
0
LINE
8
BLACK
6
CONTINUOUS
10
70.5443
20
-49.0835
11
70.4967
21
-49.0358
0
LINE
8
BLACK
6
CONTINUOUS
10
70.4967
20
-49.0358
11
70.449
21
-48.9406
0
LINE
8
BLACK
6
CONTINUOUS
10
70.449
20
-48.9406
11
70.449
21
-48.7501
0
LINE
8
BLACK
6
CONTINUOUS
10
70.449
20
-48.7501
11
70.4014
21
-48.6549
0
LINE
8
BLACK
6
CONTINUOUS
10
70.4014
20
-48.6549
11
70.3538
21
-48.6073
0
LINE
8
BLACK
6
CONTINUOUS
10
70.3538
20
-48.6073
11
70.2586
21
-48.5596
0
LINE
8
BLACK
6
CONTINUOUS
10
70.2586
20
-48.5596
11
70.0681
21
-48.5596
0
LINE
8
BLACK
6
CONTINUOUS
10
70.0681
20
-48.5596
11
69.9729
21
-48.6073
0
LINE
8
BLACK
6
CONTINUOUS
10
69.9729
20
-48.6073
11
69.9252
21
-48.6549
0
LINE
8
BLACK
6
CONTINUOUS
10
69.9252
20
-48.6549
11
69.8776
21
-48.7501
0
LINE
8
BLACK
6
CONTINUOUS
10
69.8776
20
-48.7501
11
69.8776
21
-48.9406
0
LINE
8
BLACK
6
CONTINUOUS
10
69.8776
20
-48.9406
11
69.9252
21
-49.0358
0
LINE
8
BLACK
6
CONTINUOUS
10
69.9252
20
-49.0358
11
69.9729
21
-49.0835
0
LINE
8
BLACK
6
CONTINUOUS
10
69.9729
20
-49.0835
11
70.0681
21
-49.1311
0
LINE
8
BLACK
6
CONTINUOUS
10
70.0681
20
-49.1311
11
70.2586
21
-49.1311
0
LINE
8
BLACK
6
CONTINUOUS
10
70.2586
20
-49.1311
11
70.3538
21
-49.0835
0
LINE
8
BLACK
6
CONTINUOUS
10
70.3538
20
-49.0835
11
70.4014
21
-49.0358
0
LINE
8
BLACK
6
CONTINUOUS
10
70.4014
20
-49.0358
11
70.449
21
-48.9406
0
LINE
8
BLACK
6
CONTINUOUS
10
70.8776
20
-49.9882
11
70.8776
21
-49.7977
0
LINE
8
BLACK
6
CONTINUOUS
10
70.8776
20
-49.7977
11
70.83
21
-49.7025
0
LINE
8
BLACK
6
CONTINUOUS
10
70.83
20
-49.7025
11
70.7824
21
-49.6549
0
LINE
8
BLACK
6
CONTINUOUS
10
70.7824
20
-49.6549
11
70.6395
21
-49.5596
0
LINE
8
BLACK
6
CONTINUOUS
10
70.6395
20
-49.5596
11
70.449
21
-49.512
0
LINE
8
BLACK
6
CONTINUOUS
10
70.449
20
-49.512
11
70.0681
21
-49.512
0
LINE
8
BLACK
6
CONTINUOUS
10
70.0681
20
-49.512
11
69.9729
21
-49.5596
0
LINE
8
BLACK
6
CONTINUOUS
10
69.9729
20
-49.5596
11
69.9252
21
-49.6073
0
LINE
8
BLACK
6
CONTINUOUS
10
69.9252
20
-49.6073
11
69.8776
21
-49.7025
0
LINE
8
BLACK
6
CONTINUOUS
10
69.8776
20
-49.7025
11
69.8776
21
-49.893
0
LINE
8
BLACK
6
CONTINUOUS
10
69.8776
20
-49.893
11
69.9252
21
-49.9882
0
LINE
8
BLACK
6
CONTINUOUS
10
69.9252
20
-49.9882
11
69.9729
21
-50.0358
0
LINE
8
BLACK
6
CONTINUOUS
10
69.9729
20
-50.0358
11
70.0681
21
-50.0835
0
LINE
8
BLACK
6
CONTINUOUS
10
70.0681
20
-50.0835
11
70.3062
21
-50.0835
0
LINE
8
BLACK
6
CONTINUOUS
10
70.3062
20
-50.0835
11
70.4014
21
-50.0358
0
LINE
8
BLACK
6
CONTINUOUS
10
70.4014
20
-50.0358
11
70.449
21
-49.9882
0
LINE
8
BLACK
6
CONTINUOUS
10
70.449
20
-49.9882
11
70.4967
21
-49.893
0
LINE
8
BLACK
6
CONTINUOUS
10
70.4967
20
-49.893
11
70.4967
21
-49.7025
0
LINE
8
BLACK
6
CONTINUOUS
10
70.4967
20
-49.7025
11
70.449
21
-49.6073
0
LINE
8
BLACK
6
CONTINUOUS
10
70.449
20
-49.6073
11
70.4014
21
-49.5596
0
LINE
8
BLACK
6
CONTINUOUS
10
70.4014
20
-49.5596
11
70.3062
21
-49.512
0
LINE
8
BLACK
6
CONTINUOUS
10
69.9729
20
-50.512
11
69.9252
21
-50.5596
0
LINE
8
BLACK
6
CONTINUOUS
10
69.9252
20
-50.5596
11
69.8776
21
-50.512
0
LINE
8
BLACK
6
CONTINUOUS
10
69.8776
20
-50.512
11
69.9252
21
-50.4644
0
LINE
8
BLACK
6
CONTINUOUS
10
69.9252
20
-50.4644
11
69.9729
21
-50.512
0
LINE
8
BLACK
6
CONTINUOUS
10
69.9729
20
-50.512
11
69.8776
21
-50.512
0
LINE
8
BLACK
6
CONTINUOUS
10
70.7824
20
-50.9406
11
70.83
21
-50.9882
0
LINE
8
BLACK
6
CONTINUOUS
10
70.83
20
-50.9882
11
70.8776
21
-51.0835
0
LINE
8
BLACK
6
CONTINUOUS
10
70.8776
20
-51.0835
11
70.8776
21
-51.3215
0
LINE
8
BLACK
6
CONTINUOUS
10
70.8776
20
-51.3215
11
70.83
21
-51.4168
0
LINE
8
BLACK
6
CONTINUOUS
10
70.83
20
-51.4168
11
70.7824
21
-51.4644
0
LINE
8
BLACK
6
CONTINUOUS
10
70.7824
20
-51.4644
11
70.6871
21
-51.512
0
LINE
8
BLACK
6
CONTINUOUS
10
70.6871
20
-51.512
11
70.5919
21
-51.512
0
LINE
8
BLACK
6
CONTINUOUS
10
70.5919
20
-51.512
11
70.449
21
-51.4644
0
LINE
8
BLACK
6
CONTINUOUS
10
70.449
20
-51.4644
11
69.8776
21
-50.893
0
LINE
8
BLACK
6
CONTINUOUS
10
69.8776
20
-50.893
11
69.8776
21
-51.512
0
LINE
8
BLACK
6
CONTINUOUS
10
70.8776
20
-52.4168
11
70.8776
21
-51.9406
0
LINE
8
BLACK
6
CONTINUOUS
10
70.8776
20
-51.9406
11
70.4014
21
-51.893
0
LINE
8
BLACK
6
CONTINUOUS
10
70.4014
20
-51.893
11
70.449
21
-51.9406
0
LINE
8
BLACK
6
CONTINUOUS
10
70.449
20
-51.9406
11
70.4967
21
-52.0358
0
LINE
8
BLACK
6
CONTINUOUS
10
70.4967
20
-52.0358
11
70.4967
21
-52.2739
0
LINE
8
BLACK
6
CONTINUOUS
10
70.4967
20
-52.2739
11
70.449
21
-52.3692
0
LINE
8
BLACK
6
CONTINUOUS
10
70.449
20
-52.3692
11
70.4014
21
-52.4168
0
LINE
8
BLACK
6
CONTINUOUS
10
70.4014
20
-52.4168
11
70.3062
21
-52.4644
0
LINE
8
BLACK
6
CONTINUOUS
10
70.3062
20
-52.4644
11
70.0681
21
-52.4644
0
LINE
8
BLACK
6
CONTINUOUS
10
70.0681
20
-52.4644
11
69.9729
21
-52.4168
0
LINE
8
BLACK
6
CONTINUOUS
10
69.9729
20
-52.4168
11
69.9252
21
-52.3692
0
LINE
8
BLACK
6
CONTINUOUS
10
69.9252
20
-52.3692
11
69.8776
21
-52.2739
0
LINE
8
BLACK
6
CONTINUOUS
10
69.8776
20
-52.2739
11
69.8776
21
-52.0358
0
LINE
8
BLACK
6
CONTINUOUS
10
69.8776
20
-52.0358
11
69.9252
21
-51.9406
0
LINE
8
BLACK
6
CONTINUOUS
10
69.9252
20
-51.9406
11
69.9729
21
-51.893
0
LINE
8
BLACK
6
CONTINUOUS
10
70.8776
20
-53.3692
11
70.8776
21
-52.893
0
LINE
8
BLACK
6
CONTINUOUS
10
70.8776
20
-52.893
11
70.4014
21
-52.8454
0
LINE
8
BLACK
6
CONTINUOUS
10
70.4014
20
-52.8454
11
70.449
21
-52.893
0
LINE
8
BLACK
6
CONTINUOUS
10
70.449
20
-52.893
11
70.4967
21
-52.9882
0
LINE
8
BLACK
6
CONTINUOUS
10
70.4967
20
-52.9882
11
70.4967
21
-53.2263
0
LINE
8
BLACK
6
CONTINUOUS
10
70.4967
20
-53.2263
11
70.449
21
-53.3215
0
LINE
8
BLACK
6
CONTINUOUS
10
70.449
20
-53.3215
11
70.4014
21
-53.3692
0
LINE
8
BLACK
6
CONTINUOUS
10
70.4014
20
-53.3692
11
70.3062
21
-53.4168
0
LINE
8
BLACK
6
CONTINUOUS
10
70.3062
20
-53.4168
11
70.0681
21
-53.4168
0
LINE
8
BLACK
6
CONTINUOUS
10
70.0681
20
-53.4168
11
69.9729
21
-53.3692
0
LINE
8
BLACK
6
CONTINUOUS
10
69.9729
20
-53.3692
11
69.9252
21
-53.3215
0
LINE
8
BLACK
6
CONTINUOUS
10
69.9252
20
-53.3215
11
69.8776
21
-53.2263
0
LINE
8
BLACK
6
CONTINUOUS
10
69.8776
20
-53.2263
11
69.8776
21
-52.9882
0
LINE
8
BLACK
6
CONTINUOUS
10
69.8776
20
-52.9882
11
69.9252
21
-52.893
0
LINE
8
BLACK
6
CONTINUOUS
10
69.9252
20
-52.893
11
69.9729
21
-52.8454
0
LINE
8
BLACK
6
CONTINUOUS
10
69.8776
20
-54.6073
11
70.5443
21
-54.6073
0
LINE
8
BLACK
6
CONTINUOUS
10
70.449
20
-54.6073
11
70.4967
21
-54.6549
0
LINE
8
BLACK
6
CONTINUOUS
10
70.4967
20
-54.6549
11
70.5443
21
-54.7501
0
LINE
8
BLACK
6
CONTINUOUS
10
70.5443
20
-54.7501
11
70.5443
21
-54.893
0
LINE
8
BLACK
6
CONTINUOUS
10
70.5443
20
-54.893
11
70.4967
21
-54.9882
0
LINE
8
BLACK
6
CONTINUOUS
10
70.4967
20
-54.9882
11
70.4014
21
-55.0358
0
LINE
8
BLACK
6
CONTINUOUS
10
70.4014
20
-55.0358
11
69.8776
21
-55.0358
0
LINE
8
BLACK
6
CONTINUOUS
10
70.4014
20
-55.0358
11
70.4967
21
-55.0835
0
LINE
8
BLACK
6
CONTINUOUS
10
70.4967
20
-55.0835
11
70.5443
21
-55.1787
0
LINE
8
BLACK
6
CONTINUOUS
10
70.5443
20
-55.1787
11
70.5443
21
-55.3215
0
LINE
8
BLACK
6
CONTINUOUS
10
70.5443
20
-55.3215
11
70.4967
21
-55.4168
0
LINE
8
BLACK
6
CONTINUOUS
10
70.4967
20
-55.4168
11
70.4014
21
-55.4644
0
LINE
8
BLACK
6
CONTINUOUS
10
70.4014
20
-55.4644
11
69.8776
21
-55.4644
0
LINE
8
BLACK
6
CONTINUOUS
10
69.8776
20
-55.9406
11
70.5443
21
-55.9406
0
LINE
8
BLACK
6
CONTINUOUS
10
70.449
20
-55.9406
11
70.4967
21
-55.9882
0
LINE
8
BLACK
6
CONTINUOUS
10
70.4967
20
-55.9882
11
70.5443
21
-56.0835
0
LINE
8
BLACK
6
CONTINUOUS
10
70.5443
20
-56.0835
11
70.5443
21
-56.2263
0
LINE
8
BLACK
6
CONTINUOUS
10
70.5443
20
-56.2263
11
70.4967
21
-56.3215
0
LINE
8
BLACK
6
CONTINUOUS
10
70.4967
20
-56.3215
11
70.4014
21
-56.3692
0
LINE
8
BLACK
6
CONTINUOUS
10
70.4014
20
-56.3692
11
69.8776
21
-56.3692
0
LINE
8
BLACK
6
CONTINUOUS
10
70.4014
20
-56.3692
11
70.4967
21
-56.4168
0
LINE
8
BLACK
6
CONTINUOUS
10
70.4967
20
-56.4168
11
70.5443
21
-56.512
0
LINE
8
BLACK
6
CONTINUOUS
10
70.5443
20
-56.512
11
70.5443
21
-56.6549
0
LINE
8
BLACK
6
CONTINUOUS
10
70.5443
20
-56.6549
11
70.4967
21
-56.7501
0
LINE
8
BLACK
6
CONTINUOUS
10
70.4967
20
-56.7501
11
70.4014
21
-56.7977
0
LINE
8
BLACK
6
CONTINUOUS
10
70.4014
20
-56.7977
11
69.8776
21
-56.7977
0
LINE
8
BLACK
6
CONTINUOUS
10
71.53
20
-9.575
11
71.53
21
-95.83
0
LINE
8
BLACK
6
CONTINUOUS
10
75.625
20
-9.575
11
70.9436
21
-9.575
0
LINE
8
BLACK
6
CONTINUOUS
10
75.625
20
-95.83
11
70.9436
21
-95.83
0
LINE
8
BLACK
6
CONTINUOUS
10
71.53
20
-95.83
11
70.9436
21
-94.7035
0
LINE
8
BLACK
6
CONTINUOUS
10
71.53
20
-95.83
11
72.1164
21
-94.7035
0
LINE
8
BLACK
6
CONTINUOUS
10
71.53
20
-9.575
11
70.9436
21
-10.7015
0
LINE
8
BLACK
6
CONTINUOUS
10
71.53
20
-9.575
11
72.1164
21
-10.7015
0
LINE
8
BLACK
6
CONTINUOUS
10
82.8711
20
-6.71238
11
82.2996
21
-6.71238
0
LINE
8
BLACK
6
CONTINUOUS
10
82.5854
20
-6.71238
11
82.5854
21
-5.71238
0
LINE
8
BLACK
6
CONTINUOUS
10
82.5854
20
-5.71238
11
82.4901
21
-5.85524
0
LINE
8
BLACK
6
CONTINUOUS
10
82.4901
20
-5.85524
11
82.3949
21
-5.95048
0
LINE
8
BLACK
6
CONTINUOUS
10
82.3949
20
-5.95048
11
82.2996
21
-5.99809
0
LINE
8
BLACK
6
CONTINUOUS
10
83.4425
20
-6.14095
11
83.3473
21
-6.09333
0
LINE
8
BLACK
6
CONTINUOUS
10
83.3473
20
-6.09333
11
83.2996
21
-6.04571
0
LINE
8
BLACK
6
CONTINUOUS
10
83.2996
20
-6.04571
11
83.252
21
-5.95048
0
LINE
8
BLACK
6
CONTINUOUS
10
83.252
20
-5.95048
11
83.252
21
-5.90286
0
LINE
8
BLACK
6
CONTINUOUS
10
83.252
20
-5.90286
11
83.2996
21
-5.80762
0
LINE
8
BLACK
6
CONTINUOUS
10
83.2996
20
-5.80762
11
83.3473
21
-5.76
0
LINE
8
BLACK
6
CONTINUOUS
10
83.3473
20
-5.76
11
83.4425
21
-5.71238
0
LINE
8
BLACK
6
CONTINUOUS
10
83.4425
20
-5.71238
11
83.633
21
-5.71238
0
LINE
8
BLACK
6
CONTINUOUS
10
83.633
20
-5.71238
11
83.7282
21
-5.76
0
LINE
8
BLACK
6
CONTINUOUS
10
83.7282
20
-5.76
11
83.7758
21
-5.80762
0
LINE
8
BLACK
6
CONTINUOUS
10
83.7758
20
-5.80762
11
83.8235
21
-5.90286
0
LINE
8
BLACK
6
CONTINUOUS
10
83.8235
20
-5.90286
11
83.8235
21
-5.95048
0
LINE
8
BLACK
6
CONTINUOUS
10
83.8235
20
-5.95048
11
83.7758
21
-6.04571
0
LINE
8
BLACK
6
CONTINUOUS
10
83.7758
20
-6.04571
11
83.7282
21
-6.09333
0
LINE
8
BLACK
6
CONTINUOUS
10
83.7282
20
-6.09333
11
83.633
21
-6.14095
0
LINE
8
BLACK
6
CONTINUOUS
10
83.633
20
-6.14095
11
83.4425
21
-6.14095
0
LINE
8
BLACK
6
CONTINUOUS
10
83.4425
20
-6.14095
11
83.3473
21
-6.18857
0
LINE
8
BLACK
6
CONTINUOUS
10
83.3473
20
-6.18857
11
83.2996
21
-6.23619
0
LINE
8
BLACK
6
CONTINUOUS
10
83.2996
20
-6.23619
11
83.252
21
-6.33143
0
LINE
8
BLACK
6
CONTINUOUS
10
83.252
20
-6.33143
11
83.252
21
-6.5219
0
LINE
8
BLACK
6
CONTINUOUS
10
83.252
20
-6.5219
11
83.2996
21
-6.61714
0
LINE
8
BLACK
6
CONTINUOUS
10
83.2996
20
-6.61714
11
83.3473
21
-6.66476
0
LINE
8
BLACK
6
CONTINUOUS
10
83.3473
20
-6.66476
11
83.4425
21
-6.71238
0
LINE
8
BLACK
6
CONTINUOUS
10
83.4425
20
-6.71238
11
83.633
21
-6.71238
0
LINE
8
BLACK
6
CONTINUOUS
10
83.633
20
-6.71238
11
83.7282
21
-6.66476
0
LINE
8
BLACK
6
CONTINUOUS
10
83.7282
20
-6.66476
11
83.7758
21
-6.61714
0
LINE
8
BLACK
6
CONTINUOUS
10
83.7758
20
-6.61714
11
83.8235
21
-6.5219
0
LINE
8
BLACK
6
CONTINUOUS
10
83.8235
20
-6.5219
11
83.8235
21
-6.33143
0
LINE
8
BLACK
6
CONTINUOUS
10
83.8235
20
-6.33143
11
83.7758
21
-6.23619
0
LINE
8
BLACK
6
CONTINUOUS
10
83.7758
20
-6.23619
11
83.7282
21
-6.18857
0
LINE
8
BLACK
6
CONTINUOUS
10
83.7282
20
-6.18857
11
83.633
21
-6.14095
0
LINE
8
BLACK
6
CONTINUOUS
10
84.252
20
-6.61714
11
84.2996
21
-6.66476
0
LINE
8
BLACK
6
CONTINUOUS
10
84.2996
20
-6.66476
11
84.252
21
-6.71238
0
LINE
8
BLACK
6
CONTINUOUS
10
84.252
20
-6.71238
11
84.2044
21
-6.66476
0
LINE
8
BLACK
6
CONTINUOUS
10
84.2044
20
-6.66476
11
84.252
21
-6.61714
0
LINE
8
BLACK
6
CONTINUOUS
10
84.252
20
-6.61714
11
84.252
21
-6.71238
0
LINE
8
BLACK
6
CONTINUOUS
10
84.633
20
-5.71238
11
85.2996
21
-5.71238
0
LINE
8
BLACK
6
CONTINUOUS
10
85.2996
20
-5.71238
11
84.8711
21
-6.71238
0
LINE
8
BLACK
6
CONTINUOUS
10
86.1092
20
-6.04571
11
86.1092
21
-6.71238
0
LINE
8
BLACK
6
CONTINUOUS
10
85.8711
20
-5.66476
11
85.633
21
-6.37905
0
LINE
8
BLACK
6
CONTINUOUS
10
85.633
20
-6.37905
11
86.252
21
-6.37905
0
LINE
8
BLACK
6
CONTINUOUS
10
87.1092
20
-5.71238
11
86.633
21
-5.71238
0
LINE
8
BLACK
6
CONTINUOUS
10
86.633
20
-5.71238
11
86.5854
21
-6.18857
0
LINE
8
BLACK
6
CONTINUOUS
10
86.5854
20
-6.18857
11
86.633
21
-6.14095
0
LINE
8
BLACK
6
CONTINUOUS
10
86.633
20
-6.14095
11
86.7282
21
-6.09333
0
LINE
8
BLACK
6
CONTINUOUS
10
86.7282
20
-6.09333
11
86.9663
21
-6.09333
0
LINE
8
BLACK
6
CONTINUOUS
10
86.9663
20
-6.09333
11
87.0615
21
-6.14095
0
LINE
8
BLACK
6
CONTINUOUS
10
87.0615
20
-6.14095
11
87.1092
21
-6.18857
0
LINE
8
BLACK
6
CONTINUOUS
10
87.1092
20
-6.18857
11
87.1568
21
-6.28381
0
LINE
8
BLACK
6
CONTINUOUS
10
87.1568
20
-6.28381
11
87.1568
21
-6.5219
0
LINE
8
BLACK
6
CONTINUOUS
10
87.1568
20
-6.5219
11
87.1092
21
-6.61714
0
LINE
8
BLACK
6
CONTINUOUS
10
87.1092
20
-6.61714
11
87.0615
21
-6.66476
0
LINE
8
BLACK
6
CONTINUOUS
10
87.0615
20
-6.66476
11
86.9663
21
-6.71238
0
LINE
8
BLACK
6
CONTINUOUS
10
86.9663
20
-6.71238
11
86.7282
21
-6.71238
0
LINE
8
BLACK
6
CONTINUOUS
10
86.7282
20
-6.71238
11
86.633
21
-6.66476
0
LINE
8
BLACK
6
CONTINUOUS
10
86.633
20
-6.66476
11
86.5854
21
-6.61714
0
LINE
8
BLACK
6
CONTINUOUS
10
88.3473
20
-6.71238
11
88.3473
21
-6.04571
0
LINE
8
BLACK
6
CONTINUOUS
10
88.3473
20
-6.14095
11
88.3949
21
-6.09333
0
LINE
8
BLACK
6
CONTINUOUS
10
88.3949
20
-6.09333
11
88.4901
21
-6.04571
0
LINE
8
BLACK
6
CONTINUOUS
10
88.4901
20
-6.04571
11
88.633
21
-6.04571
0
LINE
8
BLACK
6
CONTINUOUS
10
88.633
20
-6.04571
11
88.7282
21
-6.09333
0
LINE
8
BLACK
6
CONTINUOUS
10
88.7282
20
-6.09333
11
88.7758
21
-6.18857
0
LINE
8
BLACK
6
CONTINUOUS
10
88.7758
20
-6.18857
11
88.7758
21
-6.71238
0
LINE
8
BLACK
6
CONTINUOUS
10
88.7758
20
-6.18857
11
88.8235
21
-6.09333
0
LINE
8
BLACK
6
CONTINUOUS
10
88.8235
20
-6.09333
11
88.9187
21
-6.04571
0
LINE
8
BLACK
6
CONTINUOUS
10
88.9187
20
-6.04571
11
89.0615
21
-6.04571
0
LINE
8
BLACK
6
CONTINUOUS
10
89.0615
20
-6.04571
11
89.1568
21
-6.09333
0
LINE
8
BLACK
6
CONTINUOUS
10
89.1568
20
-6.09333
11
89.2044
21
-6.18857
0
LINE
8
BLACK
6
CONTINUOUS
10
89.2044
20
-6.18857
11
89.2044
21
-6.71238
0
LINE
8
BLACK
6
CONTINUOUS
10
89.6806
20
-6.71238
11
89.6806
21
-6.04571
0
LINE
8
BLACK
6
CONTINUOUS
10
89.6806
20
-6.14095
11
89.7282
21
-6.09333
0
LINE
8
BLACK
6
CONTINUOUS
10
89.7282
20
-6.09333
11
89.8235
21
-6.04571
0
LINE
8
BLACK
6
CONTINUOUS
10
89.8235
20
-6.04571
11
89.9663
21
-6.04571
0
LINE
8
BLACK
6
CONTINUOUS
10
89.9663
20
-6.04571
11
90.0615
21
-6.09333
0
LINE
8
BLACK
6
CONTINUOUS
10
90.0615
20
-6.09333
11
90.1092
21
-6.18857
0
LINE
8
BLACK
6
CONTINUOUS
10
90.1092
20
-6.18857
11
90.1092
21
-6.71238
0
LINE
8
BLACK
6
CONTINUOUS
10
90.1092
20
-6.18857
11
90.1568
21
-6.09333
0
LINE
8
BLACK
6
CONTINUOUS
10
90.1568
20
-6.09333
11
90.252
21
-6.04571
0
LINE
8
BLACK
6
CONTINUOUS
10
90.252
20
-6.04571
11
90.3949
21
-6.04571
0
LINE
8
BLACK
6
CONTINUOUS
10
90.3949
20
-6.04571
11
90.4901
21
-6.09333
0
LINE
8
BLACK
6
CONTINUOUS
10
90.4901
20
-6.09333
11
90.5377
21
-6.18857
0
LINE
8
BLACK
6
CONTINUOUS
10
90.5377
20
-6.18857
11
90.5377
21
-6.71238
0
LINE
8
BLACK
6
CONTINUOUS
10
95.815
20
-7.46
11
77.07
21
-7.46
0
LINE
8
BLACK
6
CONTINUOUS
10
95.815
20
-9.13
11
95.815
21
-6.87358
0
LINE
8
BLACK
6
CONTINUOUS
10
77.07
20
-9.13
11
77.07
21
-6.87358
0
LINE
8
BLACK
6
CONTINUOUS
10
77.07
20
-7.46
11
78.1965
21
-6.87358
0
LINE
8
BLACK
6
CONTINUOUS
10
77.07
20
-7.46
11
78.1965
21
-8.04642
0
LINE
8
BLACK
6
CONTINUOUS
10
95.815
20
-7.46
11
94.6885
21
-6.87358
0
LINE
8
BLACK
6
CONTINUOUS
10
95.815
20
-7.46
11
94.6885
21
-8.04642
0
ARC
8
BLACK
10
77.595
20
-95.305
40
0.525856
50
-183.27
51
-93.2705
0
LINE
8
BLACK
6
CONTINUOUS
10
77.565
20
-95.83
11
91.035
21
-95.83
0
ARC
8
BLACK
10
91.005
20
-96.355
40
0.525856
50
-3.27044
51
86.7295
0
ARC
8
BLACK
10
77.595
20
-10.1
40
0.525856
50
86.7295
51
176.73
0
ARC
8
BLACK
10
102.205
20
-112.855
40
0.525856
50
-93.2705
51
-3.27049
0
ARC
8
BLACK
10
95.29
20
-10.1
40
0.525856
50
-3.27049
51
86.7295
0
LINE
8
BLACK
6
CONTINUOUS
10
77.07
20
-95.275
11
77.07
21
-10.07
0
LINE
8
BLACK
6
CONTINUOUS
10
102.175
20
-113.38
11
92.025
21
-113.38
0
LINE
8
BLACK
6
CONTINUOUS
10
102.73
20
-112.885
11
102.73
21
-95.83
0
LINE
8
BLACK
6
CONTINUOUS
10
95.815
20
-82.55
11
102.73
21
-95.83
0
LINE
8
BLACK
6
CONTINUOUS
10
95.815
20
-10.13
11
95.815
21
-82.55
0
LINE
8
BLACK
6
CONTINUOUS
10
77.625
20
-9.575
11
95.32
21
-9.575
0
ARC
8
BLACK
10
92.055
20
-112.855
40
0.525856
50
-183.27
51
-93.2705
0
LINE
8
BLACK
6
CONTINUOUS
10
91.53
20
-112.885
11
91.53
21
-96.385
0
LINE
8
BLACK
6
CONTINUOUS
10
114.72
20
-112.885
11
114.72
21
-96.325
0
ARC
8
BLACK
10
115.245
20
-96.355
40
0.525856
50
86.7295
51
176.73
0
LINE
8
BLACK
6
CONTINUOUS
10
104.315
20
-9.575
11
122.01
21
-9.575
0
LINE
8
BLACK
6
CONTINUOUS
10
122.505
20
-10.13
11
122.505
21
-82.55
0
LINE
8
BLACK
6
CONTINUOUS
10
122.505
20
-82.55
11
129.42
21
-95.83
0
LINE
8
BLACK
6
CONTINUOUS
10
115.275
20
-95.83
11
129.42
21
-95.83
0
LINE
8
BLACK
6
CONTINUOUS
10
114.165
20
-113.38
11
104.255
21
-113.38
0
LINE
8
BLACK
6
CONTINUOUS
10
103.76
20
-112.825
11
103.76
21
-10.07
0
ARC
8
BLACK
10
104.285
20
-112.855
40
0.525856
50
-183.27
51
-93.2705
0
ARC
8
BLACK
10
114.195
20
-112.855
40
0.525856
50
-93.2705
51
-3.27049
0
ARC
8
BLACK
10
121.98
20
-10.1
40
0.525856
50
-3.27049
51
86.7295
0
ARC
8
BLACK
10
104.285
20
-10.1
40
0.525856
50
86.7295
51
176.73
0
LINE
8
BLACK
6
CONTINUOUS
10
116.725
20
-90.4211
11
116.836
21
-90.4432
0
LINE
8
BLACK
6
CONTINUOUS
10
116.836
20
-90.4432
11
117.045
21
-90.53
0
LINE
8
BLACK
6
CONTINUOUS
10
117.045
20
-90.53
11
117.234
21
-90.656
0
LINE
8
BLACK
6
CONTINUOUS
10
117.234
20
-90.656
11
117.394
21
-90.8163
0
LINE
8
BLACK
6
CONTINUOUS
10
117.394
20
-90.8163
11
117.52
21
-91.0048
0
LINE
8
BLACK
6
CONTINUOUS
10
117.52
20
-91.0048
11
117.607
21
-91.2143
0
LINE
8
BLACK
6
CONTINUOUS
10
117.607
20
-91.2143
11
117.651
21
-91.4366
0
LINE
8
BLACK
6
CONTINUOUS
10
117.651
20
-91.4366
11
117.651
21
-91.6634
0
LINE
8
BLACK
6
CONTINUOUS
10
117.651
20
-91.6634
11
117.607
21
-91.8857
0
LINE
8
BLACK
6
CONTINUOUS
10
117.607
20
-91.8857
11
117.52
21
-92.0952
0
LINE
8
BLACK
6
CONTINUOUS
10
117.52
20
-92.0952
11
117.394
21
-92.2837
0
LINE
8
BLACK
6
CONTINUOUS
10
117.394
20
-92.2837
11
117.234
21
-92.444
0
LINE
8
BLACK
6
CONTINUOUS
10
117.234
20
-92.444
11
117.045
21
-92.57
0
LINE
8
BLACK
6
CONTINUOUS
10
117.045
20
-92.57
11
116.836
21
-92.6568
0
LINE
8
BLACK
6
CONTINUOUS
10
116.836
20
-92.6568
11
116.725
21
-92.6789
0
LINE
8
BLACK
6
CONTINUOUS
10
116.725
20
-92.6789
11
116.613
21
-92.701
0
LINE
8
BLACK
6
CONTINUOUS
10
116.613
20
-92.701
11
116.387
21
-92.701
0
LINE
8
BLACK
6
CONTINUOUS
10
116.387
20
-92.701
11
116.275
21
-92.6789
0
LINE
8
BLACK
6
CONTINUOUS
10
116.275
20
-92.6789
11
116.164
21
-92.6568
0
LINE
8
BLACK
6
CONTINUOUS
10
116.164
20
-92.6568
11
115.955
21
-92.57
0
LINE
8
BLACK
6
CONTINUOUS
10
115.955
20
-92.57
11
115.766
21
-92.444
0
LINE
8
BLACK
6
CONTINUOUS
10
115.766
20
-92.444
11
115.606
21
-92.2837
0
LINE
8
BLACK
6
CONTINUOUS
10
115.606
20
-92.2837
11
115.48
21
-92.0952
0
LINE
8
BLACK
6
CONTINUOUS
10
115.48
20
-92.0952
11
115.393
21
-91.8857
0
LINE
8
BLACK
6
CONTINUOUS
10
115.393
20
-91.8857
11
115.349
21
-91.6634
0
LINE
8
BLACK
6
CONTINUOUS
10
115.349
20
-91.6634
11
115.349
21
-91.4366
0
LINE
8
BLACK
6
CONTINUOUS
10
115.349
20
-91.4366
11
115.393
21
-91.2143
0
LINE
8
BLACK
6
CONTINUOUS
10
115.393
20
-91.2143
11
115.48
21
-91.0048
0
LINE
8
BLACK
6
CONTINUOUS
10
115.48
20
-91.0048
11
115.606
21
-90.8163
0
LINE
8
BLACK
6
CONTINUOUS
10
115.606
20
-90.8163
11
115.766
21
-90.656
0
LINE
8
BLACK
6
CONTINUOUS
10
115.766
20
-90.656
11
115.955
21
-90.53
0
LINE
8
BLACK
6
CONTINUOUS
10
115.955
20
-90.53
11
116.164
21
-90.4432
0
LINE
8
BLACK
6
CONTINUOUS
10
116.164
20
-90.4432
11
116.275
21
-90.4211
0
LINE
8
BLACK
6
CONTINUOUS
10
116.275
20
-90.4211
11
116.387
21
-90.399
0
LINE
8
BLACK
6
CONTINUOUS
10
116.387
20
-90.399
11
116.613
21
-90.399
0
LINE
8
BLACK
6
CONTINUOUS
10
116.613
20
-90.399
11
116.725
21
-90.4211
0
LINE
8
BLACK
6
CONTINUOUS
10
90.0345
20
-90.4211
11
90.1457
21
-90.4432
0
LINE
8
BLACK
6
CONTINUOUS
10
90.1457
20
-90.4432
11
90.3552
21
-90.53
0
LINE
8
BLACK
6
CONTINUOUS
10
90.3552
20
-90.53
11
90.5437
21
-90.656
0
LINE
8
BLACK
6
CONTINUOUS
10
90.5437
20
-90.656
11
90.704
21
-90.8163
0
LINE
8
BLACK
6
CONTINUOUS
10
90.704
20
-90.8163
11
90.83
21
-91.0048
0
LINE
8
BLACK
6
CONTINUOUS
10
90.83
20
-91.0048
11
90.9168
21
-91.2143
0
LINE
8
BLACK
6
CONTINUOUS
10
90.9168
20
-91.2143
11
90.961
21
-91.4366
0
LINE
8
BLACK
6
CONTINUOUS
10
90.961
20
-91.4366
11
90.961
21
-91.6634
0
LINE
8
BLACK
6
CONTINUOUS
10
90.961
20
-91.6634
11
90.9168
21
-91.8857
0
LINE
8
BLACK
6
CONTINUOUS
10
90.9168
20
-91.8857
11
90.83
21
-92.0952
0
LINE
8
BLACK
6
CONTINUOUS
10
90.83
20
-92.0952
11
90.704
21
-92.2837
0
LINE
8
BLACK
6
CONTINUOUS
10
90.704
20
-92.2837
11
90.5437
21
-92.444
0
LINE
8
BLACK
6
CONTINUOUS
10
90.5437
20
-92.444
11
90.3552
21
-92.57
0
LINE
8
BLACK
6
CONTINUOUS
10
90.3552
20
-92.57
11
90.1457
21
-92.6568
0
LINE
8
BLACK
6
CONTINUOUS
10
90.1457
20
-92.6568
11
90.0345
21
-92.6789
0
LINE
8
BLACK
6
CONTINUOUS
10
90.0345
20
-92.6789
11
89.9234
21
-92.701
0
LINE
8
BLACK
6
CONTINUOUS
10
89.9234
20
-92.701
11
89.6966
21
-92.701
0
LINE
8
BLACK
6
CONTINUOUS
10
89.6966
20
-92.701
11
89.5855
21
-92.6789
0
LINE
8
BLACK
6
CONTINUOUS
10
89.5855
20
-92.6789
11
89.4743
21
-92.6568
0
LINE
8
BLACK
6
CONTINUOUS
10
89.4743
20
-92.6568
11
89.2648
21
-92.57
0
LINE
8
BLACK
6
CONTINUOUS
10
89.2648
20
-92.57
11
89.0763
21
-92.444
0
LINE
8
BLACK
6
CONTINUOUS
10
89.0763
20
-92.444
11
88.916
21
-92.2837
0
LINE
8
BLACK
6
CONTINUOUS
10
88.916
20
-92.2837
11
88.79
21
-92.0952
0
LINE
8
BLACK
6
CONTINUOUS
10
88.79
20
-92.0952
11
88.7032
21
-91.8857
0
LINE
8
BLACK
6
CONTINUOUS
10
88.7032
20
-91.8857
11
88.659
21
-91.6634
0
LINE
8
BLACK
6
CONTINUOUS
10
88.659
20
-91.6634
11
88.659
21
-91.4366
0
LINE
8
BLACK
6
CONTINUOUS
10
88.659
20
-91.4366
11
88.7032
21
-91.2143
0
LINE
8
BLACK
6
CONTINUOUS
10
88.7032
20
-91.2143
11
88.79
21
-91.0048
0
LINE
8
BLACK
6
CONTINUOUS
10
88.79
20
-91.0048
11
88.916
21
-90.8163
0
LINE
8
BLACK
6
CONTINUOUS
10
88.916
20
-90.8163
11
89.0763
21
-90.656
0
LINE
8
BLACK
6
CONTINUOUS
10
89.0763
20
-90.656
11
89.2648
21
-90.53
0
LINE
8
BLACK
6
CONTINUOUS
10
89.2648
20
-90.53
11
89.4743
21
-90.4432
0
LINE
8
BLACK
6
CONTINUOUS
10
89.4743
20
-90.4432
11
89.5855
21
-90.4211
0
LINE
8
BLACK
6
CONTINUOUS
10
89.5855
20
-90.4211
11
89.6966
21
-90.399
0
LINE
8
BLACK
6
CONTINUOUS
10
89.6966
20
-90.399
11
89.9234
21
-90.399
0
LINE
8
BLACK
6
CONTINUOUS
10
89.9234
20
-90.399
11
90.0345
21
-90.4211
0
LINE
8
BLACK
6
CONTINUOUS
10
120.33
20
-56.8636
11
120.441
21
-56.8857
0
LINE
8
BLACK
6
CONTINUOUS
10
120.441
20
-56.8857
11
120.65
21
-56.9725
0
LINE
8
BLACK
6
CONTINUOUS
10
120.65
20
-56.9725
11
120.839
21
-57.0985
0
LINE
8
BLACK
6
CONTINUOUS
10
120.839
20
-57.0985
11
120.999
21
-57.2588
0
LINE
8
BLACK
6
CONTINUOUS
10
120.999
20
-57.2588
11
121.125
21
-57.4473
0
LINE
8
BLACK
6
CONTINUOUS
10
121.125
20
-57.4473
11
121.212
21
-57.6568
0
LINE
8
BLACK
6
CONTINUOUS
10
121.212
20
-57.6568
11
121.256
21
-57.8791
0
LINE
8
BLACK
6
CONTINUOUS
10
121.256
20
-57.8791
11
121.256
21
-58.1059
0
LINE
8
BLACK
6
CONTINUOUS
10
121.256
20
-58.1059
11
121.212
21
-58.3282
0
LINE
8
BLACK
6
CONTINUOUS
10
121.212
20
-58.3282
11
121.125
21
-58.5377
0
LINE
8
BLACK
6
CONTINUOUS
10
121.125
20
-58.5377
11
120.999
21
-58.7262
0
LINE
8
BLACK
6
CONTINUOUS
10
120.999
20
-58.7262
11
120.839
21
-58.8865
0
LINE
8
BLACK
6
CONTINUOUS
10
120.839
20
-58.8865
11
120.65
21
-59.0125
0
LINE
8
BLACK
6
CONTINUOUS
10
120.65
20
-59.0125
11
120.441
21
-59.0993
0
LINE
8
BLACK
6
CONTINUOUS
10
120.441
20
-59.0993
11
120.33
21
-59.1214
0
LINE
8
BLACK
6
CONTINUOUS
10
120.33
20
-59.1214
11
120.218
21
-59.1435
0
LINE
8
BLACK
6
CONTINUOUS
10
120.218
20
-59.1435
11
119.992
21
-59.1435
0
LINE
8
BLACK
6
CONTINUOUS
10
119.992
20
-59.1435
11
119.88
21
-59.1214
0
LINE
8
BLACK
6
CONTINUOUS
10
119.88
20
-59.1214
11
119.769
21
-59.0993
0
LINE
8
BLACK
6
CONTINUOUS
10
119.769
20
-59.0993
11
119.56
21
-59.0125
0
LINE
8
BLACK
6
CONTINUOUS
10
119.56
20
-59.0125
11
119.371
21
-58.8865
0
LINE
8
BLACK
6
CONTINUOUS
10
119.371
20
-58.8865
11
119.211
21
-58.7262
0
LINE
8
BLACK
6
CONTINUOUS
10
119.211
20
-58.7262
11
119.085
21
-58.5377
0
LINE
8
BLACK
6
CONTINUOUS
10
119.085
20
-58.5377
11
118.998
21
-58.3282
0
LINE
8
BLACK
6
CONTINUOUS
10
118.998
20
-58.3282
11
118.954
21
-58.1059
0
LINE
8
BLACK
6
CONTINUOUS
10
118.954
20
-58.1059
11
118.954
21
-57.8791
0
LINE
8
BLACK
6
CONTINUOUS
10
118.954
20
-57.8791
11
118.998
21
-57.6568
0
LINE
8
BLACK
6
CONTINUOUS
10
118.998
20
-57.6568
11
119.085
21
-57.4473
0
LINE
8
BLACK
6
CONTINUOUS
10
119.085
20
-57.4473
11
119.211
21
-57.2588
0
LINE
8
BLACK
6
CONTINUOUS
10
119.211
20
-57.2588
11
119.371
21
-57.0985
0
LINE
8
BLACK
6
CONTINUOUS
10
119.371
20
-57.0985
11
119.56
21
-56.9725
0
LINE
8
BLACK
6
CONTINUOUS
10
119.56
20
-56.9725
11
119.769
21
-56.8857
0
LINE
8
BLACK
6
CONTINUOUS
10
119.769
20
-56.8857
11
119.88
21
-56.8636
0
LINE
8
BLACK
6
CONTINUOUS
10
119.88
20
-56.8636
11
119.992
21
-56.8415
0
LINE
8
BLACK
6
CONTINUOUS
10
119.992
20
-56.8415
11
120.218
21
-56.8415
0
LINE
8
BLACK
6
CONTINUOUS
10
120.218
20
-56.8415
11
120.33
21
-56.8636
0
LINE
8
BLACK
6
CONTINUOUS
10
107.33
20
-56.8636
11
107.441
21
-56.8857
0
LINE
8
BLACK
6
CONTINUOUS
10
107.441
20
-56.8857
11
107.65
21
-56.9725
0
LINE
8
BLACK
6
CONTINUOUS
10
107.65
20
-56.9725
11
107.839
21
-57.0985
0
LINE
8
BLACK
6
CONTINUOUS
10
107.839
20
-57.0985
11
107.999
21
-57.2588
0
LINE
8
BLACK
6
CONTINUOUS
10
107.999
20
-57.2588
11
108.125
21
-57.4473
0
LINE
8
BLACK
6
CONTINUOUS
10
108.125
20
-57.4473
11
108.212
21
-57.6568
0
LINE
8
BLACK
6
CONTINUOUS
10
108.212
20
-57.6568
11
108.256
21
-57.8791
0
LINE
8
BLACK
6
CONTINUOUS
10
108.256
20
-57.8791
11
108.256
21
-58.1059
0
LINE
8
BLACK
6
CONTINUOUS
10
108.256
20
-58.1059
11
108.212
21
-58.3282
0
LINE
8
BLACK
6
CONTINUOUS
10
108.212
20
-58.3282
11
108.125
21
-58.5377
0
LINE
8
BLACK
6
CONTINUOUS
10
108.125
20
-58.5377
11
107.999
21
-58.7262
0
LINE
8
BLACK
6
CONTINUOUS
10
107.999
20
-58.7262
11
107.839
21
-58.8865
0
LINE
8
BLACK
6
CONTINUOUS
10
107.839
20
-58.8865
11
107.65
21
-59.0125
0
LINE
8
BLACK
6
CONTINUOUS
10
107.65
20
-59.0125
11
107.441
21
-59.0993
0
LINE
8
BLACK
6
CONTINUOUS
10
107.441
20
-59.0993
11
107.33
21
-59.1214
0
LINE
8
BLACK
6
CONTINUOUS
10
107.33
20
-59.1214
11
107.218
21
-59.1435
0
LINE
8
BLACK
6
CONTINUOUS
10
107.218
20
-59.1435
11
106.992
21
-59.1435
0
LINE
8
BLACK
6
CONTINUOUS
10
106.992
20
-59.1435
11
106.88
21
-59.1214
0
LINE
8
BLACK
6
CONTINUOUS
10
106.88
20
-59.1214
11
106.769
21
-59.0993
0
LINE
8
BLACK
6
CONTINUOUS
10
106.769
20
-59.0993
11
106.56
21
-59.0125
0
LINE
8
BLACK
6
CONTINUOUS
10
106.56
20
-59.0125
11
106.371
21
-58.8865
0
LINE
8
BLACK
6
CONTINUOUS
10
106.371
20
-58.8865
11
106.211
21
-58.7262
0
LINE
8
BLACK
6
CONTINUOUS
10
106.211
20
-58.7262
11
106.085
21
-58.5377
0
LINE
8
BLACK
6
CONTINUOUS
10
106.085
20
-58.5377
11
105.998
21
-58.3282
0
LINE
8
BLACK
6
CONTINUOUS
10
105.998
20
-58.3282
11
105.954
21
-58.1059
0
LINE
8
BLACK
6
CONTINUOUS
10
105.954
20
-58.1059
11
105.954
21
-57.8791
0
LINE
8
BLACK
6
CONTINUOUS
10
105.954
20
-57.8791
11
105.998
21
-57.6568
0
LINE
8
BLACK
6
CONTINUOUS
10
105.998
20
-57.6568
11
106.085
21
-57.4473
0
LINE
8
BLACK
6
CONTINUOUS
10
106.085
20
-57.4473
11
106.211
21
-57.2588
0
LINE
8
BLACK
6
CONTINUOUS
10
106.211
20
-57.2588
11
106.371
21
-57.0985
0
LINE
8
BLACK
6
CONTINUOUS
10
106.371
20
-57.0985
11
106.56
21
-56.9725
0
LINE
8
BLACK
6
CONTINUOUS
10
106.56
20
-56.9725
11
106.769
21
-56.8857
0
LINE
8
BLACK
6
CONTINUOUS
10
106.769
20
-56.8857
11
106.88
21
-56.8636
0
LINE
8
BLACK
6
CONTINUOUS
10
106.88
20
-56.8636
11
106.992
21
-56.8415
0
LINE
8
BLACK
6
CONTINUOUS
10
106.992
20
-56.8415
11
107.218
21
-56.8415
0
LINE
8
BLACK
6
CONTINUOUS
10
107.218
20
-56.8415
11
107.33
21
-56.8636
0
LINE
8
BLACK
6
CONTINUOUS
10
93.6395
20
-56.8636
11
93.7507
21
-56.8857
0
LINE
8
BLACK
6
CONTINUOUS
10
93.7507
20
-56.8857
11
93.9602
21
-56.9725
0
LINE
8
BLACK
6
CONTINUOUS
10
93.9602
20
-56.9725
11
94.1487
21
-57.0985
0
LINE
8
BLACK
6
CONTINUOUS
10
94.1487
20
-57.0985
11
94.309
21
-57.2588
0
LINE
8
BLACK
6
CONTINUOUS
10
94.309
20
-57.2588
11
94.435
21
-57.4473
0
LINE
8
BLACK
6
CONTINUOUS
10
94.435
20
-57.4473
11
94.5218
21
-57.6568
0
LINE
8
BLACK
6
CONTINUOUS
10
94.5218
20
-57.6568
11
94.566
21
-57.8791
0
LINE
8
BLACK
6
CONTINUOUS
10
94.566
20
-57.8791
11
94.566
21
-58.1059
0
LINE
8
BLACK
6
CONTINUOUS
10
94.566
20
-58.1059
11
94.5218
21
-58.3282
0
LINE
8
BLACK
6
CONTINUOUS
10
94.5218
20
-58.3282
11
94.435
21
-58.5377
0
LINE
8
BLACK
6
CONTINUOUS
10
94.435
20
-58.5377
11
94.309
21
-58.7262
0
LINE
8
BLACK
6
CONTINUOUS
10
94.309
20
-58.7262
11
94.1487
21
-58.8865
0
LINE
8
BLACK
6
CONTINUOUS
10
94.1487
20
-58.8865
11
93.9602
21
-59.0125
0
LINE
8
BLACK
6
CONTINUOUS
10
93.9602
20
-59.0125
11
93.7507
21
-59.0993
0
LINE
8
BLACK
6
CONTINUOUS
10
93.7507
20
-59.0993
11
93.6395
21
-59.1214
0
LINE
8
BLACK
6
CONTINUOUS
10
93.6395
20
-59.1214
11
93.5284
21
-59.1435
0
LINE
8
BLACK
6
CONTINUOUS
10
93.5284
20
-59.1435
11
93.3016
21
-59.1435
0
LINE
8
BLACK
6
CONTINUOUS
10
93.3016
20
-59.1435
11
93.1905
21
-59.1214
0
LINE
8
BLACK
6
CONTINUOUS
10
93.1905
20
-59.1214
11
93.0793
21
-59.0993
0
LINE
8
BLACK
6
CONTINUOUS
10
93.0793
20
-59.0993
11
92.8698
21
-59.0125
0
LINE
8
BLACK
6
CONTINUOUS
10
92.8698
20
-59.0125
11
92.6813
21
-58.8865
0
LINE
8
BLACK
6
CONTINUOUS
10
92.6813
20
-58.8865
11
92.521
21
-58.7262
0
LINE
8
BLACK
6
CONTINUOUS
10
92.521
20
-58.7262
11
92.395
21
-58.5377
0
LINE
8
BLACK
6
CONTINUOUS
10
92.395
20
-58.5377
11
92.3082
21
-58.3282
0
LINE
8
BLACK
6
CONTINUOUS
10
92.3082
20
-58.3282
11
92.264
21
-58.1059
0
LINE
8
BLACK
6
CONTINUOUS
10
92.264
20
-58.1059
11
92.264
21
-57.8791
0
LINE
8
BLACK
6
CONTINUOUS
10
92.264
20
-57.8791
11
92.3082
21
-57.6568
0
LINE
8
BLACK
6
CONTINUOUS
10
92.3082
20
-57.6568
11
92.395
21
-57.4473
0
LINE
8
BLACK
6
CONTINUOUS
10
92.395
20
-57.4473
11
92.521
21
-57.2588
0
LINE
8
BLACK
6
CONTINUOUS
10
92.521
20
-57.2588
11
92.6813
21
-57.0985
0
LINE
8
BLACK
6
CONTINUOUS
10
92.6813
20
-57.0985
11
92.8698
21
-56.9725
0
LINE
8
BLACK
6
CONTINUOUS
10
92.8698
20
-56.9725
11
93.0793
21
-56.8857
0
LINE
8
BLACK
6
CONTINUOUS
10
93.0793
20
-56.8857
11
93.1905
21
-56.8636
0
LINE
8
BLACK
6
CONTINUOUS
10
93.1905
20
-56.8636
11
93.3016
21
-56.8415
0
LINE
8
BLACK
6
CONTINUOUS
10
93.3016
20
-56.8415
11
93.5284
21
-56.8415
0
LINE
8
BLACK
6
CONTINUOUS
10
93.5284
20
-56.8415
11
93.6395
21
-56.8636
0
LINE
8
BLACK
6
CONTINUOUS
10
80.6395
20
-56.8636
11
80.7507
21
-56.8857
0
LINE
8
BLACK
6
CONTINUOUS
10
80.7507
20
-56.8857
11
80.9602
21
-56.9725
0
LINE
8
BLACK
6
CONTINUOUS
10
80.9602
20
-56.9725
11
81.1487
21
-57.0985
0
LINE
8
BLACK
6
CONTINUOUS
10
81.1487
20
-57.0985
11
81.309
21
-57.2588
0
LINE
8
BLACK
6
CONTINUOUS
10
81.309
20
-57.2588
11
81.435
21
-57.4473
0
LINE
8
BLACK
6
CONTINUOUS
10
81.435
20
-57.4473
11
81.5218
21
-57.6568
0
LINE
8
BLACK
6
CONTINUOUS
10
81.5218
20
-57.6568
11
81.566
21
-57.8791
0
LINE
8
BLACK
6
CONTINUOUS
10
81.566
20
-57.8791
11
81.566
21
-58.1059
0
LINE
8
BLACK
6
CONTINUOUS
10
81.566
20
-58.1059
11
81.5218
21
-58.3282
0
LINE
8
BLACK
6
CONTINUOUS
10
81.5218
20
-58.3282
11
81.435
21
-58.5377
0
LINE
8
BLACK
6
CONTINUOUS
10
81.435
20
-58.5377
11
81.309
21
-58.7262
0
LINE
8
BLACK
6
CONTINUOUS
10
81.309
20
-58.7262
11
81.1487
21
-58.8865
0
LINE
8
BLACK
6
CONTINUOUS
10
81.1487
20
-58.8865
11
80.9602
21
-59.0125
0
LINE
8
BLACK
6
CONTINUOUS
10
80.9602
20
-59.0125
11
80.7507
21
-59.0993
0
LINE
8
BLACK
6
CONTINUOUS
10
80.7507
20
-59.0993
11
80.6395
21
-59.1214
0
LINE
8
BLACK
6
CONTINUOUS
10
80.6395
20
-59.1214
11
80.5284
21
-59.1435
0
LINE
8
BLACK
6
CONTINUOUS
10
80.5284
20
-59.1435
11
80.3016
21
-59.1435
0
LINE
8
BLACK
6
CONTINUOUS
10
80.3016
20
-59.1435
11
80.1905
21
-59.1214
0
LINE
8
BLACK
6
CONTINUOUS
10
80.1905
20
-59.1214
11
80.0793
21
-59.0993
0
LINE
8
BLACK
6
CONTINUOUS
10
80.0793
20
-59.0993
11
79.8698
21
-59.0125
0
LINE
8
BLACK
6
CONTINUOUS
10
79.8698
20
-59.0125
11
79.6813
21
-58.8865
0
LINE
8
BLACK
6
CONTINUOUS
10
79.6813
20
-58.8865
11
79.521
21
-58.7262
0
LINE
8
BLACK
6
CONTINUOUS
10
79.521
20
-58.7262
11
79.395
21
-58.5377
0
LINE
8
BLACK
6
CONTINUOUS
10
79.395
20
-58.5377
11
79.3082
21
-58.3282
0
LINE
8
BLACK
6
CONTINUOUS
10
79.3082
20
-58.3282
11
79.264
21
-58.1059
0
LINE
8
BLACK
6
CONTINUOUS
10
79.264
20
-58.1059
11
79.264
21
-57.8791
0
LINE
8
BLACK
6
CONTINUOUS
10
79.264
20
-57.8791
11
79.3082
21
-57.6568
0
LINE
8
BLACK
6
CONTINUOUS
10
79.3082
20
-57.6568
11
79.395
21
-57.4473
0
LINE
8
BLACK
6
CONTINUOUS
10
79.395
20
-57.4473
11
79.521
21
-57.2588
0
LINE
8
BLACK
6
CONTINUOUS
10
79.521
20
-57.2588
11
79.6813
21
-57.0985
0
LINE
8
BLACK
6
CONTINUOUS
10
79.6813
20
-57.0985
11
79.8698
21
-56.9725
0
LINE
8
BLACK
6
CONTINUOUS
10
79.8698
20
-56.9725
11
80.0793
21
-56.8857
0
LINE
8
BLACK
6
CONTINUOUS
10
80.0793
20
-56.8857
11
80.1905
21
-56.8636
0
LINE
8
BLACK
6
CONTINUOUS
10
80.1905
20
-56.8636
11
80.3016
21
-56.8415
0
LINE
8
BLACK
6
CONTINUOUS
10
80.3016
20
-56.8415
11
80.5284
21
-56.8415
0
LINE
8
BLACK
6
CONTINUOUS
10
80.5284
20
-56.8415
11
80.6395
21
-56.8636
  0
ENDSEC
  0
EOF
