  0
SECTION
  2
HEADER
  9
$ANGBASE
  50
0.0
  9
$ANGDIR
  70
1
  9
$MEASUREMENT
  70
1
  0
ENDSEC
  0
SECTION
  2
TABLES
  0
TABLE
  2
LTYPE
  70
4
  0
LTYPE
  5
40F
  2
CONTINUOUS
  70
0
  3
Solid line
  72
65
  73
0
  40
0.0
  0
LTYPE
  5
410
  2
DASHDOT
 70
0
  3
Dash Dot ____ _ ____ _
 72
65
 73
4
 40
2.0
 49
1.25
 49
-0.25
 49
0.25
 49
-0.25
  0
LTYPE
  5
411
  2
DASHED
 70
0
  3
Dashed __ __ __ __ __
 72
65
 73
2
 40
0.75
 49
0.5
 49
-0.25
  0
LTYPE
  5
43B
  2
DOTTED
 70
0
  3
Dotted .  .  .  .
 72
65
 73
2
 40
0.2
 49
0.0
 49
-0.2
  0
ENDTAB
  0
TABLE
  2
STYLE
  70
4
  0
STYLE
  2
KICAD
  70
0
  40
0
  41
1
  42
1
  50
0
  71
0
  3
isocp.shx
  0
STYLE
  2
KICADB
  70
0
  40
0
  41
1
  42
1
  50
0
  71
0
  3
isocp.shx
  0
STYLE
  2
KICADI
  70
0
  40
0
  41
1
  42
1
  50
15
  71
0
  3
isocp.shx
  0
STYLE
  2
KICADBI
  70
0
  40
0
  41
1
  42
1
  50
15
  71
0
  3
isocp.shx
  0
ENDTAB
  0
TABLE
  2
LAYER
  70
1
  0
LAYER
  2
BLACK
  70
0
  62
7
  6
CONTINUOUS
  0
ENDTAB
  0
ENDSEC
  0
SECTION
  2
ENTITIES
0
LINE
8
BLACK
6
CONTINUOUS
10
279.969
20
-87.0976
11
280.017
21
-87.0024
0
LINE
8
BLACK
6
CONTINUOUS
10
280.017
20
-87.0024
11
280.064
21
-86.9548
0
LINE
8
BLACK
6
CONTINUOUS
10
280.064
20
-86.9548
11
280.16
21
-86.9071
0
LINE
8
BLACK
6
CONTINUOUS
10
280.16
20
-86.9071
11
280.207
21
-86.9071
0
LINE
8
BLACK
6
CONTINUOUS
10
280.207
20
-86.9071
11
280.302
21
-86.9548
0
LINE
8
BLACK
6
CONTINUOUS
10
280.302
20
-86.9548
11
280.35
21
-87.0024
0
LINE
8
BLACK
6
CONTINUOUS
10
280.35
20
-87.0024
11
280.398
21
-87.0976
0
LINE
8
BLACK
6
CONTINUOUS
10
280.398
20
-87.0976
11
280.398
21
-87.2881
0
LINE
8
BLACK
6
CONTINUOUS
10
280.398
20
-87.2881
11
280.35
21
-87.3833
0
LINE
8
BLACK
6
CONTINUOUS
10
280.35
20
-87.3833
11
280.302
21
-87.431
0
LINE
8
BLACK
6
CONTINUOUS
10
280.302
20
-87.431
11
280.207
21
-87.4786
0
LINE
8
BLACK
6
CONTINUOUS
10
280.207
20
-87.4786
11
280.16
21
-87.4786
0
LINE
8
BLACK
6
CONTINUOUS
10
280.16
20
-87.4786
11
280.064
21
-87.431
0
LINE
8
BLACK
6
CONTINUOUS
10
280.064
20
-87.431
11
280.017
21
-87.3833
0
LINE
8
BLACK
6
CONTINUOUS
10
280.017
20
-87.3833
11
279.969
21
-87.2881
0
LINE
8
BLACK
6
CONTINUOUS
10
279.969
20
-87.2881
11
279.969
21
-87.0976
0
LINE
8
BLACK
6
CONTINUOUS
10
279.969
20
-87.0976
11
279.921
21
-87.0024
0
LINE
8
BLACK
6
CONTINUOUS
10
279.921
20
-87.0024
11
279.874
21
-86.9548
0
LINE
8
BLACK
6
CONTINUOUS
10
279.874
20
-86.9548
11
279.779
21
-86.9071
0
LINE
8
BLACK
6
CONTINUOUS
10
279.779
20
-86.9071
11
279.588
21
-86.9071
0
LINE
8
BLACK
6
CONTINUOUS
10
279.588
20
-86.9071
11
279.493
21
-86.9548
0
LINE
8
BLACK
6
CONTINUOUS
10
279.493
20
-86.9548
11
279.445
21
-87.0024
0
LINE
8
BLACK
6
CONTINUOUS
10
279.445
20
-87.0024
11
279.398
21
-87.0976
0
LINE
8
BLACK
6
CONTINUOUS
10
279.398
20
-87.0976
11
279.398
21
-87.2881
0
LINE
8
BLACK
6
CONTINUOUS
10
279.398
20
-87.2881
11
279.445
21
-87.3833
0
LINE
8
BLACK
6
CONTINUOUS
10
279.445
20
-87.3833
11
279.493
21
-87.431
0
LINE
8
BLACK
6
CONTINUOUS
10
279.493
20
-87.431
11
279.588
21
-87.4786
0
LINE
8
BLACK
6
CONTINUOUS
10
279.588
20
-87.4786
11
279.779
21
-87.4786
0
LINE
8
BLACK
6
CONTINUOUS
10
279.779
20
-87.4786
11
279.874
21
-87.431
0
LINE
8
BLACK
6
CONTINUOUS
10
279.874
20
-87.431
11
279.921
21
-87.3833
0
LINE
8
BLACK
6
CONTINUOUS
10
279.921
20
-87.3833
11
279.969
21
-87.2881
0
LINE
8
BLACK
6
CONTINUOUS
10
280.064
20
-88.3357
11
279.398
21
-88.3357
0
LINE
8
BLACK
6
CONTINUOUS
10
280.445
20
-88.0976
11
279.731
21
-87.8595
0
LINE
8
BLACK
6
CONTINUOUS
10
279.731
20
-87.8595
11
279.731
21
-88.4786
0
LINE
8
BLACK
6
CONTINUOUS
10
279.493
20
-88.8595
11
279.445
21
-88.9071
0
LINE
8
BLACK
6
CONTINUOUS
10
279.445
20
-88.9071
11
279.398
21
-88.8595
0
LINE
8
BLACK
6
CONTINUOUS
10
279.398
20
-88.8595
11
279.445
21
-88.8119
0
LINE
8
BLACK
6
CONTINUOUS
10
279.445
20
-88.8119
11
279.493
21
-88.8595
0
LINE
8
BLACK
6
CONTINUOUS
10
279.493
20
-88.8595
11
279.398
21
-88.8595
0
LINE
8
BLACK
6
CONTINUOUS
10
280.398
20
-89.2405
11
280.398
21
-89.9071
0
LINE
8
BLACK
6
CONTINUOUS
10
280.398
20
-89.9071
11
279.398
21
-89.4786
0
LINE
8
BLACK
6
CONTINUOUS
10
280.398
20
-90.7167
11
280.398
21
-90.5262
0
LINE
8
BLACK
6
CONTINUOUS
10
280.398
20
-90.5262
11
280.35
21
-90.431
0
LINE
8
BLACK
6
CONTINUOUS
10
280.35
20
-90.431
11
280.302
21
-90.3833
0
LINE
8
BLACK
6
CONTINUOUS
10
280.302
20
-90.3833
11
280.16
21
-90.2881
0
LINE
8
BLACK
6
CONTINUOUS
10
280.16
20
-90.2881
11
279.969
21
-90.2405
0
LINE
8
BLACK
6
CONTINUOUS
10
279.969
20
-90.2405
11
279.588
21
-90.2405
0
LINE
8
BLACK
6
CONTINUOUS
10
279.588
20
-90.2405
11
279.493
21
-90.2881
0
LINE
8
BLACK
6
CONTINUOUS
10
279.493
20
-90.2881
11
279.445
21
-90.3357
0
LINE
8
BLACK
6
CONTINUOUS
10
279.445
20
-90.3357
11
279.398
21
-90.431
0
LINE
8
BLACK
6
CONTINUOUS
10
279.398
20
-90.431
11
279.398
21
-90.6214
0
LINE
8
BLACK
6
CONTINUOUS
10
279.398
20
-90.6214
11
279.445
21
-90.7167
0
LINE
8
BLACK
6
CONTINUOUS
10
279.445
20
-90.7167
11
279.493
21
-90.7643
0
LINE
8
BLACK
6
CONTINUOUS
10
279.493
20
-90.7643
11
279.588
21
-90.8119
0
LINE
8
BLACK
6
CONTINUOUS
10
279.588
20
-90.8119
11
279.826
21
-90.8119
0
LINE
8
BLACK
6
CONTINUOUS
10
279.826
20
-90.8119
11
279.921
21
-90.7643
0
LINE
8
BLACK
6
CONTINUOUS
10
279.921
20
-90.7643
11
279.969
21
-90.7167
0
LINE
8
BLACK
6
CONTINUOUS
10
279.969
20
-90.7167
11
280.017
21
-90.6214
0
LINE
8
BLACK
6
CONTINUOUS
10
280.017
20
-90.6214
11
280.017
21
-90.431
0
LINE
8
BLACK
6
CONTINUOUS
10
280.017
20
-90.431
11
279.969
21
-90.3357
0
LINE
8
BLACK
6
CONTINUOUS
10
279.969
20
-90.3357
11
279.921
21
-90.2881
0
LINE
8
BLACK
6
CONTINUOUS
10
279.921
20
-90.2881
11
279.826
21
-90.2405
0
LINE
8
BLACK
6
CONTINUOUS
10
280.398
20
-91.431
11
280.398
21
-91.5262
0
LINE
8
BLACK
6
CONTINUOUS
10
280.398
20
-91.5262
11
280.35
21
-91.6214
0
LINE
8
BLACK
6
CONTINUOUS
10
280.35
20
-91.6214
11
280.302
21
-91.669
0
LINE
8
BLACK
6
CONTINUOUS
10
280.302
20
-91.669
11
280.207
21
-91.7167
0
LINE
8
BLACK
6
CONTINUOUS
10
280.207
20
-91.7167
11
280.017
21
-91.7643
0
LINE
8
BLACK
6
CONTINUOUS
10
280.017
20
-91.7643
11
279.779
21
-91.7643
0
LINE
8
BLACK
6
CONTINUOUS
10
279.779
20
-91.7643
11
279.588
21
-91.7167
0
LINE
8
BLACK
6
CONTINUOUS
10
279.588
20
-91.7167
11
279.493
21
-91.669
0
LINE
8
BLACK
6
CONTINUOUS
10
279.493
20
-91.669
11
279.445
21
-91.6214
0
LINE
8
BLACK
6
CONTINUOUS
10
279.445
20
-91.6214
11
279.398
21
-91.5262
0
LINE
8
BLACK
6
CONTINUOUS
10
279.398
20
-91.5262
11
279.398
21
-91.431
0
LINE
8
BLACK
6
CONTINUOUS
10
279.398
20
-91.431
11
279.445
21
-91.3357
0
LINE
8
BLACK
6
CONTINUOUS
10
279.445
20
-91.3357
11
279.493
21
-91.2881
0
LINE
8
BLACK
6
CONTINUOUS
10
279.493
20
-91.2881
11
279.588
21
-91.2405
0
LINE
8
BLACK
6
CONTINUOUS
10
279.588
20
-91.2405
11
279.779
21
-91.1929
0
LINE
8
BLACK
6
CONTINUOUS
10
279.779
20
-91.1929
11
280.017
21
-91.1929
0
LINE
8
BLACK
6
CONTINUOUS
10
280.017
20
-91.1929
11
280.207
21
-91.2405
0
LINE
8
BLACK
6
CONTINUOUS
10
280.207
20
-91.2405
11
280.302
21
-91.2881
0
LINE
8
BLACK
6
CONTINUOUS
10
280.302
20
-91.2881
11
280.35
21
-91.3357
0
LINE
8
BLACK
6
CONTINUOUS
10
280.35
20
-91.3357
11
280.398
21
-91.431
0
LINE
8
BLACK
6
CONTINUOUS
10
279.398
20
-92.9548
11
280.064
21
-92.9548
0
LINE
8
BLACK
6
CONTINUOUS
10
279.969
20
-92.9548
11
280.017
21
-93.0024
0
LINE
8
BLACK
6
CONTINUOUS
10
280.017
20
-93.0024
11
280.064
21
-93.0976
0
LINE
8
BLACK
6
CONTINUOUS
10
280.064
20
-93.0976
11
280.064
21
-93.2405
0
LINE
8
BLACK
6
CONTINUOUS
10
280.064
20
-93.2405
11
280.017
21
-93.3357
0
LINE
8
BLACK
6
CONTINUOUS
10
280.017
20
-93.3357
11
279.921
21
-93.3833
0
LINE
8
BLACK
6
CONTINUOUS
10
279.921
20
-93.3833
11
279.398
21
-93.3833
0
LINE
8
BLACK
6
CONTINUOUS
10
279.921
20
-93.3833
11
280.017
21
-93.431
0
LINE
8
BLACK
6
CONTINUOUS
10
280.017
20
-93.431
11
280.064
21
-93.5262
0
LINE
8
BLACK
6
CONTINUOUS
10
280.064
20
-93.5262
11
280.064
21
-93.669
0
LINE
8
BLACK
6
CONTINUOUS
10
280.064
20
-93.669
11
280.017
21
-93.7643
0
LINE
8
BLACK
6
CONTINUOUS
10
280.017
20
-93.7643
11
279.921
21
-93.8119
0
LINE
8
BLACK
6
CONTINUOUS
10
279.921
20
-93.8119
11
279.398
21
-93.8119
0
LINE
8
BLACK
6
CONTINUOUS
10
279.398
20
-94.2881
11
280.064
21
-94.2881
0
LINE
8
BLACK
6
CONTINUOUS
10
279.969
20
-94.2881
11
280.017
21
-94.3357
0
LINE
8
BLACK
6
CONTINUOUS
10
280.017
20
-94.3357
11
280.064
21
-94.431
0
LINE
8
BLACK
6
CONTINUOUS
10
280.064
20
-94.431
11
280.064
21
-94.5738
0
LINE
8
BLACK
6
CONTINUOUS
10
280.064
20
-94.5738
11
280.017
21
-94.669
0
LINE
8
BLACK
6
CONTINUOUS
10
280.017
20
-94.669
11
279.921
21
-94.7167
0
LINE
8
BLACK
6
CONTINUOUS
10
279.921
20
-94.7167
11
279.398
21
-94.7167
0
LINE
8
BLACK
6
CONTINUOUS
10
279.921
20
-94.7167
11
280.017
21
-94.7643
0
LINE
8
BLACK
6
CONTINUOUS
10
280.017
20
-94.7643
11
280.064
21
-94.8595
0
LINE
8
BLACK
6
CONTINUOUS
10
280.064
20
-94.8595
11
280.064
21
-95.0024
0
LINE
8
BLACK
6
CONTINUOUS
10
280.064
20
-95.0024
11
280.017
21
-95.0976
0
LINE
8
BLACK
6
CONTINUOUS
10
280.017
20
-95.0976
11
279.921
21
-95.1452
0
LINE
8
BLACK
6
CONTINUOUS
10
279.921
20
-95.1452
11
279.398
21
-95.1452
0
LINE
8
BLACK
6
CONTINUOUS
10
278.55
20
-48.67
11
278.55
21
-133.43
0
LINE
8
BLACK
6
CONTINUOUS
10
254.805
20
-48.67
11
279.136
21
-48.67
0
LINE
8
BLACK
6
CONTINUOUS
10
254.805
20
-133.43
11
279.136
21
-133.43
0
LINE
8
BLACK
6
CONTINUOUS
10
278.55
20
-133.43
11
277.964
21
-132.303
0
LINE
8
BLACK
6
CONTINUOUS
10
278.55
20
-133.43
11
279.136
21
-132.303
0
LINE
8
BLACK
6
CONTINUOUS
10
278.55
20
-48.67
11
277.964
21
-49.7965
0
LINE
8
BLACK
6
CONTINUOUS
10
278.55
20
-48.67
11
279.136
21
-49.7965
0
LINE
8
BLACK
6
CONTINUOUS
10
216.809
20
-43.0324
11
216.237
21
-43.0324
0
LINE
8
BLACK
6
CONTINUOUS
10
216.523
20
-43.0324
11
216.523
21
-42.0324
0
LINE
8
BLACK
6
CONTINUOUS
10
216.523
20
-42.0324
11
216.428
21
-42.1752
0
LINE
8
BLACK
6
CONTINUOUS
10
216.428
20
-42.1752
11
216.332
21
-42.2705
0
LINE
8
BLACK
6
CONTINUOUS
10
216.332
20
-42.2705
11
216.237
21
-42.3181
0
LINE
8
BLACK
6
CONTINUOUS
10
217.428
20
-42.0324
11
217.523
21
-42.0324
0
LINE
8
BLACK
6
CONTINUOUS
10
217.523
20
-42.0324
11
217.618
21
-42.08
0
LINE
8
BLACK
6
CONTINUOUS
10
217.618
20
-42.08
11
217.666
21
-42.1276
0
LINE
8
BLACK
6
CONTINUOUS
10
217.666
20
-42.1276
11
217.713
21
-42.2229
0
LINE
8
BLACK
6
CONTINUOUS
10
217.713
20
-42.2229
11
217.761
21
-42.4133
0
LINE
8
BLACK
6
CONTINUOUS
10
217.761
20
-42.4133
11
217.761
21
-42.6514
0
LINE
8
BLACK
6
CONTINUOUS
10
217.761
20
-42.6514
11
217.713
21
-42.8419
0
LINE
8
BLACK
6
CONTINUOUS
10
217.713
20
-42.8419
11
217.666
21
-42.9371
0
LINE
8
BLACK
6
CONTINUOUS
10
217.666
20
-42.9371
11
217.618
21
-42.9848
0
LINE
8
BLACK
6
CONTINUOUS
10
217.618
20
-42.9848
11
217.523
21
-43.0324
0
LINE
8
BLACK
6
CONTINUOUS
10
217.523
20
-43.0324
11
217.428
21
-43.0324
0
LINE
8
BLACK
6
CONTINUOUS
10
217.428
20
-43.0324
11
217.332
21
-42.9848
0
LINE
8
BLACK
6
CONTINUOUS
10
217.332
20
-42.9848
11
217.285
21
-42.9371
0
LINE
8
BLACK
6
CONTINUOUS
10
217.285
20
-42.9371
11
217.237
21
-42.8419
0
LINE
8
BLACK
6
CONTINUOUS
10
217.237
20
-42.8419
11
217.19
21
-42.6514
0
LINE
8
BLACK
6
CONTINUOUS
10
217.19
20
-42.6514
11
217.19
21
-42.4133
0
LINE
8
BLACK
6
CONTINUOUS
10
217.19
20
-42.4133
11
217.237
21
-42.2229
0
LINE
8
BLACK
6
CONTINUOUS
10
217.237
20
-42.2229
11
217.285
21
-42.1276
0
LINE
8
BLACK
6
CONTINUOUS
10
217.285
20
-42.1276
11
217.332
21
-42.08
0
LINE
8
BLACK
6
CONTINUOUS
10
217.332
20
-42.08
11
217.428
21
-42.0324
0
LINE
8
BLACK
6
CONTINUOUS
10
218.19
20
-42.9371
11
218.237
21
-42.9848
0
LINE
8
BLACK
6
CONTINUOUS
10
218.237
20
-42.9848
11
218.19
21
-43.0324
0
LINE
8
BLACK
6
CONTINUOUS
10
218.19
20
-43.0324
11
218.142
21
-42.9848
0
LINE
8
BLACK
6
CONTINUOUS
10
218.142
20
-42.9848
11
218.19
21
-42.9371
0
LINE
8
BLACK
6
CONTINUOUS
10
218.19
20
-42.9371
11
218.19
21
-43.0324
0
LINE
8
BLACK
6
CONTINUOUS
10
218.713
20
-43.0324
11
218.904
21
-43.0324
0
LINE
8
BLACK
6
CONTINUOUS
10
218.904
20
-43.0324
11
218.999
21
-42.9848
0
LINE
8
BLACK
6
CONTINUOUS
10
218.999
20
-42.9848
11
219.047
21
-42.9371
0
LINE
8
BLACK
6
CONTINUOUS
10
219.047
20
-42.9371
11
219.142
21
-42.7943
0
LINE
8
BLACK
6
CONTINUOUS
10
219.142
20
-42.7943
11
219.19
21
-42.6038
0
LINE
8
BLACK
6
CONTINUOUS
10
219.19
20
-42.6038
11
219.19
21
-42.2229
0
LINE
8
BLACK
6
CONTINUOUS
10
219.19
20
-42.2229
11
219.142
21
-42.1276
0
LINE
8
BLACK
6
CONTINUOUS
10
219.142
20
-42.1276
11
219.094
21
-42.08
0
LINE
8
BLACK
6
CONTINUOUS
10
219.094
20
-42.08
11
218.999
21
-42.0324
0
LINE
8
BLACK
6
CONTINUOUS
10
218.999
20
-42.0324
11
218.809
21
-42.0324
0
LINE
8
BLACK
6
CONTINUOUS
10
218.809
20
-42.0324
11
218.713
21
-42.08
0
LINE
8
BLACK
6
CONTINUOUS
10
218.713
20
-42.08
11
218.666
21
-42.1276
0
LINE
8
BLACK
6
CONTINUOUS
10
218.666
20
-42.1276
11
218.618
21
-42.2229
0
LINE
8
BLACK
6
CONTINUOUS
10
218.618
20
-42.2229
11
218.618
21
-42.461
0
LINE
8
BLACK
6
CONTINUOUS
10
218.618
20
-42.461
11
218.666
21
-42.5562
0
LINE
8
BLACK
6
CONTINUOUS
10
218.666
20
-42.5562
11
218.713
21
-42.6038
0
LINE
8
BLACK
6
CONTINUOUS
10
218.713
20
-42.6038
11
218.809
21
-42.6514
0
LINE
8
BLACK
6
CONTINUOUS
10
218.809
20
-42.6514
11
218.999
21
-42.6514
0
LINE
8
BLACK
6
CONTINUOUS
10
218.999
20
-42.6514
11
219.094
21
-42.6038
0
LINE
8
BLACK
6
CONTINUOUS
10
219.094
20
-42.6038
11
219.142
21
-42.5562
0
LINE
8
BLACK
6
CONTINUOUS
10
219.142
20
-42.5562
11
219.19
21
-42.461
0
LINE
8
BLACK
6
CONTINUOUS
10
220.047
20
-42.0324
11
219.856
21
-42.0324
0
LINE
8
BLACK
6
CONTINUOUS
10
219.856
20
-42.0324
11
219.761
21
-42.08
0
LINE
8
BLACK
6
CONTINUOUS
10
219.761
20
-42.08
11
219.713
21
-42.1276
0
LINE
8
BLACK
6
CONTINUOUS
10
219.713
20
-42.1276
11
219.618
21
-42.2705
0
LINE
8
BLACK
6
CONTINUOUS
10
219.618
20
-42.2705
11
219.57
21
-42.461
0
LINE
8
BLACK
6
CONTINUOUS
10
219.57
20
-42.461
11
219.57
21
-42.8419
0
LINE
8
BLACK
6
CONTINUOUS
10
219.57
20
-42.8419
11
219.618
21
-42.9371
0
LINE
8
BLACK
6
CONTINUOUS
10
219.618
20
-42.9371
11
219.666
21
-42.9848
0
LINE
8
BLACK
6
CONTINUOUS
10
219.666
20
-42.9848
11
219.761
21
-43.0324
0
LINE
8
BLACK
6
CONTINUOUS
10
219.761
20
-43.0324
11
219.951
21
-43.0324
0
LINE
8
BLACK
6
CONTINUOUS
10
219.951
20
-43.0324
11
220.047
21
-42.9848
0
LINE
8
BLACK
6
CONTINUOUS
10
220.047
20
-42.9848
11
220.094
21
-42.9371
0
LINE
8
BLACK
6
CONTINUOUS
10
220.094
20
-42.9371
11
220.142
21
-42.8419
0
LINE
8
BLACK
6
CONTINUOUS
10
220.142
20
-42.8419
11
220.142
21
-42.6038
0
LINE
8
BLACK
6
CONTINUOUS
10
220.142
20
-42.6038
11
220.094
21
-42.5086
0
LINE
8
BLACK
6
CONTINUOUS
10
220.094
20
-42.5086
11
220.047
21
-42.461
0
LINE
8
BLACK
6
CONTINUOUS
10
220.047
20
-42.461
11
219.951
21
-42.4133
0
LINE
8
BLACK
6
CONTINUOUS
10
219.951
20
-42.4133
11
219.761
21
-42.4133
0
LINE
8
BLACK
6
CONTINUOUS
10
219.761
20
-42.4133
11
219.666
21
-42.461
0
LINE
8
BLACK
6
CONTINUOUS
10
219.666
20
-42.461
11
219.618
21
-42.5086
0
LINE
8
BLACK
6
CONTINUOUS
10
219.618
20
-42.5086
11
219.57
21
-42.6038
0
LINE
8
BLACK
6
CONTINUOUS
10
220.761
20
-42.0324
11
220.856
21
-42.0324
0
LINE
8
BLACK
6
CONTINUOUS
10
220.856
20
-42.0324
11
220.951
21
-42.08
0
LINE
8
BLACK
6
CONTINUOUS
10
220.951
20
-42.08
11
220.999
21
-42.1276
0
LINE
8
BLACK
6
CONTINUOUS
10
220.999
20
-42.1276
11
221.047
21
-42.2229
0
LINE
8
BLACK
6
CONTINUOUS
10
221.047
20
-42.2229
11
221.094
21
-42.4133
0
LINE
8
BLACK
6
CONTINUOUS
10
221.094
20
-42.4133
11
221.094
21
-42.6514
0
LINE
8
BLACK
6
CONTINUOUS
10
221.094
20
-42.6514
11
221.047
21
-42.8419
0
LINE
8
BLACK
6
CONTINUOUS
10
221.047
20
-42.8419
11
220.999
21
-42.9371
0
LINE
8
BLACK
6
CONTINUOUS
10
220.999
20
-42.9371
11
220.951
21
-42.9848
0
LINE
8
BLACK
6
CONTINUOUS
10
220.951
20
-42.9848
11
220.856
21
-43.0324
0
LINE
8
BLACK
6
CONTINUOUS
10
220.856
20
-43.0324
11
220.761
21
-43.0324
0
LINE
8
BLACK
6
CONTINUOUS
10
220.761
20
-43.0324
11
220.666
21
-42.9848
0
LINE
8
BLACK
6
CONTINUOUS
10
220.666
20
-42.9848
11
220.618
21
-42.9371
0
LINE
8
BLACK
6
CONTINUOUS
10
220.618
20
-42.9371
11
220.57
21
-42.8419
0
LINE
8
BLACK
6
CONTINUOUS
10
220.57
20
-42.8419
11
220.523
21
-42.6514
0
LINE
8
BLACK
6
CONTINUOUS
10
220.523
20
-42.6514
11
220.523
21
-42.4133
0
LINE
8
BLACK
6
CONTINUOUS
10
220.523
20
-42.4133
11
220.57
21
-42.2229
0
LINE
8
BLACK
6
CONTINUOUS
10
220.57
20
-42.2229
11
220.618
21
-42.1276
0
LINE
8
BLACK
6
CONTINUOUS
10
220.618
20
-42.1276
11
220.666
21
-42.08
0
LINE
8
BLACK
6
CONTINUOUS
10
220.666
20
-42.08
11
220.761
21
-42.0324
0
LINE
8
BLACK
6
CONTINUOUS
10
222.285
20
-43.0324
11
222.285
21
-42.3657
0
LINE
8
BLACK
6
CONTINUOUS
10
222.285
20
-42.461
11
222.332
21
-42.4133
0
LINE
8
BLACK
6
CONTINUOUS
10
222.332
20
-42.4133
11
222.428
21
-42.3657
0
LINE
8
BLACK
6
CONTINUOUS
10
222.428
20
-42.3657
11
222.57
21
-42.3657
0
LINE
8
BLACK
6
CONTINUOUS
10
222.57
20
-42.3657
11
222.666
21
-42.4133
0
LINE
8
BLACK
6
CONTINUOUS
10
222.666
20
-42.4133
11
222.713
21
-42.5086
0
LINE
8
BLACK
6
CONTINUOUS
10
222.713
20
-42.5086
11
222.713
21
-43.0324
0
LINE
8
BLACK
6
CONTINUOUS
10
222.713
20
-42.5086
11
222.761
21
-42.4133
0
LINE
8
BLACK
6
CONTINUOUS
10
222.761
20
-42.4133
11
222.856
21
-42.3657
0
LINE
8
BLACK
6
CONTINUOUS
10
222.856
20
-42.3657
11
222.999
21
-42.3657
0
LINE
8
BLACK
6
CONTINUOUS
10
222.999
20
-42.3657
11
223.094
21
-42.4133
0
LINE
8
BLACK
6
CONTINUOUS
10
223.094
20
-42.4133
11
223.142
21
-42.5086
0
LINE
8
BLACK
6
CONTINUOUS
10
223.142
20
-42.5086
11
223.142
21
-43.0324
0
LINE
8
BLACK
6
CONTINUOUS
10
223.618
20
-43.0324
11
223.618
21
-42.3657
0
LINE
8
BLACK
6
CONTINUOUS
10
223.618
20
-42.461
11
223.666
21
-42.4133
0
LINE
8
BLACK
6
CONTINUOUS
10
223.666
20
-42.4133
11
223.761
21
-42.3657
0
LINE
8
BLACK
6
CONTINUOUS
10
223.761
20
-42.3657
11
223.904
21
-42.3657
0
LINE
8
BLACK
6
CONTINUOUS
10
223.904
20
-42.3657
11
223.999
21
-42.4133
0
LINE
8
BLACK
6
CONTINUOUS
10
223.999
20
-42.4133
11
224.047
21
-42.5086
0
LINE
8
BLACK
6
CONTINUOUS
10
224.047
20
-42.5086
11
224.047
21
-43.0324
0
LINE
8
BLACK
6
CONTINUOUS
10
224.047
20
-42.5086
11
224.094
21
-42.4133
0
LINE
8
BLACK
6
CONTINUOUS
10
224.094
20
-42.4133
11
224.19
21
-42.3657
0
LINE
8
BLACK
6
CONTINUOUS
10
224.19
20
-42.3657
11
224.332
21
-42.3657
0
LINE
8
BLACK
6
CONTINUOUS
10
224.332
20
-42.3657
11
224.428
21
-42.4133
0
LINE
8
BLACK
6
CONTINUOUS
10
224.428
20
-42.4133
11
224.475
21
-42.5086
0
LINE
8
BLACK
6
CONTINUOUS
10
224.475
20
-42.5086
11
224.475
21
-43.0324
0
LINE
8
BLACK
6
CONTINUOUS
10
214.9
20
-43.88
11
225.86
21
-43.88
0
LINE
8
BLACK
6
CONTINUOUS
10
214.9
20
-47.165
11
214.9
21
-43.2936
0
LINE
8
BLACK
6
CONTINUOUS
10
225.86
20
-47.165
11
225.86
21
-43.2936
0
LINE
8
BLACK
6
CONTINUOUS
10
225.86
20
-43.88
11
224.733
21
-44.4664
0
LINE
8
BLACK
6
CONTINUOUS
10
225.86
20
-43.88
11
224.733
21
-43.2936
0
LINE
8
BLACK
6
CONTINUOUS
10
214.9
20
-43.88
11
216.027
21
-44.4664
0
LINE
8
BLACK
6
CONTINUOUS
10
214.9
20
-43.88
11
216.027
21
-43.2936
0
LINE
8
BLACK
6
CONTINUOUS
10
239.891
20
-142.792
11
239.32
21
-142.792
0
LINE
8
BLACK
6
CONTINUOUS
10
239.605
20
-142.792
11
239.605
21
-141.792
0
LINE
8
BLACK
6
CONTINUOUS
10
239.605
20
-141.792
11
239.51
21
-141.935
0
LINE
8
BLACK
6
CONTINUOUS
10
239.51
20
-141.935
11
239.415
21
-142.03
0
LINE
8
BLACK
6
CONTINUOUS
10
239.415
20
-142.03
11
239.32
21
-142.078
0
LINE
8
BLACK
6
CONTINUOUS
10
240.462
20
-142.221
11
240.367
21
-142.173
0
LINE
8
BLACK
6
CONTINUOUS
10
240.367
20
-142.173
11
240.32
21
-142.126
0
LINE
8
BLACK
6
CONTINUOUS
10
240.32
20
-142.126
11
240.272
21
-142.03
0
LINE
8
BLACK
6
CONTINUOUS
10
240.272
20
-142.03
11
240.272
21
-141.983
0
LINE
8
BLACK
6
CONTINUOUS
10
240.272
20
-141.983
11
240.32
21
-141.888
0
LINE
8
BLACK
6
CONTINUOUS
10
240.32
20
-141.888
11
240.367
21
-141.84
0
LINE
8
BLACK
6
CONTINUOUS
10
240.367
20
-141.84
11
240.462
21
-141.792
0
LINE
8
BLACK
6
CONTINUOUS
10
240.462
20
-141.792
11
240.653
21
-141.792
0
LINE
8
BLACK
6
CONTINUOUS
10
240.653
20
-141.792
11
240.748
21
-141.84
0
LINE
8
BLACK
6
CONTINUOUS
10
240.748
20
-141.84
11
240.796
21
-141.888
0
LINE
8
BLACK
6
CONTINUOUS
10
240.796
20
-141.888
11
240.843
21
-141.983
0
LINE
8
BLACK
6
CONTINUOUS
10
240.843
20
-141.983
11
240.843
21
-142.03
0
LINE
8
BLACK
6
CONTINUOUS
10
240.843
20
-142.03
11
240.796
21
-142.126
0
LINE
8
BLACK
6
CONTINUOUS
10
240.796
20
-142.126
11
240.748
21
-142.173
0
LINE
8
BLACK
6
CONTINUOUS
10
240.748
20
-142.173
11
240.653
21
-142.221
0
LINE
8
BLACK
6
CONTINUOUS
10
240.653
20
-142.221
11
240.462
21
-142.221
0
LINE
8
BLACK
6
CONTINUOUS
10
240.462
20
-142.221
11
240.367
21
-142.269
0
LINE
8
BLACK
6
CONTINUOUS
10
240.367
20
-142.269
11
240.32
21
-142.316
0
LINE
8
BLACK
6
CONTINUOUS
10
240.32
20
-142.316
11
240.272
21
-142.411
0
LINE
8
BLACK
6
CONTINUOUS
10
240.272
20
-142.411
11
240.272
21
-142.602
0
LINE
8
BLACK
6
CONTINUOUS
10
240.272
20
-142.602
11
240.32
21
-142.697
0
LINE
8
BLACK
6
CONTINUOUS
10
240.32
20
-142.697
11
240.367
21
-142.745
0
LINE
8
BLACK
6
CONTINUOUS
10
240.367
20
-142.745
11
240.462
21
-142.792
0
LINE
8
BLACK
6
CONTINUOUS
10
240.462
20
-142.792
11
240.653
21
-142.792
0
LINE
8
BLACK
6
CONTINUOUS
10
240.653
20
-142.792
11
240.748
21
-142.745
0
LINE
8
BLACK
6
CONTINUOUS
10
240.748
20
-142.745
11
240.796
21
-142.697
0
LINE
8
BLACK
6
CONTINUOUS
10
240.796
20
-142.697
11
240.843
21
-142.602
0
LINE
8
BLACK
6
CONTINUOUS
10
240.843
20
-142.602
11
240.843
21
-142.411
0
LINE
8
BLACK
6
CONTINUOUS
10
240.843
20
-142.411
11
240.796
21
-142.316
0
LINE
8
BLACK
6
CONTINUOUS
10
240.796
20
-142.316
11
240.748
21
-142.269
0
LINE
8
BLACK
6
CONTINUOUS
10
240.748
20
-142.269
11
240.653
21
-142.221
0
LINE
8
BLACK
6
CONTINUOUS
10
241.272
20
-142.697
11
241.32
21
-142.745
0
LINE
8
BLACK
6
CONTINUOUS
10
241.32
20
-142.745
11
241.272
21
-142.792
0
LINE
8
BLACK
6
CONTINUOUS
10
241.272
20
-142.792
11
241.224
21
-142.745
0
LINE
8
BLACK
6
CONTINUOUS
10
241.224
20
-142.745
11
241.272
21
-142.697
0
LINE
8
BLACK
6
CONTINUOUS
10
241.272
20
-142.697
11
241.272
21
-142.792
0
LINE
8
BLACK
6
CONTINUOUS
10
241.653
20
-141.792
11
242.32
21
-141.792
0
LINE
8
BLACK
6
CONTINUOUS
10
242.32
20
-141.792
11
241.891
21
-142.792
0
LINE
8
BLACK
6
CONTINUOUS
10
242.748
20
-142.792
11
242.939
21
-142.792
0
LINE
8
BLACK
6
CONTINUOUS
10
242.939
20
-142.792
11
243.034
21
-142.745
0
LINE
8
BLACK
6
CONTINUOUS
10
243.034
20
-142.745
11
243.082
21
-142.697
0
LINE
8
BLACK
6
CONTINUOUS
10
243.082
20
-142.697
11
243.177
21
-142.554
0
LINE
8
BLACK
6
CONTINUOUS
10
243.177
20
-142.554
11
243.224
21
-142.364
0
LINE
8
BLACK
6
CONTINUOUS
10
243.224
20
-142.364
11
243.224
21
-141.983
0
LINE
8
BLACK
6
CONTINUOUS
10
243.224
20
-141.983
11
243.177
21
-141.888
0
LINE
8
BLACK
6
CONTINUOUS
10
243.177
20
-141.888
11
243.129
21
-141.84
0
LINE
8
BLACK
6
CONTINUOUS
10
243.129
20
-141.84
11
243.034
21
-141.792
0
LINE
8
BLACK
6
CONTINUOUS
10
243.034
20
-141.792
11
242.843
21
-141.792
0
LINE
8
BLACK
6
CONTINUOUS
10
242.843
20
-141.792
11
242.748
21
-141.84
0
LINE
8
BLACK
6
CONTINUOUS
10
242.748
20
-141.84
11
242.701
21
-141.888
0
LINE
8
BLACK
6
CONTINUOUS
10
242.701
20
-141.888
11
242.653
21
-141.983
0
LINE
8
BLACK
6
CONTINUOUS
10
242.653
20
-141.983
11
242.653
21
-142.221
0
LINE
8
BLACK
6
CONTINUOUS
10
242.653
20
-142.221
11
242.701
21
-142.316
0
LINE
8
BLACK
6
CONTINUOUS
10
242.701
20
-142.316
11
242.748
21
-142.364
0
LINE
8
BLACK
6
CONTINUOUS
10
242.748
20
-142.364
11
242.843
21
-142.411
0
LINE
8
BLACK
6
CONTINUOUS
10
242.843
20
-142.411
11
243.034
21
-142.411
0
LINE
8
BLACK
6
CONTINUOUS
10
243.034
20
-142.411
11
243.129
21
-142.364
0
LINE
8
BLACK
6
CONTINUOUS
10
243.129
20
-142.364
11
243.177
21
-142.316
0
LINE
8
BLACK
6
CONTINUOUS
10
243.177
20
-142.316
11
243.224
21
-142.221
0
LINE
8
BLACK
6
CONTINUOUS
10
244.129
20
-141.792
11
243.653
21
-141.792
0
LINE
8
BLACK
6
CONTINUOUS
10
243.653
20
-141.792
11
243.605
21
-142.269
0
LINE
8
BLACK
6
CONTINUOUS
10
243.605
20
-142.269
11
243.653
21
-142.221
0
LINE
8
BLACK
6
CONTINUOUS
10
243.653
20
-142.221
11
243.748
21
-142.173
0
LINE
8
BLACK
6
CONTINUOUS
10
243.748
20
-142.173
11
243.986
21
-142.173
0
LINE
8
BLACK
6
CONTINUOUS
10
243.986
20
-142.173
11
244.082
21
-142.221
0
LINE
8
BLACK
6
CONTINUOUS
10
244.082
20
-142.221
11
244.129
21
-142.269
0
LINE
8
BLACK
6
CONTINUOUS
10
244.129
20
-142.269
11
244.177
21
-142.364
0
LINE
8
BLACK
6
CONTINUOUS
10
244.177
20
-142.364
11
244.177
21
-142.602
0
LINE
8
BLACK
6
CONTINUOUS
10
244.177
20
-142.602
11
244.129
21
-142.697
0
LINE
8
BLACK
6
CONTINUOUS
10
244.129
20
-142.697
11
244.082
21
-142.745
0
LINE
8
BLACK
6
CONTINUOUS
10
244.082
20
-142.745
11
243.986
21
-142.792
0
LINE
8
BLACK
6
CONTINUOUS
10
243.986
20
-142.792
11
243.748
21
-142.792
0
LINE
8
BLACK
6
CONTINUOUS
10
243.748
20
-142.792
11
243.653
21
-142.745
0
LINE
8
BLACK
6
CONTINUOUS
10
243.653
20
-142.745
11
243.605
21
-142.697
0
LINE
8
BLACK
6
CONTINUOUS
10
245.367
20
-142.792
11
245.367
21
-142.126
0
LINE
8
BLACK
6
CONTINUOUS
10
245.367
20
-142.221
11
245.415
21
-142.173
0
LINE
8
BLACK
6
CONTINUOUS
10
245.415
20
-142.173
11
245.51
21
-142.126
0
LINE
8
BLACK
6
CONTINUOUS
10
245.51
20
-142.126
11
245.653
21
-142.126
0
LINE
8
BLACK
6
CONTINUOUS
10
245.653
20
-142.126
11
245.748
21
-142.173
0
LINE
8
BLACK
6
CONTINUOUS
10
245.748
20
-142.173
11
245.796
21
-142.269
0
LINE
8
BLACK
6
CONTINUOUS
10
245.796
20
-142.269
11
245.796
21
-142.792
0
LINE
8
BLACK
6
CONTINUOUS
10
245.796
20
-142.269
11
245.843
21
-142.173
0
LINE
8
BLACK
6
CONTINUOUS
10
245.843
20
-142.173
11
245.939
21
-142.126
0
LINE
8
BLACK
6
CONTINUOUS
10
245.939
20
-142.126
11
246.082
21
-142.126
0
LINE
8
BLACK
6
CONTINUOUS
10
246.082
20
-142.126
11
246.177
21
-142.173
0
LINE
8
BLACK
6
CONTINUOUS
10
246.177
20
-142.173
11
246.224
21
-142.269
0
LINE
8
BLACK
6
CONTINUOUS
10
246.224
20
-142.269
11
246.224
21
-142.792
0
LINE
8
BLACK
6
CONTINUOUS
10
246.701
20
-142.792
11
246.701
21
-142.126
0
LINE
8
BLACK
6
CONTINUOUS
10
246.701
20
-142.221
11
246.748
21
-142.173
0
LINE
8
BLACK
6
CONTINUOUS
10
246.748
20
-142.173
11
246.843
21
-142.126
0
LINE
8
BLACK
6
CONTINUOUS
10
246.843
20
-142.126
11
246.986
21
-142.126
0
LINE
8
BLACK
6
CONTINUOUS
10
246.986
20
-142.126
11
247.082
21
-142.173
0
LINE
8
BLACK
6
CONTINUOUS
10
247.082
20
-142.173
11
247.129
21
-142.269
0
LINE
8
BLACK
6
CONTINUOUS
10
247.129
20
-142.269
11
247.129
21
-142.792
0
LINE
8
BLACK
6
CONTINUOUS
10
247.129
20
-142.269
11
247.177
21
-142.173
0
LINE
8
BLACK
6
CONTINUOUS
10
247.177
20
-142.173
11
247.272
21
-142.126
0
LINE
8
BLACK
6
CONTINUOUS
10
247.272
20
-142.126
11
247.415
21
-142.126
0
LINE
8
BLACK
6
CONTINUOUS
10
247.415
20
-142.126
11
247.51
21
-142.173
0
LINE
8
BLACK
6
CONTINUOUS
10
247.51
20
-142.173
11
247.558
21
-142.269
0
LINE
8
BLACK
6
CONTINUOUS
10
247.558
20
-142.269
11
247.558
21
-142.792
0
LINE
8
BLACK
6
CONTINUOUS
10
234.065
20
-141.04
11
252.86
21
-141.04
0
LINE
8
BLACK
6
CONTINUOUS
10
234.065
20
-137.87
11
234.065
21
-141.626
0
LINE
8
BLACK
6
CONTINUOUS
10
252.86
20
-137.87
11
252.86
21
-141.626
0
LINE
8
BLACK
6
CONTINUOUS
10
252.86
20
-141.04
11
251.733
21
-141.626
0
LINE
8
BLACK
6
CONTINUOUS
10
252.86
20
-141.04
11
251.733
21
-140.454
0
LINE
8
BLACK
6
CONTINUOUS
10
234.065
20
-141.04
11
235.192
21
-141.626
0
LINE
8
BLACK
6
CONTINUOUS
10
234.065
20
-141.04
11
235.192
21
-140.454
0
LINE
8
BLACK
6
CONTINUOUS
10
229.154
20
-43.0024
11
228.582
21
-43.0024
0
LINE
8
BLACK
6
CONTINUOUS
10
228.868
20
-43.0024
11
228.868
21
-42.0024
0
LINE
8
BLACK
6
CONTINUOUS
10
228.868
20
-42.0024
11
228.773
21
-42.1452
0
LINE
8
BLACK
6
CONTINUOUS
10
228.773
20
-42.1452
11
228.677
21
-42.2405
0
LINE
8
BLACK
6
CONTINUOUS
10
228.677
20
-42.2405
11
228.582
21
-42.2881
0
LINE
8
BLACK
6
CONTINUOUS
10
230.106
20
-43.0024
11
229.535
21
-43.0024
0
LINE
8
BLACK
6
CONTINUOUS
10
229.82
20
-43.0024
11
229.82
21
-42.0024
0
LINE
8
BLACK
6
CONTINUOUS
10
229.82
20
-42.0024
11
229.725
21
-42.1452
0
LINE
8
BLACK
6
CONTINUOUS
10
229.725
20
-42.1452
11
229.63
21
-42.2405
0
LINE
8
BLACK
6
CONTINUOUS
10
229.63
20
-42.2405
11
229.535
21
-42.2881
0
LINE
8
BLACK
6
CONTINUOUS
10
230.535
20
-42.9071
11
230.582
21
-42.9548
0
LINE
8
BLACK
6
CONTINUOUS
10
230.582
20
-42.9548
11
230.535
21
-43.0024
0
LINE
8
BLACK
6
CONTINUOUS
10
230.535
20
-43.0024
11
230.487
21
-42.9548
0
LINE
8
BLACK
6
CONTINUOUS
10
230.487
20
-42.9548
11
230.535
21
-42.9071
0
LINE
8
BLACK
6
CONTINUOUS
10
230.535
20
-42.9071
11
230.535
21
-43.0024
0
LINE
8
BLACK
6
CONTINUOUS
10
231.535
20
-43.0024
11
230.963
21
-43.0024
0
LINE
8
BLACK
6
CONTINUOUS
10
231.249
20
-43.0024
11
231.249
21
-42.0024
0
LINE
8
BLACK
6
CONTINUOUS
10
231.249
20
-42.0024
11
231.154
21
-42.1452
0
LINE
8
BLACK
6
CONTINUOUS
10
231.154
20
-42.1452
11
231.058
21
-42.2405
0
LINE
8
BLACK
6
CONTINUOUS
10
231.058
20
-42.2405
11
230.963
21
-42.2881
0
LINE
8
BLACK
6
CONTINUOUS
10
232.439
20
-42.0024
11
231.963
21
-42.0024
0
LINE
8
BLACK
6
CONTINUOUS
10
231.963
20
-42.0024
11
231.915
21
-42.4786
0
LINE
8
BLACK
6
CONTINUOUS
10
231.915
20
-42.4786
11
231.963
21
-42.431
0
LINE
8
BLACK
6
CONTINUOUS
10
231.963
20
-42.431
11
232.058
21
-42.3833
0
LINE
8
BLACK
6
CONTINUOUS
10
232.058
20
-42.3833
11
232.296
21
-42.3833
0
LINE
8
BLACK
6
CONTINUOUS
10
232.296
20
-42.3833
11
232.392
21
-42.431
0
LINE
8
BLACK
6
CONTINUOUS
10
232.392
20
-42.431
11
232.439
21
-42.4786
0
LINE
8
BLACK
6
CONTINUOUS
10
232.439
20
-42.4786
11
232.487
21
-42.5738
0
LINE
8
BLACK
6
CONTINUOUS
10
232.487
20
-42.5738
11
232.487
21
-42.8119
0
LINE
8
BLACK
6
CONTINUOUS
10
232.487
20
-42.8119
11
232.439
21
-42.9071
0
LINE
8
BLACK
6
CONTINUOUS
10
232.439
20
-42.9071
11
232.392
21
-42.9548
0
LINE
8
BLACK
6
CONTINUOUS
10
232.392
20
-42.9548
11
232.296
21
-43.0024
0
LINE
8
BLACK
6
CONTINUOUS
10
232.296
20
-43.0024
11
232.058
21
-43.0024
0
LINE
8
BLACK
6
CONTINUOUS
10
232.058
20
-43.0024
11
231.963
21
-42.9548
0
LINE
8
BLACK
6
CONTINUOUS
10
231.963
20
-42.9548
11
231.915
21
-42.9071
0
LINE
8
BLACK
6
CONTINUOUS
10
233.106
20
-42.0024
11
233.201
21
-42.0024
0
LINE
8
BLACK
6
CONTINUOUS
10
233.201
20
-42.0024
11
233.296
21
-42.05
0
LINE
8
BLACK
6
CONTINUOUS
10
233.296
20
-42.05
11
233.344
21
-42.0976
0
LINE
8
BLACK
6
CONTINUOUS
10
233.344
20
-42.0976
11
233.392
21
-42.1929
0
LINE
8
BLACK
6
CONTINUOUS
10
233.392
20
-42.1929
11
233.439
21
-42.3833
0
LINE
8
BLACK
6
CONTINUOUS
10
233.439
20
-42.3833
11
233.439
21
-42.6214
0
LINE
8
BLACK
6
CONTINUOUS
10
233.439
20
-42.6214
11
233.392
21
-42.8119
0
LINE
8
BLACK
6
CONTINUOUS
10
233.392
20
-42.8119
11
233.344
21
-42.9071
0
LINE
8
BLACK
6
CONTINUOUS
10
233.344
20
-42.9071
11
233.296
21
-42.9548
0
LINE
8
BLACK
6
CONTINUOUS
10
233.296
20
-42.9548
11
233.201
21
-43.0024
0
LINE
8
BLACK
6
CONTINUOUS
10
233.201
20
-43.0024
11
233.106
21
-43.0024
0
LINE
8
BLACK
6
CONTINUOUS
10
233.106
20
-43.0024
11
233.011
21
-42.9548
0
LINE
8
BLACK
6
CONTINUOUS
10
233.011
20
-42.9548
11
232.963
21
-42.9071
0
LINE
8
BLACK
6
CONTINUOUS
10
232.963
20
-42.9071
11
232.915
21
-42.8119
0
LINE
8
BLACK
6
CONTINUOUS
10
232.915
20
-42.8119
11
232.868
21
-42.6214
0
LINE
8
BLACK
6
CONTINUOUS
10
232.868
20
-42.6214
11
232.868
21
-42.3833
0
LINE
8
BLACK
6
CONTINUOUS
10
232.868
20
-42.3833
11
232.915
21
-42.1929
0
LINE
8
BLACK
6
CONTINUOUS
10
232.915
20
-42.1929
11
232.963
21
-42.0976
0
LINE
8
BLACK
6
CONTINUOUS
10
232.963
20
-42.0976
11
233.011
21
-42.05
0
LINE
8
BLACK
6
CONTINUOUS
10
233.011
20
-42.05
11
233.106
21
-42.0024
0
LINE
8
BLACK
6
CONTINUOUS
10
234.63
20
-43.0024
11
234.63
21
-42.3357
0
LINE
8
BLACK
6
CONTINUOUS
10
234.63
20
-42.431
11
234.677
21
-42.3833
0
LINE
8
BLACK
6
CONTINUOUS
10
234.677
20
-42.3833
11
234.773
21
-42.3357
0
LINE
8
BLACK
6
CONTINUOUS
10
234.773
20
-42.3357
11
234.915
21
-42.3357
0
LINE
8
BLACK
6
CONTINUOUS
10
234.915
20
-42.3357
11
235.011
21
-42.3833
0
LINE
8
BLACK
6
CONTINUOUS
10
235.011
20
-42.3833
11
235.058
21
-42.4786
0
LINE
8
BLACK
6
CONTINUOUS
10
235.058
20
-42.4786
11
235.058
21
-43.0024
0
LINE
8
BLACK
6
CONTINUOUS
10
235.058
20
-42.4786
11
235.106
21
-42.3833
0
LINE
8
BLACK
6
CONTINUOUS
10
235.106
20
-42.3833
11
235.201
21
-42.3357
0
LINE
8
BLACK
6
CONTINUOUS
10
235.201
20
-42.3357
11
235.344
21
-42.3357
0
LINE
8
BLACK
6
CONTINUOUS
10
235.344
20
-42.3357
11
235.439
21
-42.3833
0
LINE
8
BLACK
6
CONTINUOUS
10
235.439
20
-42.3833
11
235.487
21
-42.4786
0
LINE
8
BLACK
6
CONTINUOUS
10
235.487
20
-42.4786
11
235.487
21
-43.0024
0
LINE
8
BLACK
6
CONTINUOUS
10
235.963
20
-43.0024
11
235.963
21
-42.3357
0
LINE
8
BLACK
6
CONTINUOUS
10
235.963
20
-42.431
11
236.011
21
-42.3833
0
LINE
8
BLACK
6
CONTINUOUS
10
236.011
20
-42.3833
11
236.106
21
-42.3357
0
LINE
8
BLACK
6
CONTINUOUS
10
236.106
20
-42.3357
11
236.249
21
-42.3357
0
LINE
8
BLACK
6
CONTINUOUS
10
236.249
20
-42.3357
11
236.344
21
-42.3833
0
LINE
8
BLACK
6
CONTINUOUS
10
236.344
20
-42.3833
11
236.392
21
-42.4786
0
LINE
8
BLACK
6
CONTINUOUS
10
236.392
20
-42.4786
11
236.392
21
-43.0024
0
LINE
8
BLACK
6
CONTINUOUS
10
236.392
20
-42.4786
11
236.439
21
-42.3833
0
LINE
8
BLACK
6
CONTINUOUS
10
236.439
20
-42.3833
11
236.535
21
-42.3357
0
LINE
8
BLACK
6
CONTINUOUS
10
236.535
20
-42.3357
11
236.677
21
-42.3357
0
LINE
8
BLACK
6
CONTINUOUS
10
236.677
20
-42.3357
11
236.773
21
-42.3833
0
LINE
8
BLACK
6
CONTINUOUS
10
236.773
20
-42.3833
11
236.82
21
-42.4786
0
LINE
8
BLACK
6
CONTINUOUS
10
236.82
20
-42.4786
11
236.82
21
-43.0024
0
LINE
8
BLACK
6
CONTINUOUS
10
227.15
20
-43.85
11
238.3
21
-43.85
0
LINE
8
BLACK
6
CONTINUOUS
10
227.15
20
-47.165
11
227.15
21
-43.2636
0
LINE
8
BLACK
6
CONTINUOUS
10
238.3
20
-47.165
11
238.3
21
-43.2636
0
LINE
8
BLACK
6
CONTINUOUS
10
238.3
20
-43.85
11
237.173
21
-44.4364
0
LINE
8
BLACK
6
CONTINUOUS
10
238.3
20
-43.85
11
237.173
21
-43.2636
0
LINE
8
BLACK
6
CONTINUOUS
10
227.15
20
-43.85
11
228.277
21
-44.4364
0
LINE
8
BLACK
6
CONTINUOUS
10
227.15
20
-43.85
11
228.277
21
-43.2636
0
LINE
8
BLACK
6
CONTINUOUS
10
142.842
20
-102.718
11
142.842
21
-103.289
0
LINE
8
BLACK
6
CONTINUOUS
10
142.842
20
-103.003
11
141.842
21
-103.003
0
LINE
8
BLACK
6
CONTINUOUS
10
141.842
20
-103.003
11
141.985
21
-103.099
0
LINE
8
BLACK
6
CONTINUOUS
10
141.985
20
-103.099
11
142.08
21
-103.194
0
LINE
8
BLACK
6
CONTINUOUS
10
142.08
20
-103.194
11
142.128
21
-103.289
0
LINE
8
BLACK
6
CONTINUOUS
10
141.842
20
-102.099
11
141.842
21
-102.003
0
LINE
8
BLACK
6
CONTINUOUS
10
141.842
20
-102.003
11
141.89
21
-101.908
0
LINE
8
BLACK
6
CONTINUOUS
10
141.89
20
-101.908
11
141.938
21
-101.86
0
LINE
8
BLACK
6
CONTINUOUS
10
141.938
20
-101.86
11
142.033
21
-101.813
0
LINE
8
BLACK
6
CONTINUOUS
10
142.033
20
-101.813
11
142.223
21
-101.765
0
LINE
8
BLACK
6
CONTINUOUS
10
142.223
20
-101.765
11
142.461
21
-101.765
0
LINE
8
BLACK
6
CONTINUOUS
10
142.461
20
-101.765
11
142.652
21
-101.813
0
LINE
8
BLACK
6
CONTINUOUS
10
142.652
20
-101.813
11
142.747
21
-101.86
0
LINE
8
BLACK
6
CONTINUOUS
10
142.747
20
-101.86
11
142.795
21
-101.908
0
LINE
8
BLACK
6
CONTINUOUS
10
142.795
20
-101.908
11
142.842
21
-102.003
0
LINE
8
BLACK
6
CONTINUOUS
10
142.842
20
-102.003
11
142.842
21
-102.099
0
LINE
8
BLACK
6
CONTINUOUS
10
142.842
20
-102.099
11
142.795
21
-102.194
0
LINE
8
BLACK
6
CONTINUOUS
10
142.795
20
-102.194
11
142.747
21
-102.241
0
LINE
8
BLACK
6
CONTINUOUS
10
142.747
20
-102.241
11
142.652
21
-102.289
0
LINE
8
BLACK
6
CONTINUOUS
10
142.652
20
-102.289
11
142.461
21
-102.337
0
LINE
8
BLACK
6
CONTINUOUS
10
142.461
20
-102.337
11
142.223
21
-102.337
0
LINE
8
BLACK
6
CONTINUOUS
10
142.223
20
-102.337
11
142.033
21
-102.289
0
LINE
8
BLACK
6
CONTINUOUS
10
142.033
20
-102.289
11
141.938
21
-102.241
0
LINE
8
BLACK
6
CONTINUOUS
10
141.938
20
-102.241
11
141.89
21
-102.194
0
LINE
8
BLACK
6
CONTINUOUS
10
141.89
20
-102.194
11
141.842
21
-102.099
0
LINE
8
BLACK
6
CONTINUOUS
10
141.842
20
-101.146
11
141.842
21
-101.051
0
LINE
8
BLACK
6
CONTINUOUS
10
141.842
20
-101.051
11
141.89
21
-100.956
0
LINE
8
BLACK
6
CONTINUOUS
10
141.89
20
-100.956
11
141.938
21
-100.908
0
LINE
8
BLACK
6
CONTINUOUS
10
141.938
20
-100.908
11
142.033
21
-100.86
0
LINE
8
BLACK
6
CONTINUOUS
10
142.033
20
-100.86
11
142.223
21
-100.813
0
LINE
8
BLACK
6
CONTINUOUS
10
142.223
20
-100.813
11
142.461
21
-100.813
0
LINE
8
BLACK
6
CONTINUOUS
10
142.461
20
-100.813
11
142.652
21
-100.86
0
LINE
8
BLACK
6
CONTINUOUS
10
142.652
20
-100.86
11
142.747
21
-100.908
0
LINE
8
BLACK
6
CONTINUOUS
10
142.747
20
-100.908
11
142.795
21
-100.956
0
LINE
8
BLACK
6
CONTINUOUS
10
142.795
20
-100.956
11
142.842
21
-101.051
0
LINE
8
BLACK
6
CONTINUOUS
10
142.842
20
-101.051
11
142.842
21
-101.146
0
LINE
8
BLACK
6
CONTINUOUS
10
142.842
20
-101.146
11
142.795
21
-101.241
0
LINE
8
BLACK
6
CONTINUOUS
10
142.795
20
-101.241
11
142.747
21
-101.289
0
LINE
8
BLACK
6
CONTINUOUS
10
142.747
20
-101.289
11
142.652
21
-101.337
0
LINE
8
BLACK
6
CONTINUOUS
10
142.652
20
-101.337
11
142.461
21
-101.384
0
LINE
8
BLACK
6
CONTINUOUS
10
142.461
20
-101.384
11
142.223
21
-101.384
0
LINE
8
BLACK
6
CONTINUOUS
10
142.223
20
-101.384
11
142.033
21
-101.337
0
LINE
8
BLACK
6
CONTINUOUS
10
142.033
20
-101.337
11
141.938
21
-101.289
0
LINE
8
BLACK
6
CONTINUOUS
10
141.938
20
-101.289
11
141.89
21
-101.241
0
LINE
8
BLACK
6
CONTINUOUS
10
141.89
20
-101.241
11
141.842
21
-101.146
0
LINE
8
BLACK
6
CONTINUOUS
10
142.747
20
-100.384
11
142.795
21
-100.337
0
LINE
8
BLACK
6
CONTINUOUS
10
142.795
20
-100.337
11
142.842
21
-100.384
0
LINE
8
BLACK
6
CONTINUOUS
10
142.842
20
-100.384
11
142.795
21
-100.432
0
LINE
8
BLACK
6
CONTINUOUS
10
142.795
20
-100.432
11
142.747
21
-100.384
0
LINE
8
BLACK
6
CONTINUOUS
10
142.747
20
-100.384
11
142.842
21
-100.384
0
LINE
8
BLACK
6
CONTINUOUS
10
141.842
20
-99.7176
11
141.842
21
-99.6224
0
LINE
8
BLACK
6
CONTINUOUS
10
141.842
20
-99.6224
11
141.89
21
-99.5271
0
LINE
8
BLACK
6
CONTINUOUS
10
141.89
20
-99.5271
11
141.938
21
-99.4795
0
LINE
8
BLACK
6
CONTINUOUS
10
141.938
20
-99.4795
11
142.033
21
-99.4319
0
LINE
8
BLACK
6
CONTINUOUS
10
142.033
20
-99.4319
11
142.223
21
-99.3843
0
LINE
8
BLACK
6
CONTINUOUS
10
142.223
20
-99.3843
11
142.461
21
-99.3843
0
LINE
8
BLACK
6
CONTINUOUS
10
142.461
20
-99.3843
11
142.652
21
-99.4319
0
LINE
8
BLACK
6
CONTINUOUS
10
142.652
20
-99.4319
11
142.747
21
-99.4795
0
LINE
8
BLACK
6
CONTINUOUS
10
142.747
20
-99.4795
11
142.795
21
-99.5271
0
LINE
8
BLACK
6
CONTINUOUS
10
142.795
20
-99.5271
11
142.842
21
-99.6224
0
LINE
8
BLACK
6
CONTINUOUS
10
142.842
20
-99.6224
11
142.842
21
-99.7176
0
LINE
8
BLACK
6
CONTINUOUS
10
142.842
20
-99.7176
11
142.795
21
-99.8129
0
LINE
8
BLACK
6
CONTINUOUS
10
142.795
20
-99.8129
11
142.747
21
-99.8605
0
LINE
8
BLACK
6
CONTINUOUS
10
142.747
20
-99.8605
11
142.652
21
-99.9081
0
LINE
8
BLACK
6
CONTINUOUS
10
142.652
20
-99.9081
11
142.461
21
-99.9557
0
LINE
8
BLACK
6
CONTINUOUS
10
142.461
20
-99.9557
11
142.223
21
-99.9557
0
LINE
8
BLACK
6
CONTINUOUS
10
142.223
20
-99.9557
11
142.033
21
-99.9081
0
LINE
8
BLACK
6
CONTINUOUS
10
142.033
20
-99.9081
11
141.938
21
-99.8605
0
LINE
8
BLACK
6
CONTINUOUS
10
141.938
20
-99.8605
11
141.89
21
-99.8129
0
LINE
8
BLACK
6
CONTINUOUS
10
141.89
20
-99.8129
11
141.842
21
-99.7176
0
LINE
8
BLACK
6
CONTINUOUS
10
141.842
20
-98.7652
11
141.842
21
-98.67
0
LINE
8
BLACK
6
CONTINUOUS
10
141.842
20
-98.67
11
141.89
21
-98.5748
0
LINE
8
BLACK
6
CONTINUOUS
10
141.89
20
-98.5748
11
141.938
21
-98.5271
0
LINE
8
BLACK
6
CONTINUOUS
10
141.938
20
-98.5271
11
142.033
21
-98.4795
0
LINE
8
BLACK
6
CONTINUOUS
10
142.033
20
-98.4795
11
142.223
21
-98.4319
0
LINE
8
BLACK
6
CONTINUOUS
10
142.223
20
-98.4319
11
142.461
21
-98.4319
0
LINE
8
BLACK
6
CONTINUOUS
10
142.461
20
-98.4319
11
142.652
21
-98.4795
0
LINE
8
BLACK
6
CONTINUOUS
10
142.652
20
-98.4795
11
142.747
21
-98.5271
0
LINE
8
BLACK
6
CONTINUOUS
10
142.747
20
-98.5271
11
142.795
21
-98.5748
0
LINE
8
BLACK
6
CONTINUOUS
10
142.795
20
-98.5748
11
142.842
21
-98.67
0
LINE
8
BLACK
6
CONTINUOUS
10
142.842
20
-98.67
11
142.842
21
-98.7652
0
LINE
8
BLACK
6
CONTINUOUS
10
142.842
20
-98.7652
11
142.795
21
-98.8605
0
LINE
8
BLACK
6
CONTINUOUS
10
142.795
20
-98.8605
11
142.747
21
-98.9081
0
LINE
8
BLACK
6
CONTINUOUS
10
142.747
20
-98.9081
11
142.652
21
-98.9557
0
LINE
8
BLACK
6
CONTINUOUS
10
142.652
20
-98.9557
11
142.461
21
-99.0033
0
LINE
8
BLACK
6
CONTINUOUS
10
142.461
20
-99.0033
11
142.223
21
-99.0033
0
LINE
8
BLACK
6
CONTINUOUS
10
142.223
20
-99.0033
11
142.033
21
-98.9557
0
LINE
8
BLACK
6
CONTINUOUS
10
142.033
20
-98.9557
11
141.938
21
-98.9081
0
LINE
8
BLACK
6
CONTINUOUS
10
141.938
20
-98.9081
11
141.89
21
-98.8605
0
LINE
8
BLACK
6
CONTINUOUS
10
141.89
20
-98.8605
11
141.842
21
-98.7652
0
LINE
8
BLACK
6
CONTINUOUS
10
141.842
20
-97.8129
11
141.842
21
-97.7176
0
LINE
8
BLACK
6
CONTINUOUS
10
141.842
20
-97.7176
11
141.89
21
-97.6224
0
LINE
8
BLACK
6
CONTINUOUS
10
141.89
20
-97.6224
11
141.938
21
-97.5748
0
LINE
8
BLACK
6
CONTINUOUS
10
141.938
20
-97.5748
11
142.033
21
-97.5271
0
LINE
8
BLACK
6
CONTINUOUS
10
142.033
20
-97.5271
11
142.223
21
-97.4795
0
LINE
8
BLACK
6
CONTINUOUS
10
142.223
20
-97.4795
11
142.461
21
-97.4795
0
LINE
8
BLACK
6
CONTINUOUS
10
142.461
20
-97.4795
11
142.652
21
-97.5271
0
LINE
8
BLACK
6
CONTINUOUS
10
142.652
20
-97.5271
11
142.747
21
-97.5748
0
LINE
8
BLACK
6
CONTINUOUS
10
142.747
20
-97.5748
11
142.795
21
-97.6224
0
LINE
8
BLACK
6
CONTINUOUS
10
142.795
20
-97.6224
11
142.842
21
-97.7176
0
LINE
8
BLACK
6
CONTINUOUS
10
142.842
20
-97.7176
11
142.842
21
-97.8129
0
LINE
8
BLACK
6
CONTINUOUS
10
142.842
20
-97.8129
11
142.795
21
-97.9081
0
LINE
8
BLACK
6
CONTINUOUS
10
142.795
20
-97.9081
11
142.747
21
-97.9557
0
LINE
8
BLACK
6
CONTINUOUS
10
142.747
20
-97.9557
11
142.652
21
-98.0033
0
LINE
8
BLACK
6
CONTINUOUS
10
142.652
20
-98.0033
11
142.461
21
-98.051
0
LINE
8
BLACK
6
CONTINUOUS
10
142.461
20
-98.051
11
142.223
21
-98.051
0
LINE
8
BLACK
6
CONTINUOUS
10
142.223
20
-98.051
11
142.033
21
-98.0033
0
LINE
8
BLACK
6
CONTINUOUS
10
142.033
20
-98.0033
11
141.938
21
-97.9557
0
LINE
8
BLACK
6
CONTINUOUS
10
141.938
20
-97.9557
11
141.89
21
-97.9081
0
LINE
8
BLACK
6
CONTINUOUS
10
141.89
20
-97.9081
11
141.842
21
-97.8129
0
LINE
8
BLACK
6
CONTINUOUS
10
142.842
20
-96.289
11
142.176
21
-96.289
0
LINE
8
BLACK
6
CONTINUOUS
10
142.271
20
-96.289
11
142.223
21
-96.2414
0
LINE
8
BLACK
6
CONTINUOUS
10
142.223
20
-96.2414
11
142.176
21
-96.1462
0
LINE
8
BLACK
6
CONTINUOUS
10
142.176
20
-96.1462
11
142.176
21
-96.0033
0
LINE
8
BLACK
6
CONTINUOUS
10
142.176
20
-96.0033
11
142.223
21
-95.9081
0
LINE
8
BLACK
6
CONTINUOUS
10
142.223
20
-95.9081
11
142.319
21
-95.8605
0
LINE
8
BLACK
6
CONTINUOUS
10
142.319
20
-95.8605
11
142.842
21
-95.8605
0
LINE
8
BLACK
6
CONTINUOUS
10
142.319
20
-95.8605
11
142.223
21
-95.8129
0
LINE
8
BLACK
6
CONTINUOUS
10
142.223
20
-95.8129
11
142.176
21
-95.7176
0
LINE
8
BLACK
6
CONTINUOUS
10
142.176
20
-95.7176
11
142.176
21
-95.5748
0
LINE
8
BLACK
6
CONTINUOUS
10
142.176
20
-95.5748
11
142.223
21
-95.4795
0
LINE
8
BLACK
6
CONTINUOUS
10
142.223
20
-95.4795
11
142.319
21
-95.4319
0
LINE
8
BLACK
6
CONTINUOUS
10
142.319
20
-95.4319
11
142.842
21
-95.4319
0
LINE
8
BLACK
6
CONTINUOUS
10
142.842
20
-94.9557
11
142.176
21
-94.9557
0
LINE
8
BLACK
6
CONTINUOUS
10
142.271
20
-94.9557
11
142.223
21
-94.9081
0
LINE
8
BLACK
6
CONTINUOUS
10
142.223
20
-94.9081
11
142.176
21
-94.8129
0
LINE
8
BLACK
6
CONTINUOUS
10
142.176
20
-94.8129
11
142.176
21
-94.67
0
LINE
8
BLACK
6
CONTINUOUS
10
142.176
20
-94.67
11
142.223
21
-94.5748
0
LINE
8
BLACK
6
CONTINUOUS
10
142.223
20
-94.5748
11
142.319
21
-94.5271
0
LINE
8
BLACK
6
CONTINUOUS
10
142.319
20
-94.5271
11
142.842
21
-94.5271
0
LINE
8
BLACK
6
CONTINUOUS
10
142.319
20
-94.5271
11
142.223
21
-94.4795
0
LINE
8
BLACK
6
CONTINUOUS
10
142.223
20
-94.4795
11
142.176
21
-94.3843
0
LINE
8
BLACK
6
CONTINUOUS
10
142.176
20
-94.3843
11
142.176
21
-94.2414
0
LINE
8
BLACK
6
CONTINUOUS
10
142.176
20
-94.2414
11
142.223
21
-94.1462
0
LINE
8
BLACK
6
CONTINUOUS
10
142.223
20
-94.1462
11
142.319
21
-94.0986
0
LINE
8
BLACK
6
CONTINUOUS
10
142.319
20
-94.0986
11
142.842
21
-94.0986
0
LINE
8
BLACK
6
CONTINUOUS
10
143.69
20
-48.67
11
143.69
21
-148.67
0
LINE
8
BLACK
6
CONTINUOUS
10
150.69
20
-48.67
11
143.104
21
-48.67
0
LINE
8
BLACK
6
CONTINUOUS
10
150.69
20
-148.67
11
143.104
21
-148.67
0
LINE
8
BLACK
6
CONTINUOUS
10
143.69
20
-148.67
11
143.104
21
-147.543
0
LINE
8
BLACK
6
CONTINUOUS
10
143.69
20
-148.67
11
144.276
21
-147.543
0
LINE
8
BLACK
6
CONTINUOUS
10
143.69
20
-48.67
11
143.104
21
-49.7965
0
LINE
8
BLACK
6
CONTINUOUS
10
143.69
20
-48.67
11
144.276
21
-49.7965
0
LINE
8
BLACK
6
CONTINUOUS
10
207.065
20
-132.87
11
207.065
21
-79.5
0
LINE
8
BLACK
6
CONTINUOUS
10
234.065
20
-132.87
11
234.065
21
-79.5
0
ARC
8
BLACK
10
215.425
20
-49.195
40
0.525856
50
86.7295
51
176.73
0
ARC
8
BLACK
10
234.59
20
-132.9
40
0.525856
50
-183.27
51
-93.2705
0
ARC
8
BLACK
10
227.675
20
-49.195
40
0.525856
50
86.7295
51
176.73
0
ARC
8
BLACK
10
207.59
20
-132.9
40
0.525856
50
-183.27
51
-93.2705
0
LINE
8
BLACK
6
CONTINUOUS
10
238.795
20
-66.325
11
252.36
21
-66.325
0
ARC
8
BLACK
10
214.375
20
-65.8
40
0.525856
50
-93.2705
51
-3.27049
0
LINE
8
BLACK
6
CONTINUOUS
10
252.3
20
-133.425
11
234.56
21
-133.425
0
LINE
8
BLACK
6
CONTINUOUS
10
234.065
20
-79.5
11
227.15
21
-66.22
0
ARC
8
BLACK
10
252.33
20
-66.85
40
0.525856
50
-3.27049
51
86.7295
0
LINE
8
BLACK
6
CONTINUOUS
10
214.9
20
-49.165
11
214.9
21
-65.83
0
ARC
8
BLACK
10
237.775
20
-49.195
40
0.525856
50
-3.27049
51
86.7295
0
LINE
8
BLACK
6
CONTINUOUS
10
227.705
20
-48.67
11
237.805
21
-48.67
0
ARC
8
BLACK
10
238.825
20
-65.8
40
0.525856
50
-183.27
51
-93.2705
0
LINE
8
BLACK
6
CONTINUOUS
10
215.455
20
-48.67
11
225.36
21
-48.67
0
LINE
8
BLACK
6
CONTINUOUS
10
227.15
20
-49.165
11
227.15
21
-66.22
0
LINE
8
BLACK
6
CONTINUOUS
10
238.3
20
-49.225
11
238.3
21
-65.77
0
LINE
8
BLACK
6
CONTINUOUS
10
225.855
20
-49.225
11
225.855
21
-132.93
0
LINE
8
BLACK
6
CONTINUOUS
10
225.3
20
-133.425
11
207.56
21
-133.425
0
LINE
8
BLACK
6
CONTINUOUS
10
252.855
20
-66.88
11
252.855
21
-132.93
0
ARC
8
BLACK
10
225.33
20
-49.195
40
0.525856
50
-3.27049
51
86.7295
0
LINE
8
BLACK
6
CONTINUOUS
10
200.2
20
-66.325
11
214.345
21
-66.325
0
LINE
8
BLACK
6
CONTINUOUS
10
207.065
20
-79.5
11
200.2
21
-66.325
0
ARC
8
BLACK
10
252.33
20
-132.9
40
0.525856
50
-93.2705
51
-3.27049
0
ARC
8
BLACK
10
225.33
20
-132.9
40
0.525856
50
-93.2705
51
-3.27049
0
LINE
8
BLACK
6
CONTINUOUS
10
198.952
20
-39.1524
11
198.381
21
-39.1524
0
LINE
8
BLACK
6
CONTINUOUS
10
198.667
20
-39.1524
11
198.667
21
-38.1524
0
LINE
8
BLACK
6
CONTINUOUS
10
198.667
20
-38.1524
11
198.571
21
-38.2952
0
LINE
8
BLACK
6
CONTINUOUS
10
198.571
20
-38.2952
11
198.476
21
-38.3905
0
LINE
8
BLACK
6
CONTINUOUS
10
198.476
20
-38.3905
11
198.381
21
-38.4381
0
LINE
8
BLACK
6
CONTINUOUS
10
199.571
20
-38.1524
11
199.667
21
-38.1524
0
LINE
8
BLACK
6
CONTINUOUS
10
199.667
20
-38.1524
11
199.762
21
-38.2
0
LINE
8
BLACK
6
CONTINUOUS
10
199.762
20
-38.2
11
199.81
21
-38.2476
0
LINE
8
BLACK
6
CONTINUOUS
10
199.81
20
-38.2476
11
199.857
21
-38.3429
0
LINE
8
BLACK
6
CONTINUOUS
10
199.857
20
-38.3429
11
199.905
21
-38.5333
0
LINE
8
BLACK
6
CONTINUOUS
10
199.905
20
-38.5333
11
199.905
21
-38.7714
0
LINE
8
BLACK
6
CONTINUOUS
10
199.905
20
-38.7714
11
199.857
21
-38.9619
0
LINE
8
BLACK
6
CONTINUOUS
10
199.857
20
-38.9619
11
199.81
21
-39.0571
0
LINE
8
BLACK
6
CONTINUOUS
10
199.81
20
-39.0571
11
199.762
21
-39.1048
0
LINE
8
BLACK
6
CONTINUOUS
10
199.762
20
-39.1048
11
199.667
21
-39.1524
0
LINE
8
BLACK
6
CONTINUOUS
10
199.667
20
-39.1524
11
199.571
21
-39.1524
0
LINE
8
BLACK
6
CONTINUOUS
10
199.571
20
-39.1524
11
199.476
21
-39.1048
0
LINE
8
BLACK
6
CONTINUOUS
10
199.476
20
-39.1048
11
199.429
21
-39.0571
0
LINE
8
BLACK
6
CONTINUOUS
10
199.429
20
-39.0571
11
199.381
21
-38.9619
0
LINE
8
BLACK
6
CONTINUOUS
10
199.381
20
-38.9619
11
199.333
21
-38.7714
0
LINE
8
BLACK
6
CONTINUOUS
10
199.333
20
-38.7714
11
199.333
21
-38.5333
0
LINE
8
BLACK
6
CONTINUOUS
10
199.333
20
-38.5333
11
199.381
21
-38.3429
0
LINE
8
BLACK
6
CONTINUOUS
10
199.381
20
-38.3429
11
199.429
21
-38.2476
0
LINE
8
BLACK
6
CONTINUOUS
10
199.429
20
-38.2476
11
199.476
21
-38.2
0
LINE
8
BLACK
6
CONTINUOUS
10
199.476
20
-38.2
11
199.571
21
-38.1524
0
LINE
8
BLACK
6
CONTINUOUS
10
200.524
20
-38.1524
11
200.619
21
-38.1524
0
LINE
8
BLACK
6
CONTINUOUS
10
200.619
20
-38.1524
11
200.714
21
-38.2
0
LINE
8
BLACK
6
CONTINUOUS
10
200.714
20
-38.2
11
200.762
21
-38.2476
0
LINE
8
BLACK
6
CONTINUOUS
10
200.762
20
-38.2476
11
200.81
21
-38.3429
0
LINE
8
BLACK
6
CONTINUOUS
10
200.81
20
-38.3429
11
200.857
21
-38.5333
0
LINE
8
BLACK
6
CONTINUOUS
10
200.857
20
-38.5333
11
200.857
21
-38.7714
0
LINE
8
BLACK
6
CONTINUOUS
10
200.857
20
-38.7714
11
200.81
21
-38.9619
0
LINE
8
BLACK
6
CONTINUOUS
10
200.81
20
-38.9619
11
200.762
21
-39.0571
0
LINE
8
BLACK
6
CONTINUOUS
10
200.762
20
-39.0571
11
200.714
21
-39.1048
0
LINE
8
BLACK
6
CONTINUOUS
10
200.714
20
-39.1048
11
200.619
21
-39.1524
0
LINE
8
BLACK
6
CONTINUOUS
10
200.619
20
-39.1524
11
200.524
21
-39.1524
0
LINE
8
BLACK
6
CONTINUOUS
10
200.524
20
-39.1524
11
200.429
21
-39.1048
0
LINE
8
BLACK
6
CONTINUOUS
10
200.429
20
-39.1048
11
200.381
21
-39.0571
0
LINE
8
BLACK
6
CONTINUOUS
10
200.381
20
-39.0571
11
200.333
21
-38.9619
0
LINE
8
BLACK
6
CONTINUOUS
10
200.333
20
-38.9619
11
200.286
21
-38.7714
0
LINE
8
BLACK
6
CONTINUOUS
10
200.286
20
-38.7714
11
200.286
21
-38.5333
0
LINE
8
BLACK
6
CONTINUOUS
10
200.286
20
-38.5333
11
200.333
21
-38.3429
0
LINE
8
BLACK
6
CONTINUOUS
10
200.333
20
-38.3429
11
200.381
21
-38.2476
0
LINE
8
BLACK
6
CONTINUOUS
10
200.381
20
-38.2476
11
200.429
21
-38.2
0
LINE
8
BLACK
6
CONTINUOUS
10
200.429
20
-38.2
11
200.524
21
-38.1524
0
LINE
8
BLACK
6
CONTINUOUS
10
201.286
20
-39.0571
11
201.333
21
-39.1048
0
LINE
8
BLACK
6
CONTINUOUS
10
201.333
20
-39.1048
11
201.286
21
-39.1524
0
LINE
8
BLACK
6
CONTINUOUS
10
201.286
20
-39.1524
11
201.238
21
-39.1048
0
LINE
8
BLACK
6
CONTINUOUS
10
201.238
20
-39.1048
11
201.286
21
-39.0571
0
LINE
8
BLACK
6
CONTINUOUS
10
201.286
20
-39.0571
11
201.286
21
-39.1524
0
LINE
8
BLACK
6
CONTINUOUS
10
201.952
20
-38.1524
11
202.048
21
-38.1524
0
LINE
8
BLACK
6
CONTINUOUS
10
202.048
20
-38.1524
11
202.143
21
-38.2
0
LINE
8
BLACK
6
CONTINUOUS
10
202.143
20
-38.2
11
202.19
21
-38.2476
0
LINE
8
BLACK
6
CONTINUOUS
10
202.19
20
-38.2476
11
202.238
21
-38.3429
0
LINE
8
BLACK
6
CONTINUOUS
10
202.238
20
-38.3429
11
202.286
21
-38.5333
0
LINE
8
BLACK
6
CONTINUOUS
10
202.286
20
-38.5333
11
202.286
21
-38.7714
0
LINE
8
BLACK
6
CONTINUOUS
10
202.286
20
-38.7714
11
202.238
21
-38.9619
0
LINE
8
BLACK
6
CONTINUOUS
10
202.238
20
-38.9619
11
202.19
21
-39.0571
0
LINE
8
BLACK
6
CONTINUOUS
10
202.19
20
-39.0571
11
202.143
21
-39.1048
0
LINE
8
BLACK
6
CONTINUOUS
10
202.143
20
-39.1048
11
202.048
21
-39.1524
0
LINE
8
BLACK
6
CONTINUOUS
10
202.048
20
-39.1524
11
201.952
21
-39.1524
0
LINE
8
BLACK
6
CONTINUOUS
10
201.952
20
-39.1524
11
201.857
21
-39.1048
0
LINE
8
BLACK
6
CONTINUOUS
10
201.857
20
-39.1048
11
201.81
21
-39.0571
0
LINE
8
BLACK
6
CONTINUOUS
10
201.81
20
-39.0571
11
201.762
21
-38.9619
0
LINE
8
BLACK
6
CONTINUOUS
10
201.762
20
-38.9619
11
201.714
21
-38.7714
0
LINE
8
BLACK
6
CONTINUOUS
10
201.714
20
-38.7714
11
201.714
21
-38.5333
0
LINE
8
BLACK
6
CONTINUOUS
10
201.714
20
-38.5333
11
201.762
21
-38.3429
0
LINE
8
BLACK
6
CONTINUOUS
10
201.762
20
-38.3429
11
201.81
21
-38.2476
0
LINE
8
BLACK
6
CONTINUOUS
10
201.81
20
-38.2476
11
201.857
21
-38.2
0
LINE
8
BLACK
6
CONTINUOUS
10
201.857
20
-38.2
11
201.952
21
-38.1524
0
LINE
8
BLACK
6
CONTINUOUS
10
202.905
20
-38.1524
11
203
21
-38.1524
0
LINE
8
BLACK
6
CONTINUOUS
10
203
20
-38.1524
11
203.095
21
-38.2
0
LINE
8
BLACK
6
CONTINUOUS
10
203.095
20
-38.2
11
203.143
21
-38.2476
0
LINE
8
BLACK
6
CONTINUOUS
10
203.143
20
-38.2476
11
203.19
21
-38.3429
0
LINE
8
BLACK
6
CONTINUOUS
10
203.19
20
-38.3429
11
203.238
21
-38.5333
0
LINE
8
BLACK
6
CONTINUOUS
10
203.238
20
-38.5333
11
203.238
21
-38.7714
0
LINE
8
BLACK
6
CONTINUOUS
10
203.238
20
-38.7714
11
203.19
21
-38.9619
0
LINE
8
BLACK
6
CONTINUOUS
10
203.19
20
-38.9619
11
203.143
21
-39.0571
0
LINE
8
BLACK
6
CONTINUOUS
10
203.143
20
-39.0571
11
203.095
21
-39.1048
0
LINE
8
BLACK
6
CONTINUOUS
10
203.095
20
-39.1048
11
203
21
-39.1524
0
LINE
8
BLACK
6
CONTINUOUS
10
203
20
-39.1524
11
202.905
21
-39.1524
0
LINE
8
BLACK
6
CONTINUOUS
10
202.905
20
-39.1524
11
202.81
21
-39.1048
0
LINE
8
BLACK
6
CONTINUOUS
10
202.81
20
-39.1048
11
202.762
21
-39.0571
0
LINE
8
BLACK
6
CONTINUOUS
10
202.762
20
-39.0571
11
202.714
21
-38.9619
0
LINE
8
BLACK
6
CONTINUOUS
10
202.714
20
-38.9619
11
202.667
21
-38.7714
0
LINE
8
BLACK
6
CONTINUOUS
10
202.667
20
-38.7714
11
202.667
21
-38.5333
0
LINE
8
BLACK
6
CONTINUOUS
10
202.667
20
-38.5333
11
202.714
21
-38.3429
0
LINE
8
BLACK
6
CONTINUOUS
10
202.714
20
-38.3429
11
202.762
21
-38.2476
0
LINE
8
BLACK
6
CONTINUOUS
10
202.762
20
-38.2476
11
202.81
21
-38.2
0
LINE
8
BLACK
6
CONTINUOUS
10
202.81
20
-38.2
11
202.905
21
-38.1524
0
LINE
8
BLACK
6
CONTINUOUS
10
203.857
20
-38.1524
11
203.952
21
-38.1524
0
LINE
8
BLACK
6
CONTINUOUS
10
203.952
20
-38.1524
11
204.048
21
-38.2
0
LINE
8
BLACK
6
CONTINUOUS
10
204.048
20
-38.2
11
204.095
21
-38.2476
0
LINE
8
BLACK
6
CONTINUOUS
10
204.095
20
-38.2476
11
204.143
21
-38.3429
0
LINE
8
BLACK
6
CONTINUOUS
10
204.143
20
-38.3429
11
204.19
21
-38.5333
0
LINE
8
BLACK
6
CONTINUOUS
10
204.19
20
-38.5333
11
204.19
21
-38.7714
0
LINE
8
BLACK
6
CONTINUOUS
10
204.19
20
-38.7714
11
204.143
21
-38.9619
0
LINE
8
BLACK
6
CONTINUOUS
10
204.143
20
-38.9619
11
204.095
21
-39.0571
0
LINE
8
BLACK
6
CONTINUOUS
10
204.095
20
-39.0571
11
204.048
21
-39.1048
0
LINE
8
BLACK
6
CONTINUOUS
10
204.048
20
-39.1048
11
203.952
21
-39.1524
0
LINE
8
BLACK
6
CONTINUOUS
10
203.952
20
-39.1524
11
203.857
21
-39.1524
0
LINE
8
BLACK
6
CONTINUOUS
10
203.857
20
-39.1524
11
203.762
21
-39.1048
0
LINE
8
BLACK
6
CONTINUOUS
10
203.762
20
-39.1048
11
203.714
21
-39.0571
0
LINE
8
BLACK
6
CONTINUOUS
10
203.714
20
-39.0571
11
203.667
21
-38.9619
0
LINE
8
BLACK
6
CONTINUOUS
10
203.667
20
-38.9619
11
203.619
21
-38.7714
0
LINE
8
BLACK
6
CONTINUOUS
10
203.619
20
-38.7714
11
203.619
21
-38.5333
0
LINE
8
BLACK
6
CONTINUOUS
10
203.619
20
-38.5333
11
203.667
21
-38.3429
0
LINE
8
BLACK
6
CONTINUOUS
10
203.667
20
-38.3429
11
203.714
21
-38.2476
0
LINE
8
BLACK
6
CONTINUOUS
10
203.714
20
-38.2476
11
203.762
21
-38.2
0
LINE
8
BLACK
6
CONTINUOUS
10
203.762
20
-38.2
11
203.857
21
-38.1524
0
LINE
8
BLACK
6
CONTINUOUS
10
205.381
20
-39.1524
11
205.381
21
-38.4857
0
LINE
8
BLACK
6
CONTINUOUS
10
205.381
20
-38.581
11
205.429
21
-38.5333
0
LINE
8
BLACK
6
CONTINUOUS
10
205.429
20
-38.5333
11
205.524
21
-38.4857
0
LINE
8
BLACK
6
CONTINUOUS
10
205.524
20
-38.4857
11
205.667
21
-38.4857
0
LINE
8
BLACK
6
CONTINUOUS
10
205.667
20
-38.4857
11
205.762
21
-38.5333
0
LINE
8
BLACK
6
CONTINUOUS
10
205.762
20
-38.5333
11
205.81
21
-38.6286
0
LINE
8
BLACK
6
CONTINUOUS
10
205.81
20
-38.6286
11
205.81
21
-39.1524
0
LINE
8
BLACK
6
CONTINUOUS
10
205.81
20
-38.6286
11
205.857
21
-38.5333
0
LINE
8
BLACK
6
CONTINUOUS
10
205.857
20
-38.5333
11
205.952
21
-38.4857
0
LINE
8
BLACK
6
CONTINUOUS
10
205.952
20
-38.4857
11
206.095
21
-38.4857
0
LINE
8
BLACK
6
CONTINUOUS
10
206.095
20
-38.4857
11
206.19
21
-38.5333
0
LINE
8
BLACK
6
CONTINUOUS
10
206.19
20
-38.5333
11
206.238
21
-38.6286
0
LINE
8
BLACK
6
CONTINUOUS
10
206.238
20
-38.6286
11
206.238
21
-39.1524
0
LINE
8
BLACK
6
CONTINUOUS
10
206.714
20
-39.1524
11
206.714
21
-38.4857
0
LINE
8
BLACK
6
CONTINUOUS
10
206.714
20
-38.581
11
206.762
21
-38.5333
0
LINE
8
BLACK
6
CONTINUOUS
10
206.762
20
-38.5333
11
206.857
21
-38.4857
0
LINE
8
BLACK
6
CONTINUOUS
10
206.857
20
-38.4857
11
207
21
-38.4857
0
LINE
8
BLACK
6
CONTINUOUS
10
207
20
-38.4857
11
207.095
21
-38.5333
0
LINE
8
BLACK
6
CONTINUOUS
10
207.095
20
-38.5333
11
207.143
21
-38.6286
0
LINE
8
BLACK
6
CONTINUOUS
10
207.143
20
-38.6286
11
207.143
21
-39.1524
0
LINE
8
BLACK
6
CONTINUOUS
10
207.143
20
-38.6286
11
207.19
21
-38.5333
0
LINE
8
BLACK
6
CONTINUOUS
10
207.19
20
-38.5333
11
207.286
21
-38.4857
0
LINE
8
BLACK
6
CONTINUOUS
10
207.286
20
-38.4857
11
207.429
21
-38.4857
0
LINE
8
BLACK
6
CONTINUOUS
10
207.429
20
-38.4857
11
207.524
21
-38.5333
0
LINE
8
BLACK
6
CONTINUOUS
10
207.524
20
-38.5333
11
207.571
21
-38.6286
0
LINE
8
BLACK
6
CONTINUOUS
10
207.571
20
-38.6286
11
207.571
21
-39.1524
0
LINE
8
BLACK
6
CONTINUOUS
10
253
20
-40
11
153
21
-40
0
LINE
8
BLACK
6
CONTINUOUS
10
253
20
-47
11
253
21
-39.4136
0
LINE
8
BLACK
6
CONTINUOUS
10
153
20
-47
11
153
21
-39.4136
0
LINE
8
BLACK
6
CONTINUOUS
10
153
20
-40
11
154.127
21
-39.4136
0
LINE
8
BLACK
6
CONTINUOUS
10
153
20
-40
11
154.127
21
-40.5864
0
LINE
8
BLACK
6
CONTINUOUS
10
253
20
-40
11
251.873
21
-39.4136
0
LINE
8
BLACK
6
CONTINUOUS
10
253
20
-40
11
251.873
21
-40.5864
0
LINE
8
BLACK
6
CONTINUOUS
10
190.96
20
-132.935
11
190.96
21
-116.27
0
LINE
8
BLACK
6
CONTINUOUS
10
167.56
20
-132.875
11
167.56
21
-116.33
0
LINE
8
BLACK
6
CONTINUOUS
10
205.66
20
-115.775
11
191.515
21
-115.775
0
ARC
8
BLACK
10
191.485
20
-116.3
40
0.525856
50
86.7295
51
176.73
0
LINE
8
BLACK
6
CONTINUOUS
10
180.56
20
-48.675
11
198.3
21
-48.675
0
ARC
8
BLACK
10
180.53
20
-49.2
40
0.525856
50
86.7295
51
176.73
0
ARC
8
BLACK
10
198.27
20
-49.2
40
0.525856
50
-3.27049
51
86.7295
0
LINE
8
BLACK
6
CONTINUOUS
10
198.795
20
-49.23
11
198.795
21
-102.6
0
ARC
8
BLACK
10
190.435
20
-132.905
40
0.525856
50
-93.2705
51
-3.27049
0
LINE
8
BLACK
6
CONTINUOUS
10
180.005
20
-132.875
11
180.005
21
-49.17
0
ARC
8
BLACK
10
180.53
20
-132.905
40
0.525856
50
-183.27
51
-93.2705
0
LINE
8
BLACK
6
CONTINUOUS
10
198.795
20
-102.6
11
205.66
21
-115.775
0
LINE
8
BLACK
6
CONTINUOUS
10
190.405
20
-133.43
11
180.5
21
-133.43
0
ARC
8
BLACK
10
167.035
20
-116.3
40
0.525856
50
-3.27049
51
86.7295
0
ARC
8
BLACK
10
153.53
20
-115.25
40
0.525856
50
-183.27
51
-93.2705
0
LINE
8
BLACK
6
CONTINUOUS
10
167.065
20
-115.775
11
153.5
21
-115.775
0
ARC
8
BLACK
10
153.53
20
-49.2
40
0.525856
50
86.7295
51
176.73
0
LINE
8
BLACK
6
CONTINUOUS
10
153.56
20
-48.675
11
171.3
21
-48.675
0
LINE
8
BLACK
6
CONTINUOUS
10
171.795
20
-102.6
11
178.71
21
-115.88
0
LINE
8
BLACK
6
CONTINUOUS
10
153.005
20
-115.22
11
153.005
21
-49.17
0
ARC
8
BLACK
10
168.085
20
-132.905
40
0.525856
50
-183.27
51
-93.2705
0
LINE
8
BLACK
6
CONTINUOUS
10
178.71
20
-132.935
11
178.71
21
-115.88
0
LINE
8
BLACK
6
CONTINUOUS
10
171.795
20
-49.23
11
171.795
21
-102.6
0
ARC
8
BLACK
10
178.185
20
-132.905
40
0.525856
50
-93.2705
51
-3.27049
0
LINE
8
BLACK
6
CONTINUOUS
10
178.155
20
-133.43
11
168.055
21
-133.43
0
ARC
8
BLACK
10
171.27
20
-49.2
40
0.525856
50
-3.27049
51
86.7295
0
LINE
8
BLACK
6
CONTINUOUS
10
166.015
20
-110.471
11
166.126
21
-110.493
0
LINE
8
BLACK
6
CONTINUOUS
10
166.126
20
-110.493
11
166.335
21
-110.58
0
LINE
8
BLACK
6
CONTINUOUS
10
166.335
20
-110.58
11
166.524
21
-110.706
0
LINE
8
BLACK
6
CONTINUOUS
10
166.524
20
-110.706
11
166.684
21
-110.866
0
LINE
8
BLACK
6
CONTINUOUS
10
166.684
20
-110.866
11
166.81
21
-111.055
0
LINE
8
BLACK
6
CONTINUOUS
10
166.81
20
-111.055
11
166.897
21
-111.264
0
LINE
8
BLACK
6
CONTINUOUS
10
166.897
20
-111.264
11
166.941
21
-111.487
0
LINE
8
BLACK
6
CONTINUOUS
10
166.941
20
-111.487
11
166.941
21
-111.713
0
LINE
8
BLACK
6
CONTINUOUS
10
166.941
20
-111.713
11
166.897
21
-111.936
0
LINE
8
BLACK
6
CONTINUOUS
10
166.897
20
-111.936
11
166.81
21
-112.145
0
LINE
8
BLACK
6
CONTINUOUS
10
166.81
20
-112.145
11
166.684
21
-112.334
0
LINE
8
BLACK
6
CONTINUOUS
10
166.684
20
-112.334
11
166.524
21
-112.494
0
LINE
8
BLACK
6
CONTINUOUS
10
166.524
20
-112.494
11
166.335
21
-112.62
0
LINE
8
BLACK
6
CONTINUOUS
10
166.335
20
-112.62
11
166.126
21
-112.707
0
LINE
8
BLACK
6
CONTINUOUS
10
166.126
20
-112.707
11
166.015
21
-112.729
0
LINE
8
BLACK
6
CONTINUOUS
10
166.015
20
-112.729
11
165.903
21
-112.751
0
LINE
8
BLACK
6
CONTINUOUS
10
165.903
20
-112.751
11
165.677
21
-112.751
0
LINE
8
BLACK
6
CONTINUOUS
10
165.677
20
-112.751
11
165.565
21
-112.729
0
LINE
8
BLACK
6
CONTINUOUS
10
165.565
20
-112.729
11
165.454
21
-112.707
0
LINE
8
BLACK
6
CONTINUOUS
10
165.454
20
-112.707
11
165.245
21
-112.62
0
LINE
8
BLACK
6
CONTINUOUS
10
165.245
20
-112.62
11
165.056
21
-112.494
0
LINE
8
BLACK
6
CONTINUOUS
10
165.056
20
-112.494
11
164.896
21
-112.334
0
LINE
8
BLACK
6
CONTINUOUS
10
164.896
20
-112.334
11
164.77
21
-112.145
0
LINE
8
BLACK
6
CONTINUOUS
10
164.77
20
-112.145
11
164.683
21
-111.936
0
LINE
8
BLACK
6
CONTINUOUS
10
164.683
20
-111.936
11
164.639
21
-111.713
0
LINE
8
BLACK
6
CONTINUOUS
10
164.639
20
-111.713
11
164.639
21
-111.487
0
LINE
8
BLACK
6
CONTINUOUS
10
164.639
20
-111.487
11
164.683
21
-111.264
0
LINE
8
BLACK
6
CONTINUOUS
10
164.683
20
-111.264
11
164.77
21
-111.055
0
LINE
8
BLACK
6
CONTINUOUS
10
164.77
20
-111.055
11
164.896
21
-110.866
0
LINE
8
BLACK
6
CONTINUOUS
10
164.896
20
-110.866
11
165.056
21
-110.706
0
LINE
8
BLACK
6
CONTINUOUS
10
165.056
20
-110.706
11
165.245
21
-110.58
0
LINE
8
BLACK
6
CONTINUOUS
10
165.245
20
-110.58
11
165.454
21
-110.493
0
LINE
8
BLACK
6
CONTINUOUS
10
165.454
20
-110.493
11
165.565
21
-110.471
0
LINE
8
BLACK
6
CONTINUOUS
10
165.565
20
-110.471
11
165.677
21
-110.449
0
LINE
8
BLACK
6
CONTINUOUS
10
165.677
20
-110.449
11
165.903
21
-110.449
0
LINE
8
BLACK
6
CONTINUOUS
10
165.903
20
-110.449
11
166.015
21
-110.471
0
LINE
8
BLACK
6
CONTINUOUS
10
193.015
20
-110.471
11
193.126
21
-110.493
0
LINE
8
BLACK
6
CONTINUOUS
10
193.126
20
-110.493
11
193.335
21
-110.58
0
LINE
8
BLACK
6
CONTINUOUS
10
193.335
20
-110.58
11
193.524
21
-110.706
0
LINE
8
BLACK
6
CONTINUOUS
10
193.524
20
-110.706
11
193.684
21
-110.866
0
LINE
8
BLACK
6
CONTINUOUS
10
193.684
20
-110.866
11
193.81
21
-111.055
0
LINE
8
BLACK
6
CONTINUOUS
10
193.81
20
-111.055
11
193.897
21
-111.264
0
LINE
8
BLACK
6
CONTINUOUS
10
193.897
20
-111.264
11
193.941
21
-111.487
0
LINE
8
BLACK
6
CONTINUOUS
10
193.941
20
-111.487
11
193.941
21
-111.713
0
LINE
8
BLACK
6
CONTINUOUS
10
193.941
20
-111.713
11
193.897
21
-111.936
0
LINE
8
BLACK
6
CONTINUOUS
10
193.897
20
-111.936
11
193.81
21
-112.145
0
LINE
8
BLACK
6
CONTINUOUS
10
193.81
20
-112.145
11
193.684
21
-112.334
0
LINE
8
BLACK
6
CONTINUOUS
10
193.684
20
-112.334
11
193.524
21
-112.494
0
LINE
8
BLACK
6
CONTINUOUS
10
193.524
20
-112.494
11
193.335
21
-112.62
0
LINE
8
BLACK
6
CONTINUOUS
10
193.335
20
-112.62
11
193.126
21
-112.707
0
LINE
8
BLACK
6
CONTINUOUS
10
193.126
20
-112.707
11
193.015
21
-112.729
0
LINE
8
BLACK
6
CONTINUOUS
10
193.015
20
-112.729
11
192.903
21
-112.751
0
LINE
8
BLACK
6
CONTINUOUS
10
192.903
20
-112.751
11
192.677
21
-112.751
0
LINE
8
BLACK
6
CONTINUOUS
10
192.677
20
-112.751
11
192.565
21
-112.729
0
LINE
8
BLACK
6
CONTINUOUS
10
192.565
20
-112.729
11
192.454
21
-112.707
0
LINE
8
BLACK
6
CONTINUOUS
10
192.454
20
-112.707
11
192.245
21
-112.62
0
LINE
8
BLACK
6
CONTINUOUS
10
192.245
20
-112.62
11
192.056
21
-112.494
0
LINE
8
BLACK
6
CONTINUOUS
10
192.056
20
-112.494
11
191.896
21
-112.334
0
LINE
8
BLACK
6
CONTINUOUS
10
191.896
20
-112.334
11
191.77
21
-112.145
0
LINE
8
BLACK
6
CONTINUOUS
10
191.77
20
-112.145
11
191.683
21
-111.936
0
LINE
8
BLACK
6
CONTINUOUS
10
191.683
20
-111.936
11
191.639
21
-111.713
0
LINE
8
BLACK
6
CONTINUOUS
10
191.639
20
-111.713
11
191.639
21
-111.487
0
LINE
8
BLACK
6
CONTINUOUS
10
191.639
20
-111.487
11
191.683
21
-111.264
0
LINE
8
BLACK
6
CONTINUOUS
10
191.683
20
-111.264
11
191.77
21
-111.055
0
LINE
8
BLACK
6
CONTINUOUS
10
191.77
20
-111.055
11
191.896
21
-110.866
0
LINE
8
BLACK
6
CONTINUOUS
10
191.896
20
-110.866
11
192.056
21
-110.706
0
LINE
8
BLACK
6
CONTINUOUS
10
192.056
20
-110.706
11
192.245
21
-110.58
0
LINE
8
BLACK
6
CONTINUOUS
10
192.245
20
-110.58
11
192.454
21
-110.493
0
LINE
8
BLACK
6
CONTINUOUS
10
192.454
20
-110.493
11
192.565
21
-110.471
0
LINE
8
BLACK
6
CONTINUOUS
10
192.565
20
-110.471
11
192.677
21
-110.449
0
LINE
8
BLACK
6
CONTINUOUS
10
192.677
20
-110.449
11
192.903
21
-110.449
0
LINE
8
BLACK
6
CONTINUOUS
10
192.903
20
-110.449
11
193.015
21
-110.471
0
LINE
8
BLACK
6
CONTINUOUS
10
169.62
20
-91.2011
11
169.731
21
-91.2232
0
LINE
8
BLACK
6
CONTINUOUS
10
169.731
20
-91.2232
11
169.94
21
-91.31
0
LINE
8
BLACK
6
CONTINUOUS
10
169.94
20
-91.31
11
170.129
21
-91.436
0
LINE
8
BLACK
6
CONTINUOUS
10
170.129
20
-91.436
11
170.289
21
-91.5963
0
LINE
8
BLACK
6
CONTINUOUS
10
170.289
20
-91.5963
11
170.415
21
-91.7848
0
LINE
8
BLACK
6
CONTINUOUS
10
170.415
20
-91.7848
11
170.502
21
-91.9943
0
LINE
8
BLACK
6
CONTINUOUS
10
170.502
20
-91.9943
11
170.546
21
-92.2166
0
LINE
8
BLACK
6
CONTINUOUS
10
170.546
20
-92.2166
11
170.546
21
-92.4434
0
LINE
8
BLACK
6
CONTINUOUS
10
170.546
20
-92.4434
11
170.502
21
-92.6657
0
LINE
8
BLACK
6
CONTINUOUS
10
170.502
20
-92.6657
11
170.415
21
-92.8752
0
LINE
8
BLACK
6
CONTINUOUS
10
170.415
20
-92.8752
11
170.289
21
-93.0637
0
LINE
8
BLACK
6
CONTINUOUS
10
170.289
20
-93.0637
11
170.129
21
-93.224
0
LINE
8
BLACK
6
CONTINUOUS
10
170.129
20
-93.224
11
169.94
21
-93.35
0
LINE
8
BLACK
6
CONTINUOUS
10
169.94
20
-93.35
11
169.731
21
-93.4368
0
LINE
8
BLACK
6
CONTINUOUS
10
169.731
20
-93.4368
11
169.62
21
-93.4589
0
LINE
8
BLACK
6
CONTINUOUS
10
169.62
20
-93.4589
11
169.508
21
-93.481
0
LINE
8
BLACK
6
CONTINUOUS
10
169.508
20
-93.481
11
169.282
21
-93.481
0
LINE
8
BLACK
6
CONTINUOUS
10
169.282
20
-93.481
11
169.17
21
-93.4589
0
LINE
8
BLACK
6
CONTINUOUS
10
169.17
20
-93.4589
11
169.059
21
-93.4368
0
LINE
8
BLACK
6
CONTINUOUS
10
169.059
20
-93.4368
11
168.85
21
-93.35
0
LINE
8
BLACK
6
CONTINUOUS
10
168.85
20
-93.35
11
168.661
21
-93.224
0
LINE
8
BLACK
6
CONTINUOUS
10
168.661
20
-93.224
11
168.501
21
-93.0637
0
LINE
8
BLACK
6
CONTINUOUS
10
168.501
20
-93.0637
11
168.375
21
-92.8752
0
LINE
8
BLACK
6
CONTINUOUS
10
168.375
20
-92.8752
11
168.288
21
-92.6657
0
LINE
8
BLACK
6
CONTINUOUS
10
168.288
20
-92.6657
11
168.244
21
-92.4434
0
LINE
8
BLACK
6
CONTINUOUS
10
168.244
20
-92.4434
11
168.244
21
-92.2166
0
LINE
8
BLACK
6
CONTINUOUS
10
168.244
20
-92.2166
11
168.288
21
-91.9943
0
LINE
8
BLACK
6
CONTINUOUS
10
168.288
20
-91.9943
11
168.375
21
-91.7848
0
LINE
8
BLACK
6
CONTINUOUS
10
168.375
20
-91.7848
11
168.501
21
-91.5963
0
LINE
8
BLACK
6
CONTINUOUS
10
168.501
20
-91.5963
11
168.661
21
-91.436
0
LINE
8
BLACK
6
CONTINUOUS
10
168.661
20
-91.436
11
168.85
21
-91.31
0
LINE
8
BLACK
6
CONTINUOUS
10
168.85
20
-91.31
11
169.059
21
-91.2232
0
LINE
8
BLACK
6
CONTINUOUS
10
169.059
20
-91.2232
11
169.17
21
-91.2011
0
LINE
8
BLACK
6
CONTINUOUS
10
169.17
20
-91.2011
11
169.282
21
-91.179
0
LINE
8
BLACK
6
CONTINUOUS
10
169.282
20
-91.179
11
169.508
21
-91.179
0
LINE
8
BLACK
6
CONTINUOUS
10
169.508
20
-91.179
11
169.62
21
-91.2011
0
LINE
8
BLACK
6
CONTINUOUS
10
156.62
20
-91.2011
11
156.731
21
-91.2232
0
LINE
8
BLACK
6
CONTINUOUS
10
156.731
20
-91.2232
11
156.94
21
-91.31
0
LINE
8
BLACK
6
CONTINUOUS
10
156.94
20
-91.31
11
157.129
21
-91.436
0
LINE
8
BLACK
6
CONTINUOUS
10
157.129
20
-91.436
11
157.289
21
-91.5963
0
LINE
8
BLACK
6
CONTINUOUS
10
157.289
20
-91.5963
11
157.415
21
-91.7848
0
LINE
8
BLACK
6
CONTINUOUS
10
157.415
20
-91.7848
11
157.502
21
-91.9943
0
LINE
8
BLACK
6
CONTINUOUS
10
157.502
20
-91.9943
11
157.546
21
-92.2166
0
LINE
8
BLACK
6
CONTINUOUS
10
157.546
20
-92.2166
11
157.546
21
-92.4434
0
LINE
8
BLACK
6
CONTINUOUS
10
157.546
20
-92.4434
11
157.502
21
-92.6657
0
LINE
8
BLACK
6
CONTINUOUS
10
157.502
20
-92.6657
11
157.415
21
-92.8752
0
LINE
8
BLACK
6
CONTINUOUS
10
157.415
20
-92.8752
11
157.289
21
-93.0637
0
LINE
8
BLACK
6
CONTINUOUS
10
157.289
20
-93.0637
11
157.129
21
-93.224
0
LINE
8
BLACK
6
CONTINUOUS
10
157.129
20
-93.224
11
156.94
21
-93.35
0
LINE
8
BLACK
6
CONTINUOUS
10
156.94
20
-93.35
11
156.731
21
-93.4368
0
LINE
8
BLACK
6
CONTINUOUS
10
156.731
20
-93.4368
11
156.62
21
-93.4589
0
LINE
8
BLACK
6
CONTINUOUS
10
156.62
20
-93.4589
11
156.508
21
-93.481
0
LINE
8
BLACK
6
CONTINUOUS
10
156.508
20
-93.481
11
156.282
21
-93.481
0
LINE
8
BLACK
6
CONTINUOUS
10
156.282
20
-93.481
11
156.17
21
-93.4589
0
LINE
8
BLACK
6
CONTINUOUS
10
156.17
20
-93.4589
11
156.059
21
-93.4368
0
LINE
8
BLACK
6
CONTINUOUS
10
156.059
20
-93.4368
11
155.85
21
-93.35
0
LINE
8
BLACK
6
CONTINUOUS
10
155.85
20
-93.35
11
155.661
21
-93.224
0
LINE
8
BLACK
6
CONTINUOUS
10
155.661
20
-93.224
11
155.501
21
-93.0637
0
LINE
8
BLACK
6
CONTINUOUS
10
155.501
20
-93.0637
11
155.375
21
-92.8752
0
LINE
8
BLACK
6
CONTINUOUS
10
155.375
20
-92.8752
11
155.288
21
-92.6657
0
LINE
8
BLACK
6
CONTINUOUS
10
155.288
20
-92.6657
11
155.244
21
-92.4434
0
LINE
8
BLACK
6
CONTINUOUS
10
155.244
20
-92.4434
11
155.244
21
-92.2166
0
LINE
8
BLACK
6
CONTINUOUS
10
155.244
20
-92.2166
11
155.288
21
-91.9943
0
LINE
8
BLACK
6
CONTINUOUS
10
155.288
20
-91.9943
11
155.375
21
-91.7848
0
LINE
8
BLACK
6
CONTINUOUS
10
155.375
20
-91.7848
11
155.501
21
-91.5963
0
LINE
8
BLACK
6
CONTINUOUS
10
155.501
20
-91.5963
11
155.661
21
-91.436
0
LINE
8
BLACK
6
CONTINUOUS
10
155.661
20
-91.436
11
155.85
21
-91.31
0
LINE
8
BLACK
6
CONTINUOUS
10
155.85
20
-91.31
11
156.059
21
-91.2232
0
LINE
8
BLACK
6
CONTINUOUS
10
156.059
20
-91.2232
11
156.17
21
-91.2011
0
LINE
8
BLACK
6
CONTINUOUS
10
156.17
20
-91.2011
11
156.282
21
-91.179
0
LINE
8
BLACK
6
CONTINUOUS
10
156.282
20
-91.179
11
156.508
21
-91.179
0
LINE
8
BLACK
6
CONTINUOUS
10
156.508
20
-91.179
11
156.62
21
-91.2011
0
LINE
8
BLACK
6
CONTINUOUS
10
183.62
20
-91.2011
11
183.731
21
-91.2232
0
LINE
8
BLACK
6
CONTINUOUS
10
183.731
20
-91.2232
11
183.94
21
-91.31
0
LINE
8
BLACK
6
CONTINUOUS
10
183.94
20
-91.31
11
184.129
21
-91.436
0
LINE
8
BLACK
6
CONTINUOUS
10
184.129
20
-91.436
11
184.289
21
-91.5963
0
LINE
8
BLACK
6
CONTINUOUS
10
184.289
20
-91.5963
11
184.415
21
-91.7848
0
LINE
8
BLACK
6
CONTINUOUS
10
184.415
20
-91.7848
11
184.502
21
-91.9943
0
LINE
8
BLACK
6
CONTINUOUS
10
184.502
20
-91.9943
11
184.546
21
-92.2166
0
LINE
8
BLACK
6
CONTINUOUS
10
184.546
20
-92.2166
11
184.546
21
-92.4434
0
LINE
8
BLACK
6
CONTINUOUS
10
184.546
20
-92.4434
11
184.502
21
-92.6657
0
LINE
8
BLACK
6
CONTINUOUS
10
184.502
20
-92.6657
11
184.415
21
-92.8752
0
LINE
8
BLACK
6
CONTINUOUS
10
184.415
20
-92.8752
11
184.289
21
-93.0637
0
LINE
8
BLACK
6
CONTINUOUS
10
184.289
20
-93.0637
11
184.129
21
-93.224
0
LINE
8
BLACK
6
CONTINUOUS
10
184.129
20
-93.224
11
183.94
21
-93.35
0
LINE
8
BLACK
6
CONTINUOUS
10
183.94
20
-93.35
11
183.731
21
-93.4368
0
LINE
8
BLACK
6
CONTINUOUS
10
183.731
20
-93.4368
11
183.62
21
-93.4589
0
LINE
8
BLACK
6
CONTINUOUS
10
183.62
20
-93.4589
11
183.508
21
-93.481
0
LINE
8
BLACK
6
CONTINUOUS
10
183.508
20
-93.481
11
183.282
21
-93.481
0
LINE
8
BLACK
6
CONTINUOUS
10
183.282
20
-93.481
11
183.17
21
-93.4589
0
LINE
8
BLACK
6
CONTINUOUS
10
183.17
20
-93.4589
11
183.059
21
-93.4368
0
LINE
8
BLACK
6
CONTINUOUS
10
183.059
20
-93.4368
11
182.85
21
-93.35
0
LINE
8
BLACK
6
CONTINUOUS
10
182.85
20
-93.35
11
182.661
21
-93.224
0
LINE
8
BLACK
6
CONTINUOUS
10
182.661
20
-93.224
11
182.501
21
-93.0637
0
LINE
8
BLACK
6
CONTINUOUS
10
182.501
20
-93.0637
11
182.375
21
-92.8752
0
LINE
8
BLACK
6
CONTINUOUS
10
182.375
20
-92.8752
11
182.288
21
-92.6657
0
LINE
8
BLACK
6
CONTINUOUS
10
182.288
20
-92.6657
11
182.244
21
-92.4434
0
LINE
8
BLACK
6
CONTINUOUS
10
182.244
20
-92.4434
11
182.244
21
-92.2166
0
LINE
8
BLACK
6
CONTINUOUS
10
182.244
20
-92.2166
11
182.288
21
-91.9943
0
LINE
8
BLACK
6
CONTINUOUS
10
182.288
20
-91.9943
11
182.375
21
-91.7848
0
LINE
8
BLACK
6
CONTINUOUS
10
182.375
20
-91.7848
11
182.501
21
-91.5963
0
LINE
8
BLACK
6
CONTINUOUS
10
182.501
20
-91.5963
11
182.661
21
-91.436
0
LINE
8
BLACK
6
CONTINUOUS
10
182.661
20
-91.436
11
182.85
21
-91.31
0
LINE
8
BLACK
6
CONTINUOUS
10
182.85
20
-91.31
11
183.059
21
-91.2232
0
LINE
8
BLACK
6
CONTINUOUS
10
183.059
20
-91.2232
11
183.17
21
-91.2011
0
LINE
8
BLACK
6
CONTINUOUS
10
183.17
20
-91.2011
11
183.282
21
-91.179
0
LINE
8
BLACK
6
CONTINUOUS
10
183.282
20
-91.179
11
183.508
21
-91.179
0
LINE
8
BLACK
6
CONTINUOUS
10
183.508
20
-91.179
11
183.62
21
-91.2011
0
LINE
8
BLACK
6
CONTINUOUS
10
196.62
20
-91.2011
11
196.731
21
-91.2232
0
LINE
8
BLACK
6
CONTINUOUS
10
196.731
20
-91.2232
11
196.94
21
-91.31
0
LINE
8
BLACK
6
CONTINUOUS
10
196.94
20
-91.31
11
197.129
21
-91.436
0
LINE
8
BLACK
6
CONTINUOUS
10
197.129
20
-91.436
11
197.289
21
-91.5963
0
LINE
8
BLACK
6
CONTINUOUS
10
197.289
20
-91.5963
11
197.415
21
-91.7848
0
LINE
8
BLACK
6
CONTINUOUS
10
197.415
20
-91.7848
11
197.502
21
-91.9943
0
LINE
8
BLACK
6
CONTINUOUS
10
197.502
20
-91.9943
11
197.546
21
-92.2166
0
LINE
8
BLACK
6
CONTINUOUS
10
197.546
20
-92.2166
11
197.546
21
-92.4434
0
LINE
8
BLACK
6
CONTINUOUS
10
197.546
20
-92.4434
11
197.502
21
-92.6657
0
LINE
8
BLACK
6
CONTINUOUS
10
197.502
20
-92.6657
11
197.415
21
-92.8752
0
LINE
8
BLACK
6
CONTINUOUS
10
197.415
20
-92.8752
11
197.289
21
-93.0637
0
LINE
8
BLACK
6
CONTINUOUS
10
197.289
20
-93.0637
11
197.129
21
-93.224
0
LINE
8
BLACK
6
CONTINUOUS
10
197.129
20
-93.224
11
196.94
21
-93.35
0
LINE
8
BLACK
6
CONTINUOUS
10
196.94
20
-93.35
11
196.731
21
-93.4368
0
LINE
8
BLACK
6
CONTINUOUS
10
196.731
20
-93.4368
11
196.62
21
-93.4589
0
LINE
8
BLACK
6
CONTINUOUS
10
196.62
20
-93.4589
11
196.508
21
-93.481
0
LINE
8
BLACK
6
CONTINUOUS
10
196.508
20
-93.481
11
196.282
21
-93.481
0
LINE
8
BLACK
6
CONTINUOUS
10
196.282
20
-93.481
11
196.17
21
-93.4589
0
LINE
8
BLACK
6
CONTINUOUS
10
196.17
20
-93.4589
11
196.059
21
-93.4368
0
LINE
8
BLACK
6
CONTINUOUS
10
196.059
20
-93.4368
11
195.85
21
-93.35
0
LINE
8
BLACK
6
CONTINUOUS
10
195.85
20
-93.35
11
195.661
21
-93.224
0
LINE
8
BLACK
6
CONTINUOUS
10
195.661
20
-93.224
11
195.501
21
-93.0637
0
LINE
8
BLACK
6
CONTINUOUS
10
195.501
20
-93.0637
11
195.375
21
-92.8752
0
LINE
8
BLACK
6
CONTINUOUS
10
195.375
20
-92.8752
11
195.288
21
-92.6657
0
LINE
8
BLACK
6
CONTINUOUS
10
195.288
20
-92.6657
11
195.244
21
-92.4434
0
LINE
8
BLACK
6
CONTINUOUS
10
195.244
20
-92.4434
11
195.244
21
-92.2166
0
LINE
8
BLACK
6
CONTINUOUS
10
195.244
20
-92.2166
11
195.288
21
-91.9943
0
LINE
8
BLACK
6
CONTINUOUS
10
195.288
20
-91.9943
11
195.375
21
-91.7848
0
LINE
8
BLACK
6
CONTINUOUS
10
195.375
20
-91.7848
11
195.501
21
-91.5963
0
LINE
8
BLACK
6
CONTINUOUS
10
195.501
20
-91.5963
11
195.661
21
-91.436
0
LINE
8
BLACK
6
CONTINUOUS
10
195.661
20
-91.436
11
195.85
21
-91.31
0
LINE
8
BLACK
6
CONTINUOUS
10
195.85
20
-91.31
11
196.059
21
-91.2232
0
LINE
8
BLACK
6
CONTINUOUS
10
196.059
20
-91.2232
11
196.17
21
-91.2011
0
LINE
8
BLACK
6
CONTINUOUS
10
196.17
20
-91.2011
11
196.282
21
-91.179
0
LINE
8
BLACK
6
CONTINUOUS
10
196.282
20
-91.179
11
196.508
21
-91.179
0
LINE
8
BLACK
6
CONTINUOUS
10
196.508
20
-91.179
11
196.62
21
-91.2011
0
LINE
8
BLACK
6
CONTINUOUS
10
222.69
20
-88.6411
11
222.801
21
-88.6632
0
LINE
8
BLACK
6
CONTINUOUS
10
222.801
20
-88.6632
11
223.01
21
-88.75
0
LINE
8
BLACK
6
CONTINUOUS
10
223.01
20
-88.75
11
223.199
21
-88.876
0
LINE
8
BLACK
6
CONTINUOUS
10
223.199
20
-88.876
11
223.359
21
-89.0363
0
LINE
8
BLACK
6
CONTINUOUS
10
223.359
20
-89.0363
11
223.485
21
-89.2248
0
LINE
8
BLACK
6
CONTINUOUS
10
223.485
20
-89.2248
11
223.572
21
-89.4343
0
LINE
8
BLACK
6
CONTINUOUS
10
223.572
20
-89.4343
11
223.616
21
-89.6566
0
LINE
8
BLACK
6
CONTINUOUS
10
223.616
20
-89.6566
11
223.616
21
-89.8834
0
LINE
8
BLACK
6
CONTINUOUS
10
223.616
20
-89.8834
11
223.572
21
-90.1057
0
LINE
8
BLACK
6
CONTINUOUS
10
223.572
20
-90.1057
11
223.485
21
-90.3152
0
LINE
8
BLACK
6
CONTINUOUS
10
223.485
20
-90.3152
11
223.359
21
-90.5037
0
LINE
8
BLACK
6
CONTINUOUS
10
223.359
20
-90.5037
11
223.199
21
-90.664
0
LINE
8
BLACK
6
CONTINUOUS
10
223.199
20
-90.664
11
223.01
21
-90.79
0
LINE
8
BLACK
6
CONTINUOUS
10
223.01
20
-90.79
11
222.801
21
-90.8768
0
LINE
8
BLACK
6
CONTINUOUS
10
222.801
20
-90.8768
11
222.69
21
-90.8989
0
LINE
8
BLACK
6
CONTINUOUS
10
222.69
20
-90.8989
11
222.578
21
-90.921
0
LINE
8
BLACK
6
CONTINUOUS
10
222.578
20
-90.921
11
222.352
21
-90.921
0
LINE
8
BLACK
6
CONTINUOUS
10
222.352
20
-90.921
11
222.24
21
-90.8989
0
LINE
8
BLACK
6
CONTINUOUS
10
222.24
20
-90.8989
11
222.129
21
-90.8768
0
LINE
8
BLACK
6
CONTINUOUS
10
222.129
20
-90.8768
11
221.92
21
-90.79
0
LINE
8
BLACK
6
CONTINUOUS
10
221.92
20
-90.79
11
221.731
21
-90.664
0
LINE
8
BLACK
6
CONTINUOUS
10
221.731
20
-90.664
11
221.571
21
-90.5037
0
LINE
8
BLACK
6
CONTINUOUS
10
221.571
20
-90.5037
11
221.445
21
-90.3152
0
LINE
8
BLACK
6
CONTINUOUS
10
221.445
20
-90.3152
11
221.358
21
-90.1057
0
LINE
8
BLACK
6
CONTINUOUS
10
221.358
20
-90.1057
11
221.314
21
-89.8834
0
LINE
8
BLACK
6
CONTINUOUS
10
221.314
20
-89.8834
11
221.314
21
-89.6566
0
LINE
8
BLACK
6
CONTINUOUS
10
221.314
20
-89.6566
11
221.358
21
-89.4343
0
LINE
8
BLACK
6
CONTINUOUS
10
221.358
20
-89.4343
11
221.445
21
-89.2248
0
LINE
8
BLACK
6
CONTINUOUS
10
221.445
20
-89.2248
11
221.571
21
-89.0363
0
LINE
8
BLACK
6
CONTINUOUS
10
221.571
20
-89.0363
11
221.731
21
-88.876
0
LINE
8
BLACK
6
CONTINUOUS
10
221.731
20
-88.876
11
221.92
21
-88.75
0
LINE
8
BLACK
6
CONTINUOUS
10
221.92
20
-88.75
11
222.129
21
-88.6632
0
LINE
8
BLACK
6
CONTINUOUS
10
222.129
20
-88.6632
11
222.24
21
-88.6411
0
LINE
8
BLACK
6
CONTINUOUS
10
222.24
20
-88.6411
11
222.352
21
-88.619
0
LINE
8
BLACK
6
CONTINUOUS
10
222.352
20
-88.619
11
222.578
21
-88.619
0
LINE
8
BLACK
6
CONTINUOUS
10
222.578
20
-88.619
11
222.69
21
-88.6411
0
LINE
8
BLACK
6
CONTINUOUS
10
209.69
20
-88.6411
11
209.801
21
-88.6632
0
LINE
8
BLACK
6
CONTINUOUS
10
209.801
20
-88.6632
11
210.01
21
-88.75
0
LINE
8
BLACK
6
CONTINUOUS
10
210.01
20
-88.75
11
210.199
21
-88.876
0
LINE
8
BLACK
6
CONTINUOUS
10
210.199
20
-88.876
11
210.359
21
-89.0363
0
LINE
8
BLACK
6
CONTINUOUS
10
210.359
20
-89.0363
11
210.485
21
-89.2248
0
LINE
8
BLACK
6
CONTINUOUS
10
210.485
20
-89.2248
11
210.572
21
-89.4343
0
LINE
8
BLACK
6
CONTINUOUS
10
210.572
20
-89.4343
11
210.616
21
-89.6566
0
LINE
8
BLACK
6
CONTINUOUS
10
210.616
20
-89.6566
11
210.616
21
-89.8834
0
LINE
8
BLACK
6
CONTINUOUS
10
210.616
20
-89.8834
11
210.572
21
-90.1057
0
LINE
8
BLACK
6
CONTINUOUS
10
210.572
20
-90.1057
11
210.485
21
-90.3152
0
LINE
8
BLACK
6
CONTINUOUS
10
210.485
20
-90.3152
11
210.359
21
-90.5037
0
LINE
8
BLACK
6
CONTINUOUS
10
210.359
20
-90.5037
11
210.199
21
-90.664
0
LINE
8
BLACK
6
CONTINUOUS
10
210.199
20
-90.664
11
210.01
21
-90.79
0
LINE
8
BLACK
6
CONTINUOUS
10
210.01
20
-90.79
11
209.801
21
-90.8768
0
LINE
8
BLACK
6
CONTINUOUS
10
209.801
20
-90.8768
11
209.69
21
-90.8989
0
LINE
8
BLACK
6
CONTINUOUS
10
209.69
20
-90.8989
11
209.578
21
-90.921
0
LINE
8
BLACK
6
CONTINUOUS
10
209.578
20
-90.921
11
209.352
21
-90.921
0
LINE
8
BLACK
6
CONTINUOUS
10
209.352
20
-90.921
11
209.24
21
-90.8989
0
LINE
8
BLACK
6
CONTINUOUS
10
209.24
20
-90.8989
11
209.129
21
-90.8768
0
LINE
8
BLACK
6
CONTINUOUS
10
209.129
20
-90.8768
11
208.92
21
-90.79
0
LINE
8
BLACK
6
CONTINUOUS
10
208.92
20
-90.79
11
208.731
21
-90.664
0
LINE
8
BLACK
6
CONTINUOUS
10
208.731
20
-90.664
11
208.571
21
-90.5037
0
LINE
8
BLACK
6
CONTINUOUS
10
208.571
20
-90.5037
11
208.445
21
-90.3152
0
LINE
8
BLACK
6
CONTINUOUS
10
208.445
20
-90.3152
11
208.358
21
-90.1057
0
LINE
8
BLACK
6
CONTINUOUS
10
208.358
20
-90.1057
11
208.314
21
-89.8834
0
LINE
8
BLACK
6
CONTINUOUS
10
208.314
20
-89.8834
11
208.314
21
-89.6566
0
LINE
8
BLACK
6
CONTINUOUS
10
208.314
20
-89.6566
11
208.358
21
-89.4343
0
LINE
8
BLACK
6
CONTINUOUS
10
208.358
20
-89.4343
11
208.445
21
-89.2248
0
LINE
8
BLACK
6
CONTINUOUS
10
208.445
20
-89.2248
11
208.571
21
-89.0363
0
LINE
8
BLACK
6
CONTINUOUS
10
208.571
20
-89.0363
11
208.731
21
-88.876
0
LINE
8
BLACK
6
CONTINUOUS
10
208.731
20
-88.876
11
208.92
21
-88.75
0
LINE
8
BLACK
6
CONTINUOUS
10
208.92
20
-88.75
11
209.129
21
-88.6632
0
LINE
8
BLACK
6
CONTINUOUS
10
209.129
20
-88.6632
11
209.24
21
-88.6411
0
LINE
8
BLACK
6
CONTINUOUS
10
209.24
20
-88.6411
11
209.352
21
-88.619
0
LINE
8
BLACK
6
CONTINUOUS
10
209.352
20
-88.619
11
209.578
21
-88.619
0
LINE
8
BLACK
6
CONTINUOUS
10
209.578
20
-88.619
11
209.69
21
-88.6411
0
LINE
8
BLACK
6
CONTINUOUS
10
236.69
20
-88.6411
11
236.801
21
-88.6632
0
LINE
8
BLACK
6
CONTINUOUS
10
236.801
20
-88.6632
11
237.01
21
-88.75
0
LINE
8
BLACK
6
CONTINUOUS
10
237.01
20
-88.75
11
237.199
21
-88.876
0
LINE
8
BLACK
6
CONTINUOUS
10
237.199
20
-88.876
11
237.359
21
-89.0363
0
LINE
8
BLACK
6
CONTINUOUS
10
237.359
20
-89.0363
11
237.485
21
-89.2248
0
LINE
8
BLACK
6
CONTINUOUS
10
237.485
20
-89.2248
11
237.572
21
-89.4343
0
LINE
8
BLACK
6
CONTINUOUS
10
237.572
20
-89.4343
11
237.616
21
-89.6566
0
LINE
8
BLACK
6
CONTINUOUS
10
237.616
20
-89.6566
11
237.616
21
-89.8834
0
LINE
8
BLACK
6
CONTINUOUS
10
237.616
20
-89.8834
11
237.572
21
-90.1057
0
LINE
8
BLACK
6
CONTINUOUS
10
237.572
20
-90.1057
11
237.485
21
-90.3152
0
LINE
8
BLACK
6
CONTINUOUS
10
237.485
20
-90.3152
11
237.359
21
-90.5037
0
LINE
8
BLACK
6
CONTINUOUS
10
237.359
20
-90.5037
11
237.199
21
-90.664
0
LINE
8
BLACK
6
CONTINUOUS
10
237.199
20
-90.664
11
237.01
21
-90.79
0
LINE
8
BLACK
6
CONTINUOUS
10
237.01
20
-90.79
11
236.801
21
-90.8768
0
LINE
8
BLACK
6
CONTINUOUS
10
236.801
20
-90.8768
11
236.69
21
-90.8989
0
LINE
8
BLACK
6
CONTINUOUS
10
236.69
20
-90.8989
11
236.578
21
-90.921
0
LINE
8
BLACK
6
CONTINUOUS
10
236.578
20
-90.921
11
236.352
21
-90.921
0
LINE
8
BLACK
6
CONTINUOUS
10
236.352
20
-90.921
11
236.24
21
-90.8989
0
LINE
8
BLACK
6
CONTINUOUS
10
236.24
20
-90.8989
11
236.129
21
-90.8768
0
LINE
8
BLACK
6
CONTINUOUS
10
236.129
20
-90.8768
11
235.92
21
-90.79
0
LINE
8
BLACK
6
CONTINUOUS
10
235.92
20
-90.79
11
235.731
21
-90.664
0
LINE
8
BLACK
6
CONTINUOUS
10
235.731
20
-90.664
11
235.571
21
-90.5037
0
LINE
8
BLACK
6
CONTINUOUS
10
235.571
20
-90.5037
11
235.445
21
-90.3152
0
LINE
8
BLACK
6
CONTINUOUS
10
235.445
20
-90.3152
11
235.358
21
-90.1057
0
LINE
8
BLACK
6
CONTINUOUS
10
235.358
20
-90.1057
11
235.314
21
-89.8834
0
LINE
8
BLACK
6
CONTINUOUS
10
235.314
20
-89.8834
11
235.314
21
-89.6566
0
LINE
8
BLACK
6
CONTINUOUS
10
235.314
20
-89.6566
11
235.358
21
-89.4343
0
LINE
8
BLACK
6
CONTINUOUS
10
235.358
20
-89.4343
11
235.445
21
-89.2248
0
LINE
8
BLACK
6
CONTINUOUS
10
235.445
20
-89.2248
11
235.571
21
-89.0363
0
LINE
8
BLACK
6
CONTINUOUS
10
235.571
20
-89.0363
11
235.731
21
-88.876
0
LINE
8
BLACK
6
CONTINUOUS
10
235.731
20
-88.876
11
235.92
21
-88.75
0
LINE
8
BLACK
6
CONTINUOUS
10
235.92
20
-88.75
11
236.129
21
-88.6632
0
LINE
8
BLACK
6
CONTINUOUS
10
236.129
20
-88.6632
11
236.24
21
-88.6411
0
LINE
8
BLACK
6
CONTINUOUS
10
236.24
20
-88.6411
11
236.352
21
-88.619
0
LINE
8
BLACK
6
CONTINUOUS
10
236.352
20
-88.619
11
236.578
21
-88.619
0
LINE
8
BLACK
6
CONTINUOUS
10
236.578
20
-88.619
11
236.69
21
-88.6411
0
LINE
8
BLACK
6
CONTINUOUS
10
249.69
20
-88.6411
11
249.801
21
-88.6632
0
LINE
8
BLACK
6
CONTINUOUS
10
249.801
20
-88.6632
11
250.01
21
-88.75
0
LINE
8
BLACK
6
CONTINUOUS
10
250.01
20
-88.75
11
250.199
21
-88.876
0
LINE
8
BLACK
6
CONTINUOUS
10
250.199
20
-88.876
11
250.359
21
-89.0363
0
LINE
8
BLACK
6
CONTINUOUS
10
250.359
20
-89.0363
11
250.485
21
-89.2248
0
LINE
8
BLACK
6
CONTINUOUS
10
250.485
20
-89.2248
11
250.572
21
-89.4343
0
LINE
8
BLACK
6
CONTINUOUS
10
250.572
20
-89.4343
11
250.616
21
-89.6566
0
LINE
8
BLACK
6
CONTINUOUS
10
250.616
20
-89.6566
11
250.616
21
-89.8834
0
LINE
8
BLACK
6
CONTINUOUS
10
250.616
20
-89.8834
11
250.572
21
-90.1057
0
LINE
8
BLACK
6
CONTINUOUS
10
250.572
20
-90.1057
11
250.485
21
-90.3152
0
LINE
8
BLACK
6
CONTINUOUS
10
250.485
20
-90.3152
11
250.359
21
-90.5037
0
LINE
8
BLACK
6
CONTINUOUS
10
250.359
20
-90.5037
11
250.199
21
-90.664
0
LINE
8
BLACK
6
CONTINUOUS
10
250.199
20
-90.664
11
250.01
21
-90.79
0
LINE
8
BLACK
6
CONTINUOUS
10
250.01
20
-90.79
11
249.801
21
-90.8768
0
LINE
8
BLACK
6
CONTINUOUS
10
249.801
20
-90.8768
11
249.69
21
-90.8989
0
LINE
8
BLACK
6
CONTINUOUS
10
249.69
20
-90.8989
11
249.578
21
-90.921
0
LINE
8
BLACK
6
CONTINUOUS
10
249.578
20
-90.921
11
249.352
21
-90.921
0
LINE
8
BLACK
6
CONTINUOUS
10
249.352
20
-90.921
11
249.24
21
-90.8989
0
LINE
8
BLACK
6
CONTINUOUS
10
249.24
20
-90.8989
11
249.129
21
-90.8768
0
LINE
8
BLACK
6
CONTINUOUS
10
249.129
20
-90.8768
11
248.92
21
-90.79
0
LINE
8
BLACK
6
CONTINUOUS
10
248.92
20
-90.79
11
248.731
21
-90.664
0
LINE
8
BLACK
6
CONTINUOUS
10
248.731
20
-90.664
11
248.571
21
-90.5037
0
LINE
8
BLACK
6
CONTINUOUS
10
248.571
20
-90.5037
11
248.445
21
-90.3152
0
LINE
8
BLACK
6
CONTINUOUS
10
248.445
20
-90.3152
11
248.358
21
-90.1057
0
LINE
8
BLACK
6
CONTINUOUS
10
248.358
20
-90.1057
11
248.314
21
-89.8834
0
LINE
8
BLACK
6
CONTINUOUS
10
248.314
20
-89.8834
11
248.314
21
-89.6566
0
LINE
8
BLACK
6
CONTINUOUS
10
248.314
20
-89.6566
11
248.358
21
-89.4343
0
LINE
8
BLACK
6
CONTINUOUS
10
248.358
20
-89.4343
11
248.445
21
-89.2248
0
LINE
8
BLACK
6
CONTINUOUS
10
248.445
20
-89.2248
11
248.571
21
-89.0363
0
LINE
8
BLACK
6
CONTINUOUS
10
248.571
20
-89.0363
11
248.731
21
-88.876
0
LINE
8
BLACK
6
CONTINUOUS
10
248.731
20
-88.876
11
248.92
21
-88.75
0
LINE
8
BLACK
6
CONTINUOUS
10
248.92
20
-88.75
11
249.129
21
-88.6632
0
LINE
8
BLACK
6
CONTINUOUS
10
249.129
20
-88.6632
11
249.24
21
-88.6411
0
LINE
8
BLACK
6
CONTINUOUS
10
249.24
20
-88.6411
11
249.352
21
-88.619
0
LINE
8
BLACK
6
CONTINUOUS
10
249.352
20
-88.619
11
249.578
21
-88.619
0
LINE
8
BLACK
6
CONTINUOUS
10
249.578
20
-88.619
11
249.69
21
-88.6411
0
LINE
8
BLACK
6
CONTINUOUS
10
240.295
20
-69.3711
11
240.406
21
-69.3932
0
LINE
8
BLACK
6
CONTINUOUS
10
240.406
20
-69.3932
11
240.615
21
-69.48
0
LINE
8
BLACK
6
CONTINUOUS
10
240.615
20
-69.48
11
240.804
21
-69.606
0
LINE
8
BLACK
6
CONTINUOUS
10
240.804
20
-69.606
11
240.964
21
-69.7663
0
LINE
8
BLACK
6
CONTINUOUS
10
240.964
20
-69.7663
11
241.09
21
-69.9548
0
LINE
8
BLACK
6
CONTINUOUS
10
241.09
20
-69.9548
11
241.177
21
-70.1643
0
LINE
8
BLACK
6
CONTINUOUS
10
241.177
20
-70.1643
11
241.221
21
-70.3866
0
LINE
8
BLACK
6
CONTINUOUS
10
241.221
20
-70.3866
11
241.221
21
-70.6134
0
LINE
8
BLACK
6
CONTINUOUS
10
241.221
20
-70.6134
11
241.177
21
-70.8357
0
LINE
8
BLACK
6
CONTINUOUS
10
241.177
20
-70.8357
11
241.09
21
-71.0452
0
LINE
8
BLACK
6
CONTINUOUS
10
241.09
20
-71.0452
11
240.964
21
-71.2337
0
LINE
8
BLACK
6
CONTINUOUS
10
240.964
20
-71.2337
11
240.804
21
-71.394
0
LINE
8
BLACK
6
CONTINUOUS
10
240.804
20
-71.394
11
240.615
21
-71.52
0
LINE
8
BLACK
6
CONTINUOUS
10
240.615
20
-71.52
11
240.406
21
-71.6068
0
LINE
8
BLACK
6
CONTINUOUS
10
240.406
20
-71.6068
11
240.295
21
-71.6289
0
LINE
8
BLACK
6
CONTINUOUS
10
240.295
20
-71.6289
11
240.183
21
-71.651
0
LINE
8
BLACK
6
CONTINUOUS
10
240.183
20
-71.651
11
239.957
21
-71.651
0
LINE
8
BLACK
6
CONTINUOUS
10
239.957
20
-71.651
11
239.845
21
-71.6289
0
LINE
8
BLACK
6
CONTINUOUS
10
239.845
20
-71.6289
11
239.734
21
-71.6068
0
LINE
8
BLACK
6
CONTINUOUS
10
239.734
20
-71.6068
11
239.525
21
-71.52
0
LINE
8
BLACK
6
CONTINUOUS
10
239.525
20
-71.52
11
239.336
21
-71.394
0
LINE
8
BLACK
6
CONTINUOUS
10
239.336
20
-71.394
11
239.176
21
-71.2337
0
LINE
8
BLACK
6
CONTINUOUS
10
239.176
20
-71.2337
11
239.05
21
-71.0452
0
LINE
8
BLACK
6
CONTINUOUS
10
239.05
20
-71.0452
11
238.963
21
-70.8357
0
LINE
8
BLACK
6
CONTINUOUS
10
238.963
20
-70.8357
11
238.919
21
-70.6134
0
LINE
8
BLACK
6
CONTINUOUS
10
238.919
20
-70.6134
11
238.919
21
-70.3866
0
LINE
8
BLACK
6
CONTINUOUS
10
238.919
20
-70.3866
11
238.963
21
-70.1643
0
LINE
8
BLACK
6
CONTINUOUS
10
238.963
20
-70.1643
11
239.05
21
-69.9548
0
LINE
8
BLACK
6
CONTINUOUS
10
239.05
20
-69.9548
11
239.176
21
-69.7663
0
LINE
8
BLACK
6
CONTINUOUS
10
239.176
20
-69.7663
11
239.336
21
-69.606
0
LINE
8
BLACK
6
CONTINUOUS
10
239.336
20
-69.606
11
239.525
21
-69.48
0
LINE
8
BLACK
6
CONTINUOUS
10
239.525
20
-69.48
11
239.734
21
-69.3932
0
LINE
8
BLACK
6
CONTINUOUS
10
239.734
20
-69.3932
11
239.845
21
-69.3711
0
LINE
8
BLACK
6
CONTINUOUS
10
239.845
20
-69.3711
11
239.957
21
-69.349
0
LINE
8
BLACK
6
CONTINUOUS
10
239.957
20
-69.349
11
240.183
21
-69.349
0
LINE
8
BLACK
6
CONTINUOUS
10
240.183
20
-69.349
11
240.295
21
-69.3711
0
LINE
8
BLACK
6
CONTINUOUS
10
213.295
20
-69.3711
11
213.406
21
-69.3932
0
LINE
8
BLACK
6
CONTINUOUS
10
213.406
20
-69.3932
11
213.615
21
-69.48
0
LINE
8
BLACK
6
CONTINUOUS
10
213.615
20
-69.48
11
213.804
21
-69.606
0
LINE
8
BLACK
6
CONTINUOUS
10
213.804
20
-69.606
11
213.964
21
-69.7663
0
LINE
8
BLACK
6
CONTINUOUS
10
213.964
20
-69.7663
11
214.09
21
-69.9548
0
LINE
8
BLACK
6
CONTINUOUS
10
214.09
20
-69.9548
11
214.177
21
-70.1643
0
LINE
8
BLACK
6
CONTINUOUS
10
214.177
20
-70.1643
11
214.221
21
-70.3866
0
LINE
8
BLACK
6
CONTINUOUS
10
214.221
20
-70.3866
11
214.221
21
-70.6134
0
LINE
8
BLACK
6
CONTINUOUS
10
214.221
20
-70.6134
11
214.177
21
-70.8357
0
LINE
8
BLACK
6
CONTINUOUS
10
214.177
20
-70.8357
11
214.09
21
-71.0452
0
LINE
8
BLACK
6
CONTINUOUS
10
214.09
20
-71.0452
11
213.964
21
-71.2337
0
LINE
8
BLACK
6
CONTINUOUS
10
213.964
20
-71.2337
11
213.804
21
-71.394
0
LINE
8
BLACK
6
CONTINUOUS
10
213.804
20
-71.394
11
213.615
21
-71.52
0
LINE
8
BLACK
6
CONTINUOUS
10
213.615
20
-71.52
11
213.406
21
-71.6068
0
LINE
8
BLACK
6
CONTINUOUS
10
213.406
20
-71.6068
11
213.295
21
-71.6289
0
LINE
8
BLACK
6
CONTINUOUS
10
213.295
20
-71.6289
11
213.183
21
-71.651
0
LINE
8
BLACK
6
CONTINUOUS
10
213.183
20
-71.651
11
212.957
21
-71.651
0
LINE
8
BLACK
6
CONTINUOUS
10
212.957
20
-71.651
11
212.845
21
-71.6289
0
LINE
8
BLACK
6
CONTINUOUS
10
212.845
20
-71.6289
11
212.734
21
-71.6068
0
LINE
8
BLACK
6
CONTINUOUS
10
212.734
20
-71.6068
11
212.525
21
-71.52
0
LINE
8
BLACK
6
CONTINUOUS
10
212.525
20
-71.52
11
212.336
21
-71.394
0
LINE
8
BLACK
6
CONTINUOUS
10
212.336
20
-71.394
11
212.176
21
-71.2337
0
LINE
8
BLACK
6
CONTINUOUS
10
212.176
20
-71.2337
11
212.05
21
-71.0452
0
LINE
8
BLACK
6
CONTINUOUS
10
212.05
20
-71.0452
11
211.963
21
-70.8357
0
LINE
8
BLACK
6
CONTINUOUS
10
211.963
20
-70.8357
11
211.919
21
-70.6134
0
LINE
8
BLACK
6
CONTINUOUS
10
211.919
20
-70.6134
11
211.919
21
-70.3866
0
LINE
8
BLACK
6
CONTINUOUS
10
211.919
20
-70.3866
11
211.963
21
-70.1643
0
LINE
8
BLACK
6
CONTINUOUS
10
211.963
20
-70.1643
11
212.05
21
-69.9548
0
LINE
8
BLACK
6
CONTINUOUS
10
212.05
20
-69.9548
11
212.176
21
-69.7663
0
LINE
8
BLACK
6
CONTINUOUS
10
212.176
20
-69.7663
11
212.336
21
-69.606
0
LINE
8
BLACK
6
CONTINUOUS
10
212.336
20
-69.606
11
212.525
21
-69.48
0
LINE
8
BLACK
6
CONTINUOUS
10
212.525
20
-69.48
11
212.734
21
-69.3932
0
LINE
8
BLACK
6
CONTINUOUS
10
212.734
20
-69.3932
11
212.845
21
-69.3711
0
LINE
8
BLACK
6
CONTINUOUS
10
212.845
20
-69.3711
11
212.957
21
-69.349
0
LINE
8
BLACK
6
CONTINUOUS
10
212.957
20
-69.349
11
213.183
21
-69.349
0
LINE
8
BLACK
6
CONTINUOUS
10
213.183
20
-69.349
11
213.295
21
-69.3711
  0
ENDSEC
  0
EOF
