  0
SECTION
  2
HEADER
  9
$ANGBASE
  50
0.0
  9
$ANGDIR
  70
1
  9
$MEASUREMENT
  70
0
  0
ENDSEC
  0
SECTION
  2
TABLES
  0
TABLE
  2
LTYPE
  70
4
  0
LTYPE
  5
40F
  2
CONTINUOUS
  70
0
  3
Solid line
  72
65
  73
0
  40
0.0
  0
LTYPE
  5
410
  2
DASHDOT
 70
0
  3
Dash Dot ____ _ ____ _
 72
65
 73
4
 40
2.0
 49
1.25
 49
-0.25
 49
0.25
 49
-0.25
  0
LTYPE
  5
411
  2
DASHED
 70
0
  3
Dashed __ __ __ __ __
 72
65
 73
2
 40
0.75
 49
0.5
 49
-0.25
  0
LTYPE
  5
43B
  2
DOTTED
 70
0
  3
Dotted .  .  .  .
 72
65
 73
2
 40
0.2
 49
0.0
 49
-0.2
  0
ENDTAB
  0
TABLE
  2
STYLE
  70
4
  0
STYLE
  2
KICAD
  70
0
  40
0
  41
1
  42
1
  50
0
  71
0
  3
isocp.shx
  0
STYLE
  2
KICADB
  70
0
  40
0
  41
1
  42
1
  50
0
  71
0
  3
isocp.shx
  0
STYLE
  2
KICADI
  70
0
  40
0
  41
1
  42
1
  50
15
  71
0
  3
isocp.shx
  0
STYLE
  2
KICADBI
  70
0
  40
0
  41
1
  42
1
  50
15
  71
0
  3
isocp.shx
  0
ENDTAB
  0
TABLE
  2
LAYER
  70
1
  0
LAYER
  2
BLACK
  70
0
  62
7
  6
CONTINUOUS
  0
ENDTAB
  0
ENDSEC
  0
SECTION
  2
ENTITIES
0
LINE
8
BLACK
6
CONTINUOUS
10
-0.400037
20
-3.40852
11
-0.398163
21
-3.40477
0
LINE
8
BLACK
6
CONTINUOUS
10
-0.398163
20
-3.40477
11
-0.396288
21
-3.40289
0
LINE
8
BLACK
6
CONTINUOUS
10
-0.396288
20
-3.40289
11
-0.392538
21
-3.40102
0
LINE
8
BLACK
6
CONTINUOUS
10
-0.392538
20
-3.40102
11
-0.390664
21
-3.40102
0
LINE
8
BLACK
6
CONTINUOUS
10
-0.390664
20
-3.40102
11
-0.386914
21
-3.40289
0
LINE
8
BLACK
6
CONTINUOUS
10
-0.386914
20
-3.40289
11
-0.385039
21
-3.40477
0
LINE
8
BLACK
6
CONTINUOUS
10
-0.385039
20
-3.40477
11
-0.383165
21
-3.40852
0
LINE
8
BLACK
6
CONTINUOUS
10
-0.383165
20
-3.40852
11
-0.383165
21
-3.41602
0
LINE
8
BLACK
6
CONTINUOUS
10
-0.383165
20
-3.41602
11
-0.385039
21
-3.41976
0
LINE
8
BLACK
6
CONTINUOUS
10
-0.385039
20
-3.41976
11
-0.386914
21
-3.42164
0
LINE
8
BLACK
6
CONTINUOUS
10
-0.386914
20
-3.42164
11
-0.390664
21
-3.42351
0
LINE
8
BLACK
6
CONTINUOUS
10
-0.390664
20
-3.42351
11
-0.392538
21
-3.42351
0
LINE
8
BLACK
6
CONTINUOUS
10
-0.392538
20
-3.42351
11
-0.396288
21
-3.42164
0
LINE
8
BLACK
6
CONTINUOUS
10
-0.396288
20
-3.42164
11
-0.398163
21
-3.41976
0
LINE
8
BLACK
6
CONTINUOUS
10
-0.398163
20
-3.41976
11
-0.400037
21
-3.41602
0
LINE
8
BLACK
6
CONTINUOUS
10
-0.400037
20
-3.41602
11
-0.400037
21
-3.40852
0
LINE
8
BLACK
6
CONTINUOUS
10
-0.400037
20
-3.40852
11
-0.401912
21
-3.40477
0
LINE
8
BLACK
6
CONTINUOUS
10
-0.401912
20
-3.40477
11
-0.403787
21
-3.40289
0
LINE
8
BLACK
6
CONTINUOUS
10
-0.403787
20
-3.40289
11
-0.407537
21
-3.40102
0
LINE
8
BLACK
6
CONTINUOUS
10
-0.407537
20
-3.40102
11
-0.415036
21
-3.40102
0
LINE
8
BLACK
6
CONTINUOUS
10
-0.415036
20
-3.40102
11
-0.418785
21
-3.40289
0
LINE
8
BLACK
6
CONTINUOUS
10
-0.418785
20
-3.40289
11
-0.42066
21
-3.40477
0
LINE
8
BLACK
6
CONTINUOUS
10
-0.42066
20
-3.40477
11
-0.422535
21
-3.40852
0
LINE
8
BLACK
6
CONTINUOUS
10
-0.422535
20
-3.40852
11
-0.422535
21
-3.41602
0
LINE
8
BLACK
6
CONTINUOUS
10
-0.422535
20
-3.41602
11
-0.42066
21
-3.41976
0
LINE
8
BLACK
6
CONTINUOUS
10
-0.42066
20
-3.41976
11
-0.418785
21
-3.42164
0
LINE
8
BLACK
6
CONTINUOUS
10
-0.418785
20
-3.42164
11
-0.415036
21
-3.42351
0
LINE
8
BLACK
6
CONTINUOUS
10
-0.415036
20
-3.42351
11
-0.407537
21
-3.42351
0
LINE
8
BLACK
6
CONTINUOUS
10
-0.407537
20
-3.42351
11
-0.403787
21
-3.42164
0
LINE
8
BLACK
6
CONTINUOUS
10
-0.403787
20
-3.42164
11
-0.401912
21
-3.41976
0
LINE
8
BLACK
6
CONTINUOUS
10
-0.401912
20
-3.41976
11
-0.400037
21
-3.41602
0
LINE
8
BLACK
6
CONTINUOUS
10
-0.418785
20
-3.44039
11
-0.42066
21
-3.44226
0
LINE
8
BLACK
6
CONTINUOUS
10
-0.42066
20
-3.44226
11
-0.422535
21
-3.44039
0
LINE
8
BLACK
6
CONTINUOUS
10
-0.422535
20
-3.44039
11
-0.42066
21
-3.43851
0
LINE
8
BLACK
6
CONTINUOUS
10
-0.42066
20
-3.43851
11
-0.418785
21
-3.44039
0
LINE
8
BLACK
6
CONTINUOUS
10
-0.418785
20
-3.44039
11
-0.422535
21
-3.44039
0
LINE
8
BLACK
6
CONTINUOUS
10
-0.383165
20
-3.47788
11
-0.383165
21
-3.45913
0
LINE
8
BLACK
6
CONTINUOUS
10
-0.383165
20
-3.45913
11
-0.401912
21
-3.45726
0
LINE
8
BLACK
6
CONTINUOUS
10
-0.401912
20
-3.45726
11
-0.400037
21
-3.45913
0
LINE
8
BLACK
6
CONTINUOUS
10
-0.400037
20
-3.45913
11
-0.398163
21
-3.46288
0
LINE
8
BLACK
6
CONTINUOUS
10
-0.398163
20
-3.46288
11
-0.398163
21
-3.47226
0
LINE
8
BLACK
6
CONTINUOUS
10
-0.398163
20
-3.47226
11
-0.400037
21
-3.47601
0
LINE
8
BLACK
6
CONTINUOUS
10
-0.400037
20
-3.47601
11
-0.401912
21
-3.47788
0
LINE
8
BLACK
6
CONTINUOUS
10
-0.401912
20
-3.47788
11
-0.405662
21
-3.47976
0
LINE
8
BLACK
6
CONTINUOUS
10
-0.405662
20
-3.47976
11
-0.415036
21
-3.47976
0
LINE
8
BLACK
6
CONTINUOUS
10
-0.415036
20
-3.47976
11
-0.418785
21
-3.47788
0
LINE
8
BLACK
6
CONTINUOUS
10
-0.418785
20
-3.47788
11
-0.42066
21
-3.47601
0
LINE
8
BLACK
6
CONTINUOUS
10
-0.42066
20
-3.47601
11
-0.422535
21
-3.47226
0
LINE
8
BLACK
6
CONTINUOUS
10
-0.422535
20
-3.47226
11
-0.422535
21
-3.46288
0
LINE
8
BLACK
6
CONTINUOUS
10
-0.422535
20
-3.46288
11
-0.42066
21
-3.45913
0
LINE
8
BLACK
6
CONTINUOUS
10
-0.42066
20
-3.45913
11
-0.418785
21
-3.45726
0
LINE
8
BLACK
6
CONTINUOUS
10
-0.383165
20
-3.51538
11
-0.383165
21
-3.49663
0
LINE
8
BLACK
6
CONTINUOUS
10
-0.383165
20
-3.49663
11
-0.401912
21
-3.49476
0
LINE
8
BLACK
6
CONTINUOUS
10
-0.401912
20
-3.49476
11
-0.400037
21
-3.49663
0
LINE
8
BLACK
6
CONTINUOUS
10
-0.400037
20
-3.49663
11
-0.398163
21
-3.50038
0
LINE
8
BLACK
6
CONTINUOUS
10
-0.398163
20
-3.50038
11
-0.398163
21
-3.50975
0
LINE
8
BLACK
6
CONTINUOUS
10
-0.398163
20
-3.50975
11
-0.400037
21
-3.5135
0
LINE
8
BLACK
6
CONTINUOUS
10
-0.400037
20
-3.5135
11
-0.401912
21
-3.51538
0
LINE
8
BLACK
6
CONTINUOUS
10
-0.401912
20
-3.51538
11
-0.405662
21
-3.51725
0
LINE
8
BLACK
6
CONTINUOUS
10
-0.405662
20
-3.51725
11
-0.415036
21
-3.51725
0
LINE
8
BLACK
6
CONTINUOUS
10
-0.415036
20
-3.51725
11
-0.418785
21
-3.51538
0
LINE
8
BLACK
6
CONTINUOUS
10
-0.418785
20
-3.51538
11
-0.42066
21
-3.5135
0
LINE
8
BLACK
6
CONTINUOUS
10
-0.42066
20
-3.5135
11
-0.422535
21
-3.50975
0
LINE
8
BLACK
6
CONTINUOUS
10
-0.422535
20
-3.50975
11
-0.422535
21
-3.50038
0
LINE
8
BLACK
6
CONTINUOUS
10
-0.422535
20
-3.50038
11
-0.42066
21
-3.49663
0
LINE
8
BLACK
6
CONTINUOUS
10
-0.42066
20
-3.49663
11
-0.418785
21
-3.49476
0
LINE
8
BLACK
6
CONTINUOUS
10
-0.383165
20
-3.55287
11
-0.383165
21
-3.53413
0
LINE
8
BLACK
6
CONTINUOUS
10
-0.383165
20
-3.53413
11
-0.401912
21
-3.53225
0
LINE
8
BLACK
6
CONTINUOUS
10
-0.401912
20
-3.53225
11
-0.400037
21
-3.53413
0
LINE
8
BLACK
6
CONTINUOUS
10
-0.400037
20
-3.53413
11
-0.398163
21
-3.53787
0
LINE
8
BLACK
6
CONTINUOUS
10
-0.398163
20
-3.53787
11
-0.398163
21
-3.54725
0
LINE
8
BLACK
6
CONTINUOUS
10
-0.398163
20
-3.54725
11
-0.400037
21
-3.551
0
LINE
8
BLACK
6
CONTINUOUS
10
-0.400037
20
-3.551
11
-0.401912
21
-3.55287
0
LINE
8
BLACK
6
CONTINUOUS
10
-0.401912
20
-3.55287
11
-0.405662
21
-3.55475
0
LINE
8
BLACK
6
CONTINUOUS
10
-0.405662
20
-3.55475
11
-0.415036
21
-3.55475
0
LINE
8
BLACK
6
CONTINUOUS
10
-0.415036
20
-3.55475
11
-0.418785
21
-3.55287
0
LINE
8
BLACK
6
CONTINUOUS
10
-0.418785
20
-3.55287
11
-0.42066
21
-3.551
0
LINE
8
BLACK
6
CONTINUOUS
10
-0.42066
20
-3.551
11
-0.422535
21
-3.54725
0
LINE
8
BLACK
6
CONTINUOUS
10
-0.422535
20
-3.54725
11
-0.422535
21
-3.53787
0
LINE
8
BLACK
6
CONTINUOUS
10
-0.422535
20
-3.53787
11
-0.42066
21
-3.53413
0
LINE
8
BLACK
6
CONTINUOUS
10
-0.42066
20
-3.53413
11
-0.418785
21
-3.53225
0
LINE
8
BLACK
6
CONTINUOUS
10
-0.422535
20
-3.60162
11
-0.396288
21
-3.60162
0
LINE
8
BLACK
6
CONTINUOUS
10
-0.400037
20
-3.60162
11
-0.398163
21
-3.60349
0
LINE
8
BLACK
6
CONTINUOUS
10
-0.398163
20
-3.60349
11
-0.396288
21
-3.60724
0
LINE
8
BLACK
6
CONTINUOUS
10
-0.396288
20
-3.60724
11
-0.396288
21
-3.61287
0
LINE
8
BLACK
6
CONTINUOUS
10
-0.396288
20
-3.61287
11
-0.398163
21
-3.61662
0
LINE
8
BLACK
6
CONTINUOUS
10
-0.398163
20
-3.61662
11
-0.401912
21
-3.61849
0
LINE
8
BLACK
6
CONTINUOUS
10
-0.401912
20
-3.61849
11
-0.422535
21
-3.61849
0
LINE
8
BLACK
6
CONTINUOUS
10
-0.401912
20
-3.61849
11
-0.398163
21
-3.62036
0
LINE
8
BLACK
6
CONTINUOUS
10
-0.398163
20
-3.62036
11
-0.396288
21
-3.62411
0
LINE
8
BLACK
6
CONTINUOUS
10
-0.396288
20
-3.62411
11
-0.396288
21
-3.62974
0
LINE
8
BLACK
6
CONTINUOUS
10
-0.396288
20
-3.62974
11
-0.398163
21
-3.63349
0
LINE
8
BLACK
6
CONTINUOUS
10
-0.398163
20
-3.63349
11
-0.401912
21
-3.63536
0
LINE
8
BLACK
6
CONTINUOUS
10
-0.401912
20
-3.63536
11
-0.422535
21
-3.63536
0
LINE
8
BLACK
6
CONTINUOUS
10
-0.422535
20
-3.65411
11
-0.396288
21
-3.65411
0
LINE
8
BLACK
6
CONTINUOUS
10
-0.400037
20
-3.65411
11
-0.398163
21
-3.65599
0
LINE
8
BLACK
6
CONTINUOUS
10
-0.398163
20
-3.65599
11
-0.396288
21
-3.65973
0
LINE
8
BLACK
6
CONTINUOUS
10
-0.396288
20
-3.65973
11
-0.396288
21
-3.66536
0
LINE
8
BLACK
6
CONTINUOUS
10
-0.396288
20
-3.66536
11
-0.398163
21
-3.66911
0
LINE
8
BLACK
6
CONTINUOUS
10
-0.398163
20
-3.66911
11
-0.401912
21
-3.67098
0
LINE
8
BLACK
6
CONTINUOUS
10
-0.401912
20
-3.67098
11
-0.422535
21
-3.67098
0
LINE
8
BLACK
6
CONTINUOUS
10
-0.401912
20
-3.67098
11
-0.398163
21
-3.67286
0
LINE
8
BLACK
6
CONTINUOUS
10
-0.398163
20
-3.67286
11
-0.396288
21
-3.67661
0
LINE
8
BLACK
6
CONTINUOUS
10
-0.396288
20
-3.67661
11
-0.396288
21
-3.68223
0
LINE
8
BLACK
6
CONTINUOUS
10
-0.396288
20
-3.68223
11
-0.398163
21
-3.68598
0
LINE
8
BLACK
6
CONTINUOUS
10
-0.398163
20
-3.68598
11
-0.401912
21
-3.68786
0
LINE
8
BLACK
6
CONTINUOUS
10
-0.401912
20
-3.68786
11
-0.422535
21
-3.68786
0
LINE
8
BLACK
6
CONTINUOUS
10
-0.451969
20
-3.37697
11
-0.451969
21
-3.71378
0
LINE
8
BLACK
6
CONTINUOUS
10
-0.466929
20
-3.37697
11
-0.428881
21
-3.37697
0
LINE
8
BLACK
6
CONTINUOUS
10
-0.466929
20
-3.71378
11
-0.428881
21
-3.71378
0
LINE
8
BLACK
6
CONTINUOUS
10
-0.451969
20
-3.71378
11
-0.475056
21
-3.66943
0
LINE
8
BLACK
6
CONTINUOUS
10
-0.451969
20
-3.71378
11
-0.428881
21
-3.66943
0
LINE
8
BLACK
6
CONTINUOUS
10
-0.451969
20
-3.37697
11
-0.475056
21
-3.42132
0
LINE
8
BLACK
6
CONTINUOUS
10
-0.451969
20
-3.37697
11
-0.428881
21
-3.42132
0
LINE
8
BLACK
6
CONTINUOUS
10
4.51977
20
-3.80699
11
4.52164
21
-3.80512
0
LINE
8
BLACK
6
CONTINUOUS
10
4.52164
20
-3.80512
11
4.52539
21
-3.80324
0
LINE
8
BLACK
6
CONTINUOUS
10
4.52539
20
-3.80324
11
4.53477
21
-3.80324
0
LINE
8
BLACK
6
CONTINUOUS
10
4.53477
20
-3.80324
11
4.53852
21
-3.80512
0
LINE
8
BLACK
6
CONTINUOUS
10
4.53852
20
-3.80512
11
4.54039
21
-3.80699
0
LINE
8
BLACK
6
CONTINUOUS
10
4.54039
20
-3.80699
11
4.54227
21
-3.81074
0
LINE
8
BLACK
6
CONTINUOUS
10
4.54227
20
-3.81074
11
4.54227
21
-3.81449
0
LINE
8
BLACK
6
CONTINUOUS
10
4.54227
20
-3.81449
11
4.54039
21
-3.82012
0
LINE
8
BLACK
6
CONTINUOUS
10
4.54039
20
-3.82012
11
4.51789
21
-3.84261
0
LINE
8
BLACK
6
CONTINUOUS
10
4.51789
20
-3.84261
11
4.54227
21
-3.84261
0
LINE
8
BLACK
6
CONTINUOUS
10
4.57789
20
-3.80324
11
4.55914
21
-3.80324
0
LINE
8
BLACK
6
CONTINUOUS
10
4.55914
20
-3.80324
11
4.55726
21
-3.82199
0
LINE
8
BLACK
6
CONTINUOUS
10
4.55726
20
-3.82199
11
4.55914
21
-3.82012
0
LINE
8
BLACK
6
CONTINUOUS
10
4.55914
20
-3.82012
11
4.56289
21
-3.81824
0
LINE
8
BLACK
6
CONTINUOUS
10
4.56289
20
-3.81824
11
4.57226
21
-3.81824
0
LINE
8
BLACK
6
CONTINUOUS
10
4.57226
20
-3.81824
11
4.57601
21
-3.82012
0
LINE
8
BLACK
6
CONTINUOUS
10
4.57601
20
-3.82012
11
4.57789
21
-3.82199
0
LINE
8
BLACK
6
CONTINUOUS
10
4.57789
20
-3.82199
11
4.57976
21
-3.82574
0
LINE
8
BLACK
6
CONTINUOUS
10
4.57976
20
-3.82574
11
4.57976
21
-3.83511
0
LINE
8
BLACK
6
CONTINUOUS
10
4.57976
20
-3.83511
11
4.57789
21
-3.83886
0
LINE
8
BLACK
6
CONTINUOUS
10
4.57789
20
-3.83886
11
4.57601
21
-3.84074
0
LINE
8
BLACK
6
CONTINUOUS
10
4.57601
20
-3.84074
11
4.57226
21
-3.84261
0
LINE
8
BLACK
6
CONTINUOUS
10
4.57226
20
-3.84261
11
4.56289
21
-3.84261
0
LINE
8
BLACK
6
CONTINUOUS
10
4.56289
20
-3.84261
11
4.55914
21
-3.84074
0
LINE
8
BLACK
6
CONTINUOUS
10
4.55914
20
-3.84074
11
4.55726
21
-3.83886
0
LINE
8
BLACK
6
CONTINUOUS
10
4.59663
20
-3.83886
11
4.59851
21
-3.84074
0
LINE
8
BLACK
6
CONTINUOUS
10
4.59851
20
-3.84074
11
4.59663
21
-3.84261
0
LINE
8
BLACK
6
CONTINUOUS
10
4.59663
20
-3.84261
11
4.59476
21
-3.84074
0
LINE
8
BLACK
6
CONTINUOUS
10
4.59476
20
-3.84074
11
4.59663
21
-3.83886
0
LINE
8
BLACK
6
CONTINUOUS
10
4.59663
20
-3.83886
11
4.59663
21
-3.84261
0
LINE
8
BLACK
6
CONTINUOUS
10
4.61726
20
-3.84261
11
4.62476
21
-3.84261
0
LINE
8
BLACK
6
CONTINUOUS
10
4.62476
20
-3.84261
11
4.62851
21
-3.84074
0
LINE
8
BLACK
6
CONTINUOUS
10
4.62851
20
-3.84074
11
4.63038
21
-3.83886
0
LINE
8
BLACK
6
CONTINUOUS
10
4.63038
20
-3.83886
11
4.63413
21
-3.83324
0
LINE
8
BLACK
6
CONTINUOUS
10
4.63413
20
-3.83324
11
4.636
21
-3.82574
0
LINE
8
BLACK
6
CONTINUOUS
10
4.636
20
-3.82574
11
4.636
21
-3.81074
0
LINE
8
BLACK
6
CONTINUOUS
10
4.636
20
-3.81074
11
4.63413
21
-3.80699
0
LINE
8
BLACK
6
CONTINUOUS
10
4.63413
20
-3.80699
11
4.63226
21
-3.80512
0
LINE
8
BLACK
6
CONTINUOUS
10
4.63226
20
-3.80512
11
4.62851
21
-3.80324
0
LINE
8
BLACK
6
CONTINUOUS
10
4.62851
20
-3.80324
11
4.62101
21
-3.80324
0
LINE
8
BLACK
6
CONTINUOUS
10
4.62101
20
-3.80324
11
4.61726
21
-3.80512
0
LINE
8
BLACK
6
CONTINUOUS
10
4.61726
20
-3.80512
11
4.61538
21
-3.80699
0
LINE
8
BLACK
6
CONTINUOUS
10
4.61538
20
-3.80699
11
4.61351
21
-3.81074
0
LINE
8
BLACK
6
CONTINUOUS
10
4.61351
20
-3.81074
11
4.61351
21
-3.82012
0
LINE
8
BLACK
6
CONTINUOUS
10
4.61351
20
-3.82012
11
4.61538
21
-3.82387
0
LINE
8
BLACK
6
CONTINUOUS
10
4.61538
20
-3.82387
11
4.61726
21
-3.82574
0
LINE
8
BLACK
6
CONTINUOUS
10
4.61726
20
-3.82574
11
4.62101
21
-3.82762
0
LINE
8
BLACK
6
CONTINUOUS
10
4.62101
20
-3.82762
11
4.62851
21
-3.82762
0
LINE
8
BLACK
6
CONTINUOUS
10
4.62851
20
-3.82762
11
4.63226
21
-3.82574
0
LINE
8
BLACK
6
CONTINUOUS
10
4.63226
20
-3.82574
11
4.63413
21
-3.82387
0
LINE
8
BLACK
6
CONTINUOUS
10
4.63413
20
-3.82387
11
4.636
21
-3.82012
0
LINE
8
BLACK
6
CONTINUOUS
10
4.67163
20
-3.80324
11
4.65288
21
-3.80324
0
LINE
8
BLACK
6
CONTINUOUS
10
4.65288
20
-3.80324
11
4.651
21
-3.82199
0
LINE
8
BLACK
6
CONTINUOUS
10
4.651
20
-3.82199
11
4.65288
21
-3.82012
0
LINE
8
BLACK
6
CONTINUOUS
10
4.65288
20
-3.82012
11
4.65663
21
-3.81824
0
LINE
8
BLACK
6
CONTINUOUS
10
4.65663
20
-3.81824
11
4.666
21
-3.81824
0
LINE
8
BLACK
6
CONTINUOUS
10
4.666
20
-3.81824
11
4.66975
21
-3.82012
0
LINE
8
BLACK
6
CONTINUOUS
10
4.66975
20
-3.82012
11
4.67163
21
-3.82199
0
LINE
8
BLACK
6
CONTINUOUS
10
4.67163
20
-3.82199
11
4.6735
21
-3.82574
0
LINE
8
BLACK
6
CONTINUOUS
10
4.6735
20
-3.82574
11
4.6735
21
-3.83511
0
LINE
8
BLACK
6
CONTINUOUS
10
4.6735
20
-3.83511
11
4.67163
21
-3.83886
0
LINE
8
BLACK
6
CONTINUOUS
10
4.67163
20
-3.83886
11
4.66975
21
-3.84074
0
LINE
8
BLACK
6
CONTINUOUS
10
4.66975
20
-3.84074
11
4.666
21
-3.84261
0
LINE
8
BLACK
6
CONTINUOUS
10
4.666
20
-3.84261
11
4.65663
21
-3.84261
0
LINE
8
BLACK
6
CONTINUOUS
10
4.65663
20
-3.84261
11
4.65288
21
-3.84074
0
LINE
8
BLACK
6
CONTINUOUS
10
4.65288
20
-3.84074
11
4.651
21
-3.83886
0
LINE
8
BLACK
6
CONTINUOUS
10
4.69787
20
-3.80324
11
4.70162
21
-3.80324
0
LINE
8
BLACK
6
CONTINUOUS
10
4.70162
20
-3.80324
11
4.70537
21
-3.80512
0
LINE
8
BLACK
6
CONTINUOUS
10
4.70537
20
-3.80512
11
4.70725
21
-3.80699
0
LINE
8
BLACK
6
CONTINUOUS
10
4.70725
20
-3.80699
11
4.70912
21
-3.81074
0
LINE
8
BLACK
6
CONTINUOUS
10
4.70912
20
-3.81074
11
4.711
21
-3.81824
0
LINE
8
BLACK
6
CONTINUOUS
10
4.711
20
-3.81824
11
4.711
21
-3.82762
0
LINE
8
BLACK
6
CONTINUOUS
10
4.711
20
-3.82762
11
4.70912
21
-3.83511
0
LINE
8
BLACK
6
CONTINUOUS
10
4.70912
20
-3.83511
11
4.70725
21
-3.83886
0
LINE
8
BLACK
6
CONTINUOUS
10
4.70725
20
-3.83886
11
4.70537
21
-3.84074
0
LINE
8
BLACK
6
CONTINUOUS
10
4.70537
20
-3.84074
11
4.70162
21
-3.84261
0
LINE
8
BLACK
6
CONTINUOUS
10
4.70162
20
-3.84261
11
4.69787
21
-3.84261
0
LINE
8
BLACK
6
CONTINUOUS
10
4.69787
20
-3.84261
11
4.69412
21
-3.84074
0
LINE
8
BLACK
6
CONTINUOUS
10
4.69412
20
-3.84074
11
4.69225
21
-3.83886
0
LINE
8
BLACK
6
CONTINUOUS
10
4.69225
20
-3.83886
11
4.69037
21
-3.83511
0
LINE
8
BLACK
6
CONTINUOUS
10
4.69037
20
-3.83511
11
4.6885
21
-3.82762
0
LINE
8
BLACK
6
CONTINUOUS
10
4.6885
20
-3.82762
11
4.6885
21
-3.81824
0
LINE
8
BLACK
6
CONTINUOUS
10
4.6885
20
-3.81824
11
4.69037
21
-3.81074
0
LINE
8
BLACK
6
CONTINUOUS
10
4.69037
20
-3.81074
11
4.69225
21
-3.80699
0
LINE
8
BLACK
6
CONTINUOUS
10
4.69225
20
-3.80699
11
4.69412
21
-3.80512
0
LINE
8
BLACK
6
CONTINUOUS
10
4.69412
20
-3.80512
11
4.69787
21
-3.80324
0
LINE
8
BLACK
6
CONTINUOUS
10
4.75786
20
-3.84261
11
4.75786
21
-3.81637
0
LINE
8
BLACK
6
CONTINUOUS
10
4.75786
20
-3.82012
11
4.75974
21
-3.81824
0
LINE
8
BLACK
6
CONTINUOUS
10
4.75974
20
-3.81824
11
4.76349
21
-3.81637
0
LINE
8
BLACK
6
CONTINUOUS
10
4.76349
20
-3.81637
11
4.76911
21
-3.81637
0
LINE
8
BLACK
6
CONTINUOUS
10
4.76911
20
-3.81637
11
4.77286
21
-3.81824
0
LINE
8
BLACK
6
CONTINUOUS
10
4.77286
20
-3.81824
11
4.77474
21
-3.82199
0
LINE
8
BLACK
6
CONTINUOUS
10
4.77474
20
-3.82199
11
4.77474
21
-3.84261
0
LINE
8
BLACK
6
CONTINUOUS
10
4.77474
20
-3.82199
11
4.77661
21
-3.81824
0
LINE
8
BLACK
6
CONTINUOUS
10
4.77661
20
-3.81824
11
4.78036
21
-3.81637
0
LINE
8
BLACK
6
CONTINUOUS
10
4.78036
20
-3.81637
11
4.78599
21
-3.81637
0
LINE
8
BLACK
6
CONTINUOUS
10
4.78599
20
-3.81637
11
4.78974
21
-3.81824
0
LINE
8
BLACK
6
CONTINUOUS
10
4.78974
20
-3.81824
11
4.79161
21
-3.82199
0
LINE
8
BLACK
6
CONTINUOUS
10
4.79161
20
-3.82199
11
4.79161
21
-3.84261
0
LINE
8
BLACK
6
CONTINUOUS
10
4.81036
20
-3.84261
11
4.81036
21
-3.81637
0
LINE
8
BLACK
6
CONTINUOUS
10
4.81036
20
-3.82012
11
4.81223
21
-3.81824
0
LINE
8
BLACK
6
CONTINUOUS
10
4.81223
20
-3.81824
11
4.81598
21
-3.81637
0
LINE
8
BLACK
6
CONTINUOUS
10
4.81598
20
-3.81637
11
4.82161
21
-3.81637
0
LINE
8
BLACK
6
CONTINUOUS
10
4.82161
20
-3.81637
11
4.82536
21
-3.81824
0
LINE
8
BLACK
6
CONTINUOUS
10
4.82536
20
-3.81824
11
4.82723
21
-3.82199
0
LINE
8
BLACK
6
CONTINUOUS
10
4.82723
20
-3.82199
11
4.82723
21
-3.84261
0
LINE
8
BLACK
6
CONTINUOUS
10
4.82723
20
-3.82199
11
4.82911
21
-3.81824
0
LINE
8
BLACK
6
CONTINUOUS
10
4.82911
20
-3.81824
11
4.83286
21
-3.81637
0
LINE
8
BLACK
6
CONTINUOUS
10
4.83286
20
-3.81637
11
4.83848
21
-3.81637
0
LINE
8
BLACK
6
CONTINUOUS
10
4.83848
20
-3.81637
11
4.84223
21
-3.81824
0
LINE
8
BLACK
6
CONTINUOUS
10
4.84223
20
-3.81824
11
4.8441
21
-3.82199
0
LINE
8
BLACK
6
CONTINUOUS
10
4.8441
20
-3.82199
11
4.8441
21
-3.84261
0
LINE
8
BLACK
6
CONTINUOUS
10
4.17205
20
-3.77756
11
5.1937
21
-3.77756
0
LINE
8
BLACK
6
CONTINUOUS
10
4.17205
20
-3.77067
11
4.17205
21
-3.80065
0
LINE
8
BLACK
6
CONTINUOUS
10
5.1937
20
-3.77067
11
5.1937
21
-3.80065
0
LINE
8
BLACK
6
CONTINUOUS
10
5.1937
20
-3.77756
11
5.14935
21
-3.80065
0
LINE
8
BLACK
6
CONTINUOUS
10
5.1937
20
-3.77756
11
5.14935
21
-3.75447
0
LINE
8
BLACK
6
CONTINUOUS
10
4.17205
20
-3.77756
11
4.2164
21
-3.80065
0
LINE
8
BLACK
6
CONTINUOUS
10
4.17205
20
-3.77756
11
4.2164
21
-3.75447
0
LINE
8
BLACK
6
CONTINUOUS
10
0.0180076
20
-3.86408
11
0.0198823
21
-3.8622
0
LINE
8
BLACK
6
CONTINUOUS
10
0.0198823
20
-3.8622
11
0.0236319
21
-3.86033
0
LINE
8
BLACK
6
CONTINUOUS
10
0.0236319
20
-3.86033
11
0.0330057
21
-3.86033
0
LINE
8
BLACK
6
CONTINUOUS
10
0.0330057
20
-3.86033
11
0.0367552
21
-3.8622
0
LINE
8
BLACK
6
CONTINUOUS
10
0.0367552
20
-3.8622
11
0.03863
21
-3.86408
0
LINE
8
BLACK
6
CONTINUOUS
10
0.03863
20
-3.86408
11
0.0405048
21
-3.86783
0
LINE
8
BLACK
6
CONTINUOUS
10
0.0405048
20
-3.86783
11
0.0405048
21
-3.87158
0
LINE
8
BLACK
6
CONTINUOUS
10
0.0405048
20
-3.87158
11
0.03863
21
-3.8772
0
LINE
8
BLACK
6
CONTINUOUS
10
0.03863
20
-3.8772
11
0.0161328
21
-3.8997
0
LINE
8
BLACK
6
CONTINUOUS
10
0.0161328
20
-3.8997
11
0.0405048
21
-3.8997
0
LINE
8
BLACK
6
CONTINUOUS
10
0.0761253
20
-3.86033
11
0.0573776
21
-3.86033
0
LINE
8
BLACK
6
CONTINUOUS
10
0.0573776
20
-3.86033
11
0.0555029
21
-3.87908
0
LINE
8
BLACK
6
CONTINUOUS
10
0.0555029
20
-3.87908
11
0.0573776
21
-3.8772
0
LINE
8
BLACK
6
CONTINUOUS
10
0.0573776
20
-3.8772
11
0.0611272
21
-3.87533
0
LINE
8
BLACK
6
CONTINUOUS
10
0.0611272
20
-3.87533
11
0.070501
21
-3.87533
0
LINE
8
BLACK
6
CONTINUOUS
10
0.070501
20
-3.87533
11
0.0742506
21
-3.8772
0
LINE
8
BLACK
6
CONTINUOUS
10
0.0742506
20
-3.8772
11
0.0761253
21
-3.87908
0
LINE
8
BLACK
6
CONTINUOUS
10
0.0761253
20
-3.87908
11
0.0780001
21
-3.88283
0
LINE
8
BLACK
6
CONTINUOUS
10
0.0780001
20
-3.88283
11
0.0780001
21
-3.8922
0
LINE
8
BLACK
6
CONTINUOUS
10
0.0780001
20
-3.8922
11
0.0761253
21
-3.89595
0
LINE
8
BLACK
6
CONTINUOUS
10
0.0761253
20
-3.89595
11
0.0742506
21
-3.89783
0
LINE
8
BLACK
6
CONTINUOUS
10
0.0742506
20
-3.89783
11
0.070501
21
-3.8997
0
LINE
8
BLACK
6
CONTINUOUS
10
0.070501
20
-3.8997
11
0.0611272
21
-3.8997
0
LINE
8
BLACK
6
CONTINUOUS
10
0.0611272
20
-3.8997
11
0.0573776
21
-3.89783
0
LINE
8
BLACK
6
CONTINUOUS
10
0.0573776
20
-3.89783
11
0.0555029
21
-3.89595
0
LINE
8
BLACK
6
CONTINUOUS
10
0.094873
20
-3.89595
11
0.0967477
21
-3.89783
0
LINE
8
BLACK
6
CONTINUOUS
10
0.0967477
20
-3.89783
11
0.094873
21
-3.8997
0
LINE
8
BLACK
6
CONTINUOUS
10
0.094873
20
-3.8997
11
0.0929982
21
-3.89783
0
LINE
8
BLACK
6
CONTINUOUS
10
0.0929982
20
-3.89783
11
0.094873
21
-3.89595
0
LINE
8
BLACK
6
CONTINUOUS
10
0.094873
20
-3.89595
11
0.094873
21
-3.8997
0
LINE
8
BLACK
6
CONTINUOUS
10
0.115495
20
-3.8997
11
0.122994
21
-3.8997
0
LINE
8
BLACK
6
CONTINUOUS
10
0.122994
20
-3.8997
11
0.126744
21
-3.89783
0
LINE
8
BLACK
6
CONTINUOUS
10
0.126744
20
-3.89783
11
0.128619
21
-3.89595
0
LINE
8
BLACK
6
CONTINUOUS
10
0.128619
20
-3.89595
11
0.132368
21
-3.89033
0
LINE
8
BLACK
6
CONTINUOUS
10
0.132368
20
-3.89033
11
0.134243
21
-3.88283
0
LINE
8
BLACK
6
CONTINUOUS
10
0.134243
20
-3.88283
11
0.134243
21
-3.86783
0
LINE
8
BLACK
6
CONTINUOUS
10
0.134243
20
-3.86783
11
0.132368
21
-3.86408
0
LINE
8
BLACK
6
CONTINUOUS
10
0.132368
20
-3.86408
11
0.130494
21
-3.8622
0
LINE
8
BLACK
6
CONTINUOUS
10
0.130494
20
-3.8622
11
0.126744
21
-3.86033
0
LINE
8
BLACK
6
CONTINUOUS
10
0.126744
20
-3.86033
11
0.119245
21
-3.86033
0
LINE
8
BLACK
6
CONTINUOUS
10
0.119245
20
-3.86033
11
0.115495
21
-3.8622
0
LINE
8
BLACK
6
CONTINUOUS
10
0.115495
20
-3.8622
11
0.113621
21
-3.86408
0
LINE
8
BLACK
6
CONTINUOUS
10
0.113621
20
-3.86408
11
0.111746
21
-3.86783
0
LINE
8
BLACK
6
CONTINUOUS
10
0.111746
20
-3.86783
11
0.111746
21
-3.8772
0
LINE
8
BLACK
6
CONTINUOUS
10
0.111746
20
-3.8772
11
0.113621
21
-3.88095
0
LINE
8
BLACK
6
CONTINUOUS
10
0.113621
20
-3.88095
11
0.115495
21
-3.88283
0
LINE
8
BLACK
6
CONTINUOUS
10
0.115495
20
-3.88283
11
0.119245
21
-3.8847
0
LINE
8
BLACK
6
CONTINUOUS
10
0.119245
20
-3.8847
11
0.126744
21
-3.8847
0
LINE
8
BLACK
6
CONTINUOUS
10
0.126744
20
-3.8847
11
0.130494
21
-3.88283
0
LINE
8
BLACK
6
CONTINUOUS
10
0.130494
20
-3.88283
11
0.132368
21
-3.88095
0
LINE
8
BLACK
6
CONTINUOUS
10
0.132368
20
-3.88095
11
0.134243
21
-3.8772
0
LINE
8
BLACK
6
CONTINUOUS
10
0.169864
20
-3.86033
11
0.151116
21
-3.86033
0
LINE
8
BLACK
6
CONTINUOUS
10
0.151116
20
-3.86033
11
0.149241
21
-3.87908
0
LINE
8
BLACK
6
CONTINUOUS
10
0.149241
20
-3.87908
11
0.151116
21
-3.8772
0
LINE
8
BLACK
6
CONTINUOUS
10
0.151116
20
-3.8772
11
0.154865
21
-3.87533
0
LINE
8
BLACK
6
CONTINUOUS
10
0.154865
20
-3.87533
11
0.164239
21
-3.87533
0
LINE
8
BLACK
6
CONTINUOUS
10
0.164239
20
-3.87533
11
0.167989
21
-3.8772
0
LINE
8
BLACK
6
CONTINUOUS
10
0.167989
20
-3.8772
11
0.169864
21
-3.87908
0
LINE
8
BLACK
6
CONTINUOUS
10
0.169864
20
-3.87908
11
0.171738
21
-3.88283
0
LINE
8
BLACK
6
CONTINUOUS
10
0.171738
20
-3.88283
11
0.171738
21
-3.8922
0
LINE
8
BLACK
6
CONTINUOUS
10
0.171738
20
-3.8922
11
0.169864
21
-3.89595
0
LINE
8
BLACK
6
CONTINUOUS
10
0.169864
20
-3.89595
11
0.167989
21
-3.89783
0
LINE
8
BLACK
6
CONTINUOUS
10
0.167989
20
-3.89783
11
0.164239
21
-3.8997
0
LINE
8
BLACK
6
CONTINUOUS
10
0.164239
20
-3.8997
11
0.154865
21
-3.8997
0
LINE
8
BLACK
6
CONTINUOUS
10
0.154865
20
-3.8997
11
0.151116
21
-3.89783
0
LINE
8
BLACK
6
CONTINUOUS
10
0.151116
20
-3.89783
11
0.149241
21
-3.89595
0
LINE
8
BLACK
6
CONTINUOUS
10
0.19611
20
-3.86033
11
0.19986
21
-3.86033
0
LINE
8
BLACK
6
CONTINUOUS
10
0.19986
20
-3.86033
11
0.203609
21
-3.8622
0
LINE
8
BLACK
6
CONTINUOUS
10
0.203609
20
-3.8622
11
0.205484
21
-3.86408
0
LINE
8
BLACK
6
CONTINUOUS
10
0.205484
20
-3.86408
11
0.207359
21
-3.86783
0
LINE
8
BLACK
6
CONTINUOUS
10
0.207359
20
-3.86783
11
0.209234
21
-3.87533
0
LINE
8
BLACK
6
CONTINUOUS
10
0.209234
20
-3.87533
11
0.209234
21
-3.8847
0
LINE
8
BLACK
6
CONTINUOUS
10
0.209234
20
-3.8847
11
0.207359
21
-3.8922
0
LINE
8
BLACK
6
CONTINUOUS
10
0.207359
20
-3.8922
11
0.205484
21
-3.89595
0
LINE
8
BLACK
6
CONTINUOUS
10
0.205484
20
-3.89595
11
0.203609
21
-3.89783
0
LINE
8
BLACK
6
CONTINUOUS
10
0.203609
20
-3.89783
11
0.19986
21
-3.8997
0
LINE
8
BLACK
6
CONTINUOUS
10
0.19986
20
-3.8997
11
0.19611
21
-3.8997
0
LINE
8
BLACK
6
CONTINUOUS
10
0.19611
20
-3.8997
11
0.192361
21
-3.89783
0
LINE
8
BLACK
6
CONTINUOUS
10
0.192361
20
-3.89783
11
0.190486
21
-3.89595
0
LINE
8
BLACK
6
CONTINUOUS
10
0.190486
20
-3.89595
11
0.188611
21
-3.8922
0
LINE
8
BLACK
6
CONTINUOUS
10
0.188611
20
-3.8922
11
0.186736
21
-3.8847
0
LINE
8
BLACK
6
CONTINUOUS
10
0.186736
20
-3.8847
11
0.186736
21
-3.87533
0
LINE
8
BLACK
6
CONTINUOUS
10
0.186736
20
-3.87533
11
0.188611
21
-3.86783
0
LINE
8
BLACK
6
CONTINUOUS
10
0.188611
20
-3.86783
11
0.190486
21
-3.86408
0
LINE
8
BLACK
6
CONTINUOUS
10
0.190486
20
-3.86408
11
0.192361
21
-3.8622
0
LINE
8
BLACK
6
CONTINUOUS
10
0.192361
20
-3.8622
11
0.19611
21
-3.86033
0
LINE
8
BLACK
6
CONTINUOUS
10
0.256103
20
-3.8997
11
0.256103
21
-3.87345
0
LINE
8
BLACK
6
CONTINUOUS
10
0.256103
20
-3.8772
11
0.257978
21
-3.87533
0
LINE
8
BLACK
6
CONTINUOUS
10
0.257978
20
-3.87533
11
0.261727
21
-3.87345
0
LINE
8
BLACK
6
CONTINUOUS
10
0.261727
20
-3.87345
11
0.267351
21
-3.87345
0
LINE
8
BLACK
6
CONTINUOUS
10
0.267351
20
-3.87345
11
0.271101
21
-3.87533
0
LINE
8
BLACK
6
CONTINUOUS
10
0.271101
20
-3.87533
11
0.272976
21
-3.87908
0
LINE
8
BLACK
6
CONTINUOUS
10
0.272976
20
-3.87908
11
0.272976
21
-3.8997
0
LINE
8
BLACK
6
CONTINUOUS
10
0.272976
20
-3.87908
11
0.27485
21
-3.87533
0
LINE
8
BLACK
6
CONTINUOUS
10
0.27485
20
-3.87533
11
0.2786
21
-3.87345
0
LINE
8
BLACK
6
CONTINUOUS
10
0.2786
20
-3.87345
11
0.284224
21
-3.87345
0
LINE
8
BLACK
6
CONTINUOUS
10
0.284224
20
-3.87345
11
0.287974
21
-3.87533
0
LINE
8
BLACK
6
CONTINUOUS
10
0.287974
20
-3.87533
11
0.289849
21
-3.87908
0
LINE
8
BLACK
6
CONTINUOUS
10
0.289849
20
-3.87908
11
0.289849
21
-3.8997
0
LINE
8
BLACK
6
CONTINUOUS
10
0.308596
20
-3.8997
11
0.308596
21
-3.87345
0
LINE
8
BLACK
6
CONTINUOUS
10
0.308596
20
-3.8772
11
0.310471
21
-3.87533
0
LINE
8
BLACK
6
CONTINUOUS
10
0.310471
20
-3.87533
11
0.314221
21
-3.87345
0
LINE
8
BLACK
6
CONTINUOUS
10
0.314221
20
-3.87345
11
0.319845
21
-3.87345
0
LINE
8
BLACK
6
CONTINUOUS
10
0.319845
20
-3.87345
11
0.323594
21
-3.87533
0
LINE
8
BLACK
6
CONTINUOUS
10
0.323594
20
-3.87533
11
0.325469
21
-3.87908
0
LINE
8
BLACK
6
CONTINUOUS
10
0.325469
20
-3.87908
11
0.325469
21
-3.8997
0
LINE
8
BLACK
6
CONTINUOUS
10
0.325469
20
-3.87908
11
0.327344
21
-3.87533
0
LINE
8
BLACK
6
CONTINUOUS
10
0.327344
20
-3.87533
11
0.331093
21
-3.87345
0
LINE
8
BLACK
6
CONTINUOUS
10
0.331093
20
-3.87345
11
0.336718
21
-3.87345
0
LINE
8
BLACK
6
CONTINUOUS
10
0.336718
20
-3.87345
11
0.340467
21
-3.87533
0
LINE
8
BLACK
6
CONTINUOUS
10
0.340467
20
-3.87533
11
0.342342
21
-3.87908
0
LINE
8
BLACK
6
CONTINUOUS
10
0.342342
20
-3.87908
11
0.342342
21
-3.8997
0
LINE
8
BLACK
6
CONTINUOUS
10
-0.329705
20
-3.83465
11
0.691929
21
-3.83465
0
LINE
8
BLACK
6
CONTINUOUS
10
-0.329705
20
-3.77067
11
-0.329705
21
-3.85773
0
LINE
8
BLACK
6
CONTINUOUS
10
0.691929
20
-3.77067
11
0.691929
21
-3.85773
0
LINE
8
BLACK
6
CONTINUOUS
10
0.691929
20
-3.83465
11
0.647579
21
-3.85773
0
LINE
8
BLACK
6
CONTINUOUS
10
0.691929
20
-3.83465
11
0.647579
21
-3.81156
0
LINE
8
BLACK
6
CONTINUOUS
10
-0.329705
20
-3.83465
11
-0.285354
21
-3.85773
0
LINE
8
BLACK
6
CONTINUOUS
10
-0.329705
20
-3.83465
11
-0.285354
21
-3.81156
0
ARC
8
BLACK
10
0.712795
20
-3.39783
40
0.0209116
50
86.2218
51
176.222
0
LINE
8
BLACK
6
CONTINUOUS
10
0.670079
20
-3.71378
11
-0.310217
21
-3.71378
0
ARC
8
BLACK
10
-0.309035
20
-3.69311
40
0.020703
50
-183.27
51
-93.2705
0
LINE
8
BLACK
6
CONTINUOUS
10
0.691929
20
-3.69429
11
0.691929
21
-3.39646
0
ARC
8
BLACK
10
0.67126
20
-3.69311
40
0.020703
50
-93.2705
51
-3.27049
0
LINE
8
BLACK
6
CONTINUOUS
10
2.13631
20
0.0877015
11
2.11382
21
0.0877015
0
LINE
8
BLACK
6
CONTINUOUS
10
2.12507
20
0.0877015
11
2.12507
21
0.127072
0
LINE
8
BLACK
6
CONTINUOUS
10
2.12507
20
0.127072
11
2.12132
21
0.121447
0
LINE
8
BLACK
6
CONTINUOUS
10
2.12132
20
0.121447
11
2.11757
21
0.117698
0
LINE
8
BLACK
6
CONTINUOUS
10
2.11757
20
0.117698
11
2.11382
21
0.115823
0
LINE
8
BLACK
6
CONTINUOUS
10
2.14944
20
0.127072
11
2.17381
21
0.127072
0
LINE
8
BLACK
6
CONTINUOUS
10
2.17381
20
0.127072
11
2.16069
21
0.112073
0
LINE
8
BLACK
6
CONTINUOUS
10
2.16069
20
0.112073
11
2.16631
21
0.112073
0
LINE
8
BLACK
6
CONTINUOUS
10
2.16631
20
0.112073
11
2.17006
21
0.110199
0
LINE
8
BLACK
6
CONTINUOUS
10
2.17006
20
0.110199
11
2.17193
21
0.108324
0
LINE
8
BLACK
6
CONTINUOUS
10
2.17193
20
0.108324
11
2.17381
21
0.104574
0
LINE
8
BLACK
6
CONTINUOUS
10
2.17381
20
0.104574
11
2.17381
21
0.0952006
0
LINE
8
BLACK
6
CONTINUOUS
10
2.17381
20
0.0952006
11
2.17193
21
0.0914511
0
LINE
8
BLACK
6
CONTINUOUS
10
2.17193
20
0.0914511
11
2.17006
21
0.0895763
0
LINE
8
BLACK
6
CONTINUOUS
10
2.17006
20
0.0895763
11
2.16631
21
0.0877015
0
LINE
8
BLACK
6
CONTINUOUS
10
2.16631
20
0.0877015
11
2.15506
21
0.0877015
0
LINE
8
BLACK
6
CONTINUOUS
10
2.15506
20
0.0877015
11
2.15131
21
0.0895763
0
LINE
8
BLACK
6
CONTINUOUS
10
2.15131
20
0.0895763
11
2.14944
21
0.0914511
0
LINE
8
BLACK
6
CONTINUOUS
10
2.18693
20
0.127072
11
2.2113
21
0.127072
0
LINE
8
BLACK
6
CONTINUOUS
10
2.2113
20
0.127072
11
2.19818
21
0.112073
0
LINE
8
BLACK
6
CONTINUOUS
10
2.19818
20
0.112073
11
2.20381
21
0.112073
0
LINE
8
BLACK
6
CONTINUOUS
10
2.20381
20
0.112073
11
2.20756
21
0.110199
0
LINE
8
BLACK
6
CONTINUOUS
10
2.20756
20
0.110199
11
2.20943
21
0.108324
0
LINE
8
BLACK
6
CONTINUOUS
10
2.20943
20
0.108324
11
2.2113
21
0.104574
0
LINE
8
BLACK
6
CONTINUOUS
10
2.2113
20
0.104574
11
2.2113
21
0.0952006
0
LINE
8
BLACK
6
CONTINUOUS
10
2.2113
20
0.0952006
11
2.20943
21
0.0914511
0
LINE
8
BLACK
6
CONTINUOUS
10
2.20943
20
0.0914511
11
2.20756
21
0.0895763
0
LINE
8
BLACK
6
CONTINUOUS
10
2.20756
20
0.0895763
11
2.20381
21
0.0877015
0
LINE
8
BLACK
6
CONTINUOUS
10
2.20381
20
0.0877015
11
2.19256
21
0.0877015
0
LINE
8
BLACK
6
CONTINUOUS
10
2.19256
20
0.0877015
11
2.18881
21
0.0895763
0
LINE
8
BLACK
6
CONTINUOUS
10
2.18881
20
0.0895763
11
2.18693
21
0.0914511
0
LINE
8
BLACK
6
CONTINUOUS
10
2.22818
20
0.0914511
11
2.23005
21
0.0895763
0
LINE
8
BLACK
6
CONTINUOUS
10
2.23005
20
0.0895763
11
2.22818
21
0.0877015
0
LINE
8
BLACK
6
CONTINUOUS
10
2.22818
20
0.0877015
11
2.2263
21
0.0895763
0
LINE
8
BLACK
6
CONTINUOUS
10
2.2263
20
0.0895763
11
2.22818
21
0.0914511
0
LINE
8
BLACK
6
CONTINUOUS
10
2.22818
20
0.0914511
11
2.22818
21
0.0877015
0
LINE
8
BLACK
6
CONTINUOUS
10
2.24318
20
0.127072
11
2.26755
21
0.127072
0
LINE
8
BLACK
6
CONTINUOUS
10
2.26755
20
0.127072
11
2.25442
21
0.112073
0
LINE
8
BLACK
6
CONTINUOUS
10
2.25442
20
0.112073
11
2.26005
21
0.112073
0
LINE
8
BLACK
6
CONTINUOUS
10
2.26005
20
0.112073
11
2.2638
21
0.110199
0
LINE
8
BLACK
6
CONTINUOUS
10
2.2638
20
0.110199
11
2.26567
21
0.108324
0
LINE
8
BLACK
6
CONTINUOUS
10
2.26567
20
0.108324
11
2.26755
21
0.104574
0
LINE
8
BLACK
6
CONTINUOUS
10
2.26755
20
0.104574
11
2.26755
21
0.0952006
0
LINE
8
BLACK
6
CONTINUOUS
10
2.26755
20
0.0952006
11
2.26567
21
0.0914511
0
LINE
8
BLACK
6
CONTINUOUS
10
2.26567
20
0.0914511
11
2.2638
21
0.0895763
0
LINE
8
BLACK
6
CONTINUOUS
10
2.2638
20
0.0895763
11
2.26005
21
0.0877015
0
LINE
8
BLACK
6
CONTINUOUS
10
2.26005
20
0.0877015
11
2.2488
21
0.0877015
0
LINE
8
BLACK
6
CONTINUOUS
10
2.2488
20
0.0877015
11
2.24505
21
0.0895763
0
LINE
8
BLACK
6
CONTINUOUS
10
2.24505
20
0.0895763
11
2.24318
21
0.0914511
0
LINE
8
BLACK
6
CONTINUOUS
10
2.29004
20
0.110199
11
2.2863
21
0.112073
0
LINE
8
BLACK
6
CONTINUOUS
10
2.2863
20
0.112073
11
2.28442
21
0.113948
0
LINE
8
BLACK
6
CONTINUOUS
10
2.28442
20
0.113948
11
2.28255
21
0.117698
0
LINE
8
BLACK
6
CONTINUOUS
10
2.28255
20
0.117698
11
2.28255
21
0.119573
0
LINE
8
BLACK
6
CONTINUOUS
10
2.28255
20
0.119573
11
2.28442
21
0.123322
0
LINE
8
BLACK
6
CONTINUOUS
10
2.28442
20
0.123322
11
2.2863
21
0.125197
0
LINE
8
BLACK
6
CONTINUOUS
10
2.2863
20
0.125197
11
2.29004
21
0.127072
0
LINE
8
BLACK
6
CONTINUOUS
10
2.29004
20
0.127072
11
2.29754
21
0.127072
0
LINE
8
BLACK
6
CONTINUOUS
10
2.29754
20
0.127072
11
2.30129
21
0.125197
0
LINE
8
BLACK
6
CONTINUOUS
10
2.30129
20
0.125197
11
2.30317
21
0.123322
0
LINE
8
BLACK
6
CONTINUOUS
10
2.30317
20
0.123322
11
2.30504
21
0.119573
0
LINE
8
BLACK
6
CONTINUOUS
10
2.30504
20
0.119573
11
2.30504
21
0.117698
0
LINE
8
BLACK
6
CONTINUOUS
10
2.30504
20
0.117698
11
2.30317
21
0.113948
0
LINE
8
BLACK
6
CONTINUOUS
10
2.30317
20
0.113948
11
2.30129
21
0.112073
0
LINE
8
BLACK
6
CONTINUOUS
10
2.30129
20
0.112073
11
2.29754
21
0.110199
0
LINE
8
BLACK
6
CONTINUOUS
10
2.29754
20
0.110199
11
2.29004
21
0.110199
0
LINE
8
BLACK
6
CONTINUOUS
10
2.29004
20
0.110199
11
2.2863
21
0.108324
0
LINE
8
BLACK
6
CONTINUOUS
10
2.2863
20
0.108324
11
2.28442
21
0.106449
0
LINE
8
BLACK
6
CONTINUOUS
10
2.28442
20
0.106449
11
2.28255
21
0.1027
0
LINE
8
BLACK
6
CONTINUOUS
10
2.28255
20
0.1027
11
2.28255
21
0.0952006
0
LINE
8
BLACK
6
CONTINUOUS
10
2.28255
20
0.0952006
11
2.28442
21
0.0914511
0
LINE
8
BLACK
6
CONTINUOUS
10
2.28442
20
0.0914511
11
2.2863
21
0.0895763
0
LINE
8
BLACK
6
CONTINUOUS
10
2.2863
20
0.0895763
11
2.29004
21
0.0877015
0
LINE
8
BLACK
6
CONTINUOUS
10
2.29004
20
0.0877015
11
2.29754
21
0.0877015
0
LINE
8
BLACK
6
CONTINUOUS
10
2.29754
20
0.0877015
11
2.30129
21
0.0895763
0
LINE
8
BLACK
6
CONTINUOUS
10
2.30129
20
0.0895763
11
2.30317
21
0.0914511
0
LINE
8
BLACK
6
CONTINUOUS
10
2.30317
20
0.0914511
11
2.30504
21
0.0952006
0
LINE
8
BLACK
6
CONTINUOUS
10
2.30504
20
0.0952006
11
2.30504
21
0.1027
0
LINE
8
BLACK
6
CONTINUOUS
10
2.30504
20
0.1027
11
2.30317
21
0.106449
0
LINE
8
BLACK
6
CONTINUOUS
10
2.30317
20
0.106449
11
2.30129
21
0.108324
0
LINE
8
BLACK
6
CONTINUOUS
10
2.30129
20
0.108324
11
2.29754
21
0.110199
0
LINE
8
BLACK
6
CONTINUOUS
10
2.32942
20
0.127072
11
2.33316
21
0.127072
0
LINE
8
BLACK
6
CONTINUOUS
10
2.33316
20
0.127072
11
2.33691
21
0.125197
0
LINE
8
BLACK
6
CONTINUOUS
10
2.33691
20
0.125197
11
2.33879
21
0.123322
0
LINE
8
BLACK
6
CONTINUOUS
10
2.33879
20
0.123322
11
2.34066
21
0.119573
0
LINE
8
BLACK
6
CONTINUOUS
10
2.34066
20
0.119573
11
2.34254
21
0.112073
0
LINE
8
BLACK
6
CONTINUOUS
10
2.34254
20
0.112073
11
2.34254
21
0.1027
0
LINE
8
BLACK
6
CONTINUOUS
10
2.34254
20
0.1027
11
2.34066
21
0.0952006
0
LINE
8
BLACK
6
CONTINUOUS
10
2.34066
20
0.0952006
11
2.33879
21
0.0914511
0
LINE
8
BLACK
6
CONTINUOUS
10
2.33879
20
0.0914511
11
2.33691
21
0.0895763
0
LINE
8
BLACK
6
CONTINUOUS
10
2.33691
20
0.0895763
11
2.33316
21
0.0877015
0
LINE
8
BLACK
6
CONTINUOUS
10
2.33316
20
0.0877015
11
2.32942
21
0.0877015
0
LINE
8
BLACK
6
CONTINUOUS
10
2.32942
20
0.0877015
11
2.32567
21
0.0895763
0
LINE
8
BLACK
6
CONTINUOUS
10
2.32567
20
0.0895763
11
2.32379
21
0.0914511
0
LINE
8
BLACK
6
CONTINUOUS
10
2.32379
20
0.0914511
11
2.32192
21
0.0952006
0
LINE
8
BLACK
6
CONTINUOUS
10
2.32192
20
0.0952006
11
2.32004
21
0.1027
0
LINE
8
BLACK
6
CONTINUOUS
10
2.32004
20
0.1027
11
2.32004
21
0.112073
0
LINE
8
BLACK
6
CONTINUOUS
10
2.32004
20
0.112073
11
2.32192
21
0.119573
0
LINE
8
BLACK
6
CONTINUOUS
10
2.32192
20
0.119573
11
2.32379
21
0.123322
0
LINE
8
BLACK
6
CONTINUOUS
10
2.32379
20
0.123322
11
2.32567
21
0.125197
0
LINE
8
BLACK
6
CONTINUOUS
10
2.32567
20
0.125197
11
2.32942
21
0.127072
0
LINE
8
BLACK
6
CONTINUOUS
10
2.38941
20
0.0877015
11
2.38941
21
0.113948
0
LINE
8
BLACK
6
CONTINUOUS
10
2.38941
20
0.110199
11
2.39128
21
0.112073
0
LINE
8
BLACK
6
CONTINUOUS
10
2.39128
20
0.112073
11
2.39503
21
0.113948
0
LINE
8
BLACK
6
CONTINUOUS
10
2.39503
20
0.113948
11
2.40066
21
0.113948
0
LINE
8
BLACK
6
CONTINUOUS
10
2.40066
20
0.113948
11
2.40441
21
0.112073
0
LINE
8
BLACK
6
CONTINUOUS
10
2.40441
20
0.112073
11
2.40628
21
0.108324
0
LINE
8
BLACK
6
CONTINUOUS
10
2.40628
20
0.108324
11
2.40628
21
0.0877015
0
LINE
8
BLACK
6
CONTINUOUS
10
2.40628
20
0.108324
11
2.40816
21
0.112073
0
LINE
8
BLACK
6
CONTINUOUS
10
2.40816
20
0.112073
11
2.4119
21
0.113948
0
LINE
8
BLACK
6
CONTINUOUS
10
2.4119
20
0.113948
11
2.41753
21
0.113948
0
LINE
8
BLACK
6
CONTINUOUS
10
2.41753
20
0.113948
11
2.42128
21
0.112073
0
LINE
8
BLACK
6
CONTINUOUS
10
2.42128
20
0.112073
11
2.42315
21
0.108324
0
LINE
8
BLACK
6
CONTINUOUS
10
2.42315
20
0.108324
11
2.42315
21
0.0877015
0
LINE
8
BLACK
6
CONTINUOUS
10
2.4419
20
0.0877015
11
2.4419
21
0.113948
0
LINE
8
BLACK
6
CONTINUOUS
10
2.4419
20
0.110199
11
2.44378
21
0.112073
0
LINE
8
BLACK
6
CONTINUOUS
10
2.44378
20
0.112073
11
2.44753
21
0.113948
0
LINE
8
BLACK
6
CONTINUOUS
10
2.44753
20
0.113948
11
2.45315
21
0.113948
0
LINE
8
BLACK
6
CONTINUOUS
10
2.45315
20
0.113948
11
2.4569
21
0.112073
0
LINE
8
BLACK
6
CONTINUOUS
10
2.4569
20
0.112073
11
2.45877
21
0.108324
0
LINE
8
BLACK
6
CONTINUOUS
10
2.45877
20
0.108324
11
2.45877
21
0.0877015
0
LINE
8
BLACK
6
CONTINUOUS
10
2.45877
20
0.108324
11
2.46065
21
0.112073
0
LINE
8
BLACK
6
CONTINUOUS
10
2.46065
20
0.112073
11
2.4644
21
0.113948
0
LINE
8
BLACK
6
CONTINUOUS
10
2.4644
20
0.113948
11
2.47002
21
0.113948
0
LINE
8
BLACK
6
CONTINUOUS
10
2.47002
20
0.113948
11
2.47377
21
0.112073
0
LINE
8
BLACK
6
CONTINUOUS
10
2.47377
20
0.112073
11
2.47565
21
0.108324
0
LINE
8
BLACK
6
CONTINUOUS
10
2.47565
20
0.108324
11
2.47565
21
0.0877015
0
LINE
8
BLACK
6
CONTINUOUS
10
4.92126
20
0.0582677
11
-0.329921
21
0.0582677
0
LINE
8
BLACK
6
CONTINUOUS
10
4.92126
20
-0.283465
11
4.92126
21
0.0813552
0
LINE
8
BLACK
6
CONTINUOUS
10
-0.329921
20
-0.283465
11
-0.329921
21
0.0813552
0
LINE
8
BLACK
6
CONTINUOUS
10
-0.329921
20
0.0582677
11
-0.285571
21
0.0813552
0
LINE
8
BLACK
6
CONTINUOUS
10
-0.329921
20
0.0582677
11
-0.285571
21
0.0351803
0
LINE
8
BLACK
6
CONTINUOUS
10
4.92126
20
0.0582677
11
4.87691
21
0.0813552
0
LINE
8
BLACK
6
CONTINUOUS
10
4.92126
20
0.0582677
11
4.87691
21
0.0351803
0
LINE
8
BLACK
6
CONTINUOUS
10
5.87201
20
-1.88977
11
5.87388
21
-1.88602
0
LINE
8
BLACK
6
CONTINUOUS
10
5.87388
20
-1.88602
11
5.87576
21
-1.88414
0
LINE
8
BLACK
6
CONTINUOUS
10
5.87576
20
-1.88414
11
5.87951
21
-1.88227
0
LINE
8
BLACK
6
CONTINUOUS
10
5.87951
20
-1.88227
11
5.88138
21
-1.88227
0
LINE
8
BLACK
6
CONTINUOUS
10
5.88138
20
-1.88227
11
5.88513
21
-1.88414
0
LINE
8
BLACK
6
CONTINUOUS
10
5.88513
20
-1.88414
11
5.88701
21
-1.88602
0
LINE
8
BLACK
6
CONTINUOUS
10
5.88701
20
-1.88602
11
5.88888
21
-1.88977
0
LINE
8
BLACK
6
CONTINUOUS
10
5.88888
20
-1.88977
11
5.88888
21
-1.89727
0
LINE
8
BLACK
6
CONTINUOUS
10
5.88888
20
-1.89727
11
5.88701
21
-1.90102
0
LINE
8
BLACK
6
CONTINUOUS
10
5.88701
20
-1.90102
11
5.88513
21
-1.90289
0
LINE
8
BLACK
6
CONTINUOUS
10
5.88513
20
-1.90289
11
5.88138
21
-1.90477
0
LINE
8
BLACK
6
CONTINUOUS
10
5.88138
20
-1.90477
11
5.87951
21
-1.90477
0
LINE
8
BLACK
6
CONTINUOUS
10
5.87951
20
-1.90477
11
5.87576
21
-1.90289
0
LINE
8
BLACK
6
CONTINUOUS
10
5.87576
20
-1.90289
11
5.87388
21
-1.90102
0
LINE
8
BLACK
6
CONTINUOUS
10
5.87388
20
-1.90102
11
5.87201
21
-1.89727
0
LINE
8
BLACK
6
CONTINUOUS
10
5.87201
20
-1.89727
11
5.87201
21
-1.88977
0
LINE
8
BLACK
6
CONTINUOUS
10
5.87201
20
-1.88977
11
5.87013
21
-1.88602
0
LINE
8
BLACK
6
CONTINUOUS
10
5.87013
20
-1.88602
11
5.86826
21
-1.88414
0
LINE
8
BLACK
6
CONTINUOUS
10
5.86826
20
-1.88414
11
5.86451
21
-1.88227
0
LINE
8
BLACK
6
CONTINUOUS
10
5.86451
20
-1.88227
11
5.85701
21
-1.88227
0
LINE
8
BLACK
6
CONTINUOUS
10
5.85701
20
-1.88227
11
5.85326
21
-1.88414
0
LINE
8
BLACK
6
CONTINUOUS
10
5.85326
20
-1.88414
11
5.85139
21
-1.88602
0
LINE
8
BLACK
6
CONTINUOUS
10
5.85139
20
-1.88602
11
5.84951
21
-1.88977
0
LINE
8
BLACK
6
CONTINUOUS
10
5.84951
20
-1.88977
11
5.84951
21
-1.89727
0
LINE
8
BLACK
6
CONTINUOUS
10
5.84951
20
-1.89727
11
5.85139
21
-1.90102
0
LINE
8
BLACK
6
CONTINUOUS
10
5.85139
20
-1.90102
11
5.85326
21
-1.90289
0
LINE
8
BLACK
6
CONTINUOUS
10
5.85326
20
-1.90289
11
5.85701
21
-1.90477
0
LINE
8
BLACK
6
CONTINUOUS
10
5.85701
20
-1.90477
11
5.86451
21
-1.90477
0
LINE
8
BLACK
6
CONTINUOUS
10
5.86451
20
-1.90477
11
5.86826
21
-1.90289
0
LINE
8
BLACK
6
CONTINUOUS
10
5.86826
20
-1.90289
11
5.87013
21
-1.90102
0
LINE
8
BLACK
6
CONTINUOUS
10
5.87013
20
-1.90102
11
5.87201
21
-1.89727
0
LINE
8
BLACK
6
CONTINUOUS
10
5.87576
20
-1.93851
11
5.84951
21
-1.93851
0
LINE
8
BLACK
6
CONTINUOUS
10
5.89076
20
-1.92914
11
5.86264
21
-1.91976
0
LINE
8
BLACK
6
CONTINUOUS
10
5.86264
20
-1.91976
11
5.86264
21
-1.94414
0
LINE
8
BLACK
6
CONTINUOUS
10
5.85326
20
-1.95913
11
5.85139
21
-1.96101
0
LINE
8
BLACK
6
CONTINUOUS
10
5.85139
20
-1.96101
11
5.84951
21
-1.95913
0
LINE
8
BLACK
6
CONTINUOUS
10
5.84951
20
-1.95913
11
5.85139
21
-1.95726
0
LINE
8
BLACK
6
CONTINUOUS
10
5.85139
20
-1.95726
11
5.85326
21
-1.95913
0
LINE
8
BLACK
6
CONTINUOUS
10
5.85326
20
-1.95913
11
5.84951
21
-1.95913
0
LINE
8
BLACK
6
CONTINUOUS
10
5.88888
20
-1.97413
11
5.88888
21
-2.00038
0
LINE
8
BLACK
6
CONTINUOUS
10
5.88888
20
-2.00038
11
5.84951
21
-1.98351
0
LINE
8
BLACK
6
CONTINUOUS
10
5.88888
20
-2.03413
11
5.88888
21
-2.01538
0
LINE
8
BLACK
6
CONTINUOUS
10
5.88888
20
-2.01538
11
5.87013
21
-2.0135
0
LINE
8
BLACK
6
CONTINUOUS
10
5.87013
20
-2.0135
11
5.87201
21
-2.01538
0
LINE
8
BLACK
6
CONTINUOUS
10
5.87201
20
-2.01538
11
5.87388
21
-2.01913
0
LINE
8
BLACK
6
CONTINUOUS
10
5.87388
20
-2.01913
11
5.87388
21
-2.0285
0
LINE
8
BLACK
6
CONTINUOUS
10
5.87388
20
-2.0285
11
5.87201
21
-2.03225
0
LINE
8
BLACK
6
CONTINUOUS
10
5.87201
20
-2.03225
11
5.87013
21
-2.03413
0
LINE
8
BLACK
6
CONTINUOUS
10
5.87013
20
-2.03413
11
5.86639
21
-2.036
0
LINE
8
BLACK
6
CONTINUOUS
10
5.86639
20
-2.036
11
5.85701
21
-2.036
0
LINE
8
BLACK
6
CONTINUOUS
10
5.85701
20
-2.036
11
5.85326
21
-2.03413
0
LINE
8
BLACK
6
CONTINUOUS
10
5.85326
20
-2.03413
11
5.85139
21
-2.03225
0
LINE
8
BLACK
6
CONTINUOUS
10
5.85139
20
-2.03225
11
5.84951
21
-2.0285
0
LINE
8
BLACK
6
CONTINUOUS
10
5.84951
20
-2.0285
11
5.84951
21
-2.01913
0
LINE
8
BLACK
6
CONTINUOUS
10
5.84951
20
-2.01913
11
5.85139
21
-2.01538
0
LINE
8
BLACK
6
CONTINUOUS
10
5.85139
20
-2.01538
11
5.85326
21
-2.0135
0
LINE
8
BLACK
6
CONTINUOUS
10
5.88888
20
-2.07162
11
5.88888
21
-2.05287
0
LINE
8
BLACK
6
CONTINUOUS
10
5.88888
20
-2.05287
11
5.87013
21
-2.051
0
LINE
8
BLACK
6
CONTINUOUS
10
5.87013
20
-2.051
11
5.87201
21
-2.05287
0
LINE
8
BLACK
6
CONTINUOUS
10
5.87201
20
-2.05287
11
5.87388
21
-2.05662
0
LINE
8
BLACK
6
CONTINUOUS
10
5.87388
20
-2.05662
11
5.87388
21
-2.066
0
LINE
8
BLACK
6
CONTINUOUS
10
5.87388
20
-2.066
11
5.87201
21
-2.06975
0
LINE
8
BLACK
6
CONTINUOUS
10
5.87201
20
-2.06975
11
5.87013
21
-2.07162
0
LINE
8
BLACK
6
CONTINUOUS
10
5.87013
20
-2.07162
11
5.86639
21
-2.0735
0
LINE
8
BLACK
6
CONTINUOUS
10
5.86639
20
-2.0735
11
5.85701
21
-2.0735
0
LINE
8
BLACK
6
CONTINUOUS
10
5.85701
20
-2.0735
11
5.85326
21
-2.07162
0
LINE
8
BLACK
6
CONTINUOUS
10
5.85326
20
-2.07162
11
5.85139
21
-2.06975
0
LINE
8
BLACK
6
CONTINUOUS
10
5.85139
20
-2.06975
11
5.84951
21
-2.066
0
LINE
8
BLACK
6
CONTINUOUS
10
5.84951
20
-2.066
11
5.84951
21
-2.05662
0
LINE
8
BLACK
6
CONTINUOUS
10
5.84951
20
-2.05662
11
5.85139
21
-2.05287
0
LINE
8
BLACK
6
CONTINUOUS
10
5.85139
20
-2.05287
11
5.85326
21
-2.051
0
LINE
8
BLACK
6
CONTINUOUS
10
5.84951
20
-2.12036
11
5.87576
21
-2.12036
0
LINE
8
BLACK
6
CONTINUOUS
10
5.87201
20
-2.12036
11
5.87388
21
-2.12224
0
LINE
8
BLACK
6
CONTINUOUS
10
5.87388
20
-2.12224
11
5.87576
21
-2.12599
0
LINE
8
BLACK
6
CONTINUOUS
10
5.87576
20
-2.12599
11
5.87576
21
-2.13161
0
LINE
8
BLACK
6
CONTINUOUS
10
5.87576
20
-2.13161
11
5.87388
21
-2.13536
0
LINE
8
BLACK
6
CONTINUOUS
10
5.87388
20
-2.13536
11
5.87013
21
-2.13724
0
LINE
8
BLACK
6
CONTINUOUS
10
5.87013
20
-2.13724
11
5.84951
21
-2.13724
0
LINE
8
BLACK
6
CONTINUOUS
10
5.87013
20
-2.13724
11
5.87388
21
-2.13911
0
LINE
8
BLACK
6
CONTINUOUS
10
5.87388
20
-2.13911
11
5.87576
21
-2.14286
0
LINE
8
BLACK
6
CONTINUOUS
10
5.87576
20
-2.14286
11
5.87576
21
-2.14849
0
LINE
8
BLACK
6
CONTINUOUS
10
5.87576
20
-2.14849
11
5.87388
21
-2.15224
0
LINE
8
BLACK
6
CONTINUOUS
10
5.87388
20
-2.15224
11
5.87013
21
-2.15411
0
LINE
8
BLACK
6
CONTINUOUS
10
5.87013
20
-2.15411
11
5.84951
21
-2.15411
0
LINE
8
BLACK
6
CONTINUOUS
10
5.84951
20
-2.17286
11
5.87576
21
-2.17286
0
LINE
8
BLACK
6
CONTINUOUS
10
5.87201
20
-2.17286
11
5.87388
21
-2.17473
0
LINE
8
BLACK
6
CONTINUOUS
10
5.87388
20
-2.17473
11
5.87576
21
-2.17848
0
LINE
8
BLACK
6
CONTINUOUS
10
5.87576
20
-2.17848
11
5.87576
21
-2.18411
0
LINE
8
BLACK
6
CONTINUOUS
10
5.87576
20
-2.18411
11
5.87388
21
-2.18786
0
LINE
8
BLACK
6
CONTINUOUS
10
5.87388
20
-2.18786
11
5.87013
21
-2.18973
0
LINE
8
BLACK
6
CONTINUOUS
10
5.87013
20
-2.18973
11
5.84951
21
-2.18973
0
LINE
8
BLACK
6
CONTINUOUS
10
5.87013
20
-2.18973
11
5.87388
21
-2.19161
0
LINE
8
BLACK
6
CONTINUOUS
10
5.87388
20
-2.19161
11
5.87576
21
-2.19536
0
LINE
8
BLACK
6
CONTINUOUS
10
5.87576
20
-2.19536
11
5.87576
21
-2.20098
0
LINE
8
BLACK
6
CONTINUOUS
10
5.87576
20
-2.20098
11
5.87388
21
-2.20473
0
LINE
8
BLACK
6
CONTINUOUS
10
5.87388
20
-2.20473
11
5.87013
21
-2.2066
0
LINE
8
BLACK
6
CONTINUOUS
10
5.87013
20
-2.2066
11
5.84951
21
-2.2066
0
LINE
8
BLACK
6
CONTINUOUS
10
5.82008
20
-0.376969
11
5.82008
21
-3.71378
0
LINE
8
BLACK
6
CONTINUOUS
10
5.29488
20
-0.376969
11
5.84317
21
-0.376969
0
LINE
8
BLACK
6
CONTINUOUS
10
5.29488
20
-3.71378
11
5.84317
21
-3.71378
0
LINE
8
BLACK
6
CONTINUOUS
10
5.82008
20
-3.71378
11
5.79699
21
-3.66943
0
LINE
8
BLACK
6
CONTINUOUS
10
5.82008
20
-3.71378
11
5.84317
21
-3.66943
0
LINE
8
BLACK
6
CONTINUOUS
10
5.82008
20
-0.376969
11
5.79699
21
-0.421319
0
LINE
8
BLACK
6
CONTINUOUS
10
5.82008
20
-0.376969
11
5.84317
21
-0.421319
0
LINE
8
BLACK
6
CONTINUOUS
10
4.92146
20
-2.5
11
5.1937
21
-3.02283
0
LINE
8
BLACK
6
CONTINUOUS
10
4.15256
20
-3.37697
11
3.98278
21
-3.37697
0
LINE
8
BLACK
6
CONTINUOUS
10
4.17205
20
-3.69193
11
4.17205
21
-3.39882
0
ARC
8
BLACK
10
4.19272
20
-3.69311
40
0.020703
50
-183.27
51
-93.2705
0
ARC
8
BLACK
10
4.15138
20
-3.39764
40
0.020703
50
-3.27049
51
86.7295
0
LINE
8
BLACK
6
CONTINUOUS
10
0.714173
20
-3.37697
11
1.92028
21
-3.37697
0
LINE
8
BLACK
6
CONTINUOUS
10
5.1937
20
-3.69429
11
5.1937
21
-3.02283
0
LINE
8
BLACK
6
CONTINUOUS
10
3.04163
20
-3.37697
11
3.98278
21
-3.37697
0
LINE
8
BLACK
6
CONTINUOUS
10
4.92146
20
-0.398819
11
4.92146
21
-2.5
0
ARC
8
BLACK
10
5.17303
20
-3.69311
40
0.020703
50
-93.2705
51
-3.27049
0
LINE
8
BLACK
6
CONTINUOUS
10
5.17185
20
-3.71378
11
4.19154
21
-3.71378
0
ARC
8
BLACK
10
4.90079
20
-0.397638
40
0.020703
50
-3.27049
51
86.7295
0
ARC
8
BLACK
10
-0.309055
20
-0.397638
40
0.020703
50
86.7295
51
176.73
0
LINE
8
BLACK
6
CONTINUOUS
10
3.04163
20
-3.37697
11
1.92028
21
-3.37697
0
LINE
8
BLACK
6
CONTINUOUS
10
-0.307874
20
-0.376969
11
4.90197
21
-0.376969
0
LINE
8
BLACK
6
CONTINUOUS
10
-0.329724
20
-0.396654
11
-0.329705
21
-3.69193
0
LINE
8
BLACK
6
CONTINUOUS
10
4.69388
20
-2.80989
11
4.69826
21
-2.81076
0
LINE
8
BLACK
6
CONTINUOUS
10
4.69826
20
-2.81076
11
4.7065
21
-2.81417
0
LINE
8
BLACK
6
CONTINUOUS
10
4.7065
20
-2.81417
11
4.71393
21
-2.81913
0
LINE
8
BLACK
6
CONTINUOUS
10
4.71393
20
-2.81913
11
4.72024
21
-2.82544
0
LINE
8
BLACK
6
CONTINUOUS
10
4.72024
20
-2.82544
11
4.7252
21
-2.83287
0
LINE
8
BLACK
6
CONTINUOUS
10
4.7252
20
-2.83287
11
4.72861
21
-2.84111
0
LINE
8
BLACK
6
CONTINUOUS
10
4.72861
20
-2.84111
11
4.73035
21
-2.84987
0
LINE
8
BLACK
6
CONTINUOUS
10
4.73035
20
-2.84987
11
4.73035
21
-2.85879
0
LINE
8
BLACK
6
CONTINUOUS
10
4.73035
20
-2.85879
11
4.72861
21
-2.86755
0
LINE
8
BLACK
6
CONTINUOUS
10
4.72861
20
-2.86755
11
4.7252
21
-2.8758
0
LINE
8
BLACK
6
CONTINUOUS
10
4.7252
20
-2.8758
11
4.72024
21
-2.88322
0
LINE
8
BLACK
6
CONTINUOUS
10
4.72024
20
-2.88322
11
4.71393
21
-2.88953
0
LINE
8
BLACK
6
CONTINUOUS
10
4.71393
20
-2.88953
11
4.7065
21
-2.89449
0
LINE
8
BLACK
6
CONTINUOUS
10
4.7065
20
-2.89449
11
4.69826
21
-2.8979
0
LINE
8
BLACK
6
CONTINUOUS
10
4.69826
20
-2.8979
11
4.69388
21
-2.89877
0
LINE
8
BLACK
6
CONTINUOUS
10
4.69388
20
-2.89877
11
4.6895
21
-2.89965
0
LINE
8
BLACK
6
CONTINUOUS
10
4.6895
20
-2.89965
11
4.68058
21
-2.89965
0
LINE
8
BLACK
6
CONTINUOUS
10
4.68058
20
-2.89965
11
4.6762
21
-2.89877
0
LINE
8
BLACK
6
CONTINUOUS
10
4.6762
20
-2.89877
11
4.67182
21
-2.8979
0
LINE
8
BLACK
6
CONTINUOUS
10
4.67182
20
-2.8979
11
4.66357
21
-2.89449
0
LINE
8
BLACK
6
CONTINUOUS
10
4.66357
20
-2.89449
11
4.65615
21
-2.88953
0
LINE
8
BLACK
6
CONTINUOUS
10
4.65615
20
-2.88953
11
4.64984
21
-2.88322
0
LINE
8
BLACK
6
CONTINUOUS
10
4.64984
20
-2.88322
11
4.64488
21
-2.8758
0
LINE
8
BLACK
6
CONTINUOUS
10
4.64488
20
-2.8758
11
4.64147
21
-2.86755
0
LINE
8
BLACK
6
CONTINUOUS
10
4.64147
20
-2.86755
11
4.63972
21
-2.85879
0
LINE
8
BLACK
6
CONTINUOUS
10
4.63972
20
-2.85879
11
4.63972
21
-2.84987
0
LINE
8
BLACK
6
CONTINUOUS
10
4.63972
20
-2.84987
11
4.64147
21
-2.84111
0
LINE
8
BLACK
6
CONTINUOUS
10
4.64147
20
-2.84111
11
4.64488
21
-2.83287
0
LINE
8
BLACK
6
CONTINUOUS
10
4.64488
20
-2.83287
11
4.64984
21
-2.82544
0
LINE
8
BLACK
6
CONTINUOUS
10
4.64984
20
-2.82544
11
4.65615
21
-2.81913
0
LINE
8
BLACK
6
CONTINUOUS
10
4.65615
20
-2.81913
11
4.66357
21
-2.81417
0
LINE
8
BLACK
6
CONTINUOUS
10
4.66357
20
-2.81417
11
4.67182
21
-2.81076
0
LINE
8
BLACK
6
CONTINUOUS
10
4.67182
20
-2.81076
11
4.6762
21
-2.80989
0
LINE
8
BLACK
6
CONTINUOUS
10
4.6762
20
-2.80989
11
4.68058
21
-2.80902
0
LINE
8
BLACK
6
CONTINUOUS
10
4.68058
20
-2.80902
11
4.6895
21
-2.80902
0
LINE
8
BLACK
6
CONTINUOUS
10
4.6895
20
-2.80902
11
4.69388
21
-2.80989
0
LINE
8
BLACK
6
CONTINUOUS
10
3.42813
20
-2.56579
11
3.43251
21
-2.56666
0
LINE
8
BLACK
6
CONTINUOUS
10
3.43251
20
-2.56666
11
3.44076
21
-2.57008
0
LINE
8
BLACK
6
CONTINUOUS
10
3.44076
20
-2.57008
11
3.44818
21
-2.57504
0
LINE
8
BLACK
6
CONTINUOUS
10
3.44818
20
-2.57504
11
3.45449
21
-2.58135
0
LINE
8
BLACK
6
CONTINUOUS
10
3.45449
20
-2.58135
11
3.45945
21
-2.58877
0
LINE
8
BLACK
6
CONTINUOUS
10
3.45945
20
-2.58877
11
3.46286
21
-2.59702
0
LINE
8
BLACK
6
CONTINUOUS
10
3.46286
20
-2.59702
11
3.46461
21
-2.60577
0
LINE
8
BLACK
6
CONTINUOUS
10
3.46461
20
-2.60577
11
3.46461
21
-2.6147
0
LINE
8
BLACK
6
CONTINUOUS
10
3.46461
20
-2.6147
11
3.46286
21
-2.62345
0
LINE
8
BLACK
6
CONTINUOUS
10
3.46286
20
-2.62345
11
3.45945
21
-2.6317
0
LINE
8
BLACK
6
CONTINUOUS
10
3.45945
20
-2.6317
11
3.45449
21
-2.63912
0
LINE
8
BLACK
6
CONTINUOUS
10
3.45449
20
-2.63912
11
3.44818
21
-2.64543
0
LINE
8
BLACK
6
CONTINUOUS
10
3.44818
20
-2.64543
11
3.44076
21
-2.65039
0
LINE
8
BLACK
6
CONTINUOUS
10
3.44076
20
-2.65039
11
3.43251
21
-2.65381
0
LINE
8
BLACK
6
CONTINUOUS
10
3.43251
20
-2.65381
11
3.42813
21
-2.65468
0
LINE
8
BLACK
6
CONTINUOUS
10
3.42813
20
-2.65468
11
3.42375
21
-2.65555
0
LINE
8
BLACK
6
CONTINUOUS
10
3.42375
20
-2.65555
11
3.41483
21
-2.65555
0
LINE
8
BLACK
6
CONTINUOUS
10
3.41483
20
-2.65555
11
3.41045
21
-2.65468
0
LINE
8
BLACK
6
CONTINUOUS
10
3.41045
20
-2.65468
11
3.40607
21
-2.65381
0
LINE
8
BLACK
6
CONTINUOUS
10
3.40607
20
-2.65381
11
3.39783
21
-2.65039
0
LINE
8
BLACK
6
CONTINUOUS
10
3.39783
20
-2.65039
11
3.3904
21
-2.64543
0
LINE
8
BLACK
6
CONTINUOUS
10
3.3904
20
-2.64543
11
3.38409
21
-2.63912
0
LINE
8
BLACK
6
CONTINUOUS
10
3.38409
20
-2.63912
11
3.37913
21
-2.6317
0
LINE
8
BLACK
6
CONTINUOUS
10
3.37913
20
-2.6317
11
3.37572
21
-2.62345
0
LINE
8
BLACK
6
CONTINUOUS
10
3.37572
20
-2.62345
11
3.37398
21
-2.6147
0
LINE
8
BLACK
6
CONTINUOUS
10
3.37398
20
-2.6147
11
3.37398
21
-2.60577
0
LINE
8
BLACK
6
CONTINUOUS
10
3.37398
20
-2.60577
11
3.37572
21
-2.59702
0
LINE
8
BLACK
6
CONTINUOUS
10
3.37572
20
-2.59702
11
3.37913
21
-2.58877
0
LINE
8
BLACK
6
CONTINUOUS
10
3.37913
20
-2.58877
11
3.38409
21
-2.58135
0
LINE
8
BLACK
6
CONTINUOUS
10
3.38409
20
-2.58135
11
3.3904
21
-2.57504
0
LINE
8
BLACK
6
CONTINUOUS
10
3.3904
20
-2.57504
11
3.39783
21
-2.57008
0
LINE
8
BLACK
6
CONTINUOUS
10
3.39783
20
-2.57008
11
3.40607
21
-2.56666
0
LINE
8
BLACK
6
CONTINUOUS
10
3.40607
20
-2.56666
11
3.41045
21
-2.56579
0
LINE
8
BLACK
6
CONTINUOUS
10
3.41045
20
-2.56579
11
3.41483
21
-2.56492
0
LINE
8
BLACK
6
CONTINUOUS
10
3.41483
20
-2.56492
11
3.42375
21
-2.56492
0
LINE
8
BLACK
6
CONTINUOUS
10
3.42375
20
-2.56492
11
3.42813
21
-2.56579
0
LINE
8
BLACK
6
CONTINUOUS
10
0.428132
20
-2.56579
11
0.432509
21
-2.56666
0
LINE
8
BLACK
6
CONTINUOUS
10
0.432509
20
-2.56666
11
0.440756
21
-2.57008
0
LINE
8
BLACK
6
CONTINUOUS
10
0.440756
20
-2.57008
11
0.448178
21
-2.57504
0
LINE
8
BLACK
6
CONTINUOUS
10
0.448178
20
-2.57504
11
0.45449
21
-2.58135
0
LINE
8
BLACK
6
CONTINUOUS
10
0.45449
20
-2.58135
11
0.459449
21
-2.58877
0
LINE
8
BLACK
6
CONTINUOUS
10
0.459449
20
-2.58877
11
0.462865
21
-2.59702
0
LINE
8
BLACK
6
CONTINUOUS
10
0.462865
20
-2.59702
11
0.464606
21
-2.60577
0
LINE
8
BLACK
6
CONTINUOUS
10
0.464606
20
-2.60577
11
0.464606
21
-2.6147
0
LINE
8
BLACK
6
CONTINUOUS
10
0.464606
20
-2.6147
11
0.462865
21
-2.62345
0
LINE
8
BLACK
6
CONTINUOUS
10
0.462865
20
-2.62345
11
0.459449
21
-2.6317
0
LINE
8
BLACK
6
CONTINUOUS
10
0.459449
20
-2.6317
11
0.45449
21
-2.63912
0
LINE
8
BLACK
6
CONTINUOUS
10
0.45449
20
-2.63912
11
0.448178
21
-2.64543
0
LINE
8
BLACK
6
CONTINUOUS
10
0.448178
20
-2.64543
11
0.440756
21
-2.65039
0
LINE
8
BLACK
6
CONTINUOUS
10
0.440756
20
-2.65039
11
0.432509
21
-2.65381
0
LINE
8
BLACK
6
CONTINUOUS
10
0.432509
20
-2.65381
11
0.428132
21
-2.65468
0
LINE
8
BLACK
6
CONTINUOUS
10
0.428132
20
-2.65468
11
0.423755
21
-2.65555
0
LINE
8
BLACK
6
CONTINUOUS
10
0.423755
20
-2.65555
11
0.414828
21
-2.65555
0
LINE
8
BLACK
6
CONTINUOUS
10
0.414828
20
-2.65555
11
0.410451
21
-2.65468
0
LINE
8
BLACK
6
CONTINUOUS
10
0.410451
20
-2.65468
11
0.406073
21
-2.65381
0
LINE
8
BLACK
6
CONTINUOUS
10
0.406073
20
-2.65381
11
0.397827
21
-2.65039
0
LINE
8
BLACK
6
CONTINUOUS
10
0.397827
20
-2.65039
11
0.390405
21
-2.64543
0
LINE
8
BLACK
6
CONTINUOUS
10
0.390405
20
-2.64543
11
0.384093
21
-2.63912
0
LINE
8
BLACK
6
CONTINUOUS
10
0.384093
20
-2.63912
11
0.379134
21
-2.6317
0
LINE
8
BLACK
6
CONTINUOUS
10
0.379134
20
-2.6317
11
0.375718
21
-2.62345
0
LINE
8
BLACK
6
CONTINUOUS
10
0.375718
20
-2.62345
11
0.373976
21
-2.6147
0
LINE
8
BLACK
6
CONTINUOUS
10
0.373976
20
-2.6147
11
0.373976
21
-2.60577
0
LINE
8
BLACK
6
CONTINUOUS
10
0.373976
20
-2.60577
11
0.375718
21
-2.59702
0
LINE
8
BLACK
6
CONTINUOUS
10
0.375718
20
-2.59702
11
0.379134
21
-2.58877
0
LINE
8
BLACK
6
CONTINUOUS
10
0.379134
20
-2.58877
11
0.384093
21
-2.58135
0
LINE
8
BLACK
6
CONTINUOUS
10
0.384093
20
-2.58135
11
0.390405
21
-2.57504
0
LINE
8
BLACK
6
CONTINUOUS
10
0.390405
20
-2.57504
11
0.397827
21
-2.57008
0
LINE
8
BLACK
6
CONTINUOUS
10
0.397827
20
-2.57008
11
0.406073
21
-2.56666
0
LINE
8
BLACK
6
CONTINUOUS
10
0.406073
20
-2.56666
11
0.410451
21
-2.56579
0
LINE
8
BLACK
6
CONTINUOUS
10
0.410451
20
-2.56579
11
0.414828
21
-2.56492
0
LINE
8
BLACK
6
CONTINUOUS
10
0.414828
20
-2.56492
11
0.423755
21
-2.56492
0
LINE
8
BLACK
6
CONTINUOUS
10
0.423755
20
-2.56492
11
0.428132
21
-2.56579
0
LINE
8
BLACK
6
CONTINUOUS
10
1.92813
20
-1.81579
11
1.93251
21
-1.81666
0
LINE
8
BLACK
6
CONTINUOUS
10
1.93251
20
-1.81666
11
1.94076
21
-1.82008
0
LINE
8
BLACK
6
CONTINUOUS
10
1.94076
20
-1.82008
11
1.94818
21
-1.82504
0
LINE
8
BLACK
6
CONTINUOUS
10
1.94818
20
-1.82504
11
1.95449
21
-1.83135
0
LINE
8
BLACK
6
CONTINUOUS
10
1.95449
20
-1.83135
11
1.95945
21
-1.83877
0
LINE
8
BLACK
6
CONTINUOUS
10
1.95945
20
-1.83877
11
1.96286
21
-1.84702
0
LINE
8
BLACK
6
CONTINUOUS
10
1.96286
20
-1.84702
11
1.96461
21
-1.85577
0
LINE
8
BLACK
6
CONTINUOUS
10
1.96461
20
-1.85577
11
1.96461
21
-1.8647
0
LINE
8
BLACK
6
CONTINUOUS
10
1.96461
20
-1.8647
11
1.96286
21
-1.87345
0
LINE
8
BLACK
6
CONTINUOUS
10
1.96286
20
-1.87345
11
1.95945
21
-1.8817
0
LINE
8
BLACK
6
CONTINUOUS
10
1.95945
20
-1.8817
11
1.95449
21
-1.88912
0
LINE
8
BLACK
6
CONTINUOUS
10
1.95449
20
-1.88912
11
1.94818
21
-1.89543
0
LINE
8
BLACK
6
CONTINUOUS
10
1.94818
20
-1.89543
11
1.94076
21
-1.90039
0
LINE
8
BLACK
6
CONTINUOUS
10
1.94076
20
-1.90039
11
1.93251
21
-1.90381
0
LINE
8
BLACK
6
CONTINUOUS
10
1.93251
20
-1.90381
11
1.92813
21
-1.90468
0
LINE
8
BLACK
6
CONTINUOUS
10
1.92813
20
-1.90468
11
1.92375
21
-1.90555
0
LINE
8
BLACK
6
CONTINUOUS
10
1.92375
20
-1.90555
11
1.91483
21
-1.90555
0
LINE
8
BLACK
6
CONTINUOUS
10
1.91483
20
-1.90555
11
1.91045
21
-1.90468
0
LINE
8
BLACK
6
CONTINUOUS
10
1.91045
20
-1.90468
11
1.90607
21
-1.90381
0
LINE
8
BLACK
6
CONTINUOUS
10
1.90607
20
-1.90381
11
1.89783
21
-1.90039
0
LINE
8
BLACK
6
CONTINUOUS
10
1.89783
20
-1.90039
11
1.8904
21
-1.89543
0
LINE
8
BLACK
6
CONTINUOUS
10
1.8904
20
-1.89543
11
1.88409
21
-1.88912
0
LINE
8
BLACK
6
CONTINUOUS
10
1.88409
20
-1.88912
11
1.87913
21
-1.8817
0
LINE
8
BLACK
6
CONTINUOUS
10
1.87913
20
-1.8817
11
1.87572
21
-1.87345
0
LINE
8
BLACK
6
CONTINUOUS
10
1.87572
20
-1.87345
11
1.87398
21
-1.8647
0
LINE
8
BLACK
6
CONTINUOUS
10
1.87398
20
-1.8647
11
1.87398
21
-1.85577
0
LINE
8
BLACK
6
CONTINUOUS
10
1.87398
20
-1.85577
11
1.87572
21
-1.84702
0
LINE
8
BLACK
6
CONTINUOUS
10
1.87572
20
-1.84702
11
1.87913
21
-1.83877
0
LINE
8
BLACK
6
CONTINUOUS
10
1.87913
20
-1.83877
11
1.88409
21
-1.83135
0
LINE
8
BLACK
6
CONTINUOUS
10
1.88409
20
-1.83135
11
1.8904
21
-1.82504
0
LINE
8
BLACK
6
CONTINUOUS
10
1.8904
20
-1.82504
11
1.89783
21
-1.82008
0
LINE
8
BLACK
6
CONTINUOUS
10
1.89783
20
-1.82008
11
1.90607
21
-1.81666
0
LINE
8
BLACK
6
CONTINUOUS
10
1.90607
20
-1.81666
11
1.91045
21
-1.81579
0
LINE
8
BLACK
6
CONTINUOUS
10
1.91045
20
-1.81579
11
1.91483
21
-1.81492
0
LINE
8
BLACK
6
CONTINUOUS
10
1.91483
20
-1.81492
11
1.92375
21
-1.81492
0
LINE
8
BLACK
6
CONTINUOUS
10
1.92375
20
-1.81492
11
1.92813
21
-1.81579
0
LINE
8
BLACK
6
CONTINUOUS
10
3.42813
20
-1.08154
11
3.43251
21
-1.08241
0
LINE
8
BLACK
6
CONTINUOUS
10
3.43251
20
-1.08241
11
3.44076
21
-1.08583
0
LINE
8
BLACK
6
CONTINUOUS
10
3.44076
20
-1.08583
11
3.44818
21
-1.09079
0
LINE
8
BLACK
6
CONTINUOUS
10
3.44818
20
-1.09079
11
3.45449
21
-1.0971
0
LINE
8
BLACK
6
CONTINUOUS
10
3.45449
20
-1.0971
11
3.45945
21
-1.10452
0
LINE
8
BLACK
6
CONTINUOUS
10
3.45945
20
-1.10452
11
3.46286
21
-1.11277
0
LINE
8
BLACK
6
CONTINUOUS
10
3.46286
20
-1.11277
11
3.46461
21
-1.12152
0
LINE
8
BLACK
6
CONTINUOUS
10
3.46461
20
-1.12152
11
3.46461
21
-1.13045
0
LINE
8
BLACK
6
CONTINUOUS
10
3.46461
20
-1.13045
11
3.46286
21
-1.1392
0
LINE
8
BLACK
6
CONTINUOUS
10
3.46286
20
-1.1392
11
3.45945
21
-1.14745
0
LINE
8
BLACK
6
CONTINUOUS
10
3.45945
20
-1.14745
11
3.45449
21
-1.15487
0
LINE
8
BLACK
6
CONTINUOUS
10
3.45449
20
-1.15487
11
3.44818
21
-1.16118
0
LINE
8
BLACK
6
CONTINUOUS
10
3.44818
20
-1.16118
11
3.44076
21
-1.16614
0
LINE
8
BLACK
6
CONTINUOUS
10
3.44076
20
-1.16614
11
3.43251
21
-1.16956
0
LINE
8
BLACK
6
CONTINUOUS
10
3.43251
20
-1.16956
11
3.42813
21
-1.17043
0
LINE
8
BLACK
6
CONTINUOUS
10
3.42813
20
-1.17043
11
3.42375
21
-1.1713
0
LINE
8
BLACK
6
CONTINUOUS
10
3.42375
20
-1.1713
11
3.41483
21
-1.1713
0
LINE
8
BLACK
6
CONTINUOUS
10
3.41483
20
-1.1713
11
3.41045
21
-1.17043
0
LINE
8
BLACK
6
CONTINUOUS
10
3.41045
20
-1.17043
11
3.40607
21
-1.16956
0
LINE
8
BLACK
6
CONTINUOUS
10
3.40607
20
-1.16956
11
3.39783
21
-1.16614
0
LINE
8
BLACK
6
CONTINUOUS
10
3.39783
20
-1.16614
11
3.3904
21
-1.16118
0
LINE
8
BLACK
6
CONTINUOUS
10
3.3904
20
-1.16118
11
3.38409
21
-1.15487
0
LINE
8
BLACK
6
CONTINUOUS
10
3.38409
20
-1.15487
11
3.37913
21
-1.14745
0
LINE
8
BLACK
6
CONTINUOUS
10
3.37913
20
-1.14745
11
3.37572
21
-1.1392
0
LINE
8
BLACK
6
CONTINUOUS
10
3.37572
20
-1.1392
11
3.37398
21
-1.13045
0
LINE
8
BLACK
6
CONTINUOUS
10
3.37398
20
-1.13045
11
3.37398
21
-1.12152
0
LINE
8
BLACK
6
CONTINUOUS
10
3.37398
20
-1.12152
11
3.37572
21
-1.11277
0
LINE
8
BLACK
6
CONTINUOUS
10
3.37572
20
-1.11277
11
3.37913
21
-1.10452
0
LINE
8
BLACK
6
CONTINUOUS
10
3.37913
20
-1.10452
11
3.38409
21
-1.0971
0
LINE
8
BLACK
6
CONTINUOUS
10
3.38409
20
-1.0971
11
3.3904
21
-1.09079
0
LINE
8
BLACK
6
CONTINUOUS
10
3.3904
20
-1.09079
11
3.39783
21
-1.08583
0
LINE
8
BLACK
6
CONTINUOUS
10
3.39783
20
-1.08583
11
3.40607
21
-1.08241
0
LINE
8
BLACK
6
CONTINUOUS
10
3.40607
20
-1.08241
11
3.41045
21
-1.08154
0
LINE
8
BLACK
6
CONTINUOUS
10
3.41045
20
-1.08154
11
3.41483
21
-1.08067
0
LINE
8
BLACK
6
CONTINUOUS
10
3.41483
20
-1.08067
11
3.42375
21
-1.08067
0
LINE
8
BLACK
6
CONTINUOUS
10
3.42375
20
-1.08067
11
3.42813
21
-1.08154
0
LINE
8
BLACK
6
CONTINUOUS
10
0.428132
20
-1.08154
11
0.432509
21
-1.08241
0
LINE
8
BLACK
6
CONTINUOUS
10
0.432509
20
-1.08241
11
0.440756
21
-1.08583
0
LINE
8
BLACK
6
CONTINUOUS
10
0.440756
20
-1.08583
11
0.448178
21
-1.09079
0
LINE
8
BLACK
6
CONTINUOUS
10
0.448178
20
-1.09079
11
0.45449
21
-1.0971
0
LINE
8
BLACK
6
CONTINUOUS
10
0.45449
20
-1.0971
11
0.459449
21
-1.10452
0
LINE
8
BLACK
6
CONTINUOUS
10
0.459449
20
-1.10452
11
0.462865
21
-1.11277
0
LINE
8
BLACK
6
CONTINUOUS
10
0.462865
20
-1.11277
11
0.464606
21
-1.12152
0
LINE
8
BLACK
6
CONTINUOUS
10
0.464606
20
-1.12152
11
0.464606
21
-1.13045
0
LINE
8
BLACK
6
CONTINUOUS
10
0.464606
20
-1.13045
11
0.462865
21
-1.1392
0
LINE
8
BLACK
6
CONTINUOUS
10
0.462865
20
-1.1392
11
0.459449
21
-1.14745
0
LINE
8
BLACK
6
CONTINUOUS
10
0.459449
20
-1.14745
11
0.45449
21
-1.15487
0
LINE
8
BLACK
6
CONTINUOUS
10
0.45449
20
-1.15487
11
0.448178
21
-1.16118
0
LINE
8
BLACK
6
CONTINUOUS
10
0.448178
20
-1.16118
11
0.440756
21
-1.16614
0
LINE
8
BLACK
6
CONTINUOUS
10
0.440756
20
-1.16614
11
0.432509
21
-1.16956
0
LINE
8
BLACK
6
CONTINUOUS
10
0.432509
20
-1.16956
11
0.428132
21
-1.17043
0
LINE
8
BLACK
6
CONTINUOUS
10
0.428132
20
-1.17043
11
0.423755
21
-1.1713
0
LINE
8
BLACK
6
CONTINUOUS
10
0.423755
20
-1.1713
11
0.414828
21
-1.1713
0
LINE
8
BLACK
6
CONTINUOUS
10
0.414828
20
-1.1713
11
0.410451
21
-1.17043
0
LINE
8
BLACK
6
CONTINUOUS
10
0.410451
20
-1.17043
11
0.406073
21
-1.16956
0
LINE
8
BLACK
6
CONTINUOUS
10
0.406073
20
-1.16956
11
0.397827
21
-1.16614
0
LINE
8
BLACK
6
CONTINUOUS
10
0.397827
20
-1.16614
11
0.390405
21
-1.16118
0
LINE
8
BLACK
6
CONTINUOUS
10
0.390405
20
-1.16118
11
0.384093
21
-1.15487
0
LINE
8
BLACK
6
CONTINUOUS
10
0.384093
20
-1.15487
11
0.379134
21
-1.14745
0
LINE
8
BLACK
6
CONTINUOUS
10
0.379134
20
-1.14745
11
0.375718
21
-1.1392
0
LINE
8
BLACK
6
CONTINUOUS
10
0.375718
20
-1.1392
11
0.373976
21
-1.13045
0
LINE
8
BLACK
6
CONTINUOUS
10
0.373976
20
-1.13045
11
0.373976
21
-1.12152
0
LINE
8
BLACK
6
CONTINUOUS
10
0.373976
20
-1.12152
11
0.375718
21
-1.11277
0
LINE
8
BLACK
6
CONTINUOUS
10
0.375718
20
-1.11277
11
0.379134
21
-1.10452
0
LINE
8
BLACK
6
CONTINUOUS
10
0.379134
20
-1.10452
11
0.384093
21
-1.0971
0
LINE
8
BLACK
6
CONTINUOUS
10
0.384093
20
-1.0971
11
0.390405
21
-1.09079
0
LINE
8
BLACK
6
CONTINUOUS
10
0.390405
20
-1.09079
11
0.397827
21
-1.08583
0
LINE
8
BLACK
6
CONTINUOUS
10
0.397827
20
-1.08583
11
0.406073
21
-1.08241
0
LINE
8
BLACK
6
CONTINUOUS
10
0.406073
20
-1.08241
11
0.410451
21
-1.08154
0
LINE
8
BLACK
6
CONTINUOUS
10
0.410451
20
-1.08154
11
0.414828
21
-1.08067
0
LINE
8
BLACK
6
CONTINUOUS
10
0.414828
20
-1.08067
11
0.423755
21
-1.08067
0
LINE
8
BLACK
6
CONTINUOUS
10
0.423755
20
-1.08067
11
0.428132
21
-1.08154
  0
ENDSEC
  0
EOF
