  0
SECTION
  2
HEADER
  9
$ANGBASE
  50
0.0
  9
$ANGDIR
  70
1
  9
$MEASUREMENT
  70
0
  0
ENDSEC
  0
SECTION
  2
TABLES
  0
TABLE
  2
LTYPE
  70
4
  0
LTYPE
  5
40F
  2
CONTINUOUS
  70
0
  3
Solid line
  72
65
  73
0
  40
0.0
  0
LTYPE
  5
410
  2
DASHDOT
 70
0
  3
Dash Dot ____ _ ____ _
 72
65
 73
4
 40
2.0
 49
1.25
 49
-0.25
 49
0.25
 49
-0.25
  0
LTYPE
  5
411
  2
DASHED
 70
0
  3
Dashed __ __ __ __ __
 72
65
 73
2
 40
0.75
 49
0.5
 49
-0.25
  0
LTYPE
  5
43B
  2
DOTTED
 70
0
  3
Dotted .  .  .  .
 72
65
 73
2
 40
0.2
 49
0.0
 49
-0.2
  0
ENDTAB
  0
TABLE
  2
STYLE
  70
4
  0
STYLE
  2
KICAD
  70
0
  40
0
  41
1
  42
1
  50
0
  71
0
  3
isocp.shx
  0
STYLE
  2
KICADB
  70
0
  40
0
  41
1
  42
1
  50
0
  71
0
  3
isocp.shx
  0
STYLE
  2
KICADI
  70
0
  40
0
  41
1
  42
1
  50
15
  71
0
  3
isocp.shx
  0
STYLE
  2
KICADBI
  70
0
  40
0
  41
1
  42
1
  50
15
  71
0
  3
isocp.shx
  0
ENDTAB
  0
TABLE
  2
LAYER
  70
1
  0
LAYER
  2
BLACK
  70
0
  62
7
  6
CONTINUOUS
  0
ENDTAB
  0
ENDSEC
  0
SECTION
  2
ENTITIES
0
LINE
8
BLACK
6
CONTINUOUS
10
4.26369
20
-0.611361
11
4.26369
21
-0.588864
0
LINE
8
BLACK
6
CONTINUOUS
10
4.26369
20
-0.600112
11
4.30306
21
-0.600112
0
LINE
8
BLACK
6
CONTINUOUS
10
4.30306
20
-0.600112
11
4.29743
21
-0.596363
0
LINE
8
BLACK
6
CONTINUOUS
10
4.29743
20
-0.596363
11
4.29368
21
-0.592613
0
LINE
8
BLACK
6
CONTINUOUS
10
4.29368
20
-0.592613
11
4.29181
21
-0.588864
0
LINE
8
BLACK
6
CONTINUOUS
10
4.28993
20
-0.645107
11
4.26369
21
-0.645107
0
LINE
8
BLACK
6
CONTINUOUS
10
4.30493
20
-0.635733
11
4.27681
21
-0.626359
0
LINE
8
BLACK
6
CONTINUOUS
10
4.27681
20
-0.626359
11
4.27681
21
-0.650731
0
LINE
8
BLACK
6
CONTINUOUS
10
4.26744
20
-0.665729
11
4.26556
21
-0.667604
0
LINE
8
BLACK
6
CONTINUOUS
10
4.26556
20
-0.667604
11
4.26369
21
-0.665729
0
LINE
8
BLACK
6
CONTINUOUS
10
4.26369
20
-0.665729
11
4.26556
21
-0.663854
0
LINE
8
BLACK
6
CONTINUOUS
10
4.26556
20
-0.663854
11
4.26744
21
-0.665729
0
LINE
8
BLACK
6
CONTINUOUS
10
4.26744
20
-0.665729
11
4.26369
21
-0.665729
0
LINE
8
BLACK
6
CONTINUOUS
10
4.30306
20
-0.691976
11
4.30306
21
-0.695726
0
LINE
8
BLACK
6
CONTINUOUS
10
4.30306
20
-0.695726
11
4.30118
21
-0.699475
0
LINE
8
BLACK
6
CONTINUOUS
10
4.30118
20
-0.699475
11
4.29931
21
-0.70135
0
LINE
8
BLACK
6
CONTINUOUS
10
4.29931
20
-0.70135
11
4.29556
21
-0.703225
0
LINE
8
BLACK
6
CONTINUOUS
10
4.29556
20
-0.703225
11
4.28806
21
-0.705099
0
LINE
8
BLACK
6
CONTINUOUS
10
4.28806
20
-0.705099
11
4.27868
21
-0.705099
0
LINE
8
BLACK
6
CONTINUOUS
10
4.27868
20
-0.705099
11
4.27118
21
-0.703225
0
LINE
8
BLACK
6
CONTINUOUS
10
4.27118
20
-0.703225
11
4.26744
21
-0.70135
0
LINE
8
BLACK
6
CONTINUOUS
10
4.26744
20
-0.70135
11
4.26556
21
-0.699475
0
LINE
8
BLACK
6
CONTINUOUS
10
4.26556
20
-0.699475
11
4.26369
21
-0.695726
0
LINE
8
BLACK
6
CONTINUOUS
10
4.26369
20
-0.695726
11
4.26369
21
-0.691976
0
LINE
8
BLACK
6
CONTINUOUS
10
4.26369
20
-0.691976
11
4.26556
21
-0.688226
0
LINE
8
BLACK
6
CONTINUOUS
10
4.26556
20
-0.688226
11
4.26744
21
-0.686352
0
LINE
8
BLACK
6
CONTINUOUS
10
4.26744
20
-0.686352
11
4.27118
21
-0.684477
0
LINE
8
BLACK
6
CONTINUOUS
10
4.27118
20
-0.684477
11
4.27868
21
-0.682602
0
LINE
8
BLACK
6
CONTINUOUS
10
4.27868
20
-0.682602
11
4.28806
21
-0.682602
0
LINE
8
BLACK
6
CONTINUOUS
10
4.28806
20
-0.682602
11
4.29556
21
-0.684477
0
LINE
8
BLACK
6
CONTINUOUS
10
4.29556
20
-0.684477
11
4.29931
21
-0.686352
0
LINE
8
BLACK
6
CONTINUOUS
10
4.29931
20
-0.686352
11
4.30118
21
-0.688226
0
LINE
8
BLACK
6
CONTINUOUS
10
4.30118
20
-0.688226
11
4.30306
21
-0.691976
0
LINE
8
BLACK
6
CONTINUOUS
10
4.30306
20
-0.729471
11
4.30306
21
-0.733221
0
LINE
8
BLACK
6
CONTINUOUS
10
4.30306
20
-0.733221
11
4.30118
21
-0.73697
0
LINE
8
BLACK
6
CONTINUOUS
10
4.30118
20
-0.73697
11
4.29931
21
-0.738845
0
LINE
8
BLACK
6
CONTINUOUS
10
4.29931
20
-0.738845
11
4.29556
21
-0.74072
0
LINE
8
BLACK
6
CONTINUOUS
10
4.29556
20
-0.74072
11
4.28806
21
-0.742595
0
LINE
8
BLACK
6
CONTINUOUS
10
4.28806
20
-0.742595
11
4.27868
21
-0.742595
0
LINE
8
BLACK
6
CONTINUOUS
10
4.27868
20
-0.742595
11
4.27118
21
-0.74072
0
LINE
8
BLACK
6
CONTINUOUS
10
4.27118
20
-0.74072
11
4.26744
21
-0.738845
0
LINE
8
BLACK
6
CONTINUOUS
10
4.26744
20
-0.738845
11
4.26556
21
-0.73697
0
LINE
8
BLACK
6
CONTINUOUS
10
4.26556
20
-0.73697
11
4.26369
21
-0.733221
0
LINE
8
BLACK
6
CONTINUOUS
10
4.26369
20
-0.733221
11
4.26369
21
-0.729471
0
LINE
8
BLACK
6
CONTINUOUS
10
4.26369
20
-0.729471
11
4.26556
21
-0.725722
0
LINE
8
BLACK
6
CONTINUOUS
10
4.26556
20
-0.725722
11
4.26744
21
-0.723847
0
LINE
8
BLACK
6
CONTINUOUS
10
4.26744
20
-0.723847
11
4.27118
21
-0.721972
0
LINE
8
BLACK
6
CONTINUOUS
10
4.27118
20
-0.721972
11
4.27868
21
-0.720097
0
LINE
8
BLACK
6
CONTINUOUS
10
4.27868
20
-0.720097
11
4.28806
21
-0.720097
0
LINE
8
BLACK
6
CONTINUOUS
10
4.28806
20
-0.720097
11
4.29556
21
-0.721972
0
LINE
8
BLACK
6
CONTINUOUS
10
4.29556
20
-0.721972
11
4.29931
21
-0.723847
0
LINE
8
BLACK
6
CONTINUOUS
10
4.29931
20
-0.723847
11
4.30118
21
-0.725722
0
LINE
8
BLACK
6
CONTINUOUS
10
4.30118
20
-0.725722
11
4.30306
21
-0.729471
0
LINE
8
BLACK
6
CONTINUOUS
10
4.30306
20
-0.766967
11
4.30306
21
-0.770716
0
LINE
8
BLACK
6
CONTINUOUS
10
4.30306
20
-0.770716
11
4.30118
21
-0.774466
0
LINE
8
BLACK
6
CONTINUOUS
10
4.30118
20
-0.774466
11
4.29931
21
-0.77634
0
LINE
8
BLACK
6
CONTINUOUS
10
4.29931
20
-0.77634
11
4.29556
21
-0.778215
0
LINE
8
BLACK
6
CONTINUOUS
10
4.29556
20
-0.778215
11
4.28806
21
-0.78009
0
LINE
8
BLACK
6
CONTINUOUS
10
4.28806
20
-0.78009
11
4.27868
21
-0.78009
0
LINE
8
BLACK
6
CONTINUOUS
10
4.27868
20
-0.78009
11
4.27118
21
-0.778215
0
LINE
8
BLACK
6
CONTINUOUS
10
4.27118
20
-0.778215
11
4.26744
21
-0.77634
0
LINE
8
BLACK
6
CONTINUOUS
10
4.26744
20
-0.77634
11
4.26556
21
-0.774466
0
LINE
8
BLACK
6
CONTINUOUS
10
4.26556
20
-0.774466
11
4.26369
21
-0.770716
0
LINE
8
BLACK
6
CONTINUOUS
10
4.26369
20
-0.770716
11
4.26369
21
-0.766967
0
LINE
8
BLACK
6
CONTINUOUS
10
4.26369
20
-0.766967
11
4.26556
21
-0.763217
0
LINE
8
BLACK
6
CONTINUOUS
10
4.26556
20
-0.763217
11
4.26744
21
-0.761342
0
LINE
8
BLACK
6
CONTINUOUS
10
4.26744
20
-0.761342
11
4.27118
21
-0.759468
0
LINE
8
BLACK
6
CONTINUOUS
10
4.27118
20
-0.759468
11
4.27868
21
-0.757593
0
LINE
8
BLACK
6
CONTINUOUS
10
4.27868
20
-0.757593
11
4.28806
21
-0.757593
0
LINE
8
BLACK
6
CONTINUOUS
10
4.28806
20
-0.757593
11
4.29556
21
-0.759468
0
LINE
8
BLACK
6
CONTINUOUS
10
4.29556
20
-0.759468
11
4.29931
21
-0.761342
0
LINE
8
BLACK
6
CONTINUOUS
10
4.29931
20
-0.761342
11
4.30118
21
-0.763217
0
LINE
8
BLACK
6
CONTINUOUS
10
4.30118
20
-0.763217
11
4.30306
21
-0.766967
0
LINE
8
BLACK
6
CONTINUOUS
10
4.26369
20
-0.826959
11
4.28993
21
-0.826959
0
LINE
8
BLACK
6
CONTINUOUS
10
4.28618
20
-0.826959
11
4.28806
21
-0.828834
0
LINE
8
BLACK
6
CONTINUOUS
10
4.28806
20
-0.828834
11
4.28993
21
-0.832583
0
LINE
8
BLACK
6
CONTINUOUS
10
4.28993
20
-0.832583
11
4.28993
21
-0.838208
0
LINE
8
BLACK
6
CONTINUOUS
10
4.28993
20
-0.838208
11
4.28806
21
-0.841957
0
LINE
8
BLACK
6
CONTINUOUS
10
4.28806
20
-0.841957
11
4.28431
21
-0.843832
0
LINE
8
BLACK
6
CONTINUOUS
10
4.28431
20
-0.843832
11
4.26369
21
-0.843832
0
LINE
8
BLACK
6
CONTINUOUS
10
4.28431
20
-0.843832
11
4.28806
21
-0.845707
0
LINE
8
BLACK
6
CONTINUOUS
10
4.28806
20
-0.845707
11
4.28993
21
-0.849456
0
LINE
8
BLACK
6
CONTINUOUS
10
4.28993
20
-0.849456
11
4.28993
21
-0.855081
0
LINE
8
BLACK
6
CONTINUOUS
10
4.28993
20
-0.855081
11
4.28806
21
-0.85883
0
LINE
8
BLACK
6
CONTINUOUS
10
4.28806
20
-0.85883
11
4.28431
21
-0.860705
0
LINE
8
BLACK
6
CONTINUOUS
10
4.28431
20
-0.860705
11
4.26369
21
-0.860705
0
LINE
8
BLACK
6
CONTINUOUS
10
4.26369
20
-0.879453
11
4.28993
21
-0.879453
0
LINE
8
BLACK
6
CONTINUOUS
10
4.28618
20
-0.879453
11
4.28806
21
-0.881327
0
LINE
8
BLACK
6
CONTINUOUS
10
4.28806
20
-0.881327
11
4.28993
21
-0.885077
0
LINE
8
BLACK
6
CONTINUOUS
10
4.28993
20
-0.885077
11
4.28993
21
-0.890701
0
LINE
8
BLACK
6
CONTINUOUS
10
4.28993
20
-0.890701
11
4.28806
21
-0.894451
0
LINE
8
BLACK
6
CONTINUOUS
10
4.28806
20
-0.894451
11
4.28431
21
-0.896325
0
LINE
8
BLACK
6
CONTINUOUS
10
4.28431
20
-0.896325
11
4.26369
21
-0.896325
0
LINE
8
BLACK
6
CONTINUOUS
10
4.28431
20
-0.896325
11
4.28806
21
-0.8982
0
LINE
8
BLACK
6
CONTINUOUS
10
4.28806
20
-0.8982
11
4.28993
21
-0.90195
0
LINE
8
BLACK
6
CONTINUOUS
10
4.28993
20
-0.90195
11
4.28993
21
-0.907574
0
LINE
8
BLACK
6
CONTINUOUS
10
4.28993
20
-0.907574
11
4.28806
21
-0.911324
0
LINE
8
BLACK
6
CONTINUOUS
10
4.28806
20
-0.911324
11
4.28431
21
-0.913198
0
LINE
8
BLACK
6
CONTINUOUS
10
4.28431
20
-0.913198
11
4.26369
21
-0.913198
0
LINE
8
BLACK
6
CONTINUOUS
10
4.23425
20
-0.476378
11
4.23425
21
-1.02756
0
LINE
8
BLACK
6
CONTINUOUS
10
4.22835
20
-0.476378
11
4.25734
21
-0.476378
0
LINE
8
BLACK
6
CONTINUOUS
10
4.22835
20
-1.02756
11
4.25734
21
-1.02756
0
LINE
8
BLACK
6
CONTINUOUS
10
4.23425
20
-1.02756
11
4.21116
21
-0.983209
0
LINE
8
BLACK
6
CONTINUOUS
10
4.23425
20
-1.02756
11
4.25734
21
-0.983209
0
LINE
8
BLACK
6
CONTINUOUS
10
4.23425
20
-0.476378
11
4.21116
21
-0.520729
0
LINE
8
BLACK
6
CONTINUOUS
10
4.23425
20
-0.476378
11
4.25734
21
-0.520729
0
LINE
8
BLACK
6
CONTINUOUS
10
3.65467
20
-0.283952
11
3.63217
21
-0.283952
0
LINE
8
BLACK
6
CONTINUOUS
10
3.64342
20
-0.283952
11
3.64342
21
-0.244582
0
LINE
8
BLACK
6
CONTINUOUS
10
3.64342
20
-0.244582
11
3.63967
21
-0.250206
0
LINE
8
BLACK
6
CONTINUOUS
10
3.63967
20
-0.250206
11
3.63592
21
-0.253956
0
LINE
8
BLACK
6
CONTINUOUS
10
3.63592
20
-0.253956
11
3.63217
21
-0.255831
0
LINE
8
BLACK
6
CONTINUOUS
10
3.68841
20
-0.257705
11
3.68841
21
-0.283952
0
LINE
8
BLACK
6
CONTINUOUS
10
3.67904
20
-0.242707
11
3.66967
21
-0.270829
0
LINE
8
BLACK
6
CONTINUOUS
10
3.66967
20
-0.270829
11
3.69404
21
-0.270829
0
LINE
8
BLACK
6
CONTINUOUS
10
3.70904
20
-0.280202
11
3.71091
21
-0.282077
0
LINE
8
BLACK
6
CONTINUOUS
10
3.71091
20
-0.282077
11
3.70904
21
-0.283952
0
LINE
8
BLACK
6
CONTINUOUS
10
3.70904
20
-0.283952
11
3.70716
21
-0.282077
0
LINE
8
BLACK
6
CONTINUOUS
10
3.70716
20
-0.282077
11
3.70904
21
-0.280202
0
LINE
8
BLACK
6
CONTINUOUS
10
3.70904
20
-0.280202
11
3.70904
21
-0.283952
0
LINE
8
BLACK
6
CONTINUOUS
10
3.73528
20
-0.244582
11
3.73903
21
-0.244582
0
LINE
8
BLACK
6
CONTINUOUS
10
3.73903
20
-0.244582
11
3.74278
21
-0.246457
0
LINE
8
BLACK
6
CONTINUOUS
10
3.74278
20
-0.246457
11
3.74466
21
-0.248331
0
LINE
8
BLACK
6
CONTINUOUS
10
3.74466
20
-0.248331
11
3.74653
21
-0.252081
0
LINE
8
BLACK
6
CONTINUOUS
10
3.74653
20
-0.252081
11
3.74841
21
-0.25958
0
LINE
8
BLACK
6
CONTINUOUS
10
3.74841
20
-0.25958
11
3.74841
21
-0.268954
0
LINE
8
BLACK
6
CONTINUOUS
10
3.74841
20
-0.268954
11
3.74653
21
-0.276453
0
LINE
8
BLACK
6
CONTINUOUS
10
3.74653
20
-0.276453
11
3.74466
21
-0.280202
0
LINE
8
BLACK
6
CONTINUOUS
10
3.74466
20
-0.280202
11
3.74278
21
-0.282077
0
LINE
8
BLACK
6
CONTINUOUS
10
3.74278
20
-0.282077
11
3.73903
21
-0.283952
0
LINE
8
BLACK
6
CONTINUOUS
10
3.73903
20
-0.283952
11
3.73528
21
-0.283952
0
LINE
8
BLACK
6
CONTINUOUS
10
3.73528
20
-0.283952
11
3.73153
21
-0.282077
0
LINE
8
BLACK
6
CONTINUOUS
10
3.73153
20
-0.282077
11
3.72966
21
-0.280202
0
LINE
8
BLACK
6
CONTINUOUS
10
3.72966
20
-0.280202
11
3.72778
21
-0.276453
0
LINE
8
BLACK
6
CONTINUOUS
10
3.72778
20
-0.276453
11
3.72591
21
-0.268954
0
LINE
8
BLACK
6
CONTINUOUS
10
3.72591
20
-0.268954
11
3.72591
21
-0.25958
0
LINE
8
BLACK
6
CONTINUOUS
10
3.72591
20
-0.25958
11
3.72778
21
-0.252081
0
LINE
8
BLACK
6
CONTINUOUS
10
3.72778
20
-0.252081
11
3.72966
21
-0.248331
0
LINE
8
BLACK
6
CONTINUOUS
10
3.72966
20
-0.248331
11
3.73153
21
-0.246457
0
LINE
8
BLACK
6
CONTINUOUS
10
3.73153
20
-0.246457
11
3.73528
21
-0.244582
0
LINE
8
BLACK
6
CONTINUOUS
10
3.77278
20
-0.244582
11
3.77653
21
-0.244582
0
LINE
8
BLACK
6
CONTINUOUS
10
3.77653
20
-0.244582
11
3.78028
21
-0.246457
0
LINE
8
BLACK
6
CONTINUOUS
10
3.78028
20
-0.246457
11
3.78215
21
-0.248331
0
LINE
8
BLACK
6
CONTINUOUS
10
3.78215
20
-0.248331
11
3.78403
21
-0.252081
0
LINE
8
BLACK
6
CONTINUOUS
10
3.78403
20
-0.252081
11
3.7859
21
-0.25958
0
LINE
8
BLACK
6
CONTINUOUS
10
3.7859
20
-0.25958
11
3.7859
21
-0.268954
0
LINE
8
BLACK
6
CONTINUOUS
10
3.7859
20
-0.268954
11
3.78403
21
-0.276453
0
LINE
8
BLACK
6
CONTINUOUS
10
3.78403
20
-0.276453
11
3.78215
21
-0.280202
0
LINE
8
BLACK
6
CONTINUOUS
10
3.78215
20
-0.280202
11
3.78028
21
-0.282077
0
LINE
8
BLACK
6
CONTINUOUS
10
3.78028
20
-0.282077
11
3.77653
21
-0.283952
0
LINE
8
BLACK
6
CONTINUOUS
10
3.77653
20
-0.283952
11
3.77278
21
-0.283952
0
LINE
8
BLACK
6
CONTINUOUS
10
3.77278
20
-0.283952
11
3.76903
21
-0.282077
0
LINE
8
BLACK
6
CONTINUOUS
10
3.76903
20
-0.282077
11
3.76715
21
-0.280202
0
LINE
8
BLACK
6
CONTINUOUS
10
3.76715
20
-0.280202
11
3.76528
21
-0.276453
0
LINE
8
BLACK
6
CONTINUOUS
10
3.76528
20
-0.276453
11
3.7634
21
-0.268954
0
LINE
8
BLACK
6
CONTINUOUS
10
3.7634
20
-0.268954
11
3.7634
21
-0.25958
0
LINE
8
BLACK
6
CONTINUOUS
10
3.7634
20
-0.25958
11
3.76528
21
-0.252081
0
LINE
8
BLACK
6
CONTINUOUS
10
3.76528
20
-0.252081
11
3.76715
21
-0.248331
0
LINE
8
BLACK
6
CONTINUOUS
10
3.76715
20
-0.248331
11
3.76903
21
-0.246457
0
LINE
8
BLACK
6
CONTINUOUS
10
3.76903
20
-0.246457
11
3.77278
21
-0.244582
0
LINE
8
BLACK
6
CONTINUOUS
10
3.81027
20
-0.244582
11
3.81402
21
-0.244582
0
LINE
8
BLACK
6
CONTINUOUS
10
3.81402
20
-0.244582
11
3.81777
21
-0.246457
0
LINE
8
BLACK
6
CONTINUOUS
10
3.81777
20
-0.246457
11
3.81965
21
-0.248331
0
LINE
8
BLACK
6
CONTINUOUS
10
3.81965
20
-0.248331
11
3.82152
21
-0.252081
0
LINE
8
BLACK
6
CONTINUOUS
10
3.82152
20
-0.252081
11
3.8234
21
-0.25958
0
LINE
8
BLACK
6
CONTINUOUS
10
3.8234
20
-0.25958
11
3.8234
21
-0.268954
0
LINE
8
BLACK
6
CONTINUOUS
10
3.8234
20
-0.268954
11
3.82152
21
-0.276453
0
LINE
8
BLACK
6
CONTINUOUS
10
3.82152
20
-0.276453
11
3.81965
21
-0.280202
0
LINE
8
BLACK
6
CONTINUOUS
10
3.81965
20
-0.280202
11
3.81777
21
-0.282077
0
LINE
8
BLACK
6
CONTINUOUS
10
3.81777
20
-0.282077
11
3.81402
21
-0.283952
0
LINE
8
BLACK
6
CONTINUOUS
10
3.81402
20
-0.283952
11
3.81027
21
-0.283952
0
LINE
8
BLACK
6
CONTINUOUS
10
3.81027
20
-0.283952
11
3.80652
21
-0.282077
0
LINE
8
BLACK
6
CONTINUOUS
10
3.80652
20
-0.282077
11
3.80465
21
-0.280202
0
LINE
8
BLACK
6
CONTINUOUS
10
3.80465
20
-0.280202
11
3.80277
21
-0.276453
0
LINE
8
BLACK
6
CONTINUOUS
10
3.80277
20
-0.276453
11
3.8009
21
-0.268954
0
LINE
8
BLACK
6
CONTINUOUS
10
3.8009
20
-0.268954
11
3.8009
21
-0.25958
0
LINE
8
BLACK
6
CONTINUOUS
10
3.8009
20
-0.25958
11
3.80277
21
-0.252081
0
LINE
8
BLACK
6
CONTINUOUS
10
3.80277
20
-0.252081
11
3.80465
21
-0.248331
0
LINE
8
BLACK
6
CONTINUOUS
10
3.80465
20
-0.248331
11
3.80652
21
-0.246457
0
LINE
8
BLACK
6
CONTINUOUS
10
3.80652
20
-0.246457
11
3.81027
21
-0.244582
0
LINE
8
BLACK
6
CONTINUOUS
10
3.87027
20
-0.283952
11
3.87027
21
-0.257705
0
LINE
8
BLACK
6
CONTINUOUS
10
3.87027
20
-0.261455
11
3.87214
21
-0.25958
0
LINE
8
BLACK
6
CONTINUOUS
10
3.87214
20
-0.25958
11
3.87589
21
-0.257705
0
LINE
8
BLACK
6
CONTINUOUS
10
3.87589
20
-0.257705
11
3.88151
21
-0.257705
0
LINE
8
BLACK
6
CONTINUOUS
10
3.88151
20
-0.257705
11
3.88526
21
-0.25958
0
LINE
8
BLACK
6
CONTINUOUS
10
3.88526
20
-0.25958
11
3.88714
21
-0.26333
0
LINE
8
BLACK
6
CONTINUOUS
10
3.88714
20
-0.26333
11
3.88714
21
-0.283952
0
LINE
8
BLACK
6
CONTINUOUS
10
3.88714
20
-0.26333
11
3.88901
21
-0.25958
0
LINE
8
BLACK
6
CONTINUOUS
10
3.88901
20
-0.25958
11
3.89276
21
-0.257705
0
LINE
8
BLACK
6
CONTINUOUS
10
3.89276
20
-0.257705
11
3.89839
21
-0.257705
0
LINE
8
BLACK
6
CONTINUOUS
10
3.89839
20
-0.257705
11
3.90214
21
-0.25958
0
LINE
8
BLACK
6
CONTINUOUS
10
3.90214
20
-0.25958
11
3.90401
21
-0.26333
0
LINE
8
BLACK
6
CONTINUOUS
10
3.90401
20
-0.26333
11
3.90401
21
-0.283952
0
LINE
8
BLACK
6
CONTINUOUS
10
3.92276
20
-0.283952
11
3.92276
21
-0.257705
0
LINE
8
BLACK
6
CONTINUOUS
10
3.92276
20
-0.261455
11
3.92463
21
-0.25958
0
LINE
8
BLACK
6
CONTINUOUS
10
3.92463
20
-0.25958
11
3.92838
21
-0.257705
0
LINE
8
BLACK
6
CONTINUOUS
10
3.92838
20
-0.257705
11
3.93401
21
-0.257705
0
LINE
8
BLACK
6
CONTINUOUS
10
3.93401
20
-0.257705
11
3.93776
21
-0.25958
0
LINE
8
BLACK
6
CONTINUOUS
10
3.93776
20
-0.25958
11
3.93963
21
-0.26333
0
LINE
8
BLACK
6
CONTINUOUS
10
3.93963
20
-0.26333
11
3.93963
21
-0.283952
0
LINE
8
BLACK
6
CONTINUOUS
10
3.93963
20
-0.26333
11
3.94151
21
-0.25958
0
LINE
8
BLACK
6
CONTINUOUS
10
3.94151
20
-0.25958
11
3.94526
21
-0.257705
0
LINE
8
BLACK
6
CONTINUOUS
10
3.94526
20
-0.257705
11
3.95088
21
-0.257705
0
LINE
8
BLACK
6
CONTINUOUS
10
3.95088
20
-0.257705
11
3.95463
21
-0.25958
0
LINE
8
BLACK
6
CONTINUOUS
10
3.95463
20
-0.25958
11
3.95651
21
-0.26333
0
LINE
8
BLACK
6
CONTINUOUS
10
3.95651
20
-0.26333
11
3.95651
21
-0.283952
0
LINE
8
BLACK
6
CONTINUOUS
10
3.51969
20
-0.313386
11
4.07087
21
-0.313386
0
LINE
8
BLACK
6
CONTINUOUS
10
3.51969
20
-0.318898
11
3.51969
21
-0.290298
0
LINE
8
BLACK
6
CONTINUOUS
10
4.07087
20
-0.318898
11
4.07087
21
-0.290298
0
LINE
8
BLACK
6
CONTINUOUS
10
4.07087
20
-0.313386
11
4.02652
21
-0.336473
0
LINE
8
BLACK
6
CONTINUOUS
10
4.07087
20
-0.313386
11
4.02652
21
-0.290298
0
LINE
8
BLACK
6
CONTINUOUS
10
3.51969
20
-0.313386
11
3.56404
21
-0.336473
0
LINE
8
BLACK
6
CONTINUOUS
10
3.51969
20
-0.313386
11
3.56404
21
-0.290298
0
LINE
8
BLACK
6
CONTINUOUS
10
4.59366
20
-3.40852
11
4.59554
21
-3.40477
0
LINE
8
BLACK
6
CONTINUOUS
10
4.59554
20
-3.40477
11
4.59741
21
-3.40289
0
LINE
8
BLACK
6
CONTINUOUS
10
4.59741
20
-3.40289
11
4.60116
21
-3.40102
0
LINE
8
BLACK
6
CONTINUOUS
10
4.60116
20
-3.40102
11
4.60304
21
-3.40102
0
LINE
8
BLACK
6
CONTINUOUS
10
4.60304
20
-3.40102
11
4.60679
21
-3.40289
0
LINE
8
BLACK
6
CONTINUOUS
10
4.60679
20
-3.40289
11
4.60866
21
-3.40477
0
LINE
8
BLACK
6
CONTINUOUS
10
4.60866
20
-3.40477
11
4.61054
21
-3.40852
0
LINE
8
BLACK
6
CONTINUOUS
10
4.61054
20
-3.40852
11
4.61054
21
-3.41602
0
LINE
8
BLACK
6
CONTINUOUS
10
4.61054
20
-3.41602
11
4.60866
21
-3.41976
0
LINE
8
BLACK
6
CONTINUOUS
10
4.60866
20
-3.41976
11
4.60679
21
-3.42164
0
LINE
8
BLACK
6
CONTINUOUS
10
4.60679
20
-3.42164
11
4.60304
21
-3.42351
0
LINE
8
BLACK
6
CONTINUOUS
10
4.60304
20
-3.42351
11
4.60116
21
-3.42351
0
LINE
8
BLACK
6
CONTINUOUS
10
4.60116
20
-3.42351
11
4.59741
21
-3.42164
0
LINE
8
BLACK
6
CONTINUOUS
10
4.59741
20
-3.42164
11
4.59554
21
-3.41976
0
LINE
8
BLACK
6
CONTINUOUS
10
4.59554
20
-3.41976
11
4.59366
21
-3.41602
0
LINE
8
BLACK
6
CONTINUOUS
10
4.59366
20
-3.41602
11
4.59366
21
-3.40852
0
LINE
8
BLACK
6
CONTINUOUS
10
4.59366
20
-3.40852
11
4.59179
21
-3.40477
0
LINE
8
BLACK
6
CONTINUOUS
10
4.59179
20
-3.40477
11
4.58991
21
-3.40289
0
LINE
8
BLACK
6
CONTINUOUS
10
4.58991
20
-3.40289
11
4.58616
21
-3.40102
0
LINE
8
BLACK
6
CONTINUOUS
10
4.58616
20
-3.40102
11
4.57867
21
-3.40102
0
LINE
8
BLACK
6
CONTINUOUS
10
4.57867
20
-3.40102
11
4.57492
21
-3.40289
0
LINE
8
BLACK
6
CONTINUOUS
10
4.57492
20
-3.40289
11
4.57304
21
-3.40477
0
LINE
8
BLACK
6
CONTINUOUS
10
4.57304
20
-3.40477
11
4.57117
21
-3.40852
0
LINE
8
BLACK
6
CONTINUOUS
10
4.57117
20
-3.40852
11
4.57117
21
-3.41602
0
LINE
8
BLACK
6
CONTINUOUS
10
4.57117
20
-3.41602
11
4.57304
21
-3.41976
0
LINE
8
BLACK
6
CONTINUOUS
10
4.57304
20
-3.41976
11
4.57492
21
-3.42164
0
LINE
8
BLACK
6
CONTINUOUS
10
4.57492
20
-3.42164
11
4.57867
21
-3.42351
0
LINE
8
BLACK
6
CONTINUOUS
10
4.57867
20
-3.42351
11
4.58616
21
-3.42351
0
LINE
8
BLACK
6
CONTINUOUS
10
4.58616
20
-3.42351
11
4.58991
21
-3.42164
0
LINE
8
BLACK
6
CONTINUOUS
10
4.58991
20
-3.42164
11
4.59179
21
-3.41976
0
LINE
8
BLACK
6
CONTINUOUS
10
4.59179
20
-3.41976
11
4.59366
21
-3.41602
0
LINE
8
BLACK
6
CONTINUOUS
10
4.57492
20
-3.44039
11
4.57304
21
-3.44226
0
LINE
8
BLACK
6
CONTINUOUS
10
4.57304
20
-3.44226
11
4.57117
21
-3.44039
0
LINE
8
BLACK
6
CONTINUOUS
10
4.57117
20
-3.44039
11
4.57304
21
-3.43851
0
LINE
8
BLACK
6
CONTINUOUS
10
4.57304
20
-3.43851
11
4.57492
21
-3.44039
0
LINE
8
BLACK
6
CONTINUOUS
10
4.57492
20
-3.44039
11
4.57117
21
-3.44039
0
LINE
8
BLACK
6
CONTINUOUS
10
4.61054
20
-3.47788
11
4.61054
21
-3.45913
0
LINE
8
BLACK
6
CONTINUOUS
10
4.61054
20
-3.45913
11
4.59179
21
-3.45726
0
LINE
8
BLACK
6
CONTINUOUS
10
4.59179
20
-3.45726
11
4.59366
21
-3.45913
0
LINE
8
BLACK
6
CONTINUOUS
10
4.59366
20
-3.45913
11
4.59554
21
-3.46288
0
LINE
8
BLACK
6
CONTINUOUS
10
4.59554
20
-3.46288
11
4.59554
21
-3.47226
0
LINE
8
BLACK
6
CONTINUOUS
10
4.59554
20
-3.47226
11
4.59366
21
-3.47601
0
LINE
8
BLACK
6
CONTINUOUS
10
4.59366
20
-3.47601
11
4.59179
21
-3.47788
0
LINE
8
BLACK
6
CONTINUOUS
10
4.59179
20
-3.47788
11
4.58804
21
-3.47976
0
LINE
8
BLACK
6
CONTINUOUS
10
4.58804
20
-3.47976
11
4.57867
21
-3.47976
0
LINE
8
BLACK
6
CONTINUOUS
10
4.57867
20
-3.47976
11
4.57492
21
-3.47788
0
LINE
8
BLACK
6
CONTINUOUS
10
4.57492
20
-3.47788
11
4.57304
21
-3.47601
0
LINE
8
BLACK
6
CONTINUOUS
10
4.57304
20
-3.47601
11
4.57117
21
-3.47226
0
LINE
8
BLACK
6
CONTINUOUS
10
4.57117
20
-3.47226
11
4.57117
21
-3.46288
0
LINE
8
BLACK
6
CONTINUOUS
10
4.57117
20
-3.46288
11
4.57304
21
-3.45913
0
LINE
8
BLACK
6
CONTINUOUS
10
4.57304
20
-3.45913
11
4.57492
21
-3.45726
0
LINE
8
BLACK
6
CONTINUOUS
10
4.61054
20
-3.51538
11
4.61054
21
-3.49663
0
LINE
8
BLACK
6
CONTINUOUS
10
4.61054
20
-3.49663
11
4.59179
21
-3.49476
0
LINE
8
BLACK
6
CONTINUOUS
10
4.59179
20
-3.49476
11
4.59366
21
-3.49663
0
LINE
8
BLACK
6
CONTINUOUS
10
4.59366
20
-3.49663
11
4.59554
21
-3.50038
0
LINE
8
BLACK
6
CONTINUOUS
10
4.59554
20
-3.50038
11
4.59554
21
-3.50975
0
LINE
8
BLACK
6
CONTINUOUS
10
4.59554
20
-3.50975
11
4.59366
21
-3.5135
0
LINE
8
BLACK
6
CONTINUOUS
10
4.59366
20
-3.5135
11
4.59179
21
-3.51538
0
LINE
8
BLACK
6
CONTINUOUS
10
4.59179
20
-3.51538
11
4.58804
21
-3.51725
0
LINE
8
BLACK
6
CONTINUOUS
10
4.58804
20
-3.51725
11
4.57867
21
-3.51725
0
LINE
8
BLACK
6
CONTINUOUS
10
4.57867
20
-3.51725
11
4.57492
21
-3.51538
0
LINE
8
BLACK
6
CONTINUOUS
10
4.57492
20
-3.51538
11
4.57304
21
-3.5135
0
LINE
8
BLACK
6
CONTINUOUS
10
4.57304
20
-3.5135
11
4.57117
21
-3.50975
0
LINE
8
BLACK
6
CONTINUOUS
10
4.57117
20
-3.50975
11
4.57117
21
-3.50038
0
LINE
8
BLACK
6
CONTINUOUS
10
4.57117
20
-3.50038
11
4.57304
21
-3.49663
0
LINE
8
BLACK
6
CONTINUOUS
10
4.57304
20
-3.49663
11
4.57492
21
-3.49476
0
LINE
8
BLACK
6
CONTINUOUS
10
4.61054
20
-3.55287
11
4.61054
21
-3.53413
0
LINE
8
BLACK
6
CONTINUOUS
10
4.61054
20
-3.53413
11
4.59179
21
-3.53225
0
LINE
8
BLACK
6
CONTINUOUS
10
4.59179
20
-3.53225
11
4.59366
21
-3.53413
0
LINE
8
BLACK
6
CONTINUOUS
10
4.59366
20
-3.53413
11
4.59554
21
-3.53787
0
LINE
8
BLACK
6
CONTINUOUS
10
4.59554
20
-3.53787
11
4.59554
21
-3.54725
0
LINE
8
BLACK
6
CONTINUOUS
10
4.59554
20
-3.54725
11
4.59366
21
-3.551
0
LINE
8
BLACK
6
CONTINUOUS
10
4.59366
20
-3.551
11
4.59179
21
-3.55287
0
LINE
8
BLACK
6
CONTINUOUS
10
4.59179
20
-3.55287
11
4.58804
21
-3.55475
0
LINE
8
BLACK
6
CONTINUOUS
10
4.58804
20
-3.55475
11
4.57867
21
-3.55475
0
LINE
8
BLACK
6
CONTINUOUS
10
4.57867
20
-3.55475
11
4.57492
21
-3.55287
0
LINE
8
BLACK
6
CONTINUOUS
10
4.57492
20
-3.55287
11
4.57304
21
-3.551
0
LINE
8
BLACK
6
CONTINUOUS
10
4.57304
20
-3.551
11
4.57117
21
-3.54725
0
LINE
8
BLACK
6
CONTINUOUS
10
4.57117
20
-3.54725
11
4.57117
21
-3.53787
0
LINE
8
BLACK
6
CONTINUOUS
10
4.57117
20
-3.53787
11
4.57304
21
-3.53413
0
LINE
8
BLACK
6
CONTINUOUS
10
4.57304
20
-3.53413
11
4.57492
21
-3.53225
0
LINE
8
BLACK
6
CONTINUOUS
10
4.57117
20
-3.60162
11
4.59741
21
-3.60162
0
LINE
8
BLACK
6
CONTINUOUS
10
4.59366
20
-3.60162
11
4.59554
21
-3.60349
0
LINE
8
BLACK
6
CONTINUOUS
10
4.59554
20
-3.60349
11
4.59741
21
-3.60724
0
LINE
8
BLACK
6
CONTINUOUS
10
4.59741
20
-3.60724
11
4.59741
21
-3.61287
0
LINE
8
BLACK
6
CONTINUOUS
10
4.59741
20
-3.61287
11
4.59554
21
-3.61662
0
LINE
8
BLACK
6
CONTINUOUS
10
4.59554
20
-3.61662
11
4.59179
21
-3.61849
0
LINE
8
BLACK
6
CONTINUOUS
10
4.59179
20
-3.61849
11
4.57117
21
-3.61849
0
LINE
8
BLACK
6
CONTINUOUS
10
4.59179
20
-3.61849
11
4.59554
21
-3.62036
0
LINE
8
BLACK
6
CONTINUOUS
10
4.59554
20
-3.62036
11
4.59741
21
-3.62411
0
LINE
8
BLACK
6
CONTINUOUS
10
4.59741
20
-3.62411
11
4.59741
21
-3.62974
0
LINE
8
BLACK
6
CONTINUOUS
10
4.59741
20
-3.62974
11
4.59554
21
-3.63349
0
LINE
8
BLACK
6
CONTINUOUS
10
4.59554
20
-3.63349
11
4.59179
21
-3.63536
0
LINE
8
BLACK
6
CONTINUOUS
10
4.59179
20
-3.63536
11
4.57117
21
-3.63536
0
LINE
8
BLACK
6
CONTINUOUS
10
4.57117
20
-3.65411
11
4.59741
21
-3.65411
0
LINE
8
BLACK
6
CONTINUOUS
10
4.59366
20
-3.65411
11
4.59554
21
-3.65599
0
LINE
8
BLACK
6
CONTINUOUS
10
4.59554
20
-3.65599
11
4.59741
21
-3.65973
0
LINE
8
BLACK
6
CONTINUOUS
10
4.59741
20
-3.65973
11
4.59741
21
-3.66536
0
LINE
8
BLACK
6
CONTINUOUS
10
4.59741
20
-3.66536
11
4.59554
21
-3.66911
0
LINE
8
BLACK
6
CONTINUOUS
10
4.59554
20
-3.66911
11
4.59179
21
-3.67098
0
LINE
8
BLACK
6
CONTINUOUS
10
4.59179
20
-3.67098
11
4.57117
21
-3.67098
0
LINE
8
BLACK
6
CONTINUOUS
10
4.59179
20
-3.67098
11
4.59554
21
-3.67286
0
LINE
8
BLACK
6
CONTINUOUS
10
4.59554
20
-3.67286
11
4.59741
21
-3.67661
0
LINE
8
BLACK
6
CONTINUOUS
10
4.59741
20
-3.67661
11
4.59741
21
-3.68223
0
LINE
8
BLACK
6
CONTINUOUS
10
4.59741
20
-3.68223
11
4.59554
21
-3.68598
0
LINE
8
BLACK
6
CONTINUOUS
10
4.59554
20
-3.68598
11
4.59179
21
-3.68786
0
LINE
8
BLACK
6
CONTINUOUS
10
4.59179
20
-3.68786
11
4.57117
21
-3.68786
0
LINE
8
BLACK
6
CONTINUOUS
10
4.63622
20
-3.37697
11
4.63622
21
-3.71378
0
LINE
8
BLACK
6
CONTINUOUS
10
4.65118
20
-3.37697
11
4.61313
21
-3.37697
0
LINE
8
BLACK
6
CONTINUOUS
10
4.65118
20
-3.71378
11
4.61313
21
-3.71378
0
LINE
8
BLACK
6
CONTINUOUS
10
4.63622
20
-3.71378
11
4.61313
21
-3.66943
0
LINE
8
BLACK
6
CONTINUOUS
10
4.63622
20
-3.71378
11
4.65931
21
-3.66943
0
LINE
8
BLACK
6
CONTINUOUS
10
4.63622
20
-3.37697
11
4.61313
21
-3.42132
0
LINE
8
BLACK
6
CONTINUOUS
10
4.63622
20
-3.37697
11
4.65931
21
-3.42132
0
LINE
8
BLACK
6
CONTINUOUS
10
0.0180076
20
-3.81644
11
0.0198823
21
-3.81457
0
LINE
8
BLACK
6
CONTINUOUS
10
0.0198823
20
-3.81457
11
0.0236319
21
-3.81269
0
LINE
8
BLACK
6
CONTINUOUS
10
0.0236319
20
-3.81269
11
0.0330057
21
-3.81269
0
LINE
8
BLACK
6
CONTINUOUS
10
0.0330057
20
-3.81269
11
0.0367552
21
-3.81457
0
LINE
8
BLACK
6
CONTINUOUS
10
0.0367552
20
-3.81457
11
0.03863
21
-3.81644
0
LINE
8
BLACK
6
CONTINUOUS
10
0.03863
20
-3.81644
11
0.0405048
21
-3.82019
0
LINE
8
BLACK
6
CONTINUOUS
10
0.0405048
20
-3.82019
11
0.0405048
21
-3.82394
0
LINE
8
BLACK
6
CONTINUOUS
10
0.0405048
20
-3.82394
11
0.03863
21
-3.82957
0
LINE
8
BLACK
6
CONTINUOUS
10
0.03863
20
-3.82957
11
0.0161328
21
-3.85206
0
LINE
8
BLACK
6
CONTINUOUS
10
0.0161328
20
-3.85206
11
0.0405048
21
-3.85206
0
LINE
8
BLACK
6
CONTINUOUS
10
0.0761253
20
-3.81269
11
0.0573776
21
-3.81269
0
LINE
8
BLACK
6
CONTINUOUS
10
0.0573776
20
-3.81269
11
0.0555029
21
-3.83144
0
LINE
8
BLACK
6
CONTINUOUS
10
0.0555029
20
-3.83144
11
0.0573776
21
-3.82957
0
LINE
8
BLACK
6
CONTINUOUS
10
0.0573776
20
-3.82957
11
0.0611272
21
-3.82769
0
LINE
8
BLACK
6
CONTINUOUS
10
0.0611272
20
-3.82769
11
0.070501
21
-3.82769
0
LINE
8
BLACK
6
CONTINUOUS
10
0.070501
20
-3.82769
11
0.0742506
21
-3.82957
0
LINE
8
BLACK
6
CONTINUOUS
10
0.0742506
20
-3.82957
11
0.0761253
21
-3.83144
0
LINE
8
BLACK
6
CONTINUOUS
10
0.0761253
20
-3.83144
11
0.0780001
21
-3.83519
0
LINE
8
BLACK
6
CONTINUOUS
10
0.0780001
20
-3.83519
11
0.0780001
21
-3.84456
0
LINE
8
BLACK
6
CONTINUOUS
10
0.0780001
20
-3.84456
11
0.0761253
21
-3.84831
0
LINE
8
BLACK
6
CONTINUOUS
10
0.0761253
20
-3.84831
11
0.0742506
21
-3.85019
0
LINE
8
BLACK
6
CONTINUOUS
10
0.0742506
20
-3.85019
11
0.070501
21
-3.85206
0
LINE
8
BLACK
6
CONTINUOUS
10
0.070501
20
-3.85206
11
0.0611272
21
-3.85206
0
LINE
8
BLACK
6
CONTINUOUS
10
0.0611272
20
-3.85206
11
0.0573776
21
-3.85019
0
LINE
8
BLACK
6
CONTINUOUS
10
0.0573776
20
-3.85019
11
0.0555029
21
-3.84831
0
LINE
8
BLACK
6
CONTINUOUS
10
0.094873
20
-3.84831
11
0.0967477
21
-3.85019
0
LINE
8
BLACK
6
CONTINUOUS
10
0.0967477
20
-3.85019
11
0.094873
21
-3.85206
0
LINE
8
BLACK
6
CONTINUOUS
10
0.094873
20
-3.85206
11
0.0929982
21
-3.85019
0
LINE
8
BLACK
6
CONTINUOUS
10
0.0929982
20
-3.85019
11
0.094873
21
-3.84831
0
LINE
8
BLACK
6
CONTINUOUS
10
0.094873
20
-3.84831
11
0.094873
21
-3.85206
0
LINE
8
BLACK
6
CONTINUOUS
10
0.115495
20
-3.85206
11
0.122994
21
-3.85206
0
LINE
8
BLACK
6
CONTINUOUS
10
0.122994
20
-3.85206
11
0.126744
21
-3.85019
0
LINE
8
BLACK
6
CONTINUOUS
10
0.126744
20
-3.85019
11
0.128619
21
-3.84831
0
LINE
8
BLACK
6
CONTINUOUS
10
0.128619
20
-3.84831
11
0.132368
21
-3.84269
0
LINE
8
BLACK
6
CONTINUOUS
10
0.132368
20
-3.84269
11
0.134243
21
-3.83519
0
LINE
8
BLACK
6
CONTINUOUS
10
0.134243
20
-3.83519
11
0.134243
21
-3.82019
0
LINE
8
BLACK
6
CONTINUOUS
10
0.134243
20
-3.82019
11
0.132368
21
-3.81644
0
LINE
8
BLACK
6
CONTINUOUS
10
0.132368
20
-3.81644
11
0.130494
21
-3.81457
0
LINE
8
BLACK
6
CONTINUOUS
10
0.130494
20
-3.81457
11
0.126744
21
-3.81269
0
LINE
8
BLACK
6
CONTINUOUS
10
0.126744
20
-3.81269
11
0.119245
21
-3.81269
0
LINE
8
BLACK
6
CONTINUOUS
10
0.119245
20
-3.81269
11
0.115495
21
-3.81457
0
LINE
8
BLACK
6
CONTINUOUS
10
0.115495
20
-3.81457
11
0.113621
21
-3.81644
0
LINE
8
BLACK
6
CONTINUOUS
10
0.113621
20
-3.81644
11
0.111746
21
-3.82019
0
LINE
8
BLACK
6
CONTINUOUS
10
0.111746
20
-3.82019
11
0.111746
21
-3.82957
0
LINE
8
BLACK
6
CONTINUOUS
10
0.111746
20
-3.82957
11
0.113621
21
-3.83331
0
LINE
8
BLACK
6
CONTINUOUS
10
0.113621
20
-3.83331
11
0.115495
21
-3.83519
0
LINE
8
BLACK
6
CONTINUOUS
10
0.115495
20
-3.83519
11
0.119245
21
-3.83706
0
LINE
8
BLACK
6
CONTINUOUS
10
0.119245
20
-3.83706
11
0.126744
21
-3.83706
0
LINE
8
BLACK
6
CONTINUOUS
10
0.126744
20
-3.83706
11
0.130494
21
-3.83519
0
LINE
8
BLACK
6
CONTINUOUS
10
0.130494
20
-3.83519
11
0.132368
21
-3.83331
0
LINE
8
BLACK
6
CONTINUOUS
10
0.132368
20
-3.83331
11
0.134243
21
-3.82957
0
LINE
8
BLACK
6
CONTINUOUS
10
0.169864
20
-3.81269
11
0.151116
21
-3.81269
0
LINE
8
BLACK
6
CONTINUOUS
10
0.151116
20
-3.81269
11
0.149241
21
-3.83144
0
LINE
8
BLACK
6
CONTINUOUS
10
0.149241
20
-3.83144
11
0.151116
21
-3.82957
0
LINE
8
BLACK
6
CONTINUOUS
10
0.151116
20
-3.82957
11
0.154865
21
-3.82769
0
LINE
8
BLACK
6
CONTINUOUS
10
0.154865
20
-3.82769
11
0.164239
21
-3.82769
0
LINE
8
BLACK
6
CONTINUOUS
10
0.164239
20
-3.82769
11
0.167989
21
-3.82957
0
LINE
8
BLACK
6
CONTINUOUS
10
0.167989
20
-3.82957
11
0.169864
21
-3.83144
0
LINE
8
BLACK
6
CONTINUOUS
10
0.169864
20
-3.83144
11
0.171738
21
-3.83519
0
LINE
8
BLACK
6
CONTINUOUS
10
0.171738
20
-3.83519
11
0.171738
21
-3.84456
0
LINE
8
BLACK
6
CONTINUOUS
10
0.171738
20
-3.84456
11
0.169864
21
-3.84831
0
LINE
8
BLACK
6
CONTINUOUS
10
0.169864
20
-3.84831
11
0.167989
21
-3.85019
0
LINE
8
BLACK
6
CONTINUOUS
10
0.167989
20
-3.85019
11
0.164239
21
-3.85206
0
LINE
8
BLACK
6
CONTINUOUS
10
0.164239
20
-3.85206
11
0.154865
21
-3.85206
0
LINE
8
BLACK
6
CONTINUOUS
10
0.154865
20
-3.85206
11
0.151116
21
-3.85019
0
LINE
8
BLACK
6
CONTINUOUS
10
0.151116
20
-3.85019
11
0.149241
21
-3.84831
0
LINE
8
BLACK
6
CONTINUOUS
10
0.19611
20
-3.81269
11
0.19986
21
-3.81269
0
LINE
8
BLACK
6
CONTINUOUS
10
0.19986
20
-3.81269
11
0.203609
21
-3.81457
0
LINE
8
BLACK
6
CONTINUOUS
10
0.203609
20
-3.81457
11
0.205484
21
-3.81644
0
LINE
8
BLACK
6
CONTINUOUS
10
0.205484
20
-3.81644
11
0.207359
21
-3.82019
0
LINE
8
BLACK
6
CONTINUOUS
10
0.207359
20
-3.82019
11
0.209234
21
-3.82769
0
LINE
8
BLACK
6
CONTINUOUS
10
0.209234
20
-3.82769
11
0.209234
21
-3.83706
0
LINE
8
BLACK
6
CONTINUOUS
10
0.209234
20
-3.83706
11
0.207359
21
-3.84456
0
LINE
8
BLACK
6
CONTINUOUS
10
0.207359
20
-3.84456
11
0.205484
21
-3.84831
0
LINE
8
BLACK
6
CONTINUOUS
10
0.205484
20
-3.84831
11
0.203609
21
-3.85019
0
LINE
8
BLACK
6
CONTINUOUS
10
0.203609
20
-3.85019
11
0.19986
21
-3.85206
0
LINE
8
BLACK
6
CONTINUOUS
10
0.19986
20
-3.85206
11
0.19611
21
-3.85206
0
LINE
8
BLACK
6
CONTINUOUS
10
0.19611
20
-3.85206
11
0.192361
21
-3.85019
0
LINE
8
BLACK
6
CONTINUOUS
10
0.192361
20
-3.85019
11
0.190486
21
-3.84831
0
LINE
8
BLACK
6
CONTINUOUS
10
0.190486
20
-3.84831
11
0.188611
21
-3.84456
0
LINE
8
BLACK
6
CONTINUOUS
10
0.188611
20
-3.84456
11
0.186736
21
-3.83706
0
LINE
8
BLACK
6
CONTINUOUS
10
0.186736
20
-3.83706
11
0.186736
21
-3.82769
0
LINE
8
BLACK
6
CONTINUOUS
10
0.186736
20
-3.82769
11
0.188611
21
-3.82019
0
LINE
8
BLACK
6
CONTINUOUS
10
0.188611
20
-3.82019
11
0.190486
21
-3.81644
0
LINE
8
BLACK
6
CONTINUOUS
10
0.190486
20
-3.81644
11
0.192361
21
-3.81457
0
LINE
8
BLACK
6
CONTINUOUS
10
0.192361
20
-3.81457
11
0.19611
21
-3.81269
0
LINE
8
BLACK
6
CONTINUOUS
10
0.256103
20
-3.85206
11
0.256103
21
-3.82582
0
LINE
8
BLACK
6
CONTINUOUS
10
0.256103
20
-3.82957
11
0.257978
21
-3.82769
0
LINE
8
BLACK
6
CONTINUOUS
10
0.257978
20
-3.82769
11
0.261727
21
-3.82582
0
LINE
8
BLACK
6
CONTINUOUS
10
0.261727
20
-3.82582
11
0.267351
21
-3.82582
0
LINE
8
BLACK
6
CONTINUOUS
10
0.267351
20
-3.82582
11
0.271101
21
-3.82769
0
LINE
8
BLACK
6
CONTINUOUS
10
0.271101
20
-3.82769
11
0.272976
21
-3.83144
0
LINE
8
BLACK
6
CONTINUOUS
10
0.272976
20
-3.83144
11
0.272976
21
-3.85206
0
LINE
8
BLACK
6
CONTINUOUS
10
0.272976
20
-3.83144
11
0.27485
21
-3.82769
0
LINE
8
BLACK
6
CONTINUOUS
10
0.27485
20
-3.82769
11
0.2786
21
-3.82582
0
LINE
8
BLACK
6
CONTINUOUS
10
0.2786
20
-3.82582
11
0.284224
21
-3.82582
0
LINE
8
BLACK
6
CONTINUOUS
10
0.284224
20
-3.82582
11
0.287974
21
-3.82769
0
LINE
8
BLACK
6
CONTINUOUS
10
0.287974
20
-3.82769
11
0.289849
21
-3.83144
0
LINE
8
BLACK
6
CONTINUOUS
10
0.289849
20
-3.83144
11
0.289849
21
-3.85206
0
LINE
8
BLACK
6
CONTINUOUS
10
0.308596
20
-3.85206
11
0.308596
21
-3.82582
0
LINE
8
BLACK
6
CONTINUOUS
10
0.308596
20
-3.82957
11
0.310471
21
-3.82769
0
LINE
8
BLACK
6
CONTINUOUS
10
0.310471
20
-3.82769
11
0.314221
21
-3.82582
0
LINE
8
BLACK
6
CONTINUOUS
10
0.314221
20
-3.82582
11
0.319845
21
-3.82582
0
LINE
8
BLACK
6
CONTINUOUS
10
0.319845
20
-3.82582
11
0.323594
21
-3.82769
0
LINE
8
BLACK
6
CONTINUOUS
10
0.323594
20
-3.82769
11
0.325469
21
-3.83144
0
LINE
8
BLACK
6
CONTINUOUS
10
0.325469
20
-3.83144
11
0.325469
21
-3.85206
0
LINE
8
BLACK
6
CONTINUOUS
10
0.325469
20
-3.83144
11
0.327344
21
-3.82769
0
LINE
8
BLACK
6
CONTINUOUS
10
0.327344
20
-3.82769
11
0.331093
21
-3.82582
0
LINE
8
BLACK
6
CONTINUOUS
10
0.331093
20
-3.82582
11
0.336718
21
-3.82582
0
LINE
8
BLACK
6
CONTINUOUS
10
0.336718
20
-3.82582
11
0.340467
21
-3.82769
0
LINE
8
BLACK
6
CONTINUOUS
10
0.340467
20
-3.82769
11
0.342342
21
-3.83144
0
LINE
8
BLACK
6
CONTINUOUS
10
0.342342
20
-3.83144
11
0.342342
21
-3.85206
0
LINE
8
BLACK
6
CONTINUOUS
10
0.691929
20
-3.78701
11
-0.329705
21
-3.78701
0
LINE
8
BLACK
6
CONTINUOUS
10
0.691929
20
-3.77303
11
0.691929
21
-3.8101
0
LINE
8
BLACK
6
CONTINUOUS
10
-0.329705
20
-3.77303
11
-0.329705
21
-3.8101
0
LINE
8
BLACK
6
CONTINUOUS
10
-0.329705
20
-3.78701
11
-0.285354
21
-3.76392
0
LINE
8
BLACK
6
CONTINUOUS
10
-0.329705
20
-3.78701
11
-0.285354
21
-3.8101
0
LINE
8
BLACK
6
CONTINUOUS
10
0.691929
20
-3.78701
11
0.647579
21
-3.76392
0
LINE
8
BLACK
6
CONTINUOUS
10
0.691929
20
-3.78701
11
0.647579
21
-3.8101
0
LINE
8
BLACK
6
CONTINUOUS
10
-0.505156
20
-1.88977
11
-0.503281
21
-1.88602
0
LINE
8
BLACK
6
CONTINUOUS
10
-0.503281
20
-1.88602
11
-0.501406
21
-1.88414
0
LINE
8
BLACK
6
CONTINUOUS
10
-0.501406
20
-1.88414
11
-0.497657
21
-1.88227
0
LINE
8
BLACK
6
CONTINUOUS
10
-0.497657
20
-1.88227
11
-0.495782
21
-1.88227
0
LINE
8
BLACK
6
CONTINUOUS
10
-0.495782
20
-1.88227
11
-0.492032
21
-1.88414
0
LINE
8
BLACK
6
CONTINUOUS
10
-0.492032
20
-1.88414
11
-0.490157
21
-1.88602
0
LINE
8
BLACK
6
CONTINUOUS
10
-0.490157
20
-1.88602
11
-0.488283
21
-1.88977
0
LINE
8
BLACK
6
CONTINUOUS
10
-0.488283
20
-1.88977
11
-0.488283
21
-1.89727
0
LINE
8
BLACK
6
CONTINUOUS
10
-0.488283
20
-1.89727
11
-0.490157
21
-1.90102
0
LINE
8
BLACK
6
CONTINUOUS
10
-0.490157
20
-1.90102
11
-0.492032
21
-1.90289
0
LINE
8
BLACK
6
CONTINUOUS
10
-0.492032
20
-1.90289
11
-0.495782
21
-1.90477
0
LINE
8
BLACK
6
CONTINUOUS
10
-0.495782
20
-1.90477
11
-0.497657
21
-1.90477
0
LINE
8
BLACK
6
CONTINUOUS
10
-0.497657
20
-1.90477
11
-0.501406
21
-1.90289
0
LINE
8
BLACK
6
CONTINUOUS
10
-0.501406
20
-1.90289
11
-0.503281
21
-1.90102
0
LINE
8
BLACK
6
CONTINUOUS
10
-0.503281
20
-1.90102
11
-0.505156
21
-1.89727
0
LINE
8
BLACK
6
CONTINUOUS
10
-0.505156
20
-1.89727
11
-0.505156
21
-1.88977
0
LINE
8
BLACK
6
CONTINUOUS
10
-0.505156
20
-1.88977
11
-0.50703
21
-1.88602
0
LINE
8
BLACK
6
CONTINUOUS
10
-0.50703
20
-1.88602
11
-0.508905
21
-1.88414
0
LINE
8
BLACK
6
CONTINUOUS
10
-0.508905
20
-1.88414
11
-0.512655
21
-1.88227
0
LINE
8
BLACK
6
CONTINUOUS
10
-0.512655
20
-1.88227
11
-0.520154
21
-1.88227
0
LINE
8
BLACK
6
CONTINUOUS
10
-0.520154
20
-1.88227
11
-0.523903
21
-1.88414
0
LINE
8
BLACK
6
CONTINUOUS
10
-0.523903
20
-1.88414
11
-0.525778
21
-1.88602
0
LINE
8
BLACK
6
CONTINUOUS
10
-0.525778
20
-1.88602
11
-0.527653
21
-1.88977
0
LINE
8
BLACK
6
CONTINUOUS
10
-0.527653
20
-1.88977
11
-0.527653
21
-1.89727
0
LINE
8
BLACK
6
CONTINUOUS
10
-0.527653
20
-1.89727
11
-0.525778
21
-1.90102
0
LINE
8
BLACK
6
CONTINUOUS
10
-0.525778
20
-1.90102
11
-0.523903
21
-1.90289
0
LINE
8
BLACK
6
CONTINUOUS
10
-0.523903
20
-1.90289
11
-0.520154
21
-1.90477
0
LINE
8
BLACK
6
CONTINUOUS
10
-0.520154
20
-1.90477
11
-0.512655
21
-1.90477
0
LINE
8
BLACK
6
CONTINUOUS
10
-0.512655
20
-1.90477
11
-0.508905
21
-1.90289
0
LINE
8
BLACK
6
CONTINUOUS
10
-0.508905
20
-1.90289
11
-0.50703
21
-1.90102
0
LINE
8
BLACK
6
CONTINUOUS
10
-0.50703
20
-1.90102
11
-0.505156
21
-1.89727
0
LINE
8
BLACK
6
CONTINUOUS
10
-0.501406
20
-1.93851
11
-0.527653
21
-1.93851
0
LINE
8
BLACK
6
CONTINUOUS
10
-0.486408
20
-1.92914
11
-0.514529
21
-1.91976
0
LINE
8
BLACK
6
CONTINUOUS
10
-0.514529
20
-1.91976
11
-0.514529
21
-1.94414
0
LINE
8
BLACK
6
CONTINUOUS
10
-0.523903
20
-1.95913
11
-0.525778
21
-1.96101
0
LINE
8
BLACK
6
CONTINUOUS
10
-0.525778
20
-1.96101
11
-0.527653
21
-1.95913
0
LINE
8
BLACK
6
CONTINUOUS
10
-0.527653
20
-1.95913
11
-0.525778
21
-1.95726
0
LINE
8
BLACK
6
CONTINUOUS
10
-0.525778
20
-1.95726
11
-0.523903
21
-1.95913
0
LINE
8
BLACK
6
CONTINUOUS
10
-0.523903
20
-1.95913
11
-0.527653
21
-1.95913
0
LINE
8
BLACK
6
CONTINUOUS
10
-0.488283
20
-1.97413
11
-0.488283
21
-2.00038
0
LINE
8
BLACK
6
CONTINUOUS
10
-0.488283
20
-2.00038
11
-0.527653
21
-1.98351
0
LINE
8
BLACK
6
CONTINUOUS
10
-0.488283
20
-2.03413
11
-0.488283
21
-2.01538
0
LINE
8
BLACK
6
CONTINUOUS
10
-0.488283
20
-2.01538
11
-0.50703
21
-2.0135
0
LINE
8
BLACK
6
CONTINUOUS
10
-0.50703
20
-2.0135
11
-0.505156
21
-2.01538
0
LINE
8
BLACK
6
CONTINUOUS
10
-0.505156
20
-2.01538
11
-0.503281
21
-2.01913
0
LINE
8
BLACK
6
CONTINUOUS
10
-0.503281
20
-2.01913
11
-0.503281
21
-2.0285
0
LINE
8
BLACK
6
CONTINUOUS
10
-0.503281
20
-2.0285
11
-0.505156
21
-2.03225
0
LINE
8
BLACK
6
CONTINUOUS
10
-0.505156
20
-2.03225
11
-0.50703
21
-2.03413
0
LINE
8
BLACK
6
CONTINUOUS
10
-0.50703
20
-2.03413
11
-0.51078
21
-2.036
0
LINE
8
BLACK
6
CONTINUOUS
10
-0.51078
20
-2.036
11
-0.520154
21
-2.036
0
LINE
8
BLACK
6
CONTINUOUS
10
-0.520154
20
-2.036
11
-0.523903
21
-2.03413
0
LINE
8
BLACK
6
CONTINUOUS
10
-0.523903
20
-2.03413
11
-0.525778
21
-2.03225
0
LINE
8
BLACK
6
CONTINUOUS
10
-0.525778
20
-2.03225
11
-0.527653
21
-2.0285
0
LINE
8
BLACK
6
CONTINUOUS
10
-0.527653
20
-2.0285
11
-0.527653
21
-2.01913
0
LINE
8
BLACK
6
CONTINUOUS
10
-0.527653
20
-2.01913
11
-0.525778
21
-2.01538
0
LINE
8
BLACK
6
CONTINUOUS
10
-0.525778
20
-2.01538
11
-0.523903
21
-2.0135
0
LINE
8
BLACK
6
CONTINUOUS
10
-0.488283
20
-2.07162
11
-0.488283
21
-2.05287
0
LINE
8
BLACK
6
CONTINUOUS
10
-0.488283
20
-2.05287
11
-0.50703
21
-2.051
0
LINE
8
BLACK
6
CONTINUOUS
10
-0.50703
20
-2.051
11
-0.505156
21
-2.05287
0
LINE
8
BLACK
6
CONTINUOUS
10
-0.505156
20
-2.05287
11
-0.503281
21
-2.05662
0
LINE
8
BLACK
6
CONTINUOUS
10
-0.503281
20
-2.05662
11
-0.503281
21
-2.066
0
LINE
8
BLACK
6
CONTINUOUS
10
-0.503281
20
-2.066
11
-0.505156
21
-2.06975
0
LINE
8
BLACK
6
CONTINUOUS
10
-0.505156
20
-2.06975
11
-0.50703
21
-2.07162
0
LINE
8
BLACK
6
CONTINUOUS
10
-0.50703
20
-2.07162
11
-0.51078
21
-2.0735
0
LINE
8
BLACK
6
CONTINUOUS
10
-0.51078
20
-2.0735
11
-0.520154
21
-2.0735
0
LINE
8
BLACK
6
CONTINUOUS
10
-0.520154
20
-2.0735
11
-0.523903
21
-2.07162
0
LINE
8
BLACK
6
CONTINUOUS
10
-0.523903
20
-2.07162
11
-0.525778
21
-2.06975
0
LINE
8
BLACK
6
CONTINUOUS
10
-0.525778
20
-2.06975
11
-0.527653
21
-2.066
0
LINE
8
BLACK
6
CONTINUOUS
10
-0.527653
20
-2.066
11
-0.527653
21
-2.05662
0
LINE
8
BLACK
6
CONTINUOUS
10
-0.527653
20
-2.05662
11
-0.525778
21
-2.05287
0
LINE
8
BLACK
6
CONTINUOUS
10
-0.525778
20
-2.05287
11
-0.523903
21
-2.051
0
LINE
8
BLACK
6
CONTINUOUS
10
-0.527653
20
-2.12036
11
-0.501406
21
-2.12036
0
LINE
8
BLACK
6
CONTINUOUS
10
-0.505156
20
-2.12036
11
-0.503281
21
-2.12224
0
LINE
8
BLACK
6
CONTINUOUS
10
-0.503281
20
-2.12224
11
-0.501406
21
-2.12599
0
LINE
8
BLACK
6
CONTINUOUS
10
-0.501406
20
-2.12599
11
-0.501406
21
-2.13161
0
LINE
8
BLACK
6
CONTINUOUS
10
-0.501406
20
-2.13161
11
-0.503281
21
-2.13536
0
LINE
8
BLACK
6
CONTINUOUS
10
-0.503281
20
-2.13536
11
-0.50703
21
-2.13724
0
LINE
8
BLACK
6
CONTINUOUS
10
-0.50703
20
-2.13724
11
-0.527653
21
-2.13724
0
LINE
8
BLACK
6
CONTINUOUS
10
-0.50703
20
-2.13724
11
-0.503281
21
-2.13911
0
LINE
8
BLACK
6
CONTINUOUS
10
-0.503281
20
-2.13911
11
-0.501406
21
-2.14286
0
LINE
8
BLACK
6
CONTINUOUS
10
-0.501406
20
-2.14286
11
-0.501406
21
-2.14849
0
LINE
8
BLACK
6
CONTINUOUS
10
-0.501406
20
-2.14849
11
-0.503281
21
-2.15224
0
LINE
8
BLACK
6
CONTINUOUS
10
-0.503281
20
-2.15224
11
-0.50703
21
-2.15411
0
LINE
8
BLACK
6
CONTINUOUS
10
-0.50703
20
-2.15411
11
-0.527653
21
-2.15411
0
LINE
8
BLACK
6
CONTINUOUS
10
-0.527653
20
-2.17286
11
-0.501406
21
-2.17286
0
LINE
8
BLACK
6
CONTINUOUS
10
-0.505156
20
-2.17286
11
-0.503281
21
-2.17473
0
LINE
8
BLACK
6
CONTINUOUS
10
-0.503281
20
-2.17473
11
-0.501406
21
-2.17848
0
LINE
8
BLACK
6
CONTINUOUS
10
-0.501406
20
-2.17848
11
-0.501406
21
-2.18411
0
LINE
8
BLACK
6
CONTINUOUS
10
-0.501406
20
-2.18411
11
-0.503281
21
-2.18786
0
LINE
8
BLACK
6
CONTINUOUS
10
-0.503281
20
-2.18786
11
-0.50703
21
-2.18973
0
LINE
8
BLACK
6
CONTINUOUS
10
-0.50703
20
-2.18973
11
-0.527653
21
-2.18973
0
LINE
8
BLACK
6
CONTINUOUS
10
-0.50703
20
-2.18973
11
-0.503281
21
-2.19161
0
LINE
8
BLACK
6
CONTINUOUS
10
-0.503281
20
-2.19161
11
-0.501406
21
-2.19536
0
LINE
8
BLACK
6
CONTINUOUS
10
-0.501406
20
-2.19536
11
-0.501406
21
-2.20098
0
LINE
8
BLACK
6
CONTINUOUS
10
-0.501406
20
-2.20098
11
-0.503281
21
-2.20473
0
LINE
8
BLACK
6
CONTINUOUS
10
-0.503281
20
-2.20473
11
-0.50703
21
-2.2066
0
LINE
8
BLACK
6
CONTINUOUS
10
-0.50703
20
-2.2066
11
-0.527653
21
-2.2066
0
LINE
8
BLACK
6
CONTINUOUS
10
-0.462598
20
-0.376969
11
-0.462598
21
-3.71378
0
LINE
8
BLACK
6
CONTINUOUS
10
-0.386614
20
-0.376969
11
-0.485686
21
-0.376969
0
LINE
8
BLACK
6
CONTINUOUS
10
-0.386614
20
-3.71378
11
-0.485686
21
-3.71378
0
LINE
8
BLACK
6
CONTINUOUS
10
-0.462598
20
-3.71378
11
-0.485686
21
-3.66943
0
LINE
8
BLACK
6
CONTINUOUS
10
-0.462598
20
-3.71378
11
-0.439511
21
-3.66943
0
LINE
8
BLACK
6
CONTINUOUS
10
-0.462598
20
-0.376969
11
-0.485686
21
-0.421319
0
LINE
8
BLACK
6
CONTINUOUS
10
-0.462598
20
-0.376969
11
-0.439511
21
-0.421319
0
LINE
8
BLACK
6
CONTINUOUS
10
0.670079
20
-3.71378
11
-0.310217
21
-3.71378
0
LINE
8
BLACK
6
CONTINUOUS
10
0.691929
20
-3.69429
11
0.691929
21
-3.39646
0
ARC
8
BLACK
10
-0.309035
20
-3.69311
40
0.020703
50
-183.27
51
-93.2705
0
ARC
8
BLACK
10
0.67126
20
-3.69311
40
0.020703
50
-93.2705
51
-3.27049
0
ARC
8
BLACK
10
0.712795
20
-3.39783
40
0.0209116
50
86.2218
51
176.222
0
LINE
8
BLACK
6
CONTINUOUS
10
5.17156
20
-1.71209
11
5.17156
21
-1.73833
0
LINE
8
BLACK
6
CONTINUOUS
10
5.17156
20
-1.73833
11
5.13219
21
-1.72146
0
LINE
8
BLACK
6
CONTINUOUS
10
5.17156
20
-1.77021
11
5.17156
21
-1.76271
0
LINE
8
BLACK
6
CONTINUOUS
10
5.17156
20
-1.76271
11
5.16969
21
-1.75896
0
LINE
8
BLACK
6
CONTINUOUS
10
5.16969
20
-1.75896
11
5.16781
21
-1.75708
0
LINE
8
BLACK
6
CONTINUOUS
10
5.16781
20
-1.75708
11
5.16219
21
-1.75333
0
LINE
8
BLACK
6
CONTINUOUS
10
5.16219
20
-1.75333
11
5.15469
21
-1.75146
0
LINE
8
BLACK
6
CONTINUOUS
10
5.15469
20
-1.75146
11
5.13969
21
-1.75146
0
LINE
8
BLACK
6
CONTINUOUS
10
5.13969
20
-1.75146
11
5.13594
21
-1.75333
0
LINE
8
BLACK
6
CONTINUOUS
10
5.13594
20
-1.75333
11
5.13406
21
-1.75521
0
LINE
8
BLACK
6
CONTINUOUS
10
5.13406
20
-1.75521
11
5.13219
21
-1.75896
0
LINE
8
BLACK
6
CONTINUOUS
10
5.13219
20
-1.75896
11
5.13219
21
-1.76646
0
LINE
8
BLACK
6
CONTINUOUS
10
5.13219
20
-1.76646
11
5.13406
21
-1.77021
0
LINE
8
BLACK
6
CONTINUOUS
10
5.13406
20
-1.77021
11
5.13594
21
-1.77208
0
LINE
8
BLACK
6
CONTINUOUS
10
5.13594
20
-1.77208
11
5.13969
21
-1.77395
0
LINE
8
BLACK
6
CONTINUOUS
10
5.13969
20
-1.77395
11
5.14906
21
-1.77395
0
LINE
8
BLACK
6
CONTINUOUS
10
5.14906
20
-1.77395
11
5.15281
21
-1.77208
0
LINE
8
BLACK
6
CONTINUOUS
10
5.15281
20
-1.77208
11
5.15469
21
-1.77021
0
LINE
8
BLACK
6
CONTINUOUS
10
5.15469
20
-1.77021
11
5.15656
21
-1.76646
0
LINE
8
BLACK
6
CONTINUOUS
10
5.15656
20
-1.76646
11
5.15656
21
-1.75896
0
LINE
8
BLACK
6
CONTINUOUS
10
5.15656
20
-1.75896
11
5.15469
21
-1.75521
0
LINE
8
BLACK
6
CONTINUOUS
10
5.15469
20
-1.75521
11
5.15281
21
-1.75333
0
LINE
8
BLACK
6
CONTINUOUS
10
5.15281
20
-1.75333
11
5.14906
21
-1.75146
0
LINE
8
BLACK
6
CONTINUOUS
10
5.13594
20
-1.79083
11
5.13406
21
-1.7927
0
LINE
8
BLACK
6
CONTINUOUS
10
5.13406
20
-1.7927
11
5.13219
21
-1.79083
0
LINE
8
BLACK
6
CONTINUOUS
10
5.13219
20
-1.79083
11
5.13406
21
-1.78895
0
LINE
8
BLACK
6
CONTINUOUS
10
5.13406
20
-1.78895
11
5.13594
21
-1.79083
0
LINE
8
BLACK
6
CONTINUOUS
10
5.13594
20
-1.79083
11
5.13219
21
-1.79083
0
LINE
8
BLACK
6
CONTINUOUS
10
5.16781
20
-1.8077
11
5.16969
21
-1.80958
0
LINE
8
BLACK
6
CONTINUOUS
10
5.16969
20
-1.80958
11
5.17156
21
-1.81332
0
LINE
8
BLACK
6
CONTINUOUS
10
5.17156
20
-1.81332
11
5.17156
21
-1.8227
0
LINE
8
BLACK
6
CONTINUOUS
10
5.17156
20
-1.8227
11
5.16969
21
-1.82645
0
LINE
8
BLACK
6
CONTINUOUS
10
5.16969
20
-1.82645
11
5.16781
21
-1.82832
0
LINE
8
BLACK
6
CONTINUOUS
10
5.16781
20
-1.82832
11
5.16406
21
-1.8302
0
LINE
8
BLACK
6
CONTINUOUS
10
5.16406
20
-1.8302
11
5.16031
21
-1.8302
0
LINE
8
BLACK
6
CONTINUOUS
10
5.16031
20
-1.8302
11
5.15469
21
-1.82832
0
LINE
8
BLACK
6
CONTINUOUS
10
5.15469
20
-1.82832
11
5.13219
21
-1.80583
0
LINE
8
BLACK
6
CONTINUOUS
10
5.13219
20
-1.80583
11
5.13219
21
-1.8302
0
LINE
8
BLACK
6
CONTINUOUS
10
5.17156
20
-1.85457
11
5.17156
21
-1.85832
0
LINE
8
BLACK
6
CONTINUOUS
10
5.17156
20
-1.85832
11
5.16969
21
-1.86207
0
LINE
8
BLACK
6
CONTINUOUS
10
5.16969
20
-1.86207
11
5.16781
21
-1.86394
0
LINE
8
BLACK
6
CONTINUOUS
10
5.16781
20
-1.86394
11
5.16406
21
-1.86582
0
LINE
8
BLACK
6
CONTINUOUS
10
5.16406
20
-1.86582
11
5.15656
21
-1.86769
0
LINE
8
BLACK
6
CONTINUOUS
10
5.15656
20
-1.86769
11
5.14719
21
-1.86769
0
LINE
8
BLACK
6
CONTINUOUS
10
5.14719
20
-1.86769
11
5.13969
21
-1.86582
0
LINE
8
BLACK
6
CONTINUOUS
10
5.13969
20
-1.86582
11
5.13594
21
-1.86394
0
LINE
8
BLACK
6
CONTINUOUS
10
5.13594
20
-1.86394
11
5.13406
21
-1.86207
0
LINE
8
BLACK
6
CONTINUOUS
10
5.13406
20
-1.86207
11
5.13219
21
-1.85832
0
LINE
8
BLACK
6
CONTINUOUS
10
5.13219
20
-1.85832
11
5.13219
21
-1.85457
0
LINE
8
BLACK
6
CONTINUOUS
10
5.13219
20
-1.85457
11
5.13406
21
-1.85082
0
LINE
8
BLACK
6
CONTINUOUS
10
5.13406
20
-1.85082
11
5.13594
21
-1.84895
0
LINE
8
BLACK
6
CONTINUOUS
10
5.13594
20
-1.84895
11
5.13969
21
-1.84707
0
LINE
8
BLACK
6
CONTINUOUS
10
5.13969
20
-1.84707
11
5.14719
21
-1.8452
0
LINE
8
BLACK
6
CONTINUOUS
10
5.14719
20
-1.8452
11
5.15656
21
-1.8452
0
LINE
8
BLACK
6
CONTINUOUS
10
5.15656
20
-1.8452
11
5.16406
21
-1.84707
0
LINE
8
BLACK
6
CONTINUOUS
10
5.16406
20
-1.84707
11
5.16781
21
-1.84895
0
LINE
8
BLACK
6
CONTINUOUS
10
5.16781
20
-1.84895
11
5.16969
21
-1.85082
0
LINE
8
BLACK
6
CONTINUOUS
10
5.16969
20
-1.85082
11
5.17156
21
-1.85457
0
LINE
8
BLACK
6
CONTINUOUS
10
5.17156
20
-1.90331
11
5.17156
21
-1.88457
0
LINE
8
BLACK
6
CONTINUOUS
10
5.17156
20
-1.88457
11
5.15281
21
-1.88269
0
LINE
8
BLACK
6
CONTINUOUS
10
5.15281
20
-1.88269
11
5.15469
21
-1.88457
0
LINE
8
BLACK
6
CONTINUOUS
10
5.15469
20
-1.88457
11
5.15656
21
-1.88832
0
LINE
8
BLACK
6
CONTINUOUS
10
5.15656
20
-1.88832
11
5.15656
21
-1.89769
0
LINE
8
BLACK
6
CONTINUOUS
10
5.15656
20
-1.89769
11
5.15469
21
-1.90144
0
LINE
8
BLACK
6
CONTINUOUS
10
5.15469
20
-1.90144
11
5.15281
21
-1.90331
0
LINE
8
BLACK
6
CONTINUOUS
10
5.15281
20
-1.90331
11
5.14906
21
-1.90519
0
LINE
8
BLACK
6
CONTINUOUS
10
5.14906
20
-1.90519
11
5.13969
21
-1.90519
0
LINE
8
BLACK
6
CONTINUOUS
10
5.13969
20
-1.90519
11
5.13594
21
-1.90331
0
LINE
8
BLACK
6
CONTINUOUS
10
5.13594
20
-1.90331
11
5.13406
21
-1.90144
0
LINE
8
BLACK
6
CONTINUOUS
10
5.13406
20
-1.90144
11
5.13219
21
-1.89769
0
LINE
8
BLACK
6
CONTINUOUS
10
5.13219
20
-1.89769
11
5.13219
21
-1.88832
0
LINE
8
BLACK
6
CONTINUOUS
10
5.13219
20
-1.88832
11
5.13406
21
-1.88457
0
LINE
8
BLACK
6
CONTINUOUS
10
5.13406
20
-1.88457
11
5.13594
21
-1.88269
0
LINE
8
BLACK
6
CONTINUOUS
10
5.13219
20
-1.95206
11
5.15844
21
-1.95206
0
LINE
8
BLACK
6
CONTINUOUS
10
5.15469
20
-1.95206
11
5.15656
21
-1.95393
0
LINE
8
BLACK
6
CONTINUOUS
10
5.15656
20
-1.95393
11
5.15844
21
-1.95768
0
LINE
8
BLACK
6
CONTINUOUS
10
5.15844
20
-1.95768
11
5.15844
21
-1.96331
0
LINE
8
BLACK
6
CONTINUOUS
10
5.15844
20
-1.96331
11
5.15656
21
-1.96706
0
LINE
8
BLACK
6
CONTINUOUS
10
5.15656
20
-1.96706
11
5.15281
21
-1.96893
0
LINE
8
BLACK
6
CONTINUOUS
10
5.15281
20
-1.96893
11
5.13219
21
-1.96893
0
LINE
8
BLACK
6
CONTINUOUS
10
5.15281
20
-1.96893
11
5.15656
21
-1.97081
0
LINE
8
BLACK
6
CONTINUOUS
10
5.15656
20
-1.97081
11
5.15844
21
-1.97455
0
LINE
8
BLACK
6
CONTINUOUS
10
5.15844
20
-1.97455
11
5.15844
21
-1.98018
0
LINE
8
BLACK
6
CONTINUOUS
10
5.15844
20
-1.98018
11
5.15656
21
-1.98393
0
LINE
8
BLACK
6
CONTINUOUS
10
5.15656
20
-1.98393
11
5.15281
21
-1.9858
0
LINE
8
BLACK
6
CONTINUOUS
10
5.15281
20
-1.9858
11
5.13219
21
-1.9858
0
LINE
8
BLACK
6
CONTINUOUS
10
5.13219
20
-2.00455
11
5.15844
21
-2.00455
0
LINE
8
BLACK
6
CONTINUOUS
10
5.15469
20
-2.00455
11
5.15656
21
-2.00643
0
LINE
8
BLACK
6
CONTINUOUS
10
5.15656
20
-2.00643
11
5.15844
21
-2.01018
0
LINE
8
BLACK
6
CONTINUOUS
10
5.15844
20
-2.01018
11
5.15844
21
-2.0158
0
LINE
8
BLACK
6
CONTINUOUS
10
5.15844
20
-2.0158
11
5.15656
21
-2.01955
0
LINE
8
BLACK
6
CONTINUOUS
10
5.15656
20
-2.01955
11
5.15281
21
-2.02142
0
LINE
8
BLACK
6
CONTINUOUS
10
5.15281
20
-2.02142
11
5.13219
21
-2.02142
0
LINE
8
BLACK
6
CONTINUOUS
10
5.15281
20
-2.02142
11
5.15656
21
-2.0233
0
LINE
8
BLACK
6
CONTINUOUS
10
5.15656
20
-2.0233
11
5.15844
21
-2.02705
0
LINE
8
BLACK
6
CONTINUOUS
10
5.15844
20
-2.02705
11
5.15844
21
-2.03267
0
LINE
8
BLACK
6
CONTINUOUS
10
5.15844
20
-2.03267
11
5.15656
21
-2.03642
0
LINE
8
BLACK
6
CONTINUOUS
10
5.15656
20
-2.03642
11
5.15281
21
-2.0383
0
LINE
8
BLACK
6
CONTINUOUS
10
5.15281
20
-2.0383
11
5.13219
21
-2.0383
0
LINE
8
BLACK
6
CONTINUOUS
10
5.10276
20
-0.376969
11
5.10276
21
-3.37717
0
LINE
8
BLACK
6
CONTINUOUS
10
4.2313
20
-0.376969
11
5.12584
21
-0.376969
0
LINE
8
BLACK
6
CONTINUOUS
10
4.2313
20
-3.37717
11
5.12584
21
-3.37717
0
LINE
8
BLACK
6
CONTINUOUS
10
5.10276
20
-3.37717
11
5.07967
21
-3.33281
0
LINE
8
BLACK
6
CONTINUOUS
10
5.10276
20
-3.37717
11
5.12584
21
-3.33281
0
LINE
8
BLACK
6
CONTINUOUS
10
5.10276
20
-0.376969
11
5.07967
21
-0.421319
0
LINE
8
BLACK
6
CONTINUOUS
10
5.10276
20
-0.376969
11
5.12584
21
-0.421319
0
LINE
8
BLACK
6
CONTINUOUS
10
1.76181
20
0.443213
11
1.73931
21
0.443213
0
LINE
8
BLACK
6
CONTINUOUS
10
1.75056
20
0.443213
11
1.75056
21
0.482583
0
LINE
8
BLACK
6
CONTINUOUS
10
1.75056
20
0.482583
11
1.74681
21
0.476959
0
LINE
8
BLACK
6
CONTINUOUS
10
1.74681
20
0.476959
11
1.74306
21
0.47321
0
LINE
8
BLACK
6
CONTINUOUS
10
1.74306
20
0.47321
11
1.73931
21
0.471335
0
LINE
8
BLACK
6
CONTINUOUS
10
1.7993
20
0.443213
11
1.7768
21
0.443213
0
LINE
8
BLACK
6
CONTINUOUS
10
1.78805
20
0.443213
11
1.78805
21
0.482583
0
LINE
8
BLACK
6
CONTINUOUS
10
1.78805
20
0.482583
11
1.7843
21
0.476959
0
LINE
8
BLACK
6
CONTINUOUS
10
1.7843
20
0.476959
11
1.78055
21
0.47321
0
LINE
8
BLACK
6
CONTINUOUS
10
1.78055
20
0.47321
11
1.7768
21
0.471335
0
LINE
8
BLACK
6
CONTINUOUS
10
1.83305
20
0.46946
11
1.83305
21
0.443213
0
LINE
8
BLACK
6
CONTINUOUS
10
1.82367
20
0.484458
11
1.8143
21
0.456337
0
LINE
8
BLACK
6
CONTINUOUS
10
1.8143
20
0.456337
11
1.83867
21
0.456337
0
LINE
8
BLACK
6
CONTINUOUS
10
1.85367
20
0.446963
11
1.85554
21
0.445088
0
LINE
8
BLACK
6
CONTINUOUS
10
1.85554
20
0.445088
11
1.85367
21
0.443213
0
LINE
8
BLACK
6
CONTINUOUS
10
1.85367
20
0.443213
11
1.8518
21
0.445088
0
LINE
8
BLACK
6
CONTINUOUS
10
1.8518
20
0.445088
11
1.85367
21
0.446963
0
LINE
8
BLACK
6
CONTINUOUS
10
1.85367
20
0.446963
11
1.85367
21
0.443213
0
LINE
8
BLACK
6
CONTINUOUS
10
1.86867
20
0.482583
11
1.89304
21
0.482583
0
LINE
8
BLACK
6
CONTINUOUS
10
1.89304
20
0.482583
11
1.87992
21
0.467585
0
LINE
8
BLACK
6
CONTINUOUS
10
1.87992
20
0.467585
11
1.88554
21
0.467585
0
LINE
8
BLACK
6
CONTINUOUS
10
1.88554
20
0.467585
11
1.88929
21
0.465711
0
LINE
8
BLACK
6
CONTINUOUS
10
1.88929
20
0.465711
11
1.89117
21
0.463836
0
LINE
8
BLACK
6
CONTINUOUS
10
1.89117
20
0.463836
11
1.89304
21
0.460086
0
LINE
8
BLACK
6
CONTINUOUS
10
1.89304
20
0.460086
11
1.89304
21
0.450712
0
LINE
8
BLACK
6
CONTINUOUS
10
1.89304
20
0.450712
11
1.89117
21
0.446963
0
LINE
8
BLACK
6
CONTINUOUS
10
1.89117
20
0.446963
11
1.88929
21
0.445088
0
LINE
8
BLACK
6
CONTINUOUS
10
1.88929
20
0.445088
11
1.88554
21
0.443213
0
LINE
8
BLACK
6
CONTINUOUS
10
1.88554
20
0.443213
11
1.87429
21
0.443213
0
LINE
8
BLACK
6
CONTINUOUS
10
1.87429
20
0.443213
11
1.87054
21
0.445088
0
LINE
8
BLACK
6
CONTINUOUS
10
1.87054
20
0.445088
11
1.86867
21
0.446963
0
LINE
8
BLACK
6
CONTINUOUS
10
1.92679
20
0.46946
11
1.92679
21
0.443213
0
LINE
8
BLACK
6
CONTINUOUS
10
1.91741
20
0.484458
11
1.90804
21
0.456337
0
LINE
8
BLACK
6
CONTINUOUS
10
1.90804
20
0.456337
11
1.93241
21
0.456337
0
LINE
8
BLACK
6
CONTINUOUS
10
1.96616
20
0.482583
11
1.94741
21
0.482583
0
LINE
8
BLACK
6
CONTINUOUS
10
1.94741
20
0.482583
11
1.94553
21
0.463836
0
LINE
8
BLACK
6
CONTINUOUS
10
1.94553
20
0.463836
11
1.94741
21
0.465711
0
LINE
8
BLACK
6
CONTINUOUS
10
1.94741
20
0.465711
11
1.95116
21
0.467585
0
LINE
8
BLACK
6
CONTINUOUS
10
1.95116
20
0.467585
11
1.96053
21
0.467585
0
LINE
8
BLACK
6
CONTINUOUS
10
1.96053
20
0.467585
11
1.96428
21
0.465711
0
LINE
8
BLACK
6
CONTINUOUS
10
1.96428
20
0.465711
11
1.96616
21
0.463836
0
LINE
8
BLACK
6
CONTINUOUS
10
1.96616
20
0.463836
11
1.96803
21
0.460086
0
LINE
8
BLACK
6
CONTINUOUS
10
1.96803
20
0.460086
11
1.96803
21
0.450712
0
LINE
8
BLACK
6
CONTINUOUS
10
1.96803
20
0.450712
11
1.96616
21
0.446963
0
LINE
8
BLACK
6
CONTINUOUS
10
1.96616
20
0.446963
11
1.96428
21
0.445088
0
LINE
8
BLACK
6
CONTINUOUS
10
1.96428
20
0.445088
11
1.96053
21
0.443213
0
LINE
8
BLACK
6
CONTINUOUS
10
1.96053
20
0.443213
11
1.95116
21
0.443213
0
LINE
8
BLACK
6
CONTINUOUS
10
1.95116
20
0.443213
11
1.94741
21
0.445088
0
LINE
8
BLACK
6
CONTINUOUS
10
1.94741
20
0.445088
11
1.94553
21
0.446963
0
LINE
8
BLACK
6
CONTINUOUS
10
2.0149
20
0.443213
11
2.0149
21
0.46946
0
LINE
8
BLACK
6
CONTINUOUS
10
2.0149
20
0.465711
11
2.01677
21
0.467585
0
LINE
8
BLACK
6
CONTINUOUS
10
2.01677
20
0.467585
11
2.02052
21
0.46946
0
LINE
8
BLACK
6
CONTINUOUS
10
2.02052
20
0.46946
11
2.02615
21
0.46946
0
LINE
8
BLACK
6
CONTINUOUS
10
2.02615
20
0.46946
11
2.0299
21
0.467585
0
LINE
8
BLACK
6
CONTINUOUS
10
2.0299
20
0.467585
11
2.03177
21
0.463836
0
LINE
8
BLACK
6
CONTINUOUS
10
2.03177
20
0.463836
11
2.03177
21
0.443213
0
LINE
8
BLACK
6
CONTINUOUS
10
2.03177
20
0.463836
11
2.03365
21
0.467585
0
LINE
8
BLACK
6
CONTINUOUS
10
2.03365
20
0.467585
11
2.0374
21
0.46946
0
LINE
8
BLACK
6
CONTINUOUS
10
2.0374
20
0.46946
11
2.04302
21
0.46946
0
LINE
8
BLACK
6
CONTINUOUS
10
2.04302
20
0.46946
11
2.04677
21
0.467585
0
LINE
8
BLACK
6
CONTINUOUS
10
2.04677
20
0.467585
11
2.04865
21
0.463836
0
LINE
8
BLACK
6
CONTINUOUS
10
2.04865
20
0.463836
11
2.04865
21
0.443213
0
LINE
8
BLACK
6
CONTINUOUS
10
2.06739
20
0.443213
11
2.06739
21
0.46946
0
LINE
8
BLACK
6
CONTINUOUS
10
2.06739
20
0.465711
11
2.06927
21
0.467585
0
LINE
8
BLACK
6
CONTINUOUS
10
2.06927
20
0.467585
11
2.07302
21
0.46946
0
LINE
8
BLACK
6
CONTINUOUS
10
2.07302
20
0.46946
11
2.07864
21
0.46946
0
LINE
8
BLACK
6
CONTINUOUS
10
2.07864
20
0.46946
11
2.08239
21
0.467585
0
LINE
8
BLACK
6
CONTINUOUS
10
2.08239
20
0.467585
11
2.08427
21
0.463836
0
LINE
8
BLACK
6
CONTINUOUS
10
2.08427
20
0.463836
11
2.08427
21
0.443213
0
LINE
8
BLACK
6
CONTINUOUS
10
2.08427
20
0.463836
11
2.08614
21
0.467585
0
LINE
8
BLACK
6
CONTINUOUS
10
2.08614
20
0.467585
11
2.08989
21
0.46946
0
LINE
8
BLACK
6
CONTINUOUS
10
2.08989
20
0.46946
11
2.09551
21
0.46946
0
LINE
8
BLACK
6
CONTINUOUS
10
2.09551
20
0.46946
11
2.09926
21
0.467585
0
LINE
8
BLACK
6
CONTINUOUS
10
2.09926
20
0.467585
11
2.10114
21
0.463836
0
LINE
8
BLACK
6
CONTINUOUS
10
2.10114
20
0.463836
11
2.10114
21
0.443213
0
LINE
8
BLACK
6
CONTINUOUS
10
-0.329724
20
0.41378
11
4.17205
21
0.41378
0
LINE
8
BLACK
6
CONTINUOUS
10
-0.329724
20
-0.317717
11
-0.329724
21
0.436867
0
LINE
8
BLACK
6
CONTINUOUS
10
4.17205
20
-0.317717
11
4.17205
21
0.436867
0
LINE
8
BLACK
6
CONTINUOUS
10
4.17205
20
0.41378
11
4.1277
21
0.390692
0
LINE
8
BLACK
6
CONTINUOUS
10
4.17205
20
0.41378
11
4.1277
21
0.436867
0
LINE
8
BLACK
6
CONTINUOUS
10
-0.329724
20
0.41378
11
-0.285374
21
0.390692
0
LINE
8
BLACK
6
CONTINUOUS
10
-0.329724
20
0.41378
11
-0.285374
21
0.436867
0
ARC
8
BLACK
10
4.15138
20
-0.397638
40
0.020703
50
-3.27049
51
86.7295
0
LINE
8
BLACK
6
CONTINUOUS
10
4.17205
20
-0.398819
11
4.17205
21
-3.35748
0
LINE
8
BLACK
6
CONTINUOUS
10
2.76969
20
-1.97638
11
3.32087
21
-1.97638
0
LINE
8
BLACK
6
CONTINUOUS
10
3.33217
20
-2.72638
11
3.88335
21
-2.72638
0
LINE
8
BLACK
6
CONTINUOUS
10
3.88335
20
-2.72638
11
3.88335
21
-3.27756
0
LINE
8
BLACK
6
CONTINUOUS
10
3.88335
20
-3.27756
11
3.33226
21
-3.27756
0
LINE
8
BLACK
6
CONTINUOUS
10
3.33217
20
-3.27756
11
3.33217
21
-2.72638
0
LINE
8
BLACK
6
CONTINUOUS
10
2.20719
20
-3.27756
11
2.20719
21
-2.72638
0
LINE
8
BLACK
6
CONTINUOUS
10
2.75837
20
-3.27756
11
2.20728
21
-3.27756
0
LINE
8
BLACK
6
CONTINUOUS
10
2.75837
20
-2.72638
11
2.75837
21
-3.27756
0
LINE
8
BLACK
6
CONTINUOUS
10
2.20719
20
-2.72638
11
2.75837
21
-2.72638
0
LINE
8
BLACK
6
CONTINUOUS
10
3.51969
20
-2.52756
11
3.51969
21
-1.97638
0
LINE
8
BLACK
6
CONTINUOUS
10
3.51969
20
-1.97638
11
4.07087
21
-1.97638
0
LINE
8
BLACK
6
CONTINUOUS
10
4.07087
20
-1.97638
11
4.07087
21
-2.52756
0
LINE
8
BLACK
6
CONTINUOUS
10
4.07087
20
-2.52756
11
3.51978
21
-2.52756
0
LINE
8
BLACK
6
CONTINUOUS
10
3.32087
20
-1.97638
11
3.32087
21
-2.52756
0
LINE
8
BLACK
6
CONTINUOUS
10
3.32087
20
-2.52756
11
2.76978
21
-2.52756
0
LINE
8
BLACK
6
CONTINUOUS
10
2.76969
20
-2.52756
11
2.76969
21
-1.97638
0
LINE
8
BLACK
6
CONTINUOUS
10
2.57087
20
-1.97638
11
2.57087
21
-2.52756
0
LINE
8
BLACK
6
CONTINUOUS
10
2.57087
20
-2.52756
11
2.01978
21
-2.52756
0
LINE
8
BLACK
6
CONTINUOUS
10
2.01969
20
-1.97638
11
2.57087
21
-1.97638
0
LINE
8
BLACK
6
CONTINUOUS
10
2.01969
20
-2.52756
11
2.01969
21
-1.97638
0
LINE
8
BLACK
6
CONTINUOUS
10
1.26969
20
-2.52756
11
1.26969
21
-1.97638
0
LINE
8
BLACK
6
CONTINUOUS
10
1.82087
20
-1.97638
11
1.82087
21
-2.52756
0
LINE
8
BLACK
6
CONTINUOUS
10
1.82087
20
-2.52756
11
1.26978
21
-2.52756
0
LINE
8
BLACK
6
CONTINUOUS
10
1.26969
20
-1.97638
11
1.82087
21
-1.97638
0
LINE
8
BLACK
6
CONTINUOUS
10
1.07087
20
-1.97638
11
1.07087
21
-2.52756
0
LINE
8
BLACK
6
CONTINUOUS
10
1.07087
20
-2.52756
11
0.519783
21
-2.52756
0
LINE
8
BLACK
6
CONTINUOUS
10
0.519685
20
-1.97638
11
1.07087
21
-1.97638
0
LINE
8
BLACK
6
CONTINUOUS
10
0.519685
20
-2.52756
11
0.519685
21
-1.97638
0
LINE
8
BLACK
6
CONTINUOUS
10
0.320866
20
-1.97638
11
0.320866
21
-2.52756
0
LINE
8
BLACK
6
CONTINUOUS
10
-0.230315
20
-1.97638
11
0.320866
21
-1.97638
0
LINE
8
BLACK
6
CONTINUOUS
10
0.320866
20
-2.52756
11
-0.230217
21
-2.52756
0
LINE
8
BLACK
6
CONTINUOUS
10
-0.230315
20
-2.52756
11
-0.230315
21
-1.97638
0
LINE
8
BLACK
6
CONTINUOUS
10
4.07087
20
-1.22638
11
4.07087
21
-1.77756
0
LINE
8
BLACK
6
CONTINUOUS
10
3.51969
20
-1.22638
11
4.07087
21
-1.22638
0
LINE
8
BLACK
6
CONTINUOUS
10
4.07087
20
-1.77756
11
3.51978
21
-1.77756
0
LINE
8
BLACK
6
CONTINUOUS
10
3.51969
20
-1.77756
11
3.51969
21
-1.22638
0
LINE
8
BLACK
6
CONTINUOUS
10
2.76969
20
-1.22638
11
3.32087
21
-1.22638
0
LINE
8
BLACK
6
CONTINUOUS
10
2.76969
20
-1.77756
11
2.76969
21
-1.22638
0
LINE
8
BLACK
6
CONTINUOUS
10
3.32087
20
-1.77756
11
2.76978
21
-1.77756
0
LINE
8
BLACK
6
CONTINUOUS
10
3.32087
20
-1.22638
11
3.32087
21
-1.77756
0
LINE
8
BLACK
6
CONTINUOUS
10
2.01969
20
-1.77756
11
2.01969
21
-1.22638
0
LINE
8
BLACK
6
CONTINUOUS
10
2.57087
20
-1.22638
11
2.57087
21
-1.77756
0
LINE
8
BLACK
6
CONTINUOUS
10
2.57087
20
-1.77756
11
2.01978
21
-1.77756
0
LINE
8
BLACK
6
CONTINUOUS
10
2.01969
20
-1.22638
11
2.57087
21
-1.22638
0
LINE
8
BLACK
6
CONTINUOUS
10
1.82087
20
-1.22638
11
1.82087
21
-1.77756
0
LINE
8
BLACK
6
CONTINUOUS
10
1.82087
20
-1.77756
11
1.26978
21
-1.77756
0
LINE
8
BLACK
6
CONTINUOUS
10
1.26969
20
-1.77756
11
1.26969
21
-1.22638
0
LINE
8
BLACK
6
CONTINUOUS
10
1.26969
20
-1.22638
11
1.82087
21
-1.22638
0
LINE
8
BLACK
6
CONTINUOUS
10
1.07087
20
-1.22638
11
1.07087
21
-1.77756
0
LINE
8
BLACK
6
CONTINUOUS
10
1.07087
20
-1.77756
11
0.519783
21
-1.77756
0
LINE
8
BLACK
6
CONTINUOUS
10
0.519685
20
-1.77756
11
0.519685
21
-1.22638
0
LINE
8
BLACK
6
CONTINUOUS
10
0.519685
20
-1.22638
11
1.07087
21
-1.22638
0
LINE
8
BLACK
6
CONTINUOUS
10
0.320866
20
-1.22638
11
0.320866
21
-1.77756
0
LINE
8
BLACK
6
CONTINUOUS
10
0.320866
20
-1.77756
11
-0.230217
21
-1.77756
0
LINE
8
BLACK
6
CONTINUOUS
10
-0.230315
20
-1.77756
11
-0.230315
21
-1.22638
0
LINE
8
BLACK
6
CONTINUOUS
10
-0.230315
20
-1.22638
11
0.320866
21
-1.22638
0
LINE
8
BLACK
6
CONTINUOUS
10
4.07087
20
-1.02756
11
3.51978
21
-1.02756
0
LINE
8
BLACK
6
CONTINUOUS
10
4.07087
20
-0.476378
11
4.07087
21
-1.02756
0
LINE
8
BLACK
6
CONTINUOUS
10
3.51969
20
-0.476378
11
4.07087
21
-0.476378
0
LINE
8
BLACK
6
CONTINUOUS
10
3.51969
20
-1.02756
11
3.51969
21
-0.476378
0
LINE
8
BLACK
6
CONTINUOUS
10
3.32087
20
-0.476378
11
3.32087
21
-1.02756
0
LINE
8
BLACK
6
CONTINUOUS
10
2.76969
20
-1.02756
11
2.76969
21
-0.476378
0
LINE
8
BLACK
6
CONTINUOUS
10
3.32087
20
-1.02756
11
2.76978
21
-1.02756
0
LINE
8
BLACK
6
CONTINUOUS
10
2.76969
20
-0.476378
11
3.32087
21
-0.476378
0
LINE
8
BLACK
6
CONTINUOUS
10
2.57087
20
-1.02756
11
2.01978
21
-1.02756
0
LINE
8
BLACK
6
CONTINUOUS
10
2.01969
20
-0.476378
11
2.57087
21
-0.476378
0
LINE
8
BLACK
6
CONTINUOUS
10
2.01969
20
-1.02756
11
2.01969
21
-0.476378
0
LINE
8
BLACK
6
CONTINUOUS
10
2.57087
20
-0.476378
11
2.57087
21
-1.02756
0
LINE
8
BLACK
6
CONTINUOUS
10
1.26969
20
-1.02756
11
1.26969
21
-0.476378
0
LINE
8
BLACK
6
CONTINUOUS
10
1.82087
20
-1.02756
11
1.26978
21
-1.02756
0
LINE
8
BLACK
6
CONTINUOUS
10
1.82087
20
-0.476378
11
1.82087
21
-1.02756
0
LINE
8
BLACK
6
CONTINUOUS
10
1.26969
20
-0.476378
11
1.82087
21
-0.476378
0
LINE
8
BLACK
6
CONTINUOUS
10
1.07087
20
-1.02756
11
0.519783
21
-1.02756
0
LINE
8
BLACK
6
CONTINUOUS
10
0.519685
20
-0.476378
11
1.07087
21
-0.476378
0
LINE
8
BLACK
6
CONTINUOUS
10
1.07087
20
-0.476378
11
1.07087
21
-1.02756
0
LINE
8
BLACK
6
CONTINUOUS
10
0.519685
20
-1.02756
11
0.519685
21
-0.476378
0
LINE
8
BLACK
6
CONTINUOUS
10
-0.230315
20
-0.476378
11
0.320866
21
-0.476378
0
LINE
8
BLACK
6
CONTINUOUS
10
0.320866
20
-0.476378
11
0.320866
21
-1.02756
0
LINE
8
BLACK
6
CONTINUOUS
10
0.320866
20
-1.02756
11
-0.230217
21
-1.02756
0
LINE
8
BLACK
6
CONTINUOUS
10
-0.230315
20
-1.02756
11
-0.230315
21
-0.476378
0
LINE
8
BLACK
6
CONTINUOUS
10
4.1502
20
-3.37697
11
3.98278
21
-3.37697
0
ARC
8
BLACK
10
4.15138
20
-3.3563
40
0.020703
50
-93.2705
51
-3.27049
0
LINE
8
BLACK
6
CONTINUOUS
10
0.714173
20
-3.37697
11
1.92028
21
-3.37697
0
LINE
8
BLACK
6
CONTINUOUS
10
3.04163
20
-3.37697
11
3.98278
21
-3.37697
0
ARC
8
BLACK
10
-0.309055
20
-0.397638
40
0.020703
50
86.7295
51
176.73
0
LINE
8
BLACK
6
CONTINUOUS
10
3.04163
20
-3.37697
11
1.92028
21
-3.37697
0
LINE
8
BLACK
6
CONTINUOUS
10
-0.307874
20
-0.376969
11
4.15256
21
-0.376969
0
LINE
8
BLACK
6
CONTINUOUS
10
-0.329724
20
-0.396654
11
-0.329705
21
-3.69193
0
LINE
8
BLACK
6
CONTINUOUS
10
3.42813
20
-2.56579
11
3.43251
21
-2.56666
0
LINE
8
BLACK
6
CONTINUOUS
10
3.43251
20
-2.56666
11
3.44076
21
-2.57008
0
LINE
8
BLACK
6
CONTINUOUS
10
3.44076
20
-2.57008
11
3.44818
21
-2.57504
0
LINE
8
BLACK
6
CONTINUOUS
10
3.44818
20
-2.57504
11
3.45449
21
-2.58135
0
LINE
8
BLACK
6
CONTINUOUS
10
3.45449
20
-2.58135
11
3.45945
21
-2.58877
0
LINE
8
BLACK
6
CONTINUOUS
10
3.45945
20
-2.58877
11
3.46286
21
-2.59702
0
LINE
8
BLACK
6
CONTINUOUS
10
3.46286
20
-2.59702
11
3.46461
21
-2.60577
0
LINE
8
BLACK
6
CONTINUOUS
10
3.46461
20
-2.60577
11
3.46461
21
-2.6147
0
LINE
8
BLACK
6
CONTINUOUS
10
3.46461
20
-2.6147
11
3.46286
21
-2.62345
0
LINE
8
BLACK
6
CONTINUOUS
10
3.46286
20
-2.62345
11
3.45945
21
-2.6317
0
LINE
8
BLACK
6
CONTINUOUS
10
3.45945
20
-2.6317
11
3.45449
21
-2.63912
0
LINE
8
BLACK
6
CONTINUOUS
10
3.45449
20
-2.63912
11
3.44818
21
-2.64543
0
LINE
8
BLACK
6
CONTINUOUS
10
3.44818
20
-2.64543
11
3.44076
21
-2.65039
0
LINE
8
BLACK
6
CONTINUOUS
10
3.44076
20
-2.65039
11
3.43251
21
-2.65381
0
LINE
8
BLACK
6
CONTINUOUS
10
3.43251
20
-2.65381
11
3.42813
21
-2.65468
0
LINE
8
BLACK
6
CONTINUOUS
10
3.42813
20
-2.65468
11
3.42375
21
-2.65555
0
LINE
8
BLACK
6
CONTINUOUS
10
3.42375
20
-2.65555
11
3.41483
21
-2.65555
0
LINE
8
BLACK
6
CONTINUOUS
10
3.41483
20
-2.65555
11
3.41045
21
-2.65468
0
LINE
8
BLACK
6
CONTINUOUS
10
3.41045
20
-2.65468
11
3.40607
21
-2.65381
0
LINE
8
BLACK
6
CONTINUOUS
10
3.40607
20
-2.65381
11
3.39783
21
-2.65039
0
LINE
8
BLACK
6
CONTINUOUS
10
3.39783
20
-2.65039
11
3.3904
21
-2.64543
0
LINE
8
BLACK
6
CONTINUOUS
10
3.3904
20
-2.64543
11
3.38409
21
-2.63912
0
LINE
8
BLACK
6
CONTINUOUS
10
3.38409
20
-2.63912
11
3.37913
21
-2.6317
0
LINE
8
BLACK
6
CONTINUOUS
10
3.37913
20
-2.6317
11
3.37572
21
-2.62345
0
LINE
8
BLACK
6
CONTINUOUS
10
3.37572
20
-2.62345
11
3.37398
21
-2.6147
0
LINE
8
BLACK
6
CONTINUOUS
10
3.37398
20
-2.6147
11
3.37398
21
-2.60577
0
LINE
8
BLACK
6
CONTINUOUS
10
3.37398
20
-2.60577
11
3.37572
21
-2.59702
0
LINE
8
BLACK
6
CONTINUOUS
10
3.37572
20
-2.59702
11
3.37913
21
-2.58877
0
LINE
8
BLACK
6
CONTINUOUS
10
3.37913
20
-2.58877
11
3.38409
21
-2.58135
0
LINE
8
BLACK
6
CONTINUOUS
10
3.38409
20
-2.58135
11
3.3904
21
-2.57504
0
LINE
8
BLACK
6
CONTINUOUS
10
3.3904
20
-2.57504
11
3.39783
21
-2.57008
0
LINE
8
BLACK
6
CONTINUOUS
10
3.39783
20
-2.57008
11
3.40607
21
-2.56666
0
LINE
8
BLACK
6
CONTINUOUS
10
3.40607
20
-2.56666
11
3.41045
21
-2.56579
0
LINE
8
BLACK
6
CONTINUOUS
10
3.41045
20
-2.56579
11
3.41483
21
-2.56492
0
LINE
8
BLACK
6
CONTINUOUS
10
3.41483
20
-2.56492
11
3.42375
21
-2.56492
0
LINE
8
BLACK
6
CONTINUOUS
10
3.42375
20
-2.56492
11
3.42813
21
-2.56579
0
LINE
8
BLACK
6
CONTINUOUS
10
0.428132
20
-2.56579
11
0.432509
21
-2.56666
0
LINE
8
BLACK
6
CONTINUOUS
10
0.432509
20
-2.56666
11
0.440756
21
-2.57008
0
LINE
8
BLACK
6
CONTINUOUS
10
0.440756
20
-2.57008
11
0.448178
21
-2.57504
0
LINE
8
BLACK
6
CONTINUOUS
10
0.448178
20
-2.57504
11
0.45449
21
-2.58135
0
LINE
8
BLACK
6
CONTINUOUS
10
0.45449
20
-2.58135
11
0.459449
21
-2.58877
0
LINE
8
BLACK
6
CONTINUOUS
10
0.459449
20
-2.58877
11
0.462865
21
-2.59702
0
LINE
8
BLACK
6
CONTINUOUS
10
0.462865
20
-2.59702
11
0.464606
21
-2.60577
0
LINE
8
BLACK
6
CONTINUOUS
10
0.464606
20
-2.60577
11
0.464606
21
-2.6147
0
LINE
8
BLACK
6
CONTINUOUS
10
0.464606
20
-2.6147
11
0.462865
21
-2.62345
0
LINE
8
BLACK
6
CONTINUOUS
10
0.462865
20
-2.62345
11
0.459449
21
-2.6317
0
LINE
8
BLACK
6
CONTINUOUS
10
0.459449
20
-2.6317
11
0.45449
21
-2.63912
0
LINE
8
BLACK
6
CONTINUOUS
10
0.45449
20
-2.63912
11
0.448178
21
-2.64543
0
LINE
8
BLACK
6
CONTINUOUS
10
0.448178
20
-2.64543
11
0.440756
21
-2.65039
0
LINE
8
BLACK
6
CONTINUOUS
10
0.440756
20
-2.65039
11
0.432509
21
-2.65381
0
LINE
8
BLACK
6
CONTINUOUS
10
0.432509
20
-2.65381
11
0.428132
21
-2.65468
0
LINE
8
BLACK
6
CONTINUOUS
10
0.428132
20
-2.65468
11
0.423755
21
-2.65555
0
LINE
8
BLACK
6
CONTINUOUS
10
0.423755
20
-2.65555
11
0.414828
21
-2.65555
0
LINE
8
BLACK
6
CONTINUOUS
10
0.414828
20
-2.65555
11
0.410451
21
-2.65468
0
LINE
8
BLACK
6
CONTINUOUS
10
0.410451
20
-2.65468
11
0.406073
21
-2.65381
0
LINE
8
BLACK
6
CONTINUOUS
10
0.406073
20
-2.65381
11
0.397827
21
-2.65039
0
LINE
8
BLACK
6
CONTINUOUS
10
0.397827
20
-2.65039
11
0.390405
21
-2.64543
0
LINE
8
BLACK
6
CONTINUOUS
10
0.390405
20
-2.64543
11
0.384093
21
-2.63912
0
LINE
8
BLACK
6
CONTINUOUS
10
0.384093
20
-2.63912
11
0.379134
21
-2.6317
0
LINE
8
BLACK
6
CONTINUOUS
10
0.379134
20
-2.6317
11
0.375718
21
-2.62345
0
LINE
8
BLACK
6
CONTINUOUS
10
0.375718
20
-2.62345
11
0.373976
21
-2.6147
0
LINE
8
BLACK
6
CONTINUOUS
10
0.373976
20
-2.6147
11
0.373976
21
-2.60577
0
LINE
8
BLACK
6
CONTINUOUS
10
0.373976
20
-2.60577
11
0.375718
21
-2.59702
0
LINE
8
BLACK
6
CONTINUOUS
10
0.375718
20
-2.59702
11
0.379134
21
-2.58877
0
LINE
8
BLACK
6
CONTINUOUS
10
0.379134
20
-2.58877
11
0.384093
21
-2.58135
0
LINE
8
BLACK
6
CONTINUOUS
10
0.384093
20
-2.58135
11
0.390405
21
-2.57504
0
LINE
8
BLACK
6
CONTINUOUS
10
0.390405
20
-2.57504
11
0.397827
21
-2.57008
0
LINE
8
BLACK
6
CONTINUOUS
10
0.397827
20
-2.57008
11
0.406073
21
-2.56666
0
LINE
8
BLACK
6
CONTINUOUS
10
0.406073
20
-2.56666
11
0.410451
21
-2.56579
0
LINE
8
BLACK
6
CONTINUOUS
10
0.410451
20
-2.56579
11
0.414828
21
-2.56492
0
LINE
8
BLACK
6
CONTINUOUS
10
0.414828
20
-2.56492
11
0.423755
21
-2.56492
0
LINE
8
BLACK
6
CONTINUOUS
10
0.423755
20
-2.56492
11
0.428132
21
-2.56579
0
LINE
8
BLACK
6
CONTINUOUS
10
1.92813
20
-1.81579
11
1.93251
21
-1.81666
0
LINE
8
BLACK
6
CONTINUOUS
10
1.93251
20
-1.81666
11
1.94076
21
-1.82008
0
LINE
8
BLACK
6
CONTINUOUS
10
1.94076
20
-1.82008
11
1.94818
21
-1.82504
0
LINE
8
BLACK
6
CONTINUOUS
10
1.94818
20
-1.82504
11
1.95449
21
-1.83135
0
LINE
8
BLACK
6
CONTINUOUS
10
1.95449
20
-1.83135
11
1.95945
21
-1.83877
0
LINE
8
BLACK
6
CONTINUOUS
10
1.95945
20
-1.83877
11
1.96286
21
-1.84702
0
LINE
8
BLACK
6
CONTINUOUS
10
1.96286
20
-1.84702
11
1.96461
21
-1.85577
0
LINE
8
BLACK
6
CONTINUOUS
10
1.96461
20
-1.85577
11
1.96461
21
-1.8647
0
LINE
8
BLACK
6
CONTINUOUS
10
1.96461
20
-1.8647
11
1.96286
21
-1.87345
0
LINE
8
BLACK
6
CONTINUOUS
10
1.96286
20
-1.87345
11
1.95945
21
-1.8817
0
LINE
8
BLACK
6
CONTINUOUS
10
1.95945
20
-1.8817
11
1.95449
21
-1.88912
0
LINE
8
BLACK
6
CONTINUOUS
10
1.95449
20
-1.88912
11
1.94818
21
-1.89543
0
LINE
8
BLACK
6
CONTINUOUS
10
1.94818
20
-1.89543
11
1.94076
21
-1.90039
0
LINE
8
BLACK
6
CONTINUOUS
10
1.94076
20
-1.90039
11
1.93251
21
-1.90381
0
LINE
8
BLACK
6
CONTINUOUS
10
1.93251
20
-1.90381
11
1.92813
21
-1.90468
0
LINE
8
BLACK
6
CONTINUOUS
10
1.92813
20
-1.90468
11
1.92375
21
-1.90555
0
LINE
8
BLACK
6
CONTINUOUS
10
1.92375
20
-1.90555
11
1.91483
21
-1.90555
0
LINE
8
BLACK
6
CONTINUOUS
10
1.91483
20
-1.90555
11
1.91045
21
-1.90468
0
LINE
8
BLACK
6
CONTINUOUS
10
1.91045
20
-1.90468
11
1.90607
21
-1.90381
0
LINE
8
BLACK
6
CONTINUOUS
10
1.90607
20
-1.90381
11
1.89783
21
-1.90039
0
LINE
8
BLACK
6
CONTINUOUS
10
1.89783
20
-1.90039
11
1.8904
21
-1.89543
0
LINE
8
BLACK
6
CONTINUOUS
10
1.8904
20
-1.89543
11
1.88409
21
-1.88912
0
LINE
8
BLACK
6
CONTINUOUS
10
1.88409
20
-1.88912
11
1.87913
21
-1.8817
0
LINE
8
BLACK
6
CONTINUOUS
10
1.87913
20
-1.8817
11
1.87572
21
-1.87345
0
LINE
8
BLACK
6
CONTINUOUS
10
1.87572
20
-1.87345
11
1.87398
21
-1.8647
0
LINE
8
BLACK
6
CONTINUOUS
10
1.87398
20
-1.8647
11
1.87398
21
-1.85577
0
LINE
8
BLACK
6
CONTINUOUS
10
1.87398
20
-1.85577
11
1.87572
21
-1.84702
0
LINE
8
BLACK
6
CONTINUOUS
10
1.87572
20
-1.84702
11
1.87913
21
-1.83877
0
LINE
8
BLACK
6
CONTINUOUS
10
1.87913
20
-1.83877
11
1.88409
21
-1.83135
0
LINE
8
BLACK
6
CONTINUOUS
10
1.88409
20
-1.83135
11
1.8904
21
-1.82504
0
LINE
8
BLACK
6
CONTINUOUS
10
1.8904
20
-1.82504
11
1.89783
21
-1.82008
0
LINE
8
BLACK
6
CONTINUOUS
10
1.89783
20
-1.82008
11
1.90607
21
-1.81666
0
LINE
8
BLACK
6
CONTINUOUS
10
1.90607
20
-1.81666
11
1.91045
21
-1.81579
0
LINE
8
BLACK
6
CONTINUOUS
10
1.91045
20
-1.81579
11
1.91483
21
-1.81492
0
LINE
8
BLACK
6
CONTINUOUS
10
1.91483
20
-1.81492
11
1.92375
21
-1.81492
0
LINE
8
BLACK
6
CONTINUOUS
10
1.92375
20
-1.81492
11
1.92813
21
-1.81579
0
LINE
8
BLACK
6
CONTINUOUS
10
3.42813
20
-1.08154
11
3.43251
21
-1.08241
0
LINE
8
BLACK
6
CONTINUOUS
10
3.43251
20
-1.08241
11
3.44076
21
-1.08583
0
LINE
8
BLACK
6
CONTINUOUS
10
3.44076
20
-1.08583
11
3.44818
21
-1.09079
0
LINE
8
BLACK
6
CONTINUOUS
10
3.44818
20
-1.09079
11
3.45449
21
-1.0971
0
LINE
8
BLACK
6
CONTINUOUS
10
3.45449
20
-1.0971
11
3.45945
21
-1.10452
0
LINE
8
BLACK
6
CONTINUOUS
10
3.45945
20
-1.10452
11
3.46286
21
-1.11277
0
LINE
8
BLACK
6
CONTINUOUS
10
3.46286
20
-1.11277
11
3.46461
21
-1.12152
0
LINE
8
BLACK
6
CONTINUOUS
10
3.46461
20
-1.12152
11
3.46461
21
-1.13045
0
LINE
8
BLACK
6
CONTINUOUS
10
3.46461
20
-1.13045
11
3.46286
21
-1.1392
0
LINE
8
BLACK
6
CONTINUOUS
10
3.46286
20
-1.1392
11
3.45945
21
-1.14745
0
LINE
8
BLACK
6
CONTINUOUS
10
3.45945
20
-1.14745
11
3.45449
21
-1.15487
0
LINE
8
BLACK
6
CONTINUOUS
10
3.45449
20
-1.15487
11
3.44818
21
-1.16118
0
LINE
8
BLACK
6
CONTINUOUS
10
3.44818
20
-1.16118
11
3.44076
21
-1.16614
0
LINE
8
BLACK
6
CONTINUOUS
10
3.44076
20
-1.16614
11
3.43251
21
-1.16956
0
LINE
8
BLACK
6
CONTINUOUS
10
3.43251
20
-1.16956
11
3.42813
21
-1.17043
0
LINE
8
BLACK
6
CONTINUOUS
10
3.42813
20
-1.17043
11
3.42375
21
-1.1713
0
LINE
8
BLACK
6
CONTINUOUS
10
3.42375
20
-1.1713
11
3.41483
21
-1.1713
0
LINE
8
BLACK
6
CONTINUOUS
10
3.41483
20
-1.1713
11
3.41045
21
-1.17043
0
LINE
8
BLACK
6
CONTINUOUS
10
3.41045
20
-1.17043
11
3.40607
21
-1.16956
0
LINE
8
BLACK
6
CONTINUOUS
10
3.40607
20
-1.16956
11
3.39783
21
-1.16614
0
LINE
8
BLACK
6
CONTINUOUS
10
3.39783
20
-1.16614
11
3.3904
21
-1.16118
0
LINE
8
BLACK
6
CONTINUOUS
10
3.3904
20
-1.16118
11
3.38409
21
-1.15487
0
LINE
8
BLACK
6
CONTINUOUS
10
3.38409
20
-1.15487
11
3.37913
21
-1.14745
0
LINE
8
BLACK
6
CONTINUOUS
10
3.37913
20
-1.14745
11
3.37572
21
-1.1392
0
LINE
8
BLACK
6
CONTINUOUS
10
3.37572
20
-1.1392
11
3.37398
21
-1.13045
0
LINE
8
BLACK
6
CONTINUOUS
10
3.37398
20
-1.13045
11
3.37398
21
-1.12152
0
LINE
8
BLACK
6
CONTINUOUS
10
3.37398
20
-1.12152
11
3.37572
21
-1.11277
0
LINE
8
BLACK
6
CONTINUOUS
10
3.37572
20
-1.11277
11
3.37913
21
-1.10452
0
LINE
8
BLACK
6
CONTINUOUS
10
3.37913
20
-1.10452
11
3.38409
21
-1.0971
0
LINE
8
BLACK
6
CONTINUOUS
10
3.38409
20
-1.0971
11
3.3904
21
-1.09079
0
LINE
8
BLACK
6
CONTINUOUS
10
3.3904
20
-1.09079
11
3.39783
21
-1.08583
0
LINE
8
BLACK
6
CONTINUOUS
10
3.39783
20
-1.08583
11
3.40607
21
-1.08241
0
LINE
8
BLACK
6
CONTINUOUS
10
3.40607
20
-1.08241
11
3.41045
21
-1.08154
0
LINE
8
BLACK
6
CONTINUOUS
10
3.41045
20
-1.08154
11
3.41483
21
-1.08067
0
LINE
8
BLACK
6
CONTINUOUS
10
3.41483
20
-1.08067
11
3.42375
21
-1.08067
0
LINE
8
BLACK
6
CONTINUOUS
10
3.42375
20
-1.08067
11
3.42813
21
-1.08154
0
LINE
8
BLACK
6
CONTINUOUS
10
0.428132
20
-1.08154
11
0.432509
21
-1.08241
0
LINE
8
BLACK
6
CONTINUOUS
10
0.432509
20
-1.08241
11
0.440756
21
-1.08583
0
LINE
8
BLACK
6
CONTINUOUS
10
0.440756
20
-1.08583
11
0.448178
21
-1.09079
0
LINE
8
BLACK
6
CONTINUOUS
10
0.448178
20
-1.09079
11
0.45449
21
-1.0971
0
LINE
8
BLACK
6
CONTINUOUS
10
0.45449
20
-1.0971
11
0.459449
21
-1.10452
0
LINE
8
BLACK
6
CONTINUOUS
10
0.459449
20
-1.10452
11
0.462865
21
-1.11277
0
LINE
8
BLACK
6
CONTINUOUS
10
0.462865
20
-1.11277
11
0.464606
21
-1.12152
0
LINE
8
BLACK
6
CONTINUOUS
10
0.464606
20
-1.12152
11
0.464606
21
-1.13045
0
LINE
8
BLACK
6
CONTINUOUS
10
0.464606
20
-1.13045
11
0.462865
21
-1.1392
0
LINE
8
BLACK
6
CONTINUOUS
10
0.462865
20
-1.1392
11
0.459449
21
-1.14745
0
LINE
8
BLACK
6
CONTINUOUS
10
0.459449
20
-1.14745
11
0.45449
21
-1.15487
0
LINE
8
BLACK
6
CONTINUOUS
10
0.45449
20
-1.15487
11
0.448178
21
-1.16118
0
LINE
8
BLACK
6
CONTINUOUS
10
0.448178
20
-1.16118
11
0.440756
21
-1.16614
0
LINE
8
BLACK
6
CONTINUOUS
10
0.440756
20
-1.16614
11
0.432509
21
-1.16956
0
LINE
8
BLACK
6
CONTINUOUS
10
0.432509
20
-1.16956
11
0.428132
21
-1.17043
0
LINE
8
BLACK
6
CONTINUOUS
10
0.428132
20
-1.17043
11
0.423755
21
-1.1713
0
LINE
8
BLACK
6
CONTINUOUS
10
0.423755
20
-1.1713
11
0.414828
21
-1.1713
0
LINE
8
BLACK
6
CONTINUOUS
10
0.414828
20
-1.1713
11
0.410451
21
-1.17043
0
LINE
8
BLACK
6
CONTINUOUS
10
0.410451
20
-1.17043
11
0.406073
21
-1.16956
0
LINE
8
BLACK
6
CONTINUOUS
10
0.406073
20
-1.16956
11
0.397827
21
-1.16614
0
LINE
8
BLACK
6
CONTINUOUS
10
0.397827
20
-1.16614
11
0.390405
21
-1.16118
0
LINE
8
BLACK
6
CONTINUOUS
10
0.390405
20
-1.16118
11
0.384093
21
-1.15487
0
LINE
8
BLACK
6
CONTINUOUS
10
0.384093
20
-1.15487
11
0.379134
21
-1.14745
0
LINE
8
BLACK
6
CONTINUOUS
10
0.379134
20
-1.14745
11
0.375718
21
-1.1392
0
LINE
8
BLACK
6
CONTINUOUS
10
0.375718
20
-1.1392
11
0.373976
21
-1.13045
0
LINE
8
BLACK
6
CONTINUOUS
10
0.373976
20
-1.13045
11
0.373976
21
-1.12152
0
LINE
8
BLACK
6
CONTINUOUS
10
0.373976
20
-1.12152
11
0.375718
21
-1.11277
0
LINE
8
BLACK
6
CONTINUOUS
10
0.375718
20
-1.11277
11
0.379134
21
-1.10452
0
LINE
8
BLACK
6
CONTINUOUS
10
0.379134
20
-1.10452
11
0.384093
21
-1.0971
0
LINE
8
BLACK
6
CONTINUOUS
10
0.384093
20
-1.0971
11
0.390405
21
-1.09079
0
LINE
8
BLACK
6
CONTINUOUS
10
0.390405
20
-1.09079
11
0.397827
21
-1.08583
0
LINE
8
BLACK
6
CONTINUOUS
10
0.397827
20
-1.08583
11
0.406073
21
-1.08241
0
LINE
8
BLACK
6
CONTINUOUS
10
0.406073
20
-1.08241
11
0.410451
21
-1.08154
0
LINE
8
BLACK
6
CONTINUOUS
10
0.410451
20
-1.08154
11
0.414828
21
-1.08067
0
LINE
8
BLACK
6
CONTINUOUS
10
0.414828
20
-1.08067
11
0.423755
21
-1.08067
0
LINE
8
BLACK
6
CONTINUOUS
10
0.423755
20
-1.08067
11
0.428132
21
-1.08154
  0
ENDSEC
  0
EOF
