  0
SECTION
  2
HEADER
  9
$ANGBASE
  50
0.0
  9
$ANGDIR
  70
1
  9
$MEASUREMENT
  70
0
  0
ENDSEC
  0
SECTION
  2
TABLES
  0
TABLE
  2
LTYPE
  70
4
  0
LTYPE
  5
40F
  2
CONTINUOUS
  70
0
  3
Solid line
  72
65
  73
0
  40
0.0
  0
LTYPE
  5
410
  2
DASHDOT
 70
0
  3
Dash Dot ____ _ ____ _
 72
65
 73
4
 40
2.0
 49
1.25
 49
-0.25
 49
0.25
 49
-0.25
  0
LTYPE
  5
411
  2
DASHED
 70
0
  3
Dashed __ __ __ __ __
 72
65
 73
2
 40
0.75
 49
0.5
 49
-0.25
  0
LTYPE
  5
43B
  2
DOTTED
 70
0
  3
Dotted .  .  .  .
 72
65
 73
2
 40
0.2
 49
0.0
 49
-0.2
  0
ENDTAB
  0
TABLE
  2
STYLE
  70
4
  0
STYLE
  2
KICAD
  70
0
  40
0
  41
1
  42
1
  50
0
  71
0
  3
isocp.shx
  0
STYLE
  2
KICADB
  70
0
  40
0
  41
1
  42
1
  50
0
  71
0
  3
isocp.shx
  0
STYLE
  2
KICADI
  70
0
  40
0
  41
1
  42
1
  50
15
  71
0
  3
isocp.shx
  0
STYLE
  2
KICADBI
  70
0
  40
0
  41
1
  42
1
  50
15
  71
0
  3
isocp.shx
  0
ENDTAB
  0
TABLE
  2
LAYER
  70
1
  0
LAYER
  2
BLACK
  70
0
  62
7
  6
CONTINUOUS
  0
ENDTAB
  0
ENDSEC
  0
SECTION
  2
ENTITIES
0
LINE
8
BLACK
6
CONTINUOUS
10
10.5251
20
-5.40994
11
10.5026
21
-5.40994
0
LINE
8
BLACK
6
CONTINUOUS
10
10.5139
20
-5.40994
11
10.5139
21
-5.37057
0
LINE
8
BLACK
6
CONTINUOUS
10
10.5139
20
-5.37057
11
10.5101
21
-5.37619
0
LINE
8
BLACK
6
CONTINUOUS
10
10.5101
20
-5.37619
11
10.5064
21
-5.37994
0
LINE
8
BLACK
6
CONTINUOUS
10
10.5064
20
-5.37994
11
10.5026
21
-5.38181
0
LINE
8
BLACK
6
CONTINUOUS
10
10.5589
20
-5.38369
11
10.5589
21
-5.40994
0
LINE
8
BLACK
6
CONTINUOUS
10
10.5495
20
-5.36869
11
10.5401
21
-5.39681
0
LINE
8
BLACK
6
CONTINUOUS
10
10.5401
20
-5.39681
11
10.5645
21
-5.39681
0
LINE
8
BLACK
6
CONTINUOUS
10
10.5795
20
-5.40619
11
10.5814
21
-5.40806
0
LINE
8
BLACK
6
CONTINUOUS
10
10.5814
20
-5.40806
11
10.5795
21
-5.40994
0
LINE
8
BLACK
6
CONTINUOUS
10
10.5795
20
-5.40994
11
10.5776
21
-5.40806
0
LINE
8
BLACK
6
CONTINUOUS
10
10.5776
20
-5.40806
11
10.5795
21
-5.40619
0
LINE
8
BLACK
6
CONTINUOUS
10
10.5795
20
-5.40619
11
10.5795
21
-5.40994
0
LINE
8
BLACK
6
CONTINUOUS
10
10.5945
20
-5.37057
11
10.6208
21
-5.37057
0
LINE
8
BLACK
6
CONTINUOUS
10
10.6208
20
-5.37057
11
10.6039
21
-5.40994
0
LINE
8
BLACK
6
CONTINUOUS
10
10.6433
20
-5.37057
11
10.647
21
-5.37057
0
LINE
8
BLACK
6
CONTINUOUS
10
10.647
20
-5.37057
11
10.6507
21
-5.37244
0
LINE
8
BLACK
6
CONTINUOUS
10
10.6507
20
-5.37244
11
10.6526
21
-5.37432
0
LINE
8
BLACK
6
CONTINUOUS
10
10.6526
20
-5.37432
11
10.6545
21
-5.37807
0
LINE
8
BLACK
6
CONTINUOUS
10
10.6545
20
-5.37807
11
10.6564
21
-5.38556
0
LINE
8
BLACK
6
CONTINUOUS
10
10.6564
20
-5.38556
11
10.6564
21
-5.39494
0
LINE
8
BLACK
6
CONTINUOUS
10
10.6564
20
-5.39494
11
10.6545
21
-5.40244
0
LINE
8
BLACK
6
CONTINUOUS
10
10.6545
20
-5.40244
11
10.6526
21
-5.40619
0
LINE
8
BLACK
6
CONTINUOUS
10
10.6526
20
-5.40619
11
10.6507
21
-5.40806
0
LINE
8
BLACK
6
CONTINUOUS
10
10.6507
20
-5.40806
11
10.647
21
-5.40994
0
LINE
8
BLACK
6
CONTINUOUS
10
10.647
20
-5.40994
11
10.6433
21
-5.40994
0
LINE
8
BLACK
6
CONTINUOUS
10
10.6433
20
-5.40994
11
10.6395
21
-5.40806
0
LINE
8
BLACK
6
CONTINUOUS
10
10.6395
20
-5.40806
11
10.6376
21
-5.40619
0
LINE
8
BLACK
6
CONTINUOUS
10
10.6376
20
-5.40619
11
10.6358
21
-5.40244
0
LINE
8
BLACK
6
CONTINUOUS
10
10.6358
20
-5.40244
11
10.6339
21
-5.39494
0
LINE
8
BLACK
6
CONTINUOUS
10
10.6339
20
-5.39494
11
10.6339
21
-5.38556
0
LINE
8
BLACK
6
CONTINUOUS
10
10.6339
20
-5.38556
11
10.6358
21
-5.37807
0
LINE
8
BLACK
6
CONTINUOUS
10
10.6358
20
-5.37807
11
10.6376
21
-5.37432
0
LINE
8
BLACK
6
CONTINUOUS
10
10.6376
20
-5.37432
11
10.6395
21
-5.37244
0
LINE
8
BLACK
6
CONTINUOUS
10
10.6395
20
-5.37244
11
10.6433
21
-5.37057
0
LINE
8
BLACK
6
CONTINUOUS
10
10.6807
20
-5.37057
11
10.6845
21
-5.37057
0
LINE
8
BLACK
6
CONTINUOUS
10
10.6845
20
-5.37057
11
10.6882
21
-5.37244
0
LINE
8
BLACK
6
CONTINUOUS
10
10.6882
20
-5.37244
11
10.6901
21
-5.37432
0
LINE
8
BLACK
6
CONTINUOUS
10
10.6901
20
-5.37432
11
10.692
21
-5.37807
0
LINE
8
BLACK
6
CONTINUOUS
10
10.692
20
-5.37807
11
10.6939
21
-5.38556
0
LINE
8
BLACK
6
CONTINUOUS
10
10.6939
20
-5.38556
11
10.6939
21
-5.39494
0
LINE
8
BLACK
6
CONTINUOUS
10
10.6939
20
-5.39494
11
10.692
21
-5.40244
0
LINE
8
BLACK
6
CONTINUOUS
10
10.692
20
-5.40244
11
10.6901
21
-5.40619
0
LINE
8
BLACK
6
CONTINUOUS
10
10.6901
20
-5.40619
11
10.6882
21
-5.40806
0
LINE
8
BLACK
6
CONTINUOUS
10
10.6882
20
-5.40806
11
10.6845
21
-5.40994
0
LINE
8
BLACK
6
CONTINUOUS
10
10.6845
20
-5.40994
11
10.6807
21
-5.40994
0
LINE
8
BLACK
6
CONTINUOUS
10
10.6807
20
-5.40994
11
10.677
21
-5.40806
0
LINE
8
BLACK
6
CONTINUOUS
10
10.677
20
-5.40806
11
10.6751
21
-5.40619
0
LINE
8
BLACK
6
CONTINUOUS
10
10.6751
20
-5.40619
11
10.6732
21
-5.40244
0
LINE
8
BLACK
6
CONTINUOUS
10
10.6732
20
-5.40244
11
10.6714
21
-5.39494
0
LINE
8
BLACK
6
CONTINUOUS
10
10.6714
20
-5.39494
11
10.6714
21
-5.38556
0
LINE
8
BLACK
6
CONTINUOUS
10
10.6714
20
-5.38556
11
10.6732
21
-5.37807
0
LINE
8
BLACK
6
CONTINUOUS
10
10.6732
20
-5.37807
11
10.6751
21
-5.37432
0
LINE
8
BLACK
6
CONTINUOUS
10
10.6751
20
-5.37432
11
10.677
21
-5.37244
0
LINE
8
BLACK
6
CONTINUOUS
10
10.677
20
-5.37244
11
10.6807
21
-5.37057
0
LINE
8
BLACK
6
CONTINUOUS
10
10.7407
20
-5.40994
11
10.7407
21
-5.38369
0
LINE
8
BLACK
6
CONTINUOUS
10
10.7407
20
-5.38744
11
10.7426
21
-5.38556
0
LINE
8
BLACK
6
CONTINUOUS
10
10.7426
20
-5.38556
11
10.7464
21
-5.38369
0
LINE
8
BLACK
6
CONTINUOUS
10
10.7464
20
-5.38369
11
10.752
21
-5.38369
0
LINE
8
BLACK
6
CONTINUOUS
10
10.752
20
-5.38369
11
10.7557
21
-5.38556
0
LINE
8
BLACK
6
CONTINUOUS
10
10.7557
20
-5.38556
11
10.7576
21
-5.38931
0
LINE
8
BLACK
6
CONTINUOUS
10
10.7576
20
-5.38931
11
10.7576
21
-5.40994
0
LINE
8
BLACK
6
CONTINUOUS
10
10.7576
20
-5.38931
11
10.7595
21
-5.38556
0
LINE
8
BLACK
6
CONTINUOUS
10
10.7595
20
-5.38556
11
10.7632
21
-5.38369
0
LINE
8
BLACK
6
CONTINUOUS
10
10.7632
20
-5.38369
11
10.7689
21
-5.38369
0
LINE
8
BLACK
6
CONTINUOUS
10
10.7689
20
-5.38369
11
10.7726
21
-5.38556
0
LINE
8
BLACK
6
CONTINUOUS
10
10.7726
20
-5.38556
11
10.7745
21
-5.38931
0
LINE
8
BLACK
6
CONTINUOUS
10
10.7745
20
-5.38931
11
10.7745
21
-5.40994
0
LINE
8
BLACK
6
CONTINUOUS
10
10.7932
20
-5.40994
11
10.7932
21
-5.38369
0
LINE
8
BLACK
6
CONTINUOUS
10
10.7932
20
-5.38744
11
10.7951
21
-5.38556
0
LINE
8
BLACK
6
CONTINUOUS
10
10.7951
20
-5.38556
11
10.7989
21
-5.38369
0
LINE
8
BLACK
6
CONTINUOUS
10
10.7989
20
-5.38369
11
10.8045
21
-5.38369
0
LINE
8
BLACK
6
CONTINUOUS
10
10.8045
20
-5.38369
11
10.8082
21
-5.38556
0
LINE
8
BLACK
6
CONTINUOUS
10
10.8082
20
-5.38556
11
10.8101
21
-5.38931
0
LINE
8
BLACK
6
CONTINUOUS
10
10.8101
20
-5.38931
11
10.8101
21
-5.40994
0
LINE
8
BLACK
6
CONTINUOUS
10
10.8101
20
-5.38931
11
10.812
21
-5.38556
0
LINE
8
BLACK
6
CONTINUOUS
10
10.812
20
-5.38556
11
10.8157
21
-5.38369
0
LINE
8
BLACK
6
CONTINUOUS
10
10.8157
20
-5.38369
11
10.8214
21
-5.38369
0
LINE
8
BLACK
6
CONTINUOUS
10
10.8214
20
-5.38369
11
10.8251
21
-5.38556
0
LINE
8
BLACK
6
CONTINUOUS
10
10.8251
20
-5.38556
11
10.827
21
-5.38931
0
LINE
8
BLACK
6
CONTINUOUS
10
10.827
20
-5.38931
11
10.827
21
-5.40994
0
LINE
8
BLACK
6
CONTINUOUS
10
10.3764
20
-5.34488
11
10.9551
21
-5.34488
0
LINE
8
BLACK
6
CONTINUOUS
10
10.3764
20
-5.32953
11
10.3764
21
-5.36797
0
LINE
8
BLACK
6
CONTINUOUS
10
10.9551
20
-5.32953
11
10.9551
21
-5.36797
0
LINE
8
BLACK
6
CONTINUOUS
10
10.9551
20
-5.34488
11
10.9108
21
-5.36797
0
LINE
8
BLACK
6
CONTINUOUS
10
10.9551
20
-5.34488
11
10.9108
21
-5.32179
0
LINE
8
BLACK
6
CONTINUOUS
10
10.3764
20
-5.34488
11
10.4207
21
-5.36797
0
LINE
8
BLACK
6
CONTINUOUS
10
10.3764
20
-5.34488
11
10.4207
21
-5.32179
0
LINE
8
BLACK
6
CONTINUOUS
10
9.02799
20
-5.38316
11
9.0055
21
-5.38316
0
LINE
8
BLACK
6
CONTINUOUS
10
9.01675
20
-5.38316
11
9.01675
21
-5.34379
0
LINE
8
BLACK
6
CONTINUOUS
10
9.01675
20
-5.34379
11
9.013
21
-5.34942
0
LINE
8
BLACK
6
CONTINUOUS
10
9.013
20
-5.34942
11
9.00925
21
-5.35317
0
LINE
8
BLACK
6
CONTINUOUS
10
9.00925
20
-5.35317
11
9.0055
21
-5.35504
0
LINE
8
BLACK
6
CONTINUOUS
10
9.06174
20
-5.35692
11
9.06174
21
-5.38316
0
LINE
8
BLACK
6
CONTINUOUS
10
9.05237
20
-5.34192
11
9.04299
21
-5.37004
0
LINE
8
BLACK
6
CONTINUOUS
10
9.04299
20
-5.37004
11
9.06737
21
-5.37004
0
LINE
8
BLACK
6
CONTINUOUS
10
9.08236
20
-5.37942
11
9.08424
21
-5.38129
0
LINE
8
BLACK
6
CONTINUOUS
10
9.08424
20
-5.38129
11
9.08236
21
-5.38316
0
LINE
8
BLACK
6
CONTINUOUS
10
9.08236
20
-5.38316
11
9.08049
21
-5.38129
0
LINE
8
BLACK
6
CONTINUOUS
10
9.08049
20
-5.38129
11
9.08236
21
-5.37942
0
LINE
8
BLACK
6
CONTINUOUS
10
9.08236
20
-5.37942
11
9.08236
21
-5.38316
0
LINE
8
BLACK
6
CONTINUOUS
10
9.11986
20
-5.34379
11
9.10111
21
-5.34379
0
LINE
8
BLACK
6
CONTINUOUS
10
9.10111
20
-5.34379
11
9.09924
21
-5.36254
0
LINE
8
BLACK
6
CONTINUOUS
10
9.09924
20
-5.36254
11
9.10111
21
-5.36067
0
LINE
8
BLACK
6
CONTINUOUS
10
9.10111
20
-5.36067
11
9.10486
21
-5.35879
0
LINE
8
BLACK
6
CONTINUOUS
10
9.10486
20
-5.35879
11
9.11423
21
-5.35879
0
LINE
8
BLACK
6
CONTINUOUS
10
9.11423
20
-5.35879
11
9.11798
21
-5.36067
0
LINE
8
BLACK
6
CONTINUOUS
10
9.11798
20
-5.36067
11
9.11986
21
-5.36254
0
LINE
8
BLACK
6
CONTINUOUS
10
9.11986
20
-5.36254
11
9.12173
21
-5.36629
0
LINE
8
BLACK
6
CONTINUOUS
10
9.12173
20
-5.36629
11
9.12173
21
-5.37567
0
LINE
8
BLACK
6
CONTINUOUS
10
9.12173
20
-5.37567
11
9.11986
21
-5.37942
0
LINE
8
BLACK
6
CONTINUOUS
10
9.11986
20
-5.37942
11
9.11798
21
-5.38129
0
LINE
8
BLACK
6
CONTINUOUS
10
9.11798
20
-5.38129
11
9.11423
21
-5.38316
0
LINE
8
BLACK
6
CONTINUOUS
10
9.11423
20
-5.38316
11
9.10486
21
-5.38316
0
LINE
8
BLACK
6
CONTINUOUS
10
9.10486
20
-5.38316
11
9.10111
21
-5.38129
0
LINE
8
BLACK
6
CONTINUOUS
10
9.10111
20
-5.38129
11
9.09924
21
-5.37942
0
LINE
8
BLACK
6
CONTINUOUS
10
9.15735
20
-5.34379
11
9.13861
21
-5.34379
0
LINE
8
BLACK
6
CONTINUOUS
10
9.13861
20
-5.34379
11
9.13673
21
-5.36254
0
LINE
8
BLACK
6
CONTINUOUS
10
9.13673
20
-5.36254
11
9.13861
21
-5.36067
0
LINE
8
BLACK
6
CONTINUOUS
10
9.13861
20
-5.36067
11
9.14236
21
-5.35879
0
LINE
8
BLACK
6
CONTINUOUS
10
9.14236
20
-5.35879
11
9.15173
21
-5.35879
0
LINE
8
BLACK
6
CONTINUOUS
10
9.15173
20
-5.35879
11
9.15548
21
-5.36067
0
LINE
8
BLACK
6
CONTINUOUS
10
9.15548
20
-5.36067
11
9.15735
21
-5.36254
0
LINE
8
BLACK
6
CONTINUOUS
10
9.15735
20
-5.36254
11
9.15923
21
-5.36629
0
LINE
8
BLACK
6
CONTINUOUS
10
9.15923
20
-5.36629
11
9.15923
21
-5.37567
0
LINE
8
BLACK
6
CONTINUOUS
10
9.15923
20
-5.37567
11
9.15735
21
-5.37942
0
LINE
8
BLACK
6
CONTINUOUS
10
9.15735
20
-5.37942
11
9.15548
21
-5.38129
0
LINE
8
BLACK
6
CONTINUOUS
10
9.15548
20
-5.38129
11
9.15173
21
-5.38316
0
LINE
8
BLACK
6
CONTINUOUS
10
9.15173
20
-5.38316
11
9.14236
21
-5.38316
0
LINE
8
BLACK
6
CONTINUOUS
10
9.14236
20
-5.38316
11
9.13861
21
-5.38129
0
LINE
8
BLACK
6
CONTINUOUS
10
9.13861
20
-5.38129
11
9.13673
21
-5.37942
0
LINE
8
BLACK
6
CONTINUOUS
10
9.19485
20
-5.34379
11
9.1761
21
-5.34379
0
LINE
8
BLACK
6
CONTINUOUS
10
9.1761
20
-5.34379
11
9.17423
21
-5.36254
0
LINE
8
BLACK
6
CONTINUOUS
10
9.17423
20
-5.36254
11
9.1761
21
-5.36067
0
LINE
8
BLACK
6
CONTINUOUS
10
9.1761
20
-5.36067
11
9.17985
21
-5.35879
0
LINE
8
BLACK
6
CONTINUOUS
10
9.17985
20
-5.35879
11
9.18922
21
-5.35879
0
LINE
8
BLACK
6
CONTINUOUS
10
9.18922
20
-5.35879
11
9.19297
21
-5.36067
0
LINE
8
BLACK
6
CONTINUOUS
10
9.19297
20
-5.36067
11
9.19485
21
-5.36254
0
LINE
8
BLACK
6
CONTINUOUS
10
9.19485
20
-5.36254
11
9.19672
21
-5.36629
0
LINE
8
BLACK
6
CONTINUOUS
10
9.19672
20
-5.36629
11
9.19672
21
-5.37567
0
LINE
8
BLACK
6
CONTINUOUS
10
9.19672
20
-5.37567
11
9.19485
21
-5.37942
0
LINE
8
BLACK
6
CONTINUOUS
10
9.19485
20
-5.37942
11
9.19297
21
-5.38129
0
LINE
8
BLACK
6
CONTINUOUS
10
9.19297
20
-5.38129
11
9.18922
21
-5.38316
0
LINE
8
BLACK
6
CONTINUOUS
10
9.18922
20
-5.38316
11
9.17985
21
-5.38316
0
LINE
8
BLACK
6
CONTINUOUS
10
9.17985
20
-5.38316
11
9.1761
21
-5.38129
0
LINE
8
BLACK
6
CONTINUOUS
10
9.1761
20
-5.38129
11
9.17423
21
-5.37942
0
LINE
8
BLACK
6
CONTINUOUS
10
9.24359
20
-5.38316
11
9.24359
21
-5.35692
0
LINE
8
BLACK
6
CONTINUOUS
10
9.24359
20
-5.36067
11
9.24547
21
-5.35879
0
LINE
8
BLACK
6
CONTINUOUS
10
9.24547
20
-5.35879
11
9.24922
21
-5.35692
0
LINE
8
BLACK
6
CONTINUOUS
10
9.24922
20
-5.35692
11
9.25484
21
-5.35692
0
LINE
8
BLACK
6
CONTINUOUS
10
9.25484
20
-5.35692
11
9.25859
21
-5.35879
0
LINE
8
BLACK
6
CONTINUOUS
10
9.25859
20
-5.35879
11
9.26047
21
-5.36254
0
LINE
8
BLACK
6
CONTINUOUS
10
9.26047
20
-5.36254
11
9.26047
21
-5.38316
0
LINE
8
BLACK
6
CONTINUOUS
10
9.26047
20
-5.36254
11
9.26234
21
-5.35879
0
LINE
8
BLACK
6
CONTINUOUS
10
9.26234
20
-5.35879
11
9.26609
21
-5.35692
0
LINE
8
BLACK
6
CONTINUOUS
10
9.26609
20
-5.35692
11
9.27171
21
-5.35692
0
LINE
8
BLACK
6
CONTINUOUS
10
9.27171
20
-5.35692
11
9.27546
21
-5.35879
0
LINE
8
BLACK
6
CONTINUOUS
10
9.27546
20
-5.35879
11
9.27734
21
-5.36254
0
LINE
8
BLACK
6
CONTINUOUS
10
9.27734
20
-5.36254
11
9.27734
21
-5.38316
0
LINE
8
BLACK
6
CONTINUOUS
10
9.29609
20
-5.38316
11
9.29609
21
-5.35692
0
LINE
8
BLACK
6
CONTINUOUS
10
9.29609
20
-5.36067
11
9.29796
21
-5.35879
0
LINE
8
BLACK
6
CONTINUOUS
10
9.29796
20
-5.35879
11
9.30171
21
-5.35692
0
LINE
8
BLACK
6
CONTINUOUS
10
9.30171
20
-5.35692
11
9.30734
21
-5.35692
0
LINE
8
BLACK
6
CONTINUOUS
10
9.30734
20
-5.35692
11
9.31108
21
-5.35879
0
LINE
8
BLACK
6
CONTINUOUS
10
9.31108
20
-5.35879
11
9.31296
21
-5.36254
0
LINE
8
BLACK
6
CONTINUOUS
10
9.31296
20
-5.36254
11
9.31296
21
-5.38316
0
LINE
8
BLACK
6
CONTINUOUS
10
9.31296
20
-5.36254
11
9.31483
21
-5.35879
0
LINE
8
BLACK
6
CONTINUOUS
10
9.31483
20
-5.35879
11
9.31858
21
-5.35692
0
LINE
8
BLACK
6
CONTINUOUS
10
9.31858
20
-5.35692
11
9.32421
21
-5.35692
0
LINE
8
BLACK
6
CONTINUOUS
10
9.32421
20
-5.35692
11
9.32796
21
-5.35879
0
LINE
8
BLACK
6
CONTINUOUS
10
9.32796
20
-5.35879
11
9.32983
21
-5.36254
0
LINE
8
BLACK
6
CONTINUOUS
10
9.32983
20
-5.36254
11
9.32983
21
-5.38316
0
LINE
8
BLACK
6
CONTINUOUS
10
9.45512
20
-5.31811
11
8.88209
21
-5.31811
0
LINE
8
BLACK
6
CONTINUOUS
10
9.45512
20
-5.29252
11
9.45512
21
-5.3412
0
LINE
8
BLACK
6
CONTINUOUS
10
8.88209
20
-5.29252
11
8.88209
21
-5.3412
0
LINE
8
BLACK
6
CONTINUOUS
10
8.88209
20
-5.31811
11
8.92644
21
-5.29502
0
LINE
8
BLACK
6
CONTINUOUS
10
8.88209
20
-5.31811
11
8.92644
21
-5.3412
0
LINE
8
BLACK
6
CONTINUOUS
10
9.45512
20
-5.31811
11
9.41077
21
-5.29502
0
LINE
8
BLACK
6
CONTINUOUS
10
9.45512
20
-5.31811
11
9.41077
21
-5.3412
0
LINE
8
BLACK
6
CONTINUOUS
10
10.1744
20
-1.73041
11
10.1519
21
-1.73041
0
LINE
8
BLACK
6
CONTINUOUS
10
10.1631
20
-1.73041
11
10.1631
21
-1.69104
0
LINE
8
BLACK
6
CONTINUOUS
10
10.1631
20
-1.69104
11
10.1594
21
-1.69666
0
LINE
8
BLACK
6
CONTINUOUS
10
10.1594
20
-1.69666
11
10.1556
21
-1.70041
0
LINE
8
BLACK
6
CONTINUOUS
10
10.1556
20
-1.70041
11
10.1519
21
-1.70229
0
LINE
8
BLACK
6
CONTINUOUS
10
10.1969
20
-1.70791
11
10.1931
21
-1.70604
0
LINE
8
BLACK
6
CONTINUOUS
10
10.1931
20
-1.70604
11
10.1912
21
-1.70416
0
LINE
8
BLACK
6
CONTINUOUS
10
10.1912
20
-1.70416
11
10.1894
21
-1.70041
0
LINE
8
BLACK
6
CONTINUOUS
10
10.1894
20
-1.70041
11
10.1894
21
-1.69854
0
LINE
8
BLACK
6
CONTINUOUS
10
10.1894
20
-1.69854
11
10.1912
21
-1.69479
0
LINE
8
BLACK
6
CONTINUOUS
10
10.1912
20
-1.69479
11
10.1931
21
-1.69291
0
LINE
8
BLACK
6
CONTINUOUS
10
10.1931
20
-1.69291
11
10.1969
21
-1.69104
0
LINE
8
BLACK
6
CONTINUOUS
10
10.1969
20
-1.69104
11
10.2043
21
-1.69104
0
LINE
8
BLACK
6
CONTINUOUS
10
10.2043
20
-1.69104
11
10.2081
21
-1.69291
0
LINE
8
BLACK
6
CONTINUOUS
10
10.2081
20
-1.69291
11
10.21
21
-1.69479
0
LINE
8
BLACK
6
CONTINUOUS
10
10.21
20
-1.69479
11
10.2118
21
-1.69854
0
LINE
8
BLACK
6
CONTINUOUS
10
10.2118
20
-1.69854
11
10.2118
21
-1.70041
0
LINE
8
BLACK
6
CONTINUOUS
10
10.2118
20
-1.70041
11
10.21
21
-1.70416
0
LINE
8
BLACK
6
CONTINUOUS
10
10.21
20
-1.70416
11
10.2081
21
-1.70604
0
LINE
8
BLACK
6
CONTINUOUS
10
10.2081
20
-1.70604
11
10.2043
21
-1.70791
0
LINE
8
BLACK
6
CONTINUOUS
10
10.2043
20
-1.70791
11
10.1969
21
-1.70791
0
LINE
8
BLACK
6
CONTINUOUS
10
10.1969
20
-1.70791
11
10.1931
21
-1.70979
0
LINE
8
BLACK
6
CONTINUOUS
10
10.1931
20
-1.70979
11
10.1912
21
-1.71166
0
LINE
8
BLACK
6
CONTINUOUS
10
10.1912
20
-1.71166
11
10.1894
21
-1.71541
0
LINE
8
BLACK
6
CONTINUOUS
10
10.1894
20
-1.71541
11
10.1894
21
-1.72291
0
LINE
8
BLACK
6
CONTINUOUS
10
10.1894
20
-1.72291
11
10.1912
21
-1.72666
0
LINE
8
BLACK
6
CONTINUOUS
10
10.1912
20
-1.72666
11
10.1931
21
-1.72853
0
LINE
8
BLACK
6
CONTINUOUS
10
10.1931
20
-1.72853
11
10.1969
21
-1.73041
0
LINE
8
BLACK
6
CONTINUOUS
10
10.1969
20
-1.73041
11
10.2043
21
-1.73041
0
LINE
8
BLACK
6
CONTINUOUS
10
10.2043
20
-1.73041
11
10.2081
21
-1.72853
0
LINE
8
BLACK
6
CONTINUOUS
10
10.2081
20
-1.72853
11
10.21
21
-1.72666
0
LINE
8
BLACK
6
CONTINUOUS
10
10.21
20
-1.72666
11
10.2118
21
-1.72291
0
LINE
8
BLACK
6
CONTINUOUS
10
10.2118
20
-1.72291
11
10.2118
21
-1.71541
0
LINE
8
BLACK
6
CONTINUOUS
10
10.2118
20
-1.71541
11
10.21
21
-1.71166
0
LINE
8
BLACK
6
CONTINUOUS
10
10.21
20
-1.71166
11
10.2081
21
-1.70979
0
LINE
8
BLACK
6
CONTINUOUS
10
10.2081
20
-1.70979
11
10.2043
21
-1.70791
0
LINE
8
BLACK
6
CONTINUOUS
10
10.2287
20
-1.72666
11
10.2306
21
-1.72853
0
LINE
8
BLACK
6
CONTINUOUS
10
10.2306
20
-1.72853
11
10.2287
21
-1.73041
0
LINE
8
BLACK
6
CONTINUOUS
10
10.2287
20
-1.73041
11
10.2268
21
-1.72853
0
LINE
8
BLACK
6
CONTINUOUS
10
10.2268
20
-1.72853
11
10.2287
21
-1.72666
0
LINE
8
BLACK
6
CONTINUOUS
10
10.2287
20
-1.72666
11
10.2287
21
-1.73041
0
LINE
8
BLACK
6
CONTINUOUS
10
10.2437
20
-1.69104
11
10.27
21
-1.69104
0
LINE
8
BLACK
6
CONTINUOUS
10
10.27
20
-1.69104
11
10.2531
21
-1.73041
0
LINE
8
BLACK
6
CONTINUOUS
10
10.2868
20
-1.73041
11
10.2943
21
-1.73041
0
LINE
8
BLACK
6
CONTINUOUS
10
10.2943
20
-1.73041
11
10.2981
21
-1.72853
0
LINE
8
BLACK
6
CONTINUOUS
10
10.2981
20
-1.72853
11
10.3
21
-1.72666
0
LINE
8
BLACK
6
CONTINUOUS
10
10.3
20
-1.72666
11
10.3037
21
-1.72103
0
LINE
8
BLACK
6
CONTINUOUS
10
10.3037
20
-1.72103
11
10.3056
21
-1.71354
0
LINE
8
BLACK
6
CONTINUOUS
10
10.3056
20
-1.71354
11
10.3056
21
-1.69854
0
LINE
8
BLACK
6
CONTINUOUS
10
10.3056
20
-1.69854
11
10.3037
21
-1.69479
0
LINE
8
BLACK
6
CONTINUOUS
10
10.3037
20
-1.69479
11
10.3018
21
-1.69291
0
LINE
8
BLACK
6
CONTINUOUS
10
10.3018
20
-1.69291
11
10.2981
21
-1.69104
0
LINE
8
BLACK
6
CONTINUOUS
10
10.2981
20
-1.69104
11
10.2906
21
-1.69104
0
LINE
8
BLACK
6
CONTINUOUS
10
10.2906
20
-1.69104
11
10.2868
21
-1.69291
0
LINE
8
BLACK
6
CONTINUOUS
10
10.2868
20
-1.69291
11
10.285
21
-1.69479
0
LINE
8
BLACK
6
CONTINUOUS
10
10.285
20
-1.69479
11
10.2831
21
-1.69854
0
LINE
8
BLACK
6
CONTINUOUS
10
10.2831
20
-1.69854
11
10.2831
21
-1.70791
0
LINE
8
BLACK
6
CONTINUOUS
10
10.2831
20
-1.70791
11
10.285
21
-1.71166
0
LINE
8
BLACK
6
CONTINUOUS
10
10.285
20
-1.71166
11
10.2868
21
-1.71354
0
LINE
8
BLACK
6
CONTINUOUS
10
10.2868
20
-1.71354
11
10.2906
21
-1.71541
0
LINE
8
BLACK
6
CONTINUOUS
10
10.2906
20
-1.71541
11
10.2981
21
-1.71541
0
LINE
8
BLACK
6
CONTINUOUS
10
10.2981
20
-1.71541
11
10.3018
21
-1.71354
0
LINE
8
BLACK
6
CONTINUOUS
10
10.3018
20
-1.71354
11
10.3037
21
-1.71166
0
LINE
8
BLACK
6
CONTINUOUS
10
10.3037
20
-1.71166
11
10.3056
21
-1.70791
0
LINE
8
BLACK
6
CONTINUOUS
10
10.33
20
-1.69104
11
10.3337
21
-1.69104
0
LINE
8
BLACK
6
CONTINUOUS
10
10.3337
20
-1.69104
11
10.3375
21
-1.69291
0
LINE
8
BLACK
6
CONTINUOUS
10
10.3375
20
-1.69291
11
10.3393
21
-1.69479
0
LINE
8
BLACK
6
CONTINUOUS
10
10.3393
20
-1.69479
11
10.3412
21
-1.69854
0
LINE
8
BLACK
6
CONTINUOUS
10
10.3412
20
-1.69854
11
10.3431
21
-1.70604
0
LINE
8
BLACK
6
CONTINUOUS
10
10.3431
20
-1.70604
11
10.3431
21
-1.71541
0
LINE
8
BLACK
6
CONTINUOUS
10
10.3431
20
-1.71541
11
10.3412
21
-1.72291
0
LINE
8
BLACK
6
CONTINUOUS
10
10.3412
20
-1.72291
11
10.3393
21
-1.72666
0
LINE
8
BLACK
6
CONTINUOUS
10
10.3393
20
-1.72666
11
10.3375
21
-1.72853
0
LINE
8
BLACK
6
CONTINUOUS
10
10.3375
20
-1.72853
11
10.3337
21
-1.73041
0
LINE
8
BLACK
6
CONTINUOUS
10
10.3337
20
-1.73041
11
10.33
21
-1.73041
0
LINE
8
BLACK
6
CONTINUOUS
10
10.33
20
-1.73041
11
10.3262
21
-1.72853
0
LINE
8
BLACK
6
CONTINUOUS
10
10.3262
20
-1.72853
11
10.3243
21
-1.72666
0
LINE
8
BLACK
6
CONTINUOUS
10
10.3243
20
-1.72666
11
10.3225
21
-1.72291
0
LINE
8
BLACK
6
CONTINUOUS
10
10.3225
20
-1.72291
11
10.3206
21
-1.71541
0
LINE
8
BLACK
6
CONTINUOUS
10
10.3206
20
-1.71541
11
10.3206
21
-1.70604
0
LINE
8
BLACK
6
CONTINUOUS
10
10.3206
20
-1.70604
11
10.3225
21
-1.69854
0
LINE
8
BLACK
6
CONTINUOUS
10
10.3225
20
-1.69854
11
10.3243
21
-1.69479
0
LINE
8
BLACK
6
CONTINUOUS
10
10.3243
20
-1.69479
11
10.3262
21
-1.69291
0
LINE
8
BLACK
6
CONTINUOUS
10
10.3262
20
-1.69291
11
10.33
21
-1.69104
0
LINE
8
BLACK
6
CONTINUOUS
10
10.39
20
-1.73041
11
10.39
21
-1.70416
0
LINE
8
BLACK
6
CONTINUOUS
10
10.39
20
-1.70791
11
10.3918
21
-1.70604
0
LINE
8
BLACK
6
CONTINUOUS
10
10.3918
20
-1.70604
11
10.3956
21
-1.70416
0
LINE
8
BLACK
6
CONTINUOUS
10
10.3956
20
-1.70416
11
10.4012
21
-1.70416
0
LINE
8
BLACK
6
CONTINUOUS
10
10.4012
20
-1.70416
11
10.4049
21
-1.70604
0
LINE
8
BLACK
6
CONTINUOUS
10
10.4049
20
-1.70604
11
10.4068
21
-1.70979
0
LINE
8
BLACK
6
CONTINUOUS
10
10.4068
20
-1.70979
11
10.4068
21
-1.73041
0
LINE
8
BLACK
6
CONTINUOUS
10
10.4068
20
-1.70979
11
10.4087
21
-1.70604
0
LINE
8
BLACK
6
CONTINUOUS
10
10.4087
20
-1.70604
11
10.4124
21
-1.70416
0
LINE
8
BLACK
6
CONTINUOUS
10
10.4124
20
-1.70416
11
10.4181
21
-1.70416
0
LINE
8
BLACK
6
CONTINUOUS
10
10.4181
20
-1.70416
11
10.4218
21
-1.70604
0
LINE
8
BLACK
6
CONTINUOUS
10
10.4218
20
-1.70604
11
10.4237
21
-1.70979
0
LINE
8
BLACK
6
CONTINUOUS
10
10.4237
20
-1.70979
11
10.4237
21
-1.73041
0
LINE
8
BLACK
6
CONTINUOUS
10
10.4424
20
-1.73041
11
10.4424
21
-1.70416
0
LINE
8
BLACK
6
CONTINUOUS
10
10.4424
20
-1.70791
11
10.4443
21
-1.70604
0
LINE
8
BLACK
6
CONTINUOUS
10
10.4443
20
-1.70604
11
10.4481
21
-1.70416
0
LINE
8
BLACK
6
CONTINUOUS
10
10.4481
20
-1.70416
11
10.4537
21
-1.70416
0
LINE
8
BLACK
6
CONTINUOUS
10
10.4537
20
-1.70416
11
10.4574
21
-1.70604
0
LINE
8
BLACK
6
CONTINUOUS
10
10.4574
20
-1.70604
11
10.4593
21
-1.70979
0
LINE
8
BLACK
6
CONTINUOUS
10
10.4593
20
-1.70979
11
10.4593
21
-1.73041
0
LINE
8
BLACK
6
CONTINUOUS
10
10.4593
20
-1.70979
11
10.4612
21
-1.70604
0
LINE
8
BLACK
6
CONTINUOUS
10
10.4612
20
-1.70604
11
10.4649
21
-1.70416
0
LINE
8
BLACK
6
CONTINUOUS
10
10.4649
20
-1.70416
11
10.4706
21
-1.70416
0
LINE
8
BLACK
6
CONTINUOUS
10
10.4706
20
-1.70416
11
10.4743
21
-1.70604
0
LINE
8
BLACK
6
CONTINUOUS
10
10.4743
20
-1.70604
11
10.4762
21
-1.70979
0
LINE
8
BLACK
6
CONTINUOUS
10
10.4762
20
-1.70979
11
10.4762
21
-1.73041
0
LINE
8
BLACK
6
CONTINUOUS
10
9.94508
20
-1.66535
11
10.6848
21
-1.66535
0
LINE
8
BLACK
6
CONTINUOUS
10
9.94508
20
-1.66417
11
9.94508
21
-1.68844
0
LINE
8
BLACK
6
CONTINUOUS
10
10.6848
20
-1.66417
11
10.6848
21
-1.68844
0
LINE
8
BLACK
6
CONTINUOUS
10
10.6848
20
-1.66535
11
10.6405
21
-1.68844
0
LINE
8
BLACK
6
CONTINUOUS
10
10.6848
20
-1.66535
11
10.6405
21
-1.64227
0
LINE
8
BLACK
6
CONTINUOUS
10
9.94508
20
-1.66535
11
9.98943
21
-1.68844
0
LINE
8
BLACK
6
CONTINUOUS
10
9.94508
20
-1.66535
11
9.98943
21
-1.64227
0
LINE
8
BLACK
6
CONTINUOUS
10
10.9551
20
-4.48327
11
10.3982
21
-4.48327
0
LINE
8
BLACK
6
CONTINUOUS
10
10.6848
20
-3.96457
11
10.9551
21
-4.48327
0
ARC
8
BLACK
10
9.47579
20
-5.15768
40
0.020703
50
-183.27
51
-93.2705
0
ARC
8
BLACK
10
9.87343
20
-5.15768
40
0.020703
50
-93.2705
51
-3.27049
0
LINE
8
BLACK
6
CONTINUOUS
10
10.3764
20
-5.15886
11
10.3764
21
-4.50276
0
ARC
8
BLACK
10
9.43445
20
-4.50394
40
0.020703
50
-3.27049
51
86.7295
0
LINE
8
BLACK
6
CONTINUOUS
10
10.3545
20
-5.17835
11
9.96457
21
-5.17835
0
LINE
8
BLACK
6
CONTINUOUS
10
9.89409
20
-5.15886
11
9.89409
21
-4.4874
0
ARC
8
BLACK
10
9.96575
20
-5.15768
40
0.020703
50
-183.27
51
-93.2705
0
ARC
8
BLACK
10
9.96575
20
-1.8622
40
0.020703
50
86.7295
51
176.73
0
LINE
8
BLACK
6
CONTINUOUS
10
9.94508
20
-5.1565
11
9.94508
21
-1.86102
0
ARC
8
BLACK
10
10.3557
20
-5.15768
40
0.020703
50
-93.2705
51
-3.27049
0
LINE
8
BLACK
6
CONTINUOUS
10
9.62185
20
-1.86339
11
9.62185
21
-3.96457
0
ARC
8
BLACK
10
10.397
20
-4.50394
40
0.020703
50
86.7295
51
176.73
0
LINE
8
BLACK
6
CONTINUOUS
10
9.87224
20
-5.17835
11
9.47461
21
-5.17835
0
LINE
8
BLACK
6
CONTINUOUS
10
9.62185
20
-3.96457
11
9.89409
21
-4.4874
0
LINE
8
BLACK
6
CONTINUOUS
10
10.02
20
-5.32293
11
9.99753
21
-5.32293
0
LINE
8
BLACK
6
CONTINUOUS
10
10.0088
20
-5.32293
11
10.0088
21
-5.28356
0
LINE
8
BLACK
6
CONTINUOUS
10
10.0088
20
-5.28356
11
10.005
21
-5.28918
0
LINE
8
BLACK
6
CONTINUOUS
10
10.005
20
-5.28918
11
10.0013
21
-5.29293
0
LINE
8
BLACK
6
CONTINUOUS
10
10.0013
20
-5.29293
11
9.99753
21
-5.29481
0
LINE
8
BLACK
6
CONTINUOUS
10
10.0444
20
-5.28356
11
10.0481
21
-5.28356
0
LINE
8
BLACK
6
CONTINUOUS
10
10.0481
20
-5.28356
11
10.0519
21
-5.28543
0
LINE
8
BLACK
6
CONTINUOUS
10
10.0519
20
-5.28543
11
10.0538
21
-5.28731
0
LINE
8
BLACK
6
CONTINUOUS
10
10.0538
20
-5.28731
11
10.0556
21
-5.29106
0
LINE
8
BLACK
6
CONTINUOUS
10
10.0556
20
-5.29106
11
10.0575
21
-5.29856
0
LINE
8
BLACK
6
CONTINUOUS
10
10.0575
20
-5.29856
11
10.0575
21
-5.30793
0
LINE
8
BLACK
6
CONTINUOUS
10
10.0575
20
-5.30793
11
10.0556
21
-5.31543
0
LINE
8
BLACK
6
CONTINUOUS
10
10.0556
20
-5.31543
11
10.0538
21
-5.31918
0
LINE
8
BLACK
6
CONTINUOUS
10
10.0538
20
-5.31918
11
10.0519
21
-5.32105
0
LINE
8
BLACK
6
CONTINUOUS
10
10.0519
20
-5.32105
11
10.0481
21
-5.32293
0
LINE
8
BLACK
6
CONTINUOUS
10
10.0481
20
-5.32293
11
10.0444
21
-5.32293
0
LINE
8
BLACK
6
CONTINUOUS
10
10.0444
20
-5.32293
11
10.0406
21
-5.32105
0
LINE
8
BLACK
6
CONTINUOUS
10
10.0406
20
-5.32105
11
10.0388
21
-5.31918
0
LINE
8
BLACK
6
CONTINUOUS
10
10.0388
20
-5.31918
11
10.0369
21
-5.31543
0
LINE
8
BLACK
6
CONTINUOUS
10
10.0369
20
-5.31543
11
10.035
21
-5.30793
0
LINE
8
BLACK
6
CONTINUOUS
10
10.035
20
-5.30793
11
10.035
21
-5.29856
0
LINE
8
BLACK
6
CONTINUOUS
10
10.035
20
-5.29856
11
10.0369
21
-5.29106
0
LINE
8
BLACK
6
CONTINUOUS
10
10.0369
20
-5.29106
11
10.0388
21
-5.28731
0
LINE
8
BLACK
6
CONTINUOUS
10
10.0388
20
-5.28731
11
10.0406
21
-5.28543
0
LINE
8
BLACK
6
CONTINUOUS
10
10.0406
20
-5.28543
11
10.0444
21
-5.28356
0
LINE
8
BLACK
6
CONTINUOUS
10
10.0744
20
-5.31918
11
10.0763
21
-5.32105
0
LINE
8
BLACK
6
CONTINUOUS
10
10.0763
20
-5.32105
11
10.0744
21
-5.32293
0
LINE
8
BLACK
6
CONTINUOUS
10
10.0744
20
-5.32293
11
10.0725
21
-5.32105
0
LINE
8
BLACK
6
CONTINUOUS
10
10.0725
20
-5.32105
11
10.0744
21
-5.31918
0
LINE
8
BLACK
6
CONTINUOUS
10
10.0744
20
-5.31918
11
10.0744
21
-5.32293
0
LINE
8
BLACK
6
CONTINUOUS
10
10.095
20
-5.32293
11
10.1025
21
-5.32293
0
LINE
8
BLACK
6
CONTINUOUS
10
10.1025
20
-5.32293
11
10.1063
21
-5.32105
0
LINE
8
BLACK
6
CONTINUOUS
10
10.1063
20
-5.32105
11
10.1081
21
-5.31918
0
LINE
8
BLACK
6
CONTINUOUS
10
10.1081
20
-5.31918
11
10.1119
21
-5.31355
0
LINE
8
BLACK
6
CONTINUOUS
10
10.1119
20
-5.31355
11
10.1138
21
-5.30606
0
LINE
8
BLACK
6
CONTINUOUS
10
10.1138
20
-5.30606
11
10.1138
21
-5.29106
0
LINE
8
BLACK
6
CONTINUOUS
10
10.1138
20
-5.29106
11
10.1119
21
-5.28731
0
LINE
8
BLACK
6
CONTINUOUS
10
10.1119
20
-5.28731
11
10.11
21
-5.28543
0
LINE
8
BLACK
6
CONTINUOUS
10
10.11
20
-5.28543
11
10.1063
21
-5.28356
0
LINE
8
BLACK
6
CONTINUOUS
10
10.1063
20
-5.28356
11
10.0988
21
-5.28356
0
LINE
8
BLACK
6
CONTINUOUS
10
10.0988
20
-5.28356
11
10.095
21
-5.28543
0
LINE
8
BLACK
6
CONTINUOUS
10
10.095
20
-5.28543
11
10.0931
21
-5.28731
0
LINE
8
BLACK
6
CONTINUOUS
10
10.0931
20
-5.28731
11
10.0913
21
-5.29106
0
LINE
8
BLACK
6
CONTINUOUS
10
10.0913
20
-5.29106
11
10.0913
21
-5.30043
0
LINE
8
BLACK
6
CONTINUOUS
10
10.0913
20
-5.30043
11
10.0931
21
-5.30418
0
LINE
8
BLACK
6
CONTINUOUS
10
10.0931
20
-5.30418
11
10.095
21
-5.30606
0
LINE
8
BLACK
6
CONTINUOUS
10
10.095
20
-5.30606
11
10.0988
21
-5.30793
0
LINE
8
BLACK
6
CONTINUOUS
10
10.0988
20
-5.30793
11
10.1063
21
-5.30793
0
LINE
8
BLACK
6
CONTINUOUS
10
10.1063
20
-5.30793
11
10.11
21
-5.30606
0
LINE
8
BLACK
6
CONTINUOUS
10
10.11
20
-5.30606
11
10.1119
21
-5.30418
0
LINE
8
BLACK
6
CONTINUOUS
10
10.1119
20
-5.30418
11
10.1138
21
-5.30043
0
LINE
8
BLACK
6
CONTINUOUS
10
10.1475
20
-5.28356
11
10.14
21
-5.28356
0
LINE
8
BLACK
6
CONTINUOUS
10
10.14
20
-5.28356
11
10.1363
21
-5.28543
0
LINE
8
BLACK
6
CONTINUOUS
10
10.1363
20
-5.28543
11
10.1344
21
-5.28731
0
LINE
8
BLACK
6
CONTINUOUS
10
10.1344
20
-5.28731
11
10.1306
21
-5.29293
0
LINE
8
BLACK
6
CONTINUOUS
10
10.1306
20
-5.29293
11
10.1288
21
-5.30043
0
LINE
8
BLACK
6
CONTINUOUS
10
10.1288
20
-5.30043
11
10.1288
21
-5.31543
0
LINE
8
BLACK
6
CONTINUOUS
10
10.1288
20
-5.31543
11
10.1306
21
-5.31918
0
LINE
8
BLACK
6
CONTINUOUS
10
10.1306
20
-5.31918
11
10.1325
21
-5.32105
0
LINE
8
BLACK
6
CONTINUOUS
10
10.1325
20
-5.32105
11
10.1363
21
-5.32293
0
LINE
8
BLACK
6
CONTINUOUS
10
10.1363
20
-5.32293
11
10.1438
21
-5.32293
0
LINE
8
BLACK
6
CONTINUOUS
10
10.1438
20
-5.32293
11
10.1475
21
-5.32105
0
LINE
8
BLACK
6
CONTINUOUS
10
10.1475
20
-5.32105
11
10.1494
21
-5.31918
0
LINE
8
BLACK
6
CONTINUOUS
10
10.1494
20
-5.31918
11
10.1513
21
-5.31543
0
LINE
8
BLACK
6
CONTINUOUS
10
10.1513
20
-5.31543
11
10.1513
21
-5.30606
0
LINE
8
BLACK
6
CONTINUOUS
10
10.1513
20
-5.30606
11
10.1494
21
-5.30231
0
LINE
8
BLACK
6
CONTINUOUS
10
10.1494
20
-5.30231
11
10.1475
21
-5.30043
0
LINE
8
BLACK
6
CONTINUOUS
10
10.1475
20
-5.30043
11
10.1438
21
-5.29856
0
LINE
8
BLACK
6
CONTINUOUS
10
10.1438
20
-5.29856
11
10.1363
21
-5.29856
0
LINE
8
BLACK
6
CONTINUOUS
10
10.1363
20
-5.29856
11
10.1325
21
-5.30043
0
LINE
8
BLACK
6
CONTINUOUS
10
10.1325
20
-5.30043
11
10.1306
21
-5.30231
0
LINE
8
BLACK
6
CONTINUOUS
10
10.1306
20
-5.30231
11
10.1288
21
-5.30606
0
LINE
8
BLACK
6
CONTINUOUS
10
10.1756
20
-5.28356
11
10.1794
21
-5.28356
0
LINE
8
BLACK
6
CONTINUOUS
10
10.1794
20
-5.28356
11
10.1831
21
-5.28543
0
LINE
8
BLACK
6
CONTINUOUS
10
10.1831
20
-5.28543
11
10.185
21
-5.28731
0
LINE
8
BLACK
6
CONTINUOUS
10
10.185
20
-5.28731
11
10.1869
21
-5.29106
0
LINE
8
BLACK
6
CONTINUOUS
10
10.1869
20
-5.29106
11
10.1888
21
-5.29856
0
LINE
8
BLACK
6
CONTINUOUS
10
10.1888
20
-5.29856
11
10.1888
21
-5.30793
0
LINE
8
BLACK
6
CONTINUOUS
10
10.1888
20
-5.30793
11
10.1869
21
-5.31543
0
LINE
8
BLACK
6
CONTINUOUS
10
10.1869
20
-5.31543
11
10.185
21
-5.31918
0
LINE
8
BLACK
6
CONTINUOUS
10
10.185
20
-5.31918
11
10.1831
21
-5.32105
0
LINE
8
BLACK
6
CONTINUOUS
10
10.1831
20
-5.32105
11
10.1794
21
-5.32293
0
LINE
8
BLACK
6
CONTINUOUS
10
10.1794
20
-5.32293
11
10.1756
21
-5.32293
0
LINE
8
BLACK
6
CONTINUOUS
10
10.1756
20
-5.32293
11
10.1719
21
-5.32105
0
LINE
8
BLACK
6
CONTINUOUS
10
10.1719
20
-5.32105
11
10.17
21
-5.31918
0
LINE
8
BLACK
6
CONTINUOUS
10
10.17
20
-5.31918
11
10.1681
21
-5.31543
0
LINE
8
BLACK
6
CONTINUOUS
10
10.1681
20
-5.31543
11
10.1663
21
-5.30793
0
LINE
8
BLACK
6
CONTINUOUS
10
10.1663
20
-5.30793
11
10.1663
21
-5.29856
0
LINE
8
BLACK
6
CONTINUOUS
10
10.1663
20
-5.29856
11
10.1681
21
-5.29106
0
LINE
8
BLACK
6
CONTINUOUS
10
10.1681
20
-5.29106
11
10.17
21
-5.28731
0
LINE
8
BLACK
6
CONTINUOUS
10
10.17
20
-5.28731
11
10.1719
21
-5.28543
0
LINE
8
BLACK
6
CONTINUOUS
10
10.1719
20
-5.28543
11
10.1756
21
-5.28356
0
LINE
8
BLACK
6
CONTINUOUS
10
10.2356
20
-5.32293
11
10.2356
21
-5.29668
0
LINE
8
BLACK
6
CONTINUOUS
10
10.2356
20
-5.30043
11
10.2375
21
-5.29856
0
LINE
8
BLACK
6
CONTINUOUS
10
10.2375
20
-5.29856
11
10.2412
21
-5.29668
0
LINE
8
BLACK
6
CONTINUOUS
10
10.2412
20
-5.29668
11
10.2469
21
-5.29668
0
LINE
8
BLACK
6
CONTINUOUS
10
10.2469
20
-5.29668
11
10.2506
21
-5.29856
0
LINE
8
BLACK
6
CONTINUOUS
10
10.2506
20
-5.29856
11
10.2525
21
-5.30231
0
LINE
8
BLACK
6
CONTINUOUS
10
10.2525
20
-5.30231
11
10.2525
21
-5.32293
0
LINE
8
BLACK
6
CONTINUOUS
10
10.2525
20
-5.30231
11
10.2544
21
-5.29856
0
LINE
8
BLACK
6
CONTINUOUS
10
10.2544
20
-5.29856
11
10.2581
21
-5.29668
0
LINE
8
BLACK
6
CONTINUOUS
10
10.2581
20
-5.29668
11
10.2637
21
-5.29668
0
LINE
8
BLACK
6
CONTINUOUS
10
10.2637
20
-5.29668
11
10.2675
21
-5.29856
0
LINE
8
BLACK
6
CONTINUOUS
10
10.2675
20
-5.29856
11
10.2694
21
-5.30231
0
LINE
8
BLACK
6
CONTINUOUS
10
10.2694
20
-5.30231
11
10.2694
21
-5.32293
0
LINE
8
BLACK
6
CONTINUOUS
10
10.2881
20
-5.32293
11
10.2881
21
-5.29668
0
LINE
8
BLACK
6
CONTINUOUS
10
10.2881
20
-5.30043
11
10.29
21
-5.29856
0
LINE
8
BLACK
6
CONTINUOUS
10
10.29
20
-5.29856
11
10.2937
21
-5.29668
0
LINE
8
BLACK
6
CONTINUOUS
10
10.2937
20
-5.29668
11
10.2994
21
-5.29668
0
LINE
8
BLACK
6
CONTINUOUS
10
10.2994
20
-5.29668
11
10.3031
21
-5.29856
0
LINE
8
BLACK
6
CONTINUOUS
10
10.3031
20
-5.29856
11
10.305
21
-5.30231
0
LINE
8
BLACK
6
CONTINUOUS
10
10.305
20
-5.30231
11
10.305
21
-5.32293
0
LINE
8
BLACK
6
CONTINUOUS
10
10.305
20
-5.30231
11
10.3069
21
-5.29856
0
LINE
8
BLACK
6
CONTINUOUS
10
10.3069
20
-5.29856
11
10.3106
21
-5.29668
0
LINE
8
BLACK
6
CONTINUOUS
10
10.3106
20
-5.29668
11
10.3162
21
-5.29668
0
LINE
8
BLACK
6
CONTINUOUS
10
10.3162
20
-5.29668
11
10.32
21
-5.29856
0
LINE
8
BLACK
6
CONTINUOUS
10
10.32
20
-5.29856
11
10.3219
21
-5.30231
0
LINE
8
BLACK
6
CONTINUOUS
10
10.3219
20
-5.30231
11
10.3219
21
-5.32293
0
LINE
8
BLACK
6
CONTINUOUS
10
10.3764
20
-5.25394
11
9.94488
21
-5.25394
0
LINE
8
BLACK
6
CONTINUOUS
10
10.3764
20
-5.2376
11
10.3764
21
-5.27702
0
LINE
8
BLACK
6
CONTINUOUS
10
9.94488
20
-5.2376
11
9.94488
21
-5.27702
0
LINE
8
BLACK
6
CONTINUOUS
10
9.94488
20
-5.25394
11
9.98923
21
-5.23085
0
LINE
8
BLACK
6
CONTINUOUS
10
9.94488
20
-5.25394
11
9.98923
21
-5.27702
0
LINE
8
BLACK
6
CONTINUOUS
10
10.3764
20
-5.25394
11
10.332
21
-5.23085
0
LINE
8
BLACK
6
CONTINUOUS
10
10.3764
20
-5.25394
11
10.332
21
-5.27702
0
LINE
8
BLACK
6
CONTINUOUS
10
9.534
20
-5.32568
11
9.5115
21
-5.32568
0
LINE
8
BLACK
6
CONTINUOUS
10
9.52275
20
-5.32568
11
9.52275
21
-5.28631
0
LINE
8
BLACK
6
CONTINUOUS
10
9.52275
20
-5.28631
11
9.519
21
-5.29194
0
LINE
8
BLACK
6
CONTINUOUS
10
9.519
20
-5.29194
11
9.51525
21
-5.29569
0
LINE
8
BLACK
6
CONTINUOUS
10
9.51525
20
-5.29569
11
9.5115
21
-5.29756
0
LINE
8
BLACK
6
CONTINUOUS
10
9.57149
20
-5.32568
11
9.549
21
-5.32568
0
LINE
8
BLACK
6
CONTINUOUS
10
9.56025
20
-5.32568
11
9.56025
21
-5.28631
0
LINE
8
BLACK
6
CONTINUOUS
10
9.56025
20
-5.28631
11
9.5565
21
-5.29194
0
LINE
8
BLACK
6
CONTINUOUS
10
9.5565
20
-5.29194
11
9.55275
21
-5.29569
0
LINE
8
BLACK
6
CONTINUOUS
10
9.55275
20
-5.29569
11
9.549
21
-5.29756
0
LINE
8
BLACK
6
CONTINUOUS
10
9.58837
20
-5.32193
11
9.59024
21
-5.32381
0
LINE
8
BLACK
6
CONTINUOUS
10
9.59024
20
-5.32381
11
9.58837
21
-5.32568
0
LINE
8
BLACK
6
CONTINUOUS
10
9.58837
20
-5.32568
11
9.58649
21
-5.32381
0
LINE
8
BLACK
6
CONTINUOUS
10
9.58649
20
-5.32381
11
9.58837
21
-5.32193
0
LINE
8
BLACK
6
CONTINUOUS
10
9.58837
20
-5.32193
11
9.58837
21
-5.32568
0
LINE
8
BLACK
6
CONTINUOUS
10
9.62774
20
-5.32568
11
9.60524
21
-5.32568
0
LINE
8
BLACK
6
CONTINUOUS
10
9.61649
20
-5.32568
11
9.61649
21
-5.28631
0
LINE
8
BLACK
6
CONTINUOUS
10
9.61649
20
-5.28631
11
9.61274
21
-5.29194
0
LINE
8
BLACK
6
CONTINUOUS
10
9.61274
20
-5.29194
11
9.60899
21
-5.29569
0
LINE
8
BLACK
6
CONTINUOUS
10
9.60899
20
-5.29569
11
9.60524
21
-5.29756
0
LINE
8
BLACK
6
CONTINUOUS
10
9.66336
20
-5.28631
11
9.64461
21
-5.28631
0
LINE
8
BLACK
6
CONTINUOUS
10
9.64461
20
-5.28631
11
9.64274
21
-5.30506
0
LINE
8
BLACK
6
CONTINUOUS
10
9.64274
20
-5.30506
11
9.64461
21
-5.30319
0
LINE
8
BLACK
6
CONTINUOUS
10
9.64461
20
-5.30319
11
9.64836
21
-5.30131
0
LINE
8
BLACK
6
CONTINUOUS
10
9.64836
20
-5.30131
11
9.65773
21
-5.30131
0
LINE
8
BLACK
6
CONTINUOUS
10
9.65773
20
-5.30131
11
9.66148
21
-5.30319
0
LINE
8
BLACK
6
CONTINUOUS
10
9.66148
20
-5.30319
11
9.66336
21
-5.30506
0
LINE
8
BLACK
6
CONTINUOUS
10
9.66336
20
-5.30506
11
9.66523
21
-5.30881
0
LINE
8
BLACK
6
CONTINUOUS
10
9.66523
20
-5.30881
11
9.66523
21
-5.31819
0
LINE
8
BLACK
6
CONTINUOUS
10
9.66523
20
-5.31819
11
9.66336
21
-5.32193
0
LINE
8
BLACK
6
CONTINUOUS
10
9.66336
20
-5.32193
11
9.66148
21
-5.32381
0
LINE
8
BLACK
6
CONTINUOUS
10
9.66148
20
-5.32381
11
9.65773
21
-5.32568
0
LINE
8
BLACK
6
CONTINUOUS
10
9.65773
20
-5.32568
11
9.64836
21
-5.32568
0
LINE
8
BLACK
6
CONTINUOUS
10
9.64836
20
-5.32568
11
9.64461
21
-5.32381
0
LINE
8
BLACK
6
CONTINUOUS
10
9.64461
20
-5.32381
11
9.64274
21
-5.32193
0
LINE
8
BLACK
6
CONTINUOUS
10
9.6896
20
-5.28631
11
9.69335
21
-5.28631
0
LINE
8
BLACK
6
CONTINUOUS
10
9.69335
20
-5.28631
11
9.6971
21
-5.28819
0
LINE
8
BLACK
6
CONTINUOUS
10
9.6971
20
-5.28819
11
9.69898
21
-5.29006
0
LINE
8
BLACK
6
CONTINUOUS
10
9.69898
20
-5.29006
11
9.70085
21
-5.29381
0
LINE
8
BLACK
6
CONTINUOUS
10
9.70085
20
-5.29381
11
9.70273
21
-5.30131
0
LINE
8
BLACK
6
CONTINUOUS
10
9.70273
20
-5.30131
11
9.70273
21
-5.31069
0
LINE
8
BLACK
6
CONTINUOUS
10
9.70273
20
-5.31069
11
9.70085
21
-5.31819
0
LINE
8
BLACK
6
CONTINUOUS
10
9.70085
20
-5.31819
11
9.69898
21
-5.32193
0
LINE
8
BLACK
6
CONTINUOUS
10
9.69898
20
-5.32193
11
9.6971
21
-5.32381
0
LINE
8
BLACK
6
CONTINUOUS
10
9.6971
20
-5.32381
11
9.69335
21
-5.32568
0
LINE
8
BLACK
6
CONTINUOUS
10
9.69335
20
-5.32568
11
9.6896
21
-5.32568
0
LINE
8
BLACK
6
CONTINUOUS
10
9.6896
20
-5.32568
11
9.68585
21
-5.32381
0
LINE
8
BLACK
6
CONTINUOUS
10
9.68585
20
-5.32381
11
9.68398
21
-5.32193
0
LINE
8
BLACK
6
CONTINUOUS
10
9.68398
20
-5.32193
11
9.68211
21
-5.31819
0
LINE
8
BLACK
6
CONTINUOUS
10
9.68211
20
-5.31819
11
9.68023
21
-5.31069
0
LINE
8
BLACK
6
CONTINUOUS
10
9.68023
20
-5.31069
11
9.68023
21
-5.30131
0
LINE
8
BLACK
6
CONTINUOUS
10
9.68023
20
-5.30131
11
9.68211
21
-5.29381
0
LINE
8
BLACK
6
CONTINUOUS
10
9.68211
20
-5.29381
11
9.68398
21
-5.29006
0
LINE
8
BLACK
6
CONTINUOUS
10
9.68398
20
-5.29006
11
9.68585
21
-5.28819
0
LINE
8
BLACK
6
CONTINUOUS
10
9.68585
20
-5.28819
11
9.6896
21
-5.28631
0
LINE
8
BLACK
6
CONTINUOUS
10
9.7496
20
-5.32568
11
9.7496
21
-5.29944
0
LINE
8
BLACK
6
CONTINUOUS
10
9.7496
20
-5.30319
11
9.75147
21
-5.30131
0
LINE
8
BLACK
6
CONTINUOUS
10
9.75147
20
-5.30131
11
9.75522
21
-5.29944
0
LINE
8
BLACK
6
CONTINUOUS
10
9.75522
20
-5.29944
11
9.76085
21
-5.29944
0
LINE
8
BLACK
6
CONTINUOUS
10
9.76085
20
-5.29944
11
9.7646
21
-5.30131
0
LINE
8
BLACK
6
CONTINUOUS
10
9.7646
20
-5.30131
11
9.76647
21
-5.30506
0
LINE
8
BLACK
6
CONTINUOUS
10
9.76647
20
-5.30506
11
9.76647
21
-5.32568
0
LINE
8
BLACK
6
CONTINUOUS
10
9.76647
20
-5.30506
11
9.76834
21
-5.30131
0
LINE
8
BLACK
6
CONTINUOUS
10
9.76834
20
-5.30131
11
9.77209
21
-5.29944
0
LINE
8
BLACK
6
CONTINUOUS
10
9.77209
20
-5.29944
11
9.77772
21
-5.29944
0
LINE
8
BLACK
6
CONTINUOUS
10
9.77772
20
-5.29944
11
9.78147
21
-5.30131
0
LINE
8
BLACK
6
CONTINUOUS
10
9.78147
20
-5.30131
11
9.78334
21
-5.30506
0
LINE
8
BLACK
6
CONTINUOUS
10
9.78334
20
-5.30506
11
9.78334
21
-5.32568
0
LINE
8
BLACK
6
CONTINUOUS
10
9.80209
20
-5.32568
11
9.80209
21
-5.29944
0
LINE
8
BLACK
6
CONTINUOUS
10
9.80209
20
-5.30319
11
9.80397
21
-5.30131
0
LINE
8
BLACK
6
CONTINUOUS
10
9.80397
20
-5.30131
11
9.80771
21
-5.29944
0
LINE
8
BLACK
6
CONTINUOUS
10
9.80771
20
-5.29944
11
9.81334
21
-5.29944
0
LINE
8
BLACK
6
CONTINUOUS
10
9.81334
20
-5.29944
11
9.81709
21
-5.30131
0
LINE
8
BLACK
6
CONTINUOUS
10
9.81709
20
-5.30131
11
9.81896
21
-5.30506
0
LINE
8
BLACK
6
CONTINUOUS
10
9.81896
20
-5.30506
11
9.81896
21
-5.32568
0
LINE
8
BLACK
6
CONTINUOUS
10
9.81896
20
-5.30506
11
9.82084
21
-5.30131
0
LINE
8
BLACK
6
CONTINUOUS
10
9.82084
20
-5.30131
11
9.82459
21
-5.29944
0
LINE
8
BLACK
6
CONTINUOUS
10
9.82459
20
-5.29944
11
9.83021
21
-5.29944
0
LINE
8
BLACK
6
CONTINUOUS
10
9.83021
20
-5.29944
11
9.83396
21
-5.30131
0
LINE
8
BLACK
6
CONTINUOUS
10
9.83396
20
-5.30131
11
9.83584
21
-5.30506
0
LINE
8
BLACK
6
CONTINUOUS
10
9.83584
20
-5.30506
11
9.83584
21
-5.32568
0
LINE
8
BLACK
6
CONTINUOUS
10
9.89409
20
-5.25669
11
9.45512
21
-5.25669
0
LINE
8
BLACK
6
CONTINUOUS
10
9.89409
20
-5.2376
11
9.89409
21
-5.27978
0
LINE
8
BLACK
6
CONTINUOUS
10
9.45512
20
-5.2376
11
9.45512
21
-5.27978
0
LINE
8
BLACK
6
CONTINUOUS
10
9.45512
20
-5.25669
11
9.49947
21
-5.23361
0
LINE
8
BLACK
6
CONTINUOUS
10
9.45512
20
-5.25669
11
9.49947
21
-5.27978
0
LINE
8
BLACK
6
CONTINUOUS
10
9.89409
20
-5.25669
11
9.84974
21
-5.23361
0
LINE
8
BLACK
6
CONTINUOUS
10
9.89409
20
-5.25669
11
9.84974
21
-5.27978
0
LINE
8
BLACK
6
CONTINUOUS
10
9.45512
20
-5.1565
11
9.45512
21
-4.50512
0
ARC
8
BLACK
10
9.60118
20
-1.8622
40
0.020703
50
-3.27049
51
86.7295
0
LINE
8
BLACK
6
CONTINUOUS
10
9.11126
20
-1.61702
11
9.08877
21
-1.61702
0
LINE
8
BLACK
6
CONTINUOUS
10
9.10001
20
-1.61702
11
9.10001
21
-1.57765
0
LINE
8
BLACK
6
CONTINUOUS
10
9.10001
20
-1.57765
11
9.09626
21
-1.58328
0
LINE
8
BLACK
6
CONTINUOUS
10
9.09626
20
-1.58328
11
9.09251
21
-1.58703
0
LINE
8
BLACK
6
CONTINUOUS
10
9.09251
20
-1.58703
11
9.08877
21
-1.5889
0
LINE
8
BLACK
6
CONTINUOUS
10
9.13376
20
-1.59453
11
9.13001
21
-1.59265
0
LINE
8
BLACK
6
CONTINUOUS
10
9.13001
20
-1.59265
11
9.12814
21
-1.59078
0
LINE
8
BLACK
6
CONTINUOUS
10
9.12814
20
-1.59078
11
9.12626
21
-1.58703
0
LINE
8
BLACK
6
CONTINUOUS
10
9.12626
20
-1.58703
11
9.12626
21
-1.58515
0
LINE
8
BLACK
6
CONTINUOUS
10
9.12626
20
-1.58515
11
9.12814
21
-1.5814
0
LINE
8
BLACK
6
CONTINUOUS
10
9.12814
20
-1.5814
11
9.13001
21
-1.57953
0
LINE
8
BLACK
6
CONTINUOUS
10
9.13001
20
-1.57953
11
9.13376
21
-1.57765
0
LINE
8
BLACK
6
CONTINUOUS
10
9.13376
20
-1.57765
11
9.14126
21
-1.57765
0
LINE
8
BLACK
6
CONTINUOUS
10
9.14126
20
-1.57765
11
9.14501
21
-1.57953
0
LINE
8
BLACK
6
CONTINUOUS
10
9.14501
20
-1.57953
11
9.14688
21
-1.5814
0
LINE
8
BLACK
6
CONTINUOUS
10
9.14688
20
-1.5814
11
9.14876
21
-1.58515
0
LINE
8
BLACK
6
CONTINUOUS
10
9.14876
20
-1.58515
11
9.14876
21
-1.58703
0
LINE
8
BLACK
6
CONTINUOUS
10
9.14876
20
-1.58703
11
9.14688
21
-1.59078
0
LINE
8
BLACK
6
CONTINUOUS
10
9.14688
20
-1.59078
11
9.14501
21
-1.59265
0
LINE
8
BLACK
6
CONTINUOUS
10
9.14501
20
-1.59265
11
9.14126
21
-1.59453
0
LINE
8
BLACK
6
CONTINUOUS
10
9.14126
20
-1.59453
11
9.13376
21
-1.59453
0
LINE
8
BLACK
6
CONTINUOUS
10
9.13376
20
-1.59453
11
9.13001
21
-1.5964
0
LINE
8
BLACK
6
CONTINUOUS
10
9.13001
20
-1.5964
11
9.12814
21
-1.59828
0
LINE
8
BLACK
6
CONTINUOUS
10
9.12814
20
-1.59828
11
9.12626
21
-1.60202
0
LINE
8
BLACK
6
CONTINUOUS
10
9.12626
20
-1.60202
11
9.12626
21
-1.60952
0
LINE
8
BLACK
6
CONTINUOUS
10
9.12626
20
-1.60952
11
9.12814
21
-1.61327
0
LINE
8
BLACK
6
CONTINUOUS
10
9.12814
20
-1.61327
11
9.13001
21
-1.61515
0
LINE
8
BLACK
6
CONTINUOUS
10
9.13001
20
-1.61515
11
9.13376
21
-1.61702
0
LINE
8
BLACK
6
CONTINUOUS
10
9.13376
20
-1.61702
11
9.14126
21
-1.61702
0
LINE
8
BLACK
6
CONTINUOUS
10
9.14126
20
-1.61702
11
9.14501
21
-1.61515
0
LINE
8
BLACK
6
CONTINUOUS
10
9.14501
20
-1.61515
11
9.14688
21
-1.61327
0
LINE
8
BLACK
6
CONTINUOUS
10
9.14688
20
-1.61327
11
9.14876
21
-1.60952
0
LINE
8
BLACK
6
CONTINUOUS
10
9.14876
20
-1.60952
11
9.14876
21
-1.60202
0
LINE
8
BLACK
6
CONTINUOUS
10
9.14876
20
-1.60202
11
9.14688
21
-1.59828
0
LINE
8
BLACK
6
CONTINUOUS
10
9.14688
20
-1.59828
11
9.14501
21
-1.5964
0
LINE
8
BLACK
6
CONTINUOUS
10
9.14501
20
-1.5964
11
9.14126
21
-1.59453
0
LINE
8
BLACK
6
CONTINUOUS
10
9.16563
20
-1.61327
11
9.16751
21
-1.61515
0
LINE
8
BLACK
6
CONTINUOUS
10
9.16751
20
-1.61515
11
9.16563
21
-1.61702
0
LINE
8
BLACK
6
CONTINUOUS
10
9.16563
20
-1.61702
11
9.16376
21
-1.61515
0
LINE
8
BLACK
6
CONTINUOUS
10
9.16376
20
-1.61515
11
9.16563
21
-1.61327
0
LINE
8
BLACK
6
CONTINUOUS
10
9.16563
20
-1.61327
11
9.16563
21
-1.61702
0
LINE
8
BLACK
6
CONTINUOUS
10
9.18063
20
-1.57765
11
9.20688
21
-1.57765
0
LINE
8
BLACK
6
CONTINUOUS
10
9.20688
20
-1.57765
11
9.19
21
-1.61702
0
LINE
8
BLACK
6
CONTINUOUS
10
9.22375
20
-1.61702
11
9.23125
21
-1.61702
0
LINE
8
BLACK
6
CONTINUOUS
10
9.23125
20
-1.61702
11
9.235
21
-1.61515
0
LINE
8
BLACK
6
CONTINUOUS
10
9.235
20
-1.61515
11
9.23687
21
-1.61327
0
LINE
8
BLACK
6
CONTINUOUS
10
9.23687
20
-1.61327
11
9.24062
21
-1.60765
0
LINE
8
BLACK
6
CONTINUOUS
10
9.24062
20
-1.60765
11
9.2425
21
-1.60015
0
LINE
8
BLACK
6
CONTINUOUS
10
9.2425
20
-1.60015
11
9.2425
21
-1.58515
0
LINE
8
BLACK
6
CONTINUOUS
10
9.2425
20
-1.58515
11
9.24062
21
-1.5814
0
LINE
8
BLACK
6
CONTINUOUS
10
9.24062
20
-1.5814
11
9.23875
21
-1.57953
0
LINE
8
BLACK
6
CONTINUOUS
10
9.23875
20
-1.57953
11
9.235
21
-1.57765
0
LINE
8
BLACK
6
CONTINUOUS
10
9.235
20
-1.57765
11
9.2275
21
-1.57765
0
LINE
8
BLACK
6
CONTINUOUS
10
9.2275
20
-1.57765
11
9.22375
21
-1.57953
0
LINE
8
BLACK
6
CONTINUOUS
10
9.22375
20
-1.57953
11
9.22187
21
-1.5814
0
LINE
8
BLACK
6
CONTINUOUS
10
9.22187
20
-1.5814
11
9.22
21
-1.58515
0
LINE
8
BLACK
6
CONTINUOUS
10
9.22
20
-1.58515
11
9.22
21
-1.59453
0
LINE
8
BLACK
6
CONTINUOUS
10
9.22
20
-1.59453
11
9.22187
21
-1.59828
0
LINE
8
BLACK
6
CONTINUOUS
10
9.22187
20
-1.59828
11
9.22375
21
-1.60015
0
LINE
8
BLACK
6
CONTINUOUS
10
9.22375
20
-1.60015
11
9.2275
21
-1.60202
0
LINE
8
BLACK
6
CONTINUOUS
10
9.2275
20
-1.60202
11
9.235
21
-1.60202
0
LINE
8
BLACK
6
CONTINUOUS
10
9.235
20
-1.60202
11
9.23875
21
-1.60015
0
LINE
8
BLACK
6
CONTINUOUS
10
9.23875
20
-1.60015
11
9.24062
21
-1.59828
0
LINE
8
BLACK
6
CONTINUOUS
10
9.24062
20
-1.59828
11
9.2425
21
-1.59453
0
LINE
8
BLACK
6
CONTINUOUS
10
9.27812
20
-1.57765
11
9.25937
21
-1.57765
0
LINE
8
BLACK
6
CONTINUOUS
10
9.25937
20
-1.57765
11
9.25749
21
-1.5964
0
LINE
8
BLACK
6
CONTINUOUS
10
9.25749
20
-1.5964
11
9.25937
21
-1.59453
0
LINE
8
BLACK
6
CONTINUOUS
10
9.25937
20
-1.59453
11
9.26312
21
-1.59265
0
LINE
8
BLACK
6
CONTINUOUS
10
9.26312
20
-1.59265
11
9.27249
21
-1.59265
0
LINE
8
BLACK
6
CONTINUOUS
10
9.27249
20
-1.59265
11
9.27624
21
-1.59453
0
LINE
8
BLACK
6
CONTINUOUS
10
9.27624
20
-1.59453
11
9.27812
21
-1.5964
0
LINE
8
BLACK
6
CONTINUOUS
10
9.27812
20
-1.5964
11
9.27999
21
-1.60015
0
LINE
8
BLACK
6
CONTINUOUS
10
9.27999
20
-1.60015
11
9.27999
21
-1.60952
0
LINE
8
BLACK
6
CONTINUOUS
10
9.27999
20
-1.60952
11
9.27812
21
-1.61327
0
LINE
8
BLACK
6
CONTINUOUS
10
9.27812
20
-1.61327
11
9.27624
21
-1.61515
0
LINE
8
BLACK
6
CONTINUOUS
10
9.27624
20
-1.61515
11
9.27249
21
-1.61702
0
LINE
8
BLACK
6
CONTINUOUS
10
9.27249
20
-1.61702
11
9.26312
21
-1.61702
0
LINE
8
BLACK
6
CONTINUOUS
10
9.26312
20
-1.61702
11
9.25937
21
-1.61515
0
LINE
8
BLACK
6
CONTINUOUS
10
9.25937
20
-1.61515
11
9.25749
21
-1.61327
0
LINE
8
BLACK
6
CONTINUOUS
10
9.32686
20
-1.61702
11
9.32686
21
-1.59078
0
LINE
8
BLACK
6
CONTINUOUS
10
9.32686
20
-1.59453
11
9.32874
21
-1.59265
0
LINE
8
BLACK
6
CONTINUOUS
10
9.32874
20
-1.59265
11
9.33249
21
-1.59078
0
LINE
8
BLACK
6
CONTINUOUS
10
9.33249
20
-1.59078
11
9.33811
21
-1.59078
0
LINE
8
BLACK
6
CONTINUOUS
10
9.33811
20
-1.59078
11
9.34186
21
-1.59265
0
LINE
8
BLACK
6
CONTINUOUS
10
9.34186
20
-1.59265
11
9.34373
21
-1.5964
0
LINE
8
BLACK
6
CONTINUOUS
10
9.34373
20
-1.5964
11
9.34373
21
-1.61702
0
LINE
8
BLACK
6
CONTINUOUS
10
9.34373
20
-1.5964
11
9.34561
21
-1.59265
0
LINE
8
BLACK
6
CONTINUOUS
10
9.34561
20
-1.59265
11
9.34936
21
-1.59078
0
LINE
8
BLACK
6
CONTINUOUS
10
9.34936
20
-1.59078
11
9.35498
21
-1.59078
0
LINE
8
BLACK
6
CONTINUOUS
10
9.35498
20
-1.59078
11
9.35873
21
-1.59265
0
LINE
8
BLACK
6
CONTINUOUS
10
9.35873
20
-1.59265
11
9.36061
21
-1.5964
0
LINE
8
BLACK
6
CONTINUOUS
10
9.36061
20
-1.5964
11
9.36061
21
-1.61702
0
LINE
8
BLACK
6
CONTINUOUS
10
9.37935
20
-1.61702
11
9.37935
21
-1.59078
0
LINE
8
BLACK
6
CONTINUOUS
10
9.37935
20
-1.59453
11
9.38123
21
-1.59265
0
LINE
8
BLACK
6
CONTINUOUS
10
9.38123
20
-1.59265
11
9.38498
21
-1.59078
0
LINE
8
BLACK
6
CONTINUOUS
10
9.38498
20
-1.59078
11
9.3906
21
-1.59078
0
LINE
8
BLACK
6
CONTINUOUS
10
9.3906
20
-1.59078
11
9.39435
21
-1.59265
0
LINE
8
BLACK
6
CONTINUOUS
10
9.39435
20
-1.59265
11
9.39623
21
-1.5964
0
LINE
8
BLACK
6
CONTINUOUS
10
9.39623
20
-1.5964
11
9.39623
21
-1.61702
0
LINE
8
BLACK
6
CONTINUOUS
10
9.39623
20
-1.5964
11
9.3981
21
-1.59265
0
LINE
8
BLACK
6
CONTINUOUS
10
9.3981
20
-1.59265
11
9.40185
21
-1.59078
0
LINE
8
BLACK
6
CONTINUOUS
10
9.40185
20
-1.59078
11
9.40748
21
-1.59078
0
LINE
8
BLACK
6
CONTINUOUS
10
9.40748
20
-1.59078
11
9.41123
21
-1.59265
0
LINE
8
BLACK
6
CONTINUOUS
10
9.41123
20
-1.59265
11
9.4131
21
-1.5964
0
LINE
8
BLACK
6
CONTINUOUS
10
9.4131
20
-1.5964
11
9.4131
21
-1.61702
0
LINE
8
BLACK
6
CONTINUOUS
10
9.62185
20
-1.65039
11
8.88189
21
-1.65039
0
LINE
8
BLACK
6
CONTINUOUS
10
9.62185
20
-1.66654
11
9.62185
21
-1.62731
0
LINE
8
BLACK
6
CONTINUOUS
10
8.88189
20
-1.66654
11
8.88189
21
-1.62731
0
LINE
8
BLACK
6
CONTINUOUS
10
8.88189
20
-1.65039
11
8.92624
21
-1.62731
0
LINE
8
BLACK
6
CONTINUOUS
10
8.88189
20
-1.65039
11
8.92624
21
-1.67348
0
LINE
8
BLACK
6
CONTINUOUS
10
9.62185
20
-1.65039
11
9.5775
21
-1.62731
0
LINE
8
BLACK
6
CONTINUOUS
10
9.62185
20
-1.65039
11
9.5775
21
-1.67348
0
LINE
8
BLACK
6
CONTINUOUS
10
8.90394
20
-1.84154
11
9.60236
21
-1.84154
0
ARC
8
BLACK
10
8.90276
20
-1.8622
40
0.020703
50
86.7295
51
176.73
0
LINE
8
BLACK
6
CONTINUOUS
10
8.88209
20
-4.46142
11
8.88209
21
-1.86102
0
LINE
8
BLACK
6
CONTINUOUS
10
9.43563
20
-4.48327
11
8.90157
21
-4.48327
0
ARC
8
BLACK
10
8.90276
20
-4.4626
40
0.020703
50
-183.27
51
-93.2705
0
LINE
8
BLACK
6
CONTINUOUS
10
9.96693
20
-1.84154
11
10.6654
21
-1.84154
0
LINE
8
BLACK
6
CONTINUOUS
10
10.6848
20
-1.86339
11
10.6848
21
-3.96457
0
LINE
8
BLACK
6
CONTINUOUS
10
8.59295
20
-3.66545
11
8.59108
21
-3.6692
0
LINE
8
BLACK
6
CONTINUOUS
10
8.59108
20
-3.6692
11
8.5892
21
-3.67107
0
LINE
8
BLACK
6
CONTINUOUS
10
8.5892
20
-3.67107
11
8.58545
21
-3.67295
0
LINE
8
BLACK
6
CONTINUOUS
10
8.58545
20
-3.67295
11
8.58358
21
-3.67295
0
LINE
8
BLACK
6
CONTINUOUS
10
8.58358
20
-3.67295
11
8.57983
21
-3.67107
0
LINE
8
BLACK
6
CONTINUOUS
10
8.57983
20
-3.67107
11
8.57795
21
-3.6692
0
LINE
8
BLACK
6
CONTINUOUS
10
8.57795
20
-3.6692
11
8.57608
21
-3.66545
0
LINE
8
BLACK
6
CONTINUOUS
10
8.57608
20
-3.66545
11
8.57608
21
-3.65795
0
LINE
8
BLACK
6
CONTINUOUS
10
8.57608
20
-3.65795
11
8.57795
21
-3.6542
0
LINE
8
BLACK
6
CONTINUOUS
10
8.57795
20
-3.6542
11
8.57983
21
-3.65232
0
LINE
8
BLACK
6
CONTINUOUS
10
8.57983
20
-3.65232
11
8.58358
21
-3.65045
0
LINE
8
BLACK
6
CONTINUOUS
10
8.58358
20
-3.65045
11
8.58545
21
-3.65045
0
LINE
8
BLACK
6
CONTINUOUS
10
8.58545
20
-3.65045
11
8.5892
21
-3.65232
0
LINE
8
BLACK
6
CONTINUOUS
10
8.5892
20
-3.65232
11
8.59108
21
-3.6542
0
LINE
8
BLACK
6
CONTINUOUS
10
8.59108
20
-3.6542
11
8.59295
21
-3.65795
0
LINE
8
BLACK
6
CONTINUOUS
10
8.59295
20
-3.65795
11
8.59295
21
-3.66545
0
LINE
8
BLACK
6
CONTINUOUS
10
8.59295
20
-3.66545
11
8.59483
21
-3.6692
0
LINE
8
BLACK
6
CONTINUOUS
10
8.59483
20
-3.6692
11
8.5967
21
-3.67107
0
LINE
8
BLACK
6
CONTINUOUS
10
8.5967
20
-3.67107
11
8.60045
21
-3.67295
0
LINE
8
BLACK
6
CONTINUOUS
10
8.60045
20
-3.67295
11
8.60795
21
-3.67295
0
LINE
8
BLACK
6
CONTINUOUS
10
8.60795
20
-3.67295
11
8.6117
21
-3.67107
0
LINE
8
BLACK
6
CONTINUOUS
10
8.6117
20
-3.67107
11
8.61357
21
-3.6692
0
LINE
8
BLACK
6
CONTINUOUS
10
8.61357
20
-3.6692
11
8.61545
21
-3.66545
0
LINE
8
BLACK
6
CONTINUOUS
10
8.61545
20
-3.66545
11
8.61545
21
-3.65795
0
LINE
8
BLACK
6
CONTINUOUS
10
8.61545
20
-3.65795
11
8.61357
21
-3.6542
0
LINE
8
BLACK
6
CONTINUOUS
10
8.61357
20
-3.6542
11
8.6117
21
-3.65232
0
LINE
8
BLACK
6
CONTINUOUS
10
8.6117
20
-3.65232
11
8.60795
21
-3.65045
0
LINE
8
BLACK
6
CONTINUOUS
10
8.60795
20
-3.65045
11
8.60045
21
-3.65045
0
LINE
8
BLACK
6
CONTINUOUS
10
8.60045
20
-3.65045
11
8.5967
21
-3.65232
0
LINE
8
BLACK
6
CONTINUOUS
10
8.5967
20
-3.65232
11
8.59483
21
-3.6542
0
LINE
8
BLACK
6
CONTINUOUS
10
8.59483
20
-3.6542
11
8.59295
21
-3.65795
0
LINE
8
BLACK
6
CONTINUOUS
10
8.5892
20
-3.6167
11
8.61545
21
-3.6167
0
LINE
8
BLACK
6
CONTINUOUS
10
8.5742
20
-3.62608
11
8.60232
21
-3.63545
0
LINE
8
BLACK
6
CONTINUOUS
10
8.60232
20
-3.63545
11
8.60232
21
-3.61108
0
LINE
8
BLACK
6
CONTINUOUS
10
8.6117
20
-3.59608
11
8.61357
21
-3.59421
0
LINE
8
BLACK
6
CONTINUOUS
10
8.61357
20
-3.59421
11
8.61545
21
-3.59608
0
LINE
8
BLACK
6
CONTINUOUS
10
8.61545
20
-3.59608
11
8.61357
21
-3.59796
0
LINE
8
BLACK
6
CONTINUOUS
10
8.61357
20
-3.59796
11
8.6117
21
-3.59608
0
LINE
8
BLACK
6
CONTINUOUS
10
8.6117
20
-3.59608
11
8.61545
21
-3.59608
0
LINE
8
BLACK
6
CONTINUOUS
10
8.57608
20
-3.58108
11
8.57608
21
-3.55484
0
LINE
8
BLACK
6
CONTINUOUS
10
8.57608
20
-3.55484
11
8.61545
21
-3.57171
0
LINE
8
BLACK
6
CONTINUOUS
10
8.57608
20
-3.52297
11
8.57608
21
-3.53046
0
LINE
8
BLACK
6
CONTINUOUS
10
8.57608
20
-3.53046
11
8.57795
21
-3.53421
0
LINE
8
BLACK
6
CONTINUOUS
10
8.57795
20
-3.53421
11
8.57983
21
-3.53609
0
LINE
8
BLACK
6
CONTINUOUS
10
8.57983
20
-3.53609
11
8.58545
21
-3.53984
0
LINE
8
BLACK
6
CONTINUOUS
10
8.58545
20
-3.53984
11
8.59295
21
-3.54171
0
LINE
8
BLACK
6
CONTINUOUS
10
8.59295
20
-3.54171
11
8.60795
21
-3.54171
0
LINE
8
BLACK
6
CONTINUOUS
10
8.60795
20
-3.54171
11
8.6117
21
-3.53984
0
LINE
8
BLACK
6
CONTINUOUS
10
8.6117
20
-3.53984
11
8.61357
21
-3.53796
0
LINE
8
BLACK
6
CONTINUOUS
10
8.61357
20
-3.53796
11
8.61545
21
-3.53421
0
LINE
8
BLACK
6
CONTINUOUS
10
8.61545
20
-3.53421
11
8.61545
21
-3.52672
0
LINE
8
BLACK
6
CONTINUOUS
10
8.61545
20
-3.52672
11
8.61357
21
-3.52297
0
LINE
8
BLACK
6
CONTINUOUS
10
8.61357
20
-3.52297
11
8.6117
21
-3.52109
0
LINE
8
BLACK
6
CONTINUOUS
10
8.6117
20
-3.52109
11
8.60795
21
-3.51922
0
LINE
8
BLACK
6
CONTINUOUS
10
8.60795
20
-3.51922
11
8.59858
21
-3.51922
0
LINE
8
BLACK
6
CONTINUOUS
10
8.59858
20
-3.51922
11
8.59483
21
-3.52109
0
LINE
8
BLACK
6
CONTINUOUS
10
8.59483
20
-3.52109
11
8.59295
21
-3.52297
0
LINE
8
BLACK
6
CONTINUOUS
10
8.59295
20
-3.52297
11
8.59108
21
-3.52672
0
LINE
8
BLACK
6
CONTINUOUS
10
8.59108
20
-3.52672
11
8.59108
21
-3.53421
0
LINE
8
BLACK
6
CONTINUOUS
10
8.59108
20
-3.53421
11
8.59295
21
-3.53796
0
LINE
8
BLACK
6
CONTINUOUS
10
8.59295
20
-3.53796
11
8.59483
21
-3.53984
0
LINE
8
BLACK
6
CONTINUOUS
10
8.59483
20
-3.53984
11
8.59858
21
-3.54171
0
LINE
8
BLACK
6
CONTINUOUS
10
8.57608
20
-3.49484
11
8.57608
21
-3.49109
0
LINE
8
BLACK
6
CONTINUOUS
10
8.57608
20
-3.49109
11
8.57795
21
-3.48735
0
LINE
8
BLACK
6
CONTINUOUS
10
8.57795
20
-3.48735
11
8.57983
21
-3.48547
0
LINE
8
BLACK
6
CONTINUOUS
10
8.57983
20
-3.48547
11
8.58358
21
-3.4836
0
LINE
8
BLACK
6
CONTINUOUS
10
8.58358
20
-3.4836
11
8.59108
21
-3.48172
0
LINE
8
BLACK
6
CONTINUOUS
10
8.59108
20
-3.48172
11
8.60045
21
-3.48172
0
LINE
8
BLACK
6
CONTINUOUS
10
8.60045
20
-3.48172
11
8.60795
21
-3.4836
0
LINE
8
BLACK
6
CONTINUOUS
10
8.60795
20
-3.4836
11
8.6117
21
-3.48547
0
LINE
8
BLACK
6
CONTINUOUS
10
8.6117
20
-3.48547
11
8.61357
21
-3.48735
0
LINE
8
BLACK
6
CONTINUOUS
10
8.61357
20
-3.48735
11
8.61545
21
-3.49109
0
LINE
8
BLACK
6
CONTINUOUS
10
8.61545
20
-3.49109
11
8.61545
21
-3.49484
0
LINE
8
BLACK
6
CONTINUOUS
10
8.61545
20
-3.49484
11
8.61357
21
-3.49859
0
LINE
8
BLACK
6
CONTINUOUS
10
8.61357
20
-3.49859
11
8.6117
21
-3.50047
0
LINE
8
BLACK
6
CONTINUOUS
10
8.6117
20
-3.50047
11
8.60795
21
-3.50234
0
LINE
8
BLACK
6
CONTINUOUS
10
8.60795
20
-3.50234
11
8.60045
21
-3.50422
0
LINE
8
BLACK
6
CONTINUOUS
10
8.60045
20
-3.50422
11
8.59108
21
-3.50422
0
LINE
8
BLACK
6
CONTINUOUS
10
8.59108
20
-3.50422
11
8.58358
21
-3.50234
0
LINE
8
BLACK
6
CONTINUOUS
10
8.58358
20
-3.50234
11
8.57983
21
-3.50047
0
LINE
8
BLACK
6
CONTINUOUS
10
8.57983
20
-3.50047
11
8.57795
21
-3.49859
0
LINE
8
BLACK
6
CONTINUOUS
10
8.57795
20
-3.49859
11
8.57608
21
-3.49484
0
LINE
8
BLACK
6
CONTINUOUS
10
8.61545
20
-3.43485
11
8.5892
21
-3.43485
0
LINE
8
BLACK
6
CONTINUOUS
10
8.59295
20
-3.43485
11
8.59108
21
-3.43298
0
LINE
8
BLACK
6
CONTINUOUS
10
8.59108
20
-3.43298
11
8.5892
21
-3.42923
0
LINE
8
BLACK
6
CONTINUOUS
10
8.5892
20
-3.42923
11
8.5892
21
-3.4236
0
LINE
8
BLACK
6
CONTINUOUS
10
8.5892
20
-3.4236
11
8.59108
21
-3.41985
0
LINE
8
BLACK
6
CONTINUOUS
10
8.59108
20
-3.41985
11
8.59483
21
-3.41798
0
LINE
8
BLACK
6
CONTINUOUS
10
8.59483
20
-3.41798
11
8.61545
21
-3.41798
0
LINE
8
BLACK
6
CONTINUOUS
10
8.59483
20
-3.41798
11
8.59108
21
-3.4161
0
LINE
8
BLACK
6
CONTINUOUS
10
8.59108
20
-3.4161
11
8.5892
21
-3.41235
0
LINE
8
BLACK
6
CONTINUOUS
10
8.5892
20
-3.41235
11
8.5892
21
-3.40673
0
LINE
8
BLACK
6
CONTINUOUS
10
8.5892
20
-3.40673
11
8.59108
21
-3.40298
0
LINE
8
BLACK
6
CONTINUOUS
10
8.59108
20
-3.40298
11
8.59483
21
-3.40111
0
LINE
8
BLACK
6
CONTINUOUS
10
8.59483
20
-3.40111
11
8.61545
21
-3.40111
0
LINE
8
BLACK
6
CONTINUOUS
10
8.61545
20
-3.38236
11
8.5892
21
-3.38236
0
LINE
8
BLACK
6
CONTINUOUS
10
8.59295
20
-3.38236
11
8.59108
21
-3.38048
0
LINE
8
BLACK
6
CONTINUOUS
10
8.59108
20
-3.38048
11
8.5892
21
-3.37673
0
LINE
8
BLACK
6
CONTINUOUS
10
8.5892
20
-3.37673
11
8.5892
21
-3.37111
0
LINE
8
BLACK
6
CONTINUOUS
10
8.5892
20
-3.37111
11
8.59108
21
-3.36736
0
LINE
8
BLACK
6
CONTINUOUS
10
8.59108
20
-3.36736
11
8.59483
21
-3.36549
0
LINE
8
BLACK
6
CONTINUOUS
10
8.59483
20
-3.36549
11
8.61545
21
-3.36549
0
LINE
8
BLACK
6
CONTINUOUS
10
8.59483
20
-3.36549
11
8.59108
21
-3.36361
0
LINE
8
BLACK
6
CONTINUOUS
10
8.59108
20
-3.36361
11
8.5892
21
-3.35986
0
LINE
8
BLACK
6
CONTINUOUS
10
8.5892
20
-3.35986
11
8.5892
21
-3.35424
0
LINE
8
BLACK
6
CONTINUOUS
10
8.5892
20
-3.35424
11
8.59108
21
-3.35049
0
LINE
8
BLACK
6
CONTINUOUS
10
8.59108
20
-3.35049
11
8.59483
21
-3.34861
0
LINE
8
BLACK
6
CONTINUOUS
10
8.59483
20
-3.34861
11
8.61545
21
-3.34861
0
LINE
8
BLACK
6
CONTINUOUS
10
8.64882
20
-5.17835
11
8.64882
21
-1.84134
0
LINE
8
BLACK
6
CONTINUOUS
10
8.80531
20
-5.17835
11
8.62573
21
-5.17835
0
LINE
8
BLACK
6
CONTINUOUS
10
8.80531
20
-1.84134
11
8.62573
21
-1.84134
0
LINE
8
BLACK
6
CONTINUOUS
10
8.64882
20
-1.84134
11
8.67191
21
-1.88569
0
LINE
8
BLACK
6
CONTINUOUS
10
8.64882
20
-1.84134
11
8.62573
21
-1.88569
0
LINE
8
BLACK
6
CONTINUOUS
10
8.64882
20
-5.17835
11
8.67191
21
-5.134
0
LINE
8
BLACK
6
CONTINUOUS
10
8.64882
20
-5.17835
11
8.62573
21
-5.134
0
ARC
8
BLACK
10
10.6642
20
-1.8622
40
0.020703
50
-3.27049
51
86.7295
0
LINE
8
BLACK
6
CONTINUOUS
10
10.4573
20
-4.27445
11
10.4616
21
-4.27532
0
LINE
8
BLACK
6
CONTINUOUS
10
10.4616
20
-4.27532
11
10.4699
21
-4.27874
0
LINE
8
BLACK
6
CONTINUOUS
10
10.4699
20
-4.27874
11
10.4773
21
-4.2837
0
LINE
8
BLACK
6
CONTINUOUS
10
10.4773
20
-4.2837
11
10.4836
21
-4.29001
0
LINE
8
BLACK
6
CONTINUOUS
10
10.4836
20
-4.29001
11
10.4886
21
-4.29743
0
LINE
8
BLACK
6
CONTINUOUS
10
10.4886
20
-4.29743
11
10.492
21
-4.30568
0
LINE
8
BLACK
6
CONTINUOUS
10
10.492
20
-4.30568
11
10.4937
21
-4.31443
0
LINE
8
BLACK
6
CONTINUOUS
10
10.4937
20
-4.31443
11
10.4937
21
-4.32336
0
LINE
8
BLACK
6
CONTINUOUS
10
10.4937
20
-4.32336
11
10.492
21
-4.33212
0
LINE
8
BLACK
6
CONTINUOUS
10
10.492
20
-4.33212
11
10.4886
21
-4.34036
0
LINE
8
BLACK
6
CONTINUOUS
10
10.4886
20
-4.34036
11
10.4836
21
-4.34778
0
LINE
8
BLACK
6
CONTINUOUS
10
10.4836
20
-4.34778
11
10.4773
21
-4.3541
0
LINE
8
BLACK
6
CONTINUOUS
10
10.4773
20
-4.3541
11
10.4699
21
-4.35906
0
LINE
8
BLACK
6
CONTINUOUS
10
10.4699
20
-4.35906
11
10.4616
21
-4.36247
0
LINE
8
BLACK
6
CONTINUOUS
10
10.4616
20
-4.36247
11
10.4573
21
-4.36334
0
LINE
8
BLACK
6
CONTINUOUS
10
10.4573
20
-4.36334
11
10.4529
21
-4.36421
0
LINE
8
BLACK
6
CONTINUOUS
10
10.4529
20
-4.36421
11
10.444
21
-4.36421
0
LINE
8
BLACK
6
CONTINUOUS
10
10.444
20
-4.36421
11
10.4396
21
-4.36334
0
LINE
8
BLACK
6
CONTINUOUS
10
10.4396
20
-4.36334
11
10.4352
21
-4.36247
0
LINE
8
BLACK
6
CONTINUOUS
10
10.4352
20
-4.36247
11
10.427
21
-4.35906
0
LINE
8
BLACK
6
CONTINUOUS
10
10.427
20
-4.35906
11
10.4195
21
-4.3541
0
LINE
8
BLACK
6
CONTINUOUS
10
10.4195
20
-4.3541
11
10.4132
21
-4.34778
0
LINE
8
BLACK
6
CONTINUOUS
10
10.4132
20
-4.34778
11
10.4083
21
-4.34036
0
LINE
8
BLACK
6
CONTINUOUS
10
10.4083
20
-4.34036
11
10.4049
21
-4.33212
0
LINE
8
BLACK
6
CONTINUOUS
10
10.4049
20
-4.33212
11
10.4031
21
-4.32336
0
LINE
8
BLACK
6
CONTINUOUS
10
10.4031
20
-4.32336
11
10.4031
21
-4.31443
0
LINE
8
BLACK
6
CONTINUOUS
10
10.4031
20
-4.31443
11
10.4049
21
-4.30568
0
LINE
8
BLACK
6
CONTINUOUS
10
10.4049
20
-4.30568
11
10.4083
21
-4.29743
0
LINE
8
BLACK
6
CONTINUOUS
10
10.4083
20
-4.29743
11
10.4132
21
-4.29001
0
LINE
8
BLACK
6
CONTINUOUS
10
10.4132
20
-4.29001
11
10.4195
21
-4.2837
0
LINE
8
BLACK
6
CONTINUOUS
10
10.4195
20
-4.2837
11
10.427
21
-4.27874
0
LINE
8
BLACK
6
CONTINUOUS
10
10.427
20
-4.27874
11
10.4352
21
-4.27532
0
LINE
8
BLACK
6
CONTINUOUS
10
10.4352
20
-4.27532
11
10.4396
21
-4.27445
0
LINE
8
BLACK
6
CONTINUOUS
10
10.4396
20
-4.27445
11
10.444
21
-4.27358
0
LINE
8
BLACK
6
CONTINUOUS
10
10.444
20
-4.27358
11
10.4529
21
-4.27358
0
LINE
8
BLACK
6
CONTINUOUS
10
10.4529
20
-4.27358
11
10.4573
21
-4.27445
0
LINE
8
BLACK
6
CONTINUOUS
10
9.39427
20
-4.27445
11
9.39865
21
-4.27532
0
LINE
8
BLACK
6
CONTINUOUS
10
9.39865
20
-4.27532
11
9.4069
21
-4.27874
0
LINE
8
BLACK
6
CONTINUOUS
10
9.4069
20
-4.27874
11
9.41432
21
-4.2837
0
LINE
8
BLACK
6
CONTINUOUS
10
9.41432
20
-4.2837
11
9.42063
21
-4.29001
0
LINE
8
BLACK
6
CONTINUOUS
10
9.42063
20
-4.29001
11
9.42559
21
-4.29743
0
LINE
8
BLACK
6
CONTINUOUS
10
9.42559
20
-4.29743
11
9.42901
21
-4.30568
0
LINE
8
BLACK
6
CONTINUOUS
10
9.42901
20
-4.30568
11
9.43075
21
-4.31443
0
LINE
8
BLACK
6
CONTINUOUS
10
9.43075
20
-4.31443
11
9.43075
21
-4.32336
0
LINE
8
BLACK
6
CONTINUOUS
10
9.43075
20
-4.32336
11
9.42901
21
-4.33212
0
LINE
8
BLACK
6
CONTINUOUS
10
9.42901
20
-4.33212
11
9.42559
21
-4.34036
0
LINE
8
BLACK
6
CONTINUOUS
10
9.42559
20
-4.34036
11
9.42063
21
-4.34778
0
LINE
8
BLACK
6
CONTINUOUS
10
9.42063
20
-4.34778
11
9.41432
21
-4.3541
0
LINE
8
BLACK
6
CONTINUOUS
10
9.41432
20
-4.3541
11
9.4069
21
-4.35906
0
LINE
8
BLACK
6
CONTINUOUS
10
9.4069
20
-4.35906
11
9.39865
21
-4.36247
0
LINE
8
BLACK
6
CONTINUOUS
10
9.39865
20
-4.36247
11
9.39427
21
-4.36334
0
LINE
8
BLACK
6
CONTINUOUS
10
9.39427
20
-4.36334
11
9.3899
21
-4.36421
0
LINE
8
BLACK
6
CONTINUOUS
10
9.3899
20
-4.36421
11
9.38097
21
-4.36421
0
LINE
8
BLACK
6
CONTINUOUS
10
9.38097
20
-4.36421
11
9.37659
21
-4.36334
0
LINE
8
BLACK
6
CONTINUOUS
10
9.37659
20
-4.36334
11
9.37222
21
-4.36247
0
LINE
8
BLACK
6
CONTINUOUS
10
9.37222
20
-4.36247
11
9.36397
21
-4.35906
0
LINE
8
BLACK
6
CONTINUOUS
10
9.36397
20
-4.35906
11
9.35655
21
-4.3541
0
LINE
8
BLACK
6
CONTINUOUS
10
9.35655
20
-4.3541
11
9.35023
21
-4.34778
0
LINE
8
BLACK
6
CONTINUOUS
10
9.35023
20
-4.34778
11
9.34528
21
-4.34036
0
LINE
8
BLACK
6
CONTINUOUS
10
9.34528
20
-4.34036
11
9.34186
21
-4.33212
0
LINE
8
BLACK
6
CONTINUOUS
10
9.34186
20
-4.33212
11
9.34012
21
-4.32336
0
LINE
8
BLACK
6
CONTINUOUS
10
9.34012
20
-4.32336
11
9.34012
21
-4.31443
0
LINE
8
BLACK
6
CONTINUOUS
10
9.34012
20
-4.31443
11
9.34186
21
-4.30568
0
LINE
8
BLACK
6
CONTINUOUS
10
9.34186
20
-4.30568
11
9.34528
21
-4.29743
0
LINE
8
BLACK
6
CONTINUOUS
10
9.34528
20
-4.29743
11
9.35023
21
-4.29001
0
LINE
8
BLACK
6
CONTINUOUS
10
9.35023
20
-4.29001
11
9.35655
21
-4.2837
0
LINE
8
BLACK
6
CONTINUOUS
10
9.35655
20
-4.2837
11
9.36397
21
-4.27874
0
LINE
8
BLACK
6
CONTINUOUS
10
9.36397
20
-4.27874
11
9.37222
21
-4.27532
0
LINE
8
BLACK
6
CONTINUOUS
10
9.37222
20
-4.27532
11
9.37659
21
-4.27445
0
LINE
8
BLACK
6
CONTINUOUS
10
9.37659
20
-4.27445
11
9.38097
21
-4.27358
0
LINE
8
BLACK
6
CONTINUOUS
10
9.38097
20
-4.27358
11
9.3899
21
-4.27358
0
LINE
8
BLACK
6
CONTINUOUS
10
9.3899
20
-4.27358
11
9.39427
21
-4.27445
0
LINE
8
BLACK
6
CONTINUOUS
10
10.5992
20
-3.51579
11
10.6036
21
-3.51666
0
LINE
8
BLACK
6
CONTINUOUS
10
10.6036
20
-3.51666
11
10.6118
21
-3.52008
0
LINE
8
BLACK
6
CONTINUOUS
10
10.6118
20
-3.52008
11
10.6192
21
-3.52504
0
LINE
8
BLACK
6
CONTINUOUS
10
10.6192
20
-3.52504
11
10.6256
21
-3.53135
0
LINE
8
BLACK
6
CONTINUOUS
10
10.6256
20
-3.53135
11
10.6305
21
-3.53877
0
LINE
8
BLACK
6
CONTINUOUS
10
10.6305
20
-3.53877
11
10.6339
21
-3.54702
0
LINE
8
BLACK
6
CONTINUOUS
10
10.6339
20
-3.54702
11
10.6357
21
-3.55577
0
LINE
8
BLACK
6
CONTINUOUS
10
10.6357
20
-3.55577
11
10.6357
21
-3.5647
0
LINE
8
BLACK
6
CONTINUOUS
10
10.6357
20
-3.5647
11
10.6339
21
-3.57345
0
LINE
8
BLACK
6
CONTINUOUS
10
10.6339
20
-3.57345
11
10.6305
21
-3.5817
0
LINE
8
BLACK
6
CONTINUOUS
10
10.6305
20
-3.5817
11
10.6256
21
-3.58912
0
LINE
8
BLACK
6
CONTINUOUS
10
10.6256
20
-3.58912
11
10.6192
21
-3.59543
0
LINE
8
BLACK
6
CONTINUOUS
10
10.6192
20
-3.59543
11
10.6118
21
-3.60039
0
LINE
8
BLACK
6
CONTINUOUS
10
10.6118
20
-3.60039
11
10.6036
21
-3.60381
0
LINE
8
BLACK
6
CONTINUOUS
10
10.6036
20
-3.60381
11
10.5992
21
-3.60468
0
LINE
8
BLACK
6
CONTINUOUS
10
10.5992
20
-3.60468
11
10.5948
21
-3.60555
0
LINE
8
BLACK
6
CONTINUOUS
10
10.5948
20
-3.60555
11
10.5859
21
-3.60555
0
LINE
8
BLACK
6
CONTINUOUS
10
10.5859
20
-3.60555
11
10.5815
21
-3.60468
0
LINE
8
BLACK
6
CONTINUOUS
10
10.5815
20
-3.60468
11
10.5771
21
-3.60381
0
LINE
8
BLACK
6
CONTINUOUS
10
10.5771
20
-3.60381
11
10.5689
21
-3.60039
0
LINE
8
BLACK
6
CONTINUOUS
10
10.5689
20
-3.60039
11
10.5615
21
-3.59543
0
LINE
8
BLACK
6
CONTINUOUS
10
10.5615
20
-3.59543
11
10.5552
21
-3.58912
0
LINE
8
BLACK
6
CONTINUOUS
10
10.5552
20
-3.58912
11
10.5502
21
-3.5817
0
LINE
8
BLACK
6
CONTINUOUS
10
10.5502
20
-3.5817
11
10.5468
21
-3.57345
0
LINE
8
BLACK
6
CONTINUOUS
10
10.5468
20
-3.57345
11
10.545
21
-3.5647
0
LINE
8
BLACK
6
CONTINUOUS
10
10.545
20
-3.5647
11
10.545
21
-3.55577
0
LINE
8
BLACK
6
CONTINUOUS
10
10.545
20
-3.55577
11
10.5468
21
-3.54702
0
LINE
8
BLACK
6
CONTINUOUS
10
10.5468
20
-3.54702
11
10.5502
21
-3.53877
0
LINE
8
BLACK
6
CONTINUOUS
10
10.5502
20
-3.53877
11
10.5552
21
-3.53135
0
LINE
8
BLACK
6
CONTINUOUS
10
10.5552
20
-3.53135
11
10.5615
21
-3.52504
0
LINE
8
BLACK
6
CONTINUOUS
10
10.5615
20
-3.52504
11
10.5689
21
-3.52008
0
LINE
8
BLACK
6
CONTINUOUS
10
10.5689
20
-3.52008
11
10.5771
21
-3.51666
0
LINE
8
BLACK
6
CONTINUOUS
10
10.5771
20
-3.51666
11
10.5815
21
-3.51579
0
LINE
8
BLACK
6
CONTINUOUS
10
10.5815
20
-3.51579
11
10.5859
21
-3.51492
0
LINE
8
BLACK
6
CONTINUOUS
10
10.5859
20
-3.51492
11
10.5948
21
-3.51492
0
LINE
8
BLACK
6
CONTINUOUS
10
10.5948
20
-3.51492
11
10.5992
21
-3.51579
0
LINE
8
BLACK
6
CONTINUOUS
10
10.0874
20
-3.51579
11
10.0918
21
-3.51666
0
LINE
8
BLACK
6
CONTINUOUS
10
10.0918
20
-3.51666
11
10.1
21
-3.52008
0
LINE
8
BLACK
6
CONTINUOUS
10
10.1
20
-3.52008
11
10.1074
21
-3.52504
0
LINE
8
BLACK
6
CONTINUOUS
10
10.1074
20
-3.52504
11
10.1137
21
-3.53135
0
LINE
8
BLACK
6
CONTINUOUS
10
10.1137
20
-3.53135
11
10.1187
21
-3.53877
0
LINE
8
BLACK
6
CONTINUOUS
10
10.1187
20
-3.53877
11
10.1221
21
-3.54702
0
LINE
8
BLACK
6
CONTINUOUS
10
10.1221
20
-3.54702
11
10.1239
21
-3.55577
0
LINE
8
BLACK
6
CONTINUOUS
10
10.1239
20
-3.55577
11
10.1239
21
-3.5647
0
LINE
8
BLACK
6
CONTINUOUS
10
10.1239
20
-3.5647
11
10.1221
21
-3.57345
0
LINE
8
BLACK
6
CONTINUOUS
10
10.1221
20
-3.57345
11
10.1187
21
-3.5817
0
LINE
8
BLACK
6
CONTINUOUS
10
10.1187
20
-3.5817
11
10.1137
21
-3.58912
0
LINE
8
BLACK
6
CONTINUOUS
10
10.1137
20
-3.58912
11
10.1074
21
-3.59543
0
LINE
8
BLACK
6
CONTINUOUS
10
10.1074
20
-3.59543
11
10.1
21
-3.60039
0
LINE
8
BLACK
6
CONTINUOUS
10
10.1
20
-3.60039
11
10.0918
21
-3.60381
0
LINE
8
BLACK
6
CONTINUOUS
10
10.0918
20
-3.60381
11
10.0874
21
-3.60468
0
LINE
8
BLACK
6
CONTINUOUS
10
10.0874
20
-3.60468
11
10.083
21
-3.60555
0
LINE
8
BLACK
6
CONTINUOUS
10
10.083
20
-3.60555
11
10.0741
21
-3.60555
0
LINE
8
BLACK
6
CONTINUOUS
10
10.0741
20
-3.60555
11
10.0697
21
-3.60468
0
LINE
8
BLACK
6
CONTINUOUS
10
10.0697
20
-3.60468
11
10.0653
21
-3.60381
0
LINE
8
BLACK
6
CONTINUOUS
10
10.0653
20
-3.60381
11
10.0571
21
-3.60039
0
LINE
8
BLACK
6
CONTINUOUS
10
10.0571
20
-3.60039
11
10.0497
21
-3.59543
0
LINE
8
BLACK
6
CONTINUOUS
10
10.0497
20
-3.59543
11
10.0433
21
-3.58912
0
LINE
8
BLACK
6
CONTINUOUS
10
10.0433
20
-3.58912
11
10.0384
21
-3.5817
0
LINE
8
BLACK
6
CONTINUOUS
10
10.0384
20
-3.5817
11
10.035
21
-3.57345
0
LINE
8
BLACK
6
CONTINUOUS
10
10.035
20
-3.57345
11
10.0332
21
-3.5647
0
LINE
8
BLACK
6
CONTINUOUS
10
10.0332
20
-3.5647
11
10.0332
21
-3.55577
0
LINE
8
BLACK
6
CONTINUOUS
10
10.0332
20
-3.55577
11
10.035
21
-3.54702
0
LINE
8
BLACK
6
CONTINUOUS
10
10.035
20
-3.54702
11
10.0384
21
-3.53877
0
LINE
8
BLACK
6
CONTINUOUS
10
10.0384
20
-3.53877
11
10.0433
21
-3.53135
0
LINE
8
BLACK
6
CONTINUOUS
10
10.0433
20
-3.53135
11
10.0497
21
-3.52504
0
LINE
8
BLACK
6
CONTINUOUS
10
10.0497
20
-3.52504
11
10.0571
21
-3.52008
0
LINE
8
BLACK
6
CONTINUOUS
10
10.0571
20
-3.52008
11
10.0653
21
-3.51666
0
LINE
8
BLACK
6
CONTINUOUS
10
10.0653
20
-3.51666
11
10.0697
21
-3.51579
0
LINE
8
BLACK
6
CONTINUOUS
10
10.0697
20
-3.51579
11
10.0741
21
-3.51492
0
LINE
8
BLACK
6
CONTINUOUS
10
10.0741
20
-3.51492
11
10.083
21
-3.51492
0
LINE
8
BLACK
6
CONTINUOUS
10
10.083
20
-3.51492
11
10.0874
21
-3.51579
0
LINE
8
BLACK
6
CONTINUOUS
10
9.5362
20
-3.51579
11
9.54058
21
-3.51666
0
LINE
8
BLACK
6
CONTINUOUS
10
9.54058
20
-3.51666
11
9.54883
21
-3.52008
0
LINE
8
BLACK
6
CONTINUOUS
10
9.54883
20
-3.52008
11
9.55625
21
-3.52504
0
LINE
8
BLACK
6
CONTINUOUS
10
9.55625
20
-3.52504
11
9.56256
21
-3.53135
0
LINE
8
BLACK
6
CONTINUOUS
10
9.56256
20
-3.53135
11
9.56752
21
-3.53877
0
LINE
8
BLACK
6
CONTINUOUS
10
9.56752
20
-3.53877
11
9.57094
21
-3.54702
0
LINE
8
BLACK
6
CONTINUOUS
10
9.57094
20
-3.54702
11
9.57268
21
-3.55577
0
LINE
8
BLACK
6
CONTINUOUS
10
9.57268
20
-3.55577
11
9.57268
21
-3.5647
0
LINE
8
BLACK
6
CONTINUOUS
10
9.57268
20
-3.5647
11
9.57094
21
-3.57345
0
LINE
8
BLACK
6
CONTINUOUS
10
9.57094
20
-3.57345
11
9.56752
21
-3.5817
0
LINE
8
BLACK
6
CONTINUOUS
10
9.56752
20
-3.5817
11
9.56256
21
-3.58912
0
LINE
8
BLACK
6
CONTINUOUS
10
9.56256
20
-3.58912
11
9.55625
21
-3.59543
0
LINE
8
BLACK
6
CONTINUOUS
10
9.55625
20
-3.59543
11
9.54883
21
-3.60039
0
LINE
8
BLACK
6
CONTINUOUS
10
9.54883
20
-3.60039
11
9.54058
21
-3.60381
0
LINE
8
BLACK
6
CONTINUOUS
10
9.54058
20
-3.60381
11
9.5362
21
-3.60468
0
LINE
8
BLACK
6
CONTINUOUS
10
9.5362
20
-3.60468
11
9.53183
21
-3.60555
0
LINE
8
BLACK
6
CONTINUOUS
10
9.53183
20
-3.60555
11
9.5229
21
-3.60555
0
LINE
8
BLACK
6
CONTINUOUS
10
9.5229
20
-3.60555
11
9.51852
21
-3.60468
0
LINE
8
BLACK
6
CONTINUOUS
10
9.51852
20
-3.60468
11
9.51414
21
-3.60381
0
LINE
8
BLACK
6
CONTINUOUS
10
9.51414
20
-3.60381
11
9.5059
21
-3.60039
0
LINE
8
BLACK
6
CONTINUOUS
10
9.5059
20
-3.60039
11
9.49848
21
-3.59543
0
LINE
8
BLACK
6
CONTINUOUS
10
9.49848
20
-3.59543
11
9.49216
21
-3.58912
0
LINE
8
BLACK
6
CONTINUOUS
10
9.49216
20
-3.58912
11
9.4872
21
-3.5817
0
LINE
8
BLACK
6
CONTINUOUS
10
9.4872
20
-3.5817
11
9.48379
21
-3.57345
0
LINE
8
BLACK
6
CONTINUOUS
10
9.48379
20
-3.57345
11
9.48205
21
-3.5647
0
LINE
8
BLACK
6
CONTINUOUS
10
9.48205
20
-3.5647
11
9.48205
21
-3.55577
0
LINE
8
BLACK
6
CONTINUOUS
10
9.48205
20
-3.55577
11
9.48379
21
-3.54702
0
LINE
8
BLACK
6
CONTINUOUS
10
9.48379
20
-3.54702
11
9.4872
21
-3.53877
0
LINE
8
BLACK
6
CONTINUOUS
10
9.4872
20
-3.53877
11
9.49216
21
-3.53135
0
LINE
8
BLACK
6
CONTINUOUS
10
9.49216
20
-3.53135
11
9.49848
21
-3.52504
0
LINE
8
BLACK
6
CONTINUOUS
10
9.49848
20
-3.52504
11
9.5059
21
-3.52008
0
LINE
8
BLACK
6
CONTINUOUS
10
9.5059
20
-3.52008
11
9.51414
21
-3.51666
0
LINE
8
BLACK
6
CONTINUOUS
10
9.51414
20
-3.51666
11
9.51852
21
-3.51579
0
LINE
8
BLACK
6
CONTINUOUS
10
9.51852
20
-3.51579
11
9.5229
21
-3.51492
0
LINE
8
BLACK
6
CONTINUOUS
10
9.5229
20
-3.51492
11
9.53183
21
-3.51492
0
LINE
8
BLACK
6
CONTINUOUS
10
9.53183
20
-3.51492
11
9.5362
21
-3.51579
0
LINE
8
BLACK
6
CONTINUOUS
10
9.02439
20
-3.51579
11
9.02877
21
-3.51666
0
LINE
8
BLACK
6
CONTINUOUS
10
9.02877
20
-3.51666
11
9.03702
21
-3.52008
0
LINE
8
BLACK
6
CONTINUOUS
10
9.03702
20
-3.52008
11
9.04444
21
-3.52504
0
LINE
8
BLACK
6
CONTINUOUS
10
9.04444
20
-3.52504
11
9.05075
21
-3.53135
0
LINE
8
BLACK
6
CONTINUOUS
10
9.05075
20
-3.53135
11
9.05571
21
-3.53877
0
LINE
8
BLACK
6
CONTINUOUS
10
9.05571
20
-3.53877
11
9.05912
21
-3.54702
0
LINE
8
BLACK
6
CONTINUOUS
10
9.05912
20
-3.54702
11
9.06087
21
-3.55577
0
LINE
8
BLACK
6
CONTINUOUS
10
9.06087
20
-3.55577
11
9.06087
21
-3.5647
0
LINE
8
BLACK
6
CONTINUOUS
10
9.06087
20
-3.5647
11
9.05912
21
-3.57345
0
LINE
8
BLACK
6
CONTINUOUS
10
9.05912
20
-3.57345
11
9.05571
21
-3.5817
0
LINE
8
BLACK
6
CONTINUOUS
10
9.05571
20
-3.5817
11
9.05075
21
-3.58912
0
LINE
8
BLACK
6
CONTINUOUS
10
9.05075
20
-3.58912
11
9.04444
21
-3.59543
0
LINE
8
BLACK
6
CONTINUOUS
10
9.04444
20
-3.59543
11
9.03702
21
-3.60039
0
LINE
8
BLACK
6
CONTINUOUS
10
9.03702
20
-3.60039
11
9.02877
21
-3.60381
0
LINE
8
BLACK
6
CONTINUOUS
10
9.02877
20
-3.60381
11
9.02439
21
-3.60468
0
LINE
8
BLACK
6
CONTINUOUS
10
9.02439
20
-3.60468
11
9.02001
21
-3.60555
0
LINE
8
BLACK
6
CONTINUOUS
10
9.02001
20
-3.60555
11
9.01109
21
-3.60555
0
LINE
8
BLACK
6
CONTINUOUS
10
9.01109
20
-3.60555
11
9.00671
21
-3.60468
0
LINE
8
BLACK
6
CONTINUOUS
10
9.00671
20
-3.60468
11
9.00233
21
-3.60381
0
LINE
8
BLACK
6
CONTINUOUS
10
9.00233
20
-3.60381
11
8.99409
21
-3.60039
0
LINE
8
BLACK
6
CONTINUOUS
10
8.99409
20
-3.60039
11
8.98666
21
-3.59543
0
LINE
8
BLACK
6
CONTINUOUS
10
8.98666
20
-3.59543
11
8.98035
21
-3.58912
0
LINE
8
BLACK
6
CONTINUOUS
10
8.98035
20
-3.58912
11
8.97539
21
-3.5817
0
LINE
8
BLACK
6
CONTINUOUS
10
8.97539
20
-3.5817
11
8.97198
21
-3.57345
0
LINE
8
BLACK
6
CONTINUOUS
10
8.97198
20
-3.57345
11
8.97024
21
-3.5647
0
LINE
8
BLACK
6
CONTINUOUS
10
8.97024
20
-3.5647
11
8.97024
21
-3.55577
0
LINE
8
BLACK
6
CONTINUOUS
10
8.97024
20
-3.55577
11
8.97198
21
-3.54702
0
LINE
8
BLACK
6
CONTINUOUS
10
8.97198
20
-3.54702
11
8.97539
21
-3.53877
0
LINE
8
BLACK
6
CONTINUOUS
10
8.97539
20
-3.53877
11
8.98035
21
-3.53135
0
LINE
8
BLACK
6
CONTINUOUS
10
8.98035
20
-3.53135
11
8.98666
21
-3.52504
0
LINE
8
BLACK
6
CONTINUOUS
10
8.98666
20
-3.52504
11
8.99409
21
-3.52008
0
LINE
8
BLACK
6
CONTINUOUS
10
8.99409
20
-3.52008
11
9.00233
21
-3.51666
0
LINE
8
BLACK
6
CONTINUOUS
10
9.00233
20
-3.51666
11
9.00671
21
-3.51579
0
LINE
8
BLACK
6
CONTINUOUS
10
9.00671
20
-3.51579
11
9.01109
21
-3.51492
0
LINE
8
BLACK
6
CONTINUOUS
10
9.01109
20
-3.51492
11
9.02001
21
-3.51492
0
LINE
8
BLACK
6
CONTINUOUS
10
9.02001
20
-3.51492
11
9.02439
21
-3.51579
  0
ENDSEC
  0
EOF
