  0
SECTION
  2
HEADER
  9
$ANGBASE
  50
0.0
  9
$ANGDIR
  70
1
  9
$MEASUREMENT
  70
1
  0
ENDSEC
  0
SECTION
  2
TABLES
  0
TABLE
  2
LTYPE
  70
4
  0
LTYPE
  5
40F
  2
CONTINUOUS
  70
0
  3
Solid line
  72
65
  73
0
  40
0.0
  0
LTYPE
  5
410
  2
DASHDOT
 70
0
  3
Dash Dot ____ _ ____ _
 72
65
 73
4
 40
2.0
 49
1.25
 49
-0.25
 49
0.25
 49
-0.25
  0
LTYPE
  5
411
  2
DASHED
 70
0
  3
Dashed __ __ __ __ __
 72
65
 73
2
 40
0.75
 49
0.5
 49
-0.25
  0
LTYPE
  5
43B
  2
DOTTED
 70
0
  3
Dotted .  .  .  .
 72
65
 73
2
 40
0.2
 49
0.0
 49
-0.2
  0
ENDTAB
  0
TABLE
  2
STYLE
  70
4
  0
STYLE
  2
KICAD
  70
0
  40
0
  41
1
  42
1
  50
0
  71
0
  3
isocp.shx
  0
STYLE
  2
KICADB
  70
0
  40
0
  41
1
  42
1
  50
0
  71
0
  3
isocp.shx
  0
STYLE
  2
KICADI
  70
0
  40
0
  41
1
  42
1
  50
15
  71
0
  3
isocp.shx
  0
STYLE
  2
KICADBI
  70
0
  40
0
  41
1
  42
1
  50
15
  71
0
  3
isocp.shx
  0
ENDTAB
  0
TABLE
  2
LAYER
  70
1
  0
LAYER
  2
BLACK
  70
0
  62
7
  6
CONTINUOUS
  0
ENDTAB
  0
ENDSEC
  0
SECTION
  2
ENTITIES
0
LINE
8
BLACK
6
CONTINUOUS
10
-1.0875
20
-69.25
11
12.9125
21
-69.25
0
LINE
8
BLACK
6
CONTINUOUS
10
12.9125
20
-69.25
11
12.9125
21
-83.25
0
LINE
8
BLACK
6
CONTINUOUS
10
-1.0875
20
-69.25
11
-1.0875
21
-83.25
0
LINE
8
BLACK
6
CONTINUOUS
10
12.9125
20
-83.25
11
-1.085
21
-83.25
0
LINE
8
BLACK
6
CONTINUOUS
10
108.298
20
-15.5286
11
108.298
21
-14.9571
0
LINE
8
BLACK
6
CONTINUOUS
10
108.298
20
-15.2429
11
109.298
21
-15.2429
0
LINE
8
BLACK
6
CONTINUOUS
10
109.298
20
-15.2429
11
109.155
21
-15.1476
0
LINE
8
BLACK
6
CONTINUOUS
10
109.155
20
-15.1476
11
109.06
21
-15.0524
0
LINE
8
BLACK
6
CONTINUOUS
10
109.06
20
-15.0524
11
109.012
21
-14.9571
0
LINE
8
BLACK
6
CONTINUOUS
10
108.964
20
-16.3857
11
108.298
21
-16.3857
0
LINE
8
BLACK
6
CONTINUOUS
10
109.345
20
-16.1476
11
108.631
21
-15.9095
0
LINE
8
BLACK
6
CONTINUOUS
10
108.631
20
-15.9095
11
108.631
21
-16.5286
0
LINE
8
BLACK
6
CONTINUOUS
10
108.393
20
-16.9095
11
108.345
21
-16.9571
0
LINE
8
BLACK
6
CONTINUOUS
10
108.345
20
-16.9571
11
108.298
21
-16.9095
0
LINE
8
BLACK
6
CONTINUOUS
10
108.298
20
-16.9095
11
108.345
21
-16.8619
0
LINE
8
BLACK
6
CONTINUOUS
10
108.345
20
-16.8619
11
108.393
21
-16.9095
0
LINE
8
BLACK
6
CONTINUOUS
10
108.393
20
-16.9095
11
108.298
21
-16.9095
0
LINE
8
BLACK
6
CONTINUOUS
10
109.298
20
-17.5762
11
109.298
21
-17.6714
0
LINE
8
BLACK
6
CONTINUOUS
10
109.298
20
-17.6714
11
109.25
21
-17.7667
0
LINE
8
BLACK
6
CONTINUOUS
10
109.25
20
-17.7667
11
109.202
21
-17.8143
0
LINE
8
BLACK
6
CONTINUOUS
10
109.202
20
-17.8143
11
109.107
21
-17.8619
0
LINE
8
BLACK
6
CONTINUOUS
10
109.107
20
-17.8619
11
108.917
21
-17.9095
0
LINE
8
BLACK
6
CONTINUOUS
10
108.917
20
-17.9095
11
108.679
21
-17.9095
0
LINE
8
BLACK
6
CONTINUOUS
10
108.679
20
-17.9095
11
108.488
21
-17.8619
0
LINE
8
BLACK
6
CONTINUOUS
10
108.488
20
-17.8619
11
108.393
21
-17.8143
0
LINE
8
BLACK
6
CONTINUOUS
10
108.393
20
-17.8143
11
108.345
21
-17.7667
0
LINE
8
BLACK
6
CONTINUOUS
10
108.345
20
-17.7667
11
108.298
21
-17.6714
0
LINE
8
BLACK
6
CONTINUOUS
10
108.298
20
-17.6714
11
108.298
21
-17.5762
0
LINE
8
BLACK
6
CONTINUOUS
10
108.298
20
-17.5762
11
108.345
21
-17.481
0
LINE
8
BLACK
6
CONTINUOUS
10
108.345
20
-17.481
11
108.393
21
-17.4333
0
LINE
8
BLACK
6
CONTINUOUS
10
108.393
20
-17.4333
11
108.488
21
-17.3857
0
LINE
8
BLACK
6
CONTINUOUS
10
108.488
20
-17.3857
11
108.679
21
-17.3381
0
LINE
8
BLACK
6
CONTINUOUS
10
108.679
20
-17.3381
11
108.917
21
-17.3381
0
LINE
8
BLACK
6
CONTINUOUS
10
108.917
20
-17.3381
11
109.107
21
-17.3857
0
LINE
8
BLACK
6
CONTINUOUS
10
109.107
20
-17.3857
11
109.202
21
-17.4333
0
LINE
8
BLACK
6
CONTINUOUS
10
109.202
20
-17.4333
11
109.25
21
-17.481
0
LINE
8
BLACK
6
CONTINUOUS
10
109.25
20
-17.481
11
109.298
21
-17.5762
0
LINE
8
BLACK
6
CONTINUOUS
10
109.298
20
-18.5286
11
109.298
21
-18.6238
0
LINE
8
BLACK
6
CONTINUOUS
10
109.298
20
-18.6238
11
109.25
21
-18.719
0
LINE
8
BLACK
6
CONTINUOUS
10
109.25
20
-18.719
11
109.202
21
-18.7667
0
LINE
8
BLACK
6
CONTINUOUS
10
109.202
20
-18.7667
11
109.107
21
-18.8143
0
LINE
8
BLACK
6
CONTINUOUS
10
109.107
20
-18.8143
11
108.917
21
-18.8619
0
LINE
8
BLACK
6
CONTINUOUS
10
108.917
20
-18.8619
11
108.679
21
-18.8619
0
LINE
8
BLACK
6
CONTINUOUS
10
108.679
20
-18.8619
11
108.488
21
-18.8143
0
LINE
8
BLACK
6
CONTINUOUS
10
108.488
20
-18.8143
11
108.393
21
-18.7667
0
LINE
8
BLACK
6
CONTINUOUS
10
108.393
20
-18.7667
11
108.345
21
-18.719
0
LINE
8
BLACK
6
CONTINUOUS
10
108.345
20
-18.719
11
108.298
21
-18.6238
0
LINE
8
BLACK
6
CONTINUOUS
10
108.298
20
-18.6238
11
108.298
21
-18.5286
0
LINE
8
BLACK
6
CONTINUOUS
10
108.298
20
-18.5286
11
108.345
21
-18.4333
0
LINE
8
BLACK
6
CONTINUOUS
10
108.345
20
-18.4333
11
108.393
21
-18.3857
0
LINE
8
BLACK
6
CONTINUOUS
10
108.393
20
-18.3857
11
108.488
21
-18.3381
0
LINE
8
BLACK
6
CONTINUOUS
10
108.488
20
-18.3381
11
108.679
21
-18.2905
0
LINE
8
BLACK
6
CONTINUOUS
10
108.679
20
-18.2905
11
108.917
21
-18.2905
0
LINE
8
BLACK
6
CONTINUOUS
10
108.917
20
-18.2905
11
109.107
21
-18.3381
0
LINE
8
BLACK
6
CONTINUOUS
10
109.107
20
-18.3381
11
109.202
21
-18.3857
0
LINE
8
BLACK
6
CONTINUOUS
10
109.202
20
-18.3857
11
109.25
21
-18.4333
0
LINE
8
BLACK
6
CONTINUOUS
10
109.25
20
-18.4333
11
109.298
21
-18.5286
0
LINE
8
BLACK
6
CONTINUOUS
10
109.298
20
-19.481
11
109.298
21
-19.5762
0
LINE
8
BLACK
6
CONTINUOUS
10
109.298
20
-19.5762
11
109.25
21
-19.6714
0
LINE
8
BLACK
6
CONTINUOUS
10
109.25
20
-19.6714
11
109.202
21
-19.719
0
LINE
8
BLACK
6
CONTINUOUS
10
109.202
20
-19.719
11
109.107
21
-19.7667
0
LINE
8
BLACK
6
CONTINUOUS
10
109.107
20
-19.7667
11
108.917
21
-19.8143
0
LINE
8
BLACK
6
CONTINUOUS
10
108.917
20
-19.8143
11
108.679
21
-19.8143
0
LINE
8
BLACK
6
CONTINUOUS
10
108.679
20
-19.8143
11
108.488
21
-19.7667
0
LINE
8
BLACK
6
CONTINUOUS
10
108.488
20
-19.7667
11
108.393
21
-19.719
0
LINE
8
BLACK
6
CONTINUOUS
10
108.393
20
-19.719
11
108.345
21
-19.6714
0
LINE
8
BLACK
6
CONTINUOUS
10
108.345
20
-19.6714
11
108.298
21
-19.5762
0
LINE
8
BLACK
6
CONTINUOUS
10
108.298
20
-19.5762
11
108.298
21
-19.481
0
LINE
8
BLACK
6
CONTINUOUS
10
108.298
20
-19.481
11
108.345
21
-19.3857
0
LINE
8
BLACK
6
CONTINUOUS
10
108.345
20
-19.3857
11
108.393
21
-19.3381
0
LINE
8
BLACK
6
CONTINUOUS
10
108.393
20
-19.3381
11
108.488
21
-19.2905
0
LINE
8
BLACK
6
CONTINUOUS
10
108.488
20
-19.2905
11
108.679
21
-19.2429
0
LINE
8
BLACK
6
CONTINUOUS
10
108.679
20
-19.2429
11
108.917
21
-19.2429
0
LINE
8
BLACK
6
CONTINUOUS
10
108.917
20
-19.2429
11
109.107
21
-19.2905
0
LINE
8
BLACK
6
CONTINUOUS
10
109.107
20
-19.2905
11
109.202
21
-19.3381
0
LINE
8
BLACK
6
CONTINUOUS
10
109.202
20
-19.3381
11
109.25
21
-19.3857
0
LINE
8
BLACK
6
CONTINUOUS
10
109.25
20
-19.3857
11
109.298
21
-19.481
0
LINE
8
BLACK
6
CONTINUOUS
10
108.298
20
-21.0048
11
108.964
21
-21.0048
0
LINE
8
BLACK
6
CONTINUOUS
10
108.869
20
-21.0048
11
108.917
21
-21.0524
0
LINE
8
BLACK
6
CONTINUOUS
10
108.917
20
-21.0524
11
108.964
21
-21.1476
0
LINE
8
BLACK
6
CONTINUOUS
10
108.964
20
-21.1476
11
108.964
21
-21.2905
0
LINE
8
BLACK
6
CONTINUOUS
10
108.964
20
-21.2905
11
108.917
21
-21.3857
0
LINE
8
BLACK
6
CONTINUOUS
10
108.917
20
-21.3857
11
108.821
21
-21.4333
0
LINE
8
BLACK
6
CONTINUOUS
10
108.821
20
-21.4333
11
108.298
21
-21.4333
0
LINE
8
BLACK
6
CONTINUOUS
10
108.821
20
-21.4333
11
108.917
21
-21.481
0
LINE
8
BLACK
6
CONTINUOUS
10
108.917
20
-21.481
11
108.964
21
-21.5762
0
LINE
8
BLACK
6
CONTINUOUS
10
108.964
20
-21.5762
11
108.964
21
-21.719
0
LINE
8
BLACK
6
CONTINUOUS
10
108.964
20
-21.719
11
108.917
21
-21.8143
0
LINE
8
BLACK
6
CONTINUOUS
10
108.917
20
-21.8143
11
108.821
21
-21.8619
0
LINE
8
BLACK
6
CONTINUOUS
10
108.821
20
-21.8619
11
108.298
21
-21.8619
0
LINE
8
BLACK
6
CONTINUOUS
10
108.298
20
-22.3381
11
108.964
21
-22.3381
0
LINE
8
BLACK
6
CONTINUOUS
10
108.869
20
-22.3381
11
108.917
21
-22.3857
0
LINE
8
BLACK
6
CONTINUOUS
10
108.917
20
-22.3857
11
108.964
21
-22.481
0
LINE
8
BLACK
6
CONTINUOUS
10
108.964
20
-22.481
11
108.964
21
-22.6238
0
LINE
8
BLACK
6
CONTINUOUS
10
108.964
20
-22.6238
11
108.917
21
-22.719
0
LINE
8
BLACK
6
CONTINUOUS
10
108.917
20
-22.719
11
108.821
21
-22.7667
0
LINE
8
BLACK
6
CONTINUOUS
10
108.821
20
-22.7667
11
108.298
21
-22.7667
0
LINE
8
BLACK
6
CONTINUOUS
10
108.821
20
-22.7667
11
108.917
21
-22.8143
0
LINE
8
BLACK
6
CONTINUOUS
10
108.917
20
-22.8143
11
108.964
21
-22.9095
0
LINE
8
BLACK
6
CONTINUOUS
10
108.964
20
-22.9095
11
108.964
21
-23.0524
0
LINE
8
BLACK
6
CONTINUOUS
10
108.964
20
-23.0524
11
108.917
21
-23.1476
0
LINE
8
BLACK
6
CONTINUOUS
10
108.917
20
-23.1476
11
108.821
21
-23.1952
0
LINE
8
BLACK
6
CONTINUOUS
10
108.821
20
-23.1952
11
108.298
21
-23.1952
0
LINE
8
BLACK
6
CONTINUOUS
10
107.55
20
-12.1
11
107.55
21
-26.1
0
LINE
8
BLACK
6
CONTINUOUS
10
107.4
20
-12.1
11
108.136
21
-12.1
0
LINE
8
BLACK
6
CONTINUOUS
10
107.4
20
-26.1
11
108.136
21
-26.1
0
LINE
8
BLACK
6
CONTINUOUS
10
107.55
20
-26.1
11
106.964
21
-24.9735
0
LINE
8
BLACK
6
CONTINUOUS
10
107.55
20
-26.1
11
108.136
21
-24.9735
0
LINE
8
BLACK
6
CONTINUOUS
10
107.55
20
-12.1
11
106.964
21
-13.2265
0
LINE
8
BLACK
6
CONTINUOUS
10
107.55
20
-12.1
11
108.136
21
-13.2265
0
LINE
8
BLACK
6
CONTINUOUS
10
92.8286
20
-7.21238
11
92.2571
21
-7.21238
0
LINE
8
BLACK
6
CONTINUOUS
10
92.5429
20
-7.21238
11
92.5429
21
-6.21238
0
LINE
8
BLACK
6
CONTINUOUS
10
92.5429
20
-6.21238
11
92.4476
21
-6.35524
0
LINE
8
BLACK
6
CONTINUOUS
10
92.4476
20
-6.35524
11
92.3524
21
-6.45048
0
LINE
8
BLACK
6
CONTINUOUS
10
92.3524
20
-6.45048
11
92.2571
21
-6.49809
0
LINE
8
BLACK
6
CONTINUOUS
10
93.6857
20
-6.54571
11
93.6857
21
-7.21238
0
LINE
8
BLACK
6
CONTINUOUS
10
93.4476
20
-6.16476
11
93.2095
21
-6.87905
0
LINE
8
BLACK
6
CONTINUOUS
10
93.2095
20
-6.87905
11
93.8286
21
-6.87905
0
LINE
8
BLACK
6
CONTINUOUS
10
94.2095
20
-7.11714
11
94.2571
21
-7.16476
0
LINE
8
BLACK
6
CONTINUOUS
10
94.2571
20
-7.16476
11
94.2095
21
-7.21238
0
LINE
8
BLACK
6
CONTINUOUS
10
94.2095
20
-7.21238
11
94.1619
21
-7.16476
0
LINE
8
BLACK
6
CONTINUOUS
10
94.1619
20
-7.16476
11
94.2095
21
-7.11714
0
LINE
8
BLACK
6
CONTINUOUS
10
94.2095
20
-7.11714
11
94.2095
21
-7.21238
0
LINE
8
BLACK
6
CONTINUOUS
10
94.8762
20
-6.21238
11
94.9714
21
-6.21238
0
LINE
8
BLACK
6
CONTINUOUS
10
94.9714
20
-6.21238
11
95.0667
21
-6.26
0
LINE
8
BLACK
6
CONTINUOUS
10
95.0667
20
-6.26
11
95.1143
21
-6.30762
0
LINE
8
BLACK
6
CONTINUOUS
10
95.1143
20
-6.30762
11
95.1619
21
-6.40286
0
LINE
8
BLACK
6
CONTINUOUS
10
95.1619
20
-6.40286
11
95.2095
21
-6.59333
0
LINE
8
BLACK
6
CONTINUOUS
10
95.2095
20
-6.59333
11
95.2095
21
-6.83143
0
LINE
8
BLACK
6
CONTINUOUS
10
95.2095
20
-6.83143
11
95.1619
21
-7.0219
0
LINE
8
BLACK
6
CONTINUOUS
10
95.1619
20
-7.0219
11
95.1143
21
-7.11714
0
LINE
8
BLACK
6
CONTINUOUS
10
95.1143
20
-7.11714
11
95.0667
21
-7.16476
0
LINE
8
BLACK
6
CONTINUOUS
10
95.0667
20
-7.16476
11
94.9714
21
-7.21238
0
LINE
8
BLACK
6
CONTINUOUS
10
94.9714
20
-7.21238
11
94.8762
21
-7.21238
0
LINE
8
BLACK
6
CONTINUOUS
10
94.8762
20
-7.21238
11
94.781
21
-7.16476
0
LINE
8
BLACK
6
CONTINUOUS
10
94.781
20
-7.16476
11
94.7333
21
-7.11714
0
LINE
8
BLACK
6
CONTINUOUS
10
94.7333
20
-7.11714
11
94.6857
21
-7.0219
0
LINE
8
BLACK
6
CONTINUOUS
10
94.6857
20
-7.0219
11
94.6381
21
-6.83143
0
LINE
8
BLACK
6
CONTINUOUS
10
94.6381
20
-6.83143
11
94.6381
21
-6.59333
0
LINE
8
BLACK
6
CONTINUOUS
10
94.6381
20
-6.59333
11
94.6857
21
-6.40286
0
LINE
8
BLACK
6
CONTINUOUS
10
94.6857
20
-6.40286
11
94.7333
21
-6.30762
0
LINE
8
BLACK
6
CONTINUOUS
10
94.7333
20
-6.30762
11
94.781
21
-6.26
0
LINE
8
BLACK
6
CONTINUOUS
10
94.781
20
-6.26
11
94.8762
21
-6.21238
0
LINE
8
BLACK
6
CONTINUOUS
10
95.8286
20
-6.21238
11
95.9238
21
-6.21238
0
LINE
8
BLACK
6
CONTINUOUS
10
95.9238
20
-6.21238
11
96.019
21
-6.26
0
LINE
8
BLACK
6
CONTINUOUS
10
96.019
20
-6.26
11
96.0667
21
-6.30762
0
LINE
8
BLACK
6
CONTINUOUS
10
96.0667
20
-6.30762
11
96.1143
21
-6.40286
0
LINE
8
BLACK
6
CONTINUOUS
10
96.1143
20
-6.40286
11
96.1619
21
-6.59333
0
LINE
8
BLACK
6
CONTINUOUS
10
96.1619
20
-6.59333
11
96.1619
21
-6.83143
0
LINE
8
BLACK
6
CONTINUOUS
10
96.1619
20
-6.83143
11
96.1143
21
-7.0219
0
LINE
8
BLACK
6
CONTINUOUS
10
96.1143
20
-7.0219
11
96.0667
21
-7.11714
0
LINE
8
BLACK
6
CONTINUOUS
10
96.0667
20
-7.11714
11
96.019
21
-7.16476
0
LINE
8
BLACK
6
CONTINUOUS
10
96.019
20
-7.16476
11
95.9238
21
-7.21238
0
LINE
8
BLACK
6
CONTINUOUS
10
95.9238
20
-7.21238
11
95.8286
21
-7.21238
0
LINE
8
BLACK
6
CONTINUOUS
10
95.8286
20
-7.21238
11
95.7333
21
-7.16476
0
LINE
8
BLACK
6
CONTINUOUS
10
95.7333
20
-7.16476
11
95.6857
21
-7.11714
0
LINE
8
BLACK
6
CONTINUOUS
10
95.6857
20
-7.11714
11
95.6381
21
-7.0219
0
LINE
8
BLACK
6
CONTINUOUS
10
95.6381
20
-7.0219
11
95.5905
21
-6.83143
0
LINE
8
BLACK
6
CONTINUOUS
10
95.5905
20
-6.83143
11
95.5905
21
-6.59333
0
LINE
8
BLACK
6
CONTINUOUS
10
95.5905
20
-6.59333
11
95.6381
21
-6.40286
0
LINE
8
BLACK
6
CONTINUOUS
10
95.6381
20
-6.40286
11
95.6857
21
-6.30762
0
LINE
8
BLACK
6
CONTINUOUS
10
95.6857
20
-6.30762
11
95.7333
21
-6.26
0
LINE
8
BLACK
6
CONTINUOUS
10
95.7333
20
-6.26
11
95.8286
21
-6.21238
0
LINE
8
BLACK
6
CONTINUOUS
10
96.781
20
-6.21238
11
96.8762
21
-6.21238
0
LINE
8
BLACK
6
CONTINUOUS
10
96.8762
20
-6.21238
11
96.9714
21
-6.26
0
LINE
8
BLACK
6
CONTINUOUS
10
96.9714
20
-6.26
11
97.019
21
-6.30762
0
LINE
8
BLACK
6
CONTINUOUS
10
97.019
20
-6.30762
11
97.0667
21
-6.40286
0
LINE
8
BLACK
6
CONTINUOUS
10
97.0667
20
-6.40286
11
97.1143
21
-6.59333
0
LINE
8
BLACK
6
CONTINUOUS
10
97.1143
20
-6.59333
11
97.1143
21
-6.83143
0
LINE
8
BLACK
6
CONTINUOUS
10
97.1143
20
-6.83143
11
97.0667
21
-7.0219
0
LINE
8
BLACK
6
CONTINUOUS
10
97.0667
20
-7.0219
11
97.019
21
-7.11714
0
LINE
8
BLACK
6
CONTINUOUS
10
97.019
20
-7.11714
11
96.9714
21
-7.16476
0
LINE
8
BLACK
6
CONTINUOUS
10
96.9714
20
-7.16476
11
96.8762
21
-7.21238
0
LINE
8
BLACK
6
CONTINUOUS
10
96.8762
20
-7.21238
11
96.781
21
-7.21238
0
LINE
8
BLACK
6
CONTINUOUS
10
96.781
20
-7.21238
11
96.6857
21
-7.16476
0
LINE
8
BLACK
6
CONTINUOUS
10
96.6857
20
-7.16476
11
96.6381
21
-7.11714
0
LINE
8
BLACK
6
CONTINUOUS
10
96.6381
20
-7.11714
11
96.5905
21
-7.0219
0
LINE
8
BLACK
6
CONTINUOUS
10
96.5905
20
-7.0219
11
96.5429
21
-6.83143
0
LINE
8
BLACK
6
CONTINUOUS
10
96.5429
20
-6.83143
11
96.5429
21
-6.59333
0
LINE
8
BLACK
6
CONTINUOUS
10
96.5429
20
-6.59333
11
96.5905
21
-6.40286
0
LINE
8
BLACK
6
CONTINUOUS
10
96.5905
20
-6.40286
11
96.6381
21
-6.30762
0
LINE
8
BLACK
6
CONTINUOUS
10
96.6381
20
-6.30762
11
96.6857
21
-6.26
0
LINE
8
BLACK
6
CONTINUOUS
10
96.6857
20
-6.26
11
96.781
21
-6.21238
0
LINE
8
BLACK
6
CONTINUOUS
10
98.3048
20
-7.21238
11
98.3048
21
-6.54571
0
LINE
8
BLACK
6
CONTINUOUS
10
98.3048
20
-6.64095
11
98.3524
21
-6.59333
0
LINE
8
BLACK
6
CONTINUOUS
10
98.3524
20
-6.59333
11
98.4476
21
-6.54571
0
LINE
8
BLACK
6
CONTINUOUS
10
98.4476
20
-6.54571
11
98.5905
21
-6.54571
0
LINE
8
BLACK
6
CONTINUOUS
10
98.5905
20
-6.54571
11
98.6857
21
-6.59333
0
LINE
8
BLACK
6
CONTINUOUS
10
98.6857
20
-6.59333
11
98.7333
21
-6.68857
0
LINE
8
BLACK
6
CONTINUOUS
10
98.7333
20
-6.68857
11
98.7333
21
-7.21238
0
LINE
8
BLACK
6
CONTINUOUS
10
98.7333
20
-6.68857
11
98.781
21
-6.59333
0
LINE
8
BLACK
6
CONTINUOUS
10
98.781
20
-6.59333
11
98.8762
21
-6.54571
0
LINE
8
BLACK
6
CONTINUOUS
10
98.8762
20
-6.54571
11
99.019
21
-6.54571
0
LINE
8
BLACK
6
CONTINUOUS
10
99.019
20
-6.54571
11
99.1143
21
-6.59333
0
LINE
8
BLACK
6
CONTINUOUS
10
99.1143
20
-6.59333
11
99.1619
21
-6.68857
0
LINE
8
BLACK
6
CONTINUOUS
10
99.1619
20
-6.68857
11
99.1619
21
-7.21238
0
LINE
8
BLACK
6
CONTINUOUS
10
99.6381
20
-7.21238
11
99.6381
21
-6.54571
0
LINE
8
BLACK
6
CONTINUOUS
10
99.6381
20
-6.64095
11
99.6857
21
-6.59333
0
LINE
8
BLACK
6
CONTINUOUS
10
99.6857
20
-6.59333
11
99.781
21
-6.54571
0
LINE
8
BLACK
6
CONTINUOUS
10
99.781
20
-6.54571
11
99.9238
21
-6.54571
0
LINE
8
BLACK
6
CONTINUOUS
10
99.9238
20
-6.54571
11
100.019
21
-6.59333
0
LINE
8
BLACK
6
CONTINUOUS
10
100.019
20
-6.59333
11
100.067
21
-6.68857
0
LINE
8
BLACK
6
CONTINUOUS
10
100.067
20
-6.68857
11
100.067
21
-7.21238
0
LINE
8
BLACK
6
CONTINUOUS
10
100.067
20
-6.68857
11
100.114
21
-6.59333
0
LINE
8
BLACK
6
CONTINUOUS
10
100.114
20
-6.59333
11
100.21
21
-6.54571
0
LINE
8
BLACK
6
CONTINUOUS
10
100.21
20
-6.54571
11
100.352
21
-6.54571
0
LINE
8
BLACK
6
CONTINUOUS
10
100.352
20
-6.54571
11
100.448
21
-6.59333
0
LINE
8
BLACK
6
CONTINUOUS
10
100.448
20
-6.59333
11
100.495
21
-6.68857
0
LINE
8
BLACK
6
CONTINUOUS
10
100.495
20
-6.68857
11
100.495
21
-7.21238
0
LINE
8
BLACK
6
CONTINUOUS
10
89.4
20
-7.96
11
103.4
21
-7.96
0
LINE
8
BLACK
6
CONTINUOUS
10
89.4
20
-8.1
11
89.4
21
-7.37358
0
LINE
8
BLACK
6
CONTINUOUS
10
103.4
20
-8.1
11
103.4
21
-7.37358
0
LINE
8
BLACK
6
CONTINUOUS
10
103.4
20
-7.96
11
102.273
21
-8.54642
0
LINE
8
BLACK
6
CONTINUOUS
10
103.4
20
-7.96
11
102.273
21
-7.37358
0
LINE
8
BLACK
6
CONTINUOUS
10
89.4
20
-7.96
11
90.5265
21
-8.54642
0
LINE
8
BLACK
6
CONTINUOUS
10
89.4
20
-7.96
11
90.5265
21
-7.37358
0
LINE
8
BLACK
6
CONTINUOUS
10
116.679
20
-86.5763
11
116.727
21
-86.4811
0
LINE
8
BLACK
6
CONTINUOUS
10
116.727
20
-86.4811
11
116.774
21
-86.4335
0
LINE
8
BLACK
6
CONTINUOUS
10
116.774
20
-86.4335
11
116.87
21
-86.3858
0
LINE
8
BLACK
6
CONTINUOUS
10
116.87
20
-86.3858
11
116.917
21
-86.3858
0
LINE
8
BLACK
6
CONTINUOUS
10
116.917
20
-86.3858
11
117.012
21
-86.4335
0
LINE
8
BLACK
6
CONTINUOUS
10
117.012
20
-86.4335
11
117.06
21
-86.4811
0
LINE
8
BLACK
6
CONTINUOUS
10
117.06
20
-86.4811
11
117.108
21
-86.5763
0
LINE
8
BLACK
6
CONTINUOUS
10
117.108
20
-86.5763
11
117.108
21
-86.7668
0
LINE
8
BLACK
6
CONTINUOUS
10
117.108
20
-86.7668
11
117.06
21
-86.862
0
LINE
8
BLACK
6
CONTINUOUS
10
117.06
20
-86.862
11
117.012
21
-86.9096
0
LINE
8
BLACK
6
CONTINUOUS
10
117.012
20
-86.9096
11
116.917
21
-86.9573
0
LINE
8
BLACK
6
CONTINUOUS
10
116.917
20
-86.9573
11
116.87
21
-86.9573
0
LINE
8
BLACK
6
CONTINUOUS
10
116.87
20
-86.9573
11
116.774
21
-86.9096
0
LINE
8
BLACK
6
CONTINUOUS
10
116.774
20
-86.9096
11
116.727
21
-86.862
0
LINE
8
BLACK
6
CONTINUOUS
10
116.727
20
-86.862
11
116.679
21
-86.7668
0
LINE
8
BLACK
6
CONTINUOUS
10
116.679
20
-86.7668
11
116.679
21
-86.5763
0
LINE
8
BLACK
6
CONTINUOUS
10
116.679
20
-86.5763
11
116.631
21
-86.4811
0
LINE
8
BLACK
6
CONTINUOUS
10
116.631
20
-86.4811
11
116.584
21
-86.4335
0
LINE
8
BLACK
6
CONTINUOUS
10
116.584
20
-86.4335
11
116.489
21
-86.3858
0
LINE
8
BLACK
6
CONTINUOUS
10
116.489
20
-86.3858
11
116.298
21
-86.3858
0
LINE
8
BLACK
6
CONTINUOUS
10
116.298
20
-86.3858
11
116.203
21
-86.4335
0
LINE
8
BLACK
6
CONTINUOUS
10
116.203
20
-86.4335
11
116.155
21
-86.4811
0
LINE
8
BLACK
6
CONTINUOUS
10
116.155
20
-86.4811
11
116.108
21
-86.5763
0
LINE
8
BLACK
6
CONTINUOUS
10
116.108
20
-86.5763
11
116.108
21
-86.7668
0
LINE
8
BLACK
6
CONTINUOUS
10
116.108
20
-86.7668
11
116.155
21
-86.862
0
LINE
8
BLACK
6
CONTINUOUS
10
116.155
20
-86.862
11
116.203
21
-86.9096
0
LINE
8
BLACK
6
CONTINUOUS
10
116.203
20
-86.9096
11
116.298
21
-86.9573
0
LINE
8
BLACK
6
CONTINUOUS
10
116.298
20
-86.9573
11
116.489
21
-86.9573
0
LINE
8
BLACK
6
CONTINUOUS
10
116.489
20
-86.9573
11
116.584
21
-86.9096
0
LINE
8
BLACK
6
CONTINUOUS
10
116.584
20
-86.9096
11
116.631
21
-86.862
0
LINE
8
BLACK
6
CONTINUOUS
10
116.631
20
-86.862
11
116.679
21
-86.7668
0
LINE
8
BLACK
6
CONTINUOUS
10
116.203
20
-87.3858
11
116.155
21
-87.4335
0
LINE
8
BLACK
6
CONTINUOUS
10
116.155
20
-87.4335
11
116.108
21
-87.3858
0
LINE
8
BLACK
6
CONTINUOUS
10
116.108
20
-87.3858
11
116.155
21
-87.3382
0
LINE
8
BLACK
6
CONTINUOUS
10
116.155
20
-87.3382
11
116.203
21
-87.3858
0
LINE
8
BLACK
6
CONTINUOUS
10
116.203
20
-87.3858
11
116.108
21
-87.3858
0
LINE
8
BLACK
6
CONTINUOUS
10
117.108
20
-88.3382
11
117.108
21
-87.862
0
LINE
8
BLACK
6
CONTINUOUS
10
117.108
20
-87.862
11
116.631
21
-87.8144
0
LINE
8
BLACK
6
CONTINUOUS
10
116.631
20
-87.8144
11
116.679
21
-87.862
0
LINE
8
BLACK
6
CONTINUOUS
10
116.679
20
-87.862
11
116.727
21
-87.9573
0
LINE
8
BLACK
6
CONTINUOUS
10
116.727
20
-87.9573
11
116.727
21
-88.1954
0
LINE
8
BLACK
6
CONTINUOUS
10
116.727
20
-88.1954
11
116.679
21
-88.2906
0
LINE
8
BLACK
6
CONTINUOUS
10
116.679
20
-88.2906
11
116.631
21
-88.3382
0
LINE
8
BLACK
6
CONTINUOUS
10
116.631
20
-88.3382
11
116.536
21
-88.3858
0
LINE
8
BLACK
6
CONTINUOUS
10
116.536
20
-88.3858
11
116.298
21
-88.3858
0
LINE
8
BLACK
6
CONTINUOUS
10
116.298
20
-88.3858
11
116.203
21
-88.3382
0
LINE
8
BLACK
6
CONTINUOUS
10
116.203
20
-88.3382
11
116.155
21
-88.2906
0
LINE
8
BLACK
6
CONTINUOUS
10
116.155
20
-88.2906
11
116.108
21
-88.1954
0
LINE
8
BLACK
6
CONTINUOUS
10
116.108
20
-88.1954
11
116.108
21
-87.9573
0
LINE
8
BLACK
6
CONTINUOUS
10
116.108
20
-87.9573
11
116.155
21
-87.862
0
LINE
8
BLACK
6
CONTINUOUS
10
116.155
20
-87.862
11
116.203
21
-87.8144
0
LINE
8
BLACK
6
CONTINUOUS
10
117.108
20
-89.2906
11
117.108
21
-88.8144
0
LINE
8
BLACK
6
CONTINUOUS
10
117.108
20
-88.8144
11
116.631
21
-88.7668
0
LINE
8
BLACK
6
CONTINUOUS
10
116.631
20
-88.7668
11
116.679
21
-88.8144
0
LINE
8
BLACK
6
CONTINUOUS
10
116.679
20
-88.8144
11
116.727
21
-88.9096
0
LINE
8
BLACK
6
CONTINUOUS
10
116.727
20
-88.9096
11
116.727
21
-89.1477
0
LINE
8
BLACK
6
CONTINUOUS
10
116.727
20
-89.1477
11
116.679
21
-89.243
0
LINE
8
BLACK
6
CONTINUOUS
10
116.679
20
-89.243
11
116.631
21
-89.2906
0
LINE
8
BLACK
6
CONTINUOUS
10
116.631
20
-89.2906
11
116.536
21
-89.3382
0
LINE
8
BLACK
6
CONTINUOUS
10
116.536
20
-89.3382
11
116.298
21
-89.3382
0
LINE
8
BLACK
6
CONTINUOUS
10
116.298
20
-89.3382
11
116.203
21
-89.2906
0
LINE
8
BLACK
6
CONTINUOUS
10
116.203
20
-89.2906
11
116.155
21
-89.243
0
LINE
8
BLACK
6
CONTINUOUS
10
116.155
20
-89.243
11
116.108
21
-89.1477
0
LINE
8
BLACK
6
CONTINUOUS
10
116.108
20
-89.1477
11
116.108
21
-88.9096
0
LINE
8
BLACK
6
CONTINUOUS
10
116.108
20
-88.9096
11
116.155
21
-88.8144
0
LINE
8
BLACK
6
CONTINUOUS
10
116.155
20
-88.8144
11
116.203
21
-88.7668
0
LINE
8
BLACK
6
CONTINUOUS
10
117.108
20
-90.243
11
117.108
21
-89.7668
0
LINE
8
BLACK
6
CONTINUOUS
10
117.108
20
-89.7668
11
116.631
21
-89.7192
0
LINE
8
BLACK
6
CONTINUOUS
10
116.631
20
-89.7192
11
116.679
21
-89.7668
0
LINE
8
BLACK
6
CONTINUOUS
10
116.679
20
-89.7668
11
116.727
21
-89.862
0
LINE
8
BLACK
6
CONTINUOUS
10
116.727
20
-89.862
11
116.727
21
-90.1001
0
LINE
8
BLACK
6
CONTINUOUS
10
116.727
20
-90.1001
11
116.679
21
-90.1954
0
LINE
8
BLACK
6
CONTINUOUS
10
116.679
20
-90.1954
11
116.631
21
-90.243
0
LINE
8
BLACK
6
CONTINUOUS
10
116.631
20
-90.243
11
116.536
21
-90.2906
0
LINE
8
BLACK
6
CONTINUOUS
10
116.536
20
-90.2906
11
116.298
21
-90.2906
0
LINE
8
BLACK
6
CONTINUOUS
10
116.298
20
-90.2906
11
116.203
21
-90.243
0
LINE
8
BLACK
6
CONTINUOUS
10
116.203
20
-90.243
11
116.155
21
-90.1954
0
LINE
8
BLACK
6
CONTINUOUS
10
116.155
20
-90.1954
11
116.108
21
-90.1001
0
LINE
8
BLACK
6
CONTINUOUS
10
116.108
20
-90.1001
11
116.108
21
-89.862
0
LINE
8
BLACK
6
CONTINUOUS
10
116.108
20
-89.862
11
116.155
21
-89.7668
0
LINE
8
BLACK
6
CONTINUOUS
10
116.155
20
-89.7668
11
116.203
21
-89.7192
0
LINE
8
BLACK
6
CONTINUOUS
10
116.108
20
-91.4811
11
116.774
21
-91.4811
0
LINE
8
BLACK
6
CONTINUOUS
10
116.679
20
-91.4811
11
116.727
21
-91.5287
0
LINE
8
BLACK
6
CONTINUOUS
10
116.727
20
-91.5287
11
116.774
21
-91.6239
0
LINE
8
BLACK
6
CONTINUOUS
10
116.774
20
-91.6239
11
116.774
21
-91.7668
0
LINE
8
BLACK
6
CONTINUOUS
10
116.774
20
-91.7668
11
116.727
21
-91.862
0
LINE
8
BLACK
6
CONTINUOUS
10
116.727
20
-91.862
11
116.631
21
-91.9096
0
LINE
8
BLACK
6
CONTINUOUS
10
116.631
20
-91.9096
11
116.108
21
-91.9096
0
LINE
8
BLACK
6
CONTINUOUS
10
116.631
20
-91.9096
11
116.727
21
-91.9573
0
LINE
8
BLACK
6
CONTINUOUS
10
116.727
20
-91.9573
11
116.774
21
-92.0525
0
LINE
8
BLACK
6
CONTINUOUS
10
116.774
20
-92.0525
11
116.774
21
-92.1954
0
LINE
8
BLACK
6
CONTINUOUS
10
116.774
20
-92.1954
11
116.727
21
-92.2906
0
LINE
8
BLACK
6
CONTINUOUS
10
116.727
20
-92.2906
11
116.631
21
-92.3382
0
LINE
8
BLACK
6
CONTINUOUS
10
116.631
20
-92.3382
11
116.108
21
-92.3382
0
LINE
8
BLACK
6
CONTINUOUS
10
116.108
20
-92.8144
11
116.774
21
-92.8144
0
LINE
8
BLACK
6
CONTINUOUS
10
116.679
20
-92.8144
11
116.727
21
-92.862
0
LINE
8
BLACK
6
CONTINUOUS
10
116.727
20
-92.862
11
116.774
21
-92.9573
0
LINE
8
BLACK
6
CONTINUOUS
10
116.774
20
-92.9573
11
116.774
21
-93.1001
0
LINE
8
BLACK
6
CONTINUOUS
10
116.774
20
-93.1001
11
116.727
21
-93.1954
0
LINE
8
BLACK
6
CONTINUOUS
10
116.727
20
-93.1954
11
116.631
21
-93.243
0
LINE
8
BLACK
6
CONTINUOUS
10
116.631
20
-93.243
11
116.108
21
-93.243
0
LINE
8
BLACK
6
CONTINUOUS
10
116.631
20
-93.243
11
116.727
21
-93.2906
0
LINE
8
BLACK
6
CONTINUOUS
10
116.727
20
-93.2906
11
116.774
21
-93.3858
0
LINE
8
BLACK
6
CONTINUOUS
10
116.774
20
-93.3858
11
116.774
21
-93.5287
0
LINE
8
BLACK
6
CONTINUOUS
10
116.774
20
-93.5287
11
116.727
21
-93.6239
0
LINE
8
BLACK
6
CONTINUOUS
10
116.727
20
-93.6239
11
116.631
21
-93.6715
0
LINE
8
BLACK
6
CONTINUOUS
10
116.631
20
-93.6715
11
116.108
21
-93.6715
0
LINE
8
BLACK
6
CONTINUOUS
10
117.76
20
-85.775
11
117.76
21
-94.33
0
LINE
8
BLACK
6
CONTINUOUS
10
118.14
20
-85.775
11
117.174
21
-85.775
0
LINE
8
BLACK
6
CONTINUOUS
10
118.14
20
-94.33
11
117.174
21
-94.33
0
LINE
8
BLACK
6
CONTINUOUS
10
117.76
20
-94.33
11
117.174
21
-93.2035
0
LINE
8
BLACK
6
CONTINUOUS
10
117.76
20
-94.33
11
118.346
21
-93.2035
0
LINE
8
BLACK
6
CONTINUOUS
10
117.76
20
-85.775
11
117.174
21
-86.9015
0
LINE
8
BLACK
6
CONTINUOUS
10
117.76
20
-85.775
11
118.346
21
-86.9015
0
LINE
8
BLACK
6
CONTINUOUS
10
0.457392
20
-96.9376
11
0.505011
21
-96.89
0
LINE
8
BLACK
6
CONTINUOUS
10
0.505011
20
-96.89
11
0.60025
21
-96.8424
0
LINE
8
BLACK
6
CONTINUOUS
10
0.60025
20
-96.8424
11
0.838345
21
-96.8424
0
LINE
8
BLACK
6
CONTINUOUS
10
0.838345
20
-96.8424
11
0.933583
21
-96.89
0
LINE
8
BLACK
6
CONTINUOUS
10
0.933583
20
-96.89
11
0.981202
21
-96.9376
0
LINE
8
BLACK
6
CONTINUOUS
10
0.981202
20
-96.9376
11
1.02882
21
-97.0329
0
LINE
8
BLACK
6
CONTINUOUS
10
1.02882
20
-97.0329
11
1.02882
21
-97.1281
0
LINE
8
BLACK
6
CONTINUOUS
10
1.02882
20
-97.1281
11
0.981202
21
-97.271
0
LINE
8
BLACK
6
CONTINUOUS
10
0.981202
20
-97.271
11
0.409773
21
-97.8424
0
LINE
8
BLACK
6
CONTINUOUS
10
0.409773
20
-97.8424
11
1.02882
21
-97.8424
0
LINE
8
BLACK
6
CONTINUOUS
10
1.93358
20
-96.8424
11
1.45739
21
-96.8424
0
LINE
8
BLACK
6
CONTINUOUS
10
1.45739
20
-96.8424
11
1.40977
21
-97.3186
0
LINE
8
BLACK
6
CONTINUOUS
10
1.40977
20
-97.3186
11
1.45739
21
-97.271
0
LINE
8
BLACK
6
CONTINUOUS
10
1.45739
20
-97.271
11
1.55263
21
-97.2233
0
LINE
8
BLACK
6
CONTINUOUS
10
1.55263
20
-97.2233
11
1.79073
21
-97.2233
0
LINE
8
BLACK
6
CONTINUOUS
10
1.79073
20
-97.2233
11
1.88596
21
-97.271
0
LINE
8
BLACK
6
CONTINUOUS
10
1.88596
20
-97.271
11
1.93358
21
-97.3186
0
LINE
8
BLACK
6
CONTINUOUS
10
1.93358
20
-97.3186
11
1.9812
21
-97.4138
0
LINE
8
BLACK
6
CONTINUOUS
10
1.9812
20
-97.4138
11
1.9812
21
-97.6519
0
LINE
8
BLACK
6
CONTINUOUS
10
1.9812
20
-97.6519
11
1.93358
21
-97.7471
0
LINE
8
BLACK
6
CONTINUOUS
10
1.93358
20
-97.7471
11
1.88596
21
-97.7948
0
LINE
8
BLACK
6
CONTINUOUS
10
1.88596
20
-97.7948
11
1.79073
21
-97.8424
0
LINE
8
BLACK
6
CONTINUOUS
10
1.79073
20
-97.8424
11
1.55263
21
-97.8424
0
LINE
8
BLACK
6
CONTINUOUS
10
1.55263
20
-97.8424
11
1.45739
21
-97.7948
0
LINE
8
BLACK
6
CONTINUOUS
10
1.45739
20
-97.7948
11
1.40977
21
-97.7471
0
LINE
8
BLACK
6
CONTINUOUS
10
2.40977
20
-97.7471
11
2.45739
21
-97.7948
0
LINE
8
BLACK
6
CONTINUOUS
10
2.45739
20
-97.7948
11
2.40977
21
-97.8424
0
LINE
8
BLACK
6
CONTINUOUS
10
2.40977
20
-97.8424
11
2.36215
21
-97.7948
0
LINE
8
BLACK
6
CONTINUOUS
10
2.36215
20
-97.7948
11
2.40977
21
-97.7471
0
LINE
8
BLACK
6
CONTINUOUS
10
2.40977
20
-97.7471
11
2.40977
21
-97.8424
0
LINE
8
BLACK
6
CONTINUOUS
10
2.93358
20
-97.8424
11
3.12406
21
-97.8424
0
LINE
8
BLACK
6
CONTINUOUS
10
3.12406
20
-97.8424
11
3.2193
21
-97.7948
0
LINE
8
BLACK
6
CONTINUOUS
10
3.2193
20
-97.7948
11
3.26692
21
-97.7471
0
LINE
8
BLACK
6
CONTINUOUS
10
3.26692
20
-97.7471
11
3.36215
21
-97.6043
0
LINE
8
BLACK
6
CONTINUOUS
10
3.36215
20
-97.6043
11
3.40977
21
-97.4138
0
LINE
8
BLACK
6
CONTINUOUS
10
3.40977
20
-97.4138
11
3.40977
21
-97.0329
0
LINE
8
BLACK
6
CONTINUOUS
10
3.40977
20
-97.0329
11
3.36215
21
-96.9376
0
LINE
8
BLACK
6
CONTINUOUS
10
3.36215
20
-96.9376
11
3.31453
21
-96.89
0
LINE
8
BLACK
6
CONTINUOUS
10
3.31453
20
-96.89
11
3.2193
21
-96.8424
0
LINE
8
BLACK
6
CONTINUOUS
10
3.2193
20
-96.8424
11
3.02882
21
-96.8424
0
LINE
8
BLACK
6
CONTINUOUS
10
3.02882
20
-96.8424
11
2.93358
21
-96.89
0
LINE
8
BLACK
6
CONTINUOUS
10
2.93358
20
-96.89
11
2.88596
21
-96.9376
0
LINE
8
BLACK
6
CONTINUOUS
10
2.88596
20
-96.9376
11
2.83834
21
-97.0329
0
LINE
8
BLACK
6
CONTINUOUS
10
2.83834
20
-97.0329
11
2.83834
21
-97.271
0
LINE
8
BLACK
6
CONTINUOUS
10
2.83834
20
-97.271
11
2.88596
21
-97.3662
0
LINE
8
BLACK
6
CONTINUOUS
10
2.88596
20
-97.3662
11
2.93358
21
-97.4138
0
LINE
8
BLACK
6
CONTINUOUS
10
2.93358
20
-97.4138
11
3.02882
21
-97.4614
0
LINE
8
BLACK
6
CONTINUOUS
10
3.02882
20
-97.4614
11
3.2193
21
-97.4614
0
LINE
8
BLACK
6
CONTINUOUS
10
3.2193
20
-97.4614
11
3.31453
21
-97.4138
0
LINE
8
BLACK
6
CONTINUOUS
10
3.31453
20
-97.4138
11
3.36215
21
-97.3662
0
LINE
8
BLACK
6
CONTINUOUS
10
3.36215
20
-97.3662
11
3.40977
21
-97.271
0
LINE
8
BLACK
6
CONTINUOUS
10
4.31454
20
-96.8424
11
3.83834
21
-96.8424
0
LINE
8
BLACK
6
CONTINUOUS
10
3.83834
20
-96.8424
11
3.79073
21
-97.3186
0
LINE
8
BLACK
6
CONTINUOUS
10
3.79073
20
-97.3186
11
3.83834
21
-97.271
0
LINE
8
BLACK
6
CONTINUOUS
10
3.83834
20
-97.271
11
3.93358
21
-97.2233
0
LINE
8
BLACK
6
CONTINUOUS
10
3.93358
20
-97.2233
11
4.17168
21
-97.2233
0
LINE
8
BLACK
6
CONTINUOUS
10
4.17168
20
-97.2233
11
4.26692
21
-97.271
0
LINE
8
BLACK
6
CONTINUOUS
10
4.26692
20
-97.271
11
4.31454
21
-97.3186
0
LINE
8
BLACK
6
CONTINUOUS
10
4.31454
20
-97.3186
11
4.36215
21
-97.4138
0
LINE
8
BLACK
6
CONTINUOUS
10
4.36215
20
-97.4138
11
4.36215
21
-97.6519
0
LINE
8
BLACK
6
CONTINUOUS
10
4.36215
20
-97.6519
11
4.31454
21
-97.7471
0
LINE
8
BLACK
6
CONTINUOUS
10
4.31454
20
-97.7471
11
4.26692
21
-97.7948
0
LINE
8
BLACK
6
CONTINUOUS
10
4.26692
20
-97.7948
11
4.17168
21
-97.8424
0
LINE
8
BLACK
6
CONTINUOUS
10
4.17168
20
-97.8424
11
3.93358
21
-97.8424
0
LINE
8
BLACK
6
CONTINUOUS
10
3.93358
20
-97.8424
11
3.83834
21
-97.7948
0
LINE
8
BLACK
6
CONTINUOUS
10
3.83834
20
-97.7948
11
3.79073
21
-97.7471
0
LINE
8
BLACK
6
CONTINUOUS
10
4.9812
20
-96.8424
11
5.07644
21
-96.8424
0
LINE
8
BLACK
6
CONTINUOUS
10
5.07644
20
-96.8424
11
5.17168
21
-96.89
0
LINE
8
BLACK
6
CONTINUOUS
10
5.17168
20
-96.89
11
5.2193
21
-96.9376
0
LINE
8
BLACK
6
CONTINUOUS
10
5.2193
20
-96.9376
11
5.26692
21
-97.0329
0
LINE
8
BLACK
6
CONTINUOUS
10
5.26692
20
-97.0329
11
5.31453
21
-97.2233
0
LINE
8
BLACK
6
CONTINUOUS
10
5.31453
20
-97.2233
11
5.31453
21
-97.4614
0
LINE
8
BLACK
6
CONTINUOUS
10
5.31453
20
-97.4614
11
5.26692
21
-97.6519
0
LINE
8
BLACK
6
CONTINUOUS
10
5.26692
20
-97.6519
11
5.2193
21
-97.7471
0
LINE
8
BLACK
6
CONTINUOUS
10
5.2193
20
-97.7471
11
5.17168
21
-97.7948
0
LINE
8
BLACK
6
CONTINUOUS
10
5.17168
20
-97.7948
11
5.07644
21
-97.8424
0
LINE
8
BLACK
6
CONTINUOUS
10
5.07644
20
-97.8424
11
4.9812
21
-97.8424
0
LINE
8
BLACK
6
CONTINUOUS
10
4.9812
20
-97.8424
11
4.88596
21
-97.7948
0
LINE
8
BLACK
6
CONTINUOUS
10
4.88596
20
-97.7948
11
4.83834
21
-97.7471
0
LINE
8
BLACK
6
CONTINUOUS
10
4.83834
20
-97.7471
11
4.79073
21
-97.6519
0
LINE
8
BLACK
6
CONTINUOUS
10
4.79073
20
-97.6519
11
4.74311
21
-97.4614
0
LINE
8
BLACK
6
CONTINUOUS
10
4.74311
20
-97.4614
11
4.74311
21
-97.2233
0
LINE
8
BLACK
6
CONTINUOUS
10
4.74311
20
-97.2233
11
4.79073
21
-97.0329
0
LINE
8
BLACK
6
CONTINUOUS
10
4.79073
20
-97.0329
11
4.83834
21
-96.9376
0
LINE
8
BLACK
6
CONTINUOUS
10
4.83834
20
-96.9376
11
4.88596
21
-96.89
0
LINE
8
BLACK
6
CONTINUOUS
10
4.88596
20
-96.89
11
4.9812
21
-96.8424
0
LINE
8
BLACK
6
CONTINUOUS
10
6.50501
20
-97.8424
11
6.50501
21
-97.1757
0
LINE
8
BLACK
6
CONTINUOUS
10
6.50501
20
-97.271
11
6.55263
21
-97.2233
0
LINE
8
BLACK
6
CONTINUOUS
10
6.55263
20
-97.2233
11
6.64787
21
-97.1757
0
LINE
8
BLACK
6
CONTINUOUS
10
6.64787
20
-97.1757
11
6.79073
21
-97.1757
0
LINE
8
BLACK
6
CONTINUOUS
10
6.79073
20
-97.1757
11
6.88596
21
-97.2233
0
LINE
8
BLACK
6
CONTINUOUS
10
6.88596
20
-97.2233
11
6.93358
21
-97.3186
0
LINE
8
BLACK
6
CONTINUOUS
10
6.93358
20
-97.3186
11
6.93358
21
-97.8424
0
LINE
8
BLACK
6
CONTINUOUS
10
6.93358
20
-97.3186
11
6.9812
21
-97.2233
0
LINE
8
BLACK
6
CONTINUOUS
10
6.9812
20
-97.2233
11
7.07644
21
-97.1757
0
LINE
8
BLACK
6
CONTINUOUS
10
7.07644
20
-97.1757
11
7.2193
21
-97.1757
0
LINE
8
BLACK
6
CONTINUOUS
10
7.2193
20
-97.1757
11
7.31453
21
-97.2233
0
LINE
8
BLACK
6
CONTINUOUS
10
7.31453
20
-97.2233
11
7.36215
21
-97.3186
0
LINE
8
BLACK
6
CONTINUOUS
10
7.36215
20
-97.3186
11
7.36215
21
-97.8424
0
LINE
8
BLACK
6
CONTINUOUS
10
7.83834
20
-97.8424
11
7.83834
21
-97.1757
0
LINE
8
BLACK
6
CONTINUOUS
10
7.83834
20
-97.271
11
7.88596
21
-97.2233
0
LINE
8
BLACK
6
CONTINUOUS
10
7.88596
20
-97.2233
11
7.9812
21
-97.1757
0
LINE
8
BLACK
6
CONTINUOUS
10
7.9812
20
-97.1757
11
8.12406
21
-97.1757
0
LINE
8
BLACK
6
CONTINUOUS
10
8.12406
20
-97.1757
11
8.2193
21
-97.2233
0
LINE
8
BLACK
6
CONTINUOUS
10
8.2193
20
-97.2233
11
8.26692
21
-97.3186
0
LINE
8
BLACK
6
CONTINUOUS
10
8.26692
20
-97.3186
11
8.26692
21
-97.8424
0
LINE
8
BLACK
6
CONTINUOUS
10
8.26692
20
-97.3186
11
8.31453
21
-97.2233
0
LINE
8
BLACK
6
CONTINUOUS
10
8.31453
20
-97.2233
11
8.40977
21
-97.1757
0
LINE
8
BLACK
6
CONTINUOUS
10
8.40977
20
-97.1757
11
8.55263
21
-97.1757
0
LINE
8
BLACK
6
CONTINUOUS
10
8.55263
20
-97.1757
11
8.64787
21
-97.2233
0
LINE
8
BLACK
6
CONTINUOUS
10
8.64787
20
-97.2233
11
8.69549
21
-97.3186
0
LINE
8
BLACK
6
CONTINUOUS
10
8.69549
20
-97.3186
11
8.69549
21
-97.8424
0
LINE
8
BLACK
6
CONTINUOUS
10
17.575
20
-96.19
11
-8.3745
21
-96.19
0
LINE
8
BLACK
6
CONTINUOUS
10
17.575
20
-95.835
11
17.575
21
-96.7764
0
LINE
8
BLACK
6
CONTINUOUS
10
-8.3745
20
-95.835
11
-8.3745
21
-96.7764
0
LINE
8
BLACK
6
CONTINUOUS
10
-8.3745
20
-96.19
11
-7.248
21
-95.6036
0
LINE
8
BLACK
6
CONTINUOUS
10
-8.3745
20
-96.19
11
-7.248
21
-96.7764
0
LINE
8
BLACK
6
CONTINUOUS
10
17.575
20
-96.19
11
16.4485
21
-95.6036
0
LINE
8
BLACK
6
CONTINUOUS
10
17.575
20
-96.19
11
16.4485
21
-96.7764
0
LINE
8
BLACK
6
CONTINUOUS
10
-12.831
20
-48.0001
11
-12.7833
21
-47.9049
0
LINE
8
BLACK
6
CONTINUOUS
10
-12.7833
20
-47.9049
11
-12.7357
21
-47.8573
0
LINE
8
BLACK
6
CONTINUOUS
10
-12.7357
20
-47.8573
11
-12.6405
21
-47.8096
0
LINE
8
BLACK
6
CONTINUOUS
10
-12.6405
20
-47.8096
11
-12.5929
21
-47.8096
0
LINE
8
BLACK
6
CONTINUOUS
10
-12.5929
20
-47.8096
11
-12.4976
21
-47.8573
0
LINE
8
BLACK
6
CONTINUOUS
10
-12.4976
20
-47.8573
11
-12.45
21
-47.9049
0
LINE
8
BLACK
6
CONTINUOUS
10
-12.45
20
-47.9049
11
-12.4024
21
-48.0001
0
LINE
8
BLACK
6
CONTINUOUS
10
-12.4024
20
-48.0001
11
-12.4024
21
-48.1906
0
LINE
8
BLACK
6
CONTINUOUS
10
-12.4024
20
-48.1906
11
-12.45
21
-48.2858
0
LINE
8
BLACK
6
CONTINUOUS
10
-12.45
20
-48.2858
11
-12.4976
21
-48.3335
0
LINE
8
BLACK
6
CONTINUOUS
10
-12.4976
20
-48.3335
11
-12.5929
21
-48.3811
0
LINE
8
BLACK
6
CONTINUOUS
10
-12.5929
20
-48.3811
11
-12.6405
21
-48.3811
0
LINE
8
BLACK
6
CONTINUOUS
10
-12.6405
20
-48.3811
11
-12.7357
21
-48.3335
0
LINE
8
BLACK
6
CONTINUOUS
10
-12.7357
20
-48.3335
11
-12.7833
21
-48.2858
0
LINE
8
BLACK
6
CONTINUOUS
10
-12.7833
20
-48.2858
11
-12.831
21
-48.1906
0
LINE
8
BLACK
6
CONTINUOUS
10
-12.831
20
-48.1906
11
-12.831
21
-48.0001
0
LINE
8
BLACK
6
CONTINUOUS
10
-12.831
20
-48.0001
11
-12.8786
21
-47.9049
0
LINE
8
BLACK
6
CONTINUOUS
10
-12.8786
20
-47.9049
11
-12.9262
21
-47.8573
0
LINE
8
BLACK
6
CONTINUOUS
10
-12.9262
20
-47.8573
11
-13.0214
21
-47.8096
0
LINE
8
BLACK
6
CONTINUOUS
10
-13.0214
20
-47.8096
11
-13.2119
21
-47.8096
0
LINE
8
BLACK
6
CONTINUOUS
10
-13.2119
20
-47.8096
11
-13.3071
21
-47.8573
0
LINE
8
BLACK
6
CONTINUOUS
10
-13.3071
20
-47.8573
11
-13.3548
21
-47.9049
0
LINE
8
BLACK
6
CONTINUOUS
10
-13.3548
20
-47.9049
11
-13.4024
21
-48.0001
0
LINE
8
BLACK
6
CONTINUOUS
10
-13.4024
20
-48.0001
11
-13.4024
21
-48.1906
0
LINE
8
BLACK
6
CONTINUOUS
10
-13.4024
20
-48.1906
11
-13.3548
21
-48.2858
0
LINE
8
BLACK
6
CONTINUOUS
10
-13.3548
20
-48.2858
11
-13.3071
21
-48.3335
0
LINE
8
BLACK
6
CONTINUOUS
10
-13.3071
20
-48.3335
11
-13.2119
21
-48.3811
0
LINE
8
BLACK
6
CONTINUOUS
10
-13.2119
20
-48.3811
11
-13.0214
21
-48.3811
0
LINE
8
BLACK
6
CONTINUOUS
10
-13.0214
20
-48.3811
11
-12.9262
21
-48.3335
0
LINE
8
BLACK
6
CONTINUOUS
10
-12.9262
20
-48.3335
11
-12.8786
21
-48.2858
0
LINE
8
BLACK
6
CONTINUOUS
10
-12.8786
20
-48.2858
11
-12.831
21
-48.1906
0
LINE
8
BLACK
6
CONTINUOUS
10
-12.7357
20
-49.2382
11
-13.4024
21
-49.2382
0
LINE
8
BLACK
6
CONTINUOUS
10
-12.3548
20
-49.0001
11
-13.069
21
-48.762
0
LINE
8
BLACK
6
CONTINUOUS
10
-13.069
20
-48.762
11
-13.069
21
-49.3811
0
LINE
8
BLACK
6
CONTINUOUS
10
-13.3071
20
-49.762
11
-13.3548
21
-49.8096
0
LINE
8
BLACK
6
CONTINUOUS
10
-13.3548
20
-49.8096
11
-13.4024
21
-49.762
0
LINE
8
BLACK
6
CONTINUOUS
10
-13.4024
20
-49.762
11
-13.3548
21
-49.7144
0
LINE
8
BLACK
6
CONTINUOUS
10
-13.3548
20
-49.7144
11
-13.3071
21
-49.762
0
LINE
8
BLACK
6
CONTINUOUS
10
-13.3071
20
-49.762
11
-13.4024
21
-49.762
0
LINE
8
BLACK
6
CONTINUOUS
10
-12.4024
20
-50.143
11
-12.4024
21
-50.8096
0
LINE
8
BLACK
6
CONTINUOUS
10
-12.4024
20
-50.8096
11
-13.4024
21
-50.3811
0
LINE
8
BLACK
6
CONTINUOUS
10
-12.4024
20
-51.6668
11
-12.4024
21
-51.1906
0
LINE
8
BLACK
6
CONTINUOUS
10
-12.4024
20
-51.1906
11
-12.8786
21
-51.143
0
LINE
8
BLACK
6
CONTINUOUS
10
-12.8786
20
-51.143
11
-12.831
21
-51.1906
0
LINE
8
BLACK
6
CONTINUOUS
10
-12.831
20
-51.1906
11
-12.7833
21
-51.2858
0
LINE
8
BLACK
6
CONTINUOUS
10
-12.7833
20
-51.2858
11
-12.7833
21
-51.5239
0
LINE
8
BLACK
6
CONTINUOUS
10
-12.7833
20
-51.5239
11
-12.831
21
-51.6192
0
LINE
8
BLACK
6
CONTINUOUS
10
-12.831
20
-51.6192
11
-12.8786
21
-51.6668
0
LINE
8
BLACK
6
CONTINUOUS
10
-12.8786
20
-51.6668
11
-12.9738
21
-51.7144
0
LINE
8
BLACK
6
CONTINUOUS
10
-12.9738
20
-51.7144
11
-13.2119
21
-51.7144
0
LINE
8
BLACK
6
CONTINUOUS
10
-13.2119
20
-51.7144
11
-13.3071
21
-51.6668
0
LINE
8
BLACK
6
CONTINUOUS
10
-13.3071
20
-51.6668
11
-13.3548
21
-51.6192
0
LINE
8
BLACK
6
CONTINUOUS
10
-13.3548
20
-51.6192
11
-13.4024
21
-51.5239
0
LINE
8
BLACK
6
CONTINUOUS
10
-13.4024
20
-51.5239
11
-13.4024
21
-51.2858
0
LINE
8
BLACK
6
CONTINUOUS
10
-13.4024
20
-51.2858
11
-13.3548
21
-51.1906
0
LINE
8
BLACK
6
CONTINUOUS
10
-13.3548
20
-51.1906
11
-13.3071
21
-51.143
0
LINE
8
BLACK
6
CONTINUOUS
10
-12.4024
20
-52.6192
11
-12.4024
21
-52.143
0
LINE
8
BLACK
6
CONTINUOUS
10
-12.4024
20
-52.143
11
-12.8786
21
-52.0954
0
LINE
8
BLACK
6
CONTINUOUS
10
-12.8786
20
-52.0954
11
-12.831
21
-52.143
0
LINE
8
BLACK
6
CONTINUOUS
10
-12.831
20
-52.143
11
-12.7833
21
-52.2382
0
LINE
8
BLACK
6
CONTINUOUS
10
-12.7833
20
-52.2382
11
-12.7833
21
-52.4763
0
LINE
8
BLACK
6
CONTINUOUS
10
-12.7833
20
-52.4763
11
-12.831
21
-52.5715
0
LINE
8
BLACK
6
CONTINUOUS
10
-12.831
20
-52.5715
11
-12.8786
21
-52.6192
0
LINE
8
BLACK
6
CONTINUOUS
10
-12.8786
20
-52.6192
11
-12.9738
21
-52.6668
0
LINE
8
BLACK
6
CONTINUOUS
10
-12.9738
20
-52.6668
11
-13.2119
21
-52.6668
0
LINE
8
BLACK
6
CONTINUOUS
10
-13.2119
20
-52.6668
11
-13.3071
21
-52.6192
0
LINE
8
BLACK
6
CONTINUOUS
10
-13.3071
20
-52.6192
11
-13.3548
21
-52.5715
0
LINE
8
BLACK
6
CONTINUOUS
10
-13.3548
20
-52.5715
11
-13.4024
21
-52.4763
0
LINE
8
BLACK
6
CONTINUOUS
10
-13.4024
20
-52.4763
11
-13.4024
21
-52.2382
0
LINE
8
BLACK
6
CONTINUOUS
10
-13.4024
20
-52.2382
11
-13.3548
21
-52.143
0
LINE
8
BLACK
6
CONTINUOUS
10
-13.3548
20
-52.143
11
-13.3071
21
-52.0954
0
LINE
8
BLACK
6
CONTINUOUS
10
-13.4024
20
-53.8573
11
-12.7357
21
-53.8573
0
LINE
8
BLACK
6
CONTINUOUS
10
-12.831
20
-53.8573
11
-12.7833
21
-53.9049
0
LINE
8
BLACK
6
CONTINUOUS
10
-12.7833
20
-53.9049
11
-12.7357
21
-54.0001
0
LINE
8
BLACK
6
CONTINUOUS
10
-12.7357
20
-54.0001
11
-12.7357
21
-54.143
0
LINE
8
BLACK
6
CONTINUOUS
10
-12.7357
20
-54.143
11
-12.7833
21
-54.2382
0
LINE
8
BLACK
6
CONTINUOUS
10
-12.7833
20
-54.2382
11
-12.8786
21
-54.2858
0
LINE
8
BLACK
6
CONTINUOUS
10
-12.8786
20
-54.2858
11
-13.4024
21
-54.2858
0
LINE
8
BLACK
6
CONTINUOUS
10
-12.8786
20
-54.2858
11
-12.7833
21
-54.3335
0
LINE
8
BLACK
6
CONTINUOUS
10
-12.7833
20
-54.3335
11
-12.7357
21
-54.4287
0
LINE
8
BLACK
6
CONTINUOUS
10
-12.7357
20
-54.4287
11
-12.7357
21
-54.5715
0
LINE
8
BLACK
6
CONTINUOUS
10
-12.7357
20
-54.5715
11
-12.7833
21
-54.6668
0
LINE
8
BLACK
6
CONTINUOUS
10
-12.7833
20
-54.6668
11
-12.8786
21
-54.7144
0
LINE
8
BLACK
6
CONTINUOUS
10
-12.8786
20
-54.7144
11
-13.4024
21
-54.7144
0
LINE
8
BLACK
6
CONTINUOUS
10
-13.4024
20
-55.1906
11
-12.7357
21
-55.1906
0
LINE
8
BLACK
6
CONTINUOUS
10
-12.831
20
-55.1906
11
-12.7833
21
-55.2382
0
LINE
8
BLACK
6
CONTINUOUS
10
-12.7833
20
-55.2382
11
-12.7357
21
-55.3335
0
LINE
8
BLACK
6
CONTINUOUS
10
-12.7357
20
-55.3335
11
-12.7357
21
-55.4763
0
LINE
8
BLACK
6
CONTINUOUS
10
-12.7357
20
-55.4763
11
-12.7833
21
-55.5715
0
LINE
8
BLACK
6
CONTINUOUS
10
-12.7833
20
-55.5715
11
-12.8786
21
-55.6192
0
LINE
8
BLACK
6
CONTINUOUS
10
-12.8786
20
-55.6192
11
-13.4024
21
-55.6192
0
LINE
8
BLACK
6
CONTINUOUS
10
-12.8786
20
-55.6192
11
-12.7833
21
-55.6668
0
LINE
8
BLACK
6
CONTINUOUS
10
-12.7833
20
-55.6668
11
-12.7357
21
-55.762
0
LINE
8
BLACK
6
CONTINUOUS
10
-12.7357
20
-55.762
11
-12.7357
21
-55.9049
0
LINE
8
BLACK
6
CONTINUOUS
10
-12.7357
20
-55.9049
11
-12.7833
21
-56.0001
0
LINE
8
BLACK
6
CONTINUOUS
10
-12.7833
20
-56.0001
11
-12.8786
21
-56.0477
0
LINE
8
BLACK
6
CONTINUOUS
10
-12.8786
20
-56.0477
11
-13.4024
21
-56.0477
0
LINE
8
BLACK
6
CONTINUOUS
10
-11.75
20
-9.575
11
-11.75
21
-94.33
0
LINE
8
BLACK
6
CONTINUOUS
10
-9.82
20
-9.575
11
-12.3364
21
-9.575
0
LINE
8
BLACK
6
CONTINUOUS
10
-9.82
20
-94.33
11
-12.3364
21
-94.33
0
LINE
8
BLACK
6
CONTINUOUS
10
-11.75
20
-94.33
11
-12.3364
21
-93.2035
0
LINE
8
BLACK
6
CONTINUOUS
10
-11.75
20
-94.33
11
-11.1636
21
-93.2035
0
LINE
8
BLACK
6
CONTINUOUS
10
-11.75
20
-9.575
11
-12.3364
21
-10.7015
0
LINE
8
BLACK
6
CONTINUOUS
10
-11.75
20
-9.575
11
-11.1636
21
-10.7015
0
LINE
8
BLACK
6
CONTINUOUS
10
17.02
20
-94.33
11
-7.8795
21
-94.33
0
LINE
8
BLACK
6
CONTINUOUS
10
17.575
20
-93.835
11
17.575
21
-86.27
0
ARC
8
BLACK
10
-7.8495
20
-93.805
40
0.525856
50
-183.27
51
-93.2705
0
ARC
8
BLACK
10
17.05
20
-93.805
40
0.525856
50
-93.2705
51
-3.27049
0
ARC
8
BLACK
10
18.105
20
-86.305
40
0.531154
50
86.2218
51
176.222
0
LINE
8
BLACK
6
CONTINUOUS
10
131.358
20
-43.487
11
131.358
21
-44.1537
0
LINE
8
BLACK
6
CONTINUOUS
10
131.358
20
-44.1537
11
130.358
21
-43.7251
0
LINE
8
BLACK
6
CONTINUOUS
10
131.358
20
-44.9632
11
131.358
21
-44.7727
0
LINE
8
BLACK
6
CONTINUOUS
10
131.358
20
-44.7727
11
131.31
21
-44.6775
0
LINE
8
BLACK
6
CONTINUOUS
10
131.31
20
-44.6775
11
131.262
21
-44.6299
0
LINE
8
BLACK
6
CONTINUOUS
10
131.262
20
-44.6299
11
131.12
21
-44.5346
0
LINE
8
BLACK
6
CONTINUOUS
10
131.12
20
-44.5346
11
130.929
21
-44.487
0
LINE
8
BLACK
6
CONTINUOUS
10
130.929
20
-44.487
11
130.548
21
-44.487
0
LINE
8
BLACK
6
CONTINUOUS
10
130.548
20
-44.487
11
130.453
21
-44.5346
0
LINE
8
BLACK
6
CONTINUOUS
10
130.453
20
-44.5346
11
130.405
21
-44.5823
0
LINE
8
BLACK
6
CONTINUOUS
10
130.405
20
-44.5823
11
130.358
21
-44.6775
0
LINE
8
BLACK
6
CONTINUOUS
10
130.358
20
-44.6775
11
130.358
21
-44.868
0
LINE
8
BLACK
6
CONTINUOUS
10
130.358
20
-44.868
11
130.405
21
-44.9632
0
LINE
8
BLACK
6
CONTINUOUS
10
130.405
20
-44.9632
11
130.453
21
-45.0108
0
LINE
8
BLACK
6
CONTINUOUS
10
130.453
20
-45.0108
11
130.548
21
-45.0585
0
LINE
8
BLACK
6
CONTINUOUS
10
130.548
20
-45.0585
11
130.786
21
-45.0585
0
LINE
8
BLACK
6
CONTINUOUS
10
130.786
20
-45.0585
11
130.881
21
-45.0108
0
LINE
8
BLACK
6
CONTINUOUS
10
130.881
20
-45.0108
11
130.929
21
-44.9632
0
LINE
8
BLACK
6
CONTINUOUS
10
130.929
20
-44.9632
11
130.977
21
-44.868
0
LINE
8
BLACK
6
CONTINUOUS
10
130.977
20
-44.868
11
130.977
21
-44.6775
0
LINE
8
BLACK
6
CONTINUOUS
10
130.977
20
-44.6775
11
130.929
21
-44.5823
0
LINE
8
BLACK
6
CONTINUOUS
10
130.929
20
-44.5823
11
130.881
21
-44.5346
0
LINE
8
BLACK
6
CONTINUOUS
10
130.881
20
-44.5346
11
130.786
21
-44.487
0
LINE
8
BLACK
6
CONTINUOUS
10
130.453
20
-45.487
11
130.405
21
-45.5346
0
LINE
8
BLACK
6
CONTINUOUS
10
130.405
20
-45.5346
11
130.358
21
-45.487
0
LINE
8
BLACK
6
CONTINUOUS
10
130.358
20
-45.487
11
130.405
21
-45.4394
0
LINE
8
BLACK
6
CONTINUOUS
10
130.405
20
-45.4394
11
130.453
21
-45.487
0
LINE
8
BLACK
6
CONTINUOUS
10
130.453
20
-45.487
11
130.358
21
-45.487
0
LINE
8
BLACK
6
CONTINUOUS
10
131.262
20
-45.9156
11
131.31
21
-45.9632
0
LINE
8
BLACK
6
CONTINUOUS
10
131.31
20
-45.9632
11
131.358
21
-46.0585
0
LINE
8
BLACK
6
CONTINUOUS
10
131.358
20
-46.0585
11
131.358
21
-46.2965
0
LINE
8
BLACK
6
CONTINUOUS
10
131.358
20
-46.2965
11
131.31
21
-46.3918
0
LINE
8
BLACK
6
CONTINUOUS
10
131.31
20
-46.3918
11
131.262
21
-46.4394
0
LINE
8
BLACK
6
CONTINUOUS
10
131.262
20
-46.4394
11
131.167
21
-46.487
0
LINE
8
BLACK
6
CONTINUOUS
10
131.167
20
-46.487
11
131.072
21
-46.487
0
LINE
8
BLACK
6
CONTINUOUS
10
131.072
20
-46.487
11
130.929
21
-46.4394
0
LINE
8
BLACK
6
CONTINUOUS
10
130.929
20
-46.4394
11
130.358
21
-45.868
0
LINE
8
BLACK
6
CONTINUOUS
10
130.358
20
-45.868
11
130.358
21
-46.487
0
LINE
8
BLACK
6
CONTINUOUS
10
131.358
20
-47.1061
11
131.358
21
-47.2013
0
LINE
8
BLACK
6
CONTINUOUS
10
131.358
20
-47.2013
11
131.31
21
-47.2965
0
LINE
8
BLACK
6
CONTINUOUS
10
131.31
20
-47.2965
11
131.262
21
-47.3442
0
LINE
8
BLACK
6
CONTINUOUS
10
131.262
20
-47.3442
11
131.167
21
-47.3918
0
LINE
8
BLACK
6
CONTINUOUS
10
131.167
20
-47.3918
11
130.977
21
-47.4394
0
LINE
8
BLACK
6
CONTINUOUS
10
130.977
20
-47.4394
11
130.739
21
-47.4394
0
LINE
8
BLACK
6
CONTINUOUS
10
130.739
20
-47.4394
11
130.548
21
-47.3918
0
LINE
8
BLACK
6
CONTINUOUS
10
130.548
20
-47.3918
11
130.453
21
-47.3442
0
LINE
8
BLACK
6
CONTINUOUS
10
130.453
20
-47.3442
11
130.405
21
-47.2965
0
LINE
8
BLACK
6
CONTINUOUS
10
130.405
20
-47.2965
11
130.358
21
-47.2013
0
LINE
8
BLACK
6
CONTINUOUS
10
130.358
20
-47.2013
11
130.358
21
-47.1061
0
LINE
8
BLACK
6
CONTINUOUS
10
130.358
20
-47.1061
11
130.405
21
-47.0108
0
LINE
8
BLACK
6
CONTINUOUS
10
130.405
20
-47.0108
11
130.453
21
-46.9632
0
LINE
8
BLACK
6
CONTINUOUS
10
130.453
20
-46.9632
11
130.548
21
-46.9156
0
LINE
8
BLACK
6
CONTINUOUS
10
130.548
20
-46.9156
11
130.739
21
-46.868
0
LINE
8
BLACK
6
CONTINUOUS
10
130.739
20
-46.868
11
130.977
21
-46.868
0
LINE
8
BLACK
6
CONTINUOUS
10
130.977
20
-46.868
11
131.167
21
-46.9156
0
LINE
8
BLACK
6
CONTINUOUS
10
131.167
20
-46.9156
11
131.262
21
-46.9632
0
LINE
8
BLACK
6
CONTINUOUS
10
131.262
20
-46.9632
11
131.31
21
-47.0108
0
LINE
8
BLACK
6
CONTINUOUS
10
131.31
20
-47.0108
11
131.358
21
-47.1061
0
LINE
8
BLACK
6
CONTINUOUS
10
131.358
20
-48.3442
11
131.358
21
-47.868
0
LINE
8
BLACK
6
CONTINUOUS
10
131.358
20
-47.868
11
130.881
21
-47.8204
0
LINE
8
BLACK
6
CONTINUOUS
10
130.881
20
-47.8204
11
130.929
21
-47.868
0
LINE
8
BLACK
6
CONTINUOUS
10
130.929
20
-47.868
11
130.977
21
-47.9632
0
LINE
8
BLACK
6
CONTINUOUS
10
130.977
20
-47.9632
11
130.977
21
-48.2013
0
LINE
8
BLACK
6
CONTINUOUS
10
130.977
20
-48.2013
11
130.929
21
-48.2965
0
LINE
8
BLACK
6
CONTINUOUS
10
130.929
20
-48.2965
11
130.881
21
-48.3442
0
LINE
8
BLACK
6
CONTINUOUS
10
130.881
20
-48.3442
11
130.786
21
-48.3918
0
LINE
8
BLACK
6
CONTINUOUS
10
130.786
20
-48.3918
11
130.548
21
-48.3918
0
LINE
8
BLACK
6
CONTINUOUS
10
130.548
20
-48.3918
11
130.453
21
-48.3442
0
LINE
8
BLACK
6
CONTINUOUS
10
130.453
20
-48.3442
11
130.405
21
-48.2965
0
LINE
8
BLACK
6
CONTINUOUS
10
130.405
20
-48.2965
11
130.358
21
-48.2013
0
LINE
8
BLACK
6
CONTINUOUS
10
130.358
20
-48.2013
11
130.358
21
-47.9632
0
LINE
8
BLACK
6
CONTINUOUS
10
130.358
20
-47.9632
11
130.405
21
-47.868
0
LINE
8
BLACK
6
CONTINUOUS
10
130.405
20
-47.868
11
130.453
21
-47.8204
0
LINE
8
BLACK
6
CONTINUOUS
10
130.358
20
-49.5823
11
131.024
21
-49.5823
0
LINE
8
BLACK
6
CONTINUOUS
10
130.929
20
-49.5823
11
130.977
21
-49.6299
0
LINE
8
BLACK
6
CONTINUOUS
10
130.977
20
-49.6299
11
131.024
21
-49.7251
0
LINE
8
BLACK
6
CONTINUOUS
10
131.024
20
-49.7251
11
131.024
21
-49.868
0
LINE
8
BLACK
6
CONTINUOUS
10
131.024
20
-49.868
11
130.977
21
-49.9632
0
LINE
8
BLACK
6
CONTINUOUS
10
130.977
20
-49.9632
11
130.881
21
-50.0108
0
LINE
8
BLACK
6
CONTINUOUS
10
130.881
20
-50.0108
11
130.358
21
-50.0108
0
LINE
8
BLACK
6
CONTINUOUS
10
130.881
20
-50.0108
11
130.977
21
-50.0585
0
LINE
8
BLACK
6
CONTINUOUS
10
130.977
20
-50.0585
11
131.024
21
-50.1537
0
LINE
8
BLACK
6
CONTINUOUS
10
131.024
20
-50.1537
11
131.024
21
-50.2965
0
LINE
8
BLACK
6
CONTINUOUS
10
131.024
20
-50.2965
11
130.977
21
-50.3918
0
LINE
8
BLACK
6
CONTINUOUS
10
130.977
20
-50.3918
11
130.881
21
-50.4394
0
LINE
8
BLACK
6
CONTINUOUS
10
130.881
20
-50.4394
11
130.358
21
-50.4394
0
LINE
8
BLACK
6
CONTINUOUS
10
130.358
20
-50.9156
11
131.024
21
-50.9156
0
LINE
8
BLACK
6
CONTINUOUS
10
130.929
20
-50.9156
11
130.977
21
-50.9632
0
LINE
8
BLACK
6
CONTINUOUS
10
130.977
20
-50.9632
11
131.024
21
-51.0585
0
LINE
8
BLACK
6
CONTINUOUS
10
131.024
20
-51.0585
11
131.024
21
-51.2013
0
LINE
8
BLACK
6
CONTINUOUS
10
131.024
20
-51.2013
11
130.977
21
-51.2965
0
LINE
8
BLACK
6
CONTINUOUS
10
130.977
20
-51.2965
11
130.881
21
-51.3442
0
LINE
8
BLACK
6
CONTINUOUS
10
130.881
20
-51.3442
11
130.358
21
-51.3442
0
LINE
8
BLACK
6
CONTINUOUS
10
130.881
20
-51.3442
11
130.977
21
-51.3918
0
LINE
8
BLACK
6
CONTINUOUS
10
130.977
20
-51.3918
11
131.024
21
-51.487
0
LINE
8
BLACK
6
CONTINUOUS
10
131.024
20
-51.487
11
131.024
21
-51.6299
0
LINE
8
BLACK
6
CONTINUOUS
10
131.024
20
-51.6299
11
130.977
21
-51.7251
0
LINE
8
BLACK
6
CONTINUOUS
10
130.977
20
-51.7251
11
130.881
21
-51.7727
0
LINE
8
BLACK
6
CONTINUOUS
10
130.881
20
-51.7727
11
130.358
21
-51.7727
0
LINE
8
BLACK
6
CONTINUOUS
10
129.61
20
-9.575
11
129.61
21
-85.78
0
LINE
8
BLACK
6
CONTINUOUS
10
107.475
20
-9.575
11
130.196
21
-9.575
0
LINE
8
BLACK
6
CONTINUOUS
10
107.475
20
-85.78
11
130.196
21
-85.78
0
LINE
8
BLACK
6
CONTINUOUS
10
129.61
20
-85.78
11
129.024
21
-84.6535
0
LINE
8
BLACK
6
CONTINUOUS
10
129.61
20
-85.78
11
130.196
21
-84.6535
0
LINE
8
BLACK
6
CONTINUOUS
10
129.61
20
-9.575
11
129.024
21
-10.7015
0
LINE
8
BLACK
6
CONTINUOUS
10
129.61
20
-9.575
11
130.196
21
-10.7015
0
LINE
8
BLACK
6
CONTINUOUS
10
44.7499
20
11.2576
11
44.1785
21
11.2576
0
LINE
8
BLACK
6
CONTINUOUS
10
44.4642
20
11.2576
11
44.4642
21
12.2576
0
LINE
8
BLACK
6
CONTINUOUS
10
44.4642
20
12.2576
11
44.3689
21
12.1148
0
LINE
8
BLACK
6
CONTINUOUS
10
44.3689
20
12.1148
11
44.2737
21
12.0195
0
LINE
8
BLACK
6
CONTINUOUS
10
44.2737
20
12.0195
11
44.1785
21
11.9719
0
LINE
8
BLACK
6
CONTINUOUS
10
45.7023
20
11.2576
11
45.1308
21
11.2576
0
LINE
8
BLACK
6
CONTINUOUS
10
45.4165
20
11.2576
11
45.4165
21
12.2576
0
LINE
8
BLACK
6
CONTINUOUS
10
45.4165
20
12.2576
11
45.3213
21
12.1148
0
LINE
8
BLACK
6
CONTINUOUS
10
45.3213
20
12.1148
11
45.2261
21
12.0195
0
LINE
8
BLACK
6
CONTINUOUS
10
45.2261
20
12.0195
11
45.1308
21
11.9719
0
LINE
8
BLACK
6
CONTINUOUS
10
46.5594
20
11.9243
11
46.5594
21
11.2576
0
LINE
8
BLACK
6
CONTINUOUS
10
46.3213
20
12.3052
11
46.0832
21
11.591
0
LINE
8
BLACK
6
CONTINUOUS
10
46.0832
20
11.591
11
46.7023
21
11.591
0
LINE
8
BLACK
6
CONTINUOUS
10
47.0832
20
11.3529
11
47.1308
21
11.3052
0
LINE
8
BLACK
6
CONTINUOUS
10
47.1308
20
11.3052
11
47.0832
21
11.2576
0
LINE
8
BLACK
6
CONTINUOUS
10
47.0832
20
11.2576
11
47.0356
21
11.3052
0
LINE
8
BLACK
6
CONTINUOUS
10
47.0356
20
11.3052
11
47.0832
21
11.3529
0
LINE
8
BLACK
6
CONTINUOUS
10
47.0832
20
11.3529
11
47.0832
21
11.2576
0
LINE
8
BLACK
6
CONTINUOUS
10
47.4642
20
12.2576
11
48.0832
21
12.2576
0
LINE
8
BLACK
6
CONTINUOUS
10
48.0832
20
12.2576
11
47.7499
21
11.8767
0
LINE
8
BLACK
6
CONTINUOUS
10
47.7499
20
11.8767
11
47.8927
21
11.8767
0
LINE
8
BLACK
6
CONTINUOUS
10
47.8927
20
11.8767
11
47.988
21
11.829
0
LINE
8
BLACK
6
CONTINUOUS
10
47.988
20
11.829
11
48.0356
21
11.7814
0
LINE
8
BLACK
6
CONTINUOUS
10
48.0356
20
11.7814
11
48.0832
21
11.6862
0
LINE
8
BLACK
6
CONTINUOUS
10
48.0832
20
11.6862
11
48.0832
21
11.4481
0
LINE
8
BLACK
6
CONTINUOUS
10
48.0832
20
11.4481
11
48.0356
21
11.3529
0
LINE
8
BLACK
6
CONTINUOUS
10
48.0356
20
11.3529
11
47.988
21
11.3052
0
LINE
8
BLACK
6
CONTINUOUS
10
47.988
20
11.3052
11
47.8927
21
11.2576
0
LINE
8
BLACK
6
CONTINUOUS
10
47.8927
20
11.2576
11
47.607
21
11.2576
0
LINE
8
BLACK
6
CONTINUOUS
10
47.607
20
11.2576
11
47.5118
21
11.3052
0
LINE
8
BLACK
6
CONTINUOUS
10
47.5118
20
11.3052
11
47.4642
21
11.3529
0
LINE
8
BLACK
6
CONTINUOUS
10
48.9404
20
11.9243
11
48.9404
21
11.2576
0
LINE
8
BLACK
6
CONTINUOUS
10
48.7023
20
12.3052
11
48.4642
21
11.591
0
LINE
8
BLACK
6
CONTINUOUS
10
48.4642
20
11.591
11
49.0832
21
11.591
0
LINE
8
BLACK
6
CONTINUOUS
10
49.9404
20
12.2576
11
49.4642
21
12.2576
0
LINE
8
BLACK
6
CONTINUOUS
10
49.4642
20
12.2576
11
49.4165
21
11.7814
0
LINE
8
BLACK
6
CONTINUOUS
10
49.4165
20
11.7814
11
49.4642
21
11.829
0
LINE
8
BLACK
6
CONTINUOUS
10
49.4642
20
11.829
11
49.5594
21
11.8767
0
LINE
8
BLACK
6
CONTINUOUS
10
49.5594
20
11.8767
11
49.7975
21
11.8767
0
LINE
8
BLACK
6
CONTINUOUS
10
49.7975
20
11.8767
11
49.8927
21
11.829
0
LINE
8
BLACK
6
CONTINUOUS
10
49.8927
20
11.829
11
49.9404
21
11.7814
0
LINE
8
BLACK
6
CONTINUOUS
10
49.9404
20
11.7814
11
49.988
21
11.6862
0
LINE
8
BLACK
6
CONTINUOUS
10
49.988
20
11.6862
11
49.988
21
11.4481
0
LINE
8
BLACK
6
CONTINUOUS
10
49.988
20
11.4481
11
49.9404
21
11.3529
0
LINE
8
BLACK
6
CONTINUOUS
10
49.9404
20
11.3529
11
49.8927
21
11.3052
0
LINE
8
BLACK
6
CONTINUOUS
10
49.8927
20
11.3052
11
49.7975
21
11.2576
0
LINE
8
BLACK
6
CONTINUOUS
10
49.7975
20
11.2576
11
49.5594
21
11.2576
0
LINE
8
BLACK
6
CONTINUOUS
10
49.5594
20
11.2576
11
49.4642
21
11.3052
0
LINE
8
BLACK
6
CONTINUOUS
10
49.4642
20
11.3052
11
49.4165
21
11.3529
0
LINE
8
BLACK
6
CONTINUOUS
10
51.1785
20
11.2576
11
51.1785
21
11.9243
0
LINE
8
BLACK
6
CONTINUOUS
10
51.1785
20
11.829
11
51.2261
21
11.8767
0
LINE
8
BLACK
6
CONTINUOUS
10
51.2261
20
11.8767
11
51.3213
21
11.9243
0
LINE
8
BLACK
6
CONTINUOUS
10
51.3213
20
11.9243
11
51.4642
21
11.9243
0
LINE
8
BLACK
6
CONTINUOUS
10
51.4642
20
11.9243
11
51.5594
21
11.8767
0
LINE
8
BLACK
6
CONTINUOUS
10
51.5594
20
11.8767
11
51.607
21
11.7814
0
LINE
8
BLACK
6
CONTINUOUS
10
51.607
20
11.7814
11
51.607
21
11.2576
0
LINE
8
BLACK
6
CONTINUOUS
10
51.607
20
11.7814
11
51.6546
21
11.8767
0
LINE
8
BLACK
6
CONTINUOUS
10
51.6546
20
11.8767
11
51.7499
21
11.9243
0
LINE
8
BLACK
6
CONTINUOUS
10
51.7499
20
11.9243
11
51.8927
21
11.9243
0
LINE
8
BLACK
6
CONTINUOUS
10
51.8927
20
11.9243
11
51.988
21
11.8767
0
LINE
8
BLACK
6
CONTINUOUS
10
51.988
20
11.8767
11
52.0356
21
11.7814
0
LINE
8
BLACK
6
CONTINUOUS
10
52.0356
20
11.7814
11
52.0356
21
11.2576
0
LINE
8
BLACK
6
CONTINUOUS
10
52.5118
20
11.2576
11
52.5118
21
11.9243
0
LINE
8
BLACK
6
CONTINUOUS
10
52.5118
20
11.829
11
52.5594
21
11.8767
0
LINE
8
BLACK
6
CONTINUOUS
10
52.5594
20
11.8767
11
52.6546
21
11.9243
0
LINE
8
BLACK
6
CONTINUOUS
10
52.6546
20
11.9243
11
52.7975
21
11.9243
0
LINE
8
BLACK
6
CONTINUOUS
10
52.7975
20
11.9243
11
52.8927
21
11.8767
0
LINE
8
BLACK
6
CONTINUOUS
10
52.8927
20
11.8767
11
52.9404
21
11.7814
0
LINE
8
BLACK
6
CONTINUOUS
10
52.9404
20
11.7814
11
52.9404
21
11.2576
0
LINE
8
BLACK
6
CONTINUOUS
10
52.9404
20
11.7814
11
52.988
21
11.8767
0
LINE
8
BLACK
6
CONTINUOUS
10
52.988
20
11.8767
11
53.0832
21
11.9243
0
LINE
8
BLACK
6
CONTINUOUS
10
53.0832
20
11.9243
11
53.2261
21
11.9243
0
LINE
8
BLACK
6
CONTINUOUS
10
53.2261
20
11.9243
11
53.3213
21
11.8767
0
LINE
8
BLACK
6
CONTINUOUS
10
53.3213
20
11.8767
11
53.3689
21
11.7814
0
LINE
8
BLACK
6
CONTINUOUS
10
53.3689
20
11.7814
11
53.3689
21
11.2576
0
LINE
8
BLACK
6
CONTINUOUS
10
-8.375
20
10.51
11
105.97
21
10.51
0
LINE
8
BLACK
6
CONTINUOUS
10
-8.375
20
-8.07
11
-8.375
21
11.0964
0
LINE
8
BLACK
6
CONTINUOUS
10
105.97
20
-8.07
11
105.97
21
11.0964
0
LINE
8
BLACK
6
CONTINUOUS
10
105.97
20
10.51
11
104.843
21
9.92358
0
LINE
8
BLACK
6
CONTINUOUS
10
105.97
20
10.51
11
104.843
21
11.0964
0
LINE
8
BLACK
6
CONTINUOUS
10
-8.375
20
10.51
11
-7.2485
21
9.92358
0
LINE
8
BLACK
6
CONTINUOUS
10
-8.375
20
10.51
11
-7.2485
21
11.0964
0
ARC
8
BLACK
10
105.445
20
-10.1
40
0.525856
50
-3.27049
51
86.7295
0
LINE
8
BLACK
6
CONTINUOUS
10
105.97
20
-10.13
11
105.97
21
-85.28
0
LINE
8
BLACK
6
CONTINUOUS
10
70.35
20
-50.2
11
84.35
21
-50.2
0
LINE
8
BLACK
6
CONTINUOUS
10
84.637
20
-69.25
11
98.637
21
-69.25
0
LINE
8
BLACK
6
CONTINUOUS
10
98.637
20
-69.25
11
98.637
21
-83.25
0
LINE
8
BLACK
6
CONTINUOUS
10
98.637
20
-83.25
11
84.6395
21
-83.25
0
LINE
8
BLACK
6
CONTINUOUS
10
84.637
20
-83.25
11
84.637
21
-69.25
0
LINE
8
BLACK
6
CONTINUOUS
10
58.4437
20
-83.25
11
58.4437
21
-69.25
0
LINE
8
BLACK
6
CONTINUOUS
10
72.4437
20
-83.25
11
58.4462
21
-83.25
0
LINE
8
BLACK
6
CONTINUOUS
10
72.4437
20
-69.25
11
72.4437
21
-83.25
0
LINE
8
BLACK
6
CONTINUOUS
10
58.4437
20
-69.25
11
72.4437
21
-69.25
0
LINE
8
BLACK
6
CONTINUOUS
10
89.4
20
-64.2
11
89.4
21
-50.2
0
LINE
8
BLACK
6
CONTINUOUS
10
89.4
20
-50.2
11
103.4
21
-50.2
0
LINE
8
BLACK
6
CONTINUOUS
10
103.4
20
-50.2
11
103.4
21
-64.2
0
LINE
8
BLACK
6
CONTINUOUS
10
103.4
20
-64.2
11
89.4025
21
-64.2
0
LINE
8
BLACK
6
CONTINUOUS
10
84.35
20
-50.2
11
84.35
21
-64.2
0
LINE
8
BLACK
6
CONTINUOUS
10
84.35
20
-64.2
11
70.3525
21
-64.2
0
LINE
8
BLACK
6
CONTINUOUS
10
70.35
20
-64.2
11
70.35
21
-50.2
0
LINE
8
BLACK
6
CONTINUOUS
10
65.3
20
-50.2
11
65.3
21
-64.2
0
LINE
8
BLACK
6
CONTINUOUS
10
65.3
20
-64.2
11
51.3025
21
-64.2
0
LINE
8
BLACK
6
CONTINUOUS
10
51.3
20
-50.2
11
65.3
21
-50.2
0
LINE
8
BLACK
6
CONTINUOUS
10
51.3
20
-64.2
11
51.3
21
-50.2
0
LINE
8
BLACK
6
CONTINUOUS
10
32.25
20
-64.2
11
32.25
21
-50.2
0
LINE
8
BLACK
6
CONTINUOUS
10
46.25
20
-50.2
11
46.25
21
-64.2
0
LINE
8
BLACK
6
CONTINUOUS
10
46.25
20
-64.2
11
32.2525
21
-64.2
0
LINE
8
BLACK
6
CONTINUOUS
10
32.25
20
-50.2
11
46.25
21
-50.2
0
LINE
8
BLACK
6
CONTINUOUS
10
27.2
20
-50.2
11
27.2
21
-64.2
0
LINE
8
BLACK
6
CONTINUOUS
10
27.2
20
-64.2
11
13.2025
21
-64.2
0
LINE
8
BLACK
6
CONTINUOUS
10
13.2
20
-50.2
11
27.2
21
-50.2
0
LINE
8
BLACK
6
CONTINUOUS
10
13.2
20
-64.2
11
13.2
21
-50.2
0
LINE
8
BLACK
6
CONTINUOUS
10
8.15
20
-50.2
11
8.15
21
-64.2
0
LINE
8
BLACK
6
CONTINUOUS
10
-5.85
20
-50.2
11
8.15
21
-50.2
0
LINE
8
BLACK
6
CONTINUOUS
10
8.15
20
-64.2
11
-5.8475
21
-64.2
0
LINE
8
BLACK
6
CONTINUOUS
10
-5.85
20
-64.2
11
-5.85
21
-50.2
0
LINE
8
BLACK
6
CONTINUOUS
10
103.4
20
-31.15
11
103.4
21
-45.15
0
LINE
8
BLACK
6
CONTINUOUS
10
89.4
20
-31.15
11
103.4
21
-31.15
0
LINE
8
BLACK
6
CONTINUOUS
10
103.4
20
-45.15
11
89.4025
21
-45.15
0
LINE
8
BLACK
6
CONTINUOUS
10
89.4
20
-45.15
11
89.4
21
-31.15
0
LINE
8
BLACK
6
CONTINUOUS
10
70.35
20
-31.15
11
84.35
21
-31.15
0
LINE
8
BLACK
6
CONTINUOUS
10
70.35
20
-45.15
11
70.35
21
-31.15
0
LINE
8
BLACK
6
CONTINUOUS
10
84.35
20
-45.15
11
70.3525
21
-45.15
0
LINE
8
BLACK
6
CONTINUOUS
10
84.35
20
-31.15
11
84.35
21
-45.15
0
LINE
8
BLACK
6
CONTINUOUS
10
51.3
20
-45.15
11
51.3
21
-31.15
0
LINE
8
BLACK
6
CONTINUOUS
10
65.3
20
-31.15
11
65.3
21
-45.15
0
LINE
8
BLACK
6
CONTINUOUS
10
65.3
20
-45.15
11
51.3025
21
-45.15
0
LINE
8
BLACK
6
CONTINUOUS
10
51.3
20
-31.15
11
65.3
21
-31.15
0
LINE
8
BLACK
6
CONTINUOUS
10
46.25
20
-31.15
11
46.25
21
-45.15
0
LINE
8
BLACK
6
CONTINUOUS
10
46.25
20
-45.15
11
32.2525
21
-45.15
0
LINE
8
BLACK
6
CONTINUOUS
10
32.25
20
-45.15
11
32.25
21
-31.15
0
LINE
8
BLACK
6
CONTINUOUS
10
32.25
20
-31.15
11
46.25
21
-31.15
0
LINE
8
BLACK
6
CONTINUOUS
10
27.2
20
-31.15
11
27.2
21
-45.15
0
LINE
8
BLACK
6
CONTINUOUS
10
27.2
20
-45.15
11
13.2025
21
-45.15
0
LINE
8
BLACK
6
CONTINUOUS
10
13.2
20
-45.15
11
13.2
21
-31.15
0
LINE
8
BLACK
6
CONTINUOUS
10
13.2
20
-31.15
11
27.2
21
-31.15
0
LINE
8
BLACK
6
CONTINUOUS
10
8.15
20
-31.15
11
8.15
21
-45.15
0
LINE
8
BLACK
6
CONTINUOUS
10
8.15
20
-45.15
11
-5.8475
21
-45.15
0
LINE
8
BLACK
6
CONTINUOUS
10
-5.85
20
-45.15
11
-5.85
21
-31.15
0
LINE
8
BLACK
6
CONTINUOUS
10
-5.85
20
-31.15
11
8.15
21
-31.15
0
LINE
8
BLACK
6
CONTINUOUS
10
103.4
20
-26.1
11
89.4025
21
-26.1
0
LINE
8
BLACK
6
CONTINUOUS
10
103.4
20
-12.1
11
103.4
21
-26.1
0
LINE
8
BLACK
6
CONTINUOUS
10
89.4
20
-12.1
11
103.4
21
-12.1
0
LINE
8
BLACK
6
CONTINUOUS
10
89.4
20
-26.1
11
89.4
21
-12.1
0
LINE
8
BLACK
6
CONTINUOUS
10
84.35
20
-12.1
11
84.35
21
-26.1
0
LINE
8
BLACK
6
CONTINUOUS
10
70.35
20
-26.1
11
70.35
21
-12.1
0
LINE
8
BLACK
6
CONTINUOUS
10
84.35
20
-26.1
11
70.3525
21
-26.1
0
LINE
8
BLACK
6
CONTINUOUS
10
70.35
20
-12.1
11
84.35
21
-12.1
0
LINE
8
BLACK
6
CONTINUOUS
10
65.3
20
-26.1
11
51.3025
21
-26.1
0
LINE
8
BLACK
6
CONTINUOUS
10
51.3
20
-12.1
11
65.3
21
-12.1
0
LINE
8
BLACK
6
CONTINUOUS
10
51.3
20
-26.1
11
51.3
21
-12.1
0
LINE
8
BLACK
6
CONTINUOUS
10
65.3
20
-12.1
11
65.3
21
-26.1
0
LINE
8
BLACK
6
CONTINUOUS
10
32.25
20
-26.1
11
32.25
21
-12.1
0
LINE
8
BLACK
6
CONTINUOUS
10
46.25
20
-26.1
11
32.2525
21
-26.1
0
LINE
8
BLACK
6
CONTINUOUS
10
46.25
20
-12.1
11
46.25
21
-26.1
0
LINE
8
BLACK
6
CONTINUOUS
10
32.25
20
-12.1
11
46.25
21
-12.1
0
LINE
8
BLACK
6
CONTINUOUS
10
27.2
20
-26.1
11
13.2025
21
-26.1
0
LINE
8
BLACK
6
CONTINUOUS
10
13.2
20
-12.1
11
27.2
21
-12.1
0
LINE
8
BLACK
6
CONTINUOUS
10
27.2
20
-12.1
11
27.2
21
-26.1
0
LINE
8
BLACK
6
CONTINUOUS
10
13.2
20
-26.1
11
13.2
21
-12.1
0
LINE
8
BLACK
6
CONTINUOUS
10
-5.85
20
-12.1
11
8.15
21
-12.1
0
LINE
8
BLACK
6
CONTINUOUS
10
8.15
20
-12.1
11
8.15
21
-26.1
0
LINE
8
BLACK
6
CONTINUOUS
10
8.15
20
-26.1
11
-5.8475
21
-26.1
0
LINE
8
BLACK
6
CONTINUOUS
10
-5.85
20
-26.1
11
-5.85
21
-12.1
0
LINE
8
BLACK
6
CONTINUOUS
10
105.415
20
-85.775
11
101.162
21
-85.775
0
ARC
8
BLACK
10
105.445
20
-85.25
40
0.525856
50
-93.2705
51
-3.27049
0
LINE
8
BLACK
6
CONTINUOUS
10
18.14
20
-85.775
11
48.775
21
-85.775
0
LINE
8
BLACK
6
CONTINUOUS
10
77.2575
20
-85.775
11
101.162
21
-85.775
0
ARC
8
BLACK
10
-7.85
20
-10.1
40
0.525856
50
86.7295
51
176.73
0
LINE
8
BLACK
6
CONTINUOUS
10
77.2575
20
-85.775
11
48.775
21
-85.775
0
LINE
8
BLACK
6
CONTINUOUS
10
-7.82
20
-9.575
11
105.475
21
-9.575
0
LINE
8
BLACK
6
CONTINUOUS
10
-8.375
20
-10.075
11
-8.3745
21
-93.775
0
LINE
8
BLACK
6
CONTINUOUS
10
87.0745
20
-65.1711
11
87.1857
21
-65.1932
0
LINE
8
BLACK
6
CONTINUOUS
10
87.1857
20
-65.1932
11
87.3952
21
-65.28
0
LINE
8
BLACK
6
CONTINUOUS
10
87.3952
20
-65.28
11
87.5837
21
-65.406
0
LINE
8
BLACK
6
CONTINUOUS
10
87.5837
20
-65.406
11
87.744
21
-65.5663
0
LINE
8
BLACK
6
CONTINUOUS
10
87.744
20
-65.5663
11
87.87
21
-65.7548
0
LINE
8
BLACK
6
CONTINUOUS
10
87.87
20
-65.7548
11
87.9568
21
-65.9643
0
LINE
8
BLACK
6
CONTINUOUS
10
87.9568
20
-65.9643
11
88.001
21
-66.1866
0
LINE
8
BLACK
6
CONTINUOUS
10
88.001
20
-66.1866
11
88.001
21
-66.4134
0
LINE
8
BLACK
6
CONTINUOUS
10
88.001
20
-66.4134
11
87.9568
21
-66.6357
0
LINE
8
BLACK
6
CONTINUOUS
10
87.9568
20
-66.6357
11
87.87
21
-66.8452
0
LINE
8
BLACK
6
CONTINUOUS
10
87.87
20
-66.8452
11
87.744
21
-67.0337
0
LINE
8
BLACK
6
CONTINUOUS
10
87.744
20
-67.0337
11
87.5837
21
-67.194
0
LINE
8
BLACK
6
CONTINUOUS
10
87.5837
20
-67.194
11
87.3952
21
-67.32
0
LINE
8
BLACK
6
CONTINUOUS
10
87.3952
20
-67.32
11
87.1857
21
-67.4068
0
LINE
8
BLACK
6
CONTINUOUS
10
87.1857
20
-67.4068
11
87.0745
21
-67.4289
0
LINE
8
BLACK
6
CONTINUOUS
10
87.0745
20
-67.4289
11
86.9634
21
-67.451
0
LINE
8
BLACK
6
CONTINUOUS
10
86.9634
20
-67.451
11
86.7366
21
-67.451
0
LINE
8
BLACK
6
CONTINUOUS
10
86.7366
20
-67.451
11
86.6255
21
-67.4289
0
LINE
8
BLACK
6
CONTINUOUS
10
86.6255
20
-67.4289
11
86.5143
21
-67.4068
0
LINE
8
BLACK
6
CONTINUOUS
10
86.5143
20
-67.4068
11
86.3048
21
-67.32
0
LINE
8
BLACK
6
CONTINUOUS
10
86.3048
20
-67.32
11
86.1163
21
-67.194
0
LINE
8
BLACK
6
CONTINUOUS
10
86.1163
20
-67.194
11
85.956
21
-67.0337
0
LINE
8
BLACK
6
CONTINUOUS
10
85.956
20
-67.0337
11
85.83
21
-66.8452
0
LINE
8
BLACK
6
CONTINUOUS
10
85.83
20
-66.8452
11
85.7432
21
-66.6357
0
LINE
8
BLACK
6
CONTINUOUS
10
85.7432
20
-66.6357
11
85.699
21
-66.4134
0
LINE
8
BLACK
6
CONTINUOUS
10
85.699
20
-66.4134
11
85.699
21
-66.1866
0
LINE
8
BLACK
6
CONTINUOUS
10
85.699
20
-66.1866
11
85.7432
21
-65.9643
0
LINE
8
BLACK
6
CONTINUOUS
10
85.7432
20
-65.9643
11
85.83
21
-65.7548
0
LINE
8
BLACK
6
CONTINUOUS
10
85.83
20
-65.7548
11
85.956
21
-65.5663
0
LINE
8
BLACK
6
CONTINUOUS
10
85.956
20
-65.5663
11
86.1163
21
-65.406
0
LINE
8
BLACK
6
CONTINUOUS
10
86.1163
20
-65.406
11
86.3048
21
-65.28
0
LINE
8
BLACK
6
CONTINUOUS
10
86.3048
20
-65.28
11
86.5143
21
-65.1932
0
LINE
8
BLACK
6
CONTINUOUS
10
86.5143
20
-65.1932
11
86.6255
21
-65.1711
0
LINE
8
BLACK
6
CONTINUOUS
10
86.6255
20
-65.1711
11
86.7366
21
-65.149
0
LINE
8
BLACK
6
CONTINUOUS
10
86.7366
20
-65.149
11
86.9634
21
-65.149
0
LINE
8
BLACK
6
CONTINUOUS
10
86.9634
20
-65.149
11
87.0745
21
-65.1711
0
LINE
8
BLACK
6
CONTINUOUS
10
10.8745
20
-65.1711
11
10.9857
21
-65.1932
0
LINE
8
BLACK
6
CONTINUOUS
10
10.9857
20
-65.1932
11
11.1952
21
-65.28
0
LINE
8
BLACK
6
CONTINUOUS
10
11.1952
20
-65.28
11
11.3837
21
-65.406
0
LINE
8
BLACK
6
CONTINUOUS
10
11.3837
20
-65.406
11
11.544
21
-65.5663
0
LINE
8
BLACK
6
CONTINUOUS
10
11.544
20
-65.5663
11
11.67
21
-65.7548
0
LINE
8
BLACK
6
CONTINUOUS
10
11.67
20
-65.7548
11
11.7568
21
-65.9643
0
LINE
8
BLACK
6
CONTINUOUS
10
11.7568
20
-65.9643
11
11.801
21
-66.1866
0
LINE
8
BLACK
6
CONTINUOUS
10
11.801
20
-66.1866
11
11.801
21
-66.4134
0
LINE
8
BLACK
6
CONTINUOUS
10
11.801
20
-66.4134
11
11.7568
21
-66.6357
0
LINE
8
BLACK
6
CONTINUOUS
10
11.7568
20
-66.6357
11
11.67
21
-66.8452
0
LINE
8
BLACK
6
CONTINUOUS
10
11.67
20
-66.8452
11
11.544
21
-67.0337
0
LINE
8
BLACK
6
CONTINUOUS
10
11.544
20
-67.0337
11
11.3837
21
-67.194
0
LINE
8
BLACK
6
CONTINUOUS
10
11.3837
20
-67.194
11
11.1952
21
-67.32
0
LINE
8
BLACK
6
CONTINUOUS
10
11.1952
20
-67.32
11
10.9857
21
-67.4068
0
LINE
8
BLACK
6
CONTINUOUS
10
10.9857
20
-67.4068
11
10.8745
21
-67.4289
0
LINE
8
BLACK
6
CONTINUOUS
10
10.8745
20
-67.4289
11
10.7634
21
-67.451
0
LINE
8
BLACK
6
CONTINUOUS
10
10.7634
20
-67.451
11
10.5366
21
-67.451
0
LINE
8
BLACK
6
CONTINUOUS
10
10.5366
20
-67.451
11
10.4255
21
-67.4289
0
LINE
8
BLACK
6
CONTINUOUS
10
10.4255
20
-67.4289
11
10.3143
21
-67.4068
0
LINE
8
BLACK
6
CONTINUOUS
10
10.3143
20
-67.4068
11
10.1048
21
-67.32
0
LINE
8
BLACK
6
CONTINUOUS
10
10.1048
20
-67.32
11
9.91628
21
-67.194
0
LINE
8
BLACK
6
CONTINUOUS
10
9.91628
20
-67.194
11
9.75596
21
-67.0337
0
LINE
8
BLACK
6
CONTINUOUS
10
9.75596
20
-67.0337
11
9.63
21
-66.8452
0
LINE
8
BLACK
6
CONTINUOUS
10
9.63
20
-66.8452
11
9.54323
21
-66.6357
0
LINE
8
BLACK
6
CONTINUOUS
10
9.54323
20
-66.6357
11
9.499
21
-66.4134
0
LINE
8
BLACK
6
CONTINUOUS
10
9.499
20
-66.4134
11
9.499
21
-66.1866
0
LINE
8
BLACK
6
CONTINUOUS
10
9.499
20
-66.1866
11
9.54323
21
-65.9643
0
LINE
8
BLACK
6
CONTINUOUS
10
9.54323
20
-65.9643
11
9.63
21
-65.7548
0
LINE
8
BLACK
6
CONTINUOUS
10
9.63
20
-65.7548
11
9.75596
21
-65.5663
0
LINE
8
BLACK
6
CONTINUOUS
10
9.75596
20
-65.5663
11
9.91628
21
-65.406
0
LINE
8
BLACK
6
CONTINUOUS
10
9.91628
20
-65.406
11
10.1048
21
-65.28
0
LINE
8
BLACK
6
CONTINUOUS
10
10.1048
20
-65.28
11
10.3143
21
-65.1932
0
LINE
8
BLACK
6
CONTINUOUS
10
10.3143
20
-65.1932
11
10.4255
21
-65.1711
0
LINE
8
BLACK
6
CONTINUOUS
10
10.4255
20
-65.1711
11
10.5366
21
-65.149
0
LINE
8
BLACK
6
CONTINUOUS
10
10.5366
20
-65.149
11
10.7634
21
-65.149
0
LINE
8
BLACK
6
CONTINUOUS
10
10.7634
20
-65.149
11
10.8745
21
-65.1711
0
LINE
8
BLACK
6
CONTINUOUS
10
48.9745
20
-46.1211
11
49.0857
21
-46.1432
0
LINE
8
BLACK
6
CONTINUOUS
10
49.0857
20
-46.1432
11
49.2952
21
-46.23
0
LINE
8
BLACK
6
CONTINUOUS
10
49.2952
20
-46.23
11
49.4837
21
-46.356
0
LINE
8
BLACK
6
CONTINUOUS
10
49.4837
20
-46.356
11
49.644
21
-46.5163
0
LINE
8
BLACK
6
CONTINUOUS
10
49.644
20
-46.5163
11
49.77
21
-46.7048
0
LINE
8
BLACK
6
CONTINUOUS
10
49.77
20
-46.7048
11
49.8568
21
-46.9143
0
LINE
8
BLACK
6
CONTINUOUS
10
49.8568
20
-46.9143
11
49.901
21
-47.1366
0
LINE
8
BLACK
6
CONTINUOUS
10
49.901
20
-47.1366
11
49.901
21
-47.3634
0
LINE
8
BLACK
6
CONTINUOUS
10
49.901
20
-47.3634
11
49.8568
21
-47.5857
0
LINE
8
BLACK
6
CONTINUOUS
10
49.8568
20
-47.5857
11
49.77
21
-47.7952
0
LINE
8
BLACK
6
CONTINUOUS
10
49.77
20
-47.7952
11
49.644
21
-47.9837
0
LINE
8
BLACK
6
CONTINUOUS
10
49.644
20
-47.9837
11
49.4837
21
-48.144
0
LINE
8
BLACK
6
CONTINUOUS
10
49.4837
20
-48.144
11
49.2952
21
-48.27
0
LINE
8
BLACK
6
CONTINUOUS
10
49.2952
20
-48.27
11
49.0857
21
-48.3568
0
LINE
8
BLACK
6
CONTINUOUS
10
49.0857
20
-48.3568
11
48.9745
21
-48.3789
0
LINE
8
BLACK
6
CONTINUOUS
10
48.9745
20
-48.3789
11
48.8634
21
-48.401
0
LINE
8
BLACK
6
CONTINUOUS
10
48.8634
20
-48.401
11
48.6366
21
-48.401
0
LINE
8
BLACK
6
CONTINUOUS
10
48.6366
20
-48.401
11
48.5255
21
-48.3789
0
LINE
8
BLACK
6
CONTINUOUS
10
48.5255
20
-48.3789
11
48.4143
21
-48.3568
0
LINE
8
BLACK
6
CONTINUOUS
10
48.4143
20
-48.3568
11
48.2048
21
-48.27
0
LINE
8
BLACK
6
CONTINUOUS
10
48.2048
20
-48.27
11
48.0163
21
-48.144
0
LINE
8
BLACK
6
CONTINUOUS
10
48.0163
20
-48.144
11
47.856
21
-47.9837
0
LINE
8
BLACK
6
CONTINUOUS
10
47.856
20
-47.9837
11
47.73
21
-47.7952
0
LINE
8
BLACK
6
CONTINUOUS
10
47.73
20
-47.7952
11
47.6432
21
-47.5857
0
LINE
8
BLACK
6
CONTINUOUS
10
47.6432
20
-47.5857
11
47.599
21
-47.3634
0
LINE
8
BLACK
6
CONTINUOUS
10
47.599
20
-47.3634
11
47.599
21
-47.1366
0
LINE
8
BLACK
6
CONTINUOUS
10
47.599
20
-47.1366
11
47.6432
21
-46.9143
0
LINE
8
BLACK
6
CONTINUOUS
10
47.6432
20
-46.9143
11
47.73
21
-46.7048
0
LINE
8
BLACK
6
CONTINUOUS
10
47.73
20
-46.7048
11
47.856
21
-46.5163
0
LINE
8
BLACK
6
CONTINUOUS
10
47.856
20
-46.5163
11
48.0163
21
-46.356
0
LINE
8
BLACK
6
CONTINUOUS
10
48.0163
20
-46.356
11
48.2048
21
-46.23
0
LINE
8
BLACK
6
CONTINUOUS
10
48.2048
20
-46.23
11
48.4143
21
-46.1432
0
LINE
8
BLACK
6
CONTINUOUS
10
48.4143
20
-46.1432
11
48.5255
21
-46.1211
0
LINE
8
BLACK
6
CONTINUOUS
10
48.5255
20
-46.1211
11
48.6366
21
-46.099
0
LINE
8
BLACK
6
CONTINUOUS
10
48.6366
20
-46.099
11
48.8634
21
-46.099
0
LINE
8
BLACK
6
CONTINUOUS
10
48.8634
20
-46.099
11
48.9745
21
-46.1211
0
LINE
8
BLACK
6
CONTINUOUS
10
87.0745
20
-27.4711
11
87.1857
21
-27.4932
0
LINE
8
BLACK
6
CONTINUOUS
10
87.1857
20
-27.4932
11
87.3952
21
-27.58
0
LINE
8
BLACK
6
CONTINUOUS
10
87.3952
20
-27.58
11
87.5837
21
-27.706
0
LINE
8
BLACK
6
CONTINUOUS
10
87.5837
20
-27.706
11
87.744
21
-27.8663
0
LINE
8
BLACK
6
CONTINUOUS
10
87.744
20
-27.8663
11
87.87
21
-28.0548
0
LINE
8
BLACK
6
CONTINUOUS
10
87.87
20
-28.0548
11
87.9568
21
-28.2643
0
LINE
8
BLACK
6
CONTINUOUS
10
87.9568
20
-28.2643
11
88.001
21
-28.4866
0
LINE
8
BLACK
6
CONTINUOUS
10
88.001
20
-28.4866
11
88.001
21
-28.7134
0
LINE
8
BLACK
6
CONTINUOUS
10
88.001
20
-28.7134
11
87.9568
21
-28.9357
0
LINE
8
BLACK
6
CONTINUOUS
10
87.9568
20
-28.9357
11
87.87
21
-29.1452
0
LINE
8
BLACK
6
CONTINUOUS
10
87.87
20
-29.1452
11
87.744
21
-29.3337
0
LINE
8
BLACK
6
CONTINUOUS
10
87.744
20
-29.3337
11
87.5837
21
-29.494
0
LINE
8
BLACK
6
CONTINUOUS
10
87.5837
20
-29.494
11
87.3952
21
-29.62
0
LINE
8
BLACK
6
CONTINUOUS
10
87.3952
20
-29.62
11
87.1857
21
-29.7068
0
LINE
8
BLACK
6
CONTINUOUS
10
87.1857
20
-29.7068
11
87.0745
21
-29.7289
0
LINE
8
BLACK
6
CONTINUOUS
10
87.0745
20
-29.7289
11
86.9634
21
-29.751
0
LINE
8
BLACK
6
CONTINUOUS
10
86.9634
20
-29.751
11
86.7366
21
-29.751
0
LINE
8
BLACK
6
CONTINUOUS
10
86.7366
20
-29.751
11
86.6255
21
-29.7289
0
LINE
8
BLACK
6
CONTINUOUS
10
86.6255
20
-29.7289
11
86.5143
21
-29.7068
0
LINE
8
BLACK
6
CONTINUOUS
10
86.5143
20
-29.7068
11
86.3048
21
-29.62
0
LINE
8
BLACK
6
CONTINUOUS
10
86.3048
20
-29.62
11
86.1163
21
-29.494
0
LINE
8
BLACK
6
CONTINUOUS
10
86.1163
20
-29.494
11
85.956
21
-29.3337
0
LINE
8
BLACK
6
CONTINUOUS
10
85.956
20
-29.3337
11
85.83
21
-29.1452
0
LINE
8
BLACK
6
CONTINUOUS
10
85.83
20
-29.1452
11
85.7432
21
-28.9357
0
LINE
8
BLACK
6
CONTINUOUS
10
85.7432
20
-28.9357
11
85.699
21
-28.7134
0
LINE
8
BLACK
6
CONTINUOUS
10
85.699
20
-28.7134
11
85.699
21
-28.4866
0
LINE
8
BLACK
6
CONTINUOUS
10
85.699
20
-28.4866
11
85.7432
21
-28.2643
0
LINE
8
BLACK
6
CONTINUOUS
10
85.7432
20
-28.2643
11
85.83
21
-28.0548
0
LINE
8
BLACK
6
CONTINUOUS
10
85.83
20
-28.0548
11
85.956
21
-27.8663
0
LINE
8
BLACK
6
CONTINUOUS
10
85.956
20
-27.8663
11
86.1163
21
-27.706
0
LINE
8
BLACK
6
CONTINUOUS
10
86.1163
20
-27.706
11
86.3048
21
-27.58
0
LINE
8
BLACK
6
CONTINUOUS
10
86.3048
20
-27.58
11
86.5143
21
-27.4932
0
LINE
8
BLACK
6
CONTINUOUS
10
86.5143
20
-27.4932
11
86.6255
21
-27.4711
0
LINE
8
BLACK
6
CONTINUOUS
10
86.6255
20
-27.4711
11
86.7366
21
-27.449
0
LINE
8
BLACK
6
CONTINUOUS
10
86.7366
20
-27.449
11
86.9634
21
-27.449
0
LINE
8
BLACK
6
CONTINUOUS
10
86.9634
20
-27.449
11
87.0745
21
-27.4711
0
LINE
8
BLACK
6
CONTINUOUS
10
10.8745
20
-27.4711
11
10.9857
21
-27.4932
0
LINE
8
BLACK
6
CONTINUOUS
10
10.9857
20
-27.4932
11
11.1952
21
-27.58
0
LINE
8
BLACK
6
CONTINUOUS
10
11.1952
20
-27.58
11
11.3837
21
-27.706
0
LINE
8
BLACK
6
CONTINUOUS
10
11.3837
20
-27.706
11
11.544
21
-27.8663
0
LINE
8
BLACK
6
CONTINUOUS
10
11.544
20
-27.8663
11
11.67
21
-28.0548
0
LINE
8
BLACK
6
CONTINUOUS
10
11.67
20
-28.0548
11
11.7568
21
-28.2643
0
LINE
8
BLACK
6
CONTINUOUS
10
11.7568
20
-28.2643
11
11.801
21
-28.4866
0
LINE
8
BLACK
6
CONTINUOUS
10
11.801
20
-28.4866
11
11.801
21
-28.7134
0
LINE
8
BLACK
6
CONTINUOUS
10
11.801
20
-28.7134
11
11.7568
21
-28.9357
0
LINE
8
BLACK
6
CONTINUOUS
10
11.7568
20
-28.9357
11
11.67
21
-29.1452
0
LINE
8
BLACK
6
CONTINUOUS
10
11.67
20
-29.1452
11
11.544
21
-29.3337
0
LINE
8
BLACK
6
CONTINUOUS
10
11.544
20
-29.3337
11
11.3837
21
-29.494
0
LINE
8
BLACK
6
CONTINUOUS
10
11.3837
20
-29.494
11
11.1952
21
-29.62
0
LINE
8
BLACK
6
CONTINUOUS
10
11.1952
20
-29.62
11
10.9857
21
-29.7068
0
LINE
8
BLACK
6
CONTINUOUS
10
10.9857
20
-29.7068
11
10.8745
21
-29.7289
0
LINE
8
BLACK
6
CONTINUOUS
10
10.8745
20
-29.7289
11
10.7634
21
-29.751
0
LINE
8
BLACK
6
CONTINUOUS
10
10.7634
20
-29.751
11
10.5366
21
-29.751
0
LINE
8
BLACK
6
CONTINUOUS
10
10.5366
20
-29.751
11
10.4255
21
-29.7289
0
LINE
8
BLACK
6
CONTINUOUS
10
10.4255
20
-29.7289
11
10.3143
21
-29.7068
0
LINE
8
BLACK
6
CONTINUOUS
10
10.3143
20
-29.7068
11
10.1048
21
-29.62
0
LINE
8
BLACK
6
CONTINUOUS
10
10.1048
20
-29.62
11
9.91628
21
-29.494
0
LINE
8
BLACK
6
CONTINUOUS
10
9.91628
20
-29.494
11
9.75596
21
-29.3337
0
LINE
8
BLACK
6
CONTINUOUS
10
9.75596
20
-29.3337
11
9.63
21
-29.1452
0
LINE
8
BLACK
6
CONTINUOUS
10
9.63
20
-29.1452
11
9.54323
21
-28.9357
0
LINE
8
BLACK
6
CONTINUOUS
10
9.54323
20
-28.9357
11
9.499
21
-28.7134
0
LINE
8
BLACK
6
CONTINUOUS
10
9.499
20
-28.7134
11
9.499
21
-28.4866
0
LINE
8
BLACK
6
CONTINUOUS
10
9.499
20
-28.4866
11
9.54323
21
-28.2643
0
LINE
8
BLACK
6
CONTINUOUS
10
9.54323
20
-28.2643
11
9.63
21
-28.0548
0
LINE
8
BLACK
6
CONTINUOUS
10
9.63
20
-28.0548
11
9.75596
21
-27.8663
0
LINE
8
BLACK
6
CONTINUOUS
10
9.75596
20
-27.8663
11
9.91628
21
-27.706
0
LINE
8
BLACK
6
CONTINUOUS
10
9.91628
20
-27.706
11
10.1048
21
-27.58
0
LINE
8
BLACK
6
CONTINUOUS
10
10.1048
20
-27.58
11
10.3143
21
-27.4932
0
LINE
8
BLACK
6
CONTINUOUS
10
10.3143
20
-27.4932
11
10.4255
21
-27.4711
0
LINE
8
BLACK
6
CONTINUOUS
10
10.4255
20
-27.4711
11
10.5366
21
-27.449
0
LINE
8
BLACK
6
CONTINUOUS
10
10.5366
20
-27.449
11
10.7634
21
-27.449
0
LINE
8
BLACK
6
CONTINUOUS
10
10.7634
20
-27.449
11
10.8745
21
-27.4711
  0
ENDSEC
  0
EOF
