  0
SECTION
  2
HEADER
  9
$ANGBASE
  50
0.0
  9
$ANGDIR
  70
1
  9
$MEASUREMENT
  70
1
  0
ENDSEC
  0
SECTION
  2
TABLES
  0
TABLE
  2
LTYPE
  70
4
  0
LTYPE
  5
40F
  2
CONTINUOUS
  70
0
  3
Solid line
  72
65
  73
0
  40
0.0
  0
LTYPE
  5
410
  2
DASHDOT
 70
0
  3
Dash Dot ____ _ ____ _
 72
65
 73
4
 40
2.0
 49
1.25
 49
-0.25
 49
0.25
 49
-0.25
  0
LTYPE
  5
411
  2
DASHED
 70
0
  3
Dashed __ __ __ __ __
 72
65
 73
2
 40
0.75
 49
0.5
 49
-0.25
  0
LTYPE
  5
43B
  2
DOTTED
 70
0
  3
Dotted .  .  .  .
 72
65
 73
2
 40
0.2
 49
0.0
 49
-0.2
  0
ENDTAB
  0
TABLE
  2
STYLE
  70
4
  0
STYLE
  2
KICAD
  70
0
  40
0
  41
1
  42
1
  50
0
  71
0
  3
isocp.shx
  0
STYLE
  2
KICADB
  70
0
  40
0
  41
1
  42
1
  50
0
  71
0
  3
isocp.shx
  0
STYLE
  2
KICADI
  70
0
  40
0
  41
1
  42
1
  50
15
  71
0
  3
isocp.shx
  0
STYLE
  2
KICADBI
  70
0
  40
0
  41
1
  42
1
  50
15
  71
0
  3
isocp.shx
  0
ENDTAB
  0
TABLE
  2
LAYER
  70
1
  0
LAYER
  2
BLACK
  70
0
  62
7
  6
CONTINUOUS
  0
ENDTAB
  0
ENDSEC
  0
SECTION
  2
ENTITIES
0
LINE
8
BLACK
6
CONTINUOUS
10
267.339
20
-137.412
11
266.767
21
-137.412
0
LINE
8
BLACK
6
CONTINUOUS
10
267.053
20
-137.412
11
267.053
21
-136.412
0
LINE
8
BLACK
6
CONTINUOUS
10
267.053
20
-136.412
11
266.958
21
-136.555
0
LINE
8
BLACK
6
CONTINUOUS
10
266.958
20
-136.555
11
266.862
21
-136.65
0
LINE
8
BLACK
6
CONTINUOUS
10
266.862
20
-136.65
11
266.767
21
-136.698
0
LINE
8
BLACK
6
CONTINUOUS
10
268.196
20
-136.746
11
268.196
21
-137.412
0
LINE
8
BLACK
6
CONTINUOUS
10
267.958
20
-136.365
11
267.72
21
-137.079
0
LINE
8
BLACK
6
CONTINUOUS
10
267.72
20
-137.079
11
268.339
21
-137.079
0
LINE
8
BLACK
6
CONTINUOUS
10
268.72
20
-137.317
11
268.767
21
-137.365
0
LINE
8
BLACK
6
CONTINUOUS
10
268.767
20
-137.365
11
268.72
21
-137.412
0
LINE
8
BLACK
6
CONTINUOUS
10
268.72
20
-137.412
11
268.672
21
-137.365
0
LINE
8
BLACK
6
CONTINUOUS
10
268.672
20
-137.365
11
268.72
21
-137.317
0
LINE
8
BLACK
6
CONTINUOUS
10
268.72
20
-137.317
11
268.72
21
-137.412
0
LINE
8
BLACK
6
CONTINUOUS
10
269.1
20
-136.412
11
269.767
21
-136.412
0
LINE
8
BLACK
6
CONTINUOUS
10
269.767
20
-136.412
11
269.339
21
-137.412
0
LINE
8
BLACK
6
CONTINUOUS
10
270.339
20
-136.412
11
270.434
21
-136.412
0
LINE
8
BLACK
6
CONTINUOUS
10
270.434
20
-136.412
11
270.529
21
-136.46
0
LINE
8
BLACK
6
CONTINUOUS
10
270.529
20
-136.46
11
270.577
21
-136.508
0
LINE
8
BLACK
6
CONTINUOUS
10
270.577
20
-136.508
11
270.624
21
-136.603
0
LINE
8
BLACK
6
CONTINUOUS
10
270.624
20
-136.603
11
270.672
21
-136.793
0
LINE
8
BLACK
6
CONTINUOUS
10
270.672
20
-136.793
11
270.672
21
-137.031
0
LINE
8
BLACK
6
CONTINUOUS
10
270.672
20
-137.031
11
270.624
21
-137.222
0
LINE
8
BLACK
6
CONTINUOUS
10
270.624
20
-137.222
11
270.577
21
-137.317
0
LINE
8
BLACK
6
CONTINUOUS
10
270.577
20
-137.317
11
270.529
21
-137.365
0
LINE
8
BLACK
6
CONTINUOUS
10
270.529
20
-137.365
11
270.434
21
-137.412
0
LINE
8
BLACK
6
CONTINUOUS
10
270.434
20
-137.412
11
270.339
21
-137.412
0
LINE
8
BLACK
6
CONTINUOUS
10
270.339
20
-137.412
11
270.243
21
-137.365
0
LINE
8
BLACK
6
CONTINUOUS
10
270.243
20
-137.365
11
270.196
21
-137.317
0
LINE
8
BLACK
6
CONTINUOUS
10
270.196
20
-137.317
11
270.148
21
-137.222
0
LINE
8
BLACK
6
CONTINUOUS
10
270.148
20
-137.222
11
270.1
21
-137.031
0
LINE
8
BLACK
6
CONTINUOUS
10
270.1
20
-137.031
11
270.1
21
-136.793
0
LINE
8
BLACK
6
CONTINUOUS
10
270.1
20
-136.793
11
270.148
21
-136.603
0
LINE
8
BLACK
6
CONTINUOUS
10
270.148
20
-136.603
11
270.196
21
-136.508
0
LINE
8
BLACK
6
CONTINUOUS
10
270.196
20
-136.508
11
270.243
21
-136.46
0
LINE
8
BLACK
6
CONTINUOUS
10
270.243
20
-136.46
11
270.339
21
-136.412
0
LINE
8
BLACK
6
CONTINUOUS
10
271.291
20
-136.412
11
271.386
21
-136.412
0
LINE
8
BLACK
6
CONTINUOUS
10
271.386
20
-136.412
11
271.481
21
-136.46
0
LINE
8
BLACK
6
CONTINUOUS
10
271.481
20
-136.46
11
271.529
21
-136.508
0
LINE
8
BLACK
6
CONTINUOUS
10
271.529
20
-136.508
11
271.577
21
-136.603
0
LINE
8
BLACK
6
CONTINUOUS
10
271.577
20
-136.603
11
271.624
21
-136.793
0
LINE
8
BLACK
6
CONTINUOUS
10
271.624
20
-136.793
11
271.624
21
-137.031
0
LINE
8
BLACK
6
CONTINUOUS
10
271.624
20
-137.031
11
271.577
21
-137.222
0
LINE
8
BLACK
6
CONTINUOUS
10
271.577
20
-137.222
11
271.529
21
-137.317
0
LINE
8
BLACK
6
CONTINUOUS
10
271.529
20
-137.317
11
271.481
21
-137.365
0
LINE
8
BLACK
6
CONTINUOUS
10
271.481
20
-137.365
11
271.386
21
-137.412
0
LINE
8
BLACK
6
CONTINUOUS
10
271.386
20
-137.412
11
271.291
21
-137.412
0
LINE
8
BLACK
6
CONTINUOUS
10
271.291
20
-137.412
11
271.196
21
-137.365
0
LINE
8
BLACK
6
CONTINUOUS
10
271.196
20
-137.365
11
271.148
21
-137.317
0
LINE
8
BLACK
6
CONTINUOUS
10
271.148
20
-137.317
11
271.1
21
-137.222
0
LINE
8
BLACK
6
CONTINUOUS
10
271.1
20
-137.222
11
271.053
21
-137.031
0
LINE
8
BLACK
6
CONTINUOUS
10
271.053
20
-137.031
11
271.053
21
-136.793
0
LINE
8
BLACK
6
CONTINUOUS
10
271.053
20
-136.793
11
271.1
21
-136.603
0
LINE
8
BLACK
6
CONTINUOUS
10
271.1
20
-136.603
11
271.148
21
-136.508
0
LINE
8
BLACK
6
CONTINUOUS
10
271.148
20
-136.508
11
271.196
21
-136.46
0
LINE
8
BLACK
6
CONTINUOUS
10
271.196
20
-136.46
11
271.291
21
-136.412
0
LINE
8
BLACK
6
CONTINUOUS
10
272.815
20
-137.412
11
272.815
21
-136.746
0
LINE
8
BLACK
6
CONTINUOUS
10
272.815
20
-136.841
11
272.862
21
-136.793
0
LINE
8
BLACK
6
CONTINUOUS
10
272.862
20
-136.793
11
272.958
21
-136.746
0
LINE
8
BLACK
6
CONTINUOUS
10
272.958
20
-136.746
11
273.1
21
-136.746
0
LINE
8
BLACK
6
CONTINUOUS
10
273.1
20
-136.746
11
273.196
21
-136.793
0
LINE
8
BLACK
6
CONTINUOUS
10
273.196
20
-136.793
11
273.243
21
-136.889
0
LINE
8
BLACK
6
CONTINUOUS
10
273.243
20
-136.889
11
273.243
21
-137.412
0
LINE
8
BLACK
6
CONTINUOUS
10
273.243
20
-136.889
11
273.291
21
-136.793
0
LINE
8
BLACK
6
CONTINUOUS
10
273.291
20
-136.793
11
273.386
21
-136.746
0
LINE
8
BLACK
6
CONTINUOUS
10
273.386
20
-136.746
11
273.529
21
-136.746
0
LINE
8
BLACK
6
CONTINUOUS
10
273.529
20
-136.746
11
273.624
21
-136.793
0
LINE
8
BLACK
6
CONTINUOUS
10
273.624
20
-136.793
11
273.672
21
-136.889
0
LINE
8
BLACK
6
CONTINUOUS
10
273.672
20
-136.889
11
273.672
21
-137.412
0
LINE
8
BLACK
6
CONTINUOUS
10
274.148
20
-137.412
11
274.148
21
-136.746
0
LINE
8
BLACK
6
CONTINUOUS
10
274.148
20
-136.841
11
274.196
21
-136.793
0
LINE
8
BLACK
6
CONTINUOUS
10
274.196
20
-136.793
11
274.291
21
-136.746
0
LINE
8
BLACK
6
CONTINUOUS
10
274.291
20
-136.746
11
274.434
21
-136.746
0
LINE
8
BLACK
6
CONTINUOUS
10
274.434
20
-136.746
11
274.529
21
-136.793
0
LINE
8
BLACK
6
CONTINUOUS
10
274.529
20
-136.793
11
274.577
21
-136.889
0
LINE
8
BLACK
6
CONTINUOUS
10
274.577
20
-136.889
11
274.577
21
-137.412
0
LINE
8
BLACK
6
CONTINUOUS
10
274.577
20
-136.889
11
274.624
21
-136.793
0
LINE
8
BLACK
6
CONTINUOUS
10
274.624
20
-136.793
11
274.72
21
-136.746
0
LINE
8
BLACK
6
CONTINUOUS
10
274.72
20
-136.746
11
274.862
21
-136.746
0
LINE
8
BLACK
6
CONTINUOUS
10
274.862
20
-136.746
11
274.958
21
-136.793
0
LINE
8
BLACK
6
CONTINUOUS
10
274.958
20
-136.793
11
275.005
21
-136.889
0
LINE
8
BLACK
6
CONTINUOUS
10
275.005
20
-136.889
11
275.005
21
-137.412
0
LINE
8
BLACK
6
CONTINUOUS
10
263.56
20
-135.76
11
278.26
21
-135.76
0
LINE
8
BLACK
6
CONTINUOUS
10
263.56
20
-135.37
11
263.56
21
-136.346
0
LINE
8
BLACK
6
CONTINUOUS
10
278.26
20
-135.37
11
278.26
21
-136.346
0
LINE
8
BLACK
6
CONTINUOUS
10
278.26
20
-135.76
11
277.133
21
-136.346
0
LINE
8
BLACK
6
CONTINUOUS
10
278.26
20
-135.76
11
277.133
21
-135.174
0
LINE
8
BLACK
6
CONTINUOUS
10
263.56
20
-135.76
11
264.687
21
-136.346
0
LINE
8
BLACK
6
CONTINUOUS
10
263.56
20
-135.76
11
264.687
21
-135.174
0
LINE
8
BLACK
6
CONTINUOUS
10
229.311
20
-136.732
11
228.74
21
-136.732
0
LINE
8
BLACK
6
CONTINUOUS
10
229.025
20
-136.732
11
229.025
21
-135.732
0
LINE
8
BLACK
6
CONTINUOUS
10
229.025
20
-135.732
11
228.93
21
-135.875
0
LINE
8
BLACK
6
CONTINUOUS
10
228.93
20
-135.875
11
228.835
21
-135.97
0
LINE
8
BLACK
6
CONTINUOUS
10
228.835
20
-135.97
11
228.74
21
-136.018
0
LINE
8
BLACK
6
CONTINUOUS
10
230.168
20
-136.066
11
230.168
21
-136.732
0
LINE
8
BLACK
6
CONTINUOUS
10
229.93
20
-135.685
11
229.692
21
-136.399
0
LINE
8
BLACK
6
CONTINUOUS
10
229.692
20
-136.399
11
230.311
21
-136.399
0
LINE
8
BLACK
6
CONTINUOUS
10
230.692
20
-136.637
11
230.74
21
-136.685
0
LINE
8
BLACK
6
CONTINUOUS
10
230.74
20
-136.685
11
230.692
21
-136.732
0
LINE
8
BLACK
6
CONTINUOUS
10
230.692
20
-136.732
11
230.644
21
-136.685
0
LINE
8
BLACK
6
CONTINUOUS
10
230.644
20
-136.685
11
230.692
21
-136.637
0
LINE
8
BLACK
6
CONTINUOUS
10
230.692
20
-136.637
11
230.692
21
-136.732
0
LINE
8
BLACK
6
CONTINUOUS
10
231.644
20
-135.732
11
231.168
21
-135.732
0
LINE
8
BLACK
6
CONTINUOUS
10
231.168
20
-135.732
11
231.121
21
-136.209
0
LINE
8
BLACK
6
CONTINUOUS
10
231.121
20
-136.209
11
231.168
21
-136.161
0
LINE
8
BLACK
6
CONTINUOUS
10
231.168
20
-136.161
11
231.263
21
-136.113
0
LINE
8
BLACK
6
CONTINUOUS
10
231.263
20
-136.113
11
231.502
21
-136.113
0
LINE
8
BLACK
6
CONTINUOUS
10
231.502
20
-136.113
11
231.597
21
-136.161
0
LINE
8
BLACK
6
CONTINUOUS
10
231.597
20
-136.161
11
231.644
21
-136.209
0
LINE
8
BLACK
6
CONTINUOUS
10
231.644
20
-136.209
11
231.692
21
-136.304
0
LINE
8
BLACK
6
CONTINUOUS
10
231.692
20
-136.304
11
231.692
21
-136.542
0
LINE
8
BLACK
6
CONTINUOUS
10
231.692
20
-136.542
11
231.644
21
-136.637
0
LINE
8
BLACK
6
CONTINUOUS
10
231.644
20
-136.637
11
231.597
21
-136.685
0
LINE
8
BLACK
6
CONTINUOUS
10
231.597
20
-136.685
11
231.502
21
-136.732
0
LINE
8
BLACK
6
CONTINUOUS
10
231.502
20
-136.732
11
231.263
21
-136.732
0
LINE
8
BLACK
6
CONTINUOUS
10
231.263
20
-136.732
11
231.168
21
-136.685
0
LINE
8
BLACK
6
CONTINUOUS
10
231.168
20
-136.685
11
231.121
21
-136.637
0
LINE
8
BLACK
6
CONTINUOUS
10
232.597
20
-135.732
11
232.121
21
-135.732
0
LINE
8
BLACK
6
CONTINUOUS
10
232.121
20
-135.732
11
232.073
21
-136.209
0
LINE
8
BLACK
6
CONTINUOUS
10
232.073
20
-136.209
11
232.121
21
-136.161
0
LINE
8
BLACK
6
CONTINUOUS
10
232.121
20
-136.161
11
232.216
21
-136.113
0
LINE
8
BLACK
6
CONTINUOUS
10
232.216
20
-136.113
11
232.454
21
-136.113
0
LINE
8
BLACK
6
CONTINUOUS
10
232.454
20
-136.113
11
232.549
21
-136.161
0
LINE
8
BLACK
6
CONTINUOUS
10
232.549
20
-136.161
11
232.597
21
-136.209
0
LINE
8
BLACK
6
CONTINUOUS
10
232.597
20
-136.209
11
232.644
21
-136.304
0
LINE
8
BLACK
6
CONTINUOUS
10
232.644
20
-136.304
11
232.644
21
-136.542
0
LINE
8
BLACK
6
CONTINUOUS
10
232.644
20
-136.542
11
232.597
21
-136.637
0
LINE
8
BLACK
6
CONTINUOUS
10
232.597
20
-136.637
11
232.549
21
-136.685
0
LINE
8
BLACK
6
CONTINUOUS
10
232.549
20
-136.685
11
232.454
21
-136.732
0
LINE
8
BLACK
6
CONTINUOUS
10
232.454
20
-136.732
11
232.216
21
-136.732
0
LINE
8
BLACK
6
CONTINUOUS
10
232.216
20
-136.732
11
232.121
21
-136.685
0
LINE
8
BLACK
6
CONTINUOUS
10
232.121
20
-136.685
11
232.073
21
-136.637
0
LINE
8
BLACK
6
CONTINUOUS
10
233.549
20
-135.732
11
233.073
21
-135.732
0
LINE
8
BLACK
6
CONTINUOUS
10
233.073
20
-135.732
11
233.025
21
-136.209
0
LINE
8
BLACK
6
CONTINUOUS
10
233.025
20
-136.209
11
233.073
21
-136.161
0
LINE
8
BLACK
6
CONTINUOUS
10
233.073
20
-136.161
11
233.168
21
-136.113
0
LINE
8
BLACK
6
CONTINUOUS
10
233.168
20
-136.113
11
233.406
21
-136.113
0
LINE
8
BLACK
6
CONTINUOUS
10
233.406
20
-136.113
11
233.502
21
-136.161
0
LINE
8
BLACK
6
CONTINUOUS
10
233.502
20
-136.161
11
233.549
21
-136.209
0
LINE
8
BLACK
6
CONTINUOUS
10
233.549
20
-136.209
11
233.597
21
-136.304
0
LINE
8
BLACK
6
CONTINUOUS
10
233.597
20
-136.304
11
233.597
21
-136.542
0
LINE
8
BLACK
6
CONTINUOUS
10
233.597
20
-136.542
11
233.549
21
-136.637
0
LINE
8
BLACK
6
CONTINUOUS
10
233.549
20
-136.637
11
233.502
21
-136.685
0
LINE
8
BLACK
6
CONTINUOUS
10
233.502
20
-136.685
11
233.406
21
-136.732
0
LINE
8
BLACK
6
CONTINUOUS
10
233.406
20
-136.732
11
233.168
21
-136.732
0
LINE
8
BLACK
6
CONTINUOUS
10
233.168
20
-136.732
11
233.073
21
-136.685
0
LINE
8
BLACK
6
CONTINUOUS
10
233.073
20
-136.685
11
233.025
21
-136.637
0
LINE
8
BLACK
6
CONTINUOUS
10
234.787
20
-136.732
11
234.787
21
-136.066
0
LINE
8
BLACK
6
CONTINUOUS
10
234.787
20
-136.161
11
234.835
21
-136.113
0
LINE
8
BLACK
6
CONTINUOUS
10
234.835
20
-136.113
11
234.93
21
-136.066
0
LINE
8
BLACK
6
CONTINUOUS
10
234.93
20
-136.066
11
235.073
21
-136.066
0
LINE
8
BLACK
6
CONTINUOUS
10
235.073
20
-136.066
11
235.168
21
-136.113
0
LINE
8
BLACK
6
CONTINUOUS
10
235.168
20
-136.113
11
235.216
21
-136.209
0
LINE
8
BLACK
6
CONTINUOUS
10
235.216
20
-136.209
11
235.216
21
-136.732
0
LINE
8
BLACK
6
CONTINUOUS
10
235.216
20
-136.209
11
235.263
21
-136.113
0
LINE
8
BLACK
6
CONTINUOUS
10
235.263
20
-136.113
11
235.359
21
-136.066
0
LINE
8
BLACK
6
CONTINUOUS
10
235.359
20
-136.066
11
235.502
21
-136.066
0
LINE
8
BLACK
6
CONTINUOUS
10
235.502
20
-136.066
11
235.597
21
-136.113
0
LINE
8
BLACK
6
CONTINUOUS
10
235.597
20
-136.113
11
235.644
21
-136.209
0
LINE
8
BLACK
6
CONTINUOUS
10
235.644
20
-136.209
11
235.644
21
-136.732
0
LINE
8
BLACK
6
CONTINUOUS
10
236.121
20
-136.732
11
236.121
21
-136.066
0
LINE
8
BLACK
6
CONTINUOUS
10
236.121
20
-136.161
11
236.168
21
-136.113
0
LINE
8
BLACK
6
CONTINUOUS
10
236.168
20
-136.113
11
236.263
21
-136.066
0
LINE
8
BLACK
6
CONTINUOUS
10
236.263
20
-136.066
11
236.406
21
-136.066
0
LINE
8
BLACK
6
CONTINUOUS
10
236.406
20
-136.066
11
236.502
21
-136.113
0
LINE
8
BLACK
6
CONTINUOUS
10
236.502
20
-136.113
11
236.549
21
-136.209
0
LINE
8
BLACK
6
CONTINUOUS
10
236.549
20
-136.209
11
236.549
21
-136.732
0
LINE
8
BLACK
6
CONTINUOUS
10
236.549
20
-136.209
11
236.597
21
-136.113
0
LINE
8
BLACK
6
CONTINUOUS
10
236.597
20
-136.113
11
236.692
21
-136.066
0
LINE
8
BLACK
6
CONTINUOUS
10
236.692
20
-136.066
11
236.835
21
-136.066
0
LINE
8
BLACK
6
CONTINUOUS
10
236.835
20
-136.066
11
236.93
21
-136.113
0
LINE
8
BLACK
6
CONTINUOUS
10
236.93
20
-136.113
11
236.978
21
-136.209
0
LINE
8
BLACK
6
CONTINUOUS
10
236.978
20
-136.209
11
236.978
21
-136.732
0
LINE
8
BLACK
6
CONTINUOUS
10
240.16
20
-135.08
11
225.605
21
-135.08
0
LINE
8
BLACK
6
CONTINUOUS
10
240.16
20
-134.43
11
240.16
21
-135.666
0
LINE
8
BLACK
6
CONTINUOUS
10
225.605
20
-134.43
11
225.605
21
-135.666
0
LINE
8
BLACK
6
CONTINUOUS
10
225.605
20
-135.08
11
226.732
21
-134.494
0
LINE
8
BLACK
6
CONTINUOUS
10
225.605
20
-135.08
11
226.732
21
-135.666
0
LINE
8
BLACK
6
CONTINUOUS
10
240.16
20
-135.08
11
239.033
21
-134.494
0
LINE
8
BLACK
6
CONTINUOUS
10
240.16
20
-135.08
11
239.033
21
-135.666
0
LINE
8
BLACK
6
CONTINUOUS
10
258.429
20
-43.9524
11
257.857
21
-43.9524
0
LINE
8
BLACK
6
CONTINUOUS
10
258.143
20
-43.9524
11
258.143
21
-42.9524
0
LINE
8
BLACK
6
CONTINUOUS
10
258.143
20
-42.9524
11
258.048
21
-43.0952
0
LINE
8
BLACK
6
CONTINUOUS
10
258.048
20
-43.0952
11
257.952
21
-43.1905
0
LINE
8
BLACK
6
CONTINUOUS
10
257.952
20
-43.1905
11
257.857
21
-43.2381
0
LINE
8
BLACK
6
CONTINUOUS
10
259
20
-43.381
11
258.905
21
-43.3333
0
LINE
8
BLACK
6
CONTINUOUS
10
258.905
20
-43.3333
11
258.857
21
-43.2857
0
LINE
8
BLACK
6
CONTINUOUS
10
258.857
20
-43.2857
11
258.81
21
-43.1905
0
LINE
8
BLACK
6
CONTINUOUS
10
258.81
20
-43.1905
11
258.81
21
-43.1429
0
LINE
8
BLACK
6
CONTINUOUS
10
258.81
20
-43.1429
11
258.857
21
-43.0476
0
LINE
8
BLACK
6
CONTINUOUS
10
258.857
20
-43.0476
11
258.905
21
-43
0
LINE
8
BLACK
6
CONTINUOUS
10
258.905
20
-43
11
259
21
-42.9524
0
LINE
8
BLACK
6
CONTINUOUS
10
259
20
-42.9524
11
259.19
21
-42.9524
0
LINE
8
BLACK
6
CONTINUOUS
10
259.19
20
-42.9524
11
259.286
21
-43
0
LINE
8
BLACK
6
CONTINUOUS
10
259.286
20
-43
11
259.333
21
-43.0476
0
LINE
8
BLACK
6
CONTINUOUS
10
259.333
20
-43.0476
11
259.381
21
-43.1429
0
LINE
8
BLACK
6
CONTINUOUS
10
259.381
20
-43.1429
11
259.381
21
-43.1905
0
LINE
8
BLACK
6
CONTINUOUS
10
259.381
20
-43.1905
11
259.333
21
-43.2857
0
LINE
8
BLACK
6
CONTINUOUS
10
259.333
20
-43.2857
11
259.286
21
-43.3333
0
LINE
8
BLACK
6
CONTINUOUS
10
259.286
20
-43.3333
11
259.19
21
-43.381
0
LINE
8
BLACK
6
CONTINUOUS
10
259.19
20
-43.381
11
259
21
-43.381
0
LINE
8
BLACK
6
CONTINUOUS
10
259
20
-43.381
11
258.905
21
-43.4286
0
LINE
8
BLACK
6
CONTINUOUS
10
258.905
20
-43.4286
11
258.857
21
-43.4762
0
LINE
8
BLACK
6
CONTINUOUS
10
258.857
20
-43.4762
11
258.81
21
-43.5714
0
LINE
8
BLACK
6
CONTINUOUS
10
258.81
20
-43.5714
11
258.81
21
-43.7619
0
LINE
8
BLACK
6
CONTINUOUS
10
258.81
20
-43.7619
11
258.857
21
-43.8571
0
LINE
8
BLACK
6
CONTINUOUS
10
258.857
20
-43.8571
11
258.905
21
-43.9048
0
LINE
8
BLACK
6
CONTINUOUS
10
258.905
20
-43.9048
11
259
21
-43.9524
0
LINE
8
BLACK
6
CONTINUOUS
10
259
20
-43.9524
11
259.19
21
-43.9524
0
LINE
8
BLACK
6
CONTINUOUS
10
259.19
20
-43.9524
11
259.286
21
-43.9048
0
LINE
8
BLACK
6
CONTINUOUS
10
259.286
20
-43.9048
11
259.333
21
-43.8571
0
LINE
8
BLACK
6
CONTINUOUS
10
259.333
20
-43.8571
11
259.381
21
-43.7619
0
LINE
8
BLACK
6
CONTINUOUS
10
259.381
20
-43.7619
11
259.381
21
-43.5714
0
LINE
8
BLACK
6
CONTINUOUS
10
259.381
20
-43.5714
11
259.333
21
-43.4762
0
LINE
8
BLACK
6
CONTINUOUS
10
259.333
20
-43.4762
11
259.286
21
-43.4286
0
LINE
8
BLACK
6
CONTINUOUS
10
259.286
20
-43.4286
11
259.19
21
-43.381
0
LINE
8
BLACK
6
CONTINUOUS
10
259.81
20
-43.8571
11
259.857
21
-43.9048
0
LINE
8
BLACK
6
CONTINUOUS
10
259.857
20
-43.9048
11
259.81
21
-43.9524
0
LINE
8
BLACK
6
CONTINUOUS
10
259.81
20
-43.9524
11
259.762
21
-43.9048
0
LINE
8
BLACK
6
CONTINUOUS
10
259.762
20
-43.9048
11
259.81
21
-43.8571
0
LINE
8
BLACK
6
CONTINUOUS
10
259.81
20
-43.8571
11
259.81
21
-43.9524
0
LINE
8
BLACK
6
CONTINUOUS
10
260.19
20
-42.9524
11
260.857
21
-42.9524
0
LINE
8
BLACK
6
CONTINUOUS
10
260.857
20
-42.9524
11
260.429
21
-43.9524
0
LINE
8
BLACK
6
CONTINUOUS
10
261.286
20
-43.9524
11
261.476
21
-43.9524
0
LINE
8
BLACK
6
CONTINUOUS
10
261.476
20
-43.9524
11
261.571
21
-43.9048
0
LINE
8
BLACK
6
CONTINUOUS
10
261.571
20
-43.9048
11
261.619
21
-43.8571
0
LINE
8
BLACK
6
CONTINUOUS
10
261.619
20
-43.8571
11
261.714
21
-43.7143
0
LINE
8
BLACK
6
CONTINUOUS
10
261.714
20
-43.7143
11
261.762
21
-43.5238
0
LINE
8
BLACK
6
CONTINUOUS
10
261.762
20
-43.5238
11
261.762
21
-43.1429
0
LINE
8
BLACK
6
CONTINUOUS
10
261.762
20
-43.1429
11
261.714
21
-43.0476
0
LINE
8
BLACK
6
CONTINUOUS
10
261.714
20
-43.0476
11
261.667
21
-43
0
LINE
8
BLACK
6
CONTINUOUS
10
261.667
20
-43
11
261.571
21
-42.9524
0
LINE
8
BLACK
6
CONTINUOUS
10
261.571
20
-42.9524
11
261.381
21
-42.9524
0
LINE
8
BLACK
6
CONTINUOUS
10
261.381
20
-42.9524
11
261.286
21
-43
0
LINE
8
BLACK
6
CONTINUOUS
10
261.286
20
-43
11
261.238
21
-43.0476
0
LINE
8
BLACK
6
CONTINUOUS
10
261.238
20
-43.0476
11
261.19
21
-43.1429
0
LINE
8
BLACK
6
CONTINUOUS
10
261.19
20
-43.1429
11
261.19
21
-43.381
0
LINE
8
BLACK
6
CONTINUOUS
10
261.19
20
-43.381
11
261.238
21
-43.4762
0
LINE
8
BLACK
6
CONTINUOUS
10
261.238
20
-43.4762
11
261.286
21
-43.5238
0
LINE
8
BLACK
6
CONTINUOUS
10
261.286
20
-43.5238
11
261.381
21
-43.5714
0
LINE
8
BLACK
6
CONTINUOUS
10
261.381
20
-43.5714
11
261.571
21
-43.5714
0
LINE
8
BLACK
6
CONTINUOUS
10
261.571
20
-43.5714
11
261.667
21
-43.5238
0
LINE
8
BLACK
6
CONTINUOUS
10
261.667
20
-43.5238
11
261.714
21
-43.4762
0
LINE
8
BLACK
6
CONTINUOUS
10
261.714
20
-43.4762
11
261.762
21
-43.381
0
LINE
8
BLACK
6
CONTINUOUS
10
262.381
20
-42.9524
11
262.476
21
-42.9524
0
LINE
8
BLACK
6
CONTINUOUS
10
262.476
20
-42.9524
11
262.571
21
-43
0
LINE
8
BLACK
6
CONTINUOUS
10
262.571
20
-43
11
262.619
21
-43.0476
0
LINE
8
BLACK
6
CONTINUOUS
10
262.619
20
-43.0476
11
262.667
21
-43.1429
0
LINE
8
BLACK
6
CONTINUOUS
10
262.667
20
-43.1429
11
262.714
21
-43.3333
0
LINE
8
BLACK
6
CONTINUOUS
10
262.714
20
-43.3333
11
262.714
21
-43.5714
0
LINE
8
BLACK
6
CONTINUOUS
10
262.714
20
-43.5714
11
262.667
21
-43.7619
0
LINE
8
BLACK
6
CONTINUOUS
10
262.667
20
-43.7619
11
262.619
21
-43.8571
0
LINE
8
BLACK
6
CONTINUOUS
10
262.619
20
-43.8571
11
262.571
21
-43.9048
0
LINE
8
BLACK
6
CONTINUOUS
10
262.571
20
-43.9048
11
262.476
21
-43.9524
0
LINE
8
BLACK
6
CONTINUOUS
10
262.476
20
-43.9524
11
262.381
21
-43.9524
0
LINE
8
BLACK
6
CONTINUOUS
10
262.381
20
-43.9524
11
262.286
21
-43.9048
0
LINE
8
BLACK
6
CONTINUOUS
10
262.286
20
-43.9048
11
262.238
21
-43.8571
0
LINE
8
BLACK
6
CONTINUOUS
10
262.238
20
-43.8571
11
262.19
21
-43.7619
0
LINE
8
BLACK
6
CONTINUOUS
10
262.19
20
-43.7619
11
262.143
21
-43.5714
0
LINE
8
BLACK
6
CONTINUOUS
10
262.143
20
-43.5714
11
262.143
21
-43.3333
0
LINE
8
BLACK
6
CONTINUOUS
10
262.143
20
-43.3333
11
262.19
21
-43.1429
0
LINE
8
BLACK
6
CONTINUOUS
10
262.19
20
-43.1429
11
262.238
21
-43.0476
0
LINE
8
BLACK
6
CONTINUOUS
10
262.238
20
-43.0476
11
262.286
21
-43
0
LINE
8
BLACK
6
CONTINUOUS
10
262.286
20
-43
11
262.381
21
-42.9524
0
LINE
8
BLACK
6
CONTINUOUS
10
263.905
20
-43.9524
11
263.905
21
-43.2857
0
LINE
8
BLACK
6
CONTINUOUS
10
263.905
20
-43.381
11
263.952
21
-43.3333
0
LINE
8
BLACK
6
CONTINUOUS
10
263.952
20
-43.3333
11
264.048
21
-43.2857
0
LINE
8
BLACK
6
CONTINUOUS
10
264.048
20
-43.2857
11
264.19
21
-43.2857
0
LINE
8
BLACK
6
CONTINUOUS
10
264.19
20
-43.2857
11
264.286
21
-43.3333
0
LINE
8
BLACK
6
CONTINUOUS
10
264.286
20
-43.3333
11
264.333
21
-43.4286
0
LINE
8
BLACK
6
CONTINUOUS
10
264.333
20
-43.4286
11
264.333
21
-43.9524
0
LINE
8
BLACK
6
CONTINUOUS
10
264.333
20
-43.4286
11
264.381
21
-43.3333
0
LINE
8
BLACK
6
CONTINUOUS
10
264.381
20
-43.3333
11
264.476
21
-43.2857
0
LINE
8
BLACK
6
CONTINUOUS
10
264.476
20
-43.2857
11
264.619
21
-43.2857
0
LINE
8
BLACK
6
CONTINUOUS
10
264.619
20
-43.2857
11
264.714
21
-43.3333
0
LINE
8
BLACK
6
CONTINUOUS
10
264.714
20
-43.3333
11
264.762
21
-43.4286
0
LINE
8
BLACK
6
CONTINUOUS
10
264.762
20
-43.4286
11
264.762
21
-43.9524
0
LINE
8
BLACK
6
CONTINUOUS
10
265.238
20
-43.9524
11
265.238
21
-43.2857
0
LINE
8
BLACK
6
CONTINUOUS
10
265.238
20
-43.381
11
265.286
21
-43.3333
0
LINE
8
BLACK
6
CONTINUOUS
10
265.286
20
-43.3333
11
265.381
21
-43.2857
0
LINE
8
BLACK
6
CONTINUOUS
10
265.381
20
-43.2857
11
265.524
21
-43.2857
0
LINE
8
BLACK
6
CONTINUOUS
10
265.524
20
-43.2857
11
265.619
21
-43.3333
0
LINE
8
BLACK
6
CONTINUOUS
10
265.619
20
-43.3333
11
265.667
21
-43.4286
0
LINE
8
BLACK
6
CONTINUOUS
10
265.667
20
-43.4286
11
265.667
21
-43.9524
0
LINE
8
BLACK
6
CONTINUOUS
10
265.667
20
-43.4286
11
265.714
21
-43.3333
0
LINE
8
BLACK
6
CONTINUOUS
10
265.714
20
-43.3333
11
265.81
21
-43.2857
0
LINE
8
BLACK
6
CONTINUOUS
10
265.81
20
-43.2857
11
265.952
21
-43.2857
0
LINE
8
BLACK
6
CONTINUOUS
10
265.952
20
-43.2857
11
266.048
21
-43.3333
0
LINE
8
BLACK
6
CONTINUOUS
10
266.048
20
-43.3333
11
266.095
21
-43.4286
0
LINE
8
BLACK
6
CONTINUOUS
10
266.095
20
-43.4286
11
266.095
21
-43.9524
0
LINE
8
BLACK
6
CONTINUOUS
10
252.605
20
-42.3
11
271.395
21
-42.3
0
LINE
8
BLACK
6
CONTINUOUS
10
252.605
20
-42.27
11
252.605
21
-42.8864
0
LINE
8
BLACK
6
CONTINUOUS
10
271.395
20
-42.27
11
271.395
21
-42.8864
0
LINE
8
BLACK
6
CONTINUOUS
10
271.395
20
-42.3
11
270.268
21
-42.8864
0
LINE
8
BLACK
6
CONTINUOUS
10
271.395
20
-42.3
11
270.268
21
-41.7136
0
LINE
8
BLACK
6
CONTINUOUS
10
252.605
20
-42.3
11
253.732
21
-42.8864
0
LINE
8
BLACK
6
CONTINUOUS
10
252.605
20
-42.3
11
253.732
21
-41.7136
0
LINE
8
BLACK
6
CONTINUOUS
10
278.26
20
-113.875
11
264.115
21
-113.875
0
LINE
8
BLACK
6
CONTINUOUS
10
271.395
20
-100.7
11
278.26
21
-113.875
0
ARC
8
BLACK
10
240.685
20
-131.005
40
0.525856
50
-183.27
51
-93.2705
0
ARC
8
BLACK
10
250.785
20
-131.005
40
0.525856
50
-93.2705
51
-3.27049
0
LINE
8
BLACK
6
CONTINUOUS
10
263.56
20
-131.035
11
263.56
21
-114.37
0
ARC
8
BLACK
10
239.635
20
-114.4
40
0.525856
50
-3.27049
51
86.7295
0
LINE
8
BLACK
6
CONTINUOUS
10
263.005
20
-131.53
11
253.1
21
-131.53
0
LINE
8
BLACK
6
CONTINUOUS
10
251.31
20
-131.035
11
251.31
21
-113.98
0
ARC
8
BLACK
10
253.13
20
-131.005
40
0.525856
50
-183.27
51
-93.2705
0
ARC
8
BLACK
10
253.13
20
-47.3
40
0.525856
50
86.7295
51
176.73
0
LINE
8
BLACK
6
CONTINUOUS
10
252.605
20
-130.975
11
252.605
21
-47.27
0
ARC
8
BLACK
10
263.035
20
-131.005
40
0.525856
50
-93.2705
51
-3.27049
0
LINE
8
BLACK
6
CONTINUOUS
10
244.395
20
-47.33
11
244.395
21
-100.7
0
ARC
8
BLACK
10
264.085
20
-114.4
40
0.525856
50
86.7295
51
176.73
0
LINE
8
BLACK
6
CONTINUOUS
10
250.755
20
-131.53
11
240.655
21
-131.53
0
LINE
8
BLACK
6
CONTINUOUS
10
244.395
20
-100.7
11
251.31
21
-113.98
0
LINE
8
BLACK
6
CONTINUOUS
10
254.509
20
-135.202
11
253.937
21
-135.202
0
LINE
8
BLACK
6
CONTINUOUS
10
254.223
20
-135.202
11
254.223
21
-134.202
0
LINE
8
BLACK
6
CONTINUOUS
10
254.223
20
-134.202
11
254.128
21
-134.345
0
LINE
8
BLACK
6
CONTINUOUS
10
254.128
20
-134.345
11
254.032
21
-134.44
0
LINE
8
BLACK
6
CONTINUOUS
10
254.032
20
-134.44
11
253.937
21
-134.488
0
LINE
8
BLACK
6
CONTINUOUS
10
255.128
20
-134.202
11
255.223
21
-134.202
0
LINE
8
BLACK
6
CONTINUOUS
10
255.223
20
-134.202
11
255.318
21
-134.25
0
LINE
8
BLACK
6
CONTINUOUS
10
255.318
20
-134.25
11
255.366
21
-134.298
0
LINE
8
BLACK
6
CONTINUOUS
10
255.366
20
-134.298
11
255.413
21
-134.393
0
LINE
8
BLACK
6
CONTINUOUS
10
255.413
20
-134.393
11
255.461
21
-134.583
0
LINE
8
BLACK
6
CONTINUOUS
10
255.461
20
-134.583
11
255.461
21
-134.821
0
LINE
8
BLACK
6
CONTINUOUS
10
255.461
20
-134.821
11
255.413
21
-135.012
0
LINE
8
BLACK
6
CONTINUOUS
10
255.413
20
-135.012
11
255.366
21
-135.107
0
LINE
8
BLACK
6
CONTINUOUS
10
255.366
20
-135.107
11
255.318
21
-135.155
0
LINE
8
BLACK
6
CONTINUOUS
10
255.318
20
-135.155
11
255.223
21
-135.202
0
LINE
8
BLACK
6
CONTINUOUS
10
255.223
20
-135.202
11
255.128
21
-135.202
0
LINE
8
BLACK
6
CONTINUOUS
10
255.128
20
-135.202
11
255.032
21
-135.155
0
LINE
8
BLACK
6
CONTINUOUS
10
255.032
20
-135.155
11
254.985
21
-135.107
0
LINE
8
BLACK
6
CONTINUOUS
10
254.985
20
-135.107
11
254.937
21
-135.012
0
LINE
8
BLACK
6
CONTINUOUS
10
254.937
20
-135.012
11
254.89
21
-134.821
0
LINE
8
BLACK
6
CONTINUOUS
10
254.89
20
-134.821
11
254.89
21
-134.583
0
LINE
8
BLACK
6
CONTINUOUS
10
254.89
20
-134.583
11
254.937
21
-134.393
0
LINE
8
BLACK
6
CONTINUOUS
10
254.937
20
-134.393
11
254.985
21
-134.298
0
LINE
8
BLACK
6
CONTINUOUS
10
254.985
20
-134.298
11
255.032
21
-134.25
0
LINE
8
BLACK
6
CONTINUOUS
10
255.032
20
-134.25
11
255.128
21
-134.202
0
LINE
8
BLACK
6
CONTINUOUS
10
255.89
20
-135.107
11
255.937
21
-135.155
0
LINE
8
BLACK
6
CONTINUOUS
10
255.937
20
-135.155
11
255.89
21
-135.202
0
LINE
8
BLACK
6
CONTINUOUS
10
255.89
20
-135.202
11
255.842
21
-135.155
0
LINE
8
BLACK
6
CONTINUOUS
10
255.842
20
-135.155
11
255.89
21
-135.107
0
LINE
8
BLACK
6
CONTINUOUS
10
255.89
20
-135.107
11
255.89
21
-135.202
0
LINE
8
BLACK
6
CONTINUOUS
10
256.413
20
-135.202
11
256.604
21
-135.202
0
LINE
8
BLACK
6
CONTINUOUS
10
256.604
20
-135.202
11
256.699
21
-135.155
0
LINE
8
BLACK
6
CONTINUOUS
10
256.699
20
-135.155
11
256.747
21
-135.107
0
LINE
8
BLACK
6
CONTINUOUS
10
256.747
20
-135.107
11
256.842
21
-134.964
0
LINE
8
BLACK
6
CONTINUOUS
10
256.842
20
-134.964
11
256.89
21
-134.774
0
LINE
8
BLACK
6
CONTINUOUS
10
256.89
20
-134.774
11
256.89
21
-134.393
0
LINE
8
BLACK
6
CONTINUOUS
10
256.89
20
-134.393
11
256.842
21
-134.298
0
LINE
8
BLACK
6
CONTINUOUS
10
256.842
20
-134.298
11
256.794
21
-134.25
0
LINE
8
BLACK
6
CONTINUOUS
10
256.794
20
-134.25
11
256.699
21
-134.202
0
LINE
8
BLACK
6
CONTINUOUS
10
256.699
20
-134.202
11
256.509
21
-134.202
0
LINE
8
BLACK
6
CONTINUOUS
10
256.509
20
-134.202
11
256.413
21
-134.25
0
LINE
8
BLACK
6
CONTINUOUS
10
256.413
20
-134.25
11
256.366
21
-134.298
0
LINE
8
BLACK
6
CONTINUOUS
10
256.366
20
-134.298
11
256.318
21
-134.393
0
LINE
8
BLACK
6
CONTINUOUS
10
256.318
20
-134.393
11
256.318
21
-134.631
0
LINE
8
BLACK
6
CONTINUOUS
10
256.318
20
-134.631
11
256.366
21
-134.726
0
LINE
8
BLACK
6
CONTINUOUS
10
256.366
20
-134.726
11
256.413
21
-134.774
0
LINE
8
BLACK
6
CONTINUOUS
10
256.413
20
-134.774
11
256.509
21
-134.821
0
LINE
8
BLACK
6
CONTINUOUS
10
256.509
20
-134.821
11
256.699
21
-134.821
0
LINE
8
BLACK
6
CONTINUOUS
10
256.699
20
-134.821
11
256.794
21
-134.774
0
LINE
8
BLACK
6
CONTINUOUS
10
256.794
20
-134.774
11
256.842
21
-134.726
0
LINE
8
BLACK
6
CONTINUOUS
10
256.842
20
-134.726
11
256.89
21
-134.631
0
LINE
8
BLACK
6
CONTINUOUS
10
257.747
20
-134.202
11
257.556
21
-134.202
0
LINE
8
BLACK
6
CONTINUOUS
10
257.556
20
-134.202
11
257.461
21
-134.25
0
LINE
8
BLACK
6
CONTINUOUS
10
257.461
20
-134.25
11
257.413
21
-134.298
0
LINE
8
BLACK
6
CONTINUOUS
10
257.413
20
-134.298
11
257.318
21
-134.44
0
LINE
8
BLACK
6
CONTINUOUS
10
257.318
20
-134.44
11
257.27
21
-134.631
0
LINE
8
BLACK
6
CONTINUOUS
10
257.27
20
-134.631
11
257.27
21
-135.012
0
LINE
8
BLACK
6
CONTINUOUS
10
257.27
20
-135.012
11
257.318
21
-135.107
0
LINE
8
BLACK
6
CONTINUOUS
10
257.318
20
-135.107
11
257.366
21
-135.155
0
LINE
8
BLACK
6
CONTINUOUS
10
257.366
20
-135.155
11
257.461
21
-135.202
0
LINE
8
BLACK
6
CONTINUOUS
10
257.461
20
-135.202
11
257.651
21
-135.202
0
LINE
8
BLACK
6
CONTINUOUS
10
257.651
20
-135.202
11
257.747
21
-135.155
0
LINE
8
BLACK
6
CONTINUOUS
10
257.747
20
-135.155
11
257.794
21
-135.107
0
LINE
8
BLACK
6
CONTINUOUS
10
257.794
20
-135.107
11
257.842
21
-135.012
0
LINE
8
BLACK
6
CONTINUOUS
10
257.842
20
-135.012
11
257.842
21
-134.774
0
LINE
8
BLACK
6
CONTINUOUS
10
257.842
20
-134.774
11
257.794
21
-134.679
0
LINE
8
BLACK
6
CONTINUOUS
10
257.794
20
-134.679
11
257.747
21
-134.631
0
LINE
8
BLACK
6
CONTINUOUS
10
257.747
20
-134.631
11
257.651
21
-134.583
0
LINE
8
BLACK
6
CONTINUOUS
10
257.651
20
-134.583
11
257.461
21
-134.583
0
LINE
8
BLACK
6
CONTINUOUS
10
257.461
20
-134.583
11
257.366
21
-134.631
0
LINE
8
BLACK
6
CONTINUOUS
10
257.366
20
-134.631
11
257.318
21
-134.679
0
LINE
8
BLACK
6
CONTINUOUS
10
257.318
20
-134.679
11
257.27
21
-134.774
0
LINE
8
BLACK
6
CONTINUOUS
10
258.461
20
-134.202
11
258.556
21
-134.202
0
LINE
8
BLACK
6
CONTINUOUS
10
258.556
20
-134.202
11
258.651
21
-134.25
0
LINE
8
BLACK
6
CONTINUOUS
10
258.651
20
-134.25
11
258.699
21
-134.298
0
LINE
8
BLACK
6
CONTINUOUS
10
258.699
20
-134.298
11
258.747
21
-134.393
0
LINE
8
BLACK
6
CONTINUOUS
10
258.747
20
-134.393
11
258.794
21
-134.583
0
LINE
8
BLACK
6
CONTINUOUS
10
258.794
20
-134.583
11
258.794
21
-134.821
0
LINE
8
BLACK
6
CONTINUOUS
10
258.794
20
-134.821
11
258.747
21
-135.012
0
LINE
8
BLACK
6
CONTINUOUS
10
258.747
20
-135.012
11
258.699
21
-135.107
0
LINE
8
BLACK
6
CONTINUOUS
10
258.699
20
-135.107
11
258.651
21
-135.155
0
LINE
8
BLACK
6
CONTINUOUS
10
258.651
20
-135.155
11
258.556
21
-135.202
0
LINE
8
BLACK
6
CONTINUOUS
10
258.556
20
-135.202
11
258.461
21
-135.202
0
LINE
8
BLACK
6
CONTINUOUS
10
258.461
20
-135.202
11
258.366
21
-135.155
0
LINE
8
BLACK
6
CONTINUOUS
10
258.366
20
-135.155
11
258.318
21
-135.107
0
LINE
8
BLACK
6
CONTINUOUS
10
258.318
20
-135.107
11
258.27
21
-135.012
0
LINE
8
BLACK
6
CONTINUOUS
10
258.27
20
-135.012
11
258.223
21
-134.821
0
LINE
8
BLACK
6
CONTINUOUS
10
258.223
20
-134.821
11
258.223
21
-134.583
0
LINE
8
BLACK
6
CONTINUOUS
10
258.223
20
-134.583
11
258.27
21
-134.393
0
LINE
8
BLACK
6
CONTINUOUS
10
258.27
20
-134.393
11
258.318
21
-134.298
0
LINE
8
BLACK
6
CONTINUOUS
10
258.318
20
-134.298
11
258.366
21
-134.25
0
LINE
8
BLACK
6
CONTINUOUS
10
258.366
20
-134.25
11
258.461
21
-134.202
0
LINE
8
BLACK
6
CONTINUOUS
10
259.985
20
-135.202
11
259.985
21
-134.536
0
LINE
8
BLACK
6
CONTINUOUS
10
259.985
20
-134.631
11
260.032
21
-134.583
0
LINE
8
BLACK
6
CONTINUOUS
10
260.032
20
-134.583
11
260.128
21
-134.536
0
LINE
8
BLACK
6
CONTINUOUS
10
260.128
20
-134.536
11
260.27
21
-134.536
0
LINE
8
BLACK
6
CONTINUOUS
10
260.27
20
-134.536
11
260.366
21
-134.583
0
LINE
8
BLACK
6
CONTINUOUS
10
260.366
20
-134.583
11
260.413
21
-134.679
0
LINE
8
BLACK
6
CONTINUOUS
10
260.413
20
-134.679
11
260.413
21
-135.202
0
LINE
8
BLACK
6
CONTINUOUS
10
260.413
20
-134.679
11
260.461
21
-134.583
0
LINE
8
BLACK
6
CONTINUOUS
10
260.461
20
-134.583
11
260.556
21
-134.536
0
LINE
8
BLACK
6
CONTINUOUS
10
260.556
20
-134.536
11
260.699
21
-134.536
0
LINE
8
BLACK
6
CONTINUOUS
10
260.699
20
-134.536
11
260.794
21
-134.583
0
LINE
8
BLACK
6
CONTINUOUS
10
260.794
20
-134.583
11
260.842
21
-134.679
0
LINE
8
BLACK
6
CONTINUOUS
10
260.842
20
-134.679
11
260.842
21
-135.202
0
LINE
8
BLACK
6
CONTINUOUS
10
261.318
20
-135.202
11
261.318
21
-134.536
0
LINE
8
BLACK
6
CONTINUOUS
10
261.318
20
-134.631
11
261.366
21
-134.583
0
LINE
8
BLACK
6
CONTINUOUS
10
261.366
20
-134.583
11
261.461
21
-134.536
0
LINE
8
BLACK
6
CONTINUOUS
10
261.461
20
-134.536
11
261.604
21
-134.536
0
LINE
8
BLACK
6
CONTINUOUS
10
261.604
20
-134.536
11
261.699
21
-134.583
0
LINE
8
BLACK
6
CONTINUOUS
10
261.699
20
-134.583
11
261.747
21
-134.679
0
LINE
8
BLACK
6
CONTINUOUS
10
261.747
20
-134.679
11
261.747
21
-135.202
0
LINE
8
BLACK
6
CONTINUOUS
10
261.747
20
-134.679
11
261.794
21
-134.583
0
LINE
8
BLACK
6
CONTINUOUS
10
261.794
20
-134.583
11
261.89
21
-134.536
0
LINE
8
BLACK
6
CONTINUOUS
10
261.89
20
-134.536
11
262.032
21
-134.536
0
LINE
8
BLACK
6
CONTINUOUS
10
262.032
20
-134.536
11
262.128
21
-134.583
0
LINE
8
BLACK
6
CONTINUOUS
10
262.128
20
-134.583
11
262.175
21
-134.679
0
LINE
8
BLACK
6
CONTINUOUS
10
262.175
20
-134.679
11
262.175
21
-135.202
0
LINE
8
BLACK
6
CONTINUOUS
10
263.56
20
-133.45
11
252.6
21
-133.45
0
LINE
8
BLACK
6
CONTINUOUS
10
263.56
20
-133.035
11
263.56
21
-134.036
0
LINE
8
BLACK
6
CONTINUOUS
10
252.6
20
-133.035
11
252.6
21
-134.036
0
LINE
8
BLACK
6
CONTINUOUS
10
252.6
20
-133.45
11
253.727
21
-132.864
0
LINE
8
BLACK
6
CONTINUOUS
10
252.6
20
-133.45
11
253.727
21
-134.036
0
LINE
8
BLACK
6
CONTINUOUS
10
263.56
20
-133.45
11
262.433
21
-132.864
0
LINE
8
BLACK
6
CONTINUOUS
10
263.56
20
-133.45
11
262.433
21
-134.036
0
LINE
8
BLACK
6
CONTINUOUS
10
242.164
20
-135.272
11
241.592
21
-135.272
0
LINE
8
BLACK
6
CONTINUOUS
10
241.878
20
-135.272
11
241.878
21
-134.272
0
LINE
8
BLACK
6
CONTINUOUS
10
241.878
20
-134.272
11
241.783
21
-134.415
0
LINE
8
BLACK
6
CONTINUOUS
10
241.783
20
-134.415
11
241.687
21
-134.51
0
LINE
8
BLACK
6
CONTINUOUS
10
241.687
20
-134.51
11
241.592
21
-134.558
0
LINE
8
BLACK
6
CONTINUOUS
10
243.116
20
-135.272
11
242.545
21
-135.272
0
LINE
8
BLACK
6
CONTINUOUS
10
242.83
20
-135.272
11
242.83
21
-134.272
0
LINE
8
BLACK
6
CONTINUOUS
10
242.83
20
-134.272
11
242.735
21
-134.415
0
LINE
8
BLACK
6
CONTINUOUS
10
242.735
20
-134.415
11
242.64
21
-134.51
0
LINE
8
BLACK
6
CONTINUOUS
10
242.64
20
-134.51
11
242.545
21
-134.558
0
LINE
8
BLACK
6
CONTINUOUS
10
243.545
20
-135.177
11
243.592
21
-135.225
0
LINE
8
BLACK
6
CONTINUOUS
10
243.592
20
-135.225
11
243.545
21
-135.272
0
LINE
8
BLACK
6
CONTINUOUS
10
243.545
20
-135.272
11
243.497
21
-135.225
0
LINE
8
BLACK
6
CONTINUOUS
10
243.497
20
-135.225
11
243.545
21
-135.177
0
LINE
8
BLACK
6
CONTINUOUS
10
243.545
20
-135.177
11
243.545
21
-135.272
0
LINE
8
BLACK
6
CONTINUOUS
10
244.545
20
-135.272
11
243.973
21
-135.272
0
LINE
8
BLACK
6
CONTINUOUS
10
244.259
20
-135.272
11
244.259
21
-134.272
0
LINE
8
BLACK
6
CONTINUOUS
10
244.259
20
-134.272
11
244.164
21
-134.415
0
LINE
8
BLACK
6
CONTINUOUS
10
244.164
20
-134.415
11
244.068
21
-134.51
0
LINE
8
BLACK
6
CONTINUOUS
10
244.068
20
-134.51
11
243.973
21
-134.558
0
LINE
8
BLACK
6
CONTINUOUS
10
245.449
20
-134.272
11
244.973
21
-134.272
0
LINE
8
BLACK
6
CONTINUOUS
10
244.973
20
-134.272
11
244.925
21
-134.749
0
LINE
8
BLACK
6
CONTINUOUS
10
244.925
20
-134.749
11
244.973
21
-134.701
0
LINE
8
BLACK
6
CONTINUOUS
10
244.973
20
-134.701
11
245.068
21
-134.653
0
LINE
8
BLACK
6
CONTINUOUS
10
245.068
20
-134.653
11
245.306
21
-134.653
0
LINE
8
BLACK
6
CONTINUOUS
10
245.306
20
-134.653
11
245.402
21
-134.701
0
LINE
8
BLACK
6
CONTINUOUS
10
245.402
20
-134.701
11
245.449
21
-134.749
0
LINE
8
BLACK
6
CONTINUOUS
10
245.449
20
-134.749
11
245.497
21
-134.844
0
LINE
8
BLACK
6
CONTINUOUS
10
245.497
20
-134.844
11
245.497
21
-135.082
0
LINE
8
BLACK
6
CONTINUOUS
10
245.497
20
-135.082
11
245.449
21
-135.177
0
LINE
8
BLACK
6
CONTINUOUS
10
245.449
20
-135.177
11
245.402
21
-135.225
0
LINE
8
BLACK
6
CONTINUOUS
10
245.402
20
-135.225
11
245.306
21
-135.272
0
LINE
8
BLACK
6
CONTINUOUS
10
245.306
20
-135.272
11
245.068
21
-135.272
0
LINE
8
BLACK
6
CONTINUOUS
10
245.068
20
-135.272
11
244.973
21
-135.225
0
LINE
8
BLACK
6
CONTINUOUS
10
244.973
20
-135.225
11
244.925
21
-135.177
0
LINE
8
BLACK
6
CONTINUOUS
10
246.116
20
-134.272
11
246.211
21
-134.272
0
LINE
8
BLACK
6
CONTINUOUS
10
246.211
20
-134.272
11
246.306
21
-134.32
0
LINE
8
BLACK
6
CONTINUOUS
10
246.306
20
-134.32
11
246.354
21
-134.368
0
LINE
8
BLACK
6
CONTINUOUS
10
246.354
20
-134.368
11
246.402
21
-134.463
0
LINE
8
BLACK
6
CONTINUOUS
10
246.402
20
-134.463
11
246.449
21
-134.653
0
LINE
8
BLACK
6
CONTINUOUS
10
246.449
20
-134.653
11
246.449
21
-134.891
0
LINE
8
BLACK
6
CONTINUOUS
10
246.449
20
-134.891
11
246.402
21
-135.082
0
LINE
8
BLACK
6
CONTINUOUS
10
246.402
20
-135.082
11
246.354
21
-135.177
0
LINE
8
BLACK
6
CONTINUOUS
10
246.354
20
-135.177
11
246.306
21
-135.225
0
LINE
8
BLACK
6
CONTINUOUS
10
246.306
20
-135.225
11
246.211
21
-135.272
0
LINE
8
BLACK
6
CONTINUOUS
10
246.211
20
-135.272
11
246.116
21
-135.272
0
LINE
8
BLACK
6
CONTINUOUS
10
246.116
20
-135.272
11
246.021
21
-135.225
0
LINE
8
BLACK
6
CONTINUOUS
10
246.021
20
-135.225
11
245.973
21
-135.177
0
LINE
8
BLACK
6
CONTINUOUS
10
245.973
20
-135.177
11
245.925
21
-135.082
0
LINE
8
BLACK
6
CONTINUOUS
10
245.925
20
-135.082
11
245.878
21
-134.891
0
LINE
8
BLACK
6
CONTINUOUS
10
245.878
20
-134.891
11
245.878
21
-134.653
0
LINE
8
BLACK
6
CONTINUOUS
10
245.878
20
-134.653
11
245.925
21
-134.463
0
LINE
8
BLACK
6
CONTINUOUS
10
245.925
20
-134.463
11
245.973
21
-134.368
0
LINE
8
BLACK
6
CONTINUOUS
10
245.973
20
-134.368
11
246.021
21
-134.32
0
LINE
8
BLACK
6
CONTINUOUS
10
246.021
20
-134.32
11
246.116
21
-134.272
0
LINE
8
BLACK
6
CONTINUOUS
10
247.64
20
-135.272
11
247.64
21
-134.606
0
LINE
8
BLACK
6
CONTINUOUS
10
247.64
20
-134.701
11
247.687
21
-134.653
0
LINE
8
BLACK
6
CONTINUOUS
10
247.687
20
-134.653
11
247.783
21
-134.606
0
LINE
8
BLACK
6
CONTINUOUS
10
247.783
20
-134.606
11
247.925
21
-134.606
0
LINE
8
BLACK
6
CONTINUOUS
10
247.925
20
-134.606
11
248.021
21
-134.653
0
LINE
8
BLACK
6
CONTINUOUS
10
248.021
20
-134.653
11
248.068
21
-134.749
0
LINE
8
BLACK
6
CONTINUOUS
10
248.068
20
-134.749
11
248.068
21
-135.272
0
LINE
8
BLACK
6
CONTINUOUS
10
248.068
20
-134.749
11
248.116
21
-134.653
0
LINE
8
BLACK
6
CONTINUOUS
10
248.116
20
-134.653
11
248.211
21
-134.606
0
LINE
8
BLACK
6
CONTINUOUS
10
248.211
20
-134.606
11
248.354
21
-134.606
0
LINE
8
BLACK
6
CONTINUOUS
10
248.354
20
-134.606
11
248.449
21
-134.653
0
LINE
8
BLACK
6
CONTINUOUS
10
248.449
20
-134.653
11
248.497
21
-134.749
0
LINE
8
BLACK
6
CONTINUOUS
10
248.497
20
-134.749
11
248.497
21
-135.272
0
LINE
8
BLACK
6
CONTINUOUS
10
248.973
20
-135.272
11
248.973
21
-134.606
0
LINE
8
BLACK
6
CONTINUOUS
10
248.973
20
-134.701
11
249.021
21
-134.653
0
LINE
8
BLACK
6
CONTINUOUS
10
249.021
20
-134.653
11
249.116
21
-134.606
0
LINE
8
BLACK
6
CONTINUOUS
10
249.116
20
-134.606
11
249.259
21
-134.606
0
LINE
8
BLACK
6
CONTINUOUS
10
249.259
20
-134.606
11
249.354
21
-134.653
0
LINE
8
BLACK
6
CONTINUOUS
10
249.354
20
-134.653
11
249.402
21
-134.749
0
LINE
8
BLACK
6
CONTINUOUS
10
249.402
20
-134.749
11
249.402
21
-135.272
0
LINE
8
BLACK
6
CONTINUOUS
10
249.402
20
-134.749
11
249.449
21
-134.653
0
LINE
8
BLACK
6
CONTINUOUS
10
249.449
20
-134.653
11
249.545
21
-134.606
0
LINE
8
BLACK
6
CONTINUOUS
10
249.545
20
-134.606
11
249.687
21
-134.606
0
LINE
8
BLACK
6
CONTINUOUS
10
249.687
20
-134.606
11
249.783
21
-134.653
0
LINE
8
BLACK
6
CONTINUOUS
10
249.783
20
-134.653
11
249.83
21
-134.749
0
LINE
8
BLACK
6
CONTINUOUS
10
249.83
20
-134.749
11
249.83
21
-135.272
0
LINE
8
BLACK
6
CONTINUOUS
10
251.31
20
-133.52
11
240.16
21
-133.52
0
LINE
8
BLACK
6
CONTINUOUS
10
251.31
20
-133.035
11
251.31
21
-134.106
0
LINE
8
BLACK
6
CONTINUOUS
10
240.16
20
-133.035
11
240.16
21
-134.106
0
LINE
8
BLACK
6
CONTINUOUS
10
240.16
20
-133.52
11
241.287
21
-132.934
0
LINE
8
BLACK
6
CONTINUOUS
10
240.16
20
-133.52
11
241.287
21
-134.106
0
LINE
8
BLACK
6
CONTINUOUS
10
251.31
20
-133.52
11
250.183
21
-132.934
0
LINE
8
BLACK
6
CONTINUOUS
10
251.31
20
-133.52
11
250.183
21
-134.106
0
LINE
8
BLACK
6
CONTINUOUS
10
240.16
20
-130.975
11
240.16
21
-114.43
0
ARC
8
BLACK
10
243.87
20
-47.3
40
0.525856
50
-3.27049
51
86.7295
0
LINE
8
BLACK
6
CONTINUOUS
10
231.426
20
-41.0724
11
230.855
21
-41.0724
0
LINE
8
BLACK
6
CONTINUOUS
10
231.14
20
-41.0724
11
231.14
21
-40.0724
0
LINE
8
BLACK
6
CONTINUOUS
10
231.14
20
-40.0724
11
231.045
21
-40.2152
0
LINE
8
BLACK
6
CONTINUOUS
10
231.045
20
-40.2152
11
230.95
21
-40.3105
0
LINE
8
BLACK
6
CONTINUOUS
10
230.95
20
-40.3105
11
230.855
21
-40.3581
0
LINE
8
BLACK
6
CONTINUOUS
10
231.998
20
-40.501
11
231.902
21
-40.4533
0
LINE
8
BLACK
6
CONTINUOUS
10
231.902
20
-40.4533
11
231.855
21
-40.4057
0
LINE
8
BLACK
6
CONTINUOUS
10
231.855
20
-40.4057
11
231.807
21
-40.3105
0
LINE
8
BLACK
6
CONTINUOUS
10
231.807
20
-40.3105
11
231.807
21
-40.2629
0
LINE
8
BLACK
6
CONTINUOUS
10
231.807
20
-40.2629
11
231.855
21
-40.1676
0
LINE
8
BLACK
6
CONTINUOUS
10
231.855
20
-40.1676
11
231.902
21
-40.12
0
LINE
8
BLACK
6
CONTINUOUS
10
231.902
20
-40.12
11
231.998
21
-40.0724
0
LINE
8
BLACK
6
CONTINUOUS
10
231.998
20
-40.0724
11
232.188
21
-40.0724
0
LINE
8
BLACK
6
CONTINUOUS
10
232.188
20
-40.0724
11
232.283
21
-40.12
0
LINE
8
BLACK
6
CONTINUOUS
10
232.283
20
-40.12
11
232.331
21
-40.1676
0
LINE
8
BLACK
6
CONTINUOUS
10
232.331
20
-40.1676
11
232.378
21
-40.2629
0
LINE
8
BLACK
6
CONTINUOUS
10
232.378
20
-40.2629
11
232.378
21
-40.3105
0
LINE
8
BLACK
6
CONTINUOUS
10
232.378
20
-40.3105
11
232.331
21
-40.4057
0
LINE
8
BLACK
6
CONTINUOUS
10
232.331
20
-40.4057
11
232.283
21
-40.4533
0
LINE
8
BLACK
6
CONTINUOUS
10
232.283
20
-40.4533
11
232.188
21
-40.501
0
LINE
8
BLACK
6
CONTINUOUS
10
232.188
20
-40.501
11
231.998
21
-40.501
0
LINE
8
BLACK
6
CONTINUOUS
10
231.998
20
-40.501
11
231.902
21
-40.5486
0
LINE
8
BLACK
6
CONTINUOUS
10
231.902
20
-40.5486
11
231.855
21
-40.5962
0
LINE
8
BLACK
6
CONTINUOUS
10
231.855
20
-40.5962
11
231.807
21
-40.6914
0
LINE
8
BLACK
6
CONTINUOUS
10
231.807
20
-40.6914
11
231.807
21
-40.8819
0
LINE
8
BLACK
6
CONTINUOUS
10
231.807
20
-40.8819
11
231.855
21
-40.9771
0
LINE
8
BLACK
6
CONTINUOUS
10
231.855
20
-40.9771
11
231.902
21
-41.0248
0
LINE
8
BLACK
6
CONTINUOUS
10
231.902
20
-41.0248
11
231.998
21
-41.0724
0
LINE
8
BLACK
6
CONTINUOUS
10
231.998
20
-41.0724
11
232.188
21
-41.0724
0
LINE
8
BLACK
6
CONTINUOUS
10
232.188
20
-41.0724
11
232.283
21
-41.0248
0
LINE
8
BLACK
6
CONTINUOUS
10
232.283
20
-41.0248
11
232.331
21
-40.9771
0
LINE
8
BLACK
6
CONTINUOUS
10
232.331
20
-40.9771
11
232.378
21
-40.8819
0
LINE
8
BLACK
6
CONTINUOUS
10
232.378
20
-40.8819
11
232.378
21
-40.6914
0
LINE
8
BLACK
6
CONTINUOUS
10
232.378
20
-40.6914
11
232.331
21
-40.5962
0
LINE
8
BLACK
6
CONTINUOUS
10
232.331
20
-40.5962
11
232.283
21
-40.5486
0
LINE
8
BLACK
6
CONTINUOUS
10
232.283
20
-40.5486
11
232.188
21
-40.501
0
LINE
8
BLACK
6
CONTINUOUS
10
232.807
20
-40.9771
11
232.855
21
-41.0248
0
LINE
8
BLACK
6
CONTINUOUS
10
232.855
20
-41.0248
11
232.807
21
-41.0724
0
LINE
8
BLACK
6
CONTINUOUS
10
232.807
20
-41.0724
11
232.759
21
-41.0248
0
LINE
8
BLACK
6
CONTINUOUS
10
232.759
20
-41.0248
11
232.807
21
-40.9771
0
LINE
8
BLACK
6
CONTINUOUS
10
232.807
20
-40.9771
11
232.807
21
-41.0724
0
LINE
8
BLACK
6
CONTINUOUS
10
233.188
20
-40.0724
11
233.855
21
-40.0724
0
LINE
8
BLACK
6
CONTINUOUS
10
233.855
20
-40.0724
11
233.426
21
-41.0724
0
LINE
8
BLACK
6
CONTINUOUS
10
234.283
20
-41.0724
11
234.474
21
-41.0724
0
LINE
8
BLACK
6
CONTINUOUS
10
234.474
20
-41.0724
11
234.569
21
-41.0248
0
LINE
8
BLACK
6
CONTINUOUS
10
234.569
20
-41.0248
11
234.617
21
-40.9771
0
LINE
8
BLACK
6
CONTINUOUS
10
234.617
20
-40.9771
11
234.712
21
-40.8343
0
LINE
8
BLACK
6
CONTINUOUS
10
234.712
20
-40.8343
11
234.759
21
-40.6438
0
LINE
8
BLACK
6
CONTINUOUS
10
234.759
20
-40.6438
11
234.759
21
-40.2629
0
LINE
8
BLACK
6
CONTINUOUS
10
234.759
20
-40.2629
11
234.712
21
-40.1676
0
LINE
8
BLACK
6
CONTINUOUS
10
234.712
20
-40.1676
11
234.664
21
-40.12
0
LINE
8
BLACK
6
CONTINUOUS
10
234.664
20
-40.12
11
234.569
21
-40.0724
0
LINE
8
BLACK
6
CONTINUOUS
10
234.569
20
-40.0724
11
234.378
21
-40.0724
0
LINE
8
BLACK
6
CONTINUOUS
10
234.378
20
-40.0724
11
234.283
21
-40.12
0
LINE
8
BLACK
6
CONTINUOUS
10
234.283
20
-40.12
11
234.236
21
-40.1676
0
LINE
8
BLACK
6
CONTINUOUS
10
234.236
20
-40.1676
11
234.188
21
-40.2629
0
LINE
8
BLACK
6
CONTINUOUS
10
234.188
20
-40.2629
11
234.188
21
-40.501
0
LINE
8
BLACK
6
CONTINUOUS
10
234.188
20
-40.501
11
234.236
21
-40.5962
0
LINE
8
BLACK
6
CONTINUOUS
10
234.236
20
-40.5962
11
234.283
21
-40.6438
0
LINE
8
BLACK
6
CONTINUOUS
10
234.283
20
-40.6438
11
234.378
21
-40.6914
0
LINE
8
BLACK
6
CONTINUOUS
10
234.378
20
-40.6914
11
234.569
21
-40.6914
0
LINE
8
BLACK
6
CONTINUOUS
10
234.569
20
-40.6914
11
234.664
21
-40.6438
0
LINE
8
BLACK
6
CONTINUOUS
10
234.664
20
-40.6438
11
234.712
21
-40.5962
0
LINE
8
BLACK
6
CONTINUOUS
10
234.712
20
-40.5962
11
234.759
21
-40.501
0
LINE
8
BLACK
6
CONTINUOUS
10
235.664
20
-40.0724
11
235.188
21
-40.0724
0
LINE
8
BLACK
6
CONTINUOUS
10
235.188
20
-40.0724
11
235.14
21
-40.5486
0
LINE
8
BLACK
6
CONTINUOUS
10
235.14
20
-40.5486
11
235.188
21
-40.501
0
LINE
8
BLACK
6
CONTINUOUS
10
235.188
20
-40.501
11
235.283
21
-40.4533
0
LINE
8
BLACK
6
CONTINUOUS
10
235.283
20
-40.4533
11
235.521
21
-40.4533
0
LINE
8
BLACK
6
CONTINUOUS
10
235.521
20
-40.4533
11
235.617
21
-40.501
0
LINE
8
BLACK
6
CONTINUOUS
10
235.617
20
-40.501
11
235.664
21
-40.5486
0
LINE
8
BLACK
6
CONTINUOUS
10
235.664
20
-40.5486
11
235.712
21
-40.6438
0
LINE
8
BLACK
6
CONTINUOUS
10
235.712
20
-40.6438
11
235.712
21
-40.8819
0
LINE
8
BLACK
6
CONTINUOUS
10
235.712
20
-40.8819
11
235.664
21
-40.9771
0
LINE
8
BLACK
6
CONTINUOUS
10
235.664
20
-40.9771
11
235.617
21
-41.0248
0
LINE
8
BLACK
6
CONTINUOUS
10
235.617
20
-41.0248
11
235.521
21
-41.0724
0
LINE
8
BLACK
6
CONTINUOUS
10
235.521
20
-41.0724
11
235.283
21
-41.0724
0
LINE
8
BLACK
6
CONTINUOUS
10
235.283
20
-41.0724
11
235.188
21
-41.0248
0
LINE
8
BLACK
6
CONTINUOUS
10
235.188
20
-41.0248
11
235.14
21
-40.9771
0
LINE
8
BLACK
6
CONTINUOUS
10
236.902
20
-41.0724
11
236.902
21
-40.4057
0
LINE
8
BLACK
6
CONTINUOUS
10
236.902
20
-40.501
11
236.95
21
-40.4533
0
LINE
8
BLACK
6
CONTINUOUS
10
236.95
20
-40.4533
11
237.045
21
-40.4057
0
LINE
8
BLACK
6
CONTINUOUS
10
237.045
20
-40.4057
11
237.188
21
-40.4057
0
LINE
8
BLACK
6
CONTINUOUS
10
237.188
20
-40.4057
11
237.283
21
-40.4533
0
LINE
8
BLACK
6
CONTINUOUS
10
237.283
20
-40.4533
11
237.331
21
-40.5486
0
LINE
8
BLACK
6
CONTINUOUS
10
237.331
20
-40.5486
11
237.331
21
-41.0724
0
LINE
8
BLACK
6
CONTINUOUS
10
237.331
20
-40.5486
11
237.378
21
-40.4533
0
LINE
8
BLACK
6
CONTINUOUS
10
237.378
20
-40.4533
11
237.474
21
-40.4057
0
LINE
8
BLACK
6
CONTINUOUS
10
237.474
20
-40.4057
11
237.617
21
-40.4057
0
LINE
8
BLACK
6
CONTINUOUS
10
237.617
20
-40.4057
11
237.712
21
-40.4533
0
LINE
8
BLACK
6
CONTINUOUS
10
237.712
20
-40.4533
11
237.759
21
-40.5486
0
LINE
8
BLACK
6
CONTINUOUS
10
237.759
20
-40.5486
11
237.759
21
-41.0724
0
LINE
8
BLACK
6
CONTINUOUS
10
238.236
20
-41.0724
11
238.236
21
-40.4057
0
LINE
8
BLACK
6
CONTINUOUS
10
238.236
20
-40.501
11
238.283
21
-40.4533
0
LINE
8
BLACK
6
CONTINUOUS
10
238.283
20
-40.4533
11
238.378
21
-40.4057
0
LINE
8
BLACK
6
CONTINUOUS
10
238.378
20
-40.4057
11
238.521
21
-40.4057
0
LINE
8
BLACK
6
CONTINUOUS
10
238.521
20
-40.4057
11
238.617
21
-40.4533
0
LINE
8
BLACK
6
CONTINUOUS
10
238.617
20
-40.4533
11
238.664
21
-40.5486
0
LINE
8
BLACK
6
CONTINUOUS
10
238.664
20
-40.5486
11
238.664
21
-41.0724
0
LINE
8
BLACK
6
CONTINUOUS
10
238.664
20
-40.5486
11
238.712
21
-40.4533
0
LINE
8
BLACK
6
CONTINUOUS
10
238.712
20
-40.4533
11
238.807
21
-40.4057
0
LINE
8
BLACK
6
CONTINUOUS
10
238.807
20
-40.4057
11
238.95
21
-40.4057
0
LINE
8
BLACK
6
CONTINUOUS
10
238.95
20
-40.4057
11
239.045
21
-40.4533
0
LINE
8
BLACK
6
CONTINUOUS
10
239.045
20
-40.4533
11
239.093
21
-40.5486
0
LINE
8
BLACK
6
CONTINUOUS
10
239.093
20
-40.5486
11
239.093
21
-41.0724
0
LINE
8
BLACK
6
CONTINUOUS
10
244.395
20
-41.92
11
225.6
21
-41.92
0
LINE
8
BLACK
6
CONTINUOUS
10
244.395
20
-42.33
11
244.395
21
-41.3336
0
LINE
8
BLACK
6
CONTINUOUS
10
225.6
20
-42.33
11
225.6
21
-41.3336
0
LINE
8
BLACK
6
CONTINUOUS
10
225.6
20
-41.92
11
226.727
21
-41.3336
0
LINE
8
BLACK
6
CONTINUOUS
10
225.6
20
-41.92
11
226.727
21
-42.5064
0
LINE
8
BLACK
6
CONTINUOUS
10
244.395
20
-41.92
11
243.268
21
-41.3336
0
LINE
8
BLACK
6
CONTINUOUS
10
244.395
20
-41.92
11
243.268
21
-42.5064
0
LINE
8
BLACK
6
CONTINUOUS
10
226.16
20
-46.775
11
243.9
21
-46.775
0
ARC
8
BLACK
10
226.13
20
-47.3
40
0.525856
50
86.7295
51
176.73
0
LINE
8
BLACK
6
CONTINUOUS
10
225.605
20
-113.32
11
225.605
21
-47.27
0
LINE
8
BLACK
6
CONTINUOUS
10
239.665
20
-113.875
11
226.1
21
-113.875
0
ARC
8
BLACK
10
226.13
20
-113.35
40
0.525856
50
-183.27
51
-93.2705
0
LINE
8
BLACK
6
CONTINUOUS
10
253.16
20
-46.775
11
270.9
21
-46.775
0
LINE
8
BLACK
6
CONTINUOUS
10
271.395
20
-47.33
11
271.395
21
-100.7
0
LINE
8
BLACK
6
CONTINUOUS
10
218.261
20
-93.1024
11
218.213
21
-93.1976
0
LINE
8
BLACK
6
CONTINUOUS
10
218.213
20
-93.1976
11
218.166
21
-93.2452
0
LINE
8
BLACK
6
CONTINUOUS
10
218.166
20
-93.2452
11
218.07
21
-93.2929
0
LINE
8
BLACK
6
CONTINUOUS
10
218.07
20
-93.2929
11
218.023
21
-93.2929
0
LINE
8
BLACK
6
CONTINUOUS
10
218.023
20
-93.2929
11
217.928
21
-93.2452
0
LINE
8
BLACK
6
CONTINUOUS
10
217.928
20
-93.2452
11
217.88
21
-93.1976
0
LINE
8
BLACK
6
CONTINUOUS
10
217.88
20
-93.1976
11
217.832
21
-93.1024
0
LINE
8
BLACK
6
CONTINUOUS
10
217.832
20
-93.1024
11
217.832
21
-92.9119
0
LINE
8
BLACK
6
CONTINUOUS
10
217.832
20
-92.9119
11
217.88
21
-92.8167
0
LINE
8
BLACK
6
CONTINUOUS
10
217.88
20
-92.8167
11
217.928
21
-92.769
0
LINE
8
BLACK
6
CONTINUOUS
10
217.928
20
-92.769
11
218.023
21
-92.7214
0
LINE
8
BLACK
6
CONTINUOUS
10
218.023
20
-92.7214
11
218.07
21
-92.7214
0
LINE
8
BLACK
6
CONTINUOUS
10
218.07
20
-92.7214
11
218.166
21
-92.769
0
LINE
8
BLACK
6
CONTINUOUS
10
218.166
20
-92.769
11
218.213
21
-92.8167
0
LINE
8
BLACK
6
CONTINUOUS
10
218.213
20
-92.8167
11
218.261
21
-92.9119
0
LINE
8
BLACK
6
CONTINUOUS
10
218.261
20
-92.9119
11
218.261
21
-93.1024
0
LINE
8
BLACK
6
CONTINUOUS
10
218.261
20
-93.1024
11
218.309
21
-93.1976
0
LINE
8
BLACK
6
CONTINUOUS
10
218.309
20
-93.1976
11
218.356
21
-93.2452
0
LINE
8
BLACK
6
CONTINUOUS
10
218.356
20
-93.2452
11
218.451
21
-93.2929
0
LINE
8
BLACK
6
CONTINUOUS
10
218.451
20
-93.2929
11
218.642
21
-93.2929
0
LINE
8
BLACK
6
CONTINUOUS
10
218.642
20
-93.2929
11
218.737
21
-93.2452
0
LINE
8
BLACK
6
CONTINUOUS
10
218.737
20
-93.2452
11
218.785
21
-93.1976
0
LINE
8
BLACK
6
CONTINUOUS
10
218.785
20
-93.1976
11
218.832
21
-93.1024
0
LINE
8
BLACK
6
CONTINUOUS
10
218.832
20
-93.1024
11
218.832
21
-92.9119
0
LINE
8
BLACK
6
CONTINUOUS
10
218.832
20
-92.9119
11
218.785
21
-92.8167
0
LINE
8
BLACK
6
CONTINUOUS
10
218.785
20
-92.8167
11
218.737
21
-92.769
0
LINE
8
BLACK
6
CONTINUOUS
10
218.737
20
-92.769
11
218.642
21
-92.7214
0
LINE
8
BLACK
6
CONTINUOUS
10
218.642
20
-92.7214
11
218.451
21
-92.7214
0
LINE
8
BLACK
6
CONTINUOUS
10
218.451
20
-92.7214
11
218.356
21
-92.769
0
LINE
8
BLACK
6
CONTINUOUS
10
218.356
20
-92.769
11
218.309
21
-92.8167
0
LINE
8
BLACK
6
CONTINUOUS
10
218.309
20
-92.8167
11
218.261
21
-92.9119
0
LINE
8
BLACK
6
CONTINUOUS
10
218.166
20
-91.8643
11
218.832
21
-91.8643
0
LINE
8
BLACK
6
CONTINUOUS
10
217.785
20
-92.1024
11
218.499
21
-92.3405
0
LINE
8
BLACK
6
CONTINUOUS
10
218.499
20
-92.3405
11
218.499
21
-91.7214
0
LINE
8
BLACK
6
CONTINUOUS
10
218.737
20
-91.3405
11
218.785
21
-91.2929
0
LINE
8
BLACK
6
CONTINUOUS
10
218.785
20
-91.2929
11
218.832
21
-91.3405
0
LINE
8
BLACK
6
CONTINUOUS
10
218.832
20
-91.3405
11
218.785
21
-91.3881
0
LINE
8
BLACK
6
CONTINUOUS
10
218.785
20
-91.3881
11
218.737
21
-91.3405
0
LINE
8
BLACK
6
CONTINUOUS
10
218.737
20
-91.3405
11
218.832
21
-91.3405
0
LINE
8
BLACK
6
CONTINUOUS
10
217.832
20
-90.9595
11
217.832
21
-90.2929
0
LINE
8
BLACK
6
CONTINUOUS
10
217.832
20
-90.2929
11
218.832
21
-90.7214
0
LINE
8
BLACK
6
CONTINUOUS
10
217.832
20
-89.4833
11
217.832
21
-89.6738
0
LINE
8
BLACK
6
CONTINUOUS
10
217.832
20
-89.6738
11
217.88
21
-89.769
0
LINE
8
BLACK
6
CONTINUOUS
10
217.88
20
-89.769
11
217.928
21
-89.8167
0
LINE
8
BLACK
6
CONTINUOUS
10
217.928
20
-89.8167
11
218.07
21
-89.9119
0
LINE
8
BLACK
6
CONTINUOUS
10
218.07
20
-89.9119
11
218.261
21
-89.9595
0
LINE
8
BLACK
6
CONTINUOUS
10
218.261
20
-89.9595
11
218.642
21
-89.9595
0
LINE
8
BLACK
6
CONTINUOUS
10
218.642
20
-89.9595
11
218.737
21
-89.9119
0
LINE
8
BLACK
6
CONTINUOUS
10
218.737
20
-89.9119
11
218.785
21
-89.8643
0
LINE
8
BLACK
6
CONTINUOUS
10
218.785
20
-89.8643
11
218.832
21
-89.769
0
LINE
8
BLACK
6
CONTINUOUS
10
218.832
20
-89.769
11
218.832
21
-89.5786
0
LINE
8
BLACK
6
CONTINUOUS
10
218.832
20
-89.5786
11
218.785
21
-89.4833
0
LINE
8
BLACK
6
CONTINUOUS
10
218.785
20
-89.4833
11
218.737
21
-89.4357
0
LINE
8
BLACK
6
CONTINUOUS
10
218.737
20
-89.4357
11
218.642
21
-89.3881
0
LINE
8
BLACK
6
CONTINUOUS
10
218.642
20
-89.3881
11
218.404
21
-89.3881
0
LINE
8
BLACK
6
CONTINUOUS
10
218.404
20
-89.3881
11
218.309
21
-89.4357
0
LINE
8
BLACK
6
CONTINUOUS
10
218.309
20
-89.4357
11
218.261
21
-89.4833
0
LINE
8
BLACK
6
CONTINUOUS
10
218.261
20
-89.4833
11
218.213
21
-89.5786
0
LINE
8
BLACK
6
CONTINUOUS
10
218.213
20
-89.5786
11
218.213
21
-89.769
0
LINE
8
BLACK
6
CONTINUOUS
10
218.213
20
-89.769
11
218.261
21
-89.8643
0
LINE
8
BLACK
6
CONTINUOUS
10
218.261
20
-89.8643
11
218.309
21
-89.9119
0
LINE
8
BLACK
6
CONTINUOUS
10
218.309
20
-89.9119
11
218.404
21
-89.9595
0
LINE
8
BLACK
6
CONTINUOUS
10
217.832
20
-88.769
11
217.832
21
-88.6738
0
LINE
8
BLACK
6
CONTINUOUS
10
217.832
20
-88.6738
11
217.88
21
-88.5786
0
LINE
8
BLACK
6
CONTINUOUS
10
217.88
20
-88.5786
11
217.928
21
-88.531
0
LINE
8
BLACK
6
CONTINUOUS
10
217.928
20
-88.531
11
218.023
21
-88.4833
0
LINE
8
BLACK
6
CONTINUOUS
10
218.023
20
-88.4833
11
218.213
21
-88.4357
0
LINE
8
BLACK
6
CONTINUOUS
10
218.213
20
-88.4357
11
218.451
21
-88.4357
0
LINE
8
BLACK
6
CONTINUOUS
10
218.451
20
-88.4357
11
218.642
21
-88.4833
0
LINE
8
BLACK
6
CONTINUOUS
10
218.642
20
-88.4833
11
218.737
21
-88.531
0
LINE
8
BLACK
6
CONTINUOUS
10
218.737
20
-88.531
11
218.785
21
-88.5786
0
LINE
8
BLACK
6
CONTINUOUS
10
218.785
20
-88.5786
11
218.832
21
-88.6738
0
LINE
8
BLACK
6
CONTINUOUS
10
218.832
20
-88.6738
11
218.832
21
-88.769
0
LINE
8
BLACK
6
CONTINUOUS
10
218.832
20
-88.769
11
218.785
21
-88.8643
0
LINE
8
BLACK
6
CONTINUOUS
10
218.785
20
-88.8643
11
218.737
21
-88.9119
0
LINE
8
BLACK
6
CONTINUOUS
10
218.737
20
-88.9119
11
218.642
21
-88.9595
0
LINE
8
BLACK
6
CONTINUOUS
10
218.642
20
-88.9595
11
218.451
21
-89.0071
0
LINE
8
BLACK
6
CONTINUOUS
10
218.451
20
-89.0071
11
218.213
21
-89.0071
0
LINE
8
BLACK
6
CONTINUOUS
10
218.213
20
-89.0071
11
218.023
21
-88.9595
0
LINE
8
BLACK
6
CONTINUOUS
10
218.023
20
-88.9595
11
217.928
21
-88.9119
0
LINE
8
BLACK
6
CONTINUOUS
10
217.928
20
-88.9119
11
217.88
21
-88.8643
0
LINE
8
BLACK
6
CONTINUOUS
10
217.88
20
-88.8643
11
217.832
21
-88.769
0
LINE
8
BLACK
6
CONTINUOUS
10
218.832
20
-87.2452
11
218.166
21
-87.2452
0
LINE
8
BLACK
6
CONTINUOUS
10
218.261
20
-87.2452
11
218.213
21
-87.1976
0
LINE
8
BLACK
6
CONTINUOUS
10
218.213
20
-87.1976
11
218.166
21
-87.1024
0
LINE
8
BLACK
6
CONTINUOUS
10
218.166
20
-87.1024
11
218.166
21
-86.9595
0
LINE
8
BLACK
6
CONTINUOUS
10
218.166
20
-86.9595
11
218.213
21
-86.8643
0
LINE
8
BLACK
6
CONTINUOUS
10
218.213
20
-86.8643
11
218.309
21
-86.8167
0
LINE
8
BLACK
6
CONTINUOUS
10
218.309
20
-86.8167
11
218.832
21
-86.8167
0
LINE
8
BLACK
6
CONTINUOUS
10
218.309
20
-86.8167
11
218.213
21
-86.769
0
LINE
8
BLACK
6
CONTINUOUS
10
218.213
20
-86.769
11
218.166
21
-86.6738
0
LINE
8
BLACK
6
CONTINUOUS
10
218.166
20
-86.6738
11
218.166
21
-86.531
0
LINE
8
BLACK
6
CONTINUOUS
10
218.166
20
-86.531
11
218.213
21
-86.4357
0
LINE
8
BLACK
6
CONTINUOUS
10
218.213
20
-86.4357
11
218.309
21
-86.3881
0
LINE
8
BLACK
6
CONTINUOUS
10
218.309
20
-86.3881
11
218.832
21
-86.3881
0
LINE
8
BLACK
6
CONTINUOUS
10
218.832
20
-85.9119
11
218.166
21
-85.9119
0
LINE
8
BLACK
6
CONTINUOUS
10
218.261
20
-85.9119
11
218.213
21
-85.8643
0
LINE
8
BLACK
6
CONTINUOUS
10
218.213
20
-85.8643
11
218.166
21
-85.769
0
LINE
8
BLACK
6
CONTINUOUS
10
218.166
20
-85.769
11
218.166
21
-85.6262
0
LINE
8
BLACK
6
CONTINUOUS
10
218.166
20
-85.6262
11
218.213
21
-85.531
0
LINE
8
BLACK
6
CONTINUOUS
10
218.213
20
-85.531
11
218.309
21
-85.4833
0
LINE
8
BLACK
6
CONTINUOUS
10
218.309
20
-85.4833
11
218.832
21
-85.4833
0
LINE
8
BLACK
6
CONTINUOUS
10
218.309
20
-85.4833
11
218.213
21
-85.4357
0
LINE
8
BLACK
6
CONTINUOUS
10
218.213
20
-85.4357
11
218.166
21
-85.3405
0
LINE
8
BLACK
6
CONTINUOUS
10
218.166
20
-85.3405
11
218.166
21
-85.1976
0
LINE
8
BLACK
6
CONTINUOUS
10
218.166
20
-85.1976
11
218.213
21
-85.1024
0
LINE
8
BLACK
6
CONTINUOUS
10
218.213
20
-85.1024
11
218.309
21
-85.0548
0
LINE
8
BLACK
6
CONTINUOUS
10
218.309
20
-85.0548
11
218.832
21
-85.0548
0
LINE
8
BLACK
6
CONTINUOUS
10
219.68
20
-131.53
11
219.68
21
-46.77
0
LINE
8
BLACK
6
CONTINUOUS
10
223.655
20
-131.53
11
219.094
21
-131.53
0
LINE
8
BLACK
6
CONTINUOUS
10
223.655
20
-46.77
11
219.094
21
-46.77
0
LINE
8
BLACK
6
CONTINUOUS
10
219.68
20
-46.77
11
220.266
21
-47.8965
0
LINE
8
BLACK
6
CONTINUOUS
10
219.68
20
-46.77
11
219.094
21
-47.8965
0
LINE
8
BLACK
6
CONTINUOUS
10
219.68
20
-131.53
11
220.266
21
-130.403
0
LINE
8
BLACK
6
CONTINUOUS
10
219.68
20
-131.53
11
219.094
21
-130.403
0
ARC
8
BLACK
10
270.87
20
-47.3
40
0.525856
50
-3.27049
51
86.7295
0
LINE
8
BLACK
6
CONTINUOUS
10
265.615
20
-108.571
11
265.726
21
-108.593
0
LINE
8
BLACK
6
CONTINUOUS
10
265.726
20
-108.593
11
265.935
21
-108.68
0
LINE
8
BLACK
6
CONTINUOUS
10
265.935
20
-108.68
11
266.124
21
-108.806
0
LINE
8
BLACK
6
CONTINUOUS
10
266.124
20
-108.806
11
266.284
21
-108.966
0
LINE
8
BLACK
6
CONTINUOUS
10
266.284
20
-108.966
11
266.41
21
-109.155
0
LINE
8
BLACK
6
CONTINUOUS
10
266.41
20
-109.155
11
266.497
21
-109.364
0
LINE
8
BLACK
6
CONTINUOUS
10
266.497
20
-109.364
11
266.541
21
-109.587
0
LINE
8
BLACK
6
CONTINUOUS
10
266.541
20
-109.587
11
266.541
21
-109.813
0
LINE
8
BLACK
6
CONTINUOUS
10
266.541
20
-109.813
11
266.497
21
-110.036
0
LINE
8
BLACK
6
CONTINUOUS
10
266.497
20
-110.036
11
266.41
21
-110.245
0
LINE
8
BLACK
6
CONTINUOUS
10
266.41
20
-110.245
11
266.284
21
-110.434
0
LINE
8
BLACK
6
CONTINUOUS
10
266.284
20
-110.434
11
266.124
21
-110.594
0
LINE
8
BLACK
6
CONTINUOUS
10
266.124
20
-110.594
11
265.935
21
-110.72
0
LINE
8
BLACK
6
CONTINUOUS
10
265.935
20
-110.72
11
265.726
21
-110.807
0
LINE
8
BLACK
6
CONTINUOUS
10
265.726
20
-110.807
11
265.615
21
-110.829
0
LINE
8
BLACK
6
CONTINUOUS
10
265.615
20
-110.829
11
265.503
21
-110.851
0
LINE
8
BLACK
6
CONTINUOUS
10
265.503
20
-110.851
11
265.277
21
-110.851
0
LINE
8
BLACK
6
CONTINUOUS
10
265.277
20
-110.851
11
265.165
21
-110.829
0
LINE
8
BLACK
6
CONTINUOUS
10
265.165
20
-110.829
11
265.054
21
-110.807
0
LINE
8
BLACK
6
CONTINUOUS
10
265.054
20
-110.807
11
264.845
21
-110.72
0
LINE
8
BLACK
6
CONTINUOUS
10
264.845
20
-110.72
11
264.656
21
-110.594
0
LINE
8
BLACK
6
CONTINUOUS
10
264.656
20
-110.594
11
264.496
21
-110.434
0
LINE
8
BLACK
6
CONTINUOUS
10
264.496
20
-110.434
11
264.37
21
-110.245
0
LINE
8
BLACK
6
CONTINUOUS
10
264.37
20
-110.245
11
264.283
21
-110.036
0
LINE
8
BLACK
6
CONTINUOUS
10
264.283
20
-110.036
11
264.239
21
-109.813
0
LINE
8
BLACK
6
CONTINUOUS
10
264.239
20
-109.813
11
264.239
21
-109.587
0
LINE
8
BLACK
6
CONTINUOUS
10
264.239
20
-109.587
11
264.283
21
-109.364
0
LINE
8
BLACK
6
CONTINUOUS
10
264.283
20
-109.364
11
264.37
21
-109.155
0
LINE
8
BLACK
6
CONTINUOUS
10
264.37
20
-109.155
11
264.496
21
-108.966
0
LINE
8
BLACK
6
CONTINUOUS
10
264.496
20
-108.966
11
264.656
21
-108.806
0
LINE
8
BLACK
6
CONTINUOUS
10
264.656
20
-108.806
11
264.845
21
-108.68
0
LINE
8
BLACK
6
CONTINUOUS
10
264.845
20
-108.68
11
265.054
21
-108.593
0
LINE
8
BLACK
6
CONTINUOUS
10
265.054
20
-108.593
11
265.165
21
-108.571
0
LINE
8
BLACK
6
CONTINUOUS
10
265.165
20
-108.571
11
265.277
21
-108.549
0
LINE
8
BLACK
6
CONTINUOUS
10
265.277
20
-108.549
11
265.503
21
-108.549
0
LINE
8
BLACK
6
CONTINUOUS
10
265.503
20
-108.549
11
265.615
21
-108.571
0
LINE
8
BLACK
6
CONTINUOUS
10
238.615
20
-108.571
11
238.726
21
-108.593
0
LINE
8
BLACK
6
CONTINUOUS
10
238.726
20
-108.593
11
238.935
21
-108.68
0
LINE
8
BLACK
6
CONTINUOUS
10
238.935
20
-108.68
11
239.124
21
-108.806
0
LINE
8
BLACK
6
CONTINUOUS
10
239.124
20
-108.806
11
239.284
21
-108.966
0
LINE
8
BLACK
6
CONTINUOUS
10
239.284
20
-108.966
11
239.41
21
-109.155
0
LINE
8
BLACK
6
CONTINUOUS
10
239.41
20
-109.155
11
239.497
21
-109.364
0
LINE
8
BLACK
6
CONTINUOUS
10
239.497
20
-109.364
11
239.541
21
-109.587
0
LINE
8
BLACK
6
CONTINUOUS
10
239.541
20
-109.587
11
239.541
21
-109.813
0
LINE
8
BLACK
6
CONTINUOUS
10
239.541
20
-109.813
11
239.497
21
-110.036
0
LINE
8
BLACK
6
CONTINUOUS
10
239.497
20
-110.036
11
239.41
21
-110.245
0
LINE
8
BLACK
6
CONTINUOUS
10
239.41
20
-110.245
11
239.284
21
-110.434
0
LINE
8
BLACK
6
CONTINUOUS
10
239.284
20
-110.434
11
239.124
21
-110.594
0
LINE
8
BLACK
6
CONTINUOUS
10
239.124
20
-110.594
11
238.935
21
-110.72
0
LINE
8
BLACK
6
CONTINUOUS
10
238.935
20
-110.72
11
238.726
21
-110.807
0
LINE
8
BLACK
6
CONTINUOUS
10
238.726
20
-110.807
11
238.615
21
-110.829
0
LINE
8
BLACK
6
CONTINUOUS
10
238.615
20
-110.829
11
238.503
21
-110.851
0
LINE
8
BLACK
6
CONTINUOUS
10
238.503
20
-110.851
11
238.277
21
-110.851
0
LINE
8
BLACK
6
CONTINUOUS
10
238.277
20
-110.851
11
238.165
21
-110.829
0
LINE
8
BLACK
6
CONTINUOUS
10
238.165
20
-110.829
11
238.054
21
-110.807
0
LINE
8
BLACK
6
CONTINUOUS
10
238.054
20
-110.807
11
237.845
21
-110.72
0
LINE
8
BLACK
6
CONTINUOUS
10
237.845
20
-110.72
11
237.656
21
-110.594
0
LINE
8
BLACK
6
CONTINUOUS
10
237.656
20
-110.594
11
237.496
21
-110.434
0
LINE
8
BLACK
6
CONTINUOUS
10
237.496
20
-110.434
11
237.37
21
-110.245
0
LINE
8
BLACK
6
CONTINUOUS
10
237.37
20
-110.245
11
237.283
21
-110.036
0
LINE
8
BLACK
6
CONTINUOUS
10
237.283
20
-110.036
11
237.239
21
-109.813
0
LINE
8
BLACK
6
CONTINUOUS
10
237.239
20
-109.813
11
237.239
21
-109.587
0
LINE
8
BLACK
6
CONTINUOUS
10
237.239
20
-109.587
11
237.283
21
-109.364
0
LINE
8
BLACK
6
CONTINUOUS
10
237.283
20
-109.364
11
237.37
21
-109.155
0
LINE
8
BLACK
6
CONTINUOUS
10
237.37
20
-109.155
11
237.496
21
-108.966
0
LINE
8
BLACK
6
CONTINUOUS
10
237.496
20
-108.966
11
237.656
21
-108.806
0
LINE
8
BLACK
6
CONTINUOUS
10
237.656
20
-108.806
11
237.845
21
-108.68
0
LINE
8
BLACK
6
CONTINUOUS
10
237.845
20
-108.68
11
238.054
21
-108.593
0
LINE
8
BLACK
6
CONTINUOUS
10
238.054
20
-108.593
11
238.165
21
-108.571
0
LINE
8
BLACK
6
CONTINUOUS
10
238.165
20
-108.571
11
238.277
21
-108.549
0
LINE
8
BLACK
6
CONTINUOUS
10
238.277
20
-108.549
11
238.503
21
-108.549
0
LINE
8
BLACK
6
CONTINUOUS
10
238.503
20
-108.549
11
238.615
21
-108.571
0
LINE
8
BLACK
6
CONTINUOUS
10
269.22
20
-89.3011
11
269.331
21
-89.3232
0
LINE
8
BLACK
6
CONTINUOUS
10
269.331
20
-89.3232
11
269.54
21
-89.41
0
LINE
8
BLACK
6
CONTINUOUS
10
269.54
20
-89.41
11
269.729
21
-89.536
0
LINE
8
BLACK
6
CONTINUOUS
10
269.729
20
-89.536
11
269.889
21
-89.6963
0
LINE
8
BLACK
6
CONTINUOUS
10
269.889
20
-89.6963
11
270.015
21
-89.8848
0
LINE
8
BLACK
6
CONTINUOUS
10
270.015
20
-89.8848
11
270.102
21
-90.0943
0
LINE
8
BLACK
6
CONTINUOUS
10
270.102
20
-90.0943
11
270.146
21
-90.3166
0
LINE
8
BLACK
6
CONTINUOUS
10
270.146
20
-90.3166
11
270.146
21
-90.5434
0
LINE
8
BLACK
6
CONTINUOUS
10
270.146
20
-90.5434
11
270.102
21
-90.7657
0
LINE
8
BLACK
6
CONTINUOUS
10
270.102
20
-90.7657
11
270.015
21
-90.9752
0
LINE
8
BLACK
6
CONTINUOUS
10
270.015
20
-90.9752
11
269.889
21
-91.1637
0
LINE
8
BLACK
6
CONTINUOUS
10
269.889
20
-91.1637
11
269.729
21
-91.324
0
LINE
8
BLACK
6
CONTINUOUS
10
269.729
20
-91.324
11
269.54
21
-91.45
0
LINE
8
BLACK
6
CONTINUOUS
10
269.54
20
-91.45
11
269.331
21
-91.5368
0
LINE
8
BLACK
6
CONTINUOUS
10
269.331
20
-91.5368
11
269.22
21
-91.5589
0
LINE
8
BLACK
6
CONTINUOUS
10
269.22
20
-91.5589
11
269.108
21
-91.581
0
LINE
8
BLACK
6
CONTINUOUS
10
269.108
20
-91.581
11
268.882
21
-91.581
0
LINE
8
BLACK
6
CONTINUOUS
10
268.882
20
-91.581
11
268.77
21
-91.5589
0
LINE
8
BLACK
6
CONTINUOUS
10
268.77
20
-91.5589
11
268.659
21
-91.5368
0
LINE
8
BLACK
6
CONTINUOUS
10
268.659
20
-91.5368
11
268.45
21
-91.45
0
LINE
8
BLACK
6
CONTINUOUS
10
268.45
20
-91.45
11
268.261
21
-91.324
0
LINE
8
BLACK
6
CONTINUOUS
10
268.261
20
-91.324
11
268.101
21
-91.1637
0
LINE
8
BLACK
6
CONTINUOUS
10
268.101
20
-91.1637
11
267.975
21
-90.9752
0
LINE
8
BLACK
6
CONTINUOUS
10
267.975
20
-90.9752
11
267.888
21
-90.7657
0
LINE
8
BLACK
6
CONTINUOUS
10
267.888
20
-90.7657
11
267.844
21
-90.5434
0
LINE
8
BLACK
6
CONTINUOUS
10
267.844
20
-90.5434
11
267.844
21
-90.3166
0
LINE
8
BLACK
6
CONTINUOUS
10
267.844
20
-90.3166
11
267.888
21
-90.0943
0
LINE
8
BLACK
6
CONTINUOUS
10
267.888
20
-90.0943
11
267.975
21
-89.8848
0
LINE
8
BLACK
6
CONTINUOUS
10
267.975
20
-89.8848
11
268.101
21
-89.6963
0
LINE
8
BLACK
6
CONTINUOUS
10
268.101
20
-89.6963
11
268.261
21
-89.536
0
LINE
8
BLACK
6
CONTINUOUS
10
268.261
20
-89.536
11
268.45
21
-89.41
0
LINE
8
BLACK
6
CONTINUOUS
10
268.45
20
-89.41
11
268.659
21
-89.3232
0
LINE
8
BLACK
6
CONTINUOUS
10
268.659
20
-89.3232
11
268.77
21
-89.3011
0
LINE
8
BLACK
6
CONTINUOUS
10
268.77
20
-89.3011
11
268.882
21
-89.279
0
LINE
8
BLACK
6
CONTINUOUS
10
268.882
20
-89.279
11
269.108
21
-89.279
0
LINE
8
BLACK
6
CONTINUOUS
10
269.108
20
-89.279
11
269.22
21
-89.3011
0
LINE
8
BLACK
6
CONTINUOUS
10
256.22
20
-89.3011
11
256.331
21
-89.3232
0
LINE
8
BLACK
6
CONTINUOUS
10
256.331
20
-89.3232
11
256.54
21
-89.41
0
LINE
8
BLACK
6
CONTINUOUS
10
256.54
20
-89.41
11
256.729
21
-89.536
0
LINE
8
BLACK
6
CONTINUOUS
10
256.729
20
-89.536
11
256.889
21
-89.6963
0
LINE
8
BLACK
6
CONTINUOUS
10
256.889
20
-89.6963
11
257.015
21
-89.8848
0
LINE
8
BLACK
6
CONTINUOUS
10
257.015
20
-89.8848
11
257.102
21
-90.0943
0
LINE
8
BLACK
6
CONTINUOUS
10
257.102
20
-90.0943
11
257.146
21
-90.3166
0
LINE
8
BLACK
6
CONTINUOUS
10
257.146
20
-90.3166
11
257.146
21
-90.5434
0
LINE
8
BLACK
6
CONTINUOUS
10
257.146
20
-90.5434
11
257.102
21
-90.7657
0
LINE
8
BLACK
6
CONTINUOUS
10
257.102
20
-90.7657
11
257.015
21
-90.9752
0
LINE
8
BLACK
6
CONTINUOUS
10
257.015
20
-90.9752
11
256.889
21
-91.1637
0
LINE
8
BLACK
6
CONTINUOUS
10
256.889
20
-91.1637
11
256.729
21
-91.324
0
LINE
8
BLACK
6
CONTINUOUS
10
256.729
20
-91.324
11
256.54
21
-91.45
0
LINE
8
BLACK
6
CONTINUOUS
10
256.54
20
-91.45
11
256.331
21
-91.5368
0
LINE
8
BLACK
6
CONTINUOUS
10
256.331
20
-91.5368
11
256.22
21
-91.5589
0
LINE
8
BLACK
6
CONTINUOUS
10
256.22
20
-91.5589
11
256.108
21
-91.581
0
LINE
8
BLACK
6
CONTINUOUS
10
256.108
20
-91.581
11
255.882
21
-91.581
0
LINE
8
BLACK
6
CONTINUOUS
10
255.882
20
-91.581
11
255.77
21
-91.5589
0
LINE
8
BLACK
6
CONTINUOUS
10
255.77
20
-91.5589
11
255.659
21
-91.5368
0
LINE
8
BLACK
6
CONTINUOUS
10
255.659
20
-91.5368
11
255.45
21
-91.45
0
LINE
8
BLACK
6
CONTINUOUS
10
255.45
20
-91.45
11
255.261
21
-91.324
0
LINE
8
BLACK
6
CONTINUOUS
10
255.261
20
-91.324
11
255.101
21
-91.1637
0
LINE
8
BLACK
6
CONTINUOUS
10
255.101
20
-91.1637
11
254.975
21
-90.9752
0
LINE
8
BLACK
6
CONTINUOUS
10
254.975
20
-90.9752
11
254.888
21
-90.7657
0
LINE
8
BLACK
6
CONTINUOUS
10
254.888
20
-90.7657
11
254.844
21
-90.5434
0
LINE
8
BLACK
6
CONTINUOUS
10
254.844
20
-90.5434
11
254.844
21
-90.3166
0
LINE
8
BLACK
6
CONTINUOUS
10
254.844
20
-90.3166
11
254.888
21
-90.0943
0
LINE
8
BLACK
6
CONTINUOUS
10
254.888
20
-90.0943
11
254.975
21
-89.8848
0
LINE
8
BLACK
6
CONTINUOUS
10
254.975
20
-89.8848
11
255.101
21
-89.6963
0
LINE
8
BLACK
6
CONTINUOUS
10
255.101
20
-89.6963
11
255.261
21
-89.536
0
LINE
8
BLACK
6
CONTINUOUS
10
255.261
20
-89.536
11
255.45
21
-89.41
0
LINE
8
BLACK
6
CONTINUOUS
10
255.45
20
-89.41
11
255.659
21
-89.3232
0
LINE
8
BLACK
6
CONTINUOUS
10
255.659
20
-89.3232
11
255.77
21
-89.3011
0
LINE
8
BLACK
6
CONTINUOUS
10
255.77
20
-89.3011
11
255.882
21
-89.279
0
LINE
8
BLACK
6
CONTINUOUS
10
255.882
20
-89.279
11
256.108
21
-89.279
0
LINE
8
BLACK
6
CONTINUOUS
10
256.108
20
-89.279
11
256.22
21
-89.3011
0
LINE
8
BLACK
6
CONTINUOUS
10
242.22
20
-89.3011
11
242.331
21
-89.3232
0
LINE
8
BLACK
6
CONTINUOUS
10
242.331
20
-89.3232
11
242.54
21
-89.41
0
LINE
8
BLACK
6
CONTINUOUS
10
242.54
20
-89.41
11
242.729
21
-89.536
0
LINE
8
BLACK
6
CONTINUOUS
10
242.729
20
-89.536
11
242.889
21
-89.6963
0
LINE
8
BLACK
6
CONTINUOUS
10
242.889
20
-89.6963
11
243.015
21
-89.8848
0
LINE
8
BLACK
6
CONTINUOUS
10
243.015
20
-89.8848
11
243.102
21
-90.0943
0
LINE
8
BLACK
6
CONTINUOUS
10
243.102
20
-90.0943
11
243.146
21
-90.3166
0
LINE
8
BLACK
6
CONTINUOUS
10
243.146
20
-90.3166
11
243.146
21
-90.5434
0
LINE
8
BLACK
6
CONTINUOUS
10
243.146
20
-90.5434
11
243.102
21
-90.7657
0
LINE
8
BLACK
6
CONTINUOUS
10
243.102
20
-90.7657
11
243.015
21
-90.9752
0
LINE
8
BLACK
6
CONTINUOUS
10
243.015
20
-90.9752
11
242.889
21
-91.1637
0
LINE
8
BLACK
6
CONTINUOUS
10
242.889
20
-91.1637
11
242.729
21
-91.324
0
LINE
8
BLACK
6
CONTINUOUS
10
242.729
20
-91.324
11
242.54
21
-91.45
0
LINE
8
BLACK
6
CONTINUOUS
10
242.54
20
-91.45
11
242.331
21
-91.5368
0
LINE
8
BLACK
6
CONTINUOUS
10
242.331
20
-91.5368
11
242.22
21
-91.5589
0
LINE
8
BLACK
6
CONTINUOUS
10
242.22
20
-91.5589
11
242.108
21
-91.581
0
LINE
8
BLACK
6
CONTINUOUS
10
242.108
20
-91.581
11
241.882
21
-91.581
0
LINE
8
BLACK
6
CONTINUOUS
10
241.882
20
-91.581
11
241.77
21
-91.5589
0
LINE
8
BLACK
6
CONTINUOUS
10
241.77
20
-91.5589
11
241.659
21
-91.5368
0
LINE
8
BLACK
6
CONTINUOUS
10
241.659
20
-91.5368
11
241.45
21
-91.45
0
LINE
8
BLACK
6
CONTINUOUS
10
241.45
20
-91.45
11
241.261
21
-91.324
0
LINE
8
BLACK
6
CONTINUOUS
10
241.261
20
-91.324
11
241.101
21
-91.1637
0
LINE
8
BLACK
6
CONTINUOUS
10
241.101
20
-91.1637
11
240.975
21
-90.9752
0
LINE
8
BLACK
6
CONTINUOUS
10
240.975
20
-90.9752
11
240.888
21
-90.7657
0
LINE
8
BLACK
6
CONTINUOUS
10
240.888
20
-90.7657
11
240.844
21
-90.5434
0
LINE
8
BLACK
6
CONTINUOUS
10
240.844
20
-90.5434
11
240.844
21
-90.3166
0
LINE
8
BLACK
6
CONTINUOUS
10
240.844
20
-90.3166
11
240.888
21
-90.0943
0
LINE
8
BLACK
6
CONTINUOUS
10
240.888
20
-90.0943
11
240.975
21
-89.8848
0
LINE
8
BLACK
6
CONTINUOUS
10
240.975
20
-89.8848
11
241.101
21
-89.6963
0
LINE
8
BLACK
6
CONTINUOUS
10
241.101
20
-89.6963
11
241.261
21
-89.536
0
LINE
8
BLACK
6
CONTINUOUS
10
241.261
20
-89.536
11
241.45
21
-89.41
0
LINE
8
BLACK
6
CONTINUOUS
10
241.45
20
-89.41
11
241.659
21
-89.3232
0
LINE
8
BLACK
6
CONTINUOUS
10
241.659
20
-89.3232
11
241.77
21
-89.3011
0
LINE
8
BLACK
6
CONTINUOUS
10
241.77
20
-89.3011
11
241.882
21
-89.279
0
LINE
8
BLACK
6
CONTINUOUS
10
241.882
20
-89.279
11
242.108
21
-89.279
0
LINE
8
BLACK
6
CONTINUOUS
10
242.108
20
-89.279
11
242.22
21
-89.3011
0
LINE
8
BLACK
6
CONTINUOUS
10
229.22
20
-89.3011
11
229.331
21
-89.3232
0
LINE
8
BLACK
6
CONTINUOUS
10
229.331
20
-89.3232
11
229.54
21
-89.41
0
LINE
8
BLACK
6
CONTINUOUS
10
229.54
20
-89.41
11
229.729
21
-89.536
0
LINE
8
BLACK
6
CONTINUOUS
10
229.729
20
-89.536
11
229.889
21
-89.6963
0
LINE
8
BLACK
6
CONTINUOUS
10
229.889
20
-89.6963
11
230.015
21
-89.8848
0
LINE
8
BLACK
6
CONTINUOUS
10
230.015
20
-89.8848
11
230.102
21
-90.0943
0
LINE
8
BLACK
6
CONTINUOUS
10
230.102
20
-90.0943
11
230.146
21
-90.3166
0
LINE
8
BLACK
6
CONTINUOUS
10
230.146
20
-90.3166
11
230.146
21
-90.5434
0
LINE
8
BLACK
6
CONTINUOUS
10
230.146
20
-90.5434
11
230.102
21
-90.7657
0
LINE
8
BLACK
6
CONTINUOUS
10
230.102
20
-90.7657
11
230.015
21
-90.9752
0
LINE
8
BLACK
6
CONTINUOUS
10
230.015
20
-90.9752
11
229.889
21
-91.1637
0
LINE
8
BLACK
6
CONTINUOUS
10
229.889
20
-91.1637
11
229.729
21
-91.324
0
LINE
8
BLACK
6
CONTINUOUS
10
229.729
20
-91.324
11
229.54
21
-91.45
0
LINE
8
BLACK
6
CONTINUOUS
10
229.54
20
-91.45
11
229.331
21
-91.5368
0
LINE
8
BLACK
6
CONTINUOUS
10
229.331
20
-91.5368
11
229.22
21
-91.5589
0
LINE
8
BLACK
6
CONTINUOUS
10
229.22
20
-91.5589
11
229.108
21
-91.581
0
LINE
8
BLACK
6
CONTINUOUS
10
229.108
20
-91.581
11
228.882
21
-91.581
0
LINE
8
BLACK
6
CONTINUOUS
10
228.882
20
-91.581
11
228.77
21
-91.5589
0
LINE
8
BLACK
6
CONTINUOUS
10
228.77
20
-91.5589
11
228.659
21
-91.5368
0
LINE
8
BLACK
6
CONTINUOUS
10
228.659
20
-91.5368
11
228.45
21
-91.45
0
LINE
8
BLACK
6
CONTINUOUS
10
228.45
20
-91.45
11
228.261
21
-91.324
0
LINE
8
BLACK
6
CONTINUOUS
10
228.261
20
-91.324
11
228.101
21
-91.1637
0
LINE
8
BLACK
6
CONTINUOUS
10
228.101
20
-91.1637
11
227.975
21
-90.9752
0
LINE
8
BLACK
6
CONTINUOUS
10
227.975
20
-90.9752
11
227.888
21
-90.7657
0
LINE
8
BLACK
6
CONTINUOUS
10
227.888
20
-90.7657
11
227.844
21
-90.5434
0
LINE
8
BLACK
6
CONTINUOUS
10
227.844
20
-90.5434
11
227.844
21
-90.3166
0
LINE
8
BLACK
6
CONTINUOUS
10
227.844
20
-90.3166
11
227.888
21
-90.0943
0
LINE
8
BLACK
6
CONTINUOUS
10
227.888
20
-90.0943
11
227.975
21
-89.8848
0
LINE
8
BLACK
6
CONTINUOUS
10
227.975
20
-89.8848
11
228.101
21
-89.6963
0
LINE
8
BLACK
6
CONTINUOUS
10
228.101
20
-89.6963
11
228.261
21
-89.536
0
LINE
8
BLACK
6
CONTINUOUS
10
228.261
20
-89.536
11
228.45
21
-89.41
0
LINE
8
BLACK
6
CONTINUOUS
10
228.45
20
-89.41
11
228.659
21
-89.3232
0
LINE
8
BLACK
6
CONTINUOUS
10
228.659
20
-89.3232
11
228.77
21
-89.3011
0
LINE
8
BLACK
6
CONTINUOUS
10
228.77
20
-89.3011
11
228.882
21
-89.279
0
LINE
8
BLACK
6
CONTINUOUS
10
228.882
20
-89.279
11
229.108
21
-89.279
0
LINE
8
BLACK
6
CONTINUOUS
10
229.108
20
-89.279
11
229.22
21
-89.3011
  0
ENDSEC
  0
EOF
