  0
SECTION
  2
HEADER
  9
$ANGBASE
  50
0.0
  9
$ANGDIR
  70
1
  9
$MEASUREMENT
  70
1
  0
ENDSEC
  0
SECTION
  2
TABLES
  0
TABLE
  2
LTYPE
  70
4
  0
LTYPE
  5
40F
  2
CONTINUOUS
  70
0
  3
Solid line
  72
65
  73
0
  40
0.0
  0
LTYPE
  5
410
  2
DASHDOT
 70
0
  3
Dash Dot ____ _ ____ _
 72
65
 73
4
 40
2.0
 49
1.25
 49
-0.25
 49
0.25
 49
-0.25
  0
LTYPE
  5
411
  2
DASHED
 70
0
  3
Dashed __ __ __ __ __
 72
65
 73
2
 40
0.75
 49
0.5
 49
-0.25
  0
LTYPE
  5
43B
  2
DOTTED
 70
0
  3
Dotted .  .  .  .
 72
65
 73
2
 40
0.2
 49
0.0
 49
-0.2
  0
ENDTAB
  0
TABLE
  2
STYLE
  70
4
  0
STYLE
  2
KICAD
  70
0
  40
0
  41
1
  42
1
  50
0
  71
0
  3
isocp.shx
  0
STYLE
  2
KICADB
  70
0
  40
0
  41
1
  42
1
  50
0
  71
0
  3
isocp.shx
  0
STYLE
  2
KICADI
  70
0
  40
0
  41
1
  42
1
  50
15
  71
0
  3
isocp.shx
  0
STYLE
  2
KICADBI
  70
0
  40
0
  41
1
  42
1
  50
15
  71
0
  3
isocp.shx
  0
ENDTAB
  0
TABLE
  2
LAYER
  70
1
  0
LAYER
  2
BLACK
  70
0
  62
7
  6
CONTINUOUS
  0
ENDTAB
  0
ENDSEC
  0
SECTION
  2
ENTITIES
0
LINE
8
BLACK
6
CONTINUOUS
10
-10.161
20
-86.5763
11
-10.1133
21
-86.4811
0
LINE
8
BLACK
6
CONTINUOUS
10
-10.1133
20
-86.4811
11
-10.0657
21
-86.4335
0
LINE
8
BLACK
6
CONTINUOUS
10
-10.0657
20
-86.4335
11
-9.97048
21
-86.3858
0
LINE
8
BLACK
6
CONTINUOUS
10
-9.97048
20
-86.3858
11
-9.92286
21
-86.3858
0
LINE
8
BLACK
6
CONTINUOUS
10
-9.92286
20
-86.3858
11
-9.82762
21
-86.4335
0
LINE
8
BLACK
6
CONTINUOUS
10
-9.82762
20
-86.4335
11
-9.78
21
-86.4811
0
LINE
8
BLACK
6
CONTINUOUS
10
-9.78
20
-86.4811
11
-9.73238
21
-86.5763
0
LINE
8
BLACK
6
CONTINUOUS
10
-9.73238
20
-86.5763
11
-9.73238
21
-86.7668
0
LINE
8
BLACK
6
CONTINUOUS
10
-9.73238
20
-86.7668
11
-9.78
21
-86.862
0
LINE
8
BLACK
6
CONTINUOUS
10
-9.78
20
-86.862
11
-9.82762
21
-86.9096
0
LINE
8
BLACK
6
CONTINUOUS
10
-9.82762
20
-86.9096
11
-9.92286
21
-86.9573
0
LINE
8
BLACK
6
CONTINUOUS
10
-9.92286
20
-86.9573
11
-9.97048
21
-86.9573
0
LINE
8
BLACK
6
CONTINUOUS
10
-9.97048
20
-86.9573
11
-10.0657
21
-86.9096
0
LINE
8
BLACK
6
CONTINUOUS
10
-10.0657
20
-86.9096
11
-10.1133
21
-86.862
0
LINE
8
BLACK
6
CONTINUOUS
10
-10.1133
20
-86.862
11
-10.161
21
-86.7668
0
LINE
8
BLACK
6
CONTINUOUS
10
-10.161
20
-86.7668
11
-10.161
21
-86.5763
0
LINE
8
BLACK
6
CONTINUOUS
10
-10.161
20
-86.5763
11
-10.2086
21
-86.4811
0
LINE
8
BLACK
6
CONTINUOUS
10
-10.2086
20
-86.4811
11
-10.2562
21
-86.4335
0
LINE
8
BLACK
6
CONTINUOUS
10
-10.2562
20
-86.4335
11
-10.3514
21
-86.3858
0
LINE
8
BLACK
6
CONTINUOUS
10
-10.3514
20
-86.3858
11
-10.5419
21
-86.3858
0
LINE
8
BLACK
6
CONTINUOUS
10
-10.5419
20
-86.3858
11
-10.6371
21
-86.4335
0
LINE
8
BLACK
6
CONTINUOUS
10
-10.6371
20
-86.4335
11
-10.6848
21
-86.4811
0
LINE
8
BLACK
6
CONTINUOUS
10
-10.6848
20
-86.4811
11
-10.7324
21
-86.5763
0
LINE
8
BLACK
6
CONTINUOUS
10
-10.7324
20
-86.5763
11
-10.7324
21
-86.7668
0
LINE
8
BLACK
6
CONTINUOUS
10
-10.7324
20
-86.7668
11
-10.6848
21
-86.862
0
LINE
8
BLACK
6
CONTINUOUS
10
-10.6848
20
-86.862
11
-10.6371
21
-86.9096
0
LINE
8
BLACK
6
CONTINUOUS
10
-10.6371
20
-86.9096
11
-10.5419
21
-86.9573
0
LINE
8
BLACK
6
CONTINUOUS
10
-10.5419
20
-86.9573
11
-10.3514
21
-86.9573
0
LINE
8
BLACK
6
CONTINUOUS
10
-10.3514
20
-86.9573
11
-10.2562
21
-86.9096
0
LINE
8
BLACK
6
CONTINUOUS
10
-10.2562
20
-86.9096
11
-10.2086
21
-86.862
0
LINE
8
BLACK
6
CONTINUOUS
10
-10.2086
20
-86.862
11
-10.161
21
-86.7668
0
LINE
8
BLACK
6
CONTINUOUS
10
-10.6371
20
-87.3858
11
-10.6848
21
-87.4335
0
LINE
8
BLACK
6
CONTINUOUS
10
-10.6848
20
-87.4335
11
-10.7324
21
-87.3858
0
LINE
8
BLACK
6
CONTINUOUS
10
-10.7324
20
-87.3858
11
-10.6848
21
-87.3382
0
LINE
8
BLACK
6
CONTINUOUS
10
-10.6848
20
-87.3382
11
-10.6371
21
-87.3858
0
LINE
8
BLACK
6
CONTINUOUS
10
-10.6371
20
-87.3858
11
-10.7324
21
-87.3858
0
LINE
8
BLACK
6
CONTINUOUS
10
-9.73238
20
-88.3382
11
-9.73238
21
-87.862
0
LINE
8
BLACK
6
CONTINUOUS
10
-9.73238
20
-87.862
11
-10.2086
21
-87.8144
0
LINE
8
BLACK
6
CONTINUOUS
10
-10.2086
20
-87.8144
11
-10.161
21
-87.862
0
LINE
8
BLACK
6
CONTINUOUS
10
-10.161
20
-87.862
11
-10.1133
21
-87.9573
0
LINE
8
BLACK
6
CONTINUOUS
10
-10.1133
20
-87.9573
11
-10.1133
21
-88.1954
0
LINE
8
BLACK
6
CONTINUOUS
10
-10.1133
20
-88.1954
11
-10.161
21
-88.2906
0
LINE
8
BLACK
6
CONTINUOUS
10
-10.161
20
-88.2906
11
-10.2086
21
-88.3382
0
LINE
8
BLACK
6
CONTINUOUS
10
-10.2086
20
-88.3382
11
-10.3038
21
-88.3858
0
LINE
8
BLACK
6
CONTINUOUS
10
-10.3038
20
-88.3858
11
-10.5419
21
-88.3858
0
LINE
8
BLACK
6
CONTINUOUS
10
-10.5419
20
-88.3858
11
-10.6371
21
-88.3382
0
LINE
8
BLACK
6
CONTINUOUS
10
-10.6371
20
-88.3382
11
-10.6848
21
-88.2906
0
LINE
8
BLACK
6
CONTINUOUS
10
-10.6848
20
-88.2906
11
-10.7324
21
-88.1954
0
LINE
8
BLACK
6
CONTINUOUS
10
-10.7324
20
-88.1954
11
-10.7324
21
-87.9573
0
LINE
8
BLACK
6
CONTINUOUS
10
-10.7324
20
-87.9573
11
-10.6848
21
-87.862
0
LINE
8
BLACK
6
CONTINUOUS
10
-10.6848
20
-87.862
11
-10.6371
21
-87.8144
0
LINE
8
BLACK
6
CONTINUOUS
10
-9.73238
20
-89.2906
11
-9.73238
21
-88.8144
0
LINE
8
BLACK
6
CONTINUOUS
10
-9.73238
20
-88.8144
11
-10.2086
21
-88.7668
0
LINE
8
BLACK
6
CONTINUOUS
10
-10.2086
20
-88.7668
11
-10.161
21
-88.8144
0
LINE
8
BLACK
6
CONTINUOUS
10
-10.161
20
-88.8144
11
-10.1133
21
-88.9096
0
LINE
8
BLACK
6
CONTINUOUS
10
-10.1133
20
-88.9096
11
-10.1133
21
-89.1477
0
LINE
8
BLACK
6
CONTINUOUS
10
-10.1133
20
-89.1477
11
-10.161
21
-89.243
0
LINE
8
BLACK
6
CONTINUOUS
10
-10.161
20
-89.243
11
-10.2086
21
-89.2906
0
LINE
8
BLACK
6
CONTINUOUS
10
-10.2086
20
-89.2906
11
-10.3038
21
-89.3382
0
LINE
8
BLACK
6
CONTINUOUS
10
-10.3038
20
-89.3382
11
-10.5419
21
-89.3382
0
LINE
8
BLACK
6
CONTINUOUS
10
-10.5419
20
-89.3382
11
-10.6371
21
-89.2906
0
LINE
8
BLACK
6
CONTINUOUS
10
-10.6371
20
-89.2906
11
-10.6848
21
-89.243
0
LINE
8
BLACK
6
CONTINUOUS
10
-10.6848
20
-89.243
11
-10.7324
21
-89.1477
0
LINE
8
BLACK
6
CONTINUOUS
10
-10.7324
20
-89.1477
11
-10.7324
21
-88.9096
0
LINE
8
BLACK
6
CONTINUOUS
10
-10.7324
20
-88.9096
11
-10.6848
21
-88.8144
0
LINE
8
BLACK
6
CONTINUOUS
10
-10.6848
20
-88.8144
11
-10.6371
21
-88.7668
0
LINE
8
BLACK
6
CONTINUOUS
10
-9.73238
20
-90.243
11
-9.73238
21
-89.7668
0
LINE
8
BLACK
6
CONTINUOUS
10
-9.73238
20
-89.7668
11
-10.2086
21
-89.7192
0
LINE
8
BLACK
6
CONTINUOUS
10
-10.2086
20
-89.7192
11
-10.161
21
-89.7668
0
LINE
8
BLACK
6
CONTINUOUS
10
-10.161
20
-89.7668
11
-10.1133
21
-89.862
0
LINE
8
BLACK
6
CONTINUOUS
10
-10.1133
20
-89.862
11
-10.1133
21
-90.1001
0
LINE
8
BLACK
6
CONTINUOUS
10
-10.1133
20
-90.1001
11
-10.161
21
-90.1954
0
LINE
8
BLACK
6
CONTINUOUS
10
-10.161
20
-90.1954
11
-10.2086
21
-90.243
0
LINE
8
BLACK
6
CONTINUOUS
10
-10.2086
20
-90.243
11
-10.3038
21
-90.2906
0
LINE
8
BLACK
6
CONTINUOUS
10
-10.3038
20
-90.2906
11
-10.5419
21
-90.2906
0
LINE
8
BLACK
6
CONTINUOUS
10
-10.5419
20
-90.2906
11
-10.6371
21
-90.243
0
LINE
8
BLACK
6
CONTINUOUS
10
-10.6371
20
-90.243
11
-10.6848
21
-90.1954
0
LINE
8
BLACK
6
CONTINUOUS
10
-10.6848
20
-90.1954
11
-10.7324
21
-90.1001
0
LINE
8
BLACK
6
CONTINUOUS
10
-10.7324
20
-90.1001
11
-10.7324
21
-89.862
0
LINE
8
BLACK
6
CONTINUOUS
10
-10.7324
20
-89.862
11
-10.6848
21
-89.7668
0
LINE
8
BLACK
6
CONTINUOUS
10
-10.6848
20
-89.7668
11
-10.6371
21
-89.7192
0
LINE
8
BLACK
6
CONTINUOUS
10
-10.7324
20
-91.4811
11
-10.0657
21
-91.4811
0
LINE
8
BLACK
6
CONTINUOUS
10
-10.161
20
-91.4811
11
-10.1133
21
-91.5287
0
LINE
8
BLACK
6
CONTINUOUS
10
-10.1133
20
-91.5287
11
-10.0657
21
-91.6239
0
LINE
8
BLACK
6
CONTINUOUS
10
-10.0657
20
-91.6239
11
-10.0657
21
-91.7668
0
LINE
8
BLACK
6
CONTINUOUS
10
-10.0657
20
-91.7668
11
-10.1133
21
-91.862
0
LINE
8
BLACK
6
CONTINUOUS
10
-10.1133
20
-91.862
11
-10.2086
21
-91.9096
0
LINE
8
BLACK
6
CONTINUOUS
10
-10.2086
20
-91.9096
11
-10.7324
21
-91.9096
0
LINE
8
BLACK
6
CONTINUOUS
10
-10.2086
20
-91.9096
11
-10.1133
21
-91.9573
0
LINE
8
BLACK
6
CONTINUOUS
10
-10.1133
20
-91.9573
11
-10.0657
21
-92.0525
0
LINE
8
BLACK
6
CONTINUOUS
10
-10.0657
20
-92.0525
11
-10.0657
21
-92.1954
0
LINE
8
BLACK
6
CONTINUOUS
10
-10.0657
20
-92.1954
11
-10.1133
21
-92.2906
0
LINE
8
BLACK
6
CONTINUOUS
10
-10.1133
20
-92.2906
11
-10.2086
21
-92.3382
0
LINE
8
BLACK
6
CONTINUOUS
10
-10.2086
20
-92.3382
11
-10.7324
21
-92.3382
0
LINE
8
BLACK
6
CONTINUOUS
10
-10.7324
20
-92.8144
11
-10.0657
21
-92.8144
0
LINE
8
BLACK
6
CONTINUOUS
10
-10.161
20
-92.8144
11
-10.1133
21
-92.862
0
LINE
8
BLACK
6
CONTINUOUS
10
-10.1133
20
-92.862
11
-10.0657
21
-92.9573
0
LINE
8
BLACK
6
CONTINUOUS
10
-10.0657
20
-92.9573
11
-10.0657
21
-93.1001
0
LINE
8
BLACK
6
CONTINUOUS
10
-10.0657
20
-93.1001
11
-10.1133
21
-93.1954
0
LINE
8
BLACK
6
CONTINUOUS
10
-10.1133
20
-93.1954
11
-10.2086
21
-93.243
0
LINE
8
BLACK
6
CONTINUOUS
10
-10.2086
20
-93.243
11
-10.7324
21
-93.243
0
LINE
8
BLACK
6
CONTINUOUS
10
-10.2086
20
-93.243
11
-10.1133
21
-93.2906
0
LINE
8
BLACK
6
CONTINUOUS
10
-10.1133
20
-93.2906
11
-10.0657
21
-93.3858
0
LINE
8
BLACK
6
CONTINUOUS
10
-10.0657
20
-93.3858
11
-10.0657
21
-93.5287
0
LINE
8
BLACK
6
CONTINUOUS
10
-10.0657
20
-93.5287
11
-10.1133
21
-93.6239
0
LINE
8
BLACK
6
CONTINUOUS
10
-10.1133
20
-93.6239
11
-10.2086
21
-93.6715
0
LINE
8
BLACK
6
CONTINUOUS
10
-10.2086
20
-93.6715
11
-10.7324
21
-93.6715
0
LINE
8
BLACK
6
CONTINUOUS
10
-11.48
20
-85.775
11
-11.48
21
-94.33
0
LINE
8
BLACK
6
CONTINUOUS
10
-11.86
20
-85.775
11
-10.8936
21
-85.775
0
LINE
8
BLACK
6
CONTINUOUS
10
-11.86
20
-94.33
11
-10.8936
21
-94.33
0
LINE
8
BLACK
6
CONTINUOUS
10
-11.48
20
-94.33
11
-12.0664
21
-93.2035
0
LINE
8
BLACK
6
CONTINUOUS
10
-11.48
20
-94.33
11
-10.8936
21
-93.2035
0
LINE
8
BLACK
6
CONTINUOUS
10
-11.48
20
-85.775
11
-12.0664
21
-86.9015
0
LINE
8
BLACK
6
CONTINUOUS
10
-11.48
20
-85.775
11
-10.8936
21
-86.9015
0
LINE
8
BLACK
6
CONTINUOUS
10
114.802
20
-96.6976
11
114.85
21
-96.65
0
LINE
8
BLACK
6
CONTINUOUS
10
114.85
20
-96.65
11
114.945
21
-96.6024
0
LINE
8
BLACK
6
CONTINUOUS
10
114.945
20
-96.6024
11
115.183
21
-96.6024
0
LINE
8
BLACK
6
CONTINUOUS
10
115.183
20
-96.6024
11
115.278
21
-96.65
0
LINE
8
BLACK
6
CONTINUOUS
10
115.278
20
-96.65
11
115.326
21
-96.6976
0
LINE
8
BLACK
6
CONTINUOUS
10
115.326
20
-96.6976
11
115.374
21
-96.7929
0
LINE
8
BLACK
6
CONTINUOUS
10
115.374
20
-96.7929
11
115.374
21
-96.8881
0
LINE
8
BLACK
6
CONTINUOUS
10
115.374
20
-96.8881
11
115.326
21
-97.031
0
LINE
8
BLACK
6
CONTINUOUS
10
115.326
20
-97.031
11
114.755
21
-97.6024
0
LINE
8
BLACK
6
CONTINUOUS
10
114.755
20
-97.6024
11
115.374
21
-97.6024
0
LINE
8
BLACK
6
CONTINUOUS
10
116.278
20
-96.6024
11
115.802
21
-96.6024
0
LINE
8
BLACK
6
CONTINUOUS
10
115.802
20
-96.6024
11
115.755
21
-97.0786
0
LINE
8
BLACK
6
CONTINUOUS
10
115.755
20
-97.0786
11
115.802
21
-97.031
0
LINE
8
BLACK
6
CONTINUOUS
10
115.802
20
-97.031
11
115.897
21
-96.9833
0
LINE
8
BLACK
6
CONTINUOUS
10
115.897
20
-96.9833
11
116.135
21
-96.9833
0
LINE
8
BLACK
6
CONTINUOUS
10
116.135
20
-96.9833
11
116.231
21
-97.031
0
LINE
8
BLACK
6
CONTINUOUS
10
116.231
20
-97.031
11
116.278
21
-97.0786
0
LINE
8
BLACK
6
CONTINUOUS
10
116.278
20
-97.0786
11
116.326
21
-97.1738
0
LINE
8
BLACK
6
CONTINUOUS
10
116.326
20
-97.1738
11
116.326
21
-97.4119
0
LINE
8
BLACK
6
CONTINUOUS
10
116.326
20
-97.4119
11
116.278
21
-97.5071
0
LINE
8
BLACK
6
CONTINUOUS
10
116.278
20
-97.5071
11
116.231
21
-97.5548
0
LINE
8
BLACK
6
CONTINUOUS
10
116.231
20
-97.5548
11
116.135
21
-97.6024
0
LINE
8
BLACK
6
CONTINUOUS
10
116.135
20
-97.6024
11
115.897
21
-97.6024
0
LINE
8
BLACK
6
CONTINUOUS
10
115.897
20
-97.6024
11
115.802
21
-97.5548
0
LINE
8
BLACK
6
CONTINUOUS
10
115.802
20
-97.5548
11
115.755
21
-97.5071
0
LINE
8
BLACK
6
CONTINUOUS
10
116.755
20
-97.5071
11
116.802
21
-97.5548
0
LINE
8
BLACK
6
CONTINUOUS
10
116.802
20
-97.5548
11
116.755
21
-97.6024
0
LINE
8
BLACK
6
CONTINUOUS
10
116.755
20
-97.6024
11
116.707
21
-97.5548
0
LINE
8
BLACK
6
CONTINUOUS
10
116.707
20
-97.5548
11
116.755
21
-97.5071
0
LINE
8
BLACK
6
CONTINUOUS
10
116.755
20
-97.5071
11
116.755
21
-97.6024
0
LINE
8
BLACK
6
CONTINUOUS
10
117.278
20
-97.6024
11
117.469
21
-97.6024
0
LINE
8
BLACK
6
CONTINUOUS
10
117.469
20
-97.6024
11
117.564
21
-97.5548
0
LINE
8
BLACK
6
CONTINUOUS
10
117.564
20
-97.5548
11
117.612
21
-97.5071
0
LINE
8
BLACK
6
CONTINUOUS
10
117.612
20
-97.5071
11
117.707
21
-97.3643
0
LINE
8
BLACK
6
CONTINUOUS
10
117.707
20
-97.3643
11
117.755
21
-97.1738
0
LINE
8
BLACK
6
CONTINUOUS
10
117.755
20
-97.1738
11
117.755
21
-96.7929
0
LINE
8
BLACK
6
CONTINUOUS
10
117.755
20
-96.7929
11
117.707
21
-96.6976
0
LINE
8
BLACK
6
CONTINUOUS
10
117.707
20
-96.6976
11
117.659
21
-96.65
0
LINE
8
BLACK
6
CONTINUOUS
10
117.659
20
-96.65
11
117.564
21
-96.6024
0
LINE
8
BLACK
6
CONTINUOUS
10
117.564
20
-96.6024
11
117.374
21
-96.6024
0
LINE
8
BLACK
6
CONTINUOUS
10
117.374
20
-96.6024
11
117.278
21
-96.65
0
LINE
8
BLACK
6
CONTINUOUS
10
117.278
20
-96.65
11
117.231
21
-96.6976
0
LINE
8
BLACK
6
CONTINUOUS
10
117.231
20
-96.6976
11
117.183
21
-96.7929
0
LINE
8
BLACK
6
CONTINUOUS
10
117.183
20
-96.7929
11
117.183
21
-97.031
0
LINE
8
BLACK
6
CONTINUOUS
10
117.183
20
-97.031
11
117.231
21
-97.1262
0
LINE
8
BLACK
6
CONTINUOUS
10
117.231
20
-97.1262
11
117.278
21
-97.1738
0
LINE
8
BLACK
6
CONTINUOUS
10
117.278
20
-97.1738
11
117.374
21
-97.2214
0
LINE
8
BLACK
6
CONTINUOUS
10
117.374
20
-97.2214
11
117.564
21
-97.2214
0
LINE
8
BLACK
6
CONTINUOUS
10
117.564
20
-97.2214
11
117.659
21
-97.1738
0
LINE
8
BLACK
6
CONTINUOUS
10
117.659
20
-97.1738
11
117.707
21
-97.1262
0
LINE
8
BLACK
6
CONTINUOUS
10
117.707
20
-97.1262
11
117.755
21
-97.031
0
LINE
8
BLACK
6
CONTINUOUS
10
118.659
20
-96.6024
11
118.183
21
-96.6024
0
LINE
8
BLACK
6
CONTINUOUS
10
118.183
20
-96.6024
11
118.135
21
-97.0786
0
LINE
8
BLACK
6
CONTINUOUS
10
118.135
20
-97.0786
11
118.183
21
-97.031
0
LINE
8
BLACK
6
CONTINUOUS
10
118.183
20
-97.031
11
118.278
21
-96.9833
0
LINE
8
BLACK
6
CONTINUOUS
10
118.278
20
-96.9833
11
118.516
21
-96.9833
0
LINE
8
BLACK
6
CONTINUOUS
10
118.516
20
-96.9833
11
118.612
21
-97.031
0
LINE
8
BLACK
6
CONTINUOUS
10
118.612
20
-97.031
11
118.659
21
-97.0786
0
LINE
8
BLACK
6
CONTINUOUS
10
118.659
20
-97.0786
11
118.707
21
-97.1738
0
LINE
8
BLACK
6
CONTINUOUS
10
118.707
20
-97.1738
11
118.707
21
-97.4119
0
LINE
8
BLACK
6
CONTINUOUS
10
118.707
20
-97.4119
11
118.659
21
-97.5071
0
LINE
8
BLACK
6
CONTINUOUS
10
118.659
20
-97.5071
11
118.612
21
-97.5548
0
LINE
8
BLACK
6
CONTINUOUS
10
118.612
20
-97.5548
11
118.516
21
-97.6024
0
LINE
8
BLACK
6
CONTINUOUS
10
118.516
20
-97.6024
11
118.278
21
-97.6024
0
LINE
8
BLACK
6
CONTINUOUS
10
118.278
20
-97.6024
11
118.183
21
-97.5548
0
LINE
8
BLACK
6
CONTINUOUS
10
118.183
20
-97.5548
11
118.135
21
-97.5071
0
LINE
8
BLACK
6
CONTINUOUS
10
119.326
20
-96.6024
11
119.421
21
-96.6024
0
LINE
8
BLACK
6
CONTINUOUS
10
119.421
20
-96.6024
11
119.516
21
-96.65
0
LINE
8
BLACK
6
CONTINUOUS
10
119.516
20
-96.65
11
119.564
21
-96.6976
0
LINE
8
BLACK
6
CONTINUOUS
10
119.564
20
-96.6976
11
119.612
21
-96.7929
0
LINE
8
BLACK
6
CONTINUOUS
10
119.612
20
-96.7929
11
119.659
21
-96.9833
0
LINE
8
BLACK
6
CONTINUOUS
10
119.659
20
-96.9833
11
119.659
21
-97.2214
0
LINE
8
BLACK
6
CONTINUOUS
10
119.659
20
-97.2214
11
119.612
21
-97.4119
0
LINE
8
BLACK
6
CONTINUOUS
10
119.612
20
-97.4119
11
119.564
21
-97.5071
0
LINE
8
BLACK
6
CONTINUOUS
10
119.564
20
-97.5071
11
119.516
21
-97.5548
0
LINE
8
BLACK
6
CONTINUOUS
10
119.516
20
-97.5548
11
119.421
21
-97.6024
0
LINE
8
BLACK
6
CONTINUOUS
10
119.421
20
-97.6024
11
119.326
21
-97.6024
0
LINE
8
BLACK
6
CONTINUOUS
10
119.326
20
-97.6024
11
119.231
21
-97.5548
0
LINE
8
BLACK
6
CONTINUOUS
10
119.231
20
-97.5548
11
119.183
21
-97.5071
0
LINE
8
BLACK
6
CONTINUOUS
10
119.183
20
-97.5071
11
119.135
21
-97.4119
0
LINE
8
BLACK
6
CONTINUOUS
10
119.135
20
-97.4119
11
119.088
21
-97.2214
0
LINE
8
BLACK
6
CONTINUOUS
10
119.088
20
-97.2214
11
119.088
21
-96.9833
0
LINE
8
BLACK
6
CONTINUOUS
10
119.088
20
-96.9833
11
119.135
21
-96.7929
0
LINE
8
BLACK
6
CONTINUOUS
10
119.135
20
-96.7929
11
119.183
21
-96.6976
0
LINE
8
BLACK
6
CONTINUOUS
10
119.183
20
-96.6976
11
119.231
21
-96.65
0
LINE
8
BLACK
6
CONTINUOUS
10
119.231
20
-96.65
11
119.326
21
-96.6024
0
LINE
8
BLACK
6
CONTINUOUS
10
120.85
20
-97.6024
11
120.85
21
-96.9357
0
LINE
8
BLACK
6
CONTINUOUS
10
120.85
20
-97.031
11
120.897
21
-96.9833
0
LINE
8
BLACK
6
CONTINUOUS
10
120.897
20
-96.9833
11
120.993
21
-96.9357
0
LINE
8
BLACK
6
CONTINUOUS
10
120.993
20
-96.9357
11
121.135
21
-96.9357
0
LINE
8
BLACK
6
CONTINUOUS
10
121.135
20
-96.9357
11
121.231
21
-96.9833
0
LINE
8
BLACK
6
CONTINUOUS
10
121.231
20
-96.9833
11
121.278
21
-97.0786
0
LINE
8
BLACK
6
CONTINUOUS
10
121.278
20
-97.0786
11
121.278
21
-97.6024
0
LINE
8
BLACK
6
CONTINUOUS
10
121.278
20
-97.0786
11
121.326
21
-96.9833
0
LINE
8
BLACK
6
CONTINUOUS
10
121.326
20
-96.9833
11
121.421
21
-96.9357
0
LINE
8
BLACK
6
CONTINUOUS
10
121.421
20
-96.9357
11
121.564
21
-96.9357
0
LINE
8
BLACK
6
CONTINUOUS
10
121.564
20
-96.9357
11
121.659
21
-96.9833
0
LINE
8
BLACK
6
CONTINUOUS
10
121.659
20
-96.9833
11
121.707
21
-97.0786
0
LINE
8
BLACK
6
CONTINUOUS
10
121.707
20
-97.0786
11
121.707
21
-97.6024
0
LINE
8
BLACK
6
CONTINUOUS
10
122.183
20
-97.6024
11
122.183
21
-96.9357
0
LINE
8
BLACK
6
CONTINUOUS
10
122.183
20
-97.031
11
122.231
21
-96.9833
0
LINE
8
BLACK
6
CONTINUOUS
10
122.231
20
-96.9833
11
122.326
21
-96.9357
0
LINE
8
BLACK
6
CONTINUOUS
10
122.326
20
-96.9357
11
122.469
21
-96.9357
0
LINE
8
BLACK
6
CONTINUOUS
10
122.469
20
-96.9357
11
122.564
21
-96.9833
0
LINE
8
BLACK
6
CONTINUOUS
10
122.564
20
-96.9833
11
122.612
21
-97.0786
0
LINE
8
BLACK
6
CONTINUOUS
10
122.612
20
-97.0786
11
122.612
21
-97.6024
0
LINE
8
BLACK
6
CONTINUOUS
10
122.612
20
-97.0786
11
122.659
21
-96.9833
0
LINE
8
BLACK
6
CONTINUOUS
10
122.659
20
-96.9833
11
122.755
21
-96.9357
0
LINE
8
BLACK
6
CONTINUOUS
10
122.755
20
-96.9357
11
122.897
21
-96.9357
0
LINE
8
BLACK
6
CONTINUOUS
10
122.897
20
-96.9357
11
122.993
21
-96.9833
0
LINE
8
BLACK
6
CONTINUOUS
10
122.993
20
-96.9833
11
123.04
21
-97.0786
0
LINE
8
BLACK
6
CONTINUOUS
10
123.04
20
-97.0786
11
123.04
21
-97.6024
0
LINE
8
BLACK
6
CONTINUOUS
10
105.97
20
-95.95
11
131.92
21
-95.95
0
LINE
8
BLACK
6
CONTINUOUS
10
105.97
20
-95.775
11
105.97
21
-96.5364
0
LINE
8
BLACK
6
CONTINUOUS
10
131.92
20
-95.775
11
131.92
21
-96.5364
0
LINE
8
BLACK
6
CONTINUOUS
10
131.92
20
-95.95
11
130.793
21
-96.5364
0
LINE
8
BLACK
6
CONTINUOUS
10
131.92
20
-95.95
11
130.793
21
-95.3636
0
LINE
8
BLACK
6
CONTINUOUS
10
105.97
20
-95.95
11
107.097
21
-96.5364
0
LINE
8
BLACK
6
CONTINUOUS
10
105.97
20
-95.95
11
107.097
21
-95.3636
0
LINE
8
BLACK
6
CONTINUOUS
10
0.457392
20
-98.1476
11
0.505011
21
-98.1
0
LINE
8
BLACK
6
CONTINUOUS
10
0.505011
20
-98.1
11
0.60025
21
-98.0524
0
LINE
8
BLACK
6
CONTINUOUS
10
0.60025
20
-98.0524
11
0.838345
21
-98.0524
0
LINE
8
BLACK
6
CONTINUOUS
10
0.838345
20
-98.0524
11
0.933583
21
-98.1
0
LINE
8
BLACK
6
CONTINUOUS
10
0.933583
20
-98.1
11
0.981202
21
-98.1476
0
LINE
8
BLACK
6
CONTINUOUS
10
0.981202
20
-98.1476
11
1.02882
21
-98.2429
0
LINE
8
BLACK
6
CONTINUOUS
10
1.02882
20
-98.2429
11
1.02882
21
-98.3381
0
LINE
8
BLACK
6
CONTINUOUS
10
1.02882
20
-98.3381
11
0.981202
21
-98.481
0
LINE
8
BLACK
6
CONTINUOUS
10
0.981202
20
-98.481
11
0.409773
21
-99.0524
0
LINE
8
BLACK
6
CONTINUOUS
10
0.409773
20
-99.0524
11
1.02882
21
-99.0524
0
LINE
8
BLACK
6
CONTINUOUS
10
1.93358
20
-98.0524
11
1.45739
21
-98.0524
0
LINE
8
BLACK
6
CONTINUOUS
10
1.45739
20
-98.0524
11
1.40977
21
-98.5286
0
LINE
8
BLACK
6
CONTINUOUS
10
1.40977
20
-98.5286
11
1.45739
21
-98.481
0
LINE
8
BLACK
6
CONTINUOUS
10
1.45739
20
-98.481
11
1.55263
21
-98.4333
0
LINE
8
BLACK
6
CONTINUOUS
10
1.55263
20
-98.4333
11
1.79073
21
-98.4333
0
LINE
8
BLACK
6
CONTINUOUS
10
1.79073
20
-98.4333
11
1.88596
21
-98.481
0
LINE
8
BLACK
6
CONTINUOUS
10
1.88596
20
-98.481
11
1.93358
21
-98.5286
0
LINE
8
BLACK
6
CONTINUOUS
10
1.93358
20
-98.5286
11
1.9812
21
-98.6238
0
LINE
8
BLACK
6
CONTINUOUS
10
1.9812
20
-98.6238
11
1.9812
21
-98.8619
0
LINE
8
BLACK
6
CONTINUOUS
10
1.9812
20
-98.8619
11
1.93358
21
-98.9571
0
LINE
8
BLACK
6
CONTINUOUS
10
1.93358
20
-98.9571
11
1.88596
21
-99.0048
0
LINE
8
BLACK
6
CONTINUOUS
10
1.88596
20
-99.0048
11
1.79073
21
-99.0524
0
LINE
8
BLACK
6
CONTINUOUS
10
1.79073
20
-99.0524
11
1.55263
21
-99.0524
0
LINE
8
BLACK
6
CONTINUOUS
10
1.55263
20
-99.0524
11
1.45739
21
-99.0048
0
LINE
8
BLACK
6
CONTINUOUS
10
1.45739
20
-99.0048
11
1.40977
21
-98.9571
0
LINE
8
BLACK
6
CONTINUOUS
10
2.40977
20
-98.9571
11
2.45739
21
-99.0048
0
LINE
8
BLACK
6
CONTINUOUS
10
2.45739
20
-99.0048
11
2.40977
21
-99.0524
0
LINE
8
BLACK
6
CONTINUOUS
10
2.40977
20
-99.0524
11
2.36215
21
-99.0048
0
LINE
8
BLACK
6
CONTINUOUS
10
2.36215
20
-99.0048
11
2.40977
21
-98.9571
0
LINE
8
BLACK
6
CONTINUOUS
10
2.40977
20
-98.9571
11
2.40977
21
-99.0524
0
LINE
8
BLACK
6
CONTINUOUS
10
2.93358
20
-99.0524
11
3.12406
21
-99.0524
0
LINE
8
BLACK
6
CONTINUOUS
10
3.12406
20
-99.0524
11
3.2193
21
-99.0048
0
LINE
8
BLACK
6
CONTINUOUS
10
3.2193
20
-99.0048
11
3.26692
21
-98.9571
0
LINE
8
BLACK
6
CONTINUOUS
10
3.26692
20
-98.9571
11
3.36215
21
-98.8143
0
LINE
8
BLACK
6
CONTINUOUS
10
3.36215
20
-98.8143
11
3.40977
21
-98.6238
0
LINE
8
BLACK
6
CONTINUOUS
10
3.40977
20
-98.6238
11
3.40977
21
-98.2429
0
LINE
8
BLACK
6
CONTINUOUS
10
3.40977
20
-98.2429
11
3.36215
21
-98.1476
0
LINE
8
BLACK
6
CONTINUOUS
10
3.36215
20
-98.1476
11
3.31453
21
-98.1
0
LINE
8
BLACK
6
CONTINUOUS
10
3.31453
20
-98.1
11
3.2193
21
-98.0524
0
LINE
8
BLACK
6
CONTINUOUS
10
3.2193
20
-98.0524
11
3.02882
21
-98.0524
0
LINE
8
BLACK
6
CONTINUOUS
10
3.02882
20
-98.0524
11
2.93358
21
-98.1
0
LINE
8
BLACK
6
CONTINUOUS
10
2.93358
20
-98.1
11
2.88596
21
-98.1476
0
LINE
8
BLACK
6
CONTINUOUS
10
2.88596
20
-98.1476
11
2.83834
21
-98.2429
0
LINE
8
BLACK
6
CONTINUOUS
10
2.83834
20
-98.2429
11
2.83834
21
-98.481
0
LINE
8
BLACK
6
CONTINUOUS
10
2.83834
20
-98.481
11
2.88596
21
-98.5762
0
LINE
8
BLACK
6
CONTINUOUS
10
2.88596
20
-98.5762
11
2.93358
21
-98.6238
0
LINE
8
BLACK
6
CONTINUOUS
10
2.93358
20
-98.6238
11
3.02882
21
-98.6714
0
LINE
8
BLACK
6
CONTINUOUS
10
3.02882
20
-98.6714
11
3.2193
21
-98.6714
0
LINE
8
BLACK
6
CONTINUOUS
10
3.2193
20
-98.6714
11
3.31453
21
-98.6238
0
LINE
8
BLACK
6
CONTINUOUS
10
3.31453
20
-98.6238
11
3.36215
21
-98.5762
0
LINE
8
BLACK
6
CONTINUOUS
10
3.36215
20
-98.5762
11
3.40977
21
-98.481
0
LINE
8
BLACK
6
CONTINUOUS
10
4.31454
20
-98.0524
11
3.83834
21
-98.0524
0
LINE
8
BLACK
6
CONTINUOUS
10
3.83834
20
-98.0524
11
3.79073
21
-98.5286
0
LINE
8
BLACK
6
CONTINUOUS
10
3.79073
20
-98.5286
11
3.83834
21
-98.481
0
LINE
8
BLACK
6
CONTINUOUS
10
3.83834
20
-98.481
11
3.93358
21
-98.4333
0
LINE
8
BLACK
6
CONTINUOUS
10
3.93358
20
-98.4333
11
4.17168
21
-98.4333
0
LINE
8
BLACK
6
CONTINUOUS
10
4.17168
20
-98.4333
11
4.26692
21
-98.481
0
LINE
8
BLACK
6
CONTINUOUS
10
4.26692
20
-98.481
11
4.31454
21
-98.5286
0
LINE
8
BLACK
6
CONTINUOUS
10
4.31454
20
-98.5286
11
4.36215
21
-98.6238
0
LINE
8
BLACK
6
CONTINUOUS
10
4.36215
20
-98.6238
11
4.36215
21
-98.8619
0
LINE
8
BLACK
6
CONTINUOUS
10
4.36215
20
-98.8619
11
4.31454
21
-98.9571
0
LINE
8
BLACK
6
CONTINUOUS
10
4.31454
20
-98.9571
11
4.26692
21
-99.0048
0
LINE
8
BLACK
6
CONTINUOUS
10
4.26692
20
-99.0048
11
4.17168
21
-99.0524
0
LINE
8
BLACK
6
CONTINUOUS
10
4.17168
20
-99.0524
11
3.93358
21
-99.0524
0
LINE
8
BLACK
6
CONTINUOUS
10
3.93358
20
-99.0524
11
3.83834
21
-99.0048
0
LINE
8
BLACK
6
CONTINUOUS
10
3.83834
20
-99.0048
11
3.79073
21
-98.9571
0
LINE
8
BLACK
6
CONTINUOUS
10
4.9812
20
-98.0524
11
5.07644
21
-98.0524
0
LINE
8
BLACK
6
CONTINUOUS
10
5.07644
20
-98.0524
11
5.17168
21
-98.1
0
LINE
8
BLACK
6
CONTINUOUS
10
5.17168
20
-98.1
11
5.2193
21
-98.1476
0
LINE
8
BLACK
6
CONTINUOUS
10
5.2193
20
-98.1476
11
5.26692
21
-98.2429
0
LINE
8
BLACK
6
CONTINUOUS
10
5.26692
20
-98.2429
11
5.31453
21
-98.4333
0
LINE
8
BLACK
6
CONTINUOUS
10
5.31453
20
-98.4333
11
5.31453
21
-98.6714
0
LINE
8
BLACK
6
CONTINUOUS
10
5.31453
20
-98.6714
11
5.26692
21
-98.8619
0
LINE
8
BLACK
6
CONTINUOUS
10
5.26692
20
-98.8619
11
5.2193
21
-98.9571
0
LINE
8
BLACK
6
CONTINUOUS
10
5.2193
20
-98.9571
11
5.17168
21
-99.0048
0
LINE
8
BLACK
6
CONTINUOUS
10
5.17168
20
-99.0048
11
5.07644
21
-99.0524
0
LINE
8
BLACK
6
CONTINUOUS
10
5.07644
20
-99.0524
11
4.9812
21
-99.0524
0
LINE
8
BLACK
6
CONTINUOUS
10
4.9812
20
-99.0524
11
4.88596
21
-99.0048
0
LINE
8
BLACK
6
CONTINUOUS
10
4.88596
20
-99.0048
11
4.83834
21
-98.9571
0
LINE
8
BLACK
6
CONTINUOUS
10
4.83834
20
-98.9571
11
4.79073
21
-98.8619
0
LINE
8
BLACK
6
CONTINUOUS
10
4.79073
20
-98.8619
11
4.74311
21
-98.6714
0
LINE
8
BLACK
6
CONTINUOUS
10
4.74311
20
-98.6714
11
4.74311
21
-98.4333
0
LINE
8
BLACK
6
CONTINUOUS
10
4.74311
20
-98.4333
11
4.79073
21
-98.2429
0
LINE
8
BLACK
6
CONTINUOUS
10
4.79073
20
-98.2429
11
4.83834
21
-98.1476
0
LINE
8
BLACK
6
CONTINUOUS
10
4.83834
20
-98.1476
11
4.88596
21
-98.1
0
LINE
8
BLACK
6
CONTINUOUS
10
4.88596
20
-98.1
11
4.9812
21
-98.0524
0
LINE
8
BLACK
6
CONTINUOUS
10
6.50501
20
-99.0524
11
6.50501
21
-98.3857
0
LINE
8
BLACK
6
CONTINUOUS
10
6.50501
20
-98.481
11
6.55263
21
-98.4333
0
LINE
8
BLACK
6
CONTINUOUS
10
6.55263
20
-98.4333
11
6.64787
21
-98.3857
0
LINE
8
BLACK
6
CONTINUOUS
10
6.64787
20
-98.3857
11
6.79073
21
-98.3857
0
LINE
8
BLACK
6
CONTINUOUS
10
6.79073
20
-98.3857
11
6.88596
21
-98.4333
0
LINE
8
BLACK
6
CONTINUOUS
10
6.88596
20
-98.4333
11
6.93358
21
-98.5286
0
LINE
8
BLACK
6
CONTINUOUS
10
6.93358
20
-98.5286
11
6.93358
21
-99.0524
0
LINE
8
BLACK
6
CONTINUOUS
10
6.93358
20
-98.5286
11
6.9812
21
-98.4333
0
LINE
8
BLACK
6
CONTINUOUS
10
6.9812
20
-98.4333
11
7.07644
21
-98.3857
0
LINE
8
BLACK
6
CONTINUOUS
10
7.07644
20
-98.3857
11
7.2193
21
-98.3857
0
LINE
8
BLACK
6
CONTINUOUS
10
7.2193
20
-98.3857
11
7.31453
21
-98.4333
0
LINE
8
BLACK
6
CONTINUOUS
10
7.31453
20
-98.4333
11
7.36215
21
-98.5286
0
LINE
8
BLACK
6
CONTINUOUS
10
7.36215
20
-98.5286
11
7.36215
21
-99.0524
0
LINE
8
BLACK
6
CONTINUOUS
10
7.83834
20
-99.0524
11
7.83834
21
-98.3857
0
LINE
8
BLACK
6
CONTINUOUS
10
7.83834
20
-98.481
11
7.88596
21
-98.4333
0
LINE
8
BLACK
6
CONTINUOUS
10
7.88596
20
-98.4333
11
7.9812
21
-98.3857
0
LINE
8
BLACK
6
CONTINUOUS
10
7.9812
20
-98.3857
11
8.12406
21
-98.3857
0
LINE
8
BLACK
6
CONTINUOUS
10
8.12406
20
-98.3857
11
8.2193
21
-98.4333
0
LINE
8
BLACK
6
CONTINUOUS
10
8.2193
20
-98.4333
11
8.26692
21
-98.5286
0
LINE
8
BLACK
6
CONTINUOUS
10
8.26692
20
-98.5286
11
8.26692
21
-99.0524
0
LINE
8
BLACK
6
CONTINUOUS
10
8.26692
20
-98.5286
11
8.31453
21
-98.4333
0
LINE
8
BLACK
6
CONTINUOUS
10
8.31453
20
-98.4333
11
8.40977
21
-98.3857
0
LINE
8
BLACK
6
CONTINUOUS
10
8.40977
20
-98.3857
11
8.55263
21
-98.3857
0
LINE
8
BLACK
6
CONTINUOUS
10
8.55263
20
-98.3857
11
8.64787
21
-98.4333
0
LINE
8
BLACK
6
CONTINUOUS
10
8.64787
20
-98.4333
11
8.69549
21
-98.5286
0
LINE
8
BLACK
6
CONTINUOUS
10
8.69549
20
-98.5286
11
8.69549
21
-99.0524
0
LINE
8
BLACK
6
CONTINUOUS
10
-8.3745
20
-97.4
11
17.575
21
-97.4
0
LINE
8
BLACK
6
CONTINUOUS
10
-8.3745
20
-95.775
11
-8.3745
21
-97.9864
0
LINE
8
BLACK
6
CONTINUOUS
10
17.575
20
-95.775
11
17.575
21
-97.9864
0
LINE
8
BLACK
6
CONTINUOUS
10
17.575
20
-97.4
11
16.4485
21
-97.9864
0
LINE
8
BLACK
6
CONTINUOUS
10
17.575
20
-97.4
11
16.4485
21
-96.8136
0
LINE
8
BLACK
6
CONTINUOUS
10
-8.3745
20
-97.4
11
-7.248
21
-97.9864
0
LINE
8
BLACK
6
CONTINUOUS
10
-8.3745
20
-97.4
11
-7.248
21
-96.8136
0
ARC
8
BLACK
10
18.105
20
-86.305
40
0.531154
50
86.2218
51
176.222
0
LINE
8
BLACK
6
CONTINUOUS
10
17.02
20
-94.33
11
-7.8795
21
-94.33
0
ARC
8
BLACK
10
-7.8495
20
-93.805
40
0.525856
50
-183.27
51
-93.2705
0
LINE
8
BLACK
6
CONTINUOUS
10
17.575
20
-93.835
11
17.575
21
-86.27
0
ARC
8
BLACK
10
17.05
20
-93.805
40
0.525856
50
-93.2705
51
-3.27049
0
LINE
8
BLACK
6
CONTINUOUS
10
54.2624
20
2.22762
11
53.691
21
2.22762
0
LINE
8
BLACK
6
CONTINUOUS
10
53.9767
20
2.22762
11
53.9767
21
3.22762
0
LINE
8
BLACK
6
CONTINUOUS
10
53.9767
20
3.22762
11
53.8814
21
3.08476
0
LINE
8
BLACK
6
CONTINUOUS
10
53.8814
20
3.08476
11
53.7862
21
2.98952
0
LINE
8
BLACK
6
CONTINUOUS
10
53.7862
20
2.98952
11
53.691
21
2.9419
0
LINE
8
BLACK
6
CONTINUOUS
10
54.5957
20
3.22762
11
55.2148
21
3.22762
0
LINE
8
BLACK
6
CONTINUOUS
10
55.2148
20
3.22762
11
54.8814
21
2.84667
0
LINE
8
BLACK
6
CONTINUOUS
10
54.8814
20
2.84667
11
55.0243
21
2.84667
0
LINE
8
BLACK
6
CONTINUOUS
10
55.0243
20
2.84667
11
55.1195
21
2.79905
0
LINE
8
BLACK
6
CONTINUOUS
10
55.1195
20
2.79905
11
55.1671
21
2.75143
0
LINE
8
BLACK
6
CONTINUOUS
10
55.1671
20
2.75143
11
55.2148
21
2.65619
0
LINE
8
BLACK
6
CONTINUOUS
10
55.2148
20
2.65619
11
55.2148
21
2.4181
0
LINE
8
BLACK
6
CONTINUOUS
10
55.2148
20
2.4181
11
55.1671
21
2.32286
0
LINE
8
BLACK
6
CONTINUOUS
10
55.1671
20
2.32286
11
55.1195
21
2.27524
0
LINE
8
BLACK
6
CONTINUOUS
10
55.1195
20
2.27524
11
55.0243
21
2.22762
0
LINE
8
BLACK
6
CONTINUOUS
10
55.0243
20
2.22762
11
54.7386
21
2.22762
0
LINE
8
BLACK
6
CONTINUOUS
10
54.7386
20
2.22762
11
54.6433
21
2.27524
0
LINE
8
BLACK
6
CONTINUOUS
10
54.6433
20
2.27524
11
54.5957
21
2.32286
0
LINE
8
BLACK
6
CONTINUOUS
10
55.5481
20
3.22762
11
56.1671
21
3.22762
0
LINE
8
BLACK
6
CONTINUOUS
10
56.1671
20
3.22762
11
55.8338
21
2.84667
0
LINE
8
BLACK
6
CONTINUOUS
10
55.8338
20
2.84667
11
55.9767
21
2.84667
0
LINE
8
BLACK
6
CONTINUOUS
10
55.9767
20
2.84667
11
56.0719
21
2.79905
0
LINE
8
BLACK
6
CONTINUOUS
10
56.0719
20
2.79905
11
56.1195
21
2.75143
0
LINE
8
BLACK
6
CONTINUOUS
10
56.1195
20
2.75143
11
56.1671
21
2.65619
0
LINE
8
BLACK
6
CONTINUOUS
10
56.1671
20
2.65619
11
56.1671
21
2.4181
0
LINE
8
BLACK
6
CONTINUOUS
10
56.1671
20
2.4181
11
56.1195
21
2.32286
0
LINE
8
BLACK
6
CONTINUOUS
10
56.1195
20
2.32286
11
56.0719
21
2.27524
0
LINE
8
BLACK
6
CONTINUOUS
10
56.0719
20
2.27524
11
55.9767
21
2.22762
0
LINE
8
BLACK
6
CONTINUOUS
10
55.9767
20
2.22762
11
55.691
21
2.22762
0
LINE
8
BLACK
6
CONTINUOUS
10
55.691
20
2.22762
11
55.5957
21
2.27524
0
LINE
8
BLACK
6
CONTINUOUS
10
55.5957
20
2.27524
11
55.5481
21
2.32286
0
LINE
8
BLACK
6
CONTINUOUS
10
56.5957
20
2.32286
11
56.6433
21
2.27524
0
LINE
8
BLACK
6
CONTINUOUS
10
56.6433
20
2.27524
11
56.5957
21
2.22762
0
LINE
8
BLACK
6
CONTINUOUS
10
56.5957
20
2.22762
11
56.5481
21
2.27524
0
LINE
8
BLACK
6
CONTINUOUS
10
56.5481
20
2.27524
11
56.5957
21
2.32286
0
LINE
8
BLACK
6
CONTINUOUS
10
56.5957
20
2.32286
11
56.5957
21
2.22762
0
LINE
8
BLACK
6
CONTINUOUS
10
56.9767
20
3.22762
11
57.5957
21
3.22762
0
LINE
8
BLACK
6
CONTINUOUS
10
57.5957
20
3.22762
11
57.2624
21
2.84667
0
LINE
8
BLACK
6
CONTINUOUS
10
57.2624
20
2.84667
11
57.4052
21
2.84667
0
LINE
8
BLACK
6
CONTINUOUS
10
57.4052
20
2.84667
11
57.5005
21
2.79905
0
LINE
8
BLACK
6
CONTINUOUS
10
57.5005
20
2.79905
11
57.5481
21
2.75143
0
LINE
8
BLACK
6
CONTINUOUS
10
57.5481
20
2.75143
11
57.5957
21
2.65619
0
LINE
8
BLACK
6
CONTINUOUS
10
57.5957
20
2.65619
11
57.5957
21
2.4181
0
LINE
8
BLACK
6
CONTINUOUS
10
57.5957
20
2.4181
11
57.5481
21
2.32286
0
LINE
8
BLACK
6
CONTINUOUS
10
57.5481
20
2.32286
11
57.5005
21
2.27524
0
LINE
8
BLACK
6
CONTINUOUS
10
57.5005
20
2.27524
11
57.4052
21
2.22762
0
LINE
8
BLACK
6
CONTINUOUS
10
57.4052
20
2.22762
11
57.1195
21
2.22762
0
LINE
8
BLACK
6
CONTINUOUS
10
57.1195
20
2.22762
11
57.0243
21
2.27524
0
LINE
8
BLACK
6
CONTINUOUS
10
57.0243
20
2.27524
11
56.9767
21
2.32286
0
LINE
8
BLACK
6
CONTINUOUS
10
58.1671
20
2.79905
11
58.0719
21
2.84667
0
LINE
8
BLACK
6
CONTINUOUS
10
58.0719
20
2.84667
11
58.0243
21
2.89428
0
LINE
8
BLACK
6
CONTINUOUS
10
58.0243
20
2.89428
11
57.9767
21
2.98952
0
LINE
8
BLACK
6
CONTINUOUS
10
57.9767
20
2.98952
11
57.9767
21
3.03714
0
LINE
8
BLACK
6
CONTINUOUS
10
57.9767
20
3.03714
11
58.0243
21
3.13238
0
LINE
8
BLACK
6
CONTINUOUS
10
58.0243
20
3.13238
11
58.0719
21
3.18
0
LINE
8
BLACK
6
CONTINUOUS
10
58.0719
20
3.18
11
58.1671
21
3.22762
0
LINE
8
BLACK
6
CONTINUOUS
10
58.1671
20
3.22762
11
58.3576
21
3.22762
0
LINE
8
BLACK
6
CONTINUOUS
10
58.3576
20
3.22762
11
58.4529
21
3.18
0
LINE
8
BLACK
6
CONTINUOUS
10
58.4529
20
3.18
11
58.5005
21
3.13238
0
LINE
8
BLACK
6
CONTINUOUS
10
58.5005
20
3.13238
11
58.5481
21
3.03714
0
LINE
8
BLACK
6
CONTINUOUS
10
58.5481
20
3.03714
11
58.5481
21
2.98952
0
LINE
8
BLACK
6
CONTINUOUS
10
58.5481
20
2.98952
11
58.5005
21
2.89428
0
LINE
8
BLACK
6
CONTINUOUS
10
58.5005
20
2.89428
11
58.4529
21
2.84667
0
LINE
8
BLACK
6
CONTINUOUS
10
58.4529
20
2.84667
11
58.3576
21
2.79905
0
LINE
8
BLACK
6
CONTINUOUS
10
58.3576
20
2.79905
11
58.1671
21
2.79905
0
LINE
8
BLACK
6
CONTINUOUS
10
58.1671
20
2.79905
11
58.0719
21
2.75143
0
LINE
8
BLACK
6
CONTINUOUS
10
58.0719
20
2.75143
11
58.0243
21
2.70381
0
LINE
8
BLACK
6
CONTINUOUS
10
58.0243
20
2.70381
11
57.9767
21
2.60857
0
LINE
8
BLACK
6
CONTINUOUS
10
57.9767
20
2.60857
11
57.9767
21
2.4181
0
LINE
8
BLACK
6
CONTINUOUS
10
57.9767
20
2.4181
11
58.0243
21
2.32286
0
LINE
8
BLACK
6
CONTINUOUS
10
58.0243
20
2.32286
11
58.0719
21
2.27524
0
LINE
8
BLACK
6
CONTINUOUS
10
58.0719
20
2.27524
11
58.1671
21
2.22762
0
LINE
8
BLACK
6
CONTINUOUS
10
58.1671
20
2.22762
11
58.3576
21
2.22762
0
LINE
8
BLACK
6
CONTINUOUS
10
58.3576
20
2.22762
11
58.4529
21
2.27524
0
LINE
8
BLACK
6
CONTINUOUS
10
58.4529
20
2.27524
11
58.5005
21
2.32286
0
LINE
8
BLACK
6
CONTINUOUS
10
58.5005
20
2.32286
11
58.5481
21
2.4181
0
LINE
8
BLACK
6
CONTINUOUS
10
58.5481
20
2.4181
11
58.5481
21
2.60857
0
LINE
8
BLACK
6
CONTINUOUS
10
58.5481
20
2.60857
11
58.5005
21
2.70381
0
LINE
8
BLACK
6
CONTINUOUS
10
58.5005
20
2.70381
11
58.4529
21
2.75143
0
LINE
8
BLACK
6
CONTINUOUS
10
58.4529
20
2.75143
11
58.3576
21
2.79905
0
LINE
8
BLACK
6
CONTINUOUS
10
59.1671
20
3.22762
11
59.2624
21
3.22762
0
LINE
8
BLACK
6
CONTINUOUS
10
59.2624
20
3.22762
11
59.3576
21
3.18
0
LINE
8
BLACK
6
CONTINUOUS
10
59.3576
20
3.18
11
59.4052
21
3.13238
0
LINE
8
BLACK
6
CONTINUOUS
10
59.4052
20
3.13238
11
59.4529
21
3.03714
0
LINE
8
BLACK
6
CONTINUOUS
10
59.4529
20
3.03714
11
59.5005
21
2.84667
0
LINE
8
BLACK
6
CONTINUOUS
10
59.5005
20
2.84667
11
59.5005
21
2.60857
0
LINE
8
BLACK
6
CONTINUOUS
10
59.5005
20
2.60857
11
59.4529
21
2.4181
0
LINE
8
BLACK
6
CONTINUOUS
10
59.4529
20
2.4181
11
59.4052
21
2.32286
0
LINE
8
BLACK
6
CONTINUOUS
10
59.4052
20
2.32286
11
59.3576
21
2.27524
0
LINE
8
BLACK
6
CONTINUOUS
10
59.3576
20
2.27524
11
59.2624
21
2.22762
0
LINE
8
BLACK
6
CONTINUOUS
10
59.2624
20
2.22762
11
59.1671
21
2.22762
0
LINE
8
BLACK
6
CONTINUOUS
10
59.1671
20
2.22762
11
59.0719
21
2.27524
0
LINE
8
BLACK
6
CONTINUOUS
10
59.0719
20
2.27524
11
59.0243
21
2.32286
0
LINE
8
BLACK
6
CONTINUOUS
10
59.0243
20
2.32286
11
58.9767
21
2.4181
0
LINE
8
BLACK
6
CONTINUOUS
10
58.9767
20
2.4181
11
58.929
21
2.60857
0
LINE
8
BLACK
6
CONTINUOUS
10
58.929
20
2.60857
11
58.929
21
2.84667
0
LINE
8
BLACK
6
CONTINUOUS
10
58.929
20
2.84667
11
58.9767
21
3.03714
0
LINE
8
BLACK
6
CONTINUOUS
10
58.9767
20
3.03714
11
59.0243
21
3.13238
0
LINE
8
BLACK
6
CONTINUOUS
10
59.0243
20
3.13238
11
59.0719
21
3.18
0
LINE
8
BLACK
6
CONTINUOUS
10
59.0719
20
3.18
11
59.1671
21
3.22762
0
LINE
8
BLACK
6
CONTINUOUS
10
60.691
20
2.22762
11
60.691
21
2.89428
0
LINE
8
BLACK
6
CONTINUOUS
10
60.691
20
2.79905
11
60.7386
21
2.84667
0
LINE
8
BLACK
6
CONTINUOUS
10
60.7386
20
2.84667
11
60.8338
21
2.89428
0
LINE
8
BLACK
6
CONTINUOUS
10
60.8338
20
2.89428
11
60.9767
21
2.89428
0
LINE
8
BLACK
6
CONTINUOUS
10
60.9767
20
2.89428
11
61.0719
21
2.84667
0
LINE
8
BLACK
6
CONTINUOUS
10
61.0719
20
2.84667
11
61.1195
21
2.75143
0
LINE
8
BLACK
6
CONTINUOUS
10
61.1195
20
2.75143
11
61.1195
21
2.22762
0
LINE
8
BLACK
6
CONTINUOUS
10
61.1195
20
2.75143
11
61.1671
21
2.84667
0
LINE
8
BLACK
6
CONTINUOUS
10
61.1671
20
2.84667
11
61.2624
21
2.89428
0
LINE
8
BLACK
6
CONTINUOUS
10
61.2624
20
2.89428
11
61.4052
21
2.89428
0
LINE
8
BLACK
6
CONTINUOUS
10
61.4052
20
2.89428
11
61.5005
21
2.84667
0
LINE
8
BLACK
6
CONTINUOUS
10
61.5005
20
2.84667
11
61.5481
21
2.75143
0
LINE
8
BLACK
6
CONTINUOUS
10
61.5481
20
2.75143
11
61.5481
21
2.22762
0
LINE
8
BLACK
6
CONTINUOUS
10
62.0243
20
2.22762
11
62.0243
21
2.89428
0
LINE
8
BLACK
6
CONTINUOUS
10
62.0243
20
2.79905
11
62.0719
21
2.84667
0
LINE
8
BLACK
6
CONTINUOUS
10
62.0719
20
2.84667
11
62.1671
21
2.89428
0
LINE
8
BLACK
6
CONTINUOUS
10
62.1671
20
2.89428
11
62.31
21
2.89428
0
LINE
8
BLACK
6
CONTINUOUS
10
62.31
20
2.89428
11
62.4052
21
2.84667
0
LINE
8
BLACK
6
CONTINUOUS
10
62.4052
20
2.84667
11
62.4529
21
2.75143
0
LINE
8
BLACK
6
CONTINUOUS
10
62.4529
20
2.75143
11
62.4529
21
2.22762
0
LINE
8
BLACK
6
CONTINUOUS
10
62.4529
20
2.75143
11
62.5005
21
2.84667
0
LINE
8
BLACK
6
CONTINUOUS
10
62.5005
20
2.84667
11
62.5957
21
2.89428
0
LINE
8
BLACK
6
CONTINUOUS
10
62.5957
20
2.89428
11
62.7386
21
2.89428
0
LINE
8
BLACK
6
CONTINUOUS
10
62.7386
20
2.89428
11
62.8338
21
2.84667
0
LINE
8
BLACK
6
CONTINUOUS
10
62.8338
20
2.84667
11
62.8814
21
2.75143
0
LINE
8
BLACK
6
CONTINUOUS
10
62.8814
20
2.75143
11
62.8814
21
2.22762
0
LINE
8
BLACK
6
CONTINUOUS
10
125
20
1.48
11
-8.38
21
1.48
0
LINE
8
BLACK
6
CONTINUOUS
10
125
20
-7.2
11
125
21
2.06642
0
LINE
8
BLACK
6
CONTINUOUS
10
-8.38
20
-7.2
11
-8.38
21
2.06642
0
LINE
8
BLACK
6
CONTINUOUS
10
-8.38
20
1.48
11
-7.2535
21
2.06642
0
LINE
8
BLACK
6
CONTINUOUS
10
-8.38
20
1.48
11
-7.2535
21
0.893579
0
LINE
8
BLACK
6
CONTINUOUS
10
125
20
1.48
11
123.873
21
2.06642
0
LINE
8
BLACK
6
CONTINUOUS
10
125
20
1.48
11
123.873
21
0.893579
0
LINE
8
BLACK
6
CONTINUOUS
10
149.149
20
-48.0001
11
149.197
21
-47.9049
0
LINE
8
BLACK
6
CONTINUOUS
10
149.197
20
-47.9049
11
149.244
21
-47.8573
0
LINE
8
BLACK
6
CONTINUOUS
10
149.244
20
-47.8573
11
149.34
21
-47.8096
0
LINE
8
BLACK
6
CONTINUOUS
10
149.34
20
-47.8096
11
149.387
21
-47.8096
0
LINE
8
BLACK
6
CONTINUOUS
10
149.387
20
-47.8096
11
149.482
21
-47.8573
0
LINE
8
BLACK
6
CONTINUOUS
10
149.482
20
-47.8573
11
149.53
21
-47.9049
0
LINE
8
BLACK
6
CONTINUOUS
10
149.53
20
-47.9049
11
149.578
21
-48.0001
0
LINE
8
BLACK
6
CONTINUOUS
10
149.578
20
-48.0001
11
149.578
21
-48.1906
0
LINE
8
BLACK
6
CONTINUOUS
10
149.578
20
-48.1906
11
149.53
21
-48.2858
0
LINE
8
BLACK
6
CONTINUOUS
10
149.53
20
-48.2858
11
149.482
21
-48.3335
0
LINE
8
BLACK
6
CONTINUOUS
10
149.482
20
-48.3335
11
149.387
21
-48.3811
0
LINE
8
BLACK
6
CONTINUOUS
10
149.387
20
-48.3811
11
149.34
21
-48.3811
0
LINE
8
BLACK
6
CONTINUOUS
10
149.34
20
-48.3811
11
149.244
21
-48.3335
0
LINE
8
BLACK
6
CONTINUOUS
10
149.244
20
-48.3335
11
149.197
21
-48.2858
0
LINE
8
BLACK
6
CONTINUOUS
10
149.197
20
-48.2858
11
149.149
21
-48.1906
0
LINE
8
BLACK
6
CONTINUOUS
10
149.149
20
-48.1906
11
149.149
21
-48.0001
0
LINE
8
BLACK
6
CONTINUOUS
10
149.149
20
-48.0001
11
149.101
21
-47.9049
0
LINE
8
BLACK
6
CONTINUOUS
10
149.101
20
-47.9049
11
149.054
21
-47.8573
0
LINE
8
BLACK
6
CONTINUOUS
10
149.054
20
-47.8573
11
148.959
21
-47.8096
0
LINE
8
BLACK
6
CONTINUOUS
10
148.959
20
-47.8096
11
148.768
21
-47.8096
0
LINE
8
BLACK
6
CONTINUOUS
10
148.768
20
-47.8096
11
148.673
21
-47.8573
0
LINE
8
BLACK
6
CONTINUOUS
10
148.673
20
-47.8573
11
148.625
21
-47.9049
0
LINE
8
BLACK
6
CONTINUOUS
10
148.625
20
-47.9049
11
148.578
21
-48.0001
0
LINE
8
BLACK
6
CONTINUOUS
10
148.578
20
-48.0001
11
148.578
21
-48.1906
0
LINE
8
BLACK
6
CONTINUOUS
10
148.578
20
-48.1906
11
148.625
21
-48.2858
0
LINE
8
BLACK
6
CONTINUOUS
10
148.625
20
-48.2858
11
148.673
21
-48.3335
0
LINE
8
BLACK
6
CONTINUOUS
10
148.673
20
-48.3335
11
148.768
21
-48.3811
0
LINE
8
BLACK
6
CONTINUOUS
10
148.768
20
-48.3811
11
148.959
21
-48.3811
0
LINE
8
BLACK
6
CONTINUOUS
10
148.959
20
-48.3811
11
149.054
21
-48.3335
0
LINE
8
BLACK
6
CONTINUOUS
10
149.054
20
-48.3335
11
149.101
21
-48.2858
0
LINE
8
BLACK
6
CONTINUOUS
10
149.101
20
-48.2858
11
149.149
21
-48.1906
0
LINE
8
BLACK
6
CONTINUOUS
10
149.244
20
-49.2382
11
148.578
21
-49.2382
0
LINE
8
BLACK
6
CONTINUOUS
10
149.625
20
-49.0001
11
148.911
21
-48.762
0
LINE
8
BLACK
6
CONTINUOUS
10
148.911
20
-48.762
11
148.911
21
-49.3811
0
LINE
8
BLACK
6
CONTINUOUS
10
148.673
20
-49.762
11
148.625
21
-49.8096
0
LINE
8
BLACK
6
CONTINUOUS
10
148.625
20
-49.8096
11
148.578
21
-49.762
0
LINE
8
BLACK
6
CONTINUOUS
10
148.578
20
-49.762
11
148.625
21
-49.7144
0
LINE
8
BLACK
6
CONTINUOUS
10
148.625
20
-49.7144
11
148.673
21
-49.762
0
LINE
8
BLACK
6
CONTINUOUS
10
148.673
20
-49.762
11
148.578
21
-49.762
0
LINE
8
BLACK
6
CONTINUOUS
10
149.578
20
-50.143
11
149.578
21
-50.8096
0
LINE
8
BLACK
6
CONTINUOUS
10
149.578
20
-50.8096
11
148.578
21
-50.3811
0
LINE
8
BLACK
6
CONTINUOUS
10
149.578
20
-51.6668
11
149.578
21
-51.1906
0
LINE
8
BLACK
6
CONTINUOUS
10
149.578
20
-51.1906
11
149.101
21
-51.143
0
LINE
8
BLACK
6
CONTINUOUS
10
149.101
20
-51.143
11
149.149
21
-51.1906
0
LINE
8
BLACK
6
CONTINUOUS
10
149.149
20
-51.1906
11
149.197
21
-51.2858
0
LINE
8
BLACK
6
CONTINUOUS
10
149.197
20
-51.2858
11
149.197
21
-51.5239
0
LINE
8
BLACK
6
CONTINUOUS
10
149.197
20
-51.5239
11
149.149
21
-51.6192
0
LINE
8
BLACK
6
CONTINUOUS
10
149.149
20
-51.6192
11
149.101
21
-51.6668
0
LINE
8
BLACK
6
CONTINUOUS
10
149.101
20
-51.6668
11
149.006
21
-51.7144
0
LINE
8
BLACK
6
CONTINUOUS
10
149.006
20
-51.7144
11
148.768
21
-51.7144
0
LINE
8
BLACK
6
CONTINUOUS
10
148.768
20
-51.7144
11
148.673
21
-51.6668
0
LINE
8
BLACK
6
CONTINUOUS
10
148.673
20
-51.6668
11
148.625
21
-51.6192
0
LINE
8
BLACK
6
CONTINUOUS
10
148.625
20
-51.6192
11
148.578
21
-51.5239
0
LINE
8
BLACK
6
CONTINUOUS
10
148.578
20
-51.5239
11
148.578
21
-51.2858
0
LINE
8
BLACK
6
CONTINUOUS
10
148.578
20
-51.2858
11
148.625
21
-51.1906
0
LINE
8
BLACK
6
CONTINUOUS
10
148.625
20
-51.1906
11
148.673
21
-51.143
0
LINE
8
BLACK
6
CONTINUOUS
10
149.578
20
-52.6192
11
149.578
21
-52.143
0
LINE
8
BLACK
6
CONTINUOUS
10
149.578
20
-52.143
11
149.101
21
-52.0954
0
LINE
8
BLACK
6
CONTINUOUS
10
149.101
20
-52.0954
11
149.149
21
-52.143
0
LINE
8
BLACK
6
CONTINUOUS
10
149.149
20
-52.143
11
149.197
21
-52.2382
0
LINE
8
BLACK
6
CONTINUOUS
10
149.197
20
-52.2382
11
149.197
21
-52.4763
0
LINE
8
BLACK
6
CONTINUOUS
10
149.197
20
-52.4763
11
149.149
21
-52.5715
0
LINE
8
BLACK
6
CONTINUOUS
10
149.149
20
-52.5715
11
149.101
21
-52.6192
0
LINE
8
BLACK
6
CONTINUOUS
10
149.101
20
-52.6192
11
149.006
21
-52.6668
0
LINE
8
BLACK
6
CONTINUOUS
10
149.006
20
-52.6668
11
148.768
21
-52.6668
0
LINE
8
BLACK
6
CONTINUOUS
10
148.768
20
-52.6668
11
148.673
21
-52.6192
0
LINE
8
BLACK
6
CONTINUOUS
10
148.673
20
-52.6192
11
148.625
21
-52.5715
0
LINE
8
BLACK
6
CONTINUOUS
10
148.625
20
-52.5715
11
148.578
21
-52.4763
0
LINE
8
BLACK
6
CONTINUOUS
10
148.578
20
-52.4763
11
148.578
21
-52.2382
0
LINE
8
BLACK
6
CONTINUOUS
10
148.578
20
-52.2382
11
148.625
21
-52.143
0
LINE
8
BLACK
6
CONTINUOUS
10
148.625
20
-52.143
11
148.673
21
-52.0954
0
LINE
8
BLACK
6
CONTINUOUS
10
148.578
20
-53.8573
11
149.244
21
-53.8573
0
LINE
8
BLACK
6
CONTINUOUS
10
149.149
20
-53.8573
11
149.197
21
-53.9049
0
LINE
8
BLACK
6
CONTINUOUS
10
149.197
20
-53.9049
11
149.244
21
-54.0001
0
LINE
8
BLACK
6
CONTINUOUS
10
149.244
20
-54.0001
11
149.244
21
-54.143
0
LINE
8
BLACK
6
CONTINUOUS
10
149.244
20
-54.143
11
149.197
21
-54.2382
0
LINE
8
BLACK
6
CONTINUOUS
10
149.197
20
-54.2382
11
149.101
21
-54.2858
0
LINE
8
BLACK
6
CONTINUOUS
10
149.101
20
-54.2858
11
148.578
21
-54.2858
0
LINE
8
BLACK
6
CONTINUOUS
10
149.101
20
-54.2858
11
149.197
21
-54.3335
0
LINE
8
BLACK
6
CONTINUOUS
10
149.197
20
-54.3335
11
149.244
21
-54.4287
0
LINE
8
BLACK
6
CONTINUOUS
10
149.244
20
-54.4287
11
149.244
21
-54.5715
0
LINE
8
BLACK
6
CONTINUOUS
10
149.244
20
-54.5715
11
149.197
21
-54.6668
0
LINE
8
BLACK
6
CONTINUOUS
10
149.197
20
-54.6668
11
149.101
21
-54.7144
0
LINE
8
BLACK
6
CONTINUOUS
10
149.101
20
-54.7144
11
148.578
21
-54.7144
0
LINE
8
BLACK
6
CONTINUOUS
10
148.578
20
-55.1906
11
149.244
21
-55.1906
0
LINE
8
BLACK
6
CONTINUOUS
10
149.149
20
-55.1906
11
149.197
21
-55.2382
0
LINE
8
BLACK
6
CONTINUOUS
10
149.197
20
-55.2382
11
149.244
21
-55.3335
0
LINE
8
BLACK
6
CONTINUOUS
10
149.244
20
-55.3335
11
149.244
21
-55.4763
0
LINE
8
BLACK
6
CONTINUOUS
10
149.244
20
-55.4763
11
149.197
21
-55.5715
0
LINE
8
BLACK
6
CONTINUOUS
10
149.197
20
-55.5715
11
149.101
21
-55.6192
0
LINE
8
BLACK
6
CONTINUOUS
10
149.101
20
-55.6192
11
148.578
21
-55.6192
0
LINE
8
BLACK
6
CONTINUOUS
10
149.101
20
-55.6192
11
149.197
21
-55.6668
0
LINE
8
BLACK
6
CONTINUOUS
10
149.197
20
-55.6668
11
149.244
21
-55.762
0
LINE
8
BLACK
6
CONTINUOUS
10
149.244
20
-55.762
11
149.244
21
-55.9049
0
LINE
8
BLACK
6
CONTINUOUS
10
149.244
20
-55.9049
11
149.197
21
-56.0001
0
LINE
8
BLACK
6
CONTINUOUS
10
149.197
20
-56.0001
11
149.101
21
-56.0477
0
LINE
8
BLACK
6
CONTINUOUS
10
149.101
20
-56.0477
11
148.578
21
-56.0477
0
LINE
8
BLACK
6
CONTINUOUS
10
147.83
20
-9.575
11
147.83
21
-94.33
0
LINE
8
BLACK
6
CONTINUOUS
10
134.49
20
-9.575
11
148.416
21
-9.575
0
LINE
8
BLACK
6
CONTINUOUS
10
134.49
20
-94.33
11
148.416
21
-94.33
0
LINE
8
BLACK
6
CONTINUOUS
10
147.83
20
-94.33
11
147.244
21
-93.2035
0
LINE
8
BLACK
6
CONTINUOUS
10
147.83
20
-94.33
11
148.416
21
-93.2035
0
LINE
8
BLACK
6
CONTINUOUS
10
147.83
20
-9.575
11
147.244
21
-10.7015
0
LINE
8
BLACK
6
CONTINUOUS
10
147.83
20
-9.575
11
148.416
21
-10.7015
0
LINE
8
BLACK
6
CONTINUOUS
10
125.005
20
-63.5
11
131.92
21
-76.78
0
LINE
8
BLACK
6
CONTINUOUS
10
105.475
20
-85.775
11
101.162
21
-85.775
0
LINE
8
BLACK
6
CONTINUOUS
10
105.97
20
-93.775
11
105.97
21
-86.33
0
ARC
8
BLACK
10
106.495
20
-93.805
40
0.525856
50
-183.27
51
-93.2705
0
ARC
8
BLACK
10
105.445
20
-86.3
40
0.525856
50
-3.27049
51
86.7295
0
LINE
8
BLACK
6
CONTINUOUS
10
18.14
20
-85.775
11
48.775
21
-85.775
0
LINE
8
BLACK
6
CONTINUOUS
10
131.92
20
-93.835
11
131.92
21
-76.78
0
LINE
8
BLACK
6
CONTINUOUS
10
77.2575
20
-85.775
11
101.162
21
-85.775
0
LINE
8
BLACK
6
CONTINUOUS
10
125.005
20
-10.13
11
125.005
21
-63.5
0
ARC
8
BLACK
10
131.395
20
-93.805
40
0.525856
50
-93.2705
51
-3.27049
0
LINE
8
BLACK
6
CONTINUOUS
10
131.365
20
-94.33
11
106.465
21
-94.33
0
ARC
8
BLACK
10
124.48
20
-10.1
40
0.525856
50
-3.27049
51
86.7295
0
ARC
8
BLACK
10
-7.85
20
-10.1
40
0.525856
50
86.7295
51
176.73
0
LINE
8
BLACK
6
CONTINUOUS
10
77.2575
20
-85.775
11
48.775
21
-85.775
0
LINE
8
BLACK
6
CONTINUOUS
10
-7.82
20
-9.575
11
124.51
21
-9.575
0
LINE
8
BLACK
6
CONTINUOUS
10
-8.375
20
-10.075
11
-8.3745
21
-93.775
0
LINE
8
BLACK
6
CONTINUOUS
10
119.225
20
-71.3711
11
119.336
21
-71.3932
0
LINE
8
BLACK
6
CONTINUOUS
10
119.336
20
-71.3932
11
119.545
21
-71.48
0
LINE
8
BLACK
6
CONTINUOUS
10
119.545
20
-71.48
11
119.734
21
-71.606
0
LINE
8
BLACK
6
CONTINUOUS
10
119.734
20
-71.606
11
119.894
21
-71.7663
0
LINE
8
BLACK
6
CONTINUOUS
10
119.894
20
-71.7663
11
120.02
21
-71.9548
0
LINE
8
BLACK
6
CONTINUOUS
10
120.02
20
-71.9548
11
120.107
21
-72.1643
0
LINE
8
BLACK
6
CONTINUOUS
10
120.107
20
-72.1643
11
120.151
21
-72.3866
0
LINE
8
BLACK
6
CONTINUOUS
10
120.151
20
-72.3866
11
120.151
21
-72.6134
0
LINE
8
BLACK
6
CONTINUOUS
10
120.151
20
-72.6134
11
120.107
21
-72.8357
0
LINE
8
BLACK
6
CONTINUOUS
10
120.107
20
-72.8357
11
120.02
21
-73.0452
0
LINE
8
BLACK
6
CONTINUOUS
10
120.02
20
-73.0452
11
119.894
21
-73.2337
0
LINE
8
BLACK
6
CONTINUOUS
10
119.894
20
-73.2337
11
119.734
21
-73.394
0
LINE
8
BLACK
6
CONTINUOUS
10
119.734
20
-73.394
11
119.545
21
-73.52
0
LINE
8
BLACK
6
CONTINUOUS
10
119.545
20
-73.52
11
119.336
21
-73.6068
0
LINE
8
BLACK
6
CONTINUOUS
10
119.336
20
-73.6068
11
119.225
21
-73.6289
0
LINE
8
BLACK
6
CONTINUOUS
10
119.225
20
-73.6289
11
119.113
21
-73.651
0
LINE
8
BLACK
6
CONTINUOUS
10
119.113
20
-73.651
11
118.887
21
-73.651
0
LINE
8
BLACK
6
CONTINUOUS
10
118.887
20
-73.651
11
118.775
21
-73.6289
0
LINE
8
BLACK
6
CONTINUOUS
10
118.775
20
-73.6289
11
118.664
21
-73.6068
0
LINE
8
BLACK
6
CONTINUOUS
10
118.664
20
-73.6068
11
118.455
21
-73.52
0
LINE
8
BLACK
6
CONTINUOUS
10
118.455
20
-73.52
11
118.266
21
-73.394
0
LINE
8
BLACK
6
CONTINUOUS
10
118.266
20
-73.394
11
118.106
21
-73.2337
0
LINE
8
BLACK
6
CONTINUOUS
10
118.106
20
-73.2337
11
117.98
21
-73.0452
0
LINE
8
BLACK
6
CONTINUOUS
10
117.98
20
-73.0452
11
117.893
21
-72.8357
0
LINE
8
BLACK
6
CONTINUOUS
10
117.893
20
-72.8357
11
117.849
21
-72.6134
0
LINE
8
BLACK
6
CONTINUOUS
10
117.849
20
-72.6134
11
117.849
21
-72.3866
0
LINE
8
BLACK
6
CONTINUOUS
10
117.849
20
-72.3866
11
117.893
21
-72.1643
0
LINE
8
BLACK
6
CONTINUOUS
10
117.893
20
-72.1643
11
117.98
21
-71.9548
0
LINE
8
BLACK
6
CONTINUOUS
10
117.98
20
-71.9548
11
118.106
21
-71.7663
0
LINE
8
BLACK
6
CONTINUOUS
10
118.106
20
-71.7663
11
118.266
21
-71.606
0
LINE
8
BLACK
6
CONTINUOUS
10
118.266
20
-71.606
11
118.455
21
-71.48
0
LINE
8
BLACK
6
CONTINUOUS
10
118.455
20
-71.48
11
118.664
21
-71.3932
0
LINE
8
BLACK
6
CONTINUOUS
10
118.664
20
-71.3932
11
118.775
21
-71.3711
0
LINE
8
BLACK
6
CONTINUOUS
10
118.775
20
-71.3711
11
118.887
21
-71.349
0
LINE
8
BLACK
6
CONTINUOUS
10
118.887
20
-71.349
11
119.113
21
-71.349
0
LINE
8
BLACK
6
CONTINUOUS
10
119.113
20
-71.349
11
119.225
21
-71.3711
0
LINE
8
BLACK
6
CONTINUOUS
10
87.0745
20
-65.1711
11
87.1857
21
-65.1932
0
LINE
8
BLACK
6
CONTINUOUS
10
87.1857
20
-65.1932
11
87.3952
21
-65.28
0
LINE
8
BLACK
6
CONTINUOUS
10
87.3952
20
-65.28
11
87.5837
21
-65.406
0
LINE
8
BLACK
6
CONTINUOUS
10
87.5837
20
-65.406
11
87.744
21
-65.5663
0
LINE
8
BLACK
6
CONTINUOUS
10
87.744
20
-65.5663
11
87.87
21
-65.7548
0
LINE
8
BLACK
6
CONTINUOUS
10
87.87
20
-65.7548
11
87.9568
21
-65.9643
0
LINE
8
BLACK
6
CONTINUOUS
10
87.9568
20
-65.9643
11
88.001
21
-66.1866
0
LINE
8
BLACK
6
CONTINUOUS
10
88.001
20
-66.1866
11
88.001
21
-66.4134
0
LINE
8
BLACK
6
CONTINUOUS
10
88.001
20
-66.4134
11
87.9568
21
-66.6357
0
LINE
8
BLACK
6
CONTINUOUS
10
87.9568
20
-66.6357
11
87.87
21
-66.8452
0
LINE
8
BLACK
6
CONTINUOUS
10
87.87
20
-66.8452
11
87.744
21
-67.0337
0
LINE
8
BLACK
6
CONTINUOUS
10
87.744
20
-67.0337
11
87.5837
21
-67.194
0
LINE
8
BLACK
6
CONTINUOUS
10
87.5837
20
-67.194
11
87.3952
21
-67.32
0
LINE
8
BLACK
6
CONTINUOUS
10
87.3952
20
-67.32
11
87.1857
21
-67.4068
0
LINE
8
BLACK
6
CONTINUOUS
10
87.1857
20
-67.4068
11
87.0745
21
-67.4289
0
LINE
8
BLACK
6
CONTINUOUS
10
87.0745
20
-67.4289
11
86.9634
21
-67.451
0
LINE
8
BLACK
6
CONTINUOUS
10
86.9634
20
-67.451
11
86.7366
21
-67.451
0
LINE
8
BLACK
6
CONTINUOUS
10
86.7366
20
-67.451
11
86.6255
21
-67.4289
0
LINE
8
BLACK
6
CONTINUOUS
10
86.6255
20
-67.4289
11
86.5143
21
-67.4068
0
LINE
8
BLACK
6
CONTINUOUS
10
86.5143
20
-67.4068
11
86.3048
21
-67.32
0
LINE
8
BLACK
6
CONTINUOUS
10
86.3048
20
-67.32
11
86.1163
21
-67.194
0
LINE
8
BLACK
6
CONTINUOUS
10
86.1163
20
-67.194
11
85.956
21
-67.0337
0
LINE
8
BLACK
6
CONTINUOUS
10
85.956
20
-67.0337
11
85.83
21
-66.8452
0
LINE
8
BLACK
6
CONTINUOUS
10
85.83
20
-66.8452
11
85.7432
21
-66.6357
0
LINE
8
BLACK
6
CONTINUOUS
10
85.7432
20
-66.6357
11
85.699
21
-66.4134
0
LINE
8
BLACK
6
CONTINUOUS
10
85.699
20
-66.4134
11
85.699
21
-66.1866
0
LINE
8
BLACK
6
CONTINUOUS
10
85.699
20
-66.1866
11
85.7432
21
-65.9643
0
LINE
8
BLACK
6
CONTINUOUS
10
85.7432
20
-65.9643
11
85.83
21
-65.7548
0
LINE
8
BLACK
6
CONTINUOUS
10
85.83
20
-65.7548
11
85.956
21
-65.5663
0
LINE
8
BLACK
6
CONTINUOUS
10
85.956
20
-65.5663
11
86.1163
21
-65.406
0
LINE
8
BLACK
6
CONTINUOUS
10
86.1163
20
-65.406
11
86.3048
21
-65.28
0
LINE
8
BLACK
6
CONTINUOUS
10
86.3048
20
-65.28
11
86.5143
21
-65.1932
0
LINE
8
BLACK
6
CONTINUOUS
10
86.5143
20
-65.1932
11
86.6255
21
-65.1711
0
LINE
8
BLACK
6
CONTINUOUS
10
86.6255
20
-65.1711
11
86.7366
21
-65.149
0
LINE
8
BLACK
6
CONTINUOUS
10
86.7366
20
-65.149
11
86.9634
21
-65.149
0
LINE
8
BLACK
6
CONTINUOUS
10
86.9634
20
-65.149
11
87.0745
21
-65.1711
0
LINE
8
BLACK
6
CONTINUOUS
10
10.8745
20
-65.1711
11
10.9857
21
-65.1932
0
LINE
8
BLACK
6
CONTINUOUS
10
10.9857
20
-65.1932
11
11.1952
21
-65.28
0
LINE
8
BLACK
6
CONTINUOUS
10
11.1952
20
-65.28
11
11.3837
21
-65.406
0
LINE
8
BLACK
6
CONTINUOUS
10
11.3837
20
-65.406
11
11.544
21
-65.5663
0
LINE
8
BLACK
6
CONTINUOUS
10
11.544
20
-65.5663
11
11.67
21
-65.7548
0
LINE
8
BLACK
6
CONTINUOUS
10
11.67
20
-65.7548
11
11.7568
21
-65.9643
0
LINE
8
BLACK
6
CONTINUOUS
10
11.7568
20
-65.9643
11
11.801
21
-66.1866
0
LINE
8
BLACK
6
CONTINUOUS
10
11.801
20
-66.1866
11
11.801
21
-66.4134
0
LINE
8
BLACK
6
CONTINUOUS
10
11.801
20
-66.4134
11
11.7568
21
-66.6357
0
LINE
8
BLACK
6
CONTINUOUS
10
11.7568
20
-66.6357
11
11.67
21
-66.8452
0
LINE
8
BLACK
6
CONTINUOUS
10
11.67
20
-66.8452
11
11.544
21
-67.0337
0
LINE
8
BLACK
6
CONTINUOUS
10
11.544
20
-67.0337
11
11.3837
21
-67.194
0
LINE
8
BLACK
6
CONTINUOUS
10
11.3837
20
-67.194
11
11.1952
21
-67.32
0
LINE
8
BLACK
6
CONTINUOUS
10
11.1952
20
-67.32
11
10.9857
21
-67.4068
0
LINE
8
BLACK
6
CONTINUOUS
10
10.9857
20
-67.4068
11
10.8745
21
-67.4289
0
LINE
8
BLACK
6
CONTINUOUS
10
10.8745
20
-67.4289
11
10.7634
21
-67.451
0
LINE
8
BLACK
6
CONTINUOUS
10
10.7634
20
-67.451
11
10.5366
21
-67.451
0
LINE
8
BLACK
6
CONTINUOUS
10
10.5366
20
-67.451
11
10.4255
21
-67.4289
0
LINE
8
BLACK
6
CONTINUOUS
10
10.4255
20
-67.4289
11
10.3143
21
-67.4068
0
LINE
8
BLACK
6
CONTINUOUS
10
10.3143
20
-67.4068
11
10.1048
21
-67.32
0
LINE
8
BLACK
6
CONTINUOUS
10
10.1048
20
-67.32
11
9.91628
21
-67.194
0
LINE
8
BLACK
6
CONTINUOUS
10
9.91628
20
-67.194
11
9.75596
21
-67.0337
0
LINE
8
BLACK
6
CONTINUOUS
10
9.75596
20
-67.0337
11
9.63
21
-66.8452
0
LINE
8
BLACK
6
CONTINUOUS
10
9.63
20
-66.8452
11
9.54323
21
-66.6357
0
LINE
8
BLACK
6
CONTINUOUS
10
9.54323
20
-66.6357
11
9.499
21
-66.4134
0
LINE
8
BLACK
6
CONTINUOUS
10
9.499
20
-66.4134
11
9.499
21
-66.1866
0
LINE
8
BLACK
6
CONTINUOUS
10
9.499
20
-66.1866
11
9.54323
21
-65.9643
0
LINE
8
BLACK
6
CONTINUOUS
10
9.54323
20
-65.9643
11
9.63
21
-65.7548
0
LINE
8
BLACK
6
CONTINUOUS
10
9.63
20
-65.7548
11
9.75596
21
-65.5663
0
LINE
8
BLACK
6
CONTINUOUS
10
9.75596
20
-65.5663
11
9.91628
21
-65.406
0
LINE
8
BLACK
6
CONTINUOUS
10
9.91628
20
-65.406
11
10.1048
21
-65.28
0
LINE
8
BLACK
6
CONTINUOUS
10
10.1048
20
-65.28
11
10.3143
21
-65.1932
0
LINE
8
BLACK
6
CONTINUOUS
10
10.3143
20
-65.1932
11
10.4255
21
-65.1711
0
LINE
8
BLACK
6
CONTINUOUS
10
10.4255
20
-65.1711
11
10.5366
21
-65.149
0
LINE
8
BLACK
6
CONTINUOUS
10
10.5366
20
-65.149
11
10.7634
21
-65.149
0
LINE
8
BLACK
6
CONTINUOUS
10
10.7634
20
-65.149
11
10.8745
21
-65.1711
0
LINE
8
BLACK
6
CONTINUOUS
10
48.9745
20
-46.1211
11
49.0857
21
-46.1432
0
LINE
8
BLACK
6
CONTINUOUS
10
49.0857
20
-46.1432
11
49.2952
21
-46.23
0
LINE
8
BLACK
6
CONTINUOUS
10
49.2952
20
-46.23
11
49.4837
21
-46.356
0
LINE
8
BLACK
6
CONTINUOUS
10
49.4837
20
-46.356
11
49.644
21
-46.5163
0
LINE
8
BLACK
6
CONTINUOUS
10
49.644
20
-46.5163
11
49.77
21
-46.7048
0
LINE
8
BLACK
6
CONTINUOUS
10
49.77
20
-46.7048
11
49.8568
21
-46.9143
0
LINE
8
BLACK
6
CONTINUOUS
10
49.8568
20
-46.9143
11
49.901
21
-47.1366
0
LINE
8
BLACK
6
CONTINUOUS
10
49.901
20
-47.1366
11
49.901
21
-47.3634
0
LINE
8
BLACK
6
CONTINUOUS
10
49.901
20
-47.3634
11
49.8568
21
-47.5857
0
LINE
8
BLACK
6
CONTINUOUS
10
49.8568
20
-47.5857
11
49.77
21
-47.7952
0
LINE
8
BLACK
6
CONTINUOUS
10
49.77
20
-47.7952
11
49.644
21
-47.9837
0
LINE
8
BLACK
6
CONTINUOUS
10
49.644
20
-47.9837
11
49.4837
21
-48.144
0
LINE
8
BLACK
6
CONTINUOUS
10
49.4837
20
-48.144
11
49.2952
21
-48.27
0
LINE
8
BLACK
6
CONTINUOUS
10
49.2952
20
-48.27
11
49.0857
21
-48.3568
0
LINE
8
BLACK
6
CONTINUOUS
10
49.0857
20
-48.3568
11
48.9745
21
-48.3789
0
LINE
8
BLACK
6
CONTINUOUS
10
48.9745
20
-48.3789
11
48.8634
21
-48.401
0
LINE
8
BLACK
6
CONTINUOUS
10
48.8634
20
-48.401
11
48.6366
21
-48.401
0
LINE
8
BLACK
6
CONTINUOUS
10
48.6366
20
-48.401
11
48.5255
21
-48.3789
0
LINE
8
BLACK
6
CONTINUOUS
10
48.5255
20
-48.3789
11
48.4143
21
-48.3568
0
LINE
8
BLACK
6
CONTINUOUS
10
48.4143
20
-48.3568
11
48.2048
21
-48.27
0
LINE
8
BLACK
6
CONTINUOUS
10
48.2048
20
-48.27
11
48.0163
21
-48.144
0
LINE
8
BLACK
6
CONTINUOUS
10
48.0163
20
-48.144
11
47.856
21
-47.9837
0
LINE
8
BLACK
6
CONTINUOUS
10
47.856
20
-47.9837
11
47.73
21
-47.7952
0
LINE
8
BLACK
6
CONTINUOUS
10
47.73
20
-47.7952
11
47.6432
21
-47.5857
0
LINE
8
BLACK
6
CONTINUOUS
10
47.6432
20
-47.5857
11
47.599
21
-47.3634
0
LINE
8
BLACK
6
CONTINUOUS
10
47.599
20
-47.3634
11
47.599
21
-47.1366
0
LINE
8
BLACK
6
CONTINUOUS
10
47.599
20
-47.1366
11
47.6432
21
-46.9143
0
LINE
8
BLACK
6
CONTINUOUS
10
47.6432
20
-46.9143
11
47.73
21
-46.7048
0
LINE
8
BLACK
6
CONTINUOUS
10
47.73
20
-46.7048
11
47.856
21
-46.5163
0
LINE
8
BLACK
6
CONTINUOUS
10
47.856
20
-46.5163
11
48.0163
21
-46.356
0
LINE
8
BLACK
6
CONTINUOUS
10
48.0163
20
-46.356
11
48.2048
21
-46.23
0
LINE
8
BLACK
6
CONTINUOUS
10
48.2048
20
-46.23
11
48.4143
21
-46.1432
0
LINE
8
BLACK
6
CONTINUOUS
10
48.4143
20
-46.1432
11
48.5255
21
-46.1211
0
LINE
8
BLACK
6
CONTINUOUS
10
48.5255
20
-46.1211
11
48.6366
21
-46.099
0
LINE
8
BLACK
6
CONTINUOUS
10
48.6366
20
-46.099
11
48.8634
21
-46.099
0
LINE
8
BLACK
6
CONTINUOUS
10
48.8634
20
-46.099
11
48.9745
21
-46.1211
0
LINE
8
BLACK
6
CONTINUOUS
10
87.0745
20
-27.4711
11
87.1857
21
-27.4932
0
LINE
8
BLACK
6
CONTINUOUS
10
87.1857
20
-27.4932
11
87.3952
21
-27.58
0
LINE
8
BLACK
6
CONTINUOUS
10
87.3952
20
-27.58
11
87.5837
21
-27.706
0
LINE
8
BLACK
6
CONTINUOUS
10
87.5837
20
-27.706
11
87.744
21
-27.8663
0
LINE
8
BLACK
6
CONTINUOUS
10
87.744
20
-27.8663
11
87.87
21
-28.0548
0
LINE
8
BLACK
6
CONTINUOUS
10
87.87
20
-28.0548
11
87.9568
21
-28.2643
0
LINE
8
BLACK
6
CONTINUOUS
10
87.9568
20
-28.2643
11
88.001
21
-28.4866
0
LINE
8
BLACK
6
CONTINUOUS
10
88.001
20
-28.4866
11
88.001
21
-28.7134
0
LINE
8
BLACK
6
CONTINUOUS
10
88.001
20
-28.7134
11
87.9568
21
-28.9357
0
LINE
8
BLACK
6
CONTINUOUS
10
87.9568
20
-28.9357
11
87.87
21
-29.1452
0
LINE
8
BLACK
6
CONTINUOUS
10
87.87
20
-29.1452
11
87.744
21
-29.3337
0
LINE
8
BLACK
6
CONTINUOUS
10
87.744
20
-29.3337
11
87.5837
21
-29.494
0
LINE
8
BLACK
6
CONTINUOUS
10
87.5837
20
-29.494
11
87.3952
21
-29.62
0
LINE
8
BLACK
6
CONTINUOUS
10
87.3952
20
-29.62
11
87.1857
21
-29.7068
0
LINE
8
BLACK
6
CONTINUOUS
10
87.1857
20
-29.7068
11
87.0745
21
-29.7289
0
LINE
8
BLACK
6
CONTINUOUS
10
87.0745
20
-29.7289
11
86.9634
21
-29.751
0
LINE
8
BLACK
6
CONTINUOUS
10
86.9634
20
-29.751
11
86.7366
21
-29.751
0
LINE
8
BLACK
6
CONTINUOUS
10
86.7366
20
-29.751
11
86.6255
21
-29.7289
0
LINE
8
BLACK
6
CONTINUOUS
10
86.6255
20
-29.7289
11
86.5143
21
-29.7068
0
LINE
8
BLACK
6
CONTINUOUS
10
86.5143
20
-29.7068
11
86.3048
21
-29.62
0
LINE
8
BLACK
6
CONTINUOUS
10
86.3048
20
-29.62
11
86.1163
21
-29.494
0
LINE
8
BLACK
6
CONTINUOUS
10
86.1163
20
-29.494
11
85.956
21
-29.3337
0
LINE
8
BLACK
6
CONTINUOUS
10
85.956
20
-29.3337
11
85.83
21
-29.1452
0
LINE
8
BLACK
6
CONTINUOUS
10
85.83
20
-29.1452
11
85.7432
21
-28.9357
0
LINE
8
BLACK
6
CONTINUOUS
10
85.7432
20
-28.9357
11
85.699
21
-28.7134
0
LINE
8
BLACK
6
CONTINUOUS
10
85.699
20
-28.7134
11
85.699
21
-28.4866
0
LINE
8
BLACK
6
CONTINUOUS
10
85.699
20
-28.4866
11
85.7432
21
-28.2643
0
LINE
8
BLACK
6
CONTINUOUS
10
85.7432
20
-28.2643
11
85.83
21
-28.0548
0
LINE
8
BLACK
6
CONTINUOUS
10
85.83
20
-28.0548
11
85.956
21
-27.8663
0
LINE
8
BLACK
6
CONTINUOUS
10
85.956
20
-27.8663
11
86.1163
21
-27.706
0
LINE
8
BLACK
6
CONTINUOUS
10
86.1163
20
-27.706
11
86.3048
21
-27.58
0
LINE
8
BLACK
6
CONTINUOUS
10
86.3048
20
-27.58
11
86.5143
21
-27.4932
0
LINE
8
BLACK
6
CONTINUOUS
10
86.5143
20
-27.4932
11
86.6255
21
-27.4711
0
LINE
8
BLACK
6
CONTINUOUS
10
86.6255
20
-27.4711
11
86.7366
21
-27.449
0
LINE
8
BLACK
6
CONTINUOUS
10
86.7366
20
-27.449
11
86.9634
21
-27.449
0
LINE
8
BLACK
6
CONTINUOUS
10
86.9634
20
-27.449
11
87.0745
21
-27.4711
0
LINE
8
BLACK
6
CONTINUOUS
10
10.8745
20
-27.4711
11
10.9857
21
-27.4932
0
LINE
8
BLACK
6
CONTINUOUS
10
10.9857
20
-27.4932
11
11.1952
21
-27.58
0
LINE
8
BLACK
6
CONTINUOUS
10
11.1952
20
-27.58
11
11.3837
21
-27.706
0
LINE
8
BLACK
6
CONTINUOUS
10
11.3837
20
-27.706
11
11.544
21
-27.8663
0
LINE
8
BLACK
6
CONTINUOUS
10
11.544
20
-27.8663
11
11.67
21
-28.0548
0
LINE
8
BLACK
6
CONTINUOUS
10
11.67
20
-28.0548
11
11.7568
21
-28.2643
0
LINE
8
BLACK
6
CONTINUOUS
10
11.7568
20
-28.2643
11
11.801
21
-28.4866
0
LINE
8
BLACK
6
CONTINUOUS
10
11.801
20
-28.4866
11
11.801
21
-28.7134
0
LINE
8
BLACK
6
CONTINUOUS
10
11.801
20
-28.7134
11
11.7568
21
-28.9357
0
LINE
8
BLACK
6
CONTINUOUS
10
11.7568
20
-28.9357
11
11.67
21
-29.1452
0
LINE
8
BLACK
6
CONTINUOUS
10
11.67
20
-29.1452
11
11.544
21
-29.3337
0
LINE
8
BLACK
6
CONTINUOUS
10
11.544
20
-29.3337
11
11.3837
21
-29.494
0
LINE
8
BLACK
6
CONTINUOUS
10
11.3837
20
-29.494
11
11.1952
21
-29.62
0
LINE
8
BLACK
6
CONTINUOUS
10
11.1952
20
-29.62
11
10.9857
21
-29.7068
0
LINE
8
BLACK
6
CONTINUOUS
10
10.9857
20
-29.7068
11
10.8745
21
-29.7289
0
LINE
8
BLACK
6
CONTINUOUS
10
10.8745
20
-29.7289
11
10.7634
21
-29.751
0
LINE
8
BLACK
6
CONTINUOUS
10
10.7634
20
-29.751
11
10.5366
21
-29.751
0
LINE
8
BLACK
6
CONTINUOUS
10
10.5366
20
-29.751
11
10.4255
21
-29.7289
0
LINE
8
BLACK
6
CONTINUOUS
10
10.4255
20
-29.7289
11
10.3143
21
-29.7068
0
LINE
8
BLACK
6
CONTINUOUS
10
10.3143
20
-29.7068
11
10.1048
21
-29.62
0
LINE
8
BLACK
6
CONTINUOUS
10
10.1048
20
-29.62
11
9.91628
21
-29.494
0
LINE
8
BLACK
6
CONTINUOUS
10
9.91628
20
-29.494
11
9.75596
21
-29.3337
0
LINE
8
BLACK
6
CONTINUOUS
10
9.75596
20
-29.3337
11
9.63
21
-29.1452
0
LINE
8
BLACK
6
CONTINUOUS
10
9.63
20
-29.1452
11
9.54323
21
-28.9357
0
LINE
8
BLACK
6
CONTINUOUS
10
9.54323
20
-28.9357
11
9.499
21
-28.7134
0
LINE
8
BLACK
6
CONTINUOUS
10
9.499
20
-28.7134
11
9.499
21
-28.4866
0
LINE
8
BLACK
6
CONTINUOUS
10
9.499
20
-28.4866
11
9.54323
21
-28.2643
0
LINE
8
BLACK
6
CONTINUOUS
10
9.54323
20
-28.2643
11
9.63
21
-28.0548
0
LINE
8
BLACK
6
CONTINUOUS
10
9.63
20
-28.0548
11
9.75596
21
-27.8663
0
LINE
8
BLACK
6
CONTINUOUS
10
9.75596
20
-27.8663
11
9.91628
21
-27.706
0
LINE
8
BLACK
6
CONTINUOUS
10
9.91628
20
-27.706
11
10.1048
21
-27.58
0
LINE
8
BLACK
6
CONTINUOUS
10
10.1048
20
-27.58
11
10.3143
21
-27.4932
0
LINE
8
BLACK
6
CONTINUOUS
10
10.3143
20
-27.4932
11
10.4255
21
-27.4711
0
LINE
8
BLACK
6
CONTINUOUS
10
10.4255
20
-27.4711
11
10.5366
21
-27.449
0
LINE
8
BLACK
6
CONTINUOUS
10
10.5366
20
-27.449
11
10.7634
21
-27.449
0
LINE
8
BLACK
6
CONTINUOUS
10
10.7634
20
-27.449
11
10.8745
21
-27.4711
  0
ENDSEC
  0
EOF
