  0
SECTION
  2
HEADER
  9
$ANGBASE
  50
0.0
  9
$ANGDIR
  70
1
  9
$MEASUREMENT
  70
1
  0
ENDSEC
  0
SECTION
  2
TABLES
  0
TABLE
  2
LTYPE
  70
4
  0
LTYPE
  5
40F
  2
CONTINUOUS
  70
0
  3
Solid line
  72
65
  73
0
  40
0.0
  0
LTYPE
  5
410
  2
DASHDOT
 70
0
  3
Dash Dot ____ _ ____ _
 72
65
 73
4
 40
2.0
 49
1.25
 49
-0.25
 49
0.25
 49
-0.25
  0
LTYPE
  5
411
  2
DASHED
 70
0
  3
Dashed __ __ __ __ __
 72
65
 73
2
 40
0.75
 49
0.5
 49
-0.25
  0
LTYPE
  5
43B
  2
DOTTED
 70
0
  3
Dotted .  .  .  .
 72
65
 73
2
 40
0.2
 49
0.0
 49
-0.2
  0
ENDTAB
  0
TABLE
  2
STYLE
  70
4
  0
STYLE
  2
KICAD
  70
0
  40
0
  41
1
  42
1
  50
0
  71
0
  3
isocp.shx
  0
STYLE
  2
KICADB
  70
0
  40
0
  41
1
  42
1
  50
0
  71
0
  3
isocp.shx
  0
STYLE
  2
KICADI
  70
0
  40
0
  41
1
  42
1
  50
15
  71
0
  3
isocp.shx
  0
STYLE
  2
KICADBI
  70
0
  40
0
  41
1
  42
1
  50
15
  71
0
  3
isocp.shx
  0
ENDTAB
  0
TABLE
  2
LAYER
  70
1
  0
LAYER
  2
BLACK
  70
0
  62
7
  6
CONTINUOUS
  0
ENDTAB
  0
ENDSEC
  0
SECTION
  2
ENTITIES
0
LINE
8
BLACK
6
CONTINUOUS
10
13.2176
20
-150.701
11
13.2176
21
-150.13
0
LINE
8
BLACK
6
CONTINUOUS
10
13.2176
20
-150.415
11
14.2176
21
-150.415
0
LINE
8
BLACK
6
CONTINUOUS
10
14.2176
20
-150.415
11
14.0748
21
-150.32
0
LINE
8
BLACK
6
CONTINUOUS
10
14.0748
20
-150.32
11
13.9795
21
-150.225
0
LINE
8
BLACK
6
CONTINUOUS
10
13.9795
20
-150.225
11
13.9319
21
-150.13
0
LINE
8
BLACK
6
CONTINUOUS
10
14.2176
20
-151.034
11
14.2176
21
-151.701
0
LINE
8
BLACK
6
CONTINUOUS
10
14.2176
20
-151.701
11
13.2176
21
-151.272
0
LINE
8
BLACK
6
CONTINUOUS
10
13.3129
20
-152.082
11
13.2652
21
-152.13
0
LINE
8
BLACK
6
CONTINUOUS
10
13.2652
20
-152.13
11
13.2176
21
-152.082
0
LINE
8
BLACK
6
CONTINUOUS
10
13.2176
20
-152.082
11
13.2652
21
-152.034
0
LINE
8
BLACK
6
CONTINUOUS
10
13.2652
20
-152.034
11
13.3129
21
-152.082
0
LINE
8
BLACK
6
CONTINUOUS
10
13.3129
20
-152.082
11
13.2176
21
-152.082
0
LINE
8
BLACK
6
CONTINUOUS
10
14.2176
20
-153.034
11
14.2176
21
-152.558
0
LINE
8
BLACK
6
CONTINUOUS
10
14.2176
20
-152.558
11
13.7414
21
-152.511
0
LINE
8
BLACK
6
CONTINUOUS
10
13.7414
20
-152.511
11
13.789
21
-152.558
0
LINE
8
BLACK
6
CONTINUOUS
10
13.789
20
-152.558
11
13.8367
21
-152.653
0
LINE
8
BLACK
6
CONTINUOUS
10
13.8367
20
-152.653
11
13.8367
21
-152.892
0
LINE
8
BLACK
6
CONTINUOUS
10
13.8367
20
-152.892
11
13.789
21
-152.987
0
LINE
8
BLACK
6
CONTINUOUS
10
13.789
20
-152.987
11
13.7414
21
-153.034
0
LINE
8
BLACK
6
CONTINUOUS
10
13.7414
20
-153.034
11
13.6462
21
-153.082
0
LINE
8
BLACK
6
CONTINUOUS
10
13.6462
20
-153.082
11
13.4081
21
-153.082
0
LINE
8
BLACK
6
CONTINUOUS
10
13.4081
20
-153.082
11
13.3129
21
-153.034
0
LINE
8
BLACK
6
CONTINUOUS
10
13.3129
20
-153.034
11
13.2652
21
-152.987
0
LINE
8
BLACK
6
CONTINUOUS
10
13.2652
20
-152.987
11
13.2176
21
-152.892
0
LINE
8
BLACK
6
CONTINUOUS
10
13.2176
20
-152.892
11
13.2176
21
-152.653
0
LINE
8
BLACK
6
CONTINUOUS
10
13.2176
20
-152.653
11
13.2652
21
-152.558
0
LINE
8
BLACK
6
CONTINUOUS
10
13.2652
20
-152.558
11
13.3129
21
-152.511
0
LINE
8
BLACK
6
CONTINUOUS
10
14.2176
20
-153.987
11
14.2176
21
-153.511
0
LINE
8
BLACK
6
CONTINUOUS
10
14.2176
20
-153.511
11
13.7414
21
-153.463
0
LINE
8
BLACK
6
CONTINUOUS
10
13.7414
20
-153.463
11
13.789
21
-153.511
0
LINE
8
BLACK
6
CONTINUOUS
10
13.789
20
-153.511
11
13.8367
21
-153.606
0
LINE
8
BLACK
6
CONTINUOUS
10
13.8367
20
-153.606
11
13.8367
21
-153.844
0
LINE
8
BLACK
6
CONTINUOUS
10
13.8367
20
-153.844
11
13.789
21
-153.939
0
LINE
8
BLACK
6
CONTINUOUS
10
13.789
20
-153.939
11
13.7414
21
-153.987
0
LINE
8
BLACK
6
CONTINUOUS
10
13.7414
20
-153.987
11
13.6462
21
-154.034
0
LINE
8
BLACK
6
CONTINUOUS
10
13.6462
20
-154.034
11
13.4081
21
-154.034
0
LINE
8
BLACK
6
CONTINUOUS
10
13.4081
20
-154.034
11
13.3129
21
-153.987
0
LINE
8
BLACK
6
CONTINUOUS
10
13.3129
20
-153.987
11
13.2652
21
-153.939
0
LINE
8
BLACK
6
CONTINUOUS
10
13.2652
20
-153.939
11
13.2176
21
-153.844
0
LINE
8
BLACK
6
CONTINUOUS
10
13.2176
20
-153.844
11
13.2176
21
-153.606
0
LINE
8
BLACK
6
CONTINUOUS
10
13.2176
20
-153.606
11
13.2652
21
-153.511
0
LINE
8
BLACK
6
CONTINUOUS
10
13.2652
20
-153.511
11
13.3129
21
-153.463
0
LINE
8
BLACK
6
CONTINUOUS
10
14.2176
20
-154.653
11
14.2176
21
-154.749
0
LINE
8
BLACK
6
CONTINUOUS
10
14.2176
20
-154.749
11
14.17
21
-154.844
0
LINE
8
BLACK
6
CONTINUOUS
10
14.17
20
-154.844
11
14.1224
21
-154.892
0
LINE
8
BLACK
6
CONTINUOUS
10
14.1224
20
-154.892
11
14.0271
21
-154.939
0
LINE
8
BLACK
6
CONTINUOUS
10
14.0271
20
-154.939
11
13.8367
21
-154.987
0
LINE
8
BLACK
6
CONTINUOUS
10
13.8367
20
-154.987
11
13.5986
21
-154.987
0
LINE
8
BLACK
6
CONTINUOUS
10
13.5986
20
-154.987
11
13.4081
21
-154.939
0
LINE
8
BLACK
6
CONTINUOUS
10
13.4081
20
-154.939
11
13.3129
21
-154.892
0
LINE
8
BLACK
6
CONTINUOUS
10
13.3129
20
-154.892
11
13.2652
21
-154.844
0
LINE
8
BLACK
6
CONTINUOUS
10
13.2652
20
-154.844
11
13.2176
21
-154.749
0
LINE
8
BLACK
6
CONTINUOUS
10
13.2176
20
-154.749
11
13.2176
21
-154.653
0
LINE
8
BLACK
6
CONTINUOUS
10
13.2176
20
-154.653
11
13.2652
21
-154.558
0
LINE
8
BLACK
6
CONTINUOUS
10
13.2652
20
-154.558
11
13.3129
21
-154.511
0
LINE
8
BLACK
6
CONTINUOUS
10
13.3129
20
-154.511
11
13.4081
21
-154.463
0
LINE
8
BLACK
6
CONTINUOUS
10
13.4081
20
-154.463
11
13.5986
21
-154.415
0
LINE
8
BLACK
6
CONTINUOUS
10
13.5986
20
-154.415
11
13.8367
21
-154.415
0
LINE
8
BLACK
6
CONTINUOUS
10
13.8367
20
-154.415
11
14.0271
21
-154.463
0
LINE
8
BLACK
6
CONTINUOUS
10
14.0271
20
-154.463
11
14.1224
21
-154.511
0
LINE
8
BLACK
6
CONTINUOUS
10
14.1224
20
-154.511
11
14.17
21
-154.558
0
LINE
8
BLACK
6
CONTINUOUS
10
14.17
20
-154.558
11
14.2176
21
-154.653
0
LINE
8
BLACK
6
CONTINUOUS
10
13.2176
20
-156.177
11
13.8843
21
-156.177
0
LINE
8
BLACK
6
CONTINUOUS
10
13.789
20
-156.177
11
13.8367
21
-156.225
0
LINE
8
BLACK
6
CONTINUOUS
10
13.8367
20
-156.225
11
13.8843
21
-156.32
0
LINE
8
BLACK
6
CONTINUOUS
10
13.8843
20
-156.32
11
13.8843
21
-156.463
0
LINE
8
BLACK
6
CONTINUOUS
10
13.8843
20
-156.463
11
13.8367
21
-156.558
0
LINE
8
BLACK
6
CONTINUOUS
10
13.8367
20
-156.558
11
13.7414
21
-156.606
0
LINE
8
BLACK
6
CONTINUOUS
10
13.7414
20
-156.606
11
13.2176
21
-156.606
0
LINE
8
BLACK
6
CONTINUOUS
10
13.7414
20
-156.606
11
13.8367
21
-156.653
0
LINE
8
BLACK
6
CONTINUOUS
10
13.8367
20
-156.653
11
13.8843
21
-156.749
0
LINE
8
BLACK
6
CONTINUOUS
10
13.8843
20
-156.749
11
13.8843
21
-156.892
0
LINE
8
BLACK
6
CONTINUOUS
10
13.8843
20
-156.892
11
13.8367
21
-156.987
0
LINE
8
BLACK
6
CONTINUOUS
10
13.8367
20
-156.987
11
13.7414
21
-157.034
0
LINE
8
BLACK
6
CONTINUOUS
10
13.7414
20
-157.034
11
13.2176
21
-157.034
0
LINE
8
BLACK
6
CONTINUOUS
10
13.2176
20
-157.511
11
13.8843
21
-157.511
0
LINE
8
BLACK
6
CONTINUOUS
10
13.789
20
-157.511
11
13.8367
21
-157.558
0
LINE
8
BLACK
6
CONTINUOUS
10
13.8367
20
-157.558
11
13.8843
21
-157.653
0
LINE
8
BLACK
6
CONTINUOUS
10
13.8843
20
-157.653
11
13.8843
21
-157.796
0
LINE
8
BLACK
6
CONTINUOUS
10
13.8843
20
-157.796
11
13.8367
21
-157.892
0
LINE
8
BLACK
6
CONTINUOUS
10
13.8367
20
-157.892
11
13.7414
21
-157.939
0
LINE
8
BLACK
6
CONTINUOUS
10
13.7414
20
-157.939
11
13.2176
21
-157.939
0
LINE
8
BLACK
6
CONTINUOUS
10
13.7414
20
-157.939
11
13.8367
21
-157.987
0
LINE
8
BLACK
6
CONTINUOUS
10
13.8367
20
-157.987
11
13.8843
21
-158.082
0
LINE
8
BLACK
6
CONTINUOUS
10
13.8843
20
-158.082
11
13.8843
21
-158.225
0
LINE
8
BLACK
6
CONTINUOUS
10
13.8843
20
-158.225
11
13.8367
21
-158.32
0
LINE
8
BLACK
6
CONTINUOUS
10
13.8367
20
-158.32
11
13.7414
21
-158.368
0
LINE
8
BLACK
6
CONTINUOUS
10
13.7414
20
-158.368
11
13.2176
21
-158.368
0
LINE
8
BLACK
6
CONTINUOUS
10
14.97
20
-145.498
11
14.97
21
-163.047
0
LINE
8
BLACK
6
CONTINUOUS
10
14.97
20
-145.498
11
14.3836
21
-145.498
0
LINE
8
BLACK
6
CONTINUOUS
10
14.97
20
-163.047
11
14.3836
21
-163.047
0
LINE
8
BLACK
6
CONTINUOUS
10
14.97
20
-163.047
11
14.3836
21
-161.921
0
LINE
8
BLACK
6
CONTINUOUS
10
14.97
20
-163.047
11
15.5564
21
-161.921
0
LINE
8
BLACK
6
CONTINUOUS
10
14.97
20
-145.498
11
14.3836
21
-146.624
0
LINE
8
BLACK
6
CONTINUOUS
10
14.97
20
-145.498
11
15.5564
21
-146.624
0
LINE
8
BLACK
6
CONTINUOUS
10
25.8021
20
-165.895
11
25.8498
21
-165.847
0
LINE
8
BLACK
6
CONTINUOUS
10
25.8498
20
-165.847
11
25.945
21
-165.8
0
LINE
8
BLACK
6
CONTINUOUS
10
25.945
20
-165.8
11
26.1831
21
-165.8
0
LINE
8
BLACK
6
CONTINUOUS
10
26.1831
20
-165.8
11
26.2783
21
-165.847
0
LINE
8
BLACK
6
CONTINUOUS
10
26.2783
20
-165.847
11
26.326
21
-165.895
0
LINE
8
BLACK
6
CONTINUOUS
10
26.326
20
-165.895
11
26.3736
21
-165.99
0
LINE
8
BLACK
6
CONTINUOUS
10
26.3736
20
-165.99
11
26.3736
21
-166.086
0
LINE
8
BLACK
6
CONTINUOUS
10
26.3736
20
-166.086
11
26.326
21
-166.228
0
LINE
8
BLACK
6
CONTINUOUS
10
26.326
20
-166.228
11
25.7545
21
-166.8
0
LINE
8
BLACK
6
CONTINUOUS
10
25.7545
20
-166.8
11
26.3736
21
-166.8
0
LINE
8
BLACK
6
CONTINUOUS
10
27.2783
20
-165.8
11
26.8021
21
-165.8
0
LINE
8
BLACK
6
CONTINUOUS
10
26.8021
20
-165.8
11
26.7545
21
-166.276
0
LINE
8
BLACK
6
CONTINUOUS
10
26.7545
20
-166.276
11
26.8021
21
-166.228
0
LINE
8
BLACK
6
CONTINUOUS
10
26.8021
20
-166.228
11
26.8974
21
-166.181
0
LINE
8
BLACK
6
CONTINUOUS
10
26.8974
20
-166.181
11
27.1355
21
-166.181
0
LINE
8
BLACK
6
CONTINUOUS
10
27.1355
20
-166.181
11
27.2307
21
-166.228
0
LINE
8
BLACK
6
CONTINUOUS
10
27.2307
20
-166.228
11
27.2783
21
-166.276
0
LINE
8
BLACK
6
CONTINUOUS
10
27.2783
20
-166.276
11
27.326
21
-166.371
0
LINE
8
BLACK
6
CONTINUOUS
10
27.326
20
-166.371
11
27.326
21
-166.609
0
LINE
8
BLACK
6
CONTINUOUS
10
27.326
20
-166.609
11
27.2783
21
-166.705
0
LINE
8
BLACK
6
CONTINUOUS
10
27.2783
20
-166.705
11
27.2307
21
-166.752
0
LINE
8
BLACK
6
CONTINUOUS
10
27.2307
20
-166.752
11
27.1355
21
-166.8
0
LINE
8
BLACK
6
CONTINUOUS
10
27.1355
20
-166.8
11
26.8974
21
-166.8
0
LINE
8
BLACK
6
CONTINUOUS
10
26.8974
20
-166.8
11
26.8021
21
-166.752
0
LINE
8
BLACK
6
CONTINUOUS
10
26.8021
20
-166.752
11
26.7545
21
-166.705
0
LINE
8
BLACK
6
CONTINUOUS
10
27.7545
20
-166.705
11
27.8021
21
-166.752
0
LINE
8
BLACK
6
CONTINUOUS
10
27.8021
20
-166.752
11
27.7545
21
-166.8
0
LINE
8
BLACK
6
CONTINUOUS
10
27.7545
20
-166.8
11
27.7069
21
-166.752
0
LINE
8
BLACK
6
CONTINUOUS
10
27.7069
20
-166.752
11
27.7545
21
-166.705
0
LINE
8
BLACK
6
CONTINUOUS
10
27.7545
20
-166.705
11
27.7545
21
-166.8
0
LINE
8
BLACK
6
CONTINUOUS
10
28.2783
20
-166.8
11
28.4688
21
-166.8
0
LINE
8
BLACK
6
CONTINUOUS
10
28.4688
20
-166.8
11
28.564
21
-166.752
0
LINE
8
BLACK
6
CONTINUOUS
10
28.564
20
-166.752
11
28.6117
21
-166.705
0
LINE
8
BLACK
6
CONTINUOUS
10
28.6117
20
-166.705
11
28.7069
21
-166.562
0
LINE
8
BLACK
6
CONTINUOUS
10
28.7069
20
-166.562
11
28.7545
21
-166.371
0
LINE
8
BLACK
6
CONTINUOUS
10
28.7545
20
-166.371
11
28.7545
21
-165.99
0
LINE
8
BLACK
6
CONTINUOUS
10
28.7545
20
-165.99
11
28.7069
21
-165.895
0
LINE
8
BLACK
6
CONTINUOUS
10
28.7069
20
-165.895
11
28.6593
21
-165.847
0
LINE
8
BLACK
6
CONTINUOUS
10
28.6593
20
-165.847
11
28.564
21
-165.8
0
LINE
8
BLACK
6
CONTINUOUS
10
28.564
20
-165.8
11
28.3736
21
-165.8
0
LINE
8
BLACK
6
CONTINUOUS
10
28.3736
20
-165.8
11
28.2783
21
-165.847
0
LINE
8
BLACK
6
CONTINUOUS
10
28.2783
20
-165.847
11
28.2307
21
-165.895
0
LINE
8
BLACK
6
CONTINUOUS
10
28.2307
20
-165.895
11
28.1831
21
-165.99
0
LINE
8
BLACK
6
CONTINUOUS
10
28.1831
20
-165.99
11
28.1831
21
-166.228
0
LINE
8
BLACK
6
CONTINUOUS
10
28.1831
20
-166.228
11
28.2307
21
-166.324
0
LINE
8
BLACK
6
CONTINUOUS
10
28.2307
20
-166.324
11
28.2783
21
-166.371
0
LINE
8
BLACK
6
CONTINUOUS
10
28.2783
20
-166.371
11
28.3736
21
-166.419
0
LINE
8
BLACK
6
CONTINUOUS
10
28.3736
20
-166.419
11
28.564
21
-166.419
0
LINE
8
BLACK
6
CONTINUOUS
10
28.564
20
-166.419
11
28.6593
21
-166.371
0
LINE
8
BLACK
6
CONTINUOUS
10
28.6593
20
-166.371
11
28.7069
21
-166.324
0
LINE
8
BLACK
6
CONTINUOUS
10
28.7069
20
-166.324
11
28.7545
21
-166.228
0
LINE
8
BLACK
6
CONTINUOUS
10
29.6593
20
-165.8
11
29.1831
21
-165.8
0
LINE
8
BLACK
6
CONTINUOUS
10
29.1831
20
-165.8
11
29.1355
21
-166.276
0
LINE
8
BLACK
6
CONTINUOUS
10
29.1355
20
-166.276
11
29.1831
21
-166.228
0
LINE
8
BLACK
6
CONTINUOUS
10
29.1831
20
-166.228
11
29.2783
21
-166.181
0
LINE
8
BLACK
6
CONTINUOUS
10
29.2783
20
-166.181
11
29.5164
21
-166.181
0
LINE
8
BLACK
6
CONTINUOUS
10
29.5164
20
-166.181
11
29.6117
21
-166.228
0
LINE
8
BLACK
6
CONTINUOUS
10
29.6117
20
-166.228
11
29.6593
21
-166.276
0
LINE
8
BLACK
6
CONTINUOUS
10
29.6593
20
-166.276
11
29.7069
21
-166.371
0
LINE
8
BLACK
6
CONTINUOUS
10
29.7069
20
-166.371
11
29.7069
21
-166.609
0
LINE
8
BLACK
6
CONTINUOUS
10
29.7069
20
-166.609
11
29.6593
21
-166.705
0
LINE
8
BLACK
6
CONTINUOUS
10
29.6593
20
-166.705
11
29.6117
21
-166.752
0
LINE
8
BLACK
6
CONTINUOUS
10
29.6117
20
-166.752
11
29.5164
21
-166.8
0
LINE
8
BLACK
6
CONTINUOUS
10
29.5164
20
-166.8
11
29.2783
21
-166.8
0
LINE
8
BLACK
6
CONTINUOUS
10
29.2783
20
-166.8
11
29.1831
21
-166.752
0
LINE
8
BLACK
6
CONTINUOUS
10
29.1831
20
-166.752
11
29.1355
21
-166.705
0
LINE
8
BLACK
6
CONTINUOUS
10
30.326
20
-165.8
11
30.4212
21
-165.8
0
LINE
8
BLACK
6
CONTINUOUS
10
30.4212
20
-165.8
11
30.5164
21
-165.847
0
LINE
8
BLACK
6
CONTINUOUS
10
30.5164
20
-165.847
11
30.564
21
-165.895
0
LINE
8
BLACK
6
CONTINUOUS
10
30.564
20
-165.895
11
30.6117
21
-165.99
0
LINE
8
BLACK
6
CONTINUOUS
10
30.6117
20
-165.99
11
30.6593
21
-166.181
0
LINE
8
BLACK
6
CONTINUOUS
10
30.6593
20
-166.181
11
30.6593
21
-166.419
0
LINE
8
BLACK
6
CONTINUOUS
10
30.6593
20
-166.419
11
30.6117
21
-166.609
0
LINE
8
BLACK
6
CONTINUOUS
10
30.6117
20
-166.609
11
30.564
21
-166.705
0
LINE
8
BLACK
6
CONTINUOUS
10
30.564
20
-166.705
11
30.5164
21
-166.752
0
LINE
8
BLACK
6
CONTINUOUS
10
30.5164
20
-166.752
11
30.4212
21
-166.8
0
LINE
8
BLACK
6
CONTINUOUS
10
30.4212
20
-166.8
11
30.326
21
-166.8
0
LINE
8
BLACK
6
CONTINUOUS
10
30.326
20
-166.8
11
30.2307
21
-166.752
0
LINE
8
BLACK
6
CONTINUOUS
10
30.2307
20
-166.752
11
30.1831
21
-166.705
0
LINE
8
BLACK
6
CONTINUOUS
10
30.1831
20
-166.705
11
30.1355
21
-166.609
0
LINE
8
BLACK
6
CONTINUOUS
10
30.1355
20
-166.609
11
30.0879
21
-166.419
0
LINE
8
BLACK
6
CONTINUOUS
10
30.0879
20
-166.419
11
30.0879
21
-166.181
0
LINE
8
BLACK
6
CONTINUOUS
10
30.0879
20
-166.181
11
30.1355
21
-165.99
0
LINE
8
BLACK
6
CONTINUOUS
10
30.1355
20
-165.99
11
30.1831
21
-165.895
0
LINE
8
BLACK
6
CONTINUOUS
10
30.1831
20
-165.895
11
30.2307
21
-165.847
0
LINE
8
BLACK
6
CONTINUOUS
10
30.2307
20
-165.847
11
30.326
21
-165.8
0
LINE
8
BLACK
6
CONTINUOUS
10
31.8498
20
-166.8
11
31.8498
21
-166.133
0
LINE
8
BLACK
6
CONTINUOUS
10
31.8498
20
-166.228
11
31.8974
21
-166.181
0
LINE
8
BLACK
6
CONTINUOUS
10
31.8974
20
-166.181
11
31.9926
21
-166.133
0
LINE
8
BLACK
6
CONTINUOUS
10
31.9926
20
-166.133
11
32.1355
21
-166.133
0
LINE
8
BLACK
6
CONTINUOUS
10
32.1355
20
-166.133
11
32.2307
21
-166.181
0
LINE
8
BLACK
6
CONTINUOUS
10
32.2307
20
-166.181
11
32.2783
21
-166.276
0
LINE
8
BLACK
6
CONTINUOUS
10
32.2783
20
-166.276
11
32.2783
21
-166.8
0
LINE
8
BLACK
6
CONTINUOUS
10
32.2783
20
-166.276
11
32.326
21
-166.181
0
LINE
8
BLACK
6
CONTINUOUS
10
32.326
20
-166.181
11
32.4212
21
-166.133
0
LINE
8
BLACK
6
CONTINUOUS
10
32.4212
20
-166.133
11
32.564
21
-166.133
0
LINE
8
BLACK
6
CONTINUOUS
10
32.564
20
-166.133
11
32.6593
21
-166.181
0
LINE
8
BLACK
6
CONTINUOUS
10
32.6593
20
-166.181
11
32.7069
21
-166.276
0
LINE
8
BLACK
6
CONTINUOUS
10
32.7069
20
-166.276
11
32.7069
21
-166.8
0
LINE
8
BLACK
6
CONTINUOUS
10
33.1831
20
-166.8
11
33.1831
21
-166.133
0
LINE
8
BLACK
6
CONTINUOUS
10
33.1831
20
-166.228
11
33.2307
21
-166.181
0
LINE
8
BLACK
6
CONTINUOUS
10
33.2307
20
-166.181
11
33.326
21
-166.133
0
LINE
8
BLACK
6
CONTINUOUS
10
33.326
20
-166.133
11
33.4688
21
-166.133
0
LINE
8
BLACK
6
CONTINUOUS
10
33.4688
20
-166.133
11
33.564
21
-166.181
0
LINE
8
BLACK
6
CONTINUOUS
10
33.564
20
-166.181
11
33.6117
21
-166.276
0
LINE
8
BLACK
6
CONTINUOUS
10
33.6117
20
-166.276
11
33.6117
21
-166.8
0
LINE
8
BLACK
6
CONTINUOUS
10
33.6117
20
-166.276
11
33.6593
21
-166.181
0
LINE
8
BLACK
6
CONTINUOUS
10
33.6593
20
-166.181
11
33.7545
21
-166.133
0
LINE
8
BLACK
6
CONTINUOUS
10
33.7545
20
-166.133
11
33.8974
21
-166.133
0
LINE
8
BLACK
6
CONTINUOUS
10
33.8974
20
-166.133
11
33.9926
21
-166.181
0
LINE
8
BLACK
6
CONTINUOUS
10
33.9926
20
-166.181
11
34.0402
21
-166.276
0
LINE
8
BLACK
6
CONTINUOUS
10
34.0402
20
-166.276
11
34.0402
21
-166.8
0
LINE
8
BLACK
6
CONTINUOUS
10
42.92
20
-165.047
11
16.97
21
-165.047
0
LINE
8
BLACK
6
CONTINUOUS
10
42.92
20
-164.492
11
42.92
21
-165.634
0
LINE
8
BLACK
6
CONTINUOUS
10
16.97
20
-164.492
11
16.97
21
-165.634
0
LINE
8
BLACK
6
CONTINUOUS
10
16.97
20
-165.047
11
18.0965
21
-164.461
0
LINE
8
BLACK
6
CONTINUOUS
10
16.97
20
-165.047
11
18.0965
21
-165.634
0
LINE
8
BLACK
6
CONTINUOUS
10
42.92
20
-165.047
11
41.7935
21
-164.461
0
LINE
8
BLACK
6
CONTINUOUS
10
42.92
20
-165.047
11
41.7935
21
-165.634
0
LINE
8
BLACK
6
CONTINUOUS
10
234.752
20
-105.668
11
234.752
21
-106.239
0
LINE
8
BLACK
6
CONTINUOUS
10
234.752
20
-105.953
11
233.752
21
-105.953
0
LINE
8
BLACK
6
CONTINUOUS
10
233.752
20
-105.953
11
233.895
21
-106.049
0
LINE
8
BLACK
6
CONTINUOUS
10
233.895
20
-106.049
11
233.99
21
-106.144
0
LINE
8
BLACK
6
CONTINUOUS
10
233.99
20
-106.144
11
234.038
21
-106.239
0
LINE
8
BLACK
6
CONTINUOUS
10
233.848
20
-105.287
11
233.8
21
-105.239
0
LINE
8
BLACK
6
CONTINUOUS
10
233.8
20
-105.239
11
233.752
21
-105.144
0
LINE
8
BLACK
6
CONTINUOUS
10
233.752
20
-105.144
11
233.752
21
-104.906
0
LINE
8
BLACK
6
CONTINUOUS
10
233.752
20
-104.906
11
233.8
21
-104.81
0
LINE
8
BLACK
6
CONTINUOUS
10
233.8
20
-104.81
11
233.848
21
-104.763
0
LINE
8
BLACK
6
CONTINUOUS
10
233.848
20
-104.763
11
233.943
21
-104.715
0
LINE
8
BLACK
6
CONTINUOUS
10
233.943
20
-104.715
11
234.038
21
-104.715
0
LINE
8
BLACK
6
CONTINUOUS
10
234.038
20
-104.715
11
234.181
21
-104.763
0
LINE
8
BLACK
6
CONTINUOUS
10
234.181
20
-104.763
11
234.752
21
-105.334
0
LINE
8
BLACK
6
CONTINUOUS
10
234.752
20
-105.334
11
234.752
21
-104.715
0
LINE
8
BLACK
6
CONTINUOUS
10
233.848
20
-104.334
11
233.8
21
-104.287
0
LINE
8
BLACK
6
CONTINUOUS
10
233.8
20
-104.287
11
233.752
21
-104.191
0
LINE
8
BLACK
6
CONTINUOUS
10
233.752
20
-104.191
11
233.752
21
-103.953
0
LINE
8
BLACK
6
CONTINUOUS
10
233.752
20
-103.953
11
233.8
21
-103.858
0
LINE
8
BLACK
6
CONTINUOUS
10
233.8
20
-103.858
11
233.848
21
-103.81
0
LINE
8
BLACK
6
CONTINUOUS
10
233.848
20
-103.81
11
233.943
21
-103.763
0
LINE
8
BLACK
6
CONTINUOUS
10
233.943
20
-103.763
11
234.038
21
-103.763
0
LINE
8
BLACK
6
CONTINUOUS
10
234.038
20
-103.763
11
234.181
21
-103.81
0
LINE
8
BLACK
6
CONTINUOUS
10
234.181
20
-103.81
11
234.752
21
-104.382
0
LINE
8
BLACK
6
CONTINUOUS
10
234.752
20
-104.382
11
234.752
21
-103.763
0
LINE
8
BLACK
6
CONTINUOUS
10
234.657
20
-103.334
11
234.705
21
-103.287
0
LINE
8
BLACK
6
CONTINUOUS
10
234.705
20
-103.287
11
234.752
21
-103.334
0
LINE
8
BLACK
6
CONTINUOUS
10
234.752
20
-103.334
11
234.705
21
-103.382
0
LINE
8
BLACK
6
CONTINUOUS
10
234.705
20
-103.382
11
234.657
21
-103.334
0
LINE
8
BLACK
6
CONTINUOUS
10
234.657
20
-103.334
11
234.752
21
-103.334
0
LINE
8
BLACK
6
CONTINUOUS
10
234.181
20
-102.715
11
234.133
21
-102.81
0
LINE
8
BLACK
6
CONTINUOUS
10
234.133
20
-102.81
11
234.086
21
-102.858
0
LINE
8
BLACK
6
CONTINUOUS
10
234.086
20
-102.858
11
233.99
21
-102.906
0
LINE
8
BLACK
6
CONTINUOUS
10
233.99
20
-102.906
11
233.943
21
-102.906
0
LINE
8
BLACK
6
CONTINUOUS
10
233.943
20
-102.906
11
233.848
21
-102.858
0
LINE
8
BLACK
6
CONTINUOUS
10
233.848
20
-102.858
11
233.8
21
-102.81
0
LINE
8
BLACK
6
CONTINUOUS
10
233.8
20
-102.81
11
233.752
21
-102.715
0
LINE
8
BLACK
6
CONTINUOUS
10
233.752
20
-102.715
11
233.752
21
-102.525
0
LINE
8
BLACK
6
CONTINUOUS
10
233.752
20
-102.525
11
233.8
21
-102.43
0
LINE
8
BLACK
6
CONTINUOUS
10
233.8
20
-102.43
11
233.848
21
-102.382
0
LINE
8
BLACK
6
CONTINUOUS
10
233.848
20
-102.382
11
233.943
21
-102.334
0
LINE
8
BLACK
6
CONTINUOUS
10
233.943
20
-102.334
11
233.99
21
-102.334
0
LINE
8
BLACK
6
CONTINUOUS
10
233.99
20
-102.334
11
234.086
21
-102.382
0
LINE
8
BLACK
6
CONTINUOUS
10
234.086
20
-102.382
11
234.133
21
-102.43
0
LINE
8
BLACK
6
CONTINUOUS
10
234.133
20
-102.43
11
234.181
21
-102.525
0
LINE
8
BLACK
6
CONTINUOUS
10
234.181
20
-102.525
11
234.181
21
-102.715
0
LINE
8
BLACK
6
CONTINUOUS
10
234.181
20
-102.715
11
234.229
21
-102.81
0
LINE
8
BLACK
6
CONTINUOUS
10
234.229
20
-102.81
11
234.276
21
-102.858
0
LINE
8
BLACK
6
CONTINUOUS
10
234.276
20
-102.858
11
234.371
21
-102.906
0
LINE
8
BLACK
6
CONTINUOUS
10
234.371
20
-102.906
11
234.562
21
-102.906
0
LINE
8
BLACK
6
CONTINUOUS
10
234.562
20
-102.906
11
234.657
21
-102.858
0
LINE
8
BLACK
6
CONTINUOUS
10
234.657
20
-102.858
11
234.705
21
-102.81
0
LINE
8
BLACK
6
CONTINUOUS
10
234.705
20
-102.81
11
234.752
21
-102.715
0
LINE
8
BLACK
6
CONTINUOUS
10
234.752
20
-102.715
11
234.752
21
-102.525
0
LINE
8
BLACK
6
CONTINUOUS
10
234.752
20
-102.525
11
234.705
21
-102.43
0
LINE
8
BLACK
6
CONTINUOUS
10
234.705
20
-102.43
11
234.657
21
-102.382
0
LINE
8
BLACK
6
CONTINUOUS
10
234.657
20
-102.382
11
234.562
21
-102.334
0
LINE
8
BLACK
6
CONTINUOUS
10
234.562
20
-102.334
11
234.371
21
-102.334
0
LINE
8
BLACK
6
CONTINUOUS
10
234.371
20
-102.334
11
234.276
21
-102.382
0
LINE
8
BLACK
6
CONTINUOUS
10
234.276
20
-102.382
11
234.229
21
-102.43
0
LINE
8
BLACK
6
CONTINUOUS
10
234.229
20
-102.43
11
234.181
21
-102.525
0
LINE
8
BLACK
6
CONTINUOUS
10
233.752
20
-101.43
11
233.752
21
-101.906
0
LINE
8
BLACK
6
CONTINUOUS
10
233.752
20
-101.906
11
234.229
21
-101.953
0
LINE
8
BLACK
6
CONTINUOUS
10
234.229
20
-101.953
11
234.181
21
-101.906
0
LINE
8
BLACK
6
CONTINUOUS
10
234.181
20
-101.906
11
234.133
21
-101.81
0
LINE
8
BLACK
6
CONTINUOUS
10
234.133
20
-101.81
11
234.133
21
-101.572
0
LINE
8
BLACK
6
CONTINUOUS
10
234.133
20
-101.572
11
234.181
21
-101.477
0
LINE
8
BLACK
6
CONTINUOUS
10
234.181
20
-101.477
11
234.229
21
-101.43
0
LINE
8
BLACK
6
CONTINUOUS
10
234.229
20
-101.43
11
234.324
21
-101.382
0
LINE
8
BLACK
6
CONTINUOUS
10
234.324
20
-101.382
11
234.562
21
-101.382
0
LINE
8
BLACK
6
CONTINUOUS
10
234.562
20
-101.382
11
234.657
21
-101.43
0
LINE
8
BLACK
6
CONTINUOUS
10
234.657
20
-101.43
11
234.705
21
-101.477
0
LINE
8
BLACK
6
CONTINUOUS
10
234.705
20
-101.477
11
234.752
21
-101.572
0
LINE
8
BLACK
6
CONTINUOUS
10
234.752
20
-101.572
11
234.752
21
-101.81
0
LINE
8
BLACK
6
CONTINUOUS
10
234.752
20
-101.81
11
234.705
21
-101.906
0
LINE
8
BLACK
6
CONTINUOUS
10
234.705
20
-101.906
11
234.657
21
-101.953
0
LINE
8
BLACK
6
CONTINUOUS
10
233.752
20
-100.477
11
233.752
21
-100.953
0
LINE
8
BLACK
6
CONTINUOUS
10
233.752
20
-100.953
11
234.229
21
-101.001
0
LINE
8
BLACK
6
CONTINUOUS
10
234.229
20
-101.001
11
234.181
21
-100.953
0
LINE
8
BLACK
6
CONTINUOUS
10
234.181
20
-100.953
11
234.133
21
-100.858
0
LINE
8
BLACK
6
CONTINUOUS
10
234.133
20
-100.858
11
234.133
21
-100.62
0
LINE
8
BLACK
6
CONTINUOUS
10
234.133
20
-100.62
11
234.181
21
-100.525
0
LINE
8
BLACK
6
CONTINUOUS
10
234.181
20
-100.525
11
234.229
21
-100.477
0
LINE
8
BLACK
6
CONTINUOUS
10
234.229
20
-100.477
11
234.324
21
-100.43
0
LINE
8
BLACK
6
CONTINUOUS
10
234.324
20
-100.43
11
234.562
21
-100.43
0
LINE
8
BLACK
6
CONTINUOUS
10
234.562
20
-100.43
11
234.657
21
-100.477
0
LINE
8
BLACK
6
CONTINUOUS
10
234.657
20
-100.477
11
234.705
21
-100.525
0
LINE
8
BLACK
6
CONTINUOUS
10
234.705
20
-100.525
11
234.752
21
-100.62
0
LINE
8
BLACK
6
CONTINUOUS
10
234.752
20
-100.62
11
234.752
21
-100.858
0
LINE
8
BLACK
6
CONTINUOUS
10
234.752
20
-100.858
11
234.705
21
-100.953
0
LINE
8
BLACK
6
CONTINUOUS
10
234.705
20
-100.953
11
234.657
21
-101.001
0
LINE
8
BLACK
6
CONTINUOUS
10
234.752
20
-99.239
11
234.086
21
-99.239
0
LINE
8
BLACK
6
CONTINUOUS
10
234.181
20
-99.239
11
234.133
21
-99.1914
0
LINE
8
BLACK
6
CONTINUOUS
10
234.133
20
-99.1914
11
234.086
21
-99.0962
0
LINE
8
BLACK
6
CONTINUOUS
10
234.086
20
-99.0962
11
234.086
21
-98.9533
0
LINE
8
BLACK
6
CONTINUOUS
10
234.086
20
-98.9533
11
234.133
21
-98.8581
0
LINE
8
BLACK
6
CONTINUOUS
10
234.133
20
-98.8581
11
234.229
21
-98.8105
0
LINE
8
BLACK
6
CONTINUOUS
10
234.229
20
-98.8105
11
234.752
21
-98.8105
0
LINE
8
BLACK
6
CONTINUOUS
10
234.229
20
-98.8105
11
234.133
21
-98.7629
0
LINE
8
BLACK
6
CONTINUOUS
10
234.133
20
-98.7629
11
234.086
21
-98.6676
0
LINE
8
BLACK
6
CONTINUOUS
10
234.086
20
-98.6676
11
234.086
21
-98.5248
0
LINE
8
BLACK
6
CONTINUOUS
10
234.086
20
-98.5248
11
234.133
21
-98.4295
0
LINE
8
BLACK
6
CONTINUOUS
10
234.133
20
-98.4295
11
234.229
21
-98.3819
0
LINE
8
BLACK
6
CONTINUOUS
10
234.229
20
-98.3819
11
234.752
21
-98.3819
0
LINE
8
BLACK
6
CONTINUOUS
10
234.752
20
-97.9057
11
234.086
21
-97.9057
0
LINE
8
BLACK
6
CONTINUOUS
10
234.181
20
-97.9057
11
234.133
21
-97.8581
0
LINE
8
BLACK
6
CONTINUOUS
10
234.133
20
-97.8581
11
234.086
21
-97.7629
0
LINE
8
BLACK
6
CONTINUOUS
10
234.086
20
-97.7629
11
234.086
21
-97.62
0
LINE
8
BLACK
6
CONTINUOUS
10
234.086
20
-97.62
11
234.133
21
-97.5248
0
LINE
8
BLACK
6
CONTINUOUS
10
234.133
20
-97.5248
11
234.229
21
-97.4771
0
LINE
8
BLACK
6
CONTINUOUS
10
234.229
20
-97.4771
11
234.752
21
-97.4771
0
LINE
8
BLACK
6
CONTINUOUS
10
234.229
20
-97.4771
11
234.133
21
-97.4295
0
LINE
8
BLACK
6
CONTINUOUS
10
234.133
20
-97.4295
11
234.086
21
-97.3343
0
LINE
8
BLACK
6
CONTINUOUS
10
234.086
20
-97.3343
11
234.086
21
-97.1914
0
LINE
8
BLACK
6
CONTINUOUS
10
234.086
20
-97.1914
11
234.133
21
-97.0962
0
LINE
8
BLACK
6
CONTINUOUS
10
234.133
20
-97.0962
11
234.229
21
-97.0486
0
LINE
8
BLACK
6
CONTINUOUS
10
234.229
20
-97.0486
11
234.752
21
-97.0486
0
LINE
8
BLACK
6
CONTINUOUS
10
233
20
-163.047
11
233
21
-40.1925
0
LINE
8
BLACK
6
CONTINUOUS
10
231.445
20
-163.047
11
233.586
21
-163.047
0
LINE
8
BLACK
6
CONTINUOUS
10
231.445
20
-40.1925
11
233.586
21
-40.1925
0
LINE
8
BLACK
6
CONTINUOUS
10
233
20
-40.1925
11
233.586
21
-41.319
0
LINE
8
BLACK
6
CONTINUOUS
10
233
20
-40.1925
11
232.414
21
-41.319
0
LINE
8
BLACK
6
CONTINUOUS
10
233
20
-163.047
11
233.586
21
-161.921
0
LINE
8
BLACK
6
CONTINUOUS
10
233
20
-163.047
11
232.414
21
-161.921
0
LINE
8
BLACK
6
CONTINUOUS
10
71.6325
20
-154.493
11
197.435
21
-154.493
0
ARC
8
BLACK
10
223.415
20
-40.7175
40
0.525
50
-0
51
90
0
ARC
8
BLACK
10
17.495
20
-162.522
40
0.525856
50
-176.73
51
-86.7295
0
LINE
8
BLACK
6
CONTINUOUS
10
223.94
20
-116.39
11
223.94
21
-162.493
0
LINE
8
BLACK
6
CONTINUOUS
10
16.97
20
-162.552
11
16.97
21
-145.498
0
ARC
8
BLACK
10
24.41
20
-40.7175
40
0.525856
50
93.2705
51
183.27
0
ARC
8
BLACK
10
42.395
20
-162.522
40
0.525856
50
-86.7295
51
3.27049
0
LINE
8
BLACK
6
CONTINUOUS
10
71.6325
20
-154.493
11
47.7275
21
-154.493
0
ARC
8
BLACK
10
198.515
20
-162.522
40
0.525856
50
-176.73
51
-86.7295
0
ARC
8
BLACK
10
43.445
20
-155.017
40
0.525856
50
93.2705
51
183.27
0
ARC
8
BLACK
10
197.465
20
-155.017
40
0.525856
50
3.27049
51
93.2705
0
ARC
8
BLACK
10
223.415
20
-162.522
40
0.525856
50
-86.7295
51
3.27049
0
LINE
8
BLACK
6
CONTINUOUS
10
223.415
20
-40.1925
11
24.38
21
-40.1925
0
LINE
8
BLACK
6
CONTINUOUS
10
223.94
20
-40.7175
11
223.94
21
-116.39
0
LINE
8
BLACK
6
CONTINUOUS
10
17.525
20
-163.047
11
42.425
21
-163.047
0
LINE
8
BLACK
6
CONTINUOUS
10
23.885
20
-132.218
11
16.97
21
-145.498
0
LINE
8
BLACK
6
CONTINUOUS
10
23.885
20
-40.7475
11
23.885
21
-132.218
0
LINE
8
BLACK
6
CONTINUOUS
10
198.545
20
-163.047
11
223.445
21
-163.047
0
LINE
8
BLACK
6
CONTINUOUS
10
197.99
20
-162.552
11
197.99
21
-154.987
0
LINE
8
BLACK
6
CONTINUOUS
10
42.92
20
-162.493
11
42.92
21
-155.047
0
LINE
8
BLACK
6
CONTINUOUS
10
43.415
20
-154.493
11
47.7275
21
-154.493
0
LINE
8
BLACK
6
CONTINUOUS
10
115.836
20
-35.1676
11
115.884
21
-35.12
0
LINE
8
BLACK
6
CONTINUOUS
10
115.884
20
-35.12
11
115.979
21
-35.0724
0
LINE
8
BLACK
6
CONTINUOUS
10
115.979
20
-35.0724
11
116.217
21
-35.0724
0
LINE
8
BLACK
6
CONTINUOUS
10
116.217
20
-35.0724
11
116.312
21
-35.12
0
LINE
8
BLACK
6
CONTINUOUS
10
116.312
20
-35.12
11
116.36
21
-35.1676
0
LINE
8
BLACK
6
CONTINUOUS
10
116.36
20
-35.1676
11
116.407
21
-35.2629
0
LINE
8
BLACK
6
CONTINUOUS
10
116.407
20
-35.2629
11
116.407
21
-35.3581
0
LINE
8
BLACK
6
CONTINUOUS
10
116.407
20
-35.3581
11
116.36
21
-35.501
0
LINE
8
BLACK
6
CONTINUOUS
10
116.36
20
-35.501
11
115.788
21
-36.0724
0
LINE
8
BLACK
6
CONTINUOUS
10
115.788
20
-36.0724
11
116.407
21
-36.0724
0
LINE
8
BLACK
6
CONTINUOUS
10
117.026
20
-35.0724
11
117.122
21
-35.0724
0
LINE
8
BLACK
6
CONTINUOUS
10
117.122
20
-35.0724
11
117.217
21
-35.12
0
LINE
8
BLACK
6
CONTINUOUS
10
117.217
20
-35.12
11
117.265
21
-35.1676
0
LINE
8
BLACK
6
CONTINUOUS
10
117.265
20
-35.1676
11
117.312
21
-35.2629
0
LINE
8
BLACK
6
CONTINUOUS
10
117.312
20
-35.2629
11
117.36
21
-35.4533
0
LINE
8
BLACK
6
CONTINUOUS
10
117.36
20
-35.4533
11
117.36
21
-35.6914
0
LINE
8
BLACK
6
CONTINUOUS
10
117.36
20
-35.6914
11
117.312
21
-35.8819
0
LINE
8
BLACK
6
CONTINUOUS
10
117.312
20
-35.8819
11
117.265
21
-35.9771
0
LINE
8
BLACK
6
CONTINUOUS
10
117.265
20
-35.9771
11
117.217
21
-36.0248
0
LINE
8
BLACK
6
CONTINUOUS
10
117.217
20
-36.0248
11
117.122
21
-36.0724
0
LINE
8
BLACK
6
CONTINUOUS
10
117.122
20
-36.0724
11
117.026
21
-36.0724
0
LINE
8
BLACK
6
CONTINUOUS
10
117.026
20
-36.0724
11
116.931
21
-36.0248
0
LINE
8
BLACK
6
CONTINUOUS
10
116.931
20
-36.0248
11
116.884
21
-35.9771
0
LINE
8
BLACK
6
CONTINUOUS
10
116.884
20
-35.9771
11
116.836
21
-35.8819
0
LINE
8
BLACK
6
CONTINUOUS
10
116.836
20
-35.8819
11
116.788
21
-35.6914
0
LINE
8
BLACK
6
CONTINUOUS
10
116.788
20
-35.6914
11
116.788
21
-35.4533
0
LINE
8
BLACK
6
CONTINUOUS
10
116.788
20
-35.4533
11
116.836
21
-35.2629
0
LINE
8
BLACK
6
CONTINUOUS
10
116.836
20
-35.2629
11
116.884
21
-35.1676
0
LINE
8
BLACK
6
CONTINUOUS
10
116.884
20
-35.1676
11
116.931
21
-35.12
0
LINE
8
BLACK
6
CONTINUOUS
10
116.931
20
-35.12
11
117.026
21
-35.0724
0
LINE
8
BLACK
6
CONTINUOUS
10
118.217
20
-35.0724
11
118.026
21
-35.0724
0
LINE
8
BLACK
6
CONTINUOUS
10
118.026
20
-35.0724
11
117.931
21
-35.12
0
LINE
8
BLACK
6
CONTINUOUS
10
117.931
20
-35.12
11
117.884
21
-35.1676
0
LINE
8
BLACK
6
CONTINUOUS
10
117.884
20
-35.1676
11
117.788
21
-35.3105
0
LINE
8
BLACK
6
CONTINUOUS
10
117.788
20
-35.3105
11
117.741
21
-35.501
0
LINE
8
BLACK
6
CONTINUOUS
10
117.741
20
-35.501
11
117.741
21
-35.8819
0
LINE
8
BLACK
6
CONTINUOUS
10
117.741
20
-35.8819
11
117.788
21
-35.9771
0
LINE
8
BLACK
6
CONTINUOUS
10
117.788
20
-35.9771
11
117.836
21
-36.0248
0
LINE
8
BLACK
6
CONTINUOUS
10
117.836
20
-36.0248
11
117.931
21
-36.0724
0
LINE
8
BLACK
6
CONTINUOUS
10
117.931
20
-36.0724
11
118.122
21
-36.0724
0
LINE
8
BLACK
6
CONTINUOUS
10
118.122
20
-36.0724
11
118.217
21
-36.0248
0
LINE
8
BLACK
6
CONTINUOUS
10
118.217
20
-36.0248
11
118.265
21
-35.9771
0
LINE
8
BLACK
6
CONTINUOUS
10
118.265
20
-35.9771
11
118.312
21
-35.8819
0
LINE
8
BLACK
6
CONTINUOUS
10
118.312
20
-35.8819
11
118.312
21
-35.6438
0
LINE
8
BLACK
6
CONTINUOUS
10
118.312
20
-35.6438
11
118.265
21
-35.5486
0
LINE
8
BLACK
6
CONTINUOUS
10
118.265
20
-35.5486
11
118.217
21
-35.501
0
LINE
8
BLACK
6
CONTINUOUS
10
118.217
20
-35.501
11
118.122
21
-35.4533
0
LINE
8
BLACK
6
CONTINUOUS
10
118.122
20
-35.4533
11
117.931
21
-35.4533
0
LINE
8
BLACK
6
CONTINUOUS
10
117.931
20
-35.4533
11
117.836
21
-35.501
0
LINE
8
BLACK
6
CONTINUOUS
10
117.836
20
-35.501
11
117.788
21
-35.5486
0
LINE
8
BLACK
6
CONTINUOUS
10
117.788
20
-35.5486
11
117.741
21
-35.6438
0
LINE
8
BLACK
6
CONTINUOUS
10
118.741
20
-35.9771
11
118.788
21
-36.0248
0
LINE
8
BLACK
6
CONTINUOUS
10
118.788
20
-36.0248
11
118.741
21
-36.0724
0
LINE
8
BLACK
6
CONTINUOUS
10
118.741
20
-36.0724
11
118.693
21
-36.0248
0
LINE
8
BLACK
6
CONTINUOUS
10
118.693
20
-36.0248
11
118.741
21
-35.9771
0
LINE
8
BLACK
6
CONTINUOUS
10
118.741
20
-35.9771
11
118.741
21
-36.0724
0
LINE
8
BLACK
6
CONTINUOUS
10
119.265
20
-36.0724
11
119.455
21
-36.0724
0
LINE
8
BLACK
6
CONTINUOUS
10
119.455
20
-36.0724
11
119.55
21
-36.0248
0
LINE
8
BLACK
6
CONTINUOUS
10
119.55
20
-36.0248
11
119.598
21
-35.9771
0
LINE
8
BLACK
6
CONTINUOUS
10
119.598
20
-35.9771
11
119.693
21
-35.8343
0
LINE
8
BLACK
6
CONTINUOUS
10
119.693
20
-35.8343
11
119.741
21
-35.6438
0
LINE
8
BLACK
6
CONTINUOUS
10
119.741
20
-35.6438
11
119.741
21
-35.2629
0
LINE
8
BLACK
6
CONTINUOUS
10
119.741
20
-35.2629
11
119.693
21
-35.1676
0
LINE
8
BLACK
6
CONTINUOUS
10
119.693
20
-35.1676
11
119.645
21
-35.12
0
LINE
8
BLACK
6
CONTINUOUS
10
119.645
20
-35.12
11
119.55
21
-35.0724
0
LINE
8
BLACK
6
CONTINUOUS
10
119.55
20
-35.0724
11
119.36
21
-35.0724
0
LINE
8
BLACK
6
CONTINUOUS
10
119.36
20
-35.0724
11
119.265
21
-35.12
0
LINE
8
BLACK
6
CONTINUOUS
10
119.265
20
-35.12
11
119.217
21
-35.1676
0
LINE
8
BLACK
6
CONTINUOUS
10
119.217
20
-35.1676
11
119.169
21
-35.2629
0
LINE
8
BLACK
6
CONTINUOUS
10
119.169
20
-35.2629
11
119.169
21
-35.501
0
LINE
8
BLACK
6
CONTINUOUS
10
119.169
20
-35.501
11
119.217
21
-35.5962
0
LINE
8
BLACK
6
CONTINUOUS
10
119.217
20
-35.5962
11
119.265
21
-35.6438
0
LINE
8
BLACK
6
CONTINUOUS
10
119.265
20
-35.6438
11
119.36
21
-35.6914
0
LINE
8
BLACK
6
CONTINUOUS
10
119.36
20
-35.6914
11
119.55
21
-35.6914
0
LINE
8
BLACK
6
CONTINUOUS
10
119.55
20
-35.6914
11
119.645
21
-35.6438
0
LINE
8
BLACK
6
CONTINUOUS
10
119.645
20
-35.6438
11
119.693
21
-35.5962
0
LINE
8
BLACK
6
CONTINUOUS
10
119.693
20
-35.5962
11
119.741
21
-35.501
0
LINE
8
BLACK
6
CONTINUOUS
10
120.074
20
-35.0724
11
120.741
21
-35.0724
0
LINE
8
BLACK
6
CONTINUOUS
10
120.741
20
-35.0724
11
120.312
21
-36.0724
0
LINE
8
BLACK
6
CONTINUOUS
10
121.312
20
-35.0724
11
121.407
21
-35.0724
0
LINE
8
BLACK
6
CONTINUOUS
10
121.407
20
-35.0724
11
121.503
21
-35.12
0
LINE
8
BLACK
6
CONTINUOUS
10
121.503
20
-35.12
11
121.55
21
-35.1676
0
LINE
8
BLACK
6
CONTINUOUS
10
121.55
20
-35.1676
11
121.598
21
-35.2629
0
LINE
8
BLACK
6
CONTINUOUS
10
121.598
20
-35.2629
11
121.645
21
-35.4533
0
LINE
8
BLACK
6
CONTINUOUS
10
121.645
20
-35.4533
11
121.645
21
-35.6914
0
LINE
8
BLACK
6
CONTINUOUS
10
121.645
20
-35.6914
11
121.598
21
-35.8819
0
LINE
8
BLACK
6
CONTINUOUS
10
121.598
20
-35.8819
11
121.55
21
-35.9771
0
LINE
8
BLACK
6
CONTINUOUS
10
121.55
20
-35.9771
11
121.503
21
-36.0248
0
LINE
8
BLACK
6
CONTINUOUS
10
121.503
20
-36.0248
11
121.407
21
-36.0724
0
LINE
8
BLACK
6
CONTINUOUS
10
121.407
20
-36.0724
11
121.312
21
-36.0724
0
LINE
8
BLACK
6
CONTINUOUS
10
121.312
20
-36.0724
11
121.217
21
-36.0248
0
LINE
8
BLACK
6
CONTINUOUS
10
121.217
20
-36.0248
11
121.169
21
-35.9771
0
LINE
8
BLACK
6
CONTINUOUS
10
121.169
20
-35.9771
11
121.122
21
-35.8819
0
LINE
8
BLACK
6
CONTINUOUS
10
121.122
20
-35.8819
11
121.074
21
-35.6914
0
LINE
8
BLACK
6
CONTINUOUS
10
121.074
20
-35.6914
11
121.074
21
-35.4533
0
LINE
8
BLACK
6
CONTINUOUS
10
121.074
20
-35.4533
11
121.122
21
-35.2629
0
LINE
8
BLACK
6
CONTINUOUS
10
121.122
20
-35.2629
11
121.169
21
-35.1676
0
LINE
8
BLACK
6
CONTINUOUS
10
121.169
20
-35.1676
11
121.217
21
-35.12
0
LINE
8
BLACK
6
CONTINUOUS
10
121.217
20
-35.12
11
121.312
21
-35.0724
0
LINE
8
BLACK
6
CONTINUOUS
10
122.836
20
-36.0724
11
122.836
21
-35.4057
0
LINE
8
BLACK
6
CONTINUOUS
10
122.836
20
-35.501
11
122.884
21
-35.4533
0
LINE
8
BLACK
6
CONTINUOUS
10
122.884
20
-35.4533
11
122.979
21
-35.4057
0
LINE
8
BLACK
6
CONTINUOUS
10
122.979
20
-35.4057
11
123.122
21
-35.4057
0
LINE
8
BLACK
6
CONTINUOUS
10
123.122
20
-35.4057
11
123.217
21
-35.4533
0
LINE
8
BLACK
6
CONTINUOUS
10
123.217
20
-35.4533
11
123.265
21
-35.5486
0
LINE
8
BLACK
6
CONTINUOUS
10
123.265
20
-35.5486
11
123.265
21
-36.0724
0
LINE
8
BLACK
6
CONTINUOUS
10
123.265
20
-35.5486
11
123.312
21
-35.4533
0
LINE
8
BLACK
6
CONTINUOUS
10
123.312
20
-35.4533
11
123.407
21
-35.4057
0
LINE
8
BLACK
6
CONTINUOUS
10
123.407
20
-35.4057
11
123.55
21
-35.4057
0
LINE
8
BLACK
6
CONTINUOUS
10
123.55
20
-35.4057
11
123.645
21
-35.4533
0
LINE
8
BLACK
6
CONTINUOUS
10
123.645
20
-35.4533
11
123.693
21
-35.5486
0
LINE
8
BLACK
6
CONTINUOUS
10
123.693
20
-35.5486
11
123.693
21
-36.0724
0
LINE
8
BLACK
6
CONTINUOUS
10
124.169
20
-36.0724
11
124.169
21
-35.4057
0
LINE
8
BLACK
6
CONTINUOUS
10
124.169
20
-35.501
11
124.217
21
-35.4533
0
LINE
8
BLACK
6
CONTINUOUS
10
124.217
20
-35.4533
11
124.312
21
-35.4057
0
LINE
8
BLACK
6
CONTINUOUS
10
124.312
20
-35.4057
11
124.455
21
-35.4057
0
LINE
8
BLACK
6
CONTINUOUS
10
124.455
20
-35.4057
11
124.55
21
-35.4533
0
LINE
8
BLACK
6
CONTINUOUS
10
124.55
20
-35.4533
11
124.598
21
-35.5486
0
LINE
8
BLACK
6
CONTINUOUS
10
124.598
20
-35.5486
11
124.598
21
-36.0724
0
LINE
8
BLACK
6
CONTINUOUS
10
124.598
20
-35.5486
11
124.645
21
-35.4533
0
LINE
8
BLACK
6
CONTINUOUS
10
124.645
20
-35.4533
11
124.741
21
-35.4057
0
LINE
8
BLACK
6
CONTINUOUS
10
124.741
20
-35.4057
11
124.884
21
-35.4057
0
LINE
8
BLACK
6
CONTINUOUS
10
124.884
20
-35.4057
11
124.979
21
-35.4533
0
LINE
8
BLACK
6
CONTINUOUS
10
124.979
20
-35.4533
11
125.026
21
-35.5486
0
LINE
8
BLACK
6
CONTINUOUS
10
125.026
20
-35.5486
11
125.026
21
-36.0724
0
LINE
8
BLACK
6
CONTINUOUS
10
16.97
20
-36.92
11
223.94
21
-36.92
0
LINE
8
BLACK
6
CONTINUOUS
10
16.97
20
-37.5525
11
16.97
21
-36.3336
0
LINE
8
BLACK
6
CONTINUOUS
10
223.94
20
-37.5525
11
223.94
21
-36.3336
0
LINE
8
BLACK
6
CONTINUOUS
10
223.94
20
-36.92
11
222.813
21
-37.5064
0
LINE
8
BLACK
6
CONTINUOUS
10
223.94
20
-36.92
11
222.813
21
-36.3336
0
LINE
8
BLACK
6
CONTINUOUS
10
16.97
20
-36.92
11
18.0965
21
-37.5064
0
LINE
8
BLACK
6
CONTINUOUS
10
16.97
20
-36.92
11
18.0965
21
-36.3336
0
LINE
8
BLACK
6
CONTINUOUS
10
206.822
20
-165.498
11
206.87
21
-165.45
0
LINE
8
BLACK
6
CONTINUOUS
10
206.87
20
-165.45
11
206.965
21
-165.402
0
LINE
8
BLACK
6
CONTINUOUS
10
206.965
20
-165.402
11
207.203
21
-165.402
0
LINE
8
BLACK
6
CONTINUOUS
10
207.203
20
-165.402
11
207.298
21
-165.45
0
LINE
8
BLACK
6
CONTINUOUS
10
207.298
20
-165.45
11
207.346
21
-165.498
0
LINE
8
BLACK
6
CONTINUOUS
10
207.346
20
-165.498
11
207.394
21
-165.593
0
LINE
8
BLACK
6
CONTINUOUS
10
207.394
20
-165.593
11
207.394
21
-165.688
0
LINE
8
BLACK
6
CONTINUOUS
10
207.394
20
-165.688
11
207.346
21
-165.831
0
LINE
8
BLACK
6
CONTINUOUS
10
207.346
20
-165.831
11
206.775
21
-166.402
0
LINE
8
BLACK
6
CONTINUOUS
10
206.775
20
-166.402
11
207.394
21
-166.402
0
LINE
8
BLACK
6
CONTINUOUS
10
208.298
20
-165.402
11
207.822
21
-165.402
0
LINE
8
BLACK
6
CONTINUOUS
10
207.822
20
-165.402
11
207.775
21
-165.879
0
LINE
8
BLACK
6
CONTINUOUS
10
207.775
20
-165.879
11
207.822
21
-165.831
0
LINE
8
BLACK
6
CONTINUOUS
10
207.822
20
-165.831
11
207.917
21
-165.783
0
LINE
8
BLACK
6
CONTINUOUS
10
207.917
20
-165.783
11
208.155
21
-165.783
0
LINE
8
BLACK
6
CONTINUOUS
10
208.155
20
-165.783
11
208.251
21
-165.831
0
LINE
8
BLACK
6
CONTINUOUS
10
208.251
20
-165.831
11
208.298
21
-165.879
0
LINE
8
BLACK
6
CONTINUOUS
10
208.298
20
-165.879
11
208.346
21
-165.974
0
LINE
8
BLACK
6
CONTINUOUS
10
208.346
20
-165.974
11
208.346
21
-166.212
0
LINE
8
BLACK
6
CONTINUOUS
10
208.346
20
-166.212
11
208.298
21
-166.307
0
LINE
8
BLACK
6
CONTINUOUS
10
208.298
20
-166.307
11
208.251
21
-166.355
0
LINE
8
BLACK
6
CONTINUOUS
10
208.251
20
-166.355
11
208.155
21
-166.402
0
LINE
8
BLACK
6
CONTINUOUS
10
208.155
20
-166.402
11
207.917
21
-166.402
0
LINE
8
BLACK
6
CONTINUOUS
10
207.917
20
-166.402
11
207.822
21
-166.355
0
LINE
8
BLACK
6
CONTINUOUS
10
207.822
20
-166.355
11
207.775
21
-166.307
0
LINE
8
BLACK
6
CONTINUOUS
10
208.775
20
-166.307
11
208.822
21
-166.355
0
LINE
8
BLACK
6
CONTINUOUS
10
208.822
20
-166.355
11
208.775
21
-166.402
0
LINE
8
BLACK
6
CONTINUOUS
10
208.775
20
-166.402
11
208.727
21
-166.355
0
LINE
8
BLACK
6
CONTINUOUS
10
208.727
20
-166.355
11
208.775
21
-166.307
0
LINE
8
BLACK
6
CONTINUOUS
10
208.775
20
-166.307
11
208.775
21
-166.402
0
LINE
8
BLACK
6
CONTINUOUS
10
209.298
20
-166.402
11
209.489
21
-166.402
0
LINE
8
BLACK
6
CONTINUOUS
10
209.489
20
-166.402
11
209.584
21
-166.355
0
LINE
8
BLACK
6
CONTINUOUS
10
209.584
20
-166.355
11
209.632
21
-166.307
0
LINE
8
BLACK
6
CONTINUOUS
10
209.632
20
-166.307
11
209.727
21
-166.164
0
LINE
8
BLACK
6
CONTINUOUS
10
209.727
20
-166.164
11
209.775
21
-165.974
0
LINE
8
BLACK
6
CONTINUOUS
10
209.775
20
-165.974
11
209.775
21
-165.593
0
LINE
8
BLACK
6
CONTINUOUS
10
209.775
20
-165.593
11
209.727
21
-165.498
0
LINE
8
BLACK
6
CONTINUOUS
10
209.727
20
-165.498
11
209.679
21
-165.45
0
LINE
8
BLACK
6
CONTINUOUS
10
209.679
20
-165.45
11
209.584
21
-165.402
0
LINE
8
BLACK
6
CONTINUOUS
10
209.584
20
-165.402
11
209.394
21
-165.402
0
LINE
8
BLACK
6
CONTINUOUS
10
209.394
20
-165.402
11
209.298
21
-165.45
0
LINE
8
BLACK
6
CONTINUOUS
10
209.298
20
-165.45
11
209.251
21
-165.498
0
LINE
8
BLACK
6
CONTINUOUS
10
209.251
20
-165.498
11
209.203
21
-165.593
0
LINE
8
BLACK
6
CONTINUOUS
10
209.203
20
-165.593
11
209.203
21
-165.831
0
LINE
8
BLACK
6
CONTINUOUS
10
209.203
20
-165.831
11
209.251
21
-165.926
0
LINE
8
BLACK
6
CONTINUOUS
10
209.251
20
-165.926
11
209.298
21
-165.974
0
LINE
8
BLACK
6
CONTINUOUS
10
209.298
20
-165.974
11
209.394
21
-166.021
0
LINE
8
BLACK
6
CONTINUOUS
10
209.394
20
-166.021
11
209.584
21
-166.021
0
LINE
8
BLACK
6
CONTINUOUS
10
209.584
20
-166.021
11
209.679
21
-165.974
0
LINE
8
BLACK
6
CONTINUOUS
10
209.679
20
-165.974
11
209.727
21
-165.926
0
LINE
8
BLACK
6
CONTINUOUS
10
209.727
20
-165.926
11
209.775
21
-165.831
0
LINE
8
BLACK
6
CONTINUOUS
10
210.679
20
-165.402
11
210.203
21
-165.402
0
LINE
8
BLACK
6
CONTINUOUS
10
210.203
20
-165.402
11
210.155
21
-165.879
0
LINE
8
BLACK
6
CONTINUOUS
10
210.155
20
-165.879
11
210.203
21
-165.831
0
LINE
8
BLACK
6
CONTINUOUS
10
210.203
20
-165.831
11
210.298
21
-165.783
0
LINE
8
BLACK
6
CONTINUOUS
10
210.298
20
-165.783
11
210.536
21
-165.783
0
LINE
8
BLACK
6
CONTINUOUS
10
210.536
20
-165.783
11
210.632
21
-165.831
0
LINE
8
BLACK
6
CONTINUOUS
10
210.632
20
-165.831
11
210.679
21
-165.879
0
LINE
8
BLACK
6
CONTINUOUS
10
210.679
20
-165.879
11
210.727
21
-165.974
0
LINE
8
BLACK
6
CONTINUOUS
10
210.727
20
-165.974
11
210.727
21
-166.212
0
LINE
8
BLACK
6
CONTINUOUS
10
210.727
20
-166.212
11
210.679
21
-166.307
0
LINE
8
BLACK
6
CONTINUOUS
10
210.679
20
-166.307
11
210.632
21
-166.355
0
LINE
8
BLACK
6
CONTINUOUS
10
210.632
20
-166.355
11
210.536
21
-166.402
0
LINE
8
BLACK
6
CONTINUOUS
10
210.536
20
-166.402
11
210.298
21
-166.402
0
LINE
8
BLACK
6
CONTINUOUS
10
210.298
20
-166.402
11
210.203
21
-166.355
0
LINE
8
BLACK
6
CONTINUOUS
10
210.203
20
-166.355
11
210.155
21
-166.307
0
LINE
8
BLACK
6
CONTINUOUS
10
211.346
20
-165.402
11
211.441
21
-165.402
0
LINE
8
BLACK
6
CONTINUOUS
10
211.441
20
-165.402
11
211.536
21
-165.45
0
LINE
8
BLACK
6
CONTINUOUS
10
211.536
20
-165.45
11
211.584
21
-165.498
0
LINE
8
BLACK
6
CONTINUOUS
10
211.584
20
-165.498
11
211.632
21
-165.593
0
LINE
8
BLACK
6
CONTINUOUS
10
211.632
20
-165.593
11
211.679
21
-165.783
0
LINE
8
BLACK
6
CONTINUOUS
10
211.679
20
-165.783
11
211.679
21
-166.021
0
LINE
8
BLACK
6
CONTINUOUS
10
211.679
20
-166.021
11
211.632
21
-166.212
0
LINE
8
BLACK
6
CONTINUOUS
10
211.632
20
-166.212
11
211.584
21
-166.307
0
LINE
8
BLACK
6
CONTINUOUS
10
211.584
20
-166.307
11
211.536
21
-166.355
0
LINE
8
BLACK
6
CONTINUOUS
10
211.536
20
-166.355
11
211.441
21
-166.402
0
LINE
8
BLACK
6
CONTINUOUS
10
211.441
20
-166.402
11
211.346
21
-166.402
0
LINE
8
BLACK
6
CONTINUOUS
10
211.346
20
-166.402
11
211.251
21
-166.355
0
LINE
8
BLACK
6
CONTINUOUS
10
211.251
20
-166.355
11
211.203
21
-166.307
0
LINE
8
BLACK
6
CONTINUOUS
10
211.203
20
-166.307
11
211.155
21
-166.212
0
LINE
8
BLACK
6
CONTINUOUS
10
211.155
20
-166.212
11
211.108
21
-166.021
0
LINE
8
BLACK
6
CONTINUOUS
10
211.108
20
-166.021
11
211.108
21
-165.783
0
LINE
8
BLACK
6
CONTINUOUS
10
211.108
20
-165.783
11
211.155
21
-165.593
0
LINE
8
BLACK
6
CONTINUOUS
10
211.155
20
-165.593
11
211.203
21
-165.498
0
LINE
8
BLACK
6
CONTINUOUS
10
211.203
20
-165.498
11
211.251
21
-165.45
0
LINE
8
BLACK
6
CONTINUOUS
10
211.251
20
-165.45
11
211.346
21
-165.402
0
LINE
8
BLACK
6
CONTINUOUS
10
212.87
20
-166.402
11
212.87
21
-165.736
0
LINE
8
BLACK
6
CONTINUOUS
10
212.87
20
-165.831
11
212.917
21
-165.783
0
LINE
8
BLACK
6
CONTINUOUS
10
212.917
20
-165.783
11
213.013
21
-165.736
0
LINE
8
BLACK
6
CONTINUOUS
10
213.013
20
-165.736
11
213.155
21
-165.736
0
LINE
8
BLACK
6
CONTINUOUS
10
213.155
20
-165.736
11
213.251
21
-165.783
0
LINE
8
BLACK
6
CONTINUOUS
10
213.251
20
-165.783
11
213.298
21
-165.879
0
LINE
8
BLACK
6
CONTINUOUS
10
213.298
20
-165.879
11
213.298
21
-166.402
0
LINE
8
BLACK
6
CONTINUOUS
10
213.298
20
-165.879
11
213.346
21
-165.783
0
LINE
8
BLACK
6
CONTINUOUS
10
213.346
20
-165.783
11
213.441
21
-165.736
0
LINE
8
BLACK
6
CONTINUOUS
10
213.441
20
-165.736
11
213.584
21
-165.736
0
LINE
8
BLACK
6
CONTINUOUS
10
213.584
20
-165.736
11
213.679
21
-165.783
0
LINE
8
BLACK
6
CONTINUOUS
10
213.679
20
-165.783
11
213.727
21
-165.879
0
LINE
8
BLACK
6
CONTINUOUS
10
213.727
20
-165.879
11
213.727
21
-166.402
0
LINE
8
BLACK
6
CONTINUOUS
10
214.203
20
-166.402
11
214.203
21
-165.736
0
LINE
8
BLACK
6
CONTINUOUS
10
214.203
20
-165.831
11
214.251
21
-165.783
0
LINE
8
BLACK
6
CONTINUOUS
10
214.251
20
-165.783
11
214.346
21
-165.736
0
LINE
8
BLACK
6
CONTINUOUS
10
214.346
20
-165.736
11
214.489
21
-165.736
0
LINE
8
BLACK
6
CONTINUOUS
10
214.489
20
-165.736
11
214.584
21
-165.783
0
LINE
8
BLACK
6
CONTINUOUS
10
214.584
20
-165.783
11
214.632
21
-165.879
0
LINE
8
BLACK
6
CONTINUOUS
10
214.632
20
-165.879
11
214.632
21
-166.402
0
LINE
8
BLACK
6
CONTINUOUS
10
214.632
20
-165.879
11
214.679
21
-165.783
0
LINE
8
BLACK
6
CONTINUOUS
10
214.679
20
-165.783
11
214.775
21
-165.736
0
LINE
8
BLACK
6
CONTINUOUS
10
214.775
20
-165.736
11
214.917
21
-165.736
0
LINE
8
BLACK
6
CONTINUOUS
10
214.917
20
-165.736
11
215.013
21
-165.783
0
LINE
8
BLACK
6
CONTINUOUS
10
215.013
20
-165.783
11
215.06
21
-165.879
0
LINE
8
BLACK
6
CONTINUOUS
10
215.06
20
-165.879
11
215.06
21
-166.402
0
LINE
8
BLACK
6
CONTINUOUS
10
197.99
20
-164.65
11
223.94
21
-164.65
0
LINE
8
BLACK
6
CONTINUOUS
10
197.99
20
-164.552
11
197.99
21
-165.236
0
LINE
8
BLACK
6
CONTINUOUS
10
223.94
20
-164.552
11
223.94
21
-165.236
0
LINE
8
BLACK
6
CONTINUOUS
10
223.94
20
-164.65
11
222.813
21
-165.236
0
LINE
8
BLACK
6
CONTINUOUS
10
223.94
20
-164.65
11
222.813
21
-164.064
0
LINE
8
BLACK
6
CONTINUOUS
10
197.99
20
-164.65
11
199.117
21
-165.236
0
LINE
8
BLACK
6
CONTINUOUS
10
197.99
20
-164.65
11
199.117
21
-164.064
0
LINE
8
BLACK
6
CONTINUOUS
10
229.601
20
-162.246
11
229.553
21
-162.341
0
LINE
8
BLACK
6
CONTINUOUS
10
229.553
20
-162.341
11
229.506
21
-162.389
0
LINE
8
BLACK
6
CONTINUOUS
10
229.506
20
-162.389
11
229.41
21
-162.437
0
LINE
8
BLACK
6
CONTINUOUS
10
229.41
20
-162.437
11
229.363
21
-162.437
0
LINE
8
BLACK
6
CONTINUOUS
10
229.363
20
-162.437
11
229.268
21
-162.389
0
LINE
8
BLACK
6
CONTINUOUS
10
229.268
20
-162.389
11
229.22
21
-162.341
0
LINE
8
BLACK
6
CONTINUOUS
10
229.22
20
-162.341
11
229.172
21
-162.246
0
LINE
8
BLACK
6
CONTINUOUS
10
229.172
20
-162.246
11
229.172
21
-162.056
0
LINE
8
BLACK
6
CONTINUOUS
10
229.172
20
-162.056
11
229.22
21
-161.96
0
LINE
8
BLACK
6
CONTINUOUS
10
229.22
20
-161.96
11
229.268
21
-161.913
0
LINE
8
BLACK
6
CONTINUOUS
10
229.268
20
-161.913
11
229.363
21
-161.865
0
LINE
8
BLACK
6
CONTINUOUS
10
229.363
20
-161.865
11
229.41
21
-161.865
0
LINE
8
BLACK
6
CONTINUOUS
10
229.41
20
-161.865
11
229.506
21
-161.913
0
LINE
8
BLACK
6
CONTINUOUS
10
229.506
20
-161.913
11
229.553
21
-161.96
0
LINE
8
BLACK
6
CONTINUOUS
10
229.553
20
-161.96
11
229.601
21
-162.056
0
LINE
8
BLACK
6
CONTINUOUS
10
229.601
20
-162.056
11
229.601
21
-162.246
0
LINE
8
BLACK
6
CONTINUOUS
10
229.601
20
-162.246
11
229.649
21
-162.341
0
LINE
8
BLACK
6
CONTINUOUS
10
229.649
20
-162.341
11
229.696
21
-162.389
0
LINE
8
BLACK
6
CONTINUOUS
10
229.696
20
-162.389
11
229.791
21
-162.437
0
LINE
8
BLACK
6
CONTINUOUS
10
229.791
20
-162.437
11
229.982
21
-162.437
0
LINE
8
BLACK
6
CONTINUOUS
10
229.982
20
-162.437
11
230.077
21
-162.389
0
LINE
8
BLACK
6
CONTINUOUS
10
230.077
20
-162.389
11
230.125
21
-162.341
0
LINE
8
BLACK
6
CONTINUOUS
10
230.125
20
-162.341
11
230.172
21
-162.246
0
LINE
8
BLACK
6
CONTINUOUS
10
230.172
20
-162.246
11
230.172
21
-162.056
0
LINE
8
BLACK
6
CONTINUOUS
10
230.172
20
-162.056
11
230.125
21
-161.96
0
LINE
8
BLACK
6
CONTINUOUS
10
230.125
20
-161.96
11
230.077
21
-161.913
0
LINE
8
BLACK
6
CONTINUOUS
10
230.077
20
-161.913
11
229.982
21
-161.865
0
LINE
8
BLACK
6
CONTINUOUS
10
229.982
20
-161.865
11
229.791
21
-161.865
0
LINE
8
BLACK
6
CONTINUOUS
10
229.791
20
-161.865
11
229.696
21
-161.913
0
LINE
8
BLACK
6
CONTINUOUS
10
229.696
20
-161.913
11
229.649
21
-161.96
0
LINE
8
BLACK
6
CONTINUOUS
10
229.649
20
-161.96
11
229.601
21
-162.056
0
LINE
8
BLACK
6
CONTINUOUS
10
230.077
20
-161.437
11
230.125
21
-161.389
0
LINE
8
BLACK
6
CONTINUOUS
10
230.125
20
-161.389
11
230.172
21
-161.437
0
LINE
8
BLACK
6
CONTINUOUS
10
230.172
20
-161.437
11
230.125
21
-161.484
0
LINE
8
BLACK
6
CONTINUOUS
10
230.125
20
-161.484
11
230.077
21
-161.437
0
LINE
8
BLACK
6
CONTINUOUS
10
230.077
20
-161.437
11
230.172
21
-161.437
0
LINE
8
BLACK
6
CONTINUOUS
10
229.172
20
-160.484
11
229.172
21
-160.96
0
LINE
8
BLACK
6
CONTINUOUS
10
229.172
20
-160.96
11
229.649
21
-161.008
0
LINE
8
BLACK
6
CONTINUOUS
10
229.649
20
-161.008
11
229.601
21
-160.96
0
LINE
8
BLACK
6
CONTINUOUS
10
229.601
20
-160.96
11
229.553
21
-160.865
0
LINE
8
BLACK
6
CONTINUOUS
10
229.553
20
-160.865
11
229.553
21
-160.627
0
LINE
8
BLACK
6
CONTINUOUS
10
229.553
20
-160.627
11
229.601
21
-160.532
0
LINE
8
BLACK
6
CONTINUOUS
10
229.601
20
-160.532
11
229.649
21
-160.484
0
LINE
8
BLACK
6
CONTINUOUS
10
229.649
20
-160.484
11
229.744
21
-160.437
0
LINE
8
BLACK
6
CONTINUOUS
10
229.744
20
-160.437
11
229.982
21
-160.437
0
LINE
8
BLACK
6
CONTINUOUS
10
229.982
20
-160.437
11
230.077
21
-160.484
0
LINE
8
BLACK
6
CONTINUOUS
10
230.077
20
-160.484
11
230.125
21
-160.532
0
LINE
8
BLACK
6
CONTINUOUS
10
230.125
20
-160.532
11
230.172
21
-160.627
0
LINE
8
BLACK
6
CONTINUOUS
10
230.172
20
-160.627
11
230.172
21
-160.865
0
LINE
8
BLACK
6
CONTINUOUS
10
230.172
20
-160.865
11
230.125
21
-160.96
0
LINE
8
BLACK
6
CONTINUOUS
10
230.125
20
-160.96
11
230.077
21
-161.008
0
LINE
8
BLACK
6
CONTINUOUS
10
229.172
20
-159.532
11
229.172
21
-160.008
0
LINE
8
BLACK
6
CONTINUOUS
10
229.172
20
-160.008
11
229.649
21
-160.056
0
LINE
8
BLACK
6
CONTINUOUS
10
229.649
20
-160.056
11
229.601
21
-160.008
0
LINE
8
BLACK
6
CONTINUOUS
10
229.601
20
-160.008
11
229.553
21
-159.913
0
LINE
8
BLACK
6
CONTINUOUS
10
229.553
20
-159.913
11
229.553
21
-159.675
0
LINE
8
BLACK
6
CONTINUOUS
10
229.553
20
-159.675
11
229.601
21
-159.58
0
LINE
8
BLACK
6
CONTINUOUS
10
229.601
20
-159.58
11
229.649
21
-159.532
0
LINE
8
BLACK
6
CONTINUOUS
10
229.649
20
-159.532
11
229.744
21
-159.484
0
LINE
8
BLACK
6
CONTINUOUS
10
229.744
20
-159.484
11
229.982
21
-159.484
0
LINE
8
BLACK
6
CONTINUOUS
10
229.982
20
-159.484
11
230.077
21
-159.532
0
LINE
8
BLACK
6
CONTINUOUS
10
230.077
20
-159.532
11
230.125
21
-159.58
0
LINE
8
BLACK
6
CONTINUOUS
10
230.125
20
-159.58
11
230.172
21
-159.675
0
LINE
8
BLACK
6
CONTINUOUS
10
230.172
20
-159.675
11
230.172
21
-159.913
0
LINE
8
BLACK
6
CONTINUOUS
10
230.172
20
-159.913
11
230.125
21
-160.008
0
LINE
8
BLACK
6
CONTINUOUS
10
230.125
20
-160.008
11
230.077
21
-160.056
0
LINE
8
BLACK
6
CONTINUOUS
10
229.172
20
-158.58
11
229.172
21
-159.056
0
LINE
8
BLACK
6
CONTINUOUS
10
229.172
20
-159.056
11
229.649
21
-159.103
0
LINE
8
BLACK
6
CONTINUOUS
10
229.649
20
-159.103
11
229.601
21
-159.056
0
LINE
8
BLACK
6
CONTINUOUS
10
229.601
20
-159.056
11
229.553
21
-158.96
0
LINE
8
BLACK
6
CONTINUOUS
10
229.553
20
-158.96
11
229.553
21
-158.722
0
LINE
8
BLACK
6
CONTINUOUS
10
229.553
20
-158.722
11
229.601
21
-158.627
0
LINE
8
BLACK
6
CONTINUOUS
10
229.601
20
-158.627
11
229.649
21
-158.58
0
LINE
8
BLACK
6
CONTINUOUS
10
229.649
20
-158.58
11
229.744
21
-158.532
0
LINE
8
BLACK
6
CONTINUOUS
10
229.744
20
-158.532
11
229.982
21
-158.532
0
LINE
8
BLACK
6
CONTINUOUS
10
229.982
20
-158.532
11
230.077
21
-158.58
0
LINE
8
BLACK
6
CONTINUOUS
10
230.077
20
-158.58
11
230.125
21
-158.627
0
LINE
8
BLACK
6
CONTINUOUS
10
230.125
20
-158.627
11
230.172
21
-158.722
0
LINE
8
BLACK
6
CONTINUOUS
10
230.172
20
-158.722
11
230.172
21
-158.96
0
LINE
8
BLACK
6
CONTINUOUS
10
230.172
20
-158.96
11
230.125
21
-159.056
0
LINE
8
BLACK
6
CONTINUOUS
10
230.125
20
-159.056
11
230.077
21
-159.103
0
LINE
8
BLACK
6
CONTINUOUS
10
230.172
20
-157.341
11
229.506
21
-157.341
0
LINE
8
BLACK
6
CONTINUOUS
10
229.601
20
-157.341
11
229.553
21
-157.294
0
LINE
8
BLACK
6
CONTINUOUS
10
229.553
20
-157.294
11
229.506
21
-157.199
0
LINE
8
BLACK
6
CONTINUOUS
10
229.506
20
-157.199
11
229.506
21
-157.056
0
LINE
8
BLACK
6
CONTINUOUS
10
229.506
20
-157.056
11
229.553
21
-156.96
0
LINE
8
BLACK
6
CONTINUOUS
10
229.553
20
-156.96
11
229.649
21
-156.913
0
LINE
8
BLACK
6
CONTINUOUS
10
229.649
20
-156.913
11
230.172
21
-156.913
0
LINE
8
BLACK
6
CONTINUOUS
10
229.649
20
-156.913
11
229.553
21
-156.865
0
LINE
8
BLACK
6
CONTINUOUS
10
229.553
20
-156.865
11
229.506
21
-156.77
0
LINE
8
BLACK
6
CONTINUOUS
10
229.506
20
-156.77
11
229.506
21
-156.627
0
LINE
8
BLACK
6
CONTINUOUS
10
229.506
20
-156.627
11
229.553
21
-156.532
0
LINE
8
BLACK
6
CONTINUOUS
10
229.553
20
-156.532
11
229.649
21
-156.484
0
LINE
8
BLACK
6
CONTINUOUS
10
229.649
20
-156.484
11
230.172
21
-156.484
0
LINE
8
BLACK
6
CONTINUOUS
10
230.172
20
-156.008
11
229.506
21
-156.008
0
LINE
8
BLACK
6
CONTINUOUS
10
229.601
20
-156.008
11
229.553
21
-155.96
0
LINE
8
BLACK
6
CONTINUOUS
10
229.553
20
-155.96
11
229.506
21
-155.865
0
LINE
8
BLACK
6
CONTINUOUS
10
229.506
20
-155.865
11
229.506
21
-155.722
0
LINE
8
BLACK
6
CONTINUOUS
10
229.506
20
-155.722
11
229.553
21
-155.627
0
LINE
8
BLACK
6
CONTINUOUS
10
229.553
20
-155.627
11
229.649
21
-155.58
0
LINE
8
BLACK
6
CONTINUOUS
10
229.649
20
-155.58
11
230.172
21
-155.58
0
LINE
8
BLACK
6
CONTINUOUS
10
229.649
20
-155.58
11
229.553
21
-155.532
0
LINE
8
BLACK
6
CONTINUOUS
10
229.553
20
-155.532
11
229.506
21
-155.437
0
LINE
8
BLACK
6
CONTINUOUS
10
229.506
20
-155.437
11
229.506
21
-155.294
0
LINE
8
BLACK
6
CONTINUOUS
10
229.506
20
-155.294
11
229.553
21
-155.199
0
LINE
8
BLACK
6
CONTINUOUS
10
229.553
20
-155.199
11
229.649
21
-155.151
0
LINE
8
BLACK
6
CONTINUOUS
10
229.649
20
-155.151
11
230.172
21
-155.151
0
LINE
8
BLACK
6
CONTINUOUS
10
228.42
20
-154.493
11
228.42
21
-163.047
0
LINE
8
BLACK
6
CONTINUOUS
10
227.435
20
-154.493
11
229.006
21
-154.493
0
LINE
8
BLACK
6
CONTINUOUS
10
227.435
20
-163.047
11
229.006
21
-163.047
0
LINE
8
BLACK
6
CONTINUOUS
10
228.42
20
-163.047
11
227.834
21
-161.921
0
LINE
8
BLACK
6
CONTINUOUS
10
228.42
20
-163.047
11
229.006
21
-161.921
0
LINE
8
BLACK
6
CONTINUOUS
10
228.42
20
-154.493
11
227.834
21
-155.619
0
LINE
8
BLACK
6
CONTINUOUS
10
228.42
20
-154.493
11
229.006
21
-155.619
0
LINE
8
BLACK
6
CONTINUOUS
10
30.1145
20
-140.089
11
30.2257
21
-140.111
0
LINE
8
BLACK
6
CONTINUOUS
10
30.2257
20
-140.111
11
30.4352
21
-140.197
0
LINE
8
BLACK
6
CONTINUOUS
10
30.4352
20
-140.197
11
30.6237
21
-140.323
0
LINE
8
BLACK
6
CONTINUOUS
10
30.6237
20
-140.323
11
30.784
21
-140.484
0
LINE
8
BLACK
6
CONTINUOUS
10
30.784
20
-140.484
11
30.91
21
-140.672
0
LINE
8
BLACK
6
CONTINUOUS
10
30.91
20
-140.672
11
30.9968
21
-140.882
0
LINE
8
BLACK
6
CONTINUOUS
10
30.9968
20
-140.882
11
31.041
21
-141.104
0
LINE
8
BLACK
6
CONTINUOUS
10
31.041
20
-141.104
11
31.041
21
-141.331
0
LINE
8
BLACK
6
CONTINUOUS
10
31.041
20
-141.331
11
30.9968
21
-141.553
0
LINE
8
BLACK
6
CONTINUOUS
10
30.9968
20
-141.553
11
30.91
21
-141.763
0
LINE
8
BLACK
6
CONTINUOUS
10
30.91
20
-141.763
11
30.784
21
-141.951
0
LINE
8
BLACK
6
CONTINUOUS
10
30.784
20
-141.951
11
30.6237
21
-142.112
0
LINE
8
BLACK
6
CONTINUOUS
10
30.6237
20
-142.112
11
30.4352
21
-142.238
0
LINE
8
BLACK
6
CONTINUOUS
10
30.4352
20
-142.238
11
30.2257
21
-142.324
0
LINE
8
BLACK
6
CONTINUOUS
10
30.2257
20
-142.324
11
30.1145
21
-142.346
0
LINE
8
BLACK
6
CONTINUOUS
10
30.1145
20
-142.346
11
30.0034
21
-142.368
0
LINE
8
BLACK
6
CONTINUOUS
10
30.0034
20
-142.368
11
29.7766
21
-142.368
0
LINE
8
BLACK
6
CONTINUOUS
10
29.7766
20
-142.368
11
29.6655
21
-142.346
0
LINE
8
BLACK
6
CONTINUOUS
10
29.6655
20
-142.346
11
29.5543
21
-142.324
0
LINE
8
BLACK
6
CONTINUOUS
10
29.5543
20
-142.324
11
29.3448
21
-142.238
0
LINE
8
BLACK
6
CONTINUOUS
10
29.3448
20
-142.238
11
29.1563
21
-142.112
0
LINE
8
BLACK
6
CONTINUOUS
10
29.1563
20
-142.112
11
28.996
21
-141.951
0
LINE
8
BLACK
6
CONTINUOUS
10
28.996
20
-141.951
11
28.87
21
-141.763
0
LINE
8
BLACK
6
CONTINUOUS
10
28.87
20
-141.763
11
28.7832
21
-141.553
0
LINE
8
BLACK
6
CONTINUOUS
10
28.7832
20
-141.553
11
28.739
21
-141.331
0
LINE
8
BLACK
6
CONTINUOUS
10
28.739
20
-141.331
11
28.739
21
-141.104
0
LINE
8
BLACK
6
CONTINUOUS
10
28.739
20
-141.104
11
28.7832
21
-140.882
0
LINE
8
BLACK
6
CONTINUOUS
10
28.7832
20
-140.882
11
28.87
21
-140.672
0
LINE
8
BLACK
6
CONTINUOUS
10
28.87
20
-140.672
11
28.996
21
-140.484
0
LINE
8
BLACK
6
CONTINUOUS
10
28.996
20
-140.484
11
29.1563
21
-140.323
0
LINE
8
BLACK
6
CONTINUOUS
10
29.1563
20
-140.323
11
29.3448
21
-140.197
0
LINE
8
BLACK
6
CONTINUOUS
10
29.3448
20
-140.197
11
29.5543
21
-140.111
0
LINE
8
BLACK
6
CONTINUOUS
10
29.5543
20
-140.111
11
29.6655
21
-140.089
0
LINE
8
BLACK
6
CONTINUOUS
10
29.6655
20
-140.089
11
29.7766
21
-140.066
0
LINE
8
BLACK
6
CONTINUOUS
10
29.7766
20
-140.066
11
30.0034
21
-140.066
0
LINE
8
BLACK
6
CONTINUOUS
10
30.0034
20
-140.066
11
30.1145
21
-140.089
0
LINE
8
BLACK
6
CONTINUOUS
10
182.595
20
-129.889
11
182.706
21
-129.911
0
LINE
8
BLACK
6
CONTINUOUS
10
182.706
20
-129.911
11
182.915
21
-129.997
0
LINE
8
BLACK
6
CONTINUOUS
10
182.915
20
-129.997
11
183.104
21
-130.123
0
LINE
8
BLACK
6
CONTINUOUS
10
183.104
20
-130.123
11
183.264
21
-130.284
0
LINE
8
BLACK
6
CONTINUOUS
10
183.264
20
-130.284
11
183.39
21
-130.472
0
LINE
8
BLACK
6
CONTINUOUS
10
183.39
20
-130.472
11
183.477
21
-130.682
0
LINE
8
BLACK
6
CONTINUOUS
10
183.477
20
-130.682
11
183.521
21
-130.904
0
LINE
8
BLACK
6
CONTINUOUS
10
183.521
20
-130.904
11
183.521
21
-131.131
0
LINE
8
BLACK
6
CONTINUOUS
10
183.521
20
-131.131
11
183.477
21
-131.353
0
LINE
8
BLACK
6
CONTINUOUS
10
183.477
20
-131.353
11
183.39
21
-131.563
0
LINE
8
BLACK
6
CONTINUOUS
10
183.39
20
-131.563
11
183.264
21
-131.751
0
LINE
8
BLACK
6
CONTINUOUS
10
183.264
20
-131.751
11
183.104
21
-131.912
0
LINE
8
BLACK
6
CONTINUOUS
10
183.104
20
-131.912
11
182.915
21
-132.038
0
LINE
8
BLACK
6
CONTINUOUS
10
182.915
20
-132.038
11
182.706
21
-132.124
0
LINE
8
BLACK
6
CONTINUOUS
10
182.706
20
-132.124
11
182.595
21
-132.146
0
LINE
8
BLACK
6
CONTINUOUS
10
182.595
20
-132.146
11
182.483
21
-132.168
0
LINE
8
BLACK
6
CONTINUOUS
10
182.483
20
-132.168
11
182.257
21
-132.168
0
LINE
8
BLACK
6
CONTINUOUS
10
182.257
20
-132.168
11
182.145
21
-132.146
0
LINE
8
BLACK
6
CONTINUOUS
10
182.145
20
-132.146
11
182.034
21
-132.124
0
LINE
8
BLACK
6
CONTINUOUS
10
182.034
20
-132.124
11
181.825
21
-132.038
0
LINE
8
BLACK
6
CONTINUOUS
10
181.825
20
-132.038
11
181.636
21
-131.912
0
LINE
8
BLACK
6
CONTINUOUS
10
181.636
20
-131.912
11
181.476
21
-131.751
0
LINE
8
BLACK
6
CONTINUOUS
10
181.476
20
-131.751
11
181.35
21
-131.563
0
LINE
8
BLACK
6
CONTINUOUS
10
181.35
20
-131.563
11
181.263
21
-131.353
0
LINE
8
BLACK
6
CONTINUOUS
10
181.263
20
-131.353
11
181.219
21
-131.131
0
LINE
8
BLACK
6
CONTINUOUS
10
181.219
20
-131.131
11
181.219
21
-130.904
0
LINE
8
BLACK
6
CONTINUOUS
10
181.219
20
-130.904
11
181.263
21
-130.682
0
LINE
8
BLACK
6
CONTINUOUS
10
181.263
20
-130.682
11
181.35
21
-130.472
0
LINE
8
BLACK
6
CONTINUOUS
10
181.35
20
-130.472
11
181.476
21
-130.284
0
LINE
8
BLACK
6
CONTINUOUS
10
181.476
20
-130.284
11
181.636
21
-130.123
0
LINE
8
BLACK
6
CONTINUOUS
10
181.636
20
-130.123
11
181.825
21
-129.997
0
LINE
8
BLACK
6
CONTINUOUS
10
181.825
20
-129.997
11
182.034
21
-129.911
0
LINE
8
BLACK
6
CONTINUOUS
10
182.034
20
-129.911
11
182.145
21
-129.889
0
LINE
8
BLACK
6
CONTINUOUS
10
182.145
20
-129.889
11
182.257
21
-129.867
0
LINE
8
BLACK
6
CONTINUOUS
10
182.257
20
-129.867
11
182.483
21
-129.867
0
LINE
8
BLACK
6
CONTINUOUS
10
182.483
20
-129.867
11
182.595
21
-129.889
0
LINE
8
BLACK
6
CONTINUOUS
10
54.502
20
-129.889
11
54.6132
21
-129.911
0
LINE
8
BLACK
6
CONTINUOUS
10
54.6132
20
-129.911
11
54.8227
21
-129.997
0
LINE
8
BLACK
6
CONTINUOUS
10
54.8227
20
-129.997
11
55.0112
21
-130.123
0
LINE
8
BLACK
6
CONTINUOUS
10
55.0112
20
-130.123
11
55.1715
21
-130.284
0
LINE
8
BLACK
6
CONTINUOUS
10
55.1715
20
-130.284
11
55.2975
21
-130.472
0
LINE
8
BLACK
6
CONTINUOUS
10
55.2975
20
-130.472
11
55.3843
21
-130.682
0
LINE
8
BLACK
6
CONTINUOUS
10
55.3843
20
-130.682
11
55.4285
21
-130.904
0
LINE
8
BLACK
6
CONTINUOUS
10
55.4285
20
-130.904
11
55.4285
21
-131.131
0
LINE
8
BLACK
6
CONTINUOUS
10
55.4285
20
-131.131
11
55.3843
21
-131.353
0
LINE
8
BLACK
6
CONTINUOUS
10
55.3843
20
-131.353
11
55.2975
21
-131.563
0
LINE
8
BLACK
6
CONTINUOUS
10
55.2975
20
-131.563
11
55.1715
21
-131.751
0
LINE
8
BLACK
6
CONTINUOUS
10
55.1715
20
-131.751
11
55.0112
21
-131.912
0
LINE
8
BLACK
6
CONTINUOUS
10
55.0112
20
-131.912
11
54.8227
21
-132.038
0
LINE
8
BLACK
6
CONTINUOUS
10
54.8227
20
-132.038
11
54.6132
21
-132.124
0
LINE
8
BLACK
6
CONTINUOUS
10
54.6132
20
-132.124
11
54.502
21
-132.146
0
LINE
8
BLACK
6
CONTINUOUS
10
54.502
20
-132.146
11
54.3909
21
-132.168
0
LINE
8
BLACK
6
CONTINUOUS
10
54.3909
20
-132.168
11
54.1641
21
-132.168
0
LINE
8
BLACK
6
CONTINUOUS
10
54.1641
20
-132.168
11
54.053
21
-132.146
0
LINE
8
BLACK
6
CONTINUOUS
10
54.053
20
-132.146
11
53.9418
21
-132.124
0
LINE
8
BLACK
6
CONTINUOUS
10
53.9418
20
-132.124
11
53.7323
21
-132.038
0
LINE
8
BLACK
6
CONTINUOUS
10
53.7323
20
-132.038
11
53.5438
21
-131.912
0
LINE
8
BLACK
6
CONTINUOUS
10
53.5438
20
-131.912
11
53.3835
21
-131.751
0
LINE
8
BLACK
6
CONTINUOUS
10
53.3835
20
-131.751
11
53.2575
21
-131.563
0
LINE
8
BLACK
6
CONTINUOUS
10
53.2575
20
-131.563
11
53.1707
21
-131.353
0
LINE
8
BLACK
6
CONTINUOUS
10
53.1707
20
-131.353
11
53.1265
21
-131.131
0
LINE
8
BLACK
6
CONTINUOUS
10
53.1265
20
-131.131
11
53.1265
21
-130.904
0
LINE
8
BLACK
6
CONTINUOUS
10
53.1265
20
-130.904
11
53.1707
21
-130.682
0
LINE
8
BLACK
6
CONTINUOUS
10
53.1707
20
-130.682
11
53.2575
21
-130.472
0
LINE
8
BLACK
6
CONTINUOUS
10
53.2575
20
-130.472
11
53.3835
21
-130.284
0
LINE
8
BLACK
6
CONTINUOUS
10
53.3835
20
-130.284
11
53.5438
21
-130.123
0
LINE
8
BLACK
6
CONTINUOUS
10
53.5438
20
-130.123
11
53.7323
21
-129.997
0
LINE
8
BLACK
6
CONTINUOUS
10
53.7323
20
-129.997
11
53.9418
21
-129.911
0
LINE
8
BLACK
6
CONTINUOUS
10
53.9418
20
-129.911
11
54.053
21
-129.889
0
LINE
8
BLACK
6
CONTINUOUS
10
54.053
20
-129.889
11
54.1641
21
-129.867
0
LINE
8
BLACK
6
CONTINUOUS
10
54.1641
20
-129.867
11
54.3909
21
-129.867
0
LINE
8
BLACK
6
CONTINUOUS
10
54.3909
20
-129.867
11
54.502
21
-129.889
0
LINE
8
BLACK
6
CONTINUOUS
10
119.415
20
-95.7886
11
119.526
21
-95.8107
0
LINE
8
BLACK
6
CONTINUOUS
10
119.526
20
-95.8107
11
119.735
21
-95.8975
0
LINE
8
BLACK
6
CONTINUOUS
10
119.735
20
-95.8975
11
119.924
21
-96.0235
0
LINE
8
BLACK
6
CONTINUOUS
10
119.924
20
-96.0235
11
120.084
21
-96.1838
0
LINE
8
BLACK
6
CONTINUOUS
10
120.084
20
-96.1838
11
120.21
21
-96.3723
0
LINE
8
BLACK
6
CONTINUOUS
10
120.21
20
-96.3723
11
120.297
21
-96.5818
0
LINE
8
BLACK
6
CONTINUOUS
10
120.297
20
-96.5818
11
120.341
21
-96.8041
0
LINE
8
BLACK
6
CONTINUOUS
10
120.341
20
-96.8041
11
120.341
21
-97.0309
0
LINE
8
BLACK
6
CONTINUOUS
10
120.341
20
-97.0309
11
120.297
21
-97.2532
0
LINE
8
BLACK
6
CONTINUOUS
10
120.297
20
-97.2532
11
120.21
21
-97.4627
0
LINE
8
BLACK
6
CONTINUOUS
10
120.21
20
-97.4627
11
120.084
21
-97.6512
0
LINE
8
BLACK
6
CONTINUOUS
10
120.084
20
-97.6512
11
119.924
21
-97.8115
0
LINE
8
BLACK
6
CONTINUOUS
10
119.924
20
-97.8115
11
119.735
21
-97.9375
0
LINE
8
BLACK
6
CONTINUOUS
10
119.735
20
-97.9375
11
119.526
21
-98.0243
0
LINE
8
BLACK
6
CONTINUOUS
10
119.526
20
-98.0243
11
119.415
21
-98.0464
0
LINE
8
BLACK
6
CONTINUOUS
10
119.415
20
-98.0464
11
119.303
21
-98.0685
0
LINE
8
BLACK
6
CONTINUOUS
10
119.303
20
-98.0685
11
119.077
21
-98.0685
0
LINE
8
BLACK
6
CONTINUOUS
10
119.077
20
-98.0685
11
118.965
21
-98.0464
0
LINE
8
BLACK
6
CONTINUOUS
10
118.965
20
-98.0464
11
118.854
21
-98.0243
0
LINE
8
BLACK
6
CONTINUOUS
10
118.854
20
-98.0243
11
118.645
21
-97.9375
0
LINE
8
BLACK
6
CONTINUOUS
10
118.645
20
-97.9375
11
118.456
21
-97.8115
0
LINE
8
BLACK
6
CONTINUOUS
10
118.456
20
-97.8115
11
118.296
21
-97.6512
0
LINE
8
BLACK
6
CONTINUOUS
10
118.296
20
-97.6512
11
118.17
21
-97.4627
0
LINE
8
BLACK
6
CONTINUOUS
10
118.17
20
-97.4627
11
118.083
21
-97.2532
0
LINE
8
BLACK
6
CONTINUOUS
10
118.083
20
-97.2532
11
118.039
21
-97.0309
0
LINE
8
BLACK
6
CONTINUOUS
10
118.039
20
-97.0309
11
118.039
21
-96.8041
0
LINE
8
BLACK
6
CONTINUOUS
10
118.039
20
-96.8041
11
118.083
21
-96.5818
0
LINE
8
BLACK
6
CONTINUOUS
10
118.083
20
-96.5818
11
118.17
21
-96.3723
0
LINE
8
BLACK
6
CONTINUOUS
10
118.17
20
-96.3723
11
118.296
21
-96.1838
0
LINE
8
BLACK
6
CONTINUOUS
10
118.296
20
-96.1838
11
118.456
21
-96.0235
0
LINE
8
BLACK
6
CONTINUOUS
10
118.456
20
-96.0235
11
118.645
21
-95.8975
0
LINE
8
BLACK
6
CONTINUOUS
10
118.645
20
-95.8975
11
118.854
21
-95.8107
0
LINE
8
BLACK
6
CONTINUOUS
10
118.854
20
-95.8107
11
118.965
21
-95.7886
0
LINE
8
BLACK
6
CONTINUOUS
10
118.965
20
-95.7886
11
119.077
21
-95.7665
0
LINE
8
BLACK
6
CONTINUOUS
10
119.077
20
-95.7665
11
119.303
21
-95.7665
0
LINE
8
BLACK
6
CONTINUOUS
10
119.303
20
-95.7665
11
119.415
21
-95.7886
0
LINE
8
BLACK
6
CONTINUOUS
10
52.7395
20
-58.0886
11
52.8507
21
-58.1107
0
LINE
8
BLACK
6
CONTINUOUS
10
52.8507
20
-58.1107
11
53.0602
21
-58.1975
0
LINE
8
BLACK
6
CONTINUOUS
10
53.0602
20
-58.1975
11
53.2487
21
-58.3235
0
LINE
8
BLACK
6
CONTINUOUS
10
53.2487
20
-58.3235
11
53.409
21
-58.4838
0
LINE
8
BLACK
6
CONTINUOUS
10
53.409
20
-58.4838
11
53.535
21
-58.6723
0
LINE
8
BLACK
6
CONTINUOUS
10
53.535
20
-58.6723
11
53.6218
21
-58.8818
0
LINE
8
BLACK
6
CONTINUOUS
10
53.6218
20
-58.8818
11
53.6439
21
-58.993
0
LINE
8
BLACK
6
CONTINUOUS
10
53.6439
20
-58.993
11
53.666
21
-59.1041
0
LINE
8
BLACK
6
CONTINUOUS
10
53.666
20
-59.1041
11
53.666
21
-59.3309
0
LINE
8
BLACK
6
CONTINUOUS
10
53.666
20
-59.3309
11
53.6439
21
-59.442
0
LINE
8
BLACK
6
CONTINUOUS
10
53.6439
20
-59.442
11
53.6218
21
-59.5532
0
LINE
8
BLACK
6
CONTINUOUS
10
53.6218
20
-59.5532
11
53.5604
21
-59.7013
0
LINE
8
BLACK
6
CONTINUOUS
10
53.5604
20
-59.7013
11
53.5398
21
-59.7512
0
LINE
8
BLACK
6
CONTINUOUS
10
53.5398
20
-59.7512
11
53.535
21
-59.7627
0
LINE
8
BLACK
6
CONTINUOUS
10
53.535
20
-59.7627
11
53.409
21
-59.9512
0
LINE
8
BLACK
6
CONTINUOUS
10
53.409
20
-59.9512
11
53.2487
21
-60.1115
0
LINE
8
BLACK
6
CONTINUOUS
10
53.2487
20
-60.1115
11
53.0602
21
-60.2375
0
LINE
8
BLACK
6
CONTINUOUS
10
53.0602
20
-60.2375
11
52.8507
21
-60.3243
0
LINE
8
BLACK
6
CONTINUOUS
10
52.8507
20
-60.3243
11
52.7395
21
-60.3464
0
LINE
8
BLACK
6
CONTINUOUS
10
52.7395
20
-60.3464
11
52.6284
21
-60.3685
0
LINE
8
BLACK
6
CONTINUOUS
10
52.6284
20
-60.3685
11
52.4016
21
-60.3685
0
LINE
8
BLACK
6
CONTINUOUS
10
52.4016
20
-60.3685
11
52.2905
21
-60.3464
0
LINE
8
BLACK
6
CONTINUOUS
10
52.2905
20
-60.3464
11
52.1793
21
-60.3243
0
LINE
8
BLACK
6
CONTINUOUS
10
52.1793
20
-60.3243
11
51.9698
21
-60.2375
0
LINE
8
BLACK
6
CONTINUOUS
10
51.9698
20
-60.2375
11
51.7813
21
-60.1115
0
LINE
8
BLACK
6
CONTINUOUS
10
51.7813
20
-60.1115
11
51.621
21
-59.9512
0
LINE
8
BLACK
6
CONTINUOUS
10
51.621
20
-59.9512
11
51.495
21
-59.7627
0
LINE
8
BLACK
6
CONTINUOUS
10
51.495
20
-59.7627
11
51.4902
21
-59.7512
0
LINE
8
BLACK
6
CONTINUOUS
10
51.4902
20
-59.7512
11
51.4696
21
-59.7013
0
LINE
8
BLACK
6
CONTINUOUS
10
51.4696
20
-59.7013
11
51.4082
21
-59.5532
0
LINE
8
BLACK
6
CONTINUOUS
10
51.4082
20
-59.5532
11
51.3861
21
-59.442
0
LINE
8
BLACK
6
CONTINUOUS
10
51.3861
20
-59.442
11
51.364
21
-59.3309
0
LINE
8
BLACK
6
CONTINUOUS
10
51.364
20
-59.3309
11
51.364
21
-59.1041
0
LINE
8
BLACK
6
CONTINUOUS
10
51.364
20
-59.1041
11
51.3861
21
-58.993
0
LINE
8
BLACK
6
CONTINUOUS
10
51.3861
20
-58.993
11
51.4082
21
-58.8818
0
LINE
8
BLACK
6
CONTINUOUS
10
51.4082
20
-58.8818
11
51.495
21
-58.6723
0
LINE
8
BLACK
6
CONTINUOUS
10
51.495
20
-58.6723
11
51.621
21
-58.4838
0
LINE
8
BLACK
6
CONTINUOUS
10
51.621
20
-58.4838
11
51.7813
21
-58.3235
0
LINE
8
BLACK
6
CONTINUOUS
10
51.7813
20
-58.3235
11
51.9698
21
-58.1975
0
LINE
8
BLACK
6
CONTINUOUS
10
51.9698
20
-58.1975
11
52.1793
21
-58.1107
0
LINE
8
BLACK
6
CONTINUOUS
10
52.1793
20
-58.1107
11
52.2905
21
-58.0886
0
LINE
8
BLACK
6
CONTINUOUS
10
52.2905
20
-58.0886
11
52.4016
21
-58.0665
0
LINE
8
BLACK
6
CONTINUOUS
10
52.4016
20
-58.0665
11
52.6284
21
-58.0665
0
LINE
8
BLACK
6
CONTINUOUS
10
52.6284
20
-58.0665
11
52.7395
21
-58.0886
0
LINE
8
BLACK
6
CONTINUOUS
10
205.115
20
-57.8886
11
205.226
21
-57.9107
0
LINE
8
BLACK
6
CONTINUOUS
10
205.226
20
-57.9107
11
205.435
21
-57.9975
0
LINE
8
BLACK
6
CONTINUOUS
10
205.435
20
-57.9975
11
205.624
21
-58.1235
0
LINE
8
BLACK
6
CONTINUOUS
10
205.624
20
-58.1235
11
205.784
21
-58.2838
0
LINE
8
BLACK
6
CONTINUOUS
10
205.784
20
-58.2838
11
205.811
21
-58.3235
0
LINE
8
BLACK
6
CONTINUOUS
10
205.811
20
-58.3235
11
205.91
21
-58.4723
0
LINE
8
BLACK
6
CONTINUOUS
10
205.91
20
-58.4723
11
205.915
21
-58.4838
0
LINE
8
BLACK
6
CONTINUOUS
10
205.915
20
-58.4838
11
205.993
21
-58.6723
0
LINE
8
BLACK
6
CONTINUOUS
10
205.993
20
-58.6723
11
205.997
21
-58.6818
0
LINE
8
BLACK
6
CONTINUOUS
10
205.997
20
-58.6818
11
206.037
21
-58.8818
0
LINE
8
BLACK
6
CONTINUOUS
10
206.037
20
-58.8818
11
206.041
21
-58.9041
0
LINE
8
BLACK
6
CONTINUOUS
10
206.041
20
-58.9041
11
206.041
21
-59.1309
0
LINE
8
BLACK
6
CONTINUOUS
10
206.041
20
-59.1309
11
205.997
21
-59.3532
0
LINE
8
BLACK
6
CONTINUOUS
10
205.997
20
-59.3532
11
205.91
21
-59.5627
0
LINE
8
BLACK
6
CONTINUOUS
10
205.91
20
-59.5627
11
205.784
21
-59.7512
0
LINE
8
BLACK
6
CONTINUOUS
10
205.784
20
-59.7512
11
205.624
21
-59.9115
0
LINE
8
BLACK
6
CONTINUOUS
10
205.624
20
-59.9115
11
205.435
21
-60.0375
0
LINE
8
BLACK
6
CONTINUOUS
10
205.435
20
-60.0375
11
205.226
21
-60.1243
0
LINE
8
BLACK
6
CONTINUOUS
10
205.226
20
-60.1243
11
205.115
21
-60.1464
0
LINE
8
BLACK
6
CONTINUOUS
10
205.115
20
-60.1464
11
205.003
21
-60.1685
0
LINE
8
BLACK
6
CONTINUOUS
10
205.003
20
-60.1685
11
204.777
21
-60.1685
0
LINE
8
BLACK
6
CONTINUOUS
10
204.777
20
-60.1685
11
204.665
21
-60.1464
0
LINE
8
BLACK
6
CONTINUOUS
10
204.665
20
-60.1464
11
204.554
21
-60.1243
0
LINE
8
BLACK
6
CONTINUOUS
10
204.554
20
-60.1243
11
204.345
21
-60.0375
0
LINE
8
BLACK
6
CONTINUOUS
10
204.345
20
-60.0375
11
204.156
21
-59.9115
0
LINE
8
BLACK
6
CONTINUOUS
10
204.156
20
-59.9115
11
203.996
21
-59.7512
0
LINE
8
BLACK
6
CONTINUOUS
10
203.996
20
-59.7512
11
203.87
21
-59.5627
0
LINE
8
BLACK
6
CONTINUOUS
10
203.87
20
-59.5627
11
203.783
21
-59.3532
0
LINE
8
BLACK
6
CONTINUOUS
10
203.783
20
-59.3532
11
203.739
21
-59.1309
0
LINE
8
BLACK
6
CONTINUOUS
10
203.739
20
-59.1309
11
203.739
21
-58.9041
0
LINE
8
BLACK
6
CONTINUOUS
10
203.739
20
-58.9041
11
203.743
21
-58.8818
0
LINE
8
BLACK
6
CONTINUOUS
10
203.743
20
-58.8818
11
203.783
21
-58.6818
0
LINE
8
BLACK
6
CONTINUOUS
10
203.783
20
-58.6818
11
203.787
21
-58.6723
0
LINE
8
BLACK
6
CONTINUOUS
10
203.787
20
-58.6723
11
203.865
21
-58.4838
0
LINE
8
BLACK
6
CONTINUOUS
10
203.865
20
-58.4838
11
203.87
21
-58.4723
0
LINE
8
BLACK
6
CONTINUOUS
10
203.87
20
-58.4723
11
203.969
21
-58.3235
0
LINE
8
BLACK
6
CONTINUOUS
10
203.969
20
-58.3235
11
203.996
21
-58.2838
0
LINE
8
BLACK
6
CONTINUOUS
10
203.996
20
-58.2838
11
204.156
21
-58.1235
0
LINE
8
BLACK
6
CONTINUOUS
10
204.156
20
-58.1235
11
204.345
21
-57.9975
0
LINE
8
BLACK
6
CONTINUOUS
10
204.345
20
-57.9975
11
204.554
21
-57.9107
0
LINE
8
BLACK
6
CONTINUOUS
10
204.554
20
-57.9107
11
204.665
21
-57.8886
0
LINE
8
BLACK
6
CONTINUOUS
10
204.665
20
-57.8886
11
204.777
21
-57.8665
0
LINE
8
BLACK
6
CONTINUOUS
10
204.777
20
-57.8665
11
205.003
21
-57.8665
0
LINE
8
BLACK
6
CONTINUOUS
10
205.003
20
-57.8665
11
205.115
21
-57.8886
  0
ENDSEC
  0
EOF
