  0
SECTION
  2
HEADER
  9
$ANGBASE
  50
0.0
  9
$ANGDIR
  70
1
  9
$MEASUREMENT
  70
1
  0
ENDSEC
  0
SECTION
  2
TABLES
  0
TABLE
  2
LTYPE
  70
4
  0
LTYPE
  5
40F
  2
CONTINUOUS
  70
0
  3
Solid line
  72
65
  73
0
  40
0.0
  0
LTYPE
  5
410
  2
DASHDOT
 70
0
  3
Dash Dot ____ _ ____ _
 72
65
 73
4
 40
2.0
 49
1.25
 49
-0.25
 49
0.25
 49
-0.25
  0
LTYPE
  5
411
  2
DASHED
 70
0
  3
Dashed __ __ __ __ __
 72
65
 73
2
 40
0.75
 49
0.5
 49
-0.25
  0
LTYPE
  5
43B
  2
DOTTED
 70
0
  3
Dotted .  .  .  .
 72
65
 73
2
 40
0.2
 49
0.0
 49
-0.2
  0
ENDTAB
  0
TABLE
  2
STYLE
  70
4
  0
STYLE
  2
KICAD
  70
0
  40
0
  41
1
  42
1
  50
0
  71
0
  3
isocp.shx
  0
STYLE
  2
KICADB
  70
0
  40
0
  41
1
  42
1
  50
0
  71
0
  3
isocp.shx
  0
STYLE
  2
KICADI
  70
0
  40
0
  41
1
  42
1
  50
15
  71
0
  3
isocp.shx
  0
STYLE
  2
KICADBI
  70
0
  40
0
  41
1
  42
1
  50
15
  71
0
  3
isocp.shx
  0
ENDTAB
  0
TABLE
  2
LAYER
  70
1
  0
LAYER
  2
BLACK
  70
0
  62
7
  6
CONTINUOUS
  0
ENDTAB
  0
ENDSEC
  0
SECTION
  2
ENTITIES
0
ARC
8
BLACK
10
243.725
20
-114.285
40
0.525856
50
-93.2705
51
-3.27049
0
ARC
8
BLACK
10
219.325
20
7.52
40
0.525856
50
86.7295
51
176.73
0
ARC
8
BLACK
10
233.285
20
-114.285
40
0.525856
50
-183.27
51
-93.2705
0
LINE
8
BLACK
6
CONTINUOUS
10
188.8
20
7.55
11
188.8
21
-114.255
0
LINE
8
BLACK
6
CONTINUOUS
10
199.55
20
-114.315
11
199.55
21
-97.755
0
LINE
8
BLACK
6
CONTINUOUS
10
200.105
20
-97.26
11
214.25
21
-97.26
0
ARC
8
BLACK
10
189.325
20
7.52
40
0.525856
50
86.7295
51
176.73
0
LINE
8
BLACK
6
CONTINUOUS
10
237.335
20
7.49
11
237.335
21
-83.98
0
LINE
8
BLACK
6
CONTINUOUS
10
219.355
20
8.045
11
236.84
21
8.045
0
LINE
8
BLACK
6
CONTINUOUS
10
207.335
20
-83.98
11
214.25
21
-97.26
0
LINE
8
BLACK
6
CONTINUOUS
10
198.995
20
-114.81
11
189.295
21
-114.81
0
LINE
8
BLACK
6
CONTINUOUS
10
218.8
20
7.55
11
218.8
21
-96.705
0
ARC
8
BLACK
10
199.025
20
-114.285
40
0.525856
50
-93.2705
51
-3.27049
0
LINE
8
BLACK
6
CONTINUOUS
10
219.295
20
-97.26
11
232.265
21
-97.26
0
ARC
8
BLACK
10
236.81
20
7.52
40
0.525856
50
-3.27049
51
86.7295
0
LINE
8
BLACK
6
CONTINUOUS
10
232.76
20
-114.255
11
232.76
21
-97.815
0
ARC
8
BLACK
10
219.325
20
-96.735
40
0.525856
50
-183.27
51
-93.2705
0
ARC
8
BLACK
10
189.325
20
-114.285
40
0.525856
50
-183.27
51
-93.2705
0
ARC
8
BLACK
10
206.81
20
7.52
40
0.525856
50
-3.27049
51
86.7295
0
ARC
8
BLACK
10
200.075
20
-97.785
40
0.525856
50
86.7295
51
176.73
0
LINE
8
BLACK
6
CONTINUOUS
10
189.355
20
8.045
11
206.84
21
8.045
0
LINE
8
BLACK
6
CONTINUOUS
10
244.25
20
-114.315
11
244.25
21
-97.26
0
ARC
8
BLACK
10
232.235
20
-97.785
40
0.525856
50
-3.27044
51
86.7295
0
LINE
8
BLACK
6
CONTINUOUS
10
243.695
20
-114.81
11
233.255
21
-114.81
0
LINE
8
BLACK
6
CONTINUOUS
10
234.934
20
-119.882
11
234.362
21
-119.882
0
LINE
8
BLACK
6
CONTINUOUS
10
234.648
20
-119.882
11
234.648
21
-118.882
0
LINE
8
BLACK
6
CONTINUOUS
10
234.648
20
-118.882
11
234.553
21
-119.025
0
LINE
8
BLACK
6
CONTINUOUS
10
234.553
20
-119.025
11
234.457
21
-119.12
0
LINE
8
BLACK
6
CONTINUOUS
10
234.457
20
-119.12
11
234.362
21
-119.168
0
LINE
8
BLACK
6
CONTINUOUS
10
235.886
20
-119.882
11
235.315
21
-119.882
0
LINE
8
BLACK
6
CONTINUOUS
10
235.6
20
-119.882
11
235.6
21
-118.882
0
LINE
8
BLACK
6
CONTINUOUS
10
235.6
20
-118.882
11
235.505
21
-119.025
0
LINE
8
BLACK
6
CONTINUOUS
10
235.505
20
-119.025
11
235.41
21
-119.12
0
LINE
8
BLACK
6
CONTINUOUS
10
235.41
20
-119.12
11
235.315
21
-119.168
0
LINE
8
BLACK
6
CONTINUOUS
10
236.315
20
-119.787
11
236.362
21
-119.835
0
LINE
8
BLACK
6
CONTINUOUS
10
236.362
20
-119.835
11
236.315
21
-119.882
0
LINE
8
BLACK
6
CONTINUOUS
10
236.315
20
-119.882
11
236.267
21
-119.835
0
LINE
8
BLACK
6
CONTINUOUS
10
236.267
20
-119.835
11
236.315
21
-119.787
0
LINE
8
BLACK
6
CONTINUOUS
10
236.315
20
-119.787
11
236.315
21
-119.882
0
LINE
8
BLACK
6
CONTINUOUS
10
237.219
20
-119.216
11
237.219
21
-119.882
0
LINE
8
BLACK
6
CONTINUOUS
10
236.981
20
-118.835
11
236.743
21
-119.549
0
LINE
8
BLACK
6
CONTINUOUS
10
236.743
20
-119.549
11
237.362
21
-119.549
0
LINE
8
BLACK
6
CONTINUOUS
10
237.791
20
-119.882
11
237.981
21
-119.882
0
LINE
8
BLACK
6
CONTINUOUS
10
237.981
20
-119.882
11
238.076
21
-119.835
0
LINE
8
BLACK
6
CONTINUOUS
10
238.076
20
-119.835
11
238.124
21
-119.787
0
LINE
8
BLACK
6
CONTINUOUS
10
238.124
20
-119.787
11
238.219
21
-119.644
0
LINE
8
BLACK
6
CONTINUOUS
10
238.219
20
-119.644
11
238.267
21
-119.454
0
LINE
8
BLACK
6
CONTINUOUS
10
238.267
20
-119.454
11
238.267
21
-119.073
0
LINE
8
BLACK
6
CONTINUOUS
10
238.267
20
-119.073
11
238.219
21
-118.978
0
LINE
8
BLACK
6
CONTINUOUS
10
238.219
20
-118.978
11
238.172
21
-118.93
0
LINE
8
BLACK
6
CONTINUOUS
10
238.172
20
-118.93
11
238.076
21
-118.882
0
LINE
8
BLACK
6
CONTINUOUS
10
238.076
20
-118.882
11
237.886
21
-118.882
0
LINE
8
BLACK
6
CONTINUOUS
10
237.886
20
-118.882
11
237.791
21
-118.93
0
LINE
8
BLACK
6
CONTINUOUS
10
237.791
20
-118.93
11
237.743
21
-118.978
0
LINE
8
BLACK
6
CONTINUOUS
10
237.743
20
-118.978
11
237.695
21
-119.073
0
LINE
8
BLACK
6
CONTINUOUS
10
237.695
20
-119.073
11
237.695
21
-119.311
0
LINE
8
BLACK
6
CONTINUOUS
10
237.695
20
-119.311
11
237.743
21
-119.406
0
LINE
8
BLACK
6
CONTINUOUS
10
237.743
20
-119.406
11
237.791
21
-119.454
0
LINE
8
BLACK
6
CONTINUOUS
10
237.791
20
-119.454
11
237.886
21
-119.501
0
LINE
8
BLACK
6
CONTINUOUS
10
237.886
20
-119.501
11
238.076
21
-119.501
0
LINE
8
BLACK
6
CONTINUOUS
10
238.076
20
-119.501
11
238.172
21
-119.454
0
LINE
8
BLACK
6
CONTINUOUS
10
238.172
20
-119.454
11
238.219
21
-119.406
0
LINE
8
BLACK
6
CONTINUOUS
10
238.219
20
-119.406
11
238.267
21
-119.311
0
LINE
8
BLACK
6
CONTINUOUS
10
238.886
20
-118.882
11
238.981
21
-118.882
0
LINE
8
BLACK
6
CONTINUOUS
10
238.981
20
-118.882
11
239.076
21
-118.93
0
LINE
8
BLACK
6
CONTINUOUS
10
239.076
20
-118.93
11
239.124
21
-118.978
0
LINE
8
BLACK
6
CONTINUOUS
10
239.124
20
-118.978
11
239.172
21
-119.073
0
LINE
8
BLACK
6
CONTINUOUS
10
239.172
20
-119.073
11
239.219
21
-119.263
0
LINE
8
BLACK
6
CONTINUOUS
10
239.219
20
-119.263
11
239.219
21
-119.501
0
LINE
8
BLACK
6
CONTINUOUS
10
239.219
20
-119.501
11
239.172
21
-119.692
0
LINE
8
BLACK
6
CONTINUOUS
10
239.172
20
-119.692
11
239.124
21
-119.787
0
LINE
8
BLACK
6
CONTINUOUS
10
239.124
20
-119.787
11
239.076
21
-119.835
0
LINE
8
BLACK
6
CONTINUOUS
10
239.076
20
-119.835
11
238.981
21
-119.882
0
LINE
8
BLACK
6
CONTINUOUS
10
238.981
20
-119.882
11
238.886
21
-119.882
0
LINE
8
BLACK
6
CONTINUOUS
10
238.886
20
-119.882
11
238.791
21
-119.835
0
LINE
8
BLACK
6
CONTINUOUS
10
238.791
20
-119.835
11
238.743
21
-119.787
0
LINE
8
BLACK
6
CONTINUOUS
10
238.743
20
-119.787
11
238.695
21
-119.692
0
LINE
8
BLACK
6
CONTINUOUS
10
238.695
20
-119.692
11
238.648
21
-119.501
0
LINE
8
BLACK
6
CONTINUOUS
10
238.648
20
-119.501
11
238.648
21
-119.263
0
LINE
8
BLACK
6
CONTINUOUS
10
238.648
20
-119.263
11
238.695
21
-119.073
0
LINE
8
BLACK
6
CONTINUOUS
10
238.695
20
-119.073
11
238.743
21
-118.978
0
LINE
8
BLACK
6
CONTINUOUS
10
238.743
20
-118.978
11
238.791
21
-118.93
0
LINE
8
BLACK
6
CONTINUOUS
10
238.791
20
-118.93
11
238.886
21
-118.882
0
LINE
8
BLACK
6
CONTINUOUS
10
240.41
20
-119.882
11
240.41
21
-119.216
0
LINE
8
BLACK
6
CONTINUOUS
10
240.41
20
-119.311
11
240.457
21
-119.263
0
LINE
8
BLACK
6
CONTINUOUS
10
240.457
20
-119.263
11
240.553
21
-119.216
0
LINE
8
BLACK
6
CONTINUOUS
10
240.553
20
-119.216
11
240.695
21
-119.216
0
LINE
8
BLACK
6
CONTINUOUS
10
240.695
20
-119.216
11
240.791
21
-119.263
0
LINE
8
BLACK
6
CONTINUOUS
10
240.791
20
-119.263
11
240.838
21
-119.359
0
LINE
8
BLACK
6
CONTINUOUS
10
240.838
20
-119.359
11
240.838
21
-119.882
0
LINE
8
BLACK
6
CONTINUOUS
10
240.838
20
-119.359
11
240.886
21
-119.263
0
LINE
8
BLACK
6
CONTINUOUS
10
240.886
20
-119.263
11
240.981
21
-119.216
0
LINE
8
BLACK
6
CONTINUOUS
10
240.981
20
-119.216
11
241.124
21
-119.216
0
LINE
8
BLACK
6
CONTINUOUS
10
241.124
20
-119.216
11
241.219
21
-119.263
0
LINE
8
BLACK
6
CONTINUOUS
10
241.219
20
-119.263
11
241.267
21
-119.359
0
LINE
8
BLACK
6
CONTINUOUS
10
241.267
20
-119.359
11
241.267
21
-119.882
0
LINE
8
BLACK
6
CONTINUOUS
10
241.743
20
-119.882
11
241.743
21
-119.216
0
LINE
8
BLACK
6
CONTINUOUS
10
241.743
20
-119.311
11
241.791
21
-119.263
0
LINE
8
BLACK
6
CONTINUOUS
10
241.791
20
-119.263
11
241.886
21
-119.216
0
LINE
8
BLACK
6
CONTINUOUS
10
241.886
20
-119.216
11
242.029
21
-119.216
0
LINE
8
BLACK
6
CONTINUOUS
10
242.029
20
-119.216
11
242.124
21
-119.263
0
LINE
8
BLACK
6
CONTINUOUS
10
242.124
20
-119.263
11
242.172
21
-119.359
0
LINE
8
BLACK
6
CONTINUOUS
10
242.172
20
-119.359
11
242.172
21
-119.882
0
LINE
8
BLACK
6
CONTINUOUS
10
242.172
20
-119.359
11
242.219
21
-119.263
0
LINE
8
BLACK
6
CONTINUOUS
10
242.219
20
-119.263
11
242.315
21
-119.216
0
LINE
8
BLACK
6
CONTINUOUS
10
242.315
20
-119.216
11
242.457
21
-119.216
0
LINE
8
BLACK
6
CONTINUOUS
10
242.457
20
-119.216
11
242.553
21
-119.263
0
LINE
8
BLACK
6
CONTINUOUS
10
242.553
20
-119.263
11
242.6
21
-119.359
0
LINE
8
BLACK
6
CONTINUOUS
10
242.6
20
-119.359
11
242.6
21
-119.882
0
LINE
8
BLACK
6
CONTINUOUS
10
232.76
20
-118.13
11
244.25
21
-118.13
0
LINE
8
BLACK
6
CONTINUOUS
10
232.76
20
-117.255
11
232.76
21
-118.716
0
LINE
8
BLACK
6
CONTINUOUS
10
244.25
20
-117.255
11
244.25
21
-118.716
0
LINE
8
BLACK
6
CONTINUOUS
10
244.25
20
-118.13
11
243.123
21
-118.716
0
LINE
8
BLACK
6
CONTINUOUS
10
244.25
20
-118.13
11
243.123
21
-117.544
0
LINE
8
BLACK
6
CONTINUOUS
10
232.76
20
-118.13
11
233.887
21
-118.716
0
LINE
8
BLACK
6
CONTINUOUS
10
232.76
20
-118.13
11
233.887
21
-117.544
0
LINE
8
BLACK
6
CONTINUOUS
10
224.496
20
10.9876
11
223.925
21
10.9876
0
LINE
8
BLACK
6
CONTINUOUS
10
224.21
20
10.9876
11
224.21
21
11.9876
0
LINE
8
BLACK
6
CONTINUOUS
10
224.21
20
11.9876
11
224.115
21
11.8448
0
LINE
8
BLACK
6
CONTINUOUS
10
224.115
20
11.8448
11
224.02
21
11.7495
0
LINE
8
BLACK
6
CONTINUOUS
10
224.02
20
11.7495
11
223.925
21
11.7019
0
LINE
8
BLACK
6
CONTINUOUS
10
225.067
20
11.559
11
224.972
21
11.6067
0
LINE
8
BLACK
6
CONTINUOUS
10
224.972
20
11.6067
11
224.925
21
11.6543
0
LINE
8
BLACK
6
CONTINUOUS
10
224.925
20
11.6543
11
224.877
21
11.7495
0
LINE
8
BLACK
6
CONTINUOUS
10
224.877
20
11.7495
11
224.877
21
11.7971
0
LINE
8
BLACK
6
CONTINUOUS
10
224.877
20
11.7971
11
224.925
21
11.8924
0
LINE
8
BLACK
6
CONTINUOUS
10
224.925
20
11.8924
11
224.972
21
11.94
0
LINE
8
BLACK
6
CONTINUOUS
10
224.972
20
11.94
11
225.067
21
11.9876
0
LINE
8
BLACK
6
CONTINUOUS
10
225.067
20
11.9876
11
225.258
21
11.9876
0
LINE
8
BLACK
6
CONTINUOUS
10
225.258
20
11.9876
11
225.353
21
11.94
0
LINE
8
BLACK
6
CONTINUOUS
10
225.353
20
11.94
11
225.401
21
11.8924
0
LINE
8
BLACK
6
CONTINUOUS
10
225.401
20
11.8924
11
225.448
21
11.7971
0
LINE
8
BLACK
6
CONTINUOUS
10
225.448
20
11.7971
11
225.448
21
11.7495
0
LINE
8
BLACK
6
CONTINUOUS
10
225.448
20
11.7495
11
225.401
21
11.6543
0
LINE
8
BLACK
6
CONTINUOUS
10
225.401
20
11.6543
11
225.353
21
11.6067
0
LINE
8
BLACK
6
CONTINUOUS
10
225.353
20
11.6067
11
225.258
21
11.559
0
LINE
8
BLACK
6
CONTINUOUS
10
225.258
20
11.559
11
225.067
21
11.559
0
LINE
8
BLACK
6
CONTINUOUS
10
225.067
20
11.559
11
224.972
21
11.5114
0
LINE
8
BLACK
6
CONTINUOUS
10
224.972
20
11.5114
11
224.925
21
11.4638
0
LINE
8
BLACK
6
CONTINUOUS
10
224.925
20
11.4638
11
224.877
21
11.3686
0
LINE
8
BLACK
6
CONTINUOUS
10
224.877
20
11.3686
11
224.877
21
11.1781
0
LINE
8
BLACK
6
CONTINUOUS
10
224.877
20
11.1781
11
224.925
21
11.0829
0
LINE
8
BLACK
6
CONTINUOUS
10
224.925
20
11.0829
11
224.972
21
11.0352
0
LINE
8
BLACK
6
CONTINUOUS
10
224.972
20
11.0352
11
225.067
21
10.9876
0
LINE
8
BLACK
6
CONTINUOUS
10
225.067
20
10.9876
11
225.258
21
10.9876
0
LINE
8
BLACK
6
CONTINUOUS
10
225.258
20
10.9876
11
225.353
21
11.0352
0
LINE
8
BLACK
6
CONTINUOUS
10
225.353
20
11.0352
11
225.401
21
11.0829
0
LINE
8
BLACK
6
CONTINUOUS
10
225.401
20
11.0829
11
225.448
21
11.1781
0
LINE
8
BLACK
6
CONTINUOUS
10
225.448
20
11.1781
11
225.448
21
11.3686
0
LINE
8
BLACK
6
CONTINUOUS
10
225.448
20
11.3686
11
225.401
21
11.4638
0
LINE
8
BLACK
6
CONTINUOUS
10
225.401
20
11.4638
11
225.353
21
11.5114
0
LINE
8
BLACK
6
CONTINUOUS
10
225.353
20
11.5114
11
225.258
21
11.559
0
LINE
8
BLACK
6
CONTINUOUS
10
225.877
20
11.0829
11
225.925
21
11.0352
0
LINE
8
BLACK
6
CONTINUOUS
10
225.925
20
11.0352
11
225.877
21
10.9876
0
LINE
8
BLACK
6
CONTINUOUS
10
225.877
20
10.9876
11
225.829
21
11.0352
0
LINE
8
BLACK
6
CONTINUOUS
10
225.829
20
11.0352
11
225.877
21
11.0829
0
LINE
8
BLACK
6
CONTINUOUS
10
225.877
20
11.0829
11
225.877
21
10.9876
0
LINE
8
BLACK
6
CONTINUOUS
10
226.829
20
11.9876
11
226.353
21
11.9876
0
LINE
8
BLACK
6
CONTINUOUS
10
226.353
20
11.9876
11
226.306
21
11.5114
0
LINE
8
BLACK
6
CONTINUOUS
10
226.306
20
11.5114
11
226.353
21
11.559
0
LINE
8
BLACK
6
CONTINUOUS
10
226.353
20
11.559
11
226.448
21
11.6067
0
LINE
8
BLACK
6
CONTINUOUS
10
226.448
20
11.6067
11
226.687
21
11.6067
0
LINE
8
BLACK
6
CONTINUOUS
10
226.687
20
11.6067
11
226.782
21
11.559
0
LINE
8
BLACK
6
CONTINUOUS
10
226.782
20
11.559
11
226.829
21
11.5114
0
LINE
8
BLACK
6
CONTINUOUS
10
226.829
20
11.5114
11
226.877
21
11.4162
0
LINE
8
BLACK
6
CONTINUOUS
10
226.877
20
11.4162
11
226.877
21
11.1781
0
LINE
8
BLACK
6
CONTINUOUS
10
226.877
20
11.1781
11
226.829
21
11.0829
0
LINE
8
BLACK
6
CONTINUOUS
10
226.829
20
11.0829
11
226.782
21
11.0352
0
LINE
8
BLACK
6
CONTINUOUS
10
226.782
20
11.0352
11
226.687
21
10.9876
0
LINE
8
BLACK
6
CONTINUOUS
10
226.687
20
10.9876
11
226.448
21
10.9876
0
LINE
8
BLACK
6
CONTINUOUS
10
226.448
20
10.9876
11
226.353
21
11.0352
0
LINE
8
BLACK
6
CONTINUOUS
10
226.353
20
11.0352
11
226.306
21
11.0829
0
LINE
8
BLACK
6
CONTINUOUS
10
227.21
20
11.9876
11
227.829
21
11.9876
0
LINE
8
BLACK
6
CONTINUOUS
10
227.829
20
11.9876
11
227.496
21
11.6067
0
LINE
8
BLACK
6
CONTINUOUS
10
227.496
20
11.6067
11
227.639
21
11.6067
0
LINE
8
BLACK
6
CONTINUOUS
10
227.639
20
11.6067
11
227.734
21
11.559
0
LINE
8
BLACK
6
CONTINUOUS
10
227.734
20
11.559
11
227.782
21
11.5114
0
LINE
8
BLACK
6
CONTINUOUS
10
227.782
20
11.5114
11
227.829
21
11.4162
0
LINE
8
BLACK
6
CONTINUOUS
10
227.829
20
11.4162
11
227.829
21
11.1781
0
LINE
8
BLACK
6
CONTINUOUS
10
227.829
20
11.1781
11
227.782
21
11.0829
0
LINE
8
BLACK
6
CONTINUOUS
10
227.782
20
11.0829
11
227.734
21
11.0352
0
LINE
8
BLACK
6
CONTINUOUS
10
227.734
20
11.0352
11
227.639
21
10.9876
0
LINE
8
BLACK
6
CONTINUOUS
10
227.639
20
10.9876
11
227.353
21
10.9876
0
LINE
8
BLACK
6
CONTINUOUS
10
227.353
20
10.9876
11
227.258
21
11.0352
0
LINE
8
BLACK
6
CONTINUOUS
10
227.258
20
11.0352
11
227.21
21
11.0829
0
LINE
8
BLACK
6
CONTINUOUS
10
228.734
20
11.9876
11
228.258
21
11.9876
0
LINE
8
BLACK
6
CONTINUOUS
10
228.258
20
11.9876
11
228.21
21
11.5114
0
LINE
8
BLACK
6
CONTINUOUS
10
228.21
20
11.5114
11
228.258
21
11.559
0
LINE
8
BLACK
6
CONTINUOUS
10
228.258
20
11.559
11
228.353
21
11.6067
0
LINE
8
BLACK
6
CONTINUOUS
10
228.353
20
11.6067
11
228.591
21
11.6067
0
LINE
8
BLACK
6
CONTINUOUS
10
228.591
20
11.6067
11
228.687
21
11.559
0
LINE
8
BLACK
6
CONTINUOUS
10
228.687
20
11.559
11
228.734
21
11.5114
0
LINE
8
BLACK
6
CONTINUOUS
10
228.734
20
11.5114
11
228.782
21
11.4162
0
LINE
8
BLACK
6
CONTINUOUS
10
228.782
20
11.4162
11
228.782
21
11.1781
0
LINE
8
BLACK
6
CONTINUOUS
10
228.782
20
11.1781
11
228.734
21
11.0829
0
LINE
8
BLACK
6
CONTINUOUS
10
228.734
20
11.0829
11
228.687
21
11.0352
0
LINE
8
BLACK
6
CONTINUOUS
10
228.687
20
11.0352
11
228.591
21
10.9876
0
LINE
8
BLACK
6
CONTINUOUS
10
228.591
20
10.9876
11
228.353
21
10.9876
0
LINE
8
BLACK
6
CONTINUOUS
10
228.353
20
10.9876
11
228.258
21
11.0352
0
LINE
8
BLACK
6
CONTINUOUS
10
228.258
20
11.0352
11
228.21
21
11.0829
0
LINE
8
BLACK
6
CONTINUOUS
10
229.972
20
10.9876
11
229.972
21
11.6543
0
LINE
8
BLACK
6
CONTINUOUS
10
229.972
20
11.559
11
230.02
21
11.6067
0
LINE
8
BLACK
6
CONTINUOUS
10
230.02
20
11.6067
11
230.115
21
11.6543
0
LINE
8
BLACK
6
CONTINUOUS
10
230.115
20
11.6543
11
230.258
21
11.6543
0
LINE
8
BLACK
6
CONTINUOUS
10
230.258
20
11.6543
11
230.353
21
11.6067
0
LINE
8
BLACK
6
CONTINUOUS
10
230.353
20
11.6067
11
230.401
21
11.5114
0
LINE
8
BLACK
6
CONTINUOUS
10
230.401
20
11.5114
11
230.401
21
10.9876
0
LINE
8
BLACK
6
CONTINUOUS
10
230.401
20
11.5114
11
230.448
21
11.6067
0
LINE
8
BLACK
6
CONTINUOUS
10
230.448
20
11.6067
11
230.544
21
11.6543
0
LINE
8
BLACK
6
CONTINUOUS
10
230.544
20
11.6543
11
230.687
21
11.6543
0
LINE
8
BLACK
6
CONTINUOUS
10
230.687
20
11.6543
11
230.782
21
11.6067
0
LINE
8
BLACK
6
CONTINUOUS
10
230.782
20
11.6067
11
230.829
21
11.5114
0
LINE
8
BLACK
6
CONTINUOUS
10
230.829
20
11.5114
11
230.829
21
10.9876
0
LINE
8
BLACK
6
CONTINUOUS
10
231.306
20
10.9876
11
231.306
21
11.6543
0
LINE
8
BLACK
6
CONTINUOUS
10
231.306
20
11.559
11
231.353
21
11.6067
0
LINE
8
BLACK
6
CONTINUOUS
10
231.353
20
11.6067
11
231.448
21
11.6543
0
LINE
8
BLACK
6
CONTINUOUS
10
231.448
20
11.6543
11
231.591
21
11.6543
0
LINE
8
BLACK
6
CONTINUOUS
10
231.591
20
11.6543
11
231.687
21
11.6067
0
LINE
8
BLACK
6
CONTINUOUS
10
231.687
20
11.6067
11
231.734
21
11.5114
0
LINE
8
BLACK
6
CONTINUOUS
10
231.734
20
11.5114
11
231.734
21
10.9876
0
LINE
8
BLACK
6
CONTINUOUS
10
231.734
20
11.5114
11
231.782
21
11.6067
0
LINE
8
BLACK
6
CONTINUOUS
10
231.782
20
11.6067
11
231.877
21
11.6543
0
LINE
8
BLACK
6
CONTINUOUS
10
231.877
20
11.6543
11
232.02
21
11.6543
0
LINE
8
BLACK
6
CONTINUOUS
10
232.02
20
11.6543
11
232.115
21
11.6067
0
LINE
8
BLACK
6
CONTINUOUS
10
232.115
20
11.6067
11
232.163
21
11.5114
0
LINE
8
BLACK
6
CONTINUOUS
10
232.163
20
11.5114
11
232.163
21
10.9876
0
LINE
8
BLACK
6
CONTINUOUS
10
218.8
20
10.14
11
237.335
21
10.14
0
LINE
8
BLACK
6
CONTINUOUS
10
218.8
20
9.55
11
218.8
21
10.7264
0
LINE
8
BLACK
6
CONTINUOUS
10
237.335
20
9.55
11
237.335
21
10.7264
0
LINE
8
BLACK
6
CONTINUOUS
10
237.335
20
10.14
11
236.208
21
9.55358
0
LINE
8
BLACK
6
CONTINUOUS
10
237.335
20
10.14
11
236.208
21
10.7264
0
LINE
8
BLACK
6
CONTINUOUS
10
218.8
20
10.14
11
219.927
21
9.55358
0
LINE
8
BLACK
6
CONTINUOUS
10
218.8
20
10.14
11
219.927
21
10.7264
0
LINE
8
BLACK
6
CONTINUOUS
10
190.604
20
-119.302
11
190.032
21
-119.302
0
LINE
8
BLACK
6
CONTINUOUS
10
190.318
20
-119.302
11
190.318
21
-118.302
0
LINE
8
BLACK
6
CONTINUOUS
10
190.318
20
-118.302
11
190.223
21
-118.445
0
LINE
8
BLACK
6
CONTINUOUS
10
190.223
20
-118.445
11
190.127
21
-118.54
0
LINE
8
BLACK
6
CONTINUOUS
10
190.127
20
-118.54
11
190.032
21
-118.588
0
LINE
8
BLACK
6
CONTINUOUS
10
191.223
20
-118.302
11
191.318
21
-118.302
0
LINE
8
BLACK
6
CONTINUOUS
10
191.318
20
-118.302
11
191.413
21
-118.35
0
LINE
8
BLACK
6
CONTINUOUS
10
191.413
20
-118.35
11
191.461
21
-118.398
0
LINE
8
BLACK
6
CONTINUOUS
10
191.461
20
-118.398
11
191.508
21
-118.493
0
LINE
8
BLACK
6
CONTINUOUS
10
191.508
20
-118.493
11
191.556
21
-118.683
0
LINE
8
BLACK
6
CONTINUOUS
10
191.556
20
-118.683
11
191.556
21
-118.921
0
LINE
8
BLACK
6
CONTINUOUS
10
191.556
20
-118.921
11
191.508
21
-119.112
0
LINE
8
BLACK
6
CONTINUOUS
10
191.508
20
-119.112
11
191.461
21
-119.207
0
LINE
8
BLACK
6
CONTINUOUS
10
191.461
20
-119.207
11
191.413
21
-119.255
0
LINE
8
BLACK
6
CONTINUOUS
10
191.413
20
-119.255
11
191.318
21
-119.302
0
LINE
8
BLACK
6
CONTINUOUS
10
191.318
20
-119.302
11
191.223
21
-119.302
0
LINE
8
BLACK
6
CONTINUOUS
10
191.223
20
-119.302
11
191.127
21
-119.255
0
LINE
8
BLACK
6
CONTINUOUS
10
191.127
20
-119.255
11
191.08
21
-119.207
0
LINE
8
BLACK
6
CONTINUOUS
10
191.08
20
-119.207
11
191.032
21
-119.112
0
LINE
8
BLACK
6
CONTINUOUS
10
191.032
20
-119.112
11
190.985
21
-118.921
0
LINE
8
BLACK
6
CONTINUOUS
10
190.985
20
-118.921
11
190.985
21
-118.683
0
LINE
8
BLACK
6
CONTINUOUS
10
190.985
20
-118.683
11
191.032
21
-118.493
0
LINE
8
BLACK
6
CONTINUOUS
10
191.032
20
-118.493
11
191.08
21
-118.398
0
LINE
8
BLACK
6
CONTINUOUS
10
191.08
20
-118.398
11
191.127
21
-118.35
0
LINE
8
BLACK
6
CONTINUOUS
10
191.127
20
-118.35
11
191.223
21
-118.302
0
LINE
8
BLACK
6
CONTINUOUS
10
191.985
20
-119.207
11
192.032
21
-119.255
0
LINE
8
BLACK
6
CONTINUOUS
10
192.032
20
-119.255
11
191.985
21
-119.302
0
LINE
8
BLACK
6
CONTINUOUS
10
191.985
20
-119.302
11
191.937
21
-119.255
0
LINE
8
BLACK
6
CONTINUOUS
10
191.937
20
-119.255
11
191.985
21
-119.207
0
LINE
8
BLACK
6
CONTINUOUS
10
191.985
20
-119.207
11
191.985
21
-119.302
0
LINE
8
BLACK
6
CONTINUOUS
10
192.365
20
-118.302
11
193.032
21
-118.302
0
LINE
8
BLACK
6
CONTINUOUS
10
193.032
20
-118.302
11
192.604
21
-119.302
0
LINE
8
BLACK
6
CONTINUOUS
10
193.889
20
-118.302
11
193.413
21
-118.302
0
LINE
8
BLACK
6
CONTINUOUS
10
193.413
20
-118.302
11
193.365
21
-118.779
0
LINE
8
BLACK
6
CONTINUOUS
10
193.365
20
-118.779
11
193.413
21
-118.731
0
LINE
8
BLACK
6
CONTINUOUS
10
193.413
20
-118.731
11
193.508
21
-118.683
0
LINE
8
BLACK
6
CONTINUOUS
10
193.508
20
-118.683
11
193.746
21
-118.683
0
LINE
8
BLACK
6
CONTINUOUS
10
193.746
20
-118.683
11
193.842
21
-118.731
0
LINE
8
BLACK
6
CONTINUOUS
10
193.842
20
-118.731
11
193.889
21
-118.779
0
LINE
8
BLACK
6
CONTINUOUS
10
193.889
20
-118.779
11
193.937
21
-118.874
0
LINE
8
BLACK
6
CONTINUOUS
10
193.937
20
-118.874
11
193.937
21
-119.112
0
LINE
8
BLACK
6
CONTINUOUS
10
193.937
20
-119.112
11
193.889
21
-119.207
0
LINE
8
BLACK
6
CONTINUOUS
10
193.889
20
-119.207
11
193.842
21
-119.255
0
LINE
8
BLACK
6
CONTINUOUS
10
193.842
20
-119.255
11
193.746
21
-119.302
0
LINE
8
BLACK
6
CONTINUOUS
10
193.746
20
-119.302
11
193.508
21
-119.302
0
LINE
8
BLACK
6
CONTINUOUS
10
193.508
20
-119.302
11
193.413
21
-119.255
0
LINE
8
BLACK
6
CONTINUOUS
10
193.413
20
-119.255
11
193.365
21
-119.207
0
LINE
8
BLACK
6
CONTINUOUS
10
194.556
20
-118.302
11
194.651
21
-118.302
0
LINE
8
BLACK
6
CONTINUOUS
10
194.651
20
-118.302
11
194.746
21
-118.35
0
LINE
8
BLACK
6
CONTINUOUS
10
194.746
20
-118.35
11
194.794
21
-118.398
0
LINE
8
BLACK
6
CONTINUOUS
10
194.794
20
-118.398
11
194.842
21
-118.493
0
LINE
8
BLACK
6
CONTINUOUS
10
194.842
20
-118.493
11
194.889
21
-118.683
0
LINE
8
BLACK
6
CONTINUOUS
10
194.889
20
-118.683
11
194.889
21
-118.921
0
LINE
8
BLACK
6
CONTINUOUS
10
194.889
20
-118.921
11
194.842
21
-119.112
0
LINE
8
BLACK
6
CONTINUOUS
10
194.842
20
-119.112
11
194.794
21
-119.207
0
LINE
8
BLACK
6
CONTINUOUS
10
194.794
20
-119.207
11
194.746
21
-119.255
0
LINE
8
BLACK
6
CONTINUOUS
10
194.746
20
-119.255
11
194.651
21
-119.302
0
LINE
8
BLACK
6
CONTINUOUS
10
194.651
20
-119.302
11
194.556
21
-119.302
0
LINE
8
BLACK
6
CONTINUOUS
10
194.556
20
-119.302
11
194.461
21
-119.255
0
LINE
8
BLACK
6
CONTINUOUS
10
194.461
20
-119.255
11
194.413
21
-119.207
0
LINE
8
BLACK
6
CONTINUOUS
10
194.413
20
-119.207
11
194.365
21
-119.112
0
LINE
8
BLACK
6
CONTINUOUS
10
194.365
20
-119.112
11
194.318
21
-118.921
0
LINE
8
BLACK
6
CONTINUOUS
10
194.318
20
-118.921
11
194.318
21
-118.683
0
LINE
8
BLACK
6
CONTINUOUS
10
194.318
20
-118.683
11
194.365
21
-118.493
0
LINE
8
BLACK
6
CONTINUOUS
10
194.365
20
-118.493
11
194.413
21
-118.398
0
LINE
8
BLACK
6
CONTINUOUS
10
194.413
20
-118.398
11
194.461
21
-118.35
0
LINE
8
BLACK
6
CONTINUOUS
10
194.461
20
-118.35
11
194.556
21
-118.302
0
LINE
8
BLACK
6
CONTINUOUS
10
196.08
20
-119.302
11
196.08
21
-118.636
0
LINE
8
BLACK
6
CONTINUOUS
10
196.08
20
-118.731
11
196.127
21
-118.683
0
LINE
8
BLACK
6
CONTINUOUS
10
196.127
20
-118.683
11
196.223
21
-118.636
0
LINE
8
BLACK
6
CONTINUOUS
10
196.223
20
-118.636
11
196.365
21
-118.636
0
LINE
8
BLACK
6
CONTINUOUS
10
196.365
20
-118.636
11
196.461
21
-118.683
0
LINE
8
BLACK
6
CONTINUOUS
10
196.461
20
-118.683
11
196.508
21
-118.779
0
LINE
8
BLACK
6
CONTINUOUS
10
196.508
20
-118.779
11
196.508
21
-119.302
0
LINE
8
BLACK
6
CONTINUOUS
10
196.508
20
-118.779
11
196.556
21
-118.683
0
LINE
8
BLACK
6
CONTINUOUS
10
196.556
20
-118.683
11
196.651
21
-118.636
0
LINE
8
BLACK
6
CONTINUOUS
10
196.651
20
-118.636
11
196.794
21
-118.636
0
LINE
8
BLACK
6
CONTINUOUS
10
196.794
20
-118.636
11
196.889
21
-118.683
0
LINE
8
BLACK
6
CONTINUOUS
10
196.889
20
-118.683
11
196.937
21
-118.779
0
LINE
8
BLACK
6
CONTINUOUS
10
196.937
20
-118.779
11
196.937
21
-119.302
0
LINE
8
BLACK
6
CONTINUOUS
10
197.413
20
-119.302
11
197.413
21
-118.636
0
LINE
8
BLACK
6
CONTINUOUS
10
197.413
20
-118.731
11
197.461
21
-118.683
0
LINE
8
BLACK
6
CONTINUOUS
10
197.461
20
-118.683
11
197.556
21
-118.636
0
LINE
8
BLACK
6
CONTINUOUS
10
197.556
20
-118.636
11
197.699
21
-118.636
0
LINE
8
BLACK
6
CONTINUOUS
10
197.699
20
-118.636
11
197.794
21
-118.683
0
LINE
8
BLACK
6
CONTINUOUS
10
197.794
20
-118.683
11
197.842
21
-118.779
0
LINE
8
BLACK
6
CONTINUOUS
10
197.842
20
-118.779
11
197.842
21
-119.302
0
LINE
8
BLACK
6
CONTINUOUS
10
197.842
20
-118.779
11
197.889
21
-118.683
0
LINE
8
BLACK
6
CONTINUOUS
10
197.889
20
-118.683
11
197.985
21
-118.636
0
LINE
8
BLACK
6
CONTINUOUS
10
197.985
20
-118.636
11
198.127
21
-118.636
0
LINE
8
BLACK
6
CONTINUOUS
10
198.127
20
-118.636
11
198.223
21
-118.683
0
LINE
8
BLACK
6
CONTINUOUS
10
198.223
20
-118.683
11
198.27
21
-118.779
0
LINE
8
BLACK
6
CONTINUOUS
10
198.27
20
-118.779
11
198.27
21
-119.302
0
LINE
8
BLACK
6
CONTINUOUS
10
188.8
20
-117.55
11
199.55
21
-117.55
0
LINE
8
BLACK
6
CONTINUOUS
10
188.8
20
-116.255
11
188.8
21
-118.136
0
LINE
8
BLACK
6
CONTINUOUS
10
199.55
20
-116.255
11
199.55
21
-118.136
0
LINE
8
BLACK
6
CONTINUOUS
10
199.55
20
-117.55
11
198.423
21
-118.136
0
LINE
8
BLACK
6
CONTINUOUS
10
199.55
20
-117.55
11
198.423
21
-116.964
0
LINE
8
BLACK
6
CONTINUOUS
10
188.8
20
-117.55
11
189.927
21
-118.136
0
LINE
8
BLACK
6
CONTINUOUS
10
188.8
20
-117.55
11
189.927
21
-116.964
0
LINE
8
BLACK
6
CONTINUOUS
10
203.329
20
-117.852
11
202.757
21
-117.852
0
LINE
8
BLACK
6
CONTINUOUS
10
203.043
20
-117.852
11
203.043
21
-116.852
0
LINE
8
BLACK
6
CONTINUOUS
10
203.043
20
-116.852
11
202.948
21
-116.995
0
LINE
8
BLACK
6
CONTINUOUS
10
202.948
20
-116.995
11
202.852
21
-117.09
0
LINE
8
BLACK
6
CONTINUOUS
10
202.852
20
-117.09
11
202.757
21
-117.138
0
LINE
8
BLACK
6
CONTINUOUS
10
204.186
20
-117.186
11
204.186
21
-117.852
0
LINE
8
BLACK
6
CONTINUOUS
10
203.948
20
-116.805
11
203.71
21
-117.519
0
LINE
8
BLACK
6
CONTINUOUS
10
203.71
20
-117.519
11
204.329
21
-117.519
0
LINE
8
BLACK
6
CONTINUOUS
10
204.71
20
-117.757
11
204.757
21
-117.805
0
LINE
8
BLACK
6
CONTINUOUS
10
204.757
20
-117.805
11
204.71
21
-117.852
0
LINE
8
BLACK
6
CONTINUOUS
10
204.71
20
-117.852
11
204.662
21
-117.805
0
LINE
8
BLACK
6
CONTINUOUS
10
204.662
20
-117.805
11
204.71
21
-117.757
0
LINE
8
BLACK
6
CONTINUOUS
10
204.71
20
-117.757
11
204.71
21
-117.852
0
LINE
8
BLACK
6
CONTINUOUS
10
205.09
20
-116.852
11
205.757
21
-116.852
0
LINE
8
BLACK
6
CONTINUOUS
10
205.757
20
-116.852
11
205.329
21
-117.852
0
LINE
8
BLACK
6
CONTINUOUS
10
206.329
20
-116.852
11
206.424
21
-116.852
0
LINE
8
BLACK
6
CONTINUOUS
10
206.424
20
-116.852
11
206.519
21
-116.9
0
LINE
8
BLACK
6
CONTINUOUS
10
206.519
20
-116.9
11
206.567
21
-116.948
0
LINE
8
BLACK
6
CONTINUOUS
10
206.567
20
-116.948
11
206.614
21
-117.043
0
LINE
8
BLACK
6
CONTINUOUS
10
206.614
20
-117.043
11
206.662
21
-117.233
0
LINE
8
BLACK
6
CONTINUOUS
10
206.662
20
-117.233
11
206.662
21
-117.471
0
LINE
8
BLACK
6
CONTINUOUS
10
206.662
20
-117.471
11
206.614
21
-117.662
0
LINE
8
BLACK
6
CONTINUOUS
10
206.614
20
-117.662
11
206.567
21
-117.757
0
LINE
8
BLACK
6
CONTINUOUS
10
206.567
20
-117.757
11
206.519
21
-117.805
0
LINE
8
BLACK
6
CONTINUOUS
10
206.519
20
-117.805
11
206.424
21
-117.852
0
LINE
8
BLACK
6
CONTINUOUS
10
206.424
20
-117.852
11
206.329
21
-117.852
0
LINE
8
BLACK
6
CONTINUOUS
10
206.329
20
-117.852
11
206.233
21
-117.805
0
LINE
8
BLACK
6
CONTINUOUS
10
206.233
20
-117.805
11
206.186
21
-117.757
0
LINE
8
BLACK
6
CONTINUOUS
10
206.186
20
-117.757
11
206.138
21
-117.662
0
LINE
8
BLACK
6
CONTINUOUS
10
206.138
20
-117.662
11
206.09
21
-117.471
0
LINE
8
BLACK
6
CONTINUOUS
10
206.09
20
-117.471
11
206.09
21
-117.233
0
LINE
8
BLACK
6
CONTINUOUS
10
206.09
20
-117.233
11
206.138
21
-117.043
0
LINE
8
BLACK
6
CONTINUOUS
10
206.138
20
-117.043
11
206.186
21
-116.948
0
LINE
8
BLACK
6
CONTINUOUS
10
206.186
20
-116.948
11
206.233
21
-116.9
0
LINE
8
BLACK
6
CONTINUOUS
10
206.233
20
-116.9
11
206.329
21
-116.852
0
LINE
8
BLACK
6
CONTINUOUS
10
207.281
20
-116.852
11
207.376
21
-116.852
0
LINE
8
BLACK
6
CONTINUOUS
10
207.376
20
-116.852
11
207.471
21
-116.9
0
LINE
8
BLACK
6
CONTINUOUS
10
207.471
20
-116.9
11
207.519
21
-116.948
0
LINE
8
BLACK
6
CONTINUOUS
10
207.519
20
-116.948
11
207.567
21
-117.043
0
LINE
8
BLACK
6
CONTINUOUS
10
207.567
20
-117.043
11
207.614
21
-117.233
0
LINE
8
BLACK
6
CONTINUOUS
10
207.614
20
-117.233
11
207.614
21
-117.471
0
LINE
8
BLACK
6
CONTINUOUS
10
207.614
20
-117.471
11
207.567
21
-117.662
0
LINE
8
BLACK
6
CONTINUOUS
10
207.567
20
-117.662
11
207.519
21
-117.757
0
LINE
8
BLACK
6
CONTINUOUS
10
207.519
20
-117.757
11
207.471
21
-117.805
0
LINE
8
BLACK
6
CONTINUOUS
10
207.471
20
-117.805
11
207.376
21
-117.852
0
LINE
8
BLACK
6
CONTINUOUS
10
207.376
20
-117.852
11
207.281
21
-117.852
0
LINE
8
BLACK
6
CONTINUOUS
10
207.281
20
-117.852
11
207.186
21
-117.805
0
LINE
8
BLACK
6
CONTINUOUS
10
207.186
20
-117.805
11
207.138
21
-117.757
0
LINE
8
BLACK
6
CONTINUOUS
10
207.138
20
-117.757
11
207.09
21
-117.662
0
LINE
8
BLACK
6
CONTINUOUS
10
207.09
20
-117.662
11
207.043
21
-117.471
0
LINE
8
BLACK
6
CONTINUOUS
10
207.043
20
-117.471
11
207.043
21
-117.233
0
LINE
8
BLACK
6
CONTINUOUS
10
207.043
20
-117.233
11
207.09
21
-117.043
0
LINE
8
BLACK
6
CONTINUOUS
10
207.09
20
-117.043
11
207.138
21
-116.948
0
LINE
8
BLACK
6
CONTINUOUS
10
207.138
20
-116.948
11
207.186
21
-116.9
0
LINE
8
BLACK
6
CONTINUOUS
10
207.186
20
-116.9
11
207.281
21
-116.852
0
LINE
8
BLACK
6
CONTINUOUS
10
208.805
20
-117.852
11
208.805
21
-117.186
0
LINE
8
BLACK
6
CONTINUOUS
10
208.805
20
-117.281
11
208.852
21
-117.233
0
LINE
8
BLACK
6
CONTINUOUS
10
208.852
20
-117.233
11
208.948
21
-117.186
0
LINE
8
BLACK
6
CONTINUOUS
10
208.948
20
-117.186
11
209.09
21
-117.186
0
LINE
8
BLACK
6
CONTINUOUS
10
209.09
20
-117.186
11
209.186
21
-117.233
0
LINE
8
BLACK
6
CONTINUOUS
10
209.186
20
-117.233
11
209.233
21
-117.329
0
LINE
8
BLACK
6
CONTINUOUS
10
209.233
20
-117.329
11
209.233
21
-117.852
0
LINE
8
BLACK
6
CONTINUOUS
10
209.233
20
-117.329
11
209.281
21
-117.233
0
LINE
8
BLACK
6
CONTINUOUS
10
209.281
20
-117.233
11
209.376
21
-117.186
0
LINE
8
BLACK
6
CONTINUOUS
10
209.376
20
-117.186
11
209.519
21
-117.186
0
LINE
8
BLACK
6
CONTINUOUS
10
209.519
20
-117.186
11
209.614
21
-117.233
0
LINE
8
BLACK
6
CONTINUOUS
10
209.614
20
-117.233
11
209.662
21
-117.329
0
LINE
8
BLACK
6
CONTINUOUS
10
209.662
20
-117.329
11
209.662
21
-117.852
0
LINE
8
BLACK
6
CONTINUOUS
10
210.138
20
-117.852
11
210.138
21
-117.186
0
LINE
8
BLACK
6
CONTINUOUS
10
210.138
20
-117.281
11
210.186
21
-117.233
0
LINE
8
BLACK
6
CONTINUOUS
10
210.186
20
-117.233
11
210.281
21
-117.186
0
LINE
8
BLACK
6
CONTINUOUS
10
210.281
20
-117.186
11
210.424
21
-117.186
0
LINE
8
BLACK
6
CONTINUOUS
10
210.424
20
-117.186
11
210.519
21
-117.233
0
LINE
8
BLACK
6
CONTINUOUS
10
210.519
20
-117.233
11
210.567
21
-117.329
0
LINE
8
BLACK
6
CONTINUOUS
10
210.567
20
-117.329
11
210.567
21
-117.852
0
LINE
8
BLACK
6
CONTINUOUS
10
210.567
20
-117.329
11
210.614
21
-117.233
0
LINE
8
BLACK
6
CONTINUOUS
10
210.614
20
-117.233
11
210.71
21
-117.186
0
LINE
8
BLACK
6
CONTINUOUS
10
210.71
20
-117.186
11
210.852
21
-117.186
0
LINE
8
BLACK
6
CONTINUOUS
10
210.852
20
-117.186
11
210.948
21
-117.233
0
LINE
8
BLACK
6
CONTINUOUS
10
210.948
20
-117.233
11
210.995
21
-117.329
0
LINE
8
BLACK
6
CONTINUOUS
10
210.995
20
-117.329
11
210.995
21
-117.852
0
LINE
8
BLACK
6
CONTINUOUS
10
199.55
20
-116.1
11
214.25
21
-116.1
0
LINE
8
BLACK
6
CONTINUOUS
10
199.55
20
-115.755
11
199.55
21
-116.686
0
LINE
8
BLACK
6
CONTINUOUS
10
214.25
20
-115.755
11
214.25
21
-116.686
0
LINE
8
BLACK
6
CONTINUOUS
10
214.25
20
-116.1
11
213.123
21
-116.686
0
LINE
8
BLACK
6
CONTINUOUS
10
214.25
20
-116.1
11
213.123
21
-115.514
0
LINE
8
BLACK
6
CONTINUOUS
10
199.55
20
-116.1
11
200.677
21
-116.686
0
LINE
8
BLACK
6
CONTINUOUS
10
199.55
20
-116.1
11
200.677
21
-115.514
0
LINE
8
BLACK
6
CONTINUOUS
10
250.612
20
-57.4301
11
250.612
21
-58.0015
0
LINE
8
BLACK
6
CONTINUOUS
10
250.612
20
-57.7158
11
249.612
21
-57.7158
0
LINE
8
BLACK
6
CONTINUOUS
10
249.612
20
-57.7158
11
249.755
21
-57.8111
0
LINE
8
BLACK
6
CONTINUOUS
10
249.755
20
-57.8111
11
249.85
21
-57.9063
0
LINE
8
BLACK
6
CONTINUOUS
10
249.85
20
-57.9063
11
249.898
21
-58.0015
0
LINE
8
BLACK
6
CONTINUOUS
10
249.708
20
-57.0492
11
249.66
21
-57.0015
0
LINE
8
BLACK
6
CONTINUOUS
10
249.66
20
-57.0015
11
249.612
21
-56.9063
0
LINE
8
BLACK
6
CONTINUOUS
10
249.612
20
-56.9063
11
249.612
21
-56.6682
0
LINE
8
BLACK
6
CONTINUOUS
10
249.612
20
-56.6682
11
249.66
21
-56.573
0
LINE
8
BLACK
6
CONTINUOUS
10
249.66
20
-56.573
11
249.708
21
-56.5254
0
LINE
8
BLACK
6
CONTINUOUS
10
249.708
20
-56.5254
11
249.803
21
-56.4777
0
LINE
8
BLACK
6
CONTINUOUS
10
249.803
20
-56.4777
11
249.898
21
-56.4777
0
LINE
8
BLACK
6
CONTINUOUS
10
249.898
20
-56.4777
11
250.041
21
-56.5254
0
LINE
8
BLACK
6
CONTINUOUS
10
250.041
20
-56.5254
11
250.612
21
-57.0968
0
LINE
8
BLACK
6
CONTINUOUS
10
250.612
20
-57.0968
11
250.612
21
-56.4777
0
LINE
8
BLACK
6
CONTINUOUS
10
249.708
20
-56.0968
11
249.66
21
-56.0492
0
LINE
8
BLACK
6
CONTINUOUS
10
249.66
20
-56.0492
11
249.612
21
-55.9539
0
LINE
8
BLACK
6
CONTINUOUS
10
249.612
20
-55.9539
11
249.612
21
-55.7158
0
LINE
8
BLACK
6
CONTINUOUS
10
249.612
20
-55.7158
11
249.66
21
-55.6206
0
LINE
8
BLACK
6
CONTINUOUS
10
249.66
20
-55.6206
11
249.708
21
-55.573
0
LINE
8
BLACK
6
CONTINUOUS
10
249.708
20
-55.573
11
249.803
21
-55.5254
0
LINE
8
BLACK
6
CONTINUOUS
10
249.803
20
-55.5254
11
249.898
21
-55.5254
0
LINE
8
BLACK
6
CONTINUOUS
10
249.898
20
-55.5254
11
250.041
21
-55.573
0
LINE
8
BLACK
6
CONTINUOUS
10
250.041
20
-55.573
11
250.612
21
-56.1444
0
LINE
8
BLACK
6
CONTINUOUS
10
250.612
20
-56.1444
11
250.612
21
-55.5254
0
LINE
8
BLACK
6
CONTINUOUS
10
250.517
20
-55.0968
11
250.565
21
-55.0492
0
LINE
8
BLACK
6
CONTINUOUS
10
250.565
20
-55.0492
11
250.612
21
-55.0968
0
LINE
8
BLACK
6
CONTINUOUS
10
250.612
20
-55.0968
11
250.565
21
-55.1444
0
LINE
8
BLACK
6
CONTINUOUS
10
250.565
20
-55.1444
11
250.517
21
-55.0968
0
LINE
8
BLACK
6
CONTINUOUS
10
250.517
20
-55.0968
11
250.612
21
-55.0968
0
LINE
8
BLACK
6
CONTINUOUS
10
250.041
20
-54.4777
11
249.993
21
-54.573
0
LINE
8
BLACK
6
CONTINUOUS
10
249.993
20
-54.573
11
249.946
21
-54.6206
0
LINE
8
BLACK
6
CONTINUOUS
10
249.946
20
-54.6206
11
249.85
21
-54.6682
0
LINE
8
BLACK
6
CONTINUOUS
10
249.85
20
-54.6682
11
249.803
21
-54.6682
0
LINE
8
BLACK
6
CONTINUOUS
10
249.803
20
-54.6682
11
249.708
21
-54.6206
0
LINE
8
BLACK
6
CONTINUOUS
10
249.708
20
-54.6206
11
249.66
21
-54.573
0
LINE
8
BLACK
6
CONTINUOUS
10
249.66
20
-54.573
11
249.612
21
-54.4777
0
LINE
8
BLACK
6
CONTINUOUS
10
249.612
20
-54.4777
11
249.612
21
-54.2873
0
LINE
8
BLACK
6
CONTINUOUS
10
249.612
20
-54.2873
11
249.66
21
-54.192
0
LINE
8
BLACK
6
CONTINUOUS
10
249.66
20
-54.192
11
249.708
21
-54.1444
0
LINE
8
BLACK
6
CONTINUOUS
10
249.708
20
-54.1444
11
249.803
21
-54.0968
0
LINE
8
BLACK
6
CONTINUOUS
10
249.803
20
-54.0968
11
249.85
21
-54.0968
0
LINE
8
BLACK
6
CONTINUOUS
10
249.85
20
-54.0968
11
249.946
21
-54.1444
0
LINE
8
BLACK
6
CONTINUOUS
10
249.946
20
-54.1444
11
249.993
21
-54.192
0
LINE
8
BLACK
6
CONTINUOUS
10
249.993
20
-54.192
11
250.041
21
-54.2873
0
LINE
8
BLACK
6
CONTINUOUS
10
250.041
20
-54.2873
11
250.041
21
-54.4777
0
LINE
8
BLACK
6
CONTINUOUS
10
250.041
20
-54.4777
11
250.089
21
-54.573
0
LINE
8
BLACK
6
CONTINUOUS
10
250.089
20
-54.573
11
250.136
21
-54.6206
0
LINE
8
BLACK
6
CONTINUOUS
10
250.136
20
-54.6206
11
250.231
21
-54.6682
0
LINE
8
BLACK
6
CONTINUOUS
10
250.231
20
-54.6682
11
250.422
21
-54.6682
0
LINE
8
BLACK
6
CONTINUOUS
10
250.422
20
-54.6682
11
250.517
21
-54.6206
0
LINE
8
BLACK
6
CONTINUOUS
10
250.517
20
-54.6206
11
250.565
21
-54.573
0
LINE
8
BLACK
6
CONTINUOUS
10
250.565
20
-54.573
11
250.612
21
-54.4777
0
LINE
8
BLACK
6
CONTINUOUS
10
250.612
20
-54.4777
11
250.612
21
-54.2873
0
LINE
8
BLACK
6
CONTINUOUS
10
250.612
20
-54.2873
11
250.565
21
-54.192
0
LINE
8
BLACK
6
CONTINUOUS
10
250.565
20
-54.192
11
250.517
21
-54.1444
0
LINE
8
BLACK
6
CONTINUOUS
10
250.517
20
-54.1444
11
250.422
21
-54.0968
0
LINE
8
BLACK
6
CONTINUOUS
10
250.422
20
-54.0968
11
250.231
21
-54.0968
0
LINE
8
BLACK
6
CONTINUOUS
10
250.231
20
-54.0968
11
250.136
21
-54.1444
0
LINE
8
BLACK
6
CONTINUOUS
10
250.136
20
-54.1444
11
250.089
21
-54.192
0
LINE
8
BLACK
6
CONTINUOUS
10
250.089
20
-54.192
11
250.041
21
-54.2873
0
LINE
8
BLACK
6
CONTINUOUS
10
249.612
20
-53.192
11
249.612
21
-53.6682
0
LINE
8
BLACK
6
CONTINUOUS
10
249.612
20
-53.6682
11
250.089
21
-53.7158
0
LINE
8
BLACK
6
CONTINUOUS
10
250.089
20
-53.7158
11
250.041
21
-53.6682
0
LINE
8
BLACK
6
CONTINUOUS
10
250.041
20
-53.6682
11
249.993
21
-53.573
0
LINE
8
BLACK
6
CONTINUOUS
10
249.993
20
-53.573
11
249.993
21
-53.3349
0
LINE
8
BLACK
6
CONTINUOUS
10
249.993
20
-53.3349
11
250.041
21
-53.2396
0
LINE
8
BLACK
6
CONTINUOUS
10
250.041
20
-53.2396
11
250.089
21
-53.192
0
LINE
8
BLACK
6
CONTINUOUS
10
250.089
20
-53.192
11
250.184
21
-53.1444
0
LINE
8
BLACK
6
CONTINUOUS
10
250.184
20
-53.1444
11
250.422
21
-53.1444
0
LINE
8
BLACK
6
CONTINUOUS
10
250.422
20
-53.1444
11
250.517
21
-53.192
0
LINE
8
BLACK
6
CONTINUOUS
10
250.517
20
-53.192
11
250.565
21
-53.2396
0
LINE
8
BLACK
6
CONTINUOUS
10
250.565
20
-53.2396
11
250.612
21
-53.3349
0
LINE
8
BLACK
6
CONTINUOUS
10
250.612
20
-53.3349
11
250.612
21
-53.573
0
LINE
8
BLACK
6
CONTINUOUS
10
250.612
20
-53.573
11
250.565
21
-53.6682
0
LINE
8
BLACK
6
CONTINUOUS
10
250.565
20
-53.6682
11
250.517
21
-53.7158
0
LINE
8
BLACK
6
CONTINUOUS
10
249.612
20
-52.2396
11
249.612
21
-52.7158
0
LINE
8
BLACK
6
CONTINUOUS
10
249.612
20
-52.7158
11
250.089
21
-52.7635
0
LINE
8
BLACK
6
CONTINUOUS
10
250.089
20
-52.7635
11
250.041
21
-52.7158
0
LINE
8
BLACK
6
CONTINUOUS
10
250.041
20
-52.7158
11
249.993
21
-52.6206
0
LINE
8
BLACK
6
CONTINUOUS
10
249.993
20
-52.6206
11
249.993
21
-52.3825
0
LINE
8
BLACK
6
CONTINUOUS
10
249.993
20
-52.3825
11
250.041
21
-52.2873
0
LINE
8
BLACK
6
CONTINUOUS
10
250.041
20
-52.2873
11
250.089
21
-52.2396
0
LINE
8
BLACK
6
CONTINUOUS
10
250.089
20
-52.2396
11
250.184
21
-52.192
0
LINE
8
BLACK
6
CONTINUOUS
10
250.184
20
-52.192
11
250.422
21
-52.192
0
LINE
8
BLACK
6
CONTINUOUS
10
250.422
20
-52.192
11
250.517
21
-52.2396
0
LINE
8
BLACK
6
CONTINUOUS
10
250.517
20
-52.2396
11
250.565
21
-52.2873
0
LINE
8
BLACK
6
CONTINUOUS
10
250.565
20
-52.2873
11
250.612
21
-52.3825
0
LINE
8
BLACK
6
CONTINUOUS
10
250.612
20
-52.3825
11
250.612
21
-52.6206
0
LINE
8
BLACK
6
CONTINUOUS
10
250.612
20
-52.6206
11
250.565
21
-52.7158
0
LINE
8
BLACK
6
CONTINUOUS
10
250.565
20
-52.7158
11
250.517
21
-52.7635
0
LINE
8
BLACK
6
CONTINUOUS
10
250.612
20
-51.0015
11
249.946
21
-51.0015
0
LINE
8
BLACK
6
CONTINUOUS
10
250.041
20
-51.0015
11
249.993
21
-50.9539
0
LINE
8
BLACK
6
CONTINUOUS
10
249.993
20
-50.9539
11
249.946
21
-50.8587
0
LINE
8
BLACK
6
CONTINUOUS
10
249.946
20
-50.8587
11
249.946
21
-50.7158
0
LINE
8
BLACK
6
CONTINUOUS
10
249.946
20
-50.7158
11
249.993
21
-50.6206
0
LINE
8
BLACK
6
CONTINUOUS
10
249.993
20
-50.6206
11
250.089
21
-50.573
0
LINE
8
BLACK
6
CONTINUOUS
10
250.089
20
-50.573
11
250.612
21
-50.573
0
LINE
8
BLACK
6
CONTINUOUS
10
250.089
20
-50.573
11
249.993
21
-50.5254
0
LINE
8
BLACK
6
CONTINUOUS
10
249.993
20
-50.5254
11
249.946
21
-50.4301
0
LINE
8
BLACK
6
CONTINUOUS
10
249.946
20
-50.4301
11
249.946
21
-50.2873
0
LINE
8
BLACK
6
CONTINUOUS
10
249.946
20
-50.2873
11
249.993
21
-50.192
0
LINE
8
BLACK
6
CONTINUOUS
10
249.993
20
-50.192
11
250.089
21
-50.1444
0
LINE
8
BLACK
6
CONTINUOUS
10
250.089
20
-50.1444
11
250.612
21
-50.1444
0
LINE
8
BLACK
6
CONTINUOUS
10
250.612
20
-49.6682
11
249.946
21
-49.6682
0
LINE
8
BLACK
6
CONTINUOUS
10
250.041
20
-49.6682
11
249.993
21
-49.6206
0
LINE
8
BLACK
6
CONTINUOUS
10
249.993
20
-49.6206
11
249.946
21
-49.5254
0
LINE
8
BLACK
6
CONTINUOUS
10
249.946
20
-49.5254
11
249.946
21
-49.3825
0
LINE
8
BLACK
6
CONTINUOUS
10
249.946
20
-49.3825
11
249.993
21
-49.2873
0
LINE
8
BLACK
6
CONTINUOUS
10
249.993
20
-49.2873
11
250.089
21
-49.2396
0
LINE
8
BLACK
6
CONTINUOUS
10
250.089
20
-49.2396
11
250.612
21
-49.2396
0
LINE
8
BLACK
6
CONTINUOUS
10
250.089
20
-49.2396
11
249.993
21
-49.192
0
LINE
8
BLACK
6
CONTINUOUS
10
249.993
20
-49.192
11
249.946
21
-49.0968
0
LINE
8
BLACK
6
CONTINUOUS
10
249.946
20
-49.0968
11
249.946
21
-48.9539
0
LINE
8
BLACK
6
CONTINUOUS
10
249.946
20
-48.9539
11
249.993
21
-48.8587
0
LINE
8
BLACK
6
CONTINUOUS
10
249.993
20
-48.8587
11
250.089
21
-48.8111
0
LINE
8
BLACK
6
CONTINUOUS
10
250.089
20
-48.8111
11
250.612
21
-48.8111
0
LINE
8
BLACK
6
CONTINUOUS
10
248.86
20
-114.81
11
248.86
21
8.045
0
LINE
8
BLACK
6
CONTINUOUS
10
248.255
20
-114.81
11
249.446
21
-114.81
0
LINE
8
BLACK
6
CONTINUOUS
10
248.255
20
8.045
11
249.446
21
8.045
0
LINE
8
BLACK
6
CONTINUOUS
10
248.86
20
8.045
11
249.446
21
6.9185
0
LINE
8
BLACK
6
CONTINUOUS
10
248.86
20
8.045
11
248.274
21
6.9185
0
LINE
8
BLACK
6
CONTINUOUS
10
248.86
20
-114.81
11
249.446
21
-113.683
0
LINE
8
BLACK
6
CONTINUOUS
10
248.86
20
-114.81
11
248.274
21
-113.683
0
LINE
8
BLACK
6
CONTINUOUS
10
237.335
20
-83.98
11
244.25
21
-97.26
0
LINE
8
BLACK
6
CONTINUOUS
10
194.496
20
10.6676
11
193.925
21
10.6676
0
LINE
8
BLACK
6
CONTINUOUS
10
194.21
20
10.6676
11
194.21
21
11.6676
0
LINE
8
BLACK
6
CONTINUOUS
10
194.21
20
11.6676
11
194.115
21
11.5248
0
LINE
8
BLACK
6
CONTINUOUS
10
194.115
20
11.5248
11
194.02
21
11.4295
0
LINE
8
BLACK
6
CONTINUOUS
10
194.02
20
11.4295
11
193.925
21
11.3819
0
LINE
8
BLACK
6
CONTINUOUS
10
195.067
20
11.239
11
194.972
21
11.2867
0
LINE
8
BLACK
6
CONTINUOUS
10
194.972
20
11.2867
11
194.925
21
11.3343
0
LINE
8
BLACK
6
CONTINUOUS
10
194.925
20
11.3343
11
194.877
21
11.4295
0
LINE
8
BLACK
6
CONTINUOUS
10
194.877
20
11.4295
11
194.877
21
11.4771
0
LINE
8
BLACK
6
CONTINUOUS
10
194.877
20
11.4771
11
194.925
21
11.5724
0
LINE
8
BLACK
6
CONTINUOUS
10
194.925
20
11.5724
11
194.972
21
11.62
0
LINE
8
BLACK
6
CONTINUOUS
10
194.972
20
11.62
11
195.067
21
11.6676
0
LINE
8
BLACK
6
CONTINUOUS
10
195.067
20
11.6676
11
195.258
21
11.6676
0
LINE
8
BLACK
6
CONTINUOUS
10
195.258
20
11.6676
11
195.353
21
11.62
0
LINE
8
BLACK
6
CONTINUOUS
10
195.353
20
11.62
11
195.401
21
11.5724
0
LINE
8
BLACK
6
CONTINUOUS
10
195.401
20
11.5724
11
195.448
21
11.4771
0
LINE
8
BLACK
6
CONTINUOUS
10
195.448
20
11.4771
11
195.448
21
11.4295
0
LINE
8
BLACK
6
CONTINUOUS
10
195.448
20
11.4295
11
195.401
21
11.3343
0
LINE
8
BLACK
6
CONTINUOUS
10
195.401
20
11.3343
11
195.353
21
11.2867
0
LINE
8
BLACK
6
CONTINUOUS
10
195.353
20
11.2867
11
195.258
21
11.239
0
LINE
8
BLACK
6
CONTINUOUS
10
195.258
20
11.239
11
195.067
21
11.239
0
LINE
8
BLACK
6
CONTINUOUS
10
195.067
20
11.239
11
194.972
21
11.1914
0
LINE
8
BLACK
6
CONTINUOUS
10
194.972
20
11.1914
11
194.925
21
11.1438
0
LINE
8
BLACK
6
CONTINUOUS
10
194.925
20
11.1438
11
194.877
21
11.0486
0
LINE
8
BLACK
6
CONTINUOUS
10
194.877
20
11.0486
11
194.877
21
10.8581
0
LINE
8
BLACK
6
CONTINUOUS
10
194.877
20
10.8581
11
194.925
21
10.7629
0
LINE
8
BLACK
6
CONTINUOUS
10
194.925
20
10.7629
11
194.972
21
10.7152
0
LINE
8
BLACK
6
CONTINUOUS
10
194.972
20
10.7152
11
195.067
21
10.6676
0
LINE
8
BLACK
6
CONTINUOUS
10
195.067
20
10.6676
11
195.258
21
10.6676
0
LINE
8
BLACK
6
CONTINUOUS
10
195.258
20
10.6676
11
195.353
21
10.7152
0
LINE
8
BLACK
6
CONTINUOUS
10
195.353
20
10.7152
11
195.401
21
10.7629
0
LINE
8
BLACK
6
CONTINUOUS
10
195.401
20
10.7629
11
195.448
21
10.8581
0
LINE
8
BLACK
6
CONTINUOUS
10
195.448
20
10.8581
11
195.448
21
11.0486
0
LINE
8
BLACK
6
CONTINUOUS
10
195.448
20
11.0486
11
195.401
21
11.1438
0
LINE
8
BLACK
6
CONTINUOUS
10
195.401
20
11.1438
11
195.353
21
11.1914
0
LINE
8
BLACK
6
CONTINUOUS
10
195.353
20
11.1914
11
195.258
21
11.239
0
LINE
8
BLACK
6
CONTINUOUS
10
195.877
20
10.7629
11
195.925
21
10.7152
0
LINE
8
BLACK
6
CONTINUOUS
10
195.925
20
10.7152
11
195.877
21
10.6676
0
LINE
8
BLACK
6
CONTINUOUS
10
195.877
20
10.6676
11
195.829
21
10.7152
0
LINE
8
BLACK
6
CONTINUOUS
10
195.829
20
10.7152
11
195.877
21
10.7629
0
LINE
8
BLACK
6
CONTINUOUS
10
195.877
20
10.7629
11
195.877
21
10.6676
0
LINE
8
BLACK
6
CONTINUOUS
10
196.829
20
11.6676
11
196.353
21
11.6676
0
LINE
8
BLACK
6
CONTINUOUS
10
196.353
20
11.6676
11
196.306
21
11.1914
0
LINE
8
BLACK
6
CONTINUOUS
10
196.306
20
11.1914
11
196.353
21
11.239
0
LINE
8
BLACK
6
CONTINUOUS
10
196.353
20
11.239
11
196.448
21
11.2867
0
LINE
8
BLACK
6
CONTINUOUS
10
196.448
20
11.2867
11
196.687
21
11.2867
0
LINE
8
BLACK
6
CONTINUOUS
10
196.687
20
11.2867
11
196.782
21
11.239
0
LINE
8
BLACK
6
CONTINUOUS
10
196.782
20
11.239
11
196.829
21
11.1914
0
LINE
8
BLACK
6
CONTINUOUS
10
196.829
20
11.1914
11
196.877
21
11.0962
0
LINE
8
BLACK
6
CONTINUOUS
10
196.877
20
11.0962
11
196.877
21
10.8581
0
LINE
8
BLACK
6
CONTINUOUS
10
196.877
20
10.8581
11
196.829
21
10.7629
0
LINE
8
BLACK
6
CONTINUOUS
10
196.829
20
10.7629
11
196.782
21
10.7152
0
LINE
8
BLACK
6
CONTINUOUS
10
196.782
20
10.7152
11
196.687
21
10.6676
0
LINE
8
BLACK
6
CONTINUOUS
10
196.687
20
10.6676
11
196.448
21
10.6676
0
LINE
8
BLACK
6
CONTINUOUS
10
196.448
20
10.6676
11
196.353
21
10.7152
0
LINE
8
BLACK
6
CONTINUOUS
10
196.353
20
10.7152
11
196.306
21
10.7629
0
LINE
8
BLACK
6
CONTINUOUS
10
197.21
20
11.6676
11
197.829
21
11.6676
0
LINE
8
BLACK
6
CONTINUOUS
10
197.829
20
11.6676
11
197.496
21
11.2867
0
LINE
8
BLACK
6
CONTINUOUS
10
197.496
20
11.2867
11
197.639
21
11.2867
0
LINE
8
BLACK
6
CONTINUOUS
10
197.639
20
11.2867
11
197.734
21
11.239
0
LINE
8
BLACK
6
CONTINUOUS
10
197.734
20
11.239
11
197.782
21
11.1914
0
LINE
8
BLACK
6
CONTINUOUS
10
197.782
20
11.1914
11
197.829
21
11.0962
0
LINE
8
BLACK
6
CONTINUOUS
10
197.829
20
11.0962
11
197.829
21
10.8581
0
LINE
8
BLACK
6
CONTINUOUS
10
197.829
20
10.8581
11
197.782
21
10.7629
0
LINE
8
BLACK
6
CONTINUOUS
10
197.782
20
10.7629
11
197.734
21
10.7152
0
LINE
8
BLACK
6
CONTINUOUS
10
197.734
20
10.7152
11
197.639
21
10.6676
0
LINE
8
BLACK
6
CONTINUOUS
10
197.639
20
10.6676
11
197.353
21
10.6676
0
LINE
8
BLACK
6
CONTINUOUS
10
197.353
20
10.6676
11
197.258
21
10.7152
0
LINE
8
BLACK
6
CONTINUOUS
10
197.258
20
10.7152
11
197.21
21
10.7629
0
LINE
8
BLACK
6
CONTINUOUS
10
198.734
20
11.6676
11
198.258
21
11.6676
0
LINE
8
BLACK
6
CONTINUOUS
10
198.258
20
11.6676
11
198.21
21
11.1914
0
LINE
8
BLACK
6
CONTINUOUS
10
198.21
20
11.1914
11
198.258
21
11.239
0
LINE
8
BLACK
6
CONTINUOUS
10
198.258
20
11.239
11
198.353
21
11.2867
0
LINE
8
BLACK
6
CONTINUOUS
10
198.353
20
11.2867
11
198.591
21
11.2867
0
LINE
8
BLACK
6
CONTINUOUS
10
198.591
20
11.2867
11
198.687
21
11.239
0
LINE
8
BLACK
6
CONTINUOUS
10
198.687
20
11.239
11
198.734
21
11.1914
0
LINE
8
BLACK
6
CONTINUOUS
10
198.734
20
11.1914
11
198.782
21
11.0962
0
LINE
8
BLACK
6
CONTINUOUS
10
198.782
20
11.0962
11
198.782
21
10.8581
0
LINE
8
BLACK
6
CONTINUOUS
10
198.782
20
10.8581
11
198.734
21
10.7629
0
LINE
8
BLACK
6
CONTINUOUS
10
198.734
20
10.7629
11
198.687
21
10.7152
0
LINE
8
BLACK
6
CONTINUOUS
10
198.687
20
10.7152
11
198.591
21
10.6676
0
LINE
8
BLACK
6
CONTINUOUS
10
198.591
20
10.6676
11
198.353
21
10.6676
0
LINE
8
BLACK
6
CONTINUOUS
10
198.353
20
10.6676
11
198.258
21
10.7152
0
LINE
8
BLACK
6
CONTINUOUS
10
198.258
20
10.7152
11
198.21
21
10.7629
0
LINE
8
BLACK
6
CONTINUOUS
10
199.972
20
10.6676
11
199.972
21
11.3343
0
LINE
8
BLACK
6
CONTINUOUS
10
199.972
20
11.239
11
200.02
21
11.2867
0
LINE
8
BLACK
6
CONTINUOUS
10
200.02
20
11.2867
11
200.115
21
11.3343
0
LINE
8
BLACK
6
CONTINUOUS
10
200.115
20
11.3343
11
200.258
21
11.3343
0
LINE
8
BLACK
6
CONTINUOUS
10
200.258
20
11.3343
11
200.353
21
11.2867
0
LINE
8
BLACK
6
CONTINUOUS
10
200.353
20
11.2867
11
200.401
21
11.1914
0
LINE
8
BLACK
6
CONTINUOUS
10
200.401
20
11.1914
11
200.401
21
10.6676
0
LINE
8
BLACK
6
CONTINUOUS
10
200.401
20
11.1914
11
200.448
21
11.2867
0
LINE
8
BLACK
6
CONTINUOUS
10
200.448
20
11.2867
11
200.544
21
11.3343
0
LINE
8
BLACK
6
CONTINUOUS
10
200.544
20
11.3343
11
200.687
21
11.3343
0
LINE
8
BLACK
6
CONTINUOUS
10
200.687
20
11.3343
11
200.782
21
11.2867
0
LINE
8
BLACK
6
CONTINUOUS
10
200.782
20
11.2867
11
200.829
21
11.1914
0
LINE
8
BLACK
6
CONTINUOUS
10
200.829
20
11.1914
11
200.829
21
10.6676
0
LINE
8
BLACK
6
CONTINUOUS
10
201.306
20
10.6676
11
201.306
21
11.3343
0
LINE
8
BLACK
6
CONTINUOUS
10
201.306
20
11.239
11
201.353
21
11.2867
0
LINE
8
BLACK
6
CONTINUOUS
10
201.353
20
11.2867
11
201.448
21
11.3343
0
LINE
8
BLACK
6
CONTINUOUS
10
201.448
20
11.3343
11
201.591
21
11.3343
0
LINE
8
BLACK
6
CONTINUOUS
10
201.591
20
11.3343
11
201.687
21
11.2867
0
LINE
8
BLACK
6
CONTINUOUS
10
201.687
20
11.2867
11
201.734
21
11.1914
0
LINE
8
BLACK
6
CONTINUOUS
10
201.734
20
11.1914
11
201.734
21
10.6676
0
LINE
8
BLACK
6
CONTINUOUS
10
201.734
20
11.1914
11
201.782
21
11.2867
0
LINE
8
BLACK
6
CONTINUOUS
10
201.782
20
11.2867
11
201.877
21
11.3343
0
LINE
8
BLACK
6
CONTINUOUS
10
201.877
20
11.3343
11
202.02
21
11.3343
0
LINE
8
BLACK
6
CONTINUOUS
10
202.02
20
11.3343
11
202.115
21
11.2867
0
LINE
8
BLACK
6
CONTINUOUS
10
202.115
20
11.2867
11
202.163
21
11.1914
0
LINE
8
BLACK
6
CONTINUOUS
10
202.163
20
11.1914
11
202.163
21
10.6676
0
LINE
8
BLACK
6
CONTINUOUS
10
188.8
20
9.82
11
207.335
21
9.82
0
LINE
8
BLACK
6
CONTINUOUS
10
188.8
20
9.55
11
188.8
21
10.4064
0
LINE
8
BLACK
6
CONTINUOUS
10
207.335
20
9.55
11
207.335
21
10.4064
0
LINE
8
BLACK
6
CONTINUOUS
10
207.335
20
9.82
11
206.208
21
9.23358
0
LINE
8
BLACK
6
CONTINUOUS
10
207.335
20
9.82
11
206.208
21
10.4064
0
LINE
8
BLACK
6
CONTINUOUS
10
188.8
20
9.82
11
189.927
21
9.23358
0
LINE
8
BLACK
6
CONTINUOUS
10
188.8
20
9.82
11
189.927
21
10.4064
0
LINE
8
BLACK
6
CONTINUOUS
10
246.488
20
-102.464
11
246.488
21
-101.892
0
LINE
8
BLACK
6
CONTINUOUS
10
246.488
20
-102.178
11
247.488
21
-102.178
0
LINE
8
BLACK
6
CONTINUOUS
10
247.488
20
-102.178
11
247.345
21
-102.083
0
LINE
8
BLACK
6
CONTINUOUS
10
247.345
20
-102.083
11
247.25
21
-101.987
0
LINE
8
BLACK
6
CONTINUOUS
10
247.25
20
-101.987
11
247.202
21
-101.892
0
LINE
8
BLACK
6
CONTINUOUS
10
247.488
20
-102.797
11
247.488
21
-103.464
0
LINE
8
BLACK
6
CONTINUOUS
10
247.488
20
-103.464
11
246.488
21
-103.035
0
LINE
8
BLACK
6
CONTINUOUS
10
246.583
20
-103.845
11
246.535
21
-103.892
0
LINE
8
BLACK
6
CONTINUOUS
10
246.535
20
-103.892
11
246.488
21
-103.845
0
LINE
8
BLACK
6
CONTINUOUS
10
246.488
20
-103.845
11
246.535
21
-103.797
0
LINE
8
BLACK
6
CONTINUOUS
10
246.535
20
-103.797
11
246.583
21
-103.845
0
LINE
8
BLACK
6
CONTINUOUS
10
246.583
20
-103.845
11
246.488
21
-103.845
0
LINE
8
BLACK
6
CONTINUOUS
10
247.488
20
-104.797
11
247.488
21
-104.321
0
LINE
8
BLACK
6
CONTINUOUS
10
247.488
20
-104.321
11
247.011
21
-104.273
0
LINE
8
BLACK
6
CONTINUOUS
10
247.011
20
-104.273
11
247.059
21
-104.321
0
LINE
8
BLACK
6
CONTINUOUS
10
247.059
20
-104.321
11
247.107
21
-104.416
0
LINE
8
BLACK
6
CONTINUOUS
10
247.107
20
-104.416
11
247.107
21
-104.654
0
LINE
8
BLACK
6
CONTINUOUS
10
247.107
20
-104.654
11
247.059
21
-104.749
0
LINE
8
BLACK
6
CONTINUOUS
10
247.059
20
-104.749
11
247.011
21
-104.797
0
LINE
8
BLACK
6
CONTINUOUS
10
247.011
20
-104.797
11
246.916
21
-104.845
0
LINE
8
BLACK
6
CONTINUOUS
10
246.916
20
-104.845
11
246.678
21
-104.845
0
LINE
8
BLACK
6
CONTINUOUS
10
246.678
20
-104.845
11
246.583
21
-104.797
0
LINE
8
BLACK
6
CONTINUOUS
10
246.583
20
-104.797
11
246.535
21
-104.749
0
LINE
8
BLACK
6
CONTINUOUS
10
246.535
20
-104.749
11
246.488
21
-104.654
0
LINE
8
BLACK
6
CONTINUOUS
10
246.488
20
-104.654
11
246.488
21
-104.416
0
LINE
8
BLACK
6
CONTINUOUS
10
246.488
20
-104.416
11
246.535
21
-104.321
0
LINE
8
BLACK
6
CONTINUOUS
10
246.535
20
-104.321
11
246.583
21
-104.273
0
LINE
8
BLACK
6
CONTINUOUS
10
247.488
20
-105.749
11
247.488
21
-105.273
0
LINE
8
BLACK
6
CONTINUOUS
10
247.488
20
-105.273
11
247.011
21
-105.225
0
LINE
8
BLACK
6
CONTINUOUS
10
247.011
20
-105.225
11
247.059
21
-105.273
0
LINE
8
BLACK
6
CONTINUOUS
10
247.059
20
-105.273
11
247.107
21
-105.368
0
LINE
8
BLACK
6
CONTINUOUS
10
247.107
20
-105.368
11
247.107
21
-105.606
0
LINE
8
BLACK
6
CONTINUOUS
10
247.107
20
-105.606
11
247.059
21
-105.702
0
LINE
8
BLACK
6
CONTINUOUS
10
247.059
20
-105.702
11
247.011
21
-105.749
0
LINE
8
BLACK
6
CONTINUOUS
10
247.011
20
-105.749
11
246.916
21
-105.797
0
LINE
8
BLACK
6
CONTINUOUS
10
246.916
20
-105.797
11
246.678
21
-105.797
0
LINE
8
BLACK
6
CONTINUOUS
10
246.678
20
-105.797
11
246.583
21
-105.749
0
LINE
8
BLACK
6
CONTINUOUS
10
246.583
20
-105.749
11
246.535
21
-105.702
0
LINE
8
BLACK
6
CONTINUOUS
10
246.535
20
-105.702
11
246.488
21
-105.606
0
LINE
8
BLACK
6
CONTINUOUS
10
246.488
20
-105.606
11
246.488
21
-105.368
0
LINE
8
BLACK
6
CONTINUOUS
10
246.488
20
-105.368
11
246.535
21
-105.273
0
LINE
8
BLACK
6
CONTINUOUS
10
246.535
20
-105.273
11
246.583
21
-105.225
0
LINE
8
BLACK
6
CONTINUOUS
10
247.488
20
-106.416
11
247.488
21
-106.511
0
LINE
8
BLACK
6
CONTINUOUS
10
247.488
20
-106.511
11
247.44
21
-106.606
0
LINE
8
BLACK
6
CONTINUOUS
10
247.44
20
-106.606
11
247.392
21
-106.654
0
LINE
8
BLACK
6
CONTINUOUS
10
247.392
20
-106.654
11
247.297
21
-106.702
0
LINE
8
BLACK
6
CONTINUOUS
10
247.297
20
-106.702
11
247.107
21
-106.749
0
LINE
8
BLACK
6
CONTINUOUS
10
247.107
20
-106.749
11
246.869
21
-106.749
0
LINE
8
BLACK
6
CONTINUOUS
10
246.869
20
-106.749
11
246.678
21
-106.702
0
LINE
8
BLACK
6
CONTINUOUS
10
246.678
20
-106.702
11
246.583
21
-106.654
0
LINE
8
BLACK
6
CONTINUOUS
10
246.583
20
-106.654
11
246.535
21
-106.606
0
LINE
8
BLACK
6
CONTINUOUS
10
246.535
20
-106.606
11
246.488
21
-106.511
0
LINE
8
BLACK
6
CONTINUOUS
10
246.488
20
-106.511
11
246.488
21
-106.416
0
LINE
8
BLACK
6
CONTINUOUS
10
246.488
20
-106.416
11
246.535
21
-106.321
0
LINE
8
BLACK
6
CONTINUOUS
10
246.535
20
-106.321
11
246.583
21
-106.273
0
LINE
8
BLACK
6
CONTINUOUS
10
246.583
20
-106.273
11
246.678
21
-106.225
0
LINE
8
BLACK
6
CONTINUOUS
10
246.678
20
-106.225
11
246.869
21
-106.178
0
LINE
8
BLACK
6
CONTINUOUS
10
246.869
20
-106.178
11
247.107
21
-106.178
0
LINE
8
BLACK
6
CONTINUOUS
10
247.107
20
-106.178
11
247.297
21
-106.225
0
LINE
8
BLACK
6
CONTINUOUS
10
247.297
20
-106.225
11
247.392
21
-106.273
0
LINE
8
BLACK
6
CONTINUOUS
10
247.392
20
-106.273
11
247.44
21
-106.321
0
LINE
8
BLACK
6
CONTINUOUS
10
247.44
20
-106.321
11
247.488
21
-106.416
0
LINE
8
BLACK
6
CONTINUOUS
10
246.488
20
-107.94
11
247.154
21
-107.94
0
LINE
8
BLACK
6
CONTINUOUS
10
247.059
20
-107.94
11
247.107
21
-107.987
0
LINE
8
BLACK
6
CONTINUOUS
10
247.107
20
-107.987
11
247.154
21
-108.083
0
LINE
8
BLACK
6
CONTINUOUS
10
247.154
20
-108.083
11
247.154
21
-108.225
0
LINE
8
BLACK
6
CONTINUOUS
10
247.154
20
-108.225
11
247.107
21
-108.321
0
LINE
8
BLACK
6
CONTINUOUS
10
247.107
20
-108.321
11
247.011
21
-108.368
0
LINE
8
BLACK
6
CONTINUOUS
10
247.011
20
-108.368
11
246.488
21
-108.368
0
LINE
8
BLACK
6
CONTINUOUS
10
247.011
20
-108.368
11
247.107
21
-108.416
0
LINE
8
BLACK
6
CONTINUOUS
10
247.107
20
-108.416
11
247.154
21
-108.511
0
LINE
8
BLACK
6
CONTINUOUS
10
247.154
20
-108.511
11
247.154
21
-108.654
0
LINE
8
BLACK
6
CONTINUOUS
10
247.154
20
-108.654
11
247.107
21
-108.749
0
LINE
8
BLACK
6
CONTINUOUS
10
247.107
20
-108.749
11
247.011
21
-108.797
0
LINE
8
BLACK
6
CONTINUOUS
10
247.011
20
-108.797
11
246.488
21
-108.797
0
LINE
8
BLACK
6
CONTINUOUS
10
246.488
20
-109.273
11
247.154
21
-109.273
0
LINE
8
BLACK
6
CONTINUOUS
10
247.059
20
-109.273
11
247.107
21
-109.321
0
LINE
8
BLACK
6
CONTINUOUS
10
247.107
20
-109.321
11
247.154
21
-109.416
0
LINE
8
BLACK
6
CONTINUOUS
10
247.154
20
-109.416
11
247.154
21
-109.559
0
LINE
8
BLACK
6
CONTINUOUS
10
247.154
20
-109.559
11
247.107
21
-109.654
0
LINE
8
BLACK
6
CONTINUOUS
10
247.107
20
-109.654
11
247.011
21
-109.702
0
LINE
8
BLACK
6
CONTINUOUS
10
247.011
20
-109.702
11
246.488
21
-109.702
0
LINE
8
BLACK
6
CONTINUOUS
10
247.011
20
-109.702
11
247.107
21
-109.749
0
LINE
8
BLACK
6
CONTINUOUS
10
247.107
20
-109.749
11
247.154
21
-109.845
0
LINE
8
BLACK
6
CONTINUOUS
10
247.154
20
-109.845
11
247.154
21
-109.987
0
LINE
8
BLACK
6
CONTINUOUS
10
247.154
20
-109.987
11
247.107
21
-110.083
0
LINE
8
BLACK
6
CONTINUOUS
10
247.107
20
-110.083
11
247.011
21
-110.13
0
LINE
8
BLACK
6
CONTINUOUS
10
247.011
20
-110.13
11
246.488
21
-110.13
0
LINE
8
BLACK
6
CONTINUOUS
10
245.64
20
-97.26
11
245.64
21
-114.81
0
LINE
8
BLACK
6
CONTINUOUS
10
245.25
20
-97.26
11
246.226
21
-97.26
0
LINE
8
BLACK
6
CONTINUOUS
10
245.25
20
-114.81
11
246.226
21
-114.81
0
LINE
8
BLACK
6
CONTINUOUS
10
245.64
20
-114.81
11
245.054
21
-113.683
0
LINE
8
BLACK
6
CONTINUOUS
10
245.64
20
-114.81
11
246.226
21
-113.683
0
LINE
8
BLACK
6
CONTINUOUS
10
245.64
20
-97.26
11
245.054
21
-98.3865
0
LINE
8
BLACK
6
CONTINUOUS
10
245.64
20
-97.26
11
246.226
21
-98.3865
0
LINE
8
BLACK
6
CONTINUOUS
10
222.209
20
-117.832
11
221.637
21
-117.832
0
LINE
8
BLACK
6
CONTINUOUS
10
221.923
20
-117.832
11
221.923
21
-116.832
0
LINE
8
BLACK
6
CONTINUOUS
10
221.923
20
-116.832
11
221.828
21
-116.975
0
LINE
8
BLACK
6
CONTINUOUS
10
221.828
20
-116.975
11
221.732
21
-117.07
0
LINE
8
BLACK
6
CONTINUOUS
10
221.732
20
-117.07
11
221.637
21
-117.118
0
LINE
8
BLACK
6
CONTINUOUS
10
222.542
20
-116.832
11
223.161
21
-116.832
0
LINE
8
BLACK
6
CONTINUOUS
10
223.161
20
-116.832
11
222.828
21
-117.213
0
LINE
8
BLACK
6
CONTINUOUS
10
222.828
20
-117.213
11
222.97
21
-117.213
0
LINE
8
BLACK
6
CONTINUOUS
10
222.97
20
-117.213
11
223.066
21
-117.261
0
LINE
8
BLACK
6
CONTINUOUS
10
223.066
20
-117.261
11
223.113
21
-117.309
0
LINE
8
BLACK
6
CONTINUOUS
10
223.113
20
-117.309
11
223.161
21
-117.404
0
LINE
8
BLACK
6
CONTINUOUS
10
223.161
20
-117.404
11
223.161
21
-117.642
0
LINE
8
BLACK
6
CONTINUOUS
10
223.161
20
-117.642
11
223.113
21
-117.737
0
LINE
8
BLACK
6
CONTINUOUS
10
223.113
20
-117.737
11
223.066
21
-117.785
0
LINE
8
BLACK
6
CONTINUOUS
10
223.066
20
-117.785
11
222.97
21
-117.832
0
LINE
8
BLACK
6
CONTINUOUS
10
222.97
20
-117.832
11
222.685
21
-117.832
0
LINE
8
BLACK
6
CONTINUOUS
10
222.685
20
-117.832
11
222.59
21
-117.785
0
LINE
8
BLACK
6
CONTINUOUS
10
222.59
20
-117.785
11
222.542
21
-117.737
0
LINE
8
BLACK
6
CONTINUOUS
10
223.59
20
-117.737
11
223.637
21
-117.785
0
LINE
8
BLACK
6
CONTINUOUS
10
223.637
20
-117.785
11
223.59
21
-117.832
0
LINE
8
BLACK
6
CONTINUOUS
10
223.59
20
-117.832
11
223.542
21
-117.785
0
LINE
8
BLACK
6
CONTINUOUS
10
223.542
20
-117.785
11
223.59
21
-117.737
0
LINE
8
BLACK
6
CONTINUOUS
10
223.59
20
-117.737
11
223.59
21
-117.832
0
LINE
8
BLACK
6
CONTINUOUS
10
224.113
20
-117.832
11
224.304
21
-117.832
0
LINE
8
BLACK
6
CONTINUOUS
10
224.304
20
-117.832
11
224.399
21
-117.785
0
LINE
8
BLACK
6
CONTINUOUS
10
224.399
20
-117.785
11
224.447
21
-117.737
0
LINE
8
BLACK
6
CONTINUOUS
10
224.447
20
-117.737
11
224.542
21
-117.594
0
LINE
8
BLACK
6
CONTINUOUS
10
224.542
20
-117.594
11
224.59
21
-117.404
0
LINE
8
BLACK
6
CONTINUOUS
10
224.59
20
-117.404
11
224.59
21
-117.023
0
LINE
8
BLACK
6
CONTINUOUS
10
224.59
20
-117.023
11
224.542
21
-116.928
0
LINE
8
BLACK
6
CONTINUOUS
10
224.542
20
-116.928
11
224.494
21
-116.88
0
LINE
8
BLACK
6
CONTINUOUS
10
224.494
20
-116.88
11
224.399
21
-116.832
0
LINE
8
BLACK
6
CONTINUOUS
10
224.399
20
-116.832
11
224.209
21
-116.832
0
LINE
8
BLACK
6
CONTINUOUS
10
224.209
20
-116.832
11
224.113
21
-116.88
0
LINE
8
BLACK
6
CONTINUOUS
10
224.113
20
-116.88
11
224.066
21
-116.928
0
LINE
8
BLACK
6
CONTINUOUS
10
224.066
20
-116.928
11
224.018
21
-117.023
0
LINE
8
BLACK
6
CONTINUOUS
10
224.018
20
-117.023
11
224.018
21
-117.261
0
LINE
8
BLACK
6
CONTINUOUS
10
224.018
20
-117.261
11
224.066
21
-117.356
0
LINE
8
BLACK
6
CONTINUOUS
10
224.066
20
-117.356
11
224.113
21
-117.404
0
LINE
8
BLACK
6
CONTINUOUS
10
224.113
20
-117.404
11
224.209
21
-117.451
0
LINE
8
BLACK
6
CONTINUOUS
10
224.209
20
-117.451
11
224.399
21
-117.451
0
LINE
8
BLACK
6
CONTINUOUS
10
224.399
20
-117.451
11
224.494
21
-117.404
0
LINE
8
BLACK
6
CONTINUOUS
10
224.494
20
-117.404
11
224.542
21
-117.356
0
LINE
8
BLACK
6
CONTINUOUS
10
224.542
20
-117.356
11
224.59
21
-117.261
0
LINE
8
BLACK
6
CONTINUOUS
10
225.447
20
-116.832
11
225.256
21
-116.832
0
LINE
8
BLACK
6
CONTINUOUS
10
225.256
20
-116.832
11
225.161
21
-116.88
0
LINE
8
BLACK
6
CONTINUOUS
10
225.161
20
-116.88
11
225.113
21
-116.928
0
LINE
8
BLACK
6
CONTINUOUS
10
225.113
20
-116.928
11
225.018
21
-117.07
0
LINE
8
BLACK
6
CONTINUOUS
10
225.018
20
-117.07
11
224.97
21
-117.261
0
LINE
8
BLACK
6
CONTINUOUS
10
224.97
20
-117.261
11
224.97
21
-117.642
0
LINE
8
BLACK
6
CONTINUOUS
10
224.97
20
-117.642
11
225.018
21
-117.737
0
LINE
8
BLACK
6
CONTINUOUS
10
225.018
20
-117.737
11
225.066
21
-117.785
0
LINE
8
BLACK
6
CONTINUOUS
10
225.066
20
-117.785
11
225.161
21
-117.832
0
LINE
8
BLACK
6
CONTINUOUS
10
225.161
20
-117.832
11
225.351
21
-117.832
0
LINE
8
BLACK
6
CONTINUOUS
10
225.351
20
-117.832
11
225.447
21
-117.785
0
LINE
8
BLACK
6
CONTINUOUS
10
225.447
20
-117.785
11
225.494
21
-117.737
0
LINE
8
BLACK
6
CONTINUOUS
10
225.494
20
-117.737
11
225.542
21
-117.642
0
LINE
8
BLACK
6
CONTINUOUS
10
225.542
20
-117.642
11
225.542
21
-117.404
0
LINE
8
BLACK
6
CONTINUOUS
10
225.542
20
-117.404
11
225.494
21
-117.309
0
LINE
8
BLACK
6
CONTINUOUS
10
225.494
20
-117.309
11
225.447
21
-117.261
0
LINE
8
BLACK
6
CONTINUOUS
10
225.447
20
-117.261
11
225.351
21
-117.213
0
LINE
8
BLACK
6
CONTINUOUS
10
225.351
20
-117.213
11
225.161
21
-117.213
0
LINE
8
BLACK
6
CONTINUOUS
10
225.161
20
-117.213
11
225.066
21
-117.261
0
LINE
8
BLACK
6
CONTINUOUS
10
225.066
20
-117.261
11
225.018
21
-117.309
0
LINE
8
BLACK
6
CONTINUOUS
10
225.018
20
-117.309
11
224.97
21
-117.404
0
LINE
8
BLACK
6
CONTINUOUS
10
226.161
20
-116.832
11
226.256
21
-116.832
0
LINE
8
BLACK
6
CONTINUOUS
10
226.256
20
-116.832
11
226.351
21
-116.88
0
LINE
8
BLACK
6
CONTINUOUS
10
226.351
20
-116.88
11
226.399
21
-116.928
0
LINE
8
BLACK
6
CONTINUOUS
10
226.399
20
-116.928
11
226.447
21
-117.023
0
LINE
8
BLACK
6
CONTINUOUS
10
226.447
20
-117.023
11
226.494
21
-117.213
0
LINE
8
BLACK
6
CONTINUOUS
10
226.494
20
-117.213
11
226.494
21
-117.451
0
LINE
8
BLACK
6
CONTINUOUS
10
226.494
20
-117.451
11
226.447
21
-117.642
0
LINE
8
BLACK
6
CONTINUOUS
10
226.447
20
-117.642
11
226.399
21
-117.737
0
LINE
8
BLACK
6
CONTINUOUS
10
226.399
20
-117.737
11
226.351
21
-117.785
0
LINE
8
BLACK
6
CONTINUOUS
10
226.351
20
-117.785
11
226.256
21
-117.832
0
LINE
8
BLACK
6
CONTINUOUS
10
226.256
20
-117.832
11
226.161
21
-117.832
0
LINE
8
BLACK
6
CONTINUOUS
10
226.161
20
-117.832
11
226.066
21
-117.785
0
LINE
8
BLACK
6
CONTINUOUS
10
226.066
20
-117.785
11
226.018
21
-117.737
0
LINE
8
BLACK
6
CONTINUOUS
10
226.018
20
-117.737
11
225.97
21
-117.642
0
LINE
8
BLACK
6
CONTINUOUS
10
225.97
20
-117.642
11
225.923
21
-117.451
0
LINE
8
BLACK
6
CONTINUOUS
10
225.923
20
-117.451
11
225.923
21
-117.213
0
LINE
8
BLACK
6
CONTINUOUS
10
225.923
20
-117.213
11
225.97
21
-117.023
0
LINE
8
BLACK
6
CONTINUOUS
10
225.97
20
-117.023
11
226.018
21
-116.928
0
LINE
8
BLACK
6
CONTINUOUS
10
226.018
20
-116.928
11
226.066
21
-116.88
0
LINE
8
BLACK
6
CONTINUOUS
10
226.066
20
-116.88
11
226.161
21
-116.832
0
LINE
8
BLACK
6
CONTINUOUS
10
227.685
20
-117.832
11
227.685
21
-117.166
0
LINE
8
BLACK
6
CONTINUOUS
10
227.685
20
-117.261
11
227.732
21
-117.213
0
LINE
8
BLACK
6
CONTINUOUS
10
227.732
20
-117.213
11
227.828
21
-117.166
0
LINE
8
BLACK
6
CONTINUOUS
10
227.828
20
-117.166
11
227.97
21
-117.166
0
LINE
8
BLACK
6
CONTINUOUS
10
227.97
20
-117.166
11
228.066
21
-117.213
0
LINE
8
BLACK
6
CONTINUOUS
10
228.066
20
-117.213
11
228.113
21
-117.309
0
LINE
8
BLACK
6
CONTINUOUS
10
228.113
20
-117.309
11
228.113
21
-117.832
0
LINE
8
BLACK
6
CONTINUOUS
10
228.113
20
-117.309
11
228.161
21
-117.213
0
LINE
8
BLACK
6
CONTINUOUS
10
228.161
20
-117.213
11
228.256
21
-117.166
0
LINE
8
BLACK
6
CONTINUOUS
10
228.256
20
-117.166
11
228.399
21
-117.166
0
LINE
8
BLACK
6
CONTINUOUS
10
228.399
20
-117.166
11
228.494
21
-117.213
0
LINE
8
BLACK
6
CONTINUOUS
10
228.494
20
-117.213
11
228.542
21
-117.309
0
LINE
8
BLACK
6
CONTINUOUS
10
228.542
20
-117.309
11
228.542
21
-117.832
0
LINE
8
BLACK
6
CONTINUOUS
10
229.018
20
-117.832
11
229.018
21
-117.166
0
LINE
8
BLACK
6
CONTINUOUS
10
229.018
20
-117.261
11
229.066
21
-117.213
0
LINE
8
BLACK
6
CONTINUOUS
10
229.066
20
-117.213
11
229.161
21
-117.166
0
LINE
8
BLACK
6
CONTINUOUS
10
229.161
20
-117.166
11
229.304
21
-117.166
0
LINE
8
BLACK
6
CONTINUOUS
10
229.304
20
-117.166
11
229.399
21
-117.213
0
LINE
8
BLACK
6
CONTINUOUS
10
229.399
20
-117.213
11
229.447
21
-117.309
0
LINE
8
BLACK
6
CONTINUOUS
10
229.447
20
-117.309
11
229.447
21
-117.832
0
LINE
8
BLACK
6
CONTINUOUS
10
229.447
20
-117.309
11
229.494
21
-117.213
0
LINE
8
BLACK
6
CONTINUOUS
10
229.494
20
-117.213
11
229.59
21
-117.166
0
LINE
8
BLACK
6
CONTINUOUS
10
229.59
20
-117.166
11
229.732
21
-117.166
0
LINE
8
BLACK
6
CONTINUOUS
10
229.732
20
-117.166
11
229.828
21
-117.213
0
LINE
8
BLACK
6
CONTINUOUS
10
229.828
20
-117.213
11
229.875
21
-117.309
0
LINE
8
BLACK
6
CONTINUOUS
10
229.875
20
-117.309
11
229.875
21
-117.832
0
LINE
8
BLACK
6
CONTINUOUS
10
218.8
20
-116.08
11
232.76
21
-116.08
0
LINE
8
BLACK
6
CONTINUOUS
10
218.8
20
-115.705
11
218.8
21
-116.666
0
LINE
8
BLACK
6
CONTINUOUS
10
232.76
20
-115.705
11
232.76
21
-116.666
0
LINE
8
BLACK
6
CONTINUOUS
10
232.76
20
-116.08
11
231.633
21
-116.666
0
LINE
8
BLACK
6
CONTINUOUS
10
232.76
20
-116.08
11
231.633
21
-115.494
0
LINE
8
BLACK
6
CONTINUOUS
10
218.8
20
-116.08
11
219.927
21
-116.666
0
LINE
8
BLACK
6
CONTINUOUS
10
218.8
20
-116.08
11
219.927
21
-115.494
0
LINE
8
BLACK
6
CONTINUOUS
10
207.335
20
7.49
11
207.335
21
-83.98
0
LINE
8
BLACK
6
CONTINUOUS
10
231.555
20
-91.8511
11
231.666
21
-91.8732
0
LINE
8
BLACK
6
CONTINUOUS
10
231.666
20
-91.8732
11
231.875
21
-91.96
0
LINE
8
BLACK
6
CONTINUOUS
10
231.875
20
-91.96
11
232.064
21
-92.086
0
LINE
8
BLACK
6
CONTINUOUS
10
232.064
20
-92.086
11
232.224
21
-92.2463
0
LINE
8
BLACK
6
CONTINUOUS
10
232.224
20
-92.2463
11
232.35
21
-92.4348
0
LINE
8
BLACK
6
CONTINUOUS
10
232.35
20
-92.4348
11
232.437
21
-92.6443
0
LINE
8
BLACK
6
CONTINUOUS
10
232.437
20
-92.6443
11
232.481
21
-92.8666
0
LINE
8
BLACK
6
CONTINUOUS
10
232.481
20
-92.8666
11
232.481
21
-93.0934
0
LINE
8
BLACK
6
CONTINUOUS
10
232.481
20
-93.0934
11
232.437
21
-93.3157
0
LINE
8
BLACK
6
CONTINUOUS
10
232.437
20
-93.3157
11
232.35
21
-93.5252
0
LINE
8
BLACK
6
CONTINUOUS
10
232.35
20
-93.5252
11
232.224
21
-93.7137
0
LINE
8
BLACK
6
CONTINUOUS
10
232.224
20
-93.7137
11
232.064
21
-93.874
0
LINE
8
BLACK
6
CONTINUOUS
10
232.064
20
-93.874
11
231.875
21
-94
0
LINE
8
BLACK
6
CONTINUOUS
10
231.875
20
-94
11
231.666
21
-94.0868
0
LINE
8
BLACK
6
CONTINUOUS
10
231.666
20
-94.0868
11
231.555
21
-94.1089
0
LINE
8
BLACK
6
CONTINUOUS
10
231.555
20
-94.1089
11
231.443
21
-94.131
0
LINE
8
BLACK
6
CONTINUOUS
10
231.443
20
-94.131
11
231.217
21
-94.131
0
LINE
8
BLACK
6
CONTINUOUS
10
231.217
20
-94.131
11
231.105
21
-94.1089
0
LINE
8
BLACK
6
CONTINUOUS
10
231.105
20
-94.1089
11
230.994
21
-94.0868
0
LINE
8
BLACK
6
CONTINUOUS
10
230.994
20
-94.0868
11
230.785
21
-94
0
LINE
8
BLACK
6
CONTINUOUS
10
230.785
20
-94
11
230.596
21
-93.874
0
LINE
8
BLACK
6
CONTINUOUS
10
230.596
20
-93.874
11
230.436
21
-93.7137
0
LINE
8
BLACK
6
CONTINUOUS
10
230.436
20
-93.7137
11
230.31
21
-93.5252
0
LINE
8
BLACK
6
CONTINUOUS
10
230.31
20
-93.5252
11
230.223
21
-93.3157
0
LINE
8
BLACK
6
CONTINUOUS
10
230.223
20
-93.3157
11
230.179
21
-93.0934
0
LINE
8
BLACK
6
CONTINUOUS
10
230.179
20
-93.0934
11
230.179
21
-92.8666
0
LINE
8
BLACK
6
CONTINUOUS
10
230.179
20
-92.8666
11
230.223
21
-92.6443
0
LINE
8
BLACK
6
CONTINUOUS
10
230.223
20
-92.6443
11
230.31
21
-92.4348
0
LINE
8
BLACK
6
CONTINUOUS
10
230.31
20
-92.4348
11
230.436
21
-92.2463
0
LINE
8
BLACK
6
CONTINUOUS
10
230.436
20
-92.2463
11
230.596
21
-92.086
0
LINE
8
BLACK
6
CONTINUOUS
10
230.596
20
-92.086
11
230.785
21
-91.96
0
LINE
8
BLACK
6
CONTINUOUS
10
230.785
20
-91.96
11
230.994
21
-91.8732
0
LINE
8
BLACK
6
CONTINUOUS
10
230.994
20
-91.8732
11
231.105
21
-91.8511
0
LINE
8
BLACK
6
CONTINUOUS
10
231.105
20
-91.8511
11
231.217
21
-91.829
0
LINE
8
BLACK
6
CONTINUOUS
10
231.217
20
-91.829
11
231.443
21
-91.829
0
LINE
8
BLACK
6
CONTINUOUS
10
231.443
20
-91.829
11
231.555
21
-91.8511
0
LINE
8
BLACK
6
CONTINUOUS
10
201.555
20
-91.8511
11
201.666
21
-91.8732
0
LINE
8
BLACK
6
CONTINUOUS
10
201.666
20
-91.8732
11
201.875
21
-91.96
0
LINE
8
BLACK
6
CONTINUOUS
10
201.875
20
-91.96
11
202.064
21
-92.086
0
LINE
8
BLACK
6
CONTINUOUS
10
202.064
20
-92.086
11
202.224
21
-92.2463
0
LINE
8
BLACK
6
CONTINUOUS
10
202.224
20
-92.2463
11
202.35
21
-92.4348
0
LINE
8
BLACK
6
CONTINUOUS
10
202.35
20
-92.4348
11
202.437
21
-92.6443
0
LINE
8
BLACK
6
CONTINUOUS
10
202.437
20
-92.6443
11
202.481
21
-92.8666
0
LINE
8
BLACK
6
CONTINUOUS
10
202.481
20
-92.8666
11
202.481
21
-93.0934
0
LINE
8
BLACK
6
CONTINUOUS
10
202.481
20
-93.0934
11
202.437
21
-93.3157
0
LINE
8
BLACK
6
CONTINUOUS
10
202.437
20
-93.3157
11
202.35
21
-93.5252
0
LINE
8
BLACK
6
CONTINUOUS
10
202.35
20
-93.5252
11
202.224
21
-93.7137
0
LINE
8
BLACK
6
CONTINUOUS
10
202.224
20
-93.7137
11
202.064
21
-93.874
0
LINE
8
BLACK
6
CONTINUOUS
10
202.064
20
-93.874
11
201.875
21
-94
0
LINE
8
BLACK
6
CONTINUOUS
10
201.875
20
-94
11
201.666
21
-94.0868
0
LINE
8
BLACK
6
CONTINUOUS
10
201.666
20
-94.0868
11
201.555
21
-94.1089
0
LINE
8
BLACK
6
CONTINUOUS
10
201.555
20
-94.1089
11
201.443
21
-94.131
0
LINE
8
BLACK
6
CONTINUOUS
10
201.443
20
-94.131
11
201.217
21
-94.131
0
LINE
8
BLACK
6
CONTINUOUS
10
201.217
20
-94.131
11
201.105
21
-94.1089
0
LINE
8
BLACK
6
CONTINUOUS
10
201.105
20
-94.1089
11
200.994
21
-94.0868
0
LINE
8
BLACK
6
CONTINUOUS
10
200.994
20
-94.0868
11
200.785
21
-94
0
LINE
8
BLACK
6
CONTINUOUS
10
200.785
20
-94
11
200.596
21
-93.874
0
LINE
8
BLACK
6
CONTINUOUS
10
200.596
20
-93.874
11
200.436
21
-93.7137
0
LINE
8
BLACK
6
CONTINUOUS
10
200.436
20
-93.7137
11
200.31
21
-93.5252
0
LINE
8
BLACK
6
CONTINUOUS
10
200.31
20
-93.5252
11
200.223
21
-93.3157
0
LINE
8
BLACK
6
CONTINUOUS
10
200.223
20
-93.3157
11
200.179
21
-93.0934
0
LINE
8
BLACK
6
CONTINUOUS
10
200.179
20
-93.0934
11
200.179
21
-92.8666
0
LINE
8
BLACK
6
CONTINUOUS
10
200.179
20
-92.8666
11
200.223
21
-92.6443
0
LINE
8
BLACK
6
CONTINUOUS
10
200.223
20
-92.6443
11
200.31
21
-92.4348
0
LINE
8
BLACK
6
CONTINUOUS
10
200.31
20
-92.4348
11
200.436
21
-92.2463
0
LINE
8
BLACK
6
CONTINUOUS
10
200.436
20
-92.2463
11
200.596
21
-92.086
0
LINE
8
BLACK
6
CONTINUOUS
10
200.596
20
-92.086
11
200.785
21
-91.96
0
LINE
8
BLACK
6
CONTINUOUS
10
200.785
20
-91.96
11
200.994
21
-91.8732
0
LINE
8
BLACK
6
CONTINUOUS
10
200.994
20
-91.8732
11
201.105
21
-91.8511
0
LINE
8
BLACK
6
CONTINUOUS
10
201.105
20
-91.8511
11
201.217
21
-91.829
0
LINE
8
BLACK
6
CONTINUOUS
10
201.217
20
-91.829
11
201.443
21
-91.829
0
LINE
8
BLACK
6
CONTINUOUS
10
201.443
20
-91.829
11
201.555
21
-91.8511
0
LINE
8
BLACK
6
CONTINUOUS
10
235.16
20
-39.2436
11
235.271
21
-39.2657
0
LINE
8
BLACK
6
CONTINUOUS
10
235.271
20
-39.2657
11
235.48
21
-39.3525
0
LINE
8
BLACK
6
CONTINUOUS
10
235.48
20
-39.3525
11
235.669
21
-39.4785
0
LINE
8
BLACK
6
CONTINUOUS
10
235.669
20
-39.4785
11
235.829
21
-39.6388
0
LINE
8
BLACK
6
CONTINUOUS
10
235.829
20
-39.6388
11
235.955
21
-39.8273
0
LINE
8
BLACK
6
CONTINUOUS
10
235.955
20
-39.8273
11
236.042
21
-40.0368
0
LINE
8
BLACK
6
CONTINUOUS
10
236.042
20
-40.0368
11
236.086
21
-40.2591
0
LINE
8
BLACK
6
CONTINUOUS
10
236.086
20
-40.2591
11
236.086
21
-40.4859
0
LINE
8
BLACK
6
CONTINUOUS
10
236.086
20
-40.4859
11
236.042
21
-40.7082
0
LINE
8
BLACK
6
CONTINUOUS
10
236.042
20
-40.7082
11
235.955
21
-40.9177
0
LINE
8
BLACK
6
CONTINUOUS
10
235.955
20
-40.9177
11
235.829
21
-41.1062
0
LINE
8
BLACK
6
CONTINUOUS
10
235.829
20
-41.1062
11
235.669
21
-41.2665
0
LINE
8
BLACK
6
CONTINUOUS
10
235.669
20
-41.2665
11
235.48
21
-41.3925
0
LINE
8
BLACK
6
CONTINUOUS
10
235.48
20
-41.3925
11
235.271
21
-41.4793
0
LINE
8
BLACK
6
CONTINUOUS
10
235.271
20
-41.4793
11
235.16
21
-41.5014
0
LINE
8
BLACK
6
CONTINUOUS
10
235.16
20
-41.5014
11
235.048
21
-41.5235
0
LINE
8
BLACK
6
CONTINUOUS
10
235.048
20
-41.5235
11
234.822
21
-41.5235
0
LINE
8
BLACK
6
CONTINUOUS
10
234.822
20
-41.5235
11
234.71
21
-41.5014
0
LINE
8
BLACK
6
CONTINUOUS
10
234.71
20
-41.5014
11
234.599
21
-41.4793
0
LINE
8
BLACK
6
CONTINUOUS
10
234.599
20
-41.4793
11
234.39
21
-41.3925
0
LINE
8
BLACK
6
CONTINUOUS
10
234.39
20
-41.3925
11
234.201
21
-41.2665
0
LINE
8
BLACK
6
CONTINUOUS
10
234.201
20
-41.2665
11
234.041
21
-41.1062
0
LINE
8
BLACK
6
CONTINUOUS
10
234.041
20
-41.1062
11
233.915
21
-40.9177
0
LINE
8
BLACK
6
CONTINUOUS
10
233.915
20
-40.9177
11
233.828
21
-40.7082
0
LINE
8
BLACK
6
CONTINUOUS
10
233.828
20
-40.7082
11
233.784
21
-40.4859
0
LINE
8
BLACK
6
CONTINUOUS
10
233.784
20
-40.4859
11
233.784
21
-40.2591
0
LINE
8
BLACK
6
CONTINUOUS
10
233.784
20
-40.2591
11
233.828
21
-40.0368
0
LINE
8
BLACK
6
CONTINUOUS
10
233.828
20
-40.0368
11
233.915
21
-39.8273
0
LINE
8
BLACK
6
CONTINUOUS
10
233.915
20
-39.8273
11
234.041
21
-39.6388
0
LINE
8
BLACK
6
CONTINUOUS
10
234.041
20
-39.6388
11
234.201
21
-39.4785
0
LINE
8
BLACK
6
CONTINUOUS
10
234.201
20
-39.4785
11
234.39
21
-39.3525
0
LINE
8
BLACK
6
CONTINUOUS
10
234.39
20
-39.3525
11
234.599
21
-39.2657
0
LINE
8
BLACK
6
CONTINUOUS
10
234.599
20
-39.2657
11
234.71
21
-39.2436
0
LINE
8
BLACK
6
CONTINUOUS
10
234.71
20
-39.2436
11
234.822
21
-39.2215
0
LINE
8
BLACK
6
CONTINUOUS
10
234.822
20
-39.2215
11
235.048
21
-39.2215
0
LINE
8
BLACK
6
CONTINUOUS
10
235.048
20
-39.2215
11
235.16
21
-39.2436
0
LINE
8
BLACK
6
CONTINUOUS
10
222.16
20
-39.2436
11
222.271
21
-39.2657
0
LINE
8
BLACK
6
CONTINUOUS
10
222.271
20
-39.2657
11
222.48
21
-39.3525
0
LINE
8
BLACK
6
CONTINUOUS
10
222.48
20
-39.3525
11
222.669
21
-39.4785
0
LINE
8
BLACK
6
CONTINUOUS
10
222.669
20
-39.4785
11
222.829
21
-39.6388
0
LINE
8
BLACK
6
CONTINUOUS
10
222.829
20
-39.6388
11
222.955
21
-39.8273
0
LINE
8
BLACK
6
CONTINUOUS
10
222.955
20
-39.8273
11
223.042
21
-40.0368
0
LINE
8
BLACK
6
CONTINUOUS
10
223.042
20
-40.0368
11
223.086
21
-40.2591
0
LINE
8
BLACK
6
CONTINUOUS
10
223.086
20
-40.2591
11
223.086
21
-40.4859
0
LINE
8
BLACK
6
CONTINUOUS
10
223.086
20
-40.4859
11
223.042
21
-40.7082
0
LINE
8
BLACK
6
CONTINUOUS
10
223.042
20
-40.7082
11
222.955
21
-40.9177
0
LINE
8
BLACK
6
CONTINUOUS
10
222.955
20
-40.9177
11
222.829
21
-41.1062
0
LINE
8
BLACK
6
CONTINUOUS
10
222.829
20
-41.1062
11
222.669
21
-41.2665
0
LINE
8
BLACK
6
CONTINUOUS
10
222.669
20
-41.2665
11
222.48
21
-41.3925
0
LINE
8
BLACK
6
CONTINUOUS
10
222.48
20
-41.3925
11
222.271
21
-41.4793
0
LINE
8
BLACK
6
CONTINUOUS
10
222.271
20
-41.4793
11
222.16
21
-41.5014
0
LINE
8
BLACK
6
CONTINUOUS
10
222.16
20
-41.5014
11
222.048
21
-41.5235
0
LINE
8
BLACK
6
CONTINUOUS
10
222.048
20
-41.5235
11
221.822
21
-41.5235
0
LINE
8
BLACK
6
CONTINUOUS
10
221.822
20
-41.5235
11
221.71
21
-41.5014
0
LINE
8
BLACK
6
CONTINUOUS
10
221.71
20
-41.5014
11
221.599
21
-41.4793
0
LINE
8
BLACK
6
CONTINUOUS
10
221.599
20
-41.4793
11
221.39
21
-41.3925
0
LINE
8
BLACK
6
CONTINUOUS
10
221.39
20
-41.3925
11
221.201
21
-41.2665
0
LINE
8
BLACK
6
CONTINUOUS
10
221.201
20
-41.2665
11
221.041
21
-41.1062
0
LINE
8
BLACK
6
CONTINUOUS
10
221.041
20
-41.1062
11
220.915
21
-40.9177
0
LINE
8
BLACK
6
CONTINUOUS
10
220.915
20
-40.9177
11
220.828
21
-40.7082
0
LINE
8
BLACK
6
CONTINUOUS
10
220.828
20
-40.7082
11
220.784
21
-40.4859
0
LINE
8
BLACK
6
CONTINUOUS
10
220.784
20
-40.4859
11
220.784
21
-40.2591
0
LINE
8
BLACK
6
CONTINUOUS
10
220.784
20
-40.2591
11
220.828
21
-40.0368
0
LINE
8
BLACK
6
CONTINUOUS
10
220.828
20
-40.0368
11
220.915
21
-39.8273
0
LINE
8
BLACK
6
CONTINUOUS
10
220.915
20
-39.8273
11
221.041
21
-39.6388
0
LINE
8
BLACK
6
CONTINUOUS
10
221.041
20
-39.6388
11
221.201
21
-39.4785
0
LINE
8
BLACK
6
CONTINUOUS
10
221.201
20
-39.4785
11
221.39
21
-39.3525
0
LINE
8
BLACK
6
CONTINUOUS
10
221.39
20
-39.3525
11
221.599
21
-39.2657
0
LINE
8
BLACK
6
CONTINUOUS
10
221.599
20
-39.2657
11
221.71
21
-39.2436
0
LINE
8
BLACK
6
CONTINUOUS
10
221.71
20
-39.2436
11
221.822
21
-39.2215
0
LINE
8
BLACK
6
CONTINUOUS
10
221.822
20
-39.2215
11
222.048
21
-39.2215
0
LINE
8
BLACK
6
CONTINUOUS
10
222.048
20
-39.2215
11
222.16
21
-39.2436
0
LINE
8
BLACK
6
CONTINUOUS
10
205.16
20
-39.2436
11
205.271
21
-39.2657
0
LINE
8
BLACK
6
CONTINUOUS
10
205.271
20
-39.2657
11
205.48
21
-39.3525
0
LINE
8
BLACK
6
CONTINUOUS
10
205.48
20
-39.3525
11
205.669
21
-39.4785
0
LINE
8
BLACK
6
CONTINUOUS
10
205.669
20
-39.4785
11
205.829
21
-39.6388
0
LINE
8
BLACK
6
CONTINUOUS
10
205.829
20
-39.6388
11
205.955
21
-39.8273
0
LINE
8
BLACK
6
CONTINUOUS
10
205.955
20
-39.8273
11
206.042
21
-40.0368
0
LINE
8
BLACK
6
CONTINUOUS
10
206.042
20
-40.0368
11
206.086
21
-40.2591
0
LINE
8
BLACK
6
CONTINUOUS
10
206.086
20
-40.2591
11
206.086
21
-40.4859
0
LINE
8
BLACK
6
CONTINUOUS
10
206.086
20
-40.4859
11
206.042
21
-40.7082
0
LINE
8
BLACK
6
CONTINUOUS
10
206.042
20
-40.7082
11
205.955
21
-40.9177
0
LINE
8
BLACK
6
CONTINUOUS
10
205.955
20
-40.9177
11
205.829
21
-41.1062
0
LINE
8
BLACK
6
CONTINUOUS
10
205.829
20
-41.1062
11
205.669
21
-41.2665
0
LINE
8
BLACK
6
CONTINUOUS
10
205.669
20
-41.2665
11
205.48
21
-41.3925
0
LINE
8
BLACK
6
CONTINUOUS
10
205.48
20
-41.3925
11
205.271
21
-41.4793
0
LINE
8
BLACK
6
CONTINUOUS
10
205.271
20
-41.4793
11
205.16
21
-41.5014
0
LINE
8
BLACK
6
CONTINUOUS
10
205.16
20
-41.5014
11
205.048
21
-41.5235
0
LINE
8
BLACK
6
CONTINUOUS
10
205.048
20
-41.5235
11
204.822
21
-41.5235
0
LINE
8
BLACK
6
CONTINUOUS
10
204.822
20
-41.5235
11
204.71
21
-41.5014
0
LINE
8
BLACK
6
CONTINUOUS
10
204.71
20
-41.5014
11
204.599
21
-41.4793
0
LINE
8
BLACK
6
CONTINUOUS
10
204.599
20
-41.4793
11
204.39
21
-41.3925
0
LINE
8
BLACK
6
CONTINUOUS
10
204.39
20
-41.3925
11
204.201
21
-41.2665
0
LINE
8
BLACK
6
CONTINUOUS
10
204.201
20
-41.2665
11
204.041
21
-41.1062
0
LINE
8
BLACK
6
CONTINUOUS
10
204.041
20
-41.1062
11
203.915
21
-40.9177
0
LINE
8
BLACK
6
CONTINUOUS
10
203.915
20
-40.9177
11
203.828
21
-40.7082
0
LINE
8
BLACK
6
CONTINUOUS
10
203.828
20
-40.7082
11
203.784
21
-40.4859
0
LINE
8
BLACK
6
CONTINUOUS
10
203.784
20
-40.4859
11
203.784
21
-40.2591
0
LINE
8
BLACK
6
CONTINUOUS
10
203.784
20
-40.2591
11
203.828
21
-40.0368
0
LINE
8
BLACK
6
CONTINUOUS
10
203.828
20
-40.0368
11
203.915
21
-39.8273
0
LINE
8
BLACK
6
CONTINUOUS
10
203.915
20
-39.8273
11
204.041
21
-39.6388
0
LINE
8
BLACK
6
CONTINUOUS
10
204.041
20
-39.6388
11
204.201
21
-39.4785
0
LINE
8
BLACK
6
CONTINUOUS
10
204.201
20
-39.4785
11
204.39
21
-39.3525
0
LINE
8
BLACK
6
CONTINUOUS
10
204.39
20
-39.3525
11
204.599
21
-39.2657
0
LINE
8
BLACK
6
CONTINUOUS
10
204.599
20
-39.2657
11
204.71
21
-39.2436
0
LINE
8
BLACK
6
CONTINUOUS
10
204.71
20
-39.2436
11
204.822
21
-39.2215
0
LINE
8
BLACK
6
CONTINUOUS
10
204.822
20
-39.2215
11
205.048
21
-39.2215
0
LINE
8
BLACK
6
CONTINUOUS
10
205.048
20
-39.2215
11
205.16
21
-39.2436
0
LINE
8
BLACK
6
CONTINUOUS
10
192.16
20
-39.2436
11
192.271
21
-39.2657
0
LINE
8
BLACK
6
CONTINUOUS
10
192.271
20
-39.2657
11
192.48
21
-39.3525
0
LINE
8
BLACK
6
CONTINUOUS
10
192.48
20
-39.3525
11
192.669
21
-39.4785
0
LINE
8
BLACK
6
CONTINUOUS
10
192.669
20
-39.4785
11
192.829
21
-39.6388
0
LINE
8
BLACK
6
CONTINUOUS
10
192.829
20
-39.6388
11
192.955
21
-39.8273
0
LINE
8
BLACK
6
CONTINUOUS
10
192.955
20
-39.8273
11
193.042
21
-40.0368
0
LINE
8
BLACK
6
CONTINUOUS
10
193.042
20
-40.0368
11
193.086
21
-40.2591
0
LINE
8
BLACK
6
CONTINUOUS
10
193.086
20
-40.2591
11
193.086
21
-40.4859
0
LINE
8
BLACK
6
CONTINUOUS
10
193.086
20
-40.4859
11
193.042
21
-40.7082
0
LINE
8
BLACK
6
CONTINUOUS
10
193.042
20
-40.7082
11
192.955
21
-40.9177
0
LINE
8
BLACK
6
CONTINUOUS
10
192.955
20
-40.9177
11
192.829
21
-41.1062
0
LINE
8
BLACK
6
CONTINUOUS
10
192.829
20
-41.1062
11
192.669
21
-41.2665
0
LINE
8
BLACK
6
CONTINUOUS
10
192.669
20
-41.2665
11
192.48
21
-41.3925
0
LINE
8
BLACK
6
CONTINUOUS
10
192.48
20
-41.3925
11
192.271
21
-41.4793
0
LINE
8
BLACK
6
CONTINUOUS
10
192.271
20
-41.4793
11
192.16
21
-41.5014
0
LINE
8
BLACK
6
CONTINUOUS
10
192.16
20
-41.5014
11
192.048
21
-41.5235
0
LINE
8
BLACK
6
CONTINUOUS
10
192.048
20
-41.5235
11
191.822
21
-41.5235
0
LINE
8
BLACK
6
CONTINUOUS
10
191.822
20
-41.5235
11
191.71
21
-41.5014
0
LINE
8
BLACK
6
CONTINUOUS
10
191.71
20
-41.5014
11
191.599
21
-41.4793
0
LINE
8
BLACK
6
CONTINUOUS
10
191.599
20
-41.4793
11
191.39
21
-41.3925
0
LINE
8
BLACK
6
CONTINUOUS
10
191.39
20
-41.3925
11
191.201
21
-41.2665
0
LINE
8
BLACK
6
CONTINUOUS
10
191.201
20
-41.2665
11
191.041
21
-41.1062
0
LINE
8
BLACK
6
CONTINUOUS
10
191.041
20
-41.1062
11
190.915
21
-40.9177
0
LINE
8
BLACK
6
CONTINUOUS
10
190.915
20
-40.9177
11
190.828
21
-40.7082
0
LINE
8
BLACK
6
CONTINUOUS
10
190.828
20
-40.7082
11
190.784
21
-40.4859
0
LINE
8
BLACK
6
CONTINUOUS
10
190.784
20
-40.4859
11
190.784
21
-40.2591
0
LINE
8
BLACK
6
CONTINUOUS
10
190.784
20
-40.2591
11
190.828
21
-40.0368
0
LINE
8
BLACK
6
CONTINUOUS
10
190.828
20
-40.0368
11
190.915
21
-39.8273
0
LINE
8
BLACK
6
CONTINUOUS
10
190.915
20
-39.8273
11
191.041
21
-39.6388
0
LINE
8
BLACK
6
CONTINUOUS
10
191.041
20
-39.6388
11
191.201
21
-39.4785
0
LINE
8
BLACK
6
CONTINUOUS
10
191.201
20
-39.4785
11
191.39
21
-39.3525
0
LINE
8
BLACK
6
CONTINUOUS
10
191.39
20
-39.3525
11
191.599
21
-39.2657
0
LINE
8
BLACK
6
CONTINUOUS
10
191.599
20
-39.2657
11
191.71
21
-39.2436
0
LINE
8
BLACK
6
CONTINUOUS
10
191.71
20
-39.2436
11
191.822
21
-39.2215
0
LINE
8
BLACK
6
CONTINUOUS
10
191.822
20
-39.2215
11
192.048
21
-39.2215
0
LINE
8
BLACK
6
CONTINUOUS
10
192.048
20
-39.2215
11
192.16
21
-39.2436
  0
ENDSEC
  0
EOF
