  0
SECTION
  2
HEADER
  9
$ANGBASE
  50
0.0
  9
$ANGDIR
  70
1
  9
$MEASUREMENT
  70
1
  0
ENDSEC
  0
SECTION
  2
TABLES
  0
TABLE
  2
LTYPE
  70
4
  0
LTYPE
  5
40F
  2
CONTINUOUS
  70
0
  3
Solid line
  72
65
  73
0
  40
0.0
  0
LTYPE
  5
410
  2
DASHDOT
 70
0
  3
Dash Dot ____ _ ____ _
 72
65
 73
4
 40
2.0
 49
1.25
 49
-0.25
 49
0.25
 49
-0.25
  0
LTYPE
  5
411
  2
DASHED
 70
0
  3
Dashed __ __ __ __ __
 72
65
 73
2
 40
0.75
 49
0.5
 49
-0.25
  0
LTYPE
  5
43B
  2
DOTTED
 70
0
  3
Dotted .  .  .  .
 72
65
 73
2
 40
0.2
 49
0.0
 49
-0.2
  0
ENDTAB
  0
TABLE
  2
STYLE
  70
4
  0
STYLE
  2
KICAD
  70
0
  40
0
  41
1
  42
1
  50
0
  71
0
  3
isocp.shx
  0
STYLE
  2
KICADB
  70
0
  40
0
  41
1
  42
1
  50
0
  71
0
  3
isocp.shx
  0
STYLE
  2
KICADI
  70
0
  40
0
  41
1
  42
1
  50
15
  71
0
  3
isocp.shx
  0
STYLE
  2
KICADBI
  70
0
  40
0
  41
1
  42
1
  50
15
  71
0
  3
isocp.shx
  0
ENDTAB
  0
TABLE
  2
LAYER
  70
1
  0
LAYER
  2
BLACK
  70
0
  62
7
  6
CONTINUOUS
  0
ENDTAB
  0
ENDSEC
  0
SECTION
  2
ENTITIES
0
LINE
8
BLACK
6
CONTINUOUS
10
136.032
20
-108.176
11
136.032
21
-108.748
0
LINE
8
BLACK
6
CONTINUOUS
10
136.032
20
-108.462
11
135.032
21
-108.462
0
LINE
8
BLACK
6
CONTINUOUS
10
135.032
20
-108.462
11
135.175
21
-108.557
0
LINE
8
BLACK
6
CONTINUOUS
10
135.175
20
-108.557
11
135.27
21
-108.653
0
LINE
8
BLACK
6
CONTINUOUS
10
135.27
20
-108.653
11
135.318
21
-108.748
0
LINE
8
BLACK
6
CONTINUOUS
10
135.032
20
-107.843
11
135.032
21
-107.176
0
LINE
8
BLACK
6
CONTINUOUS
10
135.032
20
-107.176
11
136.032
21
-107.605
0
LINE
8
BLACK
6
CONTINUOUS
10
135.937
20
-106.795
11
135.985
21
-106.748
0
LINE
8
BLACK
6
CONTINUOUS
10
135.985
20
-106.748
11
136.032
21
-106.795
0
LINE
8
BLACK
6
CONTINUOUS
10
136.032
20
-106.795
11
135.985
21
-106.843
0
LINE
8
BLACK
6
CONTINUOUS
10
135.985
20
-106.843
11
135.937
21
-106.795
0
LINE
8
BLACK
6
CONTINUOUS
10
135.937
20
-106.795
11
136.032
21
-106.795
0
LINE
8
BLACK
6
CONTINUOUS
10
135.032
20
-105.843
11
135.032
21
-106.319
0
LINE
8
BLACK
6
CONTINUOUS
10
135.032
20
-106.319
11
135.509
21
-106.367
0
LINE
8
BLACK
6
CONTINUOUS
10
135.509
20
-106.367
11
135.461
21
-106.319
0
LINE
8
BLACK
6
CONTINUOUS
10
135.461
20
-106.319
11
135.413
21
-106.224
0
LINE
8
BLACK
6
CONTINUOUS
10
135.413
20
-106.224
11
135.413
21
-105.986
0
LINE
8
BLACK
6
CONTINUOUS
10
135.413
20
-105.986
11
135.461
21
-105.891
0
LINE
8
BLACK
6
CONTINUOUS
10
135.461
20
-105.891
11
135.509
21
-105.843
0
LINE
8
BLACK
6
CONTINUOUS
10
135.509
20
-105.843
11
135.604
21
-105.795
0
LINE
8
BLACK
6
CONTINUOUS
10
135.604
20
-105.795
11
135.842
21
-105.795
0
LINE
8
BLACK
6
CONTINUOUS
10
135.842
20
-105.795
11
135.937
21
-105.843
0
LINE
8
BLACK
6
CONTINUOUS
10
135.937
20
-105.843
11
135.985
21
-105.891
0
LINE
8
BLACK
6
CONTINUOUS
10
135.985
20
-105.891
11
136.032
21
-105.986
0
LINE
8
BLACK
6
CONTINUOUS
10
136.032
20
-105.986
11
136.032
21
-106.224
0
LINE
8
BLACK
6
CONTINUOUS
10
136.032
20
-106.224
11
135.985
21
-106.319
0
LINE
8
BLACK
6
CONTINUOUS
10
135.985
20
-106.319
11
135.937
21
-106.367
0
LINE
8
BLACK
6
CONTINUOUS
10
135.032
20
-104.891
11
135.032
21
-105.367
0
LINE
8
BLACK
6
CONTINUOUS
10
135.032
20
-105.367
11
135.509
21
-105.415
0
LINE
8
BLACK
6
CONTINUOUS
10
135.509
20
-105.415
11
135.461
21
-105.367
0
LINE
8
BLACK
6
CONTINUOUS
10
135.461
20
-105.367
11
135.413
21
-105.272
0
LINE
8
BLACK
6
CONTINUOUS
10
135.413
20
-105.272
11
135.413
21
-105.034
0
LINE
8
BLACK
6
CONTINUOUS
10
135.413
20
-105.034
11
135.461
21
-104.938
0
LINE
8
BLACK
6
CONTINUOUS
10
135.461
20
-104.938
11
135.509
21
-104.891
0
LINE
8
BLACK
6
CONTINUOUS
10
135.509
20
-104.891
11
135.604
21
-104.843
0
LINE
8
BLACK
6
CONTINUOUS
10
135.604
20
-104.843
11
135.842
21
-104.843
0
LINE
8
BLACK
6
CONTINUOUS
10
135.842
20
-104.843
11
135.937
21
-104.891
0
LINE
8
BLACK
6
CONTINUOUS
10
135.937
20
-104.891
11
135.985
21
-104.938
0
LINE
8
BLACK
6
CONTINUOUS
10
135.985
20
-104.938
11
136.032
21
-105.034
0
LINE
8
BLACK
6
CONTINUOUS
10
136.032
20
-105.034
11
136.032
21
-105.272
0
LINE
8
BLACK
6
CONTINUOUS
10
136.032
20
-105.272
11
135.985
21
-105.367
0
LINE
8
BLACK
6
CONTINUOUS
10
135.985
20
-105.367
11
135.937
21
-105.415
0
LINE
8
BLACK
6
CONTINUOUS
10
135.032
20
-104.224
11
135.032
21
-104.129
0
LINE
8
BLACK
6
CONTINUOUS
10
135.032
20
-104.129
11
135.08
21
-104.034
0
LINE
8
BLACK
6
CONTINUOUS
10
135.08
20
-104.034
11
135.128
21
-103.986
0
LINE
8
BLACK
6
CONTINUOUS
10
135.128
20
-103.986
11
135.223
21
-103.938
0
LINE
8
BLACK
6
CONTINUOUS
10
135.223
20
-103.938
11
135.413
21
-103.891
0
LINE
8
BLACK
6
CONTINUOUS
10
135.413
20
-103.891
11
135.651
21
-103.891
0
LINE
8
BLACK
6
CONTINUOUS
10
135.651
20
-103.891
11
135.842
21
-103.938
0
LINE
8
BLACK
6
CONTINUOUS
10
135.842
20
-103.938
11
135.937
21
-103.986
0
LINE
8
BLACK
6
CONTINUOUS
10
135.937
20
-103.986
11
135.985
21
-104.034
0
LINE
8
BLACK
6
CONTINUOUS
10
135.985
20
-104.034
11
136.032
21
-104.129
0
LINE
8
BLACK
6
CONTINUOUS
10
136.032
20
-104.129
11
136.032
21
-104.224
0
LINE
8
BLACK
6
CONTINUOUS
10
136.032
20
-104.224
11
135.985
21
-104.319
0
LINE
8
BLACK
6
CONTINUOUS
10
135.985
20
-104.319
11
135.937
21
-104.367
0
LINE
8
BLACK
6
CONTINUOUS
10
135.937
20
-104.367
11
135.842
21
-104.415
0
LINE
8
BLACK
6
CONTINUOUS
10
135.842
20
-104.415
11
135.651
21
-104.462
0
LINE
8
BLACK
6
CONTINUOUS
10
135.651
20
-104.462
11
135.413
21
-104.462
0
LINE
8
BLACK
6
CONTINUOUS
10
135.413
20
-104.462
11
135.223
21
-104.415
0
LINE
8
BLACK
6
CONTINUOUS
10
135.223
20
-104.415
11
135.128
21
-104.367
0
LINE
8
BLACK
6
CONTINUOUS
10
135.128
20
-104.367
11
135.08
21
-104.319
0
LINE
8
BLACK
6
CONTINUOUS
10
135.08
20
-104.319
11
135.032
21
-104.224
0
LINE
8
BLACK
6
CONTINUOUS
10
136.032
20
-102.7
11
135.366
21
-102.7
0
LINE
8
BLACK
6
CONTINUOUS
10
135.461
20
-102.7
11
135.413
21
-102.653
0
LINE
8
BLACK
6
CONTINUOUS
10
135.413
20
-102.653
11
135.366
21
-102.557
0
LINE
8
BLACK
6
CONTINUOUS
10
135.366
20
-102.557
11
135.366
21
-102.415
0
LINE
8
BLACK
6
CONTINUOUS
10
135.366
20
-102.415
11
135.413
21
-102.319
0
LINE
8
BLACK
6
CONTINUOUS
10
135.413
20
-102.319
11
135.509
21
-102.272
0
LINE
8
BLACK
6
CONTINUOUS
10
135.509
20
-102.272
11
136.032
21
-102.272
0
LINE
8
BLACK
6
CONTINUOUS
10
135.509
20
-102.272
11
135.413
21
-102.224
0
LINE
8
BLACK
6
CONTINUOUS
10
135.413
20
-102.224
11
135.366
21
-102.129
0
LINE
8
BLACK
6
CONTINUOUS
10
135.366
20
-102.129
11
135.366
21
-101.986
0
LINE
8
BLACK
6
CONTINUOUS
10
135.366
20
-101.986
11
135.413
21
-101.891
0
LINE
8
BLACK
6
CONTINUOUS
10
135.413
20
-101.891
11
135.509
21
-101.843
0
LINE
8
BLACK
6
CONTINUOUS
10
135.509
20
-101.843
11
136.032
21
-101.843
0
LINE
8
BLACK
6
CONTINUOUS
10
136.032
20
-101.367
11
135.366
21
-101.367
0
LINE
8
BLACK
6
CONTINUOUS
10
135.461
20
-101.367
11
135.413
21
-101.319
0
LINE
8
BLACK
6
CONTINUOUS
10
135.413
20
-101.319
11
135.366
21
-101.224
0
LINE
8
BLACK
6
CONTINUOUS
10
135.366
20
-101.224
11
135.366
21
-101.081
0
LINE
8
BLACK
6
CONTINUOUS
10
135.366
20
-101.081
11
135.413
21
-100.986
0
LINE
8
BLACK
6
CONTINUOUS
10
135.413
20
-100.986
11
135.509
21
-100.938
0
LINE
8
BLACK
6
CONTINUOUS
10
135.509
20
-100.938
11
136.032
21
-100.938
0
LINE
8
BLACK
6
CONTINUOUS
10
135.509
20
-100.938
11
135.413
21
-100.891
0
LINE
8
BLACK
6
CONTINUOUS
10
135.413
20
-100.891
11
135.366
21
-100.795
0
LINE
8
BLACK
6
CONTINUOUS
10
135.366
20
-100.795
11
135.366
21
-100.653
0
LINE
8
BLACK
6
CONTINUOUS
10
135.366
20
-100.653
11
135.413
21
-100.557
0
LINE
8
BLACK
6
CONTINUOUS
10
135.413
20
-100.557
11
135.509
21
-100.51
0
LINE
8
BLACK
6
CONTINUOUS
10
135.509
20
-100.51
11
136.032
21
-100.51
0
LINE
8
BLACK
6
CONTINUOUS
10
134.31
20
-113.38
11
134.31
21
-95.83
0
LINE
8
BLACK
6
CONTINUOUS
10
133.365
20
-113.38
11
134.896
21
-113.38
0
LINE
8
BLACK
6
CONTINUOUS
10
133.365
20
-95.83
11
134.896
21
-95.83
0
LINE
8
BLACK
6
CONTINUOUS
10
134.31
20
-95.83
11
134.896
21
-96.9565
0
LINE
8
BLACK
6
CONTINUOUS
10
134.31
20
-95.83
11
133.724
21
-96.9565
0
LINE
8
BLACK
6
CONTINUOUS
10
134.31
20
-113.38
11
134.896
21
-112.253
0
LINE
8
BLACK
6
CONTINUOUS
10
134.31
20
-113.38
11
133.724
21
-112.253
0
LINE
8
BLACK
6
CONTINUOUS
10
-57.351
20
-105.626
11
-57.3033
21
-105.531
0
LINE
8
BLACK
6
CONTINUOUS
10
-57.3033
20
-105.531
11
-57.2557
21
-105.483
0
LINE
8
BLACK
6
CONTINUOUS
10
-57.2557
20
-105.483
11
-57.1605
21
-105.436
0
LINE
8
BLACK
6
CONTINUOUS
10
-57.1605
20
-105.436
11
-57.1129
21
-105.436
0
LINE
8
BLACK
6
CONTINUOUS
10
-57.1129
20
-105.436
11
-57.0176
21
-105.483
0
LINE
8
BLACK
6
CONTINUOUS
10
-57.0176
20
-105.483
11
-56.97
21
-105.531
0
LINE
8
BLACK
6
CONTINUOUS
10
-56.97
20
-105.531
11
-56.9224
21
-105.626
0
LINE
8
BLACK
6
CONTINUOUS
10
-56.9224
20
-105.626
11
-56.9224
21
-105.817
0
LINE
8
BLACK
6
CONTINUOUS
10
-56.9224
20
-105.817
11
-56.97
21
-105.912
0
LINE
8
BLACK
6
CONTINUOUS
10
-56.97
20
-105.912
11
-57.0176
21
-105.96
0
LINE
8
BLACK
6
CONTINUOUS
10
-57.0176
20
-105.96
11
-57.1129
21
-106.007
0
LINE
8
BLACK
6
CONTINUOUS
10
-57.1129
20
-106.007
11
-57.1605
21
-106.007
0
LINE
8
BLACK
6
CONTINUOUS
10
-57.1605
20
-106.007
11
-57.2557
21
-105.96
0
LINE
8
BLACK
6
CONTINUOUS
10
-57.2557
20
-105.96
11
-57.3033
21
-105.912
0
LINE
8
BLACK
6
CONTINUOUS
10
-57.3033
20
-105.912
11
-57.351
21
-105.817
0
LINE
8
BLACK
6
CONTINUOUS
10
-57.351
20
-105.817
11
-57.351
21
-105.626
0
LINE
8
BLACK
6
CONTINUOUS
10
-57.351
20
-105.626
11
-57.3986
21
-105.531
0
LINE
8
BLACK
6
CONTINUOUS
10
-57.3986
20
-105.531
11
-57.4462
21
-105.483
0
LINE
8
BLACK
6
CONTINUOUS
10
-57.4462
20
-105.483
11
-57.5414
21
-105.436
0
LINE
8
BLACK
6
CONTINUOUS
10
-57.5414
20
-105.436
11
-57.7319
21
-105.436
0
LINE
8
BLACK
6
CONTINUOUS
10
-57.7319
20
-105.436
11
-57.8271
21
-105.483
0
LINE
8
BLACK
6
CONTINUOUS
10
-57.8271
20
-105.483
11
-57.8748
21
-105.531
0
LINE
8
BLACK
6
CONTINUOUS
10
-57.8748
20
-105.531
11
-57.9224
21
-105.626
0
LINE
8
BLACK
6
CONTINUOUS
10
-57.9224
20
-105.626
11
-57.9224
21
-105.817
0
LINE
8
BLACK
6
CONTINUOUS
10
-57.9224
20
-105.817
11
-57.8748
21
-105.912
0
LINE
8
BLACK
6
CONTINUOUS
10
-57.8748
20
-105.912
11
-57.8271
21
-105.96
0
LINE
8
BLACK
6
CONTINUOUS
10
-57.8271
20
-105.96
11
-57.7319
21
-106.007
0
LINE
8
BLACK
6
CONTINUOUS
10
-57.7319
20
-106.007
11
-57.5414
21
-106.007
0
LINE
8
BLACK
6
CONTINUOUS
10
-57.5414
20
-106.007
11
-57.4462
21
-105.96
0
LINE
8
BLACK
6
CONTINUOUS
10
-57.4462
20
-105.96
11
-57.3986
21
-105.912
0
LINE
8
BLACK
6
CONTINUOUS
10
-57.3986
20
-105.912
11
-57.351
21
-105.817
0
LINE
8
BLACK
6
CONTINUOUS
10
-57.8271
20
-106.436
11
-57.8748
21
-106.483
0
LINE
8
BLACK
6
CONTINUOUS
10
-57.8748
20
-106.483
11
-57.9224
21
-106.436
0
LINE
8
BLACK
6
CONTINUOUS
10
-57.9224
20
-106.436
11
-57.8748
21
-106.388
0
LINE
8
BLACK
6
CONTINUOUS
10
-57.8748
20
-106.388
11
-57.8271
21
-106.436
0
LINE
8
BLACK
6
CONTINUOUS
10
-57.8271
20
-106.436
11
-57.9224
21
-106.436
0
LINE
8
BLACK
6
CONTINUOUS
10
-56.9224
20
-107.388
11
-56.9224
21
-106.912
0
LINE
8
BLACK
6
CONTINUOUS
10
-56.9224
20
-106.912
11
-57.3986
21
-106.864
0
LINE
8
BLACK
6
CONTINUOUS
10
-57.3986
20
-106.864
11
-57.351
21
-106.912
0
LINE
8
BLACK
6
CONTINUOUS
10
-57.351
20
-106.912
11
-57.3033
21
-107.007
0
LINE
8
BLACK
6
CONTINUOUS
10
-57.3033
20
-107.007
11
-57.3033
21
-107.245
0
LINE
8
BLACK
6
CONTINUOUS
10
-57.3033
20
-107.245
11
-57.351
21
-107.341
0
LINE
8
BLACK
6
CONTINUOUS
10
-57.351
20
-107.341
11
-57.3986
21
-107.388
0
LINE
8
BLACK
6
CONTINUOUS
10
-57.3986
20
-107.388
11
-57.4938
21
-107.436
0
LINE
8
BLACK
6
CONTINUOUS
10
-57.4938
20
-107.436
11
-57.7319
21
-107.436
0
LINE
8
BLACK
6
CONTINUOUS
10
-57.7319
20
-107.436
11
-57.8271
21
-107.388
0
LINE
8
BLACK
6
CONTINUOUS
10
-57.8271
20
-107.388
11
-57.8748
21
-107.341
0
LINE
8
BLACK
6
CONTINUOUS
10
-57.8748
20
-107.341
11
-57.9224
21
-107.245
0
LINE
8
BLACK
6
CONTINUOUS
10
-57.9224
20
-107.245
11
-57.9224
21
-107.007
0
LINE
8
BLACK
6
CONTINUOUS
10
-57.9224
20
-107.007
11
-57.8748
21
-106.912
0
LINE
8
BLACK
6
CONTINUOUS
10
-57.8748
20
-106.912
11
-57.8271
21
-106.864
0
LINE
8
BLACK
6
CONTINUOUS
10
-56.9224
20
-108.341
11
-56.9224
21
-107.864
0
LINE
8
BLACK
6
CONTINUOUS
10
-56.9224
20
-107.864
11
-57.3986
21
-107.817
0
LINE
8
BLACK
6
CONTINUOUS
10
-57.3986
20
-107.817
11
-57.351
21
-107.864
0
LINE
8
BLACK
6
CONTINUOUS
10
-57.351
20
-107.864
11
-57.3033
21
-107.96
0
LINE
8
BLACK
6
CONTINUOUS
10
-57.3033
20
-107.96
11
-57.3033
21
-108.198
0
LINE
8
BLACK
6
CONTINUOUS
10
-57.3033
20
-108.198
11
-57.351
21
-108.293
0
LINE
8
BLACK
6
CONTINUOUS
10
-57.351
20
-108.293
11
-57.3986
21
-108.341
0
LINE
8
BLACK
6
CONTINUOUS
10
-57.3986
20
-108.341
11
-57.4938
21
-108.388
0
LINE
8
BLACK
6
CONTINUOUS
10
-57.4938
20
-108.388
11
-57.7319
21
-108.388
0
LINE
8
BLACK
6
CONTINUOUS
10
-57.7319
20
-108.388
11
-57.8271
21
-108.341
0
LINE
8
BLACK
6
CONTINUOUS
10
-57.8271
20
-108.341
11
-57.8748
21
-108.293
0
LINE
8
BLACK
6
CONTINUOUS
10
-57.8748
20
-108.293
11
-57.9224
21
-108.198
0
LINE
8
BLACK
6
CONTINUOUS
10
-57.9224
20
-108.198
11
-57.9224
21
-107.96
0
LINE
8
BLACK
6
CONTINUOUS
10
-57.9224
20
-107.96
11
-57.8748
21
-107.864
0
LINE
8
BLACK
6
CONTINUOUS
10
-57.8748
20
-107.864
11
-57.8271
21
-107.817
0
LINE
8
BLACK
6
CONTINUOUS
10
-56.9224
20
-109.293
11
-56.9224
21
-108.817
0
LINE
8
BLACK
6
CONTINUOUS
10
-56.9224
20
-108.817
11
-57.3986
21
-108.769
0
LINE
8
BLACK
6
CONTINUOUS
10
-57.3986
20
-108.769
11
-57.351
21
-108.817
0
LINE
8
BLACK
6
CONTINUOUS
10
-57.351
20
-108.817
11
-57.3033
21
-108.912
0
LINE
8
BLACK
6
CONTINUOUS
10
-57.3033
20
-108.912
11
-57.3033
21
-109.15
0
LINE
8
BLACK
6
CONTINUOUS
10
-57.3033
20
-109.15
11
-57.351
21
-109.245
0
LINE
8
BLACK
6
CONTINUOUS
10
-57.351
20
-109.245
11
-57.3986
21
-109.293
0
LINE
8
BLACK
6
CONTINUOUS
10
-57.3986
20
-109.293
11
-57.4938
21
-109.341
0
LINE
8
BLACK
6
CONTINUOUS
10
-57.4938
20
-109.341
11
-57.7319
21
-109.341
0
LINE
8
BLACK
6
CONTINUOUS
10
-57.7319
20
-109.341
11
-57.8271
21
-109.293
0
LINE
8
BLACK
6
CONTINUOUS
10
-57.8271
20
-109.293
11
-57.8748
21
-109.245
0
LINE
8
BLACK
6
CONTINUOUS
10
-57.8748
20
-109.245
11
-57.9224
21
-109.15
0
LINE
8
BLACK
6
CONTINUOUS
10
-57.9224
20
-109.15
11
-57.9224
21
-108.912
0
LINE
8
BLACK
6
CONTINUOUS
10
-57.9224
20
-108.912
11
-57.8748
21
-108.817
0
LINE
8
BLACK
6
CONTINUOUS
10
-57.8748
20
-108.817
11
-57.8271
21
-108.769
0
LINE
8
BLACK
6
CONTINUOUS
10
-57.9224
20
-110.531
11
-57.2557
21
-110.531
0
LINE
8
BLACK
6
CONTINUOUS
10
-57.351
20
-110.531
11
-57.3033
21
-110.579
0
LINE
8
BLACK
6
CONTINUOUS
10
-57.3033
20
-110.579
11
-57.2557
21
-110.674
0
LINE
8
BLACK
6
CONTINUOUS
10
-57.2557
20
-110.674
11
-57.2557
21
-110.817
0
LINE
8
BLACK
6
CONTINUOUS
10
-57.2557
20
-110.817
11
-57.3033
21
-110.912
0
LINE
8
BLACK
6
CONTINUOUS
10
-57.3033
20
-110.912
11
-57.3986
21
-110.96
0
LINE
8
BLACK
6
CONTINUOUS
10
-57.3986
20
-110.96
11
-57.9224
21
-110.96
0
LINE
8
BLACK
6
CONTINUOUS
10
-57.3986
20
-110.96
11
-57.3033
21
-111.007
0
LINE
8
BLACK
6
CONTINUOUS
10
-57.3033
20
-111.007
11
-57.2557
21
-111.102
0
LINE
8
BLACK
6
CONTINUOUS
10
-57.2557
20
-111.102
11
-57.2557
21
-111.245
0
LINE
8
BLACK
6
CONTINUOUS
10
-57.2557
20
-111.245
11
-57.3033
21
-111.341
0
LINE
8
BLACK
6
CONTINUOUS
10
-57.3033
20
-111.341
11
-57.3986
21
-111.388
0
LINE
8
BLACK
6
CONTINUOUS
10
-57.3986
20
-111.388
11
-57.9224
21
-111.388
0
LINE
8
BLACK
6
CONTINUOUS
10
-57.9224
20
-111.864
11
-57.2557
21
-111.864
0
LINE
8
BLACK
6
CONTINUOUS
10
-57.351
20
-111.864
11
-57.3033
21
-111.912
0
LINE
8
BLACK
6
CONTINUOUS
10
-57.3033
20
-111.912
11
-57.2557
21
-112.007
0
LINE
8
BLACK
6
CONTINUOUS
10
-57.2557
20
-112.007
11
-57.2557
21
-112.15
0
LINE
8
BLACK
6
CONTINUOUS
10
-57.2557
20
-112.15
11
-57.3033
21
-112.245
0
LINE
8
BLACK
6
CONTINUOUS
10
-57.3033
20
-112.245
11
-57.3986
21
-112.293
0
LINE
8
BLACK
6
CONTINUOUS
10
-57.3986
20
-112.293
11
-57.9224
21
-112.293
0
LINE
8
BLACK
6
CONTINUOUS
10
-57.3986
20
-112.293
11
-57.3033
21
-112.341
0
LINE
8
BLACK
6
CONTINUOUS
10
-57.3033
20
-112.341
11
-57.2557
21
-112.436
0
LINE
8
BLACK
6
CONTINUOUS
10
-57.2557
20
-112.436
11
-57.2557
21
-112.579
0
LINE
8
BLACK
6
CONTINUOUS
10
-57.2557
20
-112.579
11
-57.3033
21
-112.674
0
LINE
8
BLACK
6
CONTINUOUS
10
-57.3033
20
-112.674
11
-57.3986
21
-112.722
0
LINE
8
BLACK
6
CONTINUOUS
10
-57.3986
20
-112.722
11
-57.9224
21
-112.722
0
LINE
8
BLACK
6
CONTINUOUS
10
-56.2
20
-104.825
11
-56.2
21
-113.38
0
LINE
8
BLACK
6
CONTINUOUS
10
-54.725
20
-104.825
11
-56.7864
21
-104.825
0
LINE
8
BLACK
6
CONTINUOUS
10
-54.725
20
-113.38
11
-56.7864
21
-113.38
0
LINE
8
BLACK
6
CONTINUOUS
10
-56.2
20
-113.38
11
-56.7864
21
-112.253
0
LINE
8
BLACK
6
CONTINUOUS
10
-56.2
20
-113.38
11
-55.6136
21
-112.253
0
LINE
8
BLACK
6
CONTINUOUS
10
-56.2
20
-104.825
11
-56.7864
21
-105.952
0
LINE
8
BLACK
6
CONTINUOUS
10
-56.2
20
-104.825
11
-55.6136
21
-105.952
0
LINE
8
BLACK
6
CONTINUOUS
10
-42.4079
20
-116.778
11
-42.3602
21
-116.73
0
LINE
8
BLACK
6
CONTINUOUS
10
-42.3602
20
-116.73
11
-42.265
21
-116.682
0
LINE
8
BLACK
6
CONTINUOUS
10
-42.265
20
-116.682
11
-42.0269
21
-116.682
0
LINE
8
BLACK
6
CONTINUOUS
10
-42.0269
20
-116.682
11
-41.9317
21
-116.73
0
LINE
8
BLACK
6
CONTINUOUS
10
-41.9317
20
-116.73
11
-41.884
21
-116.778
0
LINE
8
BLACK
6
CONTINUOUS
10
-41.884
20
-116.778
11
-41.8364
21
-116.873
0
LINE
8
BLACK
6
CONTINUOUS
10
-41.8364
20
-116.873
11
-41.8364
21
-116.968
0
LINE
8
BLACK
6
CONTINUOUS
10
-41.8364
20
-116.968
11
-41.884
21
-117.111
0
LINE
8
BLACK
6
CONTINUOUS
10
-41.884
20
-117.111
11
-42.4555
21
-117.682
0
LINE
8
BLACK
6
CONTINUOUS
10
-42.4555
20
-117.682
11
-41.8364
21
-117.682
0
LINE
8
BLACK
6
CONTINUOUS
10
-40.9317
20
-116.682
11
-41.4079
21
-116.682
0
LINE
8
BLACK
6
CONTINUOUS
10
-41.4079
20
-116.682
11
-41.4555
21
-117.159
0
LINE
8
BLACK
6
CONTINUOUS
10
-41.4555
20
-117.159
11
-41.4079
21
-117.111
0
LINE
8
BLACK
6
CONTINUOUS
10
-41.4079
20
-117.111
11
-41.3126
21
-117.063
0
LINE
8
BLACK
6
CONTINUOUS
10
-41.3126
20
-117.063
11
-41.0745
21
-117.063
0
LINE
8
BLACK
6
CONTINUOUS
10
-41.0745
20
-117.063
11
-40.9793
21
-117.111
0
LINE
8
BLACK
6
CONTINUOUS
10
-40.9793
20
-117.111
11
-40.9317
21
-117.159
0
LINE
8
BLACK
6
CONTINUOUS
10
-40.9317
20
-117.159
11
-40.884
21
-117.254
0
LINE
8
BLACK
6
CONTINUOUS
10
-40.884
20
-117.254
11
-40.884
21
-117.492
0
LINE
8
BLACK
6
CONTINUOUS
10
-40.884
20
-117.492
11
-40.9317
21
-117.587
0
LINE
8
BLACK
6
CONTINUOUS
10
-40.9317
20
-117.587
11
-40.9793
21
-117.635
0
LINE
8
BLACK
6
CONTINUOUS
10
-40.9793
20
-117.635
11
-41.0745
21
-117.682
0
LINE
8
BLACK
6
CONTINUOUS
10
-41.0745
20
-117.682
11
-41.3126
21
-117.682
0
LINE
8
BLACK
6
CONTINUOUS
10
-41.3126
20
-117.682
11
-41.4079
21
-117.635
0
LINE
8
BLACK
6
CONTINUOUS
10
-41.4079
20
-117.635
11
-41.4555
21
-117.587
0
LINE
8
BLACK
6
CONTINUOUS
10
-40.4555
20
-117.587
11
-40.4079
21
-117.635
0
LINE
8
BLACK
6
CONTINUOUS
10
-40.4079
20
-117.635
11
-40.4555
21
-117.682
0
LINE
8
BLACK
6
CONTINUOUS
10
-40.4555
20
-117.682
11
-40.5031
21
-117.635
0
LINE
8
BLACK
6
CONTINUOUS
10
-40.5031
20
-117.635
11
-40.4555
21
-117.587
0
LINE
8
BLACK
6
CONTINUOUS
10
-40.4555
20
-117.587
11
-40.4555
21
-117.682
0
LINE
8
BLACK
6
CONTINUOUS
10
-39.9317
20
-117.682
11
-39.7412
21
-117.682
0
LINE
8
BLACK
6
CONTINUOUS
10
-39.7412
20
-117.682
11
-39.646
21
-117.635
0
LINE
8
BLACK
6
CONTINUOUS
10
-39.646
20
-117.635
11
-39.5983
21
-117.587
0
LINE
8
BLACK
6
CONTINUOUS
10
-39.5983
20
-117.587
11
-39.5031
21
-117.444
0
LINE
8
BLACK
6
CONTINUOUS
10
-39.5031
20
-117.444
11
-39.4555
21
-117.254
0
LINE
8
BLACK
6
CONTINUOUS
10
-39.4555
20
-117.254
11
-39.4555
21
-116.873
0
LINE
8
BLACK
6
CONTINUOUS
10
-39.4555
20
-116.873
11
-39.5031
21
-116.778
0
LINE
8
BLACK
6
CONTINUOUS
10
-39.5031
20
-116.778
11
-39.5507
21
-116.73
0
LINE
8
BLACK
6
CONTINUOUS
10
-39.5507
20
-116.73
11
-39.646
21
-116.682
0
LINE
8
BLACK
6
CONTINUOUS
10
-39.646
20
-116.682
11
-39.8364
21
-116.682
0
LINE
8
BLACK
6
CONTINUOUS
10
-39.8364
20
-116.682
11
-39.9317
21
-116.73
0
LINE
8
BLACK
6
CONTINUOUS
10
-39.9317
20
-116.73
11
-39.9793
21
-116.778
0
LINE
8
BLACK
6
CONTINUOUS
10
-39.9793
20
-116.778
11
-40.0269
21
-116.873
0
LINE
8
BLACK
6
CONTINUOUS
10
-40.0269
20
-116.873
11
-40.0269
21
-117.111
0
LINE
8
BLACK
6
CONTINUOUS
10
-40.0269
20
-117.111
11
-39.9793
21
-117.206
0
LINE
8
BLACK
6
CONTINUOUS
10
-39.9793
20
-117.206
11
-39.9317
21
-117.254
0
LINE
8
BLACK
6
CONTINUOUS
10
-39.9317
20
-117.254
11
-39.8364
21
-117.301
0
LINE
8
BLACK
6
CONTINUOUS
10
-39.8364
20
-117.301
11
-39.646
21
-117.301
0
LINE
8
BLACK
6
CONTINUOUS
10
-39.646
20
-117.301
11
-39.5507
21
-117.254
0
LINE
8
BLACK
6
CONTINUOUS
10
-39.5507
20
-117.254
11
-39.5031
21
-117.206
0
LINE
8
BLACK
6
CONTINUOUS
10
-39.5031
20
-117.206
11
-39.4555
21
-117.111
0
LINE
8
BLACK
6
CONTINUOUS
10
-38.5507
20
-116.682
11
-39.0269
21
-116.682
0
LINE
8
BLACK
6
CONTINUOUS
10
-39.0269
20
-116.682
11
-39.0745
21
-117.159
0
LINE
8
BLACK
6
CONTINUOUS
10
-39.0745
20
-117.159
11
-39.0269
21
-117.111
0
LINE
8
BLACK
6
CONTINUOUS
10
-39.0269
20
-117.111
11
-38.9317
21
-117.063
0
LINE
8
BLACK
6
CONTINUOUS
10
-38.9317
20
-117.063
11
-38.6936
21
-117.063
0
LINE
8
BLACK
6
CONTINUOUS
10
-38.6936
20
-117.063
11
-38.5983
21
-117.111
0
LINE
8
BLACK
6
CONTINUOUS
10
-38.5983
20
-117.111
11
-38.5507
21
-117.159
0
LINE
8
BLACK
6
CONTINUOUS
10
-38.5507
20
-117.159
11
-38.5031
21
-117.254
0
LINE
8
BLACK
6
CONTINUOUS
10
-38.5031
20
-117.254
11
-38.5031
21
-117.492
0
LINE
8
BLACK
6
CONTINUOUS
10
-38.5031
20
-117.492
11
-38.5507
21
-117.587
0
LINE
8
BLACK
6
CONTINUOUS
10
-38.5507
20
-117.587
11
-38.5983
21
-117.635
0
LINE
8
BLACK
6
CONTINUOUS
10
-38.5983
20
-117.635
11
-38.6936
21
-117.682
0
LINE
8
BLACK
6
CONTINUOUS
10
-38.6936
20
-117.682
11
-38.9317
21
-117.682
0
LINE
8
BLACK
6
CONTINUOUS
10
-38.9317
20
-117.682
11
-39.0269
21
-117.635
0
LINE
8
BLACK
6
CONTINUOUS
10
-39.0269
20
-117.635
11
-39.0745
21
-117.587
0
LINE
8
BLACK
6
CONTINUOUS
10
-37.884
20
-116.682
11
-37.7888
21
-116.682
0
LINE
8
BLACK
6
CONTINUOUS
10
-37.7888
20
-116.682
11
-37.6936
21
-116.73
0
LINE
8
BLACK
6
CONTINUOUS
10
-37.6936
20
-116.73
11
-37.646
21
-116.778
0
LINE
8
BLACK
6
CONTINUOUS
10
-37.646
20
-116.778
11
-37.5983
21
-116.873
0
LINE
8
BLACK
6
CONTINUOUS
10
-37.5983
20
-116.873
11
-37.5507
21
-117.063
0
LINE
8
BLACK
6
CONTINUOUS
10
-37.5507
20
-117.063
11
-37.5507
21
-117.301
0
LINE
8
BLACK
6
CONTINUOUS
10
-37.5507
20
-117.301
11
-37.5983
21
-117.492
0
LINE
8
BLACK
6
CONTINUOUS
10
-37.5983
20
-117.492
11
-37.646
21
-117.587
0
LINE
8
BLACK
6
CONTINUOUS
10
-37.646
20
-117.587
11
-37.6936
21
-117.635
0
LINE
8
BLACK
6
CONTINUOUS
10
-37.6936
20
-117.635
11
-37.7888
21
-117.682
0
LINE
8
BLACK
6
CONTINUOUS
10
-37.7888
20
-117.682
11
-37.884
21
-117.682
0
LINE
8
BLACK
6
CONTINUOUS
10
-37.884
20
-117.682
11
-37.9793
21
-117.635
0
LINE
8
BLACK
6
CONTINUOUS
10
-37.9793
20
-117.635
11
-38.0269
21
-117.587
0
LINE
8
BLACK
6
CONTINUOUS
10
-38.0269
20
-117.587
11
-38.0745
21
-117.492
0
LINE
8
BLACK
6
CONTINUOUS
10
-38.0745
20
-117.492
11
-38.1221
21
-117.301
0
LINE
8
BLACK
6
CONTINUOUS
10
-38.1221
20
-117.301
11
-38.1221
21
-117.063
0
LINE
8
BLACK
6
CONTINUOUS
10
-38.1221
20
-117.063
11
-38.0745
21
-116.873
0
LINE
8
BLACK
6
CONTINUOUS
10
-38.0745
20
-116.873
11
-38.0269
21
-116.778
0
LINE
8
BLACK
6
CONTINUOUS
10
-38.0269
20
-116.778
11
-37.9793
21
-116.73
0
LINE
8
BLACK
6
CONTINUOUS
10
-37.9793
20
-116.73
11
-37.884
21
-116.682
0
LINE
8
BLACK
6
CONTINUOUS
10
-36.3602
20
-117.682
11
-36.3602
21
-117.016
0
LINE
8
BLACK
6
CONTINUOUS
10
-36.3602
20
-117.111
11
-36.3126
21
-117.063
0
LINE
8
BLACK
6
CONTINUOUS
10
-36.3126
20
-117.063
11
-36.2174
21
-117.016
0
LINE
8
BLACK
6
CONTINUOUS
10
-36.2174
20
-117.016
11
-36.0745
21
-117.016
0
LINE
8
BLACK
6
CONTINUOUS
10
-36.0745
20
-117.016
11
-35.9793
21
-117.063
0
LINE
8
BLACK
6
CONTINUOUS
10
-35.9793
20
-117.063
11
-35.9317
21
-117.159
0
LINE
8
BLACK
6
CONTINUOUS
10
-35.9317
20
-117.159
11
-35.9317
21
-117.682
0
LINE
8
BLACK
6
CONTINUOUS
10
-35.9317
20
-117.159
11
-35.884
21
-117.063
0
LINE
8
BLACK
6
CONTINUOUS
10
-35.884
20
-117.063
11
-35.7888
21
-117.016
0
LINE
8
BLACK
6
CONTINUOUS
10
-35.7888
20
-117.016
11
-35.646
21
-117.016
0
LINE
8
BLACK
6
CONTINUOUS
10
-35.646
20
-117.016
11
-35.5507
21
-117.063
0
LINE
8
BLACK
6
CONTINUOUS
10
-35.5507
20
-117.063
11
-35.5031
21
-117.159
0
LINE
8
BLACK
6
CONTINUOUS
10
-35.5031
20
-117.159
11
-35.5031
21
-117.682
0
LINE
8
BLACK
6
CONTINUOUS
10
-35.0269
20
-117.682
11
-35.0269
21
-117.016
0
LINE
8
BLACK
6
CONTINUOUS
10
-35.0269
20
-117.111
11
-34.9793
21
-117.063
0
LINE
8
BLACK
6
CONTINUOUS
10
-34.9793
20
-117.063
11
-34.884
21
-117.016
0
LINE
8
BLACK
6
CONTINUOUS
10
-34.884
20
-117.016
11
-34.7412
21
-117.016
0
LINE
8
BLACK
6
CONTINUOUS
10
-34.7412
20
-117.016
11
-34.646
21
-117.063
0
LINE
8
BLACK
6
CONTINUOUS
10
-34.646
20
-117.063
11
-34.5983
21
-117.159
0
LINE
8
BLACK
6
CONTINUOUS
10
-34.5983
20
-117.159
11
-34.5983
21
-117.682
0
LINE
8
BLACK
6
CONTINUOUS
10
-34.5983
20
-117.159
11
-34.5507
21
-117.063
0
LINE
8
BLACK
6
CONTINUOUS
10
-34.5507
20
-117.063
11
-34.4555
21
-117.016
0
LINE
8
BLACK
6
CONTINUOUS
10
-34.4555
20
-117.016
11
-34.3126
21
-117.016
0
LINE
8
BLACK
6
CONTINUOUS
10
-34.3126
20
-117.016
11
-34.2174
21
-117.063
0
LINE
8
BLACK
6
CONTINUOUS
10
-34.2174
20
-117.063
11
-34.1698
21
-117.159
0
LINE
8
BLACK
6
CONTINUOUS
10
-34.1698
20
-117.159
11
-34.1698
21
-117.682
0
LINE
8
BLACK
6
CONTINUOUS
10
-51.24
20
-115.96
11
-25.29
21
-115.96
0
LINE
8
BLACK
6
CONTINUOUS
10
-51.24
20
-114.825
11
-51.24
21
-116.546
0
LINE
8
BLACK
6
CONTINUOUS
10
-25.29
20
-114.825
11
-25.29
21
-116.546
0
LINE
8
BLACK
6
CONTINUOUS
10
-25.29
20
-115.96
11
-26.4165
21
-116.546
0
LINE
8
BLACK
6
CONTINUOUS
10
-25.29
20
-115.96
11
-26.4165
21
-115.374
0
LINE
8
BLACK
6
CONTINUOUS
10
-51.24
20
-115.96
11
-50.1135
21
-116.546
0
LINE
8
BLACK
6
CONTINUOUS
10
-51.24
20
-115.96
11
-50.1135
21
-115.374
0
LINE
8
BLACK
6
CONTINUOUS
10
114.802
20
-121.578
11
114.85
21
-121.53
0
LINE
8
BLACK
6
CONTINUOUS
10
114.85
20
-121.53
11
114.945
21
-121.482
0
LINE
8
BLACK
6
CONTINUOUS
10
114.945
20
-121.482
11
115.183
21
-121.482
0
LINE
8
BLACK
6
CONTINUOUS
10
115.183
20
-121.482
11
115.278
21
-121.53
0
LINE
8
BLACK
6
CONTINUOUS
10
115.278
20
-121.53
11
115.326
21
-121.578
0
LINE
8
BLACK
6
CONTINUOUS
10
115.326
20
-121.578
11
115.374
21
-121.673
0
LINE
8
BLACK
6
CONTINUOUS
10
115.374
20
-121.673
11
115.374
21
-121.768
0
LINE
8
BLACK
6
CONTINUOUS
10
115.374
20
-121.768
11
115.326
21
-121.911
0
LINE
8
BLACK
6
CONTINUOUS
10
115.326
20
-121.911
11
114.755
21
-122.482
0
LINE
8
BLACK
6
CONTINUOUS
10
114.755
20
-122.482
11
115.374
21
-122.482
0
LINE
8
BLACK
6
CONTINUOUS
10
116.278
20
-121.482
11
115.802
21
-121.482
0
LINE
8
BLACK
6
CONTINUOUS
10
115.802
20
-121.482
11
115.755
21
-121.959
0
LINE
8
BLACK
6
CONTINUOUS
10
115.755
20
-121.959
11
115.802
21
-121.911
0
LINE
8
BLACK
6
CONTINUOUS
10
115.802
20
-121.911
11
115.897
21
-121.863
0
LINE
8
BLACK
6
CONTINUOUS
10
115.897
20
-121.863
11
116.135
21
-121.863
0
LINE
8
BLACK
6
CONTINUOUS
10
116.135
20
-121.863
11
116.231
21
-121.911
0
LINE
8
BLACK
6
CONTINUOUS
10
116.231
20
-121.911
11
116.278
21
-121.959
0
LINE
8
BLACK
6
CONTINUOUS
10
116.278
20
-121.959
11
116.326
21
-122.054
0
LINE
8
BLACK
6
CONTINUOUS
10
116.326
20
-122.054
11
116.326
21
-122.292
0
LINE
8
BLACK
6
CONTINUOUS
10
116.326
20
-122.292
11
116.278
21
-122.387
0
LINE
8
BLACK
6
CONTINUOUS
10
116.278
20
-122.387
11
116.231
21
-122.435
0
LINE
8
BLACK
6
CONTINUOUS
10
116.231
20
-122.435
11
116.135
21
-122.482
0
LINE
8
BLACK
6
CONTINUOUS
10
116.135
20
-122.482
11
115.897
21
-122.482
0
LINE
8
BLACK
6
CONTINUOUS
10
115.897
20
-122.482
11
115.802
21
-122.435
0
LINE
8
BLACK
6
CONTINUOUS
10
115.802
20
-122.435
11
115.755
21
-122.387
0
LINE
8
BLACK
6
CONTINUOUS
10
116.755
20
-122.387
11
116.802
21
-122.435
0
LINE
8
BLACK
6
CONTINUOUS
10
116.802
20
-122.435
11
116.755
21
-122.482
0
LINE
8
BLACK
6
CONTINUOUS
10
116.755
20
-122.482
11
116.707
21
-122.435
0
LINE
8
BLACK
6
CONTINUOUS
10
116.707
20
-122.435
11
116.755
21
-122.387
0
LINE
8
BLACK
6
CONTINUOUS
10
116.755
20
-122.387
11
116.755
21
-122.482
0
LINE
8
BLACK
6
CONTINUOUS
10
117.278
20
-122.482
11
117.469
21
-122.482
0
LINE
8
BLACK
6
CONTINUOUS
10
117.469
20
-122.482
11
117.564
21
-122.435
0
LINE
8
BLACK
6
CONTINUOUS
10
117.564
20
-122.435
11
117.612
21
-122.387
0
LINE
8
BLACK
6
CONTINUOUS
10
117.612
20
-122.387
11
117.707
21
-122.244
0
LINE
8
BLACK
6
CONTINUOUS
10
117.707
20
-122.244
11
117.755
21
-122.054
0
LINE
8
BLACK
6
CONTINUOUS
10
117.755
20
-122.054
11
117.755
21
-121.673
0
LINE
8
BLACK
6
CONTINUOUS
10
117.755
20
-121.673
11
117.707
21
-121.578
0
LINE
8
BLACK
6
CONTINUOUS
10
117.707
20
-121.578
11
117.659
21
-121.53
0
LINE
8
BLACK
6
CONTINUOUS
10
117.659
20
-121.53
11
117.564
21
-121.482
0
LINE
8
BLACK
6
CONTINUOUS
10
117.564
20
-121.482
11
117.374
21
-121.482
0
LINE
8
BLACK
6
CONTINUOUS
10
117.374
20
-121.482
11
117.278
21
-121.53
0
LINE
8
BLACK
6
CONTINUOUS
10
117.278
20
-121.53
11
117.231
21
-121.578
0
LINE
8
BLACK
6
CONTINUOUS
10
117.231
20
-121.578
11
117.183
21
-121.673
0
LINE
8
BLACK
6
CONTINUOUS
10
117.183
20
-121.673
11
117.183
21
-121.911
0
LINE
8
BLACK
6
CONTINUOUS
10
117.183
20
-121.911
11
117.231
21
-122.006
0
LINE
8
BLACK
6
CONTINUOUS
10
117.231
20
-122.006
11
117.278
21
-122.054
0
LINE
8
BLACK
6
CONTINUOUS
10
117.278
20
-122.054
11
117.374
21
-122.101
0
LINE
8
BLACK
6
CONTINUOUS
10
117.374
20
-122.101
11
117.564
21
-122.101
0
LINE
8
BLACK
6
CONTINUOUS
10
117.564
20
-122.101
11
117.659
21
-122.054
0
LINE
8
BLACK
6
CONTINUOUS
10
117.659
20
-122.054
11
117.707
21
-122.006
0
LINE
8
BLACK
6
CONTINUOUS
10
117.707
20
-122.006
11
117.755
21
-121.911
0
LINE
8
BLACK
6
CONTINUOUS
10
118.659
20
-121.482
11
118.183
21
-121.482
0
LINE
8
BLACK
6
CONTINUOUS
10
118.183
20
-121.482
11
118.135
21
-121.959
0
LINE
8
BLACK
6
CONTINUOUS
10
118.135
20
-121.959
11
118.183
21
-121.911
0
LINE
8
BLACK
6
CONTINUOUS
10
118.183
20
-121.911
11
118.278
21
-121.863
0
LINE
8
BLACK
6
CONTINUOUS
10
118.278
20
-121.863
11
118.516
21
-121.863
0
LINE
8
BLACK
6
CONTINUOUS
10
118.516
20
-121.863
11
118.612
21
-121.911
0
LINE
8
BLACK
6
CONTINUOUS
10
118.612
20
-121.911
11
118.659
21
-121.959
0
LINE
8
BLACK
6
CONTINUOUS
10
118.659
20
-121.959
11
118.707
21
-122.054
0
LINE
8
BLACK
6
CONTINUOUS
10
118.707
20
-122.054
11
118.707
21
-122.292
0
LINE
8
BLACK
6
CONTINUOUS
10
118.707
20
-122.292
11
118.659
21
-122.387
0
LINE
8
BLACK
6
CONTINUOUS
10
118.659
20
-122.387
11
118.612
21
-122.435
0
LINE
8
BLACK
6
CONTINUOUS
10
118.612
20
-122.435
11
118.516
21
-122.482
0
LINE
8
BLACK
6
CONTINUOUS
10
118.516
20
-122.482
11
118.278
21
-122.482
0
LINE
8
BLACK
6
CONTINUOUS
10
118.278
20
-122.482
11
118.183
21
-122.435
0
LINE
8
BLACK
6
CONTINUOUS
10
118.183
20
-122.435
11
118.135
21
-122.387
0
LINE
8
BLACK
6
CONTINUOUS
10
119.326
20
-121.482
11
119.421
21
-121.482
0
LINE
8
BLACK
6
CONTINUOUS
10
119.421
20
-121.482
11
119.516
21
-121.53
0
LINE
8
BLACK
6
CONTINUOUS
10
119.516
20
-121.53
11
119.564
21
-121.578
0
LINE
8
BLACK
6
CONTINUOUS
10
119.564
20
-121.578
11
119.612
21
-121.673
0
LINE
8
BLACK
6
CONTINUOUS
10
119.612
20
-121.673
11
119.659
21
-121.863
0
LINE
8
BLACK
6
CONTINUOUS
10
119.659
20
-121.863
11
119.659
21
-122.101
0
LINE
8
BLACK
6
CONTINUOUS
10
119.659
20
-122.101
11
119.612
21
-122.292
0
LINE
8
BLACK
6
CONTINUOUS
10
119.612
20
-122.292
11
119.564
21
-122.387
0
LINE
8
BLACK
6
CONTINUOUS
10
119.564
20
-122.387
11
119.516
21
-122.435
0
LINE
8
BLACK
6
CONTINUOUS
10
119.516
20
-122.435
11
119.421
21
-122.482
0
LINE
8
BLACK
6
CONTINUOUS
10
119.421
20
-122.482
11
119.326
21
-122.482
0
LINE
8
BLACK
6
CONTINUOUS
10
119.326
20
-122.482
11
119.231
21
-122.435
0
LINE
8
BLACK
6
CONTINUOUS
10
119.231
20
-122.435
11
119.183
21
-122.387
0
LINE
8
BLACK
6
CONTINUOUS
10
119.183
20
-122.387
11
119.135
21
-122.292
0
LINE
8
BLACK
6
CONTINUOUS
10
119.135
20
-122.292
11
119.088
21
-122.101
0
LINE
8
BLACK
6
CONTINUOUS
10
119.088
20
-122.101
11
119.088
21
-121.863
0
LINE
8
BLACK
6
CONTINUOUS
10
119.088
20
-121.863
11
119.135
21
-121.673
0
LINE
8
BLACK
6
CONTINUOUS
10
119.135
20
-121.673
11
119.183
21
-121.578
0
LINE
8
BLACK
6
CONTINUOUS
10
119.183
20
-121.578
11
119.231
21
-121.53
0
LINE
8
BLACK
6
CONTINUOUS
10
119.231
20
-121.53
11
119.326
21
-121.482
0
LINE
8
BLACK
6
CONTINUOUS
10
120.85
20
-122.482
11
120.85
21
-121.816
0
LINE
8
BLACK
6
CONTINUOUS
10
120.85
20
-121.911
11
120.897
21
-121.863
0
LINE
8
BLACK
6
CONTINUOUS
10
120.897
20
-121.863
11
120.993
21
-121.816
0
LINE
8
BLACK
6
CONTINUOUS
10
120.993
20
-121.816
11
121.135
21
-121.816
0
LINE
8
BLACK
6
CONTINUOUS
10
121.135
20
-121.816
11
121.231
21
-121.863
0
LINE
8
BLACK
6
CONTINUOUS
10
121.231
20
-121.863
11
121.278
21
-121.959
0
LINE
8
BLACK
6
CONTINUOUS
10
121.278
20
-121.959
11
121.278
21
-122.482
0
LINE
8
BLACK
6
CONTINUOUS
10
121.278
20
-121.959
11
121.326
21
-121.863
0
LINE
8
BLACK
6
CONTINUOUS
10
121.326
20
-121.863
11
121.421
21
-121.816
0
LINE
8
BLACK
6
CONTINUOUS
10
121.421
20
-121.816
11
121.564
21
-121.816
0
LINE
8
BLACK
6
CONTINUOUS
10
121.564
20
-121.816
11
121.659
21
-121.863
0
LINE
8
BLACK
6
CONTINUOUS
10
121.659
20
-121.863
11
121.707
21
-121.959
0
LINE
8
BLACK
6
CONTINUOUS
10
121.707
20
-121.959
11
121.707
21
-122.482
0
LINE
8
BLACK
6
CONTINUOUS
10
122.183
20
-122.482
11
122.183
21
-121.816
0
LINE
8
BLACK
6
CONTINUOUS
10
122.183
20
-121.911
11
122.231
21
-121.863
0
LINE
8
BLACK
6
CONTINUOUS
10
122.231
20
-121.863
11
122.326
21
-121.816
0
LINE
8
BLACK
6
CONTINUOUS
10
122.326
20
-121.816
11
122.469
21
-121.816
0
LINE
8
BLACK
6
CONTINUOUS
10
122.469
20
-121.816
11
122.564
21
-121.863
0
LINE
8
BLACK
6
CONTINUOUS
10
122.564
20
-121.863
11
122.612
21
-121.959
0
LINE
8
BLACK
6
CONTINUOUS
10
122.612
20
-121.959
11
122.612
21
-122.482
0
LINE
8
BLACK
6
CONTINUOUS
10
122.612
20
-121.959
11
122.659
21
-121.863
0
LINE
8
BLACK
6
CONTINUOUS
10
122.659
20
-121.863
11
122.755
21
-121.816
0
LINE
8
BLACK
6
CONTINUOUS
10
122.755
20
-121.816
11
122.897
21
-121.816
0
LINE
8
BLACK
6
CONTINUOUS
10
122.897
20
-121.816
11
122.993
21
-121.863
0
LINE
8
BLACK
6
CONTINUOUS
10
122.993
20
-121.863
11
123.04
21
-121.959
0
LINE
8
BLACK
6
CONTINUOUS
10
123.04
20
-121.959
11
123.04
21
-122.482
0
LINE
8
BLACK
6
CONTINUOUS
10
105.97
20
-120.76
11
131.92
21
-120.76
0
LINE
8
BLACK
6
CONTINUOUS
10
105.97
20
-117.825
11
105.97
21
-121.346
0
LINE
8
BLACK
6
CONTINUOUS
10
131.92
20
-117.825
11
131.92
21
-121.346
0
LINE
8
BLACK
6
CONTINUOUS
10
131.92
20
-120.76
11
130.793
21
-121.346
0
LINE
8
BLACK
6
CONTINUOUS
10
131.92
20
-120.76
11
130.793
21
-120.174
0
LINE
8
BLACK
6
CONTINUOUS
10
105.97
20
-120.76
11
107.097
21
-121.346
0
LINE
8
BLACK
6
CONTINUOUS
10
105.97
20
-120.76
11
107.097
21
-120.174
0
LINE
8
BLACK
6
CONTINUOUS
10
-55.1576
20
-56.0001
11
-55.1576
21
-56.5715
0
LINE
8
BLACK
6
CONTINUOUS
10
-55.1576
20
-56.2858
11
-56.1576
21
-56.2858
0
LINE
8
BLACK
6
CONTINUOUS
10
-56.1576
20
-56.2858
11
-56.0148
21
-56.3811
0
LINE
8
BLACK
6
CONTINUOUS
10
-56.0148
20
-56.3811
11
-55.9195
21
-56.4763
0
LINE
8
BLACK
6
CONTINUOUS
10
-55.9195
20
-56.4763
11
-55.8719
21
-56.5715
0
LINE
8
BLACK
6
CONTINUOUS
10
-56.0624
20
-55.6192
11
-56.11
21
-55.5715
0
LINE
8
BLACK
6
CONTINUOUS
10
-56.11
20
-55.5715
11
-56.1576
21
-55.4763
0
LINE
8
BLACK
6
CONTINUOUS
10
-56.1576
20
-55.4763
11
-56.1576
21
-55.2382
0
LINE
8
BLACK
6
CONTINUOUS
10
-56.1576
20
-55.2382
11
-56.11
21
-55.143
0
LINE
8
BLACK
6
CONTINUOUS
10
-56.11
20
-55.143
11
-56.0624
21
-55.0954
0
LINE
8
BLACK
6
CONTINUOUS
10
-56.0624
20
-55.0954
11
-55.9671
21
-55.0477
0
LINE
8
BLACK
6
CONTINUOUS
10
-55.9671
20
-55.0477
11
-55.8719
21
-55.0477
0
LINE
8
BLACK
6
CONTINUOUS
10
-55.8719
20
-55.0477
11
-55.729
21
-55.0954
0
LINE
8
BLACK
6
CONTINUOUS
10
-55.729
20
-55.0954
11
-55.1576
21
-55.6668
0
LINE
8
BLACK
6
CONTINUOUS
10
-55.1576
20
-55.6668
11
-55.1576
21
-55.0477
0
LINE
8
BLACK
6
CONTINUOUS
10
-56.0624
20
-54.6668
11
-56.11
21
-54.6192
0
LINE
8
BLACK
6
CONTINUOUS
10
-56.11
20
-54.6192
11
-56.1576
21
-54.5239
0
LINE
8
BLACK
6
CONTINUOUS
10
-56.1576
20
-54.5239
11
-56.1576
21
-54.2858
0
LINE
8
BLACK
6
CONTINUOUS
10
-56.1576
20
-54.2858
11
-56.11
21
-54.1906
0
LINE
8
BLACK
6
CONTINUOUS
10
-56.11
20
-54.1906
11
-56.0624
21
-54.143
0
LINE
8
BLACK
6
CONTINUOUS
10
-56.0624
20
-54.143
11
-55.9671
21
-54.0954
0
LINE
8
BLACK
6
CONTINUOUS
10
-55.9671
20
-54.0954
11
-55.8719
21
-54.0954
0
LINE
8
BLACK
6
CONTINUOUS
10
-55.8719
20
-54.0954
11
-55.729
21
-54.143
0
LINE
8
BLACK
6
CONTINUOUS
10
-55.729
20
-54.143
11
-55.1576
21
-54.7144
0
LINE
8
BLACK
6
CONTINUOUS
10
-55.1576
20
-54.7144
11
-55.1576
21
-54.0954
0
LINE
8
BLACK
6
CONTINUOUS
10
-55.2529
20
-53.6668
11
-55.2052
21
-53.6192
0
LINE
8
BLACK
6
CONTINUOUS
10
-55.2052
20
-53.6192
11
-55.1576
21
-53.6668
0
LINE
8
BLACK
6
CONTINUOUS
10
-55.1576
20
-53.6668
11
-55.2052
21
-53.7144
0
LINE
8
BLACK
6
CONTINUOUS
10
-55.2052
20
-53.7144
11
-55.2529
21
-53.6668
0
LINE
8
BLACK
6
CONTINUOUS
10
-55.2529
20
-53.6668
11
-55.1576
21
-53.6668
0
LINE
8
BLACK
6
CONTINUOUS
10
-55.729
20
-53.0477
11
-55.7767
21
-53.143
0
LINE
8
BLACK
6
CONTINUOUS
10
-55.7767
20
-53.143
11
-55.8243
21
-53.1906
0
LINE
8
BLACK
6
CONTINUOUS
10
-55.8243
20
-53.1906
11
-55.9195
21
-53.2382
0
LINE
8
BLACK
6
CONTINUOUS
10
-55.9195
20
-53.2382
11
-55.9671
21
-53.2382
0
LINE
8
BLACK
6
CONTINUOUS
10
-55.9671
20
-53.2382
11
-56.0624
21
-53.1906
0
LINE
8
BLACK
6
CONTINUOUS
10
-56.0624
20
-53.1906
11
-56.11
21
-53.143
0
LINE
8
BLACK
6
CONTINUOUS
10
-56.11
20
-53.143
11
-56.1576
21
-53.0477
0
LINE
8
BLACK
6
CONTINUOUS
10
-56.1576
20
-53.0477
11
-56.1576
21
-52.8573
0
LINE
8
BLACK
6
CONTINUOUS
10
-56.1576
20
-52.8573
11
-56.11
21
-52.762
0
LINE
8
BLACK
6
CONTINUOUS
10
-56.11
20
-52.762
11
-56.0624
21
-52.7144
0
LINE
8
BLACK
6
CONTINUOUS
10
-56.0624
20
-52.7144
11
-55.9671
21
-52.6668
0
LINE
8
BLACK
6
CONTINUOUS
10
-55.9671
20
-52.6668
11
-55.9195
21
-52.6668
0
LINE
8
BLACK
6
CONTINUOUS
10
-55.9195
20
-52.6668
11
-55.8243
21
-52.7144
0
LINE
8
BLACK
6
CONTINUOUS
10
-55.8243
20
-52.7144
11
-55.7767
21
-52.762
0
LINE
8
BLACK
6
CONTINUOUS
10
-55.7767
20
-52.762
11
-55.729
21
-52.8573
0
LINE
8
BLACK
6
CONTINUOUS
10
-55.729
20
-52.8573
11
-55.729
21
-53.0477
0
LINE
8
BLACK
6
CONTINUOUS
10
-55.729
20
-53.0477
11
-55.6814
21
-53.143
0
LINE
8
BLACK
6
CONTINUOUS
10
-55.6814
20
-53.143
11
-55.6338
21
-53.1906
0
LINE
8
BLACK
6
CONTINUOUS
10
-55.6338
20
-53.1906
11
-55.5386
21
-53.2382
0
LINE
8
BLACK
6
CONTINUOUS
10
-55.5386
20
-53.2382
11
-55.3481
21
-53.2382
0
LINE
8
BLACK
6
CONTINUOUS
10
-55.3481
20
-53.2382
11
-55.2529
21
-53.1906
0
LINE
8
BLACK
6
CONTINUOUS
10
-55.2529
20
-53.1906
11
-55.2052
21
-53.143
0
LINE
8
BLACK
6
CONTINUOUS
10
-55.2052
20
-53.143
11
-55.1576
21
-53.0477
0
LINE
8
BLACK
6
CONTINUOUS
10
-55.1576
20
-53.0477
11
-55.1576
21
-52.8573
0
LINE
8
BLACK
6
CONTINUOUS
10
-55.1576
20
-52.8573
11
-55.2052
21
-52.762
0
LINE
8
BLACK
6
CONTINUOUS
10
-55.2052
20
-52.762
11
-55.2529
21
-52.7144
0
LINE
8
BLACK
6
CONTINUOUS
10
-55.2529
20
-52.7144
11
-55.3481
21
-52.6668
0
LINE
8
BLACK
6
CONTINUOUS
10
-55.3481
20
-52.6668
11
-55.5386
21
-52.6668
0
LINE
8
BLACK
6
CONTINUOUS
10
-55.5386
20
-52.6668
11
-55.6338
21
-52.7144
0
LINE
8
BLACK
6
CONTINUOUS
10
-55.6338
20
-52.7144
11
-55.6814
21
-52.762
0
LINE
8
BLACK
6
CONTINUOUS
10
-55.6814
20
-52.762
11
-55.729
21
-52.8573
0
LINE
8
BLACK
6
CONTINUOUS
10
-56.1576
20
-51.762
11
-56.1576
21
-52.2382
0
LINE
8
BLACK
6
CONTINUOUS
10
-56.1576
20
-52.2382
11
-55.6814
21
-52.2858
0
LINE
8
BLACK
6
CONTINUOUS
10
-55.6814
20
-52.2858
11
-55.729
21
-52.2382
0
LINE
8
BLACK
6
CONTINUOUS
10
-55.729
20
-52.2382
11
-55.7767
21
-52.143
0
LINE
8
BLACK
6
CONTINUOUS
10
-55.7767
20
-52.143
11
-55.7767
21
-51.9049
0
LINE
8
BLACK
6
CONTINUOUS
10
-55.7767
20
-51.9049
11
-55.729
21
-51.8096
0
LINE
8
BLACK
6
CONTINUOUS
10
-55.729
20
-51.8096
11
-55.6814
21
-51.762
0
LINE
8
BLACK
6
CONTINUOUS
10
-55.6814
20
-51.762
11
-55.5862
21
-51.7144
0
LINE
8
BLACK
6
CONTINUOUS
10
-55.5862
20
-51.7144
11
-55.3481
21
-51.7144
0
LINE
8
BLACK
6
CONTINUOUS
10
-55.3481
20
-51.7144
11
-55.2529
21
-51.762
0
LINE
8
BLACK
6
CONTINUOUS
10
-55.2529
20
-51.762
11
-55.2052
21
-51.8096
0
LINE
8
BLACK
6
CONTINUOUS
10
-55.2052
20
-51.8096
11
-55.1576
21
-51.9049
0
LINE
8
BLACK
6
CONTINUOUS
10
-55.1576
20
-51.9049
11
-55.1576
21
-52.143
0
LINE
8
BLACK
6
CONTINUOUS
10
-55.1576
20
-52.143
11
-55.2052
21
-52.2382
0
LINE
8
BLACK
6
CONTINUOUS
10
-55.2052
20
-52.2382
11
-55.2529
21
-52.2858
0
LINE
8
BLACK
6
CONTINUOUS
10
-56.1576
20
-50.8096
11
-56.1576
21
-51.2858
0
LINE
8
BLACK
6
CONTINUOUS
10
-56.1576
20
-51.2858
11
-55.6814
21
-51.3335
0
LINE
8
BLACK
6
CONTINUOUS
10
-55.6814
20
-51.3335
11
-55.729
21
-51.2858
0
LINE
8
BLACK
6
CONTINUOUS
10
-55.729
20
-51.2858
11
-55.7767
21
-51.1906
0
LINE
8
BLACK
6
CONTINUOUS
10
-55.7767
20
-51.1906
11
-55.7767
21
-50.9525
0
LINE
8
BLACK
6
CONTINUOUS
10
-55.7767
20
-50.9525
11
-55.729
21
-50.8573
0
LINE
8
BLACK
6
CONTINUOUS
10
-55.729
20
-50.8573
11
-55.6814
21
-50.8096
0
LINE
8
BLACK
6
CONTINUOUS
10
-55.6814
20
-50.8096
11
-55.5862
21
-50.762
0
LINE
8
BLACK
6
CONTINUOUS
10
-55.5862
20
-50.762
11
-55.3481
21
-50.762
0
LINE
8
BLACK
6
CONTINUOUS
10
-55.3481
20
-50.762
11
-55.2529
21
-50.8096
0
LINE
8
BLACK
6
CONTINUOUS
10
-55.2529
20
-50.8096
11
-55.2052
21
-50.8573
0
LINE
8
BLACK
6
CONTINUOUS
10
-55.2052
20
-50.8573
11
-55.1576
21
-50.9525
0
LINE
8
BLACK
6
CONTINUOUS
10
-55.1576
20
-50.9525
11
-55.1576
21
-51.1906
0
LINE
8
BLACK
6
CONTINUOUS
10
-55.1576
20
-51.1906
11
-55.2052
21
-51.2858
0
LINE
8
BLACK
6
CONTINUOUS
10
-55.2052
20
-51.2858
11
-55.2529
21
-51.3335
0
LINE
8
BLACK
6
CONTINUOUS
10
-55.1576
20
-49.5715
11
-55.8243
21
-49.5715
0
LINE
8
BLACK
6
CONTINUOUS
10
-55.729
20
-49.5715
11
-55.7767
21
-49.5239
0
LINE
8
BLACK
6
CONTINUOUS
10
-55.7767
20
-49.5239
11
-55.8243
21
-49.4287
0
LINE
8
BLACK
6
CONTINUOUS
10
-55.8243
20
-49.4287
11
-55.8243
21
-49.2858
0
LINE
8
BLACK
6
CONTINUOUS
10
-55.8243
20
-49.2858
11
-55.7767
21
-49.1906
0
LINE
8
BLACK
6
CONTINUOUS
10
-55.7767
20
-49.1906
11
-55.6814
21
-49.143
0
LINE
8
BLACK
6
CONTINUOUS
10
-55.6814
20
-49.143
11
-55.1576
21
-49.143
0
LINE
8
BLACK
6
CONTINUOUS
10
-55.6814
20
-49.143
11
-55.7767
21
-49.0954
0
LINE
8
BLACK
6
CONTINUOUS
10
-55.7767
20
-49.0954
11
-55.8243
21
-49.0001
0
LINE
8
BLACK
6
CONTINUOUS
10
-55.8243
20
-49.0001
11
-55.8243
21
-48.8573
0
LINE
8
BLACK
6
CONTINUOUS
10
-55.8243
20
-48.8573
11
-55.7767
21
-48.762
0
LINE
8
BLACK
6
CONTINUOUS
10
-55.7767
20
-48.762
11
-55.6814
21
-48.7144
0
LINE
8
BLACK
6
CONTINUOUS
10
-55.6814
20
-48.7144
11
-55.1576
21
-48.7144
0
LINE
8
BLACK
6
CONTINUOUS
10
-55.1576
20
-48.2382
11
-55.8243
21
-48.2382
0
LINE
8
BLACK
6
CONTINUOUS
10
-55.729
20
-48.2382
11
-55.7767
21
-48.1906
0
LINE
8
BLACK
6
CONTINUOUS
10
-55.7767
20
-48.1906
11
-55.8243
21
-48.0954
0
LINE
8
BLACK
6
CONTINUOUS
10
-55.8243
20
-48.0954
11
-55.8243
21
-47.9525
0
LINE
8
BLACK
6
CONTINUOUS
10
-55.8243
20
-47.9525
11
-55.7767
21
-47.8573
0
LINE
8
BLACK
6
CONTINUOUS
10
-55.7767
20
-47.8573
11
-55.6814
21
-47.8096
0
LINE
8
BLACK
6
CONTINUOUS
10
-55.6814
20
-47.8096
11
-55.1576
21
-47.8096
0
LINE
8
BLACK
6
CONTINUOUS
10
-55.6814
20
-47.8096
11
-55.7767
21
-47.762
0
LINE
8
BLACK
6
CONTINUOUS
10
-55.7767
20
-47.762
11
-55.8243
21
-47.6668
0
LINE
8
BLACK
6
CONTINUOUS
10
-55.8243
20
-47.6668
11
-55.8243
21
-47.5239
0
LINE
8
BLACK
6
CONTINUOUS
10
-55.8243
20
-47.5239
11
-55.7767
21
-47.4287
0
LINE
8
BLACK
6
CONTINUOUS
10
-55.7767
20
-47.4287
11
-55.6814
21
-47.3811
0
LINE
8
BLACK
6
CONTINUOUS
10
-55.6814
20
-47.3811
11
-55.1576
21
-47.3811
0
LINE
8
BLACK
6
CONTINUOUS
10
-54.34
20
-113.38
11
-54.34
21
9.475
0
LINE
8
BLACK
6
CONTINUOUS
10
-53.745
20
-113.38
11
-54.9264
21
-113.38
0
LINE
8
BLACK
6
CONTINUOUS
10
-53.745
20
9.475
11
-54.9264
21
9.475
0
LINE
8
BLACK
6
CONTINUOUS
10
-54.34
20
9.475
11
-53.7536
21
8.3485
0
LINE
8
BLACK
6
CONTINUOUS
10
-54.34
20
9.475
11
-54.9264
21
8.3485
0
LINE
8
BLACK
6
CONTINUOUS
10
-54.34
20
-113.38
11
-53.7536
21
-112.253
0
LINE
8
BLACK
6
CONTINUOUS
10
-54.34
20
-113.38
11
-54.9264
21
-112.253
0
LINE
8
BLACK
6
CONTINUOUS
10
36.2924
20
-120.152
11
35.721
21
-120.152
0
LINE
8
BLACK
6
CONTINUOUS
10
36.0067
20
-120.152
11
36.0067
21
-119.152
0
LINE
8
BLACK
6
CONTINUOUS
10
36.0067
20
-119.152
11
35.9114
21
-119.295
0
LINE
8
BLACK
6
CONTINUOUS
10
35.9114
20
-119.295
11
35.8162
21
-119.39
0
LINE
8
BLACK
6
CONTINUOUS
10
35.8162
20
-119.39
11
35.721
21
-119.438
0
LINE
8
BLACK
6
CONTINUOUS
10
36.8638
20
-119.581
11
36.7686
21
-119.533
0
LINE
8
BLACK
6
CONTINUOUS
10
36.7686
20
-119.533
11
36.721
21
-119.486
0
LINE
8
BLACK
6
CONTINUOUS
10
36.721
20
-119.486
11
36.6733
21
-119.39
0
LINE
8
BLACK
6
CONTINUOUS
10
36.6733
20
-119.39
11
36.6733
21
-119.343
0
LINE
8
BLACK
6
CONTINUOUS
10
36.6733
20
-119.343
11
36.721
21
-119.248
0
LINE
8
BLACK
6
CONTINUOUS
10
36.721
20
-119.248
11
36.7686
21
-119.2
0
LINE
8
BLACK
6
CONTINUOUS
10
36.7686
20
-119.2
11
36.8638
21
-119.152
0
LINE
8
BLACK
6
CONTINUOUS
10
36.8638
20
-119.152
11
37.0543
21
-119.152
0
LINE
8
BLACK
6
CONTINUOUS
10
37.0543
20
-119.152
11
37.1495
21
-119.2
0
LINE
8
BLACK
6
CONTINUOUS
10
37.1495
20
-119.2
11
37.1971
21
-119.248
0
LINE
8
BLACK
6
CONTINUOUS
10
37.1971
20
-119.248
11
37.2448
21
-119.343
0
LINE
8
BLACK
6
CONTINUOUS
10
37.2448
20
-119.343
11
37.2448
21
-119.39
0
LINE
8
BLACK
6
CONTINUOUS
10
37.2448
20
-119.39
11
37.1971
21
-119.486
0
LINE
8
BLACK
6
CONTINUOUS
10
37.1971
20
-119.486
11
37.1495
21
-119.533
0
LINE
8
BLACK
6
CONTINUOUS
10
37.1495
20
-119.533
11
37.0543
21
-119.581
0
LINE
8
BLACK
6
CONTINUOUS
10
37.0543
20
-119.581
11
36.8638
21
-119.581
0
LINE
8
BLACK
6
CONTINUOUS
10
36.8638
20
-119.581
11
36.7686
21
-119.629
0
LINE
8
BLACK
6
CONTINUOUS
10
36.7686
20
-119.629
11
36.721
21
-119.676
0
LINE
8
BLACK
6
CONTINUOUS
10
36.721
20
-119.676
11
36.6733
21
-119.771
0
LINE
8
BLACK
6
CONTINUOUS
10
36.6733
20
-119.771
11
36.6733
21
-119.962
0
LINE
8
BLACK
6
CONTINUOUS
10
36.6733
20
-119.962
11
36.721
21
-120.057
0
LINE
8
BLACK
6
CONTINUOUS
10
36.721
20
-120.057
11
36.7686
21
-120.105
0
LINE
8
BLACK
6
CONTINUOUS
10
36.7686
20
-120.105
11
36.8638
21
-120.152
0
LINE
8
BLACK
6
CONTINUOUS
10
36.8638
20
-120.152
11
37.0543
21
-120.152
0
LINE
8
BLACK
6
CONTINUOUS
10
37.0543
20
-120.152
11
37.1495
21
-120.105
0
LINE
8
BLACK
6
CONTINUOUS
10
37.1495
20
-120.105
11
37.1971
21
-120.057
0
LINE
8
BLACK
6
CONTINUOUS
10
37.1971
20
-120.057
11
37.2448
21
-119.962
0
LINE
8
BLACK
6
CONTINUOUS
10
37.2448
20
-119.962
11
37.2448
21
-119.771
0
LINE
8
BLACK
6
CONTINUOUS
10
37.2448
20
-119.771
11
37.1971
21
-119.676
0
LINE
8
BLACK
6
CONTINUOUS
10
37.1971
20
-119.676
11
37.1495
21
-119.629
0
LINE
8
BLACK
6
CONTINUOUS
10
37.1495
20
-119.629
11
37.0543
21
-119.581
0
LINE
8
BLACK
6
CONTINUOUS
10
37.5781
20
-119.152
11
38.1971
21
-119.152
0
LINE
8
BLACK
6
CONTINUOUS
10
38.1971
20
-119.152
11
37.8638
21
-119.533
0
LINE
8
BLACK
6
CONTINUOUS
10
37.8638
20
-119.533
11
38.0067
21
-119.533
0
LINE
8
BLACK
6
CONTINUOUS
10
38.0067
20
-119.533
11
38.1019
21
-119.581
0
LINE
8
BLACK
6
CONTINUOUS
10
38.1019
20
-119.581
11
38.1495
21
-119.629
0
LINE
8
BLACK
6
CONTINUOUS
10
38.1495
20
-119.629
11
38.1971
21
-119.724
0
LINE
8
BLACK
6
CONTINUOUS
10
38.1971
20
-119.724
11
38.1971
21
-119.962
0
LINE
8
BLACK
6
CONTINUOUS
10
38.1971
20
-119.962
11
38.1495
21
-120.057
0
LINE
8
BLACK
6
CONTINUOUS
10
38.1495
20
-120.057
11
38.1019
21
-120.105
0
LINE
8
BLACK
6
CONTINUOUS
10
38.1019
20
-120.105
11
38.0067
21
-120.152
0
LINE
8
BLACK
6
CONTINUOUS
10
38.0067
20
-120.152
11
37.721
21
-120.152
0
LINE
8
BLACK
6
CONTINUOUS
10
37.721
20
-120.152
11
37.6257
21
-120.105
0
LINE
8
BLACK
6
CONTINUOUS
10
37.6257
20
-120.105
11
37.5781
21
-120.057
0
LINE
8
BLACK
6
CONTINUOUS
10
38.6257
20
-120.057
11
38.6733
21
-120.105
0
LINE
8
BLACK
6
CONTINUOUS
10
38.6733
20
-120.105
11
38.6257
21
-120.152
0
LINE
8
BLACK
6
CONTINUOUS
10
38.6257
20
-120.152
11
38.5781
21
-120.105
0
LINE
8
BLACK
6
CONTINUOUS
10
38.5781
20
-120.105
11
38.6257
21
-120.057
0
LINE
8
BLACK
6
CONTINUOUS
10
38.6257
20
-120.057
11
38.6257
21
-120.152
0
LINE
8
BLACK
6
CONTINUOUS
10
39.6257
20
-120.152
11
39.0543
21
-120.152
0
LINE
8
BLACK
6
CONTINUOUS
10
39.34
20
-120.152
11
39.34
21
-119.152
0
LINE
8
BLACK
6
CONTINUOUS
10
39.34
20
-119.152
11
39.2448
21
-119.295
0
LINE
8
BLACK
6
CONTINUOUS
10
39.2448
20
-119.295
11
39.1495
21
-119.39
0
LINE
8
BLACK
6
CONTINUOUS
10
39.1495
20
-119.39
11
39.0543
21
-119.438
0
LINE
8
BLACK
6
CONTINUOUS
10
40.4829
20
-119.152
11
40.2924
21
-119.152
0
LINE
8
BLACK
6
CONTINUOUS
10
40.2924
20
-119.152
11
40.1971
21
-119.2
0
LINE
8
BLACK
6
CONTINUOUS
10
40.1971
20
-119.2
11
40.1495
21
-119.248
0
LINE
8
BLACK
6
CONTINUOUS
10
40.1495
20
-119.248
11
40.0543
21
-119.39
0
LINE
8
BLACK
6
CONTINUOUS
10
40.0543
20
-119.39
11
40.0067
21
-119.581
0
LINE
8
BLACK
6
CONTINUOUS
10
40.0067
20
-119.581
11
40.0067
21
-119.962
0
LINE
8
BLACK
6
CONTINUOUS
10
40.0067
20
-119.962
11
40.0543
21
-120.057
0
LINE
8
BLACK
6
CONTINUOUS
10
40.0543
20
-120.057
11
40.1019
21
-120.105
0
LINE
8
BLACK
6
CONTINUOUS
10
40.1019
20
-120.105
11
40.1971
21
-120.152
0
LINE
8
BLACK
6
CONTINUOUS
10
40.1971
20
-120.152
11
40.3876
21
-120.152
0
LINE
8
BLACK
6
CONTINUOUS
10
40.3876
20
-120.152
11
40.4829
21
-120.105
0
LINE
8
BLACK
6
CONTINUOUS
10
40.4829
20
-120.105
11
40.5305
21
-120.057
0
LINE
8
BLACK
6
CONTINUOUS
10
40.5305
20
-120.057
11
40.5781
21
-119.962
0
LINE
8
BLACK
6
CONTINUOUS
10
40.5781
20
-119.962
11
40.5781
21
-119.724
0
LINE
8
BLACK
6
CONTINUOUS
10
40.5781
20
-119.724
11
40.5305
21
-119.629
0
LINE
8
BLACK
6
CONTINUOUS
10
40.5305
20
-119.629
11
40.4829
21
-119.581
0
LINE
8
BLACK
6
CONTINUOUS
10
40.4829
20
-119.581
11
40.3876
21
-119.533
0
LINE
8
BLACK
6
CONTINUOUS
10
40.3876
20
-119.533
11
40.1971
21
-119.533
0
LINE
8
BLACK
6
CONTINUOUS
10
40.1971
20
-119.533
11
40.1019
21
-119.581
0
LINE
8
BLACK
6
CONTINUOUS
10
40.1019
20
-119.581
11
40.0543
21
-119.629
0
LINE
8
BLACK
6
CONTINUOUS
10
40.0543
20
-119.629
11
40.0067
21
-119.724
0
LINE
8
BLACK
6
CONTINUOUS
10
41.1971
20
-119.152
11
41.2924
21
-119.152
0
LINE
8
BLACK
6
CONTINUOUS
10
41.2924
20
-119.152
11
41.3876
21
-119.2
0
LINE
8
BLACK
6
CONTINUOUS
10
41.3876
20
-119.2
11
41.4352
21
-119.248
0
LINE
8
BLACK
6
CONTINUOUS
10
41.4352
20
-119.248
11
41.4829
21
-119.343
0
LINE
8
BLACK
6
CONTINUOUS
10
41.4829
20
-119.343
11
41.5305
21
-119.533
0
LINE
8
BLACK
6
CONTINUOUS
10
41.5305
20
-119.533
11
41.5305
21
-119.771
0
LINE
8
BLACK
6
CONTINUOUS
10
41.5305
20
-119.771
11
41.4829
21
-119.962
0
LINE
8
BLACK
6
CONTINUOUS
10
41.4829
20
-119.962
11
41.4352
21
-120.057
0
LINE
8
BLACK
6
CONTINUOUS
10
41.4352
20
-120.057
11
41.3876
21
-120.105
0
LINE
8
BLACK
6
CONTINUOUS
10
41.3876
20
-120.105
11
41.2924
21
-120.152
0
LINE
8
BLACK
6
CONTINUOUS
10
41.2924
20
-120.152
11
41.1971
21
-120.152
0
LINE
8
BLACK
6
CONTINUOUS
10
41.1971
20
-120.152
11
41.1019
21
-120.105
0
LINE
8
BLACK
6
CONTINUOUS
10
41.1019
20
-120.105
11
41.0543
21
-120.057
0
LINE
8
BLACK
6
CONTINUOUS
10
41.0543
20
-120.057
11
41.0067
21
-119.962
0
LINE
8
BLACK
6
CONTINUOUS
10
41.0067
20
-119.962
11
40.959
21
-119.771
0
LINE
8
BLACK
6
CONTINUOUS
10
40.959
20
-119.771
11
40.959
21
-119.533
0
LINE
8
BLACK
6
CONTINUOUS
10
40.959
20
-119.533
11
41.0067
21
-119.343
0
LINE
8
BLACK
6
CONTINUOUS
10
41.0067
20
-119.343
11
41.0543
21
-119.248
0
LINE
8
BLACK
6
CONTINUOUS
10
41.0543
20
-119.248
11
41.1019
21
-119.2
0
LINE
8
BLACK
6
CONTINUOUS
10
41.1019
20
-119.2
11
41.1971
21
-119.152
0
LINE
8
BLACK
6
CONTINUOUS
10
42.721
20
-120.152
11
42.721
21
-119.486
0
LINE
8
BLACK
6
CONTINUOUS
10
42.721
20
-119.581
11
42.7686
21
-119.533
0
LINE
8
BLACK
6
CONTINUOUS
10
42.7686
20
-119.533
11
42.8638
21
-119.486
0
LINE
8
BLACK
6
CONTINUOUS
10
42.8638
20
-119.486
11
43.0067
21
-119.486
0
LINE
8
BLACK
6
CONTINUOUS
10
43.0067
20
-119.486
11
43.1019
21
-119.533
0
LINE
8
BLACK
6
CONTINUOUS
10
43.1019
20
-119.533
11
43.1495
21
-119.629
0
LINE
8
BLACK
6
CONTINUOUS
10
43.1495
20
-119.629
11
43.1495
21
-120.152
0
LINE
8
BLACK
6
CONTINUOUS
10
43.1495
20
-119.629
11
43.1971
21
-119.533
0
LINE
8
BLACK
6
CONTINUOUS
10
43.1971
20
-119.533
11
43.2924
21
-119.486
0
LINE
8
BLACK
6
CONTINUOUS
10
43.2924
20
-119.486
11
43.4352
21
-119.486
0
LINE
8
BLACK
6
CONTINUOUS
10
43.4352
20
-119.486
11
43.5305
21
-119.533
0
LINE
8
BLACK
6
CONTINUOUS
10
43.5305
20
-119.533
11
43.5781
21
-119.629
0
LINE
8
BLACK
6
CONTINUOUS
10
43.5781
20
-119.629
11
43.5781
21
-120.152
0
LINE
8
BLACK
6
CONTINUOUS
10
44.0543
20
-120.152
11
44.0543
21
-119.486
0
LINE
8
BLACK
6
CONTINUOUS
10
44.0543
20
-119.581
11
44.1019
21
-119.533
0
LINE
8
BLACK
6
CONTINUOUS
10
44.1019
20
-119.533
11
44.1971
21
-119.486
0
LINE
8
BLACK
6
CONTINUOUS
10
44.1971
20
-119.486
11
44.34
21
-119.486
0
LINE
8
BLACK
6
CONTINUOUS
10
44.34
20
-119.486
11
44.4352
21
-119.533
0
LINE
8
BLACK
6
CONTINUOUS
10
44.4352
20
-119.533
11
44.4829
21
-119.629
0
LINE
8
BLACK
6
CONTINUOUS
10
44.4829
20
-119.629
11
44.4829
21
-120.152
0
LINE
8
BLACK
6
CONTINUOUS
10
44.4829
20
-119.629
11
44.5305
21
-119.533
0
LINE
8
BLACK
6
CONTINUOUS
10
44.5305
20
-119.533
11
44.6257
21
-119.486
0
LINE
8
BLACK
6
CONTINUOUS
10
44.6257
20
-119.486
11
44.7686
21
-119.486
0
LINE
8
BLACK
6
CONTINUOUS
10
44.7686
20
-119.486
11
44.8638
21
-119.533
0
LINE
8
BLACK
6
CONTINUOUS
10
44.8638
20
-119.533
11
44.9114
21
-119.629
0
LINE
8
BLACK
6
CONTINUOUS
10
44.9114
20
-119.629
11
44.9114
21
-120.152
0
LINE
8
BLACK
6
CONTINUOUS
10
-51.24
20
-118.43
11
131.92
21
-118.43
0
LINE
8
BLACK
6
CONTINUOUS
10
-51.24
20
-114.825
11
-51.24
21
-119.016
0
LINE
8
BLACK
6
CONTINUOUS
10
131.92
20
-114.825
11
131.92
21
-119.016
0
LINE
8
BLACK
6
CONTINUOUS
10
131.92
20
-118.43
11
130.793
21
-119.016
0
LINE
8
BLACK
6
CONTINUOUS
10
131.92
20
-118.43
11
130.793
21
-117.844
0
LINE
8
BLACK
6
CONTINUOUS
10
-51.24
20
-118.43
11
-50.1135
21
-119.016
0
LINE
8
BLACK
6
CONTINUOUS
10
-51.24
20
-118.43
11
-50.1135
21
-117.844
0
LINE
8
BLACK
6
CONTINUOUS
10
-51.24
20
8.98
11
-51.24
21
-112.825
0
LINE
8
BLACK
6
CONTINUOUS
10
77.2575
20
-104.825
11
-24.725
21
-104.825
0
LINE
8
BLACK
6
CONTINUOUS
10
77.2575
20
-104.825
11
101.162
21
-104.825
0
LINE
8
BLACK
6
CONTINUOUS
10
-50.685
20
9.475
11
124.51
21
9.475
0
LINE
8
BLACK
6
CONTINUOUS
10
125.005
20
8.92
11
125.005
21
-82.55
0
LINE
8
BLACK
6
CONTINUOUS
10
125.005
20
-82.55
11
131.92
21
-95.83
0
LINE
8
BLACK
6
CONTINUOUS
10
131.92
20
-112.885
11
131.92
21
-95.83
0
LINE
8
BLACK
6
CONTINUOUS
10
131.365
20
-113.38
11
106.465
21
-113.38
0
LINE
8
BLACK
6
CONTINUOUS
10
105.97
20
-112.825
11
105.97
21
-105.38
0
LINE
8
BLACK
6
CONTINUOUS
10
105.475
20
-104.825
11
101.162
21
-104.825
0
LINE
8
BLACK
6
CONTINUOUS
10
-25.29
20
-112.885
11
-25.29
21
-105.32
0
LINE
8
BLACK
6
CONTINUOUS
10
-25.845
20
-113.38
11
-50.745
21
-113.38
0
ARC
8
BLACK
10
105.445
20
-105.35
40
0.525856
50
-3.27049
51
86.7295
0
ARC
8
BLACK
10
-24.76
20
-105.355
40
0.531154
50
86.2218
51
176.222
0
ARC
8
BLACK
10
-25.815
20
-112.855
40
0.525856
50
-93.2705
51
-3.27049
0
ARC
8
BLACK
10
106.495
20
-112.855
40
0.525856
50
-183.27
51
-93.2705
0
ARC
8
BLACK
10
131.395
20
-112.855
40
0.525856
50
-93.2705
51
-3.27049
0
ARC
8
BLACK
10
-50.715
20
-112.855
40
0.525856
50
-183.27
51
-93.2705
0
ARC
8
BLACK
10
124.48
20
8.95
40
0.525856
50
-3.27049
51
86.7295
0
ARC
8
BLACK
10
-50.715
20
8.95
40
0.525856
50
86.7295
51
176.73
0
LINE
8
BLACK
6
CONTINUOUS
10
119.225
20
-90.4211
11
119.336
21
-90.4432
0
LINE
8
BLACK
6
CONTINUOUS
10
119.336
20
-90.4432
11
119.545
21
-90.53
0
LINE
8
BLACK
6
CONTINUOUS
10
119.545
20
-90.53
11
119.734
21
-90.656
0
LINE
8
BLACK
6
CONTINUOUS
10
119.734
20
-90.656
11
119.894
21
-90.8163
0
LINE
8
BLACK
6
CONTINUOUS
10
119.894
20
-90.8163
11
120.02
21
-91.0048
0
LINE
8
BLACK
6
CONTINUOUS
10
120.02
20
-91.0048
11
120.107
21
-91.2143
0
LINE
8
BLACK
6
CONTINUOUS
10
120.107
20
-91.2143
11
120.151
21
-91.4366
0
LINE
8
BLACK
6
CONTINUOUS
10
120.151
20
-91.4366
11
120.151
21
-91.6634
0
LINE
8
BLACK
6
CONTINUOUS
10
120.151
20
-91.6634
11
120.107
21
-91.8857
0
LINE
8
BLACK
6
CONTINUOUS
10
120.107
20
-91.8857
11
120.02
21
-92.0952
0
LINE
8
BLACK
6
CONTINUOUS
10
120.02
20
-92.0952
11
119.894
21
-92.2837
0
LINE
8
BLACK
6
CONTINUOUS
10
119.894
20
-92.2837
11
119.734
21
-92.444
0
LINE
8
BLACK
6
CONTINUOUS
10
119.734
20
-92.444
11
119.545
21
-92.57
0
LINE
8
BLACK
6
CONTINUOUS
10
119.545
20
-92.57
11
119.336
21
-92.6568
0
LINE
8
BLACK
6
CONTINUOUS
10
119.336
20
-92.6568
11
119.225
21
-92.6789
0
LINE
8
BLACK
6
CONTINUOUS
10
119.225
20
-92.6789
11
119.113
21
-92.701
0
LINE
8
BLACK
6
CONTINUOUS
10
119.113
20
-92.701
11
118.887
21
-92.701
0
LINE
8
BLACK
6
CONTINUOUS
10
118.887
20
-92.701
11
118.775
21
-92.6789
0
LINE
8
BLACK
6
CONTINUOUS
10
118.775
20
-92.6789
11
118.664
21
-92.6568
0
LINE
8
BLACK
6
CONTINUOUS
10
118.664
20
-92.6568
11
118.455
21
-92.57
0
LINE
8
BLACK
6
CONTINUOUS
10
118.455
20
-92.57
11
118.266
21
-92.444
0
LINE
8
BLACK
6
CONTINUOUS
10
118.266
20
-92.444
11
118.106
21
-92.2837
0
LINE
8
BLACK
6
CONTINUOUS
10
118.106
20
-92.2837
11
117.98
21
-92.0952
0
LINE
8
BLACK
6
CONTINUOUS
10
117.98
20
-92.0952
11
117.893
21
-91.8857
0
LINE
8
BLACK
6
CONTINUOUS
10
117.893
20
-91.8857
11
117.849
21
-91.6634
0
LINE
8
BLACK
6
CONTINUOUS
10
117.849
20
-91.6634
11
117.849
21
-91.4366
0
LINE
8
BLACK
6
CONTINUOUS
10
117.849
20
-91.4366
11
117.893
21
-91.2143
0
LINE
8
BLACK
6
CONTINUOUS
10
117.893
20
-91.2143
11
117.98
21
-91.0048
0
LINE
8
BLACK
6
CONTINUOUS
10
117.98
20
-91.0048
11
118.106
21
-90.8163
0
LINE
8
BLACK
6
CONTINUOUS
10
118.106
20
-90.8163
11
118.266
21
-90.656
0
LINE
8
BLACK
6
CONTINUOUS
10
118.266
20
-90.656
11
118.455
21
-90.53
0
LINE
8
BLACK
6
CONTINUOUS
10
118.455
20
-90.53
11
118.664
21
-90.4432
0
LINE
8
BLACK
6
CONTINUOUS
10
118.664
20
-90.4432
11
118.775
21
-90.4211
0
LINE
8
BLACK
6
CONTINUOUS
10
118.775
20
-90.4211
11
118.887
21
-90.399
0
LINE
8
BLACK
6
CONTINUOUS
10
118.887
20
-90.399
11
119.113
21
-90.399
0
LINE
8
BLACK
6
CONTINUOUS
10
119.113
20
-90.399
11
119.225
21
-90.4211
0
LINE
8
BLACK
6
CONTINUOUS
10
87.0745
20
-84.2211
11
87.1857
21
-84.2432
0
LINE
8
BLACK
6
CONTINUOUS
10
87.1857
20
-84.2432
11
87.3952
21
-84.33
0
LINE
8
BLACK
6
CONTINUOUS
10
87.3952
20
-84.33
11
87.5837
21
-84.456
0
LINE
8
BLACK
6
CONTINUOUS
10
87.5837
20
-84.456
11
87.744
21
-84.6163
0
LINE
8
BLACK
6
CONTINUOUS
10
87.744
20
-84.6163
11
87.87
21
-84.8048
0
LINE
8
BLACK
6
CONTINUOUS
10
87.87
20
-84.8048
11
87.9568
21
-85.0143
0
LINE
8
BLACK
6
CONTINUOUS
10
87.9568
20
-85.0143
11
88.001
21
-85.2366
0
LINE
8
BLACK
6
CONTINUOUS
10
88.001
20
-85.2366
11
88.001
21
-85.4634
0
LINE
8
BLACK
6
CONTINUOUS
10
88.001
20
-85.4634
11
87.9568
21
-85.6857
0
LINE
8
BLACK
6
CONTINUOUS
10
87.9568
20
-85.6857
11
87.87
21
-85.8952
0
LINE
8
BLACK
6
CONTINUOUS
10
87.87
20
-85.8952
11
87.744
21
-86.0837
0
LINE
8
BLACK
6
CONTINUOUS
10
87.744
20
-86.0837
11
87.5837
21
-86.244
0
LINE
8
BLACK
6
CONTINUOUS
10
87.5837
20
-86.244
11
87.3952
21
-86.37
0
LINE
8
BLACK
6
CONTINUOUS
10
87.3952
20
-86.37
11
87.1857
21
-86.4568
0
LINE
8
BLACK
6
CONTINUOUS
10
87.1857
20
-86.4568
11
87.0745
21
-86.4789
0
LINE
8
BLACK
6
CONTINUOUS
10
87.0745
20
-86.4789
11
86.9634
21
-86.501
0
LINE
8
BLACK
6
CONTINUOUS
10
86.9634
20
-86.501
11
86.7366
21
-86.501
0
LINE
8
BLACK
6
CONTINUOUS
10
86.7366
20
-86.501
11
86.6255
21
-86.4789
0
LINE
8
BLACK
6
CONTINUOUS
10
86.6255
20
-86.4789
11
86.5143
21
-86.4568
0
LINE
8
BLACK
6
CONTINUOUS
10
86.5143
20
-86.4568
11
86.3048
21
-86.37
0
LINE
8
BLACK
6
CONTINUOUS
10
86.3048
20
-86.37
11
86.1163
21
-86.244
0
LINE
8
BLACK
6
CONTINUOUS
10
86.1163
20
-86.244
11
85.956
21
-86.0837
0
LINE
8
BLACK
6
CONTINUOUS
10
85.956
20
-86.0837
11
85.83
21
-85.8952
0
LINE
8
BLACK
6
CONTINUOUS
10
85.83
20
-85.8952
11
85.7432
21
-85.6857
0
LINE
8
BLACK
6
CONTINUOUS
10
85.7432
20
-85.6857
11
85.699
21
-85.4634
0
LINE
8
BLACK
6
CONTINUOUS
10
85.699
20
-85.4634
11
85.699
21
-85.2366
0
LINE
8
BLACK
6
CONTINUOUS
10
85.699
20
-85.2366
11
85.7432
21
-85.0143
0
LINE
8
BLACK
6
CONTINUOUS
10
85.7432
20
-85.0143
11
85.83
21
-84.8048
0
LINE
8
BLACK
6
CONTINUOUS
10
85.83
20
-84.8048
11
85.956
21
-84.6163
0
LINE
8
BLACK
6
CONTINUOUS
10
85.956
20
-84.6163
11
86.1163
21
-84.456
0
LINE
8
BLACK
6
CONTINUOUS
10
86.1163
20
-84.456
11
86.3048
21
-84.33
0
LINE
8
BLACK
6
CONTINUOUS
10
86.3048
20
-84.33
11
86.5143
21
-84.2432
0
LINE
8
BLACK
6
CONTINUOUS
10
86.5143
20
-84.2432
11
86.6255
21
-84.2211
0
LINE
8
BLACK
6
CONTINUOUS
10
86.6255
20
-84.2211
11
86.7366
21
-84.199
0
LINE
8
BLACK
6
CONTINUOUS
10
86.7366
20
-84.199
11
86.9634
21
-84.199
0
LINE
8
BLACK
6
CONTINUOUS
10
86.9634
20
-84.199
11
87.0745
21
-84.2211
0
LINE
8
BLACK
6
CONTINUOUS
10
-28.9955
20
-84.2211
11
-28.8843
21
-84.2432
0
LINE
8
BLACK
6
CONTINUOUS
10
-28.8843
20
-84.2432
11
-28.6748
21
-84.33
0
LINE
8
BLACK
6
CONTINUOUS
10
-28.6748
20
-84.33
11
-28.4863
21
-84.456
0
LINE
8
BLACK
6
CONTINUOUS
10
-28.4863
20
-84.456
11
-28.326
21
-84.6163
0
LINE
8
BLACK
6
CONTINUOUS
10
-28.326
20
-84.6163
11
-28.2
21
-84.8048
0
LINE
8
BLACK
6
CONTINUOUS
10
-28.2
20
-84.8048
11
-28.1132
21
-85.0143
0
LINE
8
BLACK
6
CONTINUOUS
10
-28.1132
20
-85.0143
11
-28.069
21
-85.2366
0
LINE
8
BLACK
6
CONTINUOUS
10
-28.069
20
-85.2366
11
-28.069
21
-85.4634
0
LINE
8
BLACK
6
CONTINUOUS
10
-28.069
20
-85.4634
11
-28.1132
21
-85.6857
0
LINE
8
BLACK
6
CONTINUOUS
10
-28.1132
20
-85.6857
11
-28.2
21
-85.8952
0
LINE
8
BLACK
6
CONTINUOUS
10
-28.2
20
-85.8952
11
-28.326
21
-86.0837
0
LINE
8
BLACK
6
CONTINUOUS
10
-28.326
20
-86.0837
11
-28.4863
21
-86.244
0
LINE
8
BLACK
6
CONTINUOUS
10
-28.4863
20
-86.244
11
-28.6748
21
-86.37
0
LINE
8
BLACK
6
CONTINUOUS
10
-28.6748
20
-86.37
11
-28.8843
21
-86.4568
0
LINE
8
BLACK
6
CONTINUOUS
10
-28.8843
20
-86.4568
11
-28.9955
21
-86.4789
0
LINE
8
BLACK
6
CONTINUOUS
10
-28.9955
20
-86.4789
11
-29.1066
21
-86.501
0
LINE
8
BLACK
6
CONTINUOUS
10
-29.1066
20
-86.501
11
-29.3334
21
-86.501
0
LINE
8
BLACK
6
CONTINUOUS
10
-29.3334
20
-86.501
11
-29.4445
21
-86.4789
0
LINE
8
BLACK
6
CONTINUOUS
10
-29.4445
20
-86.4789
11
-29.5557
21
-86.4568
0
LINE
8
BLACK
6
CONTINUOUS
10
-29.5557
20
-86.4568
11
-29.7652
21
-86.37
0
LINE
8
BLACK
6
CONTINUOUS
10
-29.7652
20
-86.37
11
-29.9537
21
-86.244
0
LINE
8
BLACK
6
CONTINUOUS
10
-29.9537
20
-86.244
11
-30.114
21
-86.0837
0
LINE
8
BLACK
6
CONTINUOUS
10
-30.114
20
-86.0837
11
-30.24
21
-85.8952
0
LINE
8
BLACK
6
CONTINUOUS
10
-30.24
20
-85.8952
11
-30.3268
21
-85.6857
0
LINE
8
BLACK
6
CONTINUOUS
10
-30.3268
20
-85.6857
11
-30.371
21
-85.4634
0
LINE
8
BLACK
6
CONTINUOUS
10
-30.371
20
-85.4634
11
-30.371
21
-85.2366
0
LINE
8
BLACK
6
CONTINUOUS
10
-30.371
20
-85.2366
11
-30.3268
21
-85.0143
0
LINE
8
BLACK
6
CONTINUOUS
10
-30.3268
20
-85.0143
11
-30.24
21
-84.8048
0
LINE
8
BLACK
6
CONTINUOUS
10
-30.24
20
-84.8048
11
-30.114
21
-84.6163
0
LINE
8
BLACK
6
CONTINUOUS
10
-30.114
20
-84.6163
11
-29.9537
21
-84.456
0
LINE
8
BLACK
6
CONTINUOUS
10
-29.9537
20
-84.456
11
-29.7652
21
-84.33
0
LINE
8
BLACK
6
CONTINUOUS
10
-29.7652
20
-84.33
11
-29.5557
21
-84.2432
0
LINE
8
BLACK
6
CONTINUOUS
10
-29.5557
20
-84.2432
11
-29.4445
21
-84.2211
0
LINE
8
BLACK
6
CONTINUOUS
10
-29.4445
20
-84.2211
11
-29.3334
21
-84.199
0
LINE
8
BLACK
6
CONTINUOUS
10
-29.3334
20
-84.199
11
-29.1066
21
-84.199
0
LINE
8
BLACK
6
CONTINUOUS
10
-29.1066
20
-84.199
11
-28.9955
21
-84.2211
0
LINE
8
BLACK
6
CONTINUOUS
10
34.687
20
-46.1211
11
34.7982
21
-46.1432
0
LINE
8
BLACK
6
CONTINUOUS
10
34.7982
20
-46.1432
11
35.0077
21
-46.23
0
LINE
8
BLACK
6
CONTINUOUS
10
35.0077
20
-46.23
11
35.1962
21
-46.356
0
LINE
8
BLACK
6
CONTINUOUS
10
35.1962
20
-46.356
11
35.3565
21
-46.5163
0
LINE
8
BLACK
6
CONTINUOUS
10
35.3565
20
-46.5163
11
35.4825
21
-46.7048
0
LINE
8
BLACK
6
CONTINUOUS
10
35.4825
20
-46.7048
11
35.5693
21
-46.9143
0
LINE
8
BLACK
6
CONTINUOUS
10
35.5693
20
-46.9143
11
35.6135
21
-47.1366
0
LINE
8
BLACK
6
CONTINUOUS
10
35.6135
20
-47.1366
11
35.6135
21
-47.3634
0
LINE
8
BLACK
6
CONTINUOUS
10
35.6135
20
-47.3634
11
35.5693
21
-47.5857
0
LINE
8
BLACK
6
CONTINUOUS
10
35.5693
20
-47.5857
11
35.4825
21
-47.7952
0
LINE
8
BLACK
6
CONTINUOUS
10
35.4825
20
-47.7952
11
35.3565
21
-47.9837
0
LINE
8
BLACK
6
CONTINUOUS
10
35.3565
20
-47.9837
11
35.1962
21
-48.144
0
LINE
8
BLACK
6
CONTINUOUS
10
35.1962
20
-48.144
11
35.0077
21
-48.27
0
LINE
8
BLACK
6
CONTINUOUS
10
35.0077
20
-48.27
11
34.7982
21
-48.3568
0
LINE
8
BLACK
6
CONTINUOUS
10
34.7982
20
-48.3568
11
34.687
21
-48.3789
0
LINE
8
BLACK
6
CONTINUOUS
10
34.687
20
-48.3789
11
34.5759
21
-48.401
0
LINE
8
BLACK
6
CONTINUOUS
10
34.5759
20
-48.401
11
34.3491
21
-48.401
0
LINE
8
BLACK
6
CONTINUOUS
10
34.3491
20
-48.401
11
34.238
21
-48.3789
0
LINE
8
BLACK
6
CONTINUOUS
10
34.238
20
-48.3789
11
34.1268
21
-48.3568
0
LINE
8
BLACK
6
CONTINUOUS
10
34.1268
20
-48.3568
11
33.9173
21
-48.27
0
LINE
8
BLACK
6
CONTINUOUS
10
33.9173
20
-48.27
11
33.7288
21
-48.144
0
LINE
8
BLACK
6
CONTINUOUS
10
33.7288
20
-48.144
11
33.5685
21
-47.9837
0
LINE
8
BLACK
6
CONTINUOUS
10
33.5685
20
-47.9837
11
33.4425
21
-47.7952
0
LINE
8
BLACK
6
CONTINUOUS
10
33.4425
20
-47.7952
11
33.3557
21
-47.5857
0
LINE
8
BLACK
6
CONTINUOUS
10
33.3557
20
-47.5857
11
33.3115
21
-47.3634
0
LINE
8
BLACK
6
CONTINUOUS
10
33.3115
20
-47.3634
11
33.3115
21
-47.1366
0
LINE
8
BLACK
6
CONTINUOUS
10
33.3115
20
-47.1366
11
33.3557
21
-46.9143
0
LINE
8
BLACK
6
CONTINUOUS
10
33.3557
20
-46.9143
11
33.4425
21
-46.7048
0
LINE
8
BLACK
6
CONTINUOUS
10
33.4425
20
-46.7048
11
33.5685
21
-46.5163
0
LINE
8
BLACK
6
CONTINUOUS
10
33.5685
20
-46.5163
11
33.7288
21
-46.356
0
LINE
8
BLACK
6
CONTINUOUS
10
33.7288
20
-46.356
11
33.9173
21
-46.23
0
LINE
8
BLACK
6
CONTINUOUS
10
33.9173
20
-46.23
11
34.1268
21
-46.1432
0
LINE
8
BLACK
6
CONTINUOUS
10
34.1268
20
-46.1432
11
34.238
21
-46.1211
0
LINE
8
BLACK
6
CONTINUOUS
10
34.238
20
-46.1211
11
34.3491
21
-46.099
0
LINE
8
BLACK
6
CONTINUOUS
10
34.3491
20
-46.099
11
34.5759
21
-46.099
0
LINE
8
BLACK
6
CONTINUOUS
10
34.5759
20
-46.099
11
34.687
21
-46.1211
0
LINE
8
BLACK
6
CONTINUOUS
10
82.312
20
-8.42112
11
82.4232
21
-8.44323
0
LINE
8
BLACK
6
CONTINUOUS
10
82.4232
20
-8.44323
11
82.6327
21
-8.53
0
LINE
8
BLACK
6
CONTINUOUS
10
82.6327
20
-8.53
11
82.8212
21
-8.65596
0
LINE
8
BLACK
6
CONTINUOUS
10
82.8212
20
-8.65596
11
82.9815
21
-8.81628
0
LINE
8
BLACK
6
CONTINUOUS
10
82.9815
20
-8.81628
11
83.1075
21
-9.0048
0
LINE
8
BLACK
6
CONTINUOUS
10
83.1075
20
-9.0048
11
83.1943
21
-9.21427
0
LINE
8
BLACK
6
CONTINUOUS
10
83.1943
20
-9.21427
11
83.2164
21
-9.32545
0
LINE
8
BLACK
6
CONTINUOUS
10
83.2164
20
-9.32545
11
83.2385
21
-9.43663
0
LINE
8
BLACK
6
CONTINUOUS
10
83.2385
20
-9.43663
11
83.2385
21
-9.66336
0
LINE
8
BLACK
6
CONTINUOUS
10
83.2385
20
-9.66336
11
83.2164
21
-9.77455
0
LINE
8
BLACK
6
CONTINUOUS
10
83.2164
20
-9.77455
11
83.1943
21
-9.88573
0
LINE
8
BLACK
6
CONTINUOUS
10
83.1943
20
-9.88573
11
83.1329
21
-10.0338
0
LINE
8
BLACK
6
CONTINUOUS
10
83.1329
20
-10.0338
11
83.1123
21
-10.0837
0
LINE
8
BLACK
6
CONTINUOUS
10
83.1123
20
-10.0837
11
83.1075
21
-10.0952
0
LINE
8
BLACK
6
CONTINUOUS
10
83.1075
20
-10.0952
11
82.9815
21
-10.2837
0
LINE
8
BLACK
6
CONTINUOUS
10
82.9815
20
-10.2837
11
82.8212
21
-10.444
0
LINE
8
BLACK
6
CONTINUOUS
10
82.8212
20
-10.444
11
82.6327
21
-10.57
0
LINE
8
BLACK
6
CONTINUOUS
10
82.6327
20
-10.57
11
82.4232
21
-10.6568
0
LINE
8
BLACK
6
CONTINUOUS
10
82.4232
20
-10.6568
11
82.312
21
-10.6789
0
LINE
8
BLACK
6
CONTINUOUS
10
82.312
20
-10.6789
11
82.2009
21
-10.701
0
LINE
8
BLACK
6
CONTINUOUS
10
82.2009
20
-10.701
11
81.9741
21
-10.701
0
LINE
8
BLACK
6
CONTINUOUS
10
81.9741
20
-10.701
11
81.863
21
-10.6789
0
LINE
8
BLACK
6
CONTINUOUS
10
81.863
20
-10.6789
11
81.7518
21
-10.6568
0
LINE
8
BLACK
6
CONTINUOUS
10
81.7518
20
-10.6568
11
81.5423
21
-10.57
0
LINE
8
BLACK
6
CONTINUOUS
10
81.5423
20
-10.57
11
81.3538
21
-10.444
0
LINE
8
BLACK
6
CONTINUOUS
10
81.3538
20
-10.444
11
81.1935
21
-10.2837
0
LINE
8
BLACK
6
CONTINUOUS
10
81.1935
20
-10.2837
11
81.0675
21
-10.0952
0
LINE
8
BLACK
6
CONTINUOUS
10
81.0675
20
-10.0952
11
81.0627
21
-10.0837
0
LINE
8
BLACK
6
CONTINUOUS
10
81.0627
20
-10.0837
11
81.0421
21
-10.0338
0
LINE
8
BLACK
6
CONTINUOUS
10
81.0421
20
-10.0338
11
80.9807
21
-9.88573
0
LINE
8
BLACK
6
CONTINUOUS
10
80.9807
20
-9.88573
11
80.9586
21
-9.77455
0
LINE
8
BLACK
6
CONTINUOUS
10
80.9586
20
-9.77455
11
80.9365
21
-9.66336
0
LINE
8
BLACK
6
CONTINUOUS
10
80.9365
20
-9.66336
11
80.9365
21
-9.43663
0
LINE
8
BLACK
6
CONTINUOUS
10
80.9365
20
-9.43663
11
80.9586
21
-9.32545
0
LINE
8
BLACK
6
CONTINUOUS
10
80.9586
20
-9.32545
11
80.9807
21
-9.21427
0
LINE
8
BLACK
6
CONTINUOUS
10
80.9807
20
-9.21427
11
81.0675
21
-9.0048
0
LINE
8
BLACK
6
CONTINUOUS
10
81.0675
20
-9.0048
11
81.1935
21
-8.81628
0
LINE
8
BLACK
6
CONTINUOUS
10
81.1935
20
-8.81628
11
81.3538
21
-8.65596
0
LINE
8
BLACK
6
CONTINUOUS
10
81.3538
20
-8.65596
11
81.5423
21
-8.53
0
LINE
8
BLACK
6
CONTINUOUS
10
81.5423
20
-8.53
11
81.7518
21
-8.44323
0
LINE
8
BLACK
6
CONTINUOUS
10
81.7518
20
-8.44323
11
81.863
21
-8.42112
0
LINE
8
BLACK
6
CONTINUOUS
10
81.863
20
-8.42112
11
81.9741
21
-8.399
0
LINE
8
BLACK
6
CONTINUOUS
10
81.9741
20
-8.399
11
82.2009
21
-8.399
0
LINE
8
BLACK
6
CONTINUOUS
10
82.2009
20
-8.399
11
82.312
21
-8.42112
0
LINE
8
BLACK
6
CONTINUOUS
10
-31.963
20
-8.22112
11
-31.8518
21
-8.24323
0
LINE
8
BLACK
6
CONTINUOUS
10
-31.8518
20
-8.24323
11
-31.6423
21
-8.33
0
LINE
8
BLACK
6
CONTINUOUS
10
-31.6423
20
-8.33
11
-31.4538
21
-8.45596
0
LINE
8
BLACK
6
CONTINUOUS
10
-31.4538
20
-8.45596
11
-31.2935
21
-8.61628
0
LINE
8
BLACK
6
CONTINUOUS
10
-31.2935
20
-8.61628
11
-31.2669
21
-8.65596
0
LINE
8
BLACK
6
CONTINUOUS
10
-31.2669
20
-8.65596
11
-31.1675
21
-8.8048
0
LINE
8
BLACK
6
CONTINUOUS
10
-31.1675
20
-8.8048
11
-31.1627
21
-8.81628
0
LINE
8
BLACK
6
CONTINUOUS
10
-31.1627
20
-8.81628
11
-31.0847
21
-9.0048
0
LINE
8
BLACK
6
CONTINUOUS
10
-31.0847
20
-9.0048
11
-31.0807
21
-9.01427
0
LINE
8
BLACK
6
CONTINUOUS
10
-31.0807
20
-9.01427
11
-31.0409
21
-9.21427
0
LINE
8
BLACK
6
CONTINUOUS
10
-31.0409
20
-9.21427
11
-31.0365
21
-9.23664
0
LINE
8
BLACK
6
CONTINUOUS
10
-31.0365
20
-9.23664
11
-31.0365
21
-9.46336
0
LINE
8
BLACK
6
CONTINUOUS
10
-31.0365
20
-9.46336
11
-31.0807
21
-9.68573
0
LINE
8
BLACK
6
CONTINUOUS
10
-31.0807
20
-9.68573
11
-31.1675
21
-9.8952
0
LINE
8
BLACK
6
CONTINUOUS
10
-31.1675
20
-9.8952
11
-31.2935
21
-10.0837
0
LINE
8
BLACK
6
CONTINUOUS
10
-31.2935
20
-10.0837
11
-31.4538
21
-10.244
0
LINE
8
BLACK
6
CONTINUOUS
10
-31.4538
20
-10.244
11
-31.6423
21
-10.37
0
LINE
8
BLACK
6
CONTINUOUS
10
-31.6423
20
-10.37
11
-31.8518
21
-10.4568
0
LINE
8
BLACK
6
CONTINUOUS
10
-31.8518
20
-10.4568
11
-31.963
21
-10.4789
0
LINE
8
BLACK
6
CONTINUOUS
10
-31.963
20
-10.4789
11
-32.0741
21
-10.501
0
LINE
8
BLACK
6
CONTINUOUS
10
-32.0741
20
-10.501
11
-32.3009
21
-10.501
0
LINE
8
BLACK
6
CONTINUOUS
10
-32.3009
20
-10.501
11
-32.412
21
-10.4789
0
LINE
8
BLACK
6
CONTINUOUS
10
-32.412
20
-10.4789
11
-32.5232
21
-10.4568
0
LINE
8
BLACK
6
CONTINUOUS
10
-32.5232
20
-10.4568
11
-32.7327
21
-10.37
0
LINE
8
BLACK
6
CONTINUOUS
10
-32.7327
20
-10.37
11
-32.9212
21
-10.244
0
LINE
8
BLACK
6
CONTINUOUS
10
-32.9212
20
-10.244
11
-33.0815
21
-10.0837
0
LINE
8
BLACK
6
CONTINUOUS
10
-33.0815
20
-10.0837
11
-33.2075
21
-9.8952
0
LINE
8
BLACK
6
CONTINUOUS
10
-33.2075
20
-9.8952
11
-33.2943
21
-9.68573
0
LINE
8
BLACK
6
CONTINUOUS
10
-33.2943
20
-9.68573
11
-33.3385
21
-9.46336
0
LINE
8
BLACK
6
CONTINUOUS
10
-33.3385
20
-9.46336
11
-33.3385
21
-9.23664
0
LINE
8
BLACK
6
CONTINUOUS
10
-33.3385
20
-9.23664
11
-33.334
21
-9.21427
0
LINE
8
BLACK
6
CONTINUOUS
10
-33.334
20
-9.21427
11
-33.2943
21
-9.01427
0
LINE
8
BLACK
6
CONTINUOUS
10
-33.2943
20
-9.01427
11
-33.2903
21
-9.0048
0
LINE
8
BLACK
6
CONTINUOUS
10
-33.2903
20
-9.0048
11
-33.2123
21
-8.81628
0
LINE
8
BLACK
6
CONTINUOUS
10
-33.2123
20
-8.81628
11
-33.2075
21
-8.8048
0
LINE
8
BLACK
6
CONTINUOUS
10
-33.2075
20
-8.8048
11
-33.1081
21
-8.65596
0
LINE
8
BLACK
6
CONTINUOUS
10
-33.1081
20
-8.65596
11
-33.0815
21
-8.61628
0
LINE
8
BLACK
6
CONTINUOUS
10
-33.0815
20
-8.61628
11
-32.9212
21
-8.45596
0
LINE
8
BLACK
6
CONTINUOUS
10
-32.9212
20
-8.45596
11
-32.7327
21
-8.33
0
LINE
8
BLACK
6
CONTINUOUS
10
-32.7327
20
-8.33
11
-32.5232
21
-8.24323
0
LINE
8
BLACK
6
CONTINUOUS
10
-32.5232
20
-8.24323
11
-32.412
21
-8.22112
0
LINE
8
BLACK
6
CONTINUOUS
10
-32.412
20
-8.22112
11
-32.3009
21
-8.199
0
LINE
8
BLACK
6
CONTINUOUS
10
-32.3009
20
-8.199
11
-32.0741
21
-8.199
0
LINE
8
BLACK
6
CONTINUOUS
10
-32.0741
20
-8.199
11
-31.963
21
-8.22112
  0
ENDSEC
  0
EOF
