  0
SECTION
  2
HEADER
  9
$ANGBASE
  50
0.0
  9
$ANGDIR
  70
1
  9
$MEASUREMENT
  70
1
  0
ENDSEC
  0
SECTION
  2
TABLES
  0
TABLE
  2
LTYPE
  70
4
  0
LTYPE
  5
40F
  2
CONTINUOUS
  70
0
  3
Solid line
  72
65
  73
0
  40
0.0
  0
LTYPE
  5
410
  2
DASHDOT
 70
0
  3
Dash Dot ____ _ ____ _
 72
65
 73
4
 40
2.0
 49
1.25
 49
-0.25
 49
0.25
 49
-0.25
  0
LTYPE
  5
411
  2
DASHED
 70
0
  3
Dashed __ __ __ __ __
 72
65
 73
2
 40
0.75
 49
0.5
 49
-0.25
  0
LTYPE
  5
43B
  2
DOTTED
 70
0
  3
Dotted .  .  .  .
 72
65
 73
2
 40
0.2
 49
0.0
 49
-0.2
  0
ENDTAB
  0
TABLE
  2
STYLE
  70
4
  0
STYLE
  2
KICAD
  70
0
  40
0
  41
1
  42
1
  50
0
  71
0
  3
isocp.shx
  0
STYLE
  2
KICADB
  70
0
  40
0
  41
1
  42
1
  50
0
  71
0
  3
isocp.shx
  0
STYLE
  2
KICADI
  70
0
  40
0
  41
1
  42
1
  50
15
  71
0
  3
isocp.shx
  0
STYLE
  2
KICADBI
  70
0
  40
0
  41
1
  42
1
  50
15
  71
0
  3
isocp.shx
  0
ENDTAB
  0
TABLE
  2
LAYER
  70
1
  0
LAYER
  2
BLACK
  70
0
  62
7
  6
CONTINUOUS
  0
ENDTAB
  0
ENDSEC
  0
SECTION
  2
ENTITIES
0
LINE
8
BLACK
6
CONTINUOUS
10
-25.8477
20
-83.4324
11
-26.0382
21
-83.4324
0
LINE
8
BLACK
6
CONTINUOUS
10
-26.0382
20
-83.4324
11
-26.1334
21
-83.48
0
LINE
8
BLACK
6
CONTINUOUS
10
-26.1334
20
-83.48
11
-26.1811
21
-83.5276
0
LINE
8
BLACK
6
CONTINUOUS
10
-26.1811
20
-83.5276
11
-26.2763
21
-83.6705
0
LINE
8
BLACK
6
CONTINUOUS
10
-26.2763
20
-83.6705
11
-26.3239
21
-83.861
0
LINE
8
BLACK
6
CONTINUOUS
10
-26.3239
20
-83.861
11
-26.3239
21
-84.2419
0
LINE
8
BLACK
6
CONTINUOUS
10
-26.3239
20
-84.2419
11
-26.2763
21
-84.3371
0
LINE
8
BLACK
6
CONTINUOUS
10
-26.2763
20
-84.3371
11
-26.2287
21
-84.3848
0
LINE
8
BLACK
6
CONTINUOUS
10
-26.2287
20
-84.3848
11
-26.1334
21
-84.4324
0
LINE
8
BLACK
6
CONTINUOUS
10
-26.1334
20
-84.4324
11
-25.943
21
-84.4324
0
LINE
8
BLACK
6
CONTINUOUS
10
-25.943
20
-84.4324
11
-25.8477
21
-84.3848
0
LINE
8
BLACK
6
CONTINUOUS
10
-25.8477
20
-84.3848
11
-25.8001
21
-84.3371
0
LINE
8
BLACK
6
CONTINUOUS
10
-25.8001
20
-84.3371
11
-25.7525
21
-84.2419
0
LINE
8
BLACK
6
CONTINUOUS
10
-25.7525
20
-84.2419
11
-25.7525
21
-84.0038
0
LINE
8
BLACK
6
CONTINUOUS
10
-25.7525
20
-84.0038
11
-25.8001
21
-83.9086
0
LINE
8
BLACK
6
CONTINUOUS
10
-25.8001
20
-83.9086
11
-25.8477
21
-83.861
0
LINE
8
BLACK
6
CONTINUOUS
10
-25.8477
20
-83.861
11
-25.943
21
-83.8133
0
LINE
8
BLACK
6
CONTINUOUS
10
-25.943
20
-83.8133
11
-26.1334
21
-83.8133
0
LINE
8
BLACK
6
CONTINUOUS
10
-26.1334
20
-83.8133
11
-26.2287
21
-83.861
0
LINE
8
BLACK
6
CONTINUOUS
10
-26.2287
20
-83.861
11
-26.2763
21
-83.9086
0
LINE
8
BLACK
6
CONTINUOUS
10
-26.2763
20
-83.9086
11
-26.3239
21
-84.0038
0
LINE
8
BLACK
6
CONTINUOUS
10
-25.3239
20
-84.3371
11
-25.2763
21
-84.3848
0
LINE
8
BLACK
6
CONTINUOUS
10
-25.2763
20
-84.3848
11
-25.3239
21
-84.4324
0
LINE
8
BLACK
6
CONTINUOUS
10
-25.3239
20
-84.4324
11
-25.3715
21
-84.3848
0
LINE
8
BLACK
6
CONTINUOUS
10
-25.3715
20
-84.3848
11
-25.3239
21
-84.3371
0
LINE
8
BLACK
6
CONTINUOUS
10
-25.3239
20
-84.3371
11
-25.3239
21
-84.4324
0
LINE
8
BLACK
6
CONTINUOUS
10
-24.943
20
-83.4324
11
-24.2763
21
-83.4324
0
LINE
8
BLACK
6
CONTINUOUS
10
-24.2763
20
-83.4324
11
-24.7049
21
-84.4324
0
LINE
8
BLACK
6
CONTINUOUS
10
-23.4192
20
-83.4324
11
-23.8953
21
-83.4324
0
LINE
8
BLACK
6
CONTINUOUS
10
-23.8953
20
-83.4324
11
-23.943
21
-83.9086
0
LINE
8
BLACK
6
CONTINUOUS
10
-23.943
20
-83.9086
11
-23.8953
21
-83.861
0
LINE
8
BLACK
6
CONTINUOUS
10
-23.8953
20
-83.861
11
-23.8001
21
-83.8133
0
LINE
8
BLACK
6
CONTINUOUS
10
-23.8001
20
-83.8133
11
-23.562
21
-83.8133
0
LINE
8
BLACK
6
CONTINUOUS
10
-23.562
20
-83.8133
11
-23.4668
21
-83.861
0
LINE
8
BLACK
6
CONTINUOUS
10
-23.4668
20
-83.861
11
-23.4192
21
-83.9086
0
LINE
8
BLACK
6
CONTINUOUS
10
-23.4192
20
-83.9086
11
-23.3715
21
-84.0038
0
LINE
8
BLACK
6
CONTINUOUS
10
-23.3715
20
-84.0038
11
-23.3715
21
-84.2419
0
LINE
8
BLACK
6
CONTINUOUS
10
-23.3715
20
-84.2419
11
-23.4192
21
-84.3371
0
LINE
8
BLACK
6
CONTINUOUS
10
-23.4192
20
-84.3371
11
-23.4668
21
-84.3848
0
LINE
8
BLACK
6
CONTINUOUS
10
-23.4668
20
-84.3848
11
-23.562
21
-84.4324
0
LINE
8
BLACK
6
CONTINUOUS
10
-23.562
20
-84.4324
11
-23.8001
21
-84.4324
0
LINE
8
BLACK
6
CONTINUOUS
10
-23.8001
20
-84.4324
11
-23.8953
21
-84.3848
0
LINE
8
BLACK
6
CONTINUOUS
10
-23.8953
20
-84.3848
11
-23.943
21
-84.3371
0
LINE
8
BLACK
6
CONTINUOUS
10
-22.7525
20
-83.4324
11
-22.6572
21
-83.4324
0
LINE
8
BLACK
6
CONTINUOUS
10
-22.6572
20
-83.4324
11
-22.562
21
-83.48
0
LINE
8
BLACK
6
CONTINUOUS
10
-22.562
20
-83.48
11
-22.5144
21
-83.5276
0
LINE
8
BLACK
6
CONTINUOUS
10
-22.5144
20
-83.5276
11
-22.4668
21
-83.6229
0
LINE
8
BLACK
6
CONTINUOUS
10
-22.4668
20
-83.6229
11
-22.4192
21
-83.8133
0
LINE
8
BLACK
6
CONTINUOUS
10
-22.4192
20
-83.8133
11
-22.4192
21
-84.0514
0
LINE
8
BLACK
6
CONTINUOUS
10
-22.4192
20
-84.0514
11
-22.4668
21
-84.2419
0
LINE
8
BLACK
6
CONTINUOUS
10
-22.4668
20
-84.2419
11
-22.5144
21
-84.3371
0
LINE
8
BLACK
6
CONTINUOUS
10
-22.5144
20
-84.3371
11
-22.562
21
-84.3848
0
LINE
8
BLACK
6
CONTINUOUS
10
-22.562
20
-84.3848
11
-22.6572
21
-84.4324
0
LINE
8
BLACK
6
CONTINUOUS
10
-22.6572
20
-84.4324
11
-22.7525
21
-84.4324
0
LINE
8
BLACK
6
CONTINUOUS
10
-22.7525
20
-84.4324
11
-22.8477
21
-84.3848
0
LINE
8
BLACK
6
CONTINUOUS
10
-22.8477
20
-84.3848
11
-22.8953
21
-84.3371
0
LINE
8
BLACK
6
CONTINUOUS
10
-22.8953
20
-84.3371
11
-22.943
21
-84.2419
0
LINE
8
BLACK
6
CONTINUOUS
10
-22.943
20
-84.2419
11
-22.9906
21
-84.0514
0
LINE
8
BLACK
6
CONTINUOUS
10
-22.9906
20
-84.0514
11
-22.9906
21
-83.8133
0
LINE
8
BLACK
6
CONTINUOUS
10
-22.9906
20
-83.8133
11
-22.943
21
-83.6229
0
LINE
8
BLACK
6
CONTINUOUS
10
-22.943
20
-83.6229
11
-22.8953
21
-83.5276
0
LINE
8
BLACK
6
CONTINUOUS
10
-22.8953
20
-83.5276
11
-22.8477
21
-83.48
0
LINE
8
BLACK
6
CONTINUOUS
10
-22.8477
20
-83.48
11
-22.7525
21
-83.4324
0
LINE
8
BLACK
6
CONTINUOUS
10
-21.2287
20
-84.4324
11
-21.2287
21
-83.7657
0
LINE
8
BLACK
6
CONTINUOUS
10
-21.2287
20
-83.861
11
-21.1811
21
-83.8133
0
LINE
8
BLACK
6
CONTINUOUS
10
-21.1811
20
-83.8133
11
-21.0858
21
-83.7657
0
LINE
8
BLACK
6
CONTINUOUS
10
-21.0858
20
-83.7657
11
-20.943
21
-83.7657
0
LINE
8
BLACK
6
CONTINUOUS
10
-20.943
20
-83.7657
11
-20.8477
21
-83.8133
0
LINE
8
BLACK
6
CONTINUOUS
10
-20.8477
20
-83.8133
11
-20.8001
21
-83.9086
0
LINE
8
BLACK
6
CONTINUOUS
10
-20.8001
20
-83.9086
11
-20.8001
21
-84.4324
0
LINE
8
BLACK
6
CONTINUOUS
10
-20.8001
20
-83.9086
11
-20.7525
21
-83.8133
0
LINE
8
BLACK
6
CONTINUOUS
10
-20.7525
20
-83.8133
11
-20.6572
21
-83.7657
0
LINE
8
BLACK
6
CONTINUOUS
10
-20.6572
20
-83.7657
11
-20.5144
21
-83.7657
0
LINE
8
BLACK
6
CONTINUOUS
10
-20.5144
20
-83.7657
11
-20.4192
21
-83.8133
0
LINE
8
BLACK
6
CONTINUOUS
10
-20.4192
20
-83.8133
11
-20.3715
21
-83.9086
0
LINE
8
BLACK
6
CONTINUOUS
10
-20.3715
20
-83.9086
11
-20.3715
21
-84.4324
0
LINE
8
BLACK
6
CONTINUOUS
10
-19.8953
20
-84.4324
11
-19.8953
21
-83.7657
0
LINE
8
BLACK
6
CONTINUOUS
10
-19.8953
20
-83.861
11
-19.8477
21
-83.8133
0
LINE
8
BLACK
6
CONTINUOUS
10
-19.8477
20
-83.8133
11
-19.7525
21
-83.7657
0
LINE
8
BLACK
6
CONTINUOUS
10
-19.7525
20
-83.7657
11
-19.6096
21
-83.7657
0
LINE
8
BLACK
6
CONTINUOUS
10
-19.6096
20
-83.7657
11
-19.5144
21
-83.8133
0
LINE
8
BLACK
6
CONTINUOUS
10
-19.5144
20
-83.8133
11
-19.4668
21
-83.9086
0
LINE
8
BLACK
6
CONTINUOUS
10
-19.4668
20
-83.9086
11
-19.4668
21
-84.4324
0
LINE
8
BLACK
6
CONTINUOUS
10
-19.4668
20
-83.9086
11
-19.4192
21
-83.8133
0
LINE
8
BLACK
6
CONTINUOUS
10
-19.4192
20
-83.8133
11
-19.3239
21
-83.7657
0
LINE
8
BLACK
6
CONTINUOUS
10
-19.3239
20
-83.7657
11
-19.1811
21
-83.7657
0
LINE
8
BLACK
6
CONTINUOUS
10
-19.1811
20
-83.7657
11
-19.0858
21
-83.8133
0
LINE
8
BLACK
6
CONTINUOUS
10
-19.0858
20
-83.8133
11
-19.0382
21
-83.9086
0
LINE
8
BLACK
6
CONTINUOUS
10
-19.0382
20
-83.9086
11
-19.0382
21
-84.4324
0
LINE
8
BLACK
6
CONTINUOUS
10
-26.0322
20
-82.78
11
-19.2822
21
-82.78
0
LINE
8
BLACK
6
CONTINUOUS
10
-26.0322
20
-82.78
11
-26.0322
21
-83.3664
0
LINE
8
BLACK
6
CONTINUOUS
10
-19.2822
20
-82.78
11
-19.2822
21
-83.3664
0
LINE
8
BLACK
6
CONTINUOUS
10
-19.2822
20
-82.78
11
-20.4088
21
-83.3664
0
LINE
8
BLACK
6
CONTINUOUS
10
-19.2822
20
-82.78
11
-20.4088
21
-82.1936
0
LINE
8
BLACK
6
CONTINUOUS
10
-26.0322
20
-82.78
11
-24.9057
21
-83.3664
0
LINE
8
BLACK
6
CONTINUOUS
10
-26.0322
20
-82.78
11
-24.9057
21
-82.1936
0
LINE
8
BLACK
6
CONTINUOUS
10
-21.6137
20
-86.8024
11
-22.1852
21
-86.8024
0
LINE
8
BLACK
6
CONTINUOUS
10
-21.8995
20
-86.8024
11
-21.8995
21
-85.8024
0
LINE
8
BLACK
6
CONTINUOUS
10
-21.8995
20
-85.8024
11
-21.9947
21
-85.9452
0
LINE
8
BLACK
6
CONTINUOUS
10
-21.9947
20
-85.9452
11
-22.0899
21
-86.0405
0
LINE
8
BLACK
6
CONTINUOUS
10
-22.0899
20
-86.0405
11
-22.1852
21
-86.0881
0
LINE
8
BLACK
6
CONTINUOUS
10
-21.1852
20
-86.7071
11
-21.1375
21
-86.7548
0
LINE
8
BLACK
6
CONTINUOUS
10
-21.1375
20
-86.7548
11
-21.1852
21
-86.8024
0
LINE
8
BLACK
6
CONTINUOUS
10
-21.1852
20
-86.8024
11
-21.2328
21
-86.7548
0
LINE
8
BLACK
6
CONTINUOUS
10
-21.2328
20
-86.7548
11
-21.1852
21
-86.7071
0
LINE
8
BLACK
6
CONTINUOUS
10
-21.1852
20
-86.7071
11
-21.1852
21
-86.8024
0
LINE
8
BLACK
6
CONTINUOUS
10
-20.2328
20
-85.8024
11
-20.709
21
-85.8024
0
LINE
8
BLACK
6
CONTINUOUS
10
-20.709
20
-85.8024
11
-20.7566
21
-86.2786
0
LINE
8
BLACK
6
CONTINUOUS
10
-20.7566
20
-86.2786
11
-20.709
21
-86.231
0
LINE
8
BLACK
6
CONTINUOUS
10
-20.709
20
-86.231
11
-20.6137
21
-86.1833
0
LINE
8
BLACK
6
CONTINUOUS
10
-20.6137
20
-86.1833
11
-20.3756
21
-86.1833
0
LINE
8
BLACK
6
CONTINUOUS
10
-20.3756
20
-86.1833
11
-20.2804
21
-86.231
0
LINE
8
BLACK
6
CONTINUOUS
10
-20.2804
20
-86.231
11
-20.2328
21
-86.2786
0
LINE
8
BLACK
6
CONTINUOUS
10
-20.2328
20
-86.2786
11
-20.1852
21
-86.3738
0
LINE
8
BLACK
6
CONTINUOUS
10
-20.1852
20
-86.3738
11
-20.1852
21
-86.6119
0
LINE
8
BLACK
6
CONTINUOUS
10
-20.1852
20
-86.6119
11
-20.2328
21
-86.7071
0
LINE
8
BLACK
6
CONTINUOUS
10
-20.2328
20
-86.7071
11
-20.2804
21
-86.7548
0
LINE
8
BLACK
6
CONTINUOUS
10
-20.2804
20
-86.7548
11
-20.3756
21
-86.8024
0
LINE
8
BLACK
6
CONTINUOUS
10
-20.3756
20
-86.8024
11
-20.6137
21
-86.8024
0
LINE
8
BLACK
6
CONTINUOUS
10
-20.6137
20
-86.8024
11
-20.709
21
-86.7548
0
LINE
8
BLACK
6
CONTINUOUS
10
-20.709
20
-86.7548
11
-20.7566
21
-86.7071
0
LINE
8
BLACK
6
CONTINUOUS
10
-19.8042
20
-85.8976
11
-19.7566
21
-85.85
0
LINE
8
BLACK
6
CONTINUOUS
10
-19.7566
20
-85.85
11
-19.6614
21
-85.8024
0
LINE
8
BLACK
6
CONTINUOUS
10
-19.6614
20
-85.8024
11
-19.4233
21
-85.8024
0
LINE
8
BLACK
6
CONTINUOUS
10
-19.4233
20
-85.8024
11
-19.328
21
-85.85
0
LINE
8
BLACK
6
CONTINUOUS
10
-19.328
20
-85.85
11
-19.2804
21
-85.8976
0
LINE
8
BLACK
6
CONTINUOUS
10
-19.2804
20
-85.8976
11
-19.2328
21
-85.9929
0
LINE
8
BLACK
6
CONTINUOUS
10
-19.2328
20
-85.9929
11
-19.2328
21
-86.0881
0
LINE
8
BLACK
6
CONTINUOUS
10
-19.2328
20
-86.0881
11
-19.2804
21
-86.231
0
LINE
8
BLACK
6
CONTINUOUS
10
-19.2804
20
-86.231
11
-19.8518
21
-86.8024
0
LINE
8
BLACK
6
CONTINUOUS
10
-19.8518
20
-86.8024
11
-19.2328
21
-86.8024
0
LINE
8
BLACK
6
CONTINUOUS
10
-18.328
20
-85.8024
11
-18.8042
21
-85.8024
0
LINE
8
BLACK
6
CONTINUOUS
10
-18.8042
20
-85.8024
11
-18.8518
21
-86.2786
0
LINE
8
BLACK
6
CONTINUOUS
10
-18.8518
20
-86.2786
11
-18.8042
21
-86.231
0
LINE
8
BLACK
6
CONTINUOUS
10
-18.8042
20
-86.231
11
-18.709
21
-86.1833
0
LINE
8
BLACK
6
CONTINUOUS
10
-18.709
20
-86.1833
11
-18.4709
21
-86.1833
0
LINE
8
BLACK
6
CONTINUOUS
10
-18.4709
20
-86.1833
11
-18.3756
21
-86.231
0
LINE
8
BLACK
6
CONTINUOUS
10
-18.3756
20
-86.231
11
-18.328
21
-86.2786
0
LINE
8
BLACK
6
CONTINUOUS
10
-18.328
20
-86.2786
11
-18.2804
21
-86.3738
0
LINE
8
BLACK
6
CONTINUOUS
10
-18.2804
20
-86.3738
11
-18.2804
21
-86.6119
0
LINE
8
BLACK
6
CONTINUOUS
10
-18.2804
20
-86.6119
11
-18.328
21
-86.7071
0
LINE
8
BLACK
6
CONTINUOUS
10
-18.328
20
-86.7071
11
-18.3756
21
-86.7548
0
LINE
8
BLACK
6
CONTINUOUS
10
-18.3756
20
-86.7548
11
-18.4709
21
-86.8024
0
LINE
8
BLACK
6
CONTINUOUS
10
-18.4709
20
-86.8024
11
-18.709
21
-86.8024
0
LINE
8
BLACK
6
CONTINUOUS
10
-18.709
20
-86.8024
11
-18.8042
21
-86.7548
0
LINE
8
BLACK
6
CONTINUOUS
10
-18.8042
20
-86.7548
11
-18.8518
21
-86.7071
0
LINE
8
BLACK
6
CONTINUOUS
10
-17.0899
20
-86.8024
11
-17.0899
21
-86.1357
0
LINE
8
BLACK
6
CONTINUOUS
10
-17.0899
20
-86.231
11
-17.0423
21
-86.1833
0
LINE
8
BLACK
6
CONTINUOUS
10
-17.0423
20
-86.1833
11
-16.9471
21
-86.1357
0
LINE
8
BLACK
6
CONTINUOUS
10
-16.9471
20
-86.1357
11
-16.8042
21
-86.1357
0
LINE
8
BLACK
6
CONTINUOUS
10
-16.8042
20
-86.1357
11
-16.709
21
-86.1833
0
LINE
8
BLACK
6
CONTINUOUS
10
-16.709
20
-86.1833
11
-16.6614
21
-86.2786
0
LINE
8
BLACK
6
CONTINUOUS
10
-16.6614
20
-86.2786
11
-16.6614
21
-86.8024
0
LINE
8
BLACK
6
CONTINUOUS
10
-16.6614
20
-86.2786
11
-16.6137
21
-86.1833
0
LINE
8
BLACK
6
CONTINUOUS
10
-16.6137
20
-86.1833
11
-16.5185
21
-86.1357
0
LINE
8
BLACK
6
CONTINUOUS
10
-16.5185
20
-86.1357
11
-16.3756
21
-86.1357
0
LINE
8
BLACK
6
CONTINUOUS
10
-16.3756
20
-86.1357
11
-16.2804
21
-86.1833
0
LINE
8
BLACK
6
CONTINUOUS
10
-16.2804
20
-86.1833
11
-16.2328
21
-86.2786
0
LINE
8
BLACK
6
CONTINUOUS
10
-16.2328
20
-86.2786
11
-16.2328
21
-86.8024
0
LINE
8
BLACK
6
CONTINUOUS
10
-15.7566
20
-86.8024
11
-15.7566
21
-86.1357
0
LINE
8
BLACK
6
CONTINUOUS
10
-15.7566
20
-86.231
11
-15.709
21
-86.1833
0
LINE
8
BLACK
6
CONTINUOUS
10
-15.709
20
-86.1833
11
-15.6137
21
-86.1357
0
LINE
8
BLACK
6
CONTINUOUS
10
-15.6137
20
-86.1357
11
-15.4709
21
-86.1357
0
LINE
8
BLACK
6
CONTINUOUS
10
-15.4709
20
-86.1357
11
-15.3756
21
-86.1833
0
LINE
8
BLACK
6
CONTINUOUS
10
-15.3756
20
-86.1833
11
-15.328
21
-86.2786
0
LINE
8
BLACK
6
CONTINUOUS
10
-15.328
20
-86.2786
11
-15.328
21
-86.8024
0
LINE
8
BLACK
6
CONTINUOUS
10
-15.328
20
-86.2786
11
-15.2804
21
-86.1833
0
LINE
8
BLACK
6
CONTINUOUS
10
-15.2804
20
-86.1833
11
-15.1852
21
-86.1357
0
LINE
8
BLACK
6
CONTINUOUS
10
-15.1852
20
-86.1357
11
-15.0423
21
-86.1357
0
LINE
8
BLACK
6
CONTINUOUS
10
-15.0423
20
-86.1357
11
-14.9471
21
-86.1833
0
LINE
8
BLACK
6
CONTINUOUS
10
-14.9471
20
-86.1833
11
-14.8995
21
-86.2786
0
LINE
8
BLACK
6
CONTINUOUS
10
-14.8995
20
-86.2786
11
-14.8995
21
-86.8024
0
LINE
8
BLACK
6
CONTINUOUS
10
-17.756
20
-87.55
11
-19.281
21
-87.55
0
LINE
8
BLACK
6
CONTINUOUS
10
-17.756
20
-87.55
11
-17.756
21
-86.9636
0
LINE
8
BLACK
6
CONTINUOUS
10
-19.281
20
-87.55
11
-19.281
21
-86.9636
0
LINE
8
BLACK
6
CONTINUOUS
10
-19.281
20
-87.55
11
-18.1545
21
-86.9636
0
LINE
8
BLACK
6
CONTINUOUS
10
-19.281
20
-87.55
11
-18.1545
21
-88.1364
0
LINE
8
BLACK
6
CONTINUOUS
10
-17.756
20
-87.55
11
-18.8825
21
-86.9636
0
LINE
8
BLACK
6
CONTINUOUS
10
-17.756
20
-87.55
11
-18.8825
21
-88.1364
0
LINE
8
BLACK
6
CONTINUOUS
10
-6.08849
20
-86.8024
11
-6.65992
21
-86.8024
0
LINE
8
BLACK
6
CONTINUOUS
10
-6.3742
20
-86.8024
11
-6.3742
21
-85.8024
0
LINE
8
BLACK
6
CONTINUOUS
10
-6.3742
20
-85.8024
11
-6.46944
21
-85.9452
0
LINE
8
BLACK
6
CONTINUOUS
10
-6.46944
20
-85.9452
11
-6.56468
21
-86.0405
0
LINE
8
BLACK
6
CONTINUOUS
10
-6.56468
20
-86.0405
11
-6.65992
21
-86.0881
0
LINE
8
BLACK
6
CONTINUOUS
10
-5.65992
20
-86.7071
11
-5.6123
21
-86.7548
0
LINE
8
BLACK
6
CONTINUOUS
10
-5.6123
20
-86.7548
11
-5.65992
21
-86.8024
0
LINE
8
BLACK
6
CONTINUOUS
10
-5.65992
20
-86.8024
11
-5.70754
21
-86.7548
0
LINE
8
BLACK
6
CONTINUOUS
10
-5.70754
20
-86.7548
11
-5.65992
21
-86.7071
0
LINE
8
BLACK
6
CONTINUOUS
10
-5.65992
20
-86.7071
11
-5.65992
21
-86.8024
0
LINE
8
BLACK
6
CONTINUOUS
10
-4.70754
20
-85.8024
11
-5.18373
21
-85.8024
0
LINE
8
BLACK
6
CONTINUOUS
10
-5.18373
20
-85.8024
11
-5.23135
21
-86.2786
0
LINE
8
BLACK
6
CONTINUOUS
10
-5.23135
20
-86.2786
11
-5.18373
21
-86.231
0
LINE
8
BLACK
6
CONTINUOUS
10
-5.18373
20
-86.231
11
-5.08849
21
-86.1833
0
LINE
8
BLACK
6
CONTINUOUS
10
-5.08849
20
-86.1833
11
-4.85039
21
-86.1833
0
LINE
8
BLACK
6
CONTINUOUS
10
-4.85039
20
-86.1833
11
-4.75515
21
-86.231
0
LINE
8
BLACK
6
CONTINUOUS
10
-4.75515
20
-86.231
11
-4.70754
21
-86.2786
0
LINE
8
BLACK
6
CONTINUOUS
10
-4.70754
20
-86.2786
11
-4.65992
21
-86.3738
0
LINE
8
BLACK
6
CONTINUOUS
10
-4.65992
20
-86.3738
11
-4.65992
21
-86.6119
0
LINE
8
BLACK
6
CONTINUOUS
10
-4.65992
20
-86.6119
11
-4.70754
21
-86.7071
0
LINE
8
BLACK
6
CONTINUOUS
10
-4.70754
20
-86.7071
11
-4.75515
21
-86.7548
0
LINE
8
BLACK
6
CONTINUOUS
10
-4.75515
20
-86.7548
11
-4.85039
21
-86.8024
0
LINE
8
BLACK
6
CONTINUOUS
10
-4.85039
20
-86.8024
11
-5.08849
21
-86.8024
0
LINE
8
BLACK
6
CONTINUOUS
10
-5.08849
20
-86.8024
11
-5.18373
21
-86.7548
0
LINE
8
BLACK
6
CONTINUOUS
10
-5.18373
20
-86.7548
11
-5.23135
21
-86.7071
0
LINE
8
BLACK
6
CONTINUOUS
10
-4.27896
20
-85.8976
11
-4.23135
21
-85.85
0
LINE
8
BLACK
6
CONTINUOUS
10
-4.23135
20
-85.85
11
-4.13611
21
-85.8024
0
LINE
8
BLACK
6
CONTINUOUS
10
-4.13611
20
-85.8024
11
-3.89801
21
-85.8024
0
LINE
8
BLACK
6
CONTINUOUS
10
-3.89801
20
-85.8024
11
-3.80277
21
-85.85
0
LINE
8
BLACK
6
CONTINUOUS
10
-3.80277
20
-85.85
11
-3.75515
21
-85.8976
0
LINE
8
BLACK
6
CONTINUOUS
10
-3.75515
20
-85.8976
11
-3.70754
21
-85.9929
0
LINE
8
BLACK
6
CONTINUOUS
10
-3.70754
20
-85.9929
11
-3.70754
21
-86.0881
0
LINE
8
BLACK
6
CONTINUOUS
10
-3.70754
20
-86.0881
11
-3.75515
21
-86.231
0
LINE
8
BLACK
6
CONTINUOUS
10
-3.75515
20
-86.231
11
-4.32658
21
-86.8024
0
LINE
8
BLACK
6
CONTINUOUS
10
-4.32658
20
-86.8024
11
-3.70754
21
-86.8024
0
LINE
8
BLACK
6
CONTINUOUS
10
-2.80277
20
-85.8024
11
-3.27896
21
-85.8024
0
LINE
8
BLACK
6
CONTINUOUS
10
-3.27896
20
-85.8024
11
-3.32658
21
-86.2786
0
LINE
8
BLACK
6
CONTINUOUS
10
-3.32658
20
-86.2786
11
-3.27896
21
-86.231
0
LINE
8
BLACK
6
CONTINUOUS
10
-3.27896
20
-86.231
11
-3.18373
21
-86.1833
0
LINE
8
BLACK
6
CONTINUOUS
10
-3.18373
20
-86.1833
11
-2.94563
21
-86.1833
0
LINE
8
BLACK
6
CONTINUOUS
10
-2.94563
20
-86.1833
11
-2.85039
21
-86.231
0
LINE
8
BLACK
6
CONTINUOUS
10
-2.85039
20
-86.231
11
-2.80277
21
-86.2786
0
LINE
8
BLACK
6
CONTINUOUS
10
-2.80277
20
-86.2786
11
-2.75515
21
-86.3738
0
LINE
8
BLACK
6
CONTINUOUS
10
-2.75515
20
-86.3738
11
-2.75515
21
-86.6119
0
LINE
8
BLACK
6
CONTINUOUS
10
-2.75515
20
-86.6119
11
-2.80277
21
-86.7071
0
LINE
8
BLACK
6
CONTINUOUS
10
-2.80277
20
-86.7071
11
-2.85039
21
-86.7548
0
LINE
8
BLACK
6
CONTINUOUS
10
-2.85039
20
-86.7548
11
-2.94563
21
-86.8024
0
LINE
8
BLACK
6
CONTINUOUS
10
-2.94563
20
-86.8024
11
-3.18373
21
-86.8024
0
LINE
8
BLACK
6
CONTINUOUS
10
-3.18373
20
-86.8024
11
-3.27896
21
-86.7548
0
LINE
8
BLACK
6
CONTINUOUS
10
-3.27896
20
-86.7548
11
-3.32658
21
-86.7071
0
LINE
8
BLACK
6
CONTINUOUS
10
-1.56468
20
-86.8024
11
-1.56468
21
-86.1357
0
LINE
8
BLACK
6
CONTINUOUS
10
-1.56468
20
-86.231
11
-1.51706
21
-86.1833
0
LINE
8
BLACK
6
CONTINUOUS
10
-1.51706
20
-86.1833
11
-1.42182
21
-86.1357
0
LINE
8
BLACK
6
CONTINUOUS
10
-1.42182
20
-86.1357
11
-1.27896
21
-86.1357
0
LINE
8
BLACK
6
CONTINUOUS
10
-1.27896
20
-86.1357
11
-1.18373
21
-86.1833
0
LINE
8
BLACK
6
CONTINUOUS
10
-1.18373
20
-86.1833
11
-1.13611
21
-86.2786
0
LINE
8
BLACK
6
CONTINUOUS
10
-1.13611
20
-86.2786
11
-1.13611
21
-86.8024
0
LINE
8
BLACK
6
CONTINUOUS
10
-1.13611
20
-86.2786
11
-1.08849
21
-86.1833
0
LINE
8
BLACK
6
CONTINUOUS
10
-1.08849
20
-86.1833
11
-0.993249
21
-86.1357
0
LINE
8
BLACK
6
CONTINUOUS
10
-0.993249
20
-86.1357
11
-0.850392
21
-86.1357
0
LINE
8
BLACK
6
CONTINUOUS
10
-0.850392
20
-86.1357
11
-0.755154
21
-86.1833
0
LINE
8
BLACK
6
CONTINUOUS
10
-0.755154
20
-86.1833
11
-0.707535
21
-86.2786
0
LINE
8
BLACK
6
CONTINUOUS
10
-0.707535
20
-86.2786
11
-0.707535
21
-86.8024
0
LINE
8
BLACK
6
CONTINUOUS
10
-0.231345
20
-86.8024
11
-0.231345
21
-86.1357
0
LINE
8
BLACK
6
CONTINUOUS
10
-0.231345
20
-86.231
11
-0.183726
21
-86.1833
0
LINE
8
BLACK
6
CONTINUOUS
10
-0.183726
20
-86.1833
11
-0.088488
21
-86.1357
0
LINE
8
BLACK
6
CONTINUOUS
10
-0.088488
20
-86.1357
11
0.054369
21
-86.1357
0
LINE
8
BLACK
6
CONTINUOUS
10
0.054369
20
-86.1357
11
0.149607
21
-86.1833
0
LINE
8
BLACK
6
CONTINUOUS
10
0.149607
20
-86.1833
11
0.197226
21
-86.2786
0
LINE
8
BLACK
6
CONTINUOUS
10
0.197226
20
-86.2786
11
0.197226
21
-86.8024
0
LINE
8
BLACK
6
CONTINUOUS
10
0.197226
20
-86.2786
11
0.244845
21
-86.1833
0
LINE
8
BLACK
6
CONTINUOUS
10
0.244845
20
-86.1833
11
0.340083
21
-86.1357
0
LINE
8
BLACK
6
CONTINUOUS
10
0.340083
20
-86.1357
11
0.48294
21
-86.1357
0
LINE
8
BLACK
6
CONTINUOUS
10
0.48294
20
-86.1357
11
0.578178
21
-86.1833
0
LINE
8
BLACK
6
CONTINUOUS
10
0.578178
20
-86.1833
11
0.625797
21
-86.2786
0
LINE
8
BLACK
6
CONTINUOUS
10
0.625797
20
-86.2786
11
0.625797
21
-86.8024
0
LINE
8
BLACK
6
CONTINUOUS
10
-2.23075
20
-87.55
11
-3.75575
21
-87.55
0
LINE
8
BLACK
6
CONTINUOUS
10
-2.23075
20
-87.55
11
-2.23075
21
-86.9636
0
LINE
8
BLACK
6
CONTINUOUS
10
-3.75575
20
-87.55
11
-3.75575
21
-86.9636
0
LINE
8
BLACK
6
CONTINUOUS
10
-3.75575
20
-87.55
11
-2.62925
21
-86.9636
0
LINE
8
BLACK
6
CONTINUOUS
10
-3.75575
20
-87.55
11
-2.62925
21
-88.1364
0
LINE
8
BLACK
6
CONTINUOUS
10
-2.23075
20
-87.55
11
-3.35725
21
-86.9636
0
LINE
8
BLACK
6
CONTINUOUS
10
-2.23075
20
-87.55
11
-3.35725
21
-88.1364
0
LINE
8
BLACK
6
CONTINUOUS
10
-45.2839
20
13.5976
11
-45.8554
21
13.5976
0
LINE
8
BLACK
6
CONTINUOUS
10
-45.5696
20
13.5976
11
-45.5696
21
14.5976
0
LINE
8
BLACK
6
CONTINUOUS
10
-45.5696
20
14.5976
11
-45.6649
21
14.4548
0
LINE
8
BLACK
6
CONTINUOUS
10
-45.6649
20
14.4548
11
-45.7601
21
14.3595
0
LINE
8
BLACK
6
CONTINUOUS
10
-45.7601
20
14.3595
11
-45.8554
21
14.3119
0
LINE
8
BLACK
6
CONTINUOUS
10
-44.4268
20
14.2643
11
-44.4268
21
13.5976
0
LINE
8
BLACK
6
CONTINUOUS
10
-44.6649
20
14.6452
11
-44.903
21
13.931
0
LINE
8
BLACK
6
CONTINUOUS
10
-44.903
20
13.931
11
-44.2839
21
13.931
0
LINE
8
BLACK
6
CONTINUOUS
10
-43.903
20
13.6929
11
-43.8554
21
13.6452
0
LINE
8
BLACK
6
CONTINUOUS
10
-43.8554
20
13.6452
11
-43.903
21
13.5976
0
LINE
8
BLACK
6
CONTINUOUS
10
-43.903
20
13.5976
11
-43.9506
21
13.6452
0
LINE
8
BLACK
6
CONTINUOUS
10
-43.9506
20
13.6452
11
-43.903
21
13.6929
0
LINE
8
BLACK
6
CONTINUOUS
10
-43.903
20
13.6929
11
-43.903
21
13.5976
0
LINE
8
BLACK
6
CONTINUOUS
10
-43.2363
20
14.5976
11
-43.1411
21
14.5976
0
LINE
8
BLACK
6
CONTINUOUS
10
-43.1411
20
14.5976
11
-43.0458
21
14.55
0
LINE
8
BLACK
6
CONTINUOUS
10
-43.0458
20
14.55
11
-42.9982
21
14.5024
0
LINE
8
BLACK
6
CONTINUOUS
10
-42.9982
20
14.5024
11
-42.9506
21
14.4071
0
LINE
8
BLACK
6
CONTINUOUS
10
-42.9506
20
14.4071
11
-42.903
21
14.2167
0
LINE
8
BLACK
6
CONTINUOUS
10
-42.903
20
14.2167
11
-42.903
21
13.9786
0
LINE
8
BLACK
6
CONTINUOUS
10
-42.903
20
13.9786
11
-42.9506
21
13.7881
0
LINE
8
BLACK
6
CONTINUOUS
10
-42.9506
20
13.7881
11
-42.9982
21
13.6929
0
LINE
8
BLACK
6
CONTINUOUS
10
-42.9982
20
13.6929
11
-43.0458
21
13.6452
0
LINE
8
BLACK
6
CONTINUOUS
10
-43.0458
20
13.6452
11
-43.1411
21
13.5976
0
LINE
8
BLACK
6
CONTINUOUS
10
-43.1411
20
13.5976
11
-43.2363
21
13.5976
0
LINE
8
BLACK
6
CONTINUOUS
10
-43.2363
20
13.5976
11
-43.3315
21
13.6452
0
LINE
8
BLACK
6
CONTINUOUS
10
-43.3315
20
13.6452
11
-43.3792
21
13.6929
0
LINE
8
BLACK
6
CONTINUOUS
10
-43.3792
20
13.6929
11
-43.4268
21
13.7881
0
LINE
8
BLACK
6
CONTINUOUS
10
-43.4268
20
13.7881
11
-43.4744
21
13.9786
0
LINE
8
BLACK
6
CONTINUOUS
10
-43.4744
20
13.9786
11
-43.4744
21
14.2167
0
LINE
8
BLACK
6
CONTINUOUS
10
-43.4744
20
14.2167
11
-43.4268
21
14.4071
0
LINE
8
BLACK
6
CONTINUOUS
10
-43.4268
20
14.4071
11
-43.3792
21
14.5024
0
LINE
8
BLACK
6
CONTINUOUS
10
-43.3792
20
14.5024
11
-43.3315
21
14.55
0
LINE
8
BLACK
6
CONTINUOUS
10
-43.3315
20
14.55
11
-43.2363
21
14.5976
0
LINE
8
BLACK
6
CONTINUOUS
10
-42.2839
20
14.5976
11
-42.1887
21
14.5976
0
LINE
8
BLACK
6
CONTINUOUS
10
-42.1887
20
14.5976
11
-42.0935
21
14.55
0
LINE
8
BLACK
6
CONTINUOUS
10
-42.0935
20
14.55
11
-42.0458
21
14.5024
0
LINE
8
BLACK
6
CONTINUOUS
10
-42.0458
20
14.5024
11
-41.9982
21
14.4071
0
LINE
8
BLACK
6
CONTINUOUS
10
-41.9982
20
14.4071
11
-41.9506
21
14.2167
0
LINE
8
BLACK
6
CONTINUOUS
10
-41.9506
20
14.2167
11
-41.9506
21
13.9786
0
LINE
8
BLACK
6
CONTINUOUS
10
-41.9506
20
13.9786
11
-41.9982
21
13.7881
0
LINE
8
BLACK
6
CONTINUOUS
10
-41.9982
20
13.7881
11
-42.0458
21
13.6929
0
LINE
8
BLACK
6
CONTINUOUS
10
-42.0458
20
13.6929
11
-42.0935
21
13.6452
0
LINE
8
BLACK
6
CONTINUOUS
10
-42.0935
20
13.6452
11
-42.1887
21
13.5976
0
LINE
8
BLACK
6
CONTINUOUS
10
-42.1887
20
13.5976
11
-42.2839
21
13.5976
0
LINE
8
BLACK
6
CONTINUOUS
10
-42.2839
20
13.5976
11
-42.3792
21
13.6452
0
LINE
8
BLACK
6
CONTINUOUS
10
-42.3792
20
13.6452
11
-42.4268
21
13.6929
0
LINE
8
BLACK
6
CONTINUOUS
10
-42.4268
20
13.6929
11
-42.4744
21
13.7881
0
LINE
8
BLACK
6
CONTINUOUS
10
-42.4744
20
13.7881
11
-42.522
21
13.9786
0
LINE
8
BLACK
6
CONTINUOUS
10
-42.522
20
13.9786
11
-42.522
21
14.2167
0
LINE
8
BLACK
6
CONTINUOUS
10
-42.522
20
14.2167
11
-42.4744
21
14.4071
0
LINE
8
BLACK
6
CONTINUOUS
10
-42.4744
20
14.4071
11
-42.4268
21
14.5024
0
LINE
8
BLACK
6
CONTINUOUS
10
-42.4268
20
14.5024
11
-42.3792
21
14.55
0
LINE
8
BLACK
6
CONTINUOUS
10
-42.3792
20
14.55
11
-42.2839
21
14.5976
0
LINE
8
BLACK
6
CONTINUOUS
10
-41.3315
20
14.5976
11
-41.2363
21
14.5976
0
LINE
8
BLACK
6
CONTINUOUS
10
-41.2363
20
14.5976
11
-41.1411
21
14.55
0
LINE
8
BLACK
6
CONTINUOUS
10
-41.1411
20
14.55
11
-41.0935
21
14.5024
0
LINE
8
BLACK
6
CONTINUOUS
10
-41.0935
20
14.5024
11
-41.0458
21
14.4071
0
LINE
8
BLACK
6
CONTINUOUS
10
-41.0458
20
14.4071
11
-40.9982
21
14.2167
0
LINE
8
BLACK
6
CONTINUOUS
10
-40.9982
20
14.2167
11
-40.9982
21
13.9786
0
LINE
8
BLACK
6
CONTINUOUS
10
-40.9982
20
13.9786
11
-41.0458
21
13.7881
0
LINE
8
BLACK
6
CONTINUOUS
10
-41.0458
20
13.7881
11
-41.0935
21
13.6929
0
LINE
8
BLACK
6
CONTINUOUS
10
-41.0935
20
13.6929
11
-41.1411
21
13.6452
0
LINE
8
BLACK
6
CONTINUOUS
10
-41.1411
20
13.6452
11
-41.2363
21
13.5976
0
LINE
8
BLACK
6
CONTINUOUS
10
-41.2363
20
13.5976
11
-41.3315
21
13.5976
0
LINE
8
BLACK
6
CONTINUOUS
10
-41.3315
20
13.5976
11
-41.4268
21
13.6452
0
LINE
8
BLACK
6
CONTINUOUS
10
-41.4268
20
13.6452
11
-41.4744
21
13.6929
0
LINE
8
BLACK
6
CONTINUOUS
10
-41.4744
20
13.6929
11
-41.522
21
13.7881
0
LINE
8
BLACK
6
CONTINUOUS
10
-41.522
20
13.7881
11
-41.5696
21
13.9786
0
LINE
8
BLACK
6
CONTINUOUS
10
-41.5696
20
13.9786
11
-41.5696
21
14.2167
0
LINE
8
BLACK
6
CONTINUOUS
10
-41.5696
20
14.2167
11
-41.522
21
14.4071
0
LINE
8
BLACK
6
CONTINUOUS
10
-41.522
20
14.4071
11
-41.4744
21
14.5024
0
LINE
8
BLACK
6
CONTINUOUS
10
-41.4744
20
14.5024
11
-41.4268
21
14.55
0
LINE
8
BLACK
6
CONTINUOUS
10
-41.4268
20
14.55
11
-41.3315
21
14.5976
0
LINE
8
BLACK
6
CONTINUOUS
10
-39.8077
20
13.5976
11
-39.8077
21
14.2643
0
LINE
8
BLACK
6
CONTINUOUS
10
-39.8077
20
14.169
11
-39.7601
21
14.2167
0
LINE
8
BLACK
6
CONTINUOUS
10
-39.7601
20
14.2167
11
-39.6649
21
14.2643
0
LINE
8
BLACK
6
CONTINUOUS
10
-39.6649
20
14.2643
11
-39.522
21
14.2643
0
LINE
8
BLACK
6
CONTINUOUS
10
-39.522
20
14.2643
11
-39.4268
21
14.2167
0
LINE
8
BLACK
6
CONTINUOUS
10
-39.4268
20
14.2167
11
-39.3792
21
14.1214
0
LINE
8
BLACK
6
CONTINUOUS
10
-39.3792
20
14.1214
11
-39.3792
21
13.5976
0
LINE
8
BLACK
6
CONTINUOUS
10
-39.3792
20
14.1214
11
-39.3315
21
14.2167
0
LINE
8
BLACK
6
CONTINUOUS
10
-39.3315
20
14.2167
11
-39.2363
21
14.2643
0
LINE
8
BLACK
6
CONTINUOUS
10
-39.2363
20
14.2643
11
-39.0935
21
14.2643
0
LINE
8
BLACK
6
CONTINUOUS
10
-39.0935
20
14.2643
11
-38.9982
21
14.2167
0
LINE
8
BLACK
6
CONTINUOUS
10
-38.9982
20
14.2167
11
-38.9506
21
14.1214
0
LINE
8
BLACK
6
CONTINUOUS
10
-38.9506
20
14.1214
11
-38.9506
21
13.5976
0
LINE
8
BLACK
6
CONTINUOUS
10
-38.4744
20
13.5976
11
-38.4744
21
14.2643
0
LINE
8
BLACK
6
CONTINUOUS
10
-38.4744
20
14.169
11
-38.4268
21
14.2167
0
LINE
8
BLACK
6
CONTINUOUS
10
-38.4268
20
14.2167
11
-38.3315
21
14.2643
0
LINE
8
BLACK
6
CONTINUOUS
10
-38.3315
20
14.2643
11
-38.1887
21
14.2643
0
LINE
8
BLACK
6
CONTINUOUS
10
-38.1887
20
14.2643
11
-38.0935
21
14.2167
0
LINE
8
BLACK
6
CONTINUOUS
10
-38.0935
20
14.2167
11
-38.0458
21
14.1214
0
LINE
8
BLACK
6
CONTINUOUS
10
-38.0458
20
14.1214
11
-38.0458
21
13.5976
0
LINE
8
BLACK
6
CONTINUOUS
10
-38.0458
20
14.1214
11
-37.9982
21
14.2167
0
LINE
8
BLACK
6
CONTINUOUS
10
-37.9982
20
14.2167
11
-37.903
21
14.2643
0
LINE
8
BLACK
6
CONTINUOUS
10
-37.903
20
14.2643
11
-37.7601
21
14.2643
0
LINE
8
BLACK
6
CONTINUOUS
10
-37.7601
20
14.2643
11
-37.6649
21
14.2167
0
LINE
8
BLACK
6
CONTINUOUS
10
-37.6649
20
14.2167
11
-37.6173
21
14.1214
0
LINE
8
BLACK
6
CONTINUOUS
10
-37.6173
20
14.1214
11
-37.6173
21
13.5976
0
LINE
8
BLACK
6
CONTINUOUS
10
-48.7125
20
12.75
11
-34.7125
21
12.75
0
LINE
8
BLACK
6
CONTINUOUS
10
-48.7125
20
11.95
11
-48.7125
21
13.3364
0
LINE
8
BLACK
6
CONTINUOUS
10
-34.7125
20
11.95
11
-34.7125
21
13.3364
0
LINE
8
BLACK
6
CONTINUOUS
10
-34.7125
20
12.75
11
-35.839
21
12.1636
0
LINE
8
BLACK
6
CONTINUOUS
10
-34.7125
20
12.75
11
-35.839
21
13.3364
0
LINE
8
BLACK
6
CONTINUOUS
10
-48.7125
20
12.75
11
-47.586
21
12.1636
0
LINE
8
BLACK
6
CONTINUOUS
10
-48.7125
20
12.75
11
-47.586
21
13.3364
0
LINE
8
BLACK
6
CONTINUOUS
10
-60.9624
20
3.52143
11
-60.9624
21
4.09286
0
LINE
8
BLACK
6
CONTINUOUS
10
-60.9624
20
3.80714
11
-59.9624
21
3.80714
0
LINE
8
BLACK
6
CONTINUOUS
10
-59.9624
20
3.80714
11
-60.1052
21
3.90238
0
LINE
8
BLACK
6
CONTINUOUS
10
-60.1052
20
3.90238
11
-60.2005
21
3.99762
0
LINE
8
BLACK
6
CONTINUOUS
10
-60.2005
20
3.99762
11
-60.2481
21
4.09286
0
LINE
8
BLACK
6
CONTINUOUS
10
-60.2957
20
2.66429
11
-60.9624
21
2.66429
0
LINE
8
BLACK
6
CONTINUOUS
10
-59.9148
20
2.90238
11
-60.629
21
3.14048
0
LINE
8
BLACK
6
CONTINUOUS
10
-60.629
20
3.14048
11
-60.629
21
2.52143
0
LINE
8
BLACK
6
CONTINUOUS
10
-60.8671
20
2.14048
11
-60.9148
21
2.09286
0
LINE
8
BLACK
6
CONTINUOUS
10
-60.9148
20
2.09286
11
-60.9624
21
2.14048
0
LINE
8
BLACK
6
CONTINUOUS
10
-60.9624
20
2.14048
11
-60.9148
21
2.18809
0
LINE
8
BLACK
6
CONTINUOUS
10
-60.9148
20
2.18809
11
-60.8671
21
2.14048
0
LINE
8
BLACK
6
CONTINUOUS
10
-60.8671
20
2.14048
11
-60.9624
21
2.14048
0
LINE
8
BLACK
6
CONTINUOUS
10
-59.9624
20
1.47381
11
-59.9624
21
1.37857
0
LINE
8
BLACK
6
CONTINUOUS
10
-59.9624
20
1.37857
11
-60.01
21
1.28333
0
LINE
8
BLACK
6
CONTINUOUS
10
-60.01
20
1.28333
11
-60.0576
21
1.23571
0
LINE
8
BLACK
6
CONTINUOUS
10
-60.0576
20
1.23571
11
-60.1529
21
1.18809
0
LINE
8
BLACK
6
CONTINUOUS
10
-60.1529
20
1.18809
11
-60.3433
21
1.14048
0
LINE
8
BLACK
6
CONTINUOUS
10
-60.3433
20
1.14048
11
-60.5814
21
1.14048
0
LINE
8
BLACK
6
CONTINUOUS
10
-60.5814
20
1.14048
11
-60.7719
21
1.18809
0
LINE
8
BLACK
6
CONTINUOUS
10
-60.7719
20
1.18809
11
-60.8671
21
1.23571
0
LINE
8
BLACK
6
CONTINUOUS
10
-60.8671
20
1.23571
11
-60.9148
21
1.28333
0
LINE
8
BLACK
6
CONTINUOUS
10
-60.9148
20
1.28333
11
-60.9624
21
1.37857
0
LINE
8
BLACK
6
CONTINUOUS
10
-60.9624
20
1.37857
11
-60.9624
21
1.47381
0
LINE
8
BLACK
6
CONTINUOUS
10
-60.9624
20
1.47381
11
-60.9148
21
1.56905
0
LINE
8
BLACK
6
CONTINUOUS
10
-60.9148
20
1.56905
11
-60.8671
21
1.61667
0
LINE
8
BLACK
6
CONTINUOUS
10
-60.8671
20
1.61667
11
-60.7719
21
1.66429
0
LINE
8
BLACK
6
CONTINUOUS
10
-60.7719
20
1.66429
11
-60.5814
21
1.7119
0
LINE
8
BLACK
6
CONTINUOUS
10
-60.5814
20
1.7119
11
-60.3433
21
1.7119
0
LINE
8
BLACK
6
CONTINUOUS
10
-60.3433
20
1.7119
11
-60.1529
21
1.66429
0
LINE
8
BLACK
6
CONTINUOUS
10
-60.1529
20
1.66429
11
-60.0576
21
1.61667
0
LINE
8
BLACK
6
CONTINUOUS
10
-60.0576
20
1.61667
11
-60.01
21
1.56905
0
LINE
8
BLACK
6
CONTINUOUS
10
-60.01
20
1.56905
11
-59.9624
21
1.47381
0
LINE
8
BLACK
6
CONTINUOUS
10
-59.9624
20
0.521428
11
-59.9624
21
0.42619
0
LINE
8
BLACK
6
CONTINUOUS
10
-59.9624
20
0.42619
11
-60.01
21
0.330952
0
LINE
8
BLACK
6
CONTINUOUS
10
-60.01
20
0.330952
11
-60.0576
21
0.283333
0
LINE
8
BLACK
6
CONTINUOUS
10
-60.0576
20
0.283333
11
-60.1529
21
0.235714
0
LINE
8
BLACK
6
CONTINUOUS
10
-60.1529
20
0.235714
11
-60.3433
21
0.188095
0
LINE
8
BLACK
6
CONTINUOUS
10
-60.3433
20
0.188095
11
-60.5814
21
0.188095
0
LINE
8
BLACK
6
CONTINUOUS
10
-60.5814
20
0.188095
11
-60.7719
21
0.235714
0
LINE
8
BLACK
6
CONTINUOUS
10
-60.7719
20
0.235714
11
-60.8671
21
0.283333
0
LINE
8
BLACK
6
CONTINUOUS
10
-60.8671
20
0.283333
11
-60.9148
21
0.330952
0
LINE
8
BLACK
6
CONTINUOUS
10
-60.9148
20
0.330952
11
-60.9624
21
0.42619
0
LINE
8
BLACK
6
CONTINUOUS
10
-60.9624
20
0.42619
11
-60.9624
21
0.521428
0
LINE
8
BLACK
6
CONTINUOUS
10
-60.9624
20
0.521428
11
-60.9148
21
0.616666
0
LINE
8
BLACK
6
CONTINUOUS
10
-60.9148
20
0.616666
11
-60.8671
21
0.664285
0
LINE
8
BLACK
6
CONTINUOUS
10
-60.8671
20
0.664285
11
-60.7719
21
0.711904
0
LINE
8
BLACK
6
CONTINUOUS
10
-60.7719
20
0.711904
11
-60.5814
21
0.759523
0
LINE
8
BLACK
6
CONTINUOUS
10
-60.5814
20
0.759523
11
-60.3433
21
0.759523
0
LINE
8
BLACK
6
CONTINUOUS
10
-60.3433
20
0.759523
11
-60.1529
21
0.711904
0
LINE
8
BLACK
6
CONTINUOUS
10
-60.1529
20
0.711904
11
-60.0576
21
0.664285
0
LINE
8
BLACK
6
CONTINUOUS
10
-60.0576
20
0.664285
11
-60.01
21
0.616666
0
LINE
8
BLACK
6
CONTINUOUS
10
-60.01
20
0.616666
11
-59.9624
21
0.521428
0
LINE
8
BLACK
6
CONTINUOUS
10
-59.9624
20
-0.430952
11
-59.9624
21
-0.52619
0
LINE
8
BLACK
6
CONTINUOUS
10
-59.9624
20
-0.52619
11
-60.01
21
-0.621428
0
LINE
8
BLACK
6
CONTINUOUS
10
-60.01
20
-0.621428
11
-60.0576
21
-0.669047
0
LINE
8
BLACK
6
CONTINUOUS
10
-60.0576
20
-0.669047
11
-60.1529
21
-0.716666
0
LINE
8
BLACK
6
CONTINUOUS
10
-60.1529
20
-0.716666
11
-60.3433
21
-0.764285
0
LINE
8
BLACK
6
CONTINUOUS
10
-60.3433
20
-0.764285
11
-60.5814
21
-0.764285
0
LINE
8
BLACK
6
CONTINUOUS
10
-60.5814
20
-0.764285
11
-60.7719
21
-0.716666
0
LINE
8
BLACK
6
CONTINUOUS
10
-60.7719
20
-0.716666
11
-60.8671
21
-0.669047
0
LINE
8
BLACK
6
CONTINUOUS
10
-60.8671
20
-0.669047
11
-60.9148
21
-0.621428
0
LINE
8
BLACK
6
CONTINUOUS
10
-60.9148
20
-0.621428
11
-60.9624
21
-0.52619
0
LINE
8
BLACK
6
CONTINUOUS
10
-60.9624
20
-0.52619
11
-60.9624
21
-0.430952
0
LINE
8
BLACK
6
CONTINUOUS
10
-60.9624
20
-0.430952
11
-60.9148
21
-0.335714
0
LINE
8
BLACK
6
CONTINUOUS
10
-60.9148
20
-0.335714
11
-60.8671
21
-0.288095
0
LINE
8
BLACK
6
CONTINUOUS
10
-60.8671
20
-0.288095
11
-60.7719
21
-0.240476
0
LINE
8
BLACK
6
CONTINUOUS
10
-60.7719
20
-0.240476
11
-60.5814
21
-0.192857
0
LINE
8
BLACK
6
CONTINUOUS
10
-60.5814
20
-0.192857
11
-60.3433
21
-0.192857
0
LINE
8
BLACK
6
CONTINUOUS
10
-60.3433
20
-0.192857
11
-60.1529
21
-0.240476
0
LINE
8
BLACK
6
CONTINUOUS
10
-60.1529
20
-0.240476
11
-60.0576
21
-0.288095
0
LINE
8
BLACK
6
CONTINUOUS
10
-60.0576
20
-0.288095
11
-60.01
21
-0.335714
0
LINE
8
BLACK
6
CONTINUOUS
10
-60.01
20
-0.335714
11
-59.9624
21
-0.430952
0
LINE
8
BLACK
6
CONTINUOUS
10
-60.9624
20
-1.95476
11
-60.2957
21
-1.95476
0
LINE
8
BLACK
6
CONTINUOUS
10
-60.391
20
-1.95476
11
-60.3433
21
-2.00238
0
LINE
8
BLACK
6
CONTINUOUS
10
-60.3433
20
-2.00238
11
-60.2957
21
-2.09762
0
LINE
8
BLACK
6
CONTINUOUS
10
-60.2957
20
-2.09762
11
-60.2957
21
-2.24048
0
LINE
8
BLACK
6
CONTINUOUS
10
-60.2957
20
-2.24048
11
-60.3433
21
-2.33571
0
LINE
8
BLACK
6
CONTINUOUS
10
-60.3433
20
-2.33571
11
-60.4386
21
-2.38333
0
LINE
8
BLACK
6
CONTINUOUS
10
-60.4386
20
-2.38333
11
-60.9624
21
-2.38333
0
LINE
8
BLACK
6
CONTINUOUS
10
-60.4386
20
-2.38333
11
-60.3433
21
-2.43095
0
LINE
8
BLACK
6
CONTINUOUS
10
-60.3433
20
-2.43095
11
-60.2957
21
-2.52619
0
LINE
8
BLACK
6
CONTINUOUS
10
-60.2957
20
-2.52619
11
-60.2957
21
-2.66905
0
LINE
8
BLACK
6
CONTINUOUS
10
-60.2957
20
-2.66905
11
-60.3433
21
-2.76428
0
LINE
8
BLACK
6
CONTINUOUS
10
-60.3433
20
-2.76428
11
-60.4386
21
-2.8119
0
LINE
8
BLACK
6
CONTINUOUS
10
-60.4386
20
-2.8119
11
-60.9624
21
-2.8119
0
LINE
8
BLACK
6
CONTINUOUS
10
-60.9624
20
-3.28809
11
-60.2957
21
-3.28809
0
LINE
8
BLACK
6
CONTINUOUS
10
-60.391
20
-3.28809
11
-60.3433
21
-3.33571
0
LINE
8
BLACK
6
CONTINUOUS
10
-60.3433
20
-3.33571
11
-60.2957
21
-3.43095
0
LINE
8
BLACK
6
CONTINUOUS
10
-60.2957
20
-3.43095
11
-60.2957
21
-3.57381
0
LINE
8
BLACK
6
CONTINUOUS
10
-60.2957
20
-3.57381
11
-60.3433
21
-3.66905
0
LINE
8
BLACK
6
CONTINUOUS
10
-60.3433
20
-3.66905
11
-60.4386
21
-3.71667
0
LINE
8
BLACK
6
CONTINUOUS
10
-60.4386
20
-3.71667
11
-60.9624
21
-3.71667
0
LINE
8
BLACK
6
CONTINUOUS
10
-60.4386
20
-3.71667
11
-60.3433
21
-3.76428
0
LINE
8
BLACK
6
CONTINUOUS
10
-60.3433
20
-3.76428
11
-60.2957
21
-3.85952
0
LINE
8
BLACK
6
CONTINUOUS
10
-60.2957
20
-3.85952
11
-60.2957
21
-4.00238
0
LINE
8
BLACK
6
CONTINUOUS
10
-60.2957
20
-4.00238
11
-60.3433
21
-4.09762
0
LINE
8
BLACK
6
CONTINUOUS
10
-60.3433
20
-4.09762
11
-60.4386
21
-4.14524
0
LINE
8
BLACK
6
CONTINUOUS
10
-60.4386
20
-4.14524
11
-60.9624
21
-4.14524
0
LINE
8
BLACK
6
CONTINUOUS
10
-59.21
20
6.95
11
-59.21
21
-7.05
0
LINE
8
BLACK
6
CONTINUOUS
10
-58.7125
20
6.95
11
-59.7964
21
6.95
0
LINE
8
BLACK
6
CONTINUOUS
10
-58.7125
20
-7.05
11
-59.7964
21
-7.05
0
LINE
8
BLACK
6
CONTINUOUS
10
-59.21
20
-7.05
11
-59.7964
21
-5.9235
0
LINE
8
BLACK
6
CONTINUOUS
10
-59.21
20
-7.05
11
-58.6236
21
-5.9235
0
LINE
8
BLACK
6
CONTINUOUS
10
-59.21
20
6.95
11
-59.7964
21
5.8235
0
LINE
8
BLACK
6
CONTINUOUS
10
-59.21
20
6.95
11
-58.6236
21
5.8235
0
LINE
8
BLACK
6
CONTINUOUS
10
-57.799
20
-112.579
11
-57.8467
21
-112.674
0
LINE
8
BLACK
6
CONTINUOUS
10
-57.8467
20
-112.674
11
-57.8943
21
-112.722
0
LINE
8
BLACK
6
CONTINUOUS
10
-57.8943
20
-112.722
11
-57.9895
21
-112.769
0
LINE
8
BLACK
6
CONTINUOUS
10
-57.9895
20
-112.769
11
-58.0371
21
-112.769
0
LINE
8
BLACK
6
CONTINUOUS
10
-58.0371
20
-112.769
11
-58.1324
21
-112.722
0
LINE
8
BLACK
6
CONTINUOUS
10
-58.1324
20
-112.722
11
-58.18
21
-112.674
0
LINE
8
BLACK
6
CONTINUOUS
10
-58.18
20
-112.674
11
-58.2276
21
-112.579
0
LINE
8
BLACK
6
CONTINUOUS
10
-58.2276
20
-112.579
11
-58.2276
21
-112.388
0
LINE
8
BLACK
6
CONTINUOUS
10
-58.2276
20
-112.388
11
-58.18
21
-112.293
0
LINE
8
BLACK
6
CONTINUOUS
10
-58.18
20
-112.293
11
-58.1324
21
-112.245
0
LINE
8
BLACK
6
CONTINUOUS
10
-58.1324
20
-112.245
11
-58.0371
21
-112.198
0
LINE
8
BLACK
6
CONTINUOUS
10
-58.0371
20
-112.198
11
-57.9895
21
-112.198
0
LINE
8
BLACK
6
CONTINUOUS
10
-57.9895
20
-112.198
11
-57.8943
21
-112.245
0
LINE
8
BLACK
6
CONTINUOUS
10
-57.8943
20
-112.245
11
-57.8467
21
-112.293
0
LINE
8
BLACK
6
CONTINUOUS
10
-57.8467
20
-112.293
11
-57.799
21
-112.388
0
LINE
8
BLACK
6
CONTINUOUS
10
-57.799
20
-112.388
11
-57.799
21
-112.579
0
LINE
8
BLACK
6
CONTINUOUS
10
-57.799
20
-112.579
11
-57.7514
21
-112.674
0
LINE
8
BLACK
6
CONTINUOUS
10
-57.7514
20
-112.674
11
-57.7038
21
-112.722
0
LINE
8
BLACK
6
CONTINUOUS
10
-57.7038
20
-112.722
11
-57.6086
21
-112.769
0
LINE
8
BLACK
6
CONTINUOUS
10
-57.6086
20
-112.769
11
-57.4181
21
-112.769
0
LINE
8
BLACK
6
CONTINUOUS
10
-57.4181
20
-112.769
11
-57.3229
21
-112.722
0
LINE
8
BLACK
6
CONTINUOUS
10
-57.3229
20
-112.722
11
-57.2752
21
-112.674
0
LINE
8
BLACK
6
CONTINUOUS
10
-57.2752
20
-112.674
11
-57.2276
21
-112.579
0
LINE
8
BLACK
6
CONTINUOUS
10
-57.2276
20
-112.579
11
-57.2276
21
-112.388
0
LINE
8
BLACK
6
CONTINUOUS
10
-57.2276
20
-112.388
11
-57.2752
21
-112.293
0
LINE
8
BLACK
6
CONTINUOUS
10
-57.2752
20
-112.293
11
-57.3229
21
-112.245
0
LINE
8
BLACK
6
CONTINUOUS
10
-57.3229
20
-112.245
11
-57.4181
21
-112.198
0
LINE
8
BLACK
6
CONTINUOUS
10
-57.4181
20
-112.198
11
-57.6086
21
-112.198
0
LINE
8
BLACK
6
CONTINUOUS
10
-57.6086
20
-112.198
11
-57.7038
21
-112.245
0
LINE
8
BLACK
6
CONTINUOUS
10
-57.7038
20
-112.245
11
-57.7514
21
-112.293
0
LINE
8
BLACK
6
CONTINUOUS
10
-57.7514
20
-112.293
11
-57.799
21
-112.388
0
LINE
8
BLACK
6
CONTINUOUS
10
-57.3229
20
-111.769
11
-57.2752
21
-111.722
0
LINE
8
BLACK
6
CONTINUOUS
10
-57.2752
20
-111.722
11
-57.2276
21
-111.769
0
LINE
8
BLACK
6
CONTINUOUS
10
-57.2276
20
-111.769
11
-57.2752
21
-111.817
0
LINE
8
BLACK
6
CONTINUOUS
10
-57.2752
20
-111.817
11
-57.3229
21
-111.769
0
LINE
8
BLACK
6
CONTINUOUS
10
-57.3229
20
-111.769
11
-57.2276
21
-111.769
0
LINE
8
BLACK
6
CONTINUOUS
10
-58.2276
20
-110.817
11
-58.2276
21
-111.293
0
LINE
8
BLACK
6
CONTINUOUS
10
-58.2276
20
-111.293
11
-57.7514
21
-111.341
0
LINE
8
BLACK
6
CONTINUOUS
10
-57.7514
20
-111.341
11
-57.799
21
-111.293
0
LINE
8
BLACK
6
CONTINUOUS
10
-57.799
20
-111.293
11
-57.8467
21
-111.198
0
LINE
8
BLACK
6
CONTINUOUS
10
-57.8467
20
-111.198
11
-57.8467
21
-110.96
0
LINE
8
BLACK
6
CONTINUOUS
10
-57.8467
20
-110.96
11
-57.799
21
-110.864
0
LINE
8
BLACK
6
CONTINUOUS
10
-57.799
20
-110.864
11
-57.7514
21
-110.817
0
LINE
8
BLACK
6
CONTINUOUS
10
-57.7514
20
-110.817
11
-57.6562
21
-110.769
0
LINE
8
BLACK
6
CONTINUOUS
10
-57.6562
20
-110.769
11
-57.4181
21
-110.769
0
LINE
8
BLACK
6
CONTINUOUS
10
-57.4181
20
-110.769
11
-57.3229
21
-110.817
0
LINE
8
BLACK
6
CONTINUOUS
10
-57.3229
20
-110.817
11
-57.2752
21
-110.864
0
LINE
8
BLACK
6
CONTINUOUS
10
-57.2752
20
-110.864
11
-57.2276
21
-110.96
0
LINE
8
BLACK
6
CONTINUOUS
10
-57.2276
20
-110.96
11
-57.2276
21
-111.198
0
LINE
8
BLACK
6
CONTINUOUS
10
-57.2276
20
-111.198
11
-57.2752
21
-111.293
0
LINE
8
BLACK
6
CONTINUOUS
10
-57.2752
20
-111.293
11
-57.3229
21
-111.341
0
LINE
8
BLACK
6
CONTINUOUS
10
-58.2276
20
-109.864
11
-58.2276
21
-110.341
0
LINE
8
BLACK
6
CONTINUOUS
10
-58.2276
20
-110.341
11
-57.7514
21
-110.388
0
LINE
8
BLACK
6
CONTINUOUS
10
-57.7514
20
-110.388
11
-57.799
21
-110.341
0
LINE
8
BLACK
6
CONTINUOUS
10
-57.799
20
-110.341
11
-57.8467
21
-110.245
0
LINE
8
BLACK
6
CONTINUOUS
10
-57.8467
20
-110.245
11
-57.8467
21
-110.007
0
LINE
8
BLACK
6
CONTINUOUS
10
-57.8467
20
-110.007
11
-57.799
21
-109.912
0
LINE
8
BLACK
6
CONTINUOUS
10
-57.799
20
-109.912
11
-57.7514
21
-109.864
0
LINE
8
BLACK
6
CONTINUOUS
10
-57.7514
20
-109.864
11
-57.6562
21
-109.817
0
LINE
8
BLACK
6
CONTINUOUS
10
-57.6562
20
-109.817
11
-57.4181
21
-109.817
0
LINE
8
BLACK
6
CONTINUOUS
10
-57.4181
20
-109.817
11
-57.3229
21
-109.864
0
LINE
8
BLACK
6
CONTINUOUS
10
-57.3229
20
-109.864
11
-57.2752
21
-109.912
0
LINE
8
BLACK
6
CONTINUOUS
10
-57.2752
20
-109.912
11
-57.2276
21
-110.007
0
LINE
8
BLACK
6
CONTINUOUS
10
-57.2276
20
-110.007
11
-57.2276
21
-110.245
0
LINE
8
BLACK
6
CONTINUOUS
10
-57.2276
20
-110.245
11
-57.2752
21
-110.341
0
LINE
8
BLACK
6
CONTINUOUS
10
-57.2752
20
-110.341
11
-57.3229
21
-110.388
0
LINE
8
BLACK
6
CONTINUOUS
10
-58.2276
20
-108.912
11
-58.2276
21
-109.388
0
LINE
8
BLACK
6
CONTINUOUS
10
-58.2276
20
-109.388
11
-57.7514
21
-109.436
0
LINE
8
BLACK
6
CONTINUOUS
10
-57.7514
20
-109.436
11
-57.799
21
-109.388
0
LINE
8
BLACK
6
CONTINUOUS
10
-57.799
20
-109.388
11
-57.8467
21
-109.293
0
LINE
8
BLACK
6
CONTINUOUS
10
-57.8467
20
-109.293
11
-57.8467
21
-109.055
0
LINE
8
BLACK
6
CONTINUOUS
10
-57.8467
20
-109.055
11
-57.799
21
-108.96
0
LINE
8
BLACK
6
CONTINUOUS
10
-57.799
20
-108.96
11
-57.7514
21
-108.912
0
LINE
8
BLACK
6
CONTINUOUS
10
-57.7514
20
-108.912
11
-57.6562
21
-108.864
0
LINE
8
BLACK
6
CONTINUOUS
10
-57.6562
20
-108.864
11
-57.4181
21
-108.864
0
LINE
8
BLACK
6
CONTINUOUS
10
-57.4181
20
-108.864
11
-57.3229
21
-108.912
0
LINE
8
BLACK
6
CONTINUOUS
10
-57.3229
20
-108.912
11
-57.2752
21
-108.96
0
LINE
8
BLACK
6
CONTINUOUS
10
-57.2752
20
-108.96
11
-57.2276
21
-109.055
0
LINE
8
BLACK
6
CONTINUOUS
10
-57.2276
20
-109.055
11
-57.2276
21
-109.293
0
LINE
8
BLACK
6
CONTINUOUS
10
-57.2276
20
-109.293
11
-57.2752
21
-109.388
0
LINE
8
BLACK
6
CONTINUOUS
10
-57.2752
20
-109.388
11
-57.3229
21
-109.436
0
LINE
8
BLACK
6
CONTINUOUS
10
-57.2276
20
-107.674
11
-57.8943
21
-107.674
0
LINE
8
BLACK
6
CONTINUOUS
10
-57.799
20
-107.674
11
-57.8467
21
-107.626
0
LINE
8
BLACK
6
CONTINUOUS
10
-57.8467
20
-107.626
11
-57.8943
21
-107.531
0
LINE
8
BLACK
6
CONTINUOUS
10
-57.8943
20
-107.531
11
-57.8943
21
-107.388
0
LINE
8
BLACK
6
CONTINUOUS
10
-57.8943
20
-107.388
11
-57.8467
21
-107.293
0
LINE
8
BLACK
6
CONTINUOUS
10
-57.8467
20
-107.293
11
-57.7514
21
-107.245
0
LINE
8
BLACK
6
CONTINUOUS
10
-57.7514
20
-107.245
11
-57.2276
21
-107.245
0
LINE
8
BLACK
6
CONTINUOUS
10
-57.7514
20
-107.245
11
-57.8467
21
-107.198
0
LINE
8
BLACK
6
CONTINUOUS
10
-57.8467
20
-107.198
11
-57.8943
21
-107.102
0
LINE
8
BLACK
6
CONTINUOUS
10
-57.8943
20
-107.102
11
-57.8943
21
-106.96
0
LINE
8
BLACK
6
CONTINUOUS
10
-57.8943
20
-106.96
11
-57.8467
21
-106.864
0
LINE
8
BLACK
6
CONTINUOUS
10
-57.8467
20
-106.864
11
-57.7514
21
-106.817
0
LINE
8
BLACK
6
CONTINUOUS
10
-57.7514
20
-106.817
11
-57.2276
21
-106.817
0
LINE
8
BLACK
6
CONTINUOUS
10
-57.2276
20
-106.341
11
-57.8943
21
-106.341
0
LINE
8
BLACK
6
CONTINUOUS
10
-57.799
20
-106.341
11
-57.8467
21
-106.293
0
LINE
8
BLACK
6
CONTINUOUS
10
-57.8467
20
-106.293
11
-57.8943
21
-106.198
0
LINE
8
BLACK
6
CONTINUOUS
10
-57.8943
20
-106.198
11
-57.8943
21
-106.055
0
LINE
8
BLACK
6
CONTINUOUS
10
-57.8943
20
-106.055
11
-57.8467
21
-105.96
0
LINE
8
BLACK
6
CONTINUOUS
10
-57.8467
20
-105.96
11
-57.7514
21
-105.912
0
LINE
8
BLACK
6
CONTINUOUS
10
-57.7514
20
-105.912
11
-57.2276
21
-105.912
0
LINE
8
BLACK
6
CONTINUOUS
10
-57.7514
20
-105.912
11
-57.8467
21
-105.864
0
LINE
8
BLACK
6
CONTINUOUS
10
-57.8467
20
-105.864
11
-57.8943
21
-105.769
0
LINE
8
BLACK
6
CONTINUOUS
10
-57.8943
20
-105.769
11
-57.8943
21
-105.626
0
LINE
8
BLACK
6
CONTINUOUS
10
-57.8943
20
-105.626
11
-57.8467
21
-105.531
0
LINE
8
BLACK
6
CONTINUOUS
10
-57.8467
20
-105.531
11
-57.7514
21
-105.483
0
LINE
8
BLACK
6
CONTINUOUS
10
-57.7514
20
-105.483
11
-57.2276
21
-105.483
0
LINE
8
BLACK
6
CONTINUOUS
10
-56.38
20
-113.38
11
-56.38
21
-104.825
0
LINE
8
BLACK
6
CONTINUOUS
10
-55.845
20
-113.38
11
-56.9664
21
-113.38
0
LINE
8
BLACK
6
CONTINUOUS
10
-55.845
20
-104.825
11
-56.9664
21
-104.825
0
LINE
8
BLACK
6
CONTINUOUS
10
-56.38
20
-104.825
11
-55.7936
21
-105.952
0
LINE
8
BLACK
6
CONTINUOUS
10
-56.38
20
-104.825
11
-56.9664
21
-105.952
0
LINE
8
BLACK
6
CONTINUOUS
10
-56.38
20
-113.38
11
-55.7936
21
-112.253
0
LINE
8
BLACK
6
CONTINUOUS
10
-56.38
20
-113.38
11
-56.9664
21
-112.253
0
LINE
8
BLACK
6
CONTINUOUS
10
-42.4079
20
-116.388
11
-42.3602
21
-116.34
0
LINE
8
BLACK
6
CONTINUOUS
10
-42.3602
20
-116.34
11
-42.265
21
-116.292
0
LINE
8
BLACK
6
CONTINUOUS
10
-42.265
20
-116.292
11
-42.0269
21
-116.292
0
LINE
8
BLACK
6
CONTINUOUS
10
-42.0269
20
-116.292
11
-41.9317
21
-116.34
0
LINE
8
BLACK
6
CONTINUOUS
10
-41.9317
20
-116.34
11
-41.884
21
-116.388
0
LINE
8
BLACK
6
CONTINUOUS
10
-41.884
20
-116.388
11
-41.8364
21
-116.483
0
LINE
8
BLACK
6
CONTINUOUS
10
-41.8364
20
-116.483
11
-41.8364
21
-116.578
0
LINE
8
BLACK
6
CONTINUOUS
10
-41.8364
20
-116.578
11
-41.884
21
-116.721
0
LINE
8
BLACK
6
CONTINUOUS
10
-41.884
20
-116.721
11
-42.4555
21
-117.292
0
LINE
8
BLACK
6
CONTINUOUS
10
-42.4555
20
-117.292
11
-41.8364
21
-117.292
0
LINE
8
BLACK
6
CONTINUOUS
10
-40.9317
20
-116.292
11
-41.4079
21
-116.292
0
LINE
8
BLACK
6
CONTINUOUS
10
-41.4079
20
-116.292
11
-41.4555
21
-116.769
0
LINE
8
BLACK
6
CONTINUOUS
10
-41.4555
20
-116.769
11
-41.4079
21
-116.721
0
LINE
8
BLACK
6
CONTINUOUS
10
-41.4079
20
-116.721
11
-41.3126
21
-116.673
0
LINE
8
BLACK
6
CONTINUOUS
10
-41.3126
20
-116.673
11
-41.0745
21
-116.673
0
LINE
8
BLACK
6
CONTINUOUS
10
-41.0745
20
-116.673
11
-40.9793
21
-116.721
0
LINE
8
BLACK
6
CONTINUOUS
10
-40.9793
20
-116.721
11
-40.9317
21
-116.769
0
LINE
8
BLACK
6
CONTINUOUS
10
-40.9317
20
-116.769
11
-40.884
21
-116.864
0
LINE
8
BLACK
6
CONTINUOUS
10
-40.884
20
-116.864
11
-40.884
21
-117.102
0
LINE
8
BLACK
6
CONTINUOUS
10
-40.884
20
-117.102
11
-40.9317
21
-117.197
0
LINE
8
BLACK
6
CONTINUOUS
10
-40.9317
20
-117.197
11
-40.9793
21
-117.245
0
LINE
8
BLACK
6
CONTINUOUS
10
-40.9793
20
-117.245
11
-41.0745
21
-117.292
0
LINE
8
BLACK
6
CONTINUOUS
10
-41.0745
20
-117.292
11
-41.3126
21
-117.292
0
LINE
8
BLACK
6
CONTINUOUS
10
-41.3126
20
-117.292
11
-41.4079
21
-117.245
0
LINE
8
BLACK
6
CONTINUOUS
10
-41.4079
20
-117.245
11
-41.4555
21
-117.197
0
LINE
8
BLACK
6
CONTINUOUS
10
-40.4555
20
-117.197
11
-40.4079
21
-117.245
0
LINE
8
BLACK
6
CONTINUOUS
10
-40.4079
20
-117.245
11
-40.4555
21
-117.292
0
LINE
8
BLACK
6
CONTINUOUS
10
-40.4555
20
-117.292
11
-40.5031
21
-117.245
0
LINE
8
BLACK
6
CONTINUOUS
10
-40.5031
20
-117.245
11
-40.4555
21
-117.197
0
LINE
8
BLACK
6
CONTINUOUS
10
-40.4555
20
-117.197
11
-40.4555
21
-117.292
0
LINE
8
BLACK
6
CONTINUOUS
10
-39.9317
20
-117.292
11
-39.7412
21
-117.292
0
LINE
8
BLACK
6
CONTINUOUS
10
-39.7412
20
-117.292
11
-39.646
21
-117.245
0
LINE
8
BLACK
6
CONTINUOUS
10
-39.646
20
-117.245
11
-39.5983
21
-117.197
0
LINE
8
BLACK
6
CONTINUOUS
10
-39.5983
20
-117.197
11
-39.5031
21
-117.054
0
LINE
8
BLACK
6
CONTINUOUS
10
-39.5031
20
-117.054
11
-39.4555
21
-116.864
0
LINE
8
BLACK
6
CONTINUOUS
10
-39.4555
20
-116.864
11
-39.4555
21
-116.483
0
LINE
8
BLACK
6
CONTINUOUS
10
-39.4555
20
-116.483
11
-39.5031
21
-116.388
0
LINE
8
BLACK
6
CONTINUOUS
10
-39.5031
20
-116.388
11
-39.5507
21
-116.34
0
LINE
8
BLACK
6
CONTINUOUS
10
-39.5507
20
-116.34
11
-39.646
21
-116.292
0
LINE
8
BLACK
6
CONTINUOUS
10
-39.646
20
-116.292
11
-39.8364
21
-116.292
0
LINE
8
BLACK
6
CONTINUOUS
10
-39.8364
20
-116.292
11
-39.9317
21
-116.34
0
LINE
8
BLACK
6
CONTINUOUS
10
-39.9317
20
-116.34
11
-39.9793
21
-116.388
0
LINE
8
BLACK
6
CONTINUOUS
10
-39.9793
20
-116.388
11
-40.0269
21
-116.483
0
LINE
8
BLACK
6
CONTINUOUS
10
-40.0269
20
-116.483
11
-40.0269
21
-116.721
0
LINE
8
BLACK
6
CONTINUOUS
10
-40.0269
20
-116.721
11
-39.9793
21
-116.816
0
LINE
8
BLACK
6
CONTINUOUS
10
-39.9793
20
-116.816
11
-39.9317
21
-116.864
0
LINE
8
BLACK
6
CONTINUOUS
10
-39.9317
20
-116.864
11
-39.8364
21
-116.911
0
LINE
8
BLACK
6
CONTINUOUS
10
-39.8364
20
-116.911
11
-39.646
21
-116.911
0
LINE
8
BLACK
6
CONTINUOUS
10
-39.646
20
-116.911
11
-39.5507
21
-116.864
0
LINE
8
BLACK
6
CONTINUOUS
10
-39.5507
20
-116.864
11
-39.5031
21
-116.816
0
LINE
8
BLACK
6
CONTINUOUS
10
-39.5031
20
-116.816
11
-39.4555
21
-116.721
0
LINE
8
BLACK
6
CONTINUOUS
10
-38.5507
20
-116.292
11
-39.0269
21
-116.292
0
LINE
8
BLACK
6
CONTINUOUS
10
-39.0269
20
-116.292
11
-39.0745
21
-116.769
0
LINE
8
BLACK
6
CONTINUOUS
10
-39.0745
20
-116.769
11
-39.0269
21
-116.721
0
LINE
8
BLACK
6
CONTINUOUS
10
-39.0269
20
-116.721
11
-38.9317
21
-116.673
0
LINE
8
BLACK
6
CONTINUOUS
10
-38.9317
20
-116.673
11
-38.6936
21
-116.673
0
LINE
8
BLACK
6
CONTINUOUS
10
-38.6936
20
-116.673
11
-38.5983
21
-116.721
0
LINE
8
BLACK
6
CONTINUOUS
10
-38.5983
20
-116.721
11
-38.5507
21
-116.769
0
LINE
8
BLACK
6
CONTINUOUS
10
-38.5507
20
-116.769
11
-38.5031
21
-116.864
0
LINE
8
BLACK
6
CONTINUOUS
10
-38.5031
20
-116.864
11
-38.5031
21
-117.102
0
LINE
8
BLACK
6
CONTINUOUS
10
-38.5031
20
-117.102
11
-38.5507
21
-117.197
0
LINE
8
BLACK
6
CONTINUOUS
10
-38.5507
20
-117.197
11
-38.5983
21
-117.245
0
LINE
8
BLACK
6
CONTINUOUS
10
-38.5983
20
-117.245
11
-38.6936
21
-117.292
0
LINE
8
BLACK
6
CONTINUOUS
10
-38.6936
20
-117.292
11
-38.9317
21
-117.292
0
LINE
8
BLACK
6
CONTINUOUS
10
-38.9317
20
-117.292
11
-39.0269
21
-117.245
0
LINE
8
BLACK
6
CONTINUOUS
10
-39.0269
20
-117.245
11
-39.0745
21
-117.197
0
LINE
8
BLACK
6
CONTINUOUS
10
-37.884
20
-116.292
11
-37.7888
21
-116.292
0
LINE
8
BLACK
6
CONTINUOUS
10
-37.7888
20
-116.292
11
-37.6936
21
-116.34
0
LINE
8
BLACK
6
CONTINUOUS
10
-37.6936
20
-116.34
11
-37.646
21
-116.388
0
LINE
8
BLACK
6
CONTINUOUS
10
-37.646
20
-116.388
11
-37.5983
21
-116.483
0
LINE
8
BLACK
6
CONTINUOUS
10
-37.5983
20
-116.483
11
-37.5507
21
-116.673
0
LINE
8
BLACK
6
CONTINUOUS
10
-37.5507
20
-116.673
11
-37.5507
21
-116.911
0
LINE
8
BLACK
6
CONTINUOUS
10
-37.5507
20
-116.911
11
-37.5983
21
-117.102
0
LINE
8
BLACK
6
CONTINUOUS
10
-37.5983
20
-117.102
11
-37.646
21
-117.197
0
LINE
8
BLACK
6
CONTINUOUS
10
-37.646
20
-117.197
11
-37.6936
21
-117.245
0
LINE
8
BLACK
6
CONTINUOUS
10
-37.6936
20
-117.245
11
-37.7888
21
-117.292
0
LINE
8
BLACK
6
CONTINUOUS
10
-37.7888
20
-117.292
11
-37.884
21
-117.292
0
LINE
8
BLACK
6
CONTINUOUS
10
-37.884
20
-117.292
11
-37.9793
21
-117.245
0
LINE
8
BLACK
6
CONTINUOUS
10
-37.9793
20
-117.245
11
-38.0269
21
-117.197
0
LINE
8
BLACK
6
CONTINUOUS
10
-38.0269
20
-117.197
11
-38.0745
21
-117.102
0
LINE
8
BLACK
6
CONTINUOUS
10
-38.0745
20
-117.102
11
-38.1221
21
-116.911
0
LINE
8
BLACK
6
CONTINUOUS
10
-38.1221
20
-116.911
11
-38.1221
21
-116.673
0
LINE
8
BLACK
6
CONTINUOUS
10
-38.1221
20
-116.673
11
-38.0745
21
-116.483
0
LINE
8
BLACK
6
CONTINUOUS
10
-38.0745
20
-116.483
11
-38.0269
21
-116.388
0
LINE
8
BLACK
6
CONTINUOUS
10
-38.0269
20
-116.388
11
-37.9793
21
-116.34
0
LINE
8
BLACK
6
CONTINUOUS
10
-37.9793
20
-116.34
11
-37.884
21
-116.292
0
LINE
8
BLACK
6
CONTINUOUS
10
-36.3602
20
-117.292
11
-36.3602
21
-116.626
0
LINE
8
BLACK
6
CONTINUOUS
10
-36.3602
20
-116.721
11
-36.3126
21
-116.673
0
LINE
8
BLACK
6
CONTINUOUS
10
-36.3126
20
-116.673
11
-36.2174
21
-116.626
0
LINE
8
BLACK
6
CONTINUOUS
10
-36.2174
20
-116.626
11
-36.0745
21
-116.626
0
LINE
8
BLACK
6
CONTINUOUS
10
-36.0745
20
-116.626
11
-35.9793
21
-116.673
0
LINE
8
BLACK
6
CONTINUOUS
10
-35.9793
20
-116.673
11
-35.9317
21
-116.769
0
LINE
8
BLACK
6
CONTINUOUS
10
-35.9317
20
-116.769
11
-35.9317
21
-117.292
0
LINE
8
BLACK
6
CONTINUOUS
10
-35.9317
20
-116.769
11
-35.884
21
-116.673
0
LINE
8
BLACK
6
CONTINUOUS
10
-35.884
20
-116.673
11
-35.7888
21
-116.626
0
LINE
8
BLACK
6
CONTINUOUS
10
-35.7888
20
-116.626
11
-35.646
21
-116.626
0
LINE
8
BLACK
6
CONTINUOUS
10
-35.646
20
-116.626
11
-35.5507
21
-116.673
0
LINE
8
BLACK
6
CONTINUOUS
10
-35.5507
20
-116.673
11
-35.5031
21
-116.769
0
LINE
8
BLACK
6
CONTINUOUS
10
-35.5031
20
-116.769
11
-35.5031
21
-117.292
0
LINE
8
BLACK
6
CONTINUOUS
10
-35.0269
20
-117.292
11
-35.0269
21
-116.626
0
LINE
8
BLACK
6
CONTINUOUS
10
-35.0269
20
-116.721
11
-34.9793
21
-116.673
0
LINE
8
BLACK
6
CONTINUOUS
10
-34.9793
20
-116.673
11
-34.884
21
-116.626
0
LINE
8
BLACK
6
CONTINUOUS
10
-34.884
20
-116.626
11
-34.7412
21
-116.626
0
LINE
8
BLACK
6
CONTINUOUS
10
-34.7412
20
-116.626
11
-34.646
21
-116.673
0
LINE
8
BLACK
6
CONTINUOUS
10
-34.646
20
-116.673
11
-34.5983
21
-116.769
0
LINE
8
BLACK
6
CONTINUOUS
10
-34.5983
20
-116.769
11
-34.5983
21
-117.292
0
LINE
8
BLACK
6
CONTINUOUS
10
-34.5983
20
-116.769
11
-34.5507
21
-116.673
0
LINE
8
BLACK
6
CONTINUOUS
10
-34.5507
20
-116.673
11
-34.4555
21
-116.626
0
LINE
8
BLACK
6
CONTINUOUS
10
-34.4555
20
-116.626
11
-34.3126
21
-116.626
0
LINE
8
BLACK
6
CONTINUOUS
10
-34.3126
20
-116.626
11
-34.2174
21
-116.673
0
LINE
8
BLACK
6
CONTINUOUS
10
-34.2174
20
-116.673
11
-34.1698
21
-116.769
0
LINE
8
BLACK
6
CONTINUOUS
10
-34.1698
20
-116.769
11
-34.1698
21
-117.292
0
LINE
8
BLACK
6
CONTINUOUS
10
-51.24
20
-115.54
11
-25.29
21
-115.54
0
LINE
8
BLACK
6
CONTINUOUS
10
-51.24
20
-113.825
11
-51.24
21
-116.126
0
LINE
8
BLACK
6
CONTINUOUS
10
-25.29
20
-113.825
11
-25.29
21
-116.126
0
LINE
8
BLACK
6
CONTINUOUS
10
-25.29
20
-115.54
11
-26.4165
21
-116.126
0
LINE
8
BLACK
6
CONTINUOUS
10
-25.29
20
-115.54
11
-26.4165
21
-114.954
0
LINE
8
BLACK
6
CONTINUOUS
10
-51.24
20
-115.54
11
-50.1135
21
-116.126
0
LINE
8
BLACK
6
CONTINUOUS
10
-51.24
20
-115.54
11
-50.1135
21
-114.954
0
LINE
8
BLACK
6
CONTINUOUS
10
-55.3676
20
-56.0001
11
-55.3676
21
-56.5715
0
LINE
8
BLACK
6
CONTINUOUS
10
-55.3676
20
-56.2858
11
-56.3676
21
-56.2858
0
LINE
8
BLACK
6
CONTINUOUS
10
-56.3676
20
-56.2858
11
-56.2248
21
-56.3811
0
LINE
8
BLACK
6
CONTINUOUS
10
-56.2248
20
-56.3811
11
-56.1295
21
-56.4763
0
LINE
8
BLACK
6
CONTINUOUS
10
-56.1295
20
-56.4763
11
-56.0819
21
-56.5715
0
LINE
8
BLACK
6
CONTINUOUS
10
-56.2724
20
-55.6192
11
-56.32
21
-55.5715
0
LINE
8
BLACK
6
CONTINUOUS
10
-56.32
20
-55.5715
11
-56.3676
21
-55.4763
0
LINE
8
BLACK
6
CONTINUOUS
10
-56.3676
20
-55.4763
11
-56.3676
21
-55.2382
0
LINE
8
BLACK
6
CONTINUOUS
10
-56.3676
20
-55.2382
11
-56.32
21
-55.143
0
LINE
8
BLACK
6
CONTINUOUS
10
-56.32
20
-55.143
11
-56.2724
21
-55.0954
0
LINE
8
BLACK
6
CONTINUOUS
10
-56.2724
20
-55.0954
11
-56.1771
21
-55.0477
0
LINE
8
BLACK
6
CONTINUOUS
10
-56.1771
20
-55.0477
11
-56.0819
21
-55.0477
0
LINE
8
BLACK
6
CONTINUOUS
10
-56.0819
20
-55.0477
11
-55.939
21
-55.0954
0
LINE
8
BLACK
6
CONTINUOUS
10
-55.939
20
-55.0954
11
-55.3676
21
-55.6668
0
LINE
8
BLACK
6
CONTINUOUS
10
-55.3676
20
-55.6668
11
-55.3676
21
-55.0477
0
LINE
8
BLACK
6
CONTINUOUS
10
-56.2724
20
-54.6668
11
-56.32
21
-54.6192
0
LINE
8
BLACK
6
CONTINUOUS
10
-56.32
20
-54.6192
11
-56.3676
21
-54.5239
0
LINE
8
BLACK
6
CONTINUOUS
10
-56.3676
20
-54.5239
11
-56.3676
21
-54.2858
0
LINE
8
BLACK
6
CONTINUOUS
10
-56.3676
20
-54.2858
11
-56.32
21
-54.1906
0
LINE
8
BLACK
6
CONTINUOUS
10
-56.32
20
-54.1906
11
-56.2724
21
-54.143
0
LINE
8
BLACK
6
CONTINUOUS
10
-56.2724
20
-54.143
11
-56.1771
21
-54.0954
0
LINE
8
BLACK
6
CONTINUOUS
10
-56.1771
20
-54.0954
11
-56.0819
21
-54.0954
0
LINE
8
BLACK
6
CONTINUOUS
10
-56.0819
20
-54.0954
11
-55.939
21
-54.143
0
LINE
8
BLACK
6
CONTINUOUS
10
-55.939
20
-54.143
11
-55.3676
21
-54.7144
0
LINE
8
BLACK
6
CONTINUOUS
10
-55.3676
20
-54.7144
11
-55.3676
21
-54.0954
0
LINE
8
BLACK
6
CONTINUOUS
10
-55.4629
20
-53.6668
11
-55.4152
21
-53.6192
0
LINE
8
BLACK
6
CONTINUOUS
10
-55.4152
20
-53.6192
11
-55.3676
21
-53.6668
0
LINE
8
BLACK
6
CONTINUOUS
10
-55.3676
20
-53.6668
11
-55.4152
21
-53.7144
0
LINE
8
BLACK
6
CONTINUOUS
10
-55.4152
20
-53.7144
11
-55.4629
21
-53.6668
0
LINE
8
BLACK
6
CONTINUOUS
10
-55.4629
20
-53.6668
11
-55.3676
21
-53.6668
0
LINE
8
BLACK
6
CONTINUOUS
10
-55.939
20
-53.0477
11
-55.9867
21
-53.143
0
LINE
8
BLACK
6
CONTINUOUS
10
-55.9867
20
-53.143
11
-56.0343
21
-53.1906
0
LINE
8
BLACK
6
CONTINUOUS
10
-56.0343
20
-53.1906
11
-56.1295
21
-53.2382
0
LINE
8
BLACK
6
CONTINUOUS
10
-56.1295
20
-53.2382
11
-56.1771
21
-53.2382
0
LINE
8
BLACK
6
CONTINUOUS
10
-56.1771
20
-53.2382
11
-56.2724
21
-53.1906
0
LINE
8
BLACK
6
CONTINUOUS
10
-56.2724
20
-53.1906
11
-56.32
21
-53.143
0
LINE
8
BLACK
6
CONTINUOUS
10
-56.32
20
-53.143
11
-56.3676
21
-53.0477
0
LINE
8
BLACK
6
CONTINUOUS
10
-56.3676
20
-53.0477
11
-56.3676
21
-52.8573
0
LINE
8
BLACK
6
CONTINUOUS
10
-56.3676
20
-52.8573
11
-56.32
21
-52.762
0
LINE
8
BLACK
6
CONTINUOUS
10
-56.32
20
-52.762
11
-56.2724
21
-52.7144
0
LINE
8
BLACK
6
CONTINUOUS
10
-56.2724
20
-52.7144
11
-56.1771
21
-52.6668
0
LINE
8
BLACK
6
CONTINUOUS
10
-56.1771
20
-52.6668
11
-56.1295
21
-52.6668
0
LINE
8
BLACK
6
CONTINUOUS
10
-56.1295
20
-52.6668
11
-56.0343
21
-52.7144
0
LINE
8
BLACK
6
CONTINUOUS
10
-56.0343
20
-52.7144
11
-55.9867
21
-52.762
0
LINE
8
BLACK
6
CONTINUOUS
10
-55.9867
20
-52.762
11
-55.939
21
-52.8573
0
LINE
8
BLACK
6
CONTINUOUS
10
-55.939
20
-52.8573
11
-55.939
21
-53.0477
0
LINE
8
BLACK
6
CONTINUOUS
10
-55.939
20
-53.0477
11
-55.8914
21
-53.143
0
LINE
8
BLACK
6
CONTINUOUS
10
-55.8914
20
-53.143
11
-55.8438
21
-53.1906
0
LINE
8
BLACK
6
CONTINUOUS
10
-55.8438
20
-53.1906
11
-55.7486
21
-53.2382
0
LINE
8
BLACK
6
CONTINUOUS
10
-55.7486
20
-53.2382
11
-55.5581
21
-53.2382
0
LINE
8
BLACK
6
CONTINUOUS
10
-55.5581
20
-53.2382
11
-55.4629
21
-53.1906
0
LINE
8
BLACK
6
CONTINUOUS
10
-55.4629
20
-53.1906
11
-55.4152
21
-53.143
0
LINE
8
BLACK
6
CONTINUOUS
10
-55.4152
20
-53.143
11
-55.3676
21
-53.0477
0
LINE
8
BLACK
6
CONTINUOUS
10
-55.3676
20
-53.0477
11
-55.3676
21
-52.8573
0
LINE
8
BLACK
6
CONTINUOUS
10
-55.3676
20
-52.8573
11
-55.4152
21
-52.762
0
LINE
8
BLACK
6
CONTINUOUS
10
-55.4152
20
-52.762
11
-55.4629
21
-52.7144
0
LINE
8
BLACK
6
CONTINUOUS
10
-55.4629
20
-52.7144
11
-55.5581
21
-52.6668
0
LINE
8
BLACK
6
CONTINUOUS
10
-55.5581
20
-52.6668
11
-55.7486
21
-52.6668
0
LINE
8
BLACK
6
CONTINUOUS
10
-55.7486
20
-52.6668
11
-55.8438
21
-52.7144
0
LINE
8
BLACK
6
CONTINUOUS
10
-55.8438
20
-52.7144
11
-55.8914
21
-52.762
0
LINE
8
BLACK
6
CONTINUOUS
10
-55.8914
20
-52.762
11
-55.939
21
-52.8573
0
LINE
8
BLACK
6
CONTINUOUS
10
-56.3676
20
-51.762
11
-56.3676
21
-52.2382
0
LINE
8
BLACK
6
CONTINUOUS
10
-56.3676
20
-52.2382
11
-55.8914
21
-52.2858
0
LINE
8
BLACK
6
CONTINUOUS
10
-55.8914
20
-52.2858
11
-55.939
21
-52.2382
0
LINE
8
BLACK
6
CONTINUOUS
10
-55.939
20
-52.2382
11
-55.9867
21
-52.143
0
LINE
8
BLACK
6
CONTINUOUS
10
-55.9867
20
-52.143
11
-55.9867
21
-51.9049
0
LINE
8
BLACK
6
CONTINUOUS
10
-55.9867
20
-51.9049
11
-55.939
21
-51.8096
0
LINE
8
BLACK
6
CONTINUOUS
10
-55.939
20
-51.8096
11
-55.8914
21
-51.762
0
LINE
8
BLACK
6
CONTINUOUS
10
-55.8914
20
-51.762
11
-55.7962
21
-51.7144
0
LINE
8
BLACK
6
CONTINUOUS
10
-55.7962
20
-51.7144
11
-55.5581
21
-51.7144
0
LINE
8
BLACK
6
CONTINUOUS
10
-55.5581
20
-51.7144
11
-55.4629
21
-51.762
0
LINE
8
BLACK
6
CONTINUOUS
10
-55.4629
20
-51.762
11
-55.4152
21
-51.8096
0
LINE
8
BLACK
6
CONTINUOUS
10
-55.4152
20
-51.8096
11
-55.3676
21
-51.9049
0
LINE
8
BLACK
6
CONTINUOUS
10
-55.3676
20
-51.9049
11
-55.3676
21
-52.143
0
LINE
8
BLACK
6
CONTINUOUS
10
-55.3676
20
-52.143
11
-55.4152
21
-52.2382
0
LINE
8
BLACK
6
CONTINUOUS
10
-55.4152
20
-52.2382
11
-55.4629
21
-52.2858
0
LINE
8
BLACK
6
CONTINUOUS
10
-56.3676
20
-50.8096
11
-56.3676
21
-51.2858
0
LINE
8
BLACK
6
CONTINUOUS
10
-56.3676
20
-51.2858
11
-55.8914
21
-51.3335
0
LINE
8
BLACK
6
CONTINUOUS
10
-55.8914
20
-51.3335
11
-55.939
21
-51.2858
0
LINE
8
BLACK
6
CONTINUOUS
10
-55.939
20
-51.2858
11
-55.9867
21
-51.1906
0
LINE
8
BLACK
6
CONTINUOUS
10
-55.9867
20
-51.1906
11
-55.9867
21
-50.9525
0
LINE
8
BLACK
6
CONTINUOUS
10
-55.9867
20
-50.9525
11
-55.939
21
-50.8573
0
LINE
8
BLACK
6
CONTINUOUS
10
-55.939
20
-50.8573
11
-55.8914
21
-50.8096
0
LINE
8
BLACK
6
CONTINUOUS
10
-55.8914
20
-50.8096
11
-55.7962
21
-50.762
0
LINE
8
BLACK
6
CONTINUOUS
10
-55.7962
20
-50.762
11
-55.5581
21
-50.762
0
LINE
8
BLACK
6
CONTINUOUS
10
-55.5581
20
-50.762
11
-55.4629
21
-50.8096
0
LINE
8
BLACK
6
CONTINUOUS
10
-55.4629
20
-50.8096
11
-55.4152
21
-50.8573
0
LINE
8
BLACK
6
CONTINUOUS
10
-55.4152
20
-50.8573
11
-55.3676
21
-50.9525
0
LINE
8
BLACK
6
CONTINUOUS
10
-55.3676
20
-50.9525
11
-55.3676
21
-51.1906
0
LINE
8
BLACK
6
CONTINUOUS
10
-55.3676
20
-51.1906
11
-55.4152
21
-51.2858
0
LINE
8
BLACK
6
CONTINUOUS
10
-55.4152
20
-51.2858
11
-55.4629
21
-51.3335
0
LINE
8
BLACK
6
CONTINUOUS
10
-55.3676
20
-49.5715
11
-56.0343
21
-49.5715
0
LINE
8
BLACK
6
CONTINUOUS
10
-55.939
20
-49.5715
11
-55.9867
21
-49.5239
0
LINE
8
BLACK
6
CONTINUOUS
10
-55.9867
20
-49.5239
11
-56.0343
21
-49.4287
0
LINE
8
BLACK
6
CONTINUOUS
10
-56.0343
20
-49.4287
11
-56.0343
21
-49.2858
0
LINE
8
BLACK
6
CONTINUOUS
10
-56.0343
20
-49.2858
11
-55.9867
21
-49.1906
0
LINE
8
BLACK
6
CONTINUOUS
10
-55.9867
20
-49.1906
11
-55.8914
21
-49.143
0
LINE
8
BLACK
6
CONTINUOUS
10
-55.8914
20
-49.143
11
-55.3676
21
-49.143
0
LINE
8
BLACK
6
CONTINUOUS
10
-55.8914
20
-49.143
11
-55.9867
21
-49.0954
0
LINE
8
BLACK
6
CONTINUOUS
10
-55.9867
20
-49.0954
11
-56.0343
21
-49.0001
0
LINE
8
BLACK
6
CONTINUOUS
10
-56.0343
20
-49.0001
11
-56.0343
21
-48.8573
0
LINE
8
BLACK
6
CONTINUOUS
10
-56.0343
20
-48.8573
11
-55.9867
21
-48.762
0
LINE
8
BLACK
6
CONTINUOUS
10
-55.9867
20
-48.762
11
-55.8914
21
-48.7144
0
LINE
8
BLACK
6
CONTINUOUS
10
-55.8914
20
-48.7144
11
-55.3676
21
-48.7144
0
LINE
8
BLACK
6
CONTINUOUS
10
-55.3676
20
-48.2382
11
-56.0343
21
-48.2382
0
LINE
8
BLACK
6
CONTINUOUS
10
-55.939
20
-48.2382
11
-55.9867
21
-48.1906
0
LINE
8
BLACK
6
CONTINUOUS
10
-55.9867
20
-48.1906
11
-56.0343
21
-48.0954
0
LINE
8
BLACK
6
CONTINUOUS
10
-56.0343
20
-48.0954
11
-56.0343
21
-47.9525
0
LINE
8
BLACK
6
CONTINUOUS
10
-56.0343
20
-47.9525
11
-55.9867
21
-47.8573
0
LINE
8
BLACK
6
CONTINUOUS
10
-55.9867
20
-47.8573
11
-55.8914
21
-47.8096
0
LINE
8
BLACK
6
CONTINUOUS
10
-55.8914
20
-47.8096
11
-55.3676
21
-47.8096
0
LINE
8
BLACK
6
CONTINUOUS
10
-55.8914
20
-47.8096
11
-55.9867
21
-47.762
0
LINE
8
BLACK
6
CONTINUOUS
10
-55.9867
20
-47.762
11
-56.0343
21
-47.6668
0
LINE
8
BLACK
6
CONTINUOUS
10
-56.0343
20
-47.6668
11
-56.0343
21
-47.5239
0
LINE
8
BLACK
6
CONTINUOUS
10
-56.0343
20
-47.5239
11
-55.9867
21
-47.4287
0
LINE
8
BLACK
6
CONTINUOUS
10
-55.9867
20
-47.4287
11
-55.8914
21
-47.3811
0
LINE
8
BLACK
6
CONTINUOUS
10
-55.8914
20
-47.3811
11
-55.3676
21
-47.3811
0
LINE
8
BLACK
6
CONTINUOUS
10
-54.52
20
-113.38
11
-54.52
21
9.475
0
LINE
8
BLACK
6
CONTINUOUS
10
-53.745
20
-113.38
11
-55.1064
21
-113.38
0
LINE
8
BLACK
6
CONTINUOUS
10
-53.745
20
9.475
11
-55.1064
21
9.475
0
LINE
8
BLACK
6
CONTINUOUS
10
-54.52
20
9.475
11
-53.9336
21
8.3485
0
LINE
8
BLACK
6
CONTINUOUS
10
-54.52
20
9.475
11
-55.1064
21
8.3485
0
LINE
8
BLACK
6
CONTINUOUS
10
-54.52
20
-113.38
11
-53.9336
21
-112.253
0
LINE
8
BLACK
6
CONTINUOUS
10
-54.52
20
-113.38
11
-55.1064
21
-112.253
0
LINE
8
BLACK
6
CONTINUOUS
10
23.3174
20
-119.462
11
22.746
21
-119.462
0
LINE
8
BLACK
6
CONTINUOUS
10
23.0317
20
-119.462
11
23.0317
21
-118.462
0
LINE
8
BLACK
6
CONTINUOUS
10
23.0317
20
-118.462
11
22.9364
21
-118.605
0
LINE
8
BLACK
6
CONTINUOUS
10
22.9364
20
-118.605
11
22.8412
21
-118.7
0
LINE
8
BLACK
6
CONTINUOUS
10
22.8412
20
-118.7
11
22.746
21
-118.748
0
LINE
8
BLACK
6
CONTINUOUS
10
24.2221
20
-118.462
11
23.746
21
-118.462
0
LINE
8
BLACK
6
CONTINUOUS
10
23.746
20
-118.462
11
23.6983
21
-118.939
0
LINE
8
BLACK
6
CONTINUOUS
10
23.6983
20
-118.939
11
23.746
21
-118.891
0
LINE
8
BLACK
6
CONTINUOUS
10
23.746
20
-118.891
11
23.8412
21
-118.843
0
LINE
8
BLACK
6
CONTINUOUS
10
23.8412
20
-118.843
11
24.0793
21
-118.843
0
LINE
8
BLACK
6
CONTINUOUS
10
24.0793
20
-118.843
11
24.1745
21
-118.891
0
LINE
8
BLACK
6
CONTINUOUS
10
24.1745
20
-118.891
11
24.2221
21
-118.939
0
LINE
8
BLACK
6
CONTINUOUS
10
24.2221
20
-118.939
11
24.2698
21
-119.034
0
LINE
8
BLACK
6
CONTINUOUS
10
24.2698
20
-119.034
11
24.2698
21
-119.272
0
LINE
8
BLACK
6
CONTINUOUS
10
24.2698
20
-119.272
11
24.2221
21
-119.367
0
LINE
8
BLACK
6
CONTINUOUS
10
24.2221
20
-119.367
11
24.1745
21
-119.415
0
LINE
8
BLACK
6
CONTINUOUS
10
24.1745
20
-119.415
11
24.0793
21
-119.462
0
LINE
8
BLACK
6
CONTINUOUS
10
24.0793
20
-119.462
11
23.8412
21
-119.462
0
LINE
8
BLACK
6
CONTINUOUS
10
23.8412
20
-119.462
11
23.746
21
-119.415
0
LINE
8
BLACK
6
CONTINUOUS
10
23.746
20
-119.415
11
23.6983
21
-119.367
0
LINE
8
BLACK
6
CONTINUOUS
10
24.6031
20
-118.462
11
25.2698
21
-118.462
0
LINE
8
BLACK
6
CONTINUOUS
10
25.2698
20
-118.462
11
24.8412
21
-119.462
0
LINE
8
BLACK
6
CONTINUOUS
10
25.6507
20
-119.367
11
25.6983
21
-119.415
0
LINE
8
BLACK
6
CONTINUOUS
10
25.6983
20
-119.415
11
25.6507
21
-119.462
0
LINE
8
BLACK
6
CONTINUOUS
10
25.6507
20
-119.462
11
25.6031
21
-119.415
0
LINE
8
BLACK
6
CONTINUOUS
10
25.6031
20
-119.415
11
25.6507
21
-119.367
0
LINE
8
BLACK
6
CONTINUOUS
10
25.6507
20
-119.367
11
25.6507
21
-119.462
0
LINE
8
BLACK
6
CONTINUOUS
10
26.0793
20
-118.558
11
26.1269
21
-118.51
0
LINE
8
BLACK
6
CONTINUOUS
10
26.1269
20
-118.51
11
26.2221
21
-118.462
0
LINE
8
BLACK
6
CONTINUOUS
10
26.2221
20
-118.462
11
26.4602
21
-118.462
0
LINE
8
BLACK
6
CONTINUOUS
10
26.4602
20
-118.462
11
26.5555
21
-118.51
0
LINE
8
BLACK
6
CONTINUOUS
10
26.5555
20
-118.51
11
26.6031
21
-118.558
0
LINE
8
BLACK
6
CONTINUOUS
10
26.6031
20
-118.558
11
26.6507
21
-118.653
0
LINE
8
BLACK
6
CONTINUOUS
10
26.6507
20
-118.653
11
26.6507
21
-118.748
0
LINE
8
BLACK
6
CONTINUOUS
10
26.6507
20
-118.748
11
26.6031
21
-118.891
0
LINE
8
BLACK
6
CONTINUOUS
10
26.6031
20
-118.891
11
26.0317
21
-119.462
0
LINE
8
BLACK
6
CONTINUOUS
10
26.0317
20
-119.462
11
26.6507
21
-119.462
0
LINE
8
BLACK
6
CONTINUOUS
10
27.6031
20
-119.462
11
27.0317
21
-119.462
0
LINE
8
BLACK
6
CONTINUOUS
10
27.3174
20
-119.462
11
27.3174
21
-118.462
0
LINE
8
BLACK
6
CONTINUOUS
10
27.3174
20
-118.462
11
27.2221
21
-118.605
0
LINE
8
BLACK
6
CONTINUOUS
10
27.2221
20
-118.605
11
27.1269
21
-118.7
0
LINE
8
BLACK
6
CONTINUOUS
10
27.1269
20
-118.7
11
27.0317
21
-118.748
0
LINE
8
BLACK
6
CONTINUOUS
10
28.2221
20
-118.462
11
28.3174
21
-118.462
0
LINE
8
BLACK
6
CONTINUOUS
10
28.3174
20
-118.462
11
28.4126
21
-118.51
0
LINE
8
BLACK
6
CONTINUOUS
10
28.4126
20
-118.51
11
28.4602
21
-118.558
0
LINE
8
BLACK
6
CONTINUOUS
10
28.4602
20
-118.558
11
28.5079
21
-118.653
0
LINE
8
BLACK
6
CONTINUOUS
10
28.5079
20
-118.653
11
28.5555
21
-118.843
0
LINE
8
BLACK
6
CONTINUOUS
10
28.5555
20
-118.843
11
28.5555
21
-119.081
0
LINE
8
BLACK
6
CONTINUOUS
10
28.5555
20
-119.081
11
28.5079
21
-119.272
0
LINE
8
BLACK
6
CONTINUOUS
10
28.5079
20
-119.272
11
28.4602
21
-119.367
0
LINE
8
BLACK
6
CONTINUOUS
10
28.4602
20
-119.367
11
28.4126
21
-119.415
0
LINE
8
BLACK
6
CONTINUOUS
10
28.4126
20
-119.415
11
28.3174
21
-119.462
0
LINE
8
BLACK
6
CONTINUOUS
10
28.3174
20
-119.462
11
28.2221
21
-119.462
0
LINE
8
BLACK
6
CONTINUOUS
10
28.2221
20
-119.462
11
28.1269
21
-119.415
0
LINE
8
BLACK
6
CONTINUOUS
10
28.1269
20
-119.415
11
28.0793
21
-119.367
0
LINE
8
BLACK
6
CONTINUOUS
10
28.0793
20
-119.367
11
28.0317
21
-119.272
0
LINE
8
BLACK
6
CONTINUOUS
10
28.0317
20
-119.272
11
27.984
21
-119.081
0
LINE
8
BLACK
6
CONTINUOUS
10
27.984
20
-119.081
11
27.984
21
-118.843
0
LINE
8
BLACK
6
CONTINUOUS
10
27.984
20
-118.843
11
28.0317
21
-118.653
0
LINE
8
BLACK
6
CONTINUOUS
10
28.0317
20
-118.653
11
28.0793
21
-118.558
0
LINE
8
BLACK
6
CONTINUOUS
10
28.0793
20
-118.558
11
28.1269
21
-118.51
0
LINE
8
BLACK
6
CONTINUOUS
10
28.1269
20
-118.51
11
28.2221
21
-118.462
0
LINE
8
BLACK
6
CONTINUOUS
10
29.746
20
-119.462
11
29.746
21
-118.796
0
LINE
8
BLACK
6
CONTINUOUS
10
29.746
20
-118.891
11
29.7936
21
-118.843
0
LINE
8
BLACK
6
CONTINUOUS
10
29.7936
20
-118.843
11
29.8888
21
-118.796
0
LINE
8
BLACK
6
CONTINUOUS
10
29.8888
20
-118.796
11
30.0317
21
-118.796
0
LINE
8
BLACK
6
CONTINUOUS
10
30.0317
20
-118.796
11
30.1269
21
-118.843
0
LINE
8
BLACK
6
CONTINUOUS
10
30.1269
20
-118.843
11
30.1745
21
-118.939
0
LINE
8
BLACK
6
CONTINUOUS
10
30.1745
20
-118.939
11
30.1745
21
-119.462
0
LINE
8
BLACK
6
CONTINUOUS
10
30.1745
20
-118.939
11
30.2221
21
-118.843
0
LINE
8
BLACK
6
CONTINUOUS
10
30.2221
20
-118.843
11
30.3174
21
-118.796
0
LINE
8
BLACK
6
CONTINUOUS
10
30.3174
20
-118.796
11
30.4602
21
-118.796
0
LINE
8
BLACK
6
CONTINUOUS
10
30.4602
20
-118.796
11
30.5555
21
-118.843
0
LINE
8
BLACK
6
CONTINUOUS
10
30.5555
20
-118.843
11
30.6031
21
-118.939
0
LINE
8
BLACK
6
CONTINUOUS
10
30.6031
20
-118.939
11
30.6031
21
-119.462
0
LINE
8
BLACK
6
CONTINUOUS
10
31.0793
20
-119.462
11
31.0793
21
-118.796
0
LINE
8
BLACK
6
CONTINUOUS
10
31.0793
20
-118.891
11
31.1269
21
-118.843
0
LINE
8
BLACK
6
CONTINUOUS
10
31.1269
20
-118.843
11
31.2221
21
-118.796
0
LINE
8
BLACK
6
CONTINUOUS
10
31.2221
20
-118.796
11
31.365
21
-118.796
0
LINE
8
BLACK
6
CONTINUOUS
10
31.365
20
-118.796
11
31.4602
21
-118.843
0
LINE
8
BLACK
6
CONTINUOUS
10
31.4602
20
-118.843
11
31.5079
21
-118.939
0
LINE
8
BLACK
6
CONTINUOUS
10
31.5079
20
-118.939
11
31.5079
21
-119.462
0
LINE
8
BLACK
6
CONTINUOUS
10
31.5079
20
-118.939
11
31.5555
21
-118.843
0
LINE
8
BLACK
6
CONTINUOUS
10
31.5555
20
-118.843
11
31.6507
21
-118.796
0
LINE
8
BLACK
6
CONTINUOUS
10
31.6507
20
-118.796
11
31.7936
21
-118.796
0
LINE
8
BLACK
6
CONTINUOUS
10
31.7936
20
-118.796
11
31.8888
21
-118.843
0
LINE
8
BLACK
6
CONTINUOUS
10
31.8888
20
-118.843
11
31.9364
21
-118.939
0
LINE
8
BLACK
6
CONTINUOUS
10
31.9364
20
-118.939
11
31.9364
21
-119.462
0
LINE
8
BLACK
6
CONTINUOUS
10
-51.24
20
-117.71
11
105.97
21
-117.71
0
LINE
8
BLACK
6
CONTINUOUS
10
-51.24
20
-114.825
11
-51.24
21
-118.296
0
LINE
8
BLACK
6
CONTINUOUS
10
105.97
20
-114.825
11
105.97
21
-118.296
0
LINE
8
BLACK
6
CONTINUOUS
10
105.97
20
-117.71
11
104.843
21
-118.296
0
LINE
8
BLACK
6
CONTINUOUS
10
105.97
20
-117.71
11
104.843
21
-117.124
0
LINE
8
BLACK
6
CONTINUOUS
10
-51.24
20
-117.71
11
-50.1135
21
-118.296
0
LINE
8
BLACK
6
CONTINUOUS
10
-51.24
20
-117.71
11
-50.1135
21
-117.124
0
LINE
8
BLACK
6
CONTINUOUS
10
-24.3072
20
-68.28
11
-21.0072
21
-68.28
0
LINE
8
BLACK
6
CONTINUOUS
10
-26.0322
20
-81.78
11
-26.0322
21
-78.55
0
LINE
8
BLACK
6
CONTINUOUS
10
-26.0322
20
-75.765
11
-26.0322
21
-69.48
0
LINE
8
BLACK
6
CONTINUOUS
10
-17.756
20
-69.25
11
-17.756
21
-73.95
0
LINE
8
BLACK
6
CONTINUOUS
10
-26.0322
20
-69.48
11
-24.3072
21
-69.48
0
LINE
8
BLACK
6
CONTINUOUS
10
-26.8573
20
-75.765
11
-26.8573
21
-78.55
0
LINE
8
BLACK
6
CONTINUOUS
10
-2.23075
20
-78.55
11
-3.75575
21
-78.55
0
LINE
8
BLACK
6
CONTINUOUS
10
-24.3072
20
-69.48
11
-24.3072
21
-68.28
0
LINE
8
BLACK
6
CONTINUOUS
10
-19.281
20
-78.55
11
-19.281
21
-81.78
0
LINE
8
BLACK
6
CONTINUOUS
10
-19.281
20
-69.48
11
-19.281
21
-73.95
0
LINE
8
BLACK
6
CONTINUOUS
10
4.5205
20
-78.55
11
5.3455
21
-78.55
0
LINE
8
BLACK
6
CONTINUOUS
10
-0.5045
20
-69.48
11
-0.5045
21
-68.28
0
LINE
8
BLACK
6
CONTINUOUS
10
5.3455
20
-75.765
11
5.3455
21
-78.55
0
LINE
8
BLACK
6
CONTINUOUS
10
-21.0075
20
-69.48
11
-19.2825
21
-69.48
0
LINE
8
BLACK
6
CONTINUOUS
10
-26.0322
20
-75.765
11
-26.8573
21
-75.765
0
LINE
8
BLACK
6
CONTINUOUS
10
-21.0072
20
-69.48
11
-21.0072
21
-68.28
0
LINE
8
BLACK
6
CONTINUOUS
10
-19.281
20
-78.55
11
-17.756
21
-78.55
0
LINE
8
BLACK
6
CONTINUOUS
10
-26.0322
20
-78.55
11
-26.8573
21
-78.55
0
LINE
8
BLACK
6
CONTINUOUS
10
4.5205
20
-75.765
11
4.5205
21
-69.48
0
LINE
8
BLACK
6
CONTINUOUS
10
-26.0322
20
-81.78
11
-19.2822
21
-81.78
0
LINE
8
BLACK
6
CONTINUOUS
10
9.08238
20
-83.8793
11
9.08238
21
-83.2602
0
LINE
8
BLACK
6
CONTINUOUS
10
9.08238
20
-83.2602
11
9.46333
21
-83.5936
0
LINE
8
BLACK
6
CONTINUOUS
10
9.46333
20
-83.5936
11
9.46333
21
-83.4507
0
LINE
8
BLACK
6
CONTINUOUS
10
9.46333
20
-83.4507
11
9.51095
21
-83.3555
0
LINE
8
BLACK
6
CONTINUOUS
10
9.51095
20
-83.3555
11
9.55857
21
-83.3079
0
LINE
8
BLACK
6
CONTINUOUS
10
9.55857
20
-83.3079
11
9.65381
21
-83.2602
0
LINE
8
BLACK
6
CONTINUOUS
10
9.65381
20
-83.2602
11
9.8919
21
-83.2602
0
LINE
8
BLACK
6
CONTINUOUS
10
9.8919
20
-83.2602
11
9.98714
21
-83.3079
0
LINE
8
BLACK
6
CONTINUOUS
10
9.98714
20
-83.3079
11
10.0348
21
-83.3555
0
LINE
8
BLACK
6
CONTINUOUS
10
10.0348
20
-83.3555
11
10.0824
21
-83.4507
0
LINE
8
BLACK
6
CONTINUOUS
10
10.0824
20
-83.4507
11
10.0824
21
-83.7364
0
LINE
8
BLACK
6
CONTINUOUS
10
10.0824
20
-83.7364
11
10.0348
21
-83.8317
0
LINE
8
BLACK
6
CONTINUOUS
10
10.0348
20
-83.8317
11
9.98714
21
-83.8793
0
LINE
8
BLACK
6
CONTINUOUS
10
9.98714
20
-82.8317
11
10.0348
21
-82.784
0
LINE
8
BLACK
6
CONTINUOUS
10
10.0348
20
-82.784
11
10.0824
21
-82.8317
0
LINE
8
BLACK
6
CONTINUOUS
10
10.0824
20
-82.8317
11
10.0348
21
-82.8793
0
LINE
8
BLACK
6
CONTINUOUS
10
10.0348
20
-82.8793
11
9.98714
21
-82.8317
0
LINE
8
BLACK
6
CONTINUOUS
10
9.98714
20
-82.8317
11
10.0824
21
-82.8317
0
LINE
8
BLACK
6
CONTINUOUS
10
9.17762
20
-82.4031
11
9.13
21
-82.3555
0
LINE
8
BLACK
6
CONTINUOUS
10
9.13
20
-82.3555
11
9.08238
21
-82.2602
0
LINE
8
BLACK
6
CONTINUOUS
10
9.08238
20
-82.2602
11
9.08238
21
-82.0221
0
LINE
8
BLACK
6
CONTINUOUS
10
9.08238
20
-82.0221
11
9.13
21
-81.9269
0
LINE
8
BLACK
6
CONTINUOUS
10
9.13
20
-81.9269
11
9.17762
21
-81.8793
0
LINE
8
BLACK
6
CONTINUOUS
10
9.17762
20
-81.8793
11
9.27286
21
-81.8317
0
LINE
8
BLACK
6
CONTINUOUS
10
9.27286
20
-81.8317
11
9.3681
21
-81.8317
0
LINE
8
BLACK
6
CONTINUOUS
10
9.3681
20
-81.8317
11
9.51095
21
-81.8793
0
LINE
8
BLACK
6
CONTINUOUS
10
9.51095
20
-81.8793
11
10.0824
21
-82.4507
0
LINE
8
BLACK
6
CONTINUOUS
10
10.0824
20
-82.4507
11
10.0824
21
-81.8317
0
LINE
8
BLACK
6
CONTINUOUS
10
9.08238
20
-81.4983
11
9.08238
21
-80.8793
0
LINE
8
BLACK
6
CONTINUOUS
10
9.08238
20
-80.8793
11
9.46333
21
-81.2126
0
LINE
8
BLACK
6
CONTINUOUS
10
9.46333
20
-81.2126
11
9.46333
21
-81.0698
0
LINE
8
BLACK
6
CONTINUOUS
10
9.46333
20
-81.0698
11
9.51095
21
-80.9745
0
LINE
8
BLACK
6
CONTINUOUS
10
9.51095
20
-80.9745
11
9.55857
21
-80.9269
0
LINE
8
BLACK
6
CONTINUOUS
10
9.55857
20
-80.9269
11
9.65381
21
-80.8793
0
LINE
8
BLACK
6
CONTINUOUS
10
9.65381
20
-80.8793
11
9.8919
21
-80.8793
0
LINE
8
BLACK
6
CONTINUOUS
10
9.8919
20
-80.8793
11
9.98714
21
-80.9269
0
LINE
8
BLACK
6
CONTINUOUS
10
9.98714
20
-80.9269
11
10.0348
21
-80.9745
0
LINE
8
BLACK
6
CONTINUOUS
10
10.0348
20
-80.9745
11
10.0824
21
-81.0698
0
LINE
8
BLACK
6
CONTINUOUS
10
10.0824
20
-81.0698
11
10.0824
21
-81.3555
0
LINE
8
BLACK
6
CONTINUOUS
10
10.0824
20
-81.3555
11
10.0348
21
-81.4507
0
LINE
8
BLACK
6
CONTINUOUS
10
10.0348
20
-81.4507
11
9.98714
21
-81.4983
0
LINE
8
BLACK
6
CONTINUOUS
10
9.08238
20
-80.2602
11
9.08238
21
-80.165
0
LINE
8
BLACK
6
CONTINUOUS
10
9.08238
20
-80.165
11
9.13
21
-80.0698
0
LINE
8
BLACK
6
CONTINUOUS
10
9.13
20
-80.0698
11
9.17762
21
-80.0221
0
LINE
8
BLACK
6
CONTINUOUS
10
9.17762
20
-80.0221
11
9.27286
21
-79.9745
0
LINE
8
BLACK
6
CONTINUOUS
10
9.27286
20
-79.9745
11
9.46333
21
-79.9269
0
LINE
8
BLACK
6
CONTINUOUS
10
9.46333
20
-79.9269
11
9.70143
21
-79.9269
0
LINE
8
BLACK
6
CONTINUOUS
10
9.70143
20
-79.9269
11
9.8919
21
-79.9745
0
LINE
8
BLACK
6
CONTINUOUS
10
9.8919
20
-79.9745
11
9.98714
21
-80.0221
0
LINE
8
BLACK
6
CONTINUOUS
10
9.98714
20
-80.0221
11
10.0348
21
-80.0698
0
LINE
8
BLACK
6
CONTINUOUS
10
10.0348
20
-80.0698
11
10.0824
21
-80.165
0
LINE
8
BLACK
6
CONTINUOUS
10
10.0824
20
-80.165
11
10.0824
21
-80.2602
0
LINE
8
BLACK
6
CONTINUOUS
10
10.0824
20
-80.2602
11
10.0348
21
-80.3555
0
LINE
8
BLACK
6
CONTINUOUS
10
10.0348
20
-80.3555
11
9.98714
21
-80.4031
0
LINE
8
BLACK
6
CONTINUOUS
10
9.98714
20
-80.4031
11
9.8919
21
-80.4507
0
LINE
8
BLACK
6
CONTINUOUS
10
9.8919
20
-80.4507
11
9.70143
21
-80.4983
0
LINE
8
BLACK
6
CONTINUOUS
10
9.70143
20
-80.4983
11
9.46333
21
-80.4983
0
LINE
8
BLACK
6
CONTINUOUS
10
9.46333
20
-80.4983
11
9.27286
21
-80.4507
0
LINE
8
BLACK
6
CONTINUOUS
10
9.27286
20
-80.4507
11
9.17762
21
-80.4031
0
LINE
8
BLACK
6
CONTINUOUS
10
9.17762
20
-80.4031
11
9.13
21
-80.3555
0
LINE
8
BLACK
6
CONTINUOUS
10
9.13
20
-80.3555
11
9.08238
21
-80.2602
0
LINE
8
BLACK
6
CONTINUOUS
10
10.0824
20
-78.7364
11
9.41571
21
-78.7364
0
LINE
8
BLACK
6
CONTINUOUS
10
9.51095
20
-78.7364
11
9.46333
21
-78.6888
0
LINE
8
BLACK
6
CONTINUOUS
10
9.46333
20
-78.6888
11
9.41571
21
-78.5936
0
LINE
8
BLACK
6
CONTINUOUS
10
9.41571
20
-78.5936
11
9.41571
21
-78.4507
0
LINE
8
BLACK
6
CONTINUOUS
10
9.41571
20
-78.4507
11
9.46333
21
-78.3555
0
LINE
8
BLACK
6
CONTINUOUS
10
9.46333
20
-78.3555
11
9.55857
21
-78.3079
0
LINE
8
BLACK
6
CONTINUOUS
10
9.55857
20
-78.3079
11
10.0824
21
-78.3079
0
LINE
8
BLACK
6
CONTINUOUS
10
9.55857
20
-78.3079
11
9.46333
21
-78.2602
0
LINE
8
BLACK
6
CONTINUOUS
10
9.46333
20
-78.2602
11
9.41571
21
-78.165
0
LINE
8
BLACK
6
CONTINUOUS
10
9.41571
20
-78.165
11
9.41571
21
-78.0221
0
LINE
8
BLACK
6
CONTINUOUS
10
9.41571
20
-78.0221
11
9.46333
21
-77.9269
0
LINE
8
BLACK
6
CONTINUOUS
10
9.46333
20
-77.9269
11
9.55857
21
-77.8793
0
LINE
8
BLACK
6
CONTINUOUS
10
9.55857
20
-77.8793
11
10.0824
21
-77.8793
0
LINE
8
BLACK
6
CONTINUOUS
10
10.0824
20
-77.4031
11
9.41571
21
-77.4031
0
LINE
8
BLACK
6
CONTINUOUS
10
9.51095
20
-77.4031
11
9.46333
21
-77.3555
0
LINE
8
BLACK
6
CONTINUOUS
10
9.46333
20
-77.3555
11
9.41571
21
-77.2602
0
LINE
8
BLACK
6
CONTINUOUS
10
9.41571
20
-77.2602
11
9.41571
21
-77.1174
0
LINE
8
BLACK
6
CONTINUOUS
10
9.41571
20
-77.1174
11
9.46333
21
-77.0221
0
LINE
8
BLACK
6
CONTINUOUS
10
9.46333
20
-77.0221
11
9.55857
21
-76.9745
0
LINE
8
BLACK
6
CONTINUOUS
10
9.55857
20
-76.9745
11
10.0824
21
-76.9745
0
LINE
8
BLACK
6
CONTINUOUS
10
9.55857
20
-76.9745
11
9.46333
21
-76.9269
0
LINE
8
BLACK
6
CONTINUOUS
10
9.46333
20
-76.9269
11
9.41571
21
-76.8317
0
LINE
8
BLACK
6
CONTINUOUS
10
9.41571
20
-76.8317
11
9.41571
21
-76.6888
0
LINE
8
BLACK
6
CONTINUOUS
10
9.41571
20
-76.6888
11
9.46333
21
-76.5936
0
LINE
8
BLACK
6
CONTINUOUS
10
9.46333
20
-76.5936
11
9.55857
21
-76.546
0
LINE
8
BLACK
6
CONTINUOUS
10
9.55857
20
-76.546
11
10.0824
21
-76.546
0
LINE
8
BLACK
6
CONTINUOUS
10
8.43
20
-81.78
11
8.43
21
-78.55
0
LINE
8
BLACK
6
CONTINUOUS
10
6.5205
20
-81.78
11
9.01642
21
-81.78
0
LINE
8
BLACK
6
CONTINUOUS
10
6.5205
20
-78.55
11
9.01642
21
-78.55
0
LINE
8
BLACK
6
CONTINUOUS
10
8.43
20
-78.55
11
9.01642
21
-79.6765
0
LINE
8
BLACK
6
CONTINUOUS
10
8.43
20
-78.55
11
7.84358
21
-79.6765
0
LINE
8
BLACK
6
CONTINUOUS
10
8.43
20
-81.78
11
9.01642
21
-80.6535
0
LINE
8
BLACK
6
CONTINUOUS
10
8.43
20
-81.78
11
7.84358
21
-80.6535
0
LINE
8
BLACK
6
CONTINUOUS
10
-23.2401
20
-65.6924
11
-23.8115
21
-65.6924
0
LINE
8
BLACK
6
CONTINUOUS
10
-23.5258
20
-65.6924
11
-23.5258
21
-64.6924
0
LINE
8
BLACK
6
CONTINUOUS
10
-23.5258
20
-64.6924
11
-23.6211
21
-64.8352
0
LINE
8
BLACK
6
CONTINUOUS
10
-23.6211
20
-64.8352
11
-23.7163
21
-64.9305
0
LINE
8
BLACK
6
CONTINUOUS
10
-23.7163
20
-64.9305
11
-23.8115
21
-64.9781
0
LINE
8
BLACK
6
CONTINUOUS
10
-22.8115
20
-65.5971
11
-22.7639
21
-65.6448
0
LINE
8
BLACK
6
CONTINUOUS
10
-22.7639
20
-65.6448
11
-22.8115
21
-65.6924
0
LINE
8
BLACK
6
CONTINUOUS
10
-22.8115
20
-65.6924
11
-22.8592
21
-65.6448
0
LINE
8
BLACK
6
CONTINUOUS
10
-22.8592
20
-65.6448
11
-22.8115
21
-65.5971
0
LINE
8
BLACK
6
CONTINUOUS
10
-22.8115
20
-65.5971
11
-22.8115
21
-65.6924
0
LINE
8
BLACK
6
CONTINUOUS
10
-22.4306
20
-64.6924
11
-21.7639
21
-64.6924
0
LINE
8
BLACK
6
CONTINUOUS
10
-21.7639
20
-64.6924
11
-22.1925
21
-65.6924
0
LINE
8
BLACK
6
CONTINUOUS
10
-21.4306
20
-64.7876
11
-21.383
21
-64.74
0
LINE
8
BLACK
6
CONTINUOUS
10
-21.383
20
-64.74
11
-21.2877
21
-64.6924
0
LINE
8
BLACK
6
CONTINUOUS
10
-21.2877
20
-64.6924
11
-21.0496
21
-64.6924
0
LINE
8
BLACK
6
CONTINUOUS
10
-21.0496
20
-64.6924
11
-20.9544
21
-64.74
0
LINE
8
BLACK
6
CONTINUOUS
10
-20.9544
20
-64.74
11
-20.9068
21
-64.7876
0
LINE
8
BLACK
6
CONTINUOUS
10
-20.9068
20
-64.7876
11
-20.8592
21
-64.8829
0
LINE
8
BLACK
6
CONTINUOUS
10
-20.8592
20
-64.8829
11
-20.8592
21
-64.9781
0
LINE
8
BLACK
6
CONTINUOUS
10
-20.8592
20
-64.9781
11
-20.9068
21
-65.121
0
LINE
8
BLACK
6
CONTINUOUS
10
-20.9068
20
-65.121
11
-21.4782
21
-65.6924
0
LINE
8
BLACK
6
CONTINUOUS
10
-21.4782
20
-65.6924
11
-20.8592
21
-65.6924
0
LINE
8
BLACK
6
CONTINUOUS
10
-19.9544
20
-64.6924
11
-20.4306
21
-64.6924
0
LINE
8
BLACK
6
CONTINUOUS
10
-20.4306
20
-64.6924
11
-20.4782
21
-65.1686
0
LINE
8
BLACK
6
CONTINUOUS
10
-20.4782
20
-65.1686
11
-20.4306
21
-65.121
0
LINE
8
BLACK
6
CONTINUOUS
10
-20.4306
20
-65.121
11
-20.3354
21
-65.0733
0
LINE
8
BLACK
6
CONTINUOUS
10
-20.3354
20
-65.0733
11
-20.0973
21
-65.0733
0
LINE
8
BLACK
6
CONTINUOUS
10
-20.0973
20
-65.0733
11
-20.002
21
-65.121
0
LINE
8
BLACK
6
CONTINUOUS
10
-20.002
20
-65.121
11
-19.9544
21
-65.1686
0
LINE
8
BLACK
6
CONTINUOUS
10
-19.9544
20
-65.1686
11
-19.9068
21
-65.2638
0
LINE
8
BLACK
6
CONTINUOUS
10
-19.9068
20
-65.2638
11
-19.9068
21
-65.5019
0
LINE
8
BLACK
6
CONTINUOUS
10
-19.9068
20
-65.5019
11
-19.9544
21
-65.5971
0
LINE
8
BLACK
6
CONTINUOUS
10
-19.9544
20
-65.5971
11
-20.002
21
-65.6448
0
LINE
8
BLACK
6
CONTINUOUS
10
-20.002
20
-65.6448
11
-20.0973
21
-65.6924
0
LINE
8
BLACK
6
CONTINUOUS
10
-20.0973
20
-65.6924
11
-20.3354
21
-65.6924
0
LINE
8
BLACK
6
CONTINUOUS
10
-20.3354
20
-65.6924
11
-20.4306
21
-65.6448
0
LINE
8
BLACK
6
CONTINUOUS
10
-20.4306
20
-65.6448
11
-20.4782
21
-65.5971
0
LINE
8
BLACK
6
CONTINUOUS
10
-18.7163
20
-65.6924
11
-18.7163
21
-65.0257
0
LINE
8
BLACK
6
CONTINUOUS
10
-18.7163
20
-65.121
11
-18.6687
21
-65.0733
0
LINE
8
BLACK
6
CONTINUOUS
10
-18.6687
20
-65.0733
11
-18.5734
21
-65.0257
0
LINE
8
BLACK
6
CONTINUOUS
10
-18.5734
20
-65.0257
11
-18.4306
21
-65.0257
0
LINE
8
BLACK
6
CONTINUOUS
10
-18.4306
20
-65.0257
11
-18.3354
21
-65.0733
0
LINE
8
BLACK
6
CONTINUOUS
10
-18.3354
20
-65.0733
11
-18.2877
21
-65.1686
0
LINE
8
BLACK
6
CONTINUOUS
10
-18.2877
20
-65.1686
11
-18.2877
21
-65.6924
0
LINE
8
BLACK
6
CONTINUOUS
10
-18.2877
20
-65.1686
11
-18.2401
21
-65.0733
0
LINE
8
BLACK
6
CONTINUOUS
10
-18.2401
20
-65.0733
11
-18.1449
21
-65.0257
0
LINE
8
BLACK
6
CONTINUOUS
10
-18.1449
20
-65.0257
11
-18.002
21
-65.0257
0
LINE
8
BLACK
6
CONTINUOUS
10
-18.002
20
-65.0257
11
-17.9068
21
-65.0733
0
LINE
8
BLACK
6
CONTINUOUS
10
-17.9068
20
-65.0733
11
-17.8592
21
-65.1686
0
LINE
8
BLACK
6
CONTINUOUS
10
-17.8592
20
-65.1686
11
-17.8592
21
-65.6924
0
LINE
8
BLACK
6
CONTINUOUS
10
-17.383
20
-65.6924
11
-17.383
21
-65.0257
0
LINE
8
BLACK
6
CONTINUOUS
10
-17.383
20
-65.121
11
-17.3354
21
-65.0733
0
LINE
8
BLACK
6
CONTINUOUS
10
-17.3354
20
-65.0733
11
-17.2401
21
-65.0257
0
LINE
8
BLACK
6
CONTINUOUS
10
-17.2401
20
-65.0257
11
-17.0973
21
-65.0257
0
LINE
8
BLACK
6
CONTINUOUS
10
-17.0973
20
-65.0257
11
-17.002
21
-65.0733
0
LINE
8
BLACK
6
CONTINUOUS
10
-17.002
20
-65.0733
11
-16.9544
21
-65.1686
0
LINE
8
BLACK
6
CONTINUOUS
10
-16.9544
20
-65.1686
11
-16.9544
21
-65.6924
0
LINE
8
BLACK
6
CONTINUOUS
10
-16.9544
20
-65.1686
11
-16.9068
21
-65.0733
0
LINE
8
BLACK
6
CONTINUOUS
10
-16.9068
20
-65.0733
11
-16.8115
21
-65.0257
0
LINE
8
BLACK
6
CONTINUOUS
10
-16.8115
20
-65.0257
11
-16.6687
21
-65.0257
0
LINE
8
BLACK
6
CONTINUOUS
10
-16.6687
20
-65.0257
11
-16.5734
21
-65.0733
0
LINE
8
BLACK
6
CONTINUOUS
10
-16.5734
20
-65.0733
11
-16.5258
21
-65.1686
0
LINE
8
BLACK
6
CONTINUOUS
10
-16.5258
20
-65.1686
11
-16.5258
21
-65.6924
0
LINE
8
BLACK
6
CONTINUOUS
10
-21.0072
20
-66.44
11
-19.2825
21
-66.44
0
LINE
8
BLACK
6
CONTINUOUS
10
-21.0072
20
-66.98
11
-21.0072
21
-65.8536
0
LINE
8
BLACK
6
CONTINUOUS
10
-19.2825
20
-66.98
11
-19.2825
21
-65.8536
0
LINE
8
BLACK
6
CONTINUOUS
10
-19.2825
20
-66.44
11
-20.409
21
-67.0264
0
LINE
8
BLACK
6
CONTINUOUS
10
-19.2825
20
-66.44
11
-20.409
21
-65.8536
0
LINE
8
BLACK
6
CONTINUOUS
10
-21.0072
20
-66.44
11
-19.8807
21
-67.0264
0
LINE
8
BLACK
6
CONTINUOUS
10
-21.0072
20
-66.44
11
-19.8807
21
-65.8536
0
LINE
8
BLACK
6
CONTINUOUS
10
-29.7224
20
-72.0586
11
-29.7224
21
-71.4871
0
LINE
8
BLACK
6
CONTINUOUS
10
-29.7224
20
-71.7729
11
-28.7224
21
-71.7729
0
LINE
8
BLACK
6
CONTINUOUS
10
-28.7224
20
-71.7729
11
-28.8652
21
-71.6776
0
LINE
8
BLACK
6
CONTINUOUS
10
-28.8652
20
-71.6776
11
-28.9605
21
-71.5824
0
LINE
8
BLACK
6
CONTINUOUS
10
-28.9605
20
-71.5824
11
-29.0081
21
-71.4871
0
LINE
8
BLACK
6
CONTINUOUS
10
-28.8176
20
-72.4395
11
-28.77
21
-72.4871
0
LINE
8
BLACK
6
CONTINUOUS
10
-28.77
20
-72.4871
11
-28.7224
21
-72.5824
0
LINE
8
BLACK
6
CONTINUOUS
10
-28.7224
20
-72.5824
11
-28.7224
21
-72.8205
0
LINE
8
BLACK
6
CONTINUOUS
10
-28.7224
20
-72.8205
11
-28.77
21
-72.9157
0
LINE
8
BLACK
6
CONTINUOUS
10
-28.77
20
-72.9157
11
-28.8176
21
-72.9633
0
LINE
8
BLACK
6
CONTINUOUS
10
-28.8176
20
-72.9633
11
-28.9129
21
-73.011
0
LINE
8
BLACK
6
CONTINUOUS
10
-28.9129
20
-73.011
11
-29.0081
21
-73.011
0
LINE
8
BLACK
6
CONTINUOUS
10
-29.0081
20
-73.011
11
-29.151
21
-72.9633
0
LINE
8
BLACK
6
CONTINUOUS
10
-29.151
20
-72.9633
11
-29.7224
21
-72.3919
0
LINE
8
BLACK
6
CONTINUOUS
10
-29.7224
20
-72.3919
11
-29.7224
21
-73.011
0
LINE
8
BLACK
6
CONTINUOUS
10
-29.6271
20
-73.4395
11
-29.6748
21
-73.4871
0
LINE
8
BLACK
6
CONTINUOUS
10
-29.6748
20
-73.4871
11
-29.7224
21
-73.4395
0
LINE
8
BLACK
6
CONTINUOUS
10
-29.7224
20
-73.4395
11
-29.6748
21
-73.3919
0
LINE
8
BLACK
6
CONTINUOUS
10
-29.6748
20
-73.3919
11
-29.6271
21
-73.4395
0
LINE
8
BLACK
6
CONTINUOUS
10
-29.6271
20
-73.4395
11
-29.7224
21
-73.4395
0
LINE
8
BLACK
6
CONTINUOUS
10
-28.7224
20
-73.8205
11
-28.7224
21
-74.4395
0
LINE
8
BLACK
6
CONTINUOUS
10
-28.7224
20
-74.4395
11
-29.1033
21
-74.1062
0
LINE
8
BLACK
6
CONTINUOUS
10
-29.1033
20
-74.1062
11
-29.1033
21
-74.249
0
LINE
8
BLACK
6
CONTINUOUS
10
-29.1033
20
-74.249
11
-29.151
21
-74.3443
0
LINE
8
BLACK
6
CONTINUOUS
10
-29.151
20
-74.3443
11
-29.1986
21
-74.3919
0
LINE
8
BLACK
6
CONTINUOUS
10
-29.1986
20
-74.3919
11
-29.2938
21
-74.4395
0
LINE
8
BLACK
6
CONTINUOUS
10
-29.2938
20
-74.4395
11
-29.5319
21
-74.4395
0
LINE
8
BLACK
6
CONTINUOUS
10
-29.5319
20
-74.4395
11
-29.6271
21
-74.3919
0
LINE
8
BLACK
6
CONTINUOUS
10
-29.6271
20
-74.3919
11
-29.6748
21
-74.3443
0
LINE
8
BLACK
6
CONTINUOUS
10
-29.6748
20
-74.3443
11
-29.7224
21
-74.249
0
LINE
8
BLACK
6
CONTINUOUS
10
-29.7224
20
-74.249
11
-29.7224
21
-73.9633
0
LINE
8
BLACK
6
CONTINUOUS
10
-29.7224
20
-73.9633
11
-29.6748
21
-73.8681
0
LINE
8
BLACK
6
CONTINUOUS
10
-29.6748
20
-73.8681
11
-29.6271
21
-73.8205
0
LINE
8
BLACK
6
CONTINUOUS
10
-28.7224
20
-75.0586
11
-28.7224
21
-75.1538
0
LINE
8
BLACK
6
CONTINUOUS
10
-28.7224
20
-75.1538
11
-28.77
21
-75.249
0
LINE
8
BLACK
6
CONTINUOUS
10
-28.77
20
-75.249
11
-28.8176
21
-75.2967
0
LINE
8
BLACK
6
CONTINUOUS
10
-28.8176
20
-75.2967
11
-28.9129
21
-75.3443
0
LINE
8
BLACK
6
CONTINUOUS
10
-28.9129
20
-75.3443
11
-29.1033
21
-75.3919
0
LINE
8
BLACK
6
CONTINUOUS
10
-29.1033
20
-75.3919
11
-29.3414
21
-75.3919
0
LINE
8
BLACK
6
CONTINUOUS
10
-29.3414
20
-75.3919
11
-29.5319
21
-75.3443
0
LINE
8
BLACK
6
CONTINUOUS
10
-29.5319
20
-75.3443
11
-29.6271
21
-75.2967
0
LINE
8
BLACK
6
CONTINUOUS
10
-29.6271
20
-75.2967
11
-29.6748
21
-75.249
0
LINE
8
BLACK
6
CONTINUOUS
10
-29.6748
20
-75.249
11
-29.7224
21
-75.1538
0
LINE
8
BLACK
6
CONTINUOUS
10
-29.7224
20
-75.1538
11
-29.7224
21
-75.0586
0
LINE
8
BLACK
6
CONTINUOUS
10
-29.7224
20
-75.0586
11
-29.6748
21
-74.9633
0
LINE
8
BLACK
6
CONTINUOUS
10
-29.6748
20
-74.9633
11
-29.6271
21
-74.9157
0
LINE
8
BLACK
6
CONTINUOUS
10
-29.6271
20
-74.9157
11
-29.5319
21
-74.8681
0
LINE
8
BLACK
6
CONTINUOUS
10
-29.5319
20
-74.8681
11
-29.3414
21
-74.8205
0
LINE
8
BLACK
6
CONTINUOUS
10
-29.3414
20
-74.8205
11
-29.1033
21
-74.8205
0
LINE
8
BLACK
6
CONTINUOUS
10
-29.1033
20
-74.8205
11
-28.9129
21
-74.8681
0
LINE
8
BLACK
6
CONTINUOUS
10
-28.9129
20
-74.8681
11
-28.8176
21
-74.9157
0
LINE
8
BLACK
6
CONTINUOUS
10
-28.8176
20
-74.9157
11
-28.77
21
-74.9633
0
LINE
8
BLACK
6
CONTINUOUS
10
-28.77
20
-74.9633
11
-28.7224
21
-75.0586
0
LINE
8
BLACK
6
CONTINUOUS
10
-28.7224
20
-76.011
11
-28.7224
21
-76.1062
0
LINE
8
BLACK
6
CONTINUOUS
10
-28.7224
20
-76.1062
11
-28.77
21
-76.2014
0
LINE
8
BLACK
6
CONTINUOUS
10
-28.77
20
-76.2014
11
-28.8176
21
-76.249
0
LINE
8
BLACK
6
CONTINUOUS
10
-28.8176
20
-76.249
11
-28.9129
21
-76.2967
0
LINE
8
BLACK
6
CONTINUOUS
10
-28.9129
20
-76.2967
11
-29.1033
21
-76.3443
0
LINE
8
BLACK
6
CONTINUOUS
10
-29.1033
20
-76.3443
11
-29.3414
21
-76.3443
0
LINE
8
BLACK
6
CONTINUOUS
10
-29.3414
20
-76.3443
11
-29.5319
21
-76.2967
0
LINE
8
BLACK
6
CONTINUOUS
10
-29.5319
20
-76.2967
11
-29.6271
21
-76.249
0
LINE
8
BLACK
6
CONTINUOUS
10
-29.6271
20
-76.249
11
-29.6748
21
-76.2014
0
LINE
8
BLACK
6
CONTINUOUS
10
-29.6748
20
-76.2014
11
-29.7224
21
-76.1062
0
LINE
8
BLACK
6
CONTINUOUS
10
-29.7224
20
-76.1062
11
-29.7224
21
-76.011
0
LINE
8
BLACK
6
CONTINUOUS
10
-29.7224
20
-76.011
11
-29.6748
21
-75.9157
0
LINE
8
BLACK
6
CONTINUOUS
10
-29.6748
20
-75.9157
11
-29.6271
21
-75.8681
0
LINE
8
BLACK
6
CONTINUOUS
10
-29.6271
20
-75.8681
11
-29.5319
21
-75.8205
0
LINE
8
BLACK
6
CONTINUOUS
10
-29.5319
20
-75.8205
11
-29.3414
21
-75.7729
0
LINE
8
BLACK
6
CONTINUOUS
10
-29.3414
20
-75.7729
11
-29.1033
21
-75.7729
0
LINE
8
BLACK
6
CONTINUOUS
10
-29.1033
20
-75.7729
11
-28.9129
21
-75.8205
0
LINE
8
BLACK
6
CONTINUOUS
10
-28.9129
20
-75.8205
11
-28.8176
21
-75.8681
0
LINE
8
BLACK
6
CONTINUOUS
10
-28.8176
20
-75.8681
11
-28.77
21
-75.9157
0
LINE
8
BLACK
6
CONTINUOUS
10
-28.77
20
-75.9157
11
-28.7224
21
-76.011
0
LINE
8
BLACK
6
CONTINUOUS
10
-29.7224
20
-77.5348
11
-29.0557
21
-77.5348
0
LINE
8
BLACK
6
CONTINUOUS
10
-29.151
20
-77.5348
11
-29.1033
21
-77.5824
0
LINE
8
BLACK
6
CONTINUOUS
10
-29.1033
20
-77.5824
11
-29.0557
21
-77.6776
0
LINE
8
BLACK
6
CONTINUOUS
10
-29.0557
20
-77.6776
11
-29.0557
21
-77.8205
0
LINE
8
BLACK
6
CONTINUOUS
10
-29.0557
20
-77.8205
11
-29.1033
21
-77.9157
0
LINE
8
BLACK
6
CONTINUOUS
10
-29.1033
20
-77.9157
11
-29.1986
21
-77.9633
0
LINE
8
BLACK
6
CONTINUOUS
10
-29.1986
20
-77.9633
11
-29.7224
21
-77.9633
0
LINE
8
BLACK
6
CONTINUOUS
10
-29.1986
20
-77.9633
11
-29.1033
21
-78.011
0
LINE
8
BLACK
6
CONTINUOUS
10
-29.1033
20
-78.011
11
-29.0557
21
-78.1062
0
LINE
8
BLACK
6
CONTINUOUS
10
-29.0557
20
-78.1062
11
-29.0557
21
-78.249
0
LINE
8
BLACK
6
CONTINUOUS
10
-29.0557
20
-78.249
11
-29.1033
21
-78.3443
0
LINE
8
BLACK
6
CONTINUOUS
10
-29.1033
20
-78.3443
11
-29.1986
21
-78.3919
0
LINE
8
BLACK
6
CONTINUOUS
10
-29.1986
20
-78.3919
11
-29.7224
21
-78.3919
0
LINE
8
BLACK
6
CONTINUOUS
10
-29.7224
20
-78.8681
11
-29.0557
21
-78.8681
0
LINE
8
BLACK
6
CONTINUOUS
10
-29.151
20
-78.8681
11
-29.1033
21
-78.9157
0
LINE
8
BLACK
6
CONTINUOUS
10
-29.1033
20
-78.9157
11
-29.0557
21
-79.011
0
LINE
8
BLACK
6
CONTINUOUS
10
-29.0557
20
-79.011
11
-29.0557
21
-79.1538
0
LINE
8
BLACK
6
CONTINUOUS
10
-29.0557
20
-79.1538
11
-29.1033
21
-79.249
0
LINE
8
BLACK
6
CONTINUOUS
10
-29.1033
20
-79.249
11
-29.1986
21
-79.2967
0
LINE
8
BLACK
6
CONTINUOUS
10
-29.1986
20
-79.2967
11
-29.7224
21
-79.2967
0
LINE
8
BLACK
6
CONTINUOUS
10
-29.1986
20
-79.2967
11
-29.1033
21
-79.3443
0
LINE
8
BLACK
6
CONTINUOUS
10
-29.1033
20
-79.3443
11
-29.0557
21
-79.4395
0
LINE
8
BLACK
6
CONTINUOUS
10
-29.0557
20
-79.4395
11
-29.0557
21
-79.5824
0
LINE
8
BLACK
6
CONTINUOUS
10
-29.0557
20
-79.5824
11
-29.1033
21
-79.6776
0
LINE
8
BLACK
6
CONTINUOUS
10
-29.1033
20
-79.6776
11
-29.1986
21
-79.7252
0
LINE
8
BLACK
6
CONTINUOUS
10
-29.1986
20
-79.7252
11
-29.7224
21
-79.7252
0
LINE
8
BLACK
6
CONTINUOUS
10
-28.07
20
-69.48
11
-28.07
21
-81.78
0
LINE
8
BLACK
6
CONTINUOUS
10
-27.0322
20
-69.48
11
-28.6564
21
-69.48
0
LINE
8
BLACK
6
CONTINUOUS
10
-27.0322
20
-81.78
11
-28.6564
21
-81.78
0
LINE
8
BLACK
6
CONTINUOUS
10
-28.07
20
-81.78
11
-28.6564
21
-80.6535
0
LINE
8
BLACK
6
CONTINUOUS
10
-28.07
20
-81.78
11
-27.4836
21
-80.6535
0
LINE
8
BLACK
6
CONTINUOUS
10
-28.07
20
-69.48
11
-28.6564
21
-70.6065
0
LINE
8
BLACK
6
CONTINUOUS
10
-28.07
20
-69.48
11
-27.4836
21
-70.6065
0
LINE
8
BLACK
6
CONTINUOUS
10
-2.04498
20
-83.8724
11
-2.23545
21
-83.8724
0
LINE
8
BLACK
6
CONTINUOUS
10
-2.23545
20
-83.8724
11
-2.33069
21
-83.92
0
LINE
8
BLACK
6
CONTINUOUS
10
-2.33069
20
-83.92
11
-2.37831
21
-83.9676
0
LINE
8
BLACK
6
CONTINUOUS
10
-2.37831
20
-83.9676
11
-2.47355
21
-84.1105
0
LINE
8
BLACK
6
CONTINUOUS
10
-2.47355
20
-84.1105
11
-2.52117
21
-84.301
0
LINE
8
BLACK
6
CONTINUOUS
10
-2.52117
20
-84.301
11
-2.52117
21
-84.6819
0
LINE
8
BLACK
6
CONTINUOUS
10
-2.52117
20
-84.6819
11
-2.47355
21
-84.7771
0
LINE
8
BLACK
6
CONTINUOUS
10
-2.47355
20
-84.7771
11
-2.42593
21
-84.8248
0
LINE
8
BLACK
6
CONTINUOUS
10
-2.42593
20
-84.8248
11
-2.33069
21
-84.8724
0
LINE
8
BLACK
6
CONTINUOUS
10
-2.33069
20
-84.8724
11
-2.14021
21
-84.8724
0
LINE
8
BLACK
6
CONTINUOUS
10
-2.14021
20
-84.8724
11
-2.04498
21
-84.8248
0
LINE
8
BLACK
6
CONTINUOUS
10
-2.04498
20
-84.8248
11
-1.99736
21
-84.7771
0
LINE
8
BLACK
6
CONTINUOUS
10
-1.99736
20
-84.7771
11
-1.94974
21
-84.6819
0
LINE
8
BLACK
6
CONTINUOUS
10
-1.94974
20
-84.6819
11
-1.94974
21
-84.4438
0
LINE
8
BLACK
6
CONTINUOUS
10
-1.94974
20
-84.4438
11
-1.99736
21
-84.3486
0
LINE
8
BLACK
6
CONTINUOUS
10
-1.99736
20
-84.3486
11
-2.04498
21
-84.301
0
LINE
8
BLACK
6
CONTINUOUS
10
-2.04498
20
-84.301
11
-2.14021
21
-84.2533
0
LINE
8
BLACK
6
CONTINUOUS
10
-2.14021
20
-84.2533
11
-2.33069
21
-84.2533
0
LINE
8
BLACK
6
CONTINUOUS
10
-2.33069
20
-84.2533
11
-2.42593
21
-84.301
0
LINE
8
BLACK
6
CONTINUOUS
10
-2.42593
20
-84.301
11
-2.47355
21
-84.3486
0
LINE
8
BLACK
6
CONTINUOUS
10
-2.47355
20
-84.3486
11
-2.52117
21
-84.4438
0
LINE
8
BLACK
6
CONTINUOUS
10
-1.52117
20
-84.7771
11
-1.47355
21
-84.8248
0
LINE
8
BLACK
6
CONTINUOUS
10
-1.47355
20
-84.8248
11
-1.52117
21
-84.8724
0
LINE
8
BLACK
6
CONTINUOUS
10
-1.52117
20
-84.8724
11
-1.56878
21
-84.8248
0
LINE
8
BLACK
6
CONTINUOUS
10
-1.56878
20
-84.8248
11
-1.52117
21
-84.7771
0
LINE
8
BLACK
6
CONTINUOUS
10
-1.52117
20
-84.7771
11
-1.52117
21
-84.8724
0
LINE
8
BLACK
6
CONTINUOUS
10
-1.14021
20
-83.8724
11
-0.473547
21
-83.8724
0
LINE
8
BLACK
6
CONTINUOUS
10
-0.473547
20
-83.8724
11
-0.902119
21
-84.8724
0
LINE
8
BLACK
6
CONTINUOUS
10
0.383595
20
-83.8724
11
-0.092595
21
-83.8724
0
LINE
8
BLACK
6
CONTINUOUS
10
-0.092595
20
-83.8724
11
-0.140214
21
-84.3486
0
LINE
8
BLACK
6
CONTINUOUS
10
-0.140214
20
-84.3486
11
-0.092595
21
-84.301
0
LINE
8
BLACK
6
CONTINUOUS
10
-0.092595
20
-84.301
11
0.002642
21
-84.2533
0
LINE
8
BLACK
6
CONTINUOUS
10
0.002642
20
-84.2533
11
0.240738
21
-84.2533
0
LINE
8
BLACK
6
CONTINUOUS
10
0.240738
20
-84.2533
11
0.335976
21
-84.301
0
LINE
8
BLACK
6
CONTINUOUS
10
0.335976
20
-84.301
11
0.383595
21
-84.3486
0
LINE
8
BLACK
6
CONTINUOUS
10
0.383595
20
-84.3486
11
0.431214
21
-84.4438
0
LINE
8
BLACK
6
CONTINUOUS
10
0.431214
20
-84.4438
11
0.431214
21
-84.6819
0
LINE
8
BLACK
6
CONTINUOUS
10
0.431214
20
-84.6819
11
0.383595
21
-84.7771
0
LINE
8
BLACK
6
CONTINUOUS
10
0.383595
20
-84.7771
11
0.335976
21
-84.8248
0
LINE
8
BLACK
6
CONTINUOUS
10
0.335976
20
-84.8248
11
0.240738
21
-84.8724
0
LINE
8
BLACK
6
CONTINUOUS
10
0.240738
20
-84.8724
11
0.002642
21
-84.8724
0
LINE
8
BLACK
6
CONTINUOUS
10
0.002642
20
-84.8724
11
-0.092595
21
-84.8248
0
LINE
8
BLACK
6
CONTINUOUS
10
-0.092595
20
-84.8248
11
-0.140214
21
-84.7771
0
LINE
8
BLACK
6
CONTINUOUS
10
1.05026
20
-83.8724
11
1.1455
21
-83.8724
0
LINE
8
BLACK
6
CONTINUOUS
10
1.1455
20
-83.8724
11
1.24074
21
-83.92
0
LINE
8
BLACK
6
CONTINUOUS
10
1.24074
20
-83.92
11
1.28836
21
-83.9676
0
LINE
8
BLACK
6
CONTINUOUS
10
1.28836
20
-83.9676
11
1.33598
21
-84.0629
0
LINE
8
BLACK
6
CONTINUOUS
10
1.33598
20
-84.0629
11
1.38359
21
-84.2533
0
LINE
8
BLACK
6
CONTINUOUS
10
1.38359
20
-84.2533
11
1.38359
21
-84.4914
0
LINE
8
BLACK
6
CONTINUOUS
10
1.38359
20
-84.4914
11
1.33598
21
-84.6819
0
LINE
8
BLACK
6
CONTINUOUS
10
1.33598
20
-84.6819
11
1.28836
21
-84.7771
0
LINE
8
BLACK
6
CONTINUOUS
10
1.28836
20
-84.7771
11
1.24074
21
-84.8248
0
LINE
8
BLACK
6
CONTINUOUS
10
1.24074
20
-84.8248
11
1.1455
21
-84.8724
0
LINE
8
BLACK
6
CONTINUOUS
10
1.1455
20
-84.8724
11
1.05026
21
-84.8724
0
LINE
8
BLACK
6
CONTINUOUS
10
1.05026
20
-84.8724
11
0.955023
21
-84.8248
0
LINE
8
BLACK
6
CONTINUOUS
10
0.955023
20
-84.8248
11
0.907404
21
-84.7771
0
LINE
8
BLACK
6
CONTINUOUS
10
0.907404
20
-84.7771
11
0.859785
21
-84.6819
0
LINE
8
BLACK
6
CONTINUOUS
10
0.859785
20
-84.6819
11
0.812166
21
-84.4914
0
LINE
8
BLACK
6
CONTINUOUS
10
0.812166
20
-84.4914
11
0.812166
21
-84.2533
0
LINE
8
BLACK
6
CONTINUOUS
10
0.812166
20
-84.2533
11
0.859785
21
-84.0629
0
LINE
8
BLACK
6
CONTINUOUS
10
0.859785
20
-84.0629
11
0.907404
21
-83.9676
0
LINE
8
BLACK
6
CONTINUOUS
10
0.907404
20
-83.9676
11
0.955023
21
-83.92
0
LINE
8
BLACK
6
CONTINUOUS
10
0.955023
20
-83.92
11
1.05026
21
-83.8724
0
LINE
8
BLACK
6
CONTINUOUS
10
2.57407
20
-84.8724
11
2.57407
21
-84.2057
0
LINE
8
BLACK
6
CONTINUOUS
10
2.57407
20
-84.301
11
2.62169
21
-84.2533
0
LINE
8
BLACK
6
CONTINUOUS
10
2.62169
20
-84.2533
11
2.71693
21
-84.2057
0
LINE
8
BLACK
6
CONTINUOUS
10
2.71693
20
-84.2057
11
2.85979
21
-84.2057
0
LINE
8
BLACK
6
CONTINUOUS
10
2.85979
20
-84.2057
11
2.95502
21
-84.2533
0
LINE
8
BLACK
6
CONTINUOUS
10
2.95502
20
-84.2533
11
3.00264
21
-84.3486
0
LINE
8
BLACK
6
CONTINUOUS
10
3.00264
20
-84.3486
11
3.00264
21
-84.8724
0
LINE
8
BLACK
6
CONTINUOUS
10
3.00264
20
-84.3486
11
3.05026
21
-84.2533
0
LINE
8
BLACK
6
CONTINUOUS
10
3.05026
20
-84.2533
11
3.1455
21
-84.2057
0
LINE
8
BLACK
6
CONTINUOUS
10
3.1455
20
-84.2057
11
3.28836
21
-84.2057
0
LINE
8
BLACK
6
CONTINUOUS
10
3.28836
20
-84.2057
11
3.38359
21
-84.2533
0
LINE
8
BLACK
6
CONTINUOUS
10
3.38359
20
-84.2533
11
3.43121
21
-84.3486
0
LINE
8
BLACK
6
CONTINUOUS
10
3.43121
20
-84.3486
11
3.43121
21
-84.8724
0
LINE
8
BLACK
6
CONTINUOUS
10
3.9074
20
-84.8724
11
3.9074
21
-84.2057
0
LINE
8
BLACK
6
CONTINUOUS
10
3.9074
20
-84.301
11
3.95502
21
-84.2533
0
LINE
8
BLACK
6
CONTINUOUS
10
3.95502
20
-84.2533
11
4.05026
21
-84.2057
0
LINE
8
BLACK
6
CONTINUOUS
10
4.05026
20
-84.2057
11
4.19312
21
-84.2057
0
LINE
8
BLACK
6
CONTINUOUS
10
4.19312
20
-84.2057
11
4.28836
21
-84.2533
0
LINE
8
BLACK
6
CONTINUOUS
10
4.28836
20
-84.2533
11
4.33598
21
-84.3486
0
LINE
8
BLACK
6
CONTINUOUS
10
4.33598
20
-84.3486
11
4.33598
21
-84.8724
0
LINE
8
BLACK
6
CONTINUOUS
10
4.33598
20
-84.3486
11
4.38359
21
-84.2533
0
LINE
8
BLACK
6
CONTINUOUS
10
4.38359
20
-84.2533
11
4.47883
21
-84.2057
0
LINE
8
BLACK
6
CONTINUOUS
10
4.47883
20
-84.2057
11
4.62169
21
-84.2057
0
LINE
8
BLACK
6
CONTINUOUS
10
4.62169
20
-84.2057
11
4.71693
21
-84.2533
0
LINE
8
BLACK
6
CONTINUOUS
10
4.71693
20
-84.2533
11
4.76455
21
-84.3486
0
LINE
8
BLACK
6
CONTINUOUS
10
4.76455
20
-84.3486
11
4.76455
21
-84.8724
0
LINE
8
BLACK
6
CONTINUOUS
10
4.5205
20
-83.22
11
-2.2295
21
-83.22
0
LINE
8
BLACK
6
CONTINUOUS
10
4.5205
20
-82.78
11
4.5205
21
-83.8064
0
LINE
8
BLACK
6
CONTINUOUS
10
-2.2295
20
-82.78
11
-2.2295
21
-83.8064
0
LINE
8
BLACK
6
CONTINUOUS
10
-2.2295
20
-83.22
11
-1.103
21
-82.6336
0
LINE
8
BLACK
6
CONTINUOUS
10
-2.2295
20
-83.22
11
-1.103
21
-83.8064
0
LINE
8
BLACK
6
CONTINUOUS
10
4.5205
20
-83.22
11
3.394
21
-82.6336
0
LINE
8
BLACK
6
CONTINUOUS
10
4.5205
20
-83.22
11
3.394
21
-83.8064
0
LINE
8
BLACK
6
CONTINUOUS
10
-28.265
20
-66.8924
11
-28.8364
21
-66.8924
0
LINE
8
BLACK
6
CONTINUOUS
10
-28.5507
20
-66.8924
11
-28.5507
21
-65.8924
0
LINE
8
BLACK
6
CONTINUOUS
10
-28.5507
20
-65.8924
11
-28.6459
21
-66.0352
0
LINE
8
BLACK
6
CONTINUOUS
10
-28.6459
20
-66.0352
11
-28.7412
21
-66.1305
0
LINE
8
BLACK
6
CONTINUOUS
10
-28.7412
20
-66.1305
11
-28.8364
21
-66.1781
0
LINE
8
BLACK
6
CONTINUOUS
10
-27.8364
20
-66.7971
11
-27.7888
21
-66.8448
0
LINE
8
BLACK
6
CONTINUOUS
10
-27.7888
20
-66.8448
11
-27.8364
21
-66.8924
0
LINE
8
BLACK
6
CONTINUOUS
10
-27.8364
20
-66.8924
11
-27.884
21
-66.8448
0
LINE
8
BLACK
6
CONTINUOUS
10
-27.884
20
-66.8448
11
-27.8364
21
-66.7971
0
LINE
8
BLACK
6
CONTINUOUS
10
-27.8364
20
-66.7971
11
-27.8364
21
-66.8924
0
LINE
8
BLACK
6
CONTINUOUS
10
-27.4555
20
-65.8924
11
-26.7888
21
-65.8924
0
LINE
8
BLACK
6
CONTINUOUS
10
-26.7888
20
-65.8924
11
-27.2174
21
-66.8924
0
LINE
8
BLACK
6
CONTINUOUS
10
-26.4555
20
-65.9876
11
-26.4078
21
-65.94
0
LINE
8
BLACK
6
CONTINUOUS
10
-26.4078
20
-65.94
11
-26.3126
21
-65.8924
0
LINE
8
BLACK
6
CONTINUOUS
10
-26.3126
20
-65.8924
11
-26.0745
21
-65.8924
0
LINE
8
BLACK
6
CONTINUOUS
10
-26.0745
20
-65.8924
11
-25.9793
21
-65.94
0
LINE
8
BLACK
6
CONTINUOUS
10
-25.9793
20
-65.94
11
-25.9317
21
-65.9876
0
LINE
8
BLACK
6
CONTINUOUS
10
-25.9317
20
-65.9876
11
-25.884
21
-66.0829
0
LINE
8
BLACK
6
CONTINUOUS
10
-25.884
20
-66.0829
11
-25.884
21
-66.1781
0
LINE
8
BLACK
6
CONTINUOUS
10
-25.884
20
-66.1781
11
-25.9317
21
-66.321
0
LINE
8
BLACK
6
CONTINUOUS
10
-25.9317
20
-66.321
11
-26.5031
21
-66.8924
0
LINE
8
BLACK
6
CONTINUOUS
10
-26.5031
20
-66.8924
11
-25.884
21
-66.8924
0
LINE
8
BLACK
6
CONTINUOUS
10
-24.9793
20
-65.8924
11
-25.4555
21
-65.8924
0
LINE
8
BLACK
6
CONTINUOUS
10
-25.4555
20
-65.8924
11
-25.5031
21
-66.3686
0
LINE
8
BLACK
6
CONTINUOUS
10
-25.5031
20
-66.3686
11
-25.4555
21
-66.321
0
LINE
8
BLACK
6
CONTINUOUS
10
-25.4555
20
-66.321
11
-25.3602
21
-66.2733
0
LINE
8
BLACK
6
CONTINUOUS
10
-25.3602
20
-66.2733
11
-25.1221
21
-66.2733
0
LINE
8
BLACK
6
CONTINUOUS
10
-25.1221
20
-66.2733
11
-25.0269
21
-66.321
0
LINE
8
BLACK
6
CONTINUOUS
10
-25.0269
20
-66.321
11
-24.9793
21
-66.3686
0
LINE
8
BLACK
6
CONTINUOUS
10
-24.9793
20
-66.3686
11
-24.9317
21
-66.4638
0
LINE
8
BLACK
6
CONTINUOUS
10
-24.9317
20
-66.4638
11
-24.9317
21
-66.7019
0
LINE
8
BLACK
6
CONTINUOUS
10
-24.9317
20
-66.7019
11
-24.9793
21
-66.7971
0
LINE
8
BLACK
6
CONTINUOUS
10
-24.9793
20
-66.7971
11
-25.0269
21
-66.8448
0
LINE
8
BLACK
6
CONTINUOUS
10
-25.0269
20
-66.8448
11
-25.1221
21
-66.8924
0
LINE
8
BLACK
6
CONTINUOUS
10
-25.1221
20
-66.8924
11
-25.3602
21
-66.8924
0
LINE
8
BLACK
6
CONTINUOUS
10
-25.3602
20
-66.8924
11
-25.4555
21
-66.8448
0
LINE
8
BLACK
6
CONTINUOUS
10
-25.4555
20
-66.8448
11
-25.5031
21
-66.7971
0
LINE
8
BLACK
6
CONTINUOUS
10
-23.7412
20
-66.8924
11
-23.7412
21
-66.2257
0
LINE
8
BLACK
6
CONTINUOUS
10
-23.7412
20
-66.321
11
-23.6936
21
-66.2733
0
LINE
8
BLACK
6
CONTINUOUS
10
-23.6936
20
-66.2733
11
-23.5983
21
-66.2257
0
LINE
8
BLACK
6
CONTINUOUS
10
-23.5983
20
-66.2257
11
-23.4555
21
-66.2257
0
LINE
8
BLACK
6
CONTINUOUS
10
-23.4555
20
-66.2257
11
-23.3602
21
-66.2733
0
LINE
8
BLACK
6
CONTINUOUS
10
-23.3602
20
-66.2733
11
-23.3126
21
-66.3686
0
LINE
8
BLACK
6
CONTINUOUS
10
-23.3126
20
-66.3686
11
-23.3126
21
-66.8924
0
LINE
8
BLACK
6
CONTINUOUS
10
-23.3126
20
-66.3686
11
-23.265
21
-66.2733
0
LINE
8
BLACK
6
CONTINUOUS
10
-23.265
20
-66.2733
11
-23.1698
21
-66.2257
0
LINE
8
BLACK
6
CONTINUOUS
10
-23.1698
20
-66.2257
11
-23.0269
21
-66.2257
0
LINE
8
BLACK
6
CONTINUOUS
10
-23.0269
20
-66.2257
11
-22.9317
21
-66.2733
0
LINE
8
BLACK
6
CONTINUOUS
10
-22.9317
20
-66.2733
11
-22.884
21
-66.3686
0
LINE
8
BLACK
6
CONTINUOUS
10
-22.884
20
-66.3686
11
-22.884
21
-66.8924
0
LINE
8
BLACK
6
CONTINUOUS
10
-22.4078
20
-66.8924
11
-22.4078
21
-66.2257
0
LINE
8
BLACK
6
CONTINUOUS
10
-22.4078
20
-66.321
11
-22.3602
21
-66.2733
0
LINE
8
BLACK
6
CONTINUOUS
10
-22.3602
20
-66.2733
11
-22.265
21
-66.2257
0
LINE
8
BLACK
6
CONTINUOUS
10
-22.265
20
-66.2257
11
-22.1221
21
-66.2257
0
LINE
8
BLACK
6
CONTINUOUS
10
-22.1221
20
-66.2257
11
-22.0269
21
-66.2733
0
LINE
8
BLACK
6
CONTINUOUS
10
-22.0269
20
-66.2733
11
-21.9793
21
-66.3686
0
LINE
8
BLACK
6
CONTINUOUS
10
-21.9793
20
-66.3686
11
-21.9793
21
-66.8924
0
LINE
8
BLACK
6
CONTINUOUS
10
-21.9793
20
-66.3686
11
-21.9317
21
-66.2733
0
LINE
8
BLACK
6
CONTINUOUS
10
-21.9317
20
-66.2733
11
-21.8364
21
-66.2257
0
LINE
8
BLACK
6
CONTINUOUS
10
-21.8364
20
-66.2257
11
-21.6936
21
-66.2257
0
LINE
8
BLACK
6
CONTINUOUS
10
-21.6936
20
-66.2257
11
-21.5983
21
-66.2733
0
LINE
8
BLACK
6
CONTINUOUS
10
-21.5983
20
-66.2733
11
-21.5507
21
-66.3686
0
LINE
8
BLACK
6
CONTINUOUS
10
-21.5507
20
-66.3686
11
-21.5507
21
-66.8924
0
LINE
8
BLACK
6
CONTINUOUS
10
-26.0322
20
-67.64
11
-24.3072
21
-67.64
0
LINE
8
BLACK
6
CONTINUOUS
10
-26.0322
20
-67.98
11
-26.0322
21
-67.0536
0
LINE
8
BLACK
6
CONTINUOUS
10
-24.3072
20
-67.98
11
-24.3072
21
-67.0536
0
LINE
8
BLACK
6
CONTINUOUS
10
-24.3072
20
-67.64
11
-25.4338
21
-68.2264
0
LINE
8
BLACK
6
CONTINUOUS
10
-24.3072
20
-67.64
11
-25.4338
21
-67.0536
0
LINE
8
BLACK
6
CONTINUOUS
10
-26.0322
20
-67.64
11
-24.9057
21
-68.2264
0
LINE
8
BLACK
6
CONTINUOUS
10
-26.0322
20
-67.64
11
-24.9057
21
-67.0536
0
LINE
8
BLACK
6
CONTINUOUS
10
-14.3273
20
-66.8824
11
-14.8987
21
-66.8824
0
LINE
8
BLACK
6
CONTINUOUS
10
-14.613
20
-66.8824
11
-14.613
21
-65.8824
0
LINE
8
BLACK
6
CONTINUOUS
10
-14.613
20
-65.8824
11
-14.7083
21
-66.0252
0
LINE
8
BLACK
6
CONTINUOUS
10
-14.7083
20
-66.0252
11
-14.8035
21
-66.1205
0
LINE
8
BLACK
6
CONTINUOUS
10
-14.8035
20
-66.1205
11
-14.8987
21
-66.1681
0
LINE
8
BLACK
6
CONTINUOUS
10
-13.4702
20
-66.2157
11
-13.4702
21
-66.8824
0
LINE
8
BLACK
6
CONTINUOUS
10
-13.7083
20
-65.8348
11
-13.9464
21
-66.549
0
LINE
8
BLACK
6
CONTINUOUS
10
-13.9464
20
-66.549
11
-13.3273
21
-66.549
0
LINE
8
BLACK
6
CONTINUOUS
10
-12.9464
20
-66.7871
11
-12.8987
21
-66.8348
0
LINE
8
BLACK
6
CONTINUOUS
10
-12.8987
20
-66.8348
11
-12.9464
21
-66.8824
0
LINE
8
BLACK
6
CONTINUOUS
10
-12.9464
20
-66.8824
11
-12.994
21
-66.8348
0
LINE
8
BLACK
6
CONTINUOUS
10
-12.994
20
-66.8348
11
-12.9464
21
-66.7871
0
LINE
8
BLACK
6
CONTINUOUS
10
-12.9464
20
-66.7871
11
-12.9464
21
-66.8824
0
LINE
8
BLACK
6
CONTINUOUS
10
-12.2797
20
-65.8824
11
-12.1844
21
-65.8824
0
LINE
8
BLACK
6
CONTINUOUS
10
-12.1844
20
-65.8824
11
-12.0892
21
-65.93
0
LINE
8
BLACK
6
CONTINUOUS
10
-12.0892
20
-65.93
11
-12.0416
21
-65.9776
0
LINE
8
BLACK
6
CONTINUOUS
10
-12.0416
20
-65.9776
11
-11.994
21
-66.0729
0
LINE
8
BLACK
6
CONTINUOUS
10
-11.994
20
-66.0729
11
-11.9464
21
-66.2633
0
LINE
8
BLACK
6
CONTINUOUS
10
-11.9464
20
-66.2633
11
-11.9464
21
-66.5014
0
LINE
8
BLACK
6
CONTINUOUS
10
-11.9464
20
-66.5014
11
-11.994
21
-66.6919
0
LINE
8
BLACK
6
CONTINUOUS
10
-11.994
20
-66.6919
11
-12.0416
21
-66.7871
0
LINE
8
BLACK
6
CONTINUOUS
10
-12.0416
20
-66.7871
11
-12.0892
21
-66.8348
0
LINE
8
BLACK
6
CONTINUOUS
10
-12.0892
20
-66.8348
11
-12.1844
21
-66.8824
0
LINE
8
BLACK
6
CONTINUOUS
10
-12.1844
20
-66.8824
11
-12.2797
21
-66.8824
0
LINE
8
BLACK
6
CONTINUOUS
10
-12.2797
20
-66.8824
11
-12.3749
21
-66.8348
0
LINE
8
BLACK
6
CONTINUOUS
10
-12.3749
20
-66.8348
11
-12.4225
21
-66.7871
0
LINE
8
BLACK
6
CONTINUOUS
10
-12.4225
20
-66.7871
11
-12.4702
21
-66.6919
0
LINE
8
BLACK
6
CONTINUOUS
10
-12.4702
20
-66.6919
11
-12.5178
21
-66.5014
0
LINE
8
BLACK
6
CONTINUOUS
10
-12.5178
20
-66.5014
11
-12.5178
21
-66.2633
0
LINE
8
BLACK
6
CONTINUOUS
10
-12.5178
20
-66.2633
11
-12.4702
21
-66.0729
0
LINE
8
BLACK
6
CONTINUOUS
10
-12.4702
20
-66.0729
11
-12.4225
21
-65.9776
0
LINE
8
BLACK
6
CONTINUOUS
10
-12.4225
20
-65.9776
11
-12.3749
21
-65.93
0
LINE
8
BLACK
6
CONTINUOUS
10
-12.3749
20
-65.93
11
-12.2797
21
-65.8824
0
LINE
8
BLACK
6
CONTINUOUS
10
-11.3273
20
-65.8824
11
-11.2321
21
-65.8824
0
LINE
8
BLACK
6
CONTINUOUS
10
-11.2321
20
-65.8824
11
-11.1368
21
-65.93
0
LINE
8
BLACK
6
CONTINUOUS
10
-11.1368
20
-65.93
11
-11.0892
21
-65.9776
0
LINE
8
BLACK
6
CONTINUOUS
10
-11.0892
20
-65.9776
11
-11.0416
21
-66.0729
0
LINE
8
BLACK
6
CONTINUOUS
10
-11.0416
20
-66.0729
11
-10.994
21
-66.2633
0
LINE
8
BLACK
6
CONTINUOUS
10
-10.994
20
-66.2633
11
-10.994
21
-66.5014
0
LINE
8
BLACK
6
CONTINUOUS
10
-10.994
20
-66.5014
11
-11.0416
21
-66.6919
0
LINE
8
BLACK
6
CONTINUOUS
10
-11.0416
20
-66.6919
11
-11.0892
21
-66.7871
0
LINE
8
BLACK
6
CONTINUOUS
10
-11.0892
20
-66.7871
11
-11.1368
21
-66.8348
0
LINE
8
BLACK
6
CONTINUOUS
10
-11.1368
20
-66.8348
11
-11.2321
21
-66.8824
0
LINE
8
BLACK
6
CONTINUOUS
10
-11.2321
20
-66.8824
11
-11.3273
21
-66.8824
0
LINE
8
BLACK
6
CONTINUOUS
10
-11.3273
20
-66.8824
11
-11.4225
21
-66.8348
0
LINE
8
BLACK
6
CONTINUOUS
10
-11.4225
20
-66.8348
11
-11.4702
21
-66.7871
0
LINE
8
BLACK
6
CONTINUOUS
10
-11.4702
20
-66.7871
11
-11.5178
21
-66.6919
0
LINE
8
BLACK
6
CONTINUOUS
10
-11.5178
20
-66.6919
11
-11.5654
21
-66.5014
0
LINE
8
BLACK
6
CONTINUOUS
10
-11.5654
20
-66.5014
11
-11.5654
21
-66.2633
0
LINE
8
BLACK
6
CONTINUOUS
10
-11.5654
20
-66.2633
11
-11.5178
21
-66.0729
0
LINE
8
BLACK
6
CONTINUOUS
10
-11.5178
20
-66.0729
11
-11.4702
21
-65.9776
0
LINE
8
BLACK
6
CONTINUOUS
10
-11.4702
20
-65.9776
11
-11.4225
21
-65.93
0
LINE
8
BLACK
6
CONTINUOUS
10
-11.4225
20
-65.93
11
-11.3273
21
-65.8824
0
LINE
8
BLACK
6
CONTINUOUS
10
-10.3749
20
-65.8824
11
-10.2797
21
-65.8824
0
LINE
8
BLACK
6
CONTINUOUS
10
-10.2797
20
-65.8824
11
-10.1844
21
-65.93
0
LINE
8
BLACK
6
CONTINUOUS
10
-10.1844
20
-65.93
11
-10.1368
21
-65.9776
0
LINE
8
BLACK
6
CONTINUOUS
10
-10.1368
20
-65.9776
11
-10.0892
21
-66.0729
0
LINE
8
BLACK
6
CONTINUOUS
10
-10.0892
20
-66.0729
11
-10.0416
21
-66.2633
0
LINE
8
BLACK
6
CONTINUOUS
10
-10.0416
20
-66.2633
11
-10.0416
21
-66.5014
0
LINE
8
BLACK
6
CONTINUOUS
10
-10.0416
20
-66.5014
11
-10.0892
21
-66.6919
0
LINE
8
BLACK
6
CONTINUOUS
10
-10.0892
20
-66.6919
11
-10.1368
21
-66.7871
0
LINE
8
BLACK
6
CONTINUOUS
10
-10.1368
20
-66.7871
11
-10.1844
21
-66.8348
0
LINE
8
BLACK
6
CONTINUOUS
10
-10.1844
20
-66.8348
11
-10.2797
21
-66.8824
0
LINE
8
BLACK
6
CONTINUOUS
10
-10.2797
20
-66.8824
11
-10.3749
21
-66.8824
0
LINE
8
BLACK
6
CONTINUOUS
10
-10.3749
20
-66.8824
11
-10.4702
21
-66.8348
0
LINE
8
BLACK
6
CONTINUOUS
10
-10.4702
20
-66.8348
11
-10.5178
21
-66.7871
0
LINE
8
BLACK
6
CONTINUOUS
10
-10.5178
20
-66.7871
11
-10.5654
21
-66.6919
0
LINE
8
BLACK
6
CONTINUOUS
10
-10.5654
20
-66.6919
11
-10.613
21
-66.5014
0
LINE
8
BLACK
6
CONTINUOUS
10
-10.613
20
-66.5014
11
-10.613
21
-66.2633
0
LINE
8
BLACK
6
CONTINUOUS
10
-10.613
20
-66.2633
11
-10.5654
21
-66.0729
0
LINE
8
BLACK
6
CONTINUOUS
10
-10.5654
20
-66.0729
11
-10.5178
21
-65.9776
0
LINE
8
BLACK
6
CONTINUOUS
10
-10.5178
20
-65.9776
11
-10.4702
21
-65.93
0
LINE
8
BLACK
6
CONTINUOUS
10
-10.4702
20
-65.93
11
-10.3749
21
-65.8824
0
LINE
8
BLACK
6
CONTINUOUS
10
-8.85111
20
-66.8824
11
-8.85111
21
-66.2157
0
LINE
8
BLACK
6
CONTINUOUS
10
-8.85111
20
-66.311
11
-8.80349
21
-66.2633
0
LINE
8
BLACK
6
CONTINUOUS
10
-8.80349
20
-66.2633
11
-8.70825
21
-66.2157
0
LINE
8
BLACK
6
CONTINUOUS
10
-8.70825
20
-66.2157
11
-8.5654
21
-66.2157
0
LINE
8
BLACK
6
CONTINUOUS
10
-8.5654
20
-66.2157
11
-8.47016
21
-66.2633
0
LINE
8
BLACK
6
CONTINUOUS
10
-8.47016
20
-66.2633
11
-8.42254
21
-66.3586
0
LINE
8
BLACK
6
CONTINUOUS
10
-8.42254
20
-66.3586
11
-8.42254
21
-66.8824
0
LINE
8
BLACK
6
CONTINUOUS
10
-8.42254
20
-66.3586
11
-8.37492
21
-66.2633
0
LINE
8
BLACK
6
CONTINUOUS
10
-8.37492
20
-66.2633
11
-8.27968
21
-66.2157
0
LINE
8
BLACK
6
CONTINUOUS
10
-8.27968
20
-66.2157
11
-8.13683
21
-66.2157
0
LINE
8
BLACK
6
CONTINUOUS
10
-8.13683
20
-66.2157
11
-8.04159
21
-66.2633
0
LINE
8
BLACK
6
CONTINUOUS
10
-8.04159
20
-66.2633
11
-7.99397
21
-66.3586
0
LINE
8
BLACK
6
CONTINUOUS
10
-7.99397
20
-66.3586
11
-7.99397
21
-66.8824
0
LINE
8
BLACK
6
CONTINUOUS
10
-7.51778
20
-66.8824
11
-7.51778
21
-66.2157
0
LINE
8
BLACK
6
CONTINUOUS
10
-7.51778
20
-66.311
11
-7.47016
21
-66.2633
0
LINE
8
BLACK
6
CONTINUOUS
10
-7.47016
20
-66.2633
11
-7.37492
21
-66.2157
0
LINE
8
BLACK
6
CONTINUOUS
10
-7.37492
20
-66.2157
11
-7.23206
21
-66.2157
0
LINE
8
BLACK
6
CONTINUOUS
10
-7.23206
20
-66.2157
11
-7.13683
21
-66.2633
0
LINE
8
BLACK
6
CONTINUOUS
10
-7.13683
20
-66.2633
11
-7.08921
21
-66.3586
0
LINE
8
BLACK
6
CONTINUOUS
10
-7.08921
20
-66.3586
11
-7.08921
21
-66.8824
0
LINE
8
BLACK
6
CONTINUOUS
10
-7.08921
20
-66.3586
11
-7.04159
21
-66.2633
0
LINE
8
BLACK
6
CONTINUOUS
10
-7.04159
20
-66.2633
11
-6.94635
21
-66.2157
0
LINE
8
BLACK
6
CONTINUOUS
10
-6.94635
20
-66.2157
11
-6.80349
21
-66.2157
0
LINE
8
BLACK
6
CONTINUOUS
10
-6.80349
20
-66.2157
11
-6.70825
21
-66.2633
0
LINE
8
BLACK
6
CONTINUOUS
10
-6.70825
20
-66.2633
11
-6.66064
21
-66.3586
0
LINE
8
BLACK
6
CONTINUOUS
10
-6.66064
20
-66.3586
11
-6.66064
21
-66.8824
0
LINE
8
BLACK
6
CONTINUOUS
10
-17.756
20
-67.63
11
-3.75575
21
-67.63
0
LINE
8
BLACK
6
CONTINUOUS
10
-17.756
20
-68.25
11
-17.756
21
-67.0436
0
LINE
8
BLACK
6
CONTINUOUS
10
-3.75575
20
-68.25
11
-3.75575
21
-67.0436
0
LINE
8
BLACK
6
CONTINUOUS
10
-3.75575
20
-67.63
11
-4.88225
21
-68.2164
0
LINE
8
BLACK
6
CONTINUOUS
10
-3.75575
20
-67.63
11
-4.88225
21
-67.0436
0
LINE
8
BLACK
6
CONTINUOUS
10
-17.756
20
-67.63
11
-16.6295
21
-68.2164
0
LINE
8
BLACK
6
CONTINUOUS
10
-17.756
20
-67.63
11
-16.6295
21
-67.0436
0
LINE
8
BLACK
6
CONTINUOUS
10
-2.56879
20
-65.3724
11
-1.94974
21
-65.3724
0
LINE
8
BLACK
6
CONTINUOUS
10
-1.94974
20
-65.3724
11
-2.28307
21
-65.7533
0
LINE
8
BLACK
6
CONTINUOUS
10
-2.28307
20
-65.7533
11
-2.14021
21
-65.7533
0
LINE
8
BLACK
6
CONTINUOUS
10
-2.14021
20
-65.7533
11
-2.04498
21
-65.801
0
LINE
8
BLACK
6
CONTINUOUS
10
-2.04498
20
-65.801
11
-1.99736
21
-65.8486
0
LINE
8
BLACK
6
CONTINUOUS
10
-1.99736
20
-65.8486
11
-1.94974
21
-65.9438
0
LINE
8
BLACK
6
CONTINUOUS
10
-1.94974
20
-65.9438
11
-1.94974
21
-66.1819
0
LINE
8
BLACK
6
CONTINUOUS
10
-1.94974
20
-66.1819
11
-1.99736
21
-66.2771
0
LINE
8
BLACK
6
CONTINUOUS
10
-1.99736
20
-66.2771
11
-2.04498
21
-66.3248
0
LINE
8
BLACK
6
CONTINUOUS
10
-2.04498
20
-66.3248
11
-2.14021
21
-66.3724
0
LINE
8
BLACK
6
CONTINUOUS
10
-2.14021
20
-66.3724
11
-2.42593
21
-66.3724
0
LINE
8
BLACK
6
CONTINUOUS
10
-2.42593
20
-66.3724
11
-2.52117
21
-66.3248
0
LINE
8
BLACK
6
CONTINUOUS
10
-2.52117
20
-66.3248
11
-2.56879
21
-66.2771
0
LINE
8
BLACK
6
CONTINUOUS
10
-1.52117
20
-66.2771
11
-1.47355
21
-66.3248
0
LINE
8
BLACK
6
CONTINUOUS
10
-1.47355
20
-66.3248
11
-1.52117
21
-66.3724
0
LINE
8
BLACK
6
CONTINUOUS
10
-1.52117
20
-66.3724
11
-1.56878
21
-66.3248
0
LINE
8
BLACK
6
CONTINUOUS
10
-1.56878
20
-66.3248
11
-1.52117
21
-66.2771
0
LINE
8
BLACK
6
CONTINUOUS
10
-1.52117
20
-66.2771
11
-1.52117
21
-66.3724
0
LINE
8
BLACK
6
CONTINUOUS
10
-1.14021
20
-65.3724
11
-0.521166
21
-65.3724
0
LINE
8
BLACK
6
CONTINUOUS
10
-0.521166
20
-65.3724
11
-0.8545
21
-65.7533
0
LINE
8
BLACK
6
CONTINUOUS
10
-0.8545
20
-65.7533
11
-0.711642
21
-65.7533
0
LINE
8
BLACK
6
CONTINUOUS
10
-0.711642
20
-65.7533
11
-0.616404
21
-65.801
0
LINE
8
BLACK
6
CONTINUOUS
10
-0.616404
20
-65.801
11
-0.568785
21
-65.8486
0
LINE
8
BLACK
6
CONTINUOUS
10
-0.568785
20
-65.8486
11
-0.521166
21
-65.9438
0
LINE
8
BLACK
6
CONTINUOUS
10
-0.521166
20
-65.9438
11
-0.521166
21
-66.1819
0
LINE
8
BLACK
6
CONTINUOUS
10
-0.521166
20
-66.1819
11
-0.568785
21
-66.2771
0
LINE
8
BLACK
6
CONTINUOUS
10
-0.568785
20
-66.2771
11
-0.616404
21
-66.3248
0
LINE
8
BLACK
6
CONTINUOUS
10
-0.616404
20
-66.3248
11
-0.711642
21
-66.3724
0
LINE
8
BLACK
6
CONTINUOUS
10
-0.711642
20
-66.3724
11
-0.997357
21
-66.3724
0
LINE
8
BLACK
6
CONTINUOUS
10
-0.997357
20
-66.3724
11
-1.09259
21
-66.3248
0
LINE
8
BLACK
6
CONTINUOUS
10
-1.09259
20
-66.3248
11
-1.14021
21
-66.2771
0
LINE
8
BLACK
6
CONTINUOUS
10
0.09788
20
-65.3724
11
0.193119
21
-65.3724
0
LINE
8
BLACK
6
CONTINUOUS
10
0.193119
20
-65.3724
11
0.288357
21
-65.42
0
LINE
8
BLACK
6
CONTINUOUS
10
0.288357
20
-65.42
11
0.335976
21
-65.4676
0
LINE
8
BLACK
6
CONTINUOUS
10
0.335976
20
-65.4676
11
0.383595
21
-65.5629
0
LINE
8
BLACK
6
CONTINUOUS
10
0.383595
20
-65.5629
11
0.431214
21
-65.7533
0
LINE
8
BLACK
6
CONTINUOUS
10
0.431214
20
-65.7533
11
0.431214
21
-65.9914
0
LINE
8
BLACK
6
CONTINUOUS
10
0.431214
20
-65.9914
11
0.383595
21
-66.1819
0
LINE
8
BLACK
6
CONTINUOUS
10
0.383595
20
-66.1819
11
0.335976
21
-66.2771
0
LINE
8
BLACK
6
CONTINUOUS
10
0.335976
20
-66.2771
11
0.288357
21
-66.3248
0
LINE
8
BLACK
6
CONTINUOUS
10
0.288357
20
-66.3248
11
0.193119
21
-66.3724
0
LINE
8
BLACK
6
CONTINUOUS
10
0.193119
20
-66.3724
11
0.09788
21
-66.3724
0
LINE
8
BLACK
6
CONTINUOUS
10
0.09788
20
-66.3724
11
0.002642
21
-66.3248
0
LINE
8
BLACK
6
CONTINUOUS
10
0.002642
20
-66.3248
11
-0.044976
21
-66.2771
0
LINE
8
BLACK
6
CONTINUOUS
10
-0.044976
20
-66.2771
11
-0.092595
21
-66.1819
0
LINE
8
BLACK
6
CONTINUOUS
10
-0.092595
20
-66.1819
11
-0.140214
21
-65.9914
0
LINE
8
BLACK
6
CONTINUOUS
10
-0.140214
20
-65.9914
11
-0.140214
21
-65.7533
0
LINE
8
BLACK
6
CONTINUOUS
10
-0.140214
20
-65.7533
11
-0.092595
21
-65.5629
0
LINE
8
BLACK
6
CONTINUOUS
10
-0.092595
20
-65.5629
11
-0.044976
21
-65.4676
0
LINE
8
BLACK
6
CONTINUOUS
10
-0.044976
20
-65.4676
11
0.002642
21
-65.42
0
LINE
8
BLACK
6
CONTINUOUS
10
0.002642
20
-65.42
11
0.09788
21
-65.3724
0
LINE
8
BLACK
6
CONTINUOUS
10
1.05026
20
-65.3724
11
1.1455
21
-65.3724
0
LINE
8
BLACK
6
CONTINUOUS
10
1.1455
20
-65.3724
11
1.24074
21
-65.42
0
LINE
8
BLACK
6
CONTINUOUS
10
1.24074
20
-65.42
11
1.28836
21
-65.4676
0
LINE
8
BLACK
6
CONTINUOUS
10
1.28836
20
-65.4676
11
1.33598
21
-65.5629
0
LINE
8
BLACK
6
CONTINUOUS
10
1.33598
20
-65.5629
11
1.38359
21
-65.7533
0
LINE
8
BLACK
6
CONTINUOUS
10
1.38359
20
-65.7533
11
1.38359
21
-65.9914
0
LINE
8
BLACK
6
CONTINUOUS
10
1.38359
20
-65.9914
11
1.33598
21
-66.1819
0
LINE
8
BLACK
6
CONTINUOUS
10
1.33598
20
-66.1819
11
1.28836
21
-66.2771
0
LINE
8
BLACK
6
CONTINUOUS
10
1.28836
20
-66.2771
11
1.24074
21
-66.3248
0
LINE
8
BLACK
6
CONTINUOUS
10
1.24074
20
-66.3248
11
1.1455
21
-66.3724
0
LINE
8
BLACK
6
CONTINUOUS
10
1.1455
20
-66.3724
11
1.05026
21
-66.3724
0
LINE
8
BLACK
6
CONTINUOUS
10
1.05026
20
-66.3724
11
0.955023
21
-66.3248
0
LINE
8
BLACK
6
CONTINUOUS
10
0.955023
20
-66.3248
11
0.907404
21
-66.2771
0
LINE
8
BLACK
6
CONTINUOUS
10
0.907404
20
-66.2771
11
0.859785
21
-66.1819
0
LINE
8
BLACK
6
CONTINUOUS
10
0.859785
20
-66.1819
11
0.812166
21
-65.9914
0
LINE
8
BLACK
6
CONTINUOUS
10
0.812166
20
-65.9914
11
0.812166
21
-65.7533
0
LINE
8
BLACK
6
CONTINUOUS
10
0.812166
20
-65.7533
11
0.859785
21
-65.5629
0
LINE
8
BLACK
6
CONTINUOUS
10
0.859785
20
-65.5629
11
0.907404
21
-65.4676
0
LINE
8
BLACK
6
CONTINUOUS
10
0.907404
20
-65.4676
11
0.955023
21
-65.42
0
LINE
8
BLACK
6
CONTINUOUS
10
0.955023
20
-65.42
11
1.05026
21
-65.3724
0
LINE
8
BLACK
6
CONTINUOUS
10
2.57407
20
-66.3724
11
2.57407
21
-65.7057
0
LINE
8
BLACK
6
CONTINUOUS
10
2.57407
20
-65.801
11
2.62169
21
-65.7533
0
LINE
8
BLACK
6
CONTINUOUS
10
2.62169
20
-65.7533
11
2.71693
21
-65.7057
0
LINE
8
BLACK
6
CONTINUOUS
10
2.71693
20
-65.7057
11
2.85979
21
-65.7057
0
LINE
8
BLACK
6
CONTINUOUS
10
2.85979
20
-65.7057
11
2.95502
21
-65.7533
0
LINE
8
BLACK
6
CONTINUOUS
10
2.95502
20
-65.7533
11
3.00264
21
-65.8486
0
LINE
8
BLACK
6
CONTINUOUS
10
3.00264
20
-65.8486
11
3.00264
21
-66.3724
0
LINE
8
BLACK
6
CONTINUOUS
10
3.00264
20
-65.8486
11
3.05026
21
-65.7533
0
LINE
8
BLACK
6
CONTINUOUS
10
3.05026
20
-65.7533
11
3.1455
21
-65.7057
0
LINE
8
BLACK
6
CONTINUOUS
10
3.1455
20
-65.7057
11
3.28836
21
-65.7057
0
LINE
8
BLACK
6
CONTINUOUS
10
3.28836
20
-65.7057
11
3.38359
21
-65.7533
0
LINE
8
BLACK
6
CONTINUOUS
10
3.38359
20
-65.7533
11
3.43121
21
-65.8486
0
LINE
8
BLACK
6
CONTINUOUS
10
3.43121
20
-65.8486
11
3.43121
21
-66.3724
0
LINE
8
BLACK
6
CONTINUOUS
10
3.9074
20
-66.3724
11
3.9074
21
-65.7057
0
LINE
8
BLACK
6
CONTINUOUS
10
3.9074
20
-65.801
11
3.95502
21
-65.7533
0
LINE
8
BLACK
6
CONTINUOUS
10
3.95502
20
-65.7533
11
4.05026
21
-65.7057
0
LINE
8
BLACK
6
CONTINUOUS
10
4.05026
20
-65.7057
11
4.19312
21
-65.7057
0
LINE
8
BLACK
6
CONTINUOUS
10
4.19312
20
-65.7057
11
4.28836
21
-65.7533
0
LINE
8
BLACK
6
CONTINUOUS
10
4.28836
20
-65.7533
11
4.33598
21
-65.8486
0
LINE
8
BLACK
6
CONTINUOUS
10
4.33598
20
-65.8486
11
4.33598
21
-66.3724
0
LINE
8
BLACK
6
CONTINUOUS
10
4.33598
20
-65.8486
11
4.38359
21
-65.7533
0
LINE
8
BLACK
6
CONTINUOUS
10
4.38359
20
-65.7533
11
4.47883
21
-65.7057
0
LINE
8
BLACK
6
CONTINUOUS
10
4.47883
20
-65.7057
11
4.62169
21
-65.7057
0
LINE
8
BLACK
6
CONTINUOUS
10
4.62169
20
-65.7057
11
4.71693
21
-65.7533
0
LINE
8
BLACK
6
CONTINUOUS
10
4.71693
20
-65.7533
11
4.76455
21
-65.8486
0
LINE
8
BLACK
6
CONTINUOUS
10
4.76455
20
-65.8486
11
4.76455
21
-66.3724
0
LINE
8
BLACK
6
CONTINUOUS
10
-0.5045
20
-67.12
11
2.7955
21
-67.12
0
LINE
8
BLACK
6
CONTINUOUS
10
-0.5045
20
-67.28
11
-0.5045
21
-66.5336
0
LINE
8
BLACK
6
CONTINUOUS
10
2.7955
20
-67.28
11
2.7955
21
-66.5336
0
LINE
8
BLACK
6
CONTINUOUS
10
2.7955
20
-67.12
11
1.669
21
-67.7064
0
LINE
8
BLACK
6
CONTINUOUS
10
2.7955
20
-67.12
11
1.669
21
-66.5336
0
LINE
8
BLACK
6
CONTINUOUS
10
-0.5045
20
-67.12
11
0.622004
21
-67.7064
0
LINE
8
BLACK
6
CONTINUOUS
10
-0.5045
20
-67.12
11
0.622004
21
-66.5336
0
LINE
8
BLACK
6
CONTINUOUS
10
8.39238
20
-75.813
11
8.39238
21
-76.0035
0
LINE
8
BLACK
6
CONTINUOUS
10
8.39238
20
-76.0035
11
8.44
21
-76.0987
0
LINE
8
BLACK
6
CONTINUOUS
10
8.44
20
-76.0987
11
8.48762
21
-76.1463
0
LINE
8
BLACK
6
CONTINUOUS
10
8.48762
20
-76.1463
11
8.63048
21
-76.2415
0
LINE
8
BLACK
6
CONTINUOUS
10
8.63048
20
-76.2415
11
8.82095
21
-76.2892
0
LINE
8
BLACK
6
CONTINUOUS
10
8.82095
20
-76.2892
11
9.2019
21
-76.2892
0
LINE
8
BLACK
6
CONTINUOUS
10
9.2019
20
-76.2892
11
9.29714
21
-76.2415
0
LINE
8
BLACK
6
CONTINUOUS
10
9.29714
20
-76.2415
11
9.34476
21
-76.1939
0
LINE
8
BLACK
6
CONTINUOUS
10
9.34476
20
-76.1939
11
9.39238
21
-76.0987
0
LINE
8
BLACK
6
CONTINUOUS
10
9.39238
20
-76.0987
11
9.39238
21
-75.9082
0
LINE
8
BLACK
6
CONTINUOUS
10
9.39238
20
-75.9082
11
9.34476
21
-75.813
0
LINE
8
BLACK
6
CONTINUOUS
10
9.34476
20
-75.813
11
9.29714
21
-75.7654
0
LINE
8
BLACK
6
CONTINUOUS
10
9.29714
20
-75.7654
11
9.2019
21
-75.7177
0
LINE
8
BLACK
6
CONTINUOUS
10
9.2019
20
-75.7177
11
8.96381
21
-75.7177
0
LINE
8
BLACK
6
CONTINUOUS
10
8.96381
20
-75.7177
11
8.86857
21
-75.7654
0
LINE
8
BLACK
6
CONTINUOUS
10
8.86857
20
-75.7654
11
8.82095
21
-75.813
0
LINE
8
BLACK
6
CONTINUOUS
10
8.82095
20
-75.813
11
8.77333
21
-75.9082
0
LINE
8
BLACK
6
CONTINUOUS
10
8.77333
20
-75.9082
11
8.77333
21
-76.0987
0
LINE
8
BLACK
6
CONTINUOUS
10
8.77333
20
-76.0987
11
8.82095
21
-76.1939
0
LINE
8
BLACK
6
CONTINUOUS
10
8.82095
20
-76.1939
11
8.86857
21
-76.2415
0
LINE
8
BLACK
6
CONTINUOUS
10
8.86857
20
-76.2415
11
8.96381
21
-76.2892
0
LINE
8
BLACK
6
CONTINUOUS
10
9.29714
20
-75.2892
11
9.34476
21
-75.2415
0
LINE
8
BLACK
6
CONTINUOUS
10
9.34476
20
-75.2415
11
9.39238
21
-75.2892
0
LINE
8
BLACK
6
CONTINUOUS
10
9.39238
20
-75.2892
11
9.34476
21
-75.3368
0
LINE
8
BLACK
6
CONTINUOUS
10
9.34476
20
-75.3368
11
9.29714
21
-75.2892
0
LINE
8
BLACK
6
CONTINUOUS
10
9.29714
20
-75.2892
11
9.39238
21
-75.2892
0
LINE
8
BLACK
6
CONTINUOUS
10
8.48762
20
-74.8606
11
8.44
21
-74.813
0
LINE
8
BLACK
6
CONTINUOUS
10
8.44
20
-74.813
11
8.39238
21
-74.7177
0
LINE
8
BLACK
6
CONTINUOUS
10
8.39238
20
-74.7177
11
8.39238
21
-74.4796
0
LINE
8
BLACK
6
CONTINUOUS
10
8.39238
20
-74.4796
11
8.44
21
-74.3844
0
LINE
8
BLACK
6
CONTINUOUS
10
8.44
20
-74.3844
11
8.48762
21
-74.3368
0
LINE
8
BLACK
6
CONTINUOUS
10
8.48762
20
-74.3368
11
8.58286
21
-74.2892
0
LINE
8
BLACK
6
CONTINUOUS
10
8.58286
20
-74.2892
11
8.67809
21
-74.2892
0
LINE
8
BLACK
6
CONTINUOUS
10
8.67809
20
-74.2892
11
8.82095
21
-74.3368
0
LINE
8
BLACK
6
CONTINUOUS
10
8.82095
20
-74.3368
11
9.39238
21
-74.9082
0
LINE
8
BLACK
6
CONTINUOUS
10
9.39238
20
-74.9082
11
9.39238
21
-74.2892
0
LINE
8
BLACK
6
CONTINUOUS
10
8.82095
20
-73.7177
11
8.77333
21
-73.813
0
LINE
8
BLACK
6
CONTINUOUS
10
8.77333
20
-73.813
11
8.72571
21
-73.8606
0
LINE
8
BLACK
6
CONTINUOUS
10
8.72571
20
-73.8606
11
8.63048
21
-73.9082
0
LINE
8
BLACK
6
CONTINUOUS
10
8.63048
20
-73.9082
11
8.58286
21
-73.9082
0
LINE
8
BLACK
6
CONTINUOUS
10
8.58286
20
-73.9082
11
8.48762
21
-73.8606
0
LINE
8
BLACK
6
CONTINUOUS
10
8.48762
20
-73.8606
11
8.44
21
-73.813
0
LINE
8
BLACK
6
CONTINUOUS
10
8.44
20
-73.813
11
8.39238
21
-73.7177
0
LINE
8
BLACK
6
CONTINUOUS
10
8.39238
20
-73.7177
11
8.39238
21
-73.5273
0
LINE
8
BLACK
6
CONTINUOUS
10
8.39238
20
-73.5273
11
8.44
21
-73.432
0
LINE
8
BLACK
6
CONTINUOUS
10
8.44
20
-73.432
11
8.48762
21
-73.3844
0
LINE
8
BLACK
6
CONTINUOUS
10
8.48762
20
-73.3844
11
8.58286
21
-73.3368
0
LINE
8
BLACK
6
CONTINUOUS
10
8.58286
20
-73.3368
11
8.63048
21
-73.3368
0
LINE
8
BLACK
6
CONTINUOUS
10
8.63048
20
-73.3368
11
8.72571
21
-73.3844
0
LINE
8
BLACK
6
CONTINUOUS
10
8.72571
20
-73.3844
11
8.77333
21
-73.432
0
LINE
8
BLACK
6
CONTINUOUS
10
8.77333
20
-73.432
11
8.82095
21
-73.5273
0
LINE
8
BLACK
6
CONTINUOUS
10
8.82095
20
-73.5273
11
8.82095
21
-73.7177
0
LINE
8
BLACK
6
CONTINUOUS
10
8.82095
20
-73.7177
11
8.86857
21
-73.813
0
LINE
8
BLACK
6
CONTINUOUS
10
8.86857
20
-73.813
11
8.91619
21
-73.8606
0
LINE
8
BLACK
6
CONTINUOUS
10
8.91619
20
-73.8606
11
9.01143
21
-73.9082
0
LINE
8
BLACK
6
CONTINUOUS
10
9.01143
20
-73.9082
11
9.2019
21
-73.9082
0
LINE
8
BLACK
6
CONTINUOUS
10
9.2019
20
-73.9082
11
9.29714
21
-73.8606
0
LINE
8
BLACK
6
CONTINUOUS
10
9.29714
20
-73.8606
11
9.34476
21
-73.813
0
LINE
8
BLACK
6
CONTINUOUS
10
9.34476
20
-73.813
11
9.39238
21
-73.7177
0
LINE
8
BLACK
6
CONTINUOUS
10
9.39238
20
-73.7177
11
9.39238
21
-73.5273
0
LINE
8
BLACK
6
CONTINUOUS
10
9.39238
20
-73.5273
11
9.34476
21
-73.432
0
LINE
8
BLACK
6
CONTINUOUS
10
9.34476
20
-73.432
11
9.29714
21
-73.3844
0
LINE
8
BLACK
6
CONTINUOUS
10
9.29714
20
-73.3844
11
9.2019
21
-73.3368
0
LINE
8
BLACK
6
CONTINUOUS
10
9.2019
20
-73.3368
11
9.01143
21
-73.3368
0
LINE
8
BLACK
6
CONTINUOUS
10
9.01143
20
-73.3368
11
8.91619
21
-73.3844
0
LINE
8
BLACK
6
CONTINUOUS
10
8.91619
20
-73.3844
11
8.86857
21
-73.432
0
LINE
8
BLACK
6
CONTINUOUS
10
8.86857
20
-73.432
11
8.82095
21
-73.5273
0
LINE
8
BLACK
6
CONTINUOUS
10
8.39238
20
-72.432
11
8.39238
21
-72.9082
0
LINE
8
BLACK
6
CONTINUOUS
10
8.39238
20
-72.9082
11
8.86857
21
-72.9558
0
LINE
8
BLACK
6
CONTINUOUS
10
8.86857
20
-72.9558
11
8.82095
21
-72.9082
0
LINE
8
BLACK
6
CONTINUOUS
10
8.82095
20
-72.9082
11
8.77333
21
-72.813
0
LINE
8
BLACK
6
CONTINUOUS
10
8.77333
20
-72.813
11
8.77333
21
-72.5749
0
LINE
8
BLACK
6
CONTINUOUS
10
8.77333
20
-72.5749
11
8.82095
21
-72.4796
0
LINE
8
BLACK
6
CONTINUOUS
10
8.82095
20
-72.4796
11
8.86857
21
-72.432
0
LINE
8
BLACK
6
CONTINUOUS
10
8.86857
20
-72.432
11
8.96381
21
-72.3844
0
LINE
8
BLACK
6
CONTINUOUS
10
8.96381
20
-72.3844
11
9.2019
21
-72.3844
0
LINE
8
BLACK
6
CONTINUOUS
10
9.2019
20
-72.3844
11
9.29714
21
-72.432
0
LINE
8
BLACK
6
CONTINUOUS
10
9.29714
20
-72.432
11
9.34476
21
-72.4796
0
LINE
8
BLACK
6
CONTINUOUS
10
9.34476
20
-72.4796
11
9.39238
21
-72.5749
0
LINE
8
BLACK
6
CONTINUOUS
10
9.39238
20
-72.5749
11
9.39238
21
-72.813
0
LINE
8
BLACK
6
CONTINUOUS
10
9.39238
20
-72.813
11
9.34476
21
-72.9082
0
LINE
8
BLACK
6
CONTINUOUS
10
9.34476
20
-72.9082
11
9.29714
21
-72.9558
0
LINE
8
BLACK
6
CONTINUOUS
10
9.39238
20
-71.1939
11
8.72571
21
-71.1939
0
LINE
8
BLACK
6
CONTINUOUS
10
8.82095
20
-71.1939
11
8.77333
21
-71.1463
0
LINE
8
BLACK
6
CONTINUOUS
10
8.77333
20
-71.1463
11
8.72571
21
-71.0511
0
LINE
8
BLACK
6
CONTINUOUS
10
8.72571
20
-71.0511
11
8.72571
21
-70.9082
0
LINE
8
BLACK
6
CONTINUOUS
10
8.72571
20
-70.9082
11
8.77333
21
-70.813
0
LINE
8
BLACK
6
CONTINUOUS
10
8.77333
20
-70.813
11
8.86857
21
-70.7654
0
LINE
8
BLACK
6
CONTINUOUS
10
8.86857
20
-70.7654
11
9.39238
21
-70.7654
0
LINE
8
BLACK
6
CONTINUOUS
10
8.86857
20
-70.7654
11
8.77333
21
-70.7177
0
LINE
8
BLACK
6
CONTINUOUS
10
8.77333
20
-70.7177
11
8.72571
21
-70.6225
0
LINE
8
BLACK
6
CONTINUOUS
10
8.72571
20
-70.6225
11
8.72571
21
-70.4796
0
LINE
8
BLACK
6
CONTINUOUS
10
8.72571
20
-70.4796
11
8.77333
21
-70.3844
0
LINE
8
BLACK
6
CONTINUOUS
10
8.77333
20
-70.3844
11
8.86857
21
-70.3368
0
LINE
8
BLACK
6
CONTINUOUS
10
8.86857
20
-70.3368
11
9.39238
21
-70.3368
0
LINE
8
BLACK
6
CONTINUOUS
10
9.39238
20
-69.8606
11
8.72571
21
-69.8606
0
LINE
8
BLACK
6
CONTINUOUS
10
8.82095
20
-69.8606
11
8.77333
21
-69.813
0
LINE
8
BLACK
6
CONTINUOUS
10
8.77333
20
-69.813
11
8.72571
21
-69.7177
0
LINE
8
BLACK
6
CONTINUOUS
10
8.72571
20
-69.7177
11
8.72571
21
-69.5749
0
LINE
8
BLACK
6
CONTINUOUS
10
8.72571
20
-69.5749
11
8.77333
21
-69.4796
0
LINE
8
BLACK
6
CONTINUOUS
10
8.77333
20
-69.4796
11
8.86857
21
-69.432
0
LINE
8
BLACK
6
CONTINUOUS
10
8.86857
20
-69.432
11
9.39238
21
-69.432
0
LINE
8
BLACK
6
CONTINUOUS
10
8.86857
20
-69.432
11
8.77333
21
-69.3844
0
LINE
8
BLACK
6
CONTINUOUS
10
8.77333
20
-69.3844
11
8.72571
21
-69.2892
0
LINE
8
BLACK
6
CONTINUOUS
10
8.72571
20
-69.2892
11
8.72571
21
-69.1463
0
LINE
8
BLACK
6
CONTINUOUS
10
8.72571
20
-69.1463
11
8.77333
21
-69.0511
0
LINE
8
BLACK
6
CONTINUOUS
10
8.77333
20
-69.0511
11
8.86857
21
-69.0035
0
LINE
8
BLACK
6
CONTINUOUS
10
8.86857
20
-69.0035
11
9.39238
21
-69.0035
0
LINE
8
BLACK
6
CONTINUOUS
10
7.74
20
-75.765
11
7.74
21
-69.48
0
LINE
8
BLACK
6
CONTINUOUS
10
6.5205
20
-75.765
11
8.32642
21
-75.765
0
LINE
8
BLACK
6
CONTINUOUS
10
6.5205
20
-69.48
11
8.32642
21
-69.48
0
LINE
8
BLACK
6
CONTINUOUS
10
7.74
20
-69.48
11
8.32642
21
-70.6065
0
LINE
8
BLACK
6
CONTINUOUS
10
7.74
20
-69.48
11
7.15358
21
-70.6065
0
LINE
8
BLACK
6
CONTINUOUS
10
7.74
20
-75.765
11
8.32642
21
-74.6385
0
LINE
8
BLACK
6
CONTINUOUS
10
7.74
20
-75.765
11
7.15358
21
-74.6385
0
LINE
8
BLACK
6
CONTINUOUS
10
-19.281
20
-73.95
11
-17.756
21
-73.95
0
LINE
8
BLACK
6
CONTINUOUS
10
-17.756
20
-78.55
11
-17.756
21
-83.25
0
LINE
8
BLACK
6
CONTINUOUS
10
2.7955
20
-69.48
11
2.7955
21
-68.28
0
LINE
8
BLACK
6
CONTINUOUS
10
-2.23075
20
-73.95
11
-3.75575
21
-73.95
0
LINE
8
BLACK
6
CONTINUOUS
10
4.5205
20
-81.78
11
4.5205
21
-78.55
0
LINE
8
BLACK
6
CONTINUOUS
10
-2.23075
20
-69.48
11
-2.23075
21
-73.95
0
LINE
8
BLACK
6
CONTINUOUS
10
-3.75575
20
-69.25
11
-3.75575
21
-73.95
0
LINE
8
BLACK
6
CONTINUOUS
10
4.5205
20
-75.765
11
5.3455
21
-75.765
0
LINE
8
BLACK
6
CONTINUOUS
10
-2.23075
20
-78.55
11
-2.23075
21
-81.78
0
LINE
8
BLACK
6
CONTINUOUS
10
-0.5045
20
-69.48
11
-2.2295
21
-69.48
0
LINE
8
BLACK
6
CONTINUOUS
10
4.5205
20
-81.78
11
-2.2295
21
-81.78
0
LINE
8
BLACK
6
CONTINUOUS
10
-3.75575
20
-78.55
11
-3.75575
21
-83.25
0
LINE
8
BLACK
6
CONTINUOUS
10
4.5205
20
-69.48
11
2.7955
21
-69.48
0
LINE
8
BLACK
6
CONTINUOUS
10
2.7955
20
-68.28
11
-0.5045
21
-68.28
0
LINE
8
BLACK
6
CONTINUOUS
10
51.3
20
-83.25
11
65.3
21
-83.25
0
LINE
8
BLACK
6
CONTINUOUS
10
93.875
20
-64.2
11
93.875
21
-50.2
0
LINE
8
BLACK
6
CONTINUOUS
10
79.875
20
-50.2
11
79.875
21
-64.2
0
LINE
8
BLACK
6
CONTINUOUS
10
79.875
20
-64.2
11
93.875
21
-64.2
0
LINE
8
BLACK
6
CONTINUOUS
10
93.875
20
-50.2
11
79.875
21
-50.2
0
LINE
8
BLACK
6
CONTINUOUS
10
89.1125
20
-45.15
11
89.1125
21
-31.15
0
LINE
8
BLACK
6
CONTINUOUS
10
75.1125
20
-31.15
11
75.1125
21
-45.15
0
LINE
8
BLACK
6
CONTINUOUS
10
75.1125
20
-45.15
11
89.1125
21
-45.15
0
LINE
8
BLACK
6
CONTINUOUS
10
89.1125
20
-31.15
11
75.1125
21
-31.15
0
LINE
8
BLACK
6
CONTINUOUS
10
74.825
20
-64.2
11
74.825
21
-50.2
0
LINE
8
BLACK
6
CONTINUOUS
10
60.825
20
-50.2
11
60.825
21
-64.2
0
LINE
8
BLACK
6
CONTINUOUS
10
60.825
20
-64.2
11
74.825
21
-64.2
0
LINE
8
BLACK
6
CONTINUOUS
10
74.825
20
-50.2
11
60.825
21
-50.2
0
LINE
8
BLACK
6
CONTINUOUS
10
70.0625
20
-45.15
11
70.0625
21
-31.15
0
LINE
8
BLACK
6
CONTINUOUS
10
56.0625
20
-31.15
11
56.0625
21
-45.15
0
LINE
8
BLACK
6
CONTINUOUS
10
56.0625
20
-45.15
11
70.0625
21
-45.15
0
LINE
8
BLACK
6
CONTINUOUS
10
70.0625
20
-31.15
11
56.0625
21
-31.15
0
LINE
8
BLACK
6
CONTINUOUS
10
55.775
20
-64.2
11
55.775
21
-50.2
0
LINE
8
BLACK
6
CONTINUOUS
10
41.775
20
-50.2
11
41.775
21
-64.2
0
LINE
8
BLACK
6
CONTINUOUS
10
41.775
20
-64.2
11
55.775
21
-64.2
0
LINE
8
BLACK
6
CONTINUOUS
10
55.775
20
-50.2
11
41.775
21
-50.2
0
LINE
8
BLACK
6
CONTINUOUS
10
51.0125
20
-45.15
11
51.0125
21
-31.15
0
LINE
8
BLACK
6
CONTINUOUS
10
37.0125
20
-31.15
11
37.0125
21
-45.15
0
LINE
8
BLACK
6
CONTINUOUS
10
37.0125
20
-45.15
11
51.0125
21
-45.15
0
LINE
8
BLACK
6
CONTINUOUS
10
51.0125
20
-31.15
11
37.0125
21
-31.15
0
LINE
8
BLACK
6
CONTINUOUS
10
36.725
20
-64.2
11
36.725
21
-50.2
0
LINE
8
BLACK
6
CONTINUOUS
10
22.725
20
-50.2
11
22.725
21
-64.2
0
LINE
8
BLACK
6
CONTINUOUS
10
22.725
20
-64.2
11
36.725
21
-64.2
0
LINE
8
BLACK
6
CONTINUOUS
10
36.725
20
-50.2
11
22.725
21
-50.2
0
LINE
8
BLACK
6
CONTINUOUS
10
31.9625
20
-45.15
11
31.9625
21
-31.15
0
LINE
8
BLACK
6
CONTINUOUS
10
17.9625
20
-31.15
11
17.9625
21
-45.15
0
LINE
8
BLACK
6
CONTINUOUS
10
17.9625
20
-45.15
11
31.9625
21
-45.15
0
LINE
8
BLACK
6
CONTINUOUS
10
31.9625
20
-31.15
11
17.9625
21
-31.15
0
LINE
8
BLACK
6
CONTINUOUS
10
12.9125
20
-45.15
11
12.9125
21
-31.15
0
LINE
8
BLACK
6
CONTINUOUS
10
-1.0875
20
-31.15
11
-1.0875
21
-45.15
0
LINE
8
BLACK
6
CONTINUOUS
10
-1.0875
20
-45.15
11
12.9125
21
-45.15
0
LINE
8
BLACK
6
CONTINUOUS
10
12.9125
20
-31.15
11
-1.0875
21
-31.15
0
LINE
8
BLACK
6
CONTINUOUS
10
17.675
20
-64.2
11
17.675
21
-50.2
0
LINE
8
BLACK
6
CONTINUOUS
10
3.675
20
-50.2
11
3.675
21
-64.2
0
LINE
8
BLACK
6
CONTINUOUS
10
3.675
20
-64.2
11
17.675
21
-64.2
0
LINE
8
BLACK
6
CONTINUOUS
10
17.675
20
-50.2
11
3.675
21
-50.2
0
LINE
8
BLACK
6
CONTINUOUS
10
-22.5187
20
-64.2
11
-8.5187
21
-64.2
0
LINE
8
BLACK
6
CONTINUOUS
10
-22.5187
20
-50.2
11
-22.5187
21
-64.2
0
LINE
8
BLACK
6
CONTINUOUS
10
-8.5187
20
-50.2
11
-22.5187
21
-50.2
0
LINE
8
BLACK
6
CONTINUOUS
10
-8.5187
20
-64.2
11
-8.5187
21
-50.2
0
LINE
8
BLACK
6
CONTINUOUS
10
-17.7562
20
-83.25
11
-3.7562
21
-83.25
0
LINE
8
BLACK
6
CONTINUOUS
10
-3.7562
20
-69.25
11
-17.7562
21
-69.25
0
LINE
8
BLACK
6
CONTINUOUS
10
27.2
20
-83.25
11
27.2
21
-69.25
0
LINE
8
BLACK
6
CONTINUOUS
10
13.2
20
-69.25
11
13.2
21
-83.25
0
LINE
8
BLACK
6
CONTINUOUS
10
13.2
20
-83.25
11
27.2
21
-83.25
0
LINE
8
BLACK
6
CONTINUOUS
10
27.2
20
-69.25
11
13.2
21
-69.25
0
LINE
8
BLACK
6
CONTINUOUS
10
46.25
20
-83.25
11
46.25
21
-69.25
0
LINE
8
BLACK
6
CONTINUOUS
10
32.25
20
-69.25
11
32.25
21
-83.25
0
LINE
8
BLACK
6
CONTINUOUS
10
32.25
20
-83.25
11
46.25
21
-83.25
0
LINE
8
BLACK
6
CONTINUOUS
10
46.25
20
-69.25
11
32.25
21
-69.25
0
LINE
8
BLACK
6
CONTINUOUS
10
65.3
20
-83.25
11
65.3
21
-69.25
0
LINE
8
BLACK
6
CONTINUOUS
10
51.3
20
-69.25
11
51.3
21
-83.25
0
LINE
8
BLACK
6
CONTINUOUS
10
65.3
20
-69.25
11
51.3
21
-69.25
0
LINE
8
BLACK
6
CONTINUOUS
10
84.35
20
-83.25
11
84.35
21
-69.25
0
LINE
8
BLACK
6
CONTINUOUS
10
70.35
20
-69.25
11
70.35
21
-83.25
0
LINE
8
BLACK
6
CONTINUOUS
10
70.35
20
-83.25
11
84.35
21
-83.25
0
LINE
8
BLACK
6
CONTINUOUS
10
84.35
20
-69.25
11
70.35
21
-69.25
0
LINE
8
BLACK
6
CONTINUOUS
10
-10.9
20
-45.15
11
-10.9
21
-31.15
0
LINE
8
BLACK
6
CONTINUOUS
10
-24.9
20
-31.15
11
-24.9
21
-45.15
0
LINE
8
BLACK
6
CONTINUOUS
10
-24.9
20
-45.15
11
-10.9
21
-45.15
0
LINE
8
BLACK
6
CONTINUOUS
10
-10.9
20
-31.15
11
-24.9
21
-31.15
0
LINE
8
BLACK
6
CONTINUOUS
10
-34.7125
20
-45.15
11
-34.7125
21
-31.15
0
LINE
8
BLACK
6
CONTINUOUS
10
-48.7125
20
-31.15
11
-48.7125
21
-45.15
0
LINE
8
BLACK
6
CONTINUOUS
10
-48.7125
20
-45.15
11
-34.7125
21
-45.15
0
LINE
8
BLACK
6
CONTINUOUS
10
-34.7125
20
-31.15
11
-48.7125
21
-31.15
0
LINE
8
BLACK
6
CONTINUOUS
10
-34.7125
20
-64.2
11
-34.7125
21
-50.2
0
LINE
8
BLACK
6
CONTINUOUS
10
-48.7125
20
-50.2
11
-48.7125
21
-64.2
0
LINE
8
BLACK
6
CONTINUOUS
10
-48.7125
20
-64.2
11
-34.7125
21
-64.2
0
LINE
8
BLACK
6
CONTINUOUS
10
-34.7125
20
-50.2
11
-48.7125
21
-50.2
0
LINE
8
BLACK
6
CONTINUOUS
10
79.5875
20
-26.1
11
79.5875
21
-12.1
0
LINE
8
BLACK
6
CONTINUOUS
10
79.5875
20
-12.1
11
65.5875
21
-12.1
0
LINE
8
BLACK
6
CONTINUOUS
10
65.5875
20
-26.1
11
79.5875
21
-26.1
0
LINE
8
BLACK
6
CONTINUOUS
10
65.5875
20
-12.1
11
65.5875
21
-26.1
0
LINE
8
BLACK
6
CONTINUOUS
10
-34.7125
20
-83.25
11
-34.7125
21
-69.25
0
LINE
8
BLACK
6
CONTINUOUS
10
-48.7125
20
-69.25
11
-48.7125
21
-83.25
0
LINE
8
BLACK
6
CONTINUOUS
10
-48.7125
20
-83.25
11
-34.7125
21
-83.25
0
LINE
8
BLACK
6
CONTINUOUS
10
-34.7125
20
-69.25
11
-48.7125
21
-69.25
0
LINE
8
BLACK
6
CONTINUOUS
10
103.409
20
-83.25
11
103.409
21
-69.25
0
LINE
8
BLACK
6
CONTINUOUS
10
89.4088
20
-69.25
11
89.4088
21
-83.25
0
LINE
8
BLACK
6
CONTINUOUS
10
89.4088
20
-83.25
11
103.409
21
-83.25
0
LINE
8
BLACK
6
CONTINUOUS
10
103.409
20
-69.25
11
89.4088
21
-69.25
0
LINE
8
BLACK
6
CONTINUOUS
10
41.4875
20
-26.1
11
41.4875
21
-12.1
0
LINE
8
BLACK
6
CONTINUOUS
10
27.4875
20
-12.1
11
27.4875
21
-26.1
0
LINE
8
BLACK
6
CONTINUOUS
10
27.4875
20
-26.1
11
41.4875
21
-26.1
0
LINE
8
BLACK
6
CONTINUOUS
10
41.4875
20
-12.1
11
27.4875
21
-12.1
0
LINE
8
BLACK
6
CONTINUOUS
10
60.5375
20
-26.1
11
60.5375
21
-12.1
0
LINE
8
BLACK
6
CONTINUOUS
10
46.5375
20
-12.1
11
46.5375
21
-26.1
0
LINE
8
BLACK
6
CONTINUOUS
10
46.5375
20
-26.1
11
60.5375
21
-26.1
0
LINE
8
BLACK
6
CONTINUOUS
10
60.5375
20
-12.1
11
46.5375
21
-12.1
0
LINE
8
BLACK
6
CONTINUOUS
10
98.6375
20
-26.1
11
98.6375
21
-12.1
0
LINE
8
BLACK
6
CONTINUOUS
10
84.6375
20
-12.1
11
84.6375
21
-26.1
0
LINE
8
BLACK
6
CONTINUOUS
10
84.6375
20
-26.1
11
98.6375
21
-26.1
0
LINE
8
BLACK
6
CONTINUOUS
10
98.6375
20
-12.1
11
84.6375
21
-12.1
0
LINE
8
BLACK
6
CONTINUOUS
10
3.3875
20
-26.1
11
3.3875
21
-12.1
0
LINE
8
BLACK
6
CONTINUOUS
10
-10.6125
20
-12.1
11
-10.6125
21
-26.1
0
LINE
8
BLACK
6
CONTINUOUS
10
-10.6125
20
-26.1
11
3.3875
21
-26.1
0
LINE
8
BLACK
6
CONTINUOUS
10
3.3875
20
-12.1
11
-10.6125
21
-12.1
0
LINE
8
BLACK
6
CONTINUOUS
10
-15.6625
20
-26.1
11
-15.6625
21
-12.1
0
LINE
8
BLACK
6
CONTINUOUS
10
-29.6625
20
-12.1
11
-29.6625
21
-26.1
0
LINE
8
BLACK
6
CONTINUOUS
10
-29.6625
20
-26.1
11
-15.6625
21
-26.1
0
LINE
8
BLACK
6
CONTINUOUS
10
-15.6625
20
-12.1
11
-29.6625
21
-12.1
0
LINE
8
BLACK
6
CONTINUOUS
10
-34.7125
20
-26.1
11
-34.7125
21
-12.1
0
LINE
8
BLACK
6
CONTINUOUS
10
-48.7125
20
-12.1
11
-48.7125
21
-26.1
0
LINE
8
BLACK
6
CONTINUOUS
10
-48.7125
20
-26.1
11
-34.7125
21
-26.1
0
LINE
8
BLACK
6
CONTINUOUS
10
-34.7125
20
-12.1
11
-48.7125
21
-12.1
0
LINE
8
BLACK
6
CONTINUOUS
10
98.6375
20
-7.05
11
98.6375
21
6.95
0
LINE
8
BLACK
6
CONTINUOUS
10
84.6375
20
6.95
11
84.6375
21
-7.05
0
LINE
8
BLACK
6
CONTINUOUS
10
84.6375
20
-7.05
11
98.6375
21
-7.05
0
LINE
8
BLACK
6
CONTINUOUS
10
98.6375
20
6.95
11
84.6375
21
6.95
0
LINE
8
BLACK
6
CONTINUOUS
10
79.5875
20
-7.05
11
79.5875
21
6.95
0
LINE
8
BLACK
6
CONTINUOUS
10
65.5875
20
6.95
11
65.5875
21
-7.05
0
LINE
8
BLACK
6
CONTINUOUS
10
65.5875
20
-7.05
11
79.5875
21
-7.05
0
LINE
8
BLACK
6
CONTINUOUS
10
79.5875
20
6.95
11
65.5875
21
6.95
0
LINE
8
BLACK
6
CONTINUOUS
10
60.5375
20
-7.05
11
60.5375
21
6.95
0
LINE
8
BLACK
6
CONTINUOUS
10
46.5375
20
6.95
11
46.5375
21
-7.05
0
LINE
8
BLACK
6
CONTINUOUS
10
46.5375
20
-7.05
11
60.5375
21
-7.05
0
LINE
8
BLACK
6
CONTINUOUS
10
60.5375
20
6.95
11
46.5375
21
6.95
0
LINE
8
BLACK
6
CONTINUOUS
10
41.4875
20
-7.05
11
41.4875
21
6.95
0
LINE
8
BLACK
6
CONTINUOUS
10
27.4875
20
6.95
11
27.4875
21
-7.05
0
LINE
8
BLACK
6
CONTINUOUS
10
27.4875
20
-7.05
11
41.4875
21
-7.05
0
LINE
8
BLACK
6
CONTINUOUS
10
41.4875
20
6.95
11
27.4875
21
6.95
0
LINE
8
BLACK
6
CONTINUOUS
10
22.4375
20
-7.05
11
22.4375
21
6.95
0
LINE
8
BLACK
6
CONTINUOUS
10
8.4375
20
6.95
11
8.4375
21
-7.05
0
LINE
8
BLACK
6
CONTINUOUS
10
8.4375
20
-7.05
11
22.4375
21
-7.05
0
LINE
8
BLACK
6
CONTINUOUS
10
22.4375
20
6.95
11
8.4375
21
6.95
0
LINE
8
BLACK
6
CONTINUOUS
10
3.3875
20
-7.05
11
3.3875
21
6.95
0
LINE
8
BLACK
6
CONTINUOUS
10
-10.6125
20
6.95
11
-10.6125
21
-7.05
0
LINE
8
BLACK
6
CONTINUOUS
10
-10.6125
20
-7.05
11
3.3875
21
-7.05
0
LINE
8
BLACK
6
CONTINUOUS
10
3.3875
20
6.95
11
-10.6125
21
6.95
0
LINE
8
BLACK
6
CONTINUOUS
10
-15.6625
20
-7.05
11
-15.6625
21
6.95
0
LINE
8
BLACK
6
CONTINUOUS
10
-29.6625
20
6.95
11
-29.6625
21
-7.05
0
LINE
8
BLACK
6
CONTINUOUS
10
-29.6625
20
-7.05
11
-15.6625
21
-7.05
0
LINE
8
BLACK
6
CONTINUOUS
10
-15.6625
20
6.95
11
-29.6625
21
6.95
0
LINE
8
BLACK
6
CONTINUOUS
10
-34.7125
20
-7.05
11
-34.7125
21
6.95
0
LINE
8
BLACK
6
CONTINUOUS
10
-48.7125
20
6.95
11
-48.7125
21
-7.05
0
LINE
8
BLACK
6
CONTINUOUS
10
-48.7125
20
-7.05
11
-34.7125
21
-7.05
0
LINE
8
BLACK
6
CONTINUOUS
10
-34.7125
20
6.95
11
-48.7125
21
6.95
0
LINE
8
BLACK
6
CONTINUOUS
10
-34.7125
20
-102.3
11
-34.7125
21
-88.3
0
LINE
8
BLACK
6
CONTINUOUS
10
-48.7125
20
-88.3
11
-48.7125
21
-102.3
0
LINE
8
BLACK
6
CONTINUOUS
10
-48.7125
20
-102.3
11
-34.7125
21
-102.3
0
LINE
8
BLACK
6
CONTINUOUS
10
-34.7125
20
-88.3
11
-48.7125
21
-88.3
0
LINE
8
BLACK
6
CONTINUOUS
10
-10.9
20
-102.3
11
-10.9
21
-88.3
0
LINE
8
BLACK
6
CONTINUOUS
10
-24.9
20
-88.3
11
-24.9
21
-102.3
0
LINE
8
BLACK
6
CONTINUOUS
10
-24.9
20
-102.3
11
-10.9
21
-102.3
0
LINE
8
BLACK
6
CONTINUOUS
10
-10.9
20
-88.3
11
-24.9
21
-88.3
0
LINE
8
BLACK
6
CONTINUOUS
10
12.9125
20
-102.3
11
12.9125
21
-88.3
0
LINE
8
BLACK
6
CONTINUOUS
10
-1.08748
20
-88.3
11
-1.08748
21
-102.3
0
LINE
8
BLACK
6
CONTINUOUS
10
-1.08748
20
-102.3
11
12.9125
21
-102.3
0
LINE
8
BLACK
6
CONTINUOUS
10
12.9125
20
-88.3
11
-1.08748
21
-88.3
0
LINE
8
BLACK
6
CONTINUOUS
10
36.725
20
-102.3
11
36.725
21
-88.3
0
LINE
8
BLACK
6
CONTINUOUS
10
22.725
20
-88.3
11
22.725
21
-102.3
0
LINE
8
BLACK
6
CONTINUOUS
10
22.725
20
-102.3
11
36.725
21
-102.3
0
LINE
8
BLACK
6
CONTINUOUS
10
36.725
20
-88.3
11
22.725
21
-88.3
0
LINE
8
BLACK
6
CONTINUOUS
10
77.2062
20
-102.3
11
77.2062
21
-88.3
0
LINE
8
BLACK
6
CONTINUOUS
10
63.2062
20
-88.3
11
63.2062
21
-102.3
0
LINE
8
BLACK
6
CONTINUOUS
10
63.2062
20
-102.3
11
77.2062
21
-102.3
0
LINE
8
BLACK
6
CONTINUOUS
10
77.2062
20
-88.3
11
63.2062
21
-88.3
0
LINE
8
BLACK
6
CONTINUOUS
10
101.019
20
-102.3
11
101.019
21
-88.3
0
LINE
8
BLACK
6
CONTINUOUS
10
87.0188
20
-88.3
11
87.0188
21
-102.3
0
LINE
8
BLACK
6
CONTINUOUS
10
87.0188
20
-102.3
11
101.019
21
-102.3
0
LINE
8
BLACK
6
CONTINUOUS
10
101.019
20
-88.3
11
87.0188
21
-88.3
0
LINE
8
BLACK
6
CONTINUOUS
10
22.4375
20
-26.1
11
22.4375
21
-12.1
0
LINE
8
BLACK
6
CONTINUOUS
10
8.4375
20
-12.1
11
8.4375
21
-26.1
0
LINE
8
BLACK
6
CONTINUOUS
10
8.4375
20
-26.1
11
22.4375
21
-26.1
0
LINE
8
BLACK
6
CONTINUOUS
10
22.4375
20
-12.1
11
8.4375
21
-12.1
0
LINE
8
BLACK
6
CONTINUOUS
10
-51.24
20
8.98
11
-51.24
21
-112.825
0
LINE
8
BLACK
6
CONTINUOUS
10
77.2575
20
-104.825
11
-24.725
21
-104.825
0
LINE
8
BLACK
6
CONTINUOUS
10
77.2575
20
-104.825
11
101.162
21
-104.825
0
LINE
8
BLACK
6
CONTINUOUS
10
-50.685
20
9.475
11
105.475
21
9.475
0
LINE
8
BLACK
6
CONTINUOUS
10
105.97
20
8.92
11
105.97
21
-104.33
0
LINE
8
BLACK
6
CONTINUOUS
10
105.415
20
-104.825
11
101.162
21
-104.825
0
LINE
8
BLACK
6
CONTINUOUS
10
-25.29
20
-112.885
11
-25.29
21
-105.32
0
LINE
8
BLACK
6
CONTINUOUS
10
-25.845
20
-113.38
11
-50.745
21
-113.38
0
ARC
8
BLACK
10
105.445
20
-104.3
40
0.525856
50
-93.2705
51
-3.27049
0
ARC
8
BLACK
10
-24.76
20
-105.355
40
0.531154
50
86.2218
51
176.222
0
ARC
8
BLACK
10
-25.815
20
-112.855
40
0.525856
50
-93.2705
51
-3.27049
0
ARC
8
BLACK
10
-50.715
20
-112.855
40
0.525856
50
-183.27
51
-93.2705
0
ARC
8
BLACK
10
105.445
20
8.95
40
0.525856
50
-3.27049
51
86.7295
0
ARC
8
BLACK
10
-50.715
20
8.95
40
0.525856
50
86.7295
51
176.73
0
LINE
8
BLACK
6
CONTINUOUS
10
87.0745
20
-84.2211
11
87.1857
21
-84.2432
0
LINE
8
BLACK
6
CONTINUOUS
10
87.1857
20
-84.2432
11
87.3952
21
-84.33
0
LINE
8
BLACK
6
CONTINUOUS
10
87.3952
20
-84.33
11
87.5837
21
-84.456
0
LINE
8
BLACK
6
CONTINUOUS
10
87.5837
20
-84.456
11
87.744
21
-84.6163
0
LINE
8
BLACK
6
CONTINUOUS
10
87.744
20
-84.6163
11
87.87
21
-84.8048
0
LINE
8
BLACK
6
CONTINUOUS
10
87.87
20
-84.8048
11
87.9568
21
-85.0143
0
LINE
8
BLACK
6
CONTINUOUS
10
87.9568
20
-85.0143
11
88.001
21
-85.2366
0
LINE
8
BLACK
6
CONTINUOUS
10
88.001
20
-85.2366
11
88.001
21
-85.4634
0
LINE
8
BLACK
6
CONTINUOUS
10
88.001
20
-85.4634
11
87.9568
21
-85.6857
0
LINE
8
BLACK
6
CONTINUOUS
10
87.9568
20
-85.6857
11
87.87
21
-85.8952
0
LINE
8
BLACK
6
CONTINUOUS
10
87.87
20
-85.8952
11
87.744
21
-86.0837
0
LINE
8
BLACK
6
CONTINUOUS
10
87.744
20
-86.0837
11
87.5837
21
-86.244
0
LINE
8
BLACK
6
CONTINUOUS
10
87.5837
20
-86.244
11
87.3952
21
-86.37
0
LINE
8
BLACK
6
CONTINUOUS
10
87.3952
20
-86.37
11
87.1857
21
-86.4568
0
LINE
8
BLACK
6
CONTINUOUS
10
87.1857
20
-86.4568
11
87.0745
21
-86.4789
0
LINE
8
BLACK
6
CONTINUOUS
10
87.0745
20
-86.4789
11
86.9634
21
-86.501
0
LINE
8
BLACK
6
CONTINUOUS
10
86.9634
20
-86.501
11
86.7366
21
-86.501
0
LINE
8
BLACK
6
CONTINUOUS
10
86.7366
20
-86.501
11
86.6255
21
-86.4789
0
LINE
8
BLACK
6
CONTINUOUS
10
86.6255
20
-86.4789
11
86.5143
21
-86.4568
0
LINE
8
BLACK
6
CONTINUOUS
10
86.5143
20
-86.4568
11
86.3048
21
-86.37
0
LINE
8
BLACK
6
CONTINUOUS
10
86.3048
20
-86.37
11
86.1163
21
-86.244
0
LINE
8
BLACK
6
CONTINUOUS
10
86.1163
20
-86.244
11
85.956
21
-86.0837
0
LINE
8
BLACK
6
CONTINUOUS
10
85.956
20
-86.0837
11
85.83
21
-85.8952
0
LINE
8
BLACK
6
CONTINUOUS
10
85.83
20
-85.8952
11
85.7432
21
-85.6857
0
LINE
8
BLACK
6
CONTINUOUS
10
85.7432
20
-85.6857
11
85.699
21
-85.4634
0
LINE
8
BLACK
6
CONTINUOUS
10
85.699
20
-85.4634
11
85.699
21
-85.2366
0
LINE
8
BLACK
6
CONTINUOUS
10
85.699
20
-85.2366
11
85.7432
21
-85.0143
0
LINE
8
BLACK
6
CONTINUOUS
10
85.7432
20
-85.0143
11
85.83
21
-84.8048
0
LINE
8
BLACK
6
CONTINUOUS
10
85.83
20
-84.8048
11
85.956
21
-84.6163
0
LINE
8
BLACK
6
CONTINUOUS
10
85.956
20
-84.6163
11
86.1163
21
-84.456
0
LINE
8
BLACK
6
CONTINUOUS
10
86.1163
20
-84.456
11
86.3048
21
-84.33
0
LINE
8
BLACK
6
CONTINUOUS
10
86.3048
20
-84.33
11
86.5143
21
-84.2432
0
LINE
8
BLACK
6
CONTINUOUS
10
86.5143
20
-84.2432
11
86.6255
21
-84.2211
0
LINE
8
BLACK
6
CONTINUOUS
10
86.6255
20
-84.2211
11
86.7366
21
-84.199
0
LINE
8
BLACK
6
CONTINUOUS
10
86.7366
20
-84.199
11
86.9634
21
-84.199
0
LINE
8
BLACK
6
CONTINUOUS
10
86.9634
20
-84.199
11
87.0745
21
-84.2211
0
LINE
8
BLACK
6
CONTINUOUS
10
-28.9955
20
-84.2211
11
-28.8843
21
-84.2432
0
LINE
8
BLACK
6
CONTINUOUS
10
-28.8843
20
-84.2432
11
-28.6748
21
-84.33
0
LINE
8
BLACK
6
CONTINUOUS
10
-28.6748
20
-84.33
11
-28.4863
21
-84.456
0
LINE
8
BLACK
6
CONTINUOUS
10
-28.4863
20
-84.456
11
-28.326
21
-84.6163
0
LINE
8
BLACK
6
CONTINUOUS
10
-28.326
20
-84.6163
11
-28.2
21
-84.8048
0
LINE
8
BLACK
6
CONTINUOUS
10
-28.2
20
-84.8048
11
-28.1132
21
-85.0143
0
LINE
8
BLACK
6
CONTINUOUS
10
-28.1132
20
-85.0143
11
-28.069
21
-85.2366
0
LINE
8
BLACK
6
CONTINUOUS
10
-28.069
20
-85.2366
11
-28.069
21
-85.4634
0
LINE
8
BLACK
6
CONTINUOUS
10
-28.069
20
-85.4634
11
-28.1132
21
-85.6857
0
LINE
8
BLACK
6
CONTINUOUS
10
-28.1132
20
-85.6857
11
-28.2
21
-85.8952
0
LINE
8
BLACK
6
CONTINUOUS
10
-28.2
20
-85.8952
11
-28.326
21
-86.0837
0
LINE
8
BLACK
6
CONTINUOUS
10
-28.326
20
-86.0837
11
-28.4863
21
-86.244
0
LINE
8
BLACK
6
CONTINUOUS
10
-28.4863
20
-86.244
11
-28.6748
21
-86.37
0
LINE
8
BLACK
6
CONTINUOUS
10
-28.6748
20
-86.37
11
-28.8843
21
-86.4568
0
LINE
8
BLACK
6
CONTINUOUS
10
-28.8843
20
-86.4568
11
-28.9955
21
-86.4789
0
LINE
8
BLACK
6
CONTINUOUS
10
-28.9955
20
-86.4789
11
-29.1066
21
-86.501
0
LINE
8
BLACK
6
CONTINUOUS
10
-29.1066
20
-86.501
11
-29.3334
21
-86.501
0
LINE
8
BLACK
6
CONTINUOUS
10
-29.3334
20
-86.501
11
-29.4445
21
-86.4789
0
LINE
8
BLACK
6
CONTINUOUS
10
-29.4445
20
-86.4789
11
-29.5557
21
-86.4568
0
LINE
8
BLACK
6
CONTINUOUS
10
-29.5557
20
-86.4568
11
-29.7652
21
-86.37
0
LINE
8
BLACK
6
CONTINUOUS
10
-29.7652
20
-86.37
11
-29.9537
21
-86.244
0
LINE
8
BLACK
6
CONTINUOUS
10
-29.9537
20
-86.244
11
-30.114
21
-86.0837
0
LINE
8
BLACK
6
CONTINUOUS
10
-30.114
20
-86.0837
11
-30.24
21
-85.8952
0
LINE
8
BLACK
6
CONTINUOUS
10
-30.24
20
-85.8952
11
-30.3268
21
-85.6857
0
LINE
8
BLACK
6
CONTINUOUS
10
-30.3268
20
-85.6857
11
-30.371
21
-85.4634
0
LINE
8
BLACK
6
CONTINUOUS
10
-30.371
20
-85.4634
11
-30.371
21
-85.2366
0
LINE
8
BLACK
6
CONTINUOUS
10
-30.371
20
-85.2366
11
-30.3268
21
-85.0143
0
LINE
8
BLACK
6
CONTINUOUS
10
-30.3268
20
-85.0143
11
-30.24
21
-84.8048
0
LINE
8
BLACK
6
CONTINUOUS
10
-30.24
20
-84.8048
11
-30.114
21
-84.6163
0
LINE
8
BLACK
6
CONTINUOUS
10
-30.114
20
-84.6163
11
-29.9537
21
-84.456
0
LINE
8
BLACK
6
CONTINUOUS
10
-29.9537
20
-84.456
11
-29.7652
21
-84.33
0
LINE
8
BLACK
6
CONTINUOUS
10
-29.7652
20
-84.33
11
-29.5557
21
-84.2432
0
LINE
8
BLACK
6
CONTINUOUS
10
-29.5557
20
-84.2432
11
-29.4445
21
-84.2211
0
LINE
8
BLACK
6
CONTINUOUS
10
-29.4445
20
-84.2211
11
-29.3334
21
-84.199
0
LINE
8
BLACK
6
CONTINUOUS
10
-29.3334
20
-84.199
11
-29.1066
21
-84.199
0
LINE
8
BLACK
6
CONTINUOUS
10
-29.1066
20
-84.199
11
-28.9955
21
-84.2211
0
LINE
8
BLACK
6
CONTINUOUS
10
34.687
20
-46.1211
11
34.7982
21
-46.1432
0
LINE
8
BLACK
6
CONTINUOUS
10
34.7982
20
-46.1432
11
35.0077
21
-46.23
0
LINE
8
BLACK
6
CONTINUOUS
10
35.0077
20
-46.23
11
35.1962
21
-46.356
0
LINE
8
BLACK
6
CONTINUOUS
10
35.1962
20
-46.356
11
35.3565
21
-46.5163
0
LINE
8
BLACK
6
CONTINUOUS
10
35.3565
20
-46.5163
11
35.4825
21
-46.7048
0
LINE
8
BLACK
6
CONTINUOUS
10
35.4825
20
-46.7048
11
35.5693
21
-46.9143
0
LINE
8
BLACK
6
CONTINUOUS
10
35.5693
20
-46.9143
11
35.6135
21
-47.1366
0
LINE
8
BLACK
6
CONTINUOUS
10
35.6135
20
-47.1366
11
35.6135
21
-47.3634
0
LINE
8
BLACK
6
CONTINUOUS
10
35.6135
20
-47.3634
11
35.5693
21
-47.5857
0
LINE
8
BLACK
6
CONTINUOUS
10
35.5693
20
-47.5857
11
35.4825
21
-47.7952
0
LINE
8
BLACK
6
CONTINUOUS
10
35.4825
20
-47.7952
11
35.3565
21
-47.9837
0
LINE
8
BLACK
6
CONTINUOUS
10
35.3565
20
-47.9837
11
35.1962
21
-48.144
0
LINE
8
BLACK
6
CONTINUOUS
10
35.1962
20
-48.144
11
35.0077
21
-48.27
0
LINE
8
BLACK
6
CONTINUOUS
10
35.0077
20
-48.27
11
34.7982
21
-48.3568
0
LINE
8
BLACK
6
CONTINUOUS
10
34.7982
20
-48.3568
11
34.687
21
-48.3789
0
LINE
8
BLACK
6
CONTINUOUS
10
34.687
20
-48.3789
11
34.5759
21
-48.401
0
LINE
8
BLACK
6
CONTINUOUS
10
34.5759
20
-48.401
11
34.3491
21
-48.401
0
LINE
8
BLACK
6
CONTINUOUS
10
34.3491
20
-48.401
11
34.238
21
-48.3789
0
LINE
8
BLACK
6
CONTINUOUS
10
34.238
20
-48.3789
11
34.1268
21
-48.3568
0
LINE
8
BLACK
6
CONTINUOUS
10
34.1268
20
-48.3568
11
33.9173
21
-48.27
0
LINE
8
BLACK
6
CONTINUOUS
10
33.9173
20
-48.27
11
33.7288
21
-48.144
0
LINE
8
BLACK
6
CONTINUOUS
10
33.7288
20
-48.144
11
33.5685
21
-47.9837
0
LINE
8
BLACK
6
CONTINUOUS
10
33.5685
20
-47.9837
11
33.4425
21
-47.7952
0
LINE
8
BLACK
6
CONTINUOUS
10
33.4425
20
-47.7952
11
33.3557
21
-47.5857
0
LINE
8
BLACK
6
CONTINUOUS
10
33.3557
20
-47.5857
11
33.3115
21
-47.3634
0
LINE
8
BLACK
6
CONTINUOUS
10
33.3115
20
-47.3634
11
33.3115
21
-47.1366
0
LINE
8
BLACK
6
CONTINUOUS
10
33.3115
20
-47.1366
11
33.3557
21
-46.9143
0
LINE
8
BLACK
6
CONTINUOUS
10
33.3557
20
-46.9143
11
33.4425
21
-46.7048
0
LINE
8
BLACK
6
CONTINUOUS
10
33.4425
20
-46.7048
11
33.5685
21
-46.5163
0
LINE
8
BLACK
6
CONTINUOUS
10
33.5685
20
-46.5163
11
33.7288
21
-46.356
0
LINE
8
BLACK
6
CONTINUOUS
10
33.7288
20
-46.356
11
33.9173
21
-46.23
0
LINE
8
BLACK
6
CONTINUOUS
10
33.9173
20
-46.23
11
34.1268
21
-46.1432
0
LINE
8
BLACK
6
CONTINUOUS
10
34.1268
20
-46.1432
11
34.238
21
-46.1211
0
LINE
8
BLACK
6
CONTINUOUS
10
34.238
20
-46.1211
11
34.3491
21
-46.099
0
LINE
8
BLACK
6
CONTINUOUS
10
34.3491
20
-46.099
11
34.5759
21
-46.099
0
LINE
8
BLACK
6
CONTINUOUS
10
34.5759
20
-46.099
11
34.687
21
-46.1211
0
LINE
8
BLACK
6
CONTINUOUS
10
82.312
20
-8.42112
11
82.4232
21
-8.44323
0
LINE
8
BLACK
6
CONTINUOUS
10
82.4232
20
-8.44323
11
82.6327
21
-8.53
0
LINE
8
BLACK
6
CONTINUOUS
10
82.6327
20
-8.53
11
82.8212
21
-8.65596
0
LINE
8
BLACK
6
CONTINUOUS
10
82.8212
20
-8.65596
11
82.9815
21
-8.81628
0
LINE
8
BLACK
6
CONTINUOUS
10
82.9815
20
-8.81628
11
83.1075
21
-9.0048
0
LINE
8
BLACK
6
CONTINUOUS
10
83.1075
20
-9.0048
11
83.1943
21
-9.21427
0
LINE
8
BLACK
6
CONTINUOUS
10
83.1943
20
-9.21427
11
83.2164
21
-9.32545
0
LINE
8
BLACK
6
CONTINUOUS
10
83.2164
20
-9.32545
11
83.2385
21
-9.43663
0
LINE
8
BLACK
6
CONTINUOUS
10
83.2385
20
-9.43663
11
83.2385
21
-9.66336
0
LINE
8
BLACK
6
CONTINUOUS
10
83.2385
20
-9.66336
11
83.2164
21
-9.77455
0
LINE
8
BLACK
6
CONTINUOUS
10
83.2164
20
-9.77455
11
83.1943
21
-9.88573
0
LINE
8
BLACK
6
CONTINUOUS
10
83.1943
20
-9.88573
11
83.1329
21
-10.0338
0
LINE
8
BLACK
6
CONTINUOUS
10
83.1329
20
-10.0338
11
83.1123
21
-10.0837
0
LINE
8
BLACK
6
CONTINUOUS
10
83.1123
20
-10.0837
11
83.1075
21
-10.0952
0
LINE
8
BLACK
6
CONTINUOUS
10
83.1075
20
-10.0952
11
82.9815
21
-10.2837
0
LINE
8
BLACK
6
CONTINUOUS
10
82.9815
20
-10.2837
11
82.8212
21
-10.444
0
LINE
8
BLACK
6
CONTINUOUS
10
82.8212
20
-10.444
11
82.6327
21
-10.57
0
LINE
8
BLACK
6
CONTINUOUS
10
82.6327
20
-10.57
11
82.4232
21
-10.6568
0
LINE
8
BLACK
6
CONTINUOUS
10
82.4232
20
-10.6568
11
82.312
21
-10.6789
0
LINE
8
BLACK
6
CONTINUOUS
10
82.312
20
-10.6789
11
82.2009
21
-10.701
0
LINE
8
BLACK
6
CONTINUOUS
10
82.2009
20
-10.701
11
81.9741
21
-10.701
0
LINE
8
BLACK
6
CONTINUOUS
10
81.9741
20
-10.701
11
81.863
21
-10.6789
0
LINE
8
BLACK
6
CONTINUOUS
10
81.863
20
-10.6789
11
81.7518
21
-10.6568
0
LINE
8
BLACK
6
CONTINUOUS
10
81.7518
20
-10.6568
11
81.5423
21
-10.57
0
LINE
8
BLACK
6
CONTINUOUS
10
81.5423
20
-10.57
11
81.3538
21
-10.444
0
LINE
8
BLACK
6
CONTINUOUS
10
81.3538
20
-10.444
11
81.1935
21
-10.2837
0
LINE
8
BLACK
6
CONTINUOUS
10
81.1935
20
-10.2837
11
81.0675
21
-10.0952
0
LINE
8
BLACK
6
CONTINUOUS
10
81.0675
20
-10.0952
11
81.0627
21
-10.0837
0
LINE
8
BLACK
6
CONTINUOUS
10
81.0627
20
-10.0837
11
81.0421
21
-10.0338
0
LINE
8
BLACK
6
CONTINUOUS
10
81.0421
20
-10.0338
11
80.9807
21
-9.88573
0
LINE
8
BLACK
6
CONTINUOUS
10
80.9807
20
-9.88573
11
80.9586
21
-9.77455
0
LINE
8
BLACK
6
CONTINUOUS
10
80.9586
20
-9.77455
11
80.9365
21
-9.66336
0
LINE
8
BLACK
6
CONTINUOUS
10
80.9365
20
-9.66336
11
80.9365
21
-9.43663
0
LINE
8
BLACK
6
CONTINUOUS
10
80.9365
20
-9.43663
11
80.9586
21
-9.32545
0
LINE
8
BLACK
6
CONTINUOUS
10
80.9586
20
-9.32545
11
80.9807
21
-9.21427
0
LINE
8
BLACK
6
CONTINUOUS
10
80.9807
20
-9.21427
11
81.0675
21
-9.0048
0
LINE
8
BLACK
6
CONTINUOUS
10
81.0675
20
-9.0048
11
81.1935
21
-8.81628
0
LINE
8
BLACK
6
CONTINUOUS
10
81.1935
20
-8.81628
11
81.3538
21
-8.65596
0
LINE
8
BLACK
6
CONTINUOUS
10
81.3538
20
-8.65596
11
81.5423
21
-8.53
0
LINE
8
BLACK
6
CONTINUOUS
10
81.5423
20
-8.53
11
81.7518
21
-8.44323
0
LINE
8
BLACK
6
CONTINUOUS
10
81.7518
20
-8.44323
11
81.863
21
-8.42112
0
LINE
8
BLACK
6
CONTINUOUS
10
81.863
20
-8.42112
11
81.9741
21
-8.399
0
LINE
8
BLACK
6
CONTINUOUS
10
81.9741
20
-8.399
11
82.2009
21
-8.399
0
LINE
8
BLACK
6
CONTINUOUS
10
82.2009
20
-8.399
11
82.312
21
-8.42112
0
LINE
8
BLACK
6
CONTINUOUS
10
-31.963
20
-8.22112
11
-31.8518
21
-8.24323
0
LINE
8
BLACK
6
CONTINUOUS
10
-31.8518
20
-8.24323
11
-31.6423
21
-8.33
0
LINE
8
BLACK
6
CONTINUOUS
10
-31.6423
20
-8.33
11
-31.4538
21
-8.45596
0
LINE
8
BLACK
6
CONTINUOUS
10
-31.4538
20
-8.45596
11
-31.2935
21
-8.61628
0
LINE
8
BLACK
6
CONTINUOUS
10
-31.2935
20
-8.61628
11
-31.2669
21
-8.65596
0
LINE
8
BLACK
6
CONTINUOUS
10
-31.2669
20
-8.65596
11
-31.1675
21
-8.8048
0
LINE
8
BLACK
6
CONTINUOUS
10
-31.1675
20
-8.8048
11
-31.1627
21
-8.81628
0
LINE
8
BLACK
6
CONTINUOUS
10
-31.1627
20
-8.81628
11
-31.0847
21
-9.0048
0
LINE
8
BLACK
6
CONTINUOUS
10
-31.0847
20
-9.0048
11
-31.0807
21
-9.01427
0
LINE
8
BLACK
6
CONTINUOUS
10
-31.0807
20
-9.01427
11
-31.0409
21
-9.21427
0
LINE
8
BLACK
6
CONTINUOUS
10
-31.0409
20
-9.21427
11
-31.0365
21
-9.23664
0
LINE
8
BLACK
6
CONTINUOUS
10
-31.0365
20
-9.23664
11
-31.0365
21
-9.46336
0
LINE
8
BLACK
6
CONTINUOUS
10
-31.0365
20
-9.46336
11
-31.0807
21
-9.68573
0
LINE
8
BLACK
6
CONTINUOUS
10
-31.0807
20
-9.68573
11
-31.1675
21
-9.8952
0
LINE
8
BLACK
6
CONTINUOUS
10
-31.1675
20
-9.8952
11
-31.2935
21
-10.0837
0
LINE
8
BLACK
6
CONTINUOUS
10
-31.2935
20
-10.0837
11
-31.4538
21
-10.244
0
LINE
8
BLACK
6
CONTINUOUS
10
-31.4538
20
-10.244
11
-31.6423
21
-10.37
0
LINE
8
BLACK
6
CONTINUOUS
10
-31.6423
20
-10.37
11
-31.8518
21
-10.4568
0
LINE
8
BLACK
6
CONTINUOUS
10
-31.8518
20
-10.4568
11
-31.963
21
-10.4789
0
LINE
8
BLACK
6
CONTINUOUS
10
-31.963
20
-10.4789
11
-32.0741
21
-10.501
0
LINE
8
BLACK
6
CONTINUOUS
10
-32.0741
20
-10.501
11
-32.3009
21
-10.501
0
LINE
8
BLACK
6
CONTINUOUS
10
-32.3009
20
-10.501
11
-32.412
21
-10.4789
0
LINE
8
BLACK
6
CONTINUOUS
10
-32.412
20
-10.4789
11
-32.5232
21
-10.4568
0
LINE
8
BLACK
6
CONTINUOUS
10
-32.5232
20
-10.4568
11
-32.7327
21
-10.37
0
LINE
8
BLACK
6
CONTINUOUS
10
-32.7327
20
-10.37
11
-32.9212
21
-10.244
0
LINE
8
BLACK
6
CONTINUOUS
10
-32.9212
20
-10.244
11
-33.0815
21
-10.0837
0
LINE
8
BLACK
6
CONTINUOUS
10
-33.0815
20
-10.0837
11
-33.2075
21
-9.8952
0
LINE
8
BLACK
6
CONTINUOUS
10
-33.2075
20
-9.8952
11
-33.2943
21
-9.68573
0
LINE
8
BLACK
6
CONTINUOUS
10
-33.2943
20
-9.68573
11
-33.3385
21
-9.46336
0
LINE
8
BLACK
6
CONTINUOUS
10
-33.3385
20
-9.46336
11
-33.3385
21
-9.23664
0
LINE
8
BLACK
6
CONTINUOUS
10
-33.3385
20
-9.23664
11
-33.334
21
-9.21427
0
LINE
8
BLACK
6
CONTINUOUS
10
-33.334
20
-9.21427
11
-33.2943
21
-9.01427
0
LINE
8
BLACK
6
CONTINUOUS
10
-33.2943
20
-9.01427
11
-33.2903
21
-9.0048
0
LINE
8
BLACK
6
CONTINUOUS
10
-33.2903
20
-9.0048
11
-33.2123
21
-8.81628
0
LINE
8
BLACK
6
CONTINUOUS
10
-33.2123
20
-8.81628
11
-33.2075
21
-8.8048
0
LINE
8
BLACK
6
CONTINUOUS
10
-33.2075
20
-8.8048
11
-33.1081
21
-8.65596
0
LINE
8
BLACK
6
CONTINUOUS
10
-33.1081
20
-8.65596
11
-33.0815
21
-8.61628
0
LINE
8
BLACK
6
CONTINUOUS
10
-33.0815
20
-8.61628
11
-32.9212
21
-8.45596
0
LINE
8
BLACK
6
CONTINUOUS
10
-32.9212
20
-8.45596
11
-32.7327
21
-8.33
0
LINE
8
BLACK
6
CONTINUOUS
10
-32.7327
20
-8.33
11
-32.5232
21
-8.24323
0
LINE
8
BLACK
6
CONTINUOUS
10
-32.5232
20
-8.24323
11
-32.412
21
-8.22112
0
LINE
8
BLACK
6
CONTINUOUS
10
-32.412
20
-8.22112
11
-32.3009
21
-8.199
0
LINE
8
BLACK
6
CONTINUOUS
10
-32.3009
20
-8.199
11
-32.0741
21
-8.199
0
LINE
8
BLACK
6
CONTINUOUS
10
-32.0741
20
-8.199
11
-31.963
21
-8.22112
  0
ENDSEC
  0
EOF
