  0
SECTION
  2
HEADER
  9
$ANGBASE
  50
0.0
  9
$ANGDIR
  70
1
  9
$MEASUREMENT
  70
1
  0
ENDSEC
  0
SECTION
  2
TABLES
  0
TABLE
  2
LTYPE
  70
4
  0
LTYPE
  5
40F
  2
CONTINUOUS
  70
0
  3
Solid line
  72
65
  73
0
  40
0.0
  0
LTYPE
  5
410
  2
DASHDOT
 70
0
  3
Dash Dot ____ _ ____ _
 72
65
 73
4
 40
2.0
 49
1.25
 49
-0.25
 49
0.25
 49
-0.25
  0
LTYPE
  5
411
  2
DASHED
 70
0
  3
Dashed __ __ __ __ __
 72
65
 73
2
 40
0.75
 49
0.5
 49
-0.25
  0
LTYPE
  5
43B
  2
DOTTED
 70
0
  3
Dotted .  .  .  .
 72
65
 73
2
 40
0.2
 49
0.0
 49
-0.2
  0
ENDTAB
  0
TABLE
  2
STYLE
  70
4
  0
STYLE
  2
KICAD
  70
0
  40
0
  41
1
  42
1
  50
0
  71
0
  3
isocp.shx
  0
STYLE
  2
KICADB
  70
0
  40
0
  41
1
  42
1
  50
0
  71
0
  3
isocp.shx
  0
STYLE
  2
KICADI
  70
0
  40
0
  41
1
  42
1
  50
15
  71
0
  3
isocp.shx
  0
STYLE
  2
KICADBI
  70
0
  40
0
  41
1
  42
1
  50
15
  71
0
  3
isocp.shx
  0
ENDTAB
  0
TABLE
  2
LAYER
  70
1
  0
LAYER
  2
BLACK
  70
0
  62
7
  6
CONTINUOUS
  0
ENDTAB
  0
ENDSEC
  0
SECTION
  2
ENTITIES
0
LINE
8
BLACK
6
CONTINUOUS
10
158.506
20
-12.4299
11
158.316
21
-12.4299
0
LINE
8
BLACK
6
CONTINUOUS
10
158.316
20
-12.4299
11
158.221
21
-12.4775
0
LINE
8
BLACK
6
CONTINUOUS
10
158.221
20
-12.4775
11
158.173
21
-12.5251
0
LINE
8
BLACK
6
CONTINUOUS
10
158.173
20
-12.5251
11
158.078
21
-12.668
0
LINE
8
BLACK
6
CONTINUOUS
10
158.078
20
-12.668
11
158.03
21
-12.8585
0
LINE
8
BLACK
6
CONTINUOUS
10
158.03
20
-12.8585
11
158.03
21
-13.2394
0
LINE
8
BLACK
6
CONTINUOUS
10
158.03
20
-13.2394
11
158.078
21
-13.3346
0
LINE
8
BLACK
6
CONTINUOUS
10
158.078
20
-13.3346
11
158.125
21
-13.3823
0
LINE
8
BLACK
6
CONTINUOUS
10
158.125
20
-13.3823
11
158.221
21
-13.4299
0
LINE
8
BLACK
6
CONTINUOUS
10
158.221
20
-13.4299
11
158.411
21
-13.4299
0
LINE
8
BLACK
6
CONTINUOUS
10
158.411
20
-13.4299
11
158.506
21
-13.3823
0
LINE
8
BLACK
6
CONTINUOUS
10
158.506
20
-13.3823
11
158.554
21
-13.3346
0
LINE
8
BLACK
6
CONTINUOUS
10
158.554
20
-13.3346
11
158.602
21
-13.2394
0
LINE
8
BLACK
6
CONTINUOUS
10
158.602
20
-13.2394
11
158.602
21
-13.0013
0
LINE
8
BLACK
6
CONTINUOUS
10
158.602
20
-13.0013
11
158.554
21
-12.9061
0
LINE
8
BLACK
6
CONTINUOUS
10
158.554
20
-12.9061
11
158.506
21
-12.8585
0
LINE
8
BLACK
6
CONTINUOUS
10
158.506
20
-12.8585
11
158.411
21
-12.8108
0
LINE
8
BLACK
6
CONTINUOUS
10
158.411
20
-12.8108
11
158.221
21
-12.8108
0
LINE
8
BLACK
6
CONTINUOUS
10
158.221
20
-12.8108
11
158.125
21
-12.8585
0
LINE
8
BLACK
6
CONTINUOUS
10
158.125
20
-12.8585
11
158.078
21
-12.9061
0
LINE
8
BLACK
6
CONTINUOUS
10
158.078
20
-12.9061
11
158.03
21
-13.0013
0
LINE
8
BLACK
6
CONTINUOUS
10
159.03
20
-13.3346
11
159.078
21
-13.3823
0
LINE
8
BLACK
6
CONTINUOUS
10
159.078
20
-13.3823
11
159.03
21
-13.4299
0
LINE
8
BLACK
6
CONTINUOUS
10
159.03
20
-13.4299
11
158.982
21
-13.3823
0
LINE
8
BLACK
6
CONTINUOUS
10
158.982
20
-13.3823
11
159.03
21
-13.3346
0
LINE
8
BLACK
6
CONTINUOUS
10
159.03
20
-13.3346
11
159.03
21
-13.4299
0
LINE
8
BLACK
6
CONTINUOUS
10
159.411
20
-12.4299
11
160.078
21
-12.4299
0
LINE
8
BLACK
6
CONTINUOUS
10
160.078
20
-12.4299
11
159.649
21
-13.4299
0
LINE
8
BLACK
6
CONTINUOUS
10
160.935
20
-12.4299
11
160.459
21
-12.4299
0
LINE
8
BLACK
6
CONTINUOUS
10
160.459
20
-12.4299
11
160.411
21
-12.9061
0
LINE
8
BLACK
6
CONTINUOUS
10
160.411
20
-12.9061
11
160.459
21
-12.8585
0
LINE
8
BLACK
6
CONTINUOUS
10
160.459
20
-12.8585
11
160.554
21
-12.8108
0
LINE
8
BLACK
6
CONTINUOUS
10
160.554
20
-12.8108
11
160.792
21
-12.8108
0
LINE
8
BLACK
6
CONTINUOUS
10
160.792
20
-12.8108
11
160.887
21
-12.8585
0
LINE
8
BLACK
6
CONTINUOUS
10
160.887
20
-12.8585
11
160.935
21
-12.9061
0
LINE
8
BLACK
6
CONTINUOUS
10
160.935
20
-12.9061
11
160.982
21
-13.0013
0
LINE
8
BLACK
6
CONTINUOUS
10
160.982
20
-13.0013
11
160.982
21
-13.2394
0
LINE
8
BLACK
6
CONTINUOUS
10
160.982
20
-13.2394
11
160.935
21
-13.3346
0
LINE
8
BLACK
6
CONTINUOUS
10
160.935
20
-13.3346
11
160.887
21
-13.3823
0
LINE
8
BLACK
6
CONTINUOUS
10
160.887
20
-13.3823
11
160.792
21
-13.4299
0
LINE
8
BLACK
6
CONTINUOUS
10
160.792
20
-13.4299
11
160.554
21
-13.4299
0
LINE
8
BLACK
6
CONTINUOUS
10
160.554
20
-13.4299
11
160.459
21
-13.3823
0
LINE
8
BLACK
6
CONTINUOUS
10
160.459
20
-13.3823
11
160.411
21
-13.3346
0
LINE
8
BLACK
6
CONTINUOUS
10
161.602
20
-12.4299
11
161.697
21
-12.4299
0
LINE
8
BLACK
6
CONTINUOUS
10
161.697
20
-12.4299
11
161.792
21
-12.4775
0
LINE
8
BLACK
6
CONTINUOUS
10
161.792
20
-12.4775
11
161.84
21
-12.5251
0
LINE
8
BLACK
6
CONTINUOUS
10
161.84
20
-12.5251
11
161.887
21
-12.6204
0
LINE
8
BLACK
6
CONTINUOUS
10
161.887
20
-12.6204
11
161.935
21
-12.8108
0
LINE
8
BLACK
6
CONTINUOUS
10
161.935
20
-12.8108
11
161.935
21
-13.0489
0
LINE
8
BLACK
6
CONTINUOUS
10
161.935
20
-13.0489
11
161.887
21
-13.2394
0
LINE
8
BLACK
6
CONTINUOUS
10
161.887
20
-13.2394
11
161.84
21
-13.3346
0
LINE
8
BLACK
6
CONTINUOUS
10
161.84
20
-13.3346
11
161.792
21
-13.3823
0
LINE
8
BLACK
6
CONTINUOUS
10
161.792
20
-13.3823
11
161.697
21
-13.4299
0
LINE
8
BLACK
6
CONTINUOUS
10
161.697
20
-13.4299
11
161.602
21
-13.4299
0
LINE
8
BLACK
6
CONTINUOUS
10
161.602
20
-13.4299
11
161.506
21
-13.3823
0
LINE
8
BLACK
6
CONTINUOUS
10
161.506
20
-13.3823
11
161.459
21
-13.3346
0
LINE
8
BLACK
6
CONTINUOUS
10
161.459
20
-13.3346
11
161.411
21
-13.2394
0
LINE
8
BLACK
6
CONTINUOUS
10
161.411
20
-13.2394
11
161.363
21
-13.0489
0
LINE
8
BLACK
6
CONTINUOUS
10
161.363
20
-13.0489
11
161.363
21
-12.8108
0
LINE
8
BLACK
6
CONTINUOUS
10
161.363
20
-12.8108
11
161.411
21
-12.6204
0
LINE
8
BLACK
6
CONTINUOUS
10
161.411
20
-12.6204
11
161.459
21
-12.5251
0
LINE
8
BLACK
6
CONTINUOUS
10
161.459
20
-12.5251
11
161.506
21
-12.4775
0
LINE
8
BLACK
6
CONTINUOUS
10
161.506
20
-12.4775
11
161.602
21
-12.4299
0
LINE
8
BLACK
6
CONTINUOUS
10
163.125
20
-13.4299
11
163.125
21
-12.7632
0
LINE
8
BLACK
6
CONTINUOUS
10
163.125
20
-12.8585
11
163.173
21
-12.8108
0
LINE
8
BLACK
6
CONTINUOUS
10
163.173
20
-12.8108
11
163.268
21
-12.7632
0
LINE
8
BLACK
6
CONTINUOUS
10
163.268
20
-12.7632
11
163.411
21
-12.7632
0
LINE
8
BLACK
6
CONTINUOUS
10
163.411
20
-12.7632
11
163.506
21
-12.8108
0
LINE
8
BLACK
6
CONTINUOUS
10
163.506
20
-12.8108
11
163.554
21
-12.9061
0
LINE
8
BLACK
6
CONTINUOUS
10
163.554
20
-12.9061
11
163.554
21
-13.4299
0
LINE
8
BLACK
6
CONTINUOUS
10
163.554
20
-12.9061
11
163.602
21
-12.8108
0
LINE
8
BLACK
6
CONTINUOUS
10
163.602
20
-12.8108
11
163.697
21
-12.7632
0
LINE
8
BLACK
6
CONTINUOUS
10
163.697
20
-12.7632
11
163.84
21
-12.7632
0
LINE
8
BLACK
6
CONTINUOUS
10
163.84
20
-12.7632
11
163.935
21
-12.8108
0
LINE
8
BLACK
6
CONTINUOUS
10
163.935
20
-12.8108
11
163.982
21
-12.9061
0
LINE
8
BLACK
6
CONTINUOUS
10
163.982
20
-12.9061
11
163.982
21
-13.4299
0
LINE
8
BLACK
6
CONTINUOUS
10
164.459
20
-13.4299
11
164.459
21
-12.7632
0
LINE
8
BLACK
6
CONTINUOUS
10
164.459
20
-12.8585
11
164.506
21
-12.8108
0
LINE
8
BLACK
6
CONTINUOUS
10
164.506
20
-12.8108
11
164.602
21
-12.7632
0
LINE
8
BLACK
6
CONTINUOUS
10
164.602
20
-12.7632
11
164.744
21
-12.7632
0
LINE
8
BLACK
6
CONTINUOUS
10
164.744
20
-12.7632
11
164.84
21
-12.8108
0
LINE
8
BLACK
6
CONTINUOUS
10
164.84
20
-12.8108
11
164.887
21
-12.9061
0
LINE
8
BLACK
6
CONTINUOUS
10
164.887
20
-12.9061
11
164.887
21
-13.4299
0
LINE
8
BLACK
6
CONTINUOUS
10
164.887
20
-12.9061
11
164.935
21
-12.8108
0
LINE
8
BLACK
6
CONTINUOUS
10
164.935
20
-12.8108
11
165.03
21
-12.7632
0
LINE
8
BLACK
6
CONTINUOUS
10
165.03
20
-12.7632
11
165.173
21
-12.7632
0
LINE
8
BLACK
6
CONTINUOUS
10
165.173
20
-12.7632
11
165.268
21
-12.8108
0
LINE
8
BLACK
6
CONTINUOUS
10
165.268
20
-12.8108
11
165.316
21
-12.9061
0
LINE
8
BLACK
6
CONTINUOUS
10
165.316
20
-12.9061
11
165.316
21
-13.4299
0
LINE
8
BLACK
6
CONTINUOUS
10
158.322
20
-11.7775
11
165.072
21
-11.7775
0
LINE
8
BLACK
6
CONTINUOUS
10
158.322
20
-11.7775
11
158.322
21
-12.3639
0
LINE
8
BLACK
6
CONTINUOUS
10
165.072
20
-11.7775
11
165.072
21
-12.3639
0
LINE
8
BLACK
6
CONTINUOUS
10
165.072
20
-11.7775
11
163.945
21
-12.3639
0
LINE
8
BLACK
6
CONTINUOUS
10
165.072
20
-11.7775
11
163.945
21
-11.1911
0
LINE
8
BLACK
6
CONTINUOUS
10
158.322
20
-11.7775
11
159.448
21
-12.3639
0
LINE
8
BLACK
6
CONTINUOUS
10
158.322
20
-11.7775
11
159.448
21
-11.1911
0
LINE
8
BLACK
6
CONTINUOUS
10
162.74
20
-15.2999
11
162.169
21
-15.2999
0
LINE
8
BLACK
6
CONTINUOUS
10
162.455
20
-15.2999
11
162.455
21
-14.2999
0
LINE
8
BLACK
6
CONTINUOUS
10
162.455
20
-14.2999
11
162.359
21
-14.4427
0
LINE
8
BLACK
6
CONTINUOUS
10
162.359
20
-14.4427
11
162.264
21
-14.538
0
LINE
8
BLACK
6
CONTINUOUS
10
162.264
20
-14.538
11
162.169
21
-14.5856
0
LINE
8
BLACK
6
CONTINUOUS
10
163.169
20
-15.2046
11
163.216
21
-15.2523
0
LINE
8
BLACK
6
CONTINUOUS
10
163.216
20
-15.2523
11
163.169
21
-15.2999
0
LINE
8
BLACK
6
CONTINUOUS
10
163.169
20
-15.2999
11
163.121
21
-15.2523
0
LINE
8
BLACK
6
CONTINUOUS
10
163.121
20
-15.2523
11
163.169
21
-15.2046
0
LINE
8
BLACK
6
CONTINUOUS
10
163.169
20
-15.2046
11
163.169
21
-15.2999
0
LINE
8
BLACK
6
CONTINUOUS
10
164.121
20
-14.2999
11
163.645
21
-14.2999
0
LINE
8
BLACK
6
CONTINUOUS
10
163.645
20
-14.2999
11
163.597
21
-14.7761
0
LINE
8
BLACK
6
CONTINUOUS
10
163.597
20
-14.7761
11
163.645
21
-14.7285
0
LINE
8
BLACK
6
CONTINUOUS
10
163.645
20
-14.7285
11
163.74
21
-14.6808
0
LINE
8
BLACK
6
CONTINUOUS
10
163.74
20
-14.6808
11
163.978
21
-14.6808
0
LINE
8
BLACK
6
CONTINUOUS
10
163.978
20
-14.6808
11
164.074
21
-14.7285
0
LINE
8
BLACK
6
CONTINUOUS
10
164.074
20
-14.7285
11
164.121
21
-14.7761
0
LINE
8
BLACK
6
CONTINUOUS
10
164.121
20
-14.7761
11
164.169
21
-14.8713
0
LINE
8
BLACK
6
CONTINUOUS
10
164.169
20
-14.8713
11
164.169
21
-15.1094
0
LINE
8
BLACK
6
CONTINUOUS
10
164.169
20
-15.1094
11
164.121
21
-15.2046
0
LINE
8
BLACK
6
CONTINUOUS
10
164.121
20
-15.2046
11
164.074
21
-15.2523
0
LINE
8
BLACK
6
CONTINUOUS
10
164.074
20
-15.2523
11
163.978
21
-15.2999
0
LINE
8
BLACK
6
CONTINUOUS
10
163.978
20
-15.2999
11
163.74
21
-15.2999
0
LINE
8
BLACK
6
CONTINUOUS
10
163.74
20
-15.2999
11
163.645
21
-15.2523
0
LINE
8
BLACK
6
CONTINUOUS
10
163.645
20
-15.2523
11
163.597
21
-15.2046
0
LINE
8
BLACK
6
CONTINUOUS
10
164.55
20
-14.3951
11
164.597
21
-14.3475
0
LINE
8
BLACK
6
CONTINUOUS
10
164.597
20
-14.3475
11
164.693
21
-14.2999
0
LINE
8
BLACK
6
CONTINUOUS
10
164.693
20
-14.2999
11
164.931
21
-14.2999
0
LINE
8
BLACK
6
CONTINUOUS
10
164.931
20
-14.2999
11
165.026
21
-14.3475
0
LINE
8
BLACK
6
CONTINUOUS
10
165.026
20
-14.3475
11
165.074
21
-14.3951
0
LINE
8
BLACK
6
CONTINUOUS
10
165.074
20
-14.3951
11
165.121
21
-14.4904
0
LINE
8
BLACK
6
CONTINUOUS
10
165.121
20
-14.4904
11
165.121
21
-14.5856
0
LINE
8
BLACK
6
CONTINUOUS
10
165.121
20
-14.5856
11
165.074
21
-14.7285
0
LINE
8
BLACK
6
CONTINUOUS
10
165.074
20
-14.7285
11
164.502
21
-15.2999
0
LINE
8
BLACK
6
CONTINUOUS
10
164.502
20
-15.2999
11
165.121
21
-15.2999
0
LINE
8
BLACK
6
CONTINUOUS
10
166.026
20
-14.2999
11
165.55
21
-14.2999
0
LINE
8
BLACK
6
CONTINUOUS
10
165.55
20
-14.2999
11
165.502
21
-14.7761
0
LINE
8
BLACK
6
CONTINUOUS
10
165.502
20
-14.7761
11
165.55
21
-14.7285
0
LINE
8
BLACK
6
CONTINUOUS
10
165.55
20
-14.7285
11
165.645
21
-14.6808
0
LINE
8
BLACK
6
CONTINUOUS
10
165.645
20
-14.6808
11
165.883
21
-14.6808
0
LINE
8
BLACK
6
CONTINUOUS
10
165.883
20
-14.6808
11
165.978
21
-14.7285
0
LINE
8
BLACK
6
CONTINUOUS
10
165.978
20
-14.7285
11
166.026
21
-14.7761
0
LINE
8
BLACK
6
CONTINUOUS
10
166.026
20
-14.7761
11
166.074
21
-14.8713
0
LINE
8
BLACK
6
CONTINUOUS
10
166.074
20
-14.8713
11
166.074
21
-15.1094
0
LINE
8
BLACK
6
CONTINUOUS
10
166.074
20
-15.1094
11
166.026
21
-15.2046
0
LINE
8
BLACK
6
CONTINUOUS
10
166.026
20
-15.2046
11
165.978
21
-15.2523
0
LINE
8
BLACK
6
CONTINUOUS
10
165.978
20
-15.2523
11
165.883
21
-15.2999
0
LINE
8
BLACK
6
CONTINUOUS
10
165.883
20
-15.2999
11
165.645
21
-15.2999
0
LINE
8
BLACK
6
CONTINUOUS
10
165.645
20
-15.2999
11
165.55
21
-15.2523
0
LINE
8
BLACK
6
CONTINUOUS
10
165.55
20
-15.2523
11
165.502
21
-15.2046
0
LINE
8
BLACK
6
CONTINUOUS
10
167.264
20
-15.2999
11
167.264
21
-14.6332
0
LINE
8
BLACK
6
CONTINUOUS
10
167.264
20
-14.7285
11
167.312
21
-14.6808
0
LINE
8
BLACK
6
CONTINUOUS
10
167.312
20
-14.6808
11
167.407
21
-14.6332
0
LINE
8
BLACK
6
CONTINUOUS
10
167.407
20
-14.6332
11
167.55
21
-14.6332
0
LINE
8
BLACK
6
CONTINUOUS
10
167.55
20
-14.6332
11
167.645
21
-14.6808
0
LINE
8
BLACK
6
CONTINUOUS
10
167.645
20
-14.6808
11
167.693
21
-14.7761
0
LINE
8
BLACK
6
CONTINUOUS
10
167.693
20
-14.7761
11
167.693
21
-15.2999
0
LINE
8
BLACK
6
CONTINUOUS
10
167.693
20
-14.7761
11
167.74
21
-14.6808
0
LINE
8
BLACK
6
CONTINUOUS
10
167.74
20
-14.6808
11
167.835
21
-14.6332
0
LINE
8
BLACK
6
CONTINUOUS
10
167.835
20
-14.6332
11
167.978
21
-14.6332
0
LINE
8
BLACK
6
CONTINUOUS
10
167.978
20
-14.6332
11
168.074
21
-14.6808
0
LINE
8
BLACK
6
CONTINUOUS
10
168.074
20
-14.6808
11
168.121
21
-14.7761
0
LINE
8
BLACK
6
CONTINUOUS
10
168.121
20
-14.7761
11
168.121
21
-15.2999
0
LINE
8
BLACK
6
CONTINUOUS
10
168.597
20
-15.2999
11
168.597
21
-14.6332
0
LINE
8
BLACK
6
CONTINUOUS
10
168.597
20
-14.7285
11
168.645
21
-14.6808
0
LINE
8
BLACK
6
CONTINUOUS
10
168.645
20
-14.6808
11
168.74
21
-14.6332
0
LINE
8
BLACK
6
CONTINUOUS
10
168.74
20
-14.6332
11
168.883
21
-14.6332
0
LINE
8
BLACK
6
CONTINUOUS
10
168.883
20
-14.6332
11
168.978
21
-14.6808
0
LINE
8
BLACK
6
CONTINUOUS
10
168.978
20
-14.6808
11
169.026
21
-14.7761
0
LINE
8
BLACK
6
CONTINUOUS
10
169.026
20
-14.7761
11
169.026
21
-15.2999
0
LINE
8
BLACK
6
CONTINUOUS
10
169.026
20
-14.7761
11
169.074
21
-14.6808
0
LINE
8
BLACK
6
CONTINUOUS
10
169.074
20
-14.6808
11
169.169
21
-14.6332
0
LINE
8
BLACK
6
CONTINUOUS
10
169.169
20
-14.6332
11
169.312
21
-14.6332
0
LINE
8
BLACK
6
CONTINUOUS
10
169.312
20
-14.6332
11
169.407
21
-14.6808
0
LINE
8
BLACK
6
CONTINUOUS
10
169.407
20
-14.6808
11
169.455
21
-14.7761
0
LINE
8
BLACK
6
CONTINUOUS
10
169.455
20
-14.7761
11
169.455
21
-15.2999
0
LINE
8
BLACK
6
CONTINUOUS
10
166.598
20
-16.0475
11
165.073
21
-16.0475
0
LINE
8
BLACK
6
CONTINUOUS
10
166.598
20
-16.0475
11
166.598
21
-15.4611
0
LINE
8
BLACK
6
CONTINUOUS
10
165.073
20
-16.0475
11
165.073
21
-15.4611
0
LINE
8
BLACK
6
CONTINUOUS
10
165.073
20
-16.0475
11
166.2
21
-15.4611
0
LINE
8
BLACK
6
CONTINUOUS
10
165.073
20
-16.0475
11
166.2
21
-16.6339
0
LINE
8
BLACK
6
CONTINUOUS
10
166.598
20
-16.0475
11
165.471
21
-15.4611
0
LINE
8
BLACK
6
CONTINUOUS
10
166.598
20
-16.0475
11
165.471
21
-16.6339
0
LINE
8
BLACK
6
CONTINUOUS
10
178.266
20
-15.2999
11
177.694
21
-15.2999
0
LINE
8
BLACK
6
CONTINUOUS
10
177.98
20
-15.2999
11
177.98
21
-14.2999
0
LINE
8
BLACK
6
CONTINUOUS
10
177.98
20
-14.2999
11
177.885
21
-14.4427
0
LINE
8
BLACK
6
CONTINUOUS
10
177.885
20
-14.4427
11
177.789
21
-14.538
0
LINE
8
BLACK
6
CONTINUOUS
10
177.789
20
-14.538
11
177.694
21
-14.5856
0
LINE
8
BLACK
6
CONTINUOUS
10
178.694
20
-15.2046
11
178.742
21
-15.2523
0
LINE
8
BLACK
6
CONTINUOUS
10
178.742
20
-15.2523
11
178.694
21
-15.2999
0
LINE
8
BLACK
6
CONTINUOUS
10
178.694
20
-15.2999
11
178.646
21
-15.2523
0
LINE
8
BLACK
6
CONTINUOUS
10
178.646
20
-15.2523
11
178.694
21
-15.2046
0
LINE
8
BLACK
6
CONTINUOUS
10
178.694
20
-15.2046
11
178.694
21
-15.2999
0
LINE
8
BLACK
6
CONTINUOUS
10
179.646
20
-14.2999
11
179.17
21
-14.2999
0
LINE
8
BLACK
6
CONTINUOUS
10
179.17
20
-14.2999
11
179.123
21
-14.7761
0
LINE
8
BLACK
6
CONTINUOUS
10
179.123
20
-14.7761
11
179.17
21
-14.7285
0
LINE
8
BLACK
6
CONTINUOUS
10
179.17
20
-14.7285
11
179.266
21
-14.6808
0
LINE
8
BLACK
6
CONTINUOUS
10
179.266
20
-14.6808
11
179.504
21
-14.6808
0
LINE
8
BLACK
6
CONTINUOUS
10
179.504
20
-14.6808
11
179.599
21
-14.7285
0
LINE
8
BLACK
6
CONTINUOUS
10
179.599
20
-14.7285
11
179.646
21
-14.7761
0
LINE
8
BLACK
6
CONTINUOUS
10
179.646
20
-14.7761
11
179.694
21
-14.8713
0
LINE
8
BLACK
6
CONTINUOUS
10
179.694
20
-14.8713
11
179.694
21
-15.1094
0
LINE
8
BLACK
6
CONTINUOUS
10
179.694
20
-15.1094
11
179.646
21
-15.2046
0
LINE
8
BLACK
6
CONTINUOUS
10
179.646
20
-15.2046
11
179.599
21
-15.2523
0
LINE
8
BLACK
6
CONTINUOUS
10
179.599
20
-15.2523
11
179.504
21
-15.2999
0
LINE
8
BLACK
6
CONTINUOUS
10
179.504
20
-15.2999
11
179.266
21
-15.2999
0
LINE
8
BLACK
6
CONTINUOUS
10
179.266
20
-15.2999
11
179.17
21
-15.2523
0
LINE
8
BLACK
6
CONTINUOUS
10
179.17
20
-15.2523
11
179.123
21
-15.2046
0
LINE
8
BLACK
6
CONTINUOUS
10
180.075
20
-14.3951
11
180.123
21
-14.3475
0
LINE
8
BLACK
6
CONTINUOUS
10
180.123
20
-14.3475
11
180.218
21
-14.2999
0
LINE
8
BLACK
6
CONTINUOUS
10
180.218
20
-14.2999
11
180.456
21
-14.2999
0
LINE
8
BLACK
6
CONTINUOUS
10
180.456
20
-14.2999
11
180.551
21
-14.3475
0
LINE
8
BLACK
6
CONTINUOUS
10
180.551
20
-14.3475
11
180.599
21
-14.3951
0
LINE
8
BLACK
6
CONTINUOUS
10
180.599
20
-14.3951
11
180.646
21
-14.4904
0
LINE
8
BLACK
6
CONTINUOUS
10
180.646
20
-14.4904
11
180.646
21
-14.5856
0
LINE
8
BLACK
6
CONTINUOUS
10
180.646
20
-14.5856
11
180.599
21
-14.7285
0
LINE
8
BLACK
6
CONTINUOUS
10
180.599
20
-14.7285
11
180.027
21
-15.2999
0
LINE
8
BLACK
6
CONTINUOUS
10
180.027
20
-15.2999
11
180.646
21
-15.2999
0
LINE
8
BLACK
6
CONTINUOUS
10
181.551
20
-14.2999
11
181.075
21
-14.2999
0
LINE
8
BLACK
6
CONTINUOUS
10
181.075
20
-14.2999
11
181.027
21
-14.7761
0
LINE
8
BLACK
6
CONTINUOUS
10
181.027
20
-14.7761
11
181.075
21
-14.7285
0
LINE
8
BLACK
6
CONTINUOUS
10
181.075
20
-14.7285
11
181.17
21
-14.6808
0
LINE
8
BLACK
6
CONTINUOUS
10
181.17
20
-14.6808
11
181.408
21
-14.6808
0
LINE
8
BLACK
6
CONTINUOUS
10
181.408
20
-14.6808
11
181.504
21
-14.7285
0
LINE
8
BLACK
6
CONTINUOUS
10
181.504
20
-14.7285
11
181.551
21
-14.7761
0
LINE
8
BLACK
6
CONTINUOUS
10
181.551
20
-14.7761
11
181.599
21
-14.8713
0
LINE
8
BLACK
6
CONTINUOUS
10
181.599
20
-14.8713
11
181.599
21
-15.1094
0
LINE
8
BLACK
6
CONTINUOUS
10
181.599
20
-15.1094
11
181.551
21
-15.2046
0
LINE
8
BLACK
6
CONTINUOUS
10
181.551
20
-15.2046
11
181.504
21
-15.2523
0
LINE
8
BLACK
6
CONTINUOUS
10
181.504
20
-15.2523
11
181.408
21
-15.2999
0
LINE
8
BLACK
6
CONTINUOUS
10
181.408
20
-15.2999
11
181.17
21
-15.2999
0
LINE
8
BLACK
6
CONTINUOUS
10
181.17
20
-15.2999
11
181.075
21
-15.2523
0
LINE
8
BLACK
6
CONTINUOUS
10
181.075
20
-15.2523
11
181.027
21
-15.2046
0
LINE
8
BLACK
6
CONTINUOUS
10
182.789
20
-15.2999
11
182.789
21
-14.6332
0
LINE
8
BLACK
6
CONTINUOUS
10
182.789
20
-14.7285
11
182.837
21
-14.6808
0
LINE
8
BLACK
6
CONTINUOUS
10
182.837
20
-14.6808
11
182.932
21
-14.6332
0
LINE
8
BLACK
6
CONTINUOUS
10
182.932
20
-14.6332
11
183.075
21
-14.6332
0
LINE
8
BLACK
6
CONTINUOUS
10
183.075
20
-14.6332
11
183.17
21
-14.6808
0
LINE
8
BLACK
6
CONTINUOUS
10
183.17
20
-14.6808
11
183.218
21
-14.7761
0
LINE
8
BLACK
6
CONTINUOUS
10
183.218
20
-14.7761
11
183.218
21
-15.2999
0
LINE
8
BLACK
6
CONTINUOUS
10
183.218
20
-14.7761
11
183.266
21
-14.6808
0
LINE
8
BLACK
6
CONTINUOUS
10
183.266
20
-14.6808
11
183.361
21
-14.6332
0
LINE
8
BLACK
6
CONTINUOUS
10
183.361
20
-14.6332
11
183.504
21
-14.6332
0
LINE
8
BLACK
6
CONTINUOUS
10
183.504
20
-14.6332
11
183.599
21
-14.6808
0
LINE
8
BLACK
6
CONTINUOUS
10
183.599
20
-14.6808
11
183.646
21
-14.7761
0
LINE
8
BLACK
6
CONTINUOUS
10
183.646
20
-14.7761
11
183.646
21
-15.2999
0
LINE
8
BLACK
6
CONTINUOUS
10
184.123
20
-15.2999
11
184.123
21
-14.6332
0
LINE
8
BLACK
6
CONTINUOUS
10
184.123
20
-14.7285
11
184.17
21
-14.6808
0
LINE
8
BLACK
6
CONTINUOUS
10
184.17
20
-14.6808
11
184.266
21
-14.6332
0
LINE
8
BLACK
6
CONTINUOUS
10
184.266
20
-14.6332
11
184.408
21
-14.6332
0
LINE
8
BLACK
6
CONTINUOUS
10
184.408
20
-14.6332
11
184.504
21
-14.6808
0
LINE
8
BLACK
6
CONTINUOUS
10
184.504
20
-14.6808
11
184.551
21
-14.7761
0
LINE
8
BLACK
6
CONTINUOUS
10
184.551
20
-14.7761
11
184.551
21
-15.2999
0
LINE
8
BLACK
6
CONTINUOUS
10
184.551
20
-14.7761
11
184.599
21
-14.6808
0
LINE
8
BLACK
6
CONTINUOUS
10
184.599
20
-14.6808
11
184.694
21
-14.6332
0
LINE
8
BLACK
6
CONTINUOUS
10
184.694
20
-14.6332
11
184.837
21
-14.6332
0
LINE
8
BLACK
6
CONTINUOUS
10
184.837
20
-14.6332
11
184.932
21
-14.6808
0
LINE
8
BLACK
6
CONTINUOUS
10
184.932
20
-14.6808
11
184.98
21
-14.7761
0
LINE
8
BLACK
6
CONTINUOUS
10
184.98
20
-14.7761
11
184.98
21
-15.2999
0
LINE
8
BLACK
6
CONTINUOUS
10
182.123
20
-16.0475
11
180.598
21
-16.0475
0
LINE
8
BLACK
6
CONTINUOUS
10
182.123
20
-16.0475
11
182.123
21
-15.4611
0
LINE
8
BLACK
6
CONTINUOUS
10
180.598
20
-16.0475
11
180.598
21
-15.4611
0
LINE
8
BLACK
6
CONTINUOUS
10
180.598
20
-16.0475
11
181.725
21
-15.4611
0
LINE
8
BLACK
6
CONTINUOUS
10
180.598
20
-16.0475
11
181.725
21
-16.6339
0
LINE
8
BLACK
6
CONTINUOUS
10
182.123
20
-16.0475
11
180.997
21
-15.4611
0
LINE
8
BLACK
6
CONTINUOUS
10
182.123
20
-16.0475
11
180.997
21
-16.6339
0
LINE
8
BLACK
6
CONTINUOUS
10
196.962
20
-64.1376
11
197.01
21
-64.09
0
LINE
8
BLACK
6
CONTINUOUS
10
197.01
20
-64.09
11
197.105
21
-64.0424
0
LINE
8
BLACK
6
CONTINUOUS
10
197.105
20
-64.0424
11
197.343
21
-64.0424
0
LINE
8
BLACK
6
CONTINUOUS
10
197.343
20
-64.0424
11
197.438
21
-64.09
0
LINE
8
BLACK
6
CONTINUOUS
10
197.438
20
-64.09
11
197.486
21
-64.1376
0
LINE
8
BLACK
6
CONTINUOUS
10
197.486
20
-64.1376
11
197.534
21
-64.2329
0
LINE
8
BLACK
6
CONTINUOUS
10
197.534
20
-64.2329
11
197.534
21
-64.3281
0
LINE
8
BLACK
6
CONTINUOUS
10
197.534
20
-64.3281
11
197.486
21
-64.471
0
LINE
8
BLACK
6
CONTINUOUS
10
197.486
20
-64.471
11
196.915
21
-65.0424
0
LINE
8
BLACK
6
CONTINUOUS
10
196.915
20
-65.0424
11
197.534
21
-65.0424
0
LINE
8
BLACK
6
CONTINUOUS
10
198.438
20
-64.0424
11
197.962
21
-64.0424
0
LINE
8
BLACK
6
CONTINUOUS
10
197.962
20
-64.0424
11
197.915
21
-64.5186
0
LINE
8
BLACK
6
CONTINUOUS
10
197.915
20
-64.5186
11
197.962
21
-64.471
0
LINE
8
BLACK
6
CONTINUOUS
10
197.962
20
-64.471
11
198.057
21
-64.4233
0
LINE
8
BLACK
6
CONTINUOUS
10
198.057
20
-64.4233
11
198.295
21
-64.4233
0
LINE
8
BLACK
6
CONTINUOUS
10
198.295
20
-64.4233
11
198.391
21
-64.471
0
LINE
8
BLACK
6
CONTINUOUS
10
198.391
20
-64.471
11
198.438
21
-64.5186
0
LINE
8
BLACK
6
CONTINUOUS
10
198.438
20
-64.5186
11
198.486
21
-64.6138
0
LINE
8
BLACK
6
CONTINUOUS
10
198.486
20
-64.6138
11
198.486
21
-64.8519
0
LINE
8
BLACK
6
CONTINUOUS
10
198.486
20
-64.8519
11
198.438
21
-64.9471
0
LINE
8
BLACK
6
CONTINUOUS
10
198.438
20
-64.9471
11
198.391
21
-64.9948
0
LINE
8
BLACK
6
CONTINUOUS
10
198.391
20
-64.9948
11
198.295
21
-65.0424
0
LINE
8
BLACK
6
CONTINUOUS
10
198.295
20
-65.0424
11
198.057
21
-65.0424
0
LINE
8
BLACK
6
CONTINUOUS
10
198.057
20
-65.0424
11
197.962
21
-64.9948
0
LINE
8
BLACK
6
CONTINUOUS
10
197.962
20
-64.9948
11
197.915
21
-64.9471
0
LINE
8
BLACK
6
CONTINUOUS
10
198.915
20
-64.9471
11
198.962
21
-64.9948
0
LINE
8
BLACK
6
CONTINUOUS
10
198.962
20
-64.9948
11
198.915
21
-65.0424
0
LINE
8
BLACK
6
CONTINUOUS
10
198.915
20
-65.0424
11
198.867
21
-64.9948
0
LINE
8
BLACK
6
CONTINUOUS
10
198.867
20
-64.9948
11
198.915
21
-64.9471
0
LINE
8
BLACK
6
CONTINUOUS
10
198.915
20
-64.9471
11
198.915
21
-65.0424
0
LINE
8
BLACK
6
CONTINUOUS
10
199.438
20
-65.0424
11
199.629
21
-65.0424
0
LINE
8
BLACK
6
CONTINUOUS
10
199.629
20
-65.0424
11
199.724
21
-64.9948
0
LINE
8
BLACK
6
CONTINUOUS
10
199.724
20
-64.9948
11
199.772
21
-64.9471
0
LINE
8
BLACK
6
CONTINUOUS
10
199.772
20
-64.9471
11
199.867
21
-64.8043
0
LINE
8
BLACK
6
CONTINUOUS
10
199.867
20
-64.8043
11
199.915
21
-64.6138
0
LINE
8
BLACK
6
CONTINUOUS
10
199.915
20
-64.6138
11
199.915
21
-64.2329
0
LINE
8
BLACK
6
CONTINUOUS
10
199.915
20
-64.2329
11
199.867
21
-64.1376
0
LINE
8
BLACK
6
CONTINUOUS
10
199.867
20
-64.1376
11
199.819
21
-64.09
0
LINE
8
BLACK
6
CONTINUOUS
10
199.819
20
-64.09
11
199.724
21
-64.0424
0
LINE
8
BLACK
6
CONTINUOUS
10
199.724
20
-64.0424
11
199.534
21
-64.0424
0
LINE
8
BLACK
6
CONTINUOUS
10
199.534
20
-64.0424
11
199.438
21
-64.09
0
LINE
8
BLACK
6
CONTINUOUS
10
199.438
20
-64.09
11
199.391
21
-64.1376
0
LINE
8
BLACK
6
CONTINUOUS
10
199.391
20
-64.1376
11
199.343
21
-64.2329
0
LINE
8
BLACK
6
CONTINUOUS
10
199.343
20
-64.2329
11
199.343
21
-64.471
0
LINE
8
BLACK
6
CONTINUOUS
10
199.343
20
-64.471
11
199.391
21
-64.5662
0
LINE
8
BLACK
6
CONTINUOUS
10
199.391
20
-64.5662
11
199.438
21
-64.6138
0
LINE
8
BLACK
6
CONTINUOUS
10
199.438
20
-64.6138
11
199.534
21
-64.6614
0
LINE
8
BLACK
6
CONTINUOUS
10
199.534
20
-64.6614
11
199.724
21
-64.6614
0
LINE
8
BLACK
6
CONTINUOUS
10
199.724
20
-64.6614
11
199.819
21
-64.6138
0
LINE
8
BLACK
6
CONTINUOUS
10
199.819
20
-64.6138
11
199.867
21
-64.5662
0
LINE
8
BLACK
6
CONTINUOUS
10
199.867
20
-64.5662
11
199.915
21
-64.471
0
LINE
8
BLACK
6
CONTINUOUS
10
200.819
20
-64.0424
11
200.343
21
-64.0424
0
LINE
8
BLACK
6
CONTINUOUS
10
200.343
20
-64.0424
11
200.295
21
-64.5186
0
LINE
8
BLACK
6
CONTINUOUS
10
200.295
20
-64.5186
11
200.343
21
-64.471
0
LINE
8
BLACK
6
CONTINUOUS
10
200.343
20
-64.471
11
200.438
21
-64.4233
0
LINE
8
BLACK
6
CONTINUOUS
10
200.438
20
-64.4233
11
200.676
21
-64.4233
0
LINE
8
BLACK
6
CONTINUOUS
10
200.676
20
-64.4233
11
200.772
21
-64.471
0
LINE
8
BLACK
6
CONTINUOUS
10
200.772
20
-64.471
11
200.819
21
-64.5186
0
LINE
8
BLACK
6
CONTINUOUS
10
200.819
20
-64.5186
11
200.867
21
-64.6138
0
LINE
8
BLACK
6
CONTINUOUS
10
200.867
20
-64.6138
11
200.867
21
-64.8519
0
LINE
8
BLACK
6
CONTINUOUS
10
200.867
20
-64.8519
11
200.819
21
-64.9471
0
LINE
8
BLACK
6
CONTINUOUS
10
200.819
20
-64.9471
11
200.772
21
-64.9948
0
LINE
8
BLACK
6
CONTINUOUS
10
200.772
20
-64.9948
11
200.676
21
-65.0424
0
LINE
8
BLACK
6
CONTINUOUS
10
200.676
20
-65.0424
11
200.438
21
-65.0424
0
LINE
8
BLACK
6
CONTINUOUS
10
200.438
20
-65.0424
11
200.343
21
-64.9948
0
LINE
8
BLACK
6
CONTINUOUS
10
200.343
20
-64.9948
11
200.295
21
-64.9471
0
LINE
8
BLACK
6
CONTINUOUS
10
201.486
20
-64.0424
11
201.581
21
-64.0424
0
LINE
8
BLACK
6
CONTINUOUS
10
201.581
20
-64.0424
11
201.676
21
-64.09
0
LINE
8
BLACK
6
CONTINUOUS
10
201.676
20
-64.09
11
201.724
21
-64.1376
0
LINE
8
BLACK
6
CONTINUOUS
10
201.724
20
-64.1376
11
201.772
21
-64.2329
0
LINE
8
BLACK
6
CONTINUOUS
10
201.772
20
-64.2329
11
201.819
21
-64.4233
0
LINE
8
BLACK
6
CONTINUOUS
10
201.819
20
-64.4233
11
201.819
21
-64.6614
0
LINE
8
BLACK
6
CONTINUOUS
10
201.819
20
-64.6614
11
201.772
21
-64.8519
0
LINE
8
BLACK
6
CONTINUOUS
10
201.772
20
-64.8519
11
201.724
21
-64.9471
0
LINE
8
BLACK
6
CONTINUOUS
10
201.724
20
-64.9471
11
201.676
21
-64.9948
0
LINE
8
BLACK
6
CONTINUOUS
10
201.676
20
-64.9948
11
201.581
21
-65.0424
0
LINE
8
BLACK
6
CONTINUOUS
10
201.581
20
-65.0424
11
201.486
21
-65.0424
0
LINE
8
BLACK
6
CONTINUOUS
10
201.486
20
-65.0424
11
201.391
21
-64.9948
0
LINE
8
BLACK
6
CONTINUOUS
10
201.391
20
-64.9948
11
201.343
21
-64.9471
0
LINE
8
BLACK
6
CONTINUOUS
10
201.343
20
-64.9471
11
201.295
21
-64.8519
0
LINE
8
BLACK
6
CONTINUOUS
10
201.295
20
-64.8519
11
201.248
21
-64.6614
0
LINE
8
BLACK
6
CONTINUOUS
10
201.248
20
-64.6614
11
201.248
21
-64.4233
0
LINE
8
BLACK
6
CONTINUOUS
10
201.248
20
-64.4233
11
201.295
21
-64.2329
0
LINE
8
BLACK
6
CONTINUOUS
10
201.295
20
-64.2329
11
201.343
21
-64.1376
0
LINE
8
BLACK
6
CONTINUOUS
10
201.343
20
-64.1376
11
201.391
21
-64.09
0
LINE
8
BLACK
6
CONTINUOUS
10
201.391
20
-64.09
11
201.486
21
-64.0424
0
LINE
8
BLACK
6
CONTINUOUS
10
203.01
20
-65.0424
11
203.01
21
-64.3757
0
LINE
8
BLACK
6
CONTINUOUS
10
203.01
20
-64.471
11
203.057
21
-64.4233
0
LINE
8
BLACK
6
CONTINUOUS
10
203.057
20
-64.4233
11
203.153
21
-64.3757
0
LINE
8
BLACK
6
CONTINUOUS
10
203.153
20
-64.3757
11
203.295
21
-64.3757
0
LINE
8
BLACK
6
CONTINUOUS
10
203.295
20
-64.3757
11
203.391
21
-64.4233
0
LINE
8
BLACK
6
CONTINUOUS
10
203.391
20
-64.4233
11
203.438
21
-64.5186
0
LINE
8
BLACK
6
CONTINUOUS
10
203.438
20
-64.5186
11
203.438
21
-65.0424
0
LINE
8
BLACK
6
CONTINUOUS
10
203.438
20
-64.5186
11
203.486
21
-64.4233
0
LINE
8
BLACK
6
CONTINUOUS
10
203.486
20
-64.4233
11
203.581
21
-64.3757
0
LINE
8
BLACK
6
CONTINUOUS
10
203.581
20
-64.3757
11
203.724
21
-64.3757
0
LINE
8
BLACK
6
CONTINUOUS
10
203.724
20
-64.3757
11
203.819
21
-64.4233
0
LINE
8
BLACK
6
CONTINUOUS
10
203.819
20
-64.4233
11
203.867
21
-64.5186
0
LINE
8
BLACK
6
CONTINUOUS
10
203.867
20
-64.5186
11
203.867
21
-65.0424
0
LINE
8
BLACK
6
CONTINUOUS
10
204.343
20
-65.0424
11
204.343
21
-64.3757
0
LINE
8
BLACK
6
CONTINUOUS
10
204.343
20
-64.471
11
204.391
21
-64.4233
0
LINE
8
BLACK
6
CONTINUOUS
10
204.391
20
-64.4233
11
204.486
21
-64.3757
0
LINE
8
BLACK
6
CONTINUOUS
10
204.486
20
-64.3757
11
204.629
21
-64.3757
0
LINE
8
BLACK
6
CONTINUOUS
10
204.629
20
-64.3757
11
204.724
21
-64.4233
0
LINE
8
BLACK
6
CONTINUOUS
10
204.724
20
-64.4233
11
204.772
21
-64.5186
0
LINE
8
BLACK
6
CONTINUOUS
10
204.772
20
-64.5186
11
204.772
21
-65.0424
0
LINE
8
BLACK
6
CONTINUOUS
10
204.772
20
-64.5186
11
204.819
21
-64.4233
0
LINE
8
BLACK
6
CONTINUOUS
10
204.819
20
-64.4233
11
204.915
21
-64.3757
0
LINE
8
BLACK
6
CONTINUOUS
10
204.915
20
-64.3757
11
205.057
21
-64.3757
0
LINE
8
BLACK
6
CONTINUOUS
10
205.057
20
-64.3757
11
205.153
21
-64.4233
0
LINE
8
BLACK
6
CONTINUOUS
10
205.153
20
-64.4233
11
205.2
21
-64.5186
0
LINE
8
BLACK
6
CONTINUOUS
10
205.2
20
-64.5186
11
205.2
21
-65.0424
0
LINE
8
BLACK
6
CONTINUOUS
10
214.08
20
-63.29
11
188.13
21
-63.29
0
LINE
8
BLACK
6
CONTINUOUS
10
214.08
20
-62.1725
11
214.08
21
-63.8764
0
LINE
8
BLACK
6
CONTINUOUS
10
188.13
20
-62.1725
11
188.13
21
-63.8764
0
LINE
8
BLACK
6
CONTINUOUS
10
188.13
20
-63.29
11
189.257
21
-62.7036
0
LINE
8
BLACK
6
CONTINUOUS
10
188.13
20
-63.29
11
189.257
21
-63.8764
0
LINE
8
BLACK
6
CONTINUOUS
10
214.08
20
-63.29
11
212.953
21
-62.7036
0
LINE
8
BLACK
6
CONTINUOUS
10
214.08
20
-63.29
11
212.953
21
-63.8764
0
LINE
8
BLACK
6
CONTINUOUS
10
119.523
20
68.3076
11
118.951
21
68.3076
0
LINE
8
BLACK
6
CONTINUOUS
10
119.237
20
68.3076
11
119.237
21
69.3076
0
LINE
8
BLACK
6
CONTINUOUS
10
119.237
20
69.3076
11
119.142
21
69.1648
0
LINE
8
BLACK
6
CONTINUOUS
10
119.142
20
69.1648
11
119.047
21
69.0695
0
LINE
8
BLACK
6
CONTINUOUS
10
119.047
20
69.0695
11
118.951
21
69.0219
0
LINE
8
BLACK
6
CONTINUOUS
10
120.094
20
68.879
11
119.999
21
68.9267
0
LINE
8
BLACK
6
CONTINUOUS
10
119.999
20
68.9267
11
119.951
21
68.9743
0
LINE
8
BLACK
6
CONTINUOUS
10
119.951
20
68.9743
11
119.904
21
69.0695
0
LINE
8
BLACK
6
CONTINUOUS
10
119.904
20
69.0695
11
119.904
21
69.1171
0
LINE
8
BLACK
6
CONTINUOUS
10
119.904
20
69.1171
11
119.951
21
69.2124
0
LINE
8
BLACK
6
CONTINUOUS
10
119.951
20
69.2124
11
119.999
21
69.26
0
LINE
8
BLACK
6
CONTINUOUS
10
119.999
20
69.26
11
120.094
21
69.3076
0
LINE
8
BLACK
6
CONTINUOUS
10
120.094
20
69.3076
11
120.285
21
69.3076
0
LINE
8
BLACK
6
CONTINUOUS
10
120.285
20
69.3076
11
120.38
21
69.26
0
LINE
8
BLACK
6
CONTINUOUS
10
120.38
20
69.26
11
120.428
21
69.2124
0
LINE
8
BLACK
6
CONTINUOUS
10
120.428
20
69.2124
11
120.475
21
69.1171
0
LINE
8
BLACK
6
CONTINUOUS
10
120.475
20
69.1171
11
120.475
21
69.0695
0
LINE
8
BLACK
6
CONTINUOUS
10
120.475
20
69.0695
11
120.428
21
68.9743
0
LINE
8
BLACK
6
CONTINUOUS
10
120.428
20
68.9743
11
120.38
21
68.9267
0
LINE
8
BLACK
6
CONTINUOUS
10
120.38
20
68.9267
11
120.285
21
68.879
0
LINE
8
BLACK
6
CONTINUOUS
10
120.285
20
68.879
11
120.094
21
68.879
0
LINE
8
BLACK
6
CONTINUOUS
10
120.094
20
68.879
11
119.999
21
68.8314
0
LINE
8
BLACK
6
CONTINUOUS
10
119.999
20
68.8314
11
119.951
21
68.7838
0
LINE
8
BLACK
6
CONTINUOUS
10
119.951
20
68.7838
11
119.904
21
68.6886
0
LINE
8
BLACK
6
CONTINUOUS
10
119.904
20
68.6886
11
119.904
21
68.4981
0
LINE
8
BLACK
6
CONTINUOUS
10
119.904
20
68.4981
11
119.951
21
68.4029
0
LINE
8
BLACK
6
CONTINUOUS
10
119.951
20
68.4029
11
119.999
21
68.3552
0
LINE
8
BLACK
6
CONTINUOUS
10
119.999
20
68.3552
11
120.094
21
68.3076
0
LINE
8
BLACK
6
CONTINUOUS
10
120.094
20
68.3076
11
120.285
21
68.3076
0
LINE
8
BLACK
6
CONTINUOUS
10
120.285
20
68.3076
11
120.38
21
68.3552
0
LINE
8
BLACK
6
CONTINUOUS
10
120.38
20
68.3552
11
120.428
21
68.4029
0
LINE
8
BLACK
6
CONTINUOUS
10
120.428
20
68.4029
11
120.475
21
68.4981
0
LINE
8
BLACK
6
CONTINUOUS
10
120.475
20
68.4981
11
120.475
21
68.6886
0
LINE
8
BLACK
6
CONTINUOUS
10
120.475
20
68.6886
11
120.428
21
68.7838
0
LINE
8
BLACK
6
CONTINUOUS
10
120.428
20
68.7838
11
120.38
21
68.8314
0
LINE
8
BLACK
6
CONTINUOUS
10
120.38
20
68.8314
11
120.285
21
68.879
0
LINE
8
BLACK
6
CONTINUOUS
10
121.428
20
68.3076
11
120.856
21
68.3076
0
LINE
8
BLACK
6
CONTINUOUS
10
121.142
20
68.3076
11
121.142
21
69.3076
0
LINE
8
BLACK
6
CONTINUOUS
10
121.142
20
69.3076
11
121.047
21
69.1648
0
LINE
8
BLACK
6
CONTINUOUS
10
121.047
20
69.1648
11
120.951
21
69.0695
0
LINE
8
BLACK
6
CONTINUOUS
10
120.951
20
69.0695
11
120.856
21
69.0219
0
LINE
8
BLACK
6
CONTINUOUS
10
121.856
20
68.4029
11
121.904
21
68.3552
0
LINE
8
BLACK
6
CONTINUOUS
10
121.904
20
68.3552
11
121.856
21
68.3076
0
LINE
8
BLACK
6
CONTINUOUS
10
121.856
20
68.3076
11
121.809
21
68.3552
0
LINE
8
BLACK
6
CONTINUOUS
10
121.809
20
68.3552
11
121.856
21
68.4029
0
LINE
8
BLACK
6
CONTINUOUS
10
121.856
20
68.4029
11
121.856
21
68.3076
0
LINE
8
BLACK
6
CONTINUOUS
10
122.523
20
69.3076
11
122.618
21
69.3076
0
LINE
8
BLACK
6
CONTINUOUS
10
122.618
20
69.3076
11
122.713
21
69.26
0
LINE
8
BLACK
6
CONTINUOUS
10
122.713
20
69.26
11
122.761
21
69.2124
0
LINE
8
BLACK
6
CONTINUOUS
10
122.761
20
69.2124
11
122.809
21
69.1171
0
LINE
8
BLACK
6
CONTINUOUS
10
122.809
20
69.1171
11
122.856
21
68.9267
0
LINE
8
BLACK
6
CONTINUOUS
10
122.856
20
68.9267
11
122.856
21
68.6886
0
LINE
8
BLACK
6
CONTINUOUS
10
122.856
20
68.6886
11
122.809
21
68.4981
0
LINE
8
BLACK
6
CONTINUOUS
10
122.809
20
68.4981
11
122.761
21
68.4029
0
LINE
8
BLACK
6
CONTINUOUS
10
122.761
20
68.4029
11
122.713
21
68.3552
0
LINE
8
BLACK
6
CONTINUOUS
10
122.713
20
68.3552
11
122.618
21
68.3076
0
LINE
8
BLACK
6
CONTINUOUS
10
122.618
20
68.3076
11
122.523
21
68.3076
0
LINE
8
BLACK
6
CONTINUOUS
10
122.523
20
68.3076
11
122.428
21
68.3552
0
LINE
8
BLACK
6
CONTINUOUS
10
122.428
20
68.3552
11
122.38
21
68.4029
0
LINE
8
BLACK
6
CONTINUOUS
10
122.38
20
68.4029
11
122.332
21
68.4981
0
LINE
8
BLACK
6
CONTINUOUS
10
122.332
20
68.4981
11
122.285
21
68.6886
0
LINE
8
BLACK
6
CONTINUOUS
10
122.285
20
68.6886
11
122.285
21
68.9267
0
LINE
8
BLACK
6
CONTINUOUS
10
122.285
20
68.9267
11
122.332
21
69.1171
0
LINE
8
BLACK
6
CONTINUOUS
10
122.332
20
69.1171
11
122.38
21
69.2124
0
LINE
8
BLACK
6
CONTINUOUS
10
122.38
20
69.2124
11
122.428
21
69.26
0
LINE
8
BLACK
6
CONTINUOUS
10
122.428
20
69.26
11
122.523
21
69.3076
0
LINE
8
BLACK
6
CONTINUOUS
10
123.809
20
68.3076
11
123.237
21
68.3076
0
LINE
8
BLACK
6
CONTINUOUS
10
123.523
20
68.3076
11
123.523
21
69.3076
0
LINE
8
BLACK
6
CONTINUOUS
10
123.523
20
69.3076
11
123.428
21
69.1648
0
LINE
8
BLACK
6
CONTINUOUS
10
123.428
20
69.1648
11
123.332
21
69.0695
0
LINE
8
BLACK
6
CONTINUOUS
10
123.332
20
69.0695
11
123.237
21
69.0219
0
LINE
8
BLACK
6
CONTINUOUS
10
124.285
20
68.3076
11
124.475
21
68.3076
0
LINE
8
BLACK
6
CONTINUOUS
10
124.475
20
68.3076
11
124.57
21
68.3552
0
LINE
8
BLACK
6
CONTINUOUS
10
124.57
20
68.3552
11
124.618
21
68.4029
0
LINE
8
BLACK
6
CONTINUOUS
10
124.618
20
68.4029
11
124.713
21
68.5457
0
LINE
8
BLACK
6
CONTINUOUS
10
124.713
20
68.5457
11
124.761
21
68.7362
0
LINE
8
BLACK
6
CONTINUOUS
10
124.761
20
68.7362
11
124.761
21
69.1171
0
LINE
8
BLACK
6
CONTINUOUS
10
124.761
20
69.1171
11
124.713
21
69.2124
0
LINE
8
BLACK
6
CONTINUOUS
10
124.713
20
69.2124
11
124.666
21
69.26
0
LINE
8
BLACK
6
CONTINUOUS
10
124.666
20
69.26
11
124.57
21
69.3076
0
LINE
8
BLACK
6
CONTINUOUS
10
124.57
20
69.3076
11
124.38
21
69.3076
0
LINE
8
BLACK
6
CONTINUOUS
10
124.38
20
69.3076
11
124.285
21
69.26
0
LINE
8
BLACK
6
CONTINUOUS
10
124.285
20
69.26
11
124.237
21
69.2124
0
LINE
8
BLACK
6
CONTINUOUS
10
124.237
20
69.2124
11
124.19
21
69.1171
0
LINE
8
BLACK
6
CONTINUOUS
10
124.19
20
69.1171
11
124.19
21
68.879
0
LINE
8
BLACK
6
CONTINUOUS
10
124.19
20
68.879
11
124.237
21
68.7838
0
LINE
8
BLACK
6
CONTINUOUS
10
124.237
20
68.7838
11
124.285
21
68.7362
0
LINE
8
BLACK
6
CONTINUOUS
10
124.285
20
68.7362
11
124.38
21
68.6886
0
LINE
8
BLACK
6
CONTINUOUS
10
124.38
20
68.6886
11
124.57
21
68.6886
0
LINE
8
BLACK
6
CONTINUOUS
10
124.57
20
68.6886
11
124.666
21
68.7362
0
LINE
8
BLACK
6
CONTINUOUS
10
124.666
20
68.7362
11
124.713
21
68.7838
0
LINE
8
BLACK
6
CONTINUOUS
10
124.713
20
68.7838
11
124.761
21
68.879
0
LINE
8
BLACK
6
CONTINUOUS
10
125.951
20
68.3076
11
125.951
21
68.9743
0
LINE
8
BLACK
6
CONTINUOUS
10
125.951
20
68.879
11
125.999
21
68.9267
0
LINE
8
BLACK
6
CONTINUOUS
10
125.999
20
68.9267
11
126.094
21
68.9743
0
LINE
8
BLACK
6
CONTINUOUS
10
126.094
20
68.9743
11
126.237
21
68.9743
0
LINE
8
BLACK
6
CONTINUOUS
10
126.237
20
68.9743
11
126.332
21
68.9267
0
LINE
8
BLACK
6
CONTINUOUS
10
126.332
20
68.9267
11
126.38
21
68.8314
0
LINE
8
BLACK
6
CONTINUOUS
10
126.38
20
68.8314
11
126.38
21
68.3076
0
LINE
8
BLACK
6
CONTINUOUS
10
126.38
20
68.8314
11
126.428
21
68.9267
0
LINE
8
BLACK
6
CONTINUOUS
10
126.428
20
68.9267
11
126.523
21
68.9743
0
LINE
8
BLACK
6
CONTINUOUS
10
126.523
20
68.9743
11
126.666
21
68.9743
0
LINE
8
BLACK
6
CONTINUOUS
10
126.666
20
68.9743
11
126.761
21
68.9267
0
LINE
8
BLACK
6
CONTINUOUS
10
126.761
20
68.9267
11
126.809
21
68.8314
0
LINE
8
BLACK
6
CONTINUOUS
10
126.809
20
68.8314
11
126.809
21
68.3076
0
LINE
8
BLACK
6
CONTINUOUS
10
127.285
20
68.3076
11
127.285
21
68.9743
0
LINE
8
BLACK
6
CONTINUOUS
10
127.285
20
68.879
11
127.332
21
68.9267
0
LINE
8
BLACK
6
CONTINUOUS
10
127.332
20
68.9267
11
127.428
21
68.9743
0
LINE
8
BLACK
6
CONTINUOUS
10
127.428
20
68.9743
11
127.57
21
68.9743
0
LINE
8
BLACK
6
CONTINUOUS
10
127.57
20
68.9743
11
127.666
21
68.9267
0
LINE
8
BLACK
6
CONTINUOUS
10
127.666
20
68.9267
11
127.713
21
68.8314
0
LINE
8
BLACK
6
CONTINUOUS
10
127.713
20
68.8314
11
127.713
21
68.3076
0
LINE
8
BLACK
6
CONTINUOUS
10
127.713
20
68.8314
11
127.761
21
68.9267
0
LINE
8
BLACK
6
CONTINUOUS
10
127.761
20
68.9267
11
127.856
21
68.9743
0
LINE
8
BLACK
6
CONTINUOUS
10
127.856
20
68.9743
11
127.999
21
68.9743
0
LINE
8
BLACK
6
CONTINUOUS
10
127.999
20
68.9743
11
128.094
21
68.9267
0
LINE
8
BLACK
6
CONTINUOUS
10
128.094
20
68.9267
11
128.142
21
68.8314
0
LINE
8
BLACK
6
CONTINUOUS
10
128.142
20
68.8314
11
128.142
21
68.3076
0
LINE
8
BLACK
6
CONTINUOUS
10
33.061
20
67.46
11
214.08
21
67.46
0
LINE
8
BLACK
6
CONTINUOUS
10
33.061
20
65.8725
11
33.061
21
68.0464
0
LINE
8
BLACK
6
CONTINUOUS
10
214.08
20
65.8725
11
214.08
21
68.0464
0
LINE
8
BLACK
6
CONTINUOUS
10
214.08
20
67.46
11
212.953
21
66.8736
0
LINE
8
BLACK
6
CONTINUOUS
10
214.08
20
67.46
11
212.953
21
68.0464
0
LINE
8
BLACK
6
CONTINUOUS
10
33.061
20
67.46
11
34.1875
21
66.8736
0
LINE
8
BLACK
6
CONTINUOUS
10
33.061
20
67.46
11
34.1875
21
68.0464
0
LINE
8
BLACK
6
CONTINUOUS
10
24.7924
20
-4.04762
11
24.7924
21
-4.61905
0
LINE
8
BLACK
6
CONTINUOUS
10
24.7924
20
-4.33333
11
23.7924
21
-4.33333
0
LINE
8
BLACK
6
CONTINUOUS
10
23.7924
20
-4.33333
11
23.9352
21
-4.42857
0
LINE
8
BLACK
6
CONTINUOUS
10
23.9352
20
-4.42857
11
24.0305
21
-4.52381
0
LINE
8
BLACK
6
CONTINUOUS
10
24.0305
20
-4.52381
11
24.0781
21
-4.61905
0
LINE
8
BLACK
6
CONTINUOUS
10
23.8876
20
-3.66667
11
23.84
21
-3.61905
0
LINE
8
BLACK
6
CONTINUOUS
10
23.84
20
-3.61905
11
23.7924
21
-3.52381
0
LINE
8
BLACK
6
CONTINUOUS
10
23.7924
20
-3.52381
11
23.7924
21
-3.28571
0
LINE
8
BLACK
6
CONTINUOUS
10
23.7924
20
-3.28571
11
23.84
21
-3.19048
0
LINE
8
BLACK
6
CONTINUOUS
10
23.84
20
-3.19048
11
23.8876
21
-3.14286
0
LINE
8
BLACK
6
CONTINUOUS
10
23.8876
20
-3.14286
11
23.9829
21
-3.09524
0
LINE
8
BLACK
6
CONTINUOUS
10
23.9829
20
-3.09524
11
24.0781
21
-3.09524
0
LINE
8
BLACK
6
CONTINUOUS
10
24.0781
20
-3.09524
11
24.221
21
-3.14286
0
LINE
8
BLACK
6
CONTINUOUS
10
24.221
20
-3.14286
11
24.7924
21
-3.71428
0
LINE
8
BLACK
6
CONTINUOUS
10
24.7924
20
-3.71428
11
24.7924
21
-3.09524
0
LINE
8
BLACK
6
CONTINUOUS
10
23.8876
20
-2.71428
11
23.84
21
-2.66667
0
LINE
8
BLACK
6
CONTINUOUS
10
23.84
20
-2.66667
11
23.7924
21
-2.57143
0
LINE
8
BLACK
6
CONTINUOUS
10
23.7924
20
-2.57143
11
23.7924
21
-2.33333
0
LINE
8
BLACK
6
CONTINUOUS
10
23.7924
20
-2.33333
11
23.84
21
-2.23809
0
LINE
8
BLACK
6
CONTINUOUS
10
23.84
20
-2.23809
11
23.8876
21
-2.19048
0
LINE
8
BLACK
6
CONTINUOUS
10
23.8876
20
-2.19048
11
23.9829
21
-2.14286
0
LINE
8
BLACK
6
CONTINUOUS
10
23.9829
20
-2.14286
11
24.0781
21
-2.14286
0
LINE
8
BLACK
6
CONTINUOUS
10
24.0781
20
-2.14286
11
24.221
21
-2.19048
0
LINE
8
BLACK
6
CONTINUOUS
10
24.221
20
-2.19048
11
24.7924
21
-2.7619
0
LINE
8
BLACK
6
CONTINUOUS
10
24.7924
20
-2.7619
11
24.7924
21
-2.14286
0
LINE
8
BLACK
6
CONTINUOUS
10
24.6971
20
-1.71428
11
24.7448
21
-1.66667
0
LINE
8
BLACK
6
CONTINUOUS
10
24.7448
20
-1.66667
11
24.7924
21
-1.71428
0
LINE
8
BLACK
6
CONTINUOUS
10
24.7924
20
-1.71428
11
24.7448
21
-1.7619
0
LINE
8
BLACK
6
CONTINUOUS
10
24.7448
20
-1.7619
11
24.6971
21
-1.71428
0
LINE
8
BLACK
6
CONTINUOUS
10
24.6971
20
-1.71428
11
24.7924
21
-1.71428
0
LINE
8
BLACK
6
CONTINUOUS
10
24.221
20
-1.09524
11
24.1733
21
-1.19048
0
LINE
8
BLACK
6
CONTINUOUS
10
24.1733
20
-1.19048
11
24.1257
21
-1.23809
0
LINE
8
BLACK
6
CONTINUOUS
10
24.1257
20
-1.23809
11
24.0305
21
-1.28571
0
LINE
8
BLACK
6
CONTINUOUS
10
24.0305
20
-1.28571
11
23.9829
21
-1.28571
0
LINE
8
BLACK
6
CONTINUOUS
10
23.9829
20
-1.28571
11
23.8876
21
-1.23809
0
LINE
8
BLACK
6
CONTINUOUS
10
23.8876
20
-1.23809
11
23.84
21
-1.19048
0
LINE
8
BLACK
6
CONTINUOUS
10
23.84
20
-1.19048
11
23.7924
21
-1.09524
0
LINE
8
BLACK
6
CONTINUOUS
10
23.7924
20
-1.09524
11
23.7924
21
-0.904761
0
LINE
8
BLACK
6
CONTINUOUS
10
23.7924
20
-0.904761
11
23.84
21
-0.809523
0
LINE
8
BLACK
6
CONTINUOUS
10
23.84
20
-0.809523
11
23.8876
21
-0.761904
0
LINE
8
BLACK
6
CONTINUOUS
10
23.8876
20
-0.761904
11
23.9829
21
-0.714285
0
LINE
8
BLACK
6
CONTINUOUS
10
23.9829
20
-0.714285
11
24.0305
21
-0.714285
0
LINE
8
BLACK
6
CONTINUOUS
10
24.0305
20
-0.714285
11
24.1257
21
-0.761904
0
LINE
8
BLACK
6
CONTINUOUS
10
24.1257
20
-0.761904
11
24.1733
21
-0.809523
0
LINE
8
BLACK
6
CONTINUOUS
10
24.1733
20
-0.809523
11
24.221
21
-0.904761
0
LINE
8
BLACK
6
CONTINUOUS
10
24.221
20
-0.904761
11
24.221
21
-1.09524
0
LINE
8
BLACK
6
CONTINUOUS
10
24.221
20
-1.09524
11
24.2686
21
-1.19048
0
LINE
8
BLACK
6
CONTINUOUS
10
24.2686
20
-1.19048
11
24.3162
21
-1.23809
0
LINE
8
BLACK
6
CONTINUOUS
10
24.3162
20
-1.23809
11
24.4114
21
-1.28571
0
LINE
8
BLACK
6
CONTINUOUS
10
24.4114
20
-1.28571
11
24.6019
21
-1.28571
0
LINE
8
BLACK
6
CONTINUOUS
10
24.6019
20
-1.28571
11
24.6971
21
-1.23809
0
LINE
8
BLACK
6
CONTINUOUS
10
24.6971
20
-1.23809
11
24.7448
21
-1.19048
0
LINE
8
BLACK
6
CONTINUOUS
10
24.7448
20
-1.19048
11
24.7924
21
-1.09524
0
LINE
8
BLACK
6
CONTINUOUS
10
24.7924
20
-1.09524
11
24.7924
21
-0.904761
0
LINE
8
BLACK
6
CONTINUOUS
10
24.7924
20
-0.904761
11
24.7448
21
-0.809523
0
LINE
8
BLACK
6
CONTINUOUS
10
24.7448
20
-0.809523
11
24.6971
21
-0.761904
0
LINE
8
BLACK
6
CONTINUOUS
10
24.6971
20
-0.761904
11
24.6019
21
-0.714285
0
LINE
8
BLACK
6
CONTINUOUS
10
24.6019
20
-0.714285
11
24.4114
21
-0.714285
0
LINE
8
BLACK
6
CONTINUOUS
10
24.4114
20
-0.714285
11
24.3162
21
-0.761904
0
LINE
8
BLACK
6
CONTINUOUS
10
24.3162
20
-0.761904
11
24.2686
21
-0.809523
0
LINE
8
BLACK
6
CONTINUOUS
10
24.2686
20
-0.809523
11
24.221
21
-0.904761
0
LINE
8
BLACK
6
CONTINUOUS
10
23.7924
20
0.190476
11
23.7924
21
-0.285714
0
LINE
8
BLACK
6
CONTINUOUS
10
23.7924
20
-0.285714
11
24.2686
21
-0.333333
0
LINE
8
BLACK
6
CONTINUOUS
10
24.2686
20
-0.333333
11
24.221
21
-0.285714
0
LINE
8
BLACK
6
CONTINUOUS
10
24.221
20
-0.285714
11
24.1733
21
-0.190476
0
LINE
8
BLACK
6
CONTINUOUS
10
24.1733
20
-0.190476
11
24.1733
21
0.047619
0
LINE
8
BLACK
6
CONTINUOUS
10
24.1733
20
0.047619
11
24.221
21
0.142857
0
LINE
8
BLACK
6
CONTINUOUS
10
24.221
20
0.142857
11
24.2686
21
0.190476
0
LINE
8
BLACK
6
CONTINUOUS
10
24.2686
20
0.190476
11
24.3638
21
0.238095
0
LINE
8
BLACK
6
CONTINUOUS
10
24.3638
20
0.238095
11
24.6019
21
0.238095
0
LINE
8
BLACK
6
CONTINUOUS
10
24.6019
20
0.238095
11
24.6971
21
0.190476
0
LINE
8
BLACK
6
CONTINUOUS
10
24.6971
20
0.190476
11
24.7448
21
0.142857
0
LINE
8
BLACK
6
CONTINUOUS
10
24.7448
20
0.142857
11
24.7924
21
0.047619
0
LINE
8
BLACK
6
CONTINUOUS
10
24.7924
20
0.047619
11
24.7924
21
-0.190476
0
LINE
8
BLACK
6
CONTINUOUS
10
24.7924
20
-0.190476
11
24.7448
21
-0.285714
0
LINE
8
BLACK
6
CONTINUOUS
10
24.7448
20
-0.285714
11
24.6971
21
-0.333333
0
LINE
8
BLACK
6
CONTINUOUS
10
23.7924
20
1.14286
11
23.7924
21
0.666666
0
LINE
8
BLACK
6
CONTINUOUS
10
23.7924
20
0.666666
11
24.2686
21
0.619047
0
LINE
8
BLACK
6
CONTINUOUS
10
24.2686
20
0.619047
11
24.221
21
0.666666
0
LINE
8
BLACK
6
CONTINUOUS
10
24.221
20
0.666666
11
24.1733
21
0.761904
0
LINE
8
BLACK
6
CONTINUOUS
10
24.1733
20
0.761904
11
24.1733
21
1
0
LINE
8
BLACK
6
CONTINUOUS
10
24.1733
20
1
11
24.221
21
1.09524
0
LINE
8
BLACK
6
CONTINUOUS
10
24.221
20
1.09524
11
24.2686
21
1.14286
0
LINE
8
BLACK
6
CONTINUOUS
10
24.2686
20
1.14286
11
24.3638
21
1.19048
0
LINE
8
BLACK
6
CONTINUOUS
10
24.3638
20
1.19048
11
24.6019
21
1.19048
0
LINE
8
BLACK
6
CONTINUOUS
10
24.6019
20
1.19048
11
24.6971
21
1.14286
0
LINE
8
BLACK
6
CONTINUOUS
10
24.6971
20
1.14286
11
24.7448
21
1.09524
0
LINE
8
BLACK
6
CONTINUOUS
10
24.7448
20
1.09524
11
24.7924
21
1
0
LINE
8
BLACK
6
CONTINUOUS
10
24.7924
20
1
11
24.7924
21
0.761904
0
LINE
8
BLACK
6
CONTINUOUS
10
24.7924
20
0.761904
11
24.7448
21
0.666666
0
LINE
8
BLACK
6
CONTINUOUS
10
24.7448
20
0.666666
11
24.6971
21
0.619047
0
LINE
8
BLACK
6
CONTINUOUS
10
24.7924
20
2.38095
11
24.1257
21
2.38095
0
LINE
8
BLACK
6
CONTINUOUS
10
24.221
20
2.38095
11
24.1733
21
2.42857
0
LINE
8
BLACK
6
CONTINUOUS
10
24.1733
20
2.42857
11
24.1257
21
2.52381
0
LINE
8
BLACK
6
CONTINUOUS
10
24.1257
20
2.52381
11
24.1257
21
2.66667
0
LINE
8
BLACK
6
CONTINUOUS
10
24.1257
20
2.66667
11
24.1733
21
2.7619
0
LINE
8
BLACK
6
CONTINUOUS
10
24.1733
20
2.7619
11
24.2686
21
2.80952
0
LINE
8
BLACK
6
CONTINUOUS
10
24.2686
20
2.80952
11
24.7924
21
2.80952
0
LINE
8
BLACK
6
CONTINUOUS
10
24.2686
20
2.80952
11
24.1733
21
2.85714
0
LINE
8
BLACK
6
CONTINUOUS
10
24.1733
20
2.85714
11
24.1257
21
2.95238
0
LINE
8
BLACK
6
CONTINUOUS
10
24.1257
20
2.95238
11
24.1257
21
3.09524
0
LINE
8
BLACK
6
CONTINUOUS
10
24.1257
20
3.09524
11
24.1733
21
3.19048
0
LINE
8
BLACK
6
CONTINUOUS
10
24.1733
20
3.19048
11
24.2686
21
3.23809
0
LINE
8
BLACK
6
CONTINUOUS
10
24.2686
20
3.23809
11
24.7924
21
3.23809
0
LINE
8
BLACK
6
CONTINUOUS
10
24.7924
20
3.71428
11
24.1257
21
3.71428
0
LINE
8
BLACK
6
CONTINUOUS
10
24.221
20
3.71428
11
24.1733
21
3.7619
0
LINE
8
BLACK
6
CONTINUOUS
10
24.1733
20
3.7619
11
24.1257
21
3.85714
0
LINE
8
BLACK
6
CONTINUOUS
10
24.1257
20
3.85714
11
24.1257
21
4
0
LINE
8
BLACK
6
CONTINUOUS
10
24.1257
20
4
11
24.1733
21
4.09524
0
LINE
8
BLACK
6
CONTINUOUS
10
24.1733
20
4.09524
11
24.2686
21
4.14286
0
LINE
8
BLACK
6
CONTINUOUS
10
24.2686
20
4.14286
11
24.7924
21
4.14286
0
LINE
8
BLACK
6
CONTINUOUS
10
24.2686
20
4.14286
11
24.1733
21
4.19048
0
LINE
8
BLACK
6
CONTINUOUS
10
24.1733
20
4.19048
11
24.1257
21
4.28571
0
LINE
8
BLACK
6
CONTINUOUS
10
24.1257
20
4.28571
11
24.1257
21
4.42857
0
LINE
8
BLACK
6
CONTINUOUS
10
24.1257
20
4.42857
11
24.1733
21
4.52381
0
LINE
8
BLACK
6
CONTINUOUS
10
24.1733
20
4.52381
11
24.2686
21
4.57143
0
LINE
8
BLACK
6
CONTINUOUS
10
24.2686
20
4.57143
11
24.7924
21
4.57143
0
LINE
8
BLACK
6
CONTINUOUS
10
25.64
20
-61.4275
11
25.64
21
61.4275
0
LINE
8
BLACK
6
CONTINUOUS
10
26.585
20
-61.4275
11
25.0536
21
-61.4275
0
LINE
8
BLACK
6
CONTINUOUS
10
26.585
20
61.4275
11
25.0536
21
61.4275
0
LINE
8
BLACK
6
CONTINUOUS
10
25.64
20
61.4275
11
26.2264
21
60.301
0
LINE
8
BLACK
6
CONTINUOUS
10
25.64
20
61.4275
11
25.0536
21
60.301
0
LINE
8
BLACK
6
CONTINUOUS
10
25.64
20
-61.4275
11
26.2264
21
-60.301
0
LINE
8
BLACK
6
CONTINUOUS
10
25.64
20
-61.4275
11
25.0536
21
-60.301
0
LINE
8
BLACK
6
CONTINUOUS
10
216.319
20
-53.6738
11
216.367
21
-53.5786
0
LINE
8
BLACK
6
CONTINUOUS
10
216.367
20
-53.5786
11
216.414
21
-53.531
0
LINE
8
BLACK
6
CONTINUOUS
10
216.414
20
-53.531
11
216.51
21
-53.4833
0
LINE
8
BLACK
6
CONTINUOUS
10
216.51
20
-53.4833
11
216.557
21
-53.4833
0
LINE
8
BLACK
6
CONTINUOUS
10
216.557
20
-53.4833
11
216.652
21
-53.531
0
LINE
8
BLACK
6
CONTINUOUS
10
216.652
20
-53.531
11
216.7
21
-53.5786
0
LINE
8
BLACK
6
CONTINUOUS
10
216.7
20
-53.5786
11
216.748
21
-53.6738
0
LINE
8
BLACK
6
CONTINUOUS
10
216.748
20
-53.6738
11
216.748
21
-53.8643
0
LINE
8
BLACK
6
CONTINUOUS
10
216.748
20
-53.8643
11
216.7
21
-53.9595
0
LINE
8
BLACK
6
CONTINUOUS
10
216.7
20
-53.9595
11
216.652
21
-54.0071
0
LINE
8
BLACK
6
CONTINUOUS
10
216.652
20
-54.0071
11
216.557
21
-54.0548
0
LINE
8
BLACK
6
CONTINUOUS
10
216.557
20
-54.0548
11
216.51
21
-54.0548
0
LINE
8
BLACK
6
CONTINUOUS
10
216.51
20
-54.0548
11
216.414
21
-54.0071
0
LINE
8
BLACK
6
CONTINUOUS
10
216.414
20
-54.0071
11
216.367
21
-53.9595
0
LINE
8
BLACK
6
CONTINUOUS
10
216.367
20
-53.9595
11
216.319
21
-53.8643
0
LINE
8
BLACK
6
CONTINUOUS
10
216.319
20
-53.8643
11
216.319
21
-53.6738
0
LINE
8
BLACK
6
CONTINUOUS
10
216.319
20
-53.6738
11
216.271
21
-53.5786
0
LINE
8
BLACK
6
CONTINUOUS
10
216.271
20
-53.5786
11
216.224
21
-53.531
0
LINE
8
BLACK
6
CONTINUOUS
10
216.224
20
-53.531
11
216.129
21
-53.4833
0
LINE
8
BLACK
6
CONTINUOUS
10
216.129
20
-53.4833
11
215.938
21
-53.4833
0
LINE
8
BLACK
6
CONTINUOUS
10
215.938
20
-53.4833
11
215.843
21
-53.531
0
LINE
8
BLACK
6
CONTINUOUS
10
215.843
20
-53.531
11
215.795
21
-53.5786
0
LINE
8
BLACK
6
CONTINUOUS
10
215.795
20
-53.5786
11
215.748
21
-53.6738
0
LINE
8
BLACK
6
CONTINUOUS
10
215.748
20
-53.6738
11
215.748
21
-53.8643
0
LINE
8
BLACK
6
CONTINUOUS
10
215.748
20
-53.8643
11
215.795
21
-53.9595
0
LINE
8
BLACK
6
CONTINUOUS
10
215.795
20
-53.9595
11
215.843
21
-54.0071
0
LINE
8
BLACK
6
CONTINUOUS
10
215.843
20
-54.0071
11
215.938
21
-54.0548
0
LINE
8
BLACK
6
CONTINUOUS
10
215.938
20
-54.0548
11
216.129
21
-54.0548
0
LINE
8
BLACK
6
CONTINUOUS
10
216.129
20
-54.0548
11
216.224
21
-54.0071
0
LINE
8
BLACK
6
CONTINUOUS
10
216.224
20
-54.0071
11
216.271
21
-53.9595
0
LINE
8
BLACK
6
CONTINUOUS
10
216.271
20
-53.9595
11
216.319
21
-53.8643
0
LINE
8
BLACK
6
CONTINUOUS
10
215.843
20
-54.4833
11
215.795
21
-54.531
0
LINE
8
BLACK
6
CONTINUOUS
10
215.795
20
-54.531
11
215.748
21
-54.4833
0
LINE
8
BLACK
6
CONTINUOUS
10
215.748
20
-54.4833
11
215.795
21
-54.4357
0
LINE
8
BLACK
6
CONTINUOUS
10
215.795
20
-54.4357
11
215.843
21
-54.4833
0
LINE
8
BLACK
6
CONTINUOUS
10
215.843
20
-54.4833
11
215.748
21
-54.4833
0
LINE
8
BLACK
6
CONTINUOUS
10
216.748
20
-55.4357
11
216.748
21
-54.9595
0
LINE
8
BLACK
6
CONTINUOUS
10
216.748
20
-54.9595
11
216.271
21
-54.9119
0
LINE
8
BLACK
6
CONTINUOUS
10
216.271
20
-54.9119
11
216.319
21
-54.9595
0
LINE
8
BLACK
6
CONTINUOUS
10
216.319
20
-54.9595
11
216.367
21
-55.0548
0
LINE
8
BLACK
6
CONTINUOUS
10
216.367
20
-55.0548
11
216.367
21
-55.2929
0
LINE
8
BLACK
6
CONTINUOUS
10
216.367
20
-55.2929
11
216.319
21
-55.3881
0
LINE
8
BLACK
6
CONTINUOUS
10
216.319
20
-55.3881
11
216.271
21
-55.4357
0
LINE
8
BLACK
6
CONTINUOUS
10
216.271
20
-55.4357
11
216.176
21
-55.4833
0
LINE
8
BLACK
6
CONTINUOUS
10
216.176
20
-55.4833
11
215.938
21
-55.4833
0
LINE
8
BLACK
6
CONTINUOUS
10
215.938
20
-55.4833
11
215.843
21
-55.4357
0
LINE
8
BLACK
6
CONTINUOUS
10
215.843
20
-55.4357
11
215.795
21
-55.3881
0
LINE
8
BLACK
6
CONTINUOUS
10
215.795
20
-55.3881
11
215.748
21
-55.2929
0
LINE
8
BLACK
6
CONTINUOUS
10
215.748
20
-55.2929
11
215.748
21
-55.0548
0
LINE
8
BLACK
6
CONTINUOUS
10
215.748
20
-55.0548
11
215.795
21
-54.9595
0
LINE
8
BLACK
6
CONTINUOUS
10
215.795
20
-54.9595
11
215.843
21
-54.9119
0
LINE
8
BLACK
6
CONTINUOUS
10
216.748
20
-56.3881
11
216.748
21
-55.9119
0
LINE
8
BLACK
6
CONTINUOUS
10
216.748
20
-55.9119
11
216.271
21
-55.8643
0
LINE
8
BLACK
6
CONTINUOUS
10
216.271
20
-55.8643
11
216.319
21
-55.9119
0
LINE
8
BLACK
6
CONTINUOUS
10
216.319
20
-55.9119
11
216.367
21
-56.0071
0
LINE
8
BLACK
6
CONTINUOUS
10
216.367
20
-56.0071
11
216.367
21
-56.2452
0
LINE
8
BLACK
6
CONTINUOUS
10
216.367
20
-56.2452
11
216.319
21
-56.3405
0
LINE
8
BLACK
6
CONTINUOUS
10
216.319
20
-56.3405
11
216.271
21
-56.3881
0
LINE
8
BLACK
6
CONTINUOUS
10
216.271
20
-56.3881
11
216.176
21
-56.4357
0
LINE
8
BLACK
6
CONTINUOUS
10
216.176
20
-56.4357
11
215.938
21
-56.4357
0
LINE
8
BLACK
6
CONTINUOUS
10
215.938
20
-56.4357
11
215.843
21
-56.3881
0
LINE
8
BLACK
6
CONTINUOUS
10
215.843
20
-56.3881
11
215.795
21
-56.3405
0
LINE
8
BLACK
6
CONTINUOUS
10
215.795
20
-56.3405
11
215.748
21
-56.2452
0
LINE
8
BLACK
6
CONTINUOUS
10
215.748
20
-56.2452
11
215.748
21
-56.0071
0
LINE
8
BLACK
6
CONTINUOUS
10
215.748
20
-56.0071
11
215.795
21
-55.9119
0
LINE
8
BLACK
6
CONTINUOUS
10
215.795
20
-55.9119
11
215.843
21
-55.8643
0
LINE
8
BLACK
6
CONTINUOUS
10
216.748
20
-57.3405
11
216.748
21
-56.8643
0
LINE
8
BLACK
6
CONTINUOUS
10
216.748
20
-56.8643
11
216.271
21
-56.8167
0
LINE
8
BLACK
6
CONTINUOUS
10
216.271
20
-56.8167
11
216.319
21
-56.8643
0
LINE
8
BLACK
6
CONTINUOUS
10
216.319
20
-56.8643
11
216.367
21
-56.9595
0
LINE
8
BLACK
6
CONTINUOUS
10
216.367
20
-56.9595
11
216.367
21
-57.1976
0
LINE
8
BLACK
6
CONTINUOUS
10
216.367
20
-57.1976
11
216.319
21
-57.2929
0
LINE
8
BLACK
6
CONTINUOUS
10
216.319
20
-57.2929
11
216.271
21
-57.3405
0
LINE
8
BLACK
6
CONTINUOUS
10
216.271
20
-57.3405
11
216.176
21
-57.3881
0
LINE
8
BLACK
6
CONTINUOUS
10
216.176
20
-57.3881
11
215.938
21
-57.3881
0
LINE
8
BLACK
6
CONTINUOUS
10
215.938
20
-57.3881
11
215.843
21
-57.3405
0
LINE
8
BLACK
6
CONTINUOUS
10
215.843
20
-57.3405
11
215.795
21
-57.2929
0
LINE
8
BLACK
6
CONTINUOUS
10
215.795
20
-57.2929
11
215.748
21
-57.1976
0
LINE
8
BLACK
6
CONTINUOUS
10
215.748
20
-57.1976
11
215.748
21
-56.9595
0
LINE
8
BLACK
6
CONTINUOUS
10
215.748
20
-56.9595
11
215.795
21
-56.8643
0
LINE
8
BLACK
6
CONTINUOUS
10
215.795
20
-56.8643
11
215.843
21
-56.8167
0
LINE
8
BLACK
6
CONTINUOUS
10
215.748
20
-58.5786
11
216.414
21
-58.5786
0
LINE
8
BLACK
6
CONTINUOUS
10
216.319
20
-58.5786
11
216.367
21
-58.6262
0
LINE
8
BLACK
6
CONTINUOUS
10
216.367
20
-58.6262
11
216.414
21
-58.7214
0
LINE
8
BLACK
6
CONTINUOUS
10
216.414
20
-58.7214
11
216.414
21
-58.8643
0
LINE
8
BLACK
6
CONTINUOUS
10
216.414
20
-58.8643
11
216.367
21
-58.9595
0
LINE
8
BLACK
6
CONTINUOUS
10
216.367
20
-58.9595
11
216.271
21
-59.0071
0
LINE
8
BLACK
6
CONTINUOUS
10
216.271
20
-59.0071
11
215.748
21
-59.0071
0
LINE
8
BLACK
6
CONTINUOUS
10
216.271
20
-59.0071
11
216.367
21
-59.0548
0
LINE
8
BLACK
6
CONTINUOUS
10
216.367
20
-59.0548
11
216.414
21
-59.15
0
LINE
8
BLACK
6
CONTINUOUS
10
216.414
20
-59.15
11
216.414
21
-59.2929
0
LINE
8
BLACK
6
CONTINUOUS
10
216.414
20
-59.2929
11
216.367
21
-59.3881
0
LINE
8
BLACK
6
CONTINUOUS
10
216.367
20
-59.3881
11
216.271
21
-59.4357
0
LINE
8
BLACK
6
CONTINUOUS
10
216.271
20
-59.4357
11
215.748
21
-59.4357
0
LINE
8
BLACK
6
CONTINUOUS
10
215.748
20
-59.9119
11
216.414
21
-59.9119
0
LINE
8
BLACK
6
CONTINUOUS
10
216.319
20
-59.9119
11
216.367
21
-59.9595
0
LINE
8
BLACK
6
CONTINUOUS
10
216.367
20
-59.9595
11
216.414
21
-60.0548
0
LINE
8
BLACK
6
CONTINUOUS
10
216.414
20
-60.0548
11
216.414
21
-60.1976
0
LINE
8
BLACK
6
CONTINUOUS
10
216.414
20
-60.1976
11
216.367
21
-60.2929
0
LINE
8
BLACK
6
CONTINUOUS
10
216.367
20
-60.2929
11
216.271
21
-60.3405
0
LINE
8
BLACK
6
CONTINUOUS
10
216.271
20
-60.3405
11
215.748
21
-60.3405
0
LINE
8
BLACK
6
CONTINUOUS
10
216.271
20
-60.3405
11
216.367
21
-60.3881
0
LINE
8
BLACK
6
CONTINUOUS
10
216.367
20
-60.3881
11
216.414
21
-60.4833
0
LINE
8
BLACK
6
CONTINUOUS
10
216.414
20
-60.4833
11
216.414
21
-60.6262
0
LINE
8
BLACK
6
CONTINUOUS
10
216.414
20
-60.6262
11
216.367
21
-60.7214
0
LINE
8
BLACK
6
CONTINUOUS
10
216.367
20
-60.7214
11
216.271
21
-60.769
0
LINE
8
BLACK
6
CONTINUOUS
10
216.271
20
-60.769
11
215.748
21
-60.769
0
LINE
8
BLACK
6
CONTINUOUS
10
214.9
20
-52.8725
11
214.9
21
-61.4275
0
LINE
8
BLACK
6
CONTINUOUS
10
214.875
20
-52.8725
11
215.486
21
-52.8725
0
LINE
8
BLACK
6
CONTINUOUS
10
214.875
20
-61.4275
11
215.486
21
-61.4275
0
LINE
8
BLACK
6
CONTINUOUS
10
214.9
20
-61.4275
11
214.314
21
-60.301
0
LINE
8
BLACK
6
CONTINUOUS
10
214.9
20
-61.4275
11
215.486
21
-60.301
0
LINE
8
BLACK
6
CONTINUOUS
10
214.9
20
-52.8725
11
214.314
21
-53.999
0
LINE
8
BLACK
6
CONTINUOUS
10
214.9
20
-52.8725
11
215.486
21
-53.999
0
LINE
8
BLACK
6
CONTINUOUS
10
48.5838
20
65.2876
11
48.0123
21
65.2876
0
LINE
8
BLACK
6
CONTINUOUS
10
48.298
20
65.2876
11
48.298
21
66.2876
0
LINE
8
BLACK
6
CONTINUOUS
10
48.298
20
66.2876
11
48.2028
21
66.1448
0
LINE
8
BLACK
6
CONTINUOUS
10
48.2028
20
66.1448
11
48.1076
21
66.0495
0
LINE
8
BLACK
6
CONTINUOUS
10
48.1076
20
66.0495
11
48.0123
21
66.0019
0
LINE
8
BLACK
6
CONTINUOUS
10
49.4409
20
65.9543
11
49.4409
21
65.2876
0
LINE
8
BLACK
6
CONTINUOUS
10
49.2028
20
66.3352
11
48.9647
21
65.621
0
LINE
8
BLACK
6
CONTINUOUS
10
48.9647
20
65.621
11
49.5838
21
65.621
0
LINE
8
BLACK
6
CONTINUOUS
10
49.9647
20
65.3829
11
50.0123
21
65.3352
0
LINE
8
BLACK
6
CONTINUOUS
10
50.0123
20
65.3352
11
49.9647
21
65.2876
0
LINE
8
BLACK
6
CONTINUOUS
10
49.9647
20
65.2876
11
49.9171
21
65.3352
0
LINE
8
BLACK
6
CONTINUOUS
10
49.9171
20
65.3352
11
49.9647
21
65.3829
0
LINE
8
BLACK
6
CONTINUOUS
10
49.9647
20
65.3829
11
49.9647
21
65.2876
0
LINE
8
BLACK
6
CONTINUOUS
10
50.6314
20
66.2876
11
50.7266
21
66.2876
0
LINE
8
BLACK
6
CONTINUOUS
10
50.7266
20
66.2876
11
50.8219
21
66.24
0
LINE
8
BLACK
6
CONTINUOUS
10
50.8219
20
66.24
11
50.8695
21
66.1924
0
LINE
8
BLACK
6
CONTINUOUS
10
50.8695
20
66.1924
11
50.9171
21
66.0971
0
LINE
8
BLACK
6
CONTINUOUS
10
50.9171
20
66.0971
11
50.9647
21
65.9067
0
LINE
8
BLACK
6
CONTINUOUS
10
50.9647
20
65.9067
11
50.9647
21
65.6686
0
LINE
8
BLACK
6
CONTINUOUS
10
50.9647
20
65.6686
11
50.9171
21
65.4781
0
LINE
8
BLACK
6
CONTINUOUS
10
50.9171
20
65.4781
11
50.8695
21
65.3829
0
LINE
8
BLACK
6
CONTINUOUS
10
50.8695
20
65.3829
11
50.8219
21
65.3352
0
LINE
8
BLACK
6
CONTINUOUS
10
50.8219
20
65.3352
11
50.7266
21
65.2876
0
LINE
8
BLACK
6
CONTINUOUS
10
50.7266
20
65.2876
11
50.6314
21
65.2876
0
LINE
8
BLACK
6
CONTINUOUS
10
50.6314
20
65.2876
11
50.5361
21
65.3352
0
LINE
8
BLACK
6
CONTINUOUS
10
50.5361
20
65.3352
11
50.4885
21
65.3829
0
LINE
8
BLACK
6
CONTINUOUS
10
50.4885
20
65.3829
11
50.4409
21
65.4781
0
LINE
8
BLACK
6
CONTINUOUS
10
50.4409
20
65.4781
11
50.3933
21
65.6686
0
LINE
8
BLACK
6
CONTINUOUS
10
50.3933
20
65.6686
11
50.3933
21
65.9067
0
LINE
8
BLACK
6
CONTINUOUS
10
50.3933
20
65.9067
11
50.4409
21
66.0971
0
LINE
8
BLACK
6
CONTINUOUS
10
50.4409
20
66.0971
11
50.4885
21
66.1924
0
LINE
8
BLACK
6
CONTINUOUS
10
50.4885
20
66.1924
11
50.5361
21
66.24
0
LINE
8
BLACK
6
CONTINUOUS
10
50.5361
20
66.24
11
50.6314
21
66.2876
0
LINE
8
BLACK
6
CONTINUOUS
10
51.5838
20
66.2876
11
51.679
21
66.2876
0
LINE
8
BLACK
6
CONTINUOUS
10
51.679
20
66.2876
11
51.7742
21
66.24
0
LINE
8
BLACK
6
CONTINUOUS
10
51.7742
20
66.24
11
51.8219
21
66.1924
0
LINE
8
BLACK
6
CONTINUOUS
10
51.8219
20
66.1924
11
51.8695
21
66.0971
0
LINE
8
BLACK
6
CONTINUOUS
10
51.8695
20
66.0971
11
51.9171
21
65.9067
0
LINE
8
BLACK
6
CONTINUOUS
10
51.9171
20
65.9067
11
51.9171
21
65.6686
0
LINE
8
BLACK
6
CONTINUOUS
10
51.9171
20
65.6686
11
51.8695
21
65.4781
0
LINE
8
BLACK
6
CONTINUOUS
10
51.8695
20
65.4781
11
51.8219
21
65.3829
0
LINE
8
BLACK
6
CONTINUOUS
10
51.8219
20
65.3829
11
51.7742
21
65.3352
0
LINE
8
BLACK
6
CONTINUOUS
10
51.7742
20
65.3352
11
51.679
21
65.2876
0
LINE
8
BLACK
6
CONTINUOUS
10
51.679
20
65.2876
11
51.5838
21
65.2876
0
LINE
8
BLACK
6
CONTINUOUS
10
51.5838
20
65.2876
11
51.4885
21
65.3352
0
LINE
8
BLACK
6
CONTINUOUS
10
51.4885
20
65.3352
11
51.4409
21
65.3829
0
LINE
8
BLACK
6
CONTINUOUS
10
51.4409
20
65.3829
11
51.3933
21
65.4781
0
LINE
8
BLACK
6
CONTINUOUS
10
51.3933
20
65.4781
11
51.3457
21
65.6686
0
LINE
8
BLACK
6
CONTINUOUS
10
51.3457
20
65.6686
11
51.3457
21
65.9067
0
LINE
8
BLACK
6
CONTINUOUS
10
51.3457
20
65.9067
11
51.3933
21
66.0971
0
LINE
8
BLACK
6
CONTINUOUS
10
51.3933
20
66.0971
11
51.4409
21
66.1924
0
LINE
8
BLACK
6
CONTINUOUS
10
51.4409
20
66.1924
11
51.4885
21
66.24
0
LINE
8
BLACK
6
CONTINUOUS
10
51.4885
20
66.24
11
51.5838
21
66.2876
0
LINE
8
BLACK
6
CONTINUOUS
10
52.5361
20
66.2876
11
52.6314
21
66.2876
0
LINE
8
BLACK
6
CONTINUOUS
10
52.6314
20
66.2876
11
52.7266
21
66.24
0
LINE
8
BLACK
6
CONTINUOUS
10
52.7266
20
66.24
11
52.7742
21
66.1924
0
LINE
8
BLACK
6
CONTINUOUS
10
52.7742
20
66.1924
11
52.8219
21
66.0971
0
LINE
8
BLACK
6
CONTINUOUS
10
52.8219
20
66.0971
11
52.8695
21
65.9067
0
LINE
8
BLACK
6
CONTINUOUS
10
52.8695
20
65.9067
11
52.8695
21
65.6686
0
LINE
8
BLACK
6
CONTINUOUS
10
52.8695
20
65.6686
11
52.8219
21
65.4781
0
LINE
8
BLACK
6
CONTINUOUS
10
52.8219
20
65.4781
11
52.7742
21
65.3829
0
LINE
8
BLACK
6
CONTINUOUS
10
52.7742
20
65.3829
11
52.7266
21
65.3352
0
LINE
8
BLACK
6
CONTINUOUS
10
52.7266
20
65.3352
11
52.6314
21
65.2876
0
LINE
8
BLACK
6
CONTINUOUS
10
52.6314
20
65.2876
11
52.5361
21
65.2876
0
LINE
8
BLACK
6
CONTINUOUS
10
52.5361
20
65.2876
11
52.4409
21
65.3352
0
LINE
8
BLACK
6
CONTINUOUS
10
52.4409
20
65.3352
11
52.3933
21
65.3829
0
LINE
8
BLACK
6
CONTINUOUS
10
52.3933
20
65.3829
11
52.3457
21
65.4781
0
LINE
8
BLACK
6
CONTINUOUS
10
52.3457
20
65.4781
11
52.298
21
65.6686
0
LINE
8
BLACK
6
CONTINUOUS
10
52.298
20
65.6686
11
52.298
21
65.9067
0
LINE
8
BLACK
6
CONTINUOUS
10
52.298
20
65.9067
11
52.3457
21
66.0971
0
LINE
8
BLACK
6
CONTINUOUS
10
52.3457
20
66.0971
11
52.3933
21
66.1924
0
LINE
8
BLACK
6
CONTINUOUS
10
52.3933
20
66.1924
11
52.4409
21
66.24
0
LINE
8
BLACK
6
CONTINUOUS
10
52.4409
20
66.24
11
52.5361
21
66.2876
0
LINE
8
BLACK
6
CONTINUOUS
10
54.06
20
65.2876
11
54.06
21
65.9543
0
LINE
8
BLACK
6
CONTINUOUS
10
54.06
20
65.859
11
54.1076
21
65.9067
0
LINE
8
BLACK
6
CONTINUOUS
10
54.1076
20
65.9067
11
54.2028
21
65.9543
0
LINE
8
BLACK
6
CONTINUOUS
10
54.2028
20
65.9543
11
54.3457
21
65.9543
0
LINE
8
BLACK
6
CONTINUOUS
10
54.3457
20
65.9543
11
54.4409
21
65.9067
0
LINE
8
BLACK
6
CONTINUOUS
10
54.4409
20
65.9067
11
54.4885
21
65.8114
0
LINE
8
BLACK
6
CONTINUOUS
10
54.4885
20
65.8114
11
54.4885
21
65.2876
0
LINE
8
BLACK
6
CONTINUOUS
10
54.4885
20
65.8114
11
54.5361
21
65.9067
0
LINE
8
BLACK
6
CONTINUOUS
10
54.5361
20
65.9067
11
54.6314
21
65.9543
0
LINE
8
BLACK
6
CONTINUOUS
10
54.6314
20
65.9543
11
54.7742
21
65.9543
0
LINE
8
BLACK
6
CONTINUOUS
10
54.7742
20
65.9543
11
54.8695
21
65.9067
0
LINE
8
BLACK
6
CONTINUOUS
10
54.8695
20
65.9067
11
54.9171
21
65.8114
0
LINE
8
BLACK
6
CONTINUOUS
10
54.9171
20
65.8114
11
54.9171
21
65.2876
0
LINE
8
BLACK
6
CONTINUOUS
10
55.3933
20
65.2876
11
55.3933
21
65.9543
0
LINE
8
BLACK
6
CONTINUOUS
10
55.3933
20
65.859
11
55.4409
21
65.9067
0
LINE
8
BLACK
6
CONTINUOUS
10
55.4409
20
65.9067
11
55.5361
21
65.9543
0
LINE
8
BLACK
6
CONTINUOUS
10
55.5361
20
65.9543
11
55.679
21
65.9543
0
LINE
8
BLACK
6
CONTINUOUS
10
55.679
20
65.9543
11
55.7742
21
65.9067
0
LINE
8
BLACK
6
CONTINUOUS
10
55.7742
20
65.9067
11
55.8219
21
65.8114
0
LINE
8
BLACK
6
CONTINUOUS
10
55.8219
20
65.8114
11
55.8219
21
65.2876
0
LINE
8
BLACK
6
CONTINUOUS
10
55.8219
20
65.8114
11
55.8695
21
65.9067
0
LINE
8
BLACK
6
CONTINUOUS
10
55.8695
20
65.9067
11
55.9647
21
65.9543
0
LINE
8
BLACK
6
CONTINUOUS
10
55.9647
20
65.9543
11
56.1076
21
65.9543
0
LINE
8
BLACK
6
CONTINUOUS
10
56.1076
20
65.9543
11
56.2028
21
65.9067
0
LINE
8
BLACK
6
CONTINUOUS
10
56.2028
20
65.9067
11
56.2504
21
65.8114
0
LINE
8
BLACK
6
CONTINUOUS
10
56.2504
20
65.8114
11
56.2504
21
65.2876
0
LINE
8
BLACK
6
CONTINUOUS
10
45.1552
20
64.44
11
59.1552
21
64.44
0
LINE
8
BLACK
6
CONTINUOUS
10
45.1552
20
63.9025
11
45.1552
21
65.0264
0
LINE
8
BLACK
6
CONTINUOUS
10
59.1552
20
63.9025
11
59.1552
21
65.0264
0
LINE
8
BLACK
6
CONTINUOUS
10
59.1552
20
64.44
11
58.0287
21
63.8536
0
LINE
8
BLACK
6
CONTINUOUS
10
59.1552
20
64.44
11
58.0287
21
65.0264
0
LINE
8
BLACK
6
CONTINUOUS
10
45.1552
20
64.44
11
46.2817
21
63.8536
0
LINE
8
BLACK
6
CONTINUOUS
10
45.1552
20
64.44
11
46.2817
21
65.0264
0
LINE
8
BLACK
6
CONTINUOUS
10
27.7276
20
55.4739
11
27.7276
21
56.0454
0
LINE
8
BLACK
6
CONTINUOUS
10
27.7276
20
55.7596
11
28.7276
21
55.7596
0
LINE
8
BLACK
6
CONTINUOUS
10
28.7276
20
55.7596
11
28.5848
21
55.8549
0
LINE
8
BLACK
6
CONTINUOUS
10
28.5848
20
55.8549
11
28.4895
21
55.9501
0
LINE
8
BLACK
6
CONTINUOUS
10
28.4895
20
55.9501
11
28.4419
21
56.0454
0
LINE
8
BLACK
6
CONTINUOUS
10
28.3943
20
54.6168
11
27.7276
21
54.6168
0
LINE
8
BLACK
6
CONTINUOUS
10
28.7752
20
54.8549
11
28.061
21
55.093
0
LINE
8
BLACK
6
CONTINUOUS
10
28.061
20
55.093
11
28.061
21
54.4739
0
LINE
8
BLACK
6
CONTINUOUS
10
27.8229
20
54.093
11
27.7752
21
54.0454
0
LINE
8
BLACK
6
CONTINUOUS
10
27.7752
20
54.0454
11
27.7276
21
54.093
0
LINE
8
BLACK
6
CONTINUOUS
10
27.7276
20
54.093
11
27.7752
21
54.1406
0
LINE
8
BLACK
6
CONTINUOUS
10
27.7752
20
54.1406
11
27.8229
21
54.093
0
LINE
8
BLACK
6
CONTINUOUS
10
27.8229
20
54.093
11
27.7276
21
54.093
0
LINE
8
BLACK
6
CONTINUOUS
10
28.7276
20
53.4263
11
28.7276
21
53.3311
0
LINE
8
BLACK
6
CONTINUOUS
10
28.7276
20
53.3311
11
28.68
21
53.2358
0
LINE
8
BLACK
6
CONTINUOUS
10
28.68
20
53.2358
11
28.6324
21
53.1882
0
LINE
8
BLACK
6
CONTINUOUS
10
28.6324
20
53.1882
11
28.5371
21
53.1406
0
LINE
8
BLACK
6
CONTINUOUS
10
28.5371
20
53.1406
11
28.3467
21
53.093
0
LINE
8
BLACK
6
CONTINUOUS
10
28.3467
20
53.093
11
28.1086
21
53.093
0
LINE
8
BLACK
6
CONTINUOUS
10
28.1086
20
53.093
11
27.9181
21
53.1406
0
LINE
8
BLACK
6
CONTINUOUS
10
27.9181
20
53.1406
11
27.8229
21
53.1882
0
LINE
8
BLACK
6
CONTINUOUS
10
27.8229
20
53.1882
11
27.7752
21
53.2358
0
LINE
8
BLACK
6
CONTINUOUS
10
27.7752
20
53.2358
11
27.7276
21
53.3311
0
LINE
8
BLACK
6
CONTINUOUS
10
27.7276
20
53.3311
11
27.7276
21
53.4263
0
LINE
8
BLACK
6
CONTINUOUS
10
27.7276
20
53.4263
11
27.7752
21
53.5215
0
LINE
8
BLACK
6
CONTINUOUS
10
27.7752
20
53.5215
11
27.8229
21
53.5692
0
LINE
8
BLACK
6
CONTINUOUS
10
27.8229
20
53.5692
11
27.9181
21
53.6168
0
LINE
8
BLACK
6
CONTINUOUS
10
27.9181
20
53.6168
11
28.1086
21
53.6644
0
LINE
8
BLACK
6
CONTINUOUS
10
28.1086
20
53.6644
11
28.3467
21
53.6644
0
LINE
8
BLACK
6
CONTINUOUS
10
28.3467
20
53.6644
11
28.5371
21
53.6168
0
LINE
8
BLACK
6
CONTINUOUS
10
28.5371
20
53.6168
11
28.6324
21
53.5692
0
LINE
8
BLACK
6
CONTINUOUS
10
28.6324
20
53.5692
11
28.68
21
53.5215
0
LINE
8
BLACK
6
CONTINUOUS
10
28.68
20
53.5215
11
28.7276
21
53.4263
0
LINE
8
BLACK
6
CONTINUOUS
10
28.7276
20
52.4739
11
28.7276
21
52.3787
0
LINE
8
BLACK
6
CONTINUOUS
10
28.7276
20
52.3787
11
28.68
21
52.2835
0
LINE
8
BLACK
6
CONTINUOUS
10
28.68
20
52.2835
11
28.6324
21
52.2358
0
LINE
8
BLACK
6
CONTINUOUS
10
28.6324
20
52.2358
11
28.5371
21
52.1882
0
LINE
8
BLACK
6
CONTINUOUS
10
28.5371
20
52.1882
11
28.3467
21
52.1406
0
LINE
8
BLACK
6
CONTINUOUS
10
28.3467
20
52.1406
11
28.1086
21
52.1406
0
LINE
8
BLACK
6
CONTINUOUS
10
28.1086
20
52.1406
11
27.9181
21
52.1882
0
LINE
8
BLACK
6
CONTINUOUS
10
27.9181
20
52.1882
11
27.8229
21
52.2358
0
LINE
8
BLACK
6
CONTINUOUS
10
27.8229
20
52.2358
11
27.7752
21
52.2835
0
LINE
8
BLACK
6
CONTINUOUS
10
27.7752
20
52.2835
11
27.7276
21
52.3787
0
LINE
8
BLACK
6
CONTINUOUS
10
27.7276
20
52.3787
11
27.7276
21
52.4739
0
LINE
8
BLACK
6
CONTINUOUS
10
27.7276
20
52.4739
11
27.7752
21
52.5692
0
LINE
8
BLACK
6
CONTINUOUS
10
27.7752
20
52.5692
11
27.8229
21
52.6168
0
LINE
8
BLACK
6
CONTINUOUS
10
27.8229
20
52.6168
11
27.9181
21
52.6644
0
LINE
8
BLACK
6
CONTINUOUS
10
27.9181
20
52.6644
11
28.1086
21
52.712
0
LINE
8
BLACK
6
CONTINUOUS
10
28.1086
20
52.712
11
28.3467
21
52.712
0
LINE
8
BLACK
6
CONTINUOUS
10
28.3467
20
52.712
11
28.5371
21
52.6644
0
LINE
8
BLACK
6
CONTINUOUS
10
28.5371
20
52.6644
11
28.6324
21
52.6168
0
LINE
8
BLACK
6
CONTINUOUS
10
28.6324
20
52.6168
11
28.68
21
52.5692
0
LINE
8
BLACK
6
CONTINUOUS
10
28.68
20
52.5692
11
28.7276
21
52.4739
0
LINE
8
BLACK
6
CONTINUOUS
10
28.7276
20
51.5215
11
28.7276
21
51.4263
0
LINE
8
BLACK
6
CONTINUOUS
10
28.7276
20
51.4263
11
28.68
21
51.3311
0
LINE
8
BLACK
6
CONTINUOUS
10
28.68
20
51.3311
11
28.6324
21
51.2835
0
LINE
8
BLACK
6
CONTINUOUS
10
28.6324
20
51.2835
11
28.5371
21
51.2358
0
LINE
8
BLACK
6
CONTINUOUS
10
28.5371
20
51.2358
11
28.3467
21
51.1882
0
LINE
8
BLACK
6
CONTINUOUS
10
28.3467
20
51.1882
11
28.1086
21
51.1882
0
LINE
8
BLACK
6
CONTINUOUS
10
28.1086
20
51.1882
11
27.9181
21
51.2358
0
LINE
8
BLACK
6
CONTINUOUS
10
27.9181
20
51.2358
11
27.8229
21
51.2835
0
LINE
8
BLACK
6
CONTINUOUS
10
27.8229
20
51.2835
11
27.7752
21
51.3311
0
LINE
8
BLACK
6
CONTINUOUS
10
27.7752
20
51.3311
11
27.7276
21
51.4263
0
LINE
8
BLACK
6
CONTINUOUS
10
27.7276
20
51.4263
11
27.7276
21
51.5215
0
LINE
8
BLACK
6
CONTINUOUS
10
27.7276
20
51.5215
11
27.7752
21
51.6168
0
LINE
8
BLACK
6
CONTINUOUS
10
27.7752
20
51.6168
11
27.8229
21
51.6644
0
LINE
8
BLACK
6
CONTINUOUS
10
27.8229
20
51.6644
11
27.9181
21
51.712
0
LINE
8
BLACK
6
CONTINUOUS
10
27.9181
20
51.712
11
28.1086
21
51.7596
0
LINE
8
BLACK
6
CONTINUOUS
10
28.1086
20
51.7596
11
28.3467
21
51.7596
0
LINE
8
BLACK
6
CONTINUOUS
10
28.3467
20
51.7596
11
28.5371
21
51.712
0
LINE
8
BLACK
6
CONTINUOUS
10
28.5371
20
51.712
11
28.6324
21
51.6644
0
LINE
8
BLACK
6
CONTINUOUS
10
28.6324
20
51.6644
11
28.68
21
51.6168
0
LINE
8
BLACK
6
CONTINUOUS
10
28.68
20
51.6168
11
28.7276
21
51.5215
0
LINE
8
BLACK
6
CONTINUOUS
10
27.7276
20
49.9977
11
28.3943
21
49.9977
0
LINE
8
BLACK
6
CONTINUOUS
10
28.299
20
49.9977
11
28.3467
21
49.9501
0
LINE
8
BLACK
6
CONTINUOUS
10
28.3467
20
49.9501
11
28.3943
21
49.8549
0
LINE
8
BLACK
6
CONTINUOUS
10
28.3943
20
49.8549
11
28.3943
21
49.712
0
LINE
8
BLACK
6
CONTINUOUS
10
28.3943
20
49.712
11
28.3467
21
49.6168
0
LINE
8
BLACK
6
CONTINUOUS
10
28.3467
20
49.6168
11
28.2514
21
49.5692
0
LINE
8
BLACK
6
CONTINUOUS
10
28.2514
20
49.5692
11
27.7276
21
49.5692
0
LINE
8
BLACK
6
CONTINUOUS
10
28.2514
20
49.5692
11
28.3467
21
49.5215
0
LINE
8
BLACK
6
CONTINUOUS
10
28.3467
20
49.5215
11
28.3943
21
49.4263
0
LINE
8
BLACK
6
CONTINUOUS
10
28.3943
20
49.4263
11
28.3943
21
49.2835
0
LINE
8
BLACK
6
CONTINUOUS
10
28.3943
20
49.2835
11
28.3467
21
49.1882
0
LINE
8
BLACK
6
CONTINUOUS
10
28.3467
20
49.1882
11
28.2514
21
49.1406
0
LINE
8
BLACK
6
CONTINUOUS
10
28.2514
20
49.1406
11
27.7276
21
49.1406
0
LINE
8
BLACK
6
CONTINUOUS
10
27.7276
20
48.6644
11
28.3943
21
48.6644
0
LINE
8
BLACK
6
CONTINUOUS
10
28.299
20
48.6644
11
28.3467
21
48.6168
0
LINE
8
BLACK
6
CONTINUOUS
10
28.3467
20
48.6168
11
28.3943
21
48.5215
0
LINE
8
BLACK
6
CONTINUOUS
10
28.3943
20
48.5215
11
28.3943
21
48.3787
0
LINE
8
BLACK
6
CONTINUOUS
10
28.3943
20
48.3787
11
28.3467
21
48.2835
0
LINE
8
BLACK
6
CONTINUOUS
10
28.3467
20
48.2835
11
28.2514
21
48.2358
0
LINE
8
BLACK
6
CONTINUOUS
10
28.2514
20
48.2358
11
27.7276
21
48.2358
0
LINE
8
BLACK
6
CONTINUOUS
10
28.2514
20
48.2358
11
28.3467
21
48.1882
0
LINE
8
BLACK
6
CONTINUOUS
10
28.3467
20
48.1882
11
28.3943
21
48.093
0
LINE
8
BLACK
6
CONTINUOUS
10
28.3943
20
48.093
11
28.3943
21
47.9501
0
LINE
8
BLACK
6
CONTINUOUS
10
28.3943
20
47.9501
11
28.3467
21
47.8549
0
LINE
8
BLACK
6
CONTINUOUS
10
28.3467
20
47.8549
11
28.2514
21
47.8073
0
LINE
8
BLACK
6
CONTINUOUS
10
28.2514
20
47.8073
11
27.7276
21
47.8073
0
LINE
8
BLACK
6
CONTINUOUS
10
29.48
20
58.9025
11
29.48
21
44.9025
0
LINE
8
BLACK
6
CONTINUOUS
10
30.1552
20
58.9025
11
28.8936
21
58.9025
0
LINE
8
BLACK
6
CONTINUOUS
10
30.1552
20
44.9025
11
28.8936
21
44.9025
0
LINE
8
BLACK
6
CONTINUOUS
10
29.48
20
44.9025
11
28.8936
21
46.029
0
LINE
8
BLACK
6
CONTINUOUS
10
29.48
20
44.9025
11
30.0664
21
46.029
0
LINE
8
BLACK
6
CONTINUOUS
10
29.48
20
58.9025
11
28.8936
21
57.776
0
LINE
8
BLACK
6
CONTINUOUS
10
29.48
20
58.9025
11
30.0664
21
57.776
0
LINE
8
BLACK
6
CONTINUOUS
10
121.355
20
25.8525
11
135.355
21
25.8525
0
LINE
8
BLACK
6
CONTINUOUS
10
102.305
20
25.8525
11
116.305
21
25.8525
0
LINE
8
BLACK
6
CONTINUOUS
10
83.255
20
25.8525
11
97.255
21
25.8525
0
LINE
8
BLACK
6
CONTINUOUS
10
45.155
20
25.8525
11
59.155
21
25.8525
0
LINE
8
BLACK
6
CONTINUOUS
10
64.205
20
25.8525
11
78.205
21
25.8525
0
LINE
8
BLACK
6
CONTINUOUS
10
87.73
20
20.8025
11
73.73
21
20.8025
0
LINE
8
BLACK
6
CONTINUOUS
10
68.68
20
20.8025
11
54.68
21
20.8025
0
LINE
8
BLACK
6
CONTINUOUS
10
159.455
20
25.8525
11
173.455
21
25.8525
0
LINE
8
BLACK
6
CONTINUOUS
10
140.405
20
25.8525
11
154.405
21
25.8525
0
LINE
8
BLACK
6
CONTINUOUS
10
106.78
20
20.8025
11
92.78
21
20.8025
0
LINE
8
BLACK
6
CONTINUOUS
10
125.83
20
20.8025
11
111.83
21
20.8025
0
LINE
8
BLACK
6
CONTINUOUS
10
144.88
20
20.8025
11
130.88
21
20.8025
0
LINE
8
BLACK
6
CONTINUOUS
10
163.93
20
20.8025
11
149.93
21
20.8025
0
LINE
8
BLACK
6
CONTINUOUS
10
187.742
20
20.8025
11
173.742
21
20.8025
0
LINE
8
BLACK
6
CONTINUOUS
10
178.505
20
25.8525
11
192.505
21
25.8525
0
LINE
8
BLACK
6
CONTINUOUS
10
83.255
20
58.9025
11
83.255
21
44.9025
0
LINE
8
BLACK
6
CONTINUOUS
10
97.255
20
44.9025
11
97.255
21
58.9025
0
LINE
8
BLACK
6
CONTINUOUS
10
97.255
20
58.9025
11
83.255
21
58.9025
0
LINE
8
BLACK
6
CONTINUOUS
10
83.255
20
44.9025
11
97.255
21
44.9025
0
LINE
8
BLACK
6
CONTINUOUS
10
102.305
20
58.9025
11
102.305
21
44.9025
0
LINE
8
BLACK
6
CONTINUOUS
10
116.305
20
44.9025
11
116.305
21
58.9025
0
LINE
8
BLACK
6
CONTINUOUS
10
116.305
20
58.9025
11
102.305
21
58.9025
0
LINE
8
BLACK
6
CONTINUOUS
10
102.305
20
44.9025
11
116.305
21
44.9025
0
LINE
8
BLACK
6
CONTINUOUS
10
121.355
20
58.9025
11
121.355
21
44.9025
0
LINE
8
BLACK
6
CONTINUOUS
10
135.355
20
44.9025
11
135.355
21
58.9025
0
LINE
8
BLACK
6
CONTINUOUS
10
135.355
20
58.9025
11
121.355
21
58.9025
0
LINE
8
BLACK
6
CONTINUOUS
10
121.355
20
44.9025
11
135.355
21
44.9025
0
LINE
8
BLACK
6
CONTINUOUS
10
140.405
20
58.9025
11
140.405
21
44.9025
0
LINE
8
BLACK
6
CONTINUOUS
10
154.405
20
44.9025
11
154.405
21
58.9025
0
LINE
8
BLACK
6
CONTINUOUS
10
154.405
20
58.9025
11
140.405
21
58.9025
0
LINE
8
BLACK
6
CONTINUOUS
10
140.405
20
44.9025
11
154.405
21
44.9025
0
LINE
8
BLACK
6
CONTINUOUS
10
159.455
20
44.9025
11
173.455
21
44.9025
0
LINE
8
BLACK
6
CONTINUOUS
10
159.455
20
58.9025
11
159.455
21
44.9025
0
LINE
8
BLACK
6
CONTINUOUS
10
173.455
20
44.9025
11
173.455
21
58.9025
0
LINE
8
BLACK
6
CONTINUOUS
10
173.455
20
58.9025
11
159.455
21
58.9025
0
LINE
8
BLACK
6
CONTINUOUS
10
178.506
20
44.9025
11
192.506
21
44.9025
0
LINE
8
BLACK
6
CONTINUOUS
10
178.506
20
58.9025
11
178.506
21
44.9025
0
LINE
8
BLACK
6
CONTINUOUS
10
192.506
20
44.9025
11
192.506
21
58.9025
0
LINE
8
BLACK
6
CONTINUOUS
10
192.506
20
58.9025
11
178.506
21
58.9025
0
LINE
8
BLACK
6
CONTINUOUS
10
197.556
20
58.9025
11
197.556
21
44.9025
0
LINE
8
BLACK
6
CONTINUOUS
10
211.556
20
44.9025
11
211.556
21
58.9025
0
LINE
8
BLACK
6
CONTINUOUS
10
211.556
20
58.9025
11
197.556
21
58.9025
0
LINE
8
BLACK
6
CONTINUOUS
10
197.556
20
44.9025
11
211.556
21
44.9025
0
LINE
8
BLACK
6
CONTINUOUS
10
45.155
20
39.8525
11
45.155
21
25.8525
0
LINE
8
BLACK
6
CONTINUOUS
10
59.155
20
25.8525
11
59.155
21
39.8525
0
LINE
8
BLACK
6
CONTINUOUS
10
59.155
20
39.8525
11
45.155
21
39.8525
0
LINE
8
BLACK
6
CONTINUOUS
10
64.205
20
39.8525
11
64.205
21
25.8525
0
LINE
8
BLACK
6
CONTINUOUS
10
78.205
20
25.8525
11
78.205
21
39.8525
0
LINE
8
BLACK
6
CONTINUOUS
10
78.205
20
39.8525
11
64.205
21
39.8525
0
LINE
8
BLACK
6
CONTINUOUS
10
83.255
20
39.8525
11
83.255
21
25.8525
0
LINE
8
BLACK
6
CONTINUOUS
10
97.255
20
25.8525
11
97.255
21
39.8525
0
LINE
8
BLACK
6
CONTINUOUS
10
97.255
20
39.8525
11
83.255
21
39.8525
0
LINE
8
BLACK
6
CONTINUOUS
10
116.305
20
25.8525
11
116.305
21
39.8525
0
LINE
8
BLACK
6
CONTINUOUS
10
116.305
20
39.8525
11
102.305
21
39.8525
0
LINE
8
BLACK
6
CONTINUOUS
10
102.305
20
39.8525
11
102.305
21
25.8525
0
LINE
8
BLACK
6
CONTINUOUS
10
135.355
20
25.8525
11
135.355
21
39.8525
0
LINE
8
BLACK
6
CONTINUOUS
10
135.355
20
39.8525
11
121.355
21
39.8525
0
LINE
8
BLACK
6
CONTINUOUS
10
121.355
20
39.8525
11
121.355
21
25.8525
0
LINE
8
BLACK
6
CONTINUOUS
10
154.405
20
25.8525
11
154.405
21
39.8525
0
LINE
8
BLACK
6
CONTINUOUS
10
154.405
20
39.8525
11
140.405
21
39.8525
0
LINE
8
BLACK
6
CONTINUOUS
10
140.405
20
39.8525
11
140.405
21
25.8525
0
LINE
8
BLACK
6
CONTINUOUS
10
173.455
20
25.8525
11
173.455
21
39.8525
0
LINE
8
BLACK
6
CONTINUOUS
10
173.455
20
39.8525
11
159.455
21
39.8525
0
LINE
8
BLACK
6
CONTINUOUS
10
159.455
20
39.8525
11
159.455
21
25.8525
0
LINE
8
BLACK
6
CONTINUOUS
10
192.505
20
25.8525
11
192.505
21
39.8525
0
LINE
8
BLACK
6
CONTINUOUS
10
192.505
20
39.8525
11
178.505
21
39.8525
0
LINE
8
BLACK
6
CONTINUOUS
10
178.505
20
39.8525
11
178.505
21
25.8525
0
LINE
8
BLACK
6
CONTINUOUS
10
197.556
20
6.8025
11
211.556
21
6.8025
0
LINE
8
BLACK
6
CONTINUOUS
10
197.556
20
20.8025
11
197.556
21
6.8025
0
LINE
8
BLACK
6
CONTINUOUS
10
211.556
20
20.8025
11
197.556
21
20.8025
0
LINE
8
BLACK
6
CONTINUOUS
10
211.556
20
6.8025
11
211.556
21
20.8025
0
LINE
8
BLACK
6
CONTINUOUS
10
173.742
20
6.8025
11
187.742
21
6.8025
0
LINE
8
BLACK
6
CONTINUOUS
10
173.742
20
20.8025
11
173.742
21
6.8025
0
LINE
8
BLACK
6
CONTINUOUS
10
187.742
20
6.8025
11
187.742
21
20.8025
0
LINE
8
BLACK
6
CONTINUOUS
10
149.93
20
6.8025
11
163.93
21
6.8025
0
LINE
8
BLACK
6
CONTINUOUS
10
163.93
20
6.8025
11
163.93
21
20.8025
0
LINE
8
BLACK
6
CONTINUOUS
10
149.93
20
20.8025
11
149.93
21
6.8025
0
LINE
8
BLACK
6
CONTINUOUS
10
130.88
20
6.8025
11
144.88
21
6.8025
0
LINE
8
BLACK
6
CONTINUOUS
10
144.88
20
6.8025
11
144.88
21
20.8025
0
LINE
8
BLACK
6
CONTINUOUS
10
130.88
20
20.8025
11
130.88
21
6.8025
0
LINE
8
BLACK
6
CONTINUOUS
10
111.83
20
6.8025
11
125.83
21
6.8025
0
LINE
8
BLACK
6
CONTINUOUS
10
125.83
20
6.8025
11
125.83
21
20.8025
0
LINE
8
BLACK
6
CONTINUOUS
10
111.83
20
20.8025
11
111.83
21
6.8025
0
LINE
8
BLACK
6
CONTINUOUS
10
92.78
20
6.8025
11
106.78
21
6.8025
0
LINE
8
BLACK
6
CONTINUOUS
10
106.78
20
6.8025
11
106.78
21
20.8025
0
LINE
8
BLACK
6
CONTINUOUS
10
92.78
20
20.8025
11
92.78
21
6.8025
0
LINE
8
BLACK
6
CONTINUOUS
10
73.73
20
6.8025
11
87.73
21
6.8025
0
LINE
8
BLACK
6
CONTINUOUS
10
87.73
20
6.8025
11
87.73
21
20.8025
0
LINE
8
BLACK
6
CONTINUOUS
10
73.73
20
20.8025
11
73.73
21
6.8025
0
LINE
8
BLACK
6
CONTINUOUS
10
54.68
20
6.8025
11
68.68
21
6.8025
0
LINE
8
BLACK
6
CONTINUOUS
10
68.68
20
6.8025
11
68.68
21
20.8025
0
LINE
8
BLACK
6
CONTINUOUS
10
54.68
20
20.8025
11
54.68
21
6.8025
0
LINE
8
BLACK
6
CONTINUOUS
10
35.63
20
6.8025
11
49.63
21
6.8025
0
LINE
8
BLACK
6
CONTINUOUS
10
49.63
20
6.8025
11
49.63
21
20.8025
0
LINE
8
BLACK
6
CONTINUOUS
10
49.63
20
20.8025
11
35.63
21
20.8025
0
LINE
8
BLACK
6
CONTINUOUS
10
35.63
20
20.8025
11
35.63
21
6.8025
0
LINE
8
BLACK
6
CONTINUOUS
10
40.3925
20
-12.2475
11
54.3925
21
-12.2475
0
LINE
8
BLACK
6
CONTINUOUS
10
54.3925
20
-12.2475
11
54.3925
21
1.7525
0
LINE
8
BLACK
6
CONTINUOUS
10
54.3925
20
1.7525
11
40.3925
21
1.7525
0
LINE
8
BLACK
6
CONTINUOUS
10
40.3925
20
1.7525
11
40.3925
21
-12.2475
0
LINE
8
BLACK
6
CONTINUOUS
10
59.4425
20
-12.2475
11
73.4425
21
-12.2475
0
LINE
8
BLACK
6
CONTINUOUS
10
73.4425
20
-12.2475
11
73.4425
21
1.7525
0
LINE
8
BLACK
6
CONTINUOUS
10
73.4425
20
1.7525
11
59.4425
21
1.7525
0
LINE
8
BLACK
6
CONTINUOUS
10
59.4425
20
1.7525
11
59.4425
21
-12.2475
0
LINE
8
BLACK
6
CONTINUOUS
10
78.4925
20
-12.2475
11
92.4925
21
-12.2475
0
LINE
8
BLACK
6
CONTINUOUS
10
92.4925
20
-12.2475
11
92.4925
21
1.7525
0
LINE
8
BLACK
6
CONTINUOUS
10
92.4925
20
1.7525
11
78.4925
21
1.7525
0
LINE
8
BLACK
6
CONTINUOUS
10
78.4925
20
1.7525
11
78.4925
21
-12.2475
0
LINE
8
BLACK
6
CONTINUOUS
10
97.542
20
-12.2475
11
111.542
21
-12.2475
0
LINE
8
BLACK
6
CONTINUOUS
10
111.542
20
-12.2475
11
111.542
21
1.7525
0
LINE
8
BLACK
6
CONTINUOUS
10
111.542
20
1.7525
11
97.542
21
1.7525
0
LINE
8
BLACK
6
CONTINUOUS
10
97.542
20
1.7525
11
97.542
21
-12.2475
0
LINE
8
BLACK
6
CONTINUOUS
10
135.642
20
1.7525
11
135.642
21
-12.2475
0
LINE
8
BLACK
6
CONTINUOUS
10
135.642
20
-12.2475
11
149.642
21
-12.2475
0
LINE
8
BLACK
6
CONTINUOUS
10
149.642
20
1.7525
11
135.642
21
1.7525
0
LINE
8
BLACK
6
CONTINUOUS
10
149.642
20
-12.2475
11
149.642
21
1.7525
0
LINE
8
BLACK
6
CONTINUOUS
10
116.592
20
1.7525
11
116.592
21
-12.2475
0
LINE
8
BLACK
6
CONTINUOUS
10
116.592
20
-12.2475
11
130.592
21
-12.2475
0
LINE
8
BLACK
6
CONTINUOUS
10
130.592
20
1.7525
11
116.592
21
1.7525
0
LINE
8
BLACK
6
CONTINUOUS
10
130.592
20
-12.2475
11
130.592
21
1.7525
0
LINE
8
BLACK
6
CONTINUOUS
10
64.2052
20
58.9025
11
64.2052
21
44.9025
0
LINE
8
BLACK
6
CONTINUOUS
10
64.2052
20
44.9025
11
78.2052
21
44.9025
0
LINE
8
BLACK
6
CONTINUOUS
10
78.2052
20
58.9025
11
64.2052
21
58.9025
0
LINE
8
BLACK
6
CONTINUOUS
10
78.2052
20
44.9025
11
78.2052
21
58.9025
0
LINE
8
BLACK
6
CONTINUOUS
10
45.1552
20
58.9025
11
45.1552
21
44.9025
0
LINE
8
BLACK
6
CONTINUOUS
10
45.1552
20
44.9025
11
59.1552
21
44.9025
0
LINE
8
BLACK
6
CONTINUOUS
10
59.1552
20
58.9025
11
45.1552
21
58.9025
0
LINE
8
BLACK
6
CONTINUOUS
10
59.1552
20
44.9025
11
59.1552
21
58.9025
0
LINE
8
BLACK
6
CONTINUOUS
10
211.556
20
-31.2975
11
211.556
21
-17.2975
0
LINE
8
BLACK
6
CONTINUOUS
10
197.556
20
-17.2975
11
197.556
21
-31.2975
0
LINE
8
BLACK
6
CONTINUOUS
10
211.556
20
-17.2975
11
197.556
21
-17.2975
0
LINE
8
BLACK
6
CONTINUOUS
10
197.556
20
-31.2975
11
211.556
21
-31.2975
0
LINE
8
BLACK
6
CONTINUOUS
10
192.506
20
-31.2975
11
192.506
21
-17.2975
0
LINE
8
BLACK
6
CONTINUOUS
10
178.506
20
-17.2975
11
178.506
21
-31.2975
0
LINE
8
BLACK
6
CONTINUOUS
10
192.506
20
-17.2975
11
178.506
21
-17.2975
0
LINE
8
BLACK
6
CONTINUOUS
10
178.506
20
-31.2975
11
192.506
21
-31.2975
0
LINE
8
BLACK
6
CONTINUOUS
10
152.312
20
-17.2975
11
152.312
21
-31.2975
0
LINE
8
BLACK
6
CONTINUOUS
10
152.312
20
-31.2975
11
166.312
21
-31.2975
0
LINE
8
BLACK
6
CONTINUOUS
10
166.312
20
-17.2975
11
152.312
21
-17.2975
0
LINE
8
BLACK
6
CONTINUOUS
10
166.312
20
-31.2975
11
166.312
21
-17.2975
0
LINE
8
BLACK
6
CONTINUOUS
10
126.118
20
-17.2975
11
126.118
21
-31.2975
0
LINE
8
BLACK
6
CONTINUOUS
10
126.118
20
-31.2975
11
140.118
21
-31.2975
0
LINE
8
BLACK
6
CONTINUOUS
10
140.118
20
-17.2975
11
126.118
21
-17.2975
0
LINE
8
BLACK
6
CONTINUOUS
10
140.118
20
-31.2975
11
140.118
21
-17.2975
0
LINE
8
BLACK
6
CONTINUOUS
10
107.068
20
-17.2975
11
107.068
21
-31.2975
0
LINE
8
BLACK
6
CONTINUOUS
10
107.068
20
-31.2975
11
121.068
21
-31.2975
0
LINE
8
BLACK
6
CONTINUOUS
10
121.068
20
-17.2975
11
107.068
21
-17.2975
0
LINE
8
BLACK
6
CONTINUOUS
10
121.068
20
-31.2975
11
121.068
21
-17.2975
0
LINE
8
BLACK
6
CONTINUOUS
10
88.0176
20
-17.2975
11
88.0176
21
-31.2975
0
LINE
8
BLACK
6
CONTINUOUS
10
88.0176
20
-31.2975
11
102.018
21
-31.2975
0
LINE
8
BLACK
6
CONTINUOUS
10
102.018
20
-17.2975
11
88.0176
21
-17.2975
0
LINE
8
BLACK
6
CONTINUOUS
10
102.018
20
-31.2975
11
102.018
21
-17.2975
0
LINE
8
BLACK
6
CONTINUOUS
10
68.9675
20
-17.2975
11
68.9675
21
-31.2975
0
LINE
8
BLACK
6
CONTINUOUS
10
68.9675
20
-31.2975
11
82.9675
21
-31.2975
0
LINE
8
BLACK
6
CONTINUOUS
10
82.9675
20
-17.2975
11
68.9675
21
-17.2975
0
LINE
8
BLACK
6
CONTINUOUS
10
82.9675
20
-31.2975
11
82.9675
21
-17.2975
0
LINE
8
BLACK
6
CONTINUOUS
10
197.556
20
39.8525
11
197.556
21
25.8525
0
LINE
8
BLACK
6
CONTINUOUS
10
211.556
20
39.8525
11
197.556
21
39.8525
0
LINE
8
BLACK
6
CONTINUOUS
10
211.556
20
25.8525
11
211.556
21
39.8525
0
LINE
8
BLACK
6
CONTINUOUS
10
197.556
20
25.8525
11
211.556
21
25.8525
0
LINE
8
BLACK
6
CONTINUOUS
10
197.556
20
1.7525
11
197.556
21
-12.2475
0
LINE
8
BLACK
6
CONTINUOUS
10
211.556
20
1.7525
11
197.556
21
1.7525
0
LINE
8
BLACK
6
CONTINUOUS
10
211.556
20
-12.2475
11
211.556
21
1.7525
0
LINE
8
BLACK
6
CONTINUOUS
10
197.556
20
-12.2475
11
211.556
21
-12.2475
0
LINE
8
BLACK
6
CONTINUOUS
10
49.9175
20
-17.2975
11
49.9175
21
-31.2975
0
LINE
8
BLACK
6
CONTINUOUS
10
63.9175
20
-17.2975
11
49.9175
21
-17.2975
0
LINE
8
BLACK
6
CONTINUOUS
10
63.9175
20
-31.2975
11
63.9175
21
-17.2975
0
LINE
8
BLACK
6
CONTINUOUS
10
49.9175
20
-31.2975
11
63.9175
21
-31.2975
0
LINE
8
BLACK
6
CONTINUOUS
10
197.556
20
-36.3475
11
197.556
21
-50.3475
0
LINE
8
BLACK
6
CONTINUOUS
10
211.556
20
-36.3475
11
197.556
21
-36.3475
0
LINE
8
BLACK
6
CONTINUOUS
10
211.556
20
-50.3475
11
211.556
21
-36.3475
0
LINE
8
BLACK
6
CONTINUOUS
10
197.556
20
-50.3475
11
211.556
21
-50.3475
0
LINE
8
BLACK
6
CONTINUOUS
10
178.506
20
-36.3475
11
178.506
21
-50.3475
0
LINE
8
BLACK
6
CONTINUOUS
10
192.506
20
-36.3475
11
178.506
21
-36.3475
0
LINE
8
BLACK
6
CONTINUOUS
10
192.506
20
-50.3475
11
192.506
21
-36.3475
0
LINE
8
BLACK
6
CONTINUOUS
10
178.506
20
-50.3475
11
192.506
21
-50.3475
0
LINE
8
BLACK
6
CONTINUOUS
10
159.455
20
-36.3475
11
159.455
21
-50.3475
0
LINE
8
BLACK
6
CONTINUOUS
10
173.455
20
-36.3475
11
159.455
21
-36.3475
0
LINE
8
BLACK
6
CONTINUOUS
10
173.455
20
-50.3475
11
173.455
21
-36.3475
0
LINE
8
BLACK
6
CONTINUOUS
10
159.455
20
-50.3475
11
173.455
21
-50.3475
0
LINE
8
BLACK
6
CONTINUOUS
10
130.88
20
-36.3475
11
130.88
21
-50.3475
0
LINE
8
BLACK
6
CONTINUOUS
10
144.88
20
-36.3475
11
130.88
21
-36.3475
0
LINE
8
BLACK
6
CONTINUOUS
10
144.88
20
-50.3475
11
144.88
21
-36.3475
0
LINE
8
BLACK
6
CONTINUOUS
10
130.88
20
-50.3475
11
144.88
21
-50.3475
0
LINE
8
BLACK
6
CONTINUOUS
10
107.068
20
-36.3475
11
107.068
21
-50.3475
0
LINE
8
BLACK
6
CONTINUOUS
10
121.068
20
-36.3475
11
107.068
21
-36.3475
0
LINE
8
BLACK
6
CONTINUOUS
10
121.068
20
-50.3475
11
121.068
21
-36.3475
0
LINE
8
BLACK
6
CONTINUOUS
10
107.068
20
-50.3475
11
121.068
21
-50.3475
0
LINE
8
BLACK
6
CONTINUOUS
10
64.205
20
-50.3475
11
78.205
21
-50.3475
0
LINE
8
BLACK
6
CONTINUOUS
10
64.205
20
-36.3475
11
64.205
21
-50.3475
0
LINE
8
BLACK
6
CONTINUOUS
10
78.205
20
-50.3475
11
78.205
21
-36.3475
0
LINE
8
BLACK
6
CONTINUOUS
10
78.205
20
-36.3475
11
64.205
21
-36.3475
0
LINE
8
BLACK
6
CONTINUOUS
10
166.598
20
-12.2475
11
180.598
21
-12.2475
0
LINE
8
BLACK
6
CONTINUOUS
10
180.598
20
1.7525
11
166.598
21
1.7525
0
LINE
8
BLACK
6
CONTINUOUS
10
192.746
20
-4.81048
11
192.746
21
-5.00095
0
LINE
8
BLACK
6
CONTINUOUS
10
192.746
20
-5.00095
11
192.794
21
-5.09619
0
LINE
8
BLACK
6
CONTINUOUS
10
192.794
20
-5.09619
11
192.842
21
-5.14381
0
LINE
8
BLACK
6
CONTINUOUS
10
192.842
20
-5.14381
11
192.984
21
-5.23905
0
LINE
8
BLACK
6
CONTINUOUS
10
192.984
20
-5.23905
11
193.175
21
-5.28667
0
LINE
8
BLACK
6
CONTINUOUS
10
193.175
20
-5.28667
11
193.556
21
-5.28667
0
LINE
8
BLACK
6
CONTINUOUS
10
193.556
20
-5.28667
11
193.651
21
-5.23905
0
LINE
8
BLACK
6
CONTINUOUS
10
193.651
20
-5.23905
11
193.699
21
-5.19143
0
LINE
8
BLACK
6
CONTINUOUS
10
193.699
20
-5.19143
11
193.746
21
-5.09619
0
LINE
8
BLACK
6
CONTINUOUS
10
193.746
20
-5.09619
11
193.746
21
-4.90571
0
LINE
8
BLACK
6
CONTINUOUS
10
193.746
20
-4.90571
11
193.699
21
-4.81048
0
LINE
8
BLACK
6
CONTINUOUS
10
193.699
20
-4.81048
11
193.651
21
-4.76286
0
LINE
8
BLACK
6
CONTINUOUS
10
193.651
20
-4.76286
11
193.556
21
-4.71524
0
LINE
8
BLACK
6
CONTINUOUS
10
193.556
20
-4.71524
11
193.318
21
-4.71524
0
LINE
8
BLACK
6
CONTINUOUS
10
193.318
20
-4.71524
11
193.223
21
-4.76286
0
LINE
8
BLACK
6
CONTINUOUS
10
193.223
20
-4.76286
11
193.175
21
-4.81048
0
LINE
8
BLACK
6
CONTINUOUS
10
193.175
20
-4.81048
11
193.127
21
-4.90571
0
LINE
8
BLACK
6
CONTINUOUS
10
193.127
20
-4.90571
11
193.127
21
-5.09619
0
LINE
8
BLACK
6
CONTINUOUS
10
193.127
20
-5.09619
11
193.175
21
-5.19143
0
LINE
8
BLACK
6
CONTINUOUS
10
193.175
20
-5.19143
11
193.223
21
-5.23905
0
LINE
8
BLACK
6
CONTINUOUS
10
193.223
20
-5.23905
11
193.318
21
-5.28667
0
LINE
8
BLACK
6
CONTINUOUS
10
193.651
20
-4.28667
11
193.699
21
-4.23905
0
LINE
8
BLACK
6
CONTINUOUS
10
193.699
20
-4.23905
11
193.746
21
-4.28667
0
LINE
8
BLACK
6
CONTINUOUS
10
193.746
20
-4.28667
11
193.699
21
-4.33428
0
LINE
8
BLACK
6
CONTINUOUS
10
193.699
20
-4.33428
11
193.651
21
-4.28667
0
LINE
8
BLACK
6
CONTINUOUS
10
193.651
20
-4.28667
11
193.746
21
-4.28667
0
LINE
8
BLACK
6
CONTINUOUS
10
192.842
20
-3.85809
11
192.794
21
-3.81048
0
LINE
8
BLACK
6
CONTINUOUS
10
192.794
20
-3.81048
11
192.746
21
-3.71524
0
LINE
8
BLACK
6
CONTINUOUS
10
192.746
20
-3.71524
11
192.746
21
-3.47714
0
LINE
8
BLACK
6
CONTINUOUS
10
192.746
20
-3.47714
11
192.794
21
-3.3819
0
LINE
8
BLACK
6
CONTINUOUS
10
192.794
20
-3.3819
11
192.842
21
-3.33428
0
LINE
8
BLACK
6
CONTINUOUS
10
192.842
20
-3.33428
11
192.937
21
-3.28667
0
LINE
8
BLACK
6
CONTINUOUS
10
192.937
20
-3.28667
11
193.032
21
-3.28667
0
LINE
8
BLACK
6
CONTINUOUS
10
193.032
20
-3.28667
11
193.175
21
-3.33428
0
LINE
8
BLACK
6
CONTINUOUS
10
193.175
20
-3.33428
11
193.746
21
-3.90571
0
LINE
8
BLACK
6
CONTINUOUS
10
193.746
20
-3.90571
11
193.746
21
-3.28667
0
LINE
8
BLACK
6
CONTINUOUS
10
193.175
20
-2.71524
11
193.127
21
-2.81048
0
LINE
8
BLACK
6
CONTINUOUS
10
193.127
20
-2.81048
11
193.08
21
-2.8581
0
LINE
8
BLACK
6
CONTINUOUS
10
193.08
20
-2.8581
11
192.984
21
-2.90571
0
LINE
8
BLACK
6
CONTINUOUS
10
192.984
20
-2.90571
11
192.937
21
-2.90571
0
LINE
8
BLACK
6
CONTINUOUS
10
192.937
20
-2.90571
11
192.842
21
-2.8581
0
LINE
8
BLACK
6
CONTINUOUS
10
192.842
20
-2.8581
11
192.794
21
-2.81048
0
LINE
8
BLACK
6
CONTINUOUS
10
192.794
20
-2.81048
11
192.746
21
-2.71524
0
LINE
8
BLACK
6
CONTINUOUS
10
192.746
20
-2.71524
11
192.746
21
-2.52476
0
LINE
8
BLACK
6
CONTINUOUS
10
192.746
20
-2.52476
11
192.794
21
-2.42952
0
LINE
8
BLACK
6
CONTINUOUS
10
192.794
20
-2.42952
11
192.842
21
-2.3819
0
LINE
8
BLACK
6
CONTINUOUS
10
192.842
20
-2.3819
11
192.937
21
-2.33428
0
LINE
8
BLACK
6
CONTINUOUS
10
192.937
20
-2.33428
11
192.984
21
-2.33428
0
LINE
8
BLACK
6
CONTINUOUS
10
192.984
20
-2.33428
11
193.08
21
-2.3819
0
LINE
8
BLACK
6
CONTINUOUS
10
193.08
20
-2.3819
11
193.127
21
-2.42952
0
LINE
8
BLACK
6
CONTINUOUS
10
193.127
20
-2.42952
11
193.175
21
-2.52476
0
LINE
8
BLACK
6
CONTINUOUS
10
193.175
20
-2.52476
11
193.175
21
-2.71524
0
LINE
8
BLACK
6
CONTINUOUS
10
193.175
20
-2.71524
11
193.223
21
-2.81048
0
LINE
8
BLACK
6
CONTINUOUS
10
193.223
20
-2.81048
11
193.27
21
-2.8581
0
LINE
8
BLACK
6
CONTINUOUS
10
193.27
20
-2.8581
11
193.365
21
-2.90571
0
LINE
8
BLACK
6
CONTINUOUS
10
193.365
20
-2.90571
11
193.556
21
-2.90571
0
LINE
8
BLACK
6
CONTINUOUS
10
193.556
20
-2.90571
11
193.651
21
-2.8581
0
LINE
8
BLACK
6
CONTINUOUS
10
193.651
20
-2.8581
11
193.699
21
-2.81048
0
LINE
8
BLACK
6
CONTINUOUS
10
193.699
20
-2.81048
11
193.746
21
-2.71524
0
LINE
8
BLACK
6
CONTINUOUS
10
193.746
20
-2.71524
11
193.746
21
-2.52476
0
LINE
8
BLACK
6
CONTINUOUS
10
193.746
20
-2.52476
11
193.699
21
-2.42952
0
LINE
8
BLACK
6
CONTINUOUS
10
193.699
20
-2.42952
11
193.651
21
-2.3819
0
LINE
8
BLACK
6
CONTINUOUS
10
193.651
20
-2.3819
11
193.556
21
-2.33428
0
LINE
8
BLACK
6
CONTINUOUS
10
193.556
20
-2.33428
11
193.365
21
-2.33428
0
LINE
8
BLACK
6
CONTINUOUS
10
193.365
20
-2.33428
11
193.27
21
-2.3819
0
LINE
8
BLACK
6
CONTINUOUS
10
193.27
20
-2.3819
11
193.223
21
-2.42952
0
LINE
8
BLACK
6
CONTINUOUS
10
193.223
20
-2.42952
11
193.175
21
-2.52476
0
LINE
8
BLACK
6
CONTINUOUS
10
192.746
20
-1.42952
11
192.746
21
-1.90571
0
LINE
8
BLACK
6
CONTINUOUS
10
192.746
20
-1.90571
11
193.223
21
-1.95333
0
LINE
8
BLACK
6
CONTINUOUS
10
193.223
20
-1.95333
11
193.175
21
-1.90571
0
LINE
8
BLACK
6
CONTINUOUS
10
193.175
20
-1.90571
11
193.127
21
-1.81048
0
LINE
8
BLACK
6
CONTINUOUS
10
193.127
20
-1.81048
11
193.127
21
-1.57238
0
LINE
8
BLACK
6
CONTINUOUS
10
193.127
20
-1.57238
11
193.175
21
-1.47714
0
LINE
8
BLACK
6
CONTINUOUS
10
193.175
20
-1.47714
11
193.223
21
-1.42952
0
LINE
8
BLACK
6
CONTINUOUS
10
193.223
20
-1.42952
11
193.318
21
-1.3819
0
LINE
8
BLACK
6
CONTINUOUS
10
193.318
20
-1.3819
11
193.556
21
-1.3819
0
LINE
8
BLACK
6
CONTINUOUS
10
193.556
20
-1.3819
11
193.651
21
-1.42952
0
LINE
8
BLACK
6
CONTINUOUS
10
193.651
20
-1.42952
11
193.699
21
-1.47714
0
LINE
8
BLACK
6
CONTINUOUS
10
193.699
20
-1.47714
11
193.746
21
-1.57238
0
LINE
8
BLACK
6
CONTINUOUS
10
193.746
20
-1.57238
11
193.746
21
-1.81048
0
LINE
8
BLACK
6
CONTINUOUS
10
193.746
20
-1.81048
11
193.699
21
-1.90571
0
LINE
8
BLACK
6
CONTINUOUS
10
193.699
20
-1.90571
11
193.651
21
-1.95333
0
LINE
8
BLACK
6
CONTINUOUS
10
193.746
20
-0.191428
11
193.08
21
-0.191428
0
LINE
8
BLACK
6
CONTINUOUS
10
193.175
20
-0.191428
11
193.127
21
-0.143809
0
LINE
8
BLACK
6
CONTINUOUS
10
193.127
20
-0.143809
11
193.08
21
-0.048571
0
LINE
8
BLACK
6
CONTINUOUS
10
193.08
20
-0.048571
11
193.08
21
0.094285
0
LINE
8
BLACK
6
CONTINUOUS
10
193.08
20
0.094285
11
193.127
21
0.189523
0
LINE
8
BLACK
6
CONTINUOUS
10
193.127
20
0.189523
11
193.223
21
0.237142
0
LINE
8
BLACK
6
CONTINUOUS
10
193.223
20
0.237142
11
193.746
21
0.237142
0
LINE
8
BLACK
6
CONTINUOUS
10
193.223
20
0.237142
11
193.127
21
0.284761
0
LINE
8
BLACK
6
CONTINUOUS
10
193.127
20
0.284761
11
193.08
21
0.38
0
LINE
8
BLACK
6
CONTINUOUS
10
193.08
20
0.38
11
193.08
21
0.522857
0
LINE
8
BLACK
6
CONTINUOUS
10
193.08
20
0.522857
11
193.127
21
0.618095
0
LINE
8
BLACK
6
CONTINUOUS
10
193.127
20
0.618095
11
193.223
21
0.665714
0
LINE
8
BLACK
6
CONTINUOUS
10
193.223
20
0.665714
11
193.746
21
0.665714
0
LINE
8
BLACK
6
CONTINUOUS
10
193.746
20
1.1419
11
193.08
21
1.1419
0
LINE
8
BLACK
6
CONTINUOUS
10
193.175
20
1.1419
11
193.127
21
1.18952
0
LINE
8
BLACK
6
CONTINUOUS
10
193.127
20
1.18952
11
193.08
21
1.28476
0
LINE
8
BLACK
6
CONTINUOUS
10
193.08
20
1.28476
11
193.08
21
1.42762
0
LINE
8
BLACK
6
CONTINUOUS
10
193.08
20
1.42762
11
193.127
21
1.52286
0
LINE
8
BLACK
6
CONTINUOUS
10
193.127
20
1.52286
11
193.223
21
1.57048
0
LINE
8
BLACK
6
CONTINUOUS
10
193.223
20
1.57048
11
193.746
21
1.57048
0
LINE
8
BLACK
6
CONTINUOUS
10
193.223
20
1.57048
11
193.127
21
1.61809
0
LINE
8
BLACK
6
CONTINUOUS
10
193.127
20
1.61809
11
193.08
21
1.71333
0
LINE
8
BLACK
6
CONTINUOUS
10
193.08
20
1.71333
11
193.08
21
1.85619
0
LINE
8
BLACK
6
CONTINUOUS
10
193.08
20
1.85619
11
193.127
21
1.95143
0
LINE
8
BLACK
6
CONTINUOUS
10
193.127
20
1.95143
11
193.223
21
1.99905
0
LINE
8
BLACK
6
CONTINUOUS
10
193.223
20
1.99905
11
193.746
21
1.99905
0
LINE
8
BLACK
6
CONTINUOUS
10
192.094
20
-4.7625
11
192.094
21
1.5225
0
LINE
8
BLACK
6
CONTINUOUS
10
190.874
20
-4.7625
11
192.68
21
-4.7625
0
LINE
8
BLACK
6
CONTINUOUS
10
190.874
20
1.5225
11
192.68
21
1.5225
0
LINE
8
BLACK
6
CONTINUOUS
10
192.094
20
1.5225
11
192.68
21
0.395996
0
LINE
8
BLACK
6
CONTINUOUS
10
192.094
20
1.5225
11
191.508
21
0.395996
0
LINE
8
BLACK
6
CONTINUOUS
10
192.094
20
-4.7625
11
192.68
21
-3.636
0
LINE
8
BLACK
6
CONTINUOUS
10
192.094
20
-4.7625
11
191.508
21
-3.636
0
LINE
8
BLACK
6
CONTINUOUS
10
182.123
20
1.5225
11
182.123
21
-2.9475
0
LINE
8
BLACK
6
CONTINUOUS
10
158.322
20
-4.7625
11
157.497
21
-4.7625
0
LINE
8
BLACK
6
CONTINUOUS
10
181.785
20
5.63012
11
182.404
21
5.63012
0
LINE
8
BLACK
6
CONTINUOUS
10
182.404
20
5.63012
11
182.071
21
5.24917
0
LINE
8
BLACK
6
CONTINUOUS
10
182.071
20
5.24917
11
182.214
21
5.24917
0
LINE
8
BLACK
6
CONTINUOUS
10
182.214
20
5.24917
11
182.309
21
5.20155
0
LINE
8
BLACK
6
CONTINUOUS
10
182.309
20
5.20155
11
182.357
21
5.15393
0
LINE
8
BLACK
6
CONTINUOUS
10
182.357
20
5.15393
11
182.404
21
5.05869
0
LINE
8
BLACK
6
CONTINUOUS
10
182.404
20
5.05869
11
182.404
21
4.82059
0
LINE
8
BLACK
6
CONTINUOUS
10
182.404
20
4.82059
11
182.357
21
4.72536
0
LINE
8
BLACK
6
CONTINUOUS
10
182.357
20
4.72536
11
182.309
21
4.67774
0
LINE
8
BLACK
6
CONTINUOUS
10
182.309
20
4.67774
11
182.214
21
4.63012
0
LINE
8
BLACK
6
CONTINUOUS
10
182.214
20
4.63012
11
181.928
21
4.63012
0
LINE
8
BLACK
6
CONTINUOUS
10
181.928
20
4.63012
11
181.833
21
4.67774
0
LINE
8
BLACK
6
CONTINUOUS
10
181.833
20
4.67774
11
181.785
21
4.72536
0
LINE
8
BLACK
6
CONTINUOUS
10
182.833
20
4.72536
11
182.88
21
4.67774
0
LINE
8
BLACK
6
CONTINUOUS
10
182.88
20
4.67774
11
182.833
21
4.63012
0
LINE
8
BLACK
6
CONTINUOUS
10
182.833
20
4.63012
11
182.785
21
4.67774
0
LINE
8
BLACK
6
CONTINUOUS
10
182.785
20
4.67774
11
182.833
21
4.72536
0
LINE
8
BLACK
6
CONTINUOUS
10
182.833
20
4.72536
11
182.833
21
4.63012
0
LINE
8
BLACK
6
CONTINUOUS
10
183.214
20
5.63012
11
183.833
21
5.63012
0
LINE
8
BLACK
6
CONTINUOUS
10
183.833
20
5.63012
11
183.499
21
5.24917
0
LINE
8
BLACK
6
CONTINUOUS
10
183.499
20
5.24917
11
183.642
21
5.24917
0
LINE
8
BLACK
6
CONTINUOUS
10
183.642
20
5.24917
11
183.738
21
5.20155
0
LINE
8
BLACK
6
CONTINUOUS
10
183.738
20
5.20155
11
183.785
21
5.15393
0
LINE
8
BLACK
6
CONTINUOUS
10
183.785
20
5.15393
11
183.833
21
5.05869
0
LINE
8
BLACK
6
CONTINUOUS
10
183.833
20
5.05869
11
183.833
21
4.82059
0
LINE
8
BLACK
6
CONTINUOUS
10
183.833
20
4.82059
11
183.785
21
4.72536
0
LINE
8
BLACK
6
CONTINUOUS
10
183.785
20
4.72536
11
183.738
21
4.67774
0
LINE
8
BLACK
6
CONTINUOUS
10
183.738
20
4.67774
11
183.642
21
4.63012
0
LINE
8
BLACK
6
CONTINUOUS
10
183.642
20
4.63012
11
183.357
21
4.63012
0
LINE
8
BLACK
6
CONTINUOUS
10
183.357
20
4.63012
11
183.261
21
4.67774
0
LINE
8
BLACK
6
CONTINUOUS
10
183.261
20
4.67774
11
183.214
21
4.72536
0
LINE
8
BLACK
6
CONTINUOUS
10
184.452
20
5.63012
11
184.547
21
5.63012
0
LINE
8
BLACK
6
CONTINUOUS
10
184.547
20
5.63012
11
184.642
21
5.5825
0
LINE
8
BLACK
6
CONTINUOUS
10
184.642
20
5.5825
11
184.69
21
5.53488
0
LINE
8
BLACK
6
CONTINUOUS
10
184.69
20
5.53488
11
184.738
21
5.43964
0
LINE
8
BLACK
6
CONTINUOUS
10
184.738
20
5.43964
11
184.785
21
5.24917
0
LINE
8
BLACK
6
CONTINUOUS
10
184.785
20
5.24917
11
184.785
21
5.01107
0
LINE
8
BLACK
6
CONTINUOUS
10
184.785
20
5.01107
11
184.738
21
4.82059
0
LINE
8
BLACK
6
CONTINUOUS
10
184.738
20
4.82059
11
184.69
21
4.72536
0
LINE
8
BLACK
6
CONTINUOUS
10
184.69
20
4.72536
11
184.642
21
4.67774
0
LINE
8
BLACK
6
CONTINUOUS
10
184.642
20
4.67774
11
184.547
21
4.63012
0
LINE
8
BLACK
6
CONTINUOUS
10
184.547
20
4.63012
11
184.452
21
4.63012
0
LINE
8
BLACK
6
CONTINUOUS
10
184.452
20
4.63012
11
184.357
21
4.67774
0
LINE
8
BLACK
6
CONTINUOUS
10
184.357
20
4.67774
11
184.309
21
4.72536
0
LINE
8
BLACK
6
CONTINUOUS
10
184.309
20
4.72536
11
184.261
21
4.82059
0
LINE
8
BLACK
6
CONTINUOUS
10
184.261
20
4.82059
11
184.214
21
5.01107
0
LINE
8
BLACK
6
CONTINUOUS
10
184.214
20
5.01107
11
184.214
21
5.24917
0
LINE
8
BLACK
6
CONTINUOUS
10
184.214
20
5.24917
11
184.261
21
5.43964
0
LINE
8
BLACK
6
CONTINUOUS
10
184.261
20
5.43964
11
184.309
21
5.53488
0
LINE
8
BLACK
6
CONTINUOUS
10
184.309
20
5.53488
11
184.357
21
5.5825
0
LINE
8
BLACK
6
CONTINUOUS
10
184.357
20
5.5825
11
184.452
21
5.63012
0
LINE
8
BLACK
6
CONTINUOUS
10
185.404
20
5.63012
11
185.499
21
5.63012
0
LINE
8
BLACK
6
CONTINUOUS
10
185.499
20
5.63012
11
185.595
21
5.5825
0
LINE
8
BLACK
6
CONTINUOUS
10
185.595
20
5.5825
11
185.642
21
5.53488
0
LINE
8
BLACK
6
CONTINUOUS
10
185.642
20
5.53488
11
185.69
21
5.43964
0
LINE
8
BLACK
6
CONTINUOUS
10
185.69
20
5.43964
11
185.738
21
5.24917
0
LINE
8
BLACK
6
CONTINUOUS
10
185.738
20
5.24917
11
185.738
21
5.01107
0
LINE
8
BLACK
6
CONTINUOUS
10
185.738
20
5.01107
11
185.69
21
4.82059
0
LINE
8
BLACK
6
CONTINUOUS
10
185.69
20
4.82059
11
185.642
21
4.72536
0
LINE
8
BLACK
6
CONTINUOUS
10
185.642
20
4.72536
11
185.595
21
4.67774
0
LINE
8
BLACK
6
CONTINUOUS
10
185.595
20
4.67774
11
185.499
21
4.63012
0
LINE
8
BLACK
6
CONTINUOUS
10
185.499
20
4.63012
11
185.404
21
4.63012
0
LINE
8
BLACK
6
CONTINUOUS
10
185.404
20
4.63012
11
185.309
21
4.67774
0
LINE
8
BLACK
6
CONTINUOUS
10
185.309
20
4.67774
11
185.261
21
4.72536
0
LINE
8
BLACK
6
CONTINUOUS
10
185.261
20
4.72536
11
185.214
21
4.82059
0
LINE
8
BLACK
6
CONTINUOUS
10
185.214
20
4.82059
11
185.166
21
5.01107
0
LINE
8
BLACK
6
CONTINUOUS
10
185.166
20
5.01107
11
185.166
21
5.24917
0
LINE
8
BLACK
6
CONTINUOUS
10
185.166
20
5.24917
11
185.214
21
5.43964
0
LINE
8
BLACK
6
CONTINUOUS
10
185.214
20
5.43964
11
185.261
21
5.53488
0
LINE
8
BLACK
6
CONTINUOUS
10
185.261
20
5.53488
11
185.309
21
5.5825
0
LINE
8
BLACK
6
CONTINUOUS
10
185.309
20
5.5825
11
185.404
21
5.63012
0
LINE
8
BLACK
6
CONTINUOUS
10
186.928
20
4.63012
11
186.928
21
5.29678
0
LINE
8
BLACK
6
CONTINUOUS
10
186.928
20
5.20155
11
186.976
21
5.24917
0
LINE
8
BLACK
6
CONTINUOUS
10
186.976
20
5.24917
11
187.071
21
5.29678
0
LINE
8
BLACK
6
CONTINUOUS
10
187.071
20
5.29678
11
187.214
21
5.29678
0
LINE
8
BLACK
6
CONTINUOUS
10
187.214
20
5.29678
11
187.309
21
5.24917
0
LINE
8
BLACK
6
CONTINUOUS
10
187.309
20
5.24917
11
187.357
21
5.15393
0
LINE
8
BLACK
6
CONTINUOUS
10
187.357
20
5.15393
11
187.357
21
4.63012
0
LINE
8
BLACK
6
CONTINUOUS
10
187.357
20
5.15393
11
187.404
21
5.24917
0
LINE
8
BLACK
6
CONTINUOUS
10
187.404
20
5.24917
11
187.499
21
5.29678
0
LINE
8
BLACK
6
CONTINUOUS
10
187.499
20
5.29678
11
187.642
21
5.29678
0
LINE
8
BLACK
6
CONTINUOUS
10
187.642
20
5.29678
11
187.738
21
5.24917
0
LINE
8
BLACK
6
CONTINUOUS
10
187.738
20
5.24917
11
187.785
21
5.15393
0
LINE
8
BLACK
6
CONTINUOUS
10
187.785
20
5.15393
11
187.785
21
4.63012
0
LINE
8
BLACK
6
CONTINUOUS
10
188.261
20
4.63012
11
188.261
21
5.29678
0
LINE
8
BLACK
6
CONTINUOUS
10
188.261
20
5.20155
11
188.309
21
5.24917
0
LINE
8
BLACK
6
CONTINUOUS
10
188.309
20
5.24917
11
188.404
21
5.29678
0
LINE
8
BLACK
6
CONTINUOUS
10
188.404
20
5.29678
11
188.547
21
5.29678
0
LINE
8
BLACK
6
CONTINUOUS
10
188.547
20
5.29678
11
188.642
21
5.24917
0
LINE
8
BLACK
6
CONTINUOUS
10
188.642
20
5.24917
11
188.69
21
5.15393
0
LINE
8
BLACK
6
CONTINUOUS
10
188.69
20
5.15393
11
188.69
21
4.63012
0
LINE
8
BLACK
6
CONTINUOUS
10
188.69
20
5.15393
11
188.738
21
5.24917
0
LINE
8
BLACK
6
CONTINUOUS
10
188.738
20
5.24917
11
188.833
21
5.29678
0
LINE
8
BLACK
6
CONTINUOUS
10
188.833
20
5.29678
11
188.976
21
5.29678
0
LINE
8
BLACK
6
CONTINUOUS
10
188.976
20
5.29678
11
189.071
21
5.24917
0
LINE
8
BLACK
6
CONTINUOUS
10
189.071
20
5.24917
11
189.119
21
5.15393
0
LINE
8
BLACK
6
CONTINUOUS
10
189.119
20
5.15393
11
189.119
21
4.63012
0
LINE
8
BLACK
6
CONTINUOUS
10
183.849
20
3.8825
11
187.149
21
3.8825
0
LINE
8
BLACK
6
CONTINUOUS
10
183.849
20
3.7225
11
183.849
21
4.46892
0
LINE
8
BLACK
6
CONTINUOUS
10
187.149
20
3.7225
11
187.149
21
4.46892
0
LINE
8
BLACK
6
CONTINUOUS
10
187.149
20
3.8825
11
186.023
21
3.29608
0
LINE
8
BLACK
6
CONTINUOUS
10
187.149
20
3.8825
11
186.023
21
4.46892
0
LINE
8
BLACK
6
CONTINUOUS
10
183.849
20
3.8825
11
184.976
21
3.29608
0
LINE
8
BLACK
6
CONTINUOUS
10
183.849
20
3.8825
11
184.976
21
4.46892
0
LINE
8
BLACK
6
CONTINUOUS
10
188.874
20
-10.7775
11
182.124
21
-10.7775
0
LINE
8
BLACK
6
CONTINUOUS
10
183.849
20
1.5225
11
183.849
21
2.7225
0
LINE
8
BLACK
6
CONTINUOUS
10
183.849
20
1.5225
11
182.124
21
1.5225
0
LINE
8
BLACK
6
CONTINUOUS
10
188.874
20
-10.7775
11
188.874
21
-7.5475
0
LINE
8
BLACK
6
CONTINUOUS
10
161.114
20
5.31012
11
160.542
21
5.31012
0
LINE
8
BLACK
6
CONTINUOUS
10
160.828
20
5.31012
11
160.828
21
6.31012
0
LINE
8
BLACK
6
CONTINUOUS
10
160.828
20
6.31012
11
160.733
21
6.16726
0
LINE
8
BLACK
6
CONTINUOUS
10
160.733
20
6.16726
11
160.638
21
6.07202
0
LINE
8
BLACK
6
CONTINUOUS
10
160.638
20
6.07202
11
160.542
21
6.0244
0
LINE
8
BLACK
6
CONTINUOUS
10
161.542
20
5.40536
11
161.59
21
5.35774
0
LINE
8
BLACK
6
CONTINUOUS
10
161.59
20
5.35774
11
161.542
21
5.31012
0
LINE
8
BLACK
6
CONTINUOUS
10
161.542
20
5.31012
11
161.495
21
5.35774
0
LINE
8
BLACK
6
CONTINUOUS
10
161.495
20
5.35774
11
161.542
21
5.40536
0
LINE
8
BLACK
6
CONTINUOUS
10
161.542
20
5.40536
11
161.542
21
5.31012
0
LINE
8
BLACK
6
CONTINUOUS
10
161.923
20
6.31012
11
162.59
21
6.31012
0
LINE
8
BLACK
6
CONTINUOUS
10
162.59
20
6.31012
11
162.162
21
5.31012
0
LINE
8
BLACK
6
CONTINUOUS
10
162.923
20
6.21488
11
162.971
21
6.2625
0
LINE
8
BLACK
6
CONTINUOUS
10
162.971
20
6.2625
11
163.066
21
6.31012
0
LINE
8
BLACK
6
CONTINUOUS
10
163.066
20
6.31012
11
163.304
21
6.31012
0
LINE
8
BLACK
6
CONTINUOUS
10
163.304
20
6.31012
11
163.4
21
6.2625
0
LINE
8
BLACK
6
CONTINUOUS
10
163.4
20
6.2625
11
163.447
21
6.21488
0
LINE
8
BLACK
6
CONTINUOUS
10
163.447
20
6.21488
11
163.495
21
6.11964
0
LINE
8
BLACK
6
CONTINUOUS
10
163.495
20
6.11964
11
163.495
21
6.0244
0
LINE
8
BLACK
6
CONTINUOUS
10
163.495
20
6.0244
11
163.447
21
5.88155
0
LINE
8
BLACK
6
CONTINUOUS
10
163.447
20
5.88155
11
162.876
21
5.31012
0
LINE
8
BLACK
6
CONTINUOUS
10
162.876
20
5.31012
11
163.495
21
5.31012
0
LINE
8
BLACK
6
CONTINUOUS
10
164.4
20
6.31012
11
163.923
21
6.31012
0
LINE
8
BLACK
6
CONTINUOUS
10
163.923
20
6.31012
11
163.876
21
5.83393
0
LINE
8
BLACK
6
CONTINUOUS
10
163.876
20
5.83393
11
163.923
21
5.88155
0
LINE
8
BLACK
6
CONTINUOUS
10
163.923
20
5.88155
11
164.019
21
5.92917
0
LINE
8
BLACK
6
CONTINUOUS
10
164.019
20
5.92917
11
164.257
21
5.92917
0
LINE
8
BLACK
6
CONTINUOUS
10
164.257
20
5.92917
11
164.352
21
5.88155
0
LINE
8
BLACK
6
CONTINUOUS
10
164.352
20
5.88155
11
164.4
21
5.83393
0
LINE
8
BLACK
6
CONTINUOUS
10
164.4
20
5.83393
11
164.447
21
5.73869
0
LINE
8
BLACK
6
CONTINUOUS
10
164.447
20
5.73869
11
164.447
21
5.50059
0
LINE
8
BLACK
6
CONTINUOUS
10
164.447
20
5.50059
11
164.4
21
5.40536
0
LINE
8
BLACK
6
CONTINUOUS
10
164.4
20
5.40536
11
164.352
21
5.35774
0
LINE
8
BLACK
6
CONTINUOUS
10
164.352
20
5.35774
11
164.257
21
5.31012
0
LINE
8
BLACK
6
CONTINUOUS
10
164.257
20
5.31012
11
164.019
21
5.31012
0
LINE
8
BLACK
6
CONTINUOUS
10
164.019
20
5.31012
11
163.923
21
5.35774
0
LINE
8
BLACK
6
CONTINUOUS
10
163.923
20
5.35774
11
163.876
21
5.40536
0
LINE
8
BLACK
6
CONTINUOUS
10
165.638
20
5.31012
11
165.638
21
5.97678
0
LINE
8
BLACK
6
CONTINUOUS
10
165.638
20
5.88155
11
165.685
21
5.92917
0
LINE
8
BLACK
6
CONTINUOUS
10
165.685
20
5.92917
11
165.781
21
5.97678
0
LINE
8
BLACK
6
CONTINUOUS
10
165.781
20
5.97678
11
165.923
21
5.97678
0
LINE
8
BLACK
6
CONTINUOUS
10
165.923
20
5.97678
11
166.019
21
5.92917
0
LINE
8
BLACK
6
CONTINUOUS
10
166.019
20
5.92917
11
166.066
21
5.83393
0
LINE
8
BLACK
6
CONTINUOUS
10
166.066
20
5.83393
11
166.066
21
5.31012
0
LINE
8
BLACK
6
CONTINUOUS
10
166.066
20
5.83393
11
166.114
21
5.92917
0
LINE
8
BLACK
6
CONTINUOUS
10
166.114
20
5.92917
11
166.209
21
5.97678
0
LINE
8
BLACK
6
CONTINUOUS
10
166.209
20
5.97678
11
166.352
21
5.97678
0
LINE
8
BLACK
6
CONTINUOUS
10
166.352
20
5.97678
11
166.447
21
5.92917
0
LINE
8
BLACK
6
CONTINUOUS
10
166.447
20
5.92917
11
166.495
21
5.83393
0
LINE
8
BLACK
6
CONTINUOUS
10
166.495
20
5.83393
11
166.495
21
5.31012
0
LINE
8
BLACK
6
CONTINUOUS
10
166.971
20
5.31012
11
166.971
21
5.97678
0
LINE
8
BLACK
6
CONTINUOUS
10
166.971
20
5.88155
11
167.019
21
5.92917
0
LINE
8
BLACK
6
CONTINUOUS
10
167.019
20
5.92917
11
167.114
21
5.97678
0
LINE
8
BLACK
6
CONTINUOUS
10
167.114
20
5.97678
11
167.257
21
5.97678
0
LINE
8
BLACK
6
CONTINUOUS
10
167.257
20
5.97678
11
167.352
21
5.92917
0
LINE
8
BLACK
6
CONTINUOUS
10
167.352
20
5.92917
11
167.4
21
5.83393
0
LINE
8
BLACK
6
CONTINUOUS
10
167.4
20
5.83393
11
167.4
21
5.31012
0
LINE
8
BLACK
6
CONTINUOUS
10
167.4
20
5.83393
11
167.447
21
5.92917
0
LINE
8
BLACK
6
CONTINUOUS
10
167.447
20
5.92917
11
167.542
21
5.97678
0
LINE
8
BLACK
6
CONTINUOUS
10
167.542
20
5.97678
11
167.685
21
5.97678
0
LINE
8
BLACK
6
CONTINUOUS
10
167.685
20
5.97678
11
167.781
21
5.92917
0
LINE
8
BLACK
6
CONTINUOUS
10
167.781
20
5.92917
11
167.828
21
5.83393
0
LINE
8
BLACK
6
CONTINUOUS
10
167.828
20
5.83393
11
167.828
21
5.31012
0
LINE
8
BLACK
6
CONTINUOUS
10
163.347
20
4.5625
11
165.071
21
4.5625
0
LINE
8
BLACK
6
CONTINUOUS
10
163.347
20
4.0225
11
163.347
21
5.14892
0
LINE
8
BLACK
6
CONTINUOUS
10
165.071
20
4.0225
11
165.071
21
5.14892
0
LINE
8
BLACK
6
CONTINUOUS
10
165.071
20
4.5625
11
163.945
21
3.97608
0
LINE
8
BLACK
6
CONTINUOUS
10
165.071
20
4.5625
11
163.945
21
5.14892
0
LINE
8
BLACK
6
CONTINUOUS
10
163.347
20
4.5625
11
164.473
21
3.97608
0
LINE
8
BLACK
6
CONTINUOUS
10
163.347
20
4.5625
11
164.473
21
5.14892
0
LINE
8
BLACK
6
CONTINUOUS
10
156.089
20
4.11012
11
155.518
21
4.11012
0
LINE
8
BLACK
6
CONTINUOUS
10
155.803
20
4.11012
11
155.803
21
5.11012
0
LINE
8
BLACK
6
CONTINUOUS
10
155.803
20
5.11012
11
155.708
21
4.96726
0
LINE
8
BLACK
6
CONTINUOUS
10
155.708
20
4.96726
11
155.613
21
4.87202
0
LINE
8
BLACK
6
CONTINUOUS
10
155.613
20
4.87202
11
155.518
21
4.8244
0
LINE
8
BLACK
6
CONTINUOUS
10
156.518
20
4.20536
11
156.565
21
4.15774
0
LINE
8
BLACK
6
CONTINUOUS
10
156.565
20
4.15774
11
156.518
21
4.11012
0
LINE
8
BLACK
6
CONTINUOUS
10
156.518
20
4.11012
11
156.47
21
4.15774
0
LINE
8
BLACK
6
CONTINUOUS
10
156.47
20
4.15774
11
156.518
21
4.20536
0
LINE
8
BLACK
6
CONTINUOUS
10
156.518
20
4.20536
11
156.518
21
4.11012
0
LINE
8
BLACK
6
CONTINUOUS
10
156.899
20
5.11012
11
157.565
21
5.11012
0
LINE
8
BLACK
6
CONTINUOUS
10
157.565
20
5.11012
11
157.137
21
4.11012
0
LINE
8
BLACK
6
CONTINUOUS
10
157.899
20
5.01488
11
157.946
21
5.0625
0
LINE
8
BLACK
6
CONTINUOUS
10
157.946
20
5.0625
11
158.041
21
5.11012
0
LINE
8
BLACK
6
CONTINUOUS
10
158.041
20
5.11012
11
158.279
21
5.11012
0
LINE
8
BLACK
6
CONTINUOUS
10
158.279
20
5.11012
11
158.375
21
5.0625
0
LINE
8
BLACK
6
CONTINUOUS
10
158.375
20
5.0625
11
158.422
21
5.01488
0
LINE
8
BLACK
6
CONTINUOUS
10
158.422
20
5.01488
11
158.47
21
4.91964
0
LINE
8
BLACK
6
CONTINUOUS
10
158.47
20
4.91964
11
158.47
21
4.8244
0
LINE
8
BLACK
6
CONTINUOUS
10
158.47
20
4.8244
11
158.422
21
4.68155
0
LINE
8
BLACK
6
CONTINUOUS
10
158.422
20
4.68155
11
157.851
21
4.11012
0
LINE
8
BLACK
6
CONTINUOUS
10
157.851
20
4.11012
11
158.47
21
4.11012
0
LINE
8
BLACK
6
CONTINUOUS
10
159.375
20
5.11012
11
158.899
21
5.11012
0
LINE
8
BLACK
6
CONTINUOUS
10
158.899
20
5.11012
11
158.851
21
4.63393
0
LINE
8
BLACK
6
CONTINUOUS
10
158.851
20
4.63393
11
158.899
21
4.68155
0
LINE
8
BLACK
6
CONTINUOUS
10
158.899
20
4.68155
11
158.994
21
4.72917
0
LINE
8
BLACK
6
CONTINUOUS
10
158.994
20
4.72917
11
159.232
21
4.72917
0
LINE
8
BLACK
6
CONTINUOUS
10
159.232
20
4.72917
11
159.327
21
4.68155
0
LINE
8
BLACK
6
CONTINUOUS
10
159.327
20
4.68155
11
159.375
21
4.63393
0
LINE
8
BLACK
6
CONTINUOUS
10
159.375
20
4.63393
11
159.422
21
4.53869
0
LINE
8
BLACK
6
CONTINUOUS
10
159.422
20
4.53869
11
159.422
21
4.30059
0
LINE
8
BLACK
6
CONTINUOUS
10
159.422
20
4.30059
11
159.375
21
4.20536
0
LINE
8
BLACK
6
CONTINUOUS
10
159.375
20
4.20536
11
159.327
21
4.15774
0
LINE
8
BLACK
6
CONTINUOUS
10
159.327
20
4.15774
11
159.232
21
4.11012
0
LINE
8
BLACK
6
CONTINUOUS
10
159.232
20
4.11012
11
158.994
21
4.11012
0
LINE
8
BLACK
6
CONTINUOUS
10
158.994
20
4.11012
11
158.899
21
4.15774
0
LINE
8
BLACK
6
CONTINUOUS
10
158.899
20
4.15774
11
158.851
21
4.20536
0
LINE
8
BLACK
6
CONTINUOUS
10
160.613
20
4.11012
11
160.613
21
4.77678
0
LINE
8
BLACK
6
CONTINUOUS
10
160.613
20
4.68155
11
160.66
21
4.72917
0
LINE
8
BLACK
6
CONTINUOUS
10
160.66
20
4.72917
11
160.756
21
4.77678
0
LINE
8
BLACK
6
CONTINUOUS
10
160.756
20
4.77678
11
160.899
21
4.77678
0
LINE
8
BLACK
6
CONTINUOUS
10
160.899
20
4.77678
11
160.994
21
4.72917
0
LINE
8
BLACK
6
CONTINUOUS
10
160.994
20
4.72917
11
161.041
21
4.63393
0
LINE
8
BLACK
6
CONTINUOUS
10
161.041
20
4.63393
11
161.041
21
4.11012
0
LINE
8
BLACK
6
CONTINUOUS
10
161.041
20
4.63393
11
161.089
21
4.72917
0
LINE
8
BLACK
6
CONTINUOUS
10
161.089
20
4.72917
11
161.184
21
4.77678
0
LINE
8
BLACK
6
CONTINUOUS
10
161.184
20
4.77678
11
161.327
21
4.77678
0
LINE
8
BLACK
6
CONTINUOUS
10
161.327
20
4.77678
11
161.422
21
4.72917
0
LINE
8
BLACK
6
CONTINUOUS
10
161.422
20
4.72917
11
161.47
21
4.63393
0
LINE
8
BLACK
6
CONTINUOUS
10
161.47
20
4.63393
11
161.47
21
4.11012
0
LINE
8
BLACK
6
CONTINUOUS
10
161.946
20
4.11012
11
161.946
21
4.77678
0
LINE
8
BLACK
6
CONTINUOUS
10
161.946
20
4.68155
11
161.994
21
4.72917
0
LINE
8
BLACK
6
CONTINUOUS
10
161.994
20
4.72917
11
162.089
21
4.77678
0
LINE
8
BLACK
6
CONTINUOUS
10
162.089
20
4.77678
11
162.232
21
4.77678
0
LINE
8
BLACK
6
CONTINUOUS
10
162.232
20
4.77678
11
162.327
21
4.72917
0
LINE
8
BLACK
6
CONTINUOUS
10
162.327
20
4.72917
11
162.375
21
4.63393
0
LINE
8
BLACK
6
CONTINUOUS
10
162.375
20
4.63393
11
162.375
21
4.11012
0
LINE
8
BLACK
6
CONTINUOUS
10
162.375
20
4.63393
11
162.422
21
4.72917
0
LINE
8
BLACK
6
CONTINUOUS
10
162.422
20
4.72917
11
162.518
21
4.77678
0
LINE
8
BLACK
6
CONTINUOUS
10
162.518
20
4.77678
11
162.66
21
4.77678
0
LINE
8
BLACK
6
CONTINUOUS
10
162.66
20
4.77678
11
162.756
21
4.72917
0
LINE
8
BLACK
6
CONTINUOUS
10
162.756
20
4.72917
11
162.803
21
4.63393
0
LINE
8
BLACK
6
CONTINUOUS
10
162.803
20
4.63393
11
162.803
21
4.11012
0
LINE
8
BLACK
6
CONTINUOUS
10
158.322
20
3.3625
11
160.047
21
3.3625
0
LINE
8
BLACK
6
CONTINUOUS
10
158.322
20
3.0225
11
158.322
21
3.94892
0
LINE
8
BLACK
6
CONTINUOUS
10
160.047
20
3.0225
11
160.047
21
3.94892
0
LINE
8
BLACK
6
CONTINUOUS
10
160.047
20
3.3625
11
158.92
21
2.77608
0
LINE
8
BLACK
6
CONTINUOUS
10
160.047
20
3.3625
11
158.92
21
3.94892
0
LINE
8
BLACK
6
CONTINUOUS
10
158.322
20
3.3625
11
159.448
21
2.77608
0
LINE
8
BLACK
6
CONTINUOUS
10
158.322
20
3.3625
11
159.448
21
3.94892
0
LINE
8
BLACK
6
CONTINUOUS
10
188.874
20
-4.7625
11
188.874
21
1.5225
0
LINE
8
BLACK
6
CONTINUOUS
10
158.322
20
-7.5475
11
157.497
21
-7.5475
0
LINE
8
BLACK
6
CONTINUOUS
10
158.322
20
-10.7775
11
165.072
21
-10.7775
0
LINE
8
BLACK
6
CONTINUOUS
10
165.073
20
1.5225
11
165.073
21
-2.9475
0
LINE
8
BLACK
6
CONTINUOUS
10
180.598
20
-7.5475
11
180.598
21
-12.2475
0
LINE
8
BLACK
6
CONTINUOUS
10
187.149
20
1.5225
11
187.149
21
2.7225
0
LINE
8
BLACK
6
CONTINUOUS
10
182.123
20
-2.9475
11
180.598
21
-2.9475
0
LINE
8
BLACK
6
CONTINUOUS
10
188.874
20
-7.5475
11
189.7
21
-7.5475
0
LINE
8
BLACK
6
CONTINUOUS
10
163.346
20
1.5225
11
165.071
21
1.5225
0
LINE
8
BLACK
6
CONTINUOUS
10
188.874
20
-4.7625
11
189.7
21
-4.7625
0
LINE
8
BLACK
6
CONTINUOUS
10
189.7
20
-4.7625
11
189.7
21
-7.5475
0
LINE
8
BLACK
6
CONTINUOUS
10
182.123
20
-7.5475
11
182.123
21
-10.7775
0
LINE
8
BLACK
6
CONTINUOUS
10
182.309
20
-12.8699
11
182.119
21
-12.8699
0
LINE
8
BLACK
6
CONTINUOUS
10
182.119
20
-12.8699
11
182.023
21
-12.9175
0
LINE
8
BLACK
6
CONTINUOUS
10
182.023
20
-12.9175
11
181.976
21
-12.9651
0
LINE
8
BLACK
6
CONTINUOUS
10
181.976
20
-12.9651
11
181.88
21
-13.108
0
LINE
8
BLACK
6
CONTINUOUS
10
181.88
20
-13.108
11
181.833
21
-13.2985
0
LINE
8
BLACK
6
CONTINUOUS
10
181.833
20
-13.2985
11
181.833
21
-13.6794
0
LINE
8
BLACK
6
CONTINUOUS
10
181.833
20
-13.6794
11
181.88
21
-13.7746
0
LINE
8
BLACK
6
CONTINUOUS
10
181.88
20
-13.7746
11
181.928
21
-13.8223
0
LINE
8
BLACK
6
CONTINUOUS
10
181.928
20
-13.8223
11
182.023
21
-13.8699
0
LINE
8
BLACK
6
CONTINUOUS
10
182.023
20
-13.8699
11
182.214
21
-13.8699
0
LINE
8
BLACK
6
CONTINUOUS
10
182.214
20
-13.8699
11
182.309
21
-13.8223
0
LINE
8
BLACK
6
CONTINUOUS
10
182.309
20
-13.8223
11
182.357
21
-13.7746
0
LINE
8
BLACK
6
CONTINUOUS
10
182.357
20
-13.7746
11
182.404
21
-13.6794
0
LINE
8
BLACK
6
CONTINUOUS
10
182.404
20
-13.6794
11
182.404
21
-13.4413
0
LINE
8
BLACK
6
CONTINUOUS
10
182.404
20
-13.4413
11
182.357
21
-13.3461
0
LINE
8
BLACK
6
CONTINUOUS
10
182.357
20
-13.3461
11
182.309
21
-13.2985
0
LINE
8
BLACK
6
CONTINUOUS
10
182.309
20
-13.2985
11
182.214
21
-13.2508
0
LINE
8
BLACK
6
CONTINUOUS
10
182.214
20
-13.2508
11
182.023
21
-13.2508
0
LINE
8
BLACK
6
CONTINUOUS
10
182.023
20
-13.2508
11
181.928
21
-13.2985
0
LINE
8
BLACK
6
CONTINUOUS
10
181.928
20
-13.2985
11
181.88
21
-13.3461
0
LINE
8
BLACK
6
CONTINUOUS
10
181.88
20
-13.3461
11
181.833
21
-13.4413
0
LINE
8
BLACK
6
CONTINUOUS
10
182.833
20
-13.7746
11
182.88
21
-13.8223
0
LINE
8
BLACK
6
CONTINUOUS
10
182.88
20
-13.8223
11
182.833
21
-13.8699
0
LINE
8
BLACK
6
CONTINUOUS
10
182.833
20
-13.8699
11
182.785
21
-13.8223
0
LINE
8
BLACK
6
CONTINUOUS
10
182.785
20
-13.8223
11
182.833
21
-13.7746
0
LINE
8
BLACK
6
CONTINUOUS
10
182.833
20
-13.7746
11
182.833
21
-13.8699
0
LINE
8
BLACK
6
CONTINUOUS
10
183.214
20
-12.8699
11
183.88
21
-12.8699
0
LINE
8
BLACK
6
CONTINUOUS
10
183.88
20
-12.8699
11
183.452
21
-13.8699
0
LINE
8
BLACK
6
CONTINUOUS
10
184.738
20
-12.8699
11
184.261
21
-12.8699
0
LINE
8
BLACK
6
CONTINUOUS
10
184.261
20
-12.8699
11
184.214
21
-13.3461
0
LINE
8
BLACK
6
CONTINUOUS
10
184.214
20
-13.3461
11
184.261
21
-13.2985
0
LINE
8
BLACK
6
CONTINUOUS
10
184.261
20
-13.2985
11
184.357
21
-13.2508
0
LINE
8
BLACK
6
CONTINUOUS
10
184.357
20
-13.2508
11
184.595
21
-13.2508
0
LINE
8
BLACK
6
CONTINUOUS
10
184.595
20
-13.2508
11
184.69
21
-13.2985
0
LINE
8
BLACK
6
CONTINUOUS
10
184.69
20
-13.2985
11
184.738
21
-13.3461
0
LINE
8
BLACK
6
CONTINUOUS
10
184.738
20
-13.3461
11
184.785
21
-13.4413
0
LINE
8
BLACK
6
CONTINUOUS
10
184.785
20
-13.4413
11
184.785
21
-13.6794
0
LINE
8
BLACK
6
CONTINUOUS
10
184.785
20
-13.6794
11
184.738
21
-13.7746
0
LINE
8
BLACK
6
CONTINUOUS
10
184.738
20
-13.7746
11
184.69
21
-13.8223
0
LINE
8
BLACK
6
CONTINUOUS
10
184.69
20
-13.8223
11
184.595
21
-13.8699
0
LINE
8
BLACK
6
CONTINUOUS
10
184.595
20
-13.8699
11
184.357
21
-13.8699
0
LINE
8
BLACK
6
CONTINUOUS
10
184.357
20
-13.8699
11
184.261
21
-13.8223
0
LINE
8
BLACK
6
CONTINUOUS
10
184.261
20
-13.8223
11
184.214
21
-13.7746
0
LINE
8
BLACK
6
CONTINUOUS
10
185.404
20
-12.8699
11
185.499
21
-12.8699
0
LINE
8
BLACK
6
CONTINUOUS
10
185.499
20
-12.8699
11
185.595
21
-12.9175
0
LINE
8
BLACK
6
CONTINUOUS
10
185.595
20
-12.9175
11
185.642
21
-12.9651
0
LINE
8
BLACK
6
CONTINUOUS
10
185.642
20
-12.9651
11
185.69
21
-13.0604
0
LINE
8
BLACK
6
CONTINUOUS
10
185.69
20
-13.0604
11
185.738
21
-13.2508
0
LINE
8
BLACK
6
CONTINUOUS
10
185.738
20
-13.2508
11
185.738
21
-13.4889
0
LINE
8
BLACK
6
CONTINUOUS
10
185.738
20
-13.4889
11
185.69
21
-13.6794
0
LINE
8
BLACK
6
CONTINUOUS
10
185.69
20
-13.6794
11
185.642
21
-13.7746
0
LINE
8
BLACK
6
CONTINUOUS
10
185.642
20
-13.7746
11
185.595
21
-13.8223
0
LINE
8
BLACK
6
CONTINUOUS
10
185.595
20
-13.8223
11
185.499
21
-13.8699
0
LINE
8
BLACK
6
CONTINUOUS
10
185.499
20
-13.8699
11
185.404
21
-13.8699
0
LINE
8
BLACK
6
CONTINUOUS
10
185.404
20
-13.8699
11
185.309
21
-13.8223
0
LINE
8
BLACK
6
CONTINUOUS
10
185.309
20
-13.8223
11
185.261
21
-13.7746
0
LINE
8
BLACK
6
CONTINUOUS
10
185.261
20
-13.7746
11
185.214
21
-13.6794
0
LINE
8
BLACK
6
CONTINUOUS
10
185.214
20
-13.6794
11
185.166
21
-13.4889
0
LINE
8
BLACK
6
CONTINUOUS
10
185.166
20
-13.4889
11
185.166
21
-13.2508
0
LINE
8
BLACK
6
CONTINUOUS
10
185.166
20
-13.2508
11
185.214
21
-13.0604
0
LINE
8
BLACK
6
CONTINUOUS
10
185.214
20
-13.0604
11
185.261
21
-12.9651
0
LINE
8
BLACK
6
CONTINUOUS
10
185.261
20
-12.9651
11
185.309
21
-12.9175
0
LINE
8
BLACK
6
CONTINUOUS
10
185.309
20
-12.9175
11
185.404
21
-12.8699
0
LINE
8
BLACK
6
CONTINUOUS
10
186.928
20
-13.8699
11
186.928
21
-13.2032
0
LINE
8
BLACK
6
CONTINUOUS
10
186.928
20
-13.2985
11
186.976
21
-13.2508
0
LINE
8
BLACK
6
CONTINUOUS
10
186.976
20
-13.2508
11
187.071
21
-13.2032
0
LINE
8
BLACK
6
CONTINUOUS
10
187.071
20
-13.2032
11
187.214
21
-13.2032
0
LINE
8
BLACK
6
CONTINUOUS
10
187.214
20
-13.2032
11
187.309
21
-13.2508
0
LINE
8
BLACK
6
CONTINUOUS
10
187.309
20
-13.2508
11
187.357
21
-13.3461
0
LINE
8
BLACK
6
CONTINUOUS
10
187.357
20
-13.3461
11
187.357
21
-13.8699
0
LINE
8
BLACK
6
CONTINUOUS
10
187.357
20
-13.3461
11
187.404
21
-13.2508
0
LINE
8
BLACK
6
CONTINUOUS
10
187.404
20
-13.2508
11
187.499
21
-13.2032
0
LINE
8
BLACK
6
CONTINUOUS
10
187.499
20
-13.2032
11
187.642
21
-13.2032
0
LINE
8
BLACK
6
CONTINUOUS
10
187.642
20
-13.2032
11
187.738
21
-13.2508
0
LINE
8
BLACK
6
CONTINUOUS
10
187.738
20
-13.2508
11
187.785
21
-13.3461
0
LINE
8
BLACK
6
CONTINUOUS
10
187.785
20
-13.3461
11
187.785
21
-13.8699
0
LINE
8
BLACK
6
CONTINUOUS
10
188.261
20
-13.8699
11
188.261
21
-13.2032
0
LINE
8
BLACK
6
CONTINUOUS
10
188.261
20
-13.2985
11
188.309
21
-13.2508
0
LINE
8
BLACK
6
CONTINUOUS
10
188.309
20
-13.2508
11
188.404
21
-13.2032
0
LINE
8
BLACK
6
CONTINUOUS
10
188.404
20
-13.2032
11
188.547
21
-13.2032
0
LINE
8
BLACK
6
CONTINUOUS
10
188.547
20
-13.2032
11
188.642
21
-13.2508
0
LINE
8
BLACK
6
CONTINUOUS
10
188.642
20
-13.2508
11
188.69
21
-13.3461
0
LINE
8
BLACK
6
CONTINUOUS
10
188.69
20
-13.3461
11
188.69
21
-13.8699
0
LINE
8
BLACK
6
CONTINUOUS
10
188.69
20
-13.3461
11
188.738
21
-13.2508
0
LINE
8
BLACK
6
CONTINUOUS
10
188.738
20
-13.2508
11
188.833
21
-13.2032
0
LINE
8
BLACK
6
CONTINUOUS
10
188.833
20
-13.2032
11
188.976
21
-13.2032
0
LINE
8
BLACK
6
CONTINUOUS
10
188.976
20
-13.2032
11
189.071
21
-13.2508
0
LINE
8
BLACK
6
CONTINUOUS
10
189.071
20
-13.2508
11
189.119
21
-13.3461
0
LINE
8
BLACK
6
CONTINUOUS
10
189.119
20
-13.3461
11
189.119
21
-13.8699
0
LINE
8
BLACK
6
CONTINUOUS
10
188.874
20
-12.2175
11
182.124
21
-12.2175
0
LINE
8
BLACK
6
CONTINUOUS
10
188.874
20
-11.7775
11
188.874
21
-12.8039
0
LINE
8
BLACK
6
CONTINUOUS
10
182.124
20
-11.7775
11
182.124
21
-12.8039
0
LINE
8
BLACK
6
CONTINUOUS
10
182.124
20
-12.2175
11
183.251
21
-11.6311
0
LINE
8
BLACK
6
CONTINUOUS
10
182.124
20
-12.2175
11
183.251
21
-12.8039
0
LINE
8
BLACK
6
CONTINUOUS
10
188.874
20
-12.2175
11
187.748
21
-11.6311
0
LINE
8
BLACK
6
CONTINUOUS
10
188.874
20
-12.2175
11
187.748
21
-12.8039
0
LINE
8
BLACK
6
CONTINUOUS
10
187.149
20
2.7225
11
183.849
21
2.7225
0
LINE
8
BLACK
6
CONTINUOUS
10
188.874
20
1.5225
11
187.149
21
1.5225
0
LINE
8
BLACK
6
CONTINUOUS
10
165.073
20
-2.9475
11
166.598
21
-2.9475
0
LINE
8
BLACK
6
CONTINUOUS
10
163.347
20
1.5225
11
163.347
21
2.7225
0
LINE
8
BLACK
6
CONTINUOUS
10
154.632
20
-1.05607
11
154.632
21
-0.484642
0
LINE
8
BLACK
6
CONTINUOUS
10
154.632
20
-0.770357
11
155.632
21
-0.770357
0
LINE
8
BLACK
6
CONTINUOUS
10
155.632
20
-0.770357
11
155.489
21
-0.675119
0
LINE
8
BLACK
6
CONTINUOUS
10
155.489
20
-0.675119
11
155.394
21
-0.57988
0
LINE
8
BLACK
6
CONTINUOUS
10
155.394
20
-0.57988
11
155.346
21
-0.484642
0
LINE
8
BLACK
6
CONTINUOUS
10
155.536
20
-1.43702
11
155.584
21
-1.48464
0
LINE
8
BLACK
6
CONTINUOUS
10
155.584
20
-1.48464
11
155.632
21
-1.57988
0
LINE
8
BLACK
6
CONTINUOUS
10
155.632
20
-1.57988
11
155.632
21
-1.81798
0
LINE
8
BLACK
6
CONTINUOUS
10
155.632
20
-1.81798
11
155.584
21
-1.91321
0
LINE
8
BLACK
6
CONTINUOUS
10
155.584
20
-1.91321
11
155.536
21
-1.96083
0
LINE
8
BLACK
6
CONTINUOUS
10
155.536
20
-1.96083
11
155.441
21
-2.00845
0
LINE
8
BLACK
6
CONTINUOUS
10
155.441
20
-2.00845
11
155.346
21
-2.00845
0
LINE
8
BLACK
6
CONTINUOUS
10
155.346
20
-2.00845
11
155.203
21
-1.96083
0
LINE
8
BLACK
6
CONTINUOUS
10
155.203
20
-1.96083
11
154.632
21
-1.3894
0
LINE
8
BLACK
6
CONTINUOUS
10
154.632
20
-1.3894
11
154.632
21
-2.00845
0
LINE
8
BLACK
6
CONTINUOUS
10
154.727
20
-2.43702
11
154.679
21
-2.48464
0
LINE
8
BLACK
6
CONTINUOUS
10
154.679
20
-2.48464
11
154.632
21
-2.43702
0
LINE
8
BLACK
6
CONTINUOUS
10
154.632
20
-2.43702
11
154.679
21
-2.3894
0
LINE
8
BLACK
6
CONTINUOUS
10
154.679
20
-2.3894
11
154.727
21
-2.43702
0
LINE
8
BLACK
6
CONTINUOUS
10
154.727
20
-2.43702
11
154.632
21
-2.43702
0
LINE
8
BLACK
6
CONTINUOUS
10
155.632
20
-2.81798
11
155.632
21
-3.43702
0
LINE
8
BLACK
6
CONTINUOUS
10
155.632
20
-3.43702
11
155.251
21
-3.10369
0
LINE
8
BLACK
6
CONTINUOUS
10
155.251
20
-3.10369
11
155.251
21
-3.24655
0
LINE
8
BLACK
6
CONTINUOUS
10
155.251
20
-3.24655
11
155.203
21
-3.34178
0
LINE
8
BLACK
6
CONTINUOUS
10
155.203
20
-3.34178
11
155.155
21
-3.3894
0
LINE
8
BLACK
6
CONTINUOUS
10
155.155
20
-3.3894
11
155.06
21
-3.43702
0
LINE
8
BLACK
6
CONTINUOUS
10
155.06
20
-3.43702
11
154.822
21
-3.43702
0
LINE
8
BLACK
6
CONTINUOUS
10
154.822
20
-3.43702
11
154.727
21
-3.3894
0
LINE
8
BLACK
6
CONTINUOUS
10
154.727
20
-3.3894
11
154.679
21
-3.34178
0
LINE
8
BLACK
6
CONTINUOUS
10
154.679
20
-3.34178
11
154.632
21
-3.24655
0
LINE
8
BLACK
6
CONTINUOUS
10
154.632
20
-3.24655
11
154.632
21
-2.96083
0
LINE
8
BLACK
6
CONTINUOUS
10
154.632
20
-2.96083
11
154.679
21
-2.86559
0
LINE
8
BLACK
6
CONTINUOUS
10
154.679
20
-2.86559
11
154.727
21
-2.81798
0
LINE
8
BLACK
6
CONTINUOUS
10
155.632
20
-4.05607
11
155.632
21
-4.15131
0
LINE
8
BLACK
6
CONTINUOUS
10
155.632
20
-4.15131
11
155.584
21
-4.24655
0
LINE
8
BLACK
6
CONTINUOUS
10
155.584
20
-4.24655
11
155.536
21
-4.29417
0
LINE
8
BLACK
6
CONTINUOUS
10
155.536
20
-4.29417
11
155.441
21
-4.34178
0
LINE
8
BLACK
6
CONTINUOUS
10
155.441
20
-4.34178
11
155.251
21
-4.3894
0
LINE
8
BLACK
6
CONTINUOUS
10
155.251
20
-4.3894
11
155.013
21
-4.3894
0
LINE
8
BLACK
6
CONTINUOUS
10
155.013
20
-4.3894
11
154.822
21
-4.34178
0
LINE
8
BLACK
6
CONTINUOUS
10
154.822
20
-4.34178
11
154.727
21
-4.29417
0
LINE
8
BLACK
6
CONTINUOUS
10
154.727
20
-4.29417
11
154.679
21
-4.24655
0
LINE
8
BLACK
6
CONTINUOUS
10
154.679
20
-4.24655
11
154.632
21
-4.15131
0
LINE
8
BLACK
6
CONTINUOUS
10
154.632
20
-4.15131
11
154.632
21
-4.05607
0
LINE
8
BLACK
6
CONTINUOUS
10
154.632
20
-4.05607
11
154.679
21
-3.96083
0
LINE
8
BLACK
6
CONTINUOUS
10
154.679
20
-3.96083
11
154.727
21
-3.91321
0
LINE
8
BLACK
6
CONTINUOUS
10
154.727
20
-3.91321
11
154.822
21
-3.86559
0
LINE
8
BLACK
6
CONTINUOUS
10
154.822
20
-3.86559
11
155.013
21
-3.81798
0
LINE
8
BLACK
6
CONTINUOUS
10
155.013
20
-3.81798
11
155.251
21
-3.81798
0
LINE
8
BLACK
6
CONTINUOUS
10
155.251
20
-3.81798
11
155.441
21
-3.86559
0
LINE
8
BLACK
6
CONTINUOUS
10
155.441
20
-3.86559
11
155.536
21
-3.91321
0
LINE
8
BLACK
6
CONTINUOUS
10
155.536
20
-3.91321
11
155.584
21
-3.96083
0
LINE
8
BLACK
6
CONTINUOUS
10
155.584
20
-3.96083
11
155.632
21
-4.05607
0
LINE
8
BLACK
6
CONTINUOUS
10
155.632
20
-5.00845
11
155.632
21
-5.10369
0
LINE
8
BLACK
6
CONTINUOUS
10
155.632
20
-5.10369
11
155.584
21
-5.19893
0
LINE
8
BLACK
6
CONTINUOUS
10
155.584
20
-5.19893
11
155.536
21
-5.24655
0
LINE
8
BLACK
6
CONTINUOUS
10
155.536
20
-5.24655
11
155.441
21
-5.29417
0
LINE
8
BLACK
6
CONTINUOUS
10
155.441
20
-5.29417
11
155.251
21
-5.34178
0
LINE
8
BLACK
6
CONTINUOUS
10
155.251
20
-5.34178
11
155.013
21
-5.34178
0
LINE
8
BLACK
6
CONTINUOUS
10
155.013
20
-5.34178
11
154.822
21
-5.29417
0
LINE
8
BLACK
6
CONTINUOUS
10
154.822
20
-5.29417
11
154.727
21
-5.24655
0
LINE
8
BLACK
6
CONTINUOUS
10
154.727
20
-5.24655
11
154.679
21
-5.19893
0
LINE
8
BLACK
6
CONTINUOUS
10
154.679
20
-5.19893
11
154.632
21
-5.10369
0
LINE
8
BLACK
6
CONTINUOUS
10
154.632
20
-5.10369
11
154.632
21
-5.00845
0
LINE
8
BLACK
6
CONTINUOUS
10
154.632
20
-5.00845
11
154.679
21
-4.91321
0
LINE
8
BLACK
6
CONTINUOUS
10
154.679
20
-4.91321
11
154.727
21
-4.86559
0
LINE
8
BLACK
6
CONTINUOUS
10
154.727
20
-4.86559
11
154.822
21
-4.81798
0
LINE
8
BLACK
6
CONTINUOUS
10
154.822
20
-4.81798
11
155.013
21
-4.77036
0
LINE
8
BLACK
6
CONTINUOUS
10
155.013
20
-4.77036
11
155.251
21
-4.77036
0
LINE
8
BLACK
6
CONTINUOUS
10
155.251
20
-4.77036
11
155.441
21
-4.81798
0
LINE
8
BLACK
6
CONTINUOUS
10
155.441
20
-4.81798
11
155.536
21
-4.86559
0
LINE
8
BLACK
6
CONTINUOUS
10
155.536
20
-4.86559
11
155.584
21
-4.91321
0
LINE
8
BLACK
6
CONTINUOUS
10
155.584
20
-4.91321
11
155.632
21
-5.00845
0
LINE
8
BLACK
6
CONTINUOUS
10
154.632
20
-6.53226
11
155.298
21
-6.53226
0
LINE
8
BLACK
6
CONTINUOUS
10
155.203
20
-6.53226
11
155.251
21
-6.57988
0
LINE
8
BLACK
6
CONTINUOUS
10
155.251
20
-6.57988
11
155.298
21
-6.67512
0
LINE
8
BLACK
6
CONTINUOUS
10
155.298
20
-6.67512
11
155.298
21
-6.81798
0
LINE
8
BLACK
6
CONTINUOUS
10
155.298
20
-6.81798
11
155.251
21
-6.91321
0
LINE
8
BLACK
6
CONTINUOUS
10
155.251
20
-6.91321
11
155.155
21
-6.96083
0
LINE
8
BLACK
6
CONTINUOUS
10
155.155
20
-6.96083
11
154.632
21
-6.96083
0
LINE
8
BLACK
6
CONTINUOUS
10
155.155
20
-6.96083
11
155.251
21
-7.00845
0
LINE
8
BLACK
6
CONTINUOUS
10
155.251
20
-7.00845
11
155.298
21
-7.10369
0
LINE
8
BLACK
6
CONTINUOUS
10
155.298
20
-7.10369
11
155.298
21
-7.24655
0
LINE
8
BLACK
6
CONTINUOUS
10
155.298
20
-7.24655
11
155.251
21
-7.34178
0
LINE
8
BLACK
6
CONTINUOUS
10
155.251
20
-7.34178
11
155.155
21
-7.3894
0
LINE
8
BLACK
6
CONTINUOUS
10
155.155
20
-7.3894
11
154.632
21
-7.3894
0
LINE
8
BLACK
6
CONTINUOUS
10
154.632
20
-7.86559
11
155.298
21
-7.86559
0
LINE
8
BLACK
6
CONTINUOUS
10
155.203
20
-7.86559
11
155.251
21
-7.91321
0
LINE
8
BLACK
6
CONTINUOUS
10
155.251
20
-7.91321
11
155.298
21
-8.00845
0
LINE
8
BLACK
6
CONTINUOUS
10
155.298
20
-8.00845
11
155.298
21
-8.15131
0
LINE
8
BLACK
6
CONTINUOUS
10
155.298
20
-8.15131
11
155.251
21
-8.24655
0
LINE
8
BLACK
6
CONTINUOUS
10
155.251
20
-8.24655
11
155.155
21
-8.29417
0
LINE
8
BLACK
6
CONTINUOUS
10
155.155
20
-8.29417
11
154.632
21
-8.29417
0
LINE
8
BLACK
6
CONTINUOUS
10
155.155
20
-8.29417
11
155.251
21
-8.34178
0
LINE
8
BLACK
6
CONTINUOUS
10
155.251
20
-8.34178
11
155.298
21
-8.43702
0
LINE
8
BLACK
6
CONTINUOUS
10
155.298
20
-8.43702
11
155.298
21
-8.57988
0
LINE
8
BLACK
6
CONTINUOUS
10
155.298
20
-8.57988
11
155.251
21
-8.67512
0
LINE
8
BLACK
6
CONTINUOUS
10
155.251
20
-8.67512
11
155.155
21
-8.72274
0
LINE
8
BLACK
6
CONTINUOUS
10
155.155
20
-8.72274
11
154.632
21
-8.72274
0
LINE
8
BLACK
6
CONTINUOUS
10
156.284
20
1.5225
11
156.284
21
-10.7775
0
LINE
8
BLACK
6
CONTINUOUS
10
157.322
20
1.5225
11
155.698
21
1.5225
0
LINE
8
BLACK
6
CONTINUOUS
10
157.322
20
-10.7775
11
155.698
21
-10.7775
0
LINE
8
BLACK
6
CONTINUOUS
10
156.284
20
-10.7775
11
155.698
21
-9.651
0
LINE
8
BLACK
6
CONTINUOUS
10
156.284
20
-10.7775
11
156.87
21
-9.651
0
LINE
8
BLACK
6
CONTINUOUS
10
156.284
20
1.5225
11
155.698
21
0.395996
0
LINE
8
BLACK
6
CONTINUOUS
10
156.284
20
1.5225
11
156.87
21
0.395996
0
LINE
8
BLACK
6
CONTINUOUS
10
170.027
20
4.12012
11
169.455
21
4.12012
0
LINE
8
BLACK
6
CONTINUOUS
10
169.741
20
4.12012
11
169.741
21
5.12012
0
LINE
8
BLACK
6
CONTINUOUS
10
169.741
20
5.12012
11
169.646
21
4.97726
0
LINE
8
BLACK
6
CONTINUOUS
10
169.646
20
4.97726
11
169.551
21
4.88202
0
LINE
8
BLACK
6
CONTINUOUS
10
169.551
20
4.88202
11
169.455
21
4.8344
0
LINE
8
BLACK
6
CONTINUOUS
10
170.884
20
4.78679
11
170.884
21
4.12012
0
LINE
8
BLACK
6
CONTINUOUS
10
170.646
20
5.16774
11
170.408
21
4.45345
0
LINE
8
BLACK
6
CONTINUOUS
10
170.408
20
4.45345
11
171.027
21
4.45345
0
LINE
8
BLACK
6
CONTINUOUS
10
171.408
20
4.21536
11
171.455
21
4.16774
0
LINE
8
BLACK
6
CONTINUOUS
10
171.455
20
4.16774
11
171.408
21
4.12012
0
LINE
8
BLACK
6
CONTINUOUS
10
171.408
20
4.12012
11
171.36
21
4.16774
0
LINE
8
BLACK
6
CONTINUOUS
10
171.36
20
4.16774
11
171.408
21
4.21536
0
LINE
8
BLACK
6
CONTINUOUS
10
171.408
20
4.21536
11
171.408
21
4.12012
0
LINE
8
BLACK
6
CONTINUOUS
10
172.074
20
5.12012
11
172.17
21
5.12012
0
LINE
8
BLACK
6
CONTINUOUS
10
172.17
20
5.12012
11
172.265
21
5.0725
0
LINE
8
BLACK
6
CONTINUOUS
10
172.265
20
5.0725
11
172.312
21
5.02488
0
LINE
8
BLACK
6
CONTINUOUS
10
172.312
20
5.02488
11
172.36
21
4.92964
0
LINE
8
BLACK
6
CONTINUOUS
10
172.36
20
4.92964
11
172.408
21
4.73917
0
LINE
8
BLACK
6
CONTINUOUS
10
172.408
20
4.73917
11
172.408
21
4.50107
0
LINE
8
BLACK
6
CONTINUOUS
10
172.408
20
4.50107
11
172.36
21
4.3106
0
LINE
8
BLACK
6
CONTINUOUS
10
172.36
20
4.3106
11
172.312
21
4.21536
0
LINE
8
BLACK
6
CONTINUOUS
10
172.312
20
4.21536
11
172.265
21
4.16774
0
LINE
8
BLACK
6
CONTINUOUS
10
172.265
20
4.16774
11
172.17
21
4.12012
0
LINE
8
BLACK
6
CONTINUOUS
10
172.17
20
4.12012
11
172.074
21
4.12012
0
LINE
8
BLACK
6
CONTINUOUS
10
172.074
20
4.12012
11
171.979
21
4.16774
0
LINE
8
BLACK
6
CONTINUOUS
10
171.979
20
4.16774
11
171.931
21
4.21536
0
LINE
8
BLACK
6
CONTINUOUS
10
171.931
20
4.21536
11
171.884
21
4.3106
0
LINE
8
BLACK
6
CONTINUOUS
10
171.884
20
4.3106
11
171.836
21
4.50107
0
LINE
8
BLACK
6
CONTINUOUS
10
171.836
20
4.50107
11
171.836
21
4.73917
0
LINE
8
BLACK
6
CONTINUOUS
10
171.836
20
4.73917
11
171.884
21
4.92964
0
LINE
8
BLACK
6
CONTINUOUS
10
171.884
20
4.92964
11
171.931
21
5.02488
0
LINE
8
BLACK
6
CONTINUOUS
10
171.931
20
5.02488
11
171.979
21
5.0725
0
LINE
8
BLACK
6
CONTINUOUS
10
171.979
20
5.0725
11
172.074
21
5.12012
0
LINE
8
BLACK
6
CONTINUOUS
10
173.027
20
5.12012
11
173.122
21
5.12012
0
LINE
8
BLACK
6
CONTINUOUS
10
173.122
20
5.12012
11
173.217
21
5.0725
0
LINE
8
BLACK
6
CONTINUOUS
10
173.217
20
5.0725
11
173.265
21
5.02488
0
LINE
8
BLACK
6
CONTINUOUS
10
173.265
20
5.02488
11
173.312
21
4.92964
0
LINE
8
BLACK
6
CONTINUOUS
10
173.312
20
4.92964
11
173.36
21
4.73917
0
LINE
8
BLACK
6
CONTINUOUS
10
173.36
20
4.73917
11
173.36
21
4.50107
0
LINE
8
BLACK
6
CONTINUOUS
10
173.36
20
4.50107
11
173.312
21
4.3106
0
LINE
8
BLACK
6
CONTINUOUS
10
173.312
20
4.3106
11
173.265
21
4.21536
0
LINE
8
BLACK
6
CONTINUOUS
10
173.265
20
4.21536
11
173.217
21
4.16774
0
LINE
8
BLACK
6
CONTINUOUS
10
173.217
20
4.16774
11
173.122
21
4.12012
0
LINE
8
BLACK
6
CONTINUOUS
10
173.122
20
4.12012
11
173.027
21
4.12012
0
LINE
8
BLACK
6
CONTINUOUS
10
173.027
20
4.12012
11
172.931
21
4.16774
0
LINE
8
BLACK
6
CONTINUOUS
10
172.931
20
4.16774
11
172.884
21
4.21536
0
LINE
8
BLACK
6
CONTINUOUS
10
172.884
20
4.21536
11
172.836
21
4.3106
0
LINE
8
BLACK
6
CONTINUOUS
10
172.836
20
4.3106
11
172.789
21
4.50107
0
LINE
8
BLACK
6
CONTINUOUS
10
172.789
20
4.50107
11
172.789
21
4.73917
0
LINE
8
BLACK
6
CONTINUOUS
10
172.789
20
4.73917
11
172.836
21
4.92964
0
LINE
8
BLACK
6
CONTINUOUS
10
172.836
20
4.92964
11
172.884
21
5.02488
0
LINE
8
BLACK
6
CONTINUOUS
10
172.884
20
5.02488
11
172.931
21
5.0725
0
LINE
8
BLACK
6
CONTINUOUS
10
172.931
20
5.0725
11
173.027
21
5.12012
0
LINE
8
BLACK
6
CONTINUOUS
10
173.979
20
5.12012
11
174.074
21
5.12012
0
LINE
8
BLACK
6
CONTINUOUS
10
174.074
20
5.12012
11
174.17
21
5.0725
0
LINE
8
BLACK
6
CONTINUOUS
10
174.17
20
5.0725
11
174.217
21
5.02488
0
LINE
8
BLACK
6
CONTINUOUS
10
174.217
20
5.02488
11
174.265
21
4.92964
0
LINE
8
BLACK
6
CONTINUOUS
10
174.265
20
4.92964
11
174.312
21
4.73917
0
LINE
8
BLACK
6
CONTINUOUS
10
174.312
20
4.73917
11
174.312
21
4.50107
0
LINE
8
BLACK
6
CONTINUOUS
10
174.312
20
4.50107
11
174.265
21
4.3106
0
LINE
8
BLACK
6
CONTINUOUS
10
174.265
20
4.3106
11
174.217
21
4.21536
0
LINE
8
BLACK
6
CONTINUOUS
10
174.217
20
4.21536
11
174.17
21
4.16774
0
LINE
8
BLACK
6
CONTINUOUS
10
174.17
20
4.16774
11
174.074
21
4.12012
0
LINE
8
BLACK
6
CONTINUOUS
10
174.074
20
4.12012
11
173.979
21
4.12012
0
LINE
8
BLACK
6
CONTINUOUS
10
173.979
20
4.12012
11
173.884
21
4.16774
0
LINE
8
BLACK
6
CONTINUOUS
10
173.884
20
4.16774
11
173.836
21
4.21536
0
LINE
8
BLACK
6
CONTINUOUS
10
173.836
20
4.21536
11
173.789
21
4.3106
0
LINE
8
BLACK
6
CONTINUOUS
10
173.789
20
4.3106
11
173.741
21
4.50107
0
LINE
8
BLACK
6
CONTINUOUS
10
173.741
20
4.50107
11
173.741
21
4.73917
0
LINE
8
BLACK
6
CONTINUOUS
10
173.741
20
4.73917
11
173.789
21
4.92964
0
LINE
8
BLACK
6
CONTINUOUS
10
173.789
20
4.92964
11
173.836
21
5.02488
0
LINE
8
BLACK
6
CONTINUOUS
10
173.836
20
5.02488
11
173.884
21
5.0725
0
LINE
8
BLACK
6
CONTINUOUS
10
173.884
20
5.0725
11
173.979
21
5.12012
0
LINE
8
BLACK
6
CONTINUOUS
10
175.503
20
4.12012
11
175.503
21
4.78679
0
LINE
8
BLACK
6
CONTINUOUS
10
175.503
20
4.69155
11
175.551
21
4.73917
0
LINE
8
BLACK
6
CONTINUOUS
10
175.551
20
4.73917
11
175.646
21
4.78679
0
LINE
8
BLACK
6
CONTINUOUS
10
175.646
20
4.78679
11
175.789
21
4.78679
0
LINE
8
BLACK
6
CONTINUOUS
10
175.789
20
4.78679
11
175.884
21
4.73917
0
LINE
8
BLACK
6
CONTINUOUS
10
175.884
20
4.73917
11
175.931
21
4.64393
0
LINE
8
BLACK
6
CONTINUOUS
10
175.931
20
4.64393
11
175.931
21
4.12012
0
LINE
8
BLACK
6
CONTINUOUS
10
175.931
20
4.64393
11
175.979
21
4.73917
0
LINE
8
BLACK
6
CONTINUOUS
10
175.979
20
4.73917
11
176.074
21
4.78679
0
LINE
8
BLACK
6
CONTINUOUS
10
176.074
20
4.78679
11
176.217
21
4.78679
0
LINE
8
BLACK
6
CONTINUOUS
10
176.217
20
4.78679
11
176.312
21
4.73917
0
LINE
8
BLACK
6
CONTINUOUS
10
176.312
20
4.73917
11
176.36
21
4.64393
0
LINE
8
BLACK
6
CONTINUOUS
10
176.36
20
4.64393
11
176.36
21
4.12012
0
LINE
8
BLACK
6
CONTINUOUS
10
176.836
20
4.12012
11
176.836
21
4.78679
0
LINE
8
BLACK
6
CONTINUOUS
10
176.836
20
4.69155
11
176.884
21
4.73917
0
LINE
8
BLACK
6
CONTINUOUS
10
176.884
20
4.73917
11
176.979
21
4.78679
0
LINE
8
BLACK
6
CONTINUOUS
10
176.979
20
4.78679
11
177.122
21
4.78679
0
LINE
8
BLACK
6
CONTINUOUS
10
177.122
20
4.78679
11
177.217
21
4.73917
0
LINE
8
BLACK
6
CONTINUOUS
10
177.217
20
4.73917
11
177.265
21
4.64393
0
LINE
8
BLACK
6
CONTINUOUS
10
177.265
20
4.64393
11
177.265
21
4.12012
0
LINE
8
BLACK
6
CONTINUOUS
10
177.265
20
4.64393
11
177.312
21
4.73917
0
LINE
8
BLACK
6
CONTINUOUS
10
177.312
20
4.73917
11
177.408
21
4.78679
0
LINE
8
BLACK
6
CONTINUOUS
10
177.408
20
4.78679
11
177.551
21
4.78679
0
LINE
8
BLACK
6
CONTINUOUS
10
177.551
20
4.78679
11
177.646
21
4.73917
0
LINE
8
BLACK
6
CONTINUOUS
10
177.646
20
4.73917
11
177.693
21
4.64393
0
LINE
8
BLACK
6
CONTINUOUS
10
177.693
20
4.64393
11
177.693
21
4.12012
0
LINE
8
BLACK
6
CONTINUOUS
10
166.598
20
3.3725
11
180.598
21
3.3725
0
LINE
8
BLACK
6
CONTINUOUS
10
166.598
20
2.7525
11
166.598
21
3.95892
0
LINE
8
BLACK
6
CONTINUOUS
10
180.598
20
2.7525
11
180.598
21
3.95892
0
LINE
8
BLACK
6
CONTINUOUS
10
180.598
20
3.3725
11
179.472
21
2.78608
0
LINE
8
BLACK
6
CONTINUOUS
10
180.598
20
3.3725
11
179.472
21
3.95892
0
LINE
8
BLACK
6
CONTINUOUS
10
166.598
20
3.3725
11
167.725
21
2.78608
0
LINE
8
BLACK
6
CONTINUOUS
10
166.598
20
3.3725
11
167.725
21
3.95892
0
LINE
8
BLACK
6
CONTINUOUS
10
166.598
20
-7.5475
11
166.598
21
-12.2475
0
LINE
8
BLACK
6
CONTINUOUS
10
193.436
20
-12.8768
11
193.436
21
-12.2577
0
LINE
8
BLACK
6
CONTINUOUS
10
193.436
20
-12.2577
11
193.817
21
-12.5911
0
LINE
8
BLACK
6
CONTINUOUS
10
193.817
20
-12.5911
11
193.817
21
-12.4482
0
LINE
8
BLACK
6
CONTINUOUS
10
193.817
20
-12.4482
11
193.865
21
-12.353
0
LINE
8
BLACK
6
CONTINUOUS
10
193.865
20
-12.353
11
193.913
21
-12.3054
0
LINE
8
BLACK
6
CONTINUOUS
10
193.913
20
-12.3054
11
194.008
21
-12.2577
0
LINE
8
BLACK
6
CONTINUOUS
10
194.008
20
-12.2577
11
194.246
21
-12.2577
0
LINE
8
BLACK
6
CONTINUOUS
10
194.246
20
-12.2577
11
194.341
21
-12.3054
0
LINE
8
BLACK
6
CONTINUOUS
10
194.341
20
-12.3054
11
194.389
21
-12.353
0
LINE
8
BLACK
6
CONTINUOUS
10
194.389
20
-12.353
11
194.436
21
-12.4482
0
LINE
8
BLACK
6
CONTINUOUS
10
194.436
20
-12.4482
11
194.436
21
-12.7339
0
LINE
8
BLACK
6
CONTINUOUS
10
194.436
20
-12.7339
11
194.389
21
-12.8292
0
LINE
8
BLACK
6
CONTINUOUS
10
194.389
20
-12.8292
11
194.341
21
-12.8768
0
LINE
8
BLACK
6
CONTINUOUS
10
194.341
20
-11.8292
11
194.389
21
-11.7815
0
LINE
8
BLACK
6
CONTINUOUS
10
194.389
20
-11.7815
11
194.436
21
-11.8292
0
LINE
8
BLACK
6
CONTINUOUS
10
194.436
20
-11.8292
11
194.389
21
-11.8768
0
LINE
8
BLACK
6
CONTINUOUS
10
194.389
20
-11.8768
11
194.341
21
-11.8292
0
LINE
8
BLACK
6
CONTINUOUS
10
194.341
20
-11.8292
11
194.436
21
-11.8292
0
LINE
8
BLACK
6
CONTINUOUS
10
193.532
20
-11.4006
11
193.484
21
-11.353
0
LINE
8
BLACK
6
CONTINUOUS
10
193.484
20
-11.353
11
193.436
21
-11.2577
0
LINE
8
BLACK
6
CONTINUOUS
10
193.436
20
-11.2577
11
193.436
21
-11.0196
0
LINE
8
BLACK
6
CONTINUOUS
10
193.436
20
-11.0196
11
193.484
21
-10.9244
0
LINE
8
BLACK
6
CONTINUOUS
10
193.484
20
-10.9244
11
193.532
21
-10.8768
0
LINE
8
BLACK
6
CONTINUOUS
10
193.532
20
-10.8768
11
193.627
21
-10.8292
0
LINE
8
BLACK
6
CONTINUOUS
10
193.627
20
-10.8292
11
193.722
21
-10.8292
0
LINE
8
BLACK
6
CONTINUOUS
10
193.722
20
-10.8292
11
193.865
21
-10.8768
0
LINE
8
BLACK
6
CONTINUOUS
10
193.865
20
-10.8768
11
194.436
21
-11.4482
0
LINE
8
BLACK
6
CONTINUOUS
10
194.436
20
-11.4482
11
194.436
21
-10.8292
0
LINE
8
BLACK
6
CONTINUOUS
10
193.436
20
-10.4958
11
193.436
21
-9.87678
0
LINE
8
BLACK
6
CONTINUOUS
10
193.436
20
-9.87678
11
193.817
21
-10.2101
0
LINE
8
BLACK
6
CONTINUOUS
10
193.817
20
-10.2101
11
193.817
21
-10.0673
0
LINE
8
BLACK
6
CONTINUOUS
10
193.817
20
-10.0673
11
193.865
21
-9.97202
0
LINE
8
BLACK
6
CONTINUOUS
10
193.865
20
-9.97202
11
193.913
21
-9.9244
0
LINE
8
BLACK
6
CONTINUOUS
10
193.913
20
-9.9244
11
194.008
21
-9.87678
0
LINE
8
BLACK
6
CONTINUOUS
10
194.008
20
-9.87678
11
194.246
21
-9.87678
0
LINE
8
BLACK
6
CONTINUOUS
10
194.246
20
-9.87678
11
194.341
21
-9.9244
0
LINE
8
BLACK
6
CONTINUOUS
10
194.341
20
-9.9244
11
194.389
21
-9.97202
0
LINE
8
BLACK
6
CONTINUOUS
10
194.389
20
-9.97202
11
194.436
21
-10.0673
0
LINE
8
BLACK
6
CONTINUOUS
10
194.436
20
-10.0673
11
194.436
21
-10.353
0
LINE
8
BLACK
6
CONTINUOUS
10
194.436
20
-10.353
11
194.389
21
-10.4482
0
LINE
8
BLACK
6
CONTINUOUS
10
194.389
20
-10.4482
11
194.341
21
-10.4958
0
LINE
8
BLACK
6
CONTINUOUS
10
193.436
20
-9.25774
11
193.436
21
-9.1625
0
LINE
8
BLACK
6
CONTINUOUS
10
193.436
20
-9.1625
11
193.484
21
-9.06726
0
LINE
8
BLACK
6
CONTINUOUS
10
193.484
20
-9.06726
11
193.532
21
-9.01964
0
LINE
8
BLACK
6
CONTINUOUS
10
193.532
20
-9.01964
11
193.627
21
-8.97202
0
LINE
8
BLACK
6
CONTINUOUS
10
193.627
20
-8.97202
11
193.817
21
-8.9244
0
LINE
8
BLACK
6
CONTINUOUS
10
193.817
20
-8.9244
11
194.055
21
-8.9244
0
LINE
8
BLACK
6
CONTINUOUS
10
194.055
20
-8.9244
11
194.246
21
-8.97202
0
LINE
8
BLACK
6
CONTINUOUS
10
194.246
20
-8.97202
11
194.341
21
-9.01964
0
LINE
8
BLACK
6
CONTINUOUS
10
194.341
20
-9.01964
11
194.389
21
-9.06726
0
LINE
8
BLACK
6
CONTINUOUS
10
194.389
20
-9.06726
11
194.436
21
-9.1625
0
LINE
8
BLACK
6
CONTINUOUS
10
194.436
20
-9.1625
11
194.436
21
-9.25774
0
LINE
8
BLACK
6
CONTINUOUS
10
194.436
20
-9.25774
11
194.389
21
-9.35298
0
LINE
8
BLACK
6
CONTINUOUS
10
194.389
20
-9.35298
11
194.341
21
-9.40059
0
LINE
8
BLACK
6
CONTINUOUS
10
194.341
20
-9.40059
11
194.246
21
-9.44821
0
LINE
8
BLACK
6
CONTINUOUS
10
194.246
20
-9.44821
11
194.055
21
-9.49583
0
LINE
8
BLACK
6
CONTINUOUS
10
194.055
20
-9.49583
11
193.817
21
-9.49583
0
LINE
8
BLACK
6
CONTINUOUS
10
193.817
20
-9.49583
11
193.627
21
-9.44821
0
LINE
8
BLACK
6
CONTINUOUS
10
193.627
20
-9.44821
11
193.532
21
-9.40059
0
LINE
8
BLACK
6
CONTINUOUS
10
193.532
20
-9.40059
11
193.484
21
-9.35298
0
LINE
8
BLACK
6
CONTINUOUS
10
193.484
20
-9.35298
11
193.436
21
-9.25774
0
LINE
8
BLACK
6
CONTINUOUS
10
194.436
20
-7.73393
11
193.77
21
-7.73393
0
LINE
8
BLACK
6
CONTINUOUS
10
193.865
20
-7.73393
11
193.817
21
-7.68631
0
LINE
8
BLACK
6
CONTINUOUS
10
193.817
20
-7.68631
11
193.77
21
-7.59107
0
LINE
8
BLACK
6
CONTINUOUS
10
193.77
20
-7.59107
11
193.77
21
-7.44821
0
LINE
8
BLACK
6
CONTINUOUS
10
193.77
20
-7.44821
11
193.817
21
-7.35298
0
LINE
8
BLACK
6
CONTINUOUS
10
193.817
20
-7.35298
11
193.913
21
-7.30536
0
LINE
8
BLACK
6
CONTINUOUS
10
193.913
20
-7.30536
11
194.436
21
-7.30536
0
LINE
8
BLACK
6
CONTINUOUS
10
193.913
20
-7.30536
11
193.817
21
-7.25774
0
LINE
8
BLACK
6
CONTINUOUS
10
193.817
20
-7.25774
11
193.77
21
-7.1625
0
LINE
8
BLACK
6
CONTINUOUS
10
193.77
20
-7.1625
11
193.77
21
-7.01964
0
LINE
8
BLACK
6
CONTINUOUS
10
193.77
20
-7.01964
11
193.817
21
-6.9244
0
LINE
8
BLACK
6
CONTINUOUS
10
193.817
20
-6.9244
11
193.913
21
-6.87678
0
LINE
8
BLACK
6
CONTINUOUS
10
193.913
20
-6.87678
11
194.436
21
-6.87678
0
LINE
8
BLACK
6
CONTINUOUS
10
194.436
20
-6.4006
11
193.77
21
-6.4006
0
LINE
8
BLACK
6
CONTINUOUS
10
193.865
20
-6.4006
11
193.817
21
-6.35298
0
LINE
8
BLACK
6
CONTINUOUS
10
193.817
20
-6.35298
11
193.77
21
-6.25774
0
LINE
8
BLACK
6
CONTINUOUS
10
193.77
20
-6.25774
11
193.77
21
-6.11488
0
LINE
8
BLACK
6
CONTINUOUS
10
193.77
20
-6.11488
11
193.817
21
-6.01964
0
LINE
8
BLACK
6
CONTINUOUS
10
193.817
20
-6.01964
11
193.913
21
-5.97202
0
LINE
8
BLACK
6
CONTINUOUS
10
193.913
20
-5.97202
11
194.436
21
-5.97202
0
LINE
8
BLACK
6
CONTINUOUS
10
193.913
20
-5.97202
11
193.817
21
-5.9244
0
LINE
8
BLACK
6
CONTINUOUS
10
193.817
20
-5.9244
11
193.77
21
-5.82917
0
LINE
8
BLACK
6
CONTINUOUS
10
193.77
20
-5.82917
11
193.77
21
-5.68631
0
LINE
8
BLACK
6
CONTINUOUS
10
193.77
20
-5.68631
11
193.817
21
-5.59107
0
LINE
8
BLACK
6
CONTINUOUS
10
193.817
20
-5.59107
11
193.913
21
-5.54345
0
LINE
8
BLACK
6
CONTINUOUS
10
193.913
20
-5.54345
11
194.436
21
-5.54345
0
LINE
8
BLACK
6
CONTINUOUS
10
192.784
20
-10.7775
11
192.784
21
-7.5475
0
LINE
8
BLACK
6
CONTINUOUS
10
190.874
20
-10.7775
11
193.37
21
-10.7775
0
LINE
8
BLACK
6
CONTINUOUS
10
190.874
20
-7.5475
11
193.37
21
-7.5475
0
LINE
8
BLACK
6
CONTINUOUS
10
192.784
20
-7.5475
11
193.37
21
-8.674
0
LINE
8
BLACK
6
CONTINUOUS
10
192.784
20
-7.5475
11
192.198
21
-8.674
0
LINE
8
BLACK
6
CONTINUOUS
10
192.784
20
-10.7775
11
193.37
21
-9.651
0
LINE
8
BLACK
6
CONTINUOUS
10
192.784
20
-10.7775
11
192.198
21
-9.651
0
LINE
8
BLACK
6
CONTINUOUS
10
165.073
20
-7.5475
11
165.073
21
-10.7775
0
LINE
8
BLACK
6
CONTINUOUS
10
165.073
20
-7.5475
11
166.598
21
-7.5475
0
LINE
8
BLACK
6
CONTINUOUS
10
180.598
20
1.7525
11
180.598
21
-2.9475
0
LINE
8
BLACK
6
CONTINUOUS
10
160.047
20
1.5225
11
160.047
21
2.7225
0
LINE
8
BLACK
6
CONTINUOUS
10
158.322
20
1.5225
11
160.047
21
1.5225
0
LINE
8
BLACK
6
CONTINUOUS
10
160.047
20
2.7225
11
163.347
21
2.7225
0
LINE
8
BLACK
6
CONTINUOUS
10
182.123
20
-7.5475
11
180.598
21
-7.5475
0
LINE
8
BLACK
6
CONTINUOUS
10
157.497
20
-4.7625
11
157.497
21
-7.5475
0
LINE
8
BLACK
6
CONTINUOUS
10
166.598
20
1.7525
11
166.598
21
-2.9475
0
LINE
8
BLACK
6
CONTINUOUS
10
158.322
20
-4.7625
11
158.322
21
1.5225
0
LINE
8
BLACK
6
CONTINUOUS
10
158.322
20
-10.7775
11
158.322
21
-7.5475
0
LINE
8
BLACK
6
CONTINUOUS
10
38.0112
20
-50.3475
11
52.0112
21
-50.3475
0
LINE
8
BLACK
6
CONTINUOUS
10
38.0112
20
-36.3475
11
38.0112
21
-50.3475
0
LINE
8
BLACK
6
CONTINUOUS
10
52.0112
20
-36.3475
11
38.0112
21
-36.3475
0
LINE
8
BLACK
6
CONTINUOUS
10
52.0112
20
-50.3475
11
52.0112
21
-36.3475
0
LINE
8
BLACK
6
CONTINUOUS
10
188.685
20
-61.4275
11
213.585
21
-61.4275
0
LINE
8
BLACK
6
CONTINUOUS
10
61.7725
20
-52.8725
11
187.575
21
-52.8725
0
LINE
8
BLACK
6
CONTINUOUS
10
61.7725
20
-52.8725
11
37.8675
21
-52.8725
0
ARC
8
BLACK
10
33.585
20
-52.3475
40
0.525856
50
-176.73
51
-86.7295
0
ARC
8
BLACK
10
187.605
20
-53.3975
40
0.525856
50
3.27049
51
93.2705
0
ARC
8
BLACK
10
188.655
20
-60.9025
40
0.525856
50
-176.73
51
-86.7295
0
ARC
8
BLACK
10
213.555
20
-60.9025
40
0.525856
50
-86.7295
51
3.27049
0
ARC
8
BLACK
10
213.555
20
60.9025
40
0.525
50
-0
51
90
0
LINE
8
BLACK
6
CONTINUOUS
10
214.08
20
-14.77
11
214.08
21
-60.8725
0
LINE
8
BLACK
6
CONTINUOUS
10
188.13
20
-60.9325
11
188.13
21
-53.3675
0
LINE
8
BLACK
6
CONTINUOUS
10
33.615
20
-52.8725
11
37.8675
21
-52.8725
0
LINE
8
BLACK
6
CONTINUOUS
10
33.061
20
60.8725
11
33.06
21
-52.3775
0
LINE
8
BLACK
6
CONTINUOUS
10
214.08
20
60.9025
11
214.08
21
-14.77
0
LINE
8
BLACK
6
CONTINUOUS
10
213.555
20
61.4275
11
33.556
21
61.4275
0
ARC
8
BLACK
10
33.586
20
60.9025
40
0.525856
50
93.2705
51
183.27
0
LINE
8
BLACK
6
CONTINUOUS
10
172.735
20
-28.2686
11
172.846
21
-28.2907
0
LINE
8
BLACK
6
CONTINUOUS
10
172.846
20
-28.2907
11
173.055
21
-28.3775
0
LINE
8
BLACK
6
CONTINUOUS
10
173.055
20
-28.3775
11
173.244
21
-28.5035
0
LINE
8
BLACK
6
CONTINUOUS
10
173.244
20
-28.5035
11
173.404
21
-28.6638
0
LINE
8
BLACK
6
CONTINUOUS
10
173.404
20
-28.6638
11
173.53
21
-28.8523
0
LINE
8
BLACK
6
CONTINUOUS
10
173.53
20
-28.8523
11
173.617
21
-29.0618
0
LINE
8
BLACK
6
CONTINUOUS
10
173.617
20
-29.0618
11
173.661
21
-29.2841
0
LINE
8
BLACK
6
CONTINUOUS
10
173.661
20
-29.2841
11
173.661
21
-29.5109
0
LINE
8
BLACK
6
CONTINUOUS
10
173.661
20
-29.5109
11
173.617
21
-29.7332
0
LINE
8
BLACK
6
CONTINUOUS
10
173.617
20
-29.7332
11
173.53
21
-29.9427
0
LINE
8
BLACK
6
CONTINUOUS
10
173.53
20
-29.9427
11
173.404
21
-30.1312
0
LINE
8
BLACK
6
CONTINUOUS
10
173.404
20
-30.1312
11
173.244
21
-30.2915
0
LINE
8
BLACK
6
CONTINUOUS
10
173.244
20
-30.2915
11
173.055
21
-30.4175
0
LINE
8
BLACK
6
CONTINUOUS
10
173.055
20
-30.4175
11
172.846
21
-30.5043
0
LINE
8
BLACK
6
CONTINUOUS
10
172.846
20
-30.5043
11
172.735
21
-30.5264
0
LINE
8
BLACK
6
CONTINUOUS
10
172.735
20
-30.5264
11
172.623
21
-30.5485
0
LINE
8
BLACK
6
CONTINUOUS
10
172.623
20
-30.5485
11
172.397
21
-30.5485
0
LINE
8
BLACK
6
CONTINUOUS
10
172.397
20
-30.5485
11
172.285
21
-30.5264
0
LINE
8
BLACK
6
CONTINUOUS
10
172.285
20
-30.5264
11
172.174
21
-30.5043
0
LINE
8
BLACK
6
CONTINUOUS
10
172.174
20
-30.5043
11
171.965
21
-30.4175
0
LINE
8
BLACK
6
CONTINUOUS
10
171.965
20
-30.4175
11
171.776
21
-30.2915
0
LINE
8
BLACK
6
CONTINUOUS
10
171.776
20
-30.2915
11
171.616
21
-30.1312
0
LINE
8
BLACK
6
CONTINUOUS
10
171.616
20
-30.1312
11
171.49
21
-29.9427
0
LINE
8
BLACK
6
CONTINUOUS
10
171.49
20
-29.9427
11
171.403
21
-29.7332
0
LINE
8
BLACK
6
CONTINUOUS
10
171.403
20
-29.7332
11
171.359
21
-29.5109
0
LINE
8
BLACK
6
CONTINUOUS
10
171.359
20
-29.5109
11
171.359
21
-29.2841
0
LINE
8
BLACK
6
CONTINUOUS
10
171.359
20
-29.2841
11
171.403
21
-29.0618
0
LINE
8
BLACK
6
CONTINUOUS
10
171.403
20
-29.0618
11
171.49
21
-28.8523
0
LINE
8
BLACK
6
CONTINUOUS
10
171.49
20
-28.8523
11
171.616
21
-28.6638
0
LINE
8
BLACK
6
CONTINUOUS
10
171.616
20
-28.6638
11
171.776
21
-28.5035
0
LINE
8
BLACK
6
CONTINUOUS
10
171.776
20
-28.5035
11
171.965
21
-28.3775
0
LINE
8
BLACK
6
CONTINUOUS
10
171.965
20
-28.3775
11
172.174
21
-28.2907
0
LINE
8
BLACK
6
CONTINUOUS
10
172.174
20
-28.2907
11
172.285
21
-28.2686
0
LINE
8
BLACK
6
CONTINUOUS
10
172.285
20
-28.2686
11
172.397
21
-28.2465
0
LINE
8
BLACK
6
CONTINUOUS
10
172.397
20
-28.2465
11
172.623
21
-28.2465
0
LINE
8
BLACK
6
CONTINUOUS
10
172.623
20
-28.2465
11
172.735
21
-28.2686
0
LINE
8
BLACK
6
CONTINUOUS
10
44.642
20
-28.2686
11
44.7532
21
-28.2907
0
LINE
8
BLACK
6
CONTINUOUS
10
44.7532
20
-28.2907
11
44.9627
21
-28.3775
0
LINE
8
BLACK
6
CONTINUOUS
10
44.9627
20
-28.3775
11
45.1512
21
-28.5035
0
LINE
8
BLACK
6
CONTINUOUS
10
45.1512
20
-28.5035
11
45.3115
21
-28.6638
0
LINE
8
BLACK
6
CONTINUOUS
10
45.3115
20
-28.6638
11
45.4375
21
-28.8523
0
LINE
8
BLACK
6
CONTINUOUS
10
45.4375
20
-28.8523
11
45.5243
21
-29.0618
0
LINE
8
BLACK
6
CONTINUOUS
10
45.5243
20
-29.0618
11
45.5685
21
-29.2841
0
LINE
8
BLACK
6
CONTINUOUS
10
45.5685
20
-29.2841
11
45.5685
21
-29.5109
0
LINE
8
BLACK
6
CONTINUOUS
10
45.5685
20
-29.5109
11
45.5243
21
-29.7332
0
LINE
8
BLACK
6
CONTINUOUS
10
45.5243
20
-29.7332
11
45.4375
21
-29.9427
0
LINE
8
BLACK
6
CONTINUOUS
10
45.4375
20
-29.9427
11
45.3115
21
-30.1312
0
LINE
8
BLACK
6
CONTINUOUS
10
45.3115
20
-30.1312
11
45.1512
21
-30.2915
0
LINE
8
BLACK
6
CONTINUOUS
10
45.1512
20
-30.2915
11
44.9627
21
-30.4175
0
LINE
8
BLACK
6
CONTINUOUS
10
44.9627
20
-30.4175
11
44.7532
21
-30.5043
0
LINE
8
BLACK
6
CONTINUOUS
10
44.7532
20
-30.5043
11
44.642
21
-30.5264
0
LINE
8
BLACK
6
CONTINUOUS
10
44.642
20
-30.5264
11
44.5309
21
-30.5485
0
LINE
8
BLACK
6
CONTINUOUS
10
44.5309
20
-30.5485
11
44.3041
21
-30.5485
0
LINE
8
BLACK
6
CONTINUOUS
10
44.3041
20
-30.5485
11
44.193
21
-30.5264
0
LINE
8
BLACK
6
CONTINUOUS
10
44.193
20
-30.5264
11
44.0818
21
-30.5043
0
LINE
8
BLACK
6
CONTINUOUS
10
44.0818
20
-30.5043
11
43.8723
21
-30.4175
0
LINE
8
BLACK
6
CONTINUOUS
10
43.8723
20
-30.4175
11
43.6838
21
-30.2915
0
LINE
8
BLACK
6
CONTINUOUS
10
43.6838
20
-30.2915
11
43.5235
21
-30.1312
0
LINE
8
BLACK
6
CONTINUOUS
10
43.5235
20
-30.1312
11
43.3975
21
-29.9427
0
LINE
8
BLACK
6
CONTINUOUS
10
43.3975
20
-29.9427
11
43.3107
21
-29.7332
0
LINE
8
BLACK
6
CONTINUOUS
10
43.3107
20
-29.7332
11
43.2665
21
-29.5109
0
LINE
8
BLACK
6
CONTINUOUS
10
43.2665
20
-29.5109
11
43.2665
21
-29.2841
0
LINE
8
BLACK
6
CONTINUOUS
10
43.2665
20
-29.2841
11
43.3107
21
-29.0618
0
LINE
8
BLACK
6
CONTINUOUS
10
43.3107
20
-29.0618
11
43.3975
21
-28.8523
0
LINE
8
BLACK
6
CONTINUOUS
10
43.3975
20
-28.8523
11
43.5235
21
-28.6638
0
LINE
8
BLACK
6
CONTINUOUS
10
43.5235
20
-28.6638
11
43.6838
21
-28.5035
0
LINE
8
BLACK
6
CONTINUOUS
10
43.6838
20
-28.5035
11
43.8723
21
-28.3775
0
LINE
8
BLACK
6
CONTINUOUS
10
43.8723
20
-28.3775
11
44.0818
21
-28.2907
0
LINE
8
BLACK
6
CONTINUOUS
10
44.0818
20
-28.2907
11
44.193
21
-28.2686
0
LINE
8
BLACK
6
CONTINUOUS
10
44.193
20
-28.2686
11
44.3041
21
-28.2465
0
LINE
8
BLACK
6
CONTINUOUS
10
44.3041
20
-28.2465
11
44.5309
21
-28.2465
0
LINE
8
BLACK
6
CONTINUOUS
10
44.5309
20
-28.2465
11
44.642
21
-28.2686
0
LINE
8
BLACK
6
CONTINUOUS
10
109.555
20
5.83138
11
109.666
21
5.80927
0
LINE
8
BLACK
6
CONTINUOUS
10
109.666
20
5.80927
11
109.875
21
5.7225
0
LINE
8
BLACK
6
CONTINUOUS
10
109.875
20
5.7225
11
110.064
21
5.59654
0
LINE
8
BLACK
6
CONTINUOUS
10
110.064
20
5.59654
11
110.224
21
5.43622
0
LINE
8
BLACK
6
CONTINUOUS
10
110.224
20
5.43622
11
110.35
21
5.2477
0
LINE
8
BLACK
6
CONTINUOUS
10
110.35
20
5.2477
11
110.437
21
5.03823
0
LINE
8
BLACK
6
CONTINUOUS
10
110.437
20
5.03823
11
110.481
21
4.81586
0
LINE
8
BLACK
6
CONTINUOUS
10
110.481
20
4.81586
11
110.481
21
4.58914
0
LINE
8
BLACK
6
CONTINUOUS
10
110.481
20
4.58914
11
110.437
21
4.36677
0
LINE
8
BLACK
6
CONTINUOUS
10
110.437
20
4.36677
11
110.35
21
4.1573
0
LINE
8
BLACK
6
CONTINUOUS
10
110.35
20
4.1573
11
110.224
21
3.96878
0
LINE
8
BLACK
6
CONTINUOUS
10
110.224
20
3.96878
11
110.064
21
3.80846
0
LINE
8
BLACK
6
CONTINUOUS
10
110.064
20
3.80846
11
109.875
21
3.6825
0
LINE
8
BLACK
6
CONTINUOUS
10
109.875
20
3.6825
11
109.666
21
3.59573
0
LINE
8
BLACK
6
CONTINUOUS
10
109.666
20
3.59573
11
109.555
21
3.57362
0
LINE
8
BLACK
6
CONTINUOUS
10
109.555
20
3.57362
11
109.443
21
3.5515
0
LINE
8
BLACK
6
CONTINUOUS
10
109.443
20
3.5515
11
109.217
21
3.5515
0
LINE
8
BLACK
6
CONTINUOUS
10
109.217
20
3.5515
11
109.105
21
3.57362
0
LINE
8
BLACK
6
CONTINUOUS
10
109.105
20
3.57362
11
108.994
21
3.59573
0
LINE
8
BLACK
6
CONTINUOUS
10
108.994
20
3.59573
11
108.785
21
3.6825
0
LINE
8
BLACK
6
CONTINUOUS
10
108.785
20
3.6825
11
108.596
21
3.80846
0
LINE
8
BLACK
6
CONTINUOUS
10
108.596
20
3.80846
11
108.436
21
3.96878
0
LINE
8
BLACK
6
CONTINUOUS
10
108.436
20
3.96878
11
108.31
21
4.1573
0
LINE
8
BLACK
6
CONTINUOUS
10
108.31
20
4.1573
11
108.223
21
4.36677
0
LINE
8
BLACK
6
CONTINUOUS
10
108.223
20
4.36677
11
108.179
21
4.58914
0
LINE
8
BLACK
6
CONTINUOUS
10
108.179
20
4.58914
11
108.179
21
4.81586
0
LINE
8
BLACK
6
CONTINUOUS
10
108.179
20
4.81586
11
108.223
21
5.03823
0
LINE
8
BLACK
6
CONTINUOUS
10
108.223
20
5.03823
11
108.31
21
5.2477
0
LINE
8
BLACK
6
CONTINUOUS
10
108.31
20
5.2477
11
108.436
21
5.43622
0
LINE
8
BLACK
6
CONTINUOUS
10
108.436
20
5.43622
11
108.596
21
5.59654
0
LINE
8
BLACK
6
CONTINUOUS
10
108.596
20
5.59654
11
108.785
21
5.7225
0
LINE
8
BLACK
6
CONTINUOUS
10
108.785
20
5.7225
11
108.994
21
5.80927
0
LINE
8
BLACK
6
CONTINUOUS
10
108.994
20
5.80927
11
109.105
21
5.83138
0
LINE
8
BLACK
6
CONTINUOUS
10
109.105
20
5.83138
11
109.217
21
5.8535
0
LINE
8
BLACK
6
CONTINUOUS
10
109.217
20
5.8535
11
109.443
21
5.8535
0
LINE
8
BLACK
6
CONTINUOUS
10
109.443
20
5.8535
11
109.555
21
5.83138
0
LINE
8
BLACK
6
CONTINUOUS
10
42.8795
20
43.5314
11
42.9907
21
43.5093
0
LINE
8
BLACK
6
CONTINUOUS
10
42.9907
20
43.5093
11
43.2002
21
43.4225
0
LINE
8
BLACK
6
CONTINUOUS
10
43.2002
20
43.4225
11
43.3887
21
43.2965
0
LINE
8
BLACK
6
CONTINUOUS
10
43.3887
20
43.2965
11
43.549
21
43.1362
0
LINE
8
BLACK
6
CONTINUOUS
10
43.549
20
43.1362
11
43.675
21
42.9477
0
LINE
8
BLACK
6
CONTINUOUS
10
43.675
20
42.9477
11
43.7618
21
42.7382
0
LINE
8
BLACK
6
CONTINUOUS
10
43.7618
20
42.7382
11
43.7839
21
42.627
0
LINE
8
BLACK
6
CONTINUOUS
10
43.7839
20
42.627
11
43.806
21
42.5159
0
LINE
8
BLACK
6
CONTINUOUS
10
43.806
20
42.5159
11
43.806
21
42.2891
0
LINE
8
BLACK
6
CONTINUOUS
10
43.806
20
42.2891
11
43.7839
21
42.178
0
LINE
8
BLACK
6
CONTINUOUS
10
43.7839
20
42.178
11
43.7618
21
42.0668
0
LINE
8
BLACK
6
CONTINUOUS
10
43.7618
20
42.0668
11
43.7004
21
41.9186
0
LINE
8
BLACK
6
CONTINUOUS
10
43.7004
20
41.9186
11
43.6798
21
41.8688
0
LINE
8
BLACK
6
CONTINUOUS
10
43.6798
20
41.8688
11
43.675
21
41.8573
0
LINE
8
BLACK
6
CONTINUOUS
10
43.675
20
41.8573
11
43.549
21
41.6688
0
LINE
8
BLACK
6
CONTINUOUS
10
43.549
20
41.6688
11
43.3887
21
41.5085
0
LINE
8
BLACK
6
CONTINUOUS
10
43.3887
20
41.5085
11
43.2002
21
41.3825
0
LINE
8
BLACK
6
CONTINUOUS
10
43.2002
20
41.3825
11
42.9907
21
41.2957
0
LINE
8
BLACK
6
CONTINUOUS
10
42.9907
20
41.2957
11
42.8795
21
41.2736
0
LINE
8
BLACK
6
CONTINUOUS
10
42.8795
20
41.2736
11
42.7684
21
41.2515
0
LINE
8
BLACK
6
CONTINUOUS
10
42.7684
20
41.2515
11
42.5416
21
41.2515
0
LINE
8
BLACK
6
CONTINUOUS
10
42.5416
20
41.2515
11
42.4305
21
41.2736
0
LINE
8
BLACK
6
CONTINUOUS
10
42.4305
20
41.2736
11
42.3193
21
41.2957
0
LINE
8
BLACK
6
CONTINUOUS
10
42.3193
20
41.2957
11
42.1098
21
41.3825
0
LINE
8
BLACK
6
CONTINUOUS
10
42.1098
20
41.3825
11
41.9213
21
41.5085
0
LINE
8
BLACK
6
CONTINUOUS
10
41.9213
20
41.5085
11
41.761
21
41.6688
0
LINE
8
BLACK
6
CONTINUOUS
10
41.761
20
41.6688
11
41.635
21
41.8573
0
LINE
8
BLACK
6
CONTINUOUS
10
41.635
20
41.8573
11
41.6302
21
41.8688
0
LINE
8
BLACK
6
CONTINUOUS
10
41.6302
20
41.8688
11
41.6096
21
41.9186
0
LINE
8
BLACK
6
CONTINUOUS
10
41.6096
20
41.9186
11
41.5482
21
42.0668
0
LINE
8
BLACK
6
CONTINUOUS
10
41.5482
20
42.0668
11
41.5261
21
42.178
0
LINE
8
BLACK
6
CONTINUOUS
10
41.5261
20
42.178
11
41.504
21
42.2891
0
LINE
8
BLACK
6
CONTINUOUS
10
41.504
20
42.2891
11
41.504
21
42.5159
0
LINE
8
BLACK
6
CONTINUOUS
10
41.504
20
42.5159
11
41.5261
21
42.627
0
LINE
8
BLACK
6
CONTINUOUS
10
41.5261
20
42.627
11
41.5482
21
42.7382
0
LINE
8
BLACK
6
CONTINUOUS
10
41.5482
20
42.7382
11
41.635
21
42.9477
0
LINE
8
BLACK
6
CONTINUOUS
10
41.635
20
42.9477
11
41.761
21
43.1362
0
LINE
8
BLACK
6
CONTINUOUS
10
41.761
20
43.1362
11
41.9213
21
43.2965
0
LINE
8
BLACK
6
CONTINUOUS
10
41.9213
20
43.2965
11
42.1098
21
43.4225
0
LINE
8
BLACK
6
CONTINUOUS
10
42.1098
20
43.4225
11
42.3193
21
43.5093
0
LINE
8
BLACK
6
CONTINUOUS
10
42.3193
20
43.5093
11
42.4305
21
43.5314
0
LINE
8
BLACK
6
CONTINUOUS
10
42.4305
20
43.5314
11
42.5416
21
43.5535
0
LINE
8
BLACK
6
CONTINUOUS
10
42.5416
20
43.5535
11
42.7684
21
43.5535
0
LINE
8
BLACK
6
CONTINUOUS
10
42.7684
20
43.5535
11
42.8795
21
43.5314
0
LINE
8
BLACK
6
CONTINUOUS
10
195.255
20
43.7314
11
195.366
21
43.7093
0
LINE
8
BLACK
6
CONTINUOUS
10
195.366
20
43.7093
11
195.575
21
43.6225
0
LINE
8
BLACK
6
CONTINUOUS
10
195.575
20
43.6225
11
195.764
21
43.4965
0
LINE
8
BLACK
6
CONTINUOUS
10
195.764
20
43.4965
11
195.924
21
43.3362
0
LINE
8
BLACK
6
CONTINUOUS
10
195.924
20
43.3362
11
195.951
21
43.2965
0
LINE
8
BLACK
6
CONTINUOUS
10
195.951
20
43.2965
11
196.05
21
43.1477
0
LINE
8
BLACK
6
CONTINUOUS
10
196.05
20
43.1477
11
196.055
21
43.1362
0
LINE
8
BLACK
6
CONTINUOUS
10
196.055
20
43.1362
11
196.133
21
42.9477
0
LINE
8
BLACK
6
CONTINUOUS
10
196.133
20
42.9477
11
196.137
21
42.9382
0
LINE
8
BLACK
6
CONTINUOUS
10
196.137
20
42.9382
11
196.177
21
42.7382
0
LINE
8
BLACK
6
CONTINUOUS
10
196.177
20
42.7382
11
196.181
21
42.7159
0
LINE
8
BLACK
6
CONTINUOUS
10
196.181
20
42.7159
11
196.181
21
42.4891
0
LINE
8
BLACK
6
CONTINUOUS
10
196.181
20
42.4891
11
196.137
21
42.2668
0
LINE
8
BLACK
6
CONTINUOUS
10
196.137
20
42.2668
11
196.05
21
42.0573
0
LINE
8
BLACK
6
CONTINUOUS
10
196.05
20
42.0573
11
195.924
21
41.8688
0
LINE
8
BLACK
6
CONTINUOUS
10
195.924
20
41.8688
11
195.764
21
41.7085
0
LINE
8
BLACK
6
CONTINUOUS
10
195.764
20
41.7085
11
195.575
21
41.5825
0
LINE
8
BLACK
6
CONTINUOUS
10
195.575
20
41.5825
11
195.366
21
41.4957
0
LINE
8
BLACK
6
CONTINUOUS
10
195.366
20
41.4957
11
195.255
21
41.4736
0
LINE
8
BLACK
6
CONTINUOUS
10
195.255
20
41.4736
11
195.143
21
41.4515
0
LINE
8
BLACK
6
CONTINUOUS
10
195.143
20
41.4515
11
194.917
21
41.4515
0
LINE
8
BLACK
6
CONTINUOUS
10
194.917
20
41.4515
11
194.805
21
41.4736
0
LINE
8
BLACK
6
CONTINUOUS
10
194.805
20
41.4736
11
194.694
21
41.4957
0
LINE
8
BLACK
6
CONTINUOUS
10
194.694
20
41.4957
11
194.485
21
41.5825
0
LINE
8
BLACK
6
CONTINUOUS
10
194.485
20
41.5825
11
194.296
21
41.7085
0
LINE
8
BLACK
6
CONTINUOUS
10
194.296
20
41.7085
11
194.136
21
41.8688
0
LINE
8
BLACK
6
CONTINUOUS
10
194.136
20
41.8688
11
194.01
21
42.0573
0
LINE
8
BLACK
6
CONTINUOUS
10
194.01
20
42.0573
11
193.923
21
42.2668
0
LINE
8
BLACK
6
CONTINUOUS
10
193.923
20
42.2668
11
193.879
21
42.4891
0
LINE
8
BLACK
6
CONTINUOUS
10
193.879
20
42.4891
11
193.879
21
42.7159
0
LINE
8
BLACK
6
CONTINUOUS
10
193.879
20
42.7159
11
193.883
21
42.7382
0
LINE
8
BLACK
6
CONTINUOUS
10
193.883
20
42.7382
11
193.923
21
42.9382
0
LINE
8
BLACK
6
CONTINUOUS
10
193.923
20
42.9382
11
193.927
21
42.9477
0
LINE
8
BLACK
6
CONTINUOUS
10
193.927
20
42.9477
11
194.005
21
43.1362
0
LINE
8
BLACK
6
CONTINUOUS
10
194.005
20
43.1362
11
194.01
21
43.1477
0
LINE
8
BLACK
6
CONTINUOUS
10
194.01
20
43.1477
11
194.109
21
43.2965
0
LINE
8
BLACK
6
CONTINUOUS
10
194.109
20
43.2965
11
194.136
21
43.3362
0
LINE
8
BLACK
6
CONTINUOUS
10
194.136
20
43.3362
11
194.296
21
43.4965
0
LINE
8
BLACK
6
CONTINUOUS
10
194.296
20
43.4965
11
194.485
21
43.6225
0
LINE
8
BLACK
6
CONTINUOUS
10
194.485
20
43.6225
11
194.694
21
43.7093
0
LINE
8
BLACK
6
CONTINUOUS
10
194.694
20
43.7093
11
194.805
21
43.7314
0
LINE
8
BLACK
6
CONTINUOUS
10
194.805
20
43.7314
11
194.917
21
43.7535
0
LINE
8
BLACK
6
CONTINUOUS
10
194.917
20
43.7535
11
195.143
21
43.7535
0
LINE
8
BLACK
6
CONTINUOUS
10
195.143
20
43.7535
11
195.255
21
43.7314
  0
ENDSEC
  0
EOF
